<?xml version="1.0" encoding="UTF-8" standalone="no"?>
<!-- Created with Inkscape (http://www.inkscape.org/) -->
<svg xml:space="preserve" id="svg1797" version="1.1" viewBox="0 0 119.32703 121.70833" height="460" width="450.99979" sodipodi:docname="Array Background_pirate.svg" inkscape:version="1.2 (dc2aedaf03, 2022-05-15)" inkscape:export-filename="Array Background_pirate.png" inkscape:export-xdpi="96" inkscape:export-ydpi="96" xmlns:inkscape="http://www.inkscape.org/namespaces/inkscape" xmlns:sodipodi="http://sodipodi.sourceforge.net/DTD/sodipodi-0.dtd" xmlns:xlink="http://www.w3.org/1999/xlink" xmlns="http://www.w3.org/2000/svg" xmlns:svg="http://www.w3.org/2000/svg"><sodipodi:namedview id="namedview60782" pagecolor="#505050" bordercolor="#ffffff" borderopacity="1" inkscape:showpageshadow="0" inkscape:pageopacity="0" inkscape:pagecheckerboard="1" inkscape:deskcolor="#505050" showgrid="false" inkscape:zoom="0.86305552" inkscape:cx="229.41745" inkscape:cy="225.94143" inkscape:window-width="1366" inkscape:window-height="705" inkscape:window-x="-8" inkscape:window-y="-8" inkscape:window-maximized="1" inkscape:current-layer="svg1797"/><defs id="defs1794"><inkscape:path-effect effect="fillet_chamfer" id="path-effect96704" is_visible="true" lpeversion="1" nodesatellites_param="F,0,0,1,0,1,0,1 @ F,0,0,1,0,1,0,1 @ F,0,0,1,0,1,0,1 @ F,0,0,1,0,1,0,1 @ F,0,0,1,0,1,0,1 @ F,0,0,1,0,1,0,1" unit="px" method="auto" mode="F" radius="1" chamfer_steps="1" flexible="false" use_knot_distance="true" apply_no_radius="true" apply_with_radius="true" only_selected="false" hide_knots="false"/><linearGradient inkscape:collect="always" id="linearGradient65497"><stop style="stop-color:#1358c1;stop-opacity:1;" offset="0" id="stop65493"/><stop style="stop-color:#5bcef4;stop-opacity:1;" offset="1" id="stop65495"/></linearGradient><linearGradient inkscape:collect="always" id="linearGradient65484"><stop style="stop-color:#3299e5;stop-opacity:1;" offset="0" id="stop65480"/><stop style="stop-color:#3299e5;stop-opacity:0;" offset="1" id="stop65482"/></linearGradient><linearGradient id="linearGradient15224"><stop style="stop-color:#553b12;stop-opacity:1;" offset="0" id="stop15220"/><stop style="stop-color:#825d22;stop-opacity:0;" offset="1" id="stop15222"/></linearGradient><linearGradient xlink:href="#linearGradient1843" id="linearGradient1845" x1="103.63087" y1="130.07936" x2="104.40303" y2="79.164139" gradientUnits="userSpaceOnUse" gradientTransform="translate(-44.31334,-78.56939)"/><linearGradient id="linearGradient1843"><stop style="stop-color:#98ffe6;stop-opacity:1;" offset="0.04761904" id="stop1839"/><stop style="stop-color:#16acef;stop-opacity:1;" offset="1" id="stop1841"/></linearGradient><clipPath clipPathUnits="userSpaceOnUse" id="clipPath11698"><rect style="opacity:0.808;fill:#a52d0c;fill-opacity:1;stroke-width:0.15875;stroke-linejoin:round;stop-color:#000000" id="rect11700" width="119.32703" height="121.70828" x="44.313396" y="78.569443"/></clipPath><linearGradient xlink:href="#linearGradient15224" id="linearGradient15226" x1="216.52132" y1="203.09604" x2="216.39946" y2="181.9886" gradientUnits="userSpaceOnUse" gradientTransform="matrix(1,0,0,1.0098798,-157.27656,-82.484912)"/><style id="style6175">.cls-1{fill:url(#linear-gradient);}.cls-2{fill:#ba2e7e;}.cls-3{fill:url(#linear-gradient-2);}.cls-4{fill:#ffcd05;}.cls-5{fill:#fabc2e;}.cls-6,.cls-7{fill-opacity:0.5;}.cls-6{fill:url(#radial-gradient);}.cls-7{fill:url(#radial-gradient-2);}.cls-8{fill:#9a1c25;}.cls-9{fill:#fff;}.cls-10{fill:#32160f;}.cls-11,.cls-13{fill:#61727c;}.cls-12{fill:#92a1ad;}.cls-13{opacity:0.25;}.cls-14{fill:#bc6234;}.cls-15{fill:#f6871f;}.cls-16{fill:#9e1f63;}.cls-17{fill:#f4fbfe;}</style><linearGradient inkscape:collect="always" xlink:href="#linearGradient65484" id="linearGradient65486" x1="70.479561" y1="73.683182" x2="69.60585" y2="109.79668" gradientUnits="userSpaceOnUse" gradientTransform="matrix(1,0,0,0.87735849,0,13.96568)"/><linearGradient inkscape:collect="always" xlink:href="#linearGradient65497" id="linearGradient65499" x1="53.587975" y1="90.254089" x2="53.520138" y2="72.197342" gradientUnits="userSpaceOnUse"/><clipPath clipPathUnits="userSpaceOnUse" id="clipPath2478"><rect style="fill:#d3bed2;fill-opacity:1;stroke:none;stroke-width:8.04466;stroke-linejoin:round;stroke-opacity:0.727941;stop-color:#000000" id="rect2480" width="119.3271" height="121.70833" x="-2.6500444e-05" y="0"/></clipPath></defs><g id="g2462" clip-path="url(#clipPath2478)"><rect style="fill:url(#linearGradient1845);fill-opacity:1;stroke-width:0.636184;stroke-linecap:round;stroke-linejoin:round" id="rect1837" width="119.32701" height="121.70834" x="2.0810547e-05" y="-2.211322e-06" ry="0"/><path id="rect62359" style="fill:url(#linearGradient65499);fill-opacity:1;stroke-width:0.148336;stroke-linejoin:round;stop-color:#000000" d="m 122.25227,76.30054 c 0,-2.327646 -1.88046,-8.077487 -6.83273,-8.210676 -2.77807,-0.07471 -7.5524,5.050049 -10.99811,5.185987 -7.389273,0.291516 -15.577638,0.670833 -21.408078,-0.562931 -5.133925,-1.086377 -23.787204,-5.725173 -38.236111,-4.518686 -5.79841,0.484168 -6.51406,5.107659 -12.183021,6.361429 -6.315944,1.396859 -12.655305,1.766465 -17.554252,1.962374 C 5.7472435,76.889654 -0.31808409,73.061319 0.01312749,72.71292 v 34.5574 H 122.25227 Z" sodipodi:nodetypes="ssssssscccs"/><path id="path65488" style="fill:#ffffff;fill-opacity:1;stroke-width:0.142157;stroke-linejoin:round;stop-color:#000000" d="M 31.152598,73.210969 C 11.91632,78.543009 -0.09287188,73.071859 0.01291911,71.881915 v 3.731555 0.05478 c 0.43938093,0.576626 14.27257489,2.55422 31.96342389,-1.039213 7.312237,-1.48529 6.489223,-4.946775 13.946512,-5.156073 12.730667,-0.357301 32.838096,3.441246 37.399587,4.184114 5.347508,0.870876 12.561137,0.406061 19.327178,0.138606 3.66452,-0.144856 9.45131,-3.737361 12.48566,-3.522874 5.27463,0.372844 6.78824,5.162123 7.11721,8.636069 v -3.786332 c 0,-2.733567 -3.67134,-11.199926 -9.82904,-11.251003 1.69381,0.632169 -0.67437,7.482543 -11.91142,8.219193 -7.417364,0.17049 -11.642602,0.874994 -17.498492,-0.263079 C 78.292354,70.910111 55.918935,62.43952 42.646454,62.399393 54.432361,66.79513 35.426063,68.258076 31.152598,73.210969 Z M 0.01291911,71.881915 v -0.05426 c -0.01674438,0.01618 -0.01504301,0.03452 0,0.05426 z" sodipodi:nodetypes="ccccssssccsccsccccc"/><path id="rect65321" style="fill:url(#linearGradient65486);fill-opacity:1;stroke-width:0.150933;stroke-linejoin:round;stop-color:#000000" d="M 0.58247572,87.810968 6.590697,83.056535 89.701261,81.837844 c 4.949752,2.118205 7.771138,-1.32251 12.720889,-0.256179 2.73242,0.588648 6.71407,5.118784 10.01845,6.671622 2.80201,1.316753 4.94116,-0.24598 7.25816,-0.442319 V 113.87401 H 0.58247572 Z" sodipodi:nodetypes="cccsscccc"/><path id="path65264" style="fill:#dde8f9;fill-opacity:1;stroke-width:0.148854;stroke-linejoin:round;stop-color:#000000" d="M 80.37804,78.279976 C 65.378174,86.270419 42.742029,84.733063 38.304122,84.658398 27.593955,84.478206 32.295058,82.680414 34.365344,78.469112 35.003575,77.170845 21.222524,86.284711 9.9890544,85.67229 1.8377608,85.227901 6.4562038,78.60014 4.951119,79.622013 L 0.01291911,82.97478 v 6.409945 C 1.3728859,89.30682 2.7133854,92.809816 3.8150485,92.393539 45.514459,76.636913 18.090329,91.063756 12.359969,95.132178 c -8.4778521,6.019082 16.200769,-8.740074 19.042249,-6.451286 6.0148,4.844872 0.607423,-0.66316 6.901904,0.732772 6.992045,1.55063 69.238478,2.988959 49.821248,-1.106393 -3.685515,-0.777324 -6.901909,-13.577635 15.79527,-4.260252 1.60915,0.660573 7.33476,6.539634 9.17036,7.379456 2.74358,1.255242 5.59378,-2.82497 9.16149,-1.786469 V 86.67843 c -2.37116,-0.04356 -5.58785,2.103342 -8.80952,1.282344 -3.81002,-0.970928 -7.77669,-5.094682 -12.50339,-7.61219 -6.130455,-3.265169 -20.56154,4.879115 -20.56154,-2.068608 z" sodipodi:nodetypes="cssssccsssssssccssc"/><path id="path1580" style="opacity:0.906;fill:#ffffff;fill-opacity:1;fill-rule:evenodd;stroke-width:0.318303" d="M 7.2915446 21.382674 C 4.221722 21.382674 1.5298442 23.339913 0 26.283667 L 0 46.606974 L 9.5441203 46.606974 C 10.733644 46.606974 11.691276 45.64934 11.691276 44.459819 C 11.691276 43.850293 11.439189 43.302219 11.033952 42.912109 L 35.267098 42.912109 C 36.456621 42.912109 37.414254 41.954475 37.414254 40.764954 C 37.414254 39.57543 36.456621 38.617798 35.267098 38.617798 L 31.046167 38.617798 L 30.506665 38.13359 C 30.862411 34.681465 29.417948 31.772388 26.757023 31.139185 C 25.034616 30.729306 23.145006 31.354937 21.518583 32.685343 C 21.280694 29.839815 19.351113 27.62157 17.006197 27.62157 C 16.409019 27.62157 15.8391 27.765752 15.316895 28.02723 C 14.050794 24.135068 10.934682 21.382674 7.2915446 21.382674 z M 102.62268 28.110946 C 99.909797 28.110946 97.557798 30.244054 96.400834 33.360754 C 95.674308 32.498541 94.757523 31.984094 93.761202 31.984094 C 91.735335 31.984094 90.039274 34.111211 89.600732 36.964669 C 89.473739 36.937427 89.343338 36.923328 89.210575 36.923328 C 88.633963 36.923328 88.104272 37.190136 87.687154 37.636462 C 86.822784 36.361297 85.607396 35.567338 84.261007 35.567338 C 82.101886 35.567338 80.279589 37.608544 79.702112 40.403219 C 79.076663 40.036622 78.358769 39.82806 77.595264 39.82806 C 75.370307 39.82806 73.531714 41.598416 73.243591 43.893962 L 70.30992 43.893962 C 69.220592 43.893962 68.343632 44.770921 68.343632 45.86025 C 68.343632 46.949578 69.220592 47.826538 70.30992 47.826538 L 77.567358 47.826538 C 77.196109 48.183804 76.965328 48.685714 76.965328 49.244023 C 76.965328 50.333351 77.842288 51.210828 78.931616 51.210828 L 104.21741 51.210828 C 105.30674 51.210828 106.1837 50.333351 106.1837 49.244023 C 106.1837 48.685714 105.95292 48.183804 105.58167 47.826538 L 119.32708 47.826538 L 119.32708 37.479883 C 119.03613 37.288458 118.72155 37.138072 118.37882 37.045801 C 116.98461 36.670441 115.45476 37.243349 114.13825 38.461735 C 113.94578 35.855764 112.3844 33.824292 110.48628 33.824292 C 110.0028 33.824292 109.54117 33.956297 109.1184 34.195846 C 108.09357 30.631583 105.57152 28.110946 102.62268 28.110946 z M 20.150191 33.279106 L 20.858158 33.279106 C 20.812745 33.323775 20.767611 33.368697 20.722766 33.414498 L 20.150191 33.279106 z M 113.03083 39.004854 L 113.60392 39.004854 C 113.5672 39.045716 113.53063 39.086982 113.49436 39.128878 L 113.03083 39.004854 z "/><path id="rect68647" style="fill:#c06917;stroke-width:0.15875;stroke-linejoin:round;stop-color:#000000" d="m 95.817251,26.211406 9.610849,-0.291238 c 0,0 1.10899,13.50056 -0.22519,20.049696 -1.32484,6.503265 -6.803563,11.819129 -7.582756,18.410071 -1.164534,9.85041 4.604326,29.39865 4.604326,29.39865 L 76.88679,87.080114 C 71.991934,70.909373 81.958621,58.305401 96.344544,46.762046 Z" sodipodi:nodetypes="ccaacccc"/><path id="path78839" style="color:#000000;fill:#7a410c;stroke-linejoin:round" d="m 91.293563,76.933624 0.03772,1.474329 c -1.06145,0.851714 -2.095065,1.710251 -3.104203,2.574519 3.637159,-0.641105 7.274319,-4.251569 10.911478,0 0.447868,-1.09409 0.815758,-2.211494 1.051098,-3.366719 0.0447,-0.219491 0.0862,-0.447793 0.12557,-0.682129 -2.524035,-1.449561 -5.666831,-1.042841 -9.021667,0 z m -12.10107,12.999723 c -1.113942,1.32758 -2.140384,2.676061 -3.065963,4.048849 6.126337,-2.881815 12.368121,-6.427449 16.875456,0 0.365782,-1.389516 0.910865,-2.730794 1.544609,-4.048849 -3.727518,-3.302476 -8.303373,-4.590151 -15.354102,0 z m -7.437272,13.000243 c -0.401658,1.32481 -0.70299,2.6736 -0.894519,4.04885 6.205281,-3.82379 13.152738,-5.31503 22.265824,0 -0.198773,-1.36971 -0.361907,-2.72903 -0.47904,-4.04885 -12.211113,-6.996033 -15.861835,-2.57821 -20.892265,0 z m -0.586527,13.00024 c 0.186429,0.91916 0.419445,1.84915 0.704866,2.79208 l 4.753715,1.25677 c 3.61688,-6.52443 10.96409,-4.23172 19.131649,0 -0.303486,-1.21899 -0.626623,-2.58116 -0.95343,-4.04885 -11.151446,-7.04849 -17.861231,-4.53032 -23.6368,0 z" transform="translate(5.0132197,-31.645949)" sodipodi:nodetypes="ccccscccccccccccccccccc"/><path id="path79504" style="fill:#7c440f;fill-opacity:0.36274511;stroke-width:0.15875;stroke-linejoin:round;stop-color:#000000" d="M 105.53826 27.492895 L 101.30028 27.62157 L 101.82789 48.172253 C 87.441987 59.715597 77.475315 72.319481 82.370166 88.490206 L 102.21185 93.735881 C 102.14074 93.494399 96.463137 74.168939 97.620398 64.38005 C 98.39959 57.789114 103.87804 52.473062 105.20288 45.969804 C 106.26936 40.734735 105.77968 31.165366 105.53826 27.492895 z "/><path id="ellipse78688" style="fill:#522411;fill-opacity:0.392157;fill-rule:evenodd;stroke-width:0.145268" d="m 99.372923,29.956018 c -4.040317,-0.176067 -4.312684,2.271391 -2.531729,5.880094 0.465113,1.115281 -1.307303,3.977697 -0.443207,4.893636 1.013551,1.07436 2.821575,1.036845 4.271533,0.682239 2.42983,-0.516532 4.34261,-2.75029 4.49325,-5.225394 0.25472,-2.807417 -1.81926,-5.61375 -4.62593,-6.113101 l -1.160468,-0.11726 z" sodipodi:nodetypes="ccsccccc"/><g id="g96910" transform="matrix(1.1790176,-0.42921453,0.42921453,1.1790176,-79.867117,-72.344018)"><path id="rect80227" style="fill:#c96739;fill-opacity:1;stroke:none;stroke-width:1.98552;stroke-linejoin:round;stroke-dasharray:none;stroke-opacity:1;stop-color:#000000" d="m 21.886285,127.40337 c -4.416476,-0.0748 -8.692986,2.61922 -9.559309,6.02337 -0.361703,1.7693 -0.281147,3.5641 -0.422994,5.34894 l 1.153221,10.84672 h 27.431928 c 0.16159,-3.33877 2.067208,-6.68311 2.237169,-10.0234 0.09232,-1.81429 0.178389,-3.6274 0.25011,-5.43776 -0.06625,-3.43694 -3.669064,-6.44232 -8.056108,-6.7202 -3.618588,-0.083 -7.251299,-0.0161 -10.875667,-0.0376 h -2.158352 z" sodipodi:nodetypes="ccccccccccc"/><path id="path82011" style="fill:#62321e;fill-opacity:1;stroke:none;stroke-width:1.98552;stroke-linejoin:round;stroke-dasharray:none;stroke-opacity:1;stop-color:#000000" d="m 21.886285,127.40337 c -4.416476,-0.0748 -8.692986,2.61922 -9.559309,6.02337 -0.361703,1.7693 -0.281147,3.5641 -0.422994,5.34894 l 1.153221,10.84672 h 27.431928 c 0.16159,-3.33877 2.067208,-6.68311 2.237169,-10.0234 0.09232,-1.81429 0.178389,-3.6274 0.25011,-5.43776 -0.06625,-3.43694 -3.669064,-6.44232 -8.056108,-6.7202 -3.618588,-0.083 -7.251299,-0.0161 -10.875667,-0.0376 h -2.158352 z" sodipodi:nodetypes="ccccccccccc"/><path id="path95279" style="color:#000000;fill:#4a2617;fill-opacity:1;stroke-width:1.41942;stroke-linejoin:round" d="m 27.174768,133.18075 -0.03771,0.7287 -0.03771,0.72869 H 42.95608 c 0.0065,-0.15885 0.01407,-0.31796 0.02036,-0.47678 -0.0064,-0.33156 -0.04651,-0.65914 -0.11625,-0.98061 z m -0.285017,5.50792 -0.03771,0.72869 -0.03773,0.72917 h 15.868588 c 0.01909,-0.18253 0.03423,-0.36495 0.04351,-0.54747 0.01545,-0.30359 0.0292,-0.60687 0.04426,-0.91039 z m -0.285042,5.50839 -0.03771,0.72869 -0.03773,0.72917 H 41.28631 c 0.144971,-0.48583 0.29619,-0.97197 0.445956,-1.45786 z"/><path id="path82013" style="fill:#ff803e;fill-opacity:1;stroke:none;stroke-width:1.80252;stroke-linejoin:round;stroke-dasharray:none;stroke-opacity:1;stop-color:#000000" d="m 20.232658,127.40337 c -3.63917,-0.0748 -7.188182,2.61922 -7.93314,6.02337 -0.314197,1.7693 -0.264145,3.5641 -0.397284,5.34894 l 0.851729,10.84672 h 19.179088 c -0.756891,-7.42138 3.148423,-20.89974 -0.958719,-22.18136 -2.981512,-0.083 -5.976029,-0.0161 -8.962866,-0.0376 h -1.778811 z" sodipodi:nodetypes="ccccccccc"/><path id="path94956" style="color:#000000;fill:#9a3c11;fill-opacity:1;stroke-width:1.41942;stroke-linejoin:round" d="m 13.136055,129.05385 -0.03771,0.7287 -0.03771,0.72869 h 19.079878 l 0.07542,-1.45739 z m -0.285017,5.50791 -0.03771,0.7287 -0.03773,0.72917 h 19.079878 l 0.07544,-1.45787 z m -0.285042,5.50839 -0.03771,0.7287 -0.03773,0.72917 h 19.079878 l 0.07544,-1.45787 z m -0.285042,5.50839 -0.03771,0.7287 -0.03773,0.72917 h 19.079878 l 0.07544,-1.45787 z"/><rect style="fill:#bfbfbf;fill-opacity:1;stroke:none;stroke-width:3.03978;stroke-linejoin:round;stroke-dasharray:none;stroke-opacity:1;stop-color:#000000" id="rect82067" width="30.86108" height="4.4608364" x="18.799242" y="137.77826" transform="matrix(1,0,-0.05167775,0.99866381,0,0)"/><rect style="fill:#515252;fill-opacity:1;stroke:none;stroke-width:1.82842;stroke-linejoin:round;stroke-dasharray:none;stroke-opacity:1;stop-color:#000000" id="rect89609" width="11.165531" height="4.4608364" x="39.889874" y="137.77826" transform="matrix(1,0,-0.05167775,0.99866381,0,0)"/><path id="path96298" style="fill:#d6d6d6;fill-opacity:0.257353;stroke:none;stroke-width:1.87692;stroke-linejoin:round;stroke-dasharray:none;stroke-opacity:1;stop-color:#000000" d="m 32.13814,137.5942 -0.04164,0.8046 h 11.781394 l 0.04164,-0.8046 z"/><rect style="fill:#515252;fill-opacity:1;stroke:none;stroke-width:2.39513;stroke-linejoin:round;stroke-dasharray:none;stroke-opacity:1;stop-color:#000000" id="rect82225" width="31.146832" height="2.7440381" x="18.513491" y="148.22212" transform="matrix(1,0,-0.05167775,0.99866381,0,0)"/><rect style="fill:#a7a7a7;fill-opacity:1;stroke:none;stroke-width:1.01306;stroke-linejoin:round;stroke-dasharray:none;stroke-opacity:1;stop-color:#000000" id="rect95206" width="19.654722" height="0.77793121" x="18.799242" y="141.46117" transform="matrix(1,0,-0.05167775,0.99866381,0,0)"/><rect style="fill:#333434;fill-opacity:1;stroke:none;stroke-width:0.77083;stroke-linejoin:round;stroke-dasharray:none;stroke-opacity:1;stop-color:#000000" id="rect95277" width="11.379258" height="0.77793121" x="39.60284" y="141.46117" transform="matrix(1,0,-0.05167775,0.99866381,0,0)"/><path id="rect96086" style="fill:#d6d6d6;fill-opacity:1;stroke:none;stroke-width:2.43839;stroke-linejoin:round;stroke-dasharray:none;stroke-opacity:1;stop-color:#000000" d="m 11.679352,137.5942 -0.04163,0.8046 H 31.52217 l 0.04164,-0.8046 z"/><rect style="fill:#333434;fill-opacity:1;stroke:none;stroke-width:1.23533;stroke-linejoin:round;stroke-dasharray:none;stroke-opacity:1;stop-color:#000000" id="rect96300" width="31.146832" height="0.72994918" x="18.513491" y="150.23621" transform="matrix(1,0,-0.05167775,0.99866381,0,0)"/><rect style="fill:#737474;fill-opacity:1;stroke:none;stroke-width:1.0794;stroke-linejoin:round;stroke-dasharray:none;stroke-opacity:1;stop-color:#000000" id="rect96440" width="31.146832" height="0.55731297" x="18.513491" y="148.22212" transform="matrix(1,0,-0.05167775,0.99866381,0,0)"/><path style="color:#000000;fill:#bfbfbf;stroke-width:0.918042;stroke-linejoin:round" d="m 36.063854,125.72183 -5.070314,1.6537 c -1.720867,6.2767 -3.068786,13.40315 -1.233982,21.98229 0.171007,0.7996 0.04404,0.64597 0.272613,1.47129 l 3.898208,0.022 c -0.192906,-0.69652 -0.188017,-1.64923 -0.336573,-2.32234 -1.798944,-8.15111 -0.45827,-14.64386 1.302761,-20.8968 l 0.988926,-0.25167 z" id="path89607" sodipodi:nodetypes="ccsccsccc"/><path style="color:#000000;fill:#bfbfbf;stroke-width:0.918042;stroke-linejoin:round" d="m 18.026852,126.08188 -5.623171,1.80586 c -2.137637,6.52464 -2.9882767,14.00543 -1.257823,21.7478 0.09459,0.42321 -0.0353,0.14965 0.07492,0.5743 l 3.99441,-0.4536 c -1.964269,-7.5677 -1.151688,-14.8899 1.011583,-21.25821 l 1.867958,-0.78701 z" id="path89542" sodipodi:nodetypes="ccsccccc"/><path id="path95602" style="color:#000000;fill:#a7a7a7;fill-opacity:1;stroke-width:0.918042;stroke-linejoin:round" d="m 18.026854,126.08166 -2.494644,0.80128 -0.437234,0.25334 c -1.769036,6.82237 -2.515968,14.65999 -1.145212,22.76368 l 1.265577,-0.14375 c -1.964266,-7.56769 -1.151929,-14.89007 1.011345,-21.25837 l 1.868161,-0.78705 z m -7.738031,12.77827 c -0.04903,0.83932 -0.07179,1.68671 -0.06742,2.54048 0.0041,-0.85332 0.02752,-1.70017 0.06742,-2.54048 z"/><rect style="fill:#bfbfbf;fill-opacity:1;stroke:none;stroke-width:1.97348;stroke-linejoin:round;stroke-dasharray:none;stroke-opacity:1;stop-color:#000000" id="rect89611" width="21.145554" height="2.7440381" x="18.513491" y="148.22212" transform="matrix(1,0,-0.05167775,0.99866381,0,0)"/><rect style="fill:#a7a7a7;fill-opacity:1;stroke:none;stroke-width:0.969687;stroke-linejoin:round;stroke-dasharray:none;stroke-opacity:1;stop-color:#000000" id="rect96511" width="19.191626" height="0.72994918" x="18.513491" y="150.23621" transform="matrix(1,0,-0.05167775,0.99866381,0,0)"/><rect style="fill:#000000;fill-opacity:0;stroke:none;stroke-width:3.03978;stroke-linejoin:round;stroke-dasharray:none;stroke-opacity:1;stop-color:#000000" id="rect95204" width="30.86108" height="4.4608364" x="18.799242" y="137.77826" transform="matrix(1,0,-0.05167775,0.99866381,0,0)"/><path id="path95390" style="color:#000000;fill:#666868;fill-opacity:0.27451;stroke-width:0.918042;stroke-linejoin:round" d="m 36.063609,125.72205 -1.801845,0.58733 -0.21942,0.23388 c -3.174282,9.99348 -2.891222,16.38515 -1.137537,24.3022 l 1.025392,0.006 c -0.192906,-0.69653 -0.187659,-1.64913 -0.336215,-2.32224 -1.798943,-8.15111 -0.458605,-14.64395 1.302425,-20.89688 l 0.988899,-0.25191 z m -7.11435,13.06577 c -0.04768,0.82384 -0.06989,1.66279 -0.06571,2.51675 0.0025,-0.85317 0.02505,-1.6919 0.06571,-2.51675 z" sodipodi:nodetypes="cccccscccccc"/><path id="rect95868" style="fill:#f2f2f2;fill-opacity:0.453431;stroke:none;stroke-width:1.45739;stroke-linejoin:round;stroke-dasharray:none;stroke-opacity:1;stop-color:#000000" d="m 30.58959,128.89919 c -0.434373,1.69616 -0.827657,3.45452 -1.126594,5.28731 0.997045,-2.91036 1.921533,-1.29523 2.852072,-0.0575 0.317309,-1.8073 0.615627,-3.44499 1.080192,-5.17237 -0.800471,0.26755 -0.531583,2.81038 -2.80567,-0.0575 z" sodipodi:nodetypes="ccccc"/><path id="rect96078" style="fill:#f2f2f2;fill-opacity:0.453431;stroke:none;stroke-width:1.45739;stroke-linejoin:round;stroke-dasharray:none;stroke-opacity:1;stop-color:#000000" d="m 12.086121,128.89919 c -0.515773,1.70547 -0.942053,3.47155 -1.256109,5.28731 1.151342,-1.49309 2.337493,-3.57381 2.942785,-0.28733 0.337857,-1.81993 0.500766,-3.3566 1.059818,-5.05745 -1.453725,1.07434 -3.102844,2.53174 -2.746494,0.0575 z" sodipodi:nodetypes="ccccc"/><rect style="fill:#d6d6d6;fill-opacity:1;stroke:none;stroke-width:0.835795;stroke-linejoin:round;stroke-dasharray:none;stroke-opacity:1;stop-color:#000000" id="rect96513" width="18.674408" height="0.55731297" x="18.513491" y="148.22212" transform="matrix(1,0,-0.05167775,0.99866381,0,0)"/><path id="rect96701" style="fill:#d6d6d6;stroke-width:1.3912;stroke-linejoin:round;stop-color:#000000" d="m 16.874082,135.66837 h 8.269286 a 1,1 45 0 1 1,1 v 2.35123 a 3.1541674,3.1541674 107.59074 0 1 -0.576168,1.81733 l -1.915014,2.71657 a 1.928433,1.928433 152.59074 0 1 -1.576168,0.81733 h -2.134586 a 1.928433,1.928433 27.409257 0 1 -1.576168,-0.81733 l -1.915014,-2.71657 a 3.1541674,3.1541674 72.409257 0 1 -0.576168,-1.81733 v -2.35123 a 1,1 135 0 1 1,-1 z" sodipodi:nodetypes="ccccccc" inkscape:original-d="m 15.874082,135.66837 h 10.269286 v 4.35123 l -3.06735,4.35123 h -4.134586 l -3.06735,-4.35123 z" inkscape:path-effect="#path-effect96704"/><path id="path96706" style="fill:#aaaaaa;fill-opacity:1;stroke-width:1.3912;stroke-linejoin:round;stop-color:#000000" d="m 23.766195,135.66854 a 1,1 0 0 1 0.999939,0.99994 v 2.35127 a 3.5576172,3.5576172 0 0 1 -0.520898,1.85364 l -1.613855,2.64376 a 1.7819778,1.7819778 0 0 1 -1.521354,0.8537 h 0.965832 a 1.928433,1.928433 0 0 0 1.576131,-0.81752 l 1.915129,-2.71663 a 3.1541672,3.1541672 0 0 0 0.576192,-1.81695 v -2.35127 a 1,1 0 0 0 -0.999939,-0.99994 z"/><path id="rect96773" style="fill:#aaaaaa;fill-opacity:1;stroke-width:2.05636;stroke-linejoin:round;stop-color:#000000" d="m 20.21057,136.59102 a 1.7401138,1.7401138 0 0 0 -1.73995,1.73994 1.7401138,1.7401138 0 0 0 0.80264,1.46478 l -1.074675,2.17852 h 4.02397 l -1.074674,-2.17852 a 1.7401138,1.7401138 0 0 0 0.802639,-1.46478 1.7401138,1.7401138 0 0 0 -1.73995,-1.73994 z"/><path id="path96846" style="fill:#181818;fill-opacity:1;stroke-width:1.80052;stroke-linejoin:round;stop-color:#000000" d="m 20.680062,136.59102 a 1.334062,1.7401138 0 0 0 -1.333936,1.73994 1.334062,1.7401138 0 0 0 0.615346,1.46478 l -0.823902,2.17852 h 3.084985 l -0.823901,-2.17852 a 1.334062,1.7401138 0 0 0 0.615345,-1.46478 1.334062,1.7401138 0 0 0 -1.333937,-1.73994 z"/></g><path id="rect61957" style="fill:#d9b647;fill-opacity:1;stroke-width:0.209579;stroke-linejoin:round;stop-color:#000000" d="m 40.448177,82.939071 c -10.531774,0 -19.429018,1.523561 -28.435351,8.225362 C 2.6482998,94.775104 1.960728,94.014247 0,97.965013 V 121.70833 H 119.32708 V 101.86076 C 116.12644,95.781175 112.41987,90.621643 101.5552,87.979472 83.499132,76.332027 84.246506,82.939071 78.878906,82.939071 Z" sodipodi:nodetypes="sccccccss"/><path id="ellipse9177" style="display:inline;opacity:0.808;fill:#997f33;fill-opacity:1;fill-rule:evenodd;stroke-width:0.182462" d="m 103.97692,161.75555 a 38.313263,9.176465 0 0 0 -38.313428,9.17618 38.313263,9.176465 0 0 0 0.07028,0.51522 40.767006,8.7394905 0 0 0 -2.523877,3.01428 40.767006,8.7394905 0 0 0 25.274943,8.08323 23.646143,9.176465 0 0 0 15.492082,2.24586 23.646143,9.176465 0 0 0 15.48949,-2.24483 40.767006,8.7394905 0 0 0 25.27753,-8.08426 40.767006,8.7394905 0 0 0 -2.52233,-3.02565 38.313263,9.176465 0 0 0 0.0687,-0.50385 38.313263,9.176465 0 0 0 -38.31342,-9.17618 z" transform="matrix(1,0,0,1.0098798,-44.31339,-79.345697)" clip-path="url(#clipPath11698)"/><ellipse style="display:inline;opacity:0.808;fill:#8d5e25;fill-opacity:1;fill-rule:evenodd;stroke-width:0.17486" id="ellipse7390" cx="59.663517" cy="97.922607" rx="30.557541" ry="6.5215755"/><rect style="fill:url(#linearGradient15226);fill-opacity:1;stroke:none;stroke-width:0.531775;stroke-linecap:round;stop-color:#000000" id="rect15218" width="119.32708" height="20.933168" x="5.551758e-06" y="101.97756"/><g id="g75257" transform="matrix(1.0708351,-0.47698126,0.47698126,1.0708351,-13.349029,48.324298)" inkscape:transform-center-x="19.276905" inkscape:transform-center-y="6.0455744"><path id="rect70326" style="fill:#8aa823;stroke-width:0.1268;stroke-linejoin:round;stop-color:#000000" d="M 84.867688,2.8582235 C 82.09521,2.858291 79.460007,3.6968076 77.20459,4.8255452 l 0.346232,3.848344 -2.461865,-2.6463501 C 73.542424,7.0153794 72.278298,8.070099 71.414762,8.9291707 69.613458,10.545791 64.560628,9.8553035 62.160547,13.479797 l 2.68149,1.751315 -3.595646,0.312125 c -0.399336,1.452412 -0.514629,3.329052 -0.211357,5.782593 0.09526,0.770679 0.571768,0.87748 1.045931,0.262516 2.763007,-3.583468 4.656109,-4.588226 8.192782,-4.544425 6.758317,0.08375 13.251694,0.165102 20.423559,0.07958 4.380369,-0.05223 7.543921,2.197068 8.905917,1.252636 L 99.391349,13.524756 C 96.378861,7.9649755 92.944508,5.0103129 89.513916,3.7052002 L 88.552734,7.413501 87.436523,3.1078206 C 86.572083,2.9363157 85.713632,2.8582029 84.867688,2.8582235 Z"/><path id="path73731" style="fill:#4f8711;fill-opacity:1;stroke-width:0.125339;stroke-linejoin:round;stop-color:#000000" d="m 81.78984,9.9451294 c -0.328831,2.4012316 0.105239,4.8024626 -1.064535,7.2036946 1.099303,0.006 2.207407,0.0092 3.322795,0.0098 0.913381,-2.821038 -0.96993,-4.942903 -2.25826,-7.2135136 z m 2.86184,0.9642826 0.789616,6.249747 c 1.071873,-0.0019 2.159793,-0.0084 3.256649,-0.01705 -2.956747,-1.639021 -3.054895,-4.057661 -4.046265,-6.232694 z m -10.092487,2.199921 c -0.261622,1.398003 -0.05309,2.930334 -1.580702,3.966627 0.812956,0.0097 1.630622,0.02024 2.441195,0.02894 z" sodipodi:nodetypes="cccccccccccc"/><path id="path74017" style="fill:#b1d951;fill-opacity:1;stroke-width:0.1268;stroke-linejoin:round;stop-color:#000000" d="m 84.867688,2.8582235 c -2.669265,1.26e-5 -5.289968,0.7791493 -7.663098,1.9673217 l 0.346232,3.848344 -2.461865,-2.6463501 c -1.57178,0.9011943 -2.823606,2.2382546 -4.26168,3.3009302 -2.551502,1.1134477 -5.686261,1.0600467 -7.791726,3.1082357 -0.815658,0.587823 -1.049614,1.2557 -0.0069,1.610201 0.960042,0.760117 0.669073,-1.914827 1.829581,-1.860562 2.017241,-1.266987 5.586337,-2.5478422 7.305852,-1.289335 -0.270775,-0.9301817 0.750305,-3.6346625 2.673463,-3.5971657 l 3.299299,3.3806417 -0.48255,-3.996629 c 1.645488,-3.0632851 7.914148,-4.846275 9.960116,-0.8763499 l 1.231857,3.8022432 1.08148,-3.8772564 c 3.149516,-1.1603564 7.285911,5.3683001 9.473619,9.1539391 0.0585,1.168575 0.117009,2.337151 0.175513,3.505727 -0.0064,-1.592879 -0.132929,-3.249874 -0.185519,-4.867403 C 97.164299,9.4117131 94.0077,5.4271042 89.513916,3.7052002 L 88.552734,7.413501 87.436523,3.1078206 C 86.591271,2.9399226 85.729333,2.8580141 84.867688,2.8582235 Z M 64.093245,15.296224 c -0.948951,0.08234 -1.897903,0.164675 -2.846854,0.247013 -0.490036,2.025784 -0.529774,4.208136 -0.07442,6.23522 1.019091,-0.407137 -0.869035,-5.728994 1.955626,-5.329485 0.879472,-0.06661 1.758944,-0.133226 2.638416,-0.199839 l -1.672767,-0.952909 z" sodipodi:nodetypes="ccccccccccccccccccccccscccccs"/></g><g id="g75265" transform="matrix(-1.1526048,-0.21377802,-0.21377802,1.1526048,220.2069,21.433467)"><path id="path75259" style="fill:#8aa823;stroke-width:0.1268;stroke-linejoin:round;stop-color:#000000" d="M 84.867688,2.8582235 C 82.09521,2.858291 79.460007,3.6968076 77.20459,4.8255452 l 0.346232,3.848344 -2.461865,-2.6463501 C 73.542424,7.0153794 72.278298,8.070099 71.414762,8.9291707 69.613458,10.545791 64.560628,9.8553035 62.160547,13.479797 l 2.68149,1.751315 -3.595646,0.312125 c -0.399336,1.452412 -0.514629,3.329052 -0.211357,5.782593 0.09526,0.770679 0.571768,0.87748 1.045931,0.262516 2.763007,-3.583468 4.656109,-4.588226 8.192782,-4.544425 6.758317,0.08375 13.251694,0.165102 20.423559,0.07958 4.380369,-0.05223 7.543921,2.197068 8.905917,1.252636 L 99.391349,13.524756 C 96.378861,7.9649755 92.944508,5.0103129 89.513916,3.7052002 L 88.552734,7.413501 87.436523,3.1078206 C 86.572083,2.9363157 85.713632,2.8582029 84.867688,2.8582235 Z"/><path id="path75261" style="fill:#4f8711;fill-opacity:1;stroke-width:0.125339;stroke-linejoin:round;stop-color:#000000" d="m 81.78984,9.9451294 c -0.328831,2.4012316 0.105239,4.8024626 -1.064535,7.2036946 1.099303,0.006 2.207407,0.0092 3.322795,0.0098 0.913381,-2.821038 -0.96993,-4.942903 -2.25826,-7.2135136 z m 2.86184,0.9642826 0.789616,6.249747 c 1.071873,-0.0019 2.159793,-0.0084 3.256649,-0.01705 -2.956747,-1.639021 -3.054895,-4.057661 -4.046265,-6.232694 z m -10.092487,2.199921 c -0.261622,1.398003 -0.05309,2.930334 -1.580702,3.966627 0.812956,0.0097 1.630622,0.02024 2.441195,0.02894 z" sodipodi:nodetypes="cccccccccccc"/><path id="path75263" style="fill:#b1d951;fill-opacity:1;stroke-width:0.1268;stroke-linejoin:round;stop-color:#000000" d="m 84.867688,2.8582235 c -2.669265,1.26e-5 -5.289968,0.7791493 -7.663098,1.9673217 l 0.346232,3.848344 -2.461865,-2.6463501 c -1.57178,0.9011943 -2.823606,2.2382546 -4.26168,3.3009302 -2.551502,1.1134477 -5.686261,1.0600467 -7.791726,3.1082357 -0.815658,0.587823 -1.049614,1.2557 -0.0069,1.610201 0.960042,0.760117 0.669073,-1.914827 1.829581,-1.860562 2.017241,-1.266987 5.586337,-2.5478422 7.305852,-1.289335 -0.270775,-0.9301817 0.750305,-3.6346625 2.673463,-3.5971657 l 3.299299,3.3806417 -0.48255,-3.996629 c 1.645488,-3.0632851 7.914148,-4.846275 9.960116,-0.8763499 l 1.231857,3.8022432 1.08148,-3.8772564 c 3.149516,-1.1603564 7.285911,5.3683001 9.473619,9.1539391 0.0585,1.168575 0.117009,2.337151 0.175513,3.505727 -0.0064,-1.592879 -0.132929,-3.249874 -0.185519,-4.867403 C 97.164299,9.4117131 94.0077,5.4271042 89.513916,3.7052002 L 88.552734,7.413501 87.436523,3.1078206 C 86.591271,2.9399226 85.729333,2.8580141 84.867688,2.8582235 Z M 64.093245,15.296224 c -0.948951,0.08234 -1.897903,0.164675 -2.846854,0.247013 -0.490036,2.025784 -0.529774,4.208136 -0.07442,6.23522 1.019091,-0.407137 -0.869035,-5.728994 1.955626,-5.329485 0.879472,-0.06661 1.758944,-0.133226 2.638416,-0.199839 l -1.672767,-0.952909 z" sodipodi:nodetypes="ccccccccccccccccccccccscccccs"/></g><g id="g77779" transform="matrix(1.2445921,0,0,1.2445921,9.1842506,-24.53194)"><ellipse style="fill:#885b45;fill-opacity:1;fill-rule:evenodd;stroke-width:0.125077" id="ellipse77775" cx="66.278976" cy="42.457016" rx="4.9949889" ry="4.9949961"/><path id="path77777" style="fill:#66402d;fill-opacity:1;fill-rule:evenodd;stroke-width:0.125077" d="m 70.500643,39.787767 a 5.9031685,4.9949959 0 0 1 0.137536,1.070799 5.9031685,4.9949959 0 0 1 -5.903056,4.994982 5.9031685,4.9949959 0 0 1 -2.501542,-0.472088 4.9949888,4.9949959 0 0 0 4.045464,2.070655 4.9949888,4.9949959 0 0 0 4.995024,-4.995197 4.9949888,4.9949959 0 0 0 -0.773426,-2.669151 z"/></g><g id="g77773" transform="matrix(1.2445921,0,0,1.2445921,16.411742,-18.607705)"><ellipse style="fill:#885b45;fill-opacity:1;fill-rule:evenodd;stroke-width:0.125077" id="path77038" cx="66.278976" cy="42.457016" rx="4.9949889" ry="4.9949961"/><path id="ellipse77766" style="fill:#66402d;fill-opacity:1;fill-rule:evenodd;stroke-width:0.125077" d="m 70.500643,39.787767 a 5.9031685,4.9949959 0 0 1 0.137536,1.070799 5.9031685,4.9949959 0 0 1 -5.903056,4.994982 5.9031685,4.9949959 0 0 1 -2.501542,-0.472088 4.9949888,4.9949959 0 0 0 4.045464,2.070655 4.9949888,4.9949959 0 0 0 4.995024,-4.995197 4.9949888,4.9949959 0 0 0 -0.773426,-2.669151 z"/></g><path id="path78507" style="fill:#522411;fill-opacity:0.392157;stroke-width:0.136104;stroke-linejoin:round;stop-color:#000000" d="m 104.62566,14.643034 c -1.72404,0.04968 -3.4546,0.02598 -5.174672,0.120306 -1.001123,0.185333 -2.008645,0.319458 -3.029479,0.262547 -2.640452,3.556743 -5.055959,7.404887 -6.290142,11.69581 0.02686,0.531289 -0.843309,1.970964 0.0066,1.875285 1.635092,-0.07487 3.270185,-0.149748 4.905278,-0.224622 -1.684824,1.451419 -3.369648,2.902838 -5.054472,4.354257 0.417317,1.175667 1.954714,1.090097 2.792381,1.833932 2.851019,1.797726 5.891731,3.269487 8.944888,4.687117 0.74311,-0.370348 1.48621,-0.740696 2.22932,-1.111044 2.25016,-6.143122 4.50033,-12.286244 6.75049,-18.429366 -1.89786,-1.834327 -3.93936,-3.52174 -6.08023,-5.064222 z m -8.204155,0.382922 c 0.235305,-0.44178 -0.116959,-0.113692 0,0 z m 0.09043,-0.272851 0.04806,-0.08785 z" sodipodi:nodetypes="ccccccccccccscccssssccccccsc"/><g id="g77036" transform="matrix(1.0494527,0,0,1.0494527,-39.085729,-29.49967)"><path id="rect75319" style="fill:#8aa823;stroke-width:0.128331;stroke-linejoin:round;stop-color:#000000" d="m 138.63392,41.18715 -9.15655,0.163298 c 0,0 -4.23062,7.208095 -4.95784,12.927893 l 5.02243,-0.22686 -4.79609,4.079338 c 0.0134,0.03993 0.0255,0.08055 0.0398,0.119889 1.01556,2.797827 6.95003,4.109229 11.097,5.990332 l 3.45922,-1.702222 -1.37562,2.819466 c 4.62077,2.977049 4.82244,6.719487 4.82244,6.719487 0,0 6.95263,-11.238022 6.57376,-18.068148 l -4.62142,0.380339 3.75326,-3.43855 c -2.49092,-4.661721 -9.86038,-9.764262 -9.86038,-9.764262 z"/><path id="path76704" style="color:#000000;fill:#4f8711;stroke-linejoin:round" d="m 136.50071,41.225391 -5.62859,0.100252 c 1.08017,0.809711 2.4242,1.666791 3.58324,2.934188 1.87939,2.055074 2.6031,4.935483 4.15737,7.1453 1.89323,2.691736 2.07051,7.685807 2.44946,7.67395 0.52916,-0.137098 -0.14723,-4.843461 -0.91932,-7.627958 -0.89122,-3.214156 -2.34038,-6.265578 -4.04678,-9.175151 -0.1905,-0.32481 0.007,-0.680137 0.40462,-1.050581 z"/><path id="path77021" style="fill:#4f8711;stroke-width:2.20923;stroke-linejoin:round;stop-color:#000000" d="m 136.26015,44.5852 2.43792,3.75069 c -4.24875,0.244538 -8.06377,0.485486 -9.3701,2.375914 0.5747,-2.365528 3.19501,-5.408855 6.93218,-6.126604 z" sodipodi:nodetypes="cccc"/><path id="rect76966" style="fill:#4f8711;stroke-width:1.67803;stroke-linejoin:round;stop-color:#000000" d="m 137.88644,47.03973 0.77535,3.16874 c 3.43221,-0.163885 4.97103,-0.60475 6.15391,0.635168 -0.62821,-1.635782 -3.87497,-3.590763 -6.92926,-3.803908 z" sodipodi:nodetypes="cccc"/><path id="path77023" style="fill:#4f8711;stroke-width:1.67803;stroke-linejoin:round;stop-color:#000000" d="m 140.02768,51.72478 0.20285,2.447963 c -3.18175,0.337045 -3.68167,-0.03389 -5.02126,0.892588 1.01744,-1.090861 2.05855,-2.715205 4.81841,-3.340551 z" sodipodi:nodetypes="cccc"/><path id="path77025" style="fill:#b1d951;fill-opacity:1;stroke-width:0.128331;stroke-linejoin:round;stop-color:#000000" d="m 138.63392,41.18715 -9.15655,0.163298 c 0,0 0.3516,-0.781577 -0.0586,-0.01192 0,0 5.55848,-0.09322 7.96565,1.084207 4.09673,2.003851 7.30844,5.000442 9.77873,9.568925 l -4.95787,3.987629 6.43661,-1.505237 c 0.28355,5.051449 -4.18841,13.071839 -6.0981,16.453403 0.22085,0.705094 0.24495,1.150317 0.24495,1.150317 0,0 6.95263,-11.238029 6.57376,-18.068148 l -4.62142,0.380339 3.75326,-3.43855 c -2.49092,-4.661716 -9.86038,-9.764262 -9.86038,-9.764262 z" sodipodi:nodetypes="cccaccccccccc"/></g></g></svg>