<?xml version="1.0" encoding="UTF-8"?>
<svg id="Layer_1" data-name="Layer 1" xmlns="http://www.w3.org/2000/svg" xmlns:xlink="http://www.w3.org/1999/xlink" viewBox="0 0 300 345">
  <defs>
    <style>
      .cls-1 {
        fill: url(#linear-gradient-2);
      }

      .cls-2 {
        fill: #fff;
      }

      .cls-3 {
        fill: #2f4c6c;
      }

      .cls-4 {
        fill: #8e191b;
      }

      .cls-5 {
        fill: #dae6f5;
      }

      .cls-6 {
        fill: #254359;
      }

      .cls-7 {
        fill: #e8f0f9;
      }

      .cls-8 {
        fill: #92bbe3;
      }

      .cls-9 {
        fill: #f68b1f;
      }

      .cls-10 {
        fill: #2a4863;
      }

      .cls-11 {
        fill: #d62027;
      }

      .cls-12 {
        fill: #7ca1d5;
      }

      .cls-13 {
        fill: #15141a;
      }

      .cls-14 {
        fill: url(#linear-gradient);
      }

      .cls-15 {
        fill: #2f2c38;
      }
    </style>
    <linearGradient id="linear-gradient" x1="150.00002" y1="13.76999" x2="150.00002" y2="169.48" gradientTransform="translate(0 346) scale(1 -1)" gradientUnits="userSpaceOnUse">
      <stop offset="0" stop-color="#9dc6ea"/>
      <stop offset=".69" stop-color="#416eb5"/>
    </linearGradient>
    <linearGradient id="linear-gradient-2" x1="150.01001" y1="182.05" x2="150.01001" y2="303.08" gradientTransform="translate(0 346) scale(1 -1)" gradientUnits="userSpaceOnUse">
      <stop offset="0" stop-color="#9dc6ea"/>
      <stop offset=".94" stop-color="#416eb5"/>
    </linearGradient>
  </defs>
  <path class="cls-14" d="M217.74002,345H82.26002c-22.05,0-39.92-19.88-39.92-44.41v-24.16h215.32v24.16c0,24.53-17.87001,44.41-39.92,44.41Z"/>
  <path class="cls-5" d="M257.72999,203.56v70.88c0,1.19-.03998,2.37-.13,3.53998-.58997,8.40002-3.28998,16.15002-7.51996,22.59003-7.25,11.08997-19.01001,18.28998-32.29004,18.28998H82.21004c-13.28003,0-25.04004-7.20001-32.29004-18.28998-4.82001-7.33002-7.64996-16.37-7.64996-26.13v-70.88c0-24.52997,17.88-44.40997,39.94-44.40997H217.78999c22.06,0,39.94,19.84998,39.94,44.40997Z"/>
  <path class="cls-4" d="M250.49002,201.32001s10.87001,7.75999,18.34001,7.75999c5.17191-.16759,10.28772-1.12534,15.16998-2.84l-8.60999,41s-29.88,1.67-38.49001-18"/>
  <path class="cls-11" d="M242.00001,186.39999s11.75,6.35001,19.16,5.42c5.11096-.80811,10.06827-2.3931,14.70001-4.7l-3.44,41.77s-29.44,5.37-40.42-13"/>
  <circle class="cls-12" cx="150.00001" cy="260.95999" r="8.06"/>
  <circle class="cls-15" cx="150.00001" cy="257.23001" r="8"/>
  <circle class="cls-12" cx="150.00001" cy="289.13" r="8.06"/>
  <path class="cls-3" d="M257.72998,203.56v81.84003H42.27002v-81.84003c0-1.21002,.03998-2.40997,.13-3.59998,.16998-2.37,.50995-4.67999,1-6.92999,1.65997-7.64001,5.10999-14.49005,9.81995-20.01001,.14001-.16003,.28003-.33002,.42004-.48999,2.70996-3.09003,5.82001-5.74005,9.25-7.84003,.02997-.02002,.06-.03998,.08997-.06,5.70001-3.48999,12.26001-5.47998,19.23004-5.47998H217.78998c6.97003,0,13.53003,1.98999,19.23004,5.47998,.02997,.02002,.06,.03998,.08997,.06,3.42999,2.09998,6.54004,4.75,9.26001,7.84003,.14001,.15997,.28003,.32996,.41998,.48999,4.71002,5.51996,8.15002,12.38,9.81,20.01001,.49005,2.25,.83002,4.56,1,6.92999,.09003,1.19,.13,2.38995,.13,3.59998Z"/>
  <path class="cls-1" d="M205.00001,172.82001H95.00001c-20.92605-.0276-37.8676-17.01389-37.84-37.93994v-15.36007H242.86001v15.35999c.02763,20.92606-16.91388,37.91237-37.83994,37.94-.00668,0-.01338,.00002-.02007,.00002Z"/>
  <rect class="cls-5" x="56.88001" y="23.52" width="186.24001" height="125.34" rx="37.94" ry="37.94"/>
  <circle class="cls-12" cx="207.47001" cy="98.6" r="22.63"/>
  <circle class="cls-12" cx="92.53001" cy="98.6" r="22.63"/>
  <circle class="cls-15" cx="207.47001" cy="104.88" r="22.63"/>
  <circle class="cls-15" cx="92.53001" cy="104.88" r="22.63"/>
  <path class="cls-9" d="M155.37001,116.77c0,5.17-3.42999,9.36-7.67,9.36s-41-3.11-41-9.36,36.74001-9.36,41-9.36,7.67,4.19,7.67,9.36Z"/>
  <circle class="cls-15" cx="150.00001" cy="139.92" r="4.99001"/>
  <circle class="cls-15" cx="166.92001" cy="138.21001" r="4.99001"/>
  <circle class="cls-15" cx="182.88002" cy="133.22" r="4.99001"/>
  <circle class="cls-15" cx="133.08001" cy="138.21001" r="4.99001"/>
  <circle class="cls-15" cx="117.12002" cy="133.22" r="4.99"/>
  <path class="cls-7" d="M197.92989,202.41602c-1.2623-1.74338-3.62526-2.0756-5.27404-.74284-1.63556,1.32112-1.95885,3.78249-.73622,5.52432,.11462,.17387,.23218,.43623,.28949,.63029-.1881,.13972-.59662,.38345-1.39603,.62796-2.75164,.84287-4.38601,.62893-5.21655,.36356,.11205-.79494,.15907-1.59172,.14089-2.39025-.17781-7.88012-6.74061-12.355-7.01981-12.54207-1.75752-1.17053-4.07934-.62175-5.19028,1.23418-1.10654,1.84661-.59368,4.28858,1.14474,5.46765,.11462,.08073,3.49301,2.5064,3.54591,6.07853,.0462,3.1524-2.41999,6.80662-7.1224,10.63704-.78618-.53355-1.57926-1.09029-2.38656-1.70544-9.13002-6.9573-28.28801-6.9573-37.41803,0-.80731,.61515-1.60038,1.17189-2.38656,1.70544-4.70241-3.83042-7.1686-7.48464-7.1224-10.63704,.0529-3.57214,3.43129-5.99781,3.54591-6.07853,1.73842-1.17907,2.25128-3.62104,1.14474-5.46765-1.11094-1.85593-3.43276-2.40471-5.19028-1.23418-.27921,.18707-6.842,4.66194-7.01981,12.54207-.01819,.79853,.02884,1.59531,.14089,2.39025-.83054,.26537-2.46491,.47931-5.21655-.36356-.79941-.24451-1.20793-.48824-1.39603-.62796,.05731-.19405,.17487-.45641,.28949-.63029,1.22263-1.74182,.89934-4.2032-.73622-5.52432-1.64878-1.33276-4.01174-1.00054-5.27404,.74284-.28214,.39121-2.73327,3.94161-1.48861,7.93446,.5878,1.8893,2.19544,4.41899,6.51137,5.7401,2.13813,.65435,3.99264,.90739,5.58411,.90739,1.92441,0,3.45829-.37152,4.64418-.85083,1.12546,1.71029,2.56474,3.40564,4.3072,5.08304-3.32548,1.29191-6.20176,1.648-8.32638,1.00762-1.58523-.47786-3.25963,.32679-3.80114,1.97168-1.39548,4.23881,1.12141,11.12974,10.10907,11.885,13.17124,1.10688,12.57912-6.58113,12.57912-6.58113,0,0,2.24503,6.641-1.34707,9.96145-3.5922,3.32045-7.48362,17.55117,8.23197,19.44853,0,0-.29932,3.32055,10.92612,3.32055s10.92603-3.32055,10.92603-3.32055c15.71559-1.89736,11.82417-16.12808,8.23197-19.44853-3.59211-3.32045-1.34707-9.96145-1.34707-9.96145,0,0-.59203,7.68801,12.57912,6.58113,8.98766-.75526,11.50455-7.64619,10.10907-11.885-.54151-1.64489-2.21592-2.44954-3.80114-1.97168-2.12462,.64038-5.0009,.28429-8.32638-1.00762,1.74246-1.6774,3.18175-3.37284,4.3072-5.08304,1.18598,.47931,2.71977,.85083,4.64418,.85083,1.59147,0,3.44598-.25305,5.58411-.90739,4.31593-1.32112,5.92356-3.8508,6.51137-5.7401,1.24467-3.99284-1.20646-7.54325-1.48861-7.93446Z"/>
  <circle class="cls-2" cx="212.51001" cy="96.11" r="7.9"/>
  <circle class="cls-2" cx="97.57001" cy="96.11" r="7.9"/>
  <path class="cls-13" d="M241.79001,186.83l36.99998-42.09,1.07999-27.05c.07733-1.933,1.707-3.43732,3.63998-3.36,1.93301,.07732,3.43735,1.707,3.36002,3.64h0l-.76999,19.35001,7.89999-8.14c1.23956-1.48324,3.44681-1.68079,4.93005-.44124,1.48322,1.23956,1.68079,3.44681,.44122,4.93005-.11392,.13629-.23804,.26372-.37128,.38118l-11.64001,12,8.60001-1.32001c1.91092-.29271,3.6973,1.01909,3.98999,2.93001,.29272,1.9109-1.01907,3.69728-2.92999,3.98999l-16.23001,2.48c-.17969,.01489-.36032,.01489-.54001,0-.13983,.00981-.28018,.00981-.42001,0l-32.79001,37.3c-1.27577,1.45251-3.48749,1.59578-4.93999,.31999-1.45251-1.27577-1.59578-3.48747-.32001-4.93999l.01007,.02Z"/>
  <path class="cls-5" d="M246.78998,173.02002c-1.75995,10.20996-11.47998,18.03998-23.23999,18.03998H76.45001c-11.75,0-21.47003-7.83002-23.23004-18.03998,.14001-.16003,.28003-.33002,.42004-.48999,2.70996-3.09003,5.82001-5.74005,9.25-7.84003,3.91998,2.53998,8.63,3.95001,13.56,3.91998H223.54999c4.92999,.03003,9.64001-1.38,13.56-3.91998,3.42999,2.09998,6.54004,4.75,9.26001,7.84003,.14001,.15997,.28003,.32996,.41998,.48999Z"/>
  <path class="cls-11" d="M238.74002,152c-3.98122,6.98796-11.42772,11.27917-19.47,11.22H80.73002c-8.04227,.05917-15.48879-4.23204-19.47001-11.22-1.59986,2.8248-2.51118,5.98701-2.66,9.23h-.05v4h.05c.5,11.36,10.2,20.44,22.13,20.44H219.27002c11.93001,0,21.63-9.08,22.13-20.44h0v-4h0c-.14882-3.24298-1.06013-6.4052-2.66-9.23Z"/>
  <path class="cls-4" d="M102.15001,185.64c-2.54306-3.79753-3.93232-8.25011-4-12.81999-.02396-3.38339,.87494-6.7093,2.6-9.62h-18.75c-1.72156,2.9117-2.61697,6.23753-2.59,9.62,.06824,4.56981,1.45746,9.02222,4,12.82001l18.74-.00002Z"/>
  <path class="cls-4" d="M76.54001,185.25c-2.4784-3.94662-3.82091-8.50008-3.88-13.16-.03856-3.3521,.76609-6.66011,2.34-9.62-4.87545-1.23869-9.1847-4.0986-12.22-8.11-1.6339,2.04848-3.02953,4.27612-4.16,6.64-.00494,.08659-.00494,.1734,0,.25999h-.05v4h.05c.61161,10.01408,8.03204,18.29169,17.92,19.99001Z"/>
  <path class="cls-4" d="M225.00001,162.47c1.58086,2.95805,2.39241,6.26617,2.36,9.62-.0591,4.65993-1.4016,9.21338-3.88,13.16,9.90869-1.70361,17.33528-10.01294,17.92-20.05h0v-4h0c.00494-.08659,.00494-.1734,0-.25999-1.14006-2.34744-2.54233-4.5582-4.17999-6.59-3.03371,4.01512-7.34314,6.87868-12.22,8.12Z"/>
  <path class="cls-4" d="M128.36001,172.82001c-.0351-3.26833,.47523-6.51961,1.50999-9.62h-21.71999c-1.03476,3.10039-1.5451,6.35167-1.51,9.62,.00245,4.38112,.80214,8.7252,2.36,12.81999h21.72c-1.55786-4.09479-2.35756-8.43887-2.36-12.81999Z"/>
  <path class="cls-4" d="M216.54001,185.64c2.54254-3.79779,3.93175-8.2502,4-12.81999,.04213-3.37776-.83592-6.70329-2.53999-9.62001h-18.71001c1.72505,2.91069,2.62396,6.2366,2.60001,9.62-.06767,4.56989-1.45694,9.02246-4,12.81999l18.64999,.00002Z"/>
  <path class="cls-4" d="M191.00001,185.64c1.55444-4.09541,2.35075-8.4395,2.35001-12.81999,.0351-3.26833-.47523-6.51961-1.50999-9.62h-21.71001c1.03476,3.10039,1.54509,6.35167,1.50999,9.62,.00075,4.38051-.79556,8.72458-2.35001,12.82001l21.71001-.00002Z"/>
  <path class="cls-4" d="M160.47001,172.82001v-9.62001h-18.62v22.44h18.62v-12.81999Z"/>
  <path class="cls-5" d="M257.72998,268.44v7.54999l-8.59998,5.06c-.76001,.44-1.70001,.66998-2.64001,.66998-.78998,0-1.58002-.15997-2.27997-.47998l-20.44-9.58997-18.25,9.5c-1.52002,.79999-3.62,.75-5.08002-.10004l-15.47998-9.14996-15.23004,9.13c-1.57001,.93994-3.87,.91998-5.39996-.04004l-14.33002-9-14.33002,9c-1.52997,.96002-3.82996,.97998-5.39996,.04004l-15.23004-9.13-15.47998,9.14996c-1.46002,.85004-3.54999,.90002-5.08002,.10004l-18.25-9.5-20.44,9.58997c-.69995,.32001-1.48999,.47998-2.27997,.47998-.92999,0-1.88-.22998-2.64001-.66998l-8.59998-5.06v-7.54999l11.51996,6.78998,20.28003-9.51996c1.44-.67004,3.33002-.64001,4.71997,.07996l17.97003,9.36005,15.65997-9.25c1.54004-.90002,3.78003-.90002,5.29999,.01996l15.16003,9.08002,14.39001-9.03998c1.69-1.06,4.28998-.96002,5.79999,.23999,.02997,.01996,.08002,.01996,.08002,.01996l13.96997,8.78003,15.16003-9.08002c1.51996-.91998,3.76996-.91998,5.29999-.01996l15.65997,9.25,17.97003-9.36005c1.38995-.71997,3.27997-.75,4.71997-.07996l20.28003,9.51996,11.51996-6.78998Z"/>
  <path class="cls-5" d="M107.44763,234.76996l-10.46136-8.64008c-1.10229-.91998-2.72675-.91998-3.84357-.01996l-11.35657,9.25-13.03186-9.36005c-1.008-.71997-2.37866-.75-3.42291-.07996l-14.70709,9.51996-8.35425-6.78998v7.54999l6.23669,5.06c.55115,.44,1.24011,.66998,1.91455,.66998,.57288,0,1.14581-.15997,1.65344-.47998l14.82306-9.58997,13.23486,9.5c1.10956,.79999,2.62524,.75,3.68402-.10004l11.22607-9.14996,11.0448,9.13c1.13861,.93994,2.80652,.91998,3.91608-.04004l2.32019-2.00934c-1.91583-1.05731-3.54694-2.60931-4.87616-4.42059Z"/>
  <path class="cls-5" d="M192.55237,234.76996l10.46136-8.64008c1.10229-.91998,2.72675-.91998,3.84357-.01996l11.35657,9.25,13.03186-9.36005c1.008-.71997,2.37866-.75,3.42291-.07996l14.70709,9.51996,8.35425-6.78998v7.54999s-6.23669,5.06-6.23669,5.06c-.55115,.44-1.24011,.66998-1.91455,.66998-.57288,0-1.14581-.15997-1.65344-.47998l-14.82306-9.58997-13.23486,9.5c-1.10956,.79999-2.62524,.75-3.68402-.10004l-11.22607-9.14996-11.0448,9.13c-1.13861,.93994-2.80652,.91998-3.91608-.04004l-2.32019-2.00934c1.91583-1.05731,3.54694-2.60931,4.87616-4.42059Z"/>
  <path class="cls-13" d="M58.21001,186.83l-37-42.09-1.08-27.05c-.07732-1.933-1.707-3.43732-3.64-3.36s-3.43732,1.707-3.36,3.64h0l.77,19.35001-7.9-8.14001c-1.23955-1.48324-3.44681-1.68079-4.93004-.44124-1.48324,1.23956-1.68078,3.44681-.44123,4.93005,.11391,.13629,.23802,.26372,.37127,.38118l11.64,12-8.64-1.29999c-1.92422-.18402-3.63328,1.2267-3.8173,3.15091-.1716,1.7944,1.04773,3.42566,2.8173,3.76909l16.23,2.48c.17969,.01489,.36031,.01489,.54,0,.13983,.00981,.28017,.00981,.42,0l32.81,37.3c1.27578,1.45251,3.48749,1.59578,4.94,.32001,1.45251-1.27579,1.59578-3.48749,.32-4.94h-.05Z"/>
  <path class="cls-10" d="M58.03999,191.84003c-4.32996,2.96997-13.70996,1.20996-23.34998-4.26001-2-1.14001-4.02002-2.44-6-3.89001-1.78998-1.31-3.54999-2.73999-5.26001-4.28998-.34998-.32001-.67999-.64001-.98999-.96002-2.20001-2.22003-3.53003-4.46002-4.22998-6.63-2.83002-8.76001,4.48999-16.40002,5.84998-17.64001,1.31-1.20001,8.90002-11.44,18.37-6.57996,1.91003,.96997,3.89001,2.56,5.91003,4.94995,1.31,1.55005,2.62994,3.42999,3.95996,5.70001,.73999,1.26001,1.42999,2.47003,2.08002,3.64001,1.29999,2.33997,2.42999,4.47998,3.39001,6.45001,7.42999,15.15997,5.32001,20.04999,.26996,23.51001Z"/>
  <rect class="cls-4" x="15.62854" y="139.1675" width="14.46099" height="25.66499" rx="7.23049" ry="7.23049" transform="translate(114.17549 28.356) rotate(45)"/>
  <path class="cls-10" d="M281.78998,171.81c-.69995,2.16998-2.02997,4.40997-4.22998,6.63-.31,.32001-.64001,.64001-.98999,.96002-.89001,.79999-1.78998,1.57996-2.70001,2.31-.28998,.23999-.57001,.46997-.85999,.69-2.22998,1.75-4.52002,3.31-6.81,4.64996-9.94,5.88-19.78003,7.85004-24.23999,4.79004-5.42999-3.72003-7.45001-9.08002,2.06-27.02002,.94995-1.78003,2.01001-3.69,3.19-5.73999,.15997-.28003,.32001-.56,.48999-.84003,.14996-.26001,.29999-.51001,.45996-.76001,1.17004-1.94,2.34003-3.57001,3.5-4.94,.5-.58997,.99005-1.13,1.49005-1.63,1.5-1.50995,2.97998-2.58997,4.41998-3.31995,9.46997-4.86005,17.06,5.37994,18.37,6.57996,1.35999,1.23999,8.67999,8.88,5.84998,17.64001Z"/>
  <rect class="cls-4" x="269.9105" y="139.1675" width="14.46099" height="25.66499" rx="7.23049" ry="7.23049" transform="translate(580.58951 63.51199) rotate(135.00001)"/>
  <path class="cls-5" d="M273.01001,182.40002c-2.22998,1.75-4.52002,3.31-6.81,4.64996l-22.17999-22.22998c.94995-1.78003,2.01001-3.69,3.19-5.73999,.15997-.28003,.32001-.56,.48999-.84003,.14996-.26001,.29999-.51001,.45996-.76001l1.34003,1.35004,6.46002,6.46997,9.06,9.09003,7.98999,8.01001Z"/>
  <path class="cls-5" d="M281.78998,170.95001v.85999c-.69995,2.16998-2.02997,4.40997-4.22998,6.63-.31,.32001-.64001,.64001-.98999,.96002-.89001,.79999-1.78998,1.57996-2.70001,2.31v-7.12l-8.84998-.20001-4.92999-.10999c-2.08002-.05005-3.76001-1.61005-3.86005-3.56006l-.26996-5.41998-.35004-7.15997-6.10999,.69-2.28998,.25c.15997-.28003,.32001-.56,.48999-.84003,.14996-.26001,.29999-.51001,.45996-.76001,1.17004-1.94,2.34003-3.57001,3.5-4.94,.5-.58997,.99005-1.13,1.49005-1.63l5.73999-.63995c1.09998-.13,2.19,.17999,3.01996,.85999,.85004,.66998,1.35004,1.63,1.40002,2.66998l.65997,13.10999,13.95001,.31c2.15002,.05005,3.87,1.70001,3.87,3.73004Z"/>
  <rect class="cls-4" x="42.27001" y="279.34581" width="215.46001" height="9.78419"/>
  <path class="cls-5" d="M26.99002,182.40002c2.22998,1.75,4.52002,3.31,6.81,4.64996l22.17999-22.22998c-.94995-1.78003-2.01001-3.69-3.19-5.73999-.15997-.28003-.32001-.56-.48999-.84003-.14996-.26001-.29999-.51001-.45996-.76001l-1.34003,1.35004-6.46002,6.46997-9.06,9.09003-7.98999,8.01001Z"/>
  <path class="cls-5" d="M18.21006,170.95001v.85999c.69995,2.16998,2.02997,4.40997,4.22998,6.63,.31,.32001,.64001,.64001,.98999,.96002,.89001,.79999,1.78998,1.57996,2.70001,2.31v-7.12s8.84998-.20001,8.84998-.20001l4.92999-.10999c2.08002-.05005,3.76001-1.61005,3.86005-3.56006l.26996-5.41998,.35004-7.15997,6.10999,.69,2.28998,.25c-.15997-.28003-.32001-.56-.48999-.84003-.14996-.26001-.29999-.51001-.45996-.76001-1.17004-1.94-2.34003-3.57001-3.5-4.94-.5-.58997-.99005-1.13-1.49005-1.63l-5.73999-.63995c-1.09998-.13-2.19,.17999-3.01996,.85999-.85004,.66998-1.35004,1.63-1.40002,2.66998l-.65997,13.10999-13.95001,.31c-2.15002,.05005-3.87,1.70001-3.87,3.73004Z"/>
  <circle class="cls-7" cx="74.96949" cy="209.13173" r="7.41448"/>
  <circle class="cls-7" cx="57.15998" cy="256.07345" r="7.41448"/>
  <circle class="cls-7" cx="94.60139" cy="254.28886" r="5.62989"/>
  <circle class="cls-7" cx="225.03051" cy="209.13173" r="7.41448"/>
  <circle class="cls-7" cx="242.84002" cy="256.07345" r="7.41448"/>
  <circle class="cls-7" cx="205.39861" cy="254.28886" r="5.62989"/>
  <path class="cls-8" d="M117.52404,33.27298l-.01337,.0127c-3.16895,9.87507-10.47916,21.5746-20.92498,32.37943-11.41861,11.80834-24.05609,19.91693-34.37693,22.89263-7.33647,2.11524-21.4788-10.497-20.25392-16.93445,2.04145-10.7291,9.96719-24.59043,22.1763-37.2089,12.19106-12.60572,25.77101-21.00086,36.43845-23.42343,6.42663-1.46882,19.70673,13.69661,16.95445,22.28202Z"/>
  <path class="cls-3" d="M103.63,32.20001l-.01001,.01001c-2.41998,7.52997-7.98999,16.44995-15.95001,24.69-4.84998,5.01996-10,9.15997-14.95996,12.23999-10.27002,6.35999-19.78003,8.15997-24.38,3.71997-.16003-.14996-.31-.31-.44-.46997l-.02002,.01996s-1.75-1.27997-4.13-3.62c-2.39996-2.37-5.45001-5.82001-8-10.12-6.34998-10.76001-9.52997-26.87,8.40002-44.81,.01001-.01001,.01001-.01996,.01001-.01996,0,0,17.84998-19.70001,39.73999-10.98004,3.51001,1.40002,7.13,3.53003,10.79999,6.60004,1.20001,1,2.40002,2.09998,3.60999,3.31,1.32001,1.31,2.64001,2.76001,3.96002,4.33997,1.48999,1.44,2.34998,3.41003,2.62,5.78003v.01001c.29999,2.66998-.14001,5.83997-1.25,9.29999Z"/>
  <path class="cls-6" d="M72.71243,69.13522c-10.27002,6.35999-19.78003,8.15997-24.38,3.72003-.16003-.15002-.31-.31006-.44-.47003l-.02002,.02002s-35.95001-26.32001-3.72998-58.54999c-.33002,.67999-9.79004,20.42999,6.01996,36.44995,.79004,.80005,1.64001,1.59003,2.56,2.37,2.99005,2.54004,5.64001,4.76001,7.97003,6.69,5.65997,4.72003,9.5,7.80005,12.02002,9.77002Z"/>
  <ellipse class="cls-8" cx="43.01358" cy="13.85526" rx="15.57805" ry="11.88361" transform="translate(2.80124 34.47331) rotate(-45)"/>
  <path class="cls-7" d="M94.69,9.46002l-2.77002,12.04999c-.48999,2.14996-2.12,3.84998-4.23999,4.44l-14.79999,4.12-3.41998,13.96997c-.55005,2.25-2.35004,3.98004-4.62,4.45001l-13.25,2.72998-1.08002,11.61005c-.22003,2.42999-1.90002,4.47998-4.23999,5.19l-2.53003,.76996c-2.39996-2.37-5.45001-5.82001-8-10.12l3.20001-.96997,1.10999-12.02002c.23999-2.63,2.17999-4.78998,4.76001-5.32001l13.90002-2.85999,3.34998-13.70001c.51001-2.09998,2.13-3.76996,4.22003-4.34998l14.73999-4.10004,2.87-12.48999c3.51001,1.40002,7.13,3.53003,10.79999,6.60004Z"/>
  <circle class="cls-7" cx="82.45109" cy="40.73121" r="5.91108"/>
  <circle class="cls-7" cx="62.3575" cy="61.61837" r="5.19752"/>
  <path class="cls-7" d="M104.88,22.89001v.01001c-.81,.39996-1.72003,.62-2.67999,.62-3.35999,0-6.09003-2.72003-6.09003-6.09003,0-1.88,.85004-3.54999,2.19-4.65997,1.32001,1.31,2.64001,2.76001,3.96002,4.33997,1.48999,1.44,2.34998,3.41003,2.62,5.78003Z"/>
</svg>