<?xml version="1.0" encoding="UTF-8" standalone="no"?>
<svg id="Layer_1" data-name="Layer 1" viewBox="0 0 300 345" version="1.1" sodipodi:docname="pirateGirl.svg" xml:space="preserve" inkscape:version="1.2 (dc2aedaf03, 2022-05-15)" xmlns:inkscape="http://www.inkscape.org/namespaces/inkscape" xmlns:sodipodi="http://sodipodi.sourceforge.net/DTD/sodipodi-0.dtd" xmlns:xlink="http://www.w3.org/1999/xlink" xmlns="http://www.w3.org/2000/svg" xmlns:svg="http://www.w3.org/2000/svg"><sodipodi:namedview id="namedview18470" pagecolor="#505050" bordercolor="#ffffff" borderopacity="1" inkscape:showpageshadow="0" inkscape:pageopacity="0" inkscape:pagecheckerboard="1" inkscape:deskcolor="#505050" showgrid="false" inkscape:zoom="0.40364012" inkscape:cx="251.46162" inkscape:cy="262.61017" inkscape:window-width="1366" inkscape:window-height="705" inkscape:window-x="-8" inkscape:window-y="-8" inkscape:window-maximized="1" inkscape:current-layer="Layer_1"/><defs id="defs18406"><inkscape:path-effect effect="mirror_symmetry" start_point="272.25672,162.01913" end_point="272.25672,201.76514" center_point="272.25672,181.89213" id="path-effect10354" is_visible="true" lpeversion="1.2" lpesatellites="#path10356" mode="vertical" discard_orig_path="false" fuse_paths="false" oposite_fuse="false" split_items="true" split_open="false" link_styles="false"/><inkscape:path-effect effect="mirror_symmetry" start_point="78.64648,0.0234375" end_point="78.64648,83.026768" center_point="78.64648,41.525103" id="path-effect10320" is_visible="true" lpeversion="1.2" lpesatellites="" mode="vertical" discard_orig_path="false" fuse_paths="false" oposite_fuse="false" split_items="true" split_open="false" link_styles="false"/><inkscape:path-effect effect="fillet_chamfer" id="path-effect8801" is_visible="true" lpeversion="1" nodesatellites_param="F,0,0,1,0,8.5185023,0,1 @ F,0,0,1,0,12.742805,0,1 @ F,0,0,1,0,0,0,1 @ F,0,1,1,0,12.742805,0,1" unit="px" method="auto" mode="F" radius="0" chamfer_steps="1" flexible="false" use_knot_distance="true" apply_no_radius="true" apply_with_radius="true" only_selected="false" hide_knots="false"/><inkscape:path-effect effect="mirror_symmetry" start_point="267.06925,199.81579" end_point="267.06925,262.34926" center_point="267.06925,231.08252" id="path-effect7179" is_visible="true" lpeversion="1.2" lpesatellites="" mode="vertical" discard_orig_path="false" fuse_paths="false" oposite_fuse="false" split_items="true" split_open="false" link_styles="false"/><linearGradient inkscape:collect="always" id="linearGradient4425"><stop style="stop-color:#641401;stop-opacity:1;" offset="0" id="stop4421"/><stop style="stop-color:#891b01;stop-opacity:1;" offset="1" id="stop4423"/></linearGradient><inkscape:path-effect effect="mirror_symmetry" start_point="96.346073,297.2282" end_point="96.346073,331.3031" center_point="96.346073,314.26565" id="path-effect2684" is_visible="true" lpeversion="1.2" lpesatellites="" mode="vertical" discard_orig_path="false" fuse_paths="false" oposite_fuse="false" split_items="true" split_open="false" link_styles="false"/><inkscape:path-effect effect="tiling" id="path-effect2442" is_visible="true" lpeversion="1" unit="px" seed="1;1" lpesatellites="" num_rows="1" num_cols="6" gapx="-27" gapy="0" offset="0" offset_type="false" scale="0" rotate="0" mirrorrowsx="false" mirrorrowsy="false" mirrorcolsx="false" mirrorcolsy="false" mirrortrans="false" shrink_interp="false" split_items="false" link_styles="false" interpolate_scalex="false" interpolate_scaley="true" interpolate_rotatex="false" interpolate_rotatey="true" random_scale="false" random_rotate="false" random_gap_y="false" random_gap_x="false" transformorigin=""/><inkscape:path-effect effect="tiling" id="path-effect2436" is_visible="true" lpeversion="1" unit="px" seed="1;1" lpesatellites="" num_rows="1" num_cols="6" gapx="-27" gapy="0" offset="0" offset_type="false" scale="0" rotate="0" mirrorrowsx="false" mirrorrowsy="false" mirrorcolsx="false" mirrorcolsy="false" mirrortrans="false" shrink_interp="false" split_items="true" link_styles="false" interpolate_scalex="false" interpolate_scaley="true" interpolate_rotatex="false" interpolate_rotatey="true" random_scale="false" random_rotate="false" random_gap_y="false" random_gap_x="false" transformorigin=""/><inkscape:path-effect effect="mirror_symmetry" start_point="194.45048,247.68374" end_point="194.45048,265.45226" center_point="194.45048,256.568" id="path-effect662" is_visible="true" lpeversion="1.2" lpesatellites="#path664" mode="vertical" discard_orig_path="false" fuse_paths="false" oposite_fuse="false" split_items="true" split_open="false" link_styles="false"/><inkscape:path-effect effect="mirror_symmetry" start_point="104.88329,146.22763" end_point="104.88329,194.5139" center_point="104.88329,170.37077" id="path-effect24159" is_visible="true" lpeversion="1.2" lpesatellites="" mode="vertical" discard_orig_path="false" fuse_paths="false" oposite_fuse="false" split_items="true" split_open="false" link_styles="false"/><inkscape:path-effect effect="mirror_symmetry" start_point="95.43,169.82999" end_point="95.43,260.04" center_point="95.43,214.935" id="path-effect20808" is_visible="true" lpeversion="1.2" lpesatellites="" mode="vertical" discard_orig_path="false" fuse_paths="false" oposite_fuse="false" split_items="true" split_open="false" link_styles="false"/><style id="style18393">.cls-1{fill:url(#linear-gradient);}.cls-2,.cls-5{fill:#4cc9f5;}.cls-2{fill-opacity:0.35;}.cls-3{fill:#fff;}.cls-4{fill:#9bd4ee;}.cls-6{fill:#fabc2e;}.cls-7{fill:#ffcd05;}.cls-8{fill:#fff0a4;}.cls-10,.cls-9{fill-opacity:0.5;}.cls-9{fill:url(#radial-gradient);}.cls-10{fill:url(#radial-gradient-2);}.cls-11{fill:#680e19;}.cls-12{fill:#c62639;}.cls-13{fill:#f4fbfe;}.cls-14{fill:#cd8029;}.cls-15{fill:#414042;}</style><linearGradient id="linear-gradient" x1="150" y1="356.11" x2="150" y2="161.16" gradientUnits="userSpaceOnUse"><stop offset="0.08" stop-color="#bfe7fb" id="stop18395" style="stop-color:#eee1df;stop-opacity:1;"/><stop offset="0.61000001" stop-color="#0db0da" id="stop18397" style="stop-color:#bcb5b4;stop-opacity:1;"/></linearGradient><radialGradient id="radial-gradient" cx="257.16" cy="256.38" r="41.85" gradientUnits="userSpaceOnUse"><stop offset="0" stop-color="#ec008c" id="stop18400"/><stop offset="1" stop-color="#ffcd05" stop-opacity="0" id="stop18402"/></radialGradient><radialGradient id="radial-gradient-2" cx="42.84" cy="256.38" r="41.85" xlink:href="#radial-gradient" gradientTransform="translate(0,18)"/><radialGradient inkscape:collect="always" xlink:href="#radial-gradient" id="radialGradient18601" gradientUnits="userSpaceOnUse" cx="257.16" cy="256.38" r="41.85" gradientTransform="translate(0,18)"/><linearGradient inkscape:collect="always" xlink:href="#linearGradient4425" id="linearGradient4427" x1="156.12912" y1="301.27478" x2="155.30225" y2="373.36374" gradientUnits="userSpaceOnUse"/></defs><title id="title18408">blook_alice</title><g class="UnoptimicedTransforms" id="g10334" transform="matrix(-1,0,0,1,300,0)"><path id="path10322" d="M 31.451172,0.0234375 14.556641,0.88476562 C -3.275415,24.47365 -0.96292795,40.141419 27.433594,44.1875 l 7,-2.109375 3.886718,5.109375 c 1.032677,-2.360021 1.914664,-4.755924 2.851563,-7.138672 l 1.220703,-0.367187 c -0.238496,-0.296789 -0.487839,-0.582575 -0.732422,-0.873047 3.329831,-8.197628 7.85386,-16.110516 22.623047,-21.59375 L 59.183594,4.1953125 C 42.316369,2.968978 32.04683,8.7755306 30.3125,22.859375 28.532292,17.488027 28.363448,10.445955 31.451172,0.0234375 Z" style="opacity:1;fill:#ff7305;stroke-width:1.55022;stroke-linecap:round;stroke-linejoin:round;stop-color:#000000"/><path id="path10324" d="M 63.152344,14.326172 C 43.665467,23.449815 34.76172,18.041975 31.886719,23.304688 19.812973,45.405772 10.73815,32.817132 4.3457031,19.099609 0.19348959,32.485944 7.1629456,41.299235 27.433594,44.1875 l 7,-2.109375 3.886718,5.109375 c 1.032676,-2.360019 1.914665,-4.755926 2.851563,-7.138672 l 1.220703,-0.367187 c -0.238496,-0.296789 -0.487839,-0.582576 -0.732422,-0.873047 3.329828,-8.19762 7.853875,-16.110522 22.623047,-21.59375 z" style="opacity:1;fill:#ea6203;fill-opacity:1;stroke-width:5.384;stroke-linecap:round;stroke-linejoin:round;stop-color:#000000"/><path id="path10326" d="m 26.197438,38.383321 c 5.182994,-4.694734 14.135607,-6.619078 20.988806,-4.511495 3.237788,0.995723 6.497954,4.050692 6.794461,7.270507 0.201213,2.18496 -1.008463,4.991892 -3.644493,5.558497 l -20.988804,4.511496 c -2.63603,0.56661 -5.25488,-1.000179 -5.87186,-3.512977 -1.49445,-3.956701 0.273195,-7.098005 2.72189,-9.316028 z" style="opacity:1;fill:#567c02;stroke-width:3.90657;stroke-linecap:round;stroke-linejoin:round;stop-color:#000000"/><path id="path10328" d="m 26.197438,38.383321 c 5.182994,-4.694734 14.135607,-6.619078 20.988806,-4.511495 3.237788,0.995723 6.497954,4.050692 6.794461,7.270507 0.201213,2.18496 -1.008463,4.991892 -3.644493,5.558497 l -20.988804,4.511496 c -2.63603,0.56661 -5.25488,-1.000179 -5.87186,-3.512977 -1.49445,-3.956701 0.273195,-7.098005 2.72189,-9.316028 z" style="opacity:1;fill:none;stroke:#024f00;stroke-width:3.90657;stroke-linecap:round;stroke-linejoin:round;stroke-opacity:1;stop-color:#000000"/><path id="path10330" d="m 44.426569,40.645558 29.812997,11.720483 a 6.9495975,6.9495975 0 0 1 1.517851,12.107684 L 53.189589,80.721661 C 37.468765,87.098241 26.60157,79.188662 17.794129,69.871437 12.960502,64.758034 14.548411,57.885881 20.450151,54.056434 c 3.844195,-2.494372 7.584476,-5.490334 11.091656,-9.611452 3.045699,-3.578853 8.506324,-5.520734 12.884762,-3.799424 z" style="opacity:1;fill:#ff7305;fill-opacity:1;stroke-width:2.97141;stroke-linecap:round;stroke-linejoin:round;stop-color:#000000"/><path id="path10332" d="m 19.367188,54.832031 c -4.995071,3.930763 -6.095107,10.254434 -1.572266,15.039063 8.807432,9.317215 19.673723,17.226183 35.394531,10.849609 L 75.757812,64.474609 c 2.126733,-1.53884 3.204894,-4.144711 2.78711,-6.736328 -19.550196,-5.374891 -23.218339,4.141462 -46.958513,12.651893 -1.83053,0.641586 15.457459,-15.415977 0.236585,-10.935583 -4.287357,1.26202 -8.047567,-0.595133 -12.455806,-4.62256 z" style="opacity:1;fill:#ea6203;fill-opacity:1;stroke-width:5.384;stroke-linecap:round;stroke-linejoin:round;stop-color:#000000"/></g><path class="cls-1" d="M 263.62,345 H 36.38 A 36.38,36.38 0 0 1 0,308.62 v -49.48 h 300 v 49.48 A 36.38,36.38 0 0 1 263.62,345 Z" id="path18410" style="fill:url(#linear-gradient)"/><path id="rect18422" class="cls-7" d="M 0 137.1875 L 0 262.00977 C 0 282.16427 16.226359 298.39062 36.380859 298.39062 L 263.61914 298.39062 C 283.77364 298.39062 300 282.16427 300 262.00977 L 300 137.1875 L 0 137.1875 z "/><circle class="cls-9" cx="257.16" cy="274.38" r="41.849998" id="circle18428" style="fill:url(#radialGradient18601)"/><circle class="cls-10" cx="42.84" cy="274.38" r="41.849998" id="circle18430" style="fill:url(#radial-gradient-2)"/><path class="cls-14" d="m 151,263.85 a 14.45,14.45 0 0 1 -6,1.57 14.91,14.91 0 0 1 -6.39,-1.12 13.18,13.18 0 0 1 -5.59,-4.29 11.76,11.76 0 0 1 -1.73,-3.24 10.7,10.7 0 0 1 -0.47,-1.79 c 0,-0.31 -0.09,-0.62 -0.12,-0.95 v -0.5 c 0,-0.18 0,-0.3 0,-0.63 v -1.69 l 2,-1.33 c 0.76,-0.51 1.78,-1.08 2.68,-1.61 l 2.75,-1.64 a 57.6,57.6 0 0 0 5.27,-3.53 c 0.83,-0.65 1.62,-1.34 2.39,-2.07 a 25.67,25.67 0 0 0 2.11,-2.4 20.36,20.36 0 0 0 3.1,-6.08 13.6,13.6 0 0 1 0,7.54 19.65,19.65 0 0 1 -3.55,7 25.29,25.29 0 0 1 -5.62,5.32 26.11,26.11 0 0 1 -3.31,1.92 18.68,18.68 0 0 1 -3.69,1.36 l 2,-3 c 0,-0.09 0,0 0.07,0.07 l 0.09,0.19 0.18,0.44 c 0.14,0.29 0.26,0.59 0.42,0.87 a 13.41,13.41 0 0 0 1,1.67 13,13 0 0 0 2.91,2.93 29.84,29.84 0 0 0 4.24,2.49 c 1.66,0.78 3.4,1.51 5.26,2.5 z" id="path18440"/><path id="path6688" style="opacity:1;fill:#ea9f02;fill-opacity:1;stroke-width:4.38592;stroke-linecap:round;stroke-linejoin:round;stop-color:#000000" d="M 175.26722,81.417969 139.64138,130.232 c -10.39045,7.17144 -18.15683,13.97663 -23.71292,20.40151 h -6.60978 c 0.52175,1.9802 1.2017,3.97671 2.00431,5.97484 -25.016171,36.9133 24.99155,59.89272 68.1565,64.38971 -15.19065,-6.20341 -24.81522,-14.63767 -29.98394,-25.27255 21.99562,11.00311 51.06789,14.2045 83.17871,0.16575 26.31076,-11.50296 47.337,8.63704 67.32574,27.95482 V 150.63351 H 147.80379 c 4.67036,-19.60438 14.48238,-42.66317 27.46343,-69.215541 z"/><path id="path7037" style="opacity:1;fill:#ea9f02;fill-opacity:1;stroke-width:5.384;stroke-linecap:round;stroke-linejoin:round;stop-color:#000000" d="m 33.492188,149.1875 c 63.968527,37.95048 52.171421,60.82772 144.465192,42.20716 l 16.59535,-42.20716 z" sodipodi:nodetypes="cccc"/><path style="fill:#ea9f02;fill-opacity:1;stroke-width:2.46708;stroke-linecap:round;stroke-linejoin:round;stop-color:#000000" d="m 0,169.61492 c 38.128281,6.92771 20.41672,38.58836 0,72.80708 z" id="path7039" sodipodi:nodetypes="ccc"/><path id="rect4988" style="opacity:1;fill:#ef6900;fill-opacity:1;stroke-width:5.384;stroke-linecap:round;stroke-linejoin:round;stop-color:#000000" d="m 33.492188,145.1875 c 25.034334,33.74138 31.175844,58.55793 144.465192,42.20716 l 16.59535,-42.20716 z" sodipodi:nodetypes="cccc"/><path id="rect5098" style="opacity:1;fill:#ff7305;fill-opacity:1;stroke-width:4.39546;stroke-linecap:round;stroke-linejoin:round;stop-color:#000000" d="M 179.18164,73.417969 144.67383,124.0332 c -10.06438,7.43606 -17.58703,14.49236 -22.96875,21.1543 h -6.40235 c 0.50537,2.05328 1.16398,4.12345 1.94141,6.19531 -24.231105,38.27537 24.20725,62.10271 66.01758,66.76563 -14.71393,-6.43231 -24.03646,-15.17779 -29.04297,-26.20508 21.30534,11.40912 49.46525,14.72863 80.56836,0.17187 25.48506,-11.92741 45.85145,8.95574 65.21289,28.98633 V 145.1875 H 152.58008 c 4.52379,-20.32776 14.02789,-44.2374 26.60156,-71.769531 z"/><g id="g7309" transform="matrix(1.0464787,0,0,1.0464787,-15.364624,-2.547635)"><path class="cls-6" id="path20810" d="m 204.57,221.78999 a 39.959999,39.959999 0 0 0 39.96,39.96 39.959999,39.959999 0 0 0 39.96,-39.96 39.959999,39.959999 0 0 0 -39.96,-39.96 39.959999,39.959999 0 0 0 -39.96,39.96 z" style="fill:#ea9f02;fill-opacity:1"/><path class="cls-3" id="path20812" d="m 204.57,232.08 a 39.959999,39.959999 0 0 0 39.96,39.96 39.959999,39.959999 0 0 0 39.96,-39.96 39.959999,39.959999 0 0 0 -39.96,-39.96 39.959999,39.959999 0 0 0 -39.96,39.96 z"/><path style="fill:#2f2f2f;fill-opacity:1;stroke-width:1.24222" d="m 235.83984,199.81641 a 31.266734,31.266734 0 1 0 30.53321,24.70703 h -0.0488 a 17.987378,17.987378 0 0 1 -26.08789,-24.38477 30.285377,30.285377 0 0 0 -4.39649,-0.32226 z m -12.42382,36.74218 a 7.4533333,7.4533333 0 0 1 6.72265,7.41797 7.4533333,7.4533333 0 0 1 -7.45312,7.45313 7.4533333,7.4533333 0 1 1 0.73047,-14.8711 z" id="path7186"/></g><g id="g7304" transform="matrix(1.0411948,0,0,1.0411948,1.7142132,-1.3485379)"><circle class="cls-6" cx="55.470001" cy="221.78999" r="39.959999" id="circle18442" style="fill:#ea9f02;fill-opacity:1"/><circle class="cls-3" cx="55.470001" cy="232.08" r="39.959999" id="circle18446"/><path style="fill:#2f2f2f;fill-opacity:1;stroke-width:1.24222" d="m 64.235523,199.81641 a 30.285377,30.285377 0 0 1 4.396484,0.32226 17.987378,17.987378 0 0 0 26.087891,24.38477 h 0.04883 A 31.266734,31.266734 0 1 1 64.235525,199.81641 Z m -13.154297,36.70703 a 7.4533333,7.4533333 0 0 0 0,14.90625 7.4533333,7.4533333 0 0 0 7.453125,-7.45313 7.4533333,7.4533333 0 0 0 -7.453125,-7.45312 z" id="path20814"/></g><path style="fill:#ff7305;fill-opacity:1;stroke-width:2.446;stroke-linecap:round;stroke-linejoin:round;stop-color:#000000" d="m 0,164.04065 c 38.128281,6.80984 20.41672,37.93182 0,71.56835 z" id="path5816" sodipodi:nodetypes="ccc"/><path style="fill:#a94a00;fill-opacity:1;stroke-width:1.18962" d="m 272.25672,162.53557 c -27.32563,-2.91469 -97.58122,6.05618 -91.3234,38.49293 1.88964,6.8112 71.17013,-35.78295 91.3234,-38.49293 z" id="path10352" inkscape:path-effect="#path-effect10354" inkscape:original-d="m 272.25672,162.53557 c -27.32563,-2.91469 -97.58122,6.05618 -91.3234,38.49293 1.88964,6.8112 71.17013,-35.78295 91.3234,-38.49293 z" class="UnoptimicedTransforms" transform="rotate(-9.2948503,208.92244,196.74075)"/><path id="path16122" style="fill:#813800;fill-opacity:0.436275;stroke-width:7.50758;stroke-linecap:round;stroke-linejoin:round;stop-color:#000000" d="m 4.6e-4,130.95074 v 53.22442 c 101.42653,-27.10785 201.51915,-28.85999 300,0 v -53.22443 c 0,-20.13641 -14.99823,-42.98185 -34.09505,-49.35239 C 188.52877,55.78615 111.15213,53.70131 33.77549,80.79443 14.77766,87.44645 4.6e-4,110.81433 4.6e-4,130.95074 Z" sodipodi:nodetypes="cccccsc"/><g id="g10348"><path id="path8876" style="fill:#ff7305;stroke-width:1.55022;stroke-linecap:round;stroke-linejoin:round;stop-color:#000000" d="M 31.451172,0.0234375 14.556641,0.88476562 C -3.275415,24.47365 -0.96292795,40.141419 27.433594,44.1875 l 7,-2.109375 3.886718,5.109375 c 1.032677,-2.360021 1.914664,-4.755924 2.851563,-7.138672 l 1.220703,-0.367187 c -0.238496,-0.296789 -0.487839,-0.582575 -0.732422,-0.873047 3.329831,-8.197628 7.85386,-16.110516 22.623047,-21.59375 L 59.183594,4.1953125 C 42.316369,2.968978 32.04683,8.7755306 30.3125,22.859375 28.532292,17.488027 28.363448,10.445955 31.451172,0.0234375 Z"/><path id="rect10029" style="fill:#ea6203;fill-opacity:1;stroke-width:5.384;stroke-linecap:round;stroke-linejoin:round;stop-color:#000000" d="M 63.152344,14.326172 C 43.665467,23.449815 34.76172,18.041975 31.886719,23.304688 19.812973,45.405772 10.73815,32.817132 4.3457031,19.099609 0.19348959,32.485944 7.1629456,41.299235 27.433594,44.1875 l 7,-2.109375 3.886718,5.109375 c 1.032676,-2.360019 1.914665,-4.755926 2.851563,-7.138672 l 1.220703,-0.367187 c -0.238496,-0.296789 -0.487839,-0.582576 -0.732422,-0.873047 3.329828,-8.19762 7.853875,-16.110522 22.623047,-21.59375 z"/><path id="path8803" style="fill:#567c02;stroke-width:3.90657;stroke-linecap:round;stroke-linejoin:round;stop-color:#000000" d="m 26.197438,38.383321 c 5.182994,-4.694734 14.135607,-6.619078 20.988806,-4.511495 3.237788,0.995723 6.497954,4.050692 6.794461,7.270507 0.201213,2.18496 -1.008463,4.991892 -3.644493,5.558497 l -20.988804,4.511496 c -2.63603,0.56661 -5.25488,-1.000179 -5.87186,-3.512977 -1.49445,-3.956701 0.273195,-7.098005 2.72189,-9.316028 z" sodipodi:nodetypes="aaassca"/><path id="path8878" style="fill:none;stroke:#024f00;stroke-width:3.90657;stroke-linecap:round;stroke-linejoin:round;stroke-opacity:1;stop-color:#000000" d="m 26.197438,38.383321 c 5.182994,-4.694734 14.135607,-6.619078 20.988806,-4.511495 3.237788,0.995723 6.497954,4.050692 6.794461,7.270507 0.201213,2.18496 -1.008463,4.991892 -3.644493,5.558497 l -20.988804,4.511496 c -2.63603,0.56661 -5.25488,-1.000179 -5.87186,-3.512977 -1.49445,-3.956701 0.273195,-7.098005 2.72189,-9.316028 z" sodipodi:nodetypes="aaassca"/><path id="rect8470" style="fill:#ff7305;fill-opacity:1;stroke-width:2.97141;stroke-linecap:round;stroke-linejoin:round;stop-color:#000000" d="m 44.426569,40.645558 29.812997,11.720483 a 6.9495975,6.9495975 0 0 1 1.517851,12.107684 L 53.189589,80.721661 C 37.468765,87.098241 26.60157,79.188662 17.794129,69.871437 12.960502,64.758034 14.548411,57.885881 20.450151,54.056434 c 3.844195,-2.494372 7.584476,-5.490334 11.091656,-9.611452 3.045699,-3.578853 8.506324,-5.520734 12.884762,-3.799424 z" sodipodi:nodetypes="ccccc"/><path id="rect9762" style="fill:#ea6203;fill-opacity:1;stroke-width:5.384;stroke-linecap:round;stroke-linejoin:round;stop-color:#000000" d="m 19.367188,54.832031 c -4.995071,3.930763 -6.095107,10.254434 -1.572266,15.039063 8.807432,9.317215 19.673723,17.226183 35.394531,10.849609 L 75.757812,64.474609 c 2.126733,-1.53884 3.204894,-4.144711 2.78711,-6.736328 -19.550196,-5.374891 -23.218339,4.141462 -46.958513,12.651893 -1.83053,0.641586 15.457459,-15.415977 0.236585,-10.935583 -4.287357,1.26202 -8.047567,-0.595133 -12.455806,-4.62256 z" sodipodi:nodetypes="csccccsc"/></g><path class="UnoptimicedTransforms" id="path10356" d="m 272.25672,162.53557 c -27.32563,-2.91469 -97.58122,6.05618 -91.3234,38.49293 1.88964,6.8112 71.17013,-35.78295 91.3234,-38.49293 z" style="fill:#a94a00;fill-opacity:1;stroke-width:1.18962" transform="matrix(-0.98687024,-0.16151512,-0.16151512,0.98687024,329.0335,36.327293)"/><g id="g21627" transform="translate(-352.66129,-360.33603)"><path id="rect14051" style="fill:#7244ae;fill-opacity:1;stroke-width:7.50758;stroke-linecap:round;stroke-linejoin:round;stop-color:#000000" d="m 352.66175,485.28677 v 53.22442 c 101.42653,-27.10785 201.51915,-28.85999 300,0 v -53.22443 c 0,-20.13641 -14.99823,-42.98185 -34.09505,-49.35239 -77.37664,-25.81219 -154.75328,-27.89703 -232.12992,-0.80391 -18.99783,6.65202 -33.77503,30.0199 -33.77503,50.15631 z" sodipodi:nodetypes="cccccsc"/><path id="circle22377" style="fill:#d3c5e6;fill-opacity:1;fill-rule:evenodd;stroke-width:1.525" d="m 502.50263,415.69345 c -8.41164,-0.0785 -16.8247,0.21581 -25.23633,0.76953 a 19.827808,19.827808 0 0 0 -0.32617,2.06446 19.827808,19.827808 0 0 0 19.82617,19.82812 19.827808,19.827808 0 0 0 19.82812,-19.82812 19.827808,19.827808 0 0 0 -0.14843,-2.40821 c -4.64788,-0.23309 -9.29549,-0.3824 -13.94336,-0.42578 z m 104.96875,16.75195 a 32.689091,32.689091 0 0 0 -0.84766,6.44532 32.689091,32.689091 0 0 0 32.68945,32.68945 32.689091,32.689091 0 0 0 10.62696,-1.81445 c -5.15354,-15.13692 -17.11721,-29.07641 -31.37305,-33.83203 -3.69867,-1.23385 -7.39703,-2.36346 -11.0957,-3.48829 z m -220.64649,2.5586 c -0.12955,0.0452 -0.25911,0.0816 -0.38867,0.12695 -18.99781,6.65202 -33.77539,30.01986 -33.77539,50.15625 v 3.60547 a 32.689091,32.689091 0 0 0 22.99609,9.48242 32.689091,32.689091 0 0 0 32.68946,-32.68945 32.689091,32.689091 0 0 0 -21.52149,-30.68164 z m 182.82227,20.5 a 12.325395,12.325395 0 0 0 -12.32422,12.32422 12.325395,12.325395 0 0 0 12.32422,12.32617 12.325395,12.325395 0 0 0 12.32617,-12.32617 12.325395,12.325395 0 0 0 -12.32617,-12.32422 z m -92.17188,28.9375 a 28.401997,28.401997 0 0 0 -28.40234,28.40234 28.401997,28.401997 0 0 0 1.20117,7.57813 c 18.44003,-1.87503 36.83324,-2.86794 55.17578,-2.89063 a 28.401997,28.401997 0 0 0 0.42774,-4.6875 28.401997,28.401997 0 0 0 -28.40235,-28.40234 z m 117.89454,24.65039 a 19.827808,19.827808 0 0 0 -18.60547,13.20508 c 12.83467,1.75038 25.64515,3.98083 38.42773,6.7207 a 19.827808,19.827808 0 0 0 0.006,-0.0977 19.827808,19.827808 0 0 0 -19.82812,-19.82812 z m -200.42188,5.35937 a 12.325395,12.325395 0 0 0 -12.32422,12.32618 12.325395,12.325395 0 0 0 0.86328,4.34375 c 7.92711,-1.71694 15.84757,-3.31257 23.75782,-4.70899 a 12.325395,12.325395 0 0 0 -12.29688,-11.96094 z"/><path id="rect15631" style="fill:#ff9cfb;fill-opacity:0.186047;stroke-width:2.50305;stroke-linecap:round;stroke-linejoin:round;stop-color:#000000" d="m 502.50159,415.69334 c -20.93724,-0.19542 -41.87525,1.61808 -62.8125,5.40429 15.88196,7.01199 27.18658,35.54143 13.27449,43.80722 -12.06214,7.16667 -42.96028,20.09686 -46.67078,27.73287 -1.6089,3.31103 43.65067,-9.89559 35.25193,16.99343 -1.27162,4.07115 -3.37846,8.09469 -5.35564,12.43328 57.26756,-7.24494 114.08318,-5.89084 170.38672,5.17969 -4.73277,-10.1894 42.75444,3.36559 44.94362,2.2465 6.79912,-3.47566 -41.10259,-24.38785 -53.80937,-28.4055 -6.10047,-1.92885 -3.54922,-13.60127 -4.48001,-18.66429 -2.74597,-14.9367 34.72086,-0.18383 37.7011,-6.67237 3.1178,-6.78806 -35.07296,-30.60608 -39.68817,-31.72803 -5.35643,-1.30215 2.23168,-10.42812 3.89924,-15.10248 -30.88025,-8.36815 -61.76038,-12.93639 -92.64063,-13.22461 z" sodipodi:nodetypes="scsssccssssscs"/><path id="path15570" style="fill:#2c0a5d;fill-opacity:0.627907;stroke-width:2.446;stroke-linecap:round;stroke-linejoin:round;stop-color:#000000" d="m 385.77503,489.59763 -33.11328,0.89649 v 13.29492 c 8.37748,-6.3008 17.75291,-10.0549 33.11328,-14.19141 z m 28.71875,5.74414 c -24.92865,4.24639 -43.70369,5.71324 -61.83203,14.94727 v 16.13477 c 11.3447,-10.60805 29.16697,-20.92234 61.83203,-31.08204 z m 181.29297,0 c 28.25638,8.78848 45.40693,17.6931 56.875,26.80274 v -14.1875 c -16.63056,-7.19199 -34.2097,-8.75439 -56.875,-12.61524 z"/></g><path style="fill:none;fill-opacity:1;stroke:#704819;stroke-width:5.674;stroke-linecap:round;stroke-dasharray:none;stroke-opacity:1;paint-order:stroke fill markers;stop-color:#000000" d="m 114.96056,269.18252 c 0,0 8.62696,9.60504 14.4814,11.59858 13.28907,4.52517 28.86223,3.85536 42.10767,-0.79597 5.03451,-1.76794 12.68004,-9.77058 12.68004,-9.77058" id="path51853" sodipodi:nodetypes="caac"/><path style="fill:#704819;fill-opacity:1;fill-rule:evenodd;stroke-width:0.832282" d="m 176.21828,247.78281 c -3.52729,1.90855 -2.73758,3.86555 1.11454,3.75827 2.04319,-0.0569 7.45635,2.37177 9.3473,3.72086 2.57057,1.83392 4.13416,5.18262 5.1404,8.09971 1.02798,2.98017 2.56215,2.75652 2.62291,-0.55791 0.0909,-4.95678 -3.57331,-10.48205 -7.86517,-13.3986 -2.88715,-1.96197 -6.59927,-3.28663 -10.35998,-1.62233 z" id="path657" inkscape:path-effect="#path-effect662" inkscape:original-d="m 176.21828,247.78281 c -3.52729,1.90855 -2.73758,3.86555 1.11454,3.75827 2.04319,-0.0569 7.45635,2.37177 9.3473,3.72086 2.57057,1.83392 4.13416,5.18262 5.1404,8.09971 1.02798,2.98017 2.56215,2.75652 2.62291,-0.55791 0.0909,-4.95678 -3.57331,-10.48205 -7.86517,-13.3986 -2.88715,-1.96197 -6.59927,-3.28663 -10.35998,-1.62233 z" class="UnoptimicedTransforms" transform="matrix(0.84720385,0.14369001,-0.14435384,0.85111783,63.465189,26.16923)" sodipodi:nodetypes="cssssac"/><path class="UnoptimicedTransforms" id="path664" d="m 176.21828,247.78281 c -3.52729,1.90855 -2.73758,3.86555 1.11454,3.75827 2.04319,-0.0569 7.45635,2.37177 9.3473,3.72086 2.57057,1.83392 4.13416,5.18262 5.1404,8.09971 1.02798,2.98017 2.56215,2.75652 2.62291,-0.55791 0.0909,-4.95678 -3.57331,-10.48205 -7.86517,-13.3986 -2.88715,-1.96197 -6.59927,-3.28663 -10.35998,-1.62233 z" style="fill:#704819;fill-opacity:1;fill-rule:evenodd;stroke-width:0.832282" transform="matrix(-0.84720385,0.14627638,0.14435384,0.85067714,236.53481,25.905054)"/><path id="path2697" style="fill:#b49999;fill-opacity:0.53921568;stroke-width:0.754911" class="cls-4 UnoptimicedTransforms" d="m -4.1143307,268.59252 -0.080075,0.0312 v 35.34172 c 2.1394373,0.0514 4.11394193,0.0178 5.5230142,-0.0879 0.723907,4.08811 2.8718874,12.78228 8.8363895,17.01269 3.177804,2.3847 7.658061,3.02023 12.21902,1.73233 3.170587,-0.8601 5.796497,-2.38216 8.009669,-4.21265 0.859779,4.21837 3.017146,8.05282 6.901604,10.75133 8.710214,5.39502 18.978383,-0.60953 25.877226,-6.31018 8.385003,7.783 21.491063,11.63944 31.820093,5.28485 5.21135,-4.20228 9.16981,-6.11787 14.23172,-0.6816 9.81509,6.6533 23.03027,4.11054 31.57121,-3.42949 6.55237,0.41635 14.7894,9.74019 23.81908,7.21052 8.96874,1.04985 15.50864,-12.89303 22.54004,-4.4763 9.57261,7.03377 23.06555,5.45946 31.85689,-2.07801 6.5255,-2.3806 14.29248,9.28494 23.25855,6.61876 9.04681,2.15925 16.04598,-12.21948 22.87766,-5.24384 7.11556,5.35685 19.08032,8.32787 25.1111,-0.20897 1.72186,-2.18656 2.78948,-4.63288 3.35666,-7.19295 2.12839,1.72072 4.63276,3.14661 7.62877,3.96853 4.51001,1.28789 8.94039,0.65239 12.08268,-1.73233 5.89786,-4.23041 8.02102,-12.92458 8.73684,-17.01269 1.54184,0.11699 3.76948,0.13829 6.16145,0.0469 v -35.02142 l -0.77695,-0.31052 c -6.03161,14.53241 -23.09505,22.69901 -42.85746,30.14279 -81.61938,10.40405 -163.2393,13.3418 -244.858681,0.19335 C 19.529033,291.43348 2.0375128,283.24902 -4.1143307,268.59252 Z" transform="matrix(0.90247369,0,0,1.0000576,3.7853408,3.9818576)"/><path id="rect2508" style="opacity:1;fill:#ffcd05;stroke-width:5.27087;stroke-linecap:round;stroke-linejoin:round;stop-color:#000000" d="m 34.14644,297.29732 234.2326,-0.59906 -14.81313,20.47697 H 40.082584 Z" sodipodi:nodetypes="ccccc"/><path id="path18416" style="fill:#ffffff;fill-opacity:1;stroke-width:0.754911" class="cls-4 UnoptimicedTransforms" d="M -4.1143307 268.59252 L -4.1944057 268.62376 L -4.1944057 303.96548 C -2.0549684 304.01693 -0.080463775 303.98331 1.3286085 303.87759 C 2.0525155 307.9657 4.2004959 316.65987 10.164998 320.89028 C 13.342802 323.27498 17.823059 323.91051 22.384018 322.62261 C 25.554605 321.76251 28.180515 320.24045 30.393687 318.40996 C 31.253466 322.62833 33.410833 326.46278 37.295291 329.16129 C 46.005505 334.55631 56.273674 328.55176 63.172517 322.85111 C 71.55752 330.63411 84.66358 334.49055 94.99261 328.13596 C 100.20396 323.93368 104.16242 322.01809 109.22433 327.45436 C 119.03942 334.10766 132.2546 331.5649 140.79554 324.02487 C 147.34791 324.44122 155.58494 333.76506 164.61462 331.23539 C 173.58336 332.28524 180.12326 318.34236 187.15466 326.75909 C 196.72727 333.79286 210.22021 332.21855 219.01155 324.68108 C 225.53705 322.30048 233.30403 333.96602 242.2701 331.29984 C 251.31691 333.45909 258.31608 319.08036 265.14776 326.056 C 272.26332 331.41285 284.22808 334.38387 290.25886 325.84703 C 291.98072 323.66047 293.04834 321.21415 293.61552 318.65408 C 295.74391 320.3748 298.24828 321.80069 301.24429 322.62261 C 305.7543 323.9105 310.18468 323.275 313.32697 320.89028 C 319.22483 316.65987 321.34799 307.9657 322.06381 303.87759 C 323.60565 303.99458 325.83329 304.01588 328.22526 303.92446 L 328.22526 268.90304 L 327.44831 268.59252 C 321.4167 283.12493 304.35326 291.29153 284.59085 298.73531 C 202.97147 309.13936 121.35155 312.07711 39.732169 298.92866 C 19.529033 291.43348 2.0375128 283.24902 -4.1143307 268.59252 z " transform="matrix(0.90247369,0,0,1.0000576,3.7853408,-0.0181424)"/><g id="g4419" transform="matrix(0.37534789,0,0,0.37534789,97.342803,184.4537)"><path class="cls-9" id="path4334" d="m 103.83912,391.73224 a 36.450001,36.450001 0 0 0 36.45,36.45 36.450001,36.450001 0 0 0 36.45,-36.45 36.450001,36.450001 0 0 0 -36.45,-36.45 36.450001,36.450001 0 0 0 -36.45,36.45 z" style="fill:#2c2f00;fill-opacity:1"/><path class="cls-9" id="path4338" d="m 112.85605,391.73224 a 27.433064,27.433064 0 0 0 27.43307,27.43306 27.433064,27.433064 0 0 0 27.43306,-27.43306 27.433064,27.433064 0 0 0 -27.43306,-27.43307 27.433064,27.433064 0 0 0 -27.43307,27.43307 z" style="fill:none;fill-opacity:1;stroke:#000000;stroke-width:4.216;stroke-dasharray:none;stroke-opacity:0.386301"/><path id="path4340" d="m 140.28904,355.23645 c 20.11448,0 36.4961,16.38161 36.4961,36.49609 0,20.11448 -16.38162,36.4961 -36.4961,36.4961 -20.11448,0 -36.49609,-16.38162 -36.49609,-36.4961 0,-20.11448 16.38161,-36.49609 36.49609,-36.49609 z m 0,7.06445 c -16.29681,0 -29.43164,13.13483 -29.43164,29.43164 0,16.29682 13.13483,29.43164 29.43164,29.43164 16.29682,0 29.43164,-13.13482 29.43164,-29.43164 0,-16.29681 -13.13482,-29.43164 -29.43164,-29.43164 z" style="color:#000000;fill:#696c3b"/><path transform="matrix(-0.77777777,0,0,0.77777777,329.52893,216.93512)" class="UnoptimicedTransforms" id="path4342" d="m 238.80833,212.466 c 0,4.29299 -3.48015,7.77315 -7.77314,7.77315 -4.29299,0 -7.77315,-3.48016 -7.77315,-7.77315 0,-4.29299 3.48016,-7.77314 7.77315,-7.77314 4.29299,0 7.77314,3.48015 7.77314,7.77314 z m 24.5463,0 c 0,4.29299 -3.48016,7.77315 -7.77315,7.77315 -4.29299,0 -7.77315,-3.48016 -7.77315,-7.77315 0,-4.29299 3.48016,-7.77314 7.77315,-7.77314 4.29299,0 7.77315,3.48015 7.77315,7.77314 z m -24.5463,24.5463 c 0,4.29299 -3.48015,7.77314 -7.77314,7.77314 -4.29299,0 -7.77315,-3.48015 -7.77315,-7.77314 0,-4.29299 3.48016,-7.77315 7.77315,-7.77315 4.29299,0 7.77314,3.48016 7.77314,7.77315 z m 24.5463,0 c 0,4.29299 -3.48016,7.77314 -7.77315,7.77314 -4.29299,0 -7.77315,-3.48015 -7.77315,-7.77314 0,-4.29299 3.48016,-7.77315 7.77315,-7.77315 4.29299,0 7.77315,3.48016 7.77315,7.77315 z" style="fill:#1b1d00;fill-opacity:1;fill-rule:evenodd"/></g><path id="rect3521" style="opacity:1;fill:url(#linearGradient4427);stroke-width:5.3475;stroke-linecap:round;stroke-linejoin:round;stop-color:#000000;fill-opacity:1" d="m 56.962891,300.67969 c -1.217789,17.45565 -0.706137,35.3224 -26.527344,43.53711 1.956841,0.42423 3.945365,0.68619 5.945312,0.7832 H 263.61914 c 1.90662,-0.0995 3.80245,-0.349 5.66992,-0.74609 -17.99636,-5.51773 -23.32628,-25.34266 -26.25195,-43.57422 h -16.01953 v 5.37695 c 0,15.45283 -12.43976,26.66224 -27.89258,26.66224 h -98.25 c -15.452826,0 -27.892578,-11.20941 -27.892578,-26.66224 v -5.37695 z" sodipodi:nodetypes="cccccccsssscc"/></svg>