<?xml version="1.0" encoding="UTF-8" standalone="no"?>
<svg id="Layer_1" data-name="Layer 1" viewBox="0 0 300 345" version="1.1" sodipodi:docname="scallywag.svg" xml:space="preserve" inkscape:version="1.2 (dc2aedaf03, 2022-05-15)" xmlns:inkscape="http://www.inkscape.org/namespaces/inkscape" xmlns:sodipodi="http://sodipodi.sourceforge.net/DTD/sodipodi-0.dtd" xmlns="http://www.w3.org/2000/svg" xmlns:svg="http://www.w3.org/2000/svg"><sodipodi:namedview id="namedview64" pagecolor="#505050" bordercolor="#ffffff" borderopacity="1" inkscape:showpageshadow="0" inkscape:pageopacity="0" inkscape:pagecheckerboard="1" inkscape:deskcolor="#505050" showgrid="false" inkscape:zoom="1.0047876" inkscape:cx="149.7829" inkscape:cy="145.30434" inkscape:window-width="1366" inkscape:window-height="705" inkscape:window-x="-8" inkscape:window-y="-8" inkscape:window-maximized="1" inkscape:current-layer="Layer_1"/><defs id="defs15"><inkscape:path-effect effect="fillet_chamfer" id="path-effect11233" is_visible="true" lpeversion="1" nodesatellites_param="F,0,0,1,0,0,0,1 @ F,0,0,1,0,0,0,1 @ F,0,0,1,0,0,0,1 @ F,0,0,1,0,0,0,1 @ F,0,0,1,0,0,0,1 @ F,0,0,1,0,0,0,1 @ F,0,0,1,0,10.704207,0,1" unit="px" method="auto" mode="F" radius="0" chamfer_steps="1" flexible="false" use_knot_distance="true" apply_no_radius="true" apply_with_radius="true" only_selected="false" hide_knots="false"/><style id="style2">.cls-1{fill:url(#linear-gradient);}.cls-2{fill:#ffcd05;}.cls-3{fill:none;stroke:#cd8e2a;stroke-miterlimit:10;stroke-width:8.99px;}.cls-4{fill:#5a459c;}.cls-5{fill:url(#linear-gradient-2);}.cls-6{fill:url(#linear-gradient-3);}.cls-7{fill:#8b5e3c;}.cls-8{fill:#66402d;}.cls-9{fill:#42308b;}.cls-10{fill:#fabc2e;}.cls-11{fill:#fff;}.cls-12{fill:#414042;}</style><linearGradient id="linear-gradient" x1="150" y1="358.06" x2="150" y2="201.46" gradientUnits="userSpaceOnUse"><stop offset="0" stop-color="#fabc2e" id="stop4"/><stop offset="1" stop-color="#cd8029" id="stop6"/></linearGradient></defs><title id="title17">blook_wizard</title><path class="cls-1" d="M263.62,344.81H36.38A36.38,36.38,0,0,1,0,308.43v-66H300v66A36.38,36.38,0,0,1,263.62,344.81Z" id="path19"/><path id="rect21" class="cls-2" d="M 0 112.33203 L 0 261.82031 C 0 281.97481 16.226359 298.19922 36.380859 298.19922 L 263.61914 298.19922 C 283.77364 298.19922 300 281.97481 300 261.82031 L 300 112.33203 L 0 112.33203 z "/><path id="rect11335" style="fill:#bd5b23;stroke-width:5.58387;stroke-linecap:round;stroke-linejoin:round;stroke-opacity:0.534884;stop-color:#000000" d="M 0,59.030617 C 23.155371,41.04106 57.856598,34.069607 94.098141,45.14106 H 205.90186 C 239.33271,35.679884 292.38631,41.270503 300,59.030617 V 102.43548 H 0 Z" sodipodi:nodetypes="ccccccc"/><path class="cls-4" d="m 222.46,281.69 c -26.88,4.6 -60.86862,49.61 -57.54862,63.12 H 263.62 c 20.09212,0 36.38,-16.28788 36.38,-36.38 v -27.16 c -33.56,4.08 -50.42,-4.27 -77.54,0.42 z" id="path25" style="fill:#dbdfdf;fill-opacity:1" sodipodi:nodetypes="ccsscc"/><path class="cls-4" d="m 77.54,281.69 c -27.12,-4.65 -44,3.66 -77.54,-0.42 v 27.16 c 0,20.09212 16.287881,36.38 36.38,36.38 h 98.70862 C 138.40862,331.3 104.42,286.29 77.54,281.69 Z" id="path27" style="fill:#dbdfdf;fill-opacity:1" sodipodi:nodetypes="ccsscc"/><circle class="cls-10" cx="240.58" cy="195.8203" r="41.346333" id="circle47" style="stroke-width:1.13433"/><path id="path16117" style="fill:#e27d13;stroke-width:0.91657;stroke-linecap:round;stroke-linejoin:round;stroke-opacity:0.534884;stop-color:#000000" d="m 276.27212,232.90194 c -1.11891,2.95797 1.00384,15.21988 5.1864,17.21901 4.68114,2.23742 13.46219,7.78426 14.49458,7.25779 0.67007,-2.12665 -6.73204,-12.81205 -10.50424,-16.47734 -4.16403,-4.04602 -8.17034,-10.66 -9.17674,-7.99946 z" sodipodi:nodetypes="sscss"/><path id="path16115" style="fill:#e27d13;stroke-width:1.00102;stroke-linecap:round;stroke-linejoin:round;stroke-opacity:0.534884;stop-color:#000000" d="m 264.94415,241.14773 c -0.85749,3.05133 4.42611,14.74403 9.69766,16.30615 5.89993,1.74833 16.35265,6.64019 17.49243,6.01272 0.45731,-2.18015 -9.16078,-11.55528 -14.20985,-14.81388 -5.57353,-3.59709 -12.20898,-10.24951 -12.98024,-7.50499 z" sodipodi:nodetypes="sscss"/><circle class="cls-11" cx="240.58" cy="207.2997" r="41.346333" id="circle51" style="stroke-width:1.13433"/><path id="rect12736" style="fill:#e27d13;stroke-width:1.83484;stroke-linecap:round;stroke-linejoin:round;stroke-opacity:0.534884;stop-color:#000000" d="m 292.36486,237.40482 c 2.88946,4.59033 -9.83449,20.76742 -20.63546,23.86977 -12.08849,3.47215 -27.52233,14.93157 -30.18834,14.11456 -1.73039,-3.30023 23.33366,-18.25292 33.07492,-23.9409 10.75312,-6.27881 15.14998,-18.17218 17.74888,-14.04343 z" sodipodi:nodetypes="sscss"/><g class="UnoptimicedTransforms" id="g2592" transform="matrix(-1,0,0,1,300,-20)"><path class="cls-10" id="path2586" d="M 283.92633,215.8203 A 41.346333,41.346333 0 0 1 242.58,257.16663 41.346333,41.346333 0 0 1 201.23367,215.8203 41.346333,41.346333 0 0 1 242.58,174.47396 41.346333,41.346333 0 0 1 283.92633,215.8203 Z" style="stroke-width:1.13433"/><path class="cls-11" id="path2588" d="M 283.92633,227.2997 A 41.346333,41.346333 0 0 1 242.58,268.64603 41.346333,41.346333 0 0 1 201.23367,227.2997 41.346333,41.346333 0 0 1 242.58,185.95337 41.346333,41.346333 0 0 1 283.92633,227.2997 Z" style="stroke-width:1.13433"/><path id="path2590" style="fill:#414042;fill-opacity:1;stroke-width:1.3936" d="M 234.5957 193.11719 A 18.40953 18.40953 0 0 0 261.32227 218.07617 L 261.33789 218.07617 A 32.052928 32.052928 0 0 1 204.46289 243.11719 A 41.346333 41.346333 0 0 1 201.23438 227.29883 A 41.346333 41.346333 0 0 1 211.1543 200.46094 A 32.052928 32.052928 0 0 1 234.5957 193.11719 z M 216.71094 230.39648 L 216.70898 230.39648 A 7.6090863 7.6090863 0 0 0 216.71484 245.61133 A 7.5951502 7.5951502 0 0 0 224.32422 238.00586 A 7.6090863 7.6090863 0 0 0 216.71094 230.39648 z "/></g><path id="path2635" style="fill:#cd8029;stroke-width:0.837888" class="cls-5" d="m 154.59727,187.83789 c -1.56877,-0.019 -8.72715,-4.62752 -10.30137,-5.69141 -5.5239,-3.73314 -13.32139,-4.86238 -11.49099,10.54102 1.34255,15.41758 14.31714,29.88975 25.48657,31.05273 -5.62778,-2.16208 -12.83129,-8.07206 -15.45793,-12.89453 -2.62664,-4.82245 -9.63474,-17.36999 -5.3777,-23.14453 3.67533,-4.98549 10.6113,-0.22273 15.18669,5.67969 4.05116,5.22614 6.83594,3.72488 7.53586,1.94141 0.37421,-3.65804 0.65024,-7.33667 0.66926,-11.03125 -0.0359,-6.19981 -0.31921,-17.41161 -2.04294,-16.84023 -1.29073,0.49966 2.41687,12.04736 -4.20745,20.3871 z" sodipodi:nodetypes="csccssscccc"/><path class="cls-11" d="m 155.19982,288.61897 c -16.71054,0 -26.29545,-8.30919 -26.29545,-22.79224 0,-14.26952 9.82453,-37.45985 26.29545,-37.45985 16.47092,0 26.29546,23.19033 26.29546,37.45985 0,14.48305 -9.58492,22.79224 -26.29546,22.79224 z" id="path4122" style="fill:#680e19;stroke-width:1.08207" sodipodi:nodetypes="sscss"/><path class="cls-12" d="m 178.56936,276.56834 c -5.27171,-3.39796 -12.93964,-5.459 -23.36954,-5.459 -10.4299,0 -18.09783,2.06105 -23.36953,5.459 3.39255,6.87945 10.7578,11.58644 23.36953,11.58644 12.61173,0 19.97698,-4.70699 23.36954,-11.58644 z" id="path4126" style="fill:#c62639;stroke-width:1.08207"/><path id="path7945" style="fill:#c58b05;fill-opacity:1;stroke-width:5.30707;stroke-linecap:round;stroke-linejoin:round;stop-color:#000000" d="m 30.238281,67.601562 c -1.093734,-0.05189 -2.067569,0.180749 -2.873047,0.757813 L 15.439453,76.902344 C 11.081636,80.024389 8.7908013,80.924653 8.5253906,83.484375 5.6827906,84.085943 2.8502327,84.63093 0,85.275391 v 73.199219 c 10.697787,-1.94075 21.321801,-3.68892 31.908203,-5.30469 1.421112,1.60142 3.362746,2.66758 6.275391,2.94922 0,0 9.246753,2.65256 13.591797,1.31445 5.376033,-1.65562 13.267644,-4.9676 17.169921,-9.21093 C 146.24712,139.40579 221.64173,140.75716 300,158.47461 V 85.275391 C 213.0991,69.510175 130.2666,64.033164 44.976562,76.878906 40.151641,72.015125 34.356815,67.796965 30.238281,67.601562 Z"/><path id="path8154" style="fill:#c58b05;fill-opacity:1;stroke-width:5.79773;stroke-linecap:round;stroke-linejoin:round;stop-color:#000000" d="m 0,133.3047 16.263457,-5.41979 C 33.495403,175.75975 23.52699,229.05436 25.09219,276.9292 L 14.598495,245.58462 8.4922846,242.43 0,245.31374 Z" sodipodi:nodetypes="ccccccc"/><path id="rect7902" style="fill:#a71c12;stroke-width:5.88071;stroke-linecap:round;stroke-linejoin:round;stop-color:#000000" d="m 0,125.46095 16.263457,-5.57604 c 17.231946,49.25504 7.263533,104.08611 8.828733,153.34115 L 14.598495,240.97784 8.4922846,235.16663 0,240.69915 Z" sodipodi:nodetypes="ccccccc"/><path id="rect6886" style="fill:#a71c12;stroke-width:5.30707;stroke-linecap:round;stroke-linejoin:round;stop-color:#000000" d="m 0,79.274925 c 101.44644,-22.937873 197.90922,-18.520904 300,0 v 73.199035 c -101.44644,-22.93787 -197.90922,-18.5209 -300,0 z" sodipodi:nodetypes="ccccc"/><path id="rect7638" style="fill:#84160e;fill-opacity:1;stroke-width:8.17793;stroke-linecap:round;stroke-linejoin:round;stop-color:#000000" d="m 27.56673,73.802653 c -14.676572,2.080574 -29.5913643,4.697382 -44.763861,7.855727 l -4.98e-4,67.62103 c 0,2.17339 0.907125,4.12266 2.359303,5.50622 14.66434393,-2.2142 29.160385,-4.14111 43.472188,-5.68949 6.790215,-23.00987 -10.207156,-43.3849 -4.68e-4,-71.409896 0,-1.422402 -0.392457,-2.747283 -1.066664,-3.883591 z" transform="matrix(1,0,0.31677157,0.94850186,0,0)" sodipodi:nodetypes="ccccccc"/><path id="path12213" style="fill:#84160e;fill-opacity:0.55481726;stroke-width:2.61203;stroke-linecap:round;stroke-linejoin:round;stroke-opacity:0.534884;stop-color:#000000" d="M 94.628088,97.797112 92.565209,71.290453 93.663477,66.429386 62.646669,55.731627 c 0,0 0.96647,20.971407 7.116342,28.810698 5.745317,7.323602 24.865077,13.254787 24.865077,13.254787 z" sodipodi:nodetypes="ccccac"/><path id="rect7633" style="fill:#84160e;fill-opacity:1;stroke-width:8.41171;stroke-linecap:round;stroke-linejoin:round;stop-color:#000000" d="m 25.980379,73.668279 c -14.657969,2.15479 -29.5272456,4.814223 -44.654439,8.044659 4.991611,23.753332 2.752766,47.506652 8.31e-4,71.259982 0,0.56668 0.05692,1.11999 0.1652,1.65379 15.0960401,-2.38216 30.005599,-4.43658 44.743822,-6.13392 l 3.62e-4,-72.819973 c 0,-0.693003 -0.09563,-1.362501 -0.255776,-2.004538 z" transform="matrix(1,0,0.28747548,0.957788,0,0)" sodipodi:nodetypes="ccccccc"/><path id="rect7631" style="fill:#a71c12;stroke-width:7.67251;stroke-linecap:round;stroke-linejoin:round;stop-color:#000000" d="m 15.440189,70.90137 11.9243,-8.542857 C 33.808316,57.742 51.077455,75.264657 53.554592,82.725202 L 71.02408,135.33914 c 2.477136,7.46054 -11.216108,13.62161 -19.248397,16.09526 -4.345048,1.33811 -13.591825,-1.31429 -13.591825,-1.31429 -7.929323,-0.76674 -8.705256,-7.32043 -11.182393,-14.78097 L 9.5319773,82.725202 C 7.0548406,75.264657 8.9963622,75.517883 15.440189,70.90137 Z" sodipodi:nodetypes="ssssassss"/><path id="path10952" style="color:#000000;fill:#adb4b3;fill-opacity:0.534884;stroke-linecap:round;stroke-linejoin:round;-inkscape-stroke:none" class="UnoptimicedTransforms" d="M 79.40625 289.39453 A 2.8 2.8 0 0 0 76.691406 290.91406 A 2.8 2.8 0 0 0 77.912109 294.68164 C 105.18344 308.58865 113.87746 326.27316 122.96875 344.81055 L 129.20898 344.81055 C 119.65309 325.44208 110.32114 304.92059 80.457031 289.69141 A 2.8 2.8 0 0 0 79.40625 289.39453 z M 220.59375 289.39453 A 2.8 2.8 0 0 0 219.54297 289.69141 C 189.67886 304.92059 180.34691 325.44208 170.79102 344.81055 L 177.03125 344.81055 C 186.12254 326.27316 194.81656 308.58865 222.08789 294.68164 A 2.8 2.8 0 0 0 223.30859 290.91406 A 2.8 2.8 0 0 0 220.59375 289.39453 z "/><g id="g12674"><path id="path10454" style="fill:#43524c;fill-opacity:0.302326;stroke-width:3.93131;stroke-linecap:round;stroke-linejoin:round;stop-color:#000000" d="M 58.699219,280.23633 C 40.938299,280.42055 25.154975,284.32953 0,281.26953 v 17.68359 l 11.117188,27.32422 5.632812,7.93164 27.533203,10.60157 h 15.195313 c 3.823119,-21.8039 1.179588,-44.63147 40.103515,-50.50782 v -1.75976 c -7.296859,-5.55874 -14.917792,-9.63418 -22.042969,-10.85352 -6.779993,-1.1625 -12.919537,-1.51453 -18.839843,-1.45312 z"/><path id="rect8898" style="fill:#f3f7f5;fill-opacity:1;stroke-width:3.52944;stroke-linecap:round;stroke-linejoin:round;stop-color:#000000" d="m 0,268.27539 v 18.39844 l 13.902344,35.54687 4.957031,7.26368 36.636719,14.67578 c 4.995567,-21.33742 -0.845121,-45.38898 36.273437,-51.21875 v -3.55556 c 0,-5.91177 -4.78326,-10.38578 -10.691819,-10.19785 C 53.185258,280.07518 28.053146,277.27385 0,268.27539 Z" inkscape:original-d="m 0,268.27539 v 18.39844 l 13.902344,35.54687 4.957031,7.26368 36.636719,14.67578 c 4.995567,-21.33742 -0.845121,-45.38898 36.273437,-51.21875 V 278.68164 C 59.475421,280.68299 31.58968,278.40824 0,268.27539 Z" inkscape:path-effect="#path-effect11233"/></g><g class="UnoptimicedTransforms" id="g10604" transform="matrix(-1,0,0,1,300,0)"><path id="path10600" d="M 58.699219,280.23633 C 40.938299,280.42055 25.154975,284.32953 0,281.26953 v 17.68359 l 11.117188,27.32422 5.632812,7.93164 27.533203,10.60157 h 15.195313 c 3.823119,-21.8039 1.179588,-44.63147 40.103515,-50.50782 v -1.75976 c -7.296859,-5.55874 -14.917792,-9.63418 -22.042969,-10.85352 -6.779993,-1.1625 -12.919537,-1.51453 -18.839843,-1.45312 z" style="fill:#43524c;fill-opacity:0.30232558;stroke-width:3.24546;stroke-linecap:round;stroke-linejoin:round;stop-color:#000000"/><path id="path10602" style="fill:#f3f7f5;fill-opacity:1;stroke-width:3.52944;stroke-linecap:round;stroke-linejoin:round;stop-color:#000000" d="M 0 268.27734 C 27.223222 277.00951 51.697859 279.90923 78.609375 279.25781 C 85.881693 279.08178 91.769531 284.58059 91.769531 291.85547 L 91.769531 292.94141 C 54.650973 298.77118 60.491661 322.82274 55.496094 344.16016 L 18.859375 329.48438 L 13.902344 322.2207 L 0 286.67383 L 0 268.27734 z "/></g><path id="rect12201" style="fill:#bd5b23;stroke-width:3.12094;stroke-linecap:round;stroke-linejoin:round;stroke-opacity:0.534884;stop-color:#000000" d="m 80.734148,34.500479 c 0,0 28.663672,-3.172919 40.320562,3.625314 7.38973,4.309652 14.58659,21.115461 14.58659,21.115461 H 92.236438 l 1.49498,-13.304296 c 0.96722,-2.488227 3.21229,-6.658014 -12.99727,-11.436479 z" sodipodi:nodetypes="cacccc"/><path id="path12204" style="fill:#bd5b23;stroke-width:3.12094;stroke-linecap:round;stroke-linejoin:round;stroke-opacity:0.534884;stop-color:#000000" d="m 143.67121,18.440679 1.90725,20.119163 9.37801,11.783415 -53.605,11.502289 1.712,-13.087272 z" sodipodi:nodetypes="cccccc"/><path id="path12209" style="fill:#bd5b23;stroke-width:3.08931;stroke-linecap:round;stroke-linejoin:round;stroke-opacity:0.534884;stop-color:#000000" d="M 248.8844,26.745931 246.93985,50.381653 220.86417,43.34339 Z" sodipodi:nodetypes="cccc"/><path id="rect12206" style="fill:#bd5b23;stroke-width:3.08931;stroke-linecap:round;stroke-linejoin:round;stroke-opacity:0.534884;stop-color:#000000" d="M 256.86429,32.270468 254.91974,55.90619 228.84406,48.867927 Z" sodipodi:nodetypes="cccc"/><path id="path12211" style="fill:#bd5b23;stroke-width:2.43885;stroke-linecap:round;stroke-linejoin:round;stroke-opacity:0.534884;stop-color:#000000" d="M 90.945063,92.886413 89.04056,67.85655 100.90573,60.983835 61.418994,53.164571 c 0,0 0.89227,19.803003 6.56999,27.205534 5.304225,6.915573 22.956079,12.516308 22.956079,12.516308 z" sodipodi:nodetypes="ccccac"/><path id="path16119" style="fill:#e27d13;stroke-width:0.711761;stroke-linecap:round;stroke-linejoin:round;stroke-opacity:0.534884;stop-color:#000000" d="m 255.0922,249.92181 c -0.74605,2.67522 0.66932,13.76504 3.4581,15.57308 3.1212,2.02355 8.97608,7.04017 9.66444,6.56403 0.44677,-1.92337 -4.48867,-11.58737 -7.00384,-14.9023 -2.77641,-3.65927 -5.44767,-9.64103 -6.1187,-7.23481 z" sodipodi:nodetypes="sscss"/><path id="path16193" style="fill:#414042;fill-opacity:1;stroke-width:1.3936" d="M 225.41797 173.11719 A 18.40953 18.40953 0 0 1 200.1543 199.11523 A 41.346333 41.346333 0 0 0 199.27539 206.73633 A 32.052928 32.052928 0 0 0 199.75 213.62695 A 41.346333 41.346333 0 0 0 200.37305 216.48828 A 32.052928 32.052928 0 1 0 225.41797 173.11719 z M 243.30273 210.39648 L 243.30469 210.39648 A 7.6090863 7.6090863 0 0 1 243.29883 225.61133 A 7.5951502 7.5951502 0 0 1 235.68945 218.00586 A 7.6090863 7.6090863 0 0 1 243.30273 210.39648 z "/><path id="path15570" style="fill:#5d100a;fill-opacity:0.627907;stroke-width:2.446;stroke-linecap:round;stroke-linejoin:round;stop-color:#000000" d="M 266.88672,106.75371 300,105.89256 v 13.29493 c -8.37748,-5.85613 -17.75291,-9.11259 -33.11328,-12.43378 z m -28.71875,7.2685 c 24.92865,2.9232 43.70369,3.39349 61.83203,11.66528 v 16.13477 c -11.3447,-10.00588 -29.16697,-19.37418 -61.83203,-27.80005 z" sodipodi:nodetypes="cccccccc"/></svg>