<svg id="Layer_1" data-name="Layer 1" xmlns="http://www.w3.org/2000/svg" xmlns:xlink="http://www.w3.org/1999/xlink" viewBox="0 0 300 345"><defs><style>.cls-1{fill:url(#linear-gradient);}.cls-2{fill:#995b3c;}.cls-3{fill:#663723;}.cls-4{fill:#4c281b;}.cls-5{fill:#6eb8cc;}.cls-6{fill:#ecf7fe;}.cls-7{fill:#f7941d;}.cls-8{fill:#fbb040;}.cls-9{fill:#fff;}.cls-10,.cls-17{fill:#dd7399;}.cls-11{fill:#f6a9cb;}.cls-12{fill:#4f2714;}.cls-13{fill:#238250;}.cls-14{fill:#4ab96d;}.cls-15{fill:#0fafd2;}.cls-16{fill:#61cbed;}.cls-17,.cls-19,.cls-20{fill-opacity:0.5;}.cls-18{fill:#d62027;}.cls-19{fill:#8e191b;}.cls-20{fill:#04859b;}.cls-21{fill:#c7eaf7;}</style><linearGradient id="linear-gradient" x1="150" y1="356.11" x2="150" y2="161.16" gradientUnits="userSpaceOnUse"><stop offset="0" stop-color="#7d4f33"/><stop offset="0.69" stop-color="#573321"/></linearGradient></defs><title>blook_gingerbread-house</title><path class="cls-1" d="M263.62,345H36.38A36.38,36.38,0,0,1,0,308.62V259.14H300v49.48A36.38,36.38,0,0,1,263.62,345Z"/><rect class="cls-2" y="45" width="300" height="253.39" rx="36.38"/><path class="cls-3" d="M263.62,45H36.38A36.38,36.38,0,0,0,0,81.38v95.25H68.22l69.59-98.27a15.68,15.68,0,0,1,24.38,0l69.59,98.27H300V81.38A36.38,36.38,0,0,0,263.62,45Z"/><path class="cls-4" d="M300,125.53H289.33l0,0a0,0,0,0,0,0,0H233.67l0,0s0,0,0,0h-38l27.35,38.61a27.78,27.78,0,0,0,10.71-21.93v-.57c0,15.61,12.78,28.71,28.39,28.39a27.82,27.82,0,0,0,27.26-27.82v-.57A28.67,28.67,0,0,0,300,163.92Z"/><path class="cls-4" d="M67.07,125.53l0,0,0,0H0v39.39a27.8,27.8,0,0,0,11.6-19.87c1.7,14.06,13.72,25.27,28.18,25A27.82,27.82,0,0,0,67,142.21v-.57a28.69,28.69,0,0,0,10.37,22l27-38.13Z"/><path class="cls-3" d="M300,116.51H289.19a0,0,0,0,0,0,0s0,0,0,0H233.53s0,0,0,0a0,0,0,0,0,0,0H189.2l29.31,41.38a27.83,27.83,0,0,0,15-24.7v-.57c0,15.62,12.78,28.71,28.39,28.4a27.84,27.84,0,0,0,27.26-27.83v-.57A28.66,28.66,0,0,0,300,155Z"/><path class="cls-3" d="M67,116.51a0,0,0,0,0,0,0s0,0,0,0H0v39.35A27.85,27.85,0,0,0,11.54,136c1.7,14.07,13.72,25.27,28.18,25A27.84,27.84,0,0,0,67,133.19v-.57a28.69,28.69,0,0,0,14.71,25l29.11-41.1Z"/><path class="cls-4" d="M261.78,87.28a0,0,0,0,1,0,0v0s0,0,0,0H206.14a0,0,0,0,0,0,0s0,0,0,0H168.47l27.2,38.4a27.77,27.77,0,0,0,10.44-21.72v-.57c0,15.62,12.79,28.71,28.4,28.4a27.84,27.84,0,0,0,27.26-27.82c.3,15.38,13,28.17,28.38,27.86a27.79,27.79,0,0,0,9.85-2V92.11a36.61,36.61,0,0,0-.33-4.83Z"/><path class="cls-4" d="M39.16,104.4c.56,15.15,13.11,27.65,28.37,27.35A27.85,27.85,0,0,0,94.8,103.92v-.57a28.65,28.65,0,0,0,10,21.67l26.76-37.78H94.82s0,0,0,0a0,0,0,0,0,0,0H.33A37.34,37.34,0,0,0,0,92.11v37.13a27.06,27.06,0,0,0,11.91,2.51A27.83,27.83,0,0,0,39.16,104.4Z"/><path class="cls-3" d="M39.06,94.9v-.57c0,15.62,12.78,28.71,28.4,28.4A27.84,27.84,0,0,0,94.72,94.9v-.57A28.67,28.67,0,0,0,109,119.06l28.82-40.7.13-.14H94.74s0,0,0,0a0,0,0,0,0,0,0H39.09a0,0,0,0,0,0,0s0,0,0,0H2.75A36.26,36.26,0,0,0,0,92.11v28.16a27,27,0,0,0,11.8,2.46A27.84,27.84,0,0,0,39.06,94.9Z"/><path class="cls-3" d="M261.71,78.26s0,0,0,0v0s0,0,0,0H206.06s0,0,0,0a0,0,0,0,0,0,0H162.06l.13.14,29.1,41.09A27.81,27.81,0,0,0,206,94.9v-.57c0,15.62,12.78,28.71,28.39,28.4a27.83,27.83,0,0,0,27.26-27.82c.3,15.38,12.95,28.17,28.39,27.86a27.75,27.75,0,0,0,9.92-2V92.11a36.28,36.28,0,0,0-2.74-13.85Z"/><path class="cls-4" d="M281.58,49.75H233.67a0,0,0,0,0,0,0s0,0,0,0H178a0,0,0,0,0,0,0s0,0,0,0H66.82a0,0,0,0,0,0,0s0,0,0,0H18.42A36.34,36.34,0,0,0,0,81.38v7.39a27.79,27.79,0,0,0,11.21-21c1,14.77,13.35,26.81,28.33,26.51A27.82,27.82,0,0,0,66.8,66.43v-.58c0,15.62,12.78,28.71,28.4,28.4a27.82,27.82,0,0,0,27.21-26.31,28.71,28.71,0,0,0,7.42,17.18l8-11.27a15.68,15.68,0,0,1,24.38,0l8.24,11.64A27.76,27.76,0,0,0,178,66.43v-.58c0,15.62,12.78,28.71,28.39,28.4a27.83,27.83,0,0,0,27.27-27.82v-.58c0,15.62,12.78,28.71,28.39,28.4A27.82,27.82,0,0,0,289.3,66.43v-.58A28.69,28.69,0,0,0,300,88.14V81.38A36.34,36.34,0,0,0,281.58,49.75Z"/><path class="cls-3" d="M263.62,45H36.38A36.39,36.39,0,0,0,0,79.66,27.78,27.78,0,0,0,11.13,58.72c1,14.77,13.35,26.81,28.33,26.51A27.82,27.82,0,0,0,66.72,57.41v-.58c0,15.62,12.78,28.71,28.4,28.4a27.83,27.83,0,0,0,27.22-26.3,28.74,28.74,0,0,0,11.34,20.76l4.13-5.84a15.68,15.68,0,0,1,24.38,0l4.28,6a27.78,27.78,0,0,0,11.44-22.48v-.58c0,15.62,12.78,28.71,28.4,28.4a27.83,27.83,0,0,0,27.26-27.82v-.58c0,15.62,12.78,28.71,28.4,28.4a27.83,27.83,0,0,0,27.26-27.82v-.58a28.68,28.68,0,0,0,10.69,22.28A36.37,36.37,0,0,0,263.62,45Z"/><path class="cls-5" d="M300,182.66H249a37.88,37.88,0,0,1-30.87-16L158.6,82.61a11.16,11.16,0,0,0-17.2,0L81.85,166.69a37.88,37.88,0,0,1-30.87,16H0v-9H51a28.88,28.88,0,0,0,23.53-12.17l59.8-84.43a20.16,20.16,0,0,1,31.38,0l.17.22,59.63,84.21A28.88,28.88,0,0,0,249,173.66h51"/><path class="cls-6" d="M300,174.83H249a37.88,37.88,0,0,1-30.87-16L158.6,74.78a11.16,11.16,0,0,0-17.2,0L81.85,158.86a37.88,37.88,0,0,1-30.87,16H0v-9H51a28.88,28.88,0,0,0,23.53-12.17l59.8-84.43a20.16,20.16,0,0,1,31.38,0l.17.23,59.63,84.2A28.88,28.88,0,0,0,249,165.83h51"/><path class="cls-3" d="M113.41,298.39h73.18V243.15a36.59,36.59,0,0,0-73.18,0Z"/><path class="cls-5" d="M113.41,293.89v-44c0-20.51,16.79-37.69,37.3-37.3a36.59,36.59,0,0,1,35.88,36.58v44.74a4.49,4.49,0,0,0,4.5,4.5h0a4.5,4.5,0,0,0,4.5-4.5V249.15A45.64,45.64,0,0,0,150,203.56h0a45.64,45.64,0,0,0-45.59,45.59v44.74a4.5,4.5,0,0,0,4.5,4.5h0A4.49,4.49,0,0,0,113.41,293.89Z"/><path class="cls-6" d="M113.41,287.89v-44c0-20.51,16.79-37.69,37.3-37.3a36.59,36.59,0,0,1,35.88,36.58v44.74a4.49,4.49,0,0,0,4.5,4.5h0a4.5,4.5,0,0,0,4.5-4.5V243.15A45.64,45.64,0,0,0,150,197.56h0a45.64,45.64,0,0,0-45.59,45.59v44.74a4.5,4.5,0,0,0,4.5,4.5h0A4.49,4.49,0,0,0,113.41,287.89Z"/><path class="cls-5" d="M135.52,268.82a7.27,7.27,0,0,1-14.54,0v-3.59H135.5Z"/><circle class="cls-6" cx="128.25" cy="265.23" r="7.27"/><circle class="cls-3" cx="150" cy="144.78" r="30.05"/><path class="cls-5" d="M150,116.23a34.56,34.56,0,1,0,34.55,34.55A34.59,34.59,0,0,0,150,116.23Zm25.37,31.55H156a3,3,0,0,1-3-3V125.42A25.57,25.57,0,0,1,175.37,147.78ZM147,125.42v19.36a3,3,0,0,1-3,3H124.63A25.58,25.58,0,0,1,147,125.42Zm-22.37,28.36H144a3,3,0,0,1,3,3v19.37A25.59,25.59,0,0,1,124.63,153.78ZM153,176.15V156.78a3,3,0,0,1,3-3h19.37A25.58,25.58,0,0,1,153,176.15Z"/><path class="cls-6" d="M150,110.23a34.56,34.56,0,1,0,34.55,34.55A34.59,34.59,0,0,0,150,110.23Zm25.37,31.55H156a3,3,0,0,1-3-3V119.42A25.57,25.57,0,0,1,175.37,141.78ZM147,119.42v19.36a3,3,0,0,1-3,3H124.63A25.58,25.58,0,0,1,147,119.42Zm-22.37,28.36H144a3,3,0,0,1,3,3v19.37A25.59,25.59,0,0,1,124.63,147.78ZM153,170.15V150.78a3,3,0,0,1,3-3h19.37A25.58,25.58,0,0,1,153,170.15Z"/><circle class="cls-3" cx="52.53" cy="230.19" r="26.72"/><circle class="cls-7" cx="52.53" cy="224.38" r="26.72"/><path class="cls-8" d="M61.29,233a19.8,19.8,0,0,1-17.37-17.37,1.49,1.49,0,0,1,0-.21,4.35,4.35,0,0,0-7.74-2.35,19.76,19.76,0,0,0,27.7,27.69A4.35,4.35,0,0,0,61.5,233Z"/><circle class="cls-8" cx="56.07" cy="207.68" r="7.25"/><circle class="cls-9" cx="61.18" cy="211.01" r="5.55"/><circle class="cls-9" cx="66.83" cy="222.25" r="3.51"/><circle class="cls-3" cx="247.47" cy="230.09" r="26.72"/><circle class="cls-10" cx="247.47" cy="224.28" r="26.72"/><path class="cls-11" d="M256.23,232.89a19.83,19.83,0,0,1-17.37-17.37c0-.07,0-.14,0-.21A4.35,4.35,0,0,0,231.1,213a19.77,19.77,0,0,0,27.7,27.7,4.35,4.35,0,0,0-2.35-7.74Z"/><circle class="cls-11" cx="251.01" cy="207.58" r="7.25"/><circle class="cls-9" cx="256.12" cy="210.91" r="5.55"/><circle class="cls-9" cx="261.77" cy="222.15" r="3.51"/><circle class="cls-12" cx="49.57" cy="144.73" r="15.47"/><circle class="cls-7" cx="49.57" cy="141.36" r="15.47"/><path class="cls-8" d="M54.64,146.35a11.47,11.47,0,0,1-10-10.06s0-.08,0-.12a2.52,2.52,0,0,0-4.48-1.37,11.45,11.45,0,0,0,16,16,2.52,2.52,0,0,0-1.36-4.48Z"/><circle class="cls-8" cx="51.62" cy="131.69" r="4.19"/><circle class="cls-9" cx="54.58" cy="133.62" r="3.21"/><circle class="cls-9" cx="57.85" cy="140.13" r="2.03"/><circle class="cls-12" cx="85.83" cy="100.51" r="15.47"/><circle class="cls-13" cx="85.83" cy="97.15" r="15.47"/><path class="cls-14" d="M90.9,102.13A11.47,11.47,0,0,1,80.85,92.07a.49.49,0,0,1,0-.12,2.52,2.52,0,0,0-4.48-1.36,11.44,11.44,0,0,0,16,16A2.52,2.52,0,0,0,91,102.14Z"/><circle class="cls-14" cx="87.88" cy="87.47" r="4.19"/><circle class="cls-9" cx="90.84" cy="89.41" r="3.21"/><circle class="cls-9" cx="94.11" cy="95.91" r="2.03"/><circle class="cls-12" cx="218.46" cy="100.05" r="15.47"/><circle class="cls-10" cx="218.46" cy="96.69" r="15.47"/><path class="cls-11" d="M223.53,101.67a11.47,11.47,0,0,1-10.05-10.06s0-.08,0-.12A2.51,2.51,0,0,0,209,90.13a11.44,11.44,0,0,0,16,16,2.52,2.52,0,0,0-1.36-4.48Z"/><circle class="cls-11" cx="220.51" cy="87.01" r="4.19"/><circle class="cls-9" cx="223.47" cy="88.95" r="3.21"/><circle class="cls-9" cx="226.74" cy="95.45" r="2.03"/><circle class="cls-12" cx="254.21" cy="145.19" r="15.47"/><circle class="cls-15" cx="254.21" cy="141.82" r="15.47"/><path class="cls-16" d="M259.28,146.81a11.48,11.48,0,0,1-10.06-10.06s0-.08,0-.12a2.52,2.52,0,0,0-4.48-1.36,11.36,11.36,0,0,0-2.27,8.13,11.44,11.44,0,0,0,18.3,7.9,2.52,2.52,0,0,0-1.36-4.48Z"/><circle class="cls-16" cx="256.26" cy="132.15" r="4.19"/><circle class="cls-9" cx="259.21" cy="134.08" r="3.21"/><circle class="cls-9" cx="262.48" cy="140.59" r="2.03"/><path class="cls-12" d="M245.53,48.33a10.72,10.72,0,0,0-4.16-1.66c-2.91-4.61-7.18-7.89-13.1-7.89s-10.19,3.28-13.09,7.89A10.66,10.66,0,0,0,211,48.33c-7.61,5-5,15.33-1.18,21.16a10.1,10.1,0,0,0,1.06,1.34c2.22,6.36,9.15,6.93,17.37,6.93s15.16-.57,17.37-6.93a10.1,10.1,0,0,0,1.06-1.34C250.56,63.66,253.14,53.36,245.53,48.33Z"/><path class="cls-11" d="M245.53,43.33a10.72,10.72,0,0,0-4.16-1.66c-2.91-4.61-7.18-7.89-13.1-7.89s-10.19,3.28-13.09,7.89A10.66,10.66,0,0,0,211,43.33c-7.61,5-5,15.33-1.18,21.16a10.1,10.1,0,0,0,1.06,1.34c2.22,6.36,9.15,6.93,17.37,6.93s15.16-.57,17.37-6.93a10.1,10.1,0,0,0,1.06-1.34C250.56,58.66,253.14,48.36,245.53,43.33Z"/><path class="cls-17" d="M235.68,62.2H220.86c-2.89,0-5.22,1.7-5.22,3.79v.71c0,2.09,2.33,3.79,5.22,3.79h14.82c2.89,0,5.23-1.7,5.23-3.79V66C240.91,63.9,238.57,62.2,235.68,62.2Z"/><path class="cls-17" d="M242.11,47a7.59,7.59,0,0,0-1.92-1.81c-3.6-2.38-7.48-1-10.42,1.31v-2.8a1.5,1.5,0,1,0-3,0v2.8c-2.94-2.36-6.81-3.69-10.41-1.31A7.64,7.64,0,0,0,214.43,47a1.33,1.33,0,0,0,1.87,1.83l.06,0c3.85-2.55,8-.85,11,1.83a1.34,1.34,0,0,0,1.78,0c3-2.68,7.17-4.38,11-1.83l.05,0A1.33,1.33,0,0,0,242.11,47Z"/><circle class="cls-9" cx="232.69" cy="38.96" r="2.55"/><ellipse class="cls-9" cx="245.75" cy="54.87" rx="2.89" ry="2.27" transform="translate(142.08 284.35) rotate(-78.27)"/><circle class="cls-9" cx="244.41" cy="59.65" r="1.37"/><path class="cls-12" d="M89,48.33a10.66,10.66,0,0,0-4.16-1.66c-2.9-4.61-7.17-7.89-13.09-7.89s-10.19,3.28-13.1,7.89a10.72,10.72,0,0,0-4.16,1.66c-7.61,5-5,15.33-1.17,21.16a10.1,10.1,0,0,0,1.06,1.34c2.21,6.36,9.15,6.93,17.37,6.93s15.15-.57,17.37-6.93a10.1,10.1,0,0,0,1.06-1.34C94,63.66,96.59,53.36,89,48.33Z"/><path class="cls-11" d="M89,43.33a10.66,10.66,0,0,0-4.16-1.66c-2.9-4.61-7.17-7.89-13.09-7.89s-10.19,3.28-13.1,7.89a10.72,10.72,0,0,0-4.16,1.66c-7.61,5-5,15.33-1.17,21.16a10.1,10.1,0,0,0,1.06,1.34c2.21,6.36,9.15,6.93,17.37,6.93s15.15-.57,17.37-6.93a10.1,10.1,0,0,0,1.06-1.34C94,58.66,96.59,48.36,89,43.33Z"/><path class="cls-17" d="M79.14,62.2H64.32c-2.89,0-5.23,1.7-5.23,3.79v.71c0,2.09,2.34,3.79,5.23,3.79H79.14c2.89,0,5.22-1.7,5.22-3.79V66C84.36,63.9,82,62.2,79.14,62.2Z"/><path class="cls-17" d="M85.57,47a7.64,7.64,0,0,0-1.93-1.81c-3.6-2.38-7.47-1-10.41,1.31v-2.8a1.5,1.5,0,0,0-3,0v2.8c-2.94-2.36-6.82-3.69-10.42-1.31A7.59,7.59,0,0,0,57.89,47a1.33,1.33,0,0,0,1.87,1.83l.05,0c3.86-2.55,8-.85,11,1.83a1.34,1.34,0,0,0,1.78,0c3-2.68,7.17-4.38,11-1.83l.06,0A1.33,1.33,0,0,0,85.57,47Z"/><circle class="cls-9" cx="76.14" cy="38.96" r="2.55"/><ellipse class="cls-9" cx="89.21" cy="54.87" rx="2.89" ry="2.27" transform="translate(17.35 131.07) rotate(-78.27)"/><circle class="cls-9" cx="87.86" cy="59.65" r="1.37"/><path class="cls-12" d="M284.1,93.08a10.72,10.72,0,0,0-4.16-1.66c-2.91-4.61-7.18-7.89-13.1-7.89s-10.19,3.28-13.1,7.89a10.68,10.68,0,0,0-4.15,1.66c-7.61,5-5,15.33-1.18,21.16a10.1,10.1,0,0,0,1.06,1.34c2.22,6.36,9.15,6.93,17.37,6.93s15.16-.57,17.37-6.93a10.1,10.1,0,0,0,1.06-1.34C289.13,108.41,291.7,98.11,284.1,93.08Z"/><path class="cls-18" d="M284.1,88.08a10.72,10.72,0,0,0-4.16-1.66c-2.91-4.61-7.18-7.89-13.1-7.89s-10.19,3.28-13.1,7.89a10.68,10.68,0,0,0-4.15,1.66c-7.61,5-5,15.33-1.18,21.16a10.1,10.1,0,0,0,1.06,1.34c2.22,6.36,9.15,6.93,17.37,6.93s15.16-.57,17.37-6.93a10.1,10.1,0,0,0,1.06-1.34C289.13,103.41,291.7,93.11,284.1,88.08Z"/><path class="cls-19" d="M274.25,107H259.43c-2.89,0-5.22,1.7-5.22,3.79v.71c0,2.09,2.33,3.79,5.22,3.79h14.82c2.89,0,5.23-1.7,5.23-3.79v-.71C279.48,108.65,277.14,107,274.25,107Z"/><path class="cls-19" d="M280.68,91.72a7.59,7.59,0,0,0-1.92-1.81c-3.6-2.38-7.48-1-10.42,1.32V88.42a1.5,1.5,0,0,0-3,0v2.81c-2.94-2.37-6.81-3.7-10.41-1.32A7.48,7.48,0,0,0,253,91.72a1.33,1.33,0,0,0,1.87,1.84l.06,0c3.85-2.55,8-.85,11,1.83a1.34,1.34,0,0,0,1.78,0c3-2.68,7.17-4.38,11-1.83l.05,0A1.33,1.33,0,0,0,280.68,91.72Z"/><circle class="cls-9" cx="271.26" cy="83.72" r="2.55"/><ellipse class="cls-9" cx="284.32" cy="99.63" rx="2.89" ry="2.27" transform="translate(129 357.77) rotate(-78.27)"/><circle class="cls-9" cx="282.98" cy="104.4" r="1.37"/><path class="cls-12" d="M50.41,93.08a10.68,10.68,0,0,0-4.15-1.66c-2.91-4.61-7.18-7.89-13.1-7.89S23,86.81,20.06,91.42a10.72,10.72,0,0,0-4.16,1.66c-7.6,5-5,15.33-1.17,21.16a10.1,10.1,0,0,0,1.06,1.34c2.21,6.36,9.15,6.93,17.37,6.93s15.15-.57,17.37-6.93a10.1,10.1,0,0,0,1.06-1.34C55.44,108.41,58,98.11,50.41,93.08Z"/><path class="cls-18" d="M50.41,88.08a10.68,10.68,0,0,0-4.15-1.66c-2.91-4.61-7.18-7.89-13.1-7.89S23,81.81,20.06,86.42a10.72,10.72,0,0,0-4.16,1.66c-7.6,5-5,15.33-1.17,21.16a10.1,10.1,0,0,0,1.06,1.34c2.21,6.36,9.15,6.93,17.37,6.93s15.15-.57,17.37-6.93a10.1,10.1,0,0,0,1.06-1.34C55.44,103.41,58,93.11,50.41,88.08Z"/><path class="cls-19" d="M40.57,107H25.75c-2.89,0-5.23,1.7-5.23,3.79v.71c0,2.09,2.34,3.79,5.23,3.79H40.57c2.89,0,5.22-1.7,5.22-3.79v-.71C45.79,108.65,43.46,107,40.57,107Z"/><path class="cls-19" d="M47,91.72a7.48,7.48,0,0,0-1.93-1.81c-3.6-2.38-7.47-1-10.41,1.32V88.42a1.5,1.5,0,0,0-3,0v2.81c-2.94-2.37-6.82-3.7-10.42-1.32a7.59,7.59,0,0,0-1.92,1.81,1.33,1.33,0,0,0,1.87,1.84l0,0c3.86-2.55,8-.85,11,1.83a1.34,1.34,0,0,0,1.78,0c3-2.68,7.17-4.38,11-1.83l.06,0A1.33,1.33,0,0,0,47,91.72Z"/><circle class="cls-9" cx="37.57" cy="83.72" r="2.55"/><ellipse class="cls-9" cx="50.64" cy="99.63" rx="2.89" ry="2.27" transform="translate(-57.2 128.96) rotate(-78.27)"/><circle class="cls-9" cx="49.29" cy="104.4" r="1.37"/><path class="cls-12" d="M129,45a23.37,23.37,0,0,0,2.57,5.23,10.1,10.1,0,0,0,1.06,1.34c2.21,6.36,9.15,6.93,17.37,6.93s15.16-.57,17.37-6.93a10.1,10.1,0,0,0,1.06-1.34A23.37,23.37,0,0,0,171,45Z"/><path class="cls-15" d="M167.25,24.07a10.78,10.78,0,0,0-4.15-1.66c-2.91-4.61-7.18-7.89-13.1-7.89s-10.19,3.28-13.1,7.89a10.78,10.78,0,0,0-4.15,1.66c-7.61,5-5,15.33-1.18,21.16a10.1,10.1,0,0,0,1.06,1.34c2.21,6.36,9.15,6.93,17.37,6.93s15.16-.57,17.37-6.93a10.1,10.1,0,0,0,1.06-1.34C172.29,39.4,174.86,29.1,167.25,24.07Z"/><path class="cls-20" d="M157.41,43H142.59c-2.89,0-5.23,1.69-5.23,3.79v.7c0,2.09,2.34,3.79,5.23,3.79h14.82c2.89,0,5.23-1.7,5.23-3.79v-.7C162.64,44.64,160.3,43,157.41,43Z"/><path class="cls-20" d="M163.84,27.72a7.34,7.34,0,0,0-1.93-1.82c-3.59-2.37-7.47-1-10.41,1.32V24.41a1.5,1.5,0,1,0-3,0v2.81c-2.94-2.37-6.82-3.69-10.41-1.32a7.34,7.34,0,0,0-1.93,1.82A1.33,1.33,0,0,0,138,29.55l.06,0c3.85-2.55,8-.85,11,1.83a1.34,1.34,0,0,0,1.78,0c3-2.68,7.17-4.38,11-1.83l.06,0A1.33,1.33,0,0,0,163.84,27.72Z"/><circle class="cls-9" cx="154.42" cy="19.71" r="2.55"/><ellipse class="cls-9" cx="167.48" cy="35.62" rx="2.89" ry="2.27" transform="translate(98.57 192.36) rotate(-78.27)"/><circle class="cls-9" cx="166.13" cy="40.39" r="1.37"/><circle class="cls-4" cx="109.34" cy="51.81" r="7.82"/><path class="cls-6" d="M117.38,48.51a8,8,0,1,1-16.08,0c0-4.44,3.7-12.09,3.7-12.09S117.38,38.8,117.38,48.51Z"/><path class="cls-21" d="M111.84,49.24a5,5,0,0,1-6.81-2c-.07-.14-.12-.29-.18-.43a5,5,0,0,0-.32,5.1,5.09,5.09,0,0,0,6.76,2.14,5,5,0,0,0,2.59-3.48,1.34,1.34,0,0,0-2-1.36Z"/><circle class="cls-4" cx="12.71" cy="139.67" r="7.82"/><path class="cls-6" d="M20.75,136.37a8,8,0,0,1-16.08,0c0-4.44,3.7-12.09,3.7-12.09S20.75,126.66,20.75,136.37Z"/><path class="cls-21" d="M15.2,137.1a5,5,0,0,1-6.8-2c-.08-.14-.12-.29-.19-.44a5,5,0,0,0-.31,5.1,5.07,5.07,0,0,0,6.75,2.14,4.89,4.89,0,0,0,2.59-3.47,1.34,1.34,0,0,0-2-1.37Z"/><circle class="cls-4" cx="189.2" cy="48.79" r="7.82"/><path class="cls-6" d="M197.24,45.49a8,8,0,0,1-16.08,0c0-4.44,3.71-12.09,3.71-12.09S197.24,35.78,197.24,45.49Z"/><path class="cls-21" d="M191.7,46.22a5,5,0,0,1-6.8-2,4,4,0,0,1-.19-.43,5,5,0,0,0-.31,5.1,5.08,5.08,0,0,0,6.75,2.14,4.94,4.94,0,0,0,2.59-3.48,1.34,1.34,0,0,0-2-1.36Z"/><circle class="cls-4" cx="269.67" cy="65.99" r="7.82"/><path class="cls-6" d="M277.71,62.69a8,8,0,1,1-16.08,0c0-4.44,3.71-12.09,3.71-12.09S277.71,53,277.71,62.69Z"/><path class="cls-21" d="M272.17,63.42a5,5,0,0,1-6.8-2,3.3,3.3,0,0,1-.19-.43,5,5,0,0,0-.31,5.1,5.07,5.07,0,0,0,6.75,2.14,4.92,4.92,0,0,0,2.59-3.47,1.34,1.34,0,0,0-2-1.37Z"/><circle class="cls-4" cx="191.88" cy="82.31" r="7.82"/><path class="cls-6" d="M199.92,79a8,8,0,0,1-16.08,0c0-4.44,3.7-12.09,3.7-12.09S199.92,69.3,199.92,79Z"/><path class="cls-21" d="M194.38,79.75a5,5,0,0,1-6.81-2c-.07-.14-.12-.29-.18-.43a5,5,0,0,0-.32,5.09,5.09,5.09,0,0,0,6.76,2.15,5,5,0,0,0,2.59-3.48,1.34,1.34,0,0,0-2-1.36Z"/><circle class="cls-4" cx="286.77" cy="147.06" r="7.82"/><path class="cls-6" d="M294.81,143.77a8,8,0,0,1-16.08,0c0-4.44,3.7-12.1,3.7-12.1S294.81,134.05,294.81,143.77Z"/><path class="cls-21" d="M289.26,144.49a5,5,0,0,1-6.8-2,3.38,3.38,0,0,1-.18-.44,5,5,0,0,0-.32,5.1,5.08,5.08,0,0,0,6.76,2.14,5,5,0,0,0,2.59-3.47,1.35,1.35,0,0,0-2-1.37Z"/><circle class="cls-4" cx="28.56" cy="68.66" r="7.82"/><path class="cls-6" d="M36.6,65.36a8,8,0,0,1-16.08,0c0-4.44,3.7-12.09,3.7-12.09S36.6,55.65,36.6,65.36Z"/><path class="cls-21" d="M31.06,66.09a5,5,0,0,1-6.81-2c-.07-.14-.12-.29-.18-.43a5,5,0,0,0-.32,5.1,5.09,5.09,0,0,0,6.76,2.14,5,5,0,0,0,2.59-3.47,1.34,1.34,0,0,0-2-1.37Z"/><path class="cls-5" d="M211.44,287.82a4.51,4.51,0,0,1-3.19-1.32c-1.75-1.75-1.75-9,0-10.77L219,269.4a4.49,4.49,0,0,1,6.36,0l7.46,7.46,8.22-8.22a4.5,4.5,0,0,1,6.37,0l7.27,7.27,8-8a4.49,4.49,0,0,1,6.36,0l11.39,7c1.76,1.76,1.76,9,0,10.78a4.51,4.51,0,0,1-6.36,0l-8.21-8.22-8,8a4.5,4.5,0,0,1-6.37,0l-7.27-7.27L236,286.41a4.51,4.51,0,0,1-6.36,0L222.18,279l-7.56,7.55A4.48,4.48,0,0,1,211.44,287.82Z"/><path class="cls-6" d="M211.44,282.84a4.5,4.5,0,0,1-3.19-7.68L219,264.42a4.49,4.49,0,0,1,6.36,0l7.46,7.46,8.22-8.23a4.53,4.53,0,0,1,6.37,0l7.27,7.27,8-8a4.51,4.51,0,0,1,6.36,0l11.39,11.4a4.5,4.5,0,0,1-6.36,6.36l-8.21-8.21-8,8a4.5,4.5,0,0,1-6.37,0l-7.27-7.27L236,281.42a4.49,4.49,0,0,1-6.36,0L222.18,274l-7.56,7.56A4.48,4.48,0,0,1,211.44,282.84Z"/><path class="cls-5" d="M22.78,287.82a4.47,4.47,0,0,1-3.18-1.32c-1.76-1.75-1.76-9,0-10.77l10.74-6.33a4.49,4.49,0,0,1,6.36,0l7.46,7.46,8.22-8.22a4.5,4.5,0,0,1,6.37,0L66,275.91l8-8a4.49,4.49,0,0,1,6.36,0l11.4,7c1.75,1.76,1.75,9,0,10.78a4.52,4.52,0,0,1-6.37,0l-8.21-8.22-8,8a4.5,4.5,0,0,1-6.37,0l-7.27-7.27-8.22,8.23a4.51,4.51,0,0,1-6.36,0L33.52,279,26,286.5A4.48,4.48,0,0,1,22.78,287.82Z"/><path class="cls-6" d="M22.78,282.84a4.5,4.5,0,0,1-3.18-7.68l10.74-10.74a4.49,4.49,0,0,1,6.36,0l7.46,7.46,8.22-8.23a4.53,4.53,0,0,1,6.37,0L66,270.92l8-8a4.51,4.51,0,0,1,6.36,0l11.4,11.4a4.5,4.5,0,0,1-6.37,6.36l-8.21-8.21-8,8a4.5,4.5,0,0,1-6.37,0l-7.27-7.27-8.22,8.22a4.49,4.49,0,0,1-6.36,0L33.52,274,26,281.52A4.48,4.48,0,0,1,22.78,282.84Z"/></svg>