<svg id="Layer_1" data-name="Layer 1" xmlns="http://www.w3.org/2000/svg" xmlns:xlink="http://www.w3.org/1999/xlink" viewBox="0 0 300 345"><defs><style>.cls-1{fill:url(#linear-gradient);}.cls-2{fill:#6c9355;}.cls-3{fill:url(#linear-gradient-2);}.cls-4,.cls-5{fill:#425634;}.cls-5{fill-opacity:0.5;}.cls-6{fill:#ce2235;}.cls-7{fill:#ad1d25;}.cls-8{fill:#fff;}.cls-9{fill:#b26d57;}.cls-10{fill:#a95f45;}.cls-11{fill:#9d583f;}.cls-12{fill:#8e4f37;}.cls-13{fill:#7b442e;}.cls-14{fill:#663723;}.cls-15{fill:#8c141c;}</style><linearGradient id="linear-gradient" x1="150" y1="356.11" x2="150" y2="161.16" gradientUnits="userSpaceOnUse"><stop offset="0" stop-color="#53824b"/><stop offset="0.69" stop-color="#425634"/></linearGradient><linearGradient id="linear-gradient-2" x1="149.89" y1="149.05" x2="149.89" y2="43.31" gradientUnits="userSpaceOnUse"><stop offset="0" stop-color="#53824b"/><stop offset="0.94" stop-color="#425634"/></linearGradient></defs><title>blook_wreath</title><path class="cls-1" d="M263.62,345H36.38A36.38,36.38,0,0,1,0,308.62V259.14H300v49.48A36.38,36.38,0,0,1,263.62,345Z"/><path class="cls-2" d="M263.62,45H36.38A36.38,36.38,0,0,0,0,81.38V262a36.38,36.38,0,0,0,36.38,36.38H263.62A36.38,36.38,0,0,0,300,262V81.38A36.38,36.38,0,0,0,263.62,45ZM234.07,220.21a20.41,20.41,0,0,1-20.42,20.41H86.12a20.41,20.41,0,0,1-20.41-20.41V148.44A20.41,20.41,0,0,1,86.12,128H213.65a20.41,20.41,0,0,1,20.42,20.41Z"/><path class="cls-3" d="M213.65,101.87H86.12a20.41,20.41,0,0,0-20.41,20.42v26.15A20.41,20.41,0,0,1,86.12,128H213.65a20.41,20.41,0,0,1,20.42,20.41V122.29A20.42,20.42,0,0,0,213.65,101.87Z"/><path class="cls-4" d="M30.06,67.43a22.2,22.2,0,0,0-3.41,1.9,22.53,22.53,0,0,0-3,2.37A22.32,22.32,0,0,0,19,77.58a22.55,22.55,0,0,0-2.44,6.93,29,29,0,0,0-.45,7.34L14.72,90a61.07,61.07,0,0,0,6,1.36,45.07,45.07,0,0,0,6.06.66,19.69,19.69,0,0,0,5.67-.51,6.27,6.27,0,0,0,3.81-2.4L39,92.83l-.65.23c-.24.1-.49.2-.74.32-.49.23-1,.46-1.46.73A19.64,19.64,0,0,0,33.42,96a18.52,18.52,0,0,0-4.31,4.94C26.79,104.68,26,109.32,26,114l-1.33-1.72A46.18,46.18,0,0,0,31,114a35.44,35.44,0,0,0,6.57.66,21.74,21.74,0,0,0,6.51-.85,14.37,14.37,0,0,0,5.8-3.3,14,14,0,0,1-2.31,2.62,16.1,16.1,0,0,1-3,2,21.64,21.64,0,0,1-6.87,2,35.51,35.51,0,0,1-7.14.13,34.9,34.9,0,0,1-3.54-.43c-1.19-.2-2.32-.42-3.56-.75l-1.19-.31-.15-1.4a29.76,29.76,0,0,1,.17-8A23.85,23.85,0,0,1,25,98.52a22.44,22.44,0,0,1,5.32-6.39,24.28,24.28,0,0,1,3.43-2.36,19.31,19.31,0,0,1,1.87-1c.32-.15.65-.28,1-.41A10.84,10.84,0,0,1,37.68,88l6.5-1.92L40.43,91.8a9.86,9.86,0,0,1-3.1,2.94,12.43,12.43,0,0,1-3.66,1.47,23.49,23.49,0,0,1-7.12.49,43.47,43.47,0,0,1-6.7-1,52.31,52.31,0,0,1-6.44-1.87L12,93.3l0-1.38a32.93,32.93,0,0,1,1.19-8.23,24.74,24.74,0,0,1,3.6-7.5,22.7,22.7,0,0,1,5.91-5.66A20.9,20.9,0,0,1,30.06,67.43Z"/><path class="cls-4" d="M17.94,130.93a19.21,19.21,0,0,0-2.33,2.7,20,20,0,0,0-1.85,3,20.61,20.61,0,0,0-2.08,13.13,26.56,26.56,0,0,0,1.86,6.43l-1.94-1.33c1.8-.14,3.74-.36,5.57-.68a41.12,41.12,0,0,0,5.39-1.29,18.23,18.23,0,0,0,4.67-2.15,5.5,5.5,0,0,0,2.45-3.11l3.85,2.64c-.08.06-.31.24-.47.38s-.36.32-.53.49c-.35.35-.7.7-1,1.07a17.42,17.42,0,0,0-4,7.9,22.21,22.21,0,0,0,1.3,12.15L27,171.07a43.5,43.5,0,0,0,5.94-.49,31.64,31.64,0,0,0,5.84-1.4,19.59,19.59,0,0,0,5.36-2.66,13.49,13.49,0,0,0,4-4.57,12.55,12.55,0,0,1-1.17,3,14.14,14.14,0,0,1-2,2.61,19.86,19.86,0,0,1-5.3,3.87,32.86,32.86,0,0,1-6.12,2.34,31.54,31.54,0,0,1-3.2.73c-1.09.19-2.12.35-3.31.45l-1.21.1-.62-1.27a27.29,27.29,0,0,1-2.33-7,21.85,21.85,0,0,1-.11-7.57,20.77,20.77,0,0,1,2.65-7.2,21.69,21.69,0,0,1,2.25-3.12c.42-.49.87-.95,1.34-1.4.23-.23.48-.44.73-.66s.48-.4.86-.68l5.49-4-1.64,6.61a9.22,9.22,0,0,1-1.81,3.57A11.82,11.82,0,0,1,30,154.8a21.81,21.81,0,0,1-6,2.61,39.74,39.74,0,0,1-6.1,1.17,46.3,46.3,0,0,1-6.15.34l-1.52,0-.43-1.31a30.59,30.59,0,0,1-1.47-7.49,22.63,22.63,0,0,1,.86-7.6,20.71,20.71,0,0,1,3.41-6.7A18.93,18.93,0,0,1,17.94,130.93Z"/><path class="cls-4" d="M37.35,125.13a21.68,21.68,0,0,0-1.2,3.71,22.56,22.56,0,0,0-.59,3.8,22.15,22.15,0,0,0,.64,7.46,23.06,23.06,0,0,0,2.94,6.72,31.37,31.37,0,0,0,4.68,5.68l-2.4-.41c1.52-1.08,3.16-2.3,4.69-3.5s3.07-2.42,4.54-3.7,2.91-2.59,4.31-4c.69-.71,1.38-1.44,2.07-2.2s1.35-1.57,2.07-2.42a15,15,0,0,1-1.48,6.43A22.69,22.69,0,0,1,54,148.22a28.92,28.92,0,0,1-4.9,4.36,28.53,28.53,0,0,1-5.78,3.17l-1.5.6-.91-1a32.06,32.06,0,0,1-4.74-6.83,24,24,0,0,1-2.49-7.94,22.83,22.83,0,0,1,.46-8.17A20.93,20.93,0,0,1,37.35,125.13Z"/><path class="cls-2" d="M11.38,272.75s-5.73,15.9,10.93,27.1c0,0,11.66-2.21,18.22-15.12,0,0-2.08,12.46,14.27,20.49,0,0,14.43-7.9,11.2-19.81"/><path class="cls-4" d="M11.38,272.75a23.1,23.1,0,0,0,6.3,20.83,29.82,29.82,0,0,0,5.77,4.58l-1.52-.32c.31-.08.81-.24,1.22-.39s.86-.33,1.29-.51A27.92,27.92,0,0,0,27,295.69a27.1,27.1,0,0,0,4.56-3.24,27.39,27.39,0,0,0,3.82-4.09,30.67,30.67,0,0,0,3-4.76l6.11-12.14L43,285.14c0,.05,0,.34,0,.53s0,.45,0,.67a13.37,13.37,0,0,0,.1,1.4,14.26,14.26,0,0,0,.61,2.78,17.39,17.39,0,0,0,2.65,5.15A23.36,23.36,0,0,0,50.48,300a35.45,35.45,0,0,0,5.17,3.49l-1.78,0a31.79,31.79,0,0,0,4.78-3.12,23.82,23.82,0,0,0,4.12-4,15.41,15.41,0,0,0,2.76-5,13.68,13.68,0,0,0,.47-5.93,12.78,12.78,0,0,1,.83,3,13.08,13.08,0,0,1,0,3.19,16,16,0,0,1-2.08,6.12A27.71,27.71,0,0,1,58.41,305a28.36,28.36,0,0,1-2.68,1.93l-.77.48-1-.44a29.45,29.45,0,0,1-11.43-8.39,21.77,21.77,0,0,1-3.57-6.52,20.79,20.79,0,0,1-.84-3.69,17.53,17.53,0,0,1-.15-1.92c0-.33,0-.66,0-1a9.23,9.23,0,0,1,.11-1.13l4.67,1.54a33.54,33.54,0,0,1-3.55,5.53,30.65,30.65,0,0,1-4.64,4.68A29.76,29.76,0,0,1,29,299.64a31,31,0,0,1-3,1.3,19.88,19.88,0,0,1-3.31.92l-.88.16-.65-.47a33,33,0,0,1-6.07-5.68,24.62,24.62,0,0,1-4.1-7.24,22.67,22.67,0,0,1-1.27-8.08A20.83,20.83,0,0,1,11.38,272.75Z"/><path class="cls-2" d="M84.69,280.37s-9,14.34,5,28.79c0,0,12.93-6.55,16.76-17.64"/><path class="cls-4" d="M84.69,280.37a20.88,20.88,0,0,0-1.21,3.71,23.59,23.59,0,0,0-.58,3.8,21.89,21.89,0,0,0,.63,7.46,23.33,23.33,0,0,0,2.94,6.72,31,31,0,0,0,4.69,5.68l-2.4-.41c1.51-1.08,3.15-2.3,4.68-3.5s3.07-2.42,4.54-3.7,2.91-2.59,4.31-4c.7-.71,1.38-1.44,2.08-2.2s1.35-1.57,2.07-2.42A15,15,0,0,1,105,298a22.69,22.69,0,0,1-3.66,5.51,29.36,29.36,0,0,1-4.9,4.36A28.53,28.53,0,0,1,90.61,311l-1.49.6-.91-1a31.68,31.68,0,0,1-4.75-6.82A24.24,24.24,0,0,1,81,295.82a22.83,22.83,0,0,1,.45-8.17A20.77,20.77,0,0,1,84.69,280.37Z"/><path class="cls-4" d="M21.16,193.06a31.32,31.32,0,0,0-2.29,6.32,30.21,30.21,0,0,0-.86,6.27,31.12,31.12,0,0,0,.46,6.17,40.48,40.48,0,0,0,1.58,6.07l-1.55-1.41c.35.11.92.25,1.41.35s1,.18,1.55.25a24.2,24.2,0,0,0,3.19.24,27.34,27.34,0,0,0,6.42-.6,28.91,28.91,0,0,0,6.24-2.12,39,39,0,0,0,5.85-3.6,23.17,23.17,0,0,1-4.8,5.25A23.81,23.81,0,0,1,32,219.9a25.51,25.51,0,0,1-7.23,1.65,27.61,27.61,0,0,1-3.75,0c-.63,0-1.26-.1-1.89-.18a17.66,17.66,0,0,1-2-.36l-1.05-.26-.5-1.15a27.46,27.46,0,0,1-2.06-7.06,22.88,22.88,0,0,1,.1-7.43,20.4,20.4,0,0,1,2.58-6.9A15.61,15.61,0,0,1,21.16,193.06Z"/><path class="cls-4" d="M31.42,233.51a30.56,30.56,0,0,0,.14,6.72A29.58,29.58,0,0,0,33,246.39,31,31,0,0,0,35.64,252a40.72,40.72,0,0,0,3.66,5.1l-1.95-.76c.36,0,.95-.1,1.44-.18s1-.2,1.54-.32a25.59,25.59,0,0,0,3.06-.92A27.24,27.24,0,0,0,49.16,252a28.48,28.48,0,0,0,5.07-4.22,38.11,38.11,0,0,0,4.16-5.46A23,23,0,0,1,55.8,249a23.57,23.57,0,0,1-4.59,5.68A25.56,25.56,0,0,1,45,258.79a27.78,27.78,0,0,1-3.48,1.4c-.59.19-1.2.35-1.82.51a18.24,18.24,0,0,1-2,.37l-1.07.14-.88-.9a27.21,27.21,0,0,1-4.46-5.84,22.48,22.48,0,0,1-2.57-7,20.24,20.24,0,0,1-.08-7.36A15.59,15.59,0,0,1,31.42,233.51Z"/><path class="cls-4" d="M269.94,67.43a20.9,20.9,0,0,1,7.34,3.1,22.7,22.7,0,0,1,5.91,5.66,24.74,24.74,0,0,1,3.6,7.5A32.93,32.93,0,0,1,288,91.92l0,1.38-1.42.52a52.31,52.31,0,0,1-6.44,1.87,43.47,43.47,0,0,1-6.7,1,23.49,23.49,0,0,1-7.12-.49,12.43,12.43,0,0,1-3.66-1.47,9.86,9.86,0,0,1-3.1-2.94l-3.75-5.69,6.5,1.92a10.84,10.84,0,0,1,1.11.38c.34.13.67.26,1,.41a19.31,19.31,0,0,1,1.87,1,24.28,24.28,0,0,1,3.43,2.36A22.44,22.44,0,0,1,275,98.52a23.85,23.85,0,0,1,2.64,7.77,29.76,29.76,0,0,1,.17,8l-.15,1.4-1.19.31c-1.24.33-2.37.55-3.56.75a34.9,34.9,0,0,1-3.54.43,35.51,35.51,0,0,1-7.14-.13,21.64,21.64,0,0,1-6.87-2,16.1,16.1,0,0,1-3-2,13.61,13.61,0,0,1-2.31-2.62,14.37,14.37,0,0,0,5.8,3.3,21.74,21.74,0,0,0,6.51.85A35.44,35.44,0,0,0,269,114a46.18,46.18,0,0,0,6.33-1.65L274,114c.06-4.71-.78-9.35-3.1-13.13A18.52,18.52,0,0,0,266.58,96a19.64,19.64,0,0,0-2.74-1.85c-.47-.27-1-.5-1.46-.73-.25-.12-.5-.22-.74-.32l-.65-.23,2.74-3.77a6.27,6.27,0,0,0,3.81,2.4,19.69,19.69,0,0,0,5.67.51,45.07,45.07,0,0,0,6.06-.66,61.07,61.07,0,0,0,6-1.36l-1.39,1.9a29,29,0,0,0-.45-7.34A22.55,22.55,0,0,0,281,77.58a24.24,24.24,0,0,0-11.06-10.15Z"/><path class="cls-4" d="M282.06,130.93a18.93,18.93,0,0,1,5.43,4.87,20.71,20.71,0,0,1,3.41,6.7,22.63,22.63,0,0,1,.86,7.6,30.59,30.59,0,0,1-1.47,7.49l-.43,1.31-1.52,0a46.3,46.3,0,0,1-6.15-.34,39.74,39.74,0,0,1-6.1-1.17,21.81,21.81,0,0,1-6-2.61,11.82,11.82,0,0,1-2.76-2.43,9.22,9.22,0,0,1-1.81-3.57l-1.64-6.61,5.49,4c.38.28.59.45.86.68s.5.43.73.66c.47.45.92.91,1.34,1.4a21.69,21.69,0,0,1,2.25,3.12,20.77,20.77,0,0,1,2.65,7.2,21.85,21.85,0,0,1-.11,7.57,27.29,27.29,0,0,1-2.33,7L274.1,175l-1.21-.1c-1.19-.1-2.22-.26-3.31-.45a31.54,31.54,0,0,1-3.2-.73,32.86,32.86,0,0,1-6.12-2.34,19.86,19.86,0,0,1-5.3-3.87,14.14,14.14,0,0,1-2-2.61,12.55,12.55,0,0,1-1.17-3,13.49,13.49,0,0,0,4,4.57,19.59,19.59,0,0,0,5.36,2.66,31.64,31.64,0,0,0,5.84,1.4,43.5,43.5,0,0,0,5.94.49l-1.84,1.17a22.21,22.21,0,0,0,1.3-12.15,17.42,17.42,0,0,0-4-7.9c-.33-.37-.68-.72-1-1.07-.17-.17-.35-.33-.53-.49s-.39-.32-.47-.38l3.85-2.64a5.5,5.5,0,0,0,2.45,3.11,18.23,18.23,0,0,0,4.67,2.15,41.12,41.12,0,0,0,5.39,1.29c1.83.32,3.77.54,5.57.68l-1.94,1.33a26.56,26.56,0,0,0,1.86-6.43,21.37,21.37,0,0,0-3.93-16.11A19.21,19.21,0,0,0,282.06,130.93Z"/><path class="cls-4" d="M262.65,125.13a20.93,20.93,0,0,1,3.25,7.28,22.83,22.83,0,0,1,.46,8.17,24.26,24.26,0,0,1-2.49,7.94,32.06,32.06,0,0,1-4.74,6.83l-.91,1-1.5-.6a28.53,28.53,0,0,1-5.78-3.17,28.92,28.92,0,0,1-4.9-4.36,22.69,22.69,0,0,1-3.66-5.51,15,15,0,0,1-1.48-6.43c.72.85,1.39,1.65,2.07,2.42s1.38,1.49,2.07,2.2c1.4,1.4,2.84,2.72,4.31,4s3,2.49,4.54,3.7,3.17,2.42,4.69,3.5l-2.4.41a31.37,31.37,0,0,0,4.68-5.68,23.06,23.06,0,0,0,2.94-6.72,22.15,22.15,0,0,0,.64-7.46,22.56,22.56,0,0,0-.59-3.8A21.68,21.68,0,0,0,262.65,125.13Z"/><path class="cls-2" d="M288.62,272.75s5.73,15.9-10.93,27.1c0,0-11.66-2.21-18.22-15.12,0,0,2.08,12.46-14.27,20.49,0,0-14.43-7.9-11.2-19.81"/><path class="cls-4" d="M288.62,272.75a20.83,20.83,0,0,1,1.65,7.8,22.67,22.67,0,0,1-1.27,8.08,24.62,24.62,0,0,1-4.1,7.24,33,33,0,0,1-6.07,5.68l-.65.47-.88-.16a19.88,19.88,0,0,1-3.31-.92,31,31,0,0,1-3-1.3,29.76,29.76,0,0,1-5.52-3.57,30.65,30.65,0,0,1-4.64-4.68,33.54,33.54,0,0,1-3.55-5.53l4.67-1.54a9.23,9.23,0,0,1,.11,1.13c0,.33,0,.66,0,1a17.53,17.53,0,0,1-.15,1.92,20.79,20.79,0,0,1-.84,3.69,21.77,21.77,0,0,1-3.57,6.52A29.45,29.45,0,0,1,246.06,307l-1,.44-.77-.48a28.36,28.36,0,0,1-2.68-1.93,27.71,27.71,0,0,1-6.38-7.26,16,16,0,0,1-2.08-6.12,13.08,13.08,0,0,1,0-3.19,12.78,12.78,0,0,1,.83-3,13.68,13.68,0,0,0,.47,5.93,15.41,15.41,0,0,0,2.76,5,23.82,23.82,0,0,0,4.12,4,31.79,31.79,0,0,0,4.78,3.12l-1.78,0a35.45,35.45,0,0,0,5.17-3.49,23.36,23.36,0,0,0,4.17-4.33,17.39,17.39,0,0,0,2.65-5.15,14.26,14.26,0,0,0,.61-2.78,13.37,13.37,0,0,0,.1-1.4c0-.22,0-.45,0-.67s0-.48,0-.53l-1.43-13.68,6.11,12.14a30.67,30.67,0,0,0,3,4.76,27.39,27.39,0,0,0,3.82,4.09,27.1,27.1,0,0,0,4.56,3.24,27.92,27.92,0,0,0,2.51,1.25q.65.27,1.29.51c.41.15.91.31,1.22.39l-1.52.32a29.82,29.82,0,0,0,5.77-4.58,23.74,23.74,0,0,0,6.3-20.83Z"/><path class="cls-2" d="M215.31,280.37s8.95,14.34-5,28.79c0,0-12.93-6.55-16.76-17.64"/><path class="cls-4" d="M215.31,280.37a20.77,20.77,0,0,1,3.26,7.28,22.83,22.83,0,0,1,.45,8.17,24.24,24.24,0,0,1-2.48,7.94,31.68,31.68,0,0,1-4.75,6.82l-.91,1-1.49-.6a28.53,28.53,0,0,1-5.78-3.17,29.36,29.36,0,0,1-4.9-4.36,22.69,22.69,0,0,1-3.66-5.51,15,15,0,0,1-1.49-6.43c.72.85,1.4,1.65,2.07,2.42s1.38,1.49,2.08,2.2c1.4,1.4,2.83,2.72,4.31,4s3,2.49,4.54,3.7,3.17,2.42,4.68,3.5l-2.4.41a31,31,0,0,0,4.69-5.68,23.33,23.33,0,0,0,2.94-6.72,21.89,21.89,0,0,0,.63-7.46,23.59,23.59,0,0,0-.58-3.8A20.88,20.88,0,0,0,215.31,280.37Z"/><path class="cls-4" d="M278.84,193.06a15.61,15.61,0,0,1,4.92,5.2,20.4,20.4,0,0,1,2.58,6.9,22.88,22.88,0,0,1,.1,7.43,27.46,27.46,0,0,1-2.06,7.06l-.5,1.15-1.05.26a17.66,17.66,0,0,1-2,.36c-.63.08-1.26.15-1.89.18a27.61,27.61,0,0,1-3.75,0A25.51,25.51,0,0,1,268,219.9a23.81,23.81,0,0,1-6.33-3.65,23.17,23.17,0,0,1-4.8-5.25,39,39,0,0,0,5.85,3.6,28.91,28.91,0,0,0,6.24,2.12,27.34,27.34,0,0,0,6.42.6,24.2,24.2,0,0,0,3.19-.24c.52-.07,1-.16,1.55-.25s1.06-.24,1.41-.35L280,217.89a40.48,40.48,0,0,0,1.58-6.07,31.12,31.12,0,0,0,.46-6.17,30.21,30.21,0,0,0-.86-6.27A31.32,31.32,0,0,0,278.84,193.06Z"/><path class="cls-4" d="M268.58,233.51a15.59,15.59,0,0,1,2.73,6.62,20.24,20.24,0,0,1-.08,7.36,22.48,22.48,0,0,1-2.57,7,27.21,27.21,0,0,1-4.46,5.84l-.88.9-1.07-.14a18.24,18.24,0,0,1-2-.37c-.62-.16-1.23-.32-1.82-.51a27.78,27.78,0,0,1-3.48-1.4,25.56,25.56,0,0,1-6.17-4.14A23.57,23.57,0,0,1,244.2,249a23,23,0,0,1-2.59-6.62,38.11,38.11,0,0,0,4.16,5.46,28.48,28.48,0,0,0,5.07,4.22,27.24,27.24,0,0,0,5.77,2.87,25.59,25.59,0,0,0,3.06.92c.51.12,1,.23,1.54.32s1.08.16,1.44.18l-1.95.76a40.72,40.72,0,0,0,3.66-5.1,31,31,0,0,0,2.64-5.59,29.58,29.58,0,0,0,1.44-6.16A30.56,30.56,0,0,0,268.58,233.51Z"/><path class="cls-4" d="M116.22,251.52a18.58,18.58,0,0,0-3.27,5.66,19.43,19.43,0,0,0-1.25,6.27,20.63,20.63,0,0,0,.75,6.26,28.29,28.29,0,0,0,2.36,5.86l-1.4-.81a40.9,40.9,0,0,0,6.63-1.5,31.79,31.79,0,0,0,6.2-2.59,18.51,18.51,0,0,0,5-4,13.9,13.9,0,0,0,1.72-2.5,13.22,13.22,0,0,0,1-2.8l2.45-9.91,1.93,10.11a43.48,43.48,0,0,0,1.94,6.78,47.19,47.19,0,0,0,2.95,6.46,32.35,32.35,0,0,0,4,5.69,25.49,25.49,0,0,0,5.15,4.43l-2.57-.08c.32-.18.81-.49,1.21-.77s.83-.6,1.24-.91a30.09,30.09,0,0,0,2.33-2,25.51,25.51,0,0,0,3.87-4.77,22.83,22.83,0,0,0,2.46-5.51,20.43,20.43,0,0,0,.75-6l-.26-16.25L166,264.14a7.87,7.87,0,0,0,.37,1c.16.35.33.7.52,1a19.58,19.58,0,0,0,1.28,2,19.32,19.32,0,0,0,3.28,3.55,21.42,21.42,0,0,0,4.1,2.71,28.41,28.41,0,0,0,4.67,1.86l-1.47.4a33.46,33.46,0,0,0,4.41-5.29,29.4,29.4,0,0,0,3.28-6.13,20.25,20.25,0,0,0,1.37-6.81,17.16,17.16,0,0,0-1.4-6.94,16.45,16.45,0,0,1,2.4,6.89,20.25,20.25,0,0,1-.64,7.42,30.83,30.83,0,0,1-2.86,6.9,36.67,36.67,0,0,1-4.37,6.15l-.53.59-.93-.18a25.84,25.84,0,0,1-10.41-4.55,23.32,23.32,0,0,1-4.22-4,19.51,19.51,0,0,1-1.69-2.43c-.25-.43-.5-.87-.72-1.32a12.47,12.47,0,0,1-.64-1.51l4.29-.76a24.83,24.83,0,0,1-.64,7.38,23.94,23.94,0,0,1-2.85,6.84,30.14,30.14,0,0,1-4.53,5.75,32.85,32.85,0,0,1-2.71,2.43c-.47.38-1,.75-1.46,1.1s-1,.68-1.62,1.06L151,290l-1.28-.83a29.29,29.29,0,0,1-6.14-5.38A37,37,0,0,1,139,277.2a43.75,43.75,0,0,1-3.16-7.24,47.26,47.26,0,0,1-1.92-7.69l4.38.2a16.17,16.17,0,0,1-4,7.09,22.35,22.35,0,0,1-6.35,4.51,34.75,34.75,0,0,1-7.06,2.5,41.51,41.51,0,0,1-7.34,1.08l-1,.05-.38-.87a28.21,28.21,0,0,1-2-6.62,22.57,22.57,0,0,1-.15-6.91,20,20,0,0,1,2.09-6.5A18.1,18.1,0,0,1,116.22,251.52Z"/><circle class="cls-5" cx="29.31" cy="126.58" r="13.93"/><circle class="cls-6" cx="29.31" cy="121.78" r="13.93"/><path class="cls-7" d="M32.25,127.3a11,11,0,0,1-9.31-8.68.5.5,0,0,1,0-.12,2.23,2.23,0,0,0-4.23-.57,10.94,10.94,0,0,0,14.65,14.44,2.68,2.68,0,0,0-1-5.05Z"/><circle class="cls-8" cx="32.32" cy="115.02" r="4.16"/><circle class="cls-5" cx="53.7" cy="82.21" r="13.93"/><circle class="cls-6" cx="53.7" cy="77.41" r="13.93"/><path class="cls-7" d="M56.64,82.94a11,11,0,0,1-9.31-8.69.5.5,0,0,0,0-.12,2.23,2.23,0,0,0-4.22-.57A10.93,10.93,0,0,0,57.73,88a2.68,2.68,0,0,0-1-5Z"/><circle class="cls-8" cx="56.71" cy="70.66" r="4.16"/><circle class="cls-5" cx="45.56" cy="211.47" r="13.93"/><circle class="cls-6" cx="45.56" cy="206.68" r="13.93"/><path class="cls-7" d="M48.5,212.2a11,11,0,0,1-9.3-8.69l0-.12a2.23,2.23,0,0,0-4.22-.56A10.94,10.94,0,0,0,49.6,217.27a2.68,2.68,0,0,0-1-5.05Z"/><circle class="cls-8" cx="48.58" cy="199.92" r="4.16"/><circle class="cls-5" cx="20.07" cy="263.54" r="13.93"/><circle class="cls-6" cx="20.07" cy="258.75" r="13.93"/><path class="cls-7" d="M23,264.27a11,11,0,0,1-9.31-8.69s0-.08,0-.12a2.23,2.23,0,0,0-4.22-.56,10.81,10.81,0,0,0-.92,5.85,10.94,10.94,0,0,0,15.56,8.59,2.68,2.68,0,0,0-1-5Z"/><circle class="cls-8" cx="23.08" cy="251.99" r="4.16"/><circle class="cls-5" cx="73.64" cy="268.34" r="13.93"/><circle class="cls-6" cx="73.64" cy="263.54" r="13.93"/><path class="cls-7" d="M76.58,269.07a11,11,0,0,1-9.31-8.69.5.5,0,0,1,0-.12,2.23,2.23,0,0,0-4.23-.57A10.94,10.94,0,0,0,71.5,275.1a10.91,10.91,0,0,0,6.17-1,2.68,2.68,0,0,0-1-5.05Z"/><circle class="cls-8" cx="76.65" cy="256.79" r="4.16"/><circle class="cls-5" cx="246.3" cy="82.29" r="13.93"/><circle class="cls-6" cx="246.3" cy="77.5" r="13.93"/><path class="cls-7" d="M249.24,83a11,11,0,0,1-9.31-8.69s0-.08,0-.12a2.23,2.23,0,0,0-4.22-.56,10.81,10.81,0,0,0-.92,5.85,10.94,10.94,0,0,0,15.56,8.59,2.68,2.68,0,0,0-1-5Z"/><circle class="cls-8" cx="249.31" cy="70.74" r="4.16"/><circle class="cls-5" cx="270.69" cy="126.76" r="13.93"/><circle class="cls-6" cx="270.69" cy="121.97" r="13.93"/><path class="cls-7" d="M273.63,127.49a11,11,0,0,1-9.3-8.69l0-.12a2.23,2.23,0,0,0-4.22-.56,10.94,10.94,0,0,0,14.65,14.44,2.68,2.68,0,0,0-1-5Z"/><circle class="cls-8" cx="273.71" cy="115.21" r="4.16"/><circle class="cls-5" cx="254.44" cy="211.47" r="13.93"/><circle class="cls-6" cx="254.44" cy="206.68" r="13.93"/><path class="cls-7" d="M257.37,212.2a11,11,0,0,1-9.3-8.69.5.5,0,0,1,0-.12,2.23,2.23,0,0,0-4.23-.56,10.94,10.94,0,0,0,14.65,14.44,2.68,2.68,0,0,0-1-5.05Z"/><circle class="cls-8" cx="257.45" cy="199.92" r="4.16"/><circle class="cls-5" cx="279.93" cy="263.34" r="13.93"/><circle class="cls-6" cx="279.93" cy="258.55" r="13.93"/><path class="cls-7" d="M282.87,264.07a11,11,0,0,1-9.31-8.69.5.5,0,0,0,0-.12,2.23,2.23,0,0,0-4.22-.56A10.94,10.94,0,0,0,284,269.14a2.68,2.68,0,0,0-1-5.05Z"/><circle class="cls-8" cx="282.94" cy="251.79" r="4.16"/><circle class="cls-5" cx="226.36" cy="268.14" r="13.93"/><circle class="cls-6" cx="226.36" cy="263.34" r="13.93"/><path class="cls-7" d="M229.3,268.87a11,11,0,0,1-9.31-8.69.5.5,0,0,0,0-.12,2.23,2.23,0,0,0-4.22-.57,10.94,10.94,0,0,0,14.65,14.44,2.68,2.68,0,0,0-1-5.05Z"/><circle class="cls-8" cx="229.38" cy="256.59" r="4.16"/><path class="cls-5" d="M34.49,164C32.67,160.28,25.8,158,25.8,158s-.5.29-1.24.79a24.78,24.78,0,0,0-6.14-3.21,25.6,25.6,0,0,0-2.36,1.58c-4.51-.91-11,2.17-11,2.17s-2,6.9-.43,11.22a25.35,25.35,0,0,0-1.2,2.58,24.88,24.88,0,0,0,4.11,5.58c-.37.81-.58,1.34-.58,1.34s3.36,6.43,7.35,7.65c1.66,2.29,4.24,5,7,4.88a3.92,3.92,0,0,0,1.89-.68,5,5,0,0,0,2.78.78,4.22,4.22,0,0,0,2.41-1.07c2.69,1.18,7.27,0,10.3-3.54s3.5-8.25,1.91-10.73a4.18,4.18,0,0,0,.68-2.54,4.94,4.94,0,0,0-1.2-2.63,3.81,3.81,0,0,0,.39-2C40.13,167.44,37,165.32,34.49,164Z"/><path class="cls-9" d="M20.76,151.14c2.42,2.07,2.28,7.59-1.15,11.6s-8.87,5-11.29,2.94c-4-3.44-1.05-13.49-1.05-13.49S16.75,147.7,20.76,151.14Z"/><path class="cls-10" d="M29.78,156c-.44-4.6-9.12-7.53-9.12-7.53s-7.54,4.3-7.52,8.77c-4.42.68-7.5,8.78-7.5,8.78s4.23,8.13,8.84,7.86c2.78-.17,5.59-4.09,5.32-8.7a10.19,10.19,0,0,0-.52-2.69,10.36,10.36,0,0,0,2.74.11C26.61,162.12,30.05,158.73,29.78,156Z"/><path class="cls-11" d="M37.17,158.39c-.45-4.6-9.13-7.53-9.13-7.53a23.22,23.22,0,0,0-6.15,5.22,28.8,28.8,0,0,0-7.47,2.23,28.32,28.32,0,0,0-1,7.72,23.21,23.21,0,0,0-4.21,6.88S13.4,181,18,180.77c2.78-.17,5.6-4.09,5.32-8.7a3.13,3.13,0,0,0,0-.43A11.87,11.87,0,0,0,29,165l.44,0C34,164.54,37.43,161.15,37.17,158.39Z"/><path class="cls-12" d="M42.62,163.06c-.44-4.6-9.12-7.53-9.12-7.53a23.05,23.05,0,0,0-6.15,5.22A28.8,28.8,0,0,0,19.88,163a28.56,28.56,0,0,0-1.05,7.72,23.07,23.07,0,0,0-4.2,6.88s4.23,8.13,8.84,7.86c2.78-.17,5.59-4.08,5.32-8.7,0-.14,0-.29,0-.43a11.79,11.79,0,0,0,5.67-6.63l.44,0C39.46,169.22,42.89,165.83,42.62,163.06Z"/><path class="cls-13" d="M43.44,167.65c-.44-4.59-9.13-7.52-9.13-7.52s-7.53,4.29-7.52,8.77c-4.42.67-7.5,8.78-7.5,8.78s4.24,8.13,8.85,7.85c2.77-.16,5.59-4.08,5.32-8.69a10.61,10.61,0,0,0-.53-2.69,10,10,0,0,0,2.74.1C40.27,173.81,43.71,170.42,43.44,167.65Z"/><path class="cls-14" d="M42,169.32c2.42,2.07,2.28,7.59-1.16,11.61s-8.87,5-11.28,2.93c-4-3.43-1.05-13.49-1.05-13.49S38,165.89,42,169.32Z"/><path class="cls-5" d="M123.19,272.46c-.6-4.13-6.44-8.42-6.44-8.42s-.56.12-1.42.37a24.8,24.8,0,0,0-4.89-4.91,26.39,26.39,0,0,0-2.72.78c-4-2.22-11.17-1.26-11.17-1.26s-4,6-3.81,10.56a25.11,25.11,0,0,0-1.92,2.1,24.68,24.68,0,0,0,2.23,6.55c-.61.66-1,1.11-1,1.11s1.25,7.14,4.68,9.52c.9,2.68,2.52,6.08,5.15,6.75a3.84,3.84,0,0,0,2-.08,5.06,5.06,0,0,0,2.41,1.59,4.2,4.2,0,0,0,2.62-.3c2.21,1.95,6.94,2.21,10.9-.25s5.82-6.8,5.06-9.65a4.12,4.12,0,0,0,1.42-2.21,5,5,0,0,0-.34-2.87,4,4,0,0,0,1-1.76C127.53,277.42,125.2,274.46,123.19,272.46Z"/><path class="cls-9" d="M114,257.76c1.68,2.7-.13,7.92-4.62,10.7s-10,2.09-11.64-.61c-2.79-4.49,3.08-13.18,3.08-13.18S111.22,253.27,114,257.76Z"/><path class="cls-10" d="M121.14,265.09c1-4.52-6.42-9.94-6.42-9.94s-8.48,1.81-9.82,6.08c-4.41-.69-9.8,6.1-9.8,6.1s1.57,9,6.05,10.16c2.69.69,6.56-2.19,7.7-6.67a10.29,10.29,0,0,0,.31-2.72,10.26,10.26,0,0,0,2.58.92C116.26,270,120.56,267.8,121.14,265.09Z"/><path class="cls-11" d="M127.45,269.63c1-4.52-6.42-9.94-6.42-9.94a23,23,0,0,0-7.44,3.12,28.42,28.42,0,0,0-7.79-.14,28.55,28.55,0,0,0-3.34,7A23,23,0,0,0,96.37,275s1.57,9,6,10.16c2.69.68,6.56-2.2,7.7-6.67,0-.15.06-.29.09-.43a11.95,11.95,0,0,0,7.41-4.6l.43.11C122.56,274.54,126.86,272.35,127.45,269.63Z"/><path class="cls-12" d="M131.23,275.73c1-4.51-6.42-9.93-6.42-9.93a23.2,23.2,0,0,0-7.44,3.11,28.44,28.44,0,0,0-7.79-.14,28.71,28.71,0,0,0-3.33,7,23.28,23.28,0,0,0-6.1,5.29s1.58,9,6,10.16c2.7.69,6.57-2.19,7.71-6.67l.09-.43a11.84,11.84,0,0,0,7.41-4.6l.42.11C126.35,280.64,130.65,278.45,131.23,275.73Z"/><path class="cls-13" d="M130.62,280.36c1-4.52-6.42-9.93-6.42-9.93s-8.48,1.81-9.82,6.07c-4.42-.69-9.81,6.1-9.81,6.1s1.58,9,6.05,10.17c2.7.68,6.57-2.2,7.71-6.68a10.67,10.67,0,0,0,.31-2.72,10.27,10.27,0,0,0,2.58.93C125.74,285.27,130,283.08,130.62,280.36Z"/><path class="cls-14" d="M128.75,281.52c1.68,2.7-.12,7.92-4.61,10.71s-10,2.08-11.65-.62c-2.79-4.49,3.09-13.18,3.09-13.18S126,277,128.75,281.52Z"/><path class="cls-5" d="M281.55,170.1c3.16-2.73,3.65-10,3.65-10s-.4-.41-1.08-1a24.67,24.67,0,0,0,1.52-6.76,24.29,24.29,0,0,0-2.12-1.87c-.28-4.6-4.93-10.1-4.93-10.1s-7.19-.19-11,2.45a24.31,24.31,0,0,0-2.8-.49,24.61,24.61,0,0,0-4.33,5.4c-.88-.16-1.45-.22-1.45-.22s-5.35,4.9-5.51,9.06c-1.79,2.2-3.79,5.4-2.93,8a3.91,3.91,0,0,0,1.14,1.65,5,5,0,0,0,0,2.89,4.27,4.27,0,0,0,1.65,2.05c-.46,2.91,1.86,7,6.06,9s8.87,1.26,10.86-.91a4.18,4.18,0,0,0,2.64,0,5,5,0,0,0,2.23-1.83,3.82,3.82,0,0,0,2-.14C279.7,176.42,281,172.87,281.55,170.1Z"/><path class="cls-9" d="M279,146.52c-1.38,2.86-6.75,4.14-11.51,1.85s-7.12-7.29-5.74-10.15c2.3-4.77,12.78-4.48,12.78-4.48S281.25,141.75,279,146.52Z"/><path class="cls-10" d="M276.61,156.47c4.33-1.61,4.93-10.75,4.93-10.75s-6.08-6.18-10.4-5c-1.79-4.1-10.41-5-10.41-5s-6.78,6.18-5.33,10.57c.87,2.64,5.38,4.36,9.77,2.91a10.22,10.22,0,0,0,2.46-1.2,10.15,10.15,0,0,0,.61,2.68C269.84,155,274,157.44,276.61,156.47Z"/><path class="cls-11" d="M276.16,164.23c4.33-1.61,4.93-10.75,4.93-10.75a23.15,23.15,0,0,0-6.62-4.61,28.38,28.38,0,0,0-4.07-6.64,28.35,28.35,0,0,0-7.73,1,23.23,23.23,0,0,0-7.73-2.3s-6.77,6.18-5.32,10.56c.87,2.64,5.38,4.36,9.76,2.92l.41-.16a11.89,11.89,0,0,0,3.57,2.64,11.74,11.74,0,0,0,4.29,1.15l.14.41C269.4,162.74,273.55,165.2,276.16,164.23Z"/><path class="cls-12" d="M273.05,170.7C277.38,169.09,278,160,278,160a23.15,23.15,0,0,0-6.62-4.61,28.76,28.76,0,0,0-4.07-6.64,28.58,28.58,0,0,0-7.73,1,23.1,23.1,0,0,0-7.73-2.31s-6.77,6.18-5.33,10.57c.87,2.64,5.38,4.36,9.77,2.91l.41-.15a11.85,11.85,0,0,0,7.86,3.78c0,.14.08.28.13.42C266.28,169.22,270.44,171.67,273.05,170.7Z"/><path class="cls-13" d="M268.81,172.67c4.33-1.61,4.93-10.75,4.93-10.75s-6.08-6.18-10.4-5c-1.79-4.1-10.41-5-10.41-5s-6.77,6.18-5.32,10.56c.87,2.64,5.38,4.36,9.76,2.92a10.29,10.29,0,0,0,2.47-1.2,10.37,10.37,0,0,0,.6,2.67C262.05,171.18,266.21,173.64,268.81,172.67Z"/><path class="cls-14" d="M266.83,171.71c-1.38,2.87-6.75,4.15-11.51,1.86s-7.11-7.29-5.73-10.16c2.29-4.76,12.77-4.47,12.77-4.47S269.12,167,266.83,171.71Z"/><path class="cls-5" d="M201.2,275.28c3.85-1.59,6.59-8.31,6.59-8.31s-.25-.51-.7-1.28a25.07,25.07,0,0,0,3.57-5.94,25.17,25.17,0,0,0-1.43-2.45c1.18-4.45-1.49-11.14-1.49-11.14S201,243.72,196.57,245a25.84,25.84,0,0,0-2.51-1.35,24.6,24.6,0,0,0-5.81,3.76c-.79-.42-1.31-.66-1.31-.66s-6.62,3-8.08,6.86c-2.39,1.52-5.29,3.93-5.3,6.65a3.9,3.9,0,0,0,.57,1.92,4.9,4.9,0,0,0-.95,2.73,4.18,4.18,0,0,0,.92,2.47c-1.35,2.62-.45,7.26,2.9,10.5s8,4,10.59,2.56a4.2,4.2,0,0,0,2.5.84,5,5,0,0,0,2.7-1,3.91,3.91,0,0,0,1.94.51C197.45,280.69,199.75,277.71,201.2,275.28Z"/><path class="cls-9" d="M206.16,252.08c-2.21,2.28-7.71,1.81-11.51-1.87s-4.45-9.16-2.24-11.44c3.68-3.8,13.53-.22,13.53-.22S209.84,248.28,206.16,252.08Z"/><path class="cls-10" d="M200.8,260.79c4.61-.16,8.06-8.65,8.06-8.65s-3.82-7.78-8.28-8c-.41-4.45-8.31-8-8.31-8s-8.37,3.73-8.38,8.35c0,2.78,3.73,5.83,8.35,5.84a10.37,10.37,0,0,0,2.71-.36,10.59,10.59,0,0,0-.27,2.73C194.84,257.25,198,260.88,200.8,260.79Z"/><path class="cls-11" d="M197.93,268c4.61-.16,8.07-8.65,8.07-8.65a23,23,0,0,0-4.84-6.46,28.56,28.56,0,0,0-1.76-7.59,28.57,28.57,0,0,0-7.64-1.52,23.3,23.3,0,0,0-6.62-4.62s-8.37,3.73-8.38,8.35c0,2.78,3.73,5.83,8.35,5.84h.44a11.85,11.85,0,0,0,6.27,6.06c0,.15,0,.29,0,.44C192,264.47,195.15,268.1,197.93,268Z"/><path class="cls-12" d="M192.93,273.17c4.62-.16,8.07-8.65,8.07-8.65a23.09,23.09,0,0,0-4.83-6.46,28.81,28.81,0,0,0-1.77-7.59,28.46,28.46,0,0,0-7.64-1.52,23.17,23.17,0,0,0-6.61-4.62s-8.37,3.73-8.38,8.35c0,2.78,3.73,5.83,8.35,5.84h.43a12,12,0,0,0,2.56,3.63,11.77,11.77,0,0,0,3.71,2.43c0,.15,0,.29,0,.44C187,269.63,190.15,273.27,192.93,273.17Z"/><path class="cls-13" d="M188.29,273.7c4.62-.16,8.07-8.65,8.07-8.65s-3.82-7.78-8.29-8c-.4-4.45-8.3-8-8.3-8s-8.38,3.72-8.39,8.34c0,2.78,3.74,5.84,8.36,5.85a10.37,10.37,0,0,0,2.71-.36,10.52,10.52,0,0,0-.27,2.72C182.34,270.16,185.51,273.8,188.29,273.7Z"/><path class="cls-14" d="M186.72,272.17c-2.22,2.29-7.72,1.81-11.52-1.86s-4.45-9.16-2.24-11.45c3.68-3.8,13.54-.22,13.54-.22S190.39,268.37,186.72,272.17Z"/><path class="cls-6" d="M148.94,78.28s16.85,28.55,17.46,43.19-9.71,31.71-3.25,42.9l19.37-23,4.11,25.47s22.29-31.14,11.81-53.23c-8.5-18-19.65-8.61-21.66-24.54"/><path class="cls-7" d="M198.44,113.58c-8.5-18-19.65-8.61-21.66-24.54L148.94,78.28a226.15,226.15,0,0,1,11.88,23.61C172,110,187.11,115,200.1,118.09A26.88,26.88,0,0,0,198.44,113.58Z"/><path class="cls-6" d="M151.06,78.28s-16.85,28.55-17.46,43.19,9.71,31.71,3.25,42.9l-19.37-23-4.11,25.47s-22.29-31.14-11.81-53.23c8.5-18,19.65-8.61,21.66-24.54"/><path class="cls-7" d="M101.56,113.58c8.5-18,19.65-8.61,21.66-24.54l27.84-10.76a226.15,226.15,0,0,0-11.88,23.61C128,110,112.89,115,99.9,118.09A26.88,26.88,0,0,1,101.56,113.58Z"/><path class="cls-6" d="M221,26.59c5.81,6.5,6.93,16.86,3.62,25.48a33.89,33.89,0,0,0-2.33,12,33.9,33.9,0,0,0,2.33,12c3.31,8.62,2.19,19-3.62,25.47-5,5.59-12.13,8.41-19.55,6.68-24-5.58-55.72-17.92-55.72-44.12s31.7-38.53,55.72-44.12C208.87,18.18,216,21,221,26.59Z"/><path class="cls-6" d="M79,26.59c-5.81,6.5-6.93,16.86-3.62,25.48a33.89,33.89,0,0,1,2.33,12,33.9,33.9,0,0,1-2.33,12c-3.31,8.62-2.19,19,3.62,25.47,5,5.59,12.13,8.41,19.55,6.68,24-5.58,55.72-17.92,55.72-44.12S122.57,25.5,98.55,19.91C91.13,18.18,84,21,79,26.59Z"/><ellipse class="cls-15" cx="149.83" cy="64.03" rx="24.03" ry="23.34"/><path class="cls-15" d="M194.09,46.69a89.69,89.69,0,0,1-7.8,6.1c-2.67,1.9-5.39,3.68-8.15,5.39s-5.57,3.34-8.39,4.92l-4.27,2.3-4.33,2.21L161,60.4q4.33,2,8.59,4.16T178,69.12c2.76,1.6,5.5,3.27,8.19,5a89.15,89.15,0,0,1,7.87,5.74,92.19,92.19,0,0,1-9.49-2.2c-3.1-.87-6.15-1.85-9.17-2.9s-6-2.17-9-3.37-5.87-2.46-8.77-3.76L150,64.18l7.61-3.72,4.36-2.14,4.41-2c3-1.31,5.94-2.59,9-3.75s6.09-2.29,9.21-3.28A93.24,93.24,0,0,1,194.09,46.69Z"/><path class="cls-15" d="M105.58,46.69a93.24,93.24,0,0,1,9.56,2.57c3.12,1,6.18,2.1,9.21,3.28s6,2.44,9,3.75l4.41,2,4.36,2.14,7.61,3.72L142,67.67c-2.9,1.3-5.82,2.57-8.77,3.76s-5.94,2.32-9,3.37-6.07,2-9.17,2.9a92.19,92.19,0,0,1-9.49,2.2,89.15,89.15,0,0,1,7.87-5.74c2.69-1.77,5.42-3.44,8.19-5s5.58-3.11,8.41-4.56,5.7-2.83,8.59-4.16l-.12,7.21-4.33-2.21-4.27-2.3c-2.82-1.58-5.64-3.19-8.39-4.92s-5.49-3.49-8.15-5.39A89.69,89.69,0,0,1,105.58,46.69Z"/><ellipse class="cls-6" cx="149.83" cy="64.03" rx="17.34" ry="16.84"/></svg>