<svg id="Layer_1" data-name="Layer 1" xmlns="http://www.w3.org/2000/svg" xmlns:xlink="http://www.w3.org/1999/xlink" viewBox="0 0 300 345"><defs><style>.cls-1{fill:#dae6f5;}.cls-2{fill:url(#linear-gradient);}.cls-3{fill:url(#linear-gradient-2);}.cls-4{fill:url(#linear-gradient-3);}.cls-5{fill:#663723;}.cls-6{fill:url(#linear-gradient-4);}.cls-7{fill:#ecf7fe;}.cls-8{fill:url(#linear-gradient-5);}.cls-9{fill:#995b3c;}.cls-10{fill:none;stroke:#fff;stroke-linecap:round;stroke-miterlimit:10;stroke-width:13px;}</style><linearGradient id="linear-gradient" x1="17.52" y1="214.53" x2="236.74" y2="214.53" gradientUnits="userSpaceOnUse"><stop offset="0" stop-color="#9dc6ea" stop-opacity="0.5"/><stop offset="0.33" stop-color="#416eb5"/></linearGradient><linearGradient id="linear-gradient-2" x1="35.75" y1="195.45" x2="305.78" y2="194.55" gradientUnits="userSpaceOnUse"><stop offset="0" stop-color="#9dc6ea"/><stop offset="0.06" stop-color="#b0d0ed" stop-opacity="0.85"/><stop offset="0.13" stop-color="#bfd8f0" stop-opacity="0.72"/><stop offset="0.2" stop-color="#cbdef2" stop-opacity="0.62"/><stop offset="0.28" stop-color="#d3e3f4" stop-opacity="0.55"/><stop offset="0.38" stop-color="#d8e5f5" stop-opacity="0.51"/><stop offset="0.51" stop-color="#dae6f5" stop-opacity="0.5"/><stop offset="0.63" stop-color="#d8e5f5" stop-opacity="0.51"/><stop offset="0.72" stop-color="#d3e2f4" stop-opacity="0.56"/><stop offset="0.8" stop-color="#cadef2" stop-opacity="0.63"/><stop offset="0.87" stop-color="#bed7f0" stop-opacity="0.73"/><stop offset="0.94" stop-color="#aecfed" stop-opacity="0.86"/><stop offset="1" stop-color="#9dc6ea"/></linearGradient><linearGradient id="linear-gradient-3" x1="170.41" y1="128.55" x2="171.57" y2="-206.99" gradientUnits="userSpaceOnUse"><stop offset="0" stop-color="#9dc6ea"/><stop offset="1" stop-color="#416eb5"/></linearGradient><linearGradient id="linear-gradient-4" x1="225.17" y1="121.74" x2="225.17" y2="46.59" gradientUnits="userSpaceOnUse"><stop offset="0" stop-color="#c7eaf7"/><stop offset="0.69" stop-color="#6eb8cc"/></linearGradient><linearGradient id="linear-gradient-5" x1="158.74" y1="104.81" x2="158.74" y2="29.67" xlink:href="#linear-gradient-4"/></defs><title>blook_hot-chocolate</title><path class="cls-1" d="M37.22,277.44c-11.4,0-14.39-1.28-14.39-12.5V164.11c0-11.21,3-12.49,14.39-12.49h0a8.27,8.27,0,0,0,8.26-8.19l.11-11.93a8.26,8.26,0,0,0-8.26-8.34H26.16A26.19,26.19,0,0,0,0,149.39V279.66A26.2,26.2,0,0,0,26.16,305.9H37.33a8.27,8.27,0,0,0,8.26-8.34l-.11-11.93a8.26,8.26,0,0,0-8.26-8.19Z"/><path class="cls-2" d="M45.57,298c0-.16,0-.32,0-.48l-.11-11.93a8.26,8.26,0,0,0-8.26-8.19c-11.4,0-14.39-1.28-14.39-12.5V164.11c0-11.21,3-12.49,14.39-12.49a8.27,8.27,0,0,0,8.26-8.19l.11-11.93c0-.17,0-.32,0-.48h-10a23.94,23.94,0,0,0-23.91,24V274.06a23.94,23.94,0,0,0,23.91,24Z"/><rect class="cls-1" x="40.98" y="45" width="259.02" height="300" rx="36.38"/><rect class="cls-3" x="40.98" y="45" width="259.02" height="300" rx="36.38"/><rect class="cls-1" x="93.56" y="45" width="153.86" height="300"/><rect class="cls-4" x="55.26" y="51.87" width="230.46" height="106.42" rx="33.34"/><rect class="cls-5" x="69.04" y="62.28" width="202.89" height="77.25" rx="28.19"/><path class="cls-6" d="M236.36,117.45H214a15.78,15.78,0,0,1-15.78-15.78V84.36h53.92v17.31A15.77,15.77,0,0,1,236.36,117.45Z"/><rect class="cls-7" x="198.21" y="55.82" width="53.92" height="47.97" rx="15.78"/><path class="cls-8" d="M169.92,100.53H147.56a15.77,15.77,0,0,1-15.78-15.78V67.43H185.7V84.75A15.78,15.78,0,0,1,169.92,100.53Z"/><rect class="cls-7" x="131.78" y="38.9" width="53.92" height="47.97" rx="15.78"/><path class="cls-9" d="M171.81,108.09H145.66c-10.19,0-18.45-6.92-18.45-15.46v4.58c0,8.54,8.26,15.46,18.45,15.46h26.15c10.19,0,18.45-6.92,18.45-15.46V92.63C190.26,101.17,182,108.09,171.81,108.09Z"/><path class="cls-9" d="M238.25,124.4H212.1c-10.19,0-18.45-6.93-18.45-15.47v4.58c0,8.54,8.26,15.47,18.45,15.47h26.15c10.19,0,18.45-6.93,18.45-15.47v-4.58C256.7,117.47,248.44,124.4,238.25,124.4Z"/><polyline class="cls-10" points="156.96 193.62 170.21 206.87 184.01 193.06"/><line class="cls-10" x1="170.49" y1="185.67" x2="170.49" y2="325.74"/><polyline class="cls-10" points="184.01 317.78 170.77 304.54 156.96 318.34"/><polyline class="cls-10" points="232.57 242.18 219.32 255.42 233.13 269.23"/><line class="cls-10" x1="240.52" y1="255.7" x2="100.45" y2="255.7"/><polyline class="cls-10" points="108.41 269.23 121.65 255.98 107.85 242.18"/><polyline class="cls-10" points="204.82 202.24 204.82 220.97 224.34 220.97"/><line class="cls-10" x1="220.01" y1="206.18" x2="120.97" y2="305.22"/><polyline class="cls-10" points="136.15 309.16 136.15 290.43 116.63 290.43"/><polyline class="cls-10" points="223.95 290.04 205.22 290.04 205.22 309.56"/><line class="cls-10" x1="220.01" y1="305.22" x2="120.97" y2="206.18"/><polyline class="cls-10" points="117.03 221.37 135.76 221.37 135.76 201.85"/></svg>