<?xml version="1.0" encoding="UTF-8" standalone="no"?>
<svg id="Layer_1" data-name="Layer 1" viewBox="0 0 300 345" version="1.1" sodipodi:docname="jollyPirate.svg" xml:space="preserve" inkscape:version="1.2 (dc2aedaf03, 2022-05-15)" xmlns:inkscape="http://www.inkscape.org/namespaces/inkscape" xmlns:sodipodi="http://sodipodi.sourceforge.net/DTD/sodipodi-0.dtd" xmlns="http://www.w3.org/2000/svg" xmlns:svg="http://www.w3.org/2000/svg"><sodipodi:namedview id="namedview11028" pagecolor="#505050" bordercolor="#ffffff" borderopacity="1" inkscape:showpageshadow="0" inkscape:pageopacity="0" inkscape:pagecheckerboard="1" inkscape:deskcolor="#505050" showgrid="false" inkscape:zoom="0.84880375" inkscape:cx="24.151637" inkscape:cy="260.36643" inkscape:window-width="1366" inkscape:window-height="705" inkscape:window-x="-8" inkscape:window-y="-8" inkscape:window-maximized="1" inkscape:current-layer="Layer_1"/><defs id="defs10970"><inkscape:path-effect effect="fillet_chamfer" id="path-effect2206" is_visible="true" lpeversion="1" nodesatellites_param="F,0,0,1,0,0,0,1 @ F,0,0,1,0,0,0,1 @ F,0,0,1,0,0,0,1 @ F,0,0,1,0,0,0,1 @ F,0,0,1,0,16.404874,0,1 @ F,0,0,1,0,0,0,1 | F,0,0,1,0,0,0,1 @ F,0,0,1,0,0,0,1 @ F,0,0,1,0,16.4049,0,1 @ F,0,0,1,0,0,0,1 @ F,0,0,1,0,0,0,1 @ F,0,0,1,0,0,0,1" unit="px" method="auto" mode="F" radius="0" chamfer_steps="1" flexible="false" use_knot_distance="true" apply_no_radius="true" apply_with_radius="true" only_selected="false" hide_knots="false"/><style id="style10958">.cls-1{fill:url(#linear-gradient);}.cls-2{fill:url(#linear-gradient-2);}.cls-3{fill:#ffcd05;}.cls-4{fill:#f4fbfe;}.cls-5{fill:#680e19;}.cls-6{fill:#c62639;}.cls-7{fill:#fabc2e;}.cls-8{fill:#fff;}.cls-9{fill:#414042;}.cls-10{fill:#8b5e3c;}.cls-11,.cls-12{fill:#66402d;}.cls-12{fill-opacity:0.25;}.cls-13{fill:#0fafd2;}.cls-14{fill:#04859b;}.cls-15{fill:#39b54a;}.cls-16{fill:#009444;}.cls-17{fill:#be1e2d;}.cls-18{fill:#9a1c25;}.cls-19{fill:#f9ed32;}</style><linearGradient id="linear-gradient" x1="150" y1="356.11" x2="150" y2="161.16" gradientUnits="userSpaceOnUse"><stop offset="0" stop-color="#ed1c24" id="stop10960"/><stop offset="0.34" stop-color="#9a1c25" id="stop10962"/></linearGradient><linearGradient id="linear-gradient-2" x1="150.28" y1="338.24" x2="149.24" y2="191.81" gradientUnits="userSpaceOnUse"><stop offset="0" stop-color="#fabc2e" id="stop10965"/><stop offset="1" stop-color="#cd8029" id="stop10967"/></linearGradient><inkscape:path-effect effect="tiling" id="path-effect10958-0" is_visible="true" lpeversion="1" unit="px" seed="1;1" lpesatellites="" num_rows="1" num_cols="3" gapx="3" gapy="0" offset="0" offset_type="false" scale="0" rotate="0" mirrorrowsx="false" mirrorrowsy="false" mirrorcolsx="false" mirrorcolsy="false" mirrortrans="false" shrink_interp="false" split_items="false" link_styles="false" interpolate_scalex="false" interpolate_scaley="true" interpolate_rotatex="false" interpolate_rotatey="true" random_scale="false" random_rotate="false" random_gap_y="false" random_gap_x="false" transformorigin="rotate(90)"/></defs><title id="title10972">blook_jester</title><path class="cls-1" d="M 263.62,345 H 36.38 A 36.38,36.38 0 0 1 0,308.62 v -49.48 h 300 v 49.48 A 36.38,36.38 0 0 1 263.62,345 Z" id="path10974" style="fill:url(#linear-gradient)"/><path id="path2208" style="fill:#570e11;fill-opacity:0.411141;fill-rule:evenodd;stroke-width:1.26415" class="UnoptimicedTransforms" d="m 83.198658,268.8253 c -3.278758,0.17744 -57.555483,5.9182 -60.868651,6.80647 -20.9419782,5.61625 -17.5409759,40.66876 16.492222,35.06753 1.917345,16.62384 20.448892,25.54755 41.391142,19.93156 1.513223,-0.40839 3.0166,-0.88829 4.502064,-1.43713 0.0047,0.35454 0.01827,0.70754 0.04084,1.05884 0.555523,3.62825 2.093499,6.99628 4.539194,9.94044 H 210.81407 c 2.40472,-2.9503 3.90542,-6.31796 4.42966,-9.94044 0.0226,-0.3513 0.0362,-0.7043 0.0409,-1.05884 1.48546,0.54884 2.98884,1.02874 4.50206,1.43713 20.94225,5.61599 39.47379,-3.30773 41.39114,-19.93156 16.42844,15.88776 48.83492,-17.99368 19.93399,-43.95958 -3.31316,-0.88827 -61.03165,2.26302 -64.31041,2.08558 -16.98346,-0.91965 -29.88612,7.91292 -31.45876,21.5352 -0.11386,0.99697 -0.16529,2.01 -0.15409,3.03535 -3.49916,-1.4211 -7.13813,-2.56701 -10.83466,-3.41183 -8.4019,-1.86438 -16.83771,-2.11767 -24.35384,-0.73123 -7.51614,-1.38644 -15.95195,-1.13315 -24.35385,0.73123 -3.69714,0.84472 -7.33674,1.99063 -10.83651,3.41183 0.0118,-1.02532 -0.039,-2.03835 -0.15224,-3.03535 -1.57264,-13.62228 -14.4753,-22.45484 -31.458752,-21.5352 z" transform="matrix(1.0520348,0,0,1.0790836,-7.8052268,-22.096693)" sodipodi:nodetypes="ccccccccccccccccccccccc"/><path id="ellipse2195" style="fill:#bac8e5;fill-opacity:1;fill-rule:evenodd;stroke-width:1.26415" class="UnoptimicedTransforms" d="M 83.199219 268.82617 A 29.539048 39.833787 64.041812 0 0 73.267578 270.43164 A 29.539048 39.833787 64.041812 0 0 38.822266 310.69922 A 29.539048 39.833787 64.041812 0 0 80.212891 330.63086 A 29.539048 39.833787 64.041812 0 0 84.714844 329.19336 A 30.183636 46.275565 73.578178 0 0 84.755859 330.25195 A 30.183636 46.275565 73.578178 0 0 94.445312 345 L 148.79688 345 A 30.183636 46.275565 73.578178 0 0 150 344.3418 A 46.275565 30.183636 16.421822 0 0 151.20312 345 L 205.55469 345 A 46.275565 30.183636 16.421822 0 0 215.24414 330.25195 A 46.275565 30.183636 16.421822 0 0 215.28516 329.19336 A 39.833787 29.539048 25.958188 0 0 219.78711 330.63086 A 39.833787 29.539048 25.958188 0 0 261.17773 310.69922 A 39.833787 29.539048 25.958188 0 0 226.73242 270.43164 A 39.833787 29.539048 25.958188 0 0 216.80078 268.82617 A 39.833787 29.539048 25.958188 0 0 185.3418 290.36133 A 39.833787 29.539048 25.958188 0 0 185.18945 293.39648 A 46.275565 30.183636 16.421822 0 0 174.35352 289.98438 A 46.275565 30.183636 16.421822 0 0 150 289.25195 A 30.183636 46.275565 73.578178 0 0 125.64648 289.98438 A 30.183636 46.275565 73.578178 0 0 114.81055 293.39648 A 29.539048 39.833787 64.041812 0 0 114.6582 290.36133 A 29.539048 39.833787 64.041812 0 0 83.199219 268.82617 z "/><path id="path10976" style="fill:url(#linear-gradient-2)" class="cls-2" d="M 82.96875 298.39062 C 82.96875 298.39062 97.956567 327.18601 118.9668 345 L 181.0332 345 C 202.04343 327.18601 217.03125 298.39062 217.03125 298.39062 L 82.96875 298.39062 z "/><path id="rect10978" class="cls-3" style="fill:#ffcd05" d="M 36.380001,88.494943 H 263.62 c 20.15452,0 36.38,16.225477 36.38,36.379997 V 262.01 c 0,20.15452 -16.22548,36.38 -36.38,36.38 H 36.380001 C 16.22548,298.39 0,282.16452 0,262.01 V 124.87494 C 0,104.72042 16.22548,88.494943 36.380001,88.494943 Z" sodipodi:nodetypes="sssssssss"/><path id="path15824" d="m 93.04687,105.41415 -6.03006,12.40725 99.57383,82.83031 c -6.30093,84.44289 87.34483,103.53897 112.78314,36.61672 V 201.74618 C 270.88049,181.14026 246.89507,180.527 209.27307,175.83783 Z" style="fill:#c78300;fill-opacity:1;stroke-width:2.30661;stroke-linecap:round;stroke-linejoin:round;paint-order:stroke markers fill;stop-color:#000000"/><g id="g15181" transform="matrix(1.2502595,0,0,0.76140013,-37.539711,73.720427)"><path id="path10980" class="cls-4" d="m 120.7793,225 c -2.02881,12.09194 -2.46839,24.79902 1.19602,36.63226 2.44854,8.07286 8.12815,15.55184 16.28472,18.41245 7.83035,2.73899 16.73675,2.67635 24.46461,-0.38827 8.35654,-3.34849 13.71489,-11.53446 15.89062,-20.00008 2.97897,-11.29741 2.54784,-23.22348 0.60543,-34.65636 -20.16571,1.83808 -39.79924,3.14227 -58.4414,0 z" style="fill:#ba0008;fill-opacity:1" sodipodi:nodetypes="ccccccc"/><path id="ellipse10984" style="stroke-width:1.36309" class="cls-6" d="m 149.56055,252.58398 a 31.605776,14.713263 0 0 0 -27.94141,7.89258 c 0.008,0.0286 0.0169,0.0573 0.0254,0.0859 0.14225,0.47775 0.28935,0.95232 0.44727,1.42383 0.17386,0.51912 0.35518,1.03486 0.54882,1.54492 0.1225,0.32259 0.2521,0.64052 0.38282,0.95898 0.17255,0.42051 0.3537,0.83555 0.54101,1.24805 1.30079,2.86362 2.95369,5.52786 5.06446,7.83203 0.0246,0.0269 0.0495,0.0533 0.0742,0.0801 0.37338,0.40412 0.75852,0.79855 1.16016,1.17969 0.005,0.004 0.009,0.009 0.0137,0.0137 0.81046,0.76787 1.68214,1.48617 2.61328,2.15039 0.0661,0.0472 0.13444,0.092 0.20118,0.13867 0.40468,0.28256 0.81987,0.55504 1.24804,0.81641 0.0679,0.0415 0.13462,0.0841 0.20313,0.125 0.98108,0.58576 2.02298,1.11562 3.13086,1.58203 0.10577,0.0446 0.2153,0.0855 0.32226,0.12891 0.43775,0.17752 0.88579,0.34613 1.34375,0.5039 0.15342,0.0529 0.30718,0.10563 0.46289,0.15625 0.45795,0.14875 0.92618,0.28546 1.4043,0.41407 0.13748,0.037 0.27099,0.078 0.41016,0.11328 0.59783,0.15151 1.2123,0.28703 1.84179,0.40625 0.14068,0.0267 0.28741,0.0472 0.42969,0.0723 0.50354,0.0884 1.01519,0.16905 1.53906,0.23633 0.22402,0.0288 0.45191,0.0533 0.67969,0.0781 0.4731,0.0515 0.95576,0.0928 1.44531,0.12696 0.22048,0.0154 0.43826,0.0331 0.66211,0.0449 0.69338,0.0364 1.39906,0.0592 2.125,0.0605 a 31.605776,14.713263 0 0 0 2.43946,-0.0742 c 0.15648,-0.0103 0.31267,-0.0204 0.46875,-0.0313 0.48955,-0.0341 0.97221,-0.0754 1.44531,-0.12696 0.22778,-0.0248 0.45567,-0.0493 0.67969,-0.0781 0.52387,-0.0673 1.03552,-0.14789 1.53906,-0.23633 0.14228,-0.025 0.28901,-0.0456 0.42969,-0.0723 0.62949,-0.11922 1.24396,-0.25474 1.84179,-0.40625 0.13917,-0.0353 0.27268,-0.0763 0.41016,-0.11328 0.47812,-0.12861 0.94635,-0.26532 1.4043,-0.41407 0.15571,-0.0506 0.30947,-0.10333 0.46289,-0.15625 0.45796,-0.15777 0.906,-0.32638 1.34375,-0.5039 0.10639,-0.0432 0.2151,-0.0846 0.32031,-0.12891 1.11992,-0.4714 2.1717,-1.00828 3.16211,-1.60156 0.0405,-0.0243 0.0808,-0.0478 0.12109,-0.0723 0.4625,-0.2807 0.91048,-0.57359 1.34571,-0.8789 0.0424,-0.0298 0.0848,-0.0599 0.12695,-0.0899 1.42534,-1.01361 2.70567,-2.15655 3.85351,-3.40429 2.16043,-2.34847 3.84134,-5.07373 5.15821,-8.00391 0.1555,-0.3461 0.30795,-0.69323 0.45312,-1.04492 0.15085,-0.3654 0.29945,-0.73072 0.43946,-1.10157 0.13088,-0.34665 0.25133,-0.69791 0.37304,-1.04882 0.15422,-0.4447 0.29123,-0.89581 0.43164,-1.34571 a 31.605776,14.713263 0 0 0 -28.6289,-8.48047 z"/></g><g id="g15838" transform="translate(0,32)"><path id="path15183" style="fill:#c78300;fill-opacity:1;stroke-width:2.30661;stroke-linecap:round;stroke-linejoin:round;paint-order:stroke markers fill;stop-color:#000000" d="m 206.95313,73.414146 6.03006,12.407256 -99.57383,82.830308 C 119.71029,253.0946 26.064525,272.19068 0.6262239,205.26843 l 2.6e-7,-35.52225 C 29.119512,149.14026 53.104934,148.527 90.726928,143.83783 Z" sodipodi:nodetypes="ccccccc"/><path id="rect10860" style="fill:#1f1f20;stroke-width:2.31917;stroke-linecap:round;stroke-linejoin:round;paint-order:stroke markers fill;stop-color:#000000" d="m 206.95313,63.414146 6.03006,12.542723 -99.57383,83.734681 C 119.71029,245.05642 26.064525,264.361 0.6262239,196.70807 l 2.6e-7,-35.9101 C 29.119512,139.96707 53.104934,139.34711 90.726929,134.60674 Z" sodipodi:nodetypes="ccccccc"/><path id="path10174-6" style="fill:#c1c1c1;fill-opacity:1;stroke:none;stroke-width:1.30004;stroke-linecap:round;stroke-linejoin:round;stroke-dasharray:none;stroke-opacity:1;paint-order:stroke markers fill;stop-color:#000000" class="UnoptimicedTransforms" d="m 84.371541,-406.60738 c -3.767306,10.28682 2.020613,23.73951 17.147789,24.63565 5.88868,0.56151 12.43309,-1.27759 16.57663,-4.10308 0.21378,0.0511 0.43621,0.081 0.66608,0.081 l 6.83829,-8.2e-4 c 1.57342,0 2.83969,-1.2654 2.83969,-2.83883 l 6.6e-4,-1.7785 c 0,-1.57342 -1.26641,-2.84044 -2.83984,-2.84044 l -3.30085,-9.1e-4 -0.002,-2.99936 3.30305,-6e-5 c 1.57343,0 2.84016,-1.26676 2.84016,-2.84018 l -0.001,-1.77886 c 0,-1.57343 -1.26688,-2.83909 -2.84031,-2.83909 l -3.30085,-9.2e-4 1.1e-4,-2.99899 3.30132,-4.3e-4 c 1.57343,0 2.84016,-1.26676 2.84016,-2.84017 l 6.6e-4,-1.7785 c 0,-1.57343 -1.26814,-2.8408 -2.84157,-2.8408 l -6.83829,8.2e-4 c -0.17148,0 -0.33937,0.018 -0.50232,0.0468 -4.1733,-3.3246 -10.68613,-4.70343 -16.73945,-3.98446 -9.187557,0.49658 -14.888045,5.52797 -17.148429,11.70006 z m 13.826512,-4.92116 c 0.768447,-1.82579 3.482047,-3.30842 8.969987,-3.51508 3.64039,6e-5 6.14327,3.22301 6.14338,6.05297 -1.1e-4,2.82996 -2.95224,5.12386 -6.59263,5.12392 -5.68083,-0.62387 -9.801481,-4.61882 -8.520737,-7.66181 z m -0.388608,20.22842 c 0.836539,-2.57813 4.643315,-5.17151 8.910535,-5.46912 3.56231,6.7e-4 6.44844,2.24535 6.44932,5.01462 2.6e-4,2.76988 -2.88651,5.82814 -6.44962,5.82881 -7.613379,-0.23381 -9.746774,-2.79619 -8.910235,-5.37431 z" transform="matrix(0.28202686,1.0525386,-1.3539594,0.36279232,-516.26242,217.57357)"/></g><path id="path15826" d="m 93.046868,95.414146 -6.030061,12.542724 99.573833,83.73468 c -6.30093,85.36487 87.34484,104.66945 112.78314,37.01652 v -35.9101 c -28.49329,-20.8309 -52.47871,-21.45086 -90.10071,-26.19123 z" style="fill:#1f1f20;stroke-width:2.31917;stroke-linecap:round;stroke-linejoin:round;paint-order:stroke markers fill;stop-color:#000000"/><path transform="matrix(-0.28202686,1.0525386,1.3539594,0.36279232,816.26242,249.57357)" class="UnoptimicedTransforms" id="path15828" d="m 84.371541,-406.60738 c -3.767306,10.28682 2.020613,23.73951 17.147789,24.63565 5.88868,0.56151 12.43309,-1.27759 16.57663,-4.10308 0.21378,0.0511 0.43621,0.081 0.66608,0.081 l 6.83829,-8.2e-4 c 1.57342,0 2.83969,-1.2654 2.83969,-2.83883 l 6.6e-4,-1.7785 c 0,-1.57342 -1.26641,-2.84044 -2.83984,-2.84044 l -3.30085,-9.1e-4 -0.002,-2.99936 3.30305,-6e-5 c 1.57343,0 2.84016,-1.26676 2.84016,-2.84018 l -0.001,-1.77886 c 0,-1.57343 -1.26688,-2.83909 -2.84031,-2.83909 l -3.30085,-9.2e-4 1.1e-4,-2.99899 3.30132,-4.3e-4 c 1.57343,0 2.84016,-1.26676 2.84016,-2.84017 l 6.6e-4,-1.7785 c 0,-1.57343 -1.26814,-2.8408 -2.84157,-2.8408 l -6.83829,8.2e-4 c -0.17148,0 -0.33937,0.018 -0.50232,0.0468 -4.1733,-3.3246 -10.68613,-4.70343 -16.73945,-3.98446 -9.187557,0.49658 -14.888045,5.52797 -17.148429,11.70006 z m 13.826512,-4.92116 c 0.768447,-1.82579 3.482047,-3.30842 8.969987,-3.51508 3.64039,6e-5 6.14327,3.22301 6.14338,6.05297 -1.1e-4,2.82996 -2.95224,5.12386 -6.59263,5.12392 -5.68083,-0.62387 -9.801481,-4.61882 -8.520737,-7.66181 z m -0.388608,20.22842 c 0.836539,-2.57813 4.643315,-5.17151 8.910535,-5.46912 3.56231,6.7e-4 6.44844,2.24535 6.44932,5.01462 2.6e-4,2.76988 -2.88651,5.82814 -6.44962,5.82881 -7.613379,-0.23381 -9.746774,-2.79619 -8.910235,-5.37431 z" style="fill:#c1c1c1;fill-opacity:1;stroke:none;stroke-width:1.30004;stroke-linecap:round;stroke-linejoin:round;stroke-dasharray:none;stroke-opacity:1;paint-order:stroke markers fill;stop-color:#000000"/><path id="path15964" style="fill:#333333;fill-opacity:1;stroke-width:1.06099" class="cls-15 UnoptimicedTransforms" d="m 52.251953,113.95312 c -1.029155,0.0106 -2.057626,0.0423 -3.076172,0.14844 -1.018545,0.1061 -2.005421,0.13688 -3.066406,0.30664 l -3.023437,0.52149 c -0.997327,0.19098 -1.983988,0.45631 -2.970704,0.71093 l -1.474609,0.39258 -1.443359,0.47657 c -0.965495,0.36074 -1.919849,0.68919 -2.853516,1.06054 a 52.051948,52.051948 0 0 0 -5.443359,2.56836 51.595724,51.595724 0 0 0 -17.613282,15.35156 c 7.246524,-2.89648 13.995121,-5.72889 20.806641,-7.63867 1.676355,-0.56232 3.405676,-0.88081 5.082031,-1.34765 0.838177,-0.20158 1.696978,-0.31795 2.535157,-0.51953 l 1.263671,-0.2754 1.273438,-0.18164 c 0.859398,-0.1061 1.686368,-0.28647 2.535156,-0.39257 l 2.535156,-0.25391 c 0.848788,-0.0955 1.688323,-0.11599 2.53711,-0.17969 a 25.209015,25.209015 0 0 1 2.535156,-0.0645 70.216019,70.216019 0 0 1 20.265625,2.75976 93.228794,93.228794 0 0 1 10.142578,3.41602 c 3.405761,1.35807 6.77889,2.89501 10.269531,4.65625 a 28.646608,28.646608 0 0 0 -3.363281,-4.82617 40.794892,40.794892 0 0 0 -4.115234,-4.24414 47.4791,47.4791 0 0 0 -9.792969,-6.80078 48.92204,48.92204 0 0 0 -23.544922,-5.64454 z m 195.496097,0 a 48.92204,48.92204 0 0 0 -23.54493,5.64454 47.4791,47.4791 0 0 0 -9.79296,6.80078 40.794892,40.794892 0 0 0 -4.11524,4.24414 28.646608,28.646608 0 0 0 -3.36328,4.82617 c 3.49064,-1.76124 6.86377,-3.29818 10.26953,-4.65625 a 93.228794,93.228794 0 0 1 10.14258,-3.41602 70.216019,70.216019 0 0 1 20.26563,-2.75976 25.209015,25.209015 0 0 1 2.53515,0.0645 c 0.84879,0.0637 1.68832,0.0842 2.53711,0.17969 l 2.53516,0.25391 c 0.84879,0.1061 1.67575,0.28647 2.53515,0.39257 l 1.27344,0.18164 1.26367,0.2754 c 0.83818,0.20158 1.69698,0.31795 2.53516,0.51953 1.67635,0.46684 3.40567,0.78533 5.08203,1.34765 6.81152,1.90978 13.56012,4.74219 20.80664,7.63867 a 51.595724,51.595724 0 0 0 -17.61328,-15.35156 52.051948,52.051948 0 0 0 -5.44336,-2.56836 c -0.93367,-0.37135 -1.88802,-0.6998 -2.85352,-1.06054 l -1.44335,-0.47657 -1.47461,-0.39258 c -0.98672,-0.25462 -1.97338,-0.51995 -2.97071,-0.71093 l -3.02344,-0.52149 c -1.06098,-0.16976 -2.04786,-0.20054 -3.0664,-0.30664 -1.01855,-0.1061 -2.04702,-0.13784 -3.07617,-0.14844 z" transform="translate(0,30)"/><path id="path16122" style="fill:#3f190a;fill-opacity:0.39951;stroke-width:7.50758;stroke-linecap:round;stroke-linejoin:round;stop-color:#000000" d="m 0,100.97452 v 53.22442 c 101.42653,-27.10785 201.51915,-28.85999 300,0 V 100.97451 C 300,80.8381 285.00177,57.99266 265.90495,51.62212 188.52831,25.80993 111.15167,23.72509 33.77503,50.81821 14.7772,57.47023 0,80.83811 0,100.97452 Z" sodipodi:nodetypes="cccccsc"/><path id="rect14051" style="fill:#a71c12;fill-opacity:1;stroke-width:7.50758;stroke-linecap:round;stroke-linejoin:round;stop-color:#000000" d="m 0,94.97452 v 53.22442 c 101.42653,-27.10785 201.51915,-28.85999 300,0 V 94.97451 C 300,74.8381 285.00177,51.99266 265.90495,45.62212 188.52831,19.80993 111.15167,17.72509 33.77503,44.81821 14.7772,51.47023 0,74.83811 0,94.97452 Z" sodipodi:nodetypes="cccccsc"/><path id="rect15631" style="fill:#f64f43;fill-opacity:0.186047;stroke-width:2.50305;stroke-linecap:round;stroke-linejoin:round;stop-color:#000000" d="m 149.83984,25.38109 c -20.93724,-0.19542 -41.87525,1.61808 -62.8125,5.40429 15.88196,7.01199 27.18658,35.54143 13.27449,43.80722 -12.06214,7.16667 -42.96028,20.09686 -46.67078,27.73287 -1.6089,3.31103 43.65067,-9.89559 35.25193,16.99343 -1.27162,4.07115 -3.37846,8.09469 -5.35564,12.43328 57.26756,-7.24494 114.08318,-5.89084 170.38672,5.17969 -4.73277,-10.1894 42.75444,3.36559 44.94362,2.2465 6.79912,-3.47566 -41.10259,-24.38785 -53.80937,-28.4055 -6.10047,-1.92885 -3.54922,-13.60127 -4.48001,-18.66429 -2.74597,-14.9367 34.72086,-0.18383 37.7011,-6.67237 3.1178,-6.78806 -35.07296,-30.60608 -39.68817,-31.72803 -5.35643,-1.30215 2.23168,-10.42812 3.89924,-15.10248 -30.88025,-8.36815 -61.76038,-12.9364 -92.64063,-13.22461 z" sodipodi:nodetypes="scsssccssssscs"/><path id="path15570" style="fill:#5d100a;fill-opacity:0.627907;stroke-width:2.446;stroke-linecap:round;stroke-linejoin:round;stop-color:#000000" d="M 33.11328,99.28538 0,100.18187 v 13.29492 c 8.37748,-6.3008 17.75291,-10.0549 33.11328,-14.19141 z m 28.71875,5.74414 C 36.90338,109.27591 18.12834,110.74276 0,119.97679 v 16.13477 c 11.3447,-10.60805 29.16697,-20.92234 61.83203,-31.08204 z m 181.29297,0 c 28.25638,8.78848 45.40693,17.6931 56.875,26.80274 v -14.1875 c -16.63056,-7.19199 -34.2097,-8.75439 -56.875,-12.61524 z"/><path id="path7333" style="color:#000000;fill:#1e1721;fill-opacity:0.75735301;stroke-linejoin:round" d="M 149.83984 25.380859 C 145.53003 25.340633 141.22002 25.407408 136.91016 25.537109 C 136.90169 25.537355 136.89323 25.536864 136.88477 25.537109 C 136.56964 25.546277 136.25457 25.556845 135.93945 25.564453 C 103.46353 59.66411 74.273314 97.002875 48.152344 137.3125 C 61.798183 134.75442 75.418829 132.6651 89.013672 131.07617 C 115.46508 93.234468 144.81771 58.379187 177.41406 26.808594 C 176.9043 26.762668 176.3945 26.707804 175.88477 26.664062 C 175.8763 26.663341 175.86784 26.66283 175.85938 26.662109 C 173.20508 26.43394 170.55078 26.248647 167.89648 26.082031 C 167.87889 26.080939 167.86134 26.079221 167.84375 26.078125 C 166.20314 25.975926 164.56248 25.859415 162.92188 25.78125 C 158.56119 25.571206 154.20053 25.421558 149.83984 25.380859 z M 88.003906 30.625 C 87.693388 30.680252 87.382786 30.722006 87.072266 30.777344 C 87.063816 30.77885 87.055325 30.779723 87.046875 30.78125 C 87.040331 30.782433 87.033887 30.783973 87.027344 30.785156 C 87.016326 30.787149 87.005158 30.789022 86.994141 30.791016 C 70.383001 33.796603 53.773124 38.086318 37.162109 43.712891 C 37.02942 43.757893 36.896361 43.796623 36.763672 43.841797 C 23.921133 59.816001 11.724383 76.422247 0.064453125 93.548828 C 0.048407866 94.023263 0 94.503459 0 94.974609 L 0 100.18164 L 0 100.97461 L 0 113.47656 L 0 119.97656 L 0 136.11133 L 0 148.19922 C 0.45406576 148.07786 0.90731586 147.97776 1.3613281 147.85742 C 26.935798 105.37186 55.715081 66.213708 88.003906 30.625 z M 219.70508 33.162109 C 190.89633 62.181811 164.59319 93.675329 140.625 127.43945 C 153.10588 127.1422 165.56708 127.20633 178.00195 127.7832 C 201.22475 96.962586 226.54331 68.291037 254.14062 41.925781 C 254.11962 41.91943 254.09913 41.910645 254.07812 41.904297 C 250.46034 40.82054 246.84229 39.794008 243.22461 38.810547 C 242.93879 38.73252 242.653 38.651584 242.36719 38.574219 C 238.6257 37.565407 234.88424 36.607615 231.14258 35.708984 C 231.03961 35.684207 230.93689 35.659163 230.83398 35.634766 C 230.72071 35.607656 230.60741 35.581692 230.49414 35.554688 C 230.47856 35.550973 230.46285 35.548634 230.44727 35.544922 C 226.8664 34.691888 223.28587 33.909592 219.70508 33.162109 z M 284.66797 58.300781 C 262.54682 81.330945 241.9712 105.8858 222.80664 131.81445 C 234.07859 133.3226 245.33063 135.20709 256.5625 137.47656 C 270.09207 119.97325 284.32268 103.18747 299.27734 87.138672 C 299.26501 87.069662 299.24506 87.000654 299.23242 86.931641 C 299.00808 85.706654 298.74076 84.481631 298.42188 83.259766 C 298.42089 83.255983 298.42091 83.251829 298.41992 83.248047 C 298.4059 83.194385 298.38529 83.141538 298.37109 83.087891 C 298.0463 81.860414 297.68093 80.635696 297.26562 79.419922 C 297.21713 79.277777 297.15711 79.13802 297.10742 78.996094 C 296.7053 77.849114 296.27519 76.706693 295.79688 75.578125 C 295.79528 75.574366 295.79456 75.570165 295.79297 75.566406 C 295.77868 75.532724 295.76044 75.50046 295.74609 75.466797 C 294.15104 71.724999 292.15339 68.104907 289.81641 64.732422 C 288.2444 62.463872 286.52031 60.306776 284.66797 58.300781 z "/><g id="g10166" transform="matrix(-0.80048048,0.20479728,0.20479728,0.80048048,459.42027,-13.619716)"><path id="rect4468" style="opacity:1;fill:#2c2024;fill-opacity:1;stroke-width:5.70873;stroke-linecap:round;stroke-linejoin:round;stop-color:#000000" d="m 469.24432,-96.870469 c 3.80697,6.555338 9.88898,14.972162 16.02113,14.972162 6.13226,0 12.21438,-8.41716 16.02135,-14.972554 2.37412,-4.088129 6.11512,-4.453199 8.85081,-0.594957 16.63774,23.464989 34.15582,46.707747 36.42699,73.801181 4.87138,5.171769 20.12663,-5.499705 21.03267,-1.08461 0.88185,4.297184 -5.89497,21.8194125 -14.66603,27.2465805 C 514.66449,26.175242 457.63498,28.011572 417.99733,6.7079468 407.14149,0.87338047 398.1681,-20.725007 398.5688,-24.749247 c 0.38156,-3.832199 18.85378,5.708573 21.86674,1.08461 7.14659,-27.928801 22.74802,-48.577478 40.05628,-73.733692 2.68073,-3.896251 6.37824,-3.560471 8.7525,0.52786 z" sodipodi:nodetypes="caccsaascc"/><path id="rect7039" style="opacity:1;fill:#20171b;fill-opacity:0.511628;stroke-width:4.305;stroke-linecap:round;stroke-linejoin:round;stop-color:#000000" d="m 399.06511,-21.747126 c 1.91879,7.277748 9.71551,23.5017919 18.93164,28.4550778 39.63761,21.3036042 96.66688,19.4669472 134.93359,-4.2109372 7.36728,-4.5585645 13.30931,-17.6237546 14.50586,-24.2441406 h -11.89258 c -42.13634,22.44228167 -85.97568,31.6963408 -135.09765,0 z"/><path id="path5740" style="opacity:1;fill:#d99e38;fill-opacity:1;stroke-width:5.70873;stroke-linecap:round;stroke-linejoin:round;stop-color:#000000" d="m 505.57683,-100.14752 c -1.57398,0.12001 -3.10201,1.233286 -4.28907,3.277347 -3.80696,6.555388 -9.88923,14.972656 -16.02148,14.972656 -6.13215,0 -12.21452,-8.417324 -16.02149,-14.972656 -2.37425,-4.088327 -6.07317,-4.423587 -8.7539,-0.527344 -17.30824,25.156189 -32.90811,45.803649 -40.05469,73.732422 -3.01296,4.623959 -21.48563,-4.916179 -21.86719,-1.083984 -0.30823,3.095636 4.93878,16.5700271 12.31446,25.28906227 -5.7503,-7.96508457 -9.6106,-18.00537227 -9.34961,-20.55468727 0.36892,-3.60394 18.22942,5.368075 21.14258,1.019531 6.90987,-26.265273 21.99356,-45.683966 38.72851,-69.341797 2.59195,-3.664176 6.16727,-3.348722 8.46289,0.496094 3.68087,6.164882 9.5612,14.080078 15.49024,14.080078 5.92914,0 11.81132,-7.915144 15.49218,-14.080078 2.29548,-3.844626 5.91157,-4.187028 8.55664,-0.558594 16.08666,22.06734 33.02476,43.924634 35.22071,69.404297 4.71002,4.863721 19.45991,-5.171649 20.33593,-1.019531 0.53109,2.517183 -1.8138,9.857977 -5.70507,16.2714842 5.44298,-7.4041272 8.99068,-17.8248632 8.33789,-21.0058592 -0.90604,-4.415091 -16.15988,6.255748 -21.03125,1.083984 -2.27117,-27.093407 -19.79001,-50.335815 -36.42774,-73.800781 -1.36784,-1.92912 -2.98657,-2.801644 -4.56054,-2.681644 z"/><path style="fill:#ffffff;fill-opacity:1;stroke:none;stroke-width:1.30004;stroke-linecap:round;stroke-linejoin:round;stroke-dasharray:none;stroke-opacity:1;paint-order:stroke markers fill;stop-color:#000000" id="rect1890" width="12.519693" height="7.4587083" x="115.92112" y="-393.45255" ry="2.8401196" transform="matrix(0,1.0272488,-1.3214273,0,-45.696076,-149.9215)" inkscape:path-effect="#path-effect10958-0" class="UnoptimicedTransforms" d="m 118.76124,-393.45255 h 6.83945 c 1.57343,0 2.84012,1.2667 2.84012,2.84012 v 1.77847 c 0,1.57343 -1.26669,2.84012 -2.84012,2.84012 h -6.83945 c -1.57343,0 -2.84012,-1.26669 -2.84012,-2.84012 v -1.77847 c 0,-1.57342 1.26669,-2.84012 2.84012,-2.84012 z m 0,-10.4587 h 6.83945 c 1.57343,0 2.84012,1.26669 2.84012,2.84012 v 1.77847 c 0,1.57342 -1.26669,2.84011 -2.84012,2.84011 h -6.83945 c -1.57343,0 -2.84012,-1.26669 -2.84012,-2.84011 v -1.77847 c 0,-1.57343 1.26669,-2.84012 2.84012,-2.84012 z m 0,-10.45871 h 6.83945 c 1.57343,0 2.84012,1.26669 2.84012,2.84012 v 1.77847 c 0,1.57342 -1.26669,2.84012 -2.84012,2.84012 h -6.83945 c -1.57343,0 -2.84012,-1.2667 -2.84012,-2.84012 v -1.77847 c 0,-1.57343 1.26669,-2.84012 2.84012,-2.84012 z" sodipodi:type="rect"/><path id="rect1832" style="fill:#ffffff;fill-opacity:1;stroke:none;stroke-width:5.47331;stroke-linecap:round;stroke-linejoin:round;stroke-dasharray:none;stroke-opacity:1;paint-order:stroke markers fill;stop-color:#000000" d="m 459.05095,-45.635959 c -1.18614,9.670112 5.73294,21.065392 13.12738,21.346672 h 21.76162 c 9.94142,-2.04499 14.52329,-12.21038 13.12739,-21.346672 -1.74987,-25.167773 -46.12168,-24.863009 -48.01639,0 z m 43.70307,5.802269 c -8e-5,3.739583 -4.25925,6.310713 -7.99884,6.310803 -3.73959,-9e-5 -6.77109,-3.03159 -6.77117,-6.771176 1.31905,-9.337007 14.04177,-14.572926 14.77001,0.460373 z m -24.14821,-0.460373 c -8.9e-4,3.659386 -2.96718,6.625676 -6.62657,6.626576 -3.6602,2.6e-4 -7.70199,-2.96637 -7.70287,-6.626576 0.6179,-15.641688 13.54291,-8.766996 14.32944,0 z" sodipodi:nodetypes="ccccccccccccc"/></g><path id="path370" style="fill:#bac8e5;fill-opacity:1" class="cls-1 UnoptimicedTransforms" d="m 0,264.92969 v 25.08008 c 0,20.15444 7.0110527,18.18643 27.164062,17.94726 l 61.021485,-0.72461 -0.04023,-11.896 A 17.148549,17.148549 46.075943 0 0 71.698718,278.26023 L 9.2246124,275.70117 Z m 300,0 -9.22461,10.77148 -62.47408,2.55906 a 17.148576,17.148576 133.92406 0 0 -16.44662,17.07622 l -0.0402,11.89597 61.02149,0.72461 C 292.98895,308.1962 300,310.16421 300,290.00977 Z" inkscape:path-effect="#path-effect2206" inkscape:original-d="m 0,264.92969 v 25.08008 c 0,20.15444 7.0110527,18.18643 27.164062,17.94726 l 61.021485,-0.72461 -0.0957,-28.30078 -78.8652346,-3.23047 z m 300,0 -9.22461,10.77148 -78.86523,3.23047 -0.0957,28.30078 61.02149,0.72461 C 292.98895,308.1962 300,310.16421 300,290.00977 Z"/><path id="path5638" style="fill:#e8ecf6;fill-opacity:1" class="cls-2" d="M 87.962891,307.02148 C 94.014254,316.91692 105.12842,333.26682 118.9668,345 h 62.0664 c 12.15834,-10.30871 22.27473,-24.26741 28.66211,-34.22266 l -0.35742,-0.45117 c -7.87819,-11.64706 -17.40636,-12.84428 -29.10756,-0.27892 -19.92399,-19.5243 -39.84798,-18.28777 -59.77198,0.4281 -16.52075,-18.21811 -23.061706,-6.49678 -32.495459,-3.45387 z" sodipodi:nodetypes="cccccccc"/><path id="path5919" style="fill:#cbd2e3;fill-opacity:1;stroke-width:0.8809" class="cls-2" d="m 150.34375,306.91602 c -9.96199,0.16146 -19.92278,4.03135 -29.88477,11.29296 -16.52073,-14.13696 -20.01985,-7.57636 -29.45359,-5.2151 1.330467,1.68826 2.945154,3.64733 4.740234,5.72851 13.343416,-9.32157 14.091086,1.26273 25.191436,13.04651 19.92398,-21.79128 40.32561,-20.48811 60.24958,0.7042 7.39369,-7.96127 11.09165,-19.12208 22.67974,-11.92397 l 3.30539,-4.7373 c -7.23,-5.97117 -16.77205,-6.40885 -26.9413,2.06512 -9.96199,-7.57527 -19.92473,-11.1224 -29.88672,-10.96093 z" sodipodi:nodetypes="sccccccccs"/><path id="path5924" style="fill:#cbd2e3;fill-opacity:1;stroke-width:0.8809" class="cls-2" d="M 150.34375,327.41119 C 138.79022,327.33071 120.47656,337.26503 120.47656,345 h 6.8125 c 6.44705,-5.70872 14.67132,-13.23186 23.07813,-13.55869 8.87004,-0.40647 16.18001,7.82189 22.8457,13.55869 h 6.06836 c 0.72011,-8.72872 -17.6499,-17.51018 -28.9375,-17.58881 z" sodipodi:nodetypes="accccca"/><path id="path6039" style="fill:#171b24;fill-opacity:0.30147058" class="cls-2" d="M 93.849609 304.18555 C 91.935106 305.27341 90.018949 306.35829 87.962891 307.02148 C 94.014248 316.91691 105.12843 333.26683 118.9668 345 L 121.02148 345 C 109.33924 332.60335 99.771248 315.857 93.849609 304.18555 z M 205.49609 305.65625 C 199.50635 317.25695 190.21516 333.16948 179.06641 345 L 181.0332 345 C 193.19153 334.6913 203.30794 320.73258 209.69531 310.77734 L 209.33789 310.32617 C 208.10048 308.49679 206.81694 306.95719 205.49609 305.65625 z "/></svg>