<?xml version="1.0" encoding="UTF-8" standalone="no"?>
<svg id="Layer_1" data-name="Layer 1" viewBox="0 0 300 345" version="1.1" sodipodi:docname="kraken.svg" xml:space="preserve" inkscape:version="1.2 (dc2aedaf03, 2022-05-15)" xmlns:inkscape="http://www.inkscape.org/namespaces/inkscape" xmlns:sodipodi="http://sodipodi.sourceforge.net/DTD/sodipodi-0.dtd" xmlns:xlink="http://www.w3.org/1999/xlink" xmlns="http://www.w3.org/2000/svg" xmlns:svg="http://www.w3.org/2000/svg"><sodipodi:namedview id="namedview16306" pagecolor="#505050" bordercolor="#ffffff" borderopacity="1" inkscape:showpageshadow="0" inkscape:pageopacity="0" inkscape:pagecheckerboard="1" inkscape:deskcolor="#505050" showgrid="false" inkscape:zoom="0.53740115" inkscape:cx="102.3444" inkscape:cy="150.72539" inkscape:window-width="1366" inkscape:window-height="705" inkscape:window-x="-8" inkscape:window-y="-8" inkscape:window-maximized="1" inkscape:current-layer="Layer_1"/><defs id="defs16261"><inkscape:path-effect effect="mirror_symmetry" start_point="133.00876,114.47848" end_point="133.00876,221.10271" center_point="133.00876,167.7906" id="path-effect4618" is_visible="true" lpeversion="1.2" lpesatellites="#g4630" mode="vertical" discard_orig_path="false" fuse_paths="false" oposite_fuse="false" split_items="true" split_open="false" link_styles="false"/><linearGradient inkscape:collect="always" id="linearGradient19903"><stop style="stop-color:#412337;stop-opacity:1;" offset="0" id="stop19899"/><stop style="stop-color:#5b264b;stop-opacity:1;" offset="1" id="stop19901"/></linearGradient><style id="style16249">.cls-1{fill:url(#linear-gradient);}.cls-2{fill:#dae6f5;}.cls-3{fill:url(#radial-gradient);}.cls-4{fill:#231f20;}.cls-5{fill:#414042;}.cls-6{fill:none;stroke:#231f20;stroke-miterlimit:10;stroke-width:8px;}.cls-7{fill:#fff;}</style><linearGradient id="linear-gradient" x1="150" y1="356.11" x2="150" y2="161.16" gradientUnits="userSpaceOnUse"><stop offset="0" stop-color="#9dc6ea" id="stop16251" style="stop-color:#4d2540;stop-opacity:1;"/><stop offset="0.69" stop-color="#416eb5" id="stop16253" style="stop-color:#1b0710;stop-opacity:1;"/></linearGradient><linearGradient inkscape:collect="always" xlink:href="#linearGradient19903" id="linearGradient19905" x1="174.91588" y1="194.46175" x2="174.39551" y2="35.36272" gradientUnits="userSpaceOnUse"/><linearGradient x1="150" y1="356.11" x2="150" y2="161.16" gradientUnits="userSpaceOnUse" id="linearGradient3367"><stop offset="0" stop-color="#9dc6ea" id="stop4717" style="stop-color:#4e2946;stop-opacity:1.0"/><stop offset="0.69" stop-color="#416eb5" id="stop4719" style="stop-color:#391e29;stop-opacity:1.0"/></linearGradient></defs><title id="title16263">blook_seal</title><path class="cls-1" d="M263.62,345H36.38A36.38,36.38,0,0,1,0,308.62V259.14H300v49.48A36.38,36.38,0,0,1,263.62,345Z" id="path16265"/><path class="cls-2" d="M 0,170.17 V 262 c 0,20.09212 16.287881,36.38 36.38,36.38 H 263.62 C 283.71212,298.38 300,282.09212 300,262 v -91.83 c 0,0 -4.3,-113.121053 -150,-113.121053 C 4.3,57.048947 0,170.17 0,170.17 Z" id="path16267" sodipodi:nodetypes="csssscsc" style="fill:url(#linearGradient19905);fill-opacity:1"/><g id="g4616" transform="rotate(-9.0521436,101.66028,245.58685)" inkscape:path-effect="#path-effect4618" class="UnoptimicedTransforms"><ellipse class="cls-4" cx="40.906967" cy="189.2505" id="circle3702" style="fill:#2e1928;fill-opacity:1;stroke-width:1.72692" transform="matrix(0.98424268,-0.17682293,0.18061656,0.98355359,0,0)" rx="42.648411" ry="42.212925" d="M 83.555378,189.2505 A 42.648411,42.212925 0 0 1 40.906967,231.46343 42.648411,42.212925 0 0 1 -1.7414436,189.2505 42.648411,42.212925 0 0 1 40.906967,147.03758 42.648411,42.212925 0 0 1 83.555378,189.2505 Z"/><circle class="cls-4" cx="41.440807" cy="193.6143" r="26.846327" id="circle29" style="fill:#f4fbfe;stroke-width:1.09265;fill-opacity:1.0" transform="rotate(-10.29465)" d="M 68.287134,193.6143 A 26.846327,26.846327 0 0 1 41.440807,220.46063 26.846327,26.846327 0 0 1 14.594481,193.6143 26.846327,26.846327 0 0 1 41.440807,166.76798 26.846327,26.846327 0 0 1 68.287134,193.6143 Z"/><circle class="cls-5" cx="44.980877" cy="194.74637" r="20.836422" id="circle31" style="fill:#ffe900;fill-opacity:1.0;stroke:#a56400;stroke-width:4.305;stroke-dasharray:none;stroke-opacity:1.0" transform="rotate(-10.29465)" d="M 65.817299,194.74637 A 20.836422,20.836422 0 0 1 44.980877,215.58279 20.836422,20.836422 0 0 1 24.144455,194.74637 20.836422,20.836422 0 0 1 44.980877,173.90995 20.836422,20.836422 0 0 1 65.817299,194.74637 Z"/><path class="cls-3" d="m 133.00876,159.41905 c 0,0 -6.90132,-25.76643 -16.94692,-32.9538 -18.153484,-12.98836 -56.952494,-13.96942 -66.249252,-9.75992 -4.874152,2.20684 -6.280846,20.75268 -4.051128,23.36831 2.229714,2.61563 20.427758,3.33033 25.507438,10.44789 5.079668,7.11755 38.823272,58.56923 38.823272,58.56923" id="path33" style="fill:#45243a;fill-opacity:1;stroke-width:1.09265" sodipodi:nodetypes="cacssc" inkscape:original-d="m 133.00876,159.41905 c 0,0 -6.90132,-25.76643 -16.94692,-32.9538 -18.153484,-12.98836 -56.952494,-13.96942 -66.249252,-9.75992 -4.874152,2.20684 -6.280846,20.75268 -4.051128,23.36831 2.229714,2.61563 20.427758,3.33033 25.507438,10.44789 5.079668,7.11755 38.823272,58.56923 38.823272,58.56923"/><path class="cls-1" d="m 41.417584,136.74045 c 0,0 26.973678,4.63606 32.823491,13.20872 13.158774,18.95788 26.549525,37.88319 35.872595,59.13768 -15.661014,-16.78303 -27.509376,-36.42281 -40.023886,-55.50575 -3.831495,-6.34408 -12.38162,-6.85763 -18.959217,-8.64826 2.102898,-1.35964 -9.712983,-8.19239 -9.712983,-8.19239 z" id="path35" style="fill:#23101d;fill-opacity:1.0;stroke-width:1.09265" sodipodi:nodetypes="cccccc" inkscape:original-d="m 41.417584,136.74045 c 0,0 26.973678,4.63606 32.823491,13.20872 13.158774,18.95788 26.549525,37.88319 35.872595,59.13768 -15.661014,-16.78303 -27.509376,-36.42281 -40.023886,-55.50575 -3.831495,-6.34408 -12.38162,-6.85763 -18.959217,-8.64826 2.102898,-1.35964 -9.712983,-8.19239 -9.712983,-8.19239 z"/></g><g transform="matrix(-0.98754556,-0.15733327,-0.15733327,0.98754556,337.37286,19.05319)" class="UnoptimicedTransforms" id="g4630"><path transform="matrix(0.98424268,-0.17682293,0.18061656,0.98355359,0,0)" class="cls-4" id="path4620" d="M 83.555378,189.2505 A 42.648411,42.212925 0 0 1 40.906967,231.46343 42.648411,42.212925 0 0 1 -1.7414436,189.2505 42.648411,42.212925 0 0 1 40.906967,147.03758 42.648411,42.212925 0 0 1 83.555378,189.2505 Z" style="fill:#2e1928;fill-opacity:1;stroke-width:1.72692"/><path transform="rotate(-10.29465)" class="cls-4" id="path4622" d="M 68.287134,193.6143 A 26.846327,26.846327 0 0 1 41.440807,220.46063 26.846327,26.846327 0 0 1 14.594481,193.6143 26.846327,26.846327 0 0 1 41.440807,166.76798 26.846327,26.846327 0 0 1 68.287134,193.6143 Z" style="fill:#f4fbfe;stroke-width:1.09265;fill-opacity:1.0"/><path transform="rotate(-10.29465)" class="cls-5" id="path4624" d="M 65.817299,194.74637 A 20.836422,20.836422 0 0 1 44.980877,215.58279 20.836422,20.836422 0 0 1 24.144455,194.74637 20.836422,20.836422 0 0 1 44.980877,173.90995 20.836422,20.836422 0 0 1 65.817299,194.74637 Z" style="fill:#ffe900;fill-opacity:1.0;stroke:#a56400;stroke-width:4.305;stroke-dasharray:none;stroke-opacity:1.0"/><path class="cls-3" id="path4626" d="m 133.00876,159.41905 c 0,0 -6.90132,-25.76643 -16.94692,-32.9538 -18.153484,-12.98836 -56.952494,-13.96942 -66.249252,-9.75992 -4.874152,2.20684 -6.280846,20.75268 -4.051128,23.36831 2.229714,2.61563 20.427758,3.33033 25.507438,10.44789 5.079668,7.11755 38.823272,58.56923 38.823272,58.56923" style="fill:#45243a;fill-opacity:1;stroke-width:1.09265"/><path class="cls-1" id="path4628" d="m 41.417584,136.74045 c 0,0 26.973678,4.63606 32.823491,13.20872 13.158774,18.95788 26.549525,37.88319 35.872595,59.13768 -15.661014,-16.78303 -27.509376,-36.42281 -40.023886,-55.50575 -3.831495,-6.34408 -12.38162,-6.85763 -18.959217,-8.64826 2.102898,-1.35964 -9.712983,-8.19239 -9.712983,-8.19239 z" style="fill:#23101d;fill-opacity:1.0;stroke-width:1.09265"/></g><path id="path6079" style="fill:#b493a9;fill-rule:evenodd;stroke-width:0.882353;fill-opacity:0.75" class="UnoptimicedTransforms" d="m 60.720703,123.68359 c -11.862148,0 -28.445312,4.61733 -28.445312,11.0293 1e-5,6.41196 14.260908,8.70899 26.123047,8.70899 11.862138,0 23.798818,-1.71499 23.798828,-8.12696 1e-5,-6.41197 -9.614415,-11.61133 -21.476563,-11.61133 z m 178.558597,0 c -11.86215,0 -21.47658,5.19936 -21.47657,11.61133 1e-5,6.41197 11.93669,8.12696 23.79883,8.12696 11.86214,0 26.12304,-2.29703 26.12305,-8.70899 0,-6.41197 -16.58316,-11.0293 -28.44531,-11.0293 z" transform="matrix(0.95529262,0,0,1,6.7061065,0)"/><g id="g8367" transform="translate(-2.4547099)"><path id="path7177" style="color:#000000;opacity:0.680272;fill:#25121f;fill-opacity:0.29902;stroke-width:4.91139;stroke-linecap:round;stroke-linejoin:round" d="m 152.93938,212.69531 c -16.2655,0.73633 -28.67603,12.69848 -41.64287,21.18555 -17.587869,9.44301 -37.102288,0.082 -55.564623,0.83594 -17.550627,0.67761 -31.100182,20.63635 -26.236227,37.73632 2.428979,10.63093 7.49651,20.34833 12.401912,29.96094 8.145723,3.36259 7.795637,-19.38972 12.01714,-17.53906 2.777744,10.02565 13.544429,18.64603 9.542354,29.85938 -0.102627,7.18314 -19.42618,19.22099 -5.092987,20.49023 13.117752,-0.20862 24.951098,-7.45497 35.808314,-13.92969 C 102.55129,331.6981 114.21721,338.99184 125.95284,345 h 28.17058 c 0.22665,-0.21461 0.46015,-0.40885 0.68035,-0.64062 6.14005,-6.37405 12.96928,-2.89828 19.46074,0.64062 h 19.39952 c 1.05912,-2.79436 1.07385,-6.23729 -0.50895,-9.45117 -1.82969,-6.44518 -4.06317,-13.6472 5.13322,-11.0293 15.50179,-2.05487 22.11647,-18.04921 30.12592,-29.53125 10.13551,3.84582 9.10135,16.51552 5.21367,24.80664 -3.29606,6.01867 -9.87679,24.02365 2.92602,16.05469 12.71872,-9.94477 23.95191,-22.85677 30.21162,-38.03125 7.76056,-6.79136 10.94294,-19.09392 9.28526,-30.63086 -0.0249,-10.54536 -4.29315,-22.65782 -15.22824,-25.76758 -20.702,-6.121 -42.15579,8.84597 -62.61646,0.54688 -8.76866,-3.66085 -11.87917,-13.73917 -19.54294,-18.91992 -7.17831,-6.12144 -16.16065,-10.7005 -25.72377,-10.35157 z"/><path id="path18258" style="display:inline;opacity:1;fill:#23101d;fill-opacity:1.0;stroke:#23101d;stroke-width:5.138;stroke-linecap:round;stroke-linejoin:round;stroke-opacity:1.0;stop-color:#000000;stop-opacity:1.0" d="m 121.69258,211.41124 c 16.10951,-11.4247 35.9127,-30.00234 63.03094,3.36063 20.32021,37.42367 66.33973,-6.35153 84.43246,19.56479 8.09552,11.59614 5.46049,60.7458 -7.20397,41.41236 7.10532,-19.35339 -31.30967,-45.09235 -20.85109,-31.69936 2.58131,2.85425 27.75845,18.66257 24.04352,38.63968 -2.56961,13.81819 -23.04973,39.73834 -33.06058,44.99926 -5.14608,2.70439 5.86863,-15.78571 6.99274,-30.53445 0.62375,-8.18376 -5.9998,-15.2156 -10.10397,-16.83546 -5.63412,-2.22372 -13.315,36.88516 -37.37032,32.36552 -8.46976,-1.59133 5.86185,26.32732 -2.97417,28.48128 -4.90879,1.19662 -22.68927,-13.0957 -27.22819,-10.85941 -4.34772,2.14208 -8.48314,4.80305 -12.32454,8.06321 -13.17621,11.18254 -54.921978,-25.51969 -52.837601,-28.51797 8.850151,-12.73058 -19.061991,17.18662 -41.015702,14.51287 -3.273264,-0.39866 12.509207,-10.24293 11.555629,-27.82397 -0.589353,-10.86583 -24.450422,-35.27245 -4.793025,-49.33759 3.464163,-2.47865 23.255421,-3.6833 12.415246,-1.47454 -19.17681,3.90738 -22.241194,19.7146 -30.355032,44.34779 C 28.712831,257.83105 25.60255,242.56577 41.685322,226.20906 60.410644,207.16475 94.057374,239.9292 121.69258,211.41124 Z" sodipodi:nodetypes="ccsccscssssssssssscsc"/><path id="rect17618" style="opacity:1;fill:#4d253f;fill-opacity:1.0;stroke-width:5.29924;stroke-linecap:round;stroke-linejoin:round;stroke-opacity:0.534884;stop-color:#000000;stop-opacity:1.0" d="m 122.90305,191.45539 c 15.47436,-12.6518 34.49679,-33.22485 60.54586,3.72161 19.51905,41.44329 67.84387,-9.21786 85.22326,19.4821 7.77634,12.84167 5.2452,67.27043 -6.91994,45.86041 -0.81677,-33.1152 -28.65182,-42.85769 -18.31662,-28.26801 2.47954,0.61533 16.71232,25.24772 13.14386,49.78652 -2.23186,15.34761 -18.0213,32.35796 -27.63746,38.18395 -4.94319,2.99487 5.63724,-17.48122 6.71704,-33.81412 0.59915,-9.06277 -5.76325,-16.8499 -9.7056,-18.64374 -5.412,-2.46256 -12.79005,40.84696 -35.89696,35.84188 -8.13581,-1.76226 5.63074,29.1551 -2.85691,31.54042 -4.71524,1.32514 -21.79471,-14.50231 -26.15468,-12.02583 -4.17631,2.37217 -8.14868,5.31896 -11.83862,8.92929 -12.65673,12.38365 -52.114712,-27.79587 -50.754414,-31.58106 5.994934,-16.68165 -27.179292,18.86901 -41.752699,22.62402 -3.097912,0.79821 8.379632,-18.90043 13.454129,-37.36485 3.459001,-12.58617 -6.428891,-19.3433 -5.192578,-29.1555 1.268641,-10.06879 22.927069,-29.56029 12.514283,-27.1143 -18.420739,4.32708 -28.426594,21.10409 -36.220532,48.3831 -14.727607,-35.70821 -10.652974,-51.88508 4.795715,-69.99866 17.98705,-21.08982 50.307215,15.19381 76.852866,-16.38723 z" sodipodi:nodetypes="ccsccscsssssssssascsc"/><path style="color:#000000;fill:#23101d;stroke-width:0.946293;stroke-linecap:round;stroke-linejoin:round;fill-opacity:1.0" d="m 159.75951,249.24147 c -5.68966,11.55536 -17.46484,23.7401 -18.47699,36.69994 -0.7869,10.07572 3.96628,21.70087 10.00214,30.7942 6.03588,9.09332 4.27209,13.03947 4.27209,13.03947 0.97858,1.09348 11.99157,3.56148 12.97115,2.46911 0.97985,-1.0936 10.40586,2.23134 9.42601,1.13774 0,0 -15.38582,-11.7617 -21.16856,-20.47368 -5.78274,-8.71197 -11.04361,-19.61957 -10.50779,-26.48047 1.61934,-14.07029 25.57839,-33.26631 22.03467,-52.04276 -1.36138,-7.2133 -15.48096,-16.04411 -14.97064,-14.47717 8.16668,10.82162 12.32805,16.99391 6.41792,29.33362 z" id="path19459" sodipodi:nodetypes="csscccscacc"/><path id="path6504" style="fill:#b493a9;fill-opacity:0.75;fill-rule:evenodd;stroke-width:0.767558" d="m 187.48244,209.31948 c -1.17912,8.88176 -7.2137,-13.17257 -28.19445,-16.64611 -20.98074,-3.47353 -25.72925,5.96347 -27.42573,-4.81913 -1.57657,-10.02037 13.69675,-17.10362 22.25023,-16.09439 15.36282,1.81267 34.54906,28.67786 33.36995,37.55963 z" sodipodi:nodetypes="ssaas"/><path id="path4722" style="fill:#b493a9;fill-opacity:0.75;fill-rule:evenodd;stroke-width:0.414411" d="m 84.99545,218.28776 c -0.70593,4.32446 -4.318815,-6.41363 -16.879926,-8.10488 -12.561105,-1.69124 -15.404022,2.90357 -16.419704,-2.34639 -0.943883,-4.87886 8.200205,-8.32764 13.321146,-7.83626 9.197673,0.88258 20.684415,13.96306 19.978484,18.28753 z" sodipodi:nodetypes="ssaas"/><path style="color:#000000;fill:#23101d;stroke-width:0.946293;stroke-linecap:round;stroke-linejoin:round;fill-opacity:1.0" d="m 164.48687,176.54893 c -1.05029,0.0532 7.68696,7.74157 16.16648,20.03432 10.19379,14.77793 20.57145,35.6923 20.52248,51.11011 -0.008,2.58923 -0.90418,4.79225 -2.52725,7.10156 -1.62307,2.30931 -3.96786,4.59562 -6.48516,6.95117 -20.69873,12.83825 -17.54329,38.71215 -4.33394,47.82813 2.06651,3.27631 12.88723,0.62655 11.68345,-2.00337 -19.94625,-12.66351 -18.37042,-28.18374 -4.12792,-41.53374 2.5516,-2.38765 5.15006,-4.85534 7.20924,-7.78516 2.05918,-2.92981 3.51789,-6.45111 3.59586,-10.53906 0.60788,-31.86644 -37.80041,-73.50039 -41.70324,-71.16396 z" id="path19394" sodipodi:nodetypes="cscsccccssc"/><path style="color:#000000;fill:#23101d;stroke-width:0.946293;stroke-linecap:round;stroke-linejoin:round;fill-opacity:1.0" d="m 149.37609,336.30006 c 1.00687,1.06229 4.95083,-2.60686 5.90165,-3.7317 0.95007,-1.12416 4.14485,-1.90857 3.13874,-2.97019 -16.54888,-6.08376 -36.0499,-30.59388 -41.75764,-42.2168 -5.81337,-11.83799 -3.04617,-26.08889 -5.61688,-25.73365 -8.76898,33.63997 17.72277,62.90804 38.33413,74.65234 z" id="path19461" sodipodi:nodetypes="cccscc"/><path style="color:#000000;fill:#23101d;stroke-width:0.946293;stroke-linecap:round;stroke-linejoin:round;fill-opacity:1.0" d="m 89.668808,242.13672 c -1.797866,3.51683 -2.887274,7.57676 -1.075613,11.14258 6.264231,12.32962 8.463799,26.83834 7.716434,37.01562 -0.373683,5.08864 -14.816553,17.78056 -16.093886,19.64289 -11.573125,6.53315 15.258578,0.15295 20.917997,0.85495 2.29133,-3.34073 1.22456,-14.3087 1.6455,-20.04081 0.84187,-11.46422 -2.987326,-26.77974 -9.824127,-40.23633 -0.514224,-1.01212 -0.339774,-2.84853 1.068619,-5.60351 4.918618,-7.96461 10.967888,-13.73116 16.175298,-21.88574 -8.99484,4.5405 -15.615027,9.67934 -20.530222,19.11035 z" id="path19463" sodipodi:nodetypes="cssccssccc"/><path id="path5934" style="fill:#b493a9;fill-rule:evenodd;stroke-width:0.329847;fill-opacity:1.0" d="m 150.32004,201.27709 c -1e-5,3.41972 -3.7365,4.64396 -6.84466,4.64396 -3.10817,0 -6.23625,-0.91465 -6.23625,-4.33437 0,-3.41972 2.51967,-6.19195 5.62784,-6.19195 3.10816,0 7.45307,2.46264 7.45307,5.88236 z" sodipodi:nodetypes="sssss"/><path id="path6077" style="fill:#b493a9;fill-opacity:0.75;fill-rule:evenodd;stroke-width:0.663193" d="m 270.14563,235.19628 c -0.88025,8.88176 0.33339,-16.68095 -15.32973,-20.15449 -15.66308,-3.47353 -28.80074,1.84384 -23.07508,-4.04836 5.17406,-5.32456 21.35449,-8.26951 28.77414,-2.85668 8.92503,6.51104 10.51093,18.17776 9.63067,27.05953 z" sodipodi:nodetypes="sssss"/></g><ellipse style="fill:#b493a9;fill-opacity:0.74535811;fill-rule:evenodd" id="ellipse6502" cx="199.67105" cy="85.197372" rx="20.723684" ry="19.407894"/><ellipse style="fill:#b493a9;fill-opacity:0.75;fill-rule:evenodd;stroke-width:0.365079" id="path6086" cx="179.27631" cy="111.51316" rx="7.5657897" ry="7.0854216"/><path id="path8067" style="fill:#402733;fill-rule:evenodd;stroke-width:0.160486;fill-opacity:1.0" class="UnoptimicedTransforms" d="M 57.794922 78.736328 C 49.338961 83.7357 42.173157 89.345571 36.007812 95.240234 C 39.915093 97.786216 45.690764 97.991875 51.345703 94.214844 C 55.353796 91.537757 58.627991 92.208297 60.208984 86.4375 C 60.936868 83.780648 59.748995 80.991653 57.794922 78.736328 z M 242.20508 78.736328 C 240.25101 80.991653 239.06313 83.780648 239.79102 86.4375 C 241.37201 92.208297 244.6462 91.537757 248.6543 94.214844 C 254.30924 97.991875 260.08491 97.786216 263.99219 95.240234 C 257.82684 89.345571 250.66104 83.7357 242.20508 78.736328 z M 60.494141 95.820312 C 58.777246 95.780993 56.880896 96.305577 55.007812 97.556641 C 52.604479 99.161875 50.641355 98.758455 49.693359 102.21875 C 48.745367 105.67904 53.189097 109.52985 56.078125 109.60938 C 58.967148 109.68885 65.704382 108.21939 66.777344 104.40039 C 68.098463 99.698139 64.881754 95.920801 60.494141 95.820312 z M 239.50586 95.820312 C 235.11825 95.920801 231.90154 99.698139 233.22266 104.40039 C 234.29562 108.21939 241.03285 109.68887 243.92188 109.60938 C 246.8109 109.52985 251.25463 105.67904 250.30664 102.21875 C 249.35864 98.758455 247.39552 99.161875 244.99219 97.556641 C 243.1191 96.305577 241.22275 95.780993 239.50586 95.820312 z M 36.71875 101.23438 C 35.906896 101.24668 35.04873 101.71631 34.037109 102.64062 C 32.013868 104.4893 28.078456 105.19785 29.730469 107.00586 C 31.382481 108.81386 34.672073 113.50298 36.695312 111.6543 C 38.718548 109.80562 40.775056 104.38024 39.123047 102.57227 C 38.297042 101.66822 37.530604 101.22205 36.71875 101.23438 z M 263.28125 101.23438 C 262.4694 101.22205 261.70296 101.66822 260.87695 102.57227 C 259.22494 104.38024 261.28145 109.80562 263.30469 111.6543 C 265.32793 113.50298 268.61752 108.81386 270.26953 107.00586 C 271.92154 105.19785 267.98613 104.4893 265.96289 102.64062 C 264.95127 101.71631 264.0931 101.24667 263.28125 101.23438 z "/><path id="path8579" style="fill:#331c26;fill-rule:evenodd;stroke-width:0.324455;fill-opacity:1.0" class="UnoptimicedTransforms" d="M 14.205078 194.79883 C 11.945117 194.79883 7.2958901 198.89858 7.4003906 202.26367 C 7.4710611 204.53938 10.074638 206.56812 12.306641 207.01758 C 15.35923 207.63227 21.007812 206.09434 21.007812 203.61914 C 21.007814 201.14394 16.465039 194.79883 14.205078 194.79883 z M 285.79492 194.79883 C 283.53496 194.79883 278.99219 201.14394 278.99219 203.61914 C 278.99219 206.09434 284.64077 207.63227 287.69336 207.01758 C 289.92536 206.56812 292.52894 204.53938 292.59961 202.26367 C 292.70411 198.89858 288.05488 194.79883 285.79492 194.79883 z M 19.642578 209.70703 C 15.530952 209.64877 10.031252 214.95251 10.03125 217.22266 C 10.031248 219.56602 12.979508 224.96561 14.550781 225.90234 C 19.080561 228.60282 28.354276 223.47914 24.005859 214.23047 C 23.154713 212.42016 22.025076 209.93512 20.035156 209.73047 C 19.905642 209.71715 19.775211 209.70891 19.642578 209.70703 z M 280.35742 209.70703 C 280.22479 209.70883 280.09436 209.71717 279.96484 209.73047 C 277.97492 209.93512 276.84529 212.42016 275.99414 214.23047 C 271.64572 223.47914 280.91944 228.60282 285.44922 225.90234 C 287.02049 224.96561 289.96875 219.56602 289.96875 217.22266 C 289.96875 214.95251 284.46905 209.64873 280.35742 209.70703 z "/></svg>