<?xml version="1.0" encoding="UTF-8" standalone="no"?>
<svg
   viewBox="0 0 300 345"
   version="1.1"
   id="svg372"
   sodipodi:docname="Pablo.svg"
   xml:space="preserve"
   inkscape:version="1.3.2 (1:1.3.2+202311252150+091e20ef0f)"
   xmlns:inkscape="http://www.inkscape.org/namespaces/inkscape"
   xmlns:sodipodi="http://sodipodi.sourceforge.net/DTD/sodipodi-0.dtd"
   xmlns="http://www.w3.org/2000/svg"
   xmlns:svg="http://www.w3.org/2000/svg"><sodipodi:namedview
     id="namedview374"
     pagecolor="#ffffff"
     bordercolor="#000000"
     borderopacity="0.25"
     inkscape:showpageshadow="2"
     inkscape:pageopacity="0.0"
     inkscape:pagecheckerboard="0"
     inkscape:deskcolor="#d1d1d1"
     showgrid="false"
     inkscape:zoom="3.8519386"
     inkscape:cx="121.88668"
     inkscape:cy="117.99253"
     inkscape:window-width="1920"
     inkscape:window-height="1011"
     inkscape:window-x="0"
     inkscape:window-y="32"
     inkscape:window-maximized="1"
     inkscape:current-layer="svg372" /><defs
     id="defs326"><linearGradient
       id="A"
       x1="150"
       y1="347.9"
       x2="150"
       y2="175.23"
       gradientUnits="userSpaceOnUse"><stop
         offset="0"
         stop-color="#4ab96d"
         id="stop316" /><stop
         offset=".69"
         stop-color="#1a673d"
         id="stop318" /></linearGradient><linearGradient
       id="B"
       x1="150"
       y1="352.13"
       x2="150"
       y2="227.12"
       gradientUnits="userSpaceOnUse"><stop
         offset="0"
         stop-color="#d0ebf6"
         id="stop321" /><stop
         offset=".69"
         stop-color="#6eb8cc"
         id="stop323" /></linearGradient></defs><path
     d="M263.62 338.06H36.38A36.38 36.38 0 0 1 0 301.68V262h300v39.67a36.38 36.38 0 0 1-36.38 36.39z"
     fill="url(#A)"
     id="path328"
     style="fill:#bae0ec;fill-opacity:1" /><path
     d="M263.62 326.33H36.38A36.38 36.38 0 0 1 0 290v18.67A36.38 36.38 0 0 0 36.38 345h227.24A36.38 36.38 0 0 0 300 308.62V290a36.38 36.38 0 0 1-36.38 36.33z"
     fill="url(#B)"
     id="path330"
     style="fill:#bae1ec;fill-opacity:1" /><path
     id="rect332"
     style="fill:#fdfdfd;fill-opacity:1"
     d="m 247.0293,62.785156 c -0.40623,0.04247 -0.81252,0.08449 -1.21875,0.126953 -0.0521,0.0094 -0.16632,0.03155 -0.21875,0.04102 0.0977,-0.0048 0.19529,-0.01087 0.29297,-0.01563 0.37751,-0.04929 0.76595,-0.102604 1.14453,-0.152344 z M 0,95.746094 V 262.00977 c 0,20.15432 16.226548,36.38085 36.380859,36.38085 H 263.61914 C 283.77346,298.39062 300,282.16409 300,262.00977 V 101.01172 c -5.05049,0.15127 -9.76369,-0.27213 -14.98633,-3.361329 -0.35728,-0.211333 -0.69187,-0.434738 -1.01758,-0.664063 -7.89805,-0.06141 -15.79653,-0.274789 -23.66601,-0.412109 -4.13615,-0.07433 -8.27227,-0.144008 -12.4082,-0.222657 -22.98066,0.721207 -42.68542,0.829401 -74.50782,1.257813 -1.08984,8.32e-4 -2.17969,0.0011 -3.26953,0.002 -8.64011,0.728625 -3.57479,0.960372 -26.23633,1.921875 -6.95563,0.295121 -13.92066,0.31038 -20.88086,0.464844 -7.05752,0.02151 -14.11269,-0.122301 -21.16796,-0.244141 -5.136606,0.147792 -10.109865,0.134054 -16.583989,0.181641 -8.476677,-0.09096 -16.945281,-0.454937 -25.410157,-0.892578 -8.344162,-0.05983 -12.109458,0.01835 -22.734375,-0.554688 -0.428179,-0.02309 -0.855185,-0.06432 -1.283203,-0.08984 -3.166546,0.366553 -6.290446,0.534718 -9.115234,-0.638672 -1.030938,-0.07722 -2.062443,-0.144634 -3.09375,-0.216797 -0.690706,-0.05796 -1.381651,-0.114261 -2.072266,-0.173828 -0.07555,0.01493 -0.151112,0.02998 -0.226562,0.04492 0.0099,-0.01886 0.01373,-0.04345 0.02344,-0.0625 C 17.262615,96.997165 13.163248,96.621138 9.0585938,96.320312 6.0409827,96.099157 3.0195718,95.938046 0,95.746094 Z" /><g
     fill="#e29a25"
     id="g340"
     style="fill:#e29a25;fill-opacity:1"><ellipse
       cx="150"
       cy="246.06"
       rx="34.56"
       ry="31.53"
       id="ellipse336"
       style="fill:#e29a25;fill-opacity:1" /><path
       d="M206.84 280.5H184.5a63.47 63.47 0 0 0 .52-8.13H115a63.47 63.47 0 0 0 .52 8.13H93.28c3.85 9.76 14.76 16.52 29.37 20.12 5.86 8.68 15 14.15 27.35 14.15s21.33-5.37 27.2-13.92c14.8-3.45 25.88-10.12 29.64-20.35z"
       id="path338"
       style="fill:#e29a25;fill-opacity:1" /></g><path
     d="M177.64 244c-5.7-8.6-14.82-14-27.64-14s-22.1 5.5-27.8 14.26c-18.12 4.58-30.4 14.07-30.4 28.14a22 22 0 0 0 1.53 8.13s17.37 6.34 56.73 6.34 56.84-6.34 56.84-6.34a23.33 23.33 0 0 0 1.42-8.13c0-14.85-12.42-24.1-30.68-28.4z"
     fill="#ffcd05"
     id="path342"
     style="fill:#ffcd05;fill-opacity:1" /><g
     fill="#e29a25"
     id="g348"
     style="fill:#e29a25;fill-opacity:1"><ellipse
       cx="167.67"
       cy="253.64"
       rx="4.25"
       ry="8.5"
       transform="matrix(.972248 -.233954 .233954 .972248 -54.7 46.28)"
       id="ellipse344"
       style="fill:#e29a25;fill-opacity:1" /><ellipse
       cx="132.33"
       cy="253.64"
       rx="8.5"
       ry="4.25"
       transform="matrix(.233954 -.972248 .972248 .233954 -145.24 322.93)"
       id="ellipse346"
       style="fill:#e29a25;fill-opacity:1" /></g><g
     fill="#299370"
     id="g354"
     style="fill:#d2d5d4;fill-opacity:1"><circle
       cx="242.58"
       cy="204.01"
       r="36.45"
       id="circle350"
       style="fill:#d2d5d4;fill-opacity:1" /><circle
       cx="57.42"
       cy="204.01"
       r="36.45"
       id="circle352"
       style="fill:#d2d5d4;fill-opacity:1" /></g><g
     fill="#fff"
     id="g360"><circle
       cx="242.58"
       cy="214.14"
       r="36.45"
       id="circle356" /><circle
       cx="57.42"
       cy="214.14"
       r="36.45"
       id="circle358" /></g><path
     d="M89.18 208.85A13.21 13.21 0 0 1 70 190.94a23 23 0 1 0 19.19 17.91zm-32 19.75a5.45 5.45 0 1 1 5.45-5.45 5.45 5.45 0 0 1-5.49 5.45zm198.45-19.9a13.21 13.21 0 0 1-19.07-17.7 23 23 0 1 0 19.07 17.76zm-32.22 19.9a5.45 5.45 0 1 1 5.46-5.45 5.45 5.45 0 0 1-5.46 5.45z"
     fill="#414042"
     id="path362" /><g
     fill="#299370"
     id="g370"><ellipse
       cx="62.04"
       cy="148.69"
       rx="12.66"
       ry="18.85"
       transform="matrix(.233954 -.972248 .972248 .233954 -97.04 174.21)"
       id="ellipse366"
       style="fill:#e8e8e8;fill-opacity:1" /><ellipse
       cx="237.96"
       cy="148.74"
       rx="18.85"
       ry="12.66"
       transform="matrix(.972248 -.233954 .233954 .972248 -28.2 59.82)"
       id="ellipse368"
       style="fill:#e8e8e8;fill-opacity:1" /></g><g
     style="clip-rule:evenodd;display:inline;fill-rule:evenodd;stroke-linecap:round;stroke-linejoin:round"
     id="g450"
     transform="matrix(0.9993815,0,0,1,0.42426217,18.517887)"><g
       id="avatar_hat_15"
       style="stroke-width:1.00030939;stroke-dasharray:none">
        <path
   d="M 6.972,45.86 C 13.611,36.753 24.354,30.79 36.38,30.79 h 227.24 c 12.026,0 22.769,5.963 29.408,15.07 C 290.097,20.065 268.177,0 241.607,0 H 58.393 C 31.823,0 9.903,20.065 6.972,45.86 Z"
   style="fill:#ffffff;fill-opacity:1;stroke-width:1.00030939;stroke-dasharray:none"
   id="path391" />
        <path
   d="M 6.972,45.86 C 13.611,36.753 24.354,30.79 36.38,30.79 h 227.24 c 12.026,0 22.769,5.963 29.408,15.07 C 290.097,20.065 268.177,0 241.607,0 H 58.393 C 31.823,0 9.903,20.065 6.972,45.86 Z M 14.281,33.443 C 21.47,16.161 38.523,4 58.393,4 h 183.214 c 19.87,0 36.923,12.161 44.112,29.443 -6.367,-4.201 -13.97,-6.653 -22.099,-6.653 H 36.38 c -8.129,0 -15.732,2.452 -22.098,6.652 z"
   style="fill:#000000;fill-opacity:1;stroke-width:1.00030939;stroke-dasharray:none"
   id="path393" />
        <path
   d="M 152,30.79 V 1.901 c 0,-1.104 -0.896,-2 -2,-2 -1.104,0 -2,0.896 -2,2 V 30.79 c 0,1.104 0.896,2 2,2 1.104,0 2,-0.896 2,-2 z"
   style="fill:#000000;fill-opacity:1;stroke-width:1.00030939;stroke-dasharray:none"
   id="path395" />
        <path
   d="M 263.62,30.79 H 36.38 C 16.423,30.79 0,47.213 0,67.17 v 52.59 C 0,99.803 16.423,83.38 36.38,83.38 h 227.24 c 19.957,0 36.38,16.423 36.38,36.38 V 67.17 C 300,47.213 283.577,30.79 263.62,30.79 Z"
   style="fill:#d35730;fill-opacity:1;fill-rule:nonzero;stroke-width:1.00030939;stroke-dasharray:none"
   id="path397" />
        <path
   d="m 300,119.76 c 0,0 0,-52.59 0,-52.59 0,-19.957 -16.423,-36.38 -36.38,-36.38 H 36.38 C 16.423,30.79 0,47.213 0,67.17 v 52.59 C 0,99.803 16.423,83.38 36.38,83.38 h 227.24 c 19.957,0 36.38,16.423 36.38,36.38 z m -2,-16.965 C 291.693,90.151 278.6,81.38 263.62,81.38 c 0,0 -227.24,0 -227.24,0 C 21.4,81.38 8.307,90.151 2,102.795 V 67.17 C 2,48.31 17.52,32.79 36.38,32.79 h 227.24 c 18.86,0 34.38,15.52 34.38,34.38 z"
   style="fill:#ff1125;fill-opacity:1;stroke-width:1.00030939;stroke-dasharray:none"
   id="path399" />
        <path
   d="m 288.982,41.188 v 52.59 c 0.694,0.677 1.361,1.382 2,2.113 v -52.59 c -0.639,-0.731 -1.306,-1.436 -2,-2.113 z M 12.069,40.201 c -0.691,0.623 -1.358,1.274 -2,1.948 v 52.59 c 0.641,-0.674 1.309,-1.324 2,-1.948 z M 277.868,33.73 v 52.59 c 0.677,0.291 1.344,0.604 2,0.935 v -52.59 c -0.657,-0.332 -1.324,-0.644 -2,-0.935 z M 23.184,33.296 c -0.677,0.267 -1.344,0.553 -2,0.859 v 52.59 c 0.655,-0.305 1.323,-0.592 2,-0.859 z M 266.799,30.93 v 52.59 c 0.671,0.059 1.338,0.137 2,0.233 v -52.59 c -0.663,-0.096 -1.329,-0.174 -2,-0.233 z M 34.734,30.827 c -0.671,0.031 -1.338,0.08 -2,0.147 v 52.59 c 0.66,-0.067 1.328,-0.116 2,-0.147 z M 45.812,83.38 h -2 V 30.79 h 2 z m 11.069,0 h -2 V 30.79 h 2 z m 11.114,0 h -2 V 30.79 h 2 z m 11.551,0 h -2 V 30.79 h 2 z m 10.72,0 h -2 V 30.79 h 2 z m 11.069,0 h -2 V 30.79 h 2 z m 11.115,0 h -2 V 30.79 h 2 z m 11.55,0 h -2 V 30.79 h 2 z m 11.078,0 h -2 V 30.79 h 2 z m 11.069,0 h -2 V 30.79 h 2 z m 11.114,0 h -2 V 30.79 h 2 z m 11.551,0 h -2 V 30.79 h 2 z m 10.72,0 h -2 V 30.79 h 2 z m 11.069,0 h -2 V 30.79 h 2 z m 11.115,0 h -2 V 30.79 h 2 z m 11.551,0 h -2 V 30.79 h 2 z m 11.077,0 h -2 V 30.79 h 2 z m 11.069,0 h -2 V 30.79 h 2 z m 11.115,0 h -2 V 30.79 h 2 z m 11.55,0 h -2 V 30.79 h 2 z"
   style="fill:#ff1125;fill-opacity:1;stroke-width:1.00030939;stroke-dasharray:none"
   id="path401" />
        <path
   d="m 1.156,98.467 c 5.836,-11.06 16.697,-20.98 26.622,-20.913 15.313,0.103 161.112,-0.711 242.922,0 14.01,0.122 24.097,9.814 29.3,24.184"
   style="fill:none;stroke:#ff1125;stroke-width:1.00030939;stroke-dasharray:none;stroke-opacity:1"
   id="path403" />
        <g
   transform="matrix(1.1913,0,0,1.25944,-53.0579,-7.50164)"
   id="g407"
   style="stroke-width:0.81664825;stroke-dasharray:none">
            <path
   d="m 267.175,31.261 c 0,-2.566 -2.202,-4.648 -4.914,-4.648 H 239.24 c -2.713,0 -4.914,2.082 -4.914,4.648 v 20.34 c 0,2.565 2.201,4.648 4.914,4.648 h 23.021 c 2.712,0 4.914,-2.083 4.914,-4.648 z"
   style="fill:#000080;fill-opacity:1;stroke-width:0.81664825;stroke-dasharray:none"
   id="path405" />
        </g>
        <g
   transform="matrix(1.11752,0,0,1.18143,-34.5561,-4.26981)"
   id="g411"
   style="stroke-width:0.870568;stroke-dasharray:none">
            <path
   d="m 267.175,31.261 c 0,-2.566 -2.202,-4.648 -4.914,-4.648 H 239.24 c -2.713,0 -4.914,2.082 -4.914,4.648 v 20.34 c 0,2.565 2.201,4.648 4.914,4.648 h 23.021 c 2.712,0 4.914,-2.083 4.914,-4.648 z"
   style="fill:#000080;fill-opacity:1;stroke-width:0.870568;stroke-dasharray:none"
   id="path409" />
        </g>
        <g
   transform="matrix(1.11752,0,0,1.18143,-34.5561,-4.26981)"
   id="g415"
   style="stroke-width:0.870568;stroke-dasharray:none">
            <path
   d="m 261.041,56.46 h 1.22 c 0.201,0 0.399,-0.01 0.594,-0.032 0.122,-0.013 0.21,-0.118 0.196,-0.234 -0.014,-0.116 -0.125,-0.199 -0.248,-0.186 -0.177,0.019 -0.358,0.029 -0.542,0.029 h -1.22 c -0.124,0 -0.224,0.095 -0.224,0.212 0,0.117 0.1,0.211 0.224,0.211 z m -10.738,0 h 1.789 c 0.124,0 0.224,-0.094 0.224,-0.211 0,-0.117 -0.1,-0.212 -0.224,-0.212 h -1.789 c -0.124,0 -0.224,0.095 -0.224,0.212 0,0.117 0.1,0.211 0.224,0.211 z m -3.58,0 h 1.79 c 0.123,0 0.224,-0.094 0.224,-0.211 0,-0.117 -0.101,-0.212 -0.224,-0.212 h -1.79 c -0.123,0 -0.224,0.095 -0.224,0.212 0,0.117 0.101,0.211 0.224,0.211 z m -3.579,0 h 1.789 c 0.124,0 0.224,-0.094 0.224,-0.211 0,-0.117 -0.1,-0.212 -0.224,-0.212 h -1.789 c -0.124,0 -0.224,0.095 -0.224,0.212 0,0.117 0.1,0.211 0.224,0.211 z m -3.58,0 h 1.79 c 0.124,0 0.224,-0.094 0.224,-0.211 0,-0.117 -0.1,-0.212 -0.224,-0.212 h -1.79 c -0.123,0 -0.223,0.095 -0.223,0.212 0,0.117 0.1,0.211 0.223,0.211 z m 17.897,0 h 1.79 c 0.123,0 0.224,-0.094 0.224,-0.211 0,-0.117 -0.101,-0.212 -0.224,-0.212 h -1.79 c -0.123,0 -0.223,0.095 -0.223,0.212 0,0.117 0.1,0.211 0.223,0.211 z m -3.579,0 h 1.79 c 0.123,0 0.223,-0.094 0.223,-0.211 0,-0.117 -0.1,-0.212 -0.223,-0.212 h -1.79 c -0.124,0 -0.224,0.095 -0.224,0.212 0,0.117 0.1,0.211 0.224,0.211 z m -17.801,-1.027 c 0.487,0.36 1.045,0.638 1.649,0.814 0.119,0.034 0.244,-0.028 0.28,-0.14 0.036,-0.112 -0.03,-0.23 -0.148,-0.265 -0.552,-0.16 -1.061,-0.414 -1.506,-0.743 -0.097,-0.072 -0.238,-0.056 -0.314,0.037 -0.076,0.092 -0.059,0.225 0.039,0.297 z m 28.553,0.479 c 0.556,-0.275 1.053,-0.643 1.467,-1.083 0.082,-0.087 0.073,-0.221 -0.019,-0.299 -0.092,-0.078 -0.234,-0.07 -0.316,0.018 -0.377,0.401 -0.831,0.738 -1.339,0.988 -0.11,0.055 -0.152,0.182 -0.095,0.286 0.057,0.104 0.192,0.144 0.302,0.09 z m -30.45,-3.441 c 0.114,0.593 0.341,1.149 0.66,1.646 0.065,0.1 0.202,0.132 0.308,0.071 0.105,-0.06 0.139,-0.19 0.075,-0.29 -0.291,-0.454 -0.499,-0.961 -0.603,-1.502 -0.022,-0.115 -0.138,-0.191 -0.26,-0.171 -0.121,0.021 -0.202,0.131 -0.18,0.246 z m 32.768,-0.87 v 0 c 0,0.553 -0.108,1.084 -0.304,1.573 -0.044,0.109 0.014,0.231 0.13,0.273 0.115,0.041 0.244,-0.014 0.288,-0.123 0.215,-0.536 0.333,-1.117 0.333,-1.723 v 0 -0.008 c 0,-0.117 -0.1,-0.212 -0.224,-0.212 -0.123,0 -0.223,0.095 -0.223,0.212 z m -32.85,-2.549 v 1.693 c 0,0.117 0.1,0.212 0.224,0.212 0.123,0 0.223,-0.095 0.223,-0.212 v -1.693 c 0,-0.116 -0.1,-0.211 -0.223,-0.211 -0.124,0 -0.224,0.095 -0.224,0.211 z m 33.297,0.848 v -1.693 c 0,-0.117 -0.1,-0.212 -0.224,-0.212 -0.123,0 -0.223,0.095 -0.223,0.212 V 49.9 c 0,0.117 0.1,0.212 0.223,0.212 0.124,0 0.224,-0.095 0.224,-0.212 z m -33.297,-4.233 v 1.693 c 0,0.116 0.1,0.211 0.224,0.211 0.123,0 0.223,-0.095 0.223,-0.211 v -1.693 c 0,-0.117 -0.1,-0.212 -0.223,-0.212 -0.124,0 -0.224,0.095 -0.224,0.212 z m 33.297,0.847 v -1.693 c 0,-0.116 -0.1,-0.211 -0.224,-0.211 -0.123,0 -0.223,0.095 -0.223,0.211 v 1.693 c 0,0.117 0.1,0.212 0.223,0.212 0.124,0 0.224,-0.095 0.224,-0.212 z m -33.297,-4.233 v 1.693 c 0,0.117 0.1,0.211 0.224,0.211 0.123,0 0.223,-0.094 0.223,-0.211 v -1.693 c 0,-0.117 -0.1,-0.212 -0.223,-0.212 -0.124,0 -0.224,0.095 -0.224,0.212 z m 33.297,0.847 v -1.692 c 0,-0.117 -0.1,-0.212 -0.224,-0.212 -0.123,0 -0.223,0.095 -0.223,0.212 v 1.692 c 0,0.117 0.1,0.212 0.223,0.212 0.124,0 0.224,-0.095 0.224,-0.212 z m -33.297,-4.233 v 1.693 c 0,0.117 0.1,0.212 0.224,0.212 0.123,0 0.223,-0.095 0.223,-0.212 v -1.693 c 0,-0.116 -0.1,-0.211 -0.223,-0.211 -0.124,0 -0.224,0.095 -0.224,0.211 z m 33.297,0.848 V 38.05 c 0,-0.117 -0.1,-0.212 -0.224,-0.212 -0.123,0 -0.223,0.095 -0.223,0.212 v 1.693 c 0,0.117 0.1,0.211 0.223,0.211 0.124,0 0.224,-0.094 0.224,-0.211 z M 234.102,35.51 v 1.692 c 0,0.117 0.1,0.212 0.224,0.212 0.123,0 0.223,-0.095 0.223,-0.212 V 35.51 c 0,-0.117 -0.1,-0.212 -0.223,-0.212 -0.124,0 -0.224,0.095 -0.224,0.212 z m 33.297,0.847 v -1.693 c 0,-0.117 -0.1,-0.211 -0.224,-0.211 -0.123,0 -0.223,0.094 -0.223,0.211 v 1.693 c 0,0.117 0.1,0.212 0.223,0.212 0.124,0 0.224,-0.095 0.224,-0.212 z m -33.297,-4.233 v 1.693 c 0,0.117 0.1,0.211 0.224,0.211 0.123,0 0.223,-0.094 0.223,-0.211 v -1.693 c 0,-0.117 -0.1,-0.212 -0.223,-0.212 -0.124,0 -0.224,0.095 -0.224,0.212 z m 32.85,-0.854 v 0.008 1.693 c 0,0.117 0.1,0.212 0.223,0.212 0.124,0 0.224,-0.095 0.224,-0.212 V 31.278 31.27 31.261 c 0,-0.61 -0.119,-1.193 -0.336,-1.731 -0.044,-0.11 -0.173,-0.164 -0.289,-0.123 -0.115,0.042 -0.173,0.164 -0.129,0.274 0.198,0.491 0.307,1.023 0.307,1.58 z M 234.84,28.751 c -0.318,0.498 -0.545,1.054 -0.657,1.647 -0.022,0.115 0.059,0.225 0.18,0.246 0.122,0.02 0.238,-0.056 0.26,-0.171 0.103,-0.542 0.31,-1.049 0.6,-1.503 0.064,-0.1 0.03,-0.23 -0.076,-0.291 -0.105,-0.06 -0.243,-0.028 -0.307,0.072 z m 31.255,-0.725 c -0.415,-0.439 -0.912,-0.806 -1.469,-1.08 -0.109,-0.054 -0.245,-0.013 -0.301,0.09 -0.057,0.104 -0.015,0.232 0.095,0.285 0.508,0.251 0.963,0.586 1.341,0.987 0.082,0.087 0.224,0.095 0.316,0.017 0.092,-0.078 0.1,-0.211 0.018,-0.299 z m -28.373,-1.409 c -0.604,0.177 -1.161,0.456 -1.648,0.817 -0.097,0.072 -0.114,0.205 -0.038,0.297 0.076,0.092 0.217,0.108 0.314,0.036 0.444,-0.329 0.953,-0.585 1.504,-0.746 0.118,-0.034 0.185,-0.153 0.148,-0.265 -0.036,-0.111 -0.162,-0.174 -0.28,-0.139 z m 25.124,-0.185 c -0.192,-0.02 -0.387,-0.031 -0.585,-0.031 0,0 -0.452,0 -1.229,0 -0.123,0 -0.223,0.095 -0.223,0.212 0,0.116 0.1,0.211 0.223,0.211 h 1.229 c 0.181,0 0.359,0.01 0.535,0.029 0.122,0.013 0.233,-0.071 0.247,-0.187 0.014,-0.116 -0.074,-0.221 -0.197,-0.234 z m -3.603,-0.031 h -1.79 c -0.123,0 -0.224,0.095 -0.224,0.212 0,0.116 0.101,0.211 0.224,0.211 h 1.79 c 0.123,0 0.223,-0.095 0.223,-0.211 0,-0.117 -0.1,-0.212 -0.223,-0.212 z m -17.897,0 h -1.79 c -0.123,0 -0.224,0.095 -0.224,0.212 0,0.116 0.101,0.211 0.224,0.211 h 1.79 c 0.123,0 0.224,-0.095 0.224,-0.211 0,-0.117 -0.101,-0.212 -0.224,-0.212 z m 7.159,0 h -1.79 c -0.124,0 -0.224,0.095 -0.224,0.212 0,0.116 0.1,0.211 0.224,0.211 h 1.79 c 0.123,0 0.223,-0.095 0.223,-0.211 0,-0.117 -0.1,-0.212 -0.223,-0.212 z m 7.158,0 h -1.789 c -0.124,0 -0.224,0.095 -0.224,0.212 0,0.116 0.1,0.211 0.224,0.211 h 1.789 c 0.124,0 0.224,-0.095 0.224,-0.211 0,-0.117 -0.1,-0.212 -0.224,-0.212 z m -10.738,0 h -1.789 c -0.124,0 -0.224,0.095 -0.224,0.212 0,0.116 0.1,0.211 0.224,0.211 h 1.789 c 0.124,0 0.224,-0.095 0.224,-0.211 0,-0.117 -0.1,-0.212 -0.224,-0.212 z m 7.159,0 h -1.79 c -0.123,0 -0.223,0.095 -0.223,0.212 0,0.116 0.1,0.211 0.223,0.211 h 1.79 c 0.123,0 0.224,-0.095 0.224,-0.211 0,-0.117 -0.101,-0.212 -0.224,-0.212 z"
   style="fill:#ffffff;fill-opacity:1;stroke-width:0.870568;stroke-dasharray:none"
   id="path413" />
        </g>
        <g
   transform="matrix(0.0280588,0,0,0.0280588,242.361,44.0022)"
   id="g419"
   style="stroke-width:35.6504695;stroke-dasharray:none">
            <path
   d="m -237.141,437.289 v -795.825 c 3.585,-31.341 64.637,-45.852 152.346,-52.556 87.787,-6.688 177.926,-8.082 269.467,-6.322 63.06,1.612 118.955,8.397 165.119,22.212 109.273,31.117 152.439,97.24 159.389,186.56 8.144,104.664 -19.999,198.063 -101.649,220.55 78.123,19.45 120.89,71.868 127.884,157.641 5.539,73.902 -0.764,142.818 -40.912,197.483 -46.447,62.226 -137.684,92.582 -262.23,99.238 h -390.18 c -53.779,-1.006 -78.886,-5.428 -79.234,-28.981 z M 51.848,284.002 V 122.085 c 16.471,-3.169 86.017,-5.576 102.666,0.036 52.02,17.535 63.018,136.289 0,162.206 -14.014,5.764 -85.51,3.484 -102.666,-0.325 z m 0,-353.354 v -161.917 c 16.471,-3.169 86.017,-5.577 102.666,0.036 52.02,17.535 63.018,136.289 0,162.205 -14.014,5.764 -85.51,3.485 -102.666,-0.324 z"
   style="fill:#ffffff;stroke-width:35.6504695;stroke-dasharray:none"
   id="path417" />
        </g>
        <g
   transform="matrix(0.0280588,0,0,0.0280588,242.361,44.0022)"
   id="g423"
   style="stroke-width:35.6504695;stroke-dasharray:none">
            
        </g>
    </g></g></svg>
