<svg id="Layer_1" data-name="Layer 1" xmlns="http://www.w3.org/2000/svg" xmlns:xlink="http://www.w3.org/1999/xlink" viewBox="0 0 300 345"><defs><style>.cls-1{fill:url(#linear-gradient);}.cls-2{fill:url(#linear-gradient-2);}.cls-3{fill:url(#radial-gradient);}.cls-4{fill:url(#radial-gradient-2);}.cls-5,.cls-6{fill:#8b5aa5;}.cls-5{opacity:0.35;}.cls-7{fill:#fff;}.cls-8{fill:#3c3a42;}.cls-10,.cls-11,.cls-12,.cls-9{stroke:#8b5aa5;stroke-miterlimit:10;stroke-width:4px;}.cls-9{fill:url(#linear-gradient-3);}.cls-10{fill:url(#linear-gradient-4);}.cls-11{fill:none;stroke-linecap:round;}.cls-12{fill:#ecc6c3;}.cls-13{fill:#6c4294;}.cls-14{fill:#bca0cc;}.cls-15{fill:#15141a;}.cls-16{fill:#fcebde;}.cls-17{fill:#452768;}</style><linearGradient id="linear-gradient" x1="150" y1="356.11" x2="150" y2="161.16" gradientUnits="userSpaceOnUse"><stop offset="0" stop-color="#ecc6c3"/><stop offset="0.69" stop-color="#bd8f9a"/></linearGradient><linearGradient id="linear-gradient-2" x1="150" y1="3.86" x2="150" y2="305.08" gradientUnits="userSpaceOnUse"><stop offset="0.03" stop-color="#8b5aa5"/><stop offset="0.31" stop-color="#c69bb7"/><stop offset="0.51" stop-color="#ecc6c3"/></linearGradient><radialGradient id="radial-gradient" cx="270.13" cy="169.26" r="29.87" gradientUnits="userSpaceOnUse"><stop offset="0" stop-color="#ed0d6c" stop-opacity="0.5"/><stop offset="0.15" stop-color="#ed1871" stop-opacity="0.47"/><stop offset="0.36" stop-color="#ed357f" stop-opacity="0.39"/><stop offset="0.61" stop-color="#ed6696" stop-opacity="0.26"/><stop offset="0.89" stop-color="#eca9b6" stop-opacity="0.08"/><stop offset="1" stop-color="#ecc6c3" stop-opacity="0"/></radialGradient><radialGradient id="radial-gradient-2" cx="29.87" cy="169.26" r="29.87" xlink:href="#radial-gradient"/><linearGradient id="linear-gradient-3" x1="260.92" y1="309.34" x2="260.92" y2="179.14" gradientUnits="userSpaceOnUse"><stop offset="0.03" stop-color="#8b5aa5"/><stop offset="0.16" stop-color="#9f70ab"/><stop offset="0.41" stop-color="#c095b5"/><stop offset="0.64" stop-color="#d8b0bd"/><stop offset="0.84" stop-color="#e7c0c1"/><stop offset="1" stop-color="#ecc6c3"/></linearGradient><linearGradient id="linear-gradient-4" x1="39.08" y1="309.34" x2="39.08" y2="179.14" xlink:href="#linear-gradient-3"/></defs><g id="underwater_2" data-name="underwater 2"><path class="cls-1" d="M263.62,345H36.38A36.38,36.38,0,0,1,0,308.62V259.14H300v49.48A36.38,36.38,0,0,1,263.62,345Z"/><path class="cls-2" d="M298.44,70.82l-.08-.26a.19.19,0,0,0,0-.07c-.21-.67-.44-1.32-.69-2a36.38,36.38,0,0,0-34-23.52H219.47c0-9.9-.65-20.6-3.65-21.55C212,22.24,202.32,35.78,196.22,45H164c-3.68-12.68-9.46-29.64-14-29.64s-10.28,17-14,29.64H103.78C97.68,35.78,88,22.24,84.18,23.45c-3,.95-3.68,11.65-3.65,21.55H36.38a36.38,36.38,0,0,0-34,23.52c-.25.65-.48,1.3-.69,2a.19.19,0,0,0,0,.07l-.08.26A36.45,36.45,0,0,0,0,81.38H0V262H0a36.38,36.38,0,0,0,36.38,36.38H263.62A36.38,36.38,0,0,0,300,262h0V81.38h0A36.45,36.45,0,0,0,298.44,70.82Z"/><circle class="cls-3" cx="270.13" cy="169.26" r="29.87"/><circle class="cls-4" cx="29.87" cy="169.26" r="29.87"/><circle class="cls-5" cx="246.62" cy="144.97" r="40.57"/><circle class="cls-5" cx="54.59" cy="144.97" r="40.57"/><circle class="cls-6" cx="242.58" cy="132.8" r="36.45"/><circle class="cls-6" cx="57.42" cy="132.8" r="36.45"/><circle class="cls-7" cx="242.58" cy="142.92" r="36.45"/><circle class="cls-7" cx="57.42" cy="142.92" r="36.45"/><path class="cls-8" d="M89.18,137.63A13.21,13.21,0,0,1,70,119.73a22.94,22.94,0,1,0,19.19,17.9Zm-32,19.76a5.45,5.45,0,1,1,5.45-5.45A5.45,5.45,0,0,1,57.14,157.39Z"/><path class="cls-8" d="M255.63,137.5a13.21,13.21,0,0,1-19.07-17.76,23,23,0,1,0,19.07,17.76Zm-32.22,19.89a5.45,5.45,0,1,1,5.46-5.45A5.45,5.45,0,0,1,223.41,157.39Z"/><path class="cls-5" d="M232.67,225.47c-6,21.92,10.09,45,27.11,36.6s5.58-25.25,5.58-25.25,19.66,5.7,24.36-9.09-14.35-26-35.06-24.59"/><path class="cls-5" d="M67.69,225.37c6,22.2-10.22,45.52-27.46,37.06s-5.64-25.56-5.64-25.56-19.92,5.76-24.67-9.22,14.52-26.31,35.5-24.89"/><path class="cls-9" d="M236.34,219.21c-5.18,19.07,8.78,39.1,23.59,31.83s4.85-21.95,4.85-21.95S281.89,234,286,221.17s-12.48-22.6-30.49-21.38"/><path class="cls-6" d="M251.21,203.61a39.4,39.4,0,0,1,4.27,2.1,42.28,42.28,0,0,1,3.94,2.5,32.81,32.81,0,0,1,3.54,3,21.08,21.08,0,0,1,2.84,3.58,20.09,20.09,0,0,0-3.47-2.8,29.65,29.65,0,0,0-3.91-2,40.51,40.51,0,0,0-4.12-1.49,35.43,35.43,0,0,0-4.17-1Z"/><path class="cls-6" d="M244.65,213.53a22.71,22.71,0,0,0,.45,4.05,27.32,27.32,0,0,0,1.16,4.08,22.13,22.13,0,0,0,1.83,3.88,22.61,22.61,0,0,0,2.58,3.55,23.43,23.43,0,0,1-3.38-2.94,24.64,24.64,0,0,1-2.82-3.59,29.46,29.46,0,0,1-2.22-4.06,25.55,25.55,0,0,1-1.58-4.52Z"/><path class="cls-10" d="M63.66,219.21c5.18,19.07-8.78,39.1-23.59,31.83s-4.85-21.95-4.85-21.95S18.11,234,14,221.17s12.48-22.6,30.49-21.38"/><path class="cls-6" d="M49.87,207.46a35.43,35.43,0,0,0-4.17,1A40.51,40.51,0,0,0,41.58,210a29.65,29.65,0,0,0-3.91,2,20.09,20.09,0,0,0-3.47,2.8A21.08,21.08,0,0,1,37,211.21a32.81,32.81,0,0,1,3.54-3,42.28,42.28,0,0,1,3.94-2.5,39.4,39.4,0,0,1,4.27-2.1Z"/><path class="cls-6" d="M59.33,214a25.55,25.55,0,0,1-1.58,4.52,29.46,29.46,0,0,1-2.22,4.06,24.64,24.64,0,0,1-2.82,3.59,23.43,23.43,0,0,1-3.38,2.94,22.61,22.61,0,0,0,2.58-3.55,22.13,22.13,0,0,0,1.83-3.88,27.32,27.32,0,0,0,1.16-4.08,22.71,22.71,0,0,0,.45-4.05Z"/><path class="cls-11" d="M37,189s14.88,26,41.65,40.09"/><path class="cls-11" d="M263,189s-14.88,26-41.65,40.09"/><path class="cls-5" d="M150,135c-13.91,0-22.19,3.65-25.75,8.94a28.13,28.13,0,0,1,1.45,6.82,31.91,31.91,0,0,1-.13,7.52c4.71,4.9,13.88,8.23,24.43,8.23s19.72-3.33,24.43-8.23a31.91,31.91,0,0,1-.13-7.52,28.13,28.13,0,0,1,1.45-6.82C172.19,138.61,163.91,135,150,135Z"/><path class="cls-12" d="M150,127.17c-13.91,0-22.19,3.65-25.75,8.94a28,28,0,0,1,1.45,6.81,31.88,31.88,0,0,1-.13,7.52c4.71,4.91,13.88,8.24,24.43,8.24s19.72-3.33,24.43-8.24a31.88,31.88,0,0,1-.13-7.52,28,28,0,0,1,1.45-6.81C172.19,130.82,163.91,127.17,150,127.17Z"/><path class="cls-13" d="M163.9,140.58a16.3,16.3,0,0,1-6.28,4.58,19.11,19.11,0,0,1-7.79,1.54,19.31,19.31,0,0,1-4-.45,18.1,18.1,0,0,1-3.77-1.39,16.24,16.24,0,0,1-3.32-2.14,10.66,10.66,0,0,1-1.4-1.37c-.43-.49-.86-1-1.24-1.5.65.16,1.26.37,1.85.57a15.59,15.59,0,0,0,1.75.58c1.18.31,2.27.71,3.43.91s2.26.4,3.37.6c.56.06,1.13.09,1.69.13a9.52,9.52,0,0,0,1.69.06,37.16,37.16,0,0,0,6.84-.54C159,141.77,161.38,141.23,163.9,140.58Z"/><path class="cls-6" d="M109.79,124.6c4.54-.8,9.6,1.13,13,4.79a23,23,0,0,1,5.39,13.37,25.78,25.78,0,0,1-2.38,14.09c-2.27,4.31-6.32,7.81-10.91,8.5a19.13,19.13,0,0,0,4.56-4.6,21,21,0,0,0,2.74-5.45,31.18,31.18,0,0,0,1-12.09,25.46,25.46,0,0,0-3.48-11.38A18,18,0,0,0,109.79,124.6Z"/><path class="cls-6" d="M190.21,124.6a18,18,0,0,0-9.94,7.23,25.46,25.46,0,0,0-3.48,11.38,31.18,31.18,0,0,0,1,12.09,21,21,0,0,0,2.74,5.45,19.13,19.13,0,0,0,4.56,4.6c-4.59-.69-8.64-4.19-10.91-8.5a25.78,25.78,0,0,1-2.38-14.09,23,23,0,0,1,5.39-13.37C180.61,125.73,185.67,123.8,190.21,124.6Z"/><path class="cls-14" d="M141.51,171.6a8.54,8.54,0,0,1,2.31,4.77,9.31,9.31,0,0,1-.81,5.54,7.52,7.52,0,0,1-4.63,3.89A6.67,6.67,0,0,1,133,185a28,28,0,0,0,3.69-2.7,9.18,9.18,0,0,0,1.89-2.6,26.05,26.05,0,0,0,1.37-3.51C140.36,174.8,140.81,173.32,141.51,171.6Z"/><path class="cls-14" d="M158.49,171.6a31.32,31.32,0,0,1,2.23,4.13l1.58,3.51a18.94,18.94,0,0,0,1.63,2.87A12.87,12.87,0,0,0,167,185a5.52,5.52,0,0,1-5.33.4,8,8,0,0,1-3.92-4,10.28,10.28,0,0,1-.94-5A8.81,8.81,0,0,1,158.49,171.6Z"/><path class="cls-13" d="M167.62,58.6c-3.12-7.4-5.87-14.84-8.77-22.16-1.45-3.65-2.91-7.28-4.54-10.75a47.29,47.29,0,0,0-2.61-4.91,13.37,13.37,0,0,0-1.42-1.94,4.52,4.52,0,0,0-.56-.52c-.13-.08-.08,0,.28,0s.41-.12.29,0a3.21,3.21,0,0,0-.57.51,13.37,13.37,0,0,0-1.42,1.94,47.29,47.29,0,0,0-2.61,4.91c-1.62,3.47-3.08,7.1-4.54,10.75-2.89,7.32-5.64,14.76-8.77,22.16A139.41,139.41,0,0,1,136.67,35a101.93,101.93,0,0,1,3.81-11.55,45.17,45.17,0,0,1,2.76-5.71,18.59,18.59,0,0,1,2.06-2.87A9.37,9.37,0,0,1,147,13.36a5.47,5.47,0,0,1,3.05-1,5.55,5.55,0,0,1,3.05,1,9.37,9.37,0,0,1,1.65,1.47,18.18,18.18,0,0,1,2.06,2.88,44.43,44.43,0,0,1,2.75,5.71A99.2,99.2,0,0,1,163.32,35,140.61,140.61,0,0,1,167.62,58.6Z"/><path class="cls-6" d="M137.53,244.22c2.56,5.15,4.69,10.35,6.86,15.46,1.08,2.55,2.15,5.09,3.32,7.49a34,34,0,0,0,1.82,3.36,9,9,0,0,0,.91,1.22c.14.18.21.18.25.24a.23.23,0,0,0-.16-.08,1.61,1.61,0,0,0-1.06,0,.23.23,0,0,0-.16.08c0-.06.1-.06.25-.24a9,9,0,0,0,.9-1.22,32,32,0,0,0,1.82-3.36c1.17-2.4,2.24-4.94,3.33-7.49,2.17-5.11,4.29-10.32,6.86-15.46a80.45,80.45,0,0,1-2.39,16.94,63.87,63.87,0,0,1-2.58,8.29,33.84,33.84,0,0,1-2,4.16,13.77,13.77,0,0,1-1.58,2.18,7.38,7.38,0,0,1-.56.57c-.24.21-.49.41-.74.6a8,8,0,0,1-1.09.56,4.21,4.21,0,0,1-3.12,0,7.53,7.53,0,0,1-1.09-.57c-.25-.19-.5-.38-.73-.59a5.13,5.13,0,0,1-.57-.58,12.67,12.67,0,0,1-1.57-2.18,30.47,30.47,0,0,1-2-4.15,66.55,66.55,0,0,1-2.59-8.29A81.1,81.1,0,0,1,137.53,244.22Z"/><path class="cls-13" d="M109,53.21c-4.51-5-8.65-10.08-12.84-15.08-2.1-2.49-4.19-5-6.34-7.28a40,40,0,0,0-3.27-3.16A11.69,11.69,0,0,0,85,26.57a3.11,3.11,0,0,0-.47-.22c-.06,0,.11.08.53-.05s.5-.31.46-.26a3.86,3.86,0,0,0-.26.44,11.26,11.26,0,0,0-.6,1.81,38.22,38.22,0,0,0-.83,4.47c-.43,3.12-.69,6.36-1,9.6-.53,6.51-.94,13.09-1.76,19.74a104.3,104.3,0,0,1-3-19.79,79.82,79.82,0,0,1,0-10.14,39.09,39.09,0,0,1,.73-5.28A16.11,16.11,0,0,1,79.87,24a8.79,8.79,0,0,1,1-1.68,4.8,4.8,0,0,1,5.38-1.71,8.46,8.46,0,0,1,1.78.8,15.67,15.67,0,0,1,2.43,1.81,36.67,36.67,0,0,1,3.65,3.89A79.72,79.72,0,0,1,100,35.37,104.48,104.48,0,0,1,109,53.21Z"/><path class="cls-13" d="M63.74,78.49a128.21,128.21,0,0,1-8.93-9.2c-1.4-1.54-2.77-3.08-4.15-4.49a23.41,23.41,0,0,0-2-1.91,6.6,6.6,0,0,0-.82-.58c-.12-.09-.1,0-.08-.05a.61.61,0,0,0,.3.05,1.33,1.33,0,0,0,.67-.09,1.29,1.29,0,0,0,.59-.31.58.58,0,0,0,.22-.22s0,0,0,.09a5.55,5.55,0,0,0-.33.95,25.27,25.27,0,0,0-.55,2.73c-.31,2-.53,4-.79,6.07a121.51,121.51,0,0,1-2,12.67,51,51,0,0,1-2.74-12.73,43.88,43.88,0,0,1-.16-6.61,25.65,25.65,0,0,1,.45-3.53,10.79,10.79,0,0,1,.68-2.07A6.65,6.65,0,0,1,44.81,58a7.18,7.18,0,0,1,.78-.78,5.25,5.25,0,0,1,1.28-.7,5.31,5.31,0,0,1,1.45-.17,6.54,6.54,0,0,1,1.09.19,6.71,6.71,0,0,1,1.36.61,11.56,11.56,0,0,1,1.74,1.29,24.15,24.15,0,0,1,2.41,2.63,44.66,44.66,0,0,1,3.7,5.48A51.36,51.36,0,0,1,63.74,78.49Z"/><path class="cls-6" d="M110.09,204.29A123.61,123.61,0,0,1,111.93,217c.23,2.06.43,4.12.73,6.08a23.71,23.71,0,0,0,.52,2.73,5.7,5.7,0,0,0,.32,1c0,.14.06.09,0,.09a.58.58,0,0,0-.22-.22,1.34,1.34,0,0,0-.59-.32,1.28,1.28,0,0,0-.66-.09.45.45,0,0,0-.3.05s0,0,.08-.05a5.93,5.93,0,0,0,.82-.58,24.61,24.61,0,0,0,2-1.89c1.39-1.39,2.78-2.93,4.2-4.45a124.77,124.77,0,0,1,9-9.1,51.16,51.16,0,0,1-5.24,11.91,44.8,44.8,0,0,1-3.76,5.44,22.53,22.53,0,0,1-2.44,2.6,10.71,10.71,0,0,1-1.76,1.28,6.78,6.78,0,0,1-1.36.6,7.74,7.74,0,0,1-1.09.17,4.9,4.9,0,0,1-1.45-.19,5.21,5.21,0,0,1-1.27-.71,5.16,5.16,0,0,1-1.51-2.08,9.89,9.89,0,0,1-.65-2.07,23,23,0,0,1-.42-3.54,45.21,45.21,0,0,1,.23-6.61A51.25,51.25,0,0,1,110.09,204.29Z"/><path class="cls-6" d="M71.16,262c-.34,4.15-1,8.15-1.65,12.09-.31,2-.63,3.93-.85,5.82a24,24,0,0,0-.18,2.72,7.07,7.07,0,0,0,.07,1c0,.16,0,.16,0,.19a.26.26,0,0,0-.09-.16.84.84,0,0,0-.35-.32.94.94,0,0,0-.44-.19.28.28,0,0,0-.18,0s0,0,.19,0a6.5,6.5,0,0,0,1-.38,20.45,20.45,0,0,0,2.39-1.31c1.63-1,3.27-2.1,4.93-3.2,3.32-2.23,6.66-4.52,10.28-6.57a54.25,54.25,0,0,1-7.9,9.51,43.9,43.9,0,0,1-4.78,4.06,21,21,0,0,1-2.83,1.78,9.4,9.4,0,0,1-1.84.73,6.14,6.14,0,0,1-1.3.22,7.47,7.47,0,0,1-.94-.09,4.07,4.07,0,0,1-1.14-.46,4.53,4.53,0,0,1-.9-.84,6.68,6.68,0,0,1-.47-.82,5.84,5.84,0,0,1-.35-1.27,10,10,0,0,1-.11-2,24,24,0,0,1,.43-3.32,45.14,45.14,0,0,1,1.69-6A55.66,55.66,0,0,1,71.16,262Z"/><path class="cls-6" d="M30.31,309.37a121.17,121.17,0,0,1,2.8,12.2c.38,2,.74,4,1.17,5.86A22.2,22.2,0,0,0,35,330a5.71,5.71,0,0,0,.37.89c.06.12.07.07,0,.07a.61.61,0,0,0-.23-.22,2,2,0,0,0-1.3-.32.65.65,0,0,0-.31.08s-.05,0,.06-.05a5.27,5.27,0,0,0,.75-.61,22.56,22.56,0,0,0,1.84-2c1.26-1.46,2.49-3,3.76-4.64a120,120,0,0,1,8.16-9.5,49.45,49.45,0,0,1-4.16,12,45.19,45.19,0,0,1-3.24,5.59,24.63,24.63,0,0,1-2.19,2.72,10.81,10.81,0,0,1-1.62,1.38,7,7,0,0,1-1.3.69,7.46,7.46,0,0,1-1.06.26,5.53,5.53,0,0,1-1.45-.08,5.15,5.15,0,0,1-1.32-.61A6.22,6.22,0,0,1,31,335a6.47,6.47,0,0,1-.82-1.21,10.66,10.66,0,0,1-.8-2,22.93,22.93,0,0,1-.66-3.43,42.62,42.62,0,0,1-.27-6.45A49.49,49.49,0,0,1,30.31,309.37Z"/><path class="cls-6" d="M98.12,315.24a121.47,121.47,0,0,1,6.69,10.58c1,1.76,2,3.51,3,5.13a22.65,22.65,0,0,0,1.54,2.23,5.53,5.53,0,0,0,.65.71c.1.11.09.05,0,.06a.58.58,0,0,0-.29-.12,1.35,1.35,0,0,0-.67-.05,1.38,1.38,0,0,0-.66.18.52.52,0,0,0-.26.17s0,.06,0-.06a6,6,0,0,0,.49-.83,22.42,22.42,0,0,0,1.09-2.48c.7-1.79,1.33-3.71,2-5.62a116.77,116.77,0,0,1,4.54-11.67,49.18,49.18,0,0,1,.07,12.71,43.74,43.74,0,0,1-1.2,6.35,23.67,23.67,0,0,1-1.16,3.29,9.82,9.82,0,0,1-1.07,1.84,6.44,6.44,0,0,1-1,1.09,6.17,6.17,0,0,1-.91.59,5.11,5.11,0,0,1-1.39.41,5.26,5.26,0,0,1-1.45-.13,7.36,7.36,0,0,1-1-.41,7.51,7.51,0,0,1-1.19-.87,10.21,10.21,0,0,1-1.4-1.61,23.22,23.22,0,0,1-1.77-3,43.82,43.82,0,0,1-2.39-6A49.13,49.13,0,0,1,98.12,315.24Z"/><path class="cls-13" d="M191,53.21a104.48,104.48,0,0,1,9-17.84,79.72,79.72,0,0,1,5.88-8.26,36.67,36.67,0,0,1,3.65-3.89A15.67,15.67,0,0,1,212,21.41a8.46,8.46,0,0,1,1.78-.8,4.8,4.8,0,0,1,5.38,1.71,8.79,8.79,0,0,1,1,1.68,16.11,16.11,0,0,1,.94,2.89,39.09,39.09,0,0,1,.73,5.28,79.82,79.82,0,0,1,0,10.14,104.3,104.3,0,0,1-3,19.79c-.82-6.65-1.23-13.23-1.76-19.74-.27-3.24-.53-6.48-1-9.6a38.22,38.22,0,0,0-.83-4.47,11.26,11.26,0,0,0-.6-1.81,3.86,3.86,0,0,0-.26-.44c0-.05,0,.12.46.26s.59,0,.53.05a3.11,3.11,0,0,0-.47.22,11.69,11.69,0,0,0-1.54,1.12,40,40,0,0,0-3.27,3.16c-2.15,2.3-4.24,4.79-6.34,7.28C199.63,43.13,195.49,48.26,191,53.21Z"/><path class="cls-13" d="M236.26,78.49a51.36,51.36,0,0,1,5.12-12,44.66,44.66,0,0,1,3.7-5.48,24.15,24.15,0,0,1,2.41-2.63,11.56,11.56,0,0,1,1.74-1.29,6.71,6.71,0,0,1,1.36-.61,6.54,6.54,0,0,1,1.09-.19,5.31,5.31,0,0,1,1.45.17,5.25,5.25,0,0,1,1.28.7,7.18,7.18,0,0,1,.78.78,6.65,6.65,0,0,1,.75,1.28,10.79,10.79,0,0,1,.68,2.07,25.65,25.65,0,0,1,.45,3.53,43.88,43.88,0,0,1-.16,6.61,51,51,0,0,1-2.74,12.73,121.51,121.51,0,0,1-2-12.67c-.26-2.07-.48-4.12-.79-6.07a25.27,25.27,0,0,0-.55-2.73,5.55,5.55,0,0,0-.33-.95c-.05-.14-.06-.09,0-.09a.58.58,0,0,0,.22.22,1.29,1.29,0,0,0,.59.31,1.33,1.33,0,0,0,.67.09.61.61,0,0,0,.3-.05s0,0-.08.05a6.6,6.6,0,0,0-.82.58,23.41,23.41,0,0,0-2,1.91c-1.38,1.41-2.75,3-4.15,4.49A128.21,128.21,0,0,1,236.26,78.49Z"/><path class="cls-6" d="M189.91,204.29A51.25,51.25,0,0,1,192.77,217a45.21,45.21,0,0,1,.23,6.61,23,23,0,0,1-.42,3.54,9.89,9.89,0,0,1-.65,2.07,5.16,5.16,0,0,1-1.51,2.08,5.21,5.21,0,0,1-1.27.71,4.9,4.9,0,0,1-1.45.19,7.74,7.74,0,0,1-1.09-.17,6.78,6.78,0,0,1-1.36-.6,10.71,10.71,0,0,1-1.76-1.28,22.53,22.53,0,0,1-2.44-2.6,44.8,44.8,0,0,1-3.76-5.44,51.16,51.16,0,0,1-5.24-11.91,124.77,124.77,0,0,1,9,9.1c1.42,1.52,2.81,3.06,4.2,4.45a24.61,24.61,0,0,0,2.05,1.89,5.93,5.93,0,0,0,.82.58c.13.08.1,0,.08.05a.45.45,0,0,0-.3-.05,1.28,1.28,0,0,0-.66.09,1.34,1.34,0,0,0-.59.32.58.58,0,0,0-.22.22s0,0,0-.09a5.7,5.7,0,0,0,.32-1,23.71,23.71,0,0,0,.52-2.73c.3-2,.5-4,.73-6.08A123.61,123.61,0,0,1,189.91,204.29Z"/><path class="cls-6" d="M189.91,106.47a124,124,0,0,1-1.84-12.69c-.23-2.07-.43-4.13-.73-6.08a23.9,23.9,0,0,0-.52-2.74,5.53,5.53,0,0,0-.32-.94c-.05-.14-.06-.09,0-.09a.66.66,0,0,0,.22.22,1.33,1.33,0,0,0,.59.31,1.29,1.29,0,0,0,.66.1.61.61,0,0,0,.3,0s.05,0-.08,0a5.17,5.17,0,0,0-.82.58A26.23,26.23,0,0,0,185.28,87c-1.39,1.4-2.78,2.94-4.2,4.46a124.77,124.77,0,0,1-9,9.1,50.8,50.8,0,0,1,5.24-11.91,44.14,44.14,0,0,1,3.76-5.45,24.29,24.29,0,0,1,2.44-2.6,11.33,11.33,0,0,1,1.76-1.27,6.26,6.26,0,0,1,1.36-.6,6.53,6.53,0,0,1,1.09-.18,5.28,5.28,0,0,1,1.45.2,5.18,5.18,0,0,1,1.27.7,8.16,8.16,0,0,1,.77.79,6.64,6.64,0,0,1,.74,1.3,9.89,9.89,0,0,1,.65,2.07,22.83,22.83,0,0,1,.42,3.54,45.21,45.21,0,0,1-.23,6.61A51.45,51.45,0,0,1,189.91,106.47Z"/><path class="cls-6" d="M110.09,106.47a51.45,51.45,0,0,1-2.86-12.69,45.21,45.21,0,0,1-.23-6.61,22.83,22.83,0,0,1,.42-3.54,9.89,9.89,0,0,1,.65-2.07,6.64,6.64,0,0,1,.74-1.3,8.16,8.16,0,0,1,.77-.79,5.18,5.18,0,0,1,1.27-.7,5.28,5.28,0,0,1,1.45-.2,6.53,6.53,0,0,1,1.09.18,6.26,6.26,0,0,1,1.36.6,11.33,11.33,0,0,1,1.76,1.27,24.29,24.29,0,0,1,2.44,2.6,44.14,44.14,0,0,1,3.76,5.45A50.8,50.8,0,0,1,128,100.58a124.77,124.77,0,0,1-9-9.1c-1.42-1.52-2.81-3.06-4.2-4.46a26.23,26.23,0,0,0-2-1.88,5.17,5.17,0,0,0-.82-.58c-.13-.08-.1,0-.08,0a.61.61,0,0,0,.3,0,1.29,1.29,0,0,0,.66-.1,1.33,1.33,0,0,0,.59-.31.66.66,0,0,0,.22-.22s0-.05,0,.09a5.53,5.53,0,0,0-.32.94,23.9,23.9,0,0,0-.52,2.74c-.3,2-.5,4-.73,6.08A124,124,0,0,1,110.09,106.47Z"/><path class="cls-6" d="M228.84,262a55.66,55.66,0,0,1,5.31,11.16,45.14,45.14,0,0,1,1.69,6,24,24,0,0,1,.43,3.32,10,10,0,0,1-.11,2,5.84,5.84,0,0,1-.35,1.27,6.68,6.68,0,0,1-.47.82,4.53,4.53,0,0,1-.9.84,4.07,4.07,0,0,1-1.14.46,7.47,7.47,0,0,1-.94.09,6.14,6.14,0,0,1-1.3-.22,9.4,9.4,0,0,1-1.84-.73,21,21,0,0,1-2.83-1.78,43.9,43.9,0,0,1-4.78-4.06,54.25,54.25,0,0,1-7.9-9.51c3.62,2,7,4.34,10.28,6.57,1.66,1.1,3.3,2.22,4.93,3.2a20.45,20.45,0,0,0,2.39,1.31,6.5,6.5,0,0,0,1,.38c.15.05.17,0,.19,0a.28.28,0,0,0-.18,0,.94.94,0,0,0-.44.19.84.84,0,0,0-.35.32.26.26,0,0,0-.09.16s0,0,0-.19a7.07,7.07,0,0,0,.07-1,24,24,0,0,0-.18-2.72c-.22-1.89-.54-3.85-.85-5.82C229.86,270.19,229.18,266.19,228.84,262Z"/><path class="cls-6" d="M269.69,309.37a49.49,49.49,0,0,1,1.89,12.57,42.62,42.62,0,0,1-.27,6.45,22.93,22.93,0,0,1-.66,3.43,10.66,10.66,0,0,1-.8,2A6.47,6.47,0,0,1,269,335a6.22,6.22,0,0,1-.82.72,5.15,5.15,0,0,1-1.32.61,5.53,5.53,0,0,1-1.45.08,7.46,7.46,0,0,1-1.06-.26,7,7,0,0,1-1.3-.69,10.81,10.81,0,0,1-1.62-1.38,24.63,24.63,0,0,1-2.19-2.72,45.19,45.19,0,0,1-3.24-5.59,49.45,49.45,0,0,1-4.16-12,120,120,0,0,1,8.16,9.5c1.27,1.59,2.5,3.18,3.76,4.64a22.56,22.56,0,0,0,1.84,2,5.27,5.27,0,0,0,.75.61c.11.09.09,0,.06.05a.65.65,0,0,0-.31-.08,2,2,0,0,0-1.3.32.61.61,0,0,0-.23.22s0,.05,0-.07A5.71,5.71,0,0,0,265,330a22.2,22.2,0,0,0,.72-2.61c.43-1.88.79-3.86,1.17-5.86A121.17,121.17,0,0,1,269.69,309.37Z"/><path class="cls-6" d="M201.88,315.24a49.13,49.13,0,0,1-2.39,12.49,43.82,43.82,0,0,1-2.39,6,23.22,23.22,0,0,1-1.77,3,10.76,10.76,0,0,1-1.4,1.61,7.51,7.51,0,0,1-1.19.87,7.36,7.36,0,0,1-1,.41,5.26,5.26,0,0,1-1.45.13,5.11,5.11,0,0,1-1.39-.41,6.17,6.17,0,0,1-.91-.59,6.44,6.44,0,0,1-1-1.09,9.82,9.82,0,0,1-1.07-1.84,23.67,23.67,0,0,1-1.16-3.29,43.74,43.74,0,0,1-1.2-6.35,49.18,49.18,0,0,1,.07-12.71,116.77,116.77,0,0,1,4.54,11.67c.67,1.91,1.3,3.83,2,5.62a22.42,22.42,0,0,0,1.09,2.48,6,6,0,0,0,.49.83c.08.12.08.06,0,.06a.52.52,0,0,0-.26-.17,1.38,1.38,0,0,0-.66-.18,1.35,1.35,0,0,0-.67.05.58.58,0,0,0-.29.12s-.05.05,0-.06a5.53,5.53,0,0,0,.65-.71,22.65,22.65,0,0,0,1.54-2.23c1-1.62,2-3.37,3.05-5.13A121.47,121.47,0,0,1,201.88,315.24Z"/><path class="cls-15" d="M300,148.48c-33.53-1.59-60.3-12.28-79.68-31.86-23-23.25-30.38-54-32.75-71.62H176.41c2.27,18.87,10,52.92,36,79.28,21.5,21.76,50.93,33.58,87.58,35.21Z"/><circle class="cls-15" cx="245.41" cy="139.39" r="46.1"/><path class="cls-16" d="M269.46,158.15A5.77,5.77,0,0,0,273,156c1.84-2.34,1.61-6-.55-8.6a7.49,7.49,0,0,0-8.4-2.54,3.81,3.81,0,0,1-4.11-.93l-21.24-21.24a3.81,3.81,0,0,1-.93-4.11,7.5,7.5,0,0,0-2.53-8.4c-2.62-2.16-6.27-2.39-8.61-.55a5.77,5.77,0,0,0-2.12,3.51,3.91,3.91,0,0,1-3.13,3.13,5.76,5.76,0,0,0-3.5,2.11c-1.84,2.35-1.61,6,.55,8.61a7.5,7.5,0,0,0,8.4,2.53,3.83,3.83,0,0,1,4.11.93l21.24,21.24a3.83,3.83,0,0,1,.93,4.11,7.52,7.52,0,0,0,2.53,8.41c2.62,2.15,6.27,2.38,8.61.54a5.78,5.78,0,0,0,2.12-3.5A3.89,3.89,0,0,1,269.46,158.15Z"/><path class="cls-16" d="M224.48,161.28a5.78,5.78,0,0,0,2.12,3.5c2.34,1.84,6,1.61,8.61-.54a7.52,7.52,0,0,0,2.53-8.41,3.81,3.81,0,0,1,.93-4.11l21.24-21.24a3.83,3.83,0,0,1,4.11-.93,7.5,7.5,0,0,0,8.4-2.53c2.16-2.62,2.39-6.26.55-8.61a5.82,5.82,0,0,0-3.51-2.12,3.87,3.87,0,0,1-3.12-3.12,5.77,5.77,0,0,0-2.12-3.51c-2.34-1.84-6-1.61-8.61.55a7.5,7.5,0,0,0-2.53,8.4,3.83,3.83,0,0,1-.93,4.11L230.91,144a3.81,3.81,0,0,1-4.11.93,7.49,7.49,0,0,0-8.4,2.54c-2.16,2.62-2.39,6.26-.55,8.6a5.78,5.78,0,0,0,3.5,2.12A3.9,3.9,0,0,1,224.48,161.28Z"/><ellipse class="cls-17" cx="86.29" cy="98.89" rx="11.37" ry="18.98" transform="translate(-44.01 114.58) rotate(-55.76)"/><path class="cls-6" d="M189.91,106.47a124,124,0,0,1-1.84-12.69c-.23-2.07-.43-4.13-.73-6.08a23.9,23.9,0,0,0-.52-2.74,5.53,5.53,0,0,0-.32-.94c-.05-.14-.06-.09,0-.09a.66.66,0,0,0,.22.22,1.33,1.33,0,0,0,.59.31,1.29,1.29,0,0,0,.66.1.61.61,0,0,0,.3,0s.05,0-.08,0a5.17,5.17,0,0,0-.82.58A26.23,26.23,0,0,0,185.28,87c-1.39,1.4-2.78,2.94-4.2,4.46a124.77,124.77,0,0,1-9,9.1,50.8,50.8,0,0,1,5.24-11.91,44.14,44.14,0,0,1,3.76-5.45,24.29,24.29,0,0,1,2.44-2.6,11.33,11.33,0,0,1,1.76-1.27,6.26,6.26,0,0,1,1.36-.6,6.53,6.53,0,0,1,1.09-.18,5.28,5.28,0,0,1,1.45.2,5.18,5.18,0,0,1,1.27.7,8.16,8.16,0,0,1,.77.79,6.64,6.64,0,0,1,.74,1.3,9.89,9.89,0,0,1,.65,2.07,22.83,22.83,0,0,1,.42,3.54,45.21,45.21,0,0,1-.23,6.61A51.45,51.45,0,0,1,189.91,106.47Z"/></g></svg>