<?xml version="1.0" encoding="UTF-8"?>
<svg id="Layer_1" data-name="Layer 1" xmlns="http://www.w3.org/2000/svg" xmlns:xlink="http://www.w3.org/1999/xlink" viewBox="0 0 300 345">
  <defs>
    <style>
      .cls-1 {
        stroke: #2aab43;
        stroke-width: 5.01864px;
      }

      .cls-1, .cls-2 {
        fill: none;
        stroke-linecap: round;
        stroke-linejoin: round;
      }

      .cls-3 {
        fill: url(#linear-gradient-2);
      }

      .cls-4 {
        fill: #c12626;
      }

      .cls-5 {
        fill: #d08585;
        opacity: .49;
      }

      .cls-6 {
        fill: #fff;
      }

      .cls-2 {
        stroke: #ffdcdc;
        stroke-width: 5.36272px;
      }

      .cls-7 {
        fill: #dae6f5;
      }

      .cls-8 {
        fill: #ffdcdc;
      }

      .cls-9 {
        fill: #af1e1e;
      }

      .cls-10 {
        fill: #f68b1f;
      }

      .cls-11 {
        fill: #2aab43;
      }

      .cls-12 {
        fill: #7ca1d5;
      }

      .cls-13 {
        fill: #15141a;
      }

      .cls-14 {
        fill: #257d2d;
      }

      .cls-15 {
        fill: url(#linear-gradient);
      }

      .cls-16 {
        fill: #921919;
      }

      .cls-17 {
        fill: #2f2c38;
      }

      .cls-18 {
        fill: #22c031;
      }
    </style>
    <linearGradient id="linear-gradient" x1="150" y1="13.76999" x2="150" y2="169.48" gradientTransform="translate(0 346) scale(1 -1)" gradientUnits="userSpaceOnUse">
      <stop offset="0" stop-color="#9dc6ea"/>
      <stop offset=".69" stop-color="#416eb5"/>
    </linearGradient>
    <linearGradient id="linear-gradient-2" x1="150.01" y1="182.05" x2="150.01" y2="303.08" gradientTransform="translate(0 346) scale(1 -1)" gradientUnits="userSpaceOnUse">
      <stop offset="0" stop-color="#9dc6ea"/>
      <stop offset=".94" stop-color="#416eb5"/>
    </linearGradient>
  </defs>
  <path class="cls-15" d="M217.74001,345H82.26c-22.05,0-39.92-19.88-39.92-44.41v-24.16h215.32v24.16c0,24.53-17.87001,44.41-39.92,44.41Z"/>
  <path class="cls-7" d="M257.72998,203.56v70.88c0,1.19-.03998,2.37-.13,3.53998-.58997,8.40002-3.28998,16.15002-7.51996,22.59003-7.25,11.08997-19.01001,18.28998-32.29004,18.28998H82.21002c-13.28003,0-25.04004-7.20001-32.29004-18.28998-4.82001-7.33002-7.64996-16.37-7.64996-26.13v-70.88c0-24.52997,17.88-44.40997,39.94-44.40997H217.78998c22.06,0,39.94,19.84998,39.94,44.40997Z"/>
  <path class="cls-14" d="M250.49001,201.32001s10.87001,7.75999,18.34001,7.75999c5.17191-.16759,10.28772-1.12534,15.16998-2.84l-8.60999,41s-29.88,1.67-38.49001-18"/>
  <path class="cls-18" d="M242,186.39999s11.75,6.35001,19.16,5.42c5.11096-.80811,10.06827-2.3931,14.70001-4.7l-3.44,41.77s-29.44,5.37-40.42-13"/>
  <circle class="cls-12" cx="150" cy="260.95999" r="8.06"/>
  <circle class="cls-17" cx="150" cy="257.23001" r="8"/>
  <circle class="cls-12" cx="150" cy="289.13" r="8.06"/>
  <path class="cls-4" d="M257.72998,203.56v81.84003H42.27002v-81.84003c0-1.21002,.03998-2.40997,.13-3.59998,.16998-2.37,.50995-4.67999,1-6.92999,1.70996-7.87006,5.31995-14.90002,10.23999-20.5,2.72998-3.12006,5.88-5.79004,9.33997-7.90002,5.70001-3.48999,12.26001-5.47998,19.23004-5.47998H217.78998c6.97003,0,13.53003,1.98999,19.23004,5.47998,3.45996,2.10999,6.60999,4.77997,9.34998,7.90002,4.91998,5.59998,8.52002,12.63995,10.22998,20.5,.49005,2.25,.83002,4.56,1,6.92999,.09003,1.19,.13,2.38995,.13,3.59998Z"/>
  <path class="cls-3" d="M205,172.82001H95c-20.92605-.0276-37.8676-17.01389-37.84-37.93994v-15.36007H242.86v15.35999c.02763,20.92606-16.91388,37.91237-37.83994,37.94-.00668,0-.01338,.00002-.02007,.00002Z"/>
  <rect class="cls-7" x="56.88" y="23.52" width="186.24001" height="125.34" rx="37.94" ry="37.94"/>
  <circle class="cls-12" cx="207.47" cy="98.6" r="22.63"/>
  <circle class="cls-12" cx="92.53" cy="98.6" r="22.63"/>
  <circle class="cls-17" cx="207.47" cy="104.88" r="22.63"/>
  <circle class="cls-17" cx="92.53" cy="104.88" r="22.63"/>
  <path class="cls-10" d="M155.37,116.77c0,5.17-3.42999,9.36-7.67,9.36s-41-3.11-41-9.36,36.74001-9.36,41-9.36,7.67,4.19,7.67,9.36Z"/>
  <circle class="cls-17" cx="150" cy="139.92" r="4.99001"/>
  <circle class="cls-17" cx="166.92" cy="138.21001" r="4.99001"/>
  <circle class="cls-17" cx="182.88" cy="133.22" r="4.99001"/>
  <circle class="cls-17" cx="133.08" cy="138.21001" r="4.99001"/>
  <circle class="cls-17" cx="117.12" cy="133.22" r="4.99"/>
  <circle class="cls-6" cx="212.50999" cy="96.11" r="7.9"/>
  <circle class="cls-6" cx="97.57" cy="96.11" r="7.9"/>
  <path class="cls-8" d="M105.73999,34.27002l-.01001,.01001c-2.04999,7.81-7.29999,17.04999-15.07996,25.56995-14.55005,15.93005-32.44,23.27002-39.96002,16.40002-7.51001-6.87-1.81-25.34998,12.73999-41.27002,9.08002-9.94,19.46002-16.53998,27.81-18.41998,5.03003-1.14001,9.32001-.56,12.15002,2.02002,3.48999,3.19,4.13,8.89996,2.34998,15.69Z"/>
  <path class="cls-13" d="M241.78999,186.83l36.99998-42.09,1.07999-27.05c.07733-1.933,1.707-3.43732,3.63998-3.36,1.93301,.07732,3.43735,1.707,3.36002,3.64h0l-.76999,19.35001,7.89999-8.14c1.23956-1.48324,3.44681-1.68079,4.93005-.44124,1.48322,1.23956,1.68079,3.44681,.44122,4.93005-.11392,.13629-.23804,.26372-.37128,.38118l-11.64001,12,8.60001-1.32001c1.91092-.29271,3.6973,1.01909,3.98999,2.93001,.29272,1.9109-1.01907,3.69728-2.92999,3.98999l-16.23001,2.48c-.17969,.01489-.36032,.01489-.54001,0-.13983,.00981-.28018,.00981-.42001,0l-32.79001,37.3c-1.27577,1.45251-3.48749,1.59578-4.93999,.31999-1.45251-1.27577-1.59578-3.48747-.32001-4.93999l.01007,.02Z"/>
  <path class="cls-18" d="M238.74001,152c-3.98122,6.98796-11.42772,11.27917-19.47,11.22H80.73c-8.04227,.05917-15.48879-4.23204-19.47001-11.22-1.59986,2.8248-2.51118,5.98701-2.66,9.23h-.05v4h.05c.5,11.36,10.2,20.44,22.13,20.44H219.27c11.93001,0,21.63-9.08,22.13-20.44h0v-4h0c-.14882-3.24298-1.06013-6.4052-2.66-9.23Z"/>
  <path class="cls-14" d="M102.15,185.64c-2.54306-3.79753-3.93232-8.25011-4-12.81999-.02396-3.38339,.87494-6.7093,2.6-9.62h-18.75c-1.72156,2.9117-2.61697,6.23753-2.59,9.62,.06824,4.56981,1.45746,9.02222,4,12.82001l18.74-.00002Z"/>
  <path class="cls-14" d="M76.54,185.25c-2.4784-3.94662-3.82091-8.50008-3.88-13.16-.03856-3.3521,.76609-6.66011,2.34-9.62-4.87545-1.23869-9.1847-4.0986-12.22-8.11-1.6339,2.04848-3.02953,4.27612-4.16,6.64-.00494,.08659-.00494,.1734,0,.25999h-.05v4h.05c.61161,10.01408,8.03204,18.29169,17.92,19.99001Z"/>
  <path class="cls-14" d="M225,162.47c1.58086,2.95805,2.39241,6.26617,2.36,9.62-.0591,4.65993-1.4016,9.21338-3.88,13.16,9.90869-1.70361,17.33528-10.01294,17.92-20.05h0v-4h0c.00494-.08659,.00494-.1734,0-.25999-1.14006-2.34744-2.54233-4.5582-4.17999-6.59-3.03371,4.01512-7.34314,6.87868-12.22,8.12Z"/>
  <path class="cls-14" d="M128.36,172.82001c-.0351-3.26833,.47523-6.51961,1.50999-9.62h-21.71999c-1.03476,3.10039-1.5451,6.35167-1.51,9.62,.00245,4.38112,.80214,8.7252,2.36,12.81999h21.72c-1.55786-4.09479-2.35756-8.43887-2.36-12.81999Z"/>
  <path class="cls-14" d="M216.53999,185.64c2.54254-3.79779,3.93175-8.2502,4-12.81999,.04213-3.37776-.83592-6.70329-2.53999-9.62001h-18.71001c1.72505,2.91069,2.62396,6.2366,2.60001,9.62-.06767,4.56989-1.45694,9.02246-4,12.81999l18.64999,.00002Z"/>
  <path class="cls-14" d="M191,185.64c1.55444-4.09541,2.35075-8.4395,2.35001-12.81999,.0351-3.26833-.47523-6.51961-1.50999-9.62h-21.71001c1.03476,3.10039,1.54509,6.35167,1.50999,9.62,.00075,4.38051-.79556,8.72458-2.35001,12.82001l21.71001-.00002Z"/>
  <path class="cls-14" d="M160.47,172.82001v-9.62001h-18.62v22.44h18.62v-12.81999Z"/>
  <path class="cls-8" d="M257.59998,199.96002l-11.02997,6.65997c-.73999,.44-1.65002,.66998-2.57001,.66998-.77002,0-1.53998-.15997-2.21997-.47998l-19.91003-9.59003-17.77997,9.5c-1.48004,.80005-3.53003,.75-4.95001-.09998l-15.08002-9.15002-14.84003,9.13c-1.52997,.94-3.76996,.92004-5.25995-.03998l-13.96002-9-13.96002,9c-1.48999,.96002-3.72998,.97998-5.25995,.03998l-14.84003-9.13-15.08002,9.15002c-1.41998,.84998-3.45996,.90002-4.95001,.09998l-17.77997-9.5-19.91003,9.59003c-.67999,.32001-1.44995,.47998-2.21997,.47998-.90997,0-1.83002-.22998-2.57001-.66998l-11.02997-6.65997c.16998-2.37,.50995-4.67999,1-6.92999,.09998,.03998,.19,.09998,.27997,.14996l12.59003,7.62,19.76001-9.51996c1.39996-.67004,3.23999-.64001,4.59998,.07996l17.5,9.35999,15.26001-9.25c1.5-.89996,3.67999-.89996,5.15997,.02002l14.77002,9.08002,14.02002-9.03998c1.64996-1.06006,4.17999-.96002,5.64996,.23999,.03003,.01996,.08002,.01996,.08002,.01996l13.60999,8.78003,14.77002-9.08002c1.47998-.91998,3.66998-.91998,5.15997-.02002l15.26001,9.25,17.5-9.35999c1.35999-.71997,3.20001-.75,4.59998-.07996l19.76001,9.51996,12.59003-7.62c.08997-.04999,.17999-.10999,.27997-.14996,.49005,2.25,.83002,4.56,1,6.92999Z"/>
  <path class="cls-13" d="M58.21,186.83l-37-42.09-1.08-27.05c-.07732-1.933-1.707-3.43732-3.64-3.36s-3.43732,1.707-3.36,3.64h0l.77,19.35001-7.9-8.14001c-1.23955-1.48324-3.44681-1.68079-4.93004-.44124-1.48324,1.23956-1.68078,3.44681-.44123,4.93005,.11391,.13629,.23802,.26372,.37127,.38118l11.64,12-8.64-1.29999c-1.92422-.18402-3.63328,1.2267-3.8173,3.15091-.1716,1.7944,1.04773,3.42566,2.8173,3.76909l16.23,2.48c.17969,.01489,.36031,.01489,.54,0,.13983,.00981,.28017,.00981,.42,0l32.81,37.3c1.27578,1.45251,3.48749,1.59578,4.94,.32001,1.45251-1.27579,1.59578-3.48749,.32-4.94h-.05Z"/>
  <path class="cls-9" d="M58.03998,191.84003c-4.32996,2.96997-13.70996,1.20996-23.34998-4.26001-2-1.14001-4.02002-2.44-6-3.89001-1.78998-1.31-3.54999-2.73999-5.26001-4.28998-.34998-.32001-.67999-.64001-.98999-.96002-2.20001-2.22003-3.53003-4.46002-4.22998-6.63-2.83002-8.76001,4.48999-16.40002,5.84998-17.64001,1.31-1.20001,8.90002-11.44,18.37-6.57996,1.91003,.96997,3.89001,2.56,5.91003,4.94995,1.31,1.55005,2.62994,3.42999,3.95996,5.70001,.73999,1.26001,1.42999,2.47003,2.08002,3.64001,1.29999,2.33997,2.42999,4.47998,3.39001,6.45001,7.42999,15.15997,5.32001,20.04999,.26996,23.51001Z"/>
  <rect class="cls-14" x="15.62852" y="139.1675" width="14.46099" height="25.66499" rx="7.23049" ry="7.23049" transform="translate(114.17548 28.356) rotate(45)"/>
  <path class="cls-8" d="M48.34003,152.53998l-25.90002,25.90002c-2.20001-2.22003-3.53003-4.46002-4.22998-6.63l24.21997-24.21997c1.91003,.96997,3.89001,2.56,5.91003,4.94995Z"/>
  <rect class="cls-14" x="42.27" y="279.34581" width="215.46001" height="9.78419"/>
  <path class="cls-9" d="M241.96002,191.84003c6.03998,4.13995,21.94-.93005,34.60999-12.44,.34998-.32001,.67999-.64001,.98999-.96002,2.20001-2.22003,3.53003-4.46002,4.22998-6.63,2.83002-8.76001-4.48999-16.40002-5.84998-17.64001-1.31-1.20001-8.90002-11.44-18.37-6.57996-1.91003,.96997-3.89001,2.56-5.91003,4.94995-1.31,1.55005-2.62994,3.42999-3.95996,5.70001-13.60999,23.29004-11.78003,29.46002-5.73999,33.60004Z"/>
  <rect class="cls-14" x="269.91049" y="139.1675" width="14.46099" height="25.66499" rx="7.23049" ry="7.23049" transform="translate(580.58949 63.51198) rotate(135)"/>
  <path class="cls-8" d="M251.65997,152.53998l25.90002,25.90002c2.20001-2.22003,3.53003-4.46002,4.22998-6.63l-24.21997-24.21997c-1.91003,.96997-3.89001,2.56-5.91003,4.94995Z"/>
  <g>
    <path class="cls-8" d="M156.46562,265.23001h-13.19833c-2.11196,0-3.66483-1.97994-3.16157-4.03106l3.67765-14.98889c.35722-1.4559,1.66249-2.47963,3.16157-2.47963h5.84304c1.49908,0,2.80435,1.02373,3.16157,2.47963l3.67765,14.98889c.50326,2.05112-1.04961,4.03106-3.16157,4.03106Z"/>
    <path class="cls-8" d="M178.0228,250.60507c-4.89142-2.69577-9.93464-8.65163-9.93464-8.65163,4.35485,.89088,6.70842-.16526,7.9581-1.35142,.72386-.687,.53698-1.89071-.36819-2.31099-3.45159-1.60291-10.88632-7.44778-10.88632-7.44778,6.14927,.55901,10.1781-5.10796,6.26488-4.92162-3.91308,.18634-21.05666-22.36103-21.05666-22.36103,0,0-17.14344,22.54736-21.05666,22.36103s.11561,5.48063,6.26502,4.92162c0,0-7.43486,5.84487-10.88645,7.44778-.90516,.42028-1.09191,1.62399-.36819,2.31099,1.24968,1.18617,3.60325,2.2423,7.9581,1.35142,0,0-5.04321,5.95586-9.93464,8.65163-1.74123,.95971-1.30817,3.58217,.64048,3.97728,4.53303,.9189,12.69828,1.71308,27.38234,1.71308s22.84945-.79418,27.38234-1.71308c1.94865-.39512,2.38185-3.01758,.64048-3.97728Z"/>
  </g>
  <rect class="cls-8" x="42.27002" y="270.01758" width="215.45999" height="5.41481"/>
  <path class="cls-5" d="M81.08002,49.02002c-1.75562-.37994-.86932-4.82843,1.04803-10.50098h-21.74841c-12.25842,15.02985-16.64893,31.36475-9.68964,37.73096,7.52002,6.87,25.40997-.46997,39.96002-16.40002,7.77997-8.51996,13.02997-17.75995,15.07996-25.56995-7.06,14.56-19.54999,15.85999-24.64996,14.73999Z"/>
  <path class="cls-4" d="M92.33002,32.13c-.89001,6.40002-4.64001,13.96997-10.78003,20.70001-10.82001,11.85999-24.95996,16.58997-31.58997,10.57001-.26001-.23004-.49005-.48004-.72003-.74005-.12-.12994-.23999-.27997-.35999-.42999-.02002-.02997-.04999-.07001-.08002-.10999-8.47998-10.67999-12.03998-49.67999-12.03998-49.67999,0,0,2.64996-.03998,6.77997,.02997,12.42999,.21002,38.29004,1.41003,45.29004,7.70001l-.01001,.01001c.10999,.09003,.21997,.17999,.32001,.27002,2.87,2.60999,3.85999,6.79999,3.19,11.67999Z"/>
  <path class="cls-16" d="M92.33002,32.13c-.89001,6.40002-4.64001,13.96997-10.78003,20.70001-10.82001,11.85999-24.95996,16.58997-31.58997,10.57001-.26001-.23004-.49005-.48004-.72003-.74005-.12-.12994-.23999-.27997-.35999-.42999-.02002-.02997-.04999-.07001-.08002-.10999-8.47998-10.67999-12.03998-49.67999-12.03998-49.67999,0,0,2.64996-.03998,6.77997,.02997,2.23004,11.21002,7.40002,31.11005,16.79004,37.82001,13.35999,9.55005,31.98999-18.16998,31.98999-18.16998l.01001,.01001Z"/>
  <circle class="cls-8" cx="36.76078" cy="12.43298" r="12.43298"/>
  <path class="cls-11" d="M57.77002,168.33002l-9.23999-1.10004-.47003,10.13c-.08002,1.57001-1.34998,2.82001-2.92999,2.85999l-10.44,.25v7.11005c-2-1.14001-4.02002-2.44-6-3.89001v-6.15002c0-1.63,1.29999-2.95996,2.92999-3l10.57001-.25,.5-10.56c.03998-.82996,.41998-1.60999,1.06-2.14996,.63-.54004,1.46002-.79004,2.28998-.69l8.34003,.98999c1.29999,2.33997,2.42999,4.47998,3.39001,6.45001Z"/>
  <path class="cls-11" d="M57.77002,168.33002l-9.23999-1.10004-.47003,10.13c-.08002,1.57001-1.34998,2.82001-2.92999,2.85999l-10.44,.25v7.11005c-2-1.14001-4.02002-2.44-6-3.89001v-6.15002c0-1.63,1.29999-2.95996,2.92999-3l10.57001-.25,.5-10.56c.03998-.82996,.41998-1.60999,1.06-2.14996,.63-.54004,1.46002-.79004,2.28998-.69l8.34003,.98999c1.29999,2.33997,2.42999,4.47998,3.39001,6.45001Z"/>
  <path class="cls-11" d="M242.22998,168.33002l9.23999-1.10004,.47003,10.13c.08002,1.57001,1.34998,2.82001,2.92999,2.85999l10.44,.25v7.11005c2-1.14001,4.02002-2.44,6-3.89001v-6.15002c0-1.63-1.29999-2.95996-2.92999-3l-10.57001-.25-.5-10.56c-.03998-.82996-.41998-1.60999-1.06-2.14996-.63-.54004-1.46002-.79004-2.28998-.69l-8.34003,.98999c-1.29999,2.33997-2.42999,4.47998-3.39001,6.45001Z"/>
  <g>
    <line class="cls-1" x1="82.70855" y1="260.74912" x2="82.70855" y2="242.68818"/>
    <line class="cls-1" x1="73.67808" y1="251.71865" x2="91.73903" y2="251.71865"/>
    <line class="cls-1" x1="76.32305" y1="258.10415" x2="89.09406" y2="245.33314"/>
    <line class="cls-1" x1="76.32305" y1="245.33314" x2="89.09406" y2="258.10415"/>
  </g>
  <g>
    <line class="cls-2" x1="62.98591" y1="232.60933" x2="62.98591" y2="214.77571"/>
    <line class="cls-2" x1="54.0691" y1="223.69252" x2="71.90272" y2="223.69252"/>
    <line class="cls-2" x1="56.68078" y1="229.99766" x2="69.29105" y2="217.38738"/>
    <line class="cls-2" x1="56.68078" y1="217.38738" x2="69.29105" y2="229.99766"/>
  </g>
  <g>
    <line class="cls-1" x1="102.87642" y1="233.685" x2="102.87642" y2="214.48057"/>
    <line class="cls-1" x1="93.27421" y1="224.08278" x2="112.47864" y2="224.08278"/>
    <line class="cls-1" x1="96.08663" y1="230.87257" x2="109.66621" y2="217.29299"/>
    <line class="cls-1" x1="96.08663" y1="217.29299" x2="109.66621" y2="230.87257"/>
  </g>
  <g>
    <line class="cls-1" x1="217.29145" y1="260.74912" x2="217.29145" y2="242.68818"/>
    <line class="cls-1" x1="226.32192" y1="251.71865" x2="208.26097" y2="251.71865"/>
    <line class="cls-1" x1="223.67695" y1="258.10415" x2="210.90594" y2="245.33314"/>
    <line class="cls-1" x1="223.67695" y1="245.33314" x2="210.90594" y2="258.10415"/>
  </g>
  <g>
    <line class="cls-2" x1="237.01409" y1="232.60933" x2="237.01409" y2="214.77571"/>
    <line class="cls-2" x1="245.9309" y1="223.69252" x2="228.09728" y2="223.69252"/>
    <line class="cls-2" x1="243.31922" y1="229.99766" x2="230.70895" y2="217.38738"/>
    <line class="cls-2" x1="243.31922" y1="217.38738" x2="230.70895" y2="229.99766"/>
  </g>
  <g>
    <line class="cls-1" x1="197.12358" y1="233.685" x2="197.12358" y2="214.48057"/>
    <line class="cls-1" x1="206.72579" y1="224.08278" x2="187.52136" y2="224.08278"/>
    <line class="cls-1" x1="203.91337" y1="230.87257" x2="190.33379" y2="217.29299"/>
    <line class="cls-1" x1="203.91337" y1="217.29299" x2="190.33379" y2="230.87257"/>
  </g>
</svg>