<?xml version="1.0" encoding="UTF-8" standalone="no"?>
<svg
   viewBox="0 0 300 345"
   version="1.1"
   id="svg14222"
   sodipodi:docname="Reindeer2.svg"
   xml:space="preserve"
   inkscape:version="1.2 (dc2aedaf03, 2022-05-15)"
   xmlns:inkscape="http://www.inkscape.org/namespaces/inkscape"
   xmlns:sodipodi="http://sodipodi.sourceforge.net/DTD/sodipodi-0.dtd"
   xmlns:xlink="http://www.w3.org/1999/xlink"
   xmlns="http://www.w3.org/2000/svg"
   xmlns:svg="http://www.w3.org/2000/svg"><sodipodi:namedview
     id="namedview14224"
     pagecolor="#505050"
     bordercolor="#ffffff"
     borderopacity="1"
     inkscape:showpageshadow="0"
     inkscape:pageopacity="0"
     inkscape:pagecheckerboard="1"
     inkscape:deskcolor="#505050"
     showgrid="false"
     inkscape:zoom="0.97470288"
     inkscape:cx="180.05487"
     inkscape:cy="208.2686"
     inkscape:window-width="1366"
     inkscape:window-height="705"
     inkscape:window-x="-8"
     inkscape:window-y="-8"
     inkscape:window-maximized="1"
     inkscape:current-layer="svg14222" /><defs
     id="defs14164"><linearGradient
       inkscape:collect="always"
       id="linearGradient33444"><stop
         style="stop-color:#9f6147;stop-opacity:1;"
         offset="0.32231405"
         id="stop33440" /><stop
         style="stop-color:#c88264;stop-opacity:1;"
         offset="1"
         id="stop33442" /></linearGradient><linearGradient
       id="linearGradient30341"
       x1="262.25"
       y1="228.96001"
       x2="277.17999"
       y2="283.47"
       gradientUnits="userSpaceOnUse"><stop
         offset="0"
         stop-color="#fabc2e"
         stop-opacity=".1"
         id="stop30337"
         style="stop-color:#9a5b3c;stop-opacity:0.10843375;" /><stop
         offset="1"
         stop-color="#f27ba5"
         id="stop30339" /></linearGradient><linearGradient
       id="A"
       x1="150"
       y1="356.11"
       x2="150"
       y2="161.16"
       gradientUnits="userSpaceOnUse"><stop
         offset="0"
         stop-color="#995b3c"
         id="stop14159" /><stop
         offset=".69"
         stop-color="#51291b"
         id="stop14161" /></linearGradient><linearGradient
       id="C"
       x1="42.75"
       y1="221.67999"
       x2="19.530001"
       y2="288.92999"
       xlink:href="#linearGradient30341"
       gradientTransform="translate(3.7e-6,-13.462121)" /><linearGradient
       id="B"
       x1="262.25"
       y1="228.96001"
       x2="277.17999"
       y2="283.47"
       gradientUnits="userSpaceOnUse"><stop
         offset="0"
         stop-color="#fabc2e"
         stop-opacity=".1"
         id="stop16297"
         style="stop-color:#9a5b3c;stop-opacity:0.10980392;" /><stop
         offset="1"
         stop-color="#f27ba5"
         id="stop16299" /></linearGradient><linearGradient
       inkscape:collect="always"
       xlink:href="#B"
       id="linearGradient29473"
       gradientUnits="userSpaceOnUse"
       x1="262.25"
       y1="228.96001"
       x2="277.17999"
       y2="283.47"
       gradientTransform="translate(3.7e-6,-13.462121)" /><linearGradient
       inkscape:collect="always"
       xlink:href="#linearGradient33444"
       id="linearGradient33446"
       x1="150"
       y1="298.39999"
       x2="150"
       y2="345"
       gradientUnits="userSpaceOnUse" /><filter
       inkscape:collect="always"
       style="color-interpolation-filters:sRGB"
       id="filter34222"
       x="-0.14994331"
       y="-0.17136379"
       width="1.2998866"
       height="1.3427276"><feGaussianBlur
         inkscape:collect="always"
         stdDeviation="4.5024847"
         id="feGaussianBlur34224" /></filter><filter
       inkscape:collect="always"
       style="color-interpolation-filters:sRGB"
       id="filter34228"
       x="-0.17113239"
       y="-0.19557988"
       width="1.3422648"
       height="1.3911598"><feGaussianBlur
         inkscape:collect="always"
         stdDeviation="5.1387488"
         id="feGaussianBlur34230" /></filter></defs><path
     d="M263.62,345H36.38A36.38,36.38,0,0,1,0,308.62V259.14H300v49.48A36.38,36.38,0,0,1,263.62,345Z"
     fill="url(#A)"
     id="path14166" /><path
     id="rect14366"
     style="fill:#9a5b3c"
     class="cls-2"
     d="M 36.380001,60.889557 H 263.62 c 20.15452,0 36.38,16.22548 36.38,36.380001 V 262.82748 c 0,20.15452 -16.22548,36.38001 -36.38,36.38001 H 36.380001 C 16.22548,299.20749 0,282.982 0,262.82748 V 97.269558 C 0,77.115037 16.22548,60.889557 36.380001,60.889557 Z"
     sodipodi:nodetypes="sssssssss" /><path
     d="m 63,51.3 c 0,23.17 -30.84,59.55 -30.84,59.55 0,0 -30.9,-21.27 -30.9,-43.48 0,-12.42 10,-45 18.5,-59.6 a 14.66,14.66 0 0 1 25.33,0 c 0,0 17.91,30.56 17.91,43.53 z m 235.74,15.57 c 0,22.2 -30.9,43.47 -30.9,43.47 0,0 -30.84,-36.41 -30.84,-59.57 0,-13 17.9,-43.5 17.9,-43.5 a 14.67,14.67 0 0 1 25.33,0 c 8.5,14.6 18.5,47.18 18.5,59.6 z"
     fill="#995b3c"
     id="path14198"
     style="display:none" /><path
     d="M83.56 115.45c5.33 13.54 5.13 29.38-11.14 35.08S45 144.35 39.7 130.8s.17-27.95 12.28-32.2 26.24 3.3 31.57 16.84zm132.88 0c-5.33 13.54-5.13 29.38 11.14 35.08s27.38-6.18 32.7-19.72-.17-27.95-12.28-32.2-26.24 3.3-31.57 16.84z"
     fill="#7d4429"
     id="path14208" /><path
     d="M78.52 117.27c4.28 10.87 4.12 23.6-8.94 28.17s-22-5-26.26-15.83.13-22.44 9.85-25.85 21.07 2.65 25.35 13.5zm142.96 0c-4.28 10.87-4.12 23.6 8.94 28.17s22-5 26.26-15.83-.13-22.44-9.85-25.85-21.07 2.65-25.35 13.5z"
     fill="#663723"
     id="path14210" /><path
     d="M104.3 86.82c-16.32 5.87-25.78-4.14-33 3.8-4.5 5-3.27 10-1 15.2a12.85 12.85 0 0 1 1-1.21c7.2-7.93 16.65 2.08 33-3.8 10.28-3.7 21.87-30.87 18.43-47.45-2.33 14.8-10.73 30.7-18.43 33.46zm-64.1 13.42c-4-24.86-26.8-15.42-31.14-38.7a137.84 137.84 0 0 1-2-16.53 129 129 0 0 0 2 30.58c4.35 23.3 30.48 13.85 34.47 38.7M195.7 86.82c16.32 5.87 25.78-4.14 33 3.8 4.5 5 3.27 10 1 15.2a12.85 12.85 0 0 0-1-1.21c-7.2-7.93-16.65 2.08-33-3.8-10.28-3.7-21.87-30.87-18.43-47.45 2.33 14.8 10.73 30.7 18.43 33.46zm64.1 13.42c4-24.86 26.8-15.42 31.14-38.7A139.73 139.73 0 0 0 293 45a129.44 129.44 0 0 1-2 30.58c-4.34 23.3-30.48 13.85-34.47 38.7"
     fill="#7b412e"
     id="path14212" /><path
     d="M63.18 138.85c-10 0-22.42-10.06-27-38.3-1.96-11.7-8.37-15.1-15.18-18.72S6.76 74.25 4.42 61.9c-.74-3.85-6.83-38.06 4.46-53a16.14 16.14 0 0 1 11.78-6.7c.58 0 1.15-.08 1.7-.08 13 0 14.15 14.18 15.2 26.68 1.13 13.46 2.36 21.63 9.9 21.63h.2c5.6-.1 6.17-6.73 6.45-17.64.28-11.1.62-24.9 13.45-25.54h1.34c18.5 0 18.6 19 18.65 32.87C87.58 46.57 87.6 54 90 54h.3c3.83-.46 5.24-5 7-11.93C99 35 101 26.94 109 26.94a15.59 15.59 0 0 1 5.38 1.1c7.16 2.66 11.07 9.9 11 20.4C125.26 65.6 114.8 87.5 105 91a34.5 34.5 0 0 1-11.84 2.1 57.68 57.68 0 0 1-8.72-.8 39.19 39.19 0 0 0-5.52-.57 7.42 7.42 0 0 0-6.11 2.56c-4.3 4.75-2.47 9.3.9 16.3 2.5 5.23 5.36 11.17 3.58 17.53a14.5 14.5 0 0 1-14.1 10.72z"
     fill="#fbe2cd"
     id="path14214" /><path
     d="M22.36 4.07c21.85 0 4.85 48.3 25.1 48.3h.22c16.76-.3-.86-42.15 20-43.18h1.24C96 9.17 78.77 56 90 56h.55c11.3-1.38 6-27 18.36-27a13.57 13.57 0 0 1 4.69 1c20.42 7.6 4.38 54.3-9.34 59.24a32.44 32.44 0 0 1-11.1 1.86c-5.7 0-10.32-1.37-14.24-1.37a9.43 9.43 0 0 0-7.59 3.21c-9.8 10.8 7.57 22 4 34.66a12.55 12.55 0 0 1-12.18 9.25c-9.14 0-20.62-9.43-25.07-36.6C34 75.38 10.8 84.82 6.38 61.53 3 43.62.58 6 20.85 4.14c.52 0 1-.07 1.5-.07m0-4c-.6 0-1.24 0-1.88.1a18.05 18.05 0 0 0-13.2 7.49C-4.52 23.33 1.7 58.33 2.45 62.27 5 75.57 13 79.84 20.1 83.6c6.88 3.66 12.32 6.55 14.08 17.27 2.15 13.16 6 23.37 11.6 30.35 4.93 6.2 11.1 9.62 17.42 9.62a16.48 16.48 0 0 0 16-12.18c2-7.1-1-13.38-3.7-18.94-3.45-7.18-4.52-10.46-1.22-14.1a5.47 5.47 0 0 1 4.63-1.9 37.6 37.6 0 0 1 5.23.55 60.73 60.73 0 0 0 9 .82 36.11 36.11 0 0 0 12.49-2.19c11.58-4.16 21.6-27.92 21.7-44.46.06-11.4-4.32-19.3-12.32-22.3a17.42 17.42 0 0 0-5.99-1.22c-9.48 0-11.85 9.6-13.6 16.6-1.4 5.65-2.64 9.74-4.97 10.36-.84-1.9-.87-7.85-.9-11.9 0-7.1-.07-15.17-2.38-21.82-3-8.54-9.28-13-18.27-13h-1.44c-4.57.23-10.6 2.24-13.38 10.54-1.67 5-1.82 11.08-2 16.95C52 37.5 51.87 42 51 45.15c-.88 3-2 3.2-3.33 3.23h-.15c-5.4 0-6.75-5.83-7.92-19.8-.53-6.35-1.08-12.92-3.06-18.13C33.2 1.87 27 .07 22.36.07z"
     fill="#aa7750"
     id="path14216" /><path
     d="M236.82 138.85a14.5 14.5 0 0 1-14.1-10.72c-1.78-6.36 1.07-12.3 3.58-17.53 3.36-7 5.2-11.56.9-16.3a7.42 7.42 0 0 0-6.11-2.56 39.19 39.19 0 0 0-5.52.57 59 59 0 0 1-8.72.8A34.5 34.5 0 0 1 195 91c-9.8-3.53-20.28-25.42-20.37-42.6-.05-10.5 3.86-17.74 11-20.4a15.59 15.59 0 0 1 5.38-1.1c8 .03 10 8.1 11.7 15.1 1.7 6.9 3.12 11.47 7 11.93h.3c2.43 0 2.46-7.4 2.5-13.94.06-13.88.15-32.87 18.65-32.87h1.34c12.83.64 13.17 14.44 13.45 25.54.28 10.9.85 17.54 6.45 17.64h.2c7.55 0 8.78-8.17 9.9-21.63C263.54 16.16 264.72 2 277.7 2c.55 0 1.12 0 1.7.08a16.14 16.14 0 0 1 11.78 6.7c11.3 15 5.2 49.2 4.46 53.05-2.34 12.35-9.92 16.4-16.6 19.94s-13.2 7-15.1 18.72c-4.67 28.3-17.05 38.37-27.1 38.37z"
     fill="#fbe2cd"
     id="path14218" /><path
     d="M277.64 4.07l1.5.07C299.42 6 297 43.62 293.62 61.53c-4.43 23.3-27.66 13.85-31.73 38.7-4.45 27.18-15.93 36.6-25.07 36.6a12.55 12.55 0 0 1-12.18-9.25c-3.54-12.68 13.82-23.86 4-34.66a9.43 9.43 0 0 0-7.59-3.21c-3.92 0-8.55 1.37-14.24 1.37a32.44 32.44 0 0 1-11.14-1.95c-13.67-4.93-29.73-51.65-9.3-59.24a13.57 13.57 0 0 1 4.69-1c12.35 0 7 25.63 18.36 27h.55c11.27 0-6-46.82 21.14-46.82h1.24c20.83 1 3.2 42.9 20 43.18h.22c20.26 0 3.26-48.3 25.1-48.3m0-4c-4.64 0-10.85 1.8-14.13 10.4-2 5.2-2.53 11.77-3.06 18.12-1.17 14-2.53 19.8-7.92 19.8h-.15c-1.3 0-2.45-.28-3.33-3.23-.92-3.12-1-7.66-1.16-12.46-.15-5.87-.3-11.94-2-16.95-2.77-8.3-8.8-10.3-13.38-10.54h-1.44c-9 0-15.3 4.5-18.27 13-2.3 6.66-2.35 14.72-2.38 21.83 0 4 0 10-.9 11.88-2.33-.62-3.52-4.7-4.9-10.36-1.74-7-4.1-16.6-13.6-16.6a17.42 17.42 0 0 0-6.05 1.33c-8 3-12.38 10.9-12.32 22.3.1 16.54 10.12 40.3 21.7 44.46a36.11 36.11 0 0 0 12.49 2.19 60.73 60.73 0 0 0 9-.82 37.6 37.6 0 0 1 5.23-.55 5.47 5.47 0 0 1 4.63 1.9c3.3 3.64 2.23 6.92-1.22 14.1-2.66 5.56-5.68 11.85-3.7 18.94a16.48 16.48 0 0 0 16 12.18c6.3 0 12.5-3.4 17.42-9.62 5.54-7 9.44-17.2 11.6-30.35 1.76-10.72 7.2-13.6 14.08-17.27 7.08-3.77 15.1-8 17.64-21.34.75-3.94 7-38.94-4.83-54.62A18.05 18.05 0 0 0 279.52.16c-.64-.06-1.27-.1-1.88-.1z"
     fill="#aa7750"
     id="path14220" /><ellipse
     cx="271.63"
     cy="249.78789"
     rx="17.59"
     ry="13.87"
     fill="url(#B)"
     id="ellipse16309"
     style="fill:url(#linearGradient29473)" /><ellipse
     cx="28.369999"
     cy="249.78789"
     rx="17.59"
     ry="13.87"
     fill="url(#C)"
     id="ellipse16311"
     style="fill:url(#C)" /><path
     d="m 105.54939,298.4 h 88.90122 c 9.74025,29.41469 18.35467,29.1137 43.93939,46.6 H 61.609999 c 23.781282,-12.17544 34.140612,-23.41759 43.939391,-46.6 z"
     fill="#e29a25"
     id="path16337"
     style="fill:url(#linearGradient33446);fill-opacity:1"
     sodipodi:nodetypes="ccccc" /><path
     id="path19546"
     style="fill:#df9c7f;fill-opacity:1;fill-rule:evenodd;stroke-width:1.1018"
     d="M 150 131.12109 A 68.275589 92.58606 0 0 0 81.724609 223.70703 A 68.275589 92.58606 0 0 0 102.02539 289.53516 C 108.90542 303.56284 122.72911 313.51012 139.07422 314.95898 A 68.275589 92.58606 0 0 0 150 316.29492 A 68.275589 92.58606 0 0 0 160.92578 314.95898 C 177.27089 313.51012 191.09458 303.56284 197.97461 289.53516 A 68.275589 92.58606 0 0 0 218.27539 223.70703 A 68.275589 92.58606 0 0 0 150 131.12109 z " /><circle
     cx="247.53006"
     cy="192.29391"
     r="43.149063"
     id="circle16519"
     style="fill:#3f2115;fill-opacity:1;stroke-width:0.977328" /><circle
     cx="247.53006"
     cy="202.06721"
     r="43.149063"
     id="circle16319"
     style="fill:#ffffff;stroke-width:0.977328" /><circle
     cx="52.470001"
     cy="192.29385"
     r="43.149071"
     id="circle17763"
     style="fill:#4b291a;fill-opacity:1;stroke-width:0.977329" /><circle
     cx="52.470001"
     cy="202.06714"
     r="43.149071"
     id="circle16321"
     style="fill:#ffffff;stroke-width:0.977329" /><path
     d="m 127.09218,285.52039 c 0,0 2.76615,13.26148 23.16395,13.26148 20.39779,0 22.6312,-14.35306 22.6312,-14.35306 l -24.19869,-10.18029 z"
     fill="#f38db6"
     id="path20182"
     style="fill:#dd3031;fill-opacity:1;stroke-width:0.890581" /><path
     d="m 127.31757,282.88048 c 0,0 0,17.10135 22.67219,17.10135 22.67218,0 22.67218,-17.10135 22.67218,-17.10135"
     fill="none"
     stroke="#15141a"
     stroke-linecap="round"
     stroke-miterlimit="10"
     stroke-width="10.687"
     id="path20184"
     style="stroke:#502c1c;stroke-width:5.087;stroke-dasharray:none;stroke-opacity:1" /><path
     d="m 186.09314,279.04835 c -22.14969,12.07701 -36.10338,-8.11327 -36.10338,-8.11327 v 0 c 0,0 -13.94345,20.19028 -36.0829,8.11327"
     fill="none"
     stroke="#15141a"
     stroke-linecap="round"
     stroke-miterlimit="10"
     stroke-width="10.687"
     id="path20186"
     style="stroke:#502c1c;stroke-width:6.387;stroke-dasharray:none;stroke-opacity:1" /><path
     d="m 270.84075,198.15631 a 19.331521,19.331521 0 0 1 -28.07909,-26.15794 33.975146,33.975146 0 0 0 -4.72418,-0.33835 33.600597,33.600597 0 1 0 32.80327,26.58085 z m -46.87899,28.99734 a 7.9863338,7.9863338 0 1 1 7.97423,-7.97434 7.9863338,7.9863338 0 0 1 -7.97423,7.97434 z"
     id="path16517"
     style="stroke-width:1.20817;fill:#414042;fill-opacity:1" /><path
     style="opacity:1;fill:none;fill-opacity:1;stroke:#502c1c;stroke-width:6.387;stroke-linecap:round;stroke-dasharray:none;stroke-opacity:1;paint-order:stroke fill markers;stop-color:#000000"
     d="M 150,270.35282 V 248.32818"
     id="path34088"
     sodipodi:nodetypes="cc" /><ellipse
     style="display:none;mix-blend-mode:normal;fill:#f63d23;fill-opacity:0.480392;fill-rule:evenodd;stroke-width:1.04221;filter:url(#filter34228)"
     id="ellipse34226"
     cx="150"
     cy="233.71538"
     rx="36.033497"
     ry="31.529308"
     transform="matrix(1.3119894,0,0,1.3119894,-46.798406,-72.916714)" /><path
     id="ellipse34232"
     style="fill:#e32800;fill-opacity:1;fill-rule:evenodd;stroke-width:1.04221"
     d="M 185.83984 230.51758 A 36.033497 28.223631 0 0 1 150 256.63281 A 36.033497 28.223631 0 0 1 114.18555 230.80078 A 36.033497 31.529308 0 0 0 113.9668 233.71484 A 36.033497 31.529308 0 0 0 150 265.24414 A 36.033497 31.529308 0 0 0 186.0332 233.71484 A 36.033497 31.529308 0 0 0 185.83984 230.51758 z " /><ellipse
     style="fill:#ff502b;fill-opacity:1;fill-rule:evenodd;stroke-width:1.04221"
     id="path18714"
     cx="150"
     cy="233.71538"
     rx="36.033497"
     ry="31.529308" /><path
     id="ellipse34238"
     style="fill:#e30000;fill-opacity:0.33333337;fill-rule:evenodd;stroke-width:1.04221"
     d="M 185.67188 229.2793 A 36.033497 27.27915 0 0 1 150 252.74414 A 36.033497 27.27915 0 0 1 114.33398 229.34375 A 36.033497 31.529308 0 0 0 113.9668 233.71484 A 36.033497 31.529308 0 0 0 150 265.24414 A 36.033497 31.529308 0 0 0 186.0332 233.71484 A 36.033497 31.529308 0 0 0 185.67188 229.2793 z " /><ellipse
     style="mix-blend-mode:normal;fill:#ffc088;fill-opacity:0.308824;fill-rule:evenodd;stroke-width:1.04221;filter:url(#filter34222)"
     id="ellipse34216"
     cx="150"
     cy="233.71538"
     rx="36.033497"
     ry="31.529308"
     transform="matrix(0.75802978,0,0,0.75802978,36.295533,56.552162)"
     sodipodi:insensitive="true" /><ellipse
     style="fill:#ffffff;fill-opacity:1;fill-rule:evenodd;stroke-width:0.353353"
     id="path19544"
     cx="222.94958"
     cy="156.95091"
     rx="10.509769"
     ry="8.0459471"
     transform="rotate(17.658995)" /><path
     d="m 94.877628,198.15631 a 19.331521,19.331521 0 0 1 -28.07909,-26.15794 33.975146,33.975146 0 0 0 -4.72418,-0.33835 33.600597,33.600597 0 1 0 32.80327,26.58085 z m -46.87899,28.99734 a 7.9863338,7.9863338 0 1 1 7.97423,-7.97434 7.9863338,7.9863338 0 0 1 -7.97423,7.97434 z"
     id="path27250"
     style="stroke-width:1.20817;fill:#414042;fill-opacity:1" /><path
     id="path35031"
     style="fill:#fe3d20;fill-opacity:0.681373;fill-rule:evenodd;stroke-width:0.811106"
     d="m 88.050713,203.625 a 17.216719,16.106852 0 0 0 -17.216797,16.10742 17.216719,16.106852 0 0 0 8.404297,13.80469 33.600597,33.600597 0 0 0 16.380859,-28.26758 17.216719,16.106852 0 0 0 -7.568359,-1.64453 z" /><path
     id="path35657"
     style="fill:#fe3d20;fill-opacity:0.681373;fill-rule:evenodd;stroke-width:0.811106;stroke:none;stroke-opacity:0.68235296"
     d="M 211.94922 203.625 A 17.216719 16.106852 0 0 0 204.98438 205.03125 A 33.600597 33.600597 0 0 0 206.86133 217.36328 A 33.600597 33.600597 0 0 0 207.72461 219.23242 A 33.600597 33.600597 0 0 0 215.61133 229.74414 A 33.600597 33.600597 0 0 0 219.01562 232.38281 A 33.600597 33.600597 0 0 0 221.07227 233.33789 A 17.216719 16.106852 0 0 0 227.67969 226.19336 A 7.9863338 7.9863338 0 0 1 223.96094 227.1543 A 7.9863338 7.9863338 0 1 1 227.38477 212.60547 A 17.216719 16.106852 0 0 0 211.94922 203.625 z " /></svg>
