<svg id="Layer_1" data-name="Layer 1" xmlns="http://www.w3.org/2000/svg" xmlns:xlink="http://www.w3.org/1999/xlink" viewBox="0 0 300 345"><defs><style>.cls-1{fill:url(#linear-gradient);}.cls-2{fill:#ecf7fe;}.cls-17,.cls-3{fill:none;stroke-miterlimit:10;}.cls-3{stroke:#6eb8cc;stroke-width:10px;}.cls-4{fill:#ffcd05;}.cls-5{fill:#ad1d25;}.cls-6{fill:#6eb8cc;}.cls-10,.cls-11,.cls-6,.cls-8{fill-opacity:0.5;}.cls-7{fill:#ffebd1;}.cls-8,.cls-9{fill:#cd8029;}.cls-10{fill:url(#radial-gradient);}.cls-11{fill:url(#radial-gradient-2);}.cls-12{fill:#fabc2e;}.cls-13{fill:#fff;}.cls-14{fill:#414042;}.cls-15{fill:#9dc6ea;opacity:0.5;}.cls-16{fill:#9a3e21;}.cls-17{stroke:#9a3e21;stroke-width:6px;}.cls-18{fill:#d62027;}.cls-19{fill:#c7eaf7;}</style><linearGradient id="linear-gradient" x1="150" y1="356.11" x2="150" y2="161.16" gradientUnits="userSpaceOnUse"><stop offset="0" stop-color="#ed1c24"/><stop offset="0.34" stop-color="#9a1c25"/></linearGradient><radialGradient id="radial-gradient" cx="257.16" cy="243.38" r="41.85" gradientUnits="userSpaceOnUse"><stop offset="0.21" stop-color="#ec008c"/><stop offset="0.3" stop-color="#ec0489" stop-opacity="0.98"/><stop offset="0.4" stop-color="#ed1081" stop-opacity="0.92"/><stop offset="0.51" stop-color="#ef2474" stop-opacity="0.82"/><stop offset="0.62" stop-color="#f24062" stop-opacity="0.69"/><stop offset="0.74" stop-color="#f5644a" stop-opacity="0.51"/><stop offset="0.86" stop-color="#f9902d" stop-opacity="0.3"/><stop offset="0.98" stop-color="#fec30b" stop-opacity="0.05"/><stop offset="1" stop-color="#ffcd05" stop-opacity="0"/></radialGradient><radialGradient id="radial-gradient-2" cx="42.84" cy="243.38" r="41.85" xlink:href="#radial-gradient"/></defs><title>blook_santa-claus</title><path class="cls-1" d="M263.62,345H36.38A36.38,36.38,0,0,1,0,308.62V259.14H300v49.48A36.38,36.38,0,0,1,263.62,345Z"/><rect class="cls-2" x="97.65" y="298.35" width="104.7" height="46.65"/><line class="cls-3" x1="150" y1="288.99" x2="150" y2="345"/><rect class="cls-4" y="45" width="300" height="253.39" rx="36.38"/><path class="cls-5" d="M120.23,301.82a5.17,5.17,0,0,0-5.35-4.88C84.5,298,50.3,299.7,32.68,292.71A50.3,50.3,0,0,1,9.45,274.6,5.17,5.17,0,0,0,0,277.51v1a35.29,35.29,0,0,0,2.43,12.92,5.49,5.49,0,0,1,.38,1.84c.38,16.31,11.49,26.06,16.5,29.63a5.11,5.11,0,0,0,5,.53,48.19,48.19,0,0,0,4.87-2.45,5.17,5.17,0,0,1,7,1.71,42.47,42.47,0,0,0,5.75,7.2,5.13,5.13,0,0,0,6.06.95c1.25-.64,2.75-1.46,4.35-2.43a5.19,5.19,0,0,1,7.47,2.55l0,.11a5.16,5.16,0,0,0,5.16,3.2c7.43-.52,24-2.54,29.08-10.18.1-.15.18-.3.27-.45a22.66,22.66,0,0,0,3.31,2.33V301.82Z"/><path class="cls-5" d="M290.55,274.37a50.36,50.36,0,0,1-23.23,18.11c-17.62,7-51.82,5.32-82.2,4.23a5.17,5.17,0,0,0-5.36,5.11h22.59V325.7a22.66,22.66,0,0,0,3.31-2.33c.09.15.17.29.27.44,5,7.65,21.65,9.67,29.08,10.19a5.16,5.16,0,0,0,5.16-3.2l0-.11a5.18,5.18,0,0,1,7.47-2.55c1.6,1,3.1,1.78,4.35,2.43a5.13,5.13,0,0,0,6.06-.95,42.47,42.47,0,0,0,5.75-7.2,5.16,5.16,0,0,1,7-1.71,48.19,48.19,0,0,0,4.87,2.45,5.13,5.13,0,0,0,5-.53c5-3.57,16.12-13.32,16.5-29.63a5.6,5.6,0,0,1,.38-1.85A35.24,35.24,0,0,0,300,278.24v-1A5.17,5.17,0,0,0,290.55,274.37Z"/><path class="cls-6" d="M189.09,298.35H110.91c-.17,1.14-.29,2.3-.36,3.47H97.65v24.11c.69.41,1.36.77,1.93,1a5.17,5.17,0,0,0,4.22.11,25.77,25.77,0,0,0,8.74-5.95,98.58,98.58,0,0,0,3.79,11.76s4-.06,9.36-.72A154.23,154.23,0,0,0,139.55,345h20.9a154.23,154.23,0,0,0,13.86-12.83c5.35.66,9.36.72,9.36.72A99.59,99.59,0,0,0,187.5,321a26.08,26.08,0,0,0,8.7,5.9,5.17,5.17,0,0,0,4.22-.11c.57-.28,1.24-.63,1.93-1V301.82h-12.9C189.38,300.65,189.26,299.49,189.09,298.35Z"/><path class="cls-7" d="M187.7,291.9a37.7,37.7,0,0,0-75.4,0c0,.34,0,.68.06,1-.66,11.26,5.52,26.4,5.52,26.4s3.83-.07,8.93-.7A161.6,161.6,0,0,0,150,338.47a161.6,161.6,0,0,0,23.19-19.86c5.1.63,8.93.7,8.93.7s6.18-15.14,5.52-26.4C187.66,292.58,187.7,292.24,187.7,291.9Z"/><path class="cls-7" d="M120.23,281.32c-31.63,1.05-68.89,3.35-87.55-4.05C1.57,264.94,0,233.51,0,233.51V263a35.21,35.21,0,0,0,2.8,13.79C2.75,298.56,21.71,309,21.71,309a44.43,44.43,0,0,0,12.09-6.62C36.44,310.11,44.64,317,44.64,317a77.15,77.15,0,0,0,13.07-7.65A57.26,57.26,0,0,0,61.33,319s26.17-.41,32.74-10.37c.1-.15.18-.3.27-.44a24.59,24.59,0,0,0,7.39,4.26C123,305.18,120.23,281.32,120.23,281.32Z"/><path class="cls-7" d="M300,233.28s-1.57,31.43-32.68,43.76c-18.66,7.4-55.92,5.09-87.55,4,0,0-2.79,23.86,18.5,31.11a24.59,24.59,0,0,0,7.39-4.26c.09.14.17.29.27.44,6.57,10,32.74,10.36,32.74,10.36a57.26,57.26,0,0,0,3.62-9.63,77.6,77.6,0,0,0,13.07,7.66s8.2-6.89,10.84-14.64a44.29,44.29,0,0,0,12.09,6.63s19-10.43,18.92-32.16A35.39,35.39,0,0,0,300,262.8Z"/><path class="cls-8" d="M208.75,263.89s1.63,11.24-9.78,8.95c-10.69-2.15-4.83-12-19.56-21.25A26,26,0,0,0,160.8,248a14,14,0,0,0-10.8,7.85A14,14,0,0,0,139.2,248a26,26,0,0,0-18.61,3.58c-14.73,9.21-8.87,19.1-19.56,21.25-11.41,2.29-9.78-8.95-9.78-8.95s-9.43,16.08,11.2,20.95c8.34,2,32.07.45,42.5-9a19.87,19.87,0,0,0,5.05-7.1,19.87,19.87,0,0,0,5.05,7.1c10.43,9.43,34.16,10.94,42.5,9C218.18,280,208.75,263.89,208.75,263.89Z"/><path class="cls-7" d="M208.75,254s1.63,11.24-9.78,8.94c-10.69-2.15-4.83-12-19.56-21.24a25.92,25.92,0,0,0-18.61-3.58A14,14,0,0,0,150,246a14,14,0,0,0-10.8-7.84,25.92,25.92,0,0,0-18.61,3.58C105.86,251,111.72,260.83,101,263c-11.41,2.3-9.78-8.94-9.78-8.94s-9.43,16.07,11.2,20.94c8.34,2,32.07.45,42.5-9a19.79,19.79,0,0,0,5.05-7.1,19.79,19.79,0,0,0,5.05,7.1c10.43,9.43,34.16,10.95,42.5,9C218.18,270.11,208.75,254,208.75,254Z"/><path class="cls-4" d="M142.3,169.24s9.24,39.12,2.91,44.78-14.2,5.24-13,19.35,18.23,11.75,18.23,11.75"/><path class="cls-9" d="M142.3,169.24a85.13,85.13,0,0,1,4.58,11.3,108.86,108.86,0,0,1,3.19,11.75,72.75,72.75,0,0,1,1.62,12.36,30.41,30.41,0,0,1-.48,6.89,12.28,12.28,0,0,1-1.71,4.29,7.9,7.9,0,0,1-1,1.25l-.3.3-.18.15-.34.3c-.46.39-.93.76-1.4,1.11-1.9,1.38-3.8,2.4-5.3,3.34a11.38,11.38,0,0,0-3.26,2.62,8.2,8.2,0,0,0-1.48,3.64,16.92,16.92,0,0,0-.29,2.46c0,.43-.05.86-.05,1.32v1.26a9.06,9.06,0,0,0,3.91,7.8c2.78,2,6.65,3.14,10.66,3.74a20,20,0,0,1-6.12,1.23,17.64,17.64,0,0,1-6.55-.89,15.34,15.34,0,0,1-3.22-1.6,14.55,14.55,0,0,1-2.78-2.55,15.42,15.42,0,0,1-2-3.27,16.64,16.64,0,0,1-1.08-3.55l-.17-.89-.11-.82c-.08-.54-.13-1.11-.17-1.67a25.46,25.46,0,0,1,0-3.5,15.75,15.75,0,0,1,2.36-7.53,18.91,18.91,0,0,1,5.57-5.3c1.85-1.19,3.44-2.1,4.75-3.09.33-.23.65-.48.95-.72l.22-.19.11-.09,0,0-.08.1a4.42,4.42,0,0,0,.46-1.24,26.84,26.84,0,0,0,.62-5c.17-3.66,0-7.54-.1-11.43C142.77,185.35,142.23,177.41,142.3,169.24Z"/><circle class="cls-10" cx="257.16" cy="243.38" r="41.85"/><circle class="cls-11" cx="42.84" cy="243.38" r="41.85"/><path class="cls-12" d="M279,189.94c0,20.13-16.32,25.5-36.45,25.5s-36.45-5.37-36.45-25.5a36.45,36.45,0,1,1,72.9,0Z"/><path class="cls-12" d="M93.87,189.94c0,20.13-16.32,25.5-36.45,25.5S21,210.07,21,189.94a36.45,36.45,0,0,1,72.9,0Z"/><path class="cls-13" d="M279,200.06c0,20.13-16.32,22.43-36.45,22.43s-36.45-2.3-36.45-22.43a36.45,36.45,0,1,1,72.9,0Z"/><path class="cls-13" d="M93.87,200.06c0,20.13-16.32,22.43-36.45,22.43S21,220.19,21,200.06a36.45,36.45,0,0,1,72.9,0Z"/><path class="cls-14" d="M89.18,192.78A13.21,13.21,0,0,1,70,174.87a23,23,0,1,0,19.19,17.91Zm-32,19.76a5.46,5.46,0,1,1,5.45-5.46A5.46,5.46,0,0,1,57.14,212.54Z"/><path class="cls-14" d="M255.63,192.65a13.22,13.22,0,0,1-19.07-17.77,24.25,24.25,0,0,0-3.32-.24,23,23,0,1,0,22.39,18Zm-32.22,19.89a5.46,5.46,0,1,1,5.46-5.46A5.46,5.46,0,0,1,223.41,212.54Z"/><path class="cls-15" d="M95.31,241.08a24.16,24.16,0,1,1,24.15-24.16A24.19,24.19,0,0,1,95.31,241.08Z"/><path class="cls-16" d="M95.31,195.76a21.16,21.16,0,1,1-21.16,21.16,21.16,21.16,0,0,1,21.16-21.16m0-6a27.16,27.16,0,1,0,27.15,27.16,27.19,27.19,0,0,0-27.15-27.16Z"/><path class="cls-15" d="M204.69,241.08a24.16,24.16,0,1,1,24.16-24.16A24.18,24.18,0,0,1,204.69,241.08Z"/><path class="cls-16" d="M204.69,195.76a21.16,21.16,0,1,1-21.15,21.16,21.16,21.16,0,0,1,21.15-21.16m0-6a27.16,27.16,0,1,0,27.16,27.16,27.19,27.19,0,0,0-27.16-27.16Z"/><path class="cls-17" d="M118.11,215.44s9.67-9.22,31.89-9.22,31.84,9.22,31.84,9.22"/><ellipse class="cls-7" cx="241.14" cy="133.7" rx="17.17" ry="29.61" transform="translate(96.36 368.36) rotate(-87.33)"/><ellipse class="cls-7" cx="58.86" cy="133.74" rx="29.61" ry="17.17" transform="translate(-6.16 2.88) rotate(-2.67)"/><path class="cls-18" d="M263.62,15.67H36.38A36.38,36.38,0,0,0,0,52.05V105A36.38,36.38,0,0,1,36.38,68.58H263.62A36.38,36.38,0,0,1,300,105V52.05A36.38,36.38,0,0,0,263.62,15.67Z"/><path class="cls-2" d="M263.62,57.23H36.38A36.38,36.38,0,0,0,0,93.61v52.9a36.38,36.38,0,0,1,36.38-36.38H263.62A36.38,36.38,0,0,1,300,146.51V93.61A36.38,36.38,0,0,0,263.62,57.23Z"/><path class="cls-19" d="M263.62,97H36.38A36.38,36.38,0,0,0,0,133.38v13.13a36.38,36.38,0,0,1,36.38-36.38H263.62A36.38,36.38,0,0,1,300,146.51V133.38A36.38,36.38,0,0,0,263.62,97Z"/></svg>