<?xml version="1.0" encoding="UTF-8" standalone="no"?>
<svg id="Layer_1" data-name="Layer 1" viewBox="0 0 300 345" version="1.1" sodipodi:docname="seagull.svg" xml:space="preserve" inkscape:version="1.2 (dc2aedaf03, 2022-05-15)" xmlns:inkscape="http://www.inkscape.org/namespaces/inkscape" xmlns:sodipodi="http://sodipodi.sourceforge.net/DTD/sodipodi-0.dtd" xmlns="http://www.w3.org/2000/svg" xmlns:svg="http://www.w3.org/2000/svg"><sodipodi:namedview id="namedview469" pagecolor="#505050" bordercolor="#ffffff" borderopacity="1" inkscape:showpageshadow="0" inkscape:pageopacity="0" inkscape:pagecheckerboard="1" inkscape:deskcolor="#505050" showgrid="false" inkscape:zoom="0.24958633" inkscape:cx="108.179" inkscape:cy="252.41768" inkscape:window-width="1366" inkscape:window-height="705" inkscape:window-x="-8" inkscape:window-y="-8" inkscape:window-maximized="1" inkscape:current-layer="Layer_1"/><defs id="defs373"><inkscape:path-effect effect="tiling" id="path-effect10198" is_visible="true" lpeversion="1" unit="px" seed="1;1" lpesatellites="" num_rows="1" num_cols="3" gapx="3" gapy="0" offset="0" offset_type="false" scale="0" rotate="0" mirrorrowsx="false" mirrorrowsy="false" mirrorcolsx="false" mirrorcolsy="false" mirrortrans="false" shrink_interp="false" split_items="false" link_styles="false" interpolate_scalex="false" interpolate_scaley="true" interpolate_rotatex="false" interpolate_rotatey="true" random_scale="false" random_rotate="false" random_gap_y="false" random_gap_x="false" transformorigin="rotate(90)"/><inkscape:path-effect effect="tiling" id="path-effect10182" is_visible="true" lpeversion="1" unit="px" seed="1;1" lpesatellites="" num_rows="1" num_cols="3" gapx="3" gapy="0" offset="0" offset_type="false" scale="0" rotate="0" mirrorrowsx="false" mirrorrowsy="false" mirrorcolsx="false" mirrorcolsy="false" mirrortrans="false" shrink_interp="false" split_items="false" link_styles="false" interpolate_scalex="false" interpolate_scaley="true" interpolate_rotatex="false" interpolate_rotatey="true" random_scale="false" random_rotate="false" random_gap_y="false" random_gap_x="false" transformorigin="rotate(90)"/><inkscape:path-effect effect="fillet_chamfer" id="path-effect4565" is_visible="true" lpeversion="1" nodesatellites_param="F,0,0,1,0,6.0718945,0,1 @ F,0,0,1,0,0,0,1 @ IF,0,0,1,0,6.0719,0,1 @ F,0,0,1,0,0,0,1 @ F,0,0,1,0,0,0,1 @ F,0,0,1,0,0,0,1 @ F,0,0,1,0,0,0,1 @ F,0,0,1,0,0,0,1 @ F,0,0,1,0,0,0,1" unit="px" method="auto" mode="F" radius="0" chamfer_steps="1" flexible="false" use_knot_distance="true" apply_no_radius="true" apply_with_radius="true" only_selected="false" hide_knots="false"/><inkscape:path-effect effect="fillet_chamfer" id="path-effect3467" is_visible="true" lpeversion="1" nodesatellites_param="F,0,0,1,0,0,0,1 @ F,0,0,1,0,0,0,1 @ F,0,0,1,0,0,0,1 @ F,0,0,1,0,21.169251,0,1 @ F,0,0,1,0,3.6627921,0,1 @ F,0,0,1,0,7.0193627,0,1 @ F,0,0,1,0,0,0,1 @ F,0,0,1,0,0,0,1 @ F,0,0,1,0,0,0,1 @ F,0,0,1,0,0,0,1 @ F,0,0,1,0,0,0,1" unit="px" method="auto" mode="F" radius="0" chamfer_steps="1" flexible="false" use_knot_distance="true" apply_no_radius="true" apply_with_radius="true" only_selected="false" hide_knots="false"/><inkscape:path-effect effect="mirror_symmetry" start_point="292.05138,144.72952" end_point="292.05138,236.43049" center_point="292.05138,190.58" id="path-effect2498" is_visible="true" lpeversion="1.2" lpesatellites="" mode="vertical" discard_orig_path="false" fuse_paths="false" oposite_fuse="false" split_items="true" split_open="false" link_styles="false"/><inkscape:path-effect effect="mirror_symmetry" start_point="292.05138,144.72952" end_point="292.05138,236.43049" center_point="292.05138,190.58" id="path-effect1307" is_visible="true" lpeversion="1.2" lpesatellites="" mode="vertical" discard_orig_path="false" fuse_paths="false" oposite_fuse="false" split_items="true" split_open="false" link_styles="false"/><style id="style361">.cls-1{fill:url(#linear-gradient);}.cls-2{fill:url(#linear-gradient-2);}.cls-3{fill:#dae6f5;}.cls-4{fill:#ffcd05;}.cls-5{fill:#6d6d6d;}.cls-6{fill:#231f20;}.cls-7{fill:#cd8029;}.cls-8{fill:#00aeef;}.cls-9{fill:#2e3192;}.cls-10{fill:#90ca73;}.cls-11{fill:#4ab96d;fill-opacity:0.5;}.cls-12{fill:#15141a;}.cls-13{fill:#7ca1d5;}.cls-14{fill:#fff;}.cls-15{fill:#414042;}</style><linearGradient id="linear-gradient" x1="150" y1="356.11" x2="150" y2="161.16" gradientUnits="userSpaceOnUse"><stop offset="0" stop-color="#00aeef" id="stop363" style="stop-color:#4b4654;stop-opacity:1;"/><stop offset="0.40000001" stop-color="#2e3192" id="stop365" style="stop-color:#2d2a33;stop-opacity:1;"/></linearGradient><linearGradient id="linear-gradient-2" x1="150.37" y1="349.85" x2="149.01" y2="159.33" gradientUnits="userSpaceOnUse"><stop offset="0" stop-color="#fabc2e" id="stop368" style="stop-color:#d9d9d9;stop-opacity:1;"/><stop offset="1" stop-color="#cd8029" id="stop370" style="stop-color:#989898;stop-opacity:1;"/></linearGradient><inkscape:path-effect effect="tiling" id="path-effect10958" is_visible="true" lpeversion="1" unit="px" seed="1;1" lpesatellites="" num_rows="1" num_cols="3" gapx="3" gapy="0" offset="0" offset_type="false" scale="0" rotate="0" mirrorrowsx="false" mirrorrowsy="false" mirrorcolsx="false" mirrorcolsy="false" mirrortrans="false" shrink_interp="false" split_items="false" link_styles="false" interpolate_scalex="false" interpolate_scaley="true" interpolate_rotatex="false" interpolate_rotatey="true" random_scale="false" random_rotate="false" random_gap_y="false" random_gap_x="false" transformorigin="rotate(90)"/></defs><title id="title375">blook_macaw-1</title><path class="cls-1" d="M 263.62,345 H 36.38 A 36.38,36.38 0 0 1 0,308.62 v -49.48 h 300 v 49.48 A 36.38,36.38 0 0 1 263.62,345 Z" id="path377" style="fill:url(#linear-gradient)"/><polygon class="cls-2" points="48.72,298.39 251.28,298.39 238.84,345 61.16,345 " id="polygon379" style="fill:url(#linear-gradient-2)"/><path id="path381" class="cls-3" d="m 150,51.40229 c -3.01651,-4.9e-5 -6.03551,0.124141 -9.05273,0.365234 -6.03382,0.482136 -12.05919,1.434005 -18.03711,2.806641 -2.9899,0.686533 -5.96847,1.478322 -8.92969,2.36914 C 78.453239,67.630883 45.34257,92.576974 23.109375,121.14253 4.3173138,145.28685 0.23577976,168.74559 0,189.93945 V 213.16992 237.58984 262 c -4.6999953e-4,20.09277 16.288089,36.38133 36.380859,36.38086 H 263.61914 C 283.71191,298.38133 300.00047,282.09277 300,262 v -24.41016 -24.41992 -23.23047 c -0.23578,-21.19386 -4.31731,-44.6526 -23.10938,-68.79692 -22.23319,-28.565556 -55.34386,-53.511647 -90.87109,-64.199225 -6e-4,-1.82e-4 -0.001,1.82e-4 -0.002,0 -2.95975,-0.890532 -5.93737,-1.682714 -8.92578,-2.36914 -6.3e-4,-1.44e-4 -0.001,1.43e-4 -0.002,0 C 171.11192,53.201529 165.08655,52.24966 159.05273,51.767524 156.03571,51.526333 153.01633,51.402339 150,51.40229 Z" style="fill:#d9d9d9;fill-opacity:1" sodipodi:nodetypes="sssssccccccccccsscsccs"/><polygon class="cls-5" points="" id="polygon385"/><path class="cls-8" d="M 20.51,267.29 A 34.56,34.56 0 0 0 5.29,296 c 0,0 19.32,2.46 30.19,-6.55 0,0 -10.65,6.29 -8.56,25.9 0,0 22.23,2.93 28.94,-14.33" id="path397" style="fill:#d9d9d9;fill-opacity:1"/><path class="cls-9" d="m 20.51,267.29 c -0.91,1.16 -1.89,2.17 -2.73,3.3 a 36.3,36.3 0 0 0 -2.36,3.4 34.78,34.78 0 0 0 -3.53,7.13 c -0.2,0.62 -0.47,1.2 -0.64,1.83 l -0.53,1.85 c -0.13,0.64 -0.26,1.26 -0.41,1.88 -0.15,0.62 -0.24,1.25 -0.38,1.87 -0.23,1.24 -0.44,2.48 -0.64,3.72 l -0.29,1.84 -0.14,0.91 -0.08,0.44 a 1.13,1.13 0 0 1 -0.08,0.35 l -3,-3.18 v 0 c 1.11,-0.11 2.42,-0.12 3.64,-0.17 l 3.71,-0.06 c 2.47,0 4.93,-0.09 7.4,-0.21 2.47,-0.12 4.9,-0.39 7.4,-0.78 a 52.07,52.07 0 0 0 7.61,-2 v 0 a 20.79,20.79 0 0 0 -3.34,6.12 28,28 0 0 0 -1.44,6.47 l -0.15,1.6 c 0,0.54 0,1.09 -0.05,1.62 -0.09,1.06 0,2.16 0,3.22 0,1.06 0,2.17 0,3.25 a 21.87,21.87 0 0 1 -0.12,3.32 l -2.95,-3 v 0 c 0.51,-0.07 1.24,-0.09 1.87,-0.14 l 2,-0.11 c 1.31,-0.08 2.61,-0.17 3.91,-0.29 a 43.55,43.55 0 0 0 7.66,-1.24 22.63,22.63 0 0 0 7.1,-3.23 24.79,24.79 0 0 0 6,-5.94 18.11,18.11 0 0 1 -3.38,8.55 22.37,22.37 0 0 1 -7.3,6.32 28,28 0 0 1 -9.2,3.07 26.05,26.05 0 0 1 -4.75,0.33 c -0.79,0 -1.58,-0.07 -2.38,-0.16 a 17.94,17.94 0 0 1 -2.46,-0.45 v 0 h -2.2 l -0.74,-3 a 25.73,25.73 0 0 1 -0.62,-3.8 31.74,31.74 0 0 1 0.08,-3.92 25.83,25.83 0 0 1 0.72,-3.87 c 0.19,-0.64 0.36,-1.27 0.56,-1.9 L 25,300.4 a 24.37,24.37 0 0 1 4.2,-6.66 15.15,15.15 0 0 1 6.28,-4.28 v 0 a 19.59,19.59 0 0 1 -6,5.93 32,32 0 0 1 -7.82,3.43 37.13,37.13 0 0 1 -8.33,1.35 32.71,32.71 0 0 1 -4.2,-0.07 23.67,23.67 0 0 1 -4.25,-0.7 v 0 l -2.5,0.07 -0.48,-3.26 -0.1,-0.7 c 0,-0.21 -0.05,-0.42 -0.06,-0.62 a 9.74,9.74 0 0 1 -0.06,-1.2 20.68,20.68 0 0 1 0.1,-2.37 24.72,24.72 0 0 1 0.92,-4.59 30.23,30.23 0 0 1 4.08,-8.32 l 0.65,-1 0.72,-0.9 c 0.49,-0.59 0.93,-1.21 1.47,-1.75 a 30.13,30.13 0 0 1 3.32,-3.08 25.94,25.94 0 0 1 3.66,-2.53 13.89,13.89 0 0 1 2,-1 c 0.59,-0.28 1.26,-0.57 1.91,-0.86 z" id="path399" style="fill:#808080;fill-opacity:1"/><path class="cls-8" d="M 279.49,267.29 A 34.56,34.56 0 0 1 294.71,296 c 0,0 -19.32,2.46 -30.19,-6.55 0,0 10.65,6.29 8.56,25.9 0,0 -22.23,2.93 -28.94,-14.33" id="path401" style="fill:#d9d9d9;fill-opacity:1"/><path class="cls-9" d="m 279.49,267.29 c 0.65,0.29 1.32,0.58 2,0.89 a 13.89,13.89 0 0 1 1.95,1 25.94,25.94 0 0 1 3.66,2.53 30.13,30.13 0 0 1 3.32,3.08 c 0.54,0.54 1,1.16 1.47,1.75 l 0.72,0.9 0.65,1 a 30.23,30.23 0 0 1 4.08,8.32 24.72,24.72 0 0 1 0.92,4.59 20.68,20.68 0 0 1 0.1,2.37 9.74,9.74 0 0 1 -0.06,1.2 c 0,0.2 0,0.41 -0.06,0.62 l -0.1,0.7 -0.48,3.26 -2.5,-0.07 v 0 a 23.67,23.67 0 0 1 -4.25,0.7 32.71,32.71 0 0 1 -4.2,0.07 37.13,37.13 0 0 1 -8.33,-1.35 32,32 0 0 1 -7.82,-3.43 19.59,19.59 0 0 1 -6,-5.93 v 0 a 15.15,15.15 0 0 1 6.28,4.28 24.37,24.37 0 0 1 4.2,6.66 l 0.72,1.85 c 0.2,0.63 0.37,1.26 0.56,1.9 a 25.83,25.83 0 0 1 0.68,3.82 31.74,31.74 0 0 1 0.09,3.9 25.73,25.73 0 0 1 -0.62,3.8 l -0.74,3 h -2.2 v 0 a 17.94,17.94 0 0 1 -2.46,0.45 c -0.8,0.09 -1.59,0.15 -2.38,0.16 a 26.05,26.05 0 0 1 -4.75,-0.33 28,28 0 0 1 -9.11,-3.12 22.37,22.37 0 0 1 -7.3,-6.32 18.11,18.11 0 0 1 -3.38,-8.55 24.79,24.79 0 0 0 6,5.94 22.63,22.63 0 0 0 7.1,3.23 43.55,43.55 0 0 0 7.66,1.24 c 1.3,0.12 2.6,0.21 3.91,0.29 l 2,0.11 c 0.63,0.05 1.36,0.07 1.87,0.14 v 0 l -2.95,3 a 21.87,21.87 0 0 1 -0.12,-3.32 c -0.06,-1.08 0,-2.17 0,-3.25 0,-1.08 0.05,-2.16 0,-3.22 0,-0.53 0,-1.08 0,-1.62 l -0.15,-1.6 a 28,28 0 0 0 -1.46,-6.41 20.79,20.79 0 0 0 -3.34,-6.12 v 0 a 52.07,52.07 0 0 0 7.61,2 c 2.5,0.39 4.94,0.63 7.4,0.78 2.46,0.15 4.93,0.16 7.4,0.21 l 3.71,0.06 c 1.22,0.05 2.53,0.06 3.64,0.17 v 0 l -3,3.18 a 1.13,1.13 0 0 1 -0.08,-0.35 l -0.08,-0.44 -0.14,-0.91 -0.3,-1.84 c -0.2,-1.24 -0.41,-2.48 -0.64,-3.72 -0.14,-0.62 -0.24,-1.25 -0.38,-1.87 -0.14,-0.62 -0.28,-1.24 -0.41,-1.88 l -0.53,-1.85 c -0.17,-0.63 -0.44,-1.21 -0.64,-1.83 a 34.78,34.78 0 0 0 -3.53,-7.13 36.3,36.3 0 0 0 -2.36,-3.4 c -0.96,-1.12 -1.94,-2.13 -2.85,-3.29 z" id="path403" style="fill:#808080;fill-opacity:1"/><path class="cls-8" d="m 129.93705,56.225758 c 0,0 -10.88679,-0.126348 -18.26907,-18.981095 0,0 -7.12089,11.24025 -7.10895,23.591869 A 41.511747,41.511747 0 0 1 86.062174,51.389149 c 0,0 -3.682179,22.071648 11.279083,33.387226" id="path465" style="fill:#d9d9d9;fill-opacity:1;stroke-width:0.757929"/><path id="path7841" style="opacity:1;fill:#bfbfbf;fill-opacity:1;stroke-width:2.79282;stroke-linecap:round;stroke-linejoin:round;stop-color:#000000" d="m 150.88316,180.04762 c -2.40191,0.10763 -4.79993,0.73504 -7.08222,1.85298 -5.39339,2.64305 -9.79293,7.85023 -12.12903,14.35555 l -42.436527,0.99845 c -10.619674,0.25007 -19.249733,9.31587 -18.24057,20.16955 2.202607,23.68933 8.054963,47.37822 17.456223,71.06719 0.693549,1.74756 2.759173,3.0302 4.590751,2.8733 3.395093,-0.29089 7.978873,-2.79727 9.788413,-5.89601 2.87732,-4.9273 5.37563,-10.8925 7.91269,-17.21974 14.39647,-5.84328 51.91771,-36.26449 57.06944,-54.79123 1.32572,-1.39564 2.17382,-3.09142 2.36194,-5.22003 l -0.17037,-0.0619 c 1.49501,-8.66377 -0.82235,-17.31804 -6.09557,-22.76409 -3.56343,-3.67916 -8.18368,-5.58185 -13.02517,-5.36397 z"/><g id="g2522" transform="translate(0,4)"><path class="cls-13" id="path1309" d="m 27.04676,181.51852 a 40.261391,40.261391 0 0 0 40.26139,40.26139 40.261391,40.261391 0 0 0 40.26139,-40.26139 40.261391,40.261391 0 0 0 -40.26139,-40.26139 40.261391,40.261391 0 0 0 -40.26139,40.26139 z" style="fill:#8f8f8f;fill-opacity:1;stroke-width:1.10456"/><path class="cls-14" id="path1311" d="M 27.04676,192.69671 A 40.261391,40.261391 0 0 0 67.30815,232.9581 40.261391,40.261391 0 0 0 107.56954,192.69671 40.261391,40.261391 0 0 0 67.30815,152.43532 40.261391,40.261391 0 0 0 27.04676,192.69671 Z" style="stroke-width:1.10456"/><g id="g1325" transform="matrix(0.95783898,0,0,0.95783898,-176.68087,3.8458794)"><path class="cls-15" id="path1313" d="m 284.33127,194.1691 a 30.093626,30.093626 0 0 1 -30.09363,30.09362 30.093626,30.093626 0 0 1 -30.09363,-30.09362 30.093626,30.093626 0 0 1 30.09363,-30.09363 30.093626,30.093626 0 0 1 30.09363,30.09363 z" style="stroke-width:0.958396"/><path class="cls-14" id="path1315" d="m 287.01479,185.19852 a 9.2964382,9.2964382 0 0 1 -9.29644,9.29644 9.2964382,9.2964382 0 0 1 -9.29643,-9.29644 9.2964382,9.2964382 0 0 1 9.29643,-9.29644 9.2964382,9.2964382 0 0 1 9.29644,9.29644 z" style="stroke-width:0.958396"/></g></g><g transform="translate(-19.09814,0.5276108)" class="UnoptimicedTransforms" id="g2510"><path class="cls-13" id="path2500" d="m 292.05138,184.99091 a 40.261391,40.261391 0 0 1 -40.26139,40.26139 40.261391,40.261391 0 0 1 -40.26139,-40.26139 40.261391,40.261391 0 0 1 40.26139,-40.26139 40.261391,40.261391 0 0 1 40.26139,40.26139 z" style="fill:#8f8f8f;fill-opacity:1;stroke-width:1.10456"/><path class="cls-14" id="path2502" d="m 292.05138,196.1691 a 40.261391,40.261391 0 0 1 -40.26139,40.26139 40.261391,40.261391 0 0 1 -40.26139,-40.26139 40.261391,40.261391 0 0 1 40.26139,-40.26139 40.261391,40.261391 0 0 1 40.26139,40.26139 z" style="stroke-width:1.10456"/><g transform="matrix(-0.95783673,0,0,0.95783673,495.9124,7.3186571)" id="g2508"><path id="path2504" style="stroke-width:0.958396" class="cls-15" d="m 254.23879,164.07477 a 30.093626,30.093626 0 0 0 -23.84132,11.85326 9.2964382,9.2964382 0 0 1 0.36009,-0.0259 9.2964382,9.2964382 0 0 1 9.29573,9.29574 9.2964382,9.2964382 0 0 1 -9.29573,9.29757 9.2964382,9.2964382 0 0 1 -6.44829,-2.63139 30.093626,30.093626 0 0 0 -0.16435,2.30455 30.093626,30.093626 0 0 0 30.09387,30.09387 30.093626,30.093626 0 0 0 30.09202,-30.09387 30.093626,30.093626 0 0 0 -30.09202,-30.09387 z"/></g></g><path id="rect3469" style="opacity:1;fill:#d86b00;stroke-width:3.03358;stroke-linecap:round;stroke-linejoin:round;stop-color:#000000;fill-opacity:1" transform="rotate(-39.793889)" d="m -90.491302,246.72261 h 81.1670985 l 7.4442959,18.24561 c -14.7991654,14.78792 -80.2268394,12.24984 -91.4471984,5.55952 z" sodipodi:nodetypes="ccccc"/><path id="rect2577" style="opacity:1;fill:#ffaa05;fill-opacity:1;stroke-width:4.305;stroke-linecap:round;stroke-linejoin:round;stop-color:#000000" d="m 148.91406,172.04883 c -2.64363,0.11538 -5.28296,0.78794 -7.79492,1.98633 -5.93614,2.83328 -10.77842,8.41518 -13.34961,15.38867 l -46.707407,1.07125 c -11.68838,0.26807 -21.186819,9.98507 -20.0761,21.61987 2.424262,25.39419 8.866245,50.78904 19.213595,76.18284 0.76334,1.87334 3.036153,3.24749 5.052051,3.07928 3.736755,-0.31181 8.781578,-2.99791 10.773213,-6.31967 9.608378,-16.02539 15.345558,-41.88233 30.242698,-59.82498 10.58027,-12.74326 42.52895,-8.08734 43.8789,-22.96484 l -0.1875,-0.0664 c 1.64546,-9.28728 -0.9051,-18.56435 -6.70898,-24.40234 -3.92203,-3.94394 -9.00723,-5.98356 -14.33594,-5.75 z"/><path id="rect4266" style="opacity:1;fill:#4b4654;fill-opacity:1;stroke-width:4.305;stroke-linecap:round;stroke-linejoin:round;stop-color:#000000" d="M 115.72656 241.61523 C 98.046461 251.07632 81.335733 254.21864 66.394531 245.12695 C 69.729482 259.51737 74.335623 273.90682 80.199219 288.29688 C 80.962558 290.17021 83.236057 291.54516 85.251953 291.37695 C 88.988704 291.06514 94.033758 288.3784 96.025391 285.05664 C 102.9693 273.4752 107.90775 256.76822 115.72656 241.61523 z "/><path id="path10184" style="fill:#6c6c6c;fill-opacity:0.67774087;stroke-width:4.62894;stroke-linecap:round;stroke-linejoin:round;stop-color:#000000" d="m 188.51552,6 c -0.63914,-0.00142 -1.32124,0.2019526 -2.02015,0.6230469 -0.34948,0.21055 -0.70271,0.4756428 -1.05709,0.796875 -6.86417,6.2221281 -13.41902,11.9853371 -19.51111,17.8613281 -2.0307,1.958664 -4.01007,3.930819 -5.93253,5.935547 -5.76736,6.014183 -11.02269,12.330059 -15.61378,19.519531 -1.53039,2.396511 -2.98659,4.890349 -4.36381,7.501953 -0.60679,0.5786 -1.53427,0.647844 -2.64838,0.396485 -0.37056,-0.08352 -0.76125,-0.204315 -1.16807,-0.351563 -5.2e-4,-1.89e-4 -9.6e-4,1.9e-4 -0.002,0 -0.40748,-0.147551 -0.83015,-0.322196 -1.264,-0.519531 -3.90483,-1.775919 -8.67494,-5.28243 -10.67629,-5.373047 -5.3e-4,-2.4e-5 -9.6e-4,2.4e-5 -0.002,0 -0.22143,-0.0098 -0.41014,0.02245 -0.55865,0.103516 -0.0749,0.04091 -0.13925,0.09342 -0.19373,0.160156 -0.0543,0.06616 -0.097,0.144861 -0.12979,0.238281 -0.0621,0.176849 -0.10871,0.418274 -0.14671,0.691406 -0.013,0.09306 -0.0218,0.201201 -0.032,0.304688 -0.0153,0.156726 -0.025,0.328393 -0.0339,0.507812 -0.014,0.277952 -0.002,0.628603 0,0.957032 0.003,0.558331 0.0277,1.163679 0.0771,1.847656 0.0267,0.376422 0.0533,0.735859 0.0941,1.144531 0.0772,0.766175 0.18658,1.585343 0.31413,2.443359 0.0563,0.382007 0.0934,0.724855 0.15988,1.121094 0.12069,0.715554 0.28246,1.472064 0.43638,2.222656 0.0728,0.35918 0.13018,0.699641 0.21067,1.064454 0.0298,0.133654 0.0613,0.266136 0.0922,0.40039 0.23663,1.035095 0.49316,2.070605 0.79189,3.121094 0.12062,0.425943 0.25078,0.849054 0.38183,1.273438 0.0744,0.240162 0.14047,0.481667 0.21818,0.720703 0.22554,0.695646 0.46624,1.383427 0.72041,2.0625 0.0603,0.160898 0.12806,0.315025 0.18997,0.474609 0.20957,0.540846 0.42442,1.075394 0.6527,1.597656 0.0777,0.177773 0.16086,0.348264 0.24076,0.523438 0.21753,0.477074 0.44144,0.943572 0.67526,1.398437 0.10549,0.20527 0.21285,0.405401 0.32164,0.605469 0.22372,0.411279 0.45617,0.806587 0.69408,1.193359 0.11969,0.194771 0.23786,0.390276 0.36114,0.578125 0.25653,0.390554 0.52338,0.757454 0.79564,1.115235 0.11245,0.147945 0.21968,0.30545 0.33481,0.447265 0.39235,0.48279 0.7987,0.938876 1.22262,1.34375 1.64718,1.573174 3.36368,3.086284 5.1444,4.541016 1.41336,1.154626 2.87785,2.261586 4.36757,3.339844 0.38685,0.279987 0.76508,0.568978 1.15678,0.84375 4.4e-4,2.99e-4 0.002,-3e-4 0.002,0 4.75091,3.332584 9.85441,6.281253 15.20373,8.820312 5.1e-4,2.45e-4 9.7e-4,-2.45e-4 0.002,0 2.13942,1.015434 4.31767,1.966534 6.52878,2.849614 5.5e-4,2.1e-4 9.6e-4,-2.2e-4 0.002,0 5.52863,2.20792 11.25992,3.9973 17.08657,5.34375 5.9e-4,1.3e-4 9.6e-4,-1.4e-4 0.002,0 0.19993,0.0462 0.40174,0.0837 0.6019,0.1289 2.13322,0.48129 4.2766,0.91203 6.42909,1.27344 2.35456,0.39534 4.71731,0.71787 7.08179,0.9668 1.18224,0.12446 2.36344,0.23108 3.54559,0.31836 6.2e-4,4e-5 9.7e-4,-5e-5 0.002,0 9.45652,0.69799 18.88385,0.19965 27.83996,-1.59375 2.23918,-0.44838 4.44926,-0.97797 6.62284,-1.58985 1.08678,-0.30594 2.16367,-0.63111 3.23147,-0.97851 0.0492,-0.016 0.0994,-0.0418 0.1486,-0.0586 0.40669,-0.13866 0.81499,-0.30268 1.2245,-0.49218 0.15411,-0.0713 0.30845,-0.15635 0.46271,-0.23438 0.3071,-0.15529 0.61293,-0.31795 0.91978,-0.49805 0.1667,-0.0978 0.33207,-0.20197 0.49846,-0.30664 0.3096,-0.19471 0.6178,-0.39871 0.92543,-0.61523 0.15776,-0.11105 0.31509,-0.22157 0.47211,-0.33789 0.30743,-0.22774 0.61233,-0.46669 0.91602,-0.71289 0.14956,-0.12121 0.29922,-0.23802 0.44768,-0.36328 0.36119,-0.30485 0.717,-0.6232 1.07026,-0.94922 0.0838,-0.0773 0.16874,-0.15015 0.25205,-0.22852 0.005,-0.005 0.0117,-0.009 0.017,-0.0137 0.0127,-0.012 0.0249,-0.0251 0.0376,-0.0371 0.22439,-0.21198 0.44181,-0.43547 0.6621,-0.6543 0.0718,-0.0714 0.14301,-0.14085 0.21442,-0.21289 0.29503,-0.2977 0.57157,-0.604823 0.85772,-0.912106 0.26118,-0.280626 0.52033,-0.553281 0.77307,-0.839844 0.29387,-0.332603 0.56716,-0.668104 0.84831,-1.005859 0.23446,-0.281835 0.46943,-0.552466 0.69407,-0.835938 0.11705,-0.147839 0.23565,-0.291537 0.34986,-0.439453 0.45421,-0.586997 0.86894,-1.167743 1.2734,-1.746093 0.12481,-0.178648 0.26601,-0.358323 0.38559,-0.535157 0.5413,-0.799445 1.01367,-1.566551 1.43518,-2.302734 0.0225,-0.03953 0.0417,-0.074 0.0639,-0.113281 0.30513,-0.539062 0.59239,-1.06568 0.82198,-1.548828 0.0742,-0.155952 0.1262,-0.294421 0.19186,-0.44336 0.15039,-0.341184 0.27824,-0.661557 0.38183,-0.960937 0.0541,-0.156077 0.10984,-0.311787 0.15048,-0.455078 0.0253,-0.08949 0.0515,-0.179493 0.0714,-0.263672 0.0602,-0.253217 0.10355,-0.490431 0.11286,-0.691407 0.0215,-0.464415 -0.17649,-0.786036 -0.5436,-1.003906 -4.5e-4,-2.69e-4 -9.6e-4,2.69e-4 -0.002,0 -0.18352,-0.108671 -0.40942,-0.192361 -0.6715,-0.253906 -5.5e-4,-1.28e-4 -9.6e-4,1.27e-4 -0.002,0 -2.10327,-0.492739 -6.53494,0.376313 -10.1515,0.144531 -0.90414,-0.05795 -1.7581,-0.184019 -2.51107,-0.417969 -0.75297,-0.233949 -1.40566,-0.57562 -1.90917,-1.0625 -0.24424,-0.236167 -0.45046,-0.509238 -0.61883,-0.818359 -0.005,-0.0095 -0.0119,-0.01773 -0.017,-0.02734 0.22454,-1.384553 0.39853,-2.767488 0.52854,-4.152343 0.52006,-5.539423 0.31073,-11.081566 -0.42321,-16.625 -0.18348,-1.385859 -0.39947,-2.772146 -0.64517,-4.158204 -0.4914,-2.772115 -1.10046,-5.545571 -1.80195,-8.318359 -0.70149,-2.772787 -1.49509,-5.545065 -2.35496,-8.318359 -0.85986,-2.773295 -1.78717,-5.546677 -2.7537,-8.320313 -1.93308,-5.547272 -4.02785,-11.094931 -6.07736,-16.642578 -0.337,-0.912176 -0.77305,-1.626631 -1.28093,-2.140625 -0.76181,-0.77099 -1.68277,-1.091409 -2.65967,-0.958984 -0.97672,0.132464 -2.00954,0.71883 -2.99824,1.763672 -2.11385,2.233901 -4.7589,4.723514 -7.46549,6.498046 -0.67665,0.443634 -1.35804,0.842621 -2.03519,1.181641 -0.67715,0.339021 -1.34959,0.618219 -2.01261,0.822266 -0.33152,0.102024 -0.66038,0.185458 -0.98562,0.248047 -0.32462,0.06247 -0.64651,0.103641 -0.96305,0.123046 -0.004,2.33e-4 -0.008,-2.26e-4 -0.0113,0 -0.63092,0.03762 -1.24409,-0.01373 -1.83204,-0.169921 -1.18183,-0.313962 -2.25713,-1.047217 -3.23148,-2.066407 -1.46156,-1.528851 -2.69457,-3.698325 -3.71676,-6.050781 -0.59311,-1.36494 -1.1035,-2.786963 -1.55743,-4.185547 -0.0678,-0.208991 -0.14586,-0.421459 -0.21067,-0.628906 -0.24918,-0.79755 -0.47567,-1.580601 -0.6809,-2.3339844 -0.25599,-0.9397155 -0.62272,-1.7083549 -1.07215,-2.2929687 -0.44931,-0.5846264 -0.98138,-0.9849343 -1.57059,-1.1875 C 189.14439,6.0530219 188.83515,6.0007036 188.51552,6 Z"/><g id="g10166" transform="matrix(0.80048048,0.20479728,-0.20479728,0.80048048,-200.7332,-14.92241)"><path id="rect4468" style="opacity:1;fill:#2c2024;fill-opacity:1;stroke-width:5.70873;stroke-linecap:round;stroke-linejoin:round;stop-color:#000000" d="m 469.24432,-96.870469 c 3.80697,6.555338 9.88898,14.972162 16.02113,14.972162 6.13226,0 12.21438,-8.41716 16.02135,-14.972554 2.37412,-4.088129 6.11512,-4.453199 8.85081,-0.594957 16.63774,23.464989 34.15582,46.707747 36.42699,73.801181 4.87138,5.171769 20.12663,-5.499705 21.03267,-1.08461 0.88185,4.297184 -5.89497,21.8194125 -14.66603,27.2465805 C 514.66449,26.175242 457.63498,28.011572 417.99733,6.7079468 407.14149,0.87338047 398.1681,-20.725007 398.5688,-24.749247 c 0.38156,-3.832199 18.85378,5.708573 21.86674,1.08461 7.14659,-27.928801 22.74802,-48.577478 40.05628,-73.733692 2.68073,-3.896251 6.37824,-3.560471 8.7525,0.52786 z" sodipodi:nodetypes="caccsaascc"/><path id="rect7039" style="opacity:1;fill:#20171b;fill-opacity:0.511628;stroke-width:4.305;stroke-linecap:round;stroke-linejoin:round;stop-color:#000000" d="m 399.06511,-21.747126 c 1.91879,7.277748 9.71551,23.5017919 18.93164,28.4550778 39.63761,21.3036042 96.66688,19.4669472 134.93359,-4.2109372 7.36728,-4.5585645 13.30931,-17.6237546 14.50586,-24.2441406 h -11.89258 c -42.13634,22.44228167 -85.97568,31.6963408 -135.09765,0 z"/><path id="path5740" style="opacity:1;fill:#d99e38;fill-opacity:1;stroke-width:5.70873;stroke-linecap:round;stroke-linejoin:round;stop-color:#000000" d="m 505.57683,-100.14752 c -1.57398,0.12001 -3.10201,1.233286 -4.28907,3.277347 -3.80696,6.555388 -9.88923,14.972656 -16.02148,14.972656 -6.13215,0 -12.21452,-8.417324 -16.02149,-14.972656 -2.37425,-4.088327 -6.07317,-4.423587 -8.7539,-0.527344 -17.30824,25.156189 -32.90811,45.803649 -40.05469,73.732422 -3.01296,4.623959 -21.48563,-4.916179 -21.86719,-1.083984 -0.30823,3.095636 4.93878,16.5700271 12.31446,25.28906227 -5.7503,-7.96508457 -9.6106,-18.00537227 -9.34961,-20.55468727 0.36892,-3.60394 18.22942,5.368075 21.14258,1.019531 6.90987,-26.265273 21.99356,-45.683966 38.72851,-69.341797 2.59195,-3.664176 6.16727,-3.348722 8.46289,0.496094 3.68087,6.164882 9.5612,14.080078 15.49024,14.080078 5.92914,0 11.81132,-7.915144 15.49218,-14.080078 2.29548,-3.844626 5.91157,-4.187028 8.55664,-0.558594 16.08666,22.06734 33.02476,43.924634 35.22071,69.404297 4.71002,4.863721 19.45991,-5.171649 20.33593,-1.019531 0.53109,2.517183 -1.8138,9.857977 -5.70507,16.2714842 5.44298,-7.4041272 8.99068,-17.8248632 8.33789,-21.0058592 -0.90604,-4.415091 -16.15988,6.255748 -21.03125,1.083984 -2.27117,-27.093407 -19.79001,-50.335815 -36.42774,-73.800781 -1.36784,-1.92912 -2.98657,-2.801644 -4.56054,-2.681644 z"/><path style="fill:#ffffff;fill-opacity:1;stroke:none;stroke-width:1.30004;stroke-linecap:round;stroke-linejoin:round;stroke-dasharray:none;stroke-opacity:1;paint-order:stroke markers fill;stop-color:#000000" id="rect1890" width="12.519693" height="7.4587083" x="115.92112" y="-393.45255" ry="2.8401196" transform="matrix(0,1.0272488,-1.3214273,0,-45.696076,-149.9215)" inkscape:path-effect="#path-effect10958" class="UnoptimicedTransforms" d="m 118.76124,-393.45255 h 6.83945 c 1.57343,0 2.84012,1.2667 2.84012,2.84012 v 1.77847 c 0,1.57343 -1.26669,2.84012 -2.84012,2.84012 h -6.83945 c -1.57343,0 -2.84012,-1.26669 -2.84012,-2.84012 v -1.77847 c 0,-1.57342 1.26669,-2.84012 2.84012,-2.84012 z m 0,-10.4587 h 6.83945 c 1.57343,0 2.84012,1.26669 2.84012,2.84012 v 1.77847 c 0,1.57342 -1.26669,2.84011 -2.84012,2.84011 h -6.83945 c -1.57343,0 -2.84012,-1.26669 -2.84012,-2.84011 v -1.77847 c 0,-1.57343 1.26669,-2.84012 2.84012,-2.84012 z m 0,-10.45871 h 6.83945 c 1.57343,0 2.84012,1.26669 2.84012,2.84012 v 1.77847 c 0,1.57342 -1.26669,2.84012 -2.84012,2.84012 h -6.83945 c -1.57343,0 -2.84012,-1.2667 -2.84012,-2.84012 v -1.77847 c 0,-1.57343 1.26669,-2.84012 2.84012,-2.84012 z" sodipodi:type="rect"/><path id="rect1832" style="fill:#ffffff;fill-opacity:1;stroke:none;stroke-width:5.47331;stroke-linecap:round;stroke-linejoin:round;stroke-dasharray:none;stroke-opacity:1;paint-order:stroke markers fill;stop-color:#000000" d="m 459.05095,-45.635959 c -1.18614,9.670112 5.73294,21.065392 13.12738,21.346672 h 21.76162 c 9.94142,-2.04499 14.52329,-12.21038 13.12739,-21.346672 -1.74987,-25.167773 -46.12168,-24.863009 -48.01639,0 z m 43.70307,5.802269 c -8e-5,3.739583 -4.25925,6.310713 -7.99884,6.310803 -3.73959,-9e-5 -6.77109,-3.03159 -6.77117,-6.771176 1.31905,-9.337007 14.04177,-14.572926 14.77001,0.460373 z m -24.14821,-0.460373 c -8.9e-4,3.659386 -2.96718,6.625676 -6.62657,6.626576 -3.6602,2.6e-4 -7.70199,-2.96637 -7.70287,-6.626576 0.6179,-15.641688 13.54291,-8.766996 14.32944,0 z" sodipodi:nodetypes="ccccccccccccc"/></g></svg>