<svg id="Layer_1" data-name="Layer 1" xmlns="http://www.w3.org/2000/svg" xmlns:xlink="http://www.w3.org/1999/xlink" viewBox="0 0 300 345"><defs><style>.cls-1{fill:#d62027;}.cls-2{fill:#8e191b;}.cls-3{fill-opacity:0.8;fill:url(#linear-gradient);}.cls-4{fill:#dae6f5;}.cls-5{fill:#9dc6ea;}.cls-6{fill:#7c6041;}.cls-7{fill:#56412d;}.cls-8{fill:#425634;}.cls-9{fill:#ecf7fe;}.cls-10{fill:#fff;}</style><linearGradient id="linear-gradient" x1="150.28" y1="-102.84" x2="149.82" y2="303.57" gradientUnits="userSpaceOnUse"><stop offset="0.3" stop-color="#c7e9f6"/><stop offset="0.96" stop-color="#10afd1"/></linearGradient></defs><title>blook_snowglobe</title><rect class="cls-1" x="21.47" y="212.45" width="257.06" height="132.55" rx="36.38"/><path class="cls-2" d="M212.71,212.45H87.29a65.82,65.82,0,0,0-65.82,65.81h0a29.31,29.31,0,0,0,27.86,29.4c.73,0,1.47,0,2.2,0H248.47c.73,0,1.47,0,2.2,0a29.31,29.31,0,0,0,27.86-29.4h0A65.82,65.82,0,0,0,212.71,212.45Z"/><rect class="cls-3" width="300" height="288.2" rx="51.53"/><path class="cls-4" d="M240.77,198.85H59.23c-26.24,0-47.51,15.43-47.51,34.47v6.39c0,19,21.27,34.47,47.51,34.47H240.77c26.24,0,47.51-15.43,47.51-34.47v-6.39C288.28,214.28,267,198.85,240.77,198.85Z"/><ellipse class="cls-5" cx="214" cy="236.51" rx="44.91" ry="8.53"/><path class="cls-6" d="M227.58,219.76v9.93a8.19,8.19,0,0,1-3.61,6.88c-2,1.34-5.16,2.45-10,2.45s-7.95-1.11-10-2.45a8.19,8.19,0,0,1-3.61-6.88v-9.93a8.36,8.36,0,0,1,8.36-8.37h10.44A8.36,8.36,0,0,1,227.58,219.76Z"/><path class="cls-7" d="M219.22,211.39H208.78a8.36,8.36,0,0,0-8.36,8.37v5.31a78.08,78.08,0,0,0,27.16,0v-5.31A8.36,8.36,0,0,0,219.22,211.39Z"/><path class="cls-8" d="M207.33,137.27l-41.18,71.32a7.71,7.71,0,0,0,6.68,11.56h82.34a7.71,7.71,0,0,0,6.68-11.56l-41.18-71.32A7.7,7.7,0,0,0,207.33,137.27Z"/><path class="cls-8" d="M207.33,106.85l-36.54,63.29a7.7,7.7,0,0,0,6.67,11.56h73.08a7.7,7.7,0,0,0,6.67-11.56l-36.54-63.29A7.7,7.7,0,0,0,207.33,106.85Z"/><path class="cls-8" d="M207.68,87l-29,41.64A7.71,7.71,0,0,0,185,140.7h58a7.71,7.71,0,0,0,6.33-12.11L220.32,87A7.7,7.7,0,0,0,207.68,87Z"/><path class="cls-9" d="M236.59,113.44a3.85,3.85,0,0,0,3.69-6.09L221,82.41a8.74,8.74,0,0,0-13.9,0L186.83,110a3.87,3.87,0,0,0,3.94,6L202,114.32a4.19,4.19,0,0,1,3.74,1.35l7.71,8.82a4.19,4.19,0,0,0,6.52-.36l6.59-9.58a4.13,4.13,0,0,1,3.82-1.72Z"/><circle class="cls-10" cx="54.57" cy="69.95" r="10.8"/><circle class="cls-10" cx="92.22" cy="33.94" r="5.89"/><circle class="cls-10" cx="150.54" cy="80.64" r="17.34"/><circle class="cls-10" cx="108.07" cy="116.13" r="5.89"/><circle class="cls-10" cx="203" cy="32.42" r="4.36"/><circle class="cls-10" cx="256.26" cy="56.92" r="10.75"/><circle class="cls-10" cx="267.68" cy="95.51" r="2.47"/><circle class="cls-10" cx="153.73" cy="156.31" r="3.73"/><circle class="cls-10" cx="79.48" cy="165.9" r="7.64"/><circle class="cls-10" cx="103.2" cy="75.04" r="5.09"/><circle class="cls-10" cx="155.89" cy="29.18" r="5.89"/><circle class="cls-10" cx="251.88" cy="155.75" r="7.03"/><circle class="cls-10" cx="215.42" cy="146.44" r="4.1"/><circle class="cls-10" cx="186.47" cy="201.32" r="7.76"/><circle class="cls-10" cx="276.33" cy="197.44" r="3.88"/><circle class="cls-10" cx="53.96" cy="115.22" r="6.11"/><circle class="cls-10" cx="37.43" cy="160.96" r="6.34"/><circle class="cls-10" cx="88.54" cy="130.11" r="2.21"/><circle class="cls-10" cx="117.97" cy="161.14" r="2.88"/><circle class="cls-10" cx="62.45" cy="188.47" r="1.47"/><circle class="cls-10" cx="20.56" cy="106.73" r="3.74"/><circle class="cls-10" cx="39.13" cy="27.49" r="1.7"/><circle class="cls-10" cx="280.52" cy="130.8" r="1.99"/><circle class="cls-10" cx="209.91" cy="54.37" r="2.55"/><circle class="cls-10" cx="241.8" cy="26.16" r="6.26"/><circle class="cls-10" cx="105.24" cy="200.47" r="5.77"/><circle class="cls-10" cx="55.09" cy="238.84" r="4.98"/><circle class="cls-10" cx="136.37" cy="229.28" r="6.79"/><circle class="cls-10" cx="114.92" cy="249.76" r="5.94"/><circle class="cls-10" cx="138.67" cy="197.44" r="3.88"/><circle class="cls-10" cx="32.79" cy="203.49" r="4.64"/></svg>