<?xml version="1.0" encoding="UTF-8" standalone="no"?>
<svg
   id="Layer_1"
   data-name="Layer 1"
   viewBox="0 0 300 345"
   version="1.1"
   sodipodi:docname="xmasStocking2.svg"
   xml:space="preserve"
   inkscape:version="1.2 (dc2aedaf03, 2022-05-15)"
   xmlns:inkscape="http://www.inkscape.org/namespaces/inkscape"
   xmlns:sodipodi="http://sodipodi.sourceforge.net/DTD/sodipodi-0.dtd"
   xmlns:xlink="http://www.w3.org/1999/xlink"
   xmlns="http://www.w3.org/2000/svg"
   xmlns:svg="http://www.w3.org/2000/svg"><sodipodi:namedview
     id="namedview43676"
     pagecolor="#505050"
     bordercolor="#ffffff"
     borderopacity="1"
     inkscape:showpageshadow="0"
     inkscape:pageopacity="0"
     inkscape:pagecheckerboard="1"
     inkscape:deskcolor="#505050"
     showgrid="false"
     inkscape:zoom="1.42"
     inkscape:cx="23.239437"
     inkscape:cy="154.92958"
     inkscape:window-width="1366"
     inkscape:window-height="705"
     inkscape:window-x="-8"
     inkscape:window-y="-8"
     inkscape:window-maximized="1"
     inkscape:current-layer="Layer_1" /><defs
     id="defs43614"><inkscape:path-effect
       effect="fillet_chamfer"
       id="path-effect8356"
       is_visible="true"
       lpeversion="1"
       nodesatellites_param="F,0,0,1,0,15.476273,0,1 @ F,0,0,1,0,11.434874,0,1 @ F,0,0,1,0,39.324527,0,1"
       unit="px"
       method="auto"
       mode="F"
       radius="0"
       chamfer_steps="1"
       flexible="false"
       use_knot_distance="true"
       apply_no_radius="true"
       apply_with_radius="true"
       only_selected="false"
       hide_knots="false" /><linearGradient
       inkscape:collect="always"
       id="linearGradient2952"><stop
         style="stop-color:#e52a00;stop-opacity:1;"
         offset="0.12803532"
         id="stop2948" /><stop
         style="stop-color:#881900;stop-opacity:1;"
         offset="1"
         id="stop2950" /></linearGradient><style
       id="style43605">.cls-1{fill:url(#linear-gradient);}.cls-2{fill:#663723;}.cls-3{fill:#85482c;}.cls-4{fill:#995b3c;}.cls-5{fill:#4c281b;}.cls-6{fill:#2f2c38;}.cls-7{fill:#15141a;}.cls-8{fill:#dae6f5;}.cls-9{fill:#7ca1d5;}.cls-10,.cls-11{fill:none;stroke-linecap:round;stroke-miterlimit:10;stroke-width:4px;}.cls-10{stroke:#663723;}.cls-11{stroke:#4c281b;}.cls-12{fill:#bcd1e9;}.cls-13{fill:#aa715d;}</style><linearGradient
       inkscape:collect="always"
       xlink:href="#linearGradient2952"
       id="linearGradient2954"
       x1="150"
       y1="345"
       x2="151.98642"
       y2="288.89844"
       gradientUnits="userSpaceOnUse" /></defs><path
     id="path24149"
     style="opacity:1;fill:#ede9e9;fill-opacity:1;stroke:none;stroke-width:2.104;stroke-linecap:round;stroke-dasharray:none;stroke-opacity:1;paint-order:stroke fill markers;stop-color:#000000"
     d="m 204.94739,43.493544 c -11.87501,-8.366277 -29.49108,-6.531485 -39.38025,4.109071 -4.91061,5.682497 -8.62857,12.277134 -12.95582,18.403913 -12.98524,19.375566 -26.09746,38.670252 -39.00098,58.097902 -4.09324,6.88243 1.74586,16.54201 9.7276,16.18268 5.20525,0.24755 8.76848,-3.8527 11.17067,-7.93277 15.92234,-23.6257 31.75297,-47.316474 47.73308,-70.901201 3.7735,-5.01302 12.60797,-3.282029 14.21026,2.794154 1.74506,5.09747 -2.61015,8.999159 -4.98274,12.979365 -11.23295,11.17171 0.53241,23.284582 9.93802,21.019058 6.10867,-1.260234 8.62139,-7.373888 11.92895,-11.917171 8.29385,-11.780292 6.56359,-29.215077 -3.87662,-39.139124 -1.38559,-1.367762 -2.89623,-2.609519 -4.51218,-3.695883 z"
     sodipodi:nodetypes="scccccccccccss" /><path
     id="rect25592"
     style="opacity:1;fill:#d30a00;fill-opacity:1;stroke:#d30a00;stroke-width:0.5;stroke-linecap:round;stroke-dasharray:none;stroke-opacity:1;paint-order:normal;stop-color:#000000"
     class="UnoptimicedTransforms"
     d="m 475.43298,27.478205 c -1.53084,0.397232 -3.00297,0.948066 -4.42747,1.591086 l 5.26415,20.68807 c 2.2782,-2.639603 6.12413,-3.989738 9.50041,-2.378269 1.21539,0.476037 2.14084,1.18335 2.87427,2.038903 l -1.06063,-22.905931 c -2.11727,-0.260691 -4.26415,-0.318125 -6.41389,-0.08593 -1.93929,0.172511 -3.86325,0.52187 -5.73684,1.052071 z m -21.80247,23.199383 c -0.68697,3.096763 -0.90891,6.298972 -0.52696,9.497958 0.47797,3.059158 1.2307,6.05846 2.05192,9.042643 l 22.90094,-0.0017 c -1.19933,-4.268784 -2.41328,-8.534224 -3.60509,-12.804932 -0.46884,-2.07324 0.0419,-4.079254 1.12477,-5.733409 z M 509.20473,39.55405 491.28619,55.379112 c 0.37637,1.433781 0.71298,2.878239 1.16354,4.193178 0.29073,3.648535 1.41991,6.383088 3.02848,8.34022 l 20.16523,-11.562705 c -0.58475,-2.557699 -1.51219,-5.107645 -2.11115,-7.572608 -0.8681,-3.340957 -2.36984,-6.443622 -4.32756,-9.223147 z m -48.75854,48.357593 c 1.75124,6.178314 3.49659,12.358557 5.23907,18.539587 l 22.86928,0.001 c -1.75065,-6.17806 -3.48588,-12.360314 -5.23291,-18.539302 z m 10.54453,37.234967 c 1.7507,6.18226 3.5055,12.36325 5.27933,18.53835 l 22.61092,-8.9e-4 c -0.20375,-1.71127 -0.65505,-3.41984 -1.21096,-5.01399 -1.27046,-4.50922 -2.55157,-9.01567 -3.82664,-13.52372 z"
     transform="rotate(49.712648,322.90534,-256.45173)" /><path
     id="rect26305"
     style="opacity:0.251497;fill:#08140b;fill-opacity:1;stroke:#08140b;stroke-width:0.645;stroke-dasharray:none;stroke-opacity:1"
     class="cls-7"
     d="m 157.90297,47.838721 c -5.13312,11.202445 -9.06958,25.984546 -14.20038,37.188109 l 15.69984,-2.566365 -1.21826,-32.126614 c 0,-0.8583 -0.10328,-1.691894 -0.2812,-2.49513 z"
     transform="rotate(9.2837167)"
     sodipodi:nodetypes="ccccc" /><rect
     style="fill:#1171bd;fill-opacity:1;stroke:none;stroke-width:0.706476;stroke-linecap:round;stroke-dasharray:none;stroke-opacity:1;paint-order:normal;stop-color:#000000"
     id="rect27206"
     width="54.79501"
     height="145.81351"
     x="0"
     y="0"
     ry="15.105421" /><path
     id="rect28278"
     style="fill:#f7e44e;fill-opacity:1;stroke:#f7e44e;stroke-width:0.47018555;stroke-linecap:round;stroke-dasharray:none;stroke-opacity:1;paint-order:normal;stop-color:#000000"
     class="UnoptimicedTransforms"
     d="m -226.46201,122.46436 c 2.4462,-1.60259 4.20156,-3.84734 5.20766,-6.36075 l -47.62071,7.4e-4 8.15477,12.44748 c 4.15383,6.34044 12.60151,8.10061 18.94195,3.94678 z m -8.00762,-37.189217 -18.67494,-28.505533 -54.60235,4.94e-4 18.67493,28.505533 z M -273.3415,25.940897 -287.42583,4.4424841 c -4.15384,-6.3404371 -12.60259,-8.102243 -18.94303,-3.94840878 L -321.68519,10.528321 c -5.21816,3.418592 -7.32389,9.744671 -5.59397,15.411904 z"
     transform="matrix(-1.0035277,-0.54800361,0.65744487,-0.83647597,-291.36049,-21.663505)" /><path
     id="rect28827"
     style="fill:#09160d;stroke-width:0.344696;fill-opacity:1;opacity:0.16467066"
     class="cls-7"
     d="M 62.255219 41.189657 C 58.011208 42.851073 55.016454 46.964299 55.016454 51.811015 L 55.015731 97.159024 L 70.977708 94.549808 L 62.255219 41.189657 z "
     transform="rotate(9.2837167)" /><rect
     class="cls-7"
     y="39.502129"
     width="94.129608"
     height="95.952415"
     rx="11.414784"
     id="rect13789"
     x="60.481819"
     style="fill:#4ab96d;stroke-width:0.344696"
     transform="rotate(9.2837167)" /><rect
     class="cls-10"
     x="80.002747"
     y="-154.62766"
     width="20.579559"
     height="94.459724"
     id="rect22600"
     style="fill:#ce2235;stroke:none;stroke-opacity:1"
     transform="matrix(-0.16085808,0.98697755,-0.98682523,-0.16178991,0,0)" /><rect
     class="cls-10"
     x="88.967934"
     y="39.502129"
     width="36.008186"
     height="95.952415"
     id="rect13795"
     style="fill:#ce2235;stroke:#8c141c;stroke-width:1.3;stroke-dasharray:none;stroke-opacity:1"
     transform="rotate(9.2837167)" /><path
     id="path22895"
     style="fill:#94161f;fill-opacity:1;stroke:none;stroke-opacity:1"
     class="cls-10"
     d="m 78.460606,29.618032 c -2.7009,-0.472203 -5.417551,0.363369 -7.625072,2.141701 -3.159061,2.555252 -4.448195,7.209498 -3.577612,11.4379 a 15.785717,15.785717 0 0 1 0.168335,5.68957 15.78106,15.78106 0 0 1 -1.971249,5.339826 c -2.168674,3.712718 -2.433906,8.567364 -0.250668,11.981738 1.878609,2.939924 4.943228,4.772219 8.482339,4.539183 7.4645,-0.499412 16.651385,-2.073154 22.687968,-6.441857 a 11.189698,10.868396 9.2837167 0 0 2.444453,0.71227 11.189698,10.868396 9.2837167 0 0 2.67758,0.09729 c 4.32536,6.079594 12.54955,10.507096 19.4784,13.362267 3.28069,1.347833 6.76926,0.586751 9.48621,-1.601964 3.15679,-2.541468 4.4512,-7.227881 3.5776,-11.437902 a 15.78106,15.78106 0 0 1 -0.17025,-5.689885 15.785717,15.785717 0 0 1 1.97316,-5.339512 c 2.16869,-3.712716 2.43165,-8.553576 0.25068,-11.981735 -1.8786,-2.939925 -4.94355,-4.770296 -8.48266,-4.537259 -7.45259,0.497239 -16.6125,2.080218 -22.64945,6.436281 a 11.189698,10.868396 9.2837167 0 0 -2.63438,-0.761125 11.189698,10.868396 9.2837167 0 0 -2.589924,-0.100777 C 95.39875,37.417018 87.224361,33.002704 80.321417,30.159693 79.706289,29.906976 79.083891,29.727001 78.460606,29.618032 Z" /><path
     class="cls-10"
     d="m 136.73747,38.479992 c 2.18099,3.428164 1.91819,8.268704 -0.25049,11.981424 a 15.785717,15.785717 0 0 0 -1.97222,5.339642 15.78106,15.78106 0 0 0 0.16931,5.689703 c 0.8736,4.210026 -0.42087,8.896081 -3.57768,11.43755 -2.71694,2.188718 -6.20543,2.949051 -9.48612,1.601218 C 111.01085,70.157704 97.360731,62.103943 99.328153,50.068171 101.29557,38.032398 116.7965,34.70605 128.25496,33.94154 c 3.53911,-0.233037 6.60391,1.598525 8.48251,4.538452 z"
     id="path13839"
     style="fill:#ce2235;stroke:none;stroke-opacity:1" /><path
     class="cls-10"
     d="m 71.480515,27.812797 c -3.159062,2.555257 -4.448259,7.209144 -3.577676,11.43755 a 15.785717,15.785717 0 0 1 0.169306,5.689704 15.78106,15.78106 0 0 1 -1.972212,5.33964 c -2.168675,3.712722 -2.433733,8.567049 -0.250495,11.981426 1.878608,2.939928 4.943398,4.771489 8.482519,4.538453 C 85.78122,66.033556 101.28533,62.745476 103.25275,50.709704 105.22018,38.673931 91.585259,30.584908 80.966651,26.211581 c -3.280704,-1.347835 -6.769177,-0.5875 -9.486136,1.601216 z"
     id="path13841"
     style="fill:#ce2235;stroke:none;stroke-opacity:1" /><ellipse
     class="cls-15"
     cx="108.01349"
     cy="33.355812"
     rx="11.189698"
     ry="10.868396"
     id="ellipse13843"
     style="fill:#8c141c;stroke-width:0.465656"
     transform="rotate(9.2837167)" /><path
     class="cls-15"
     d="m 122.86089,45.69556 a 41.820507,41.820507 0 0 1 -4.04353,2.221943 c -1.369,0.667986 -2.7527,1.281668 -4.15028,1.86477 -1.39759,0.583101 -2.80988,1.111897 -4.22452,1.626155 l -2.13585,0.740806 -2.15513,0.685749 0.47189,-3.32008 c 1.22745,0.832905 2.44347,1.678095 3.63433,2.561639 1.19087,0.883546 2.36652,1.80235 3.52231,2.727344 1.15579,0.924992 2.28266,1.911319 3.38816,2.913023 a 42.481739,42.481739 0 0 1 3.18551,3.229054 42.928768,42.928768 0 0 1 -4.19592,-1.723922 c -1.35927,-0.63269 -2.68729,-1.312174 -3.99703,-2.016978 -1.30973,-0.704804 -2.59357,-1.452559 -3.88285,-2.224796 -1.28927,-0.772233 -2.51279,-1.571468 -3.74709,-2.391335 l -3.24574,-2.167832 3.77667,-1.137879 2.16366,-0.651328 2.1769,-0.587827 c 1.47708,-0.376654 2.92432,-0.74403 4.41845,-1.051841 1.49414,-0.30781 2.96997,-0.590301 4.47891,-0.815479 a 43.417706,43.417706 0 0 1 4.5611,-0.481194 z"
     id="path13845"
     style="fill:#8c141c;stroke-width:0.465656" /><path
     class="cls-15"
     d="m 82.18558,39.046592 a 43.417706,43.417706 0 0 1 4.20029,1.899216 c 1.358698,0.693935 2.68155,1.433912 3.986128,2.199211 1.304547,0.765295 2.573287,1.576638 3.85354,2.404019 l 1.8764,1.250397 1.843659,1.306382 3.217763,2.281218 -3.816788,1.036954 c -1.43112,0.384166 -2.868434,0.748448 -4.313515,1.073713 -1.445081,0.325265 -2.904041,0.61995 -4.389154,0.872616 -1.485123,0.252662 -2.939759,0.463125 -4.431229,0.639255 a 42.928768,42.928768 0 0 1 -4.526464,0.298123 42.481739,42.481739 0 0 1 4.047913,-2.046647 c 1.369158,-0.61134 2.748447,-1.169122 4.139362,-1.68254 1.390905,-0.513418 2.797953,-1.010043 4.207417,-1.463807 1.409475,-0.453763 2.832057,-0.872355 4.260842,-1.271058 L 95.745052,51.14804 93.92729,49.798709 92.138524,48.416369 C 90.961256,47.478425 89.786251,46.5267 88.651683,45.52968 87.517114,44.532662 86.391652,43.50882 85.311205,42.440437 a 41.820507,41.820507 0 0 1 -3.125546,-3.393832 z"
     id="path13847"
     style="fill:#8c141c;stroke-width:0.465656" /><ellipse
     class="cls-10"
     cx="108.01349"
     cy="33.355812"
     rx="8.0744638"
     ry="7.8416362"
     id="ellipse13849"
     style="fill:#ce2235;stroke:#ce2235;stroke-opacity:1"
     transform="rotate(9.2837167)" /><path
     id="path43616"
     style="fill:url(#linearGradient2954);fill-opacity:1"
     class="cls-1"
     d="M 0 259.14062 L 0 284.65625 L 0 288.89844 L 0 308.61914 A 36.38 36.38 0 0 0 0.11523438 309.5 C 0.083024629 309.75669 0.028241105 310.0057 0 310.26367 A 36.38 36.38 0 0 0 1.1621094 317.44531 A 36.38 36.38 0 0 0 1.2695312 318.10547 A 36.38 36.38 0 0 0 1.4082031 318.96289 A 36.38 36.38 0 0 0 4.8261719 326.69727 A 36.38 36.38 0 0 0 4.8808594 326.82031 A 36.38 36.38 0 0 0 36.164062 345 L 36.380859 345 L 263.40234 345 L 263.61914 345 A 36.38 36.38 0 0 0 263.72656 344.98633 A 36.38 36.38 0 0 0 272.5332 343.82227 A 36.38 36.38 0 0 0 273.09961 343.67188 A 36.38 36.38 0 0 0 280.86523 340.50586 A 36.38 36.38 0 0 0 281.7832 340.00586 A 36.38 36.38 0 0 0 288.16602 335.22461 A 36.38 36.38 0 0 0 289.23047 334.23047 A 36.38 36.38 0 0 0 294.00391 328.23242 A 36.38 36.38 0 0 0 294.90039 326.82617 A 36.38 36.38 0 0 0 297.94336 319.93945 A 36.38 36.38 0 0 0 298.375 318.96289 A 36.38 36.38 0 0 0 298.50586 318.15234 A 36.38 36.38 0 0 0 299.68555 310.87305 A 36.38 36.38 0 0 0 299.7832 310.26367 C 299.76962 310.13957 299.74107 310.02029 299.72656 309.89648 A 36.38 36.38 0 0 0 299.7832 308.61914 L 299.7832 291.57031 L 299.7832 288.89844 L 299.7832 283.4707 C 299.68319 282.89451 299.60103 282.30849 299.46875 281.75 C 299.24532 280.80671 298.97683 279.88962 298.66602 278.99609 C 298.3552 278.10257 298.00171 277.23337 297.60938 276.38867 C 297.21703 275.54397 296.78441 274.7226 296.31641 273.92578 C 295.8484 273.12897 295.34445 272.35729 294.80664 271.60742 C 294.26883 270.85756 293.69746 270.12963 293.0957 269.42578 C 292.49395 268.72193 291.86297 268.04159 291.20312 267.38281 C 290.54329 266.72403 289.85464 266.0873 289.14258 265.47266 C 288.43051 264.85801 287.69397 264.26481 286.93555 263.69336 C 286.17712 263.12191 285.39659 262.57216 284.59766 262.04297 C 283.79873 261.51378 282.98201 261.00545 282.14844 260.51758 C 281.33016 260.03866 280.49646 259.58063 279.65039 259.14062 L 253.75586 259.14062 L 46.027344 259.14062 L 0 259.14062 z " /><path
     id="path434"
     style="opacity:1;fill:#e52a00;fill-opacity:1;stroke-width:4.19072;stroke-linecap:round;paint-order:stroke fill markers;stop-color:#000000"
     d="m 0,175.75586 v 83.38476 5.97657 19.50195 0.0371 c 0,0.0356 0.00575807,0.0699 0.00585938,0.10547 0.00409472,1.06622 0.06493308,2.11824 0.15820312,3.16016 0.0341775,0.38703 0.0808486,0.76896 0.12695312,1.15234 0.0865018,0.71168 0.19547985,1.41524 0.32226563,2.11328 0.073154,0.40609 0.13818197,0.81364 0.22460937,1.21484 0.20142918,0.92828 0.43252938,1.84436 0.70312498,2.74414 0.00521,0.0173 0.00844,0.0354 0.013672,0.0527 0.1534894,0.51086 0.3406409,1.00487 0.515625,1.50586 0.1543162,0.43923 0.3060582,0.87934 0.4765625,1.31054 0.2288169,0.58196 0.4730364,1.15404 0.7304688,1.72071 0.1321519,0.28934 0.2746001,0.57226 0.4140624,0.85742 1.0355795,2.12874 2.2678201,4.13459 3.6816407,6.00391 0.010161,0.0134 0.019118,0.0276 0.029297,0.041 6.6320662,8.7435 17.1067592,14.39649 28.9765622,14.39649 H 263.61914 c 3.88951,0 7.7115,-0.73464 11.33789,-2.02149 l 0.48633,-0.002 c 7.48806,-2.55989 13.84996,-7.48071 18.22656,-13.88086 4.67407,-6.24395 7.23736,-13.54713 6.33008,-20.47461 -4.16582,-31.80786 -57.57465,-37.41568 -64.20703,-32.19727 -20.50513,-6.4268 -45.04046,-10.45838 -72.40625,-11.88671 -4.31224,-11.11886 -10.15074,-6.01036 -12.94727,-5.3418 2.45734,-16.42677 -3.09099,-19.4639 -11.14257,-25.05469 22.92421,-43.67412 1.63302,-15.18852 11.33593,-26.83984 z"
     sodipodi:nodetypes="ccccscccccscccccscsscccscccccc" /><path
     id="path7300"
     style="opacity:1;fill:#cb2a06;fill-opacity:1;stroke-width:6.387;stroke-linecap:round;paint-order:stroke fill markers;stop-color:#000000"
     d="M 0 177.68164 L 0 189.68164 C 2.6104683 194.86023 8.6513092 197.75558 13.986328 200.0293 C 17.054081 201.33674 20.892839 200.16319 23.847656 201.70898 C 26.922274 203.31748 28.162088 207.35594 31.136719 209.14258 C 37.67069 213.06703 45.458362 215.99593 53.070312 215.60547 C 57.353528 215.38576 60.688 210.58614 64.974609 210.72461 C 69.887548 210.88331 73.39762 216.28988 78.230469 217.1875 C 85.897261 218.61148 94.177624 217.7478 101.53711 215.16992 C 105.52228 213.774 107.87758 208.55965 112.08008 208.14844 C 115.84479 207.78006 118.83191 211.88627 122.56641 212.48828 C 128.89101 213.50782 135.59912 213.44171 141.87695 211.9668 C 141.04874 211.38457 140.19502 210.79943 139.29688 210.17578 C 141.68929 205.61786 143.35047 202.25629 144.86523 199.14258 C 137.76685 201.401 129.90764 201.67171 122.56641 200.48828 C 118.83191 199.88627 115.84479 195.78006 112.08008 196.14844 C 107.87758 196.55965 105.52228 201.774 101.53711 203.16992 C 94.177624 205.7478 85.897261 206.61148 78.230469 205.1875 C 73.39762 204.28988 69.887548 198.88331 64.974609 198.72461 C 60.688 198.58614 57.353528 203.38576 53.070312 203.60547 C 45.458362 203.99593 37.67069 201.06703 31.136719 197.14258 C 28.162088 195.35594 26.922274 191.31748 23.847656 189.70898 C 20.892839 188.16319 17.054081 189.33674 13.986328 188.0293 C 8.6513092 185.75558 2.6104683 182.86023 0 177.68164 z " /><path
     id="path12279"
     style="opacity:1;fill:#cb2b07;fill-opacity:1;stroke-width:0.47092;stroke-linecap:round;stop-color:#000000"
     d="m 57.23551,186.69336 c -9.889993,7.66333 -15.949497,7.89814 -25.11339,3.72783 l -3.621081,7.37991 -7.750111,-0.25311 c -0.10688,11.59175 -7.884811,16.80448 -15.8807541,21.83496 7.6220521,7.62505 6.8063001,16.52253 -1.344776,30.04653 9.9168531,0.68556 17.4272751,8.35775 19.7945521,16.99653 2.970092,-9.03076 13.252637,-15.4072 23.300266,-15.9307 -4.279486,-9.67556 -7.483398,-19.17836 -4.120421,-25.98293 8.848615,-2.15689 16.03852,2.54015 24.228353,14.38273 4.699017,-8.75975 14.778781,-12.45534 23.627423,-11.06469 -7.013357,-6.41785 -8.602498,-18.41176 -4.952083,-27.78745 -13.650358,-0.0944 -26.308477,-1.69708 -28.167978,-13.34961 z" /><path
     id="rect6647"
     style="opacity:1;fill:#ebf1ed;stroke-width:6.387;stroke-linecap:round;paint-order:stroke fill markers;stop-color:#000000;fill-opacity:1"
     d="m 55.982422,107.9082 c -6.059799,0.28672 -10.883939,-5.77898 -16.84961,-6.88086 -2.661387,-0.49157 -5.503164,-0.51942 -8.117187,0.18164 -3.940995,1.05696 -6.652583,5.82741 -10.732422,5.88672 -3.829587,0.0557 -6.491329,-4.40121 -10.230469,-5.23047 C 6.7791785,101.13924 2.3277887,99.815085 0,102.22852 v 75.45312 c 2.6104735,5.17859 8.6512982,8.07394 13.986328,10.34766 3.067759,1.30744 6.906505,0.13387 9.861328,1.67968 3.074624,1.6085 4.314426,5.64696 7.289063,7.4336 6.533985,3.92447 14.321627,6.85335 21.933593,6.46289 4.283224,-0.21971 7.617678,-5.01933 11.904297,-4.88086 4.912949,0.1587 8.423001,5.56527 13.25586,6.46289 7.666808,1.42398 15.947141,0.5603 23.306641,-2.01758 3.98517,-1.39592 6.34047,-6.61027 10.54297,-7.02148 3.76473,-0.36838 6.75183,3.73783 10.48633,4.33984 7.74498,1.24851 16.07746,0.90719 23.47265,-1.71094 2.10221,-0.74425 4.10121,-2.07721 5.49219,-3.82031 2.23709,-2.80339 1.63574,-7.30727 4.03125,-9.97656 2.82059,-3.14296 8.23992,-2.93941 11.16602,-5.98438 2.77925,-2.89216 4.12154,-6.97743 5.25781,-10.82421 1.1024,-3.73211 1.80786,-7.71537 1.42383,-11.5879 -0.39678,-4.00106 -4.26748,-7.45661 -3.79297,-11.44921 0.43142,-3.63009 5.31818,-5.68783 5.79297,-9.3125 0.56581,-4.3195 -3.74247,-8.14417 -3.8125,-12.5 -0.0624,-3.87854 3.67316,-7.40817 3.03515,-11.23438 -0.81345,-4.87832 -3.77764,-10.3105 -8.30859,-12.292968 -3.76077,-1.64548 -8.27988,0.560088 -12.17383,1.859378 -3.63849,1.21405 -6.30764,5.62999 -10.13867,5.4414 -3.51777,-0.17317 -5.41473,-4.83291 -8.77539,-5.88672 -15.65093,-9.82633 -25.7327,9.48546 -34.63086,9.94336 -5.912566,-0.0135 -8.666437,-8.67082 -14.283204,-10.51757 -20.182202,-1.317375 -18.747305,7.13633 -30.339844,7.27343 z"
     sodipodi:nodetypes="csscsccssssssssssssssssscsssscccc" /><path
     id="rect8188"
     style="opacity:1;fill:#cb2a06;stroke-width:6.387;stroke-linecap:round;paint-order:stroke fill markers;stop-color:#000000"
     d="M 150.61719 223.5918 C 138.8512 234.17528 128.74092 237.09718 118.90625 238.73828 C 130.03073 239.40415 141.98464 242.6918 150.46289 234.99414 C 151.16634 230.16561 151.17278 226.49655 150.61719 223.5918 z M 163.26367 240.28711 C 158.7172 244.61048 154.0128 247.54564 149.26367 250.08789 C 157.93692 247.72141 167.6662 246.79612 174.02734 241.27539 C 170.52884 240.99795 166.98587 240.76012 163.38672 240.57227 C 163.34633 240.46811 163.30433 240.38843 163.26367 240.28711 z " /><path
     id="rect8197"
     style="opacity:1;fill:#c1cccd;stroke-width:7.0897;stroke-linecap:round;paint-order:stroke fill markers;stop-color:#000000;fill-opacity:1"
     d="m 110.516,144.85979 -11.711075,5.42542 c -5.730255,2.65467 -15.447822,6.30086 -21.703723,5.76563 -9.668649,-0.82721 -20.433667,-5.16568 -31.42762,-10.23734 -19.705919,-9.09061 -19.051049,-10.7063 2.409449,-7.4475 20.154102,3.06043 40.048133,3.85227 61.117999,1.88383 8.50904,-0.79495 9.07046,1.01705 1.31497,4.60996 z"
     sodipodi:nodetypes="cccc"
     inkscape:path-effect="#path-effect8356"
     inkscape:original-d="m 124.55855,138.35426 -36.129169,16.73766 c -21.663928,6.37581 -52.512893,-16.6646 -78.7693404,-24.9969 39.2196564,10.6306 74.4187314,14.44535 114.8985094,8.25924 z" /><path
     id="rect10765"
     style="opacity:1;fill:#18851e;stroke:#0b3c0e;stroke-width:1.705;stroke-linecap:round;stroke-dasharray:none;stroke-opacity:1;stop-color:#000000"
     d="m 3.5260059,242.37668 c 9.9168621,0.68556 17.4273161,8.35716 19.7945951,16.99594 2.970096,-9.03077 13.252604,-15.40668 23.300244,-15.93018 -5.521697,-12.48409 -9.261166,-24.68346 0.598779,-31.16585 C 36.169853,206.4079 33.466393,200.98045 33.503891,190.91231 l -12.752733,-0.41747 c -0.106881,11.59176 -7.884271,16.80402 -15.8802221,21.83451 7.6220601,7.62506 6.8061541,16.52332 -1.34493,30.04733 z"
     sodipodi:nodetypes="cccccccc" /><path
     id="path12274"
     style="opacity:1;fill:#0b3c0e;fill-opacity:1;stroke-width:0.47092;stroke-linecap:round;stop-color:#000000"
     d="m 28.468324,190.74662 -3.729558,7.60375 c 10.524511,4.85951 12.082516,14.09171 13.384051,23.44835 1.113121,-0.42134 2.196122,-0.73677 3.257767,-0.95736 0.643747,-3.38974 2.424909,-6.32007 5.838842,-8.56455 -11.04976,-5.86868 -13.75387,-11.29677 -13.716371,-21.36489 z" /><rect
     style="opacity:1;fill:#750900;fill-opacity:1;stroke:none;stroke-width:1.43964;stroke-linecap:round;stroke-dasharray:none;stroke-opacity:1;paint-order:normal;stop-color:#000000"
     id="rect13026"
     width="8.2443104"
     height="8.9509659"
     x="29.090349"
     y="175.69659" /><path
     id="path12272"
     style="opacity:1;fill:#18851e;stroke:#0b3c0e;stroke-width:1.705;stroke-linecap:round;stroke-dasharray:none;stroke-opacity:1;stop-color:#000000"
     d="m 66.727769,231.84274 c 4.699023,-8.75976 14.778765,-12.45558 23.627415,-11.06494 -7.013367,-6.41786 -8.602194,-18.41193 -4.951776,-27.78763 -13.650371,-0.0944 -26.308997,-1.69673 -28.168499,-13.34928 -9.890003,7.66334 -15.948938,7.89846 -25.112839,3.72815 l -5.619633,11.45539 c 10.524522,4.85951 12.081584,14.09158 13.38312,23.44823 10.083171,-3.81669 17.860698,0.58272 26.842212,13.57008 z"
     sodipodi:nodetypes="cccccccc" /><path
     id="circle9309"
     style="fill:#fe1b0a;fill-opacity:1;fill-rule:evenodd;stroke:#750900;stroke-width:1.43964;stroke-dasharray:none;stroke-opacity:1;paint-order:normal"
     d="m 29.103692,153.46482 a 13.232435,13.232435 0 0 0 -13.232527,13.23253 13.232435,13.232435 0 0 0 5.212083,10.48443 13.232435,13.232435 0 0 0 -11.6501341,13.11888 13.232435,13.232435 0 0 0 13.2325281,13.23253 13.232435,13.232435 0 0 0 13.137823,-11.89292 13.232435,13.232435 0 0 0 11.181787,6.17117 13.232435,13.232435 0 0 0 13.232527,-13.23254 13.232435,13.232435 0 0 0 -13.232527,-13.23252 13.232435,13.232435 0 0 0 -6.264142,1.61338 13.232435,13.232435 0 0 0 1.615109,-6.26241 13.232435,13.232435 0 0 0 -13.232527,-13.23253 z m 6.26242,24.84994 a 13.232435,13.232435 0 0 0 -1.516963,4.91937 13.232435,13.232435 0 0 0 -3.120017,-3.41963 13.232435,13.232435 0 0 0 4.63698,-1.49974 z" /><path
     id="path9935"
     style="fill:#ffffff;fill-opacity:1;fill-rule:evenodd;stroke-width:0.318353"
     d="M 33.394531 155.61133 A 4.6492338 4.6492338 0 0 0 28.746094 160.25977 A 4.6492338 4.6492338 0 0 0 33.394531 164.9082 A 4.6492338 4.6492338 0 0 0 38.042969 160.25977 A 4.6492338 4.6492338 0 0 0 33.394531 155.61133 z M 51.275391 173.49219 A 4.6492338 4.6492338 0 0 0 46.626953 178.14062 A 4.6492338 4.6492338 0 0 0 51.275391 182.79102 A 4.6492338 4.6492338 0 0 0 55.925781 178.14062 A 4.6492338 4.6492338 0 0 0 51.275391 173.49219 z M 24.146484 176.40234 A 4.6492338 4.6492338 0 0 0 19.496094 181.05273 A 4.6492338 4.6492338 0 0 0 24.146484 185.70117 A 4.6492338 4.6492338 0 0 0 28.794922 181.05273 A 4.6492338 4.6492338 0 0 0 24.146484 176.40234 z " /><path
     id="path28895"
     style="opacity:1;fill:#1a1a1a;fill-opacity:0.23588;stroke-width:6.387;stroke-linecap:round;paint-order:stroke fill markers;stop-color:#000000"
     d="M 126.99023,92.439453 C 115.84547,91.962717 107.83521,104.7803 100.60547,105.15234 94.692914,105.13884 91.939021,96.481512 86.322266,94.634766 66.140104,93.317393 67.574937,101.7711 55.982422,101.9082 c -6.059787,0.28672 -10.883949,-5.778978 -16.84961,-6.880856 -2.661381,-0.49157 -5.50317,-0.519418 -8.117187,0.18164 -3.940987,1.056958 -6.652591,5.827406 -10.732422,5.886716 -3.829579,0.0557 -6.491335,-4.401206 -10.230469,-5.230466 C 6.7791857,95.139246 2.3277841,93.815085 0,96.228516 v 6.000004 c 2.3277841,-2.413439 6.7791857,-1.08926 10.052734,-0.36329 3.739134,0.82926 6.40089,5.28617 10.230469,5.23047 4.079831,-0.0593 6.791435,-4.82976 10.732422,-5.88672 2.614017,-0.70104 5.455806,-0.67321 8.117187,-0.18164 5.965661,1.10188 10.789823,7.16758 16.84961,6.88086 11.592515,-0.1371 10.157682,-8.590811 30.339844,-7.27343 5.616755,1.84673 8.370648,10.50407 14.283204,10.51757 8.89814,-0.4579 18.97995,-19.769662 34.63086,-9.94336 3.36064,1.05381 5.25762,5.71355 8.77539,5.88672 3.83101,0.18859 6.50018,-4.22735 10.13867,-5.4414 3.41005,-0.71013 4.09153,-4.221551 5.66166,-6.921601 -1.69993,0.508444 -4.07558,0.392401 -5.66157,0.921598 -3.63849,1.214048 -6.30766,5.629993 -10.13867,5.441403 -3.51777,-0.17317 -5.41475,-4.832908 -8.77539,-5.886716 -2.93455,-1.842433 -5.67422,-2.659515 -8.2461,-2.769531 z"
     sodipodi:nodetypes="scccsscscccccsccccsccsscss" /></svg>
