<?xml version="1.0" encoding="UTF-8" standalone="no"?>
<svg id="Layer_1" data-name="Layer 1" viewBox="0 0 300 345" version="1.1" sodipodi:docname="treasureMap.svg" xml:space="preserve" inkscape:version="1.2 (dc2aedaf03, 2022-05-15)" xmlns:inkscape="http://www.inkscape.org/namespaces/inkscape" xmlns:sodipodi="http://sodipodi.sourceforge.net/DTD/sodipodi-0.dtd" xmlns="http://www.w3.org/2000/svg" xmlns:svg="http://www.w3.org/2000/svg"><sodipodi:namedview id="namedview193" pagecolor="#505050" bordercolor="#ffffff" borderopacity="1" inkscape:showpageshadow="0" inkscape:pageopacity="0" inkscape:pagecheckerboard="1" inkscape:deskcolor="#505050" showgrid="false" inkscape:zoom="0.38304225" inkscape:cx="26.106781" inkscape:cy="240.18238" inkscape:window-width="1366" inkscape:window-height="705" inkscape:window-x="-8" inkscape:window-y="-8" inkscape:window-maximized="1" inkscape:current-layer="Layer_1"/><defs id="defs139"><style id="style132">.cls-1{fill:url(#linear-gradient);}.cls-2{fill:#f3c1da;}.cls-3{fill:#da77ac;}.cls-4{fill:#edb1d0;}.cls-5,.cls-6{fill:none;stroke-linecap:round;}.cls-5{stroke:#f38db6;stroke-linejoin:round;stroke-width:40px;}.cls-6{stroke:#e565a0;stroke-miterlimit:10;stroke-width:8px;}.cls-7{fill:#cd4d92;}.cls-8{fill:#2f2c38;}.cls-9{fill:#fff;}.cls-10{fill:#f38db6;}.cls-11{fill:#e565a0;}.cls-12{fill:#fbd9e8;}</style><linearGradient id="linear-gradient" x1="150" y1="356.11" x2="150" y2="161.16" gradientUnits="userSpaceOnUse"><stop offset="0" stop-color="#f3c1da" id="stop134" style="stop-color:#eac88f;stop-opacity:1;"/><stop offset="0.39291778" stop-color="#e573ac" id="stop136" style="stop-color:#937545;stop-opacity:1;"/></linearGradient></defs><path class="cls-1" d="M 263.62,345 H 36.38 A 36.38,36.38 0 0 1 0,308.62 v -49.48 h 300 v 49.48 A 36.38,36.38 0 0 1 263.62,345 Z" id="path141" style="fill:url(#linear-gradient)"/><path id="rect143" style="fill:#eac88f" class="cls-2" d="M 36.380859 80.826172 C 16.226359 80.826172 -1.3831461e-16 97.052532 0 117.20703 L 0 278.00977 C 0 298.16427 16.226359 314.39062 36.380859 314.39062 L 86.099609 314.39062 L 95.744141 302.95703 L 107.89258 314.39062 L 263.61914 314.39062 C 283.77364 314.39062 300 298.16427 300 278.00977 L 300 117.20703 C 300 97.052532 283.77364 80.826172 263.61914 80.826172 L 199.46094 80.826172 L 191.54688 92.431641 L 186.14844 80.826172 L 36.380859 80.826172 z "/><path id="path11612" style="fill:#f6deb6;fill-opacity:1" class="cls-2" d="m 0,268.00977 v 10 c 0,20.15448 16.22638,36.38085 36.380859,36.38085 h 49.71875 l 9.644532,-11.43359 12.148439,11.43359 H 263.61914 C 283.77362,314.39062 300,298.16425 300,278.00977 v -10 c 0,20.15448 -16.6736,31.9143 -35.07421,40.13748 -3.24494,1.45015 -11.91962,-2.0427 -21.94566,-1.51304 -33.56293,1.77307 -96.91226,-0.79563 -135.08755,-2.24359 l -0.9723,-9.384 -11.176139,-15.76944 -13.891152,23.84679 c -16.572916,7.94164 -28.899213,2.93573 -45.47213,1.30665 C 16.323051,302.41898 0,288.16425 0,268.00977 Z" sodipodi:nodetypes="csscccsscssccccsc"/><path id="path7159" style="opacity:1;fill:#b29059;fill-opacity:1;stroke:none;stroke-width:5.60189;stroke-linejoin:round;stroke-dasharray:none;stroke-opacity:1;stop-color:#000000" d="M 62.371094 80.826172 C 56.607745 83.766863 51.410813 88.176056 45.773438 91.443359 L 45.773438 223.7207 C 51.6924 237.31905 53.346635 260.54204 92.386719 262.9375 C 123.7612 264.86261 135.07931 255.734 145.84375 273.23633 C 162.76422 300.74801 227.17961 316.26867 244.97266 268.18359 C 256.75788 175.59359 196.14701 188.73855 201.06836 173.44727 C 208.23792 151.17049 174.97794 179.57382 206.13281 151.06445 C 221.16363 137.30997 216.68749 106.95841 193.79492 89.134766 L 191.54688 92.431641 L 188.2207 85.28125 C 185.51071 83.621945 182.60077 82.123248 179.48438 80.826172 L 116.75391 80.826172 C 110.62074 82.721642 104.23464 85.09726 97.542969 88.109375 C 93.477869 84.790393 89.801541 82.479422 86.378906 80.826172 L 62.371094 80.826172 z "/><path id="rect8953" style="opacity:1;fill:#b29059;stroke-width:9.008;stroke-linecap:round;stroke-linejoin:round;stroke-dashoffset:129.715;stop-color:#000000" d="M 173.07227 80.826172 L 190.97852 95.363281 L 202.88867 80.826172 L 199.46094 80.826172 L 191.54688 92.431641 L 186.14844 80.826172 L 173.07227 80.826172 z "/><path style="opacity:1;fill:#eac88f;fill-opacity:1;stroke:#864200;stroke-width:5.061;stroke-linejoin:round;stroke-dasharray:none;stroke-opacity:1;stop-color:#000000" d="m 56.586752,222.3051 c 5.314486,12.36162 9.520809,27.96131 44.573908,30.13891 28.17035,1.75002 43.77731,-5.63037 53.44243,10.28019 15.19246,25.00958 64.86231,43.71189 80.83822,0 10.58166,-84.16927 -48.37454,-69.4638 -43.95579,-83.36441 6.43737,-20.25078 -23.426,-0.86111 4.54716,-26.77766 C 220.88242,129.55937 190.99195,58.957323 103.06873,99.026816 79.891048,79.867611 69.564607,94.442912 56.586752,102.05825 Z" id="path6812" sodipodi:nodetypes="ccsscssc"/><path style="opacity:1;fill:none;fill-opacity:1;stroke:#b29059;stroke-width:4.64248;stroke-linecap:round;stroke-linejoin:round;stroke-dasharray:none;stroke-dashoffset:129.715;stroke-opacity:1;stop-color:#000000" d="m 220.28325,230.55473 c 5.80002,6.59309 9.48331,15.42825 -1.75423,17.26687 -4.79989,0.78532 -9.34503,-6.24478 -19.17072,-0.478 -12.19394,7.15672 -21.0129,6.52502 -28.06881,5.51914 -16.75842,-2.38907 -4.96536,-12.09593 -6.28418,-14.36379" id="path10530" sodipodi:nodetypes="csssc"/><path style="fill:#b29059;fill-opacity:1;stroke-width:8.97189;stroke-linejoin:round;stop-color:#000000" d="m 95.891796,287.19757 -16.488719,30.25392 15.706974,-13.95948 14.799009,12.78506 -5.3838,-16.97141 z" id="path6736" inkscape:transform-center-x="1.0104777" inkscape:transform-center-y="1.8398227e-06" sodipodi:nodetypes="cccccc"/><g id="g6710" transform="translate(0,-1.3329043)"><path id="path2240" style="display:inline;fill:#eac88f;fill-opacity:1;stroke-width:0.978532" class="cls-2" d="M 37.804084,51.537109 C 18.008287,51.686165 -1.8122496,69.74118 -0.00509594,91.345165 0.02321902,150.59898 -0.05529388,209.8542 0.02386382,269.10736 c 0.0079536,5.95364 -0.01137838,15.75766 1.94878598,21.3194 5.2023864,14.76116 30.0149752,24.43657 46.1201982,19.87161 14.281345,-4.04799 26.292137,-14.82013 25.567962,-36.46048 V 88.60265 c 0,-5.424209 -1.184148,-14.138255 -3.997409,-18.677998 C 62.816584,58.875985 50.466225,51.597068 37.804084,51.537109 Z" sodipodi:nodetypes="ccssacssc"/><path id="path5395" style="fill:#b29059;fill-rule:evenodd;stroke-width:0.913064" d="m 71.124645,279.90991 c 0,15.20557 -14.421174,29.13779 -32.047584,27.53212 -4.485288,-0.40858 -8.779934,-1.57897 -12.709796,-3.28441 -8.004953,-3.4739 -8.295387,-9.10926 -6.303132,-15.18463 1.748997,-5.33356 -8.262274,-9.3839 -6.669895,-14.23098 4.675458,-14.23174 5.848956,-18.77467 25.300432,-18.9227 17.698881,-0.1347 32.429975,8.88503 32.429975,24.0906 z" sodipodi:nodetypes="sssssss"/><path id="rect5106" style="fill:#b29059;fill-opacity:1;stroke-width:5;stroke-linejoin:round;stop-color:#000000" d="m 59.204919,222.64453 -4.523764,5.51758 -9.300603,26.60351 22.963357,8.41211 z m -25.029646,11.37305 -7.756443,22.93554 14.322531,-1.25195 -4.141708,-17.59961 z"/><path id="rect4823" style="fill:#b29059;fill-opacity:1;stroke-width:4.36039;stroke-linejoin:round;stop-color:#000000" d="M 32.525134,51.537109 C 16.822233,51.674532 1.1379381,67.04266 -0.00187311,86.369141 v 40.529299 c -0.0026407,47.40321 -0.03431984,94.80663 0.02016554,142.20898 0.0047277,4.1131 0.03483822,10.0166 0.58648095,15.13672 L 16.861555,256.96875 c 0.07927,-13.74992 0.94697,-28.3388 3.31555,-43.61328 5.838561,-37.65167 1.191421,-76.46642 -5.703485,-114.69922 l 11.845571,35.17969 c 0.0086,-26.51327 7.169249,-57.645889 6.63278,-82.279299 -0.142473,-0.0033 -0.284263,-0.01875 -0.426837,-0.01953 z"/><path id="rect5743" style="fill:#b29059;fill-opacity:1;stroke-width:5;stroke-linejoin:round;stop-color:#000000" d="m 9.942155,267.29102 c 5.157492,-4.86118 17.270614,-12.44499 20.970084,-10.365 3.419315,1.92247 1.753068,24.86997 4.442005,27.30355 -25.188567,3.43567 -30.6516888,3.82289 -20.265414,19.02582 2.173987,3.18217 0.935125,5.11379 11.651335,11.00405 L 14.913232,310.50115 C 6.3855603,298.38799 -5.0941917,287.25885 9.942155,267.29102 Z" sodipodi:nodetypes="cscsccc"/><path style="fill:none;fill-opacity:1;stroke:#864200;stroke-width:5.061;stroke-linejoin:round;stroke-dasharray:none;stroke-opacity:1;stop-color:#000000" d="M 29.600776,314.61584 C 19.48542,315.36916 5.3009583,303.48822 3.5005396,290.28372 -1.1232914,256.37195 45.544429,246.13057 64.589435,262.3556 c 7.401595,6.30565 8.101617,18.61477 4.376027,26.90036 -4.727113,10.51294 -18.170572,19.33172 -29.217127,18.49777 -12.638222,-0.95412 -23.214886,-11.15768 -6.564834,-29.28502 l -0.49141,-22.052" id="path3885" sodipodi:nodetypes="cssascc"/><path id="path3950" style="color:#000000;fill:#864200;fill-opacity:1" d="M 37.785156,49.037109 C 21.74276,49.157905 5.9957354,60.059671 0,75.347656 v 9.164063 0.191195 C 2.3665613,67.743211 21.591165,54.167626 37.810547,54.039062 c 11.705769,0.06224 23.335028,6.885992 29.728515,17.203126 2.224177,3.58914 3.621094,12.30098 3.621094,17.361328 V 273.87891 l 0.002,0.043 c 0.346172,10.34453 -2.308078,17.77384 -6.615234,23.1875 -2.810502,3.53251 -18.808718,9.08442 -22.822225,11.06519 l -0.38239,0.72598 c -1.830092,3.15793 15.185965,-0.20917 23.873986,-8.67789 5.851447,-5.70375 11.321913,-15.17303 10.94391,-26.46875 V 88.603516 c 0,-5.78804 -0.968764,-14.505777 -4.371094,-19.996094 C 64.492183,56.832484 51.428872,49.101569 37.816406,49.037109 h -0.01563 z" sodipodi:nodetypes="cccccssccsccscssccc"/><path style="fill:#864200;fill-opacity:1;stroke-width:2.52427;stroke-linejoin:round;stop-color:#000000" d="m 33.610183,243.48126 -3.915878,11.57912 7.230799,-0.63205 -2.090961,-8.88525 z" id="path5341"/><path style="fill:#864200;fill-opacity:1;stroke-width:2.51327;stroke-linejoin:round;stop-color:#000000" d="m 58.774045,236.70486 -1.86429,3.38279 -3.832875,16.31035 9.463437,5.15739 z" id="path5268"/><path id="rect5767" style="fill:#f6deb6;stroke-width:5;stroke-linejoin:round;stop-color:#000000" d="m 60.8001,72.654207 c 7.063902,-0.210754 2.348357,13.97207 2.676735,21.031482 0.968915,20.829551 7.042221,45.789201 -2.103149,62.520861 -6.171819,11.29148 -4.466225,-9.82941 -5.162272,-15.10443 C 53.219984,118.43145 37.943089,73.336156 60.8001,72.654207 Z" sodipodi:nodetypes="aasaa"/></g><path style="opacity:1;fill:none;fill-opacity:1;stroke:#864200;stroke-width:4.8038;stroke-linejoin:round;stroke-dasharray:none;stroke-opacity:1;stop-color:#000000" d="M 51.072027,314.6524 H 85.890605 L 95.490144,302.07 106.10016,314.6524 H 262.27924" id="path6565" sodipodi:nodetypes="ccccc"/><g class="UnoptimicedTransforms" id="g6688" transform="matrix(-1,0,0,1,300,0)"><path class="cls-2" id="path6668" d="M 37.804084,51.537109 C 18.008287,51.686165 -1.8122496,69.74118 -0.00509594,91.345165 0.02321902,150.59898 -0.05529388,209.8542 0.02386382,269.10736 c 0.0079536,5.95364 -0.01137838,15.75766 1.94878598,21.3194 5.2023864,14.76116 30.0149752,24.43657 46.1201982,19.87161 14.281345,-4.04799 26.292137,-14.82013 25.567962,-36.46048 V 88.60265 c 0,-5.424209 -1.184148,-14.138255 -3.997409,-18.677998 C 62.816584,58.875985 50.466225,51.597068 37.804084,51.537109 Z" style="display:inline;fill:#eac88f;fill-opacity:1;stroke-width:0.978532"/><path id="path6670" d="m 71.124645,279.90991 c 0,15.20557 -14.421174,29.13779 -32.047584,27.53212 -4.485288,-0.40858 -8.779934,-1.57897 -12.709796,-3.28441 -8.004953,-3.4739 -8.295387,-9.10926 -6.303132,-15.18463 1.748997,-5.33356 -8.262274,-9.3839 -6.669895,-14.23098 4.675458,-14.23174 5.848956,-18.77467 25.300432,-18.9227 17.698881,-0.1347 32.429975,8.88503 32.429975,24.0906 z" style="fill:#b29059;fill-rule:evenodd;stroke-width:0.913064"/><path id="path6672" d="m 59.204919,222.64453 -4.523764,5.51758 -9.300603,26.60351 22.963357,8.41211 z m -25.029646,11.37305 -7.756443,22.93554 14.322531,-1.25195 -4.141708,-17.59961 z" style="opacity:1;fill:#b29059;fill-opacity:1;stroke-width:5;stroke-linejoin:round;stop-color:#000000"/><path id="path6674" d="M 32.525134,51.537109 C 16.822233,51.674532 1.1379381,67.04266 -0.00187311,86.369141 v 40.529299 c -0.0026407,47.40321 -0.03431984,94.80663 0.02016554,142.20898 0.0047277,4.1131 0.03483822,10.0166 0.58648095,15.13672 L 16.861555,256.96875 c 0.07927,-13.74992 0.94697,-28.3388 3.31555,-43.61328 5.838561,-37.65167 1.191421,-76.46642 -5.703485,-114.69922 l 11.845571,35.17969 c 0.0086,-26.51327 7.169249,-57.645889 6.63278,-82.279299 -0.142473,-0.0033 -0.284263,-0.01875 -0.426837,-0.01953 z" style="opacity:1;fill:#b29059;fill-opacity:1;stroke-width:4.36039;stroke-linejoin:round;stop-color:#000000"/><path id="path6676" d="m 9.942155,267.29102 c 5.157492,-4.86118 17.270614,-12.44499 20.970084,-10.365 3.419315,1.92247 1.753068,24.86997 4.442005,27.30355 -25.188567,3.43567 -30.6516888,3.82289 -20.265414,19.02582 2.173987,3.18217 0.935125,5.11379 11.651335,11.00405 L 14.913232,310.50115 C 6.3855603,298.38799 -5.0941917,287.25885 9.942155,267.29102 Z" style="opacity:1;fill:#b29059;fill-opacity:1;stroke-width:5;stroke-linejoin:round;stop-color:#000000"/><path id="path6678" d="M 29.600776,314.61584 C 19.48542,315.36916 5.3009583,303.48822 3.5005396,290.28372 -1.1232914,256.37195 45.544429,246.13057 64.589435,262.3556 c 7.401595,6.30565 8.101617,18.61477 4.376027,26.90036 -4.727113,10.51294 -18.170572,19.33172 -29.217127,18.49777 -12.638222,-0.95412 -23.214886,-11.15768 -6.564834,-29.28502 l -0.49141,-22.052" style="opacity:1;fill:none;fill-opacity:1;stroke:#864200;stroke-width:5.061;stroke-linejoin:round;stroke-dasharray:none;stroke-opacity:1;stop-color:#000000"/><path id="path6680" d="M 37.785156,49.037109 C 21.74276,49.157905 5.9957354,60.059671 0,75.347656 v 9.164063 0.191195 C 2.3665613,67.743211 21.591165,54.167626 37.810547,54.039062 c 11.705769,0.06224 23.335028,6.885992 29.728515,17.203126 2.224177,3.58914 3.621094,12.30098 3.621094,17.361328 V 273.87891 l 0.002,0.043 c 0.346172,10.34453 -2.308078,17.77384 -6.615234,23.1875 -2.810502,3.53251 -18.808718,9.08442 -22.822225,11.06519 l -0.38239,0.72598 c -1.830092,3.15793 15.185965,-0.20917 23.873986,-8.67789 5.851447,-5.70375 11.321913,-15.17303 10.94391,-26.46875 V 88.603516 c 0,-5.78804 -0.968764,-14.505777 -4.371094,-19.996094 C 64.492183,56.832484 51.428872,49.101569 37.816406,49.037109 h -0.01563 z" style="color:#000000;fill:#864200;fill-opacity:1"/><path id="path6682" d="m 33.610183,243.48126 -3.915878,11.57912 7.230799,-0.63205 -2.090961,-8.88525 z" style="opacity:1;fill:#864200;fill-opacity:1;stroke-width:2.52427;stroke-linejoin:round;stop-color:#000000"/><path id="path6684" d="m 58.774045,236.70486 -1.86429,3.38279 -3.832875,16.31035 9.463437,5.15739 z" style="opacity:1;fill:#864200;fill-opacity:1;stroke-width:2.51327;stroke-linejoin:round;stop-color:#000000"/><path id="path6686" d="m 60.8001,72.654207 c 7.063902,-0.210754 2.348357,13.97207 2.676735,21.031482 0.968915,20.829551 7.042221,45.789201 -2.103149,62.520861 -6.171819,11.29148 -4.466225,-9.82941 -5.162272,-15.10443 C 53.219984,118.43145 37.943089,73.336156 60.8001,72.654207 Z" style="opacity:1;fill:#f6deb6;stroke-width:5;stroke-linejoin:round;stop-color:#000000"/></g><path id="path8031" style="fill:#b29059;fill-rule:evenodd;stroke-width:0.838099" d="m 163.25037,299.087 c -1.10992,-0.39443 -3.64503,-4.6193 -5.46763,-4.8257 -4.76291,-0.53938 -10.9226,-0.73174 -13.06107,-2.11887 -5.81079,-3.7692 -0.11771,-6.87342 -1.57363,-10.81449 -0.9213,-2.49388 -6.11947,-7.2643 -4.95223,-7.64681 3.26606,-1.07027 12.26474,5.19275 13.32666,13.57335 0.36354,2.86913 29.30017,9.64202 11.7279,11.83252 z" sodipodi:nodetypes="csssssc"/><path id="path8241" style="fill:#b29059;fill-rule:evenodd;stroke-width:0.711505" d="m 210.93336,161.00352 c -3.24848,7.36502 4.83561,11.65326 2.9672,12.24043 -3.52212,1.10688 -11.31996,-2.59716 -8.29433,-8.21764 1.36092,-2.52809 -2.90842,-3.78025 -4.22703,-3.57839 -2.14602,0.32853 3.26446,-5.02856 4.94149,-5.02856 2.36809,10e-6 6.07501,1.2687 4.61267,4.58416 z" sodipodi:nodetypes="ssssss"/><path id="path8313" style="fill:#b29059;fill-rule:evenodd;stroke-width:0.614083" d="m 105.6292,269.41546 c 0.19599,6.45742 -9.224314,8.70923 -16.346676,2.88656 -5.284911,-4.32051 -9.645554,-3.11095 -9.645557,-6.18549 -3e-6,-3.07454 10.576964,4.53602 17.362,4.53602 6.785043,0 8.536973,-4.31017 8.630233,-1.23709 z" sodipodi:nodetypes="sssss"/><path style="color:#000000;fill:#f3001c;stroke-width:0.945819;stroke-linecap:round;stroke-linejoin:round;stroke-dasharray:25.5598, 25.5598;stroke-dashoffset:122.687;-inkscape-stroke:none" d="m 148.85224,103.33476 c -8.28145,0.67428 -3.71677,9.98349 2.23921,8.93651 6.47004,0.59988 10.83883,5.68654 13.14019,11.34589 5.21887,6.66886 11.05061,-2.78712 5.93937,-6.89392 -3.62377,-8.44759 -12.56119,-12.77772 -21.31877,-13.38848 z m -30.56756,4.74318 c -8.5578,2.91672 -16.7661,7.13177 -23.675102,13.02544 -5.258215,6.51805 5.012669,9.68945 8.273912,4.29393 5.74623,-4.35397 12.42734,-7.17449 19.10332,-9.71842 3.96752,-2.47006 1.15681,-9.20522 -3.70213,-7.60095 z m -35.9775,36.44255 c -6.970326,1.79138 -3.818025,9.96301 -3.16685,15.02963 1.276702,5.4697 3.441058,10.69993 6.083353,15.64186 4.891395,6.56003 11.13281,-2.51524 6.138647,-6.70794 -3.255929,-6.41335 -4.975861,-13.5298 -5.017444,-20.71043 -0.419958,-1.83951 -2.155957,-3.23816 -4.037706,-3.25312 z m 93.72131,-2.1509 c -6.71237,3.34945 -1.75189,13.93821 -8.41195,18.60478 -3.51214,2.59091 -10.32155,8.68556 -2.83718,11.55265 6.19551,-0.83776 10.31154,-6.7952 13.29115,-11.81346 2.27116,-5.38424 5.86721,-16.47622 -2.04202,-18.34397 z m -78.293679,54.48378 c -10.02163,3.24763 0.75214,11.52598 4.480319,15.58534 4.8705,3.73198 12.08448,15.84971 17.50941,7.53184 -1.25842,-7.04531 -9.92859,-10.24666 -13.90517,-16.03607 -2.70685,-2.36413 -4.40074,-6.0624 -8.084559,-7.08111 z m 51.148789,29.2325 c -8.9722,6.07666 4.14804,11.33122 8.87212,15.03179 1.64496,0.76026 3.4425,2.10507 5.28569,3.40669 l 3.97749,-7.48715 c -1.2356,-0.65776 -2.39676,-1.35548 -3.29521,-2.20731 -5.06811,-2.6833 -9.15867,-7.58176 -14.84009,-8.74402 z" id="path8490" sodipodi:nodetypes="cccccccccccccccccccccccccccccccc"/><path style="opacity:1;fill:none;fill-opacity:1;stroke:#864200;stroke-width:3.43057;stroke-linecap:round;stroke-linejoin:round;stroke-dasharray:none;stroke-dashoffset:129.715;stroke-opacity:1;stop-color:#000000" d="m 190.86937,221.09874 -0.96405,15.53231" id="path9004"/><path style="opacity:1;fill:none;fill-opacity:1;stroke:#864200;stroke-width:2.94118;stroke-linecap:round;stroke-linejoin:round;stroke-dasharray:none;stroke-dashoffset:129.715;stroke-opacity:1;stop-color:#000000" d="m 189.17551,226.60467 c -9.293,-0.71859 -18.38803,-4.21402 -5.71298,-11.91438 -8.18298,-4.98792 -4.40104,-18.11628 8.21142,-7.643 10.63344,-7.05001 10.18373,-1.09138 11.52545,2.76461 13.11089,7.08255 4.54598,20.64916 -9.14567,14.05952" id="path10455" sodipodi:nodetypes="ccccc"/><path style="opacity:1;fill:none;fill-opacity:1;stroke:#864200;stroke-width:2.82455;stroke-linecap:round;stroke-linejoin:round;stroke-dasharray:none;stroke-dashoffset:129.715;stroke-opacity:1;stop-color:#000000" d="m 205.16886,204.48066 c -0.0259,-5.46633 4.82147,-4.88595 7.59117,-1.00644 2.38719,3.34374 6.90559,-1.99772 4.4041,7.0504 4.43728,3.87881 6.37858,7.88876 -2.72824,9.1972" id="path10457" sodipodi:nodetypes="cscc"/><path style="opacity:1;fill:none;fill-opacity:1;stroke:#864200;stroke-width:2.79126;stroke-linecap:round;stroke-linejoin:round;stroke-dasharray:none;stroke-dashoffset:129.715;stroke-opacity:1;stop-color:#000000" d="m 177.99426,214.75249 c -4.59066,-6.00704 -16.21056,-2.00473 -7.71722,5.93363 -9.46261,-3.73368 -7.91593,3.59663 -7.65829,7.65767 2.55492,8.45865 10.70115,13.9853 14.05523,3.99589" id="path10522" sodipodi:nodetypes="cccc"/><path style="opacity:1;fill:none;fill-opacity:1;stroke:#864200;stroke-width:2.84325;stroke-linecap:round;stroke-linejoin:round;stroke-dasharray:none;stroke-dashoffset:129.715;stroke-opacity:1;stop-color:#000000" d="m 211.75617,226.30727 -0.15235,7.5722" id="path10524"/><path style="opacity:1;fill:none;fill-opacity:1;stroke:#864200;stroke-width:2.96547;stroke-linecap:round;stroke-linejoin:round;stroke-dasharray:none;stroke-dashoffset:129.715;stroke-opacity:1;stop-color:#000000" d="m 179.19609,228.19327 0.3896,10.53163" id="path10526"/><path style="opacity:1;fill:none;fill-opacity:1;stroke:#864200;stroke-width:3.188;stroke-linecap:round;stroke-linejoin:round;stroke-dasharray:none;stroke-dashoffset:129.715;stroke-opacity:1;stop-color:#000000" d="m 217.92985,228.59308 c 5.3844,6.63725 8.80375,15.53158 -1.62853,17.38252 -4.45594,0.79059 -8.67538,-6.2866 -17.79698,-0.4812 -11.32014,7.20465 -19.50715,6.56873 -26.05745,5.5561 -15.55753,-2.40507 -4.60954,-12.17694 -5.83386,-14.45999" id="path10528" sodipodi:nodetypes="csssc"/><path id="rect11446" style="opacity:1;fill:#eac88f;stroke-width:47.9187;stroke-linecap:round;stroke-linejoin:round;stroke-dashoffset:129.715;stop-color:#000000;fill-opacity:1" d="m 120.29461,99.634593 h 0.99968 l 20.99324,36.654867 -45.318746,-0.33323 z" sodipodi:nodetypes="ccccc"/><path id="path11449" style="opacity:1;fill:#f6deb6;fill-opacity:1;stroke-width:38.2259;stroke-linecap:round;stroke-linejoin:round;stroke-dashoffset:129.715;stop-color:#000000" d="m 120.29461,99.634593 h 0.99968 l 13.66227,23.992277 -14.66459,-10.09814 -18.65802,12.21866 z" sodipodi:nodetypes="cccccc"/><path id="path11451" style="opacity:1;fill:#f6deb6;fill-opacity:1;stroke-width:26.3759;stroke-linecap:round;stroke-linejoin:round;stroke-dashoffset:129.715;stop-color:#000000" d="m 149.0006,115.13186 -0.68908,0.0311 -8.67124,16.96274 9.79424,-7.4167 13.24094,7.84206 z" sodipodi:nodetypes="cccccc"/><path style="color:#000000;fill:#864200;stroke-linecap:round;stroke-linejoin:round;stroke-dashoffset:129.715;-inkscape-stroke:none" d="m 121.0957,96.890625 c -0.77011,-0.02681 -1.50013,0.34336 -1.93359,0.980469 -8.2065,12.063726 -23.479749,34.812046 -21.799594,36.503846 1.680155,1.69179 15.801854,-19.74237 23.469514,-30.96478 5.48856,9.55593 10.85421,19.54335 15.4707,29.70703 0.75958,1.66977 3.09284,1.7724 3.9961,0.17578 3.155,-5.58487 5.95716,-10.92546 8.63476,-14.65625 l 17.31138,17.9283 c 2.0529,-0.27885 -15.81919,-23.0865 -15.81919,-23.0865 -0.88291,-1.03254 -2.47354,-1.05 -3.37891,-0.0371 -3.14449,3.52045 -5.81583,8.6855 -8.60156,13.875 -4.76502,-10.07245 -10.04202,-19.98572 -15.49023,-29.314457 -0.38815,-0.664842 -1.09,-1.084325 -1.85938,-1.111328 z" id="path10993" sodipodi:nodetypes="scccccccccccss"/><path id="path11453" style="opacity:1;fill:#f6deb6;fill-opacity:1;stroke-width:22.5542;stroke-linecap:round;stroke-linejoin:round;stroke-dashoffset:129.715;stop-color:#000000" d="m 129.66612,131.47363 h -0.64389 l -8.79984,12.96752 9.44543,-5.45792 12.01757,6.60403 z" sodipodi:nodetypes="cccccc"/><path id="path11455" style="opacity:1;fill:#f6deb6;fill-opacity:1;stroke-width:15.5623;stroke-linecap:round;stroke-linejoin:round;stroke-dashoffset:129.715;stop-color:#000000" d="m 111.17666,139.8497 0.44384,0.0168 5.58512,9.16814 -6.30844,-4.00863 -8.52846,4.23853 z" sodipodi:nodetypes="cccccc"/><path style="color:#000000;fill:#864200;stroke-linecap:round;stroke-linejoin:round;stroke-dashoffset:129.715;-inkscape-stroke:none" d="m 129.15234,129.87891 c -0.41615,0.0149 -0.80103,0.22472 -1.03906,0.5664 -3.56433,5.12131 -7.02327,10.56836 -10.13086,16.10547 -1.85758,-2.89454 -3.62863,-5.80789 -5.71875,-7.77148 -0.5176,-0.48646 -1.32684,-0.47786 -1.83398,0.0195 l -9.73438,11.4043 c -0.52235,0.51226 10.54688,-8.49217 10.54688,-8.49217 1.76318,2.0044 3.60619,4.98863 5.69922,8.09765 0.55595,0.82407 1.78787,0.7645 2.26172,-0.10937 3.00997,-5.56077 6.51518,-11.03245 10.0996,-16.25781 4.99501,6.1377 10.30128,12.54786 12.7461,16.86132 0.36022,0.6365 1.16828,0.86038 1.80469,0.5 0.63578,-0.36089 0.85873,-1.16879 0.49804,-1.80468 -2.89591,-5.10934 -8.83815,-12.1097 -14.12304,-18.62891 -0.26178,-0.32342 -0.66036,-0.50498 -1.07618,-0.49023 z" id="path11457" sodipodi:nodetypes="scccccccccccccss"/><path id="rect8749" style="opacity:1;fill:#f3001c;fill-opacity:1;stroke:none;stroke-width:2.85545;stroke-linecap:round;stroke-linejoin:round;stroke-dasharray:none;stroke-dashoffset:129.715;stroke-opacity:1;stop-color:#000000" d="m 138.16751,151.71492 c 0.38545,0.0453 0.76566,0.18494 1.10646,0.42498 l 11.25949,7.93038 c 1.09058,0.76813 1.34986,2.26447 0.58173,3.35505 l -7.76128,11.01968 10.20799,7.19043 c 1.20269,0.8471 1.48914,2.4969 0.64204,3.69959 l -3.93178,5.58227 c -0.8471,1.20269 -2.49763,1.48907 -3.70033,0.64198 l -10.20805,-7.18969 -5.84787,8.30343 c -0.76813,1.09058 -2.26447,1.34987 -3.35505,0.58173 l -11.25949,-7.93036 c -1.09058,-0.76813 -1.3506,-2.26454 -0.58247,-3.35513 l 5.8486,-8.30336 -6.84929,-4.82388 c -1.20269,-0.8471 -1.48907,-2.49764 -0.64197,-3.70033 l 3.93177,-5.58226 c 0.8471,-1.2027 2.49764,-1.48907 3.70033,-0.64198 l 6.84929,4.82388 7.76122,-11.01896 c 0.52809,-0.74977 1.40065,-1.10714 2.24866,-1.00745 z"/><path id="path11467" style="fill:#b29059;fill-rule:evenodd;stroke-width:0.711505" d="m 139.57999,284.33922 c -4.24027,6.84224 3.1696,12.21209 1.23773,12.53397 -3.64175,0.60678 -10.84931,-4.14477 -7.07212,-9.29035 1.69898,-2.31448 -2.35498,-4.14768 -3.68884,-4.13099 -2.17085,0.0272 3.93146,-4.52622 5.59223,-4.29321 2.34512,0.32903 5.83981,2.10046 3.931,5.18058 z" sodipodi:nodetypes="ssssss"/><path style="color:#000000;fill:#864200;stroke-linecap:round;stroke-linejoin:round;stroke-dashoffset:129.715;-inkscape-stroke:none" d="m 178.35156,189.88672 c -0.34846,-0.26424 -0.83508,-0.24544 -1.16211,0.0449 l -4.41015,3.91992 -1.77735,-1.89258 c -0.27056,-0.28734 -0.69469,-0.36917 -1.05273,-0.20312 l -4.14844,1.92187 -8.64445,1.60352 c -0.50662,0.004 8.85734,0.22656 8.85734,0.22656 0.13019,-9e-4 0.25869,-0.0295 0.37695,-0.084 l 3.72852,-1.72852 1.93555,2.06055 c 0.33955,0.36244 0.90603,0.38843 1.27734,0.0586 l 4.51172,-4.01367 4.02734,3.05664 c 0.4038,0.30645 0.97968,0.2268 1.28516,-0.17773 0.30512,-0.40347 0.22556,-0.97786 -0.17773,-1.28321 z" id="path11532" sodipodi:nodetypes="ccccccccccccccccc"/><path style="color:#000000;fill:#864200;stroke-linecap:round;stroke-linejoin:round;stroke-dashoffset:129.715;-inkscape-stroke:none" d="m 144.89747,200.28125 4.62695,3.50977 c 0.40265,0.30594 0.48132,0.88024 0.17578,1.2832 -0.30535,0.40328 -0.87973,0.48284 -1.2832,0.17773 l -4.02734,-3.05664 -4.51368,4.01367 c -0.37103,0.32855 -0.93605,0.30259 -1.27539,-0.0586 l -1.93554,-2.06055 -3.72852,1.72852 c -0.11826,0.0545 -0.24676,0.0831 -0.37695,0.084 l -6.8157,-0.87989 c -0.50585,0.004 6.60085,-0.95019 6.60085,-0.95019 l 4.15039,-1.92188 c 0.35804,-0.16606 0.78218,-0.0842 1.05274,0.20313 l 1.77734,1.89257 4.41016,-3.91992 c 0.32703,-0.29034 0.81365,-0.30914 1.16211,-0.0449 z" id="path11530" sodipodi:nodetypes="ccccccccccccccccsc"/><path style="color:#000000;fill:#864200;stroke-linecap:round;stroke-linejoin:round;stroke-dashoffset:129.715;-inkscape-stroke:none" d="m 121.29422,227.57641 -6.00195,4.59765 -2.39062,-2.51562 c -0.28985,-0.30471 -0.7287,-0.41632 -1.12891,-0.28711 l -8.77163,4.30665 c -0.57489,0.18559 8.78726,-2.01368 8.78726,-2.01368 l 2.5957,2.73046 c 0.38503,0.40475 1.01315,0.45443 1.45703,0.11524 l 5.99414,-4.5918 3.38867,3.65039 c 0.2291,0.24674 0.55904,0.37425 0.89453,0.34571 l 5.4043,-0.45313 c 0.60182,-0.0508 1.04858,-0.57979 0.99805,-1.18164 -0.0509,-0.60182 -0.57979,-1.04858 -1.18164,-0.99805 l -4.87305,0.40821 -3.70313,-3.99024 c -0.38438,-0.41409 -1.02083,-0.46741 -1.46875,-0.12304 z" id="path11534" sodipodi:nodetypes="ccccccccccccccccc"/></svg>