<?xml version="1.0" encoding="UTF-8" standalone="no"?><!DOCTYPE svg PUBLIC "-//W3C//DTD SVG 1.1//EN" "http://www.w3.org/Graphics/SVG/1.1/DTD/svg11.dtd"><svg width="100%" height="100%" viewBox="0 0 2835 233" version="1.1" xmlns="http://www.w3.org/2000/svg" xmlns:xlink="http://www.w3.org/1999/xlink" xml:space="preserve" xmlns:serif="http://www.serif.com/" style="fill-rule:evenodd;clip-rule:evenodd;stroke-linejoin:round;stroke-miterlimit:1.5;"><g id="_1" serif:id="1"><g id="package"><path d="M313.396,231.852l-311.79,-0l0,-28.989l10.238,-16.227l10.959,16.237l9.836,-16.237l10.06,16.227l10.648,-16.227l9.306,16.227l10.625,-16.227l8.835,15.882l9.871,-15.882l10.881,16.227l10.249,-16.227l10.338,16.227l10.381,-16.227l8.836,16.227l11.53,-16.227l8.569,16.227l9.854,-16.227l9.85,16.227l9.542,-16.227l11.001,16.227l11.354,-16.227l9.542,16.227l9.41,-16.227l10.116,16.227l11.132,-16.227l9.63,16.227l9.676,-16.227l10.118,16.227l9.761,-16.227l7.467,16.227l12.174,-16.227l-0,45.216l0.001,-0Z" style="fill:#aeaeae;"/><path d="M313.396,232.997l0,0.002l-311.79,-0c-0.635,-0 -1.149,-0.514 -1.149,-1.148l0,-28.989c0,-0.216 0.062,-0.429 0.177,-0.612l10.239,-16.227c0.207,-0.328 0.565,-0.53 0.953,-0.536c0.388,-0.005 0.752,0.185 0.97,0.506l9.954,14.749l8.906,-14.701c0.207,-0.342 0.577,-0.552 0.976,-0.554c0.4,-0.002 0.772,0.204 0.982,0.543l9.111,14.698l9.661,-14.722c0.219,-0.334 0.596,-0.53 0.995,-0.518c0.399,0.012 0.763,0.23 0.961,0.576l8.375,14.603l9.599,-14.66c0.221,-0.337 0.6,-0.534 1.002,-0.519c0.402,0.015 0.767,0.238 0.962,0.589l7.887,14.177l8.841,-14.225c0.206,-0.331 0.566,-0.535 0.955,-0.542c0.39,-0.006 0.757,0.185 0.974,0.509l9.899,14.762l9.307,-14.736c0.21,-0.332 0.575,-0.534 0.968,-0.535c0.393,-0.001 0.759,0.2 0.971,0.531l9.371,14.711l9.412,-14.712c0.219,-0.342 0.602,-0.544 1.008,-0.529c0.406,0.014 0.774,0.242 0.968,0.598l7.956,14.612l10.465,-14.728c0.231,-0.325 0.614,-0.506 1.012,-0.48c0.398,0.026 0.753,0.257 0.94,0.609l7.624,14.437l8.802,-14.497c0.208,-0.342 0.58,-0.552 0.981,-0.552c0.401,-0 0.773,0.21 0.981,0.552l8.854,14.585l8.568,-14.57c0.199,-0.34 0.559,-0.553 0.952,-0.566c0.394,-0.013 0.767,0.177 0.988,0.503l10.065,14.848l10.399,-14.862c0.224,-0.32 0.596,-0.504 0.986,-0.489c0.39,0.016 0.746,0.229 0.945,0.566l8.544,14.532l8.425,-14.527c0.202,-0.348 0.572,-0.565 0.974,-0.572c0.403,-0.006 0.78,0.199 0.993,0.541l9.187,14.738l10.139,-14.78c0.222,-0.323 0.593,-0.511 0.985,-0.498c0.392,0.013 0.75,0.224 0.95,0.561l8.645,14.568l8.687,-14.57c0.205,-0.344 0.574,-0.556 0.975,-0.56c0.4,-0.003 0.774,0.201 0.985,0.541l9.126,14.636l8.796,-14.62c0.219,-0.365 0.622,-0.578 1.047,-0.555c0.425,0.023 0.802,0.28 0.98,0.667l6.661,14.477l11.018,-14.687c0.296,-0.395 0.813,-0.556 1.281,-0.4c0.469,0.157 0.786,0.595 0.786,1.089l0,45.216c0,0.703 -0.444,1.146 -1.147,1.146Zm-1.149,-2.294l0,-40.624l-10.108,13.473c-0.243,0.323 -0.638,0.495 -1.04,0.452c-0.402,-0.043 -0.752,-0.294 -0.921,-0.662l-6.559,-14.254l-8.643,14.366c-0.206,0.343 -0.575,0.553 -0.974,0.557c-0.4,0.003 -0.773,-0.202 -0.984,-0.541l-9.121,-14.629l-8.712,14.609c-0.207,0.348 -0.582,0.561 -0.987,0.561c-0.405,-0.001 -0.779,-0.214 -0.986,-0.562l-8.713,-14.682l-10.115,14.745c-0.22,0.319 -0.585,0.507 -0.972,0.498c-0.388,-0.008 -0.745,-0.211 -0.95,-0.54l-9.105,-14.607l-8.453,14.575c-0.205,0.353 -0.582,0.571 -0.99,0.573c-0.408,0.001 -0.786,-0.215 -0.993,-0.567l-8.636,-14.686l-10.33,14.763c-0.216,0.309 -0.571,0.492 -0.949,0.49c-0.378,-0.003 -0.73,-0.192 -0.942,-0.504l-9.981,-14.724l-8.621,14.661c-0.205,0.349 -0.578,0.564 -0.982,0.567c-0.404,0.003 -0.78,-0.207 -0.989,-0.553l-8.87,-14.61l-8.871,14.61c-0.215,0.354 -0.603,0.565 -1.016,0.552c-0.413,-0.012 -0.788,-0.246 -0.981,-0.611l-7.699,-14.578l-10.45,14.707c-0.229,0.322 -0.609,0.504 -1.004,0.48c-0.395,-0.023 -0.751,-0.249 -0.94,-0.596l-7.907,-14.522l-9.334,14.591c-0.212,0.33 -0.577,0.53 -0.969,0.53c-0.392,-0.001 -0.757,-0.201 -0.967,-0.532l-9.365,-14.7l-9.283,14.696c-0.207,0.329 -0.566,0.53 -0.955,0.535c-0.388,0.006 -0.753,-0.186 -0.969,-0.508l-9.891,-14.75l-8.932,14.371c-0.215,0.346 -0.596,0.552 -1.003,0.542c-0.407,-0.01 -0.778,-0.234 -0.976,-0.59l-7.912,-14.222l-9.583,14.638c-0.219,0.334 -0.596,0.531 -0.995,0.519c-0.399,-0.012 -0.763,-0.23 -0.962,-0.576l-8.376,-14.606l-9.623,14.664c-0.215,0.328 -0.582,0.523 -0.974,0.518c-0.393,-0.005 -0.755,-0.209 -0.962,-0.543l-9.072,-14.634l-8.866,14.634c-0.203,0.335 -0.562,0.543 -0.954,0.553c-0.391,0.009 -0.76,-0.181 -0.98,-0.506l-9.973,-14.778l-9.123,14.458l0,27.509l309.494,-0l-0.002,-0l0.001,-0Z" style="fill:#939393;"/><g id="shadows"><g><rect x="1.612" y="226.68" width="311.787" height="5.171" style="fill:#939393;"/><path d="M313.402,231.852l-2.232,-0l0,-2.94l-307.328,-0l0,2.94l-2.231,-0l0,-5.171l311.79,-0l0,5.171l0.001,-0Z" style="fill:#939393;"/></g></g><g id="lines"><g><path d="M313.396,221.45l-311.79,-0" style="fill:none;stroke:#939393;stroke-width:2.23px;"/></g><g><path d="M313.396,214.942l-311.79,-0" style="fill:none;stroke:#939393;stroke-width:2.23px;"/></g></g><g><g id="shadows1" serif:id="shadows"><path d="M4.653,209.938l-0,-5.108l2.893,-4.779l9.15,6.316l7.65,-0l3.37,-6.316l7.817,6.316l8.534,-0l3.636,-6.316l8.157,6.316l7.964,-0l3.821,-6.316l8.569,6.316l7.1,-0l3.582,-6.316l9.816,6.316l7.685,-0l3.6,-6.316l8.945,6.316l7.905,-0l3.72,-6.316l8.23,6.316l7.555,-0l4.031,-6.346l9.046,6.346l7.33,-0l3.253,-6.316l10.228,6.316l5.858,-0l3.391,-6.316l9.495,6.316l7.698,-0l4.293,-6.316l9.093,6.316l7.747,-0l3.392,-6.316l10.996,6.316l4.85,-0l4.162,-6.316l9.265,6.316l7.814,-0l3.417,-6.316l11.068,6.316l5.134,-0l3.494,-6.316l7.259,6.316l5.897,-0l4.696,-6.316l-2.054,9.942l-7.038,-0.055l-293.515,-0l0.001,-0Z" style="fill:#9d9d9d;"/></g></g><g id="light"><g><path d="M294.775,197.386c0.881,2.283 4.487,6.346 4.487,6.346l-5.373,-12.513c-0,-0 0.286,4.618 0.886,6.167Zm-139.347,-0.304c1.053,2.21 4.956,5.989 4.956,5.989l-6.113,-12.071c-0,-0 0.443,4.583 1.157,6.082Zm-20.216,-0c1.052,2.21 4.956,5.989 4.956,5.989l-6.305,-12.071c-0,-0 0.634,4.583 1.349,6.082Zm-100.966,0.018c1.074,2.199 5.776,5.941 5.776,5.941l-7.183,-12.01c-0,-0 0.679,4.576 1.407,6.069Zm-20.769,-0c1.073,2.199 6.167,5.941 6.167,5.941l-7.574,-12.01c-0,-0 0.678,4.576 1.407,6.069Zm41.305,-0c1.073,2.199 5.296,5.941 5.296,5.941l-6.704,-12.01c-0,-0 0.679,4.576 1.408,6.069Zm19.876,0.025c1.104,2.184 5.094,5.871 5.094,5.871l-6.34,-11.921c-0,-0 0.497,4.567 1.246,6.05Zm99.874,0.043c1.157,2.157 5.237,5.746 5.237,5.746l-6.874,-11.756c-0,-0 0.853,4.546 1.637,6.01Zm41.582,0.011c1.171,2.15 5.27,5.715 5.27,5.715l-6.943,-11.716c-0,-0 0.881,4.542 1.673,6.001Zm40.289,0.005c1.175,2.147 5.285,5.699 5.285,5.699l-6.976,-11.694c-0,-0 0.892,4.539 1.691,5.995Zm-21.147,-0c1.176,2.147 5.286,5.699 5.286,5.699l-6.977,-11.694c-0,-0 0.892,4.539 1.691,5.995Zm40.714,0.016c1.195,2.137 5.338,5.652 5.338,5.652l-7.082,-11.633c-0,-0 0.934,4.532 1.744,5.981Zm-160.815,0.024c1.223,2.121 5.411,5.581 5.411,5.581l-7.042,-11.538c-0,-0 0.801,4.518 1.631,5.957Zm79.318,0.028c1.256,2.101 5.497,5.496 5.497,5.496l-7.412,-11.425c-0,-0 1.063,4.503 1.915,5.929Zm-100.294,0.028c1.29,2.081 5.585,5.408 5.585,5.408l-7.332,-11.304c-0,-0 0.873,4.484 1.747,5.896Z" style="fill:#fff;"/></g><path d="M309.664,224.09c0.108,0.548 0.129,0.676 0.075,1.23c-0.054,0.536 -1.159,0.798 -1.159,0.798c0,-0 3.049,-0.072 3.101,-0.609c0.072,-0.748 0.044,-1.063 -0.106,-1.803c-0.105,-0.528 -3.15,-0.643 -3.15,-0.643c0,-0 1.132,0.499 1.239,1.027Zm-0.201,-6.567c0.079,0.375 0.112,1.198 0.075,1.58c-0.052,0.536 -1.541,0.863 -1.541,0.863c0,-0 3.431,-0.136 3.485,-0.671c0.056,-0.584 0.011,-1.606 -0.11,-2.18c-0.113,-0.526 -3.516,-0.608 -3.516,-0.608c0,-0 1.494,0.489 1.607,1.016Zm2.295,-24.035c0,-0 -2.183,16.063 -2.232,16.546c-0.047,0.436 -0.141,0.858 -0.59,1.083c-0.483,0.241 -4.188,1.825 -4.188,1.825c0,-0 4.579,0.162 5.059,-0.079c0.972,-0.485 1.41,-1.259 1.59,-2.16c0.134,-0.667 0.101,-1.417 0.115,-2.109c0.054,-2.783 0.098,-5.565 0.18,-8.348c0.031,-1.077 0.066,-6.758 0.066,-6.758Z" style="fill:#fff;"/><g><path d="M304.469,223.251c-99.997,2.904 -200.068,2.581 -300.193,-0l300.193,-0Z" style="fill:#cecece;"/></g><g><path d="M304.469,217.086c-99.997,2.903 -200.068,2.581 -300.193,-0l300.193,-0Z" style="fill:#cecece;"/></g></g><g><path d="M67.076,233l-16.004,-0l-11.232,-36.928l2.887,4.657l9.661,-14.722c0.075,-0.115 0.169,-0.213 0.275,-0.292l14.413,47.285Zm182.72,-0l-123.227,-0l-14.32,-47.118c0.216,-0.247 0.53,-0.393 0.864,-0.394c0.393,-0.001 0.759,0.2 0.971,0.531l9.371,14.711l9.412,-14.712c0.219,-0.343 0.602,-0.544 1.008,-0.529c0.406,0.014 0.774,0.242 0.968,0.598l7.956,14.612l10.465,-14.728c0.231,-0.325 0.614,-0.507 1.012,-0.48c0.398,0.026 0.753,0.257 0.94,0.609l7.624,14.436l8.802,-14.496c0.208,-0.342 0.58,-0.552 0.981,-0.552c0.401,-0 0.773,0.21 0.981,0.552l8.854,14.585l8.568,-14.571c0.199,-0.339 0.559,-0.553 0.952,-0.565c0.394,-0.013 0.767,0.177 0.988,0.503l10.065,14.847l10.399,-14.861c0.224,-0.32 0.596,-0.504 0.986,-0.489c0.39,0.016 0.746,0.229 0.945,0.565l8.544,14.533l8.425,-14.527c0.202,-0.348 0.572,-0.565 0.974,-0.572c0.403,-0.006 0.78,0.199 0.993,0.541l2.74,4.394l12.759,42.577Zm52.971,-0l-22.309,-0l-12.384,-38.875l4.816,-8.077c0.205,-0.344 0.574,-0.556 0.975,-0.56c0.4,-0.004 0.774,0.201 0.985,0.541l9.126,14.636l5.551,-9.226l13.24,41.561Z" style="fill:#d0d0d0;fill-opacity:0.25;"/></g></g></g><g id="_2" serif:id="2"><g id="package1" serif:id="package"><path d="M628.396,231.852l-311.79,-0l0,-28.989l10.239,-16.227l10.958,16.237l9.836,-16.237l10.06,16.227l10.648,-16.227l9.306,16.227l10.625,-16.227l8.835,15.882l9.871,-15.882l10.881,16.227l10.249,-16.227l10.338,16.227l10.381,-16.227l8.836,16.227l11.53,-16.227l8.57,16.227l9.853,-16.227l9.85,16.227l9.542,-16.227l11.001,16.227l11.354,-16.227l9.542,16.227l9.41,-16.227l10.116,16.227l11.132,-16.227l9.631,16.227l9.675,-16.227l10.118,16.227l9.761,-16.227l7.467,16.227l12.174,-16.227l0,45.216l0.001,-0Z" style="fill:#aeaeae;"/><path d="M628.396,232.997l0,0.002l-311.79,-0c-0.635,-0 -1.149,-0.514 -1.149,-1.148l0,-28.989c0,-0.216 0.062,-0.429 0.177,-0.612l10.239,-16.227c0.207,-0.328 0.565,-0.53 0.953,-0.536c0.388,-0.005 0.752,0.185 0.97,0.506l9.953,14.749l8.907,-14.701c0.207,-0.342 0.577,-0.552 0.976,-0.554c0.4,-0.002 0.772,0.204 0.982,0.543l9.111,14.698l9.661,-14.722c0.219,-0.334 0.596,-0.53 0.995,-0.518c0.399,0.012 0.763,0.23 0.961,0.576l8.375,14.603l9.599,-14.66c0.22,-0.337 0.6,-0.534 1.002,-0.519c0.402,0.015 0.767,0.238 0.962,0.589l7.887,14.177l8.841,-14.225c0.206,-0.331 0.566,-0.535 0.955,-0.542c0.39,-0.006 0.757,0.185 0.974,0.509l9.898,14.762l9.308,-14.736c0.21,-0.332 0.575,-0.534 0.968,-0.535c0.393,-0.001 0.759,0.2 0.971,0.531l9.371,14.711l9.412,-14.712c0.219,-0.342 0.602,-0.544 1.008,-0.529c0.406,0.014 0.774,0.242 0.968,0.598l7.956,14.612l10.465,-14.728c0.231,-0.325 0.614,-0.506 1.012,-0.48c0.398,0.026 0.753,0.257 0.94,0.609l7.623,14.437l8.803,-14.497c0.208,-0.342 0.58,-0.552 0.981,-0.552c0.401,-0 0.773,0.21 0.981,0.552l8.854,14.585l8.568,-14.57c0.199,-0.34 0.559,-0.553 0.952,-0.566c0.394,-0.013 0.767,0.177 0.988,0.503l10.065,14.848l10.399,-14.862c0.224,-0.32 0.596,-0.504 0.986,-0.489c0.39,0.016 0.746,0.229 0.944,0.566l8.545,14.532l8.425,-14.527c0.202,-0.348 0.572,-0.565 0.974,-0.572c0.403,-0.006 0.78,0.199 0.993,0.541l9.187,14.738l10.139,-14.78c0.222,-0.323 0.593,-0.511 0.985,-0.498c0.392,0.013 0.75,0.224 0.95,0.561l8.645,14.568l8.687,-14.57c0.205,-0.344 0.574,-0.556 0.975,-0.56c0.4,-0.003 0.773,0.201 0.985,0.541l9.126,14.636l8.796,-14.62c0.219,-0.365 0.622,-0.578 1.047,-0.555c0.425,0.023 0.802,0.28 0.98,0.667l6.661,14.477l11.018,-14.687c0.296,-0.395 0.813,-0.556 1.281,-0.4c0.469,0.157 0.786,0.595 0.786,1.089l0,45.216c0,0.703 -0.444,1.146 -1.147,1.146Zm-1.149,-2.294l0,-40.624l-10.108,13.473c-0.243,0.323 -0.638,0.495 -1.04,0.452c-0.402,-0.043 -0.752,-0.294 -0.922,-0.662l-6.558,-14.254l-8.643,14.366c-0.206,0.343 -0.575,0.553 -0.974,0.557c-0.4,0.003 -0.773,-0.202 -0.984,-0.541l-9.121,-14.629l-8.712,14.609c-0.207,0.348 -0.582,0.561 -0.987,0.561c-0.405,-0.001 -0.779,-0.214 -0.986,-0.562l-8.713,-14.682l-10.115,14.745c-0.22,0.319 -0.585,0.507 -0.972,0.498c-0.388,-0.008 -0.745,-0.211 -0.95,-0.54l-9.105,-14.607l-8.453,14.575c-0.205,0.353 -0.582,0.571 -0.99,0.573c-0.408,0.001 -0.786,-0.215 -0.993,-0.567l-8.636,-14.686l-10.33,14.763c-0.216,0.309 -0.571,0.492 -0.949,0.49c-0.378,-0.003 -0.73,-0.192 -0.942,-0.504l-9.981,-14.724l-8.621,14.661c-0.205,0.349 -0.578,0.564 -0.982,0.567c-0.404,0.003 -0.78,-0.207 -0.989,-0.553l-8.87,-14.61l-8.871,14.61c-0.215,0.354 -0.603,0.565 -1.016,0.552c-0.413,-0.012 -0.788,-0.246 -0.981,-0.611l-7.699,-14.578l-10.45,14.707c-0.229,0.322 -0.609,0.504 -1.004,0.48c-0.395,-0.023 -0.751,-0.249 -0.94,-0.596l-7.907,-14.522l-9.334,14.591c-0.212,0.33 -0.577,0.53 -0.969,0.53c-0.392,-0.001 -0.757,-0.201 -0.967,-0.532l-9.365,-14.7l-9.283,14.696c-0.207,0.329 -0.566,0.53 -0.955,0.535c-0.388,0.006 -0.753,-0.186 -0.969,-0.508l-9.891,-14.75l-8.932,14.371c-0.215,0.346 -0.597,0.552 -1.003,0.542c-0.407,-0.01 -0.778,-0.234 -0.976,-0.59l-7.912,-14.222l-9.583,14.638c-0.219,0.334 -0.596,0.531 -0.995,0.519c-0.399,-0.012 -0.764,-0.23 -0.962,-0.576l-8.376,-14.606l-9.623,14.664c-0.215,0.328 -0.583,0.523 -0.975,0.518c-0.392,-0.005 -0.754,-0.209 -0.961,-0.543l-9.072,-14.634l-8.866,14.634c-0.203,0.335 -0.562,0.543 -0.954,0.553c-0.391,0.009 -0.76,-0.181 -0.98,-0.506l-9.973,-14.778l-9.123,14.458l0,27.509l309.494,-0l-0.002,-0l0.001,-0Z" style="fill:#939393;"/><g id="shadows2" serif:id="shadows"><g><rect x="316.61" y="226.68" width="311.787" height="5.171" style="fill:#939393;"/><path d="M628.402,231.852l-2.232,-0l0,-2.94l-307.328,-0l0,2.94l-2.231,-0l0,-5.171l311.79,-0l0,5.171l0.001,-0Z" style="fill:#939393;"/></g></g><g id="lines1" serif:id="lines"><g><path d="M628.396,221.45l-311.79,-0" style="fill:none;stroke:#939393;stroke-width:2.23px;"/></g><g><path d="M628.396,214.942l-311.79,-0" style="fill:none;stroke:#939393;stroke-width:2.23px;"/></g></g><g><g id="shadows3" serif:id="shadows"><path d="M319.653,209.938l0,-5.108l2.893,-4.779l9.149,6.316l7.65,-0l3.37,-6.316l7.818,6.316l8.534,-0l3.636,-6.316l8.157,6.316l7.963,-0l3.821,-6.316l8.57,6.316l7.099,-0l3.583,-6.316l9.816,6.316l7.685,-0l3.599,-6.316l8.946,6.316l7.904,-0l3.721,-6.316l8.23,6.316l7.555,-0l4.031,-6.346l9.045,6.346l7.331,-0l3.253,-6.316l10.228,6.316l5.858,-0l3.391,-6.316l9.495,6.316l7.698,-0l4.293,-6.316l9.092,6.316l7.748,-0l3.391,-6.316l10.996,6.316l4.851,-0l4.162,-6.316l9.265,6.316l7.813,-0l3.417,-6.316l11.069,6.316l5.134,-0l3.494,-6.316l7.259,6.316l5.897,-0l4.696,-6.316l-2.054,9.942l-7.038,-0.055l-293.515,-0l0.001,-0Z" style="fill:#9d9d9d;"/></g></g><g id="light1" serif:id="light"><g><path d="M609.775,197.386c0.88,2.283 4.487,6.346 4.487,6.346l-5.373,-12.513c0,-0 0.286,4.618 0.886,6.167Zm-139.347,-0.304c1.052,2.21 4.956,5.989 4.956,5.989l-6.114,-12.071c0,-0 0.444,4.583 1.158,6.082Zm-20.216,-0c1.052,2.21 4.955,5.989 4.955,5.989l-6.305,-12.071c0,-0 0.635,4.583 1.35,6.082Zm-100.966,0.018c1.074,2.199 5.776,5.941 5.776,5.941l-7.183,-12.01c0,-0 0.679,4.576 1.407,6.069Zm-20.769,-0c1.073,2.199 6.167,5.941 6.167,5.941l-7.574,-12.01c0,-0 0.678,4.576 1.407,6.069Zm41.304,-0c1.074,2.199 5.297,5.941 5.297,5.941l-6.704,-12.01c0,-0 0.679,4.576 1.407,6.069Zm19.877,0.025c1.104,2.184 5.094,5.871 5.094,5.871l-6.34,-11.921c0,-0 0.497,4.567 1.246,6.05Zm99.874,0.043c1.157,2.157 5.237,5.746 5.237,5.746l-6.874,-11.756c0,-0 0.853,4.546 1.637,6.01Zm41.582,0.011c1.171,2.15 5.269,5.715 5.269,5.715l-6.942,-11.716c0,-0 0.881,4.542 1.673,6.001Zm40.289,0.005c1.175,2.147 5.285,5.699 5.285,5.699l-6.977,-11.694c0,-0 0.893,4.539 1.692,5.995Zm-21.147,-0c1.175,2.147 5.286,5.699 5.286,5.699l-6.977,-11.694c0,-0 0.892,4.539 1.691,5.995Zm40.714,0.016c1.195,2.137 5.338,5.652 5.338,5.652l-7.082,-11.633c0,-0 0.934,4.532 1.744,5.981Zm-160.816,0.024c1.223,2.121 5.411,5.581 5.411,5.581l-7.042,-11.538c0,-0 0.801,4.518 1.631,5.957Zm79.318,0.028c1.255,2.101 5.497,5.496 5.497,5.496l-7.413,-11.425c0,-0 1.064,4.503 1.916,5.929Zm-100.294,0.028c1.29,2.081 5.585,5.408 5.585,5.408l-7.332,-11.304c0,-0 0.873,4.484 1.747,5.896Z" style="fill:#fff;"/></g><path d="M624.664,224.09c0.108,0.548 0.129,0.676 0.075,1.23c-0.054,0.536 -1.159,0.798 -1.159,0.798c0,-0 3.049,-0.072 3.101,-0.609c0.072,-0.748 0.044,-1.063 -0.106,-1.803c-0.105,-0.528 -3.15,-0.643 -3.15,-0.643c0,-0 1.131,0.499 1.239,1.027Zm-0.201,-6.567c0.079,0.375 0.112,1.198 0.075,1.58c-0.052,0.536 -1.541,0.863 -1.541,0.863c-0,-0 3.431,-0.136 3.484,-0.671c0.057,-0.584 0.012,-1.606 -0.109,-2.18c-0.113,-0.526 -3.516,-0.608 -3.516,-0.608c-0,-0 1.494,0.489 1.607,1.016Zm2.295,-24.035c-0,-0 -2.183,16.063 -2.232,16.546c-0.047,0.436 -0.141,0.858 -0.59,1.083c-0.483,0.241 -4.188,1.825 -4.188,1.825c-0,-0 4.579,0.162 5.059,-0.079c0.972,-0.485 1.41,-1.259 1.59,-2.16c0.134,-0.667 0.101,-1.417 0.115,-2.109c0.054,-2.783 0.098,-5.565 0.18,-8.348c0.031,-1.077 0.066,-6.758 0.066,-6.758Z" style="fill:#fff;"/><g><path d="M619.469,223.251c-99.998,2.904 -200.068,2.581 -300.193,-0l300.193,-0Z" style="fill:#cecece;"/></g><g><path d="M619.469,217.086c-99.998,2.903 -200.068,2.581 -300.193,-0l300.193,-0Z" style="fill:#cecece;"/></g></g><g><path d="M382.076,233l-16.003,-0l-11.233,-36.928l2.888,4.657l9.661,-14.722c0.075,-0.115 0.168,-0.213 0.275,-0.292l14.412,47.285Zm182.721,-0l-123.227,-0l-14.32,-47.118c0.216,-0.247 0.53,-0.393 0.864,-0.394c0.393,-0.001 0.759,0.2 0.97,0.531l9.372,14.711l9.412,-14.712c0.219,-0.343 0.602,-0.544 1.008,-0.529c0.405,0.014 0.773,0.242 0.968,0.598l7.956,14.612l10.465,-14.728c0.231,-0.325 0.614,-0.507 1.012,-0.48c0.397,0.026 0.753,0.257 0.939,0.609l7.624,14.436l8.802,-14.496c0.208,-0.342 0.581,-0.552 0.982,-0.552c0.401,-0 0.773,0.21 0.981,0.552l8.854,14.585l8.567,-14.571c0.2,-0.339 0.56,-0.553 0.953,-0.565c0.394,-0.013 0.767,0.177 0.987,0.503l10.066,14.847l10.399,-14.861c0.224,-0.32 0.595,-0.504 0.986,-0.489c0.39,0.016 0.746,0.229 0.944,0.565l8.545,14.533l8.424,-14.527c0.203,-0.348 0.572,-0.565 0.975,-0.572c0.403,-0.006 0.78,0.199 0.993,0.541l2.739,4.394l12.76,42.577Zm52.971,-0l-22.309,-0l-12.384,-38.875l4.816,-8.077c0.205,-0.344 0.574,-0.556 0.975,-0.56c0.4,-0.004 0.773,0.201 0.985,0.541l9.126,14.636l5.551,-9.226l13.24,41.561Z" style="fill:#d0d0d0;fill-opacity:0.25;"/></g></g></g><g id="_3" serif:id="3"><g id="package2" serif:id="package"><g id="arriba-base" serif:id="arriba base"><path d="M897.004,232.004l-265.55,-0l0,-28.632l10.162,-16.107l10.878,16.117l9.763,-16.117l9.986,16.107l10.57,-16.107l9.237,16.107l10.546,-16.107l8.77,15.764l9.798,-15.764l10.801,16.107l10.174,-16.107l10.261,16.107l10.305,-16.107l8.77,16.107l11.445,-16.107l8.508,16.107l9.777,-16.107l9.78,16.107l10.223,-15.936l10.168,16.129l9.923,-16.107l10.819,16.107l8.132,-17.478l11.249,15.698l8.06,-18.864l13.073,14.333l5.322,-18.764l14.893,12.949l4.919,-19.14l13.099,12.33l3.26,-19.804l9.421,52.631c-15.252,6.122 -30.789,10.89 -46.544,14.548l0.002,-0Z" style="fill:#aeaeae;"/><path d="M897.004,233l-265.55,-0c-0.55,-0 -0.997,-0.446 -0.997,-0.996l0,-28.632c0,-0.189 0.054,-0.373 0.154,-0.532l10.163,-16.107c0.18,-0.285 0.491,-0.459 0.827,-0.464c0.337,-0.005 0.653,0.16 0.841,0.439l10.006,14.826l8.957,-14.786c0.18,-0.296 0.501,-0.478 0.847,-0.479c0.347,-0.002 0.669,0.176 0.852,0.471l9.163,14.78l9.713,-14.802c0.19,-0.289 0.516,-0.459 0.863,-0.449c0.346,0.01 0.662,0.2 0.834,0.5l8.429,14.698l9.656,-14.748c0.191,-0.292 0.521,-0.462 0.87,-0.45c0.348,0.013 0.665,0.207 0.835,0.511l7.947,14.285l8.904,-14.326c0.179,-0.287 0.491,-0.464 0.829,-0.47c0.338,-0.006 0.656,0.16 0.845,0.441l9.948,14.836l9.356,-14.813c0.182,-0.289 0.5,-0.464 0.84,-0.464c0.342,-0.001 0.659,0.173 0.843,0.461l9.422,14.79l9.465,-14.792c0.189,-0.297 0.522,-0.471 0.874,-0.459c0.352,0.013 0.671,0.21 0.84,0.519l8.007,14.706l10.521,-14.806c0.2,-0.282 0.532,-0.44 0.878,-0.417c0.345,0.022 0.653,0.223 0.815,0.528l7.687,14.554l8.866,-14.605c0.181,-0.298 0.503,-0.479 0.851,-0.479c0.348,-0 0.671,0.181 0.852,0.479l8.951,14.742l9.362,-14.591c0.184,-0.288 0.502,-0.46 0.842,-0.459c0.341,0.002 0.657,0.177 0.839,0.465l9.315,14.776l9.085,-14.746c0.178,-0.288 0.49,-0.467 0.828,-0.473c0.339,-0.007 0.658,0.159 0.847,0.44l9.834,14.641l7.387,-15.876c0.149,-0.321 0.458,-0.539 0.81,-0.572c0.353,-0.033 0.696,0.124 0.903,0.412l10.218,14.26l7.365,-17.238c0.133,-0.311 0.415,-0.533 0.75,-0.59c0.334,-0.057 0.674,0.06 0.902,0.311l11.866,13.01l4.835,-17.042c0.093,-0.328 0.347,-0.586 0.674,-0.683c0.327,-0.097 0.681,-0.02 0.938,0.203l13.675,11.891l4.518,-17.578c0.088,-0.341 0.349,-0.61 0.688,-0.709c0.338,-0.098 0.703,-0.01 0.96,0.232l11.737,11.048l2.956,-17.959c0.079,-0.478 0.492,-0.83 0.976,-0.834c0.486,-0.003 0.902,0.343 0.988,0.821l9.421,52.63c0.083,0.465 -0.171,0.924 -0.61,1.1c-15.299,6.142 -30.886,10.925 -46.689,14.594l-0.226,0.026l0.002,-0Zm-0.115,-1.992c15.408,-3.583 30.607,-8.231 45.534,-14.176l-8.256,-46.124l-2.319,14.083c-0.059,0.363 -0.315,0.664 -0.663,0.781c-0.349,0.119 -0.735,0.035 -1.003,-0.218l-11.87,-11.174l-4.5,17.507c-0.086,0.334 -0.339,0.6 -0.668,0.703c-0.33,0.103 -0.69,0.027 -0.95,-0.199l-13.709,-11.92l-4.895,17.254c-0.098,0.348 -0.378,0.615 -0.729,0.698c-0.352,0.083 -0.721,-0.031 -0.965,-0.298l-12.029,-13.189l-7.451,17.44c-0.142,0.331 -0.451,0.56 -0.808,0.599c-0.358,0.04 -0.709,-0.117 -0.919,-0.41l-10.255,-14.312l-7.413,15.932c-0.151,0.326 -0.467,0.545 -0.825,0.573c-0.359,0.028 -0.704,-0.14 -0.905,-0.438l-9.955,-14.822l-9.112,14.789c-0.18,0.293 -0.499,0.472 -0.842,0.474c-0.344,0.001 -0.665,-0.174 -0.848,-0.465l-9.333,-14.804l-9.377,14.617c-0.185,0.29 -0.507,0.463 -0.851,0.459c-0.344,-0.004 -0.661,-0.186 -0.839,-0.479l-8.928,-14.705l-8.926,14.704c-0.186,0.307 -0.522,0.49 -0.881,0.479c-0.358,-0.01 -0.683,-0.213 -0.851,-0.53l-7.752,-14.676l-10.509,14.787c-0.199,0.281 -0.528,0.438 -0.871,0.418c-0.343,-0.021 -0.651,-0.216 -0.816,-0.518l-7.964,-14.627l-9.397,14.688c-0.183,0.286 -0.5,0.459 -0.84,0.459c-0.34,-0.001 -0.657,-0.174 -0.839,-0.461l-9.418,-14.783l-9.334,14.779c-0.18,0.285 -0.492,0.46 -0.829,0.465c-0.337,0.004 -0.653,-0.162 -0.841,-0.441l-9.941,-14.827l-8.984,14.455c-0.187,0.3 -0.518,0.478 -0.871,0.47c-0.352,-0.009 -0.674,-0.203 -0.846,-0.512l-7.969,-14.324l-9.643,14.728c-0.19,0.29 -0.516,0.46 -0.863,0.45c-0.346,-0.01 -0.662,-0.2 -0.834,-0.5l-8.431,-14.699l-9.68,14.75c-0.186,0.285 -0.505,0.454 -0.846,0.45c-0.34,-0.005 -0.654,-0.183 -0.833,-0.472l-9.129,-14.725l-8.922,14.727c-0.176,0.29 -0.488,0.471 -0.827,0.479c-0.34,0.009 -0.66,-0.157 -0.851,-0.438l-10.023,-14.852l-9.195,14.572l0,27.349l264.44,-0l-0.001,-0Z" style="fill:#939393;"/></g><g id="sombra-arriba" serif:id="sombra arriba"><path d="M894.36,232.004l-261.693,-0l0,-5.13c110.043,1.422 265.602,7.805 310.49,-14.135l0.394,4.789c-13.658,6.436 -30.369,11.133 -49.191,14.476Z" style="fill:#939393;"/><path d="M894.36,232.004l-14.275,-0c23.637,-3.236 44.56,-8.284 61.13,-15.836l-0.009,-0.114c-13.96,5.893 -36.418,9.642 -63.931,11.889c-67.464,5.51 -165.62,2.207 -242.396,1.175l0,0.908c9.865,0.641 20.073,1.313 30.526,1.978l-32.74,-0l0,-5.13c110.042,1.422 265.602,7.805 310.49,-14.135l0.394,4.789c-13.658,6.436 -30.369,11.133 -49.191,14.476l0.002,-0Z" style="fill:#939393;"/></g><g id="lineas-arriba" serif:id="lineas arriba"><g><path d="M941.507,205.77c-35.623,20.212 -188.981,20.212 -308.84,15.911" style="fill:none;stroke:#939393;stroke-width:2.21px;"/></g><g><path d="M939.674,198.587c-40.389,16.908 -173.881,21.13 -307.008,16.634" style="fill:none;stroke:#939393;stroke-width:2.21px;"/></g></g><g><g id="shadows-arriba" serif:id="shadows arriba"><path d="M635.683,210.257l0,-5.071l2.872,-4.744l9.082,6.27l7.594,-0l3.345,-6.27l7.76,6.27l8.47,-0l3.61,-6.27l8.097,6.27l7.904,-0l3.793,-6.27l8.507,6.27l7.046,-0l3.557,-6.27l9.743,6.27l7.628,-0l3.574,-6.27l8.879,6.27l7.846,-0l3.693,-6.27l8.169,6.27l7.5,-0l4,-6.299l8.979,6.299l7.277,-0l3.229,-6.27l10.152,6.27l5.815,-0l3.887,-7.241l7.96,7.243l8.306,-0.019l4.541,-7.187l7.125,7.206l9.125,-0l3.327,-7.206l7.072,6.673l9.508,-1.388l2.85,-7.226l8.102,5.065l10.409,-3.124l2.064,-8.194l8.402,5.354l10.124,-2.632l2.134,-8.568l7.442,4.049l6.414,-1.863l1.1,-5.888l1.75,14.254c-33.807,18.599 -221.579,20.878 -299.763,14.237Z" style="fill:#9d9d9d;"/></g></g><g id="ligth-arriba" serif:id="ligth arriba"><g><path d="M920.339,180.258c0.877,2.267 8.877,5.955 8.877,5.955l-10.115,-9.815c0,-0 0.646,2.323 1.238,3.86Zm-136.169,17.362c1.045,2.193 4.92,5.945 4.92,5.945l-6.069,-11.982c0,-0 0.44,4.549 1.149,6.037Zm-19.955,-0c1.045,2.193 4.92,5.945 4.92,5.945l-6.259,-11.982c0,-0 0.631,4.549 1.339,6.037Zm-99.827,-0.013c1.066,2.183 5.733,5.897 5.733,5.897l-7.13,-11.921c0,-0 0.674,4.542 1.397,6.024Zm-20.728,-0c1.065,2.183 6.122,5.897 6.122,5.897l-7.519,-11.921c0,-0 0.674,4.542 1.397,6.024Zm40.663,-0c1.066,2.183 5.257,5.897 5.257,5.897l-6.654,-11.921c0,-0 0.674,4.542 1.397,6.024Zm19.842,-0.02c1.096,2.169 5.057,5.828 5.057,5.828l-6.294,-11.832c0,-0 0.494,4.533 1.237,6.004Zm98.97,-0.038c1.148,2.142 5.196,5.704 5.196,5.704l-6.821,-11.67c0,-0 0.846,4.513 1.625,5.966Zm39.826,-0.068c1.16,2.135 6.358,6.084 6.358,6.084l-7.439,-11.436c0,-0 0.293,3.904 1.081,5.352Zm39.012,-6.043c1.167,2.131 8.437,6.944 8.437,6.944l-9.62,-10.946c0,-0 0.391,2.557 1.183,4.002Zm-19.96,3.939c1.167,2.131 7.095,7.235 7.095,7.235l-8.158,-11.584c0,-0 0.27,2.903 1.063,4.349Zm39.149,-8.674c1.186,2.12 9.483,6.122 9.483,6.122l-11.252,-9.779c0,-0 0.962,2.218 1.769,3.657Zm-156.912,10.793c1.214,2.105 5.371,5.54 5.371,5.54l-6.99,-11.453c0,-0 0.796,4.485 1.619,5.913Zm78.466,-0.293c1.246,2.085 6.203,6.362 6.203,6.362l-7.547,-11.462c0,-0 0.5,3.685 1.344,5.1Zm-99.062,0.233c1.279,2.065 5.543,5.368 5.543,5.368l-7.278,-11.221c0,-0 0.866,4.452 1.735,5.853Z" style="fill:#fff;"/></g><g><path d="M938.725,209.831c0.201,0.518 0.547,2.75 0.588,3.302c0.041,0.533 -0.998,0.977 -0.998,0.977c0,-0 2.97,-0.588 2.932,-1.121c-0.056,-0.745 -0.55,-3.717 -0.822,-4.415c-0.192,-0.498 -2.798,0.749 -2.798,0.749c0,-0 0.906,0.01 1.098,0.508Zm-1.494,-7.401c0.141,0.354 0.496,2.114 0.524,2.494c0.038,0.533 -1.361,1.105 -1.361,1.105c0,-0 3.332,-0.713 3.292,-1.247c-0.042,-0.58 -0.511,-3.236 -0.727,-3.776c-0.199,-0.496 -3.543,1.176 -3.543,1.176c0,-0 1.615,-0.248 1.815,0.248Zm-2.281,-23.492c0,-0 1.516,16.08 1.548,16.561c0.03,0.434 0.01,0.863 -0.394,1.159c-0.429,0.317 -4.365,2.495 -4.365,2.495c0,-0 4.325,-1.063 4.937,-1.369c0.992,-0.498 1.163,-1.036 1.187,-1.947c0.017,-0.676 -0.139,-1.404 -0.245,-2.083c-0.417,-2.731 -2.668,-14.816 -2.668,-14.816Z" style="fill:#fff;"/></g><g><path d="M935.447,211.556c-47.86,21.702 -251.261,16.573 -300.136,11.916c62.109,4.458 260.165,4.828 300.136,-11.916Z" style="fill:#cecece;"/></g><g><path d="M933.445,203.565c-33.844,18.532 -212.738,20.403 -298.132,13.787c120.136,4.751 251.533,1.243 298.132,-13.787Z" style="fill:#cecece;"/></g></g><g id="brillo-arriba" serif:id="brillo arriba"><path d="M697.299,233l-15.885,-0l-9.401,-31.894l0.256,0.413l9.713,-14.801c0.19,-0.289 0.517,-0.459 0.863,-0.449c0.191,0.006 0.374,0.066 0.527,0.17l13.927,46.561Zm181.451,-0l-122.067,-0l-15.311,-46.369c0.188,-0.227 0.468,-0.362 0.767,-0.362c0.341,-0.001 0.659,0.173 0.842,0.461l9.423,14.79l9.464,-14.792c0.19,-0.297 0.522,-0.471 0.874,-0.459c0.353,0.013 0.672,0.21 0.84,0.519l8.008,14.706l10.521,-14.806c0.2,-0.282 0.532,-0.44 0.877,-0.417c0.345,0.022 0.654,0.223 0.815,0.528l7.688,14.554l8.865,-14.605c0.181,-0.298 0.504,-0.479 0.852,-0.479c0.348,-0 0.671,0.181 0.851,0.479l8.952,14.742l9.361,-14.591c0.185,-0.288 0.502,-0.46 0.843,-0.459c0.34,0.002 0.657,0.177 0.839,0.465l9.315,14.776l9.084,-14.746c0.178,-0.288 0.49,-0.467 0.829,-0.473c0.339,-0.007 0.658,0.159 0.846,0.44l9.834,14.641l7.387,-15.876c0.15,-0.321 0.458,-0.539 0.811,-0.572c0.352,-0.033 0.696,0.124 0.902,0.412l2.739,3.822l14.949,43.671Zm25.464,-1.724l-11.753,-37.061l4.538,-15.997c0.093,-0.328 0.347,-0.586 0.674,-0.683c0.327,-0.097 0.68,-0.02 0.938,0.203l13.675,11.891l4.518,-17.578c0.087,-0.341 0.349,-0.61 0.687,-0.709c0.002,-0 0.004,-0.001 0.006,-0.001l15.416,51.21c-9.47,3.379 -19.041,6.268 -28.699,8.725Z" style="fill:#d0d0d0;fill-opacity:0.25;"/></g></g></g><g id="_4" serif:id="4"><g id="package3" serif:id="package"><g id="arriba-base1" serif:id="arriba base"><path d="M1102.39,231.994l-155.928,-0l0,-28.871l10.248,-16.242l10.968,16.252l9.845,-16.252l10.069,16.242l10.658,-16.242l9.315,16.242l10.634,-16.242l8.844,15.896l9.88,-15.896l10.891,16.242l10.258,-16.242l10.347,16.242l10.391,-16.242l8.844,16.242l11.541,-16.242l8.579,16.242l9.859,-16.242l9.861,16.242l9.551,-17.236l11.011,12.939l7.637,-16.241l13.278,11.439l5.381,-16.241l14.162,9.772l5.346,-16.242l15.438,9.448l5.437,-16.242l13.045,8.155l3.977,-16.242l12.855,10.096l7.053,-16.242l6.873,45.255c-50.221,20.159 -102.832,31.361 -156.148,36.453Z" style="fill:#aeaeae;"/><path d="M1102.39,233l-155.928,-0c-0.555,-0 -1.005,-0.45 -1.005,-1.005l0,-28.871c0,-0.19 0.054,-0.376 0.156,-0.536l10.247,-16.242c0.181,-0.287 0.495,-0.463 0.834,-0.468c0.339,-0.005 0.658,0.161 0.848,0.443l10.09,14.95l9.032,-14.909c0.181,-0.299 0.505,-0.482 0.854,-0.484c0.35,-0.002 0.675,0.178 0.859,0.475l9.239,14.903l9.795,-14.925c0.191,-0.292 0.521,-0.463 0.869,-0.453c0.35,0.011 0.668,0.202 0.842,0.505l8.5,14.821l9.736,-14.872c0.193,-0.294 0.526,-0.466 0.877,-0.453c0.351,0.012 0.671,0.208 0.842,0.515l8.014,14.404l8.978,-14.446c0.18,-0.289 0.495,-0.468 0.836,-0.474c0.341,-0.006 0.662,0.162 0.852,0.445l10.031,14.96l9.435,-14.937c0.184,-0.291 0.503,-0.467 0.847,-0.468c0.344,-0.001 0.664,0.175 0.849,0.465l9.502,14.914l9.543,-14.916c0.192,-0.299 0.527,-0.475 0.882,-0.463c0.355,0.013 0.677,0.212 0.846,0.524l8.075,14.828l10.609,-14.929c0.202,-0.285 0.537,-0.444 0.885,-0.421c0.348,0.023 0.659,0.225 0.822,0.533l7.752,14.675l8.939,-14.727c0.182,-0.3 0.508,-0.483 0.859,-0.483c0.351,-0 0.676,0.183 0.859,0.483l8.962,14.762l8.712,-15.722c0.16,-0.288 0.451,-0.479 0.779,-0.512c0.328,-0.033 0.651,0.098 0.865,0.349l10,11.751l6.974,-14.831c0.133,-0.284 0.392,-0.489 0.7,-0.555c0.307,-0.065 0.627,0.017 0.865,0.222l12.141,10.46l4.908,-14.817c0.1,-0.3 0.335,-0.536 0.635,-0.636c0.299,-0.101 0.629,-0.054 0.889,0.125l13.058,9.01l4.926,-14.967c0.096,-0.291 0.32,-0.523 0.608,-0.629c0.288,-0.106 0.609,-0.074 0.871,0.086l14.361,8.79l5.037,-15.045c0.097,-0.292 0.323,-0.523 0.613,-0.627c0.29,-0.104 0.611,-0.069 0.872,0.094l11.867,7.418l3.646,-14.892c0.081,-0.332 0.325,-0.599 0.648,-0.711c0.323,-0.111 0.68,-0.051 0.948,0.16l11.832,9.291l6.534,-15.048c0.178,-0.411 0.607,-0.654 1.051,-0.596c0.444,0.058 0.796,0.403 0.864,0.845l6.873,45.255c0.07,0.461 -0.186,0.91 -0.619,1.083c-50.31,20.195 -103.015,31.42 -156.427,36.521c-0.032,0.003 -0.063,0.005 -0.095,0.005Zm-0.048,-2.009c52.943,-5.06 105.19,-16.155 155.082,-36.085l-6.229,-41.017l-5.663,13.04c-0.124,0.286 -0.373,0.497 -0.675,0.574c-0.302,0.076 -0.622,0.008 -0.867,-0.184l-11.629,-9.133l-3.606,14.728c-0.077,0.313 -0.299,0.57 -0.598,0.692c-0.298,0.121 -0.637,0.092 -0.91,-0.079l-11.965,-7.479l-5.032,15.033c-0.097,0.29 -0.321,0.521 -0.609,0.625c-0.287,0.105 -0.607,0.073 -0.868,-0.087l-14.356,-8.786l-4.95,15.037c-0.098,0.3 -0.333,0.537 -0.633,0.638c-0.3,0.101 -0.631,0.054 -0.891,-0.125l-13.059,-9.011l-4.96,14.97c-0.105,0.318 -0.363,0.563 -0.686,0.652c-0.323,0.089 -0.67,0.012 -0.923,-0.207l-12.276,-10.577l-7.075,15.045c-0.145,0.309 -0.438,0.523 -0.776,0.568c-0.338,0.045 -0.677,-0.084 -0.898,-0.345l-10.071,-11.834l-8.847,15.967c-0.174,0.313 -0.5,0.51 -0.858,0.517c-0.359,0.007 -0.693,-0.177 -0.879,-0.483l-9.003,-14.827l-9,14.827c-0.188,0.309 -0.527,0.494 -0.888,0.483c-0.362,-0.011 -0.69,-0.215 -0.859,-0.535l-7.817,-14.799l-10.596,14.912c-0.201,0.282 -0.533,0.441 -0.879,0.42c-0.345,-0.02 -0.656,-0.218 -0.822,-0.522l-8.031,-14.749l-9.476,14.81c-0.184,0.289 -0.504,0.464 -0.847,0.463c-0.343,-0 -0.662,-0.175 -0.846,-0.464l-9.496,-14.906l-9.413,14.902c-0.181,0.287 -0.496,0.464 -0.835,0.468c-0.34,0.005 -0.659,-0.162 -0.848,-0.445l-10.025,-14.949l-9.059,14.574c-0.188,0.303 -0.522,0.483 -0.878,0.475c-0.355,-0.009 -0.68,-0.205 -0.853,-0.516l-8.036,-14.444l-9.723,14.851c-0.192,0.292 -0.521,0.464 -0.87,0.454c-0.35,-0.011 -0.668,-0.201 -0.842,-0.504l-8.501,-14.823l-9.761,14.874c-0.188,0.287 -0.509,0.458 -0.853,0.453c-0.343,-0.004 -0.66,-0.183 -0.84,-0.475l-9.206,-14.848l-8.996,14.849c-0.177,0.293 -0.492,0.476 -0.834,0.484c-0.343,0.008 -0.666,-0.158 -0.857,-0.442l-10.108,-14.976l-9.271,14.694l0,27.577l154.876,-0Z" style="fill:#939393;"/></g><g id="sombra-arriba1" serif:id="sombra arriba"><path d="M1099.1,231.994l-151.421,-0l-0,-5.172c108.494,4.888 179.112,10.444 310.852,-36.115l0.397,4.829c-53.622,20.919 -106.794,31.761 -159.83,36.458l0.002,-0Z" style="fill:#939393;"/><path d="M1099.1,231.994l-34.576,-0c2.454,-0.103 4.908,-0.217 7.362,-0.343c-3.456,0.143 -6.908,0.256 -10.36,0.343l-39.33,-0c-22.875,-0.485 -46.524,-1.668 -72.285,-2.836l-0,0.841c13.127,0.835 26.245,1.52 39.357,1.995l-41.59,-0l-0,-5.172c108.495,4.888 179.112,10.444 310.852,-36.115l0.398,4.829c-53.622,20.919 -106.795,31.761 -159.83,36.458l0.002,-0Zm30.277,-5.626c42.226,-5.728 84.568,-15.834 127.189,-32.31l-0.023,-0.284c-49.148,17.212 -89.8,27.152 -127.166,32.594Z" style="fill:#939393;"/></g><g id="lineas-arriba1" serif:id="lineas arriba"><g><path d="M1257.32,183.404c-88.53,35.487 -197.106,47.519 -309.639,38.182" style="fill:none;stroke:#939393;stroke-width:2.23px;"/></g><g><path d="M1256.34,177.292c-79.599,34.884 -186.76,48.793 -308.659,37.781" style="fill:none;stroke:#939393;stroke-width:2.23px;"/></g></g><g><g id="shadows-arriba1" serif:id="shadows arriba"><path d="M950.725,210.067l0,-5.113l2.896,-4.783l9.158,6.321l7.657,-0l3.373,-6.321l7.825,6.321l8.541,-0l3.64,-6.321l8.165,6.321l7.97,-0l3.825,-6.321l8.578,6.321l7.105,-0l3.586,-6.321l9.825,6.321l7.692,-0l3.603,-6.321l8.954,6.321l7.911,-0l3.724,-6.321l8.237,6.321l7.563,-0l4.034,-6.351l9.054,6.351l7.338,-0l3.256,-6.321l10.237,6.321l5.863,-0l3.919,-7.301l8.133,5.534l8.27,-1.519l4.578,-9.417l7.186,6.409l10.042,-3.282l2.513,-7.933l7.131,4.538l10.144,-3.596l2.468,-6.322l8.344,3.693l9.543,-4.084l2.36,-6.321l8.109,2.293l8.374,-3.65l1.505,-6.957l8.863,3.565l5.91,-2.355l2.595,-5.938l0.204,7.676c-85.016,47.191 -221.91,49.595 -299.801,38.542l0.001,-0l-0.001,-0Z" style="fill:#9d9d9d;"/></g></g><g id="ligth-arriba1" serif:id="ligth arriba"><g><path d="M1234.48,163.848c0.884,2.285 8.777,4.236 8.777,4.236l-10.416,-8.819c0,-0 1.039,3.032 1.639,4.583Zm-134.031,33.476c1.054,2.212 4.961,5.994 4.961,5.994l-6.119,-12.082c0,-0 0.443,4.587 1.158,6.088Zm-20.121,-0c1.053,2.212 4.96,5.994 4.96,5.994l-6.311,-12.082c0,-0 0.636,4.587 1.351,6.088Zm-100.662,-0.013c1.074,2.202 5.78,5.946 5.78,5.946l-7.189,-12.021c-0,-0 0.679,4.581 1.409,6.075Zm-20.902,-0c1.074,2.202 6.173,5.946 6.173,5.946l-7.582,-12.021c-0,-0 0.68,4.581 1.409,6.075Zm41.003,-0c1.075,2.202 5.301,5.946 5.301,5.946l-6.71,-12.021c-0,-0 0.68,4.581 1.409,6.075Zm20.008,-0.02c1.105,2.187 5.099,5.877 5.099,5.877l-6.346,-11.932c-0,-0 0.498,4.571 1.247,6.055Zm99.797,-0.038c1.158,2.159 5.24,5.751 5.24,5.751l-6.878,-11.768c-0,-0 0.853,4.552 1.638,6.017Zm38.676,-7.329c1.169,2.152 9.344,5.375 9.344,5.375l-11.056,-9.806c-0,-0 0.917,2.97 1.712,4.431Zm38.935,-11.41c1.177,2.149 10.34,3.781 10.34,3.781l-12.448,-8.086c-0,-0 1.309,2.847 2.108,4.305Zm-20.127,5.442c1.176,2.149 9.796,4.761 9.796,4.761l-11.461,-8.23c0,-0 0.865,2.011 1.665,3.469Zm40.536,-12.753c1.195,2.137 8.622,3.006 8.622,3.006l-10.404,-6.694c0,-0 0.971,2.237 1.782,3.688Zm-157.397,25.996c1.224,2.123 5.416,5.586 5.416,5.586l-7.048,-11.549c0,-0 0.802,4.523 1.632,5.963Zm79.085,-2.742c1.257,2.103 7.047,5.69 7.047,5.69l-8.85,-10.832c0,-0 0.95,3.715 1.803,5.142Zm-99.853,2.682c1.29,2.082 5.589,5.412 5.589,5.412l-7.339,-11.315c-0,-0 0.874,4.49 1.75,5.903Z" style="fill:#fff;"/></g><g><path d="M1253.78,187.72c0.203,0.522 0.416,1.975 0.458,2.532c0.041,0.537 -1.007,0.985 -1.007,0.985c0,-0 2.995,-0.593 2.954,-1.13c-0.054,-0.752 -0.418,-2.95 -0.69,-3.655c-0.194,-0.502 -2.822,0.755 -2.822,0.755c0,-0 0.911,0.011 1.107,0.513Zm-0.929,-6.124c0.142,0.357 0.243,0.844 0.271,1.227c0.041,0.537 -1.372,1.114 -1.372,1.114c0,-0 3.361,-0.719 3.322,-1.257c-0.044,-0.585 -0.261,-1.975 -0.479,-2.52c-0.201,-0.5 -3.573,1.186 -3.573,1.186c0,-0 1.63,-0.25 1.831,0.25Zm-1.915,-24.415c0,-0 0.591,16.215 0.626,16.7c0.028,0.437 0.008,0.87 -0.397,1.169c-0.435,0.319 -3.819,2.515 -3.819,2.515c0,-0 4.544,-0.623 4.976,-0.942c0.876,-0.644 1.175,-1.483 1.199,-2.402c0.018,-0.681 -0.142,-1.415 -0.247,-2.099c-0.422,-2.754 -0.853,-5.506 -1.248,-8.264c-0.154,-1.068 -1.09,-6.677 -1.09,-6.677Z" style="fill:#fff;"/></g><g><path d="M1250.82,187.998c-104.731,43.997 -217.625,43.997 -300.468,35.394c100.506,8.34 200.76,2.204 300.468,-35.394Z" style="fill:#cecece;"/></g><g><path d="M1247.34,183.002c-83.356,38.301 -214.378,43.892 -296.992,34.219c120.324,9.019 219.202,-2.502 296.992,-34.219Z" style="fill:#cecece;"/></g></g><g id="brillo-arriba1" serif:id="brillo arriba"><path d="M1012.86,233l-16.018,-0l-9.48,-32.162l0.259,0.418l9.794,-14.925c0.192,-0.292 0.521,-0.463 0.87,-0.453c0.218,0.007 0.425,0.084 0.591,0.214l13.984,46.908Zm89.535,-0l-29.655,-0l-15.438,-46.756c0.189,-0.23 0.471,-0.365 0.773,-0.366c0.344,-0.001 0.664,0.175 0.849,0.465l9.502,14.914l9.543,-14.916c0.191,-0.299 0.526,-0.475 0.882,-0.463c0.355,0.013 0.676,0.212 0.846,0.524l8.075,14.828l10.609,-14.929c0.201,-0.285 0.537,-0.444 0.885,-0.421c0.348,0.023 0.659,0.225 0.822,0.533l7.751,14.675l8.94,-14.727c0.182,-0.3 0.508,-0.483 0.859,-0.483c0.351,-0 0.676,0.183 0.858,0.483l8.963,14.762l8.712,-15.722c0.16,-0.288 0.451,-0.479 0.779,-0.512c0.328,-0.033 0.651,0.098 0.865,0.349l10,11.751l6.974,-14.831c0.133,-0.284 0.392,-0.489 0.699,-0.555c0.307,-0.065 0.627,0.017 0.865,0.222l12.141,10.46l4.909,-14.817c0.1,-0.3 0.335,-0.536 0.634,-0.636c0.3,-0.101 0.63,-0.054 0.89,0.125l6.604,4.557l10.149,36.546c-29.306,7.256 -59.136,12.065 -89.189,14.935c-0.032,0.003 -0.064,0.005 -0.096,0.005Zm120.407,-23.652l-11.473,-37.803l2.458,-7.343c0.098,-0.292 0.324,-0.523 0.614,-0.627c0.289,-0.104 0.611,-0.069 0.872,0.094l11.867,7.418l3.646,-14.892c0.074,-0.302 0.283,-0.551 0.564,-0.678l16.014,45.423c-8.131,3.024 -16.321,5.823 -24.562,8.408Z" style="fill:#d0d0d0;fill-opacity:0.25;"/></g></g></g><g id="_5" serif:id="5"><g id="package4" serif:id="package"><g id="arriba-base2" serif:id="arriba base"><path d="M1573.4,168.878l-6.995,-42.035l-6.297,18.878l-12.656,-10.635l-4.12,16.421l-14.642,-9.877l-3.935,16.539l-14.859,-9.352l-4.194,16.558l-15.831,-9.768l-4.235,16.702l-14.601,-10.235l-4.57,16.727l-13.502,-9.858l-5.754,17.045l-12.394,-11.492l-7.385,16.781l-13.059,-12.842l-8.262,16.748l-11.444,-13.668l-8.909,15.77l-10.588,-13.485l-10.557,15.3l-10.966,-15.3l-10.054,16.177l-9,-16.177l-10.822,16.528l-9.479,-16.528l-10.846,16.528l-10.247,-16.528l-10.019,16.538l-11.162,-16.538l-10.429,16.528l0,29.526c106.547,8.225 219.962,-8.157 311.813,-60.976Z" style="fill:#aeaeae;"/><path d="M1573.97,169.863c-92.045,52.931 -205.695,69.367 -312.463,61.124c-0.592,-0.045 -1.05,-0.539 -1.05,-1.133l0,-29.525c0,-0.215 0.061,-0.425 0.176,-0.607l10.429,-16.528c0.204,-0.325 0.559,-0.524 0.943,-0.53c0.384,-0.006 0.745,0.182 0.96,0.501l10.168,15.066l9.098,-15.019c0.205,-0.339 0.571,-0.546 0.967,-0.548c0.395,-0.002 0.763,0.202 0.971,0.538l9.308,15.014l9.869,-15.039c0.217,-0.33 0.59,-0.524 0.985,-0.512c0.395,0.011 0.755,0.227 0.951,0.57l8.558,14.921l9.806,-14.978c0.218,-0.333 0.595,-0.528 0.992,-0.513c0.398,0.014 0.759,0.235 0.952,0.583l8.061,14.489l9.036,-14.536c0.2,-0.323 0.548,-0.524 0.927,-0.536c0.379,-0.013 0.74,0.165 0.961,0.473l10.025,13.987l9.639,-13.97c0.205,-0.297 0.539,-0.479 0.901,-0.49c0.36,-0.011 0.705,0.15 0.928,0.434l9.54,12.15l8.074,-14.292c0.183,-0.325 0.514,-0.539 0.886,-0.573c0.371,-0.034 0.735,0.116 0.975,0.402l10.325,12.332l7.491,-15.186c0.161,-0.327 0.469,-0.556 0.829,-0.617c0.36,-0.061 0.726,0.054 0.986,0.31l11.886,11.688l6.721,-15.274c0.149,-0.336 0.45,-0.58 0.81,-0.655c0.36,-0.075 0.734,0.03 1.003,0.28l11.107,10.297l5.192,-15.381c0.116,-0.342 0.388,-0.61 0.733,-0.719c0.345,-0.11 0.722,-0.048 1.014,0.165l12.17,8.885l4.136,-15.137c0.097,-0.356 0.362,-0.643 0.71,-0.769c0.348,-0.125 0.735,-0.074 1.038,0.139l13.252,9.29l3.83,-15.106c0.089,-0.351 0.34,-0.638 0.675,-0.774c0.335,-0.135 0.715,-0.104 1.023,0.087l14.513,8.954l3.814,-15.056c0.089,-0.353 0.341,-0.641 0.679,-0.776c0.338,-0.135 0.72,-0.1 1.027,0.093l13.517,8.506l3.567,-14.995c0.087,-0.363 0.346,-0.66 0.693,-0.796c0.347,-0.135 0.739,-0.091 1.048,0.117l13.299,8.971l3.725,-14.849c0.096,-0.38 0.38,-0.684 0.753,-0.804c0.372,-0.121 0.781,-0.041 1.08,0.211l11.377,9.559l5.767,-17.292c0.166,-0.496 0.647,-0.815 1.168,-0.774c0.52,0.041 0.946,0.432 1.031,0.947l6.995,42.035c0.078,0.468 -0.143,0.935 -0.554,1.171l-0.003,-0Zm-1.817,-1.577l-6.114,-36.743l-4.849,14.538c-0.119,0.357 -0.407,0.632 -0.769,0.734c-0.362,0.102 -0.752,0.018 -1.04,-0.224l-11.265,-9.465l-3.678,14.658c-0.091,0.36 -0.35,0.653 -0.696,0.785c-0.346,0.132 -0.735,0.088 -1.042,-0.119l-13.28,-8.96l-3.556,14.942c-0.084,0.357 -0.336,0.65 -0.675,0.789c-0.34,0.138 -0.725,0.105 -1.035,-0.09l-13.537,-8.519l-3.81,15.042c-0.089,0.351 -0.34,0.638 -0.675,0.774c-0.335,0.136 -0.715,0.104 -1.023,-0.086l-14.513,-8.954l-3.855,15.201c-0.092,0.362 -0.356,0.656 -0.706,0.786c-0.35,0.13 -0.742,0.08 -1.048,-0.135l-13.277,-9.308l-4.145,15.169c-0.099,0.36 -0.368,0.649 -0.721,0.773c-0.353,0.123 -0.744,0.065 -1.045,-0.155l-12.251,-8.944l-5.258,15.577c-0.124,0.365 -0.423,0.643 -0.797,0.738c-0.373,0.095 -0.77,-0.006 -1.052,-0.268l-11.225,-10.407l-6.742,15.321c-0.15,0.341 -0.459,0.587 -0.826,0.658c-0.367,0.07 -0.745,-0.044 -1.011,-0.306l-11.938,-11.741l-7.567,15.34c-0.17,0.344 -0.502,0.579 -0.883,0.625c-0.382,0.046 -0.76,-0.104 -1.007,-0.399l-10.391,-12.41l-8.102,14.342c-0.186,0.33 -0.525,0.545 -0.903,0.574c-0.378,0.028 -0.746,-0.133 -0.98,-0.432l-9.635,-12.271l-9.68,14.029c-0.21,0.305 -0.555,0.488 -0.926,0.491c-0.369,0.003 -0.718,-0.173 -0.933,-0.474l-9.976,-13.917l-9.157,14.732c-0.212,0.342 -0.59,0.546 -0.992,0.536c-0.403,-0.01 -0.77,-0.232 -0.966,-0.583l-8.085,-14.534l-9.792,14.955c-0.216,0.331 -0.59,0.525 -0.984,0.513c-0.395,-0.011 -0.756,-0.227 -0.953,-0.57l-8.558,-14.923l-9.831,14.981c-0.213,0.324 -0.577,0.518 -0.965,0.513c-0.388,-0.005 -0.747,-0.208 -0.951,-0.538l-9.27,-14.952l-9.058,14.953c-0.201,0.331 -0.557,0.537 -0.945,0.547c-0.387,0.009 -0.752,-0.179 -0.969,-0.5l-10.188,-15.096l-9.324,14.778l0,28.144c105.752,8 218.19,-8.291 309.427,-60.515l-0.002,-0Z" style="fill:#939393;"/></g><g id="sombra-arriba2" serif:id="sombra arriba"><path d="M1572.65,164.91c-89.75,52.292 -204.184,64.866 -309.816,59.536l0,5.364c105.412,6.833 212.332,-4.19 310.218,-59.986l-0.405,-4.914l0.003,-0Z" style="fill:#939393;"/><path d="M1572.65,164.91c-89.75,52.292 -204.184,64.866 -309.816,59.536l0,5.364c105.412,6.833 212.332,-4.19 310.218,-59.986l-0.405,-4.914l0.003,-0Zm-24.9,15.733c-90.098,44.119 -186.967,53.015 -282.64,47.034l0,-0.845c95.415,4.565 197.755,-5.565 282.64,-46.189Z" style="fill:#939393;"/></g><g id="lineas-arriba2" serif:id="lineas arriba"><g><path d="M1571.56,159.747c-75.457,46.307 -194.214,68.871 -308.733,59.37" style="fill:none;stroke:#939393;stroke-width:2.27px;"/></g><g><path d="M1570.61,153.564c-69.56,42.478 -183.734,70.131 -307.784,58.924" style="fill:none;stroke:#939393;stroke-width:2.27px;"/></g></g><g><g id="shadows-arriba2" serif:id="shadows arriba"><path d="M1265.93,207.393l0,-5.204l2.947,-4.867l9.32,6.433l7.792,-0l3.433,-6.433l7.962,6.433l8.693,-0l3.703,-6.433l8.31,6.433l8.111,-0l3.892,-6.433l8.729,6.433l7.231,-0l3.649,-6.433l9.999,6.433l6.324,-0l5.457,-7.393l7.322,6.478l7.954,-0.996l4.079,-7.344l8.142,6.026l8.266,-1.503l3.787,-7.526l8.241,5.559l9.243,-2.003l3.362,-7.161l10.029,4.278l7.887,-2.191l2.471,-6.866l7.899,4.23l7.932,-2.159l2.71,-9.037l9.946,3.206l7.582,-3.171l2.361,-8.067l9.331,3.764l8.349,-3.046l1.61,-7.951l9.218,3.554l8.448,-2.86l1.937,-8.012l8.839,4.034l7.98,-3.412l1.774,-7.686l8.415,3.386l5.935,-2.268l2.111,-6.042l0.74,7.811c-80.658,52.159 -220.186,69.254 -299.453,58.006l0.001,-0Z" style="fill:#9d9d9d;"/></g></g><g id="ligth-arriba2" serif:id="ligth arriba"><g><path d="M1550.62,143.444c0.9,2.325 8.932,4.311 8.932,4.311l-10.599,-8.975c-0,-0 1.057,3.086 1.667,4.664Zm-134.928,42.821c1.073,2.251 9.466,6.485 9.466,6.485l-10.345,-10.508c0,-0 0.152,2.495 0.879,4.023Zm-19.292,3.517c1.073,2.251 7.547,6.615 7.547,6.615l-8.771,-11.237c0,-0 0.497,3.095 1.224,4.622Zm-101.015,4.631c1.093,2.241 5.882,6.052 5.882,6.052l-7.316,-12.234c0,-0 0.691,4.662 1.434,6.182Zm-21.271,-0c1.093,2.241 6.282,6.052 6.282,6.052l-7.716,-12.234c0,-0 0.692,4.662 1.434,6.182Zm41.727,-0c1.094,2.241 5.395,6.052 5.395,6.052l-6.828,-12.234c0,-0 0.691,4.662 1.433,6.182Zm20.362,-0.02c1.124,2.225 5.188,5.981 5.188,5.981l-6.458,-12.143c0,-0 0.507,4.652 1.27,6.162Zm100.607,-11.657c1.178,2.198 10.007,6.402 10.007,6.402l-11.16,-10.37c0,-0 0.353,2.477 1.153,3.968Zm37.857,-12.483c1.191,2.19 10.072,5.001 10.072,5.001l-11.673,-8.714c0,-0 0.792,2.226 1.601,3.713Zm38.637,-13.743c1.198,2.187 10.085,4.452 10.085,4.452l-12.181,-7.944c0,-0 1.283,2.009 2.096,3.492Zm-19.559,6.84c1.197,2.187 10.392,4.378 10.392,4.378l-12.084,-7.907c0,-0 0.881,2.046 1.692,3.529Zm38.661,-14.032c1.219,2.176 9.524,4.183 9.524,4.183l-11.337,-7.935c0,-0 0.988,2.275 1.813,3.752Zm-155.969,42.922c1.041,2.265 6.898,6.695 6.898,6.695l-7.735,-11.19c0,-0 -0.008,2.655 0.837,4.495Zm79.762,-15.264c1.279,2.14 9.922,4.696 9.922,4.696l-11.522,-8.619c0,-0 0.732,2.47 1.6,3.923Zm-99.998,17.262c1.313,2.12 5.688,5.508 5.688,5.508l-7.469,-11.515c0,-0 0.89,4.569 1.781,6.007Z" style="fill:#fff;"/></g><g><path d="M1569.24,163.951c0.206,0.531 0.226,1.037 0.266,1.604c0.041,0.547 -0.702,1.082 -0.702,1.082c0,-0 2.637,-0.908 2.598,-1.456c-0.057,-0.764 -0.258,-2.163 -0.537,-2.879c-0.198,-0.512 -2.678,1.247 -2.678,1.247c0,-0 0.855,-0.109 1.053,0.402Zm-1.23,-6.095c0.145,0.363 0.25,0.857 0.276,1.248c0.042,0.547 -1.31,1.257 -1.31,1.257c0,-0 3.297,-1.015 3.257,-1.563c-0.044,-0.594 -0.228,-1.85 -0.45,-2.404c-0.204,-0.509 -3.488,1.625 -3.488,1.625c0,-0 1.51,-0.672 1.715,-0.163Zm-1.814,-21.121c0,-0 0.254,14.001 0.286,14.495c0.031,0.445 0.011,0.885 -0.402,1.189c-0.442,0.326 -3.888,2.56 -3.888,2.56c0,-0 4.625,-1.089 5.067,-1.415c0.889,-0.655 1.193,-1.053 1.218,-1.988c0.02,-0.693 -0.143,-1.44 -0.25,-2.137c-0.429,-2.802 -2.031,-12.704 -2.031,-12.704Z" style="fill:#fff;"/></g><g><path d="M1567.84,163.959c-90.313,56.761 -217.991,65.752 -302.298,56.997c102.28,8.487 219.113,-7.544 302.298,-56.997Z" style="fill:#cecece;"/></g><g><path d="M1565.84,158.385c-77.764,52.306 -216.219,66.133 -300.291,56.289c122.448,9.179 229.355,-14.179 300.291,-56.289Z" style="fill:#cecece;"/></g></g><g id="brillo-arriba2" serif:id="brillo arriba"><path d="M1389.45,228.481l-15.115,-45.451c0.206,-0.222 0.493,-0.355 0.801,-0.365c0.36,-0.011 0.705,0.15 0.928,0.434l9.54,12.15l8.074,-14.292c0.184,-0.324 0.514,-0.538 0.886,-0.572c0.371,-0.034 0.735,0.116 0.975,0.402l10.325,12.331l7.491,-15.185c0.161,-0.327 0.47,-0.557 0.829,-0.618c0.36,-0.061 0.727,0.055 0.987,0.31l11.885,11.689l6.722,-15.274c0.148,-0.337 0.449,-0.581 0.809,-0.656c0.36,-0.074 0.734,0.03 1.003,0.28l11.107,10.298l5.192,-15.381c0.116,-0.343 0.388,-0.61 0.733,-0.72c0.345,-0.109 0.722,-0.048 1.014,0.166l12.17,8.885l4.136,-15.137c0.097,-0.357 0.362,-0.644 0.71,-0.769c0.348,-0.126 0.736,-0.074 1.038,0.138l13.252,9.29l3.83,-15.105c0.089,-0.351 0.34,-0.638 0.675,-0.774c0.335,-0.136 0.715,-0.104 1.023,0.086l2.547,1.571l14.283,44.553c-14.532,5.315 -29.378,9.924 -44.453,13.862c-24.903,6.357 -47.647,10.228 -61.01,12.216c-4.121,0.589 -8.251,1.135 -12.387,1.638Zm-74.644,-45.694l14.348,48.6l-16.301,-0l-9.893,-33.999l0.514,0.828l9.869,-15.038c0.217,-0.331 0.589,-0.525 0.984,-0.513c0.169,0.005 0.332,0.048 0.479,0.122Zm222.778,5.649l-11.887,-39.122l1.89,-7.946c0.087,-0.363 0.346,-0.661 0.693,-0.796c0.347,-0.136 0.739,-0.092 1.048,0.117l13.298,8.971l3.726,-14.849c0.096,-0.38 0.38,-0.684 0.753,-0.805c0.025,-0.008 0.05,-0.015 0.076,-0.021l15.012,42.376c-1.174,0.632 -2.424,1.293 -3.727,1.971c-6.859,3.556 -13.823,6.923 -20.882,10.104Z" style="fill:#d0d0d0;fill-opacity:0.25;"/></g></g></g><g id="_6" serif:id="6"><g id="package5" serif:id="package"><g id="arriba-base3" serif:id="arriba base"><path d="M1888.37,130.536l-15.808,-47.95l-3.354,19.149l-16.369,-5.035l1.444,17.984l-16.865,-3.776l0.488,16.964l-16.931,-3.365l-0.051,16.543l-15.666,-6.182l-1.383,16.688l-15.278,-6.175l-2.788,15.999l-15.505,-7.166l-3.44,16.912l-16.149,-8.623l-4.87,17.075l-15.088,-9.679l-6.06,16.42l-13.327,-10.997l-7.761,17.454l-10.873,-13.092l-10.673,16.899l-11.331,-14.509l-10.28,16.539l-9.201,-15.874l-11.064,16.898l-9.691,-16.898l-11.089,16.898l-10.476,-16.898l-10.243,16.908l-11.412,-16.908l-10.662,16.898l-0,30.186c94.748,7.149 193.977,-0.147 311.757,-99.287l-0.001,-0l0.001,-0l-0.001,-0Z" style="fill:#aeaeae;"/><path d="M1889.48,130.172c0.14,0.489 0.062,0.902 -0.355,1.253c-118.096,99.406 -217.591,106.724 -312.592,99.557c-0.606,-0.046 -1.075,-0.551 -1.075,-1.159l0,-30.186c0,-0.22 0.062,-0.435 0.179,-0.62l10.662,-16.898c0.21,-0.332 0.573,-0.536 0.965,-0.542c0.393,-0.006 0.762,0.186 0.981,0.512l10.396,15.403l9.302,-15.355c0.21,-0.346 0.584,-0.558 0.988,-0.56c0.404,-0.002 0.78,0.206 0.993,0.55l9.517,15.35l10.09,-15.375c0.221,-0.338 0.602,-0.537 1.006,-0.525c0.404,0.012 0.772,0.233 0.973,0.584l8.749,15.255l10.026,-15.314c0.221,-0.337 0.601,-0.535 1.004,-0.525c0.403,0.011 0.771,0.23 0.974,0.579l8.23,14.2l9.258,-14.895c0.2,-0.323 0.546,-0.527 0.925,-0.548c0.379,-0.019 0.744,0.147 0.977,0.446l10.315,13.207l9.792,-15.502c0.199,-0.314 0.536,-0.515 0.907,-0.539c0.371,-0.024 0.732,0.131 0.969,0.417l9.678,11.653l7,-15.745c0.147,-0.332 0.442,-0.576 0.795,-0.659c0.354,-0.084 0.726,0.003 1.006,0.235l12.065,9.955l5.493,-14.884c0.122,-0.33 0.387,-0.588 0.72,-0.699c0.335,-0.112 0.701,-0.067 0.997,0.123l13.772,8.835l4.442,-15.571c0.097,-0.338 0.34,-0.614 0.664,-0.751c0.323,-0.138 0.691,-0.121 1.001,0.044l14.773,7.889l3.13,-15.384c0.071,-0.348 0.297,-0.645 0.614,-0.805c0.317,-0.161 0.69,-0.168 1.012,-0.019l14.132,6.532l2.528,-14.509c0.061,-0.346 0.274,-0.646 0.581,-0.817c0.307,-0.17 0.674,-0.193 0.999,-0.061l13.816,5.584l1.253,-15.115c0.03,-0.367 0.232,-0.697 0.544,-0.891c0.312,-0.194 0.698,-0.229 1.04,-0.094l14.083,5.557l0.045,-14.842c0.001,-0.347 0.157,-0.676 0.426,-0.895c0.269,-0.22 0.621,-0.308 0.962,-0.241l15.502,3.081l-0.446,-15.507c-0.01,-0.358 0.146,-0.702 0.422,-0.93c0.277,-0.228 0.643,-0.315 0.993,-0.237l15.327,3.432l-1.318,-16.414c-0.031,-0.383 0.131,-0.758 0.431,-0.999c0.3,-0.241 0.701,-0.317 1.069,-0.204l15.11,4.648l3.127,-17.852c0.092,-0.524 0.529,-0.919 1.06,-0.958c0.531,-0.039 1.021,0.289 1.187,0.795l15.809,47.95Zm-2.453,-0.019l-14.113,-42.808l-2.556,14.59c-0.057,0.329 -0.253,0.616 -0.538,0.79c-0.284,0.175 -0.629,0.218 -0.948,0.12l-14.732,-4.532l1.307,16.278c0.03,0.368 -0.117,0.728 -0.396,0.97c-0.278,0.242 -0.655,0.337 -1.016,0.257l-15.407,-3.45l0.446,15.471c0.01,0.353 -0.142,0.692 -0.412,0.92c-0.27,0.229 -0.629,0.321 -0.976,0.252l-15.548,-3.09l-0.046,15.133c-0.001,0.384 -0.192,0.742 -0.51,0.958c-0.317,0.215 -0.721,0.26 -1.078,0.119l-14.211,-5.608l-1.254,15.129c-0.03,0.368 -0.234,0.7 -0.548,0.893c-0.315,0.194 -0.703,0.226 -1.045,0.088l-13.945,-5.636l-2.542,14.582c-0.062,0.356 -0.286,0.662 -0.605,0.83c-0.32,0.167 -0.699,0.177 -1.027,0.025l-14.171,-6.549l-3.148,15.472c-0.073,0.36 -0.312,0.664 -0.644,0.82c-0.331,0.156 -0.718,0.146 -1.042,-0.027l-14.878,-7.944l-4.476,15.69c-0.101,0.354 -0.363,0.638 -0.707,0.769c-0.343,0.129 -0.728,0.089 -1.038,-0.11l-13.871,-8.897l-5.559,15.063c-0.13,0.353 -0.424,0.621 -0.787,0.72c-0.364,0.098 -0.752,0.014 -1.042,-0.226l-12.148,-10.024l-7.139,16.057c-0.164,0.367 -0.505,0.624 -0.903,0.679c-0.398,0.055 -0.796,-0.099 -1.053,-0.408l-9.85,-11.862l-9.82,15.546c-0.202,0.32 -0.546,0.521 -0.924,0.54c-0.378,0.019 -0.741,-0.147 -0.974,-0.445l-10.307,-13.198l-9.401,15.126c-0.215,0.347 -0.597,0.555 -1.005,0.548c-0.408,-0.006 -0.782,-0.226 -0.987,-0.579l-8.256,-14.243l-10.032,15.321c-0.221,0.338 -0.602,0.537 -1.006,0.525c-0.404,-0.012 -0.772,-0.233 -0.974,-0.583l-8.75,-15.257l-10.051,15.316c-0.218,0.332 -0.59,0.53 -0.986,0.524c-0.397,-0.005 -0.764,-0.212 -0.973,-0.549l-9.477,-15.287l-9.261,15.287c-0.205,0.339 -0.569,0.55 -0.965,0.56c-0.396,0.009 -0.77,-0.183 -0.992,-0.512l-10.415,-15.433l-9.533,15.109l0,28.772c94.008,6.981 192.491,-0.572 309.244,-98.592l-0.001,-0l0.002,-0Z" style="fill:#939393;"/></g><g id="sombra-arriba3" serif:id="sombra arriba"><path d="M1886.31,126.288c-117.052,101.463 -195.528,103.092 -308.409,98.006l0,5.484c107.77,6.986 198.543,1.998 309.888,-99.187l-1.478,-4.303l-0.001,-0Z" style="fill:#939393;"/><path d="M1886.31,126.288c-117.052,101.463 -195.528,103.092 -308.409,98.006l0,5.484c107.77,6.986 198.543,1.998 309.888,-99.187l-1.478,-4.303l-0.001,-0Zm-13.759,14.617c-108.577,88.608 -185.111,90.574 -292.33,85.818l0,0.876c101.78,6.455 188.491,1.653 292.33,-86.694Z" style="fill:#939393;"/></g><g id="lineas-arriba3" serif:id="lineas arriba"><g><path d="M1884.22,118.429c-100.763,87.78 -189.265,110.13 -306.343,100.417" style="fill:none;stroke:#939393;stroke-width:2.33px;"/></g><g><path d="M1881.11,109.229c-82.092,75.88 -176.391,114.298 -303.214,102.84" style="fill:none;stroke:#939393;stroke-width:2.33px;"/></g></g><g><g id="shadows-arriba3" serif:id="shadows arriba"><path d="M1581.05,206.861l0,-5.32l3.013,-4.977l9.528,6.577l7.966,-0l3.51,-6.577l8.141,6.577l8.887,-0l3.786,-6.577l8.496,6.577l8.293,-0l3.979,-6.577l8.924,6.577l7.393,-0l3.731,-6.577l9.971,5.474l7.351,-1.025l4.652,-7.68l9.315,5.127l9.084,-3.228l2.621,-7.029l7.205,3.966l10.362,-2.983l2.609,-7.694l7.426,4.747l11.221,-4.423l2.329,-7.45l8.193,3.87l10.634,-4.877l1.351,-7.546l7.454,3.876l10.175,-5.678l1.422,-9.116l7.778,3.764l9.283,-5.489l0.673,-8.29l7.527,3.221l9.527,-6.204l0.158,-8.482l8.883,2.054l7.449,-6.622l-0.647,-9.527l9.505,2.95l7.498,-6.413l-0.771,-10.12l8.763,2.882l5.951,-5.895l1.154,-6.449l1.761,8.257c-88.16,90.275 -211.45,116.211 -293.515,102.329l0.001,-0Z" style="fill:#9d9d9d;"/></g></g><g id="ligth-arriba3" serif:id="ligth arriba"><g><path d="M1856.89,102.033c1.696,1.696 11.366,1.863 11.366,1.863l-13.224,-4.183c0,-0 0.637,1.097 1.858,2.32Zm-123.116,74.397c1.378,1.914 9.517,3.9 9.517,3.9l-11.449,-7.293c0,-0 0.922,1.989 1.932,3.393Zm-19.483,6.669c1.097,2.302 8.018,3.864 8.018,3.864l-9.955,-8.261c0,-0 1.193,2.836 1.937,4.397Zm-103.134,10.491c1.118,2.29 6.015,6.186 6.015,6.186l-7.48,-12.507c0,-0 0.706,4.766 1.465,6.321Zm-21.746,-0c1.117,2.29 6.422,6.186 6.422,6.186l-7.888,-12.507c0,-0 0.707,4.766 1.466,6.321Zm42.661,-0c1.118,2.29 5.515,6.186 5.515,6.186l-6.981,-12.507c0,-0 0.707,4.766 1.466,6.321Zm20.817,-0.021c1.149,2.275 5.304,6.114 5.304,6.114l-6.602,-12.414c0,-0 0.518,4.756 1.298,6.3Zm101.119,-24.051c1.495,1.762 9.666,3.272 9.666,3.272l-11.661,-6.87c0,-0 0.878,2.278 1.995,3.598Zm38.49,-18.524c1.915,1.93 9.815,2.311 9.815,2.311l-12.061,-5.255c0,-0 1.027,1.716 2.246,2.944Zm33.095,-21.545c1.722,1.213 11.783,0.557 11.783,0.557l-14.129,-3.115c0,-0 0.934,1.561 2.346,2.558Zm-16.619,10.86c1.695,1.79 10.585,2.543 10.585,2.543l-12.564,-5.111c0,-0 0.788,1.313 1.979,2.568Zm33.004,-24.758c1.764,1.58 12.315,1.516 12.315,1.516l-14.417,-3.816c0,-0 0.812,1.146 2.102,2.3Zm-147.083,72.531c1.273,2.208 7.039,5.376 7.039,5.376l-8.689,-10.273c-0,-0 0.785,3.399 1.65,4.897Zm79.394,-27.632c1.848,1.878 9.731,2.705 9.731,2.705l-12.073,-5.771c-0,-0 1.127,1.833 2.342,3.066Zm-101.181,31.826c1.342,2.167 6.496,5.404 6.496,5.404l-8.316,-11.545c-0,-0 0.909,4.67 1.82,6.141Z" style="fill:#fff;"/></g><g><path d="M1882.2,123.723c0.295,0.501 0.855,2.474 0.992,3.038c0.132,0.545 -0.597,1.403 -0.597,1.403c0,-0 2.657,-1.606 2.526,-2.152c-0.184,-0.761 -0.974,-3.204 -1.375,-3.88c-0.284,-0.484 -2.803,1.711 -2.803,1.711c0,-0 0.973,-0.604 1.257,-0.12Zm-3.121,-8.925c0.207,0.343 1.105,3.106 1.199,3.494c0.133,0.545 -0.941,2.01 -0.941,2.01c0,-0 3.049,-1.94 2.919,-2.486c-0.144,-0.593 -1.435,-4.601 -1.753,-5.122c-0.288,-0.481 -3.586,2.653 -3.586,2.653c0,-0 1.871,-1.028 2.162,-0.549Zm-6.191,-25.091c-0,-0 3.348,16.545 3.463,17.038c0.103,0.444 -0.024,0.776 -0.21,1.267c-0.177,0.465 -2.226,4.746 -2.226,4.746c-0,-0 3.29,-2.926 3.682,-3.327c0.788,-0.809 0.954,-1.72 0.823,-2.668c-0.096,-0.702 -0.385,-1.429 -0.608,-2.114c-0.897,-2.757 -1.807,-5.508 -2.678,-8.273c-0.338,-1.07 -2.246,-6.669 -2.246,-6.669Z" style="fill:#fff;"/></g><g><path d="M1880.61,124.24c-105.051,98.428 -209.328,107.755 -299.952,96.485c116.24,9.564 201.319,-11.79 299.952,-96.485Z" style="fill:#cecece;"/></g><g><path d="M1876.19,116.36c-85.619,88.048 -212.353,112.255 -295.535,97.944c114.733,13.031 217.833,-25.717 295.535,-97.944Z" style="fill:#cecece;"/></g></g><g id="brillo-arriba3" serif:id="brillo arriba"><path d="M1706.45,225.278l-14.797,-46.031l0.115,-0.183c0.198,-0.314 0.536,-0.514 0.907,-0.538c0.371,-0.024 0.731,0.13 0.969,0.417l9.677,11.652l7,-15.745c0.148,-0.332 0.442,-0.576 0.796,-0.659c0.354,-0.083 0.725,0.004 1.006,0.235l12.065,9.955l5.493,-14.884c0.122,-0.33 0.386,-0.587 0.72,-0.699c0.334,-0.112 0.7,-0.067 0.997,0.124l13.772,8.834l4.442,-15.571c0.096,-0.338 0.34,-0.614 0.663,-0.751c0.324,-0.137 0.691,-0.121 1.001,0.045l14.774,7.888l3.13,-15.384c0.07,-0.348 0.297,-0.645 0.613,-0.805c0.317,-0.16 0.69,-0.167 1.012,-0.018l14.133,6.531l2.528,-14.509c0.06,-0.346 0.274,-0.646 0.58,-0.816c0.307,-0.171 0.674,-0.193 1,-0.062l13.816,5.584l1.252,-15.115c0.031,-0.366 0.233,-0.697 0.545,-0.891c0.312,-0.194 0.698,-0.229 1.039,-0.094l8.375,3.305l20.271,34.955c-44.941,28.818 -87.273,44.914 -127.894,53.23Zm-75.43,-43.583l14.674,50.201l-16.666,-0l-10.232,-35.47l0.653,1.051l10.09,-15.375c0.221,-0.338 0.602,-0.536 1.006,-0.524c0.167,0.005 0.329,0.046 0.475,0.117Zm221.357,-86.055l26.48,44.228c-6.524,5.316 -17.765,13.793 -21.643,16.538l-20.512,-30.504l-0.431,-14.961c-0.01,-0.358 0.146,-0.701 0.422,-0.929c0.277,-0.228 0.643,-0.316 0.993,-0.238l15.327,3.432l-1.318,-16.413c-0.031,-0.384 0.131,-0.758 0.431,-0.999c0.078,-0.063 0.162,-0.114 0.251,-0.154Z" style="fill:#d0d0d0;fill-opacity:0.25;"/></g></g></g><g id="_7" serif:id="7"><g id="package6" serif:id="package"><g id="arriba-base4" serif:id="arriba base"><path d="M2203.33,88.142l-16.473,-44.799l-1.9,18.374l-14.434,-1.54l0.779,15.215l-15.404,-1.35l0.276,16.014l-16.028,-1.862l0.32,16.002l-16.671,-2.499l-1.2,17.292l-16.775,-3.922l-1.7,18.417l-18.37,-4.582l-1.356,17.376l-17.191,-6.191l-1.388,17.649l-17.021,-7.912l-2.547,17.99l-16.82,-9.114l-2.808,17.928l-17.656,-10.257l-4.224,18.477l-16.788,-12.115l-4.535,18.104l-16.285,-13.489l-6.626,18.284l-15.064,-15.079l-8.309,17.651l-11.788,-16.386l-10.674,17.62l-11.891,-17.62l-11.111,17.608l0,31.456c113.511,8.763 240.495,-46.405 311.663,-142.74l-0.002,-0l0.001,-0Z" style="fill:#aeaeae;"/><path d="M2204.47,87.724c0.12,0.333 0.122,0.753 -0.162,1.138c-71.412,96.664 -198.83,152.021 -312.73,143.226c-0.63,-0.048 -1.117,-0.574 -1.117,-1.207l-0,-31.455c-0,-0.229 0.065,-0.453 0.187,-0.646l11.11,-17.609c0.218,-0.345 0.597,-0.558 1.005,-0.564c0.41,-0.006 0.794,0.194 1.022,0.533l10.833,16.051l9.694,-16.001c0.21,-0.347 0.581,-0.566 0.987,-0.582c0.407,-0.016 0.794,0.173 1.031,0.502l10.587,14.717l7.432,-15.79c0.168,-0.357 0.5,-0.61 0.888,-0.677c0.389,-0.068 0.786,0.058 1.064,0.337l13.718,13.732l5.977,-16.494c0.135,-0.37 0.441,-0.652 0.821,-0.755c0.38,-0.104 0.787,-0.016 1.09,0.235l14.805,12.264l4.068,-16.241c0.098,-0.389 0.382,-0.705 0.76,-0.843c0.377,-0.137 0.797,-0.079 1.123,0.156l15.307,11.046l3.816,-16.696c0.086,-0.375 0.345,-0.687 0.698,-0.841c0.353,-0.153 0.758,-0.129 1.09,0.064l16.126,9.368l2.535,-16.18c0.061,-0.388 0.307,-0.723 0.659,-0.897c0.353,-0.175 0.768,-0.167 1.114,0.02l15.288,8.284l2.303,-16.265c0.054,-0.379 0.284,-0.711 0.621,-0.894c0.337,-0.183 0.74,-0.195 1.088,-0.034l15.44,7.177l1.252,-15.911c0.03,-0.377 0.233,-0.718 0.55,-0.923c0.317,-0.204 0.712,-0.249 1.067,-0.121l15.697,5.653l1.233,-15.793c0.028,-0.355 0.21,-0.68 0.499,-0.889c0.289,-0.208 0.655,-0.278 1.001,-0.192l17.001,4.241l1.57,-17.014c0.032,-0.348 0.214,-0.666 0.498,-0.87c0.284,-0.205 0.642,-0.277 0.983,-0.197l15.39,3.598l1.102,-15.872c0.023,-0.337 0.186,-0.649 0.45,-0.861c0.263,-0.211 0.603,-0.303 0.937,-0.253l15.252,2.287l-0.291,-14.568c-0.007,-0.35 0.138,-0.686 0.396,-0.921c0.259,-0.235 0.607,-0.347 0.954,-0.306l14.654,1.703l-0.252,-14.632c-0.006,-0.343 0.134,-0.672 0.385,-0.906c0.251,-0.234 0.59,-0.351 0.931,-0.321l14.018,1.229l-0.707,-13.825c-0.018,-0.354 0.12,-0.698 0.377,-0.941c0.257,-0.244 0.608,-0.363 0.96,-0.325l13.226,1.411l1.775,-17.166c0.058,-0.56 0.495,-1.007 1.054,-1.077c0.559,-0.07 1.092,0.255 1.287,0.784l16.473,44.799Zm-2.498,0.223l-14.444,-39.283l-1.363,13.178c-0.033,0.32 -0.192,0.613 -0.442,0.816c-0.25,0.203 -0.571,0.297 -0.891,0.263l-13.023,-1.39l0.706,13.799c0.018,0.35 -0.117,0.691 -0.369,0.934c-0.252,0.243 -0.597,0.365 -0.946,0.334l-14.064,-1.233l0.253,14.67c0.006,0.35 -0.139,0.684 -0.398,0.918c-0.258,0.235 -0.606,0.346 -0.952,0.306l-14.651,-1.703l0.292,14.616c0.007,0.357 -0.143,0.698 -0.411,0.934c-0.268,0.235 -0.627,0.341 -0.979,0.288l-15.374,-2.306l-1.109,15.984c-0.025,0.354 -0.203,0.68 -0.489,0.89c-0.286,0.211 -0.649,0.286 -0.995,0.205l-15.421,-3.606l-1.572,17.034c-0.032,0.352 -0.217,0.672 -0.505,0.876c-0.288,0.204 -0.651,0.273 -0.993,0.187l-16.982,-4.235l-1.245,15.949c-0.03,0.377 -0.233,0.718 -0.55,0.923c-0.318,0.205 -0.712,0.25 -1.068,0.122l-15.697,-5.654l-1.264,16.068c-0.032,0.396 -0.255,0.751 -0.597,0.951c-0.343,0.2 -0.761,0.22 -1.121,0.052l-15.54,-7.224l-2.318,16.374c-0.056,0.392 -0.3,0.732 -0.654,0.911c-0.354,0.178 -0.773,0.172 -1.122,-0.017l-15.312,-8.297l-2.543,16.234c-0.061,0.395 -0.314,0.734 -0.675,0.906c-0.361,0.172 -0.783,0.154 -1.129,-0.046l-16.234,-9.431l-3.857,16.874c-0.091,0.396 -0.374,0.72 -0.754,0.863c-0.38,0.143 -0.806,0.086 -1.135,-0.151l-15.34,-11.07l-4.101,16.371c-0.101,0.404 -0.402,0.727 -0.797,0.857c-0.395,0.129 -0.829,0.046 -1.149,-0.219l-14.961,-12.391l-6.039,16.667c-0.142,0.389 -0.472,0.679 -0.876,0.769c-0.404,0.09 -0.826,-0.033 -1.119,-0.326l-13.846,-13.86l-7.575,16.092c-0.183,0.388 -0.558,0.65 -0.984,0.69c-0.428,0.039 -0.844,-0.151 -1.094,-0.499l-10.719,-14.899l-9.726,16.053c-0.214,0.353 -0.593,0.573 -1.006,0.583c-0.412,0.01 -0.802,-0.191 -1.033,-0.533l-10.853,-16.082l-9.934,15.743l-0,29.983c112.63,8.271 238.328,-46.446 309.091,-141.812l-0.002,-0Z" style="fill:#939393;"/></g><g id="sombra-arriba4" serif:id="sombra arriba"><path d="M2201.01,83.964c-89.129,103.903 -190.365,146.456 -307.99,141.156l0,5.715c112.302,7.279 238.209,-44.55 309.535,-142.386l-1.543,-4.485l-0.002,-0Z" style="fill:#939393;"/><path d="M2201.01,83.964c-89.129,103.903 -190.365,146.456 -307.99,141.156l0,5.715c112.302,7.279 238.209,-44.55 309.535,-142.386l-1.543,-4.485l-0.002,-0Zm-6.226,10.774c-87.084,97.151 -185.589,137.381 -299.342,132.908l0,0.912c107.961,6.22 228.122,-42.292 299.342,-133.82Z" style="fill:#939393;"/></g><g id="lineas-arriba4" serif:id="lineas arriba"><g><path d="M2199.49,77.321c-82.099,94.7 -184.51,152.245 -306.514,142.122" style="fill:none;stroke:#939393;stroke-width:2.42px;"/></g><g><path d="M2195.94,68.3c-54.831,71.772 -170.765,156.021 -302.924,144.081" style="fill:none;stroke:#939393;stroke-width:2.42px;"/></g></g><g><g id="shadows-arriba4" serif:id="shadows arriba"><path d="M1896.31,206.954l0,-5.544l3.139,-5.186l9.929,6.854l8.301,-0l3.657,-6.854l8.483,6.854l9.261,-0l4.439,-8.087l8.359,7.232l11.519,-1.817l2.913,-8.827l9.008,5.934l10.757,-3.642l2.08,-8.317l11.539,5.424l8.274,-2.678l1.983,-8.974l10.184,4.654l10.106,-3.943l1.342,-8.892l8.072,4.573l10.019,-4.699l0.878,-8.018l9.39,2.594l9.098,-4.498l0.648,-9.364l10.169,2.705l8.221,-5.226l0.717,-8.967l9.605,2.478l9.637,-6.435l0.77,-9.315l9.42,2.396l7.576,-5.373l0.589,-9.511l8.052,1.62l9.2,-7.557l0.71,-8.922l7.911,0.736l7.633,-6.605l-0.087,-9.18l8.723,1.562l6.432,-6.966l-0.083,-10.873l8.412,3.33l4.036,-6.207l1.2,-6.721l1.835,8.605c-76.564,98.334 -208.542,154.113 -294.058,139.646l0.002,-0l-0.001,-0l0.001,0.001Z" style="fill:#9d9d9d;"/></g></g><g id="ligth-arriba4" serif:id="ligth arriba"><g><path d="M2174.95,64.126c2.102,1.229 10.771,-0.208 10.771,-0.208l-13.045,-1.637c0,-0 0.719,0.936 2.274,1.845Zm-122.574,91.496c1.436,1.994 11.624,3.817 11.624,3.817l-13.323,-6.455c0,-0 0.646,1.175 1.699,2.638Zm-19.514,9.575c0.963,1.859 11.075,4.232 11.075,4.232l-12.346,-7.118c0,-0 0.443,1.286 1.271,2.886Zm-105.607,26.731c1.165,2.387 7.435,7.015 7.435,7.015l-8.542,-12.404c0,-0 0.317,3.769 1.107,5.389Zm-22.241,1.197c1.165,2.387 6.693,6.447 6.693,6.447l-8.221,-13.033c0,-0 0.737,4.966 1.528,6.586Zm42.412,-4.399c1.166,2.387 10.357,8.152 10.357,8.152l-11.495,-12.404c0,-0 0.348,2.632 1.138,4.252Zm22.238,-3.913c1.198,2.371 11.454,7.21 11.454,7.21l-12.747,-10.781c0,-0 0.48,1.963 1.293,3.571Zm101.423,-39.23c1.558,1.837 12.009,2.603 12.009,2.603l-13.676,-5.004c0,-0 0.501,1.027 1.667,2.401Zm38.655,-25.777c1.995,2.011 11.731,1.431 11.731,1.431l-13.533,-3.511c0,-0 0.531,0.801 1.802,2.08Zm35.307,-27.044c1.873,0.968 11.577,-0.335 11.577,-0.335l-14.106,-1.738c0,-0 0.928,1.246 2.529,2.073Zm-16.581,13.49c1.954,1.596 11.556,0.418 11.556,0.418l-13.968,-2.393c0,-0 1.014,0.836 2.412,1.975Zm32.404,-28.071c2.217,1.081 11.003,-0.386 11.003,-0.386l-13.707,-1.58c0,-0 1.086,1.175 2.704,1.966Zm-148.85,94.79c1.327,2.301 12.56,5.321 12.56,5.321l-14.139,-8.705c-0,-0 0.679,1.823 1.579,3.384Zm77.84,-39.299c1.927,1.958 12.654,1.9 12.654,1.9l-14.535,-3.881c-0,-0 0.616,0.698 1.881,1.981Zm-98.824,46.44c1.399,2.258 11.504,6.053 11.504,6.053l-13.085,-9.646c-0,-0 0.632,2.061 1.581,3.593Z" style="fill:#fff;"/></g><g><path d="M2197.59,83.284c0.308,0.523 0.69,1.69 0.832,2.278c0.139,0.567 -0.573,1.708 -0.573,1.708c0,-0 2.341,-2.337 2.202,-2.905c-0.192,-0.793 -0.75,-2.684 -1.167,-3.389c-0.297,-0.504 -2.739,2.323 -2.739,2.323c0,-0 1.149,-0.519 1.445,-0.015Zm-3.243,-8.747c0.215,0.357 1.115,3.082 1.212,3.487c0.136,0.569 -0.944,2.229 -0.944,2.229c-0,-0 2.852,-2.578 2.716,-3.146c-0.148,-0.619 -1.418,-4.45 -1.747,-4.994c-0.303,-0.5 -3.315,3.359 -3.315,3.359c-0,-0 1.775,-1.435 2.078,-0.935Zm-6.577,-24.728c-0,-0 3.327,16.457 3.449,16.969c0.107,0.463 0.122,1.497 -0.218,2.439c-0.178,0.487 -1.557,4.59 -1.557,4.59c-0,-0 2.725,-3.768 3.071,-4.229c0.798,-1.064 0.996,-1.793 0.86,-2.78c-0.1,-0.732 -0.401,-1.489 -0.634,-2.203c-0.934,-2.873 -1.72,-4.955 -2.63,-7.836c-0.35,-1.115 -2.341,-6.95 -2.341,-6.95Z" style="fill:#fff;"/></g><g><path d="M2195.67,84.885c-83.543,105.075 -205.328,148.26 -299.762,136.517c121.127,9.966 221.515,-48.26 299.762,-136.517Z" style="fill:#cecece;"/></g><g><path d="M2191.78,76.457c-66.474,95.546 -209.208,153.166 -295.886,138.252c130.452,10.391 244.407,-70.38 295.886,-138.252Z" style="fill:#cecece;"/></g></g><g id="brillo-arriba4" serif:id="brillo arriba"><path d="M1946.52,231.52l-11.761,-38.668l2.14,2.974l7.432,-15.79c0.168,-0.356 0.499,-0.609 0.888,-0.677c0.388,-0.067 0.785,0.059 1.064,0.337l2.602,2.605l14.394,47.223c-5.587,0.803 -11.176,1.469 -16.759,1.996Zm78.265,-16.376l-16.827,-49.47c0.126,-0.18 0.301,-0.324 0.508,-0.414c0.352,-0.153 0.757,-0.129 1.09,0.064l16.126,9.368l2.535,-16.18c0.061,-0.388 0.306,-0.723 0.659,-0.898c0.352,-0.174 0.767,-0.166 1.113,0.021l15.289,8.284l2.302,-16.265c0.054,-0.379 0.285,-0.711 0.621,-0.894c0.337,-0.183 0.741,-0.196 1.089,-0.034l15.439,7.177l1.252,-15.912c0.03,-0.376 0.233,-0.717 0.551,-0.922c0.317,-0.205 0.711,-0.25 1.067,-0.122l15.696,5.654l1.233,-15.794c0.028,-0.355 0.211,-0.679 0.5,-0.888c0.289,-0.208 0.655,-0.278 1,-0.192l17.002,4.24l1.57,-17.013c0.032,-0.348 0.214,-0.666 0.497,-0.87c0.284,-0.205 0.643,-0.277 0.984,-0.197l15.39,3.598l1.101,-15.873c0.024,-0.336 0.187,-0.648 0.45,-0.86c0.264,-0.211 0.603,-0.303 0.938,-0.253l6.855,1.028l27.871,37.187c-9.217,8.235 -18.885,15.991 -28.93,23.244c-23.43,16.743 -47.463,29.617 -67.106,38.605c-12.389,5.539 -25.044,10.41 -37.865,14.581Zm155.885,-97.918l-25.748,-28.715l-0.249,-14.449c-0.006,-0.343 0.134,-0.672 0.385,-0.906c0.251,-0.234 0.589,-0.351 0.931,-0.321l14.018,1.229l-0.707,-13.825c-0.018,-0.354 0.119,-0.698 0.377,-0.942c0.049,-0.046 0.101,-0.088 0.156,-0.125l29.167,36.643c-0.768,0.982 -1.543,1.959 -2.323,2.931c-2.515,3.118 -5.56,6.774 -8.677,10.365c-2.397,2.745 -4.841,5.45 -7.33,8.115Z" style="fill:#d0d0d0;fill-opacity:0.25;"/></g></g></g><g id="_8" serif:id="8"><g id="package7" serif:id="package"><g id="arriba-base5" serif:id="arriba base"><path d="M2518.29,50.46l-21.86,-44.734l-0.017,19.269l-15.141,-0.062l2.427,15.705l-16.128,0.237l1.991,16.589l-16.831,-0.227l2.035,16.571l-17.565,-0.82l0.595,18.071l-17.824,-2.285l0.196,19.292l-19.549,-2.8l0.441,18.175l-18.497,-4.596l0.437,18.463l-18.504,-6.399l-0.728,18.938l-18.424,-7.668l-1.006,18.902l-19.413,-8.764l-2.416,19.622l-18.71,-10.785l-2.78,19.268l-18.333,-12.264l-4.93,19.678l-17.236,-14.045l-6.743,19.201l-13.977,-15.75l-9.201,19.419l-14.214,-17.018l-9.655,19.454l3.347,32.64c118.718,-2.984 244.614,-73.741 308.213,-181.277l-0.001,-0l0.001,-0Z" style="fill:#aeaeae;"/><path d="M2519.41,49.906c0.157,0.358 0.199,0.782 -0.046,1.197c-63.816,107.904 -190.143,178.902 -309.27,181.897c-0.66,0.016 -1.221,-0.478 -1.288,-1.134l-3.347,-32.64c-0.024,-0.237 0.019,-0.477 0.125,-0.691l9.656,-19.454c0.189,-0.381 0.559,-0.642 0.983,-0.692c0.423,-0.05 0.843,0.117 1.117,0.445l12.949,15.503l8.356,-17.636c0.181,-0.383 0.543,-0.649 0.963,-0.709c0.419,-0.06 0.841,0.095 1.122,0.412l12.552,14.144l6.032,-17.175c0.136,-0.389 0.453,-0.686 0.849,-0.798c0.396,-0.111 0.822,-0.023 1.14,0.237l15.696,12.79l4.448,-17.751c0.099,-0.399 0.387,-0.724 0.77,-0.871c0.384,-0.148 0.815,-0.1 1.156,0.129l16.668,11.149l2.494,-17.285c0.06,-0.414 0.321,-0.772 0.698,-0.956c0.377,-0.183 0.82,-0.167 1.182,0.042l17.059,9.834l2.184,-17.731c0.049,-0.398 0.284,-0.75 0.634,-0.946c0.35,-0.197 0.773,-0.216 1.138,-0.051l17.731,8.005l0.908,-17.058c0.022,-0.41 0.241,-0.783 0.589,-1.002c0.347,-0.218 0.778,-0.255 1.157,-0.097l16.746,6.97l0.659,-17.123c0.016,-0.399 0.219,-0.768 0.549,-0.994c0.33,-0.226 0.748,-0.282 1.126,-0.151l16.785,5.805l-0.394,-16.645c-0.01,-0.393 0.165,-0.769 0.473,-1.015c0.307,-0.246 0.712,-0.335 1.094,-0.24l16.89,4.196l-0.401,-16.52c-0.009,-0.371 0.146,-0.728 0.423,-0.974c0.278,-0.247 0.65,-0.359 1.018,-0.306l18.093,2.591l-0.181,-17.821c-0.004,-0.365 0.151,-0.714 0.424,-0.956c0.272,-0.243 0.637,-0.356 0.999,-0.309l16.353,2.096l-0.546,-16.587c-0.012,-0.353 0.125,-0.694 0.375,-0.941c0.251,-0.247 0.594,-0.379 0.946,-0.362l16.07,0.75l-1.852,-15.086c-0.045,-0.362 0.069,-0.726 0.313,-0.997c0.243,-0.272 0.592,-0.425 0.957,-0.42l15.388,0.208l-1.819,-15.156c-0.042,-0.356 0.068,-0.712 0.303,-0.982c0.236,-0.269 0.575,-0.426 0.933,-0.431l14.676,-0.216l-2.205,-14.272c-0.056,-0.365 0.05,-0.736 0.291,-1.016c0.241,-0.28 0.593,-0.441 0.962,-0.439l13.874,0.057l0.015,-18.002c0.001,-0.587 0.406,-1.097 0.979,-1.229c0.573,-0.133 1.161,0.148 1.419,0.676l21.86,44.734l0,-0.001l0,0.001Zm-2.567,0.496l-19.168,-39.225l-0.012,13.819c-0,0.336 -0.134,0.658 -0.372,0.894c-0.238,0.237 -0.56,0.369 -0.896,0.368l-13.662,-0.056l2.201,14.243c0.055,0.361 -0.048,0.729 -0.284,1.008c-0.235,0.279 -0.58,0.442 -0.946,0.447l-14.725,0.217l1.823,15.197c0.044,0.361 -0.071,0.724 -0.315,0.994c-0.243,0.271 -0.592,0.424 -0.956,0.419l-15.383,-0.208l1.858,15.135c0.045,0.369 -0.074,0.74 -0.327,1.013c-0.253,0.272 -0.614,0.42 -0.985,0.403l-16.199,-0.757l0.55,16.704c0.012,0.37 -0.139,0.727 -0.412,0.976c-0.274,0.249 -0.644,0.365 -1.011,0.318l-16.386,-2.1l0.182,17.842c0.003,0.368 -0.154,0.72 -0.431,0.963c-0.277,0.242 -0.647,0.352 -1.011,0.3l-18.072,-2.588l0.405,16.683c0.009,0.393 -0.165,0.769 -0.473,1.015c-0.307,0.247 -0.712,0.336 -1.094,0.241l-16.891,-4.197l0.398,16.808c0.01,0.413 -0.184,0.805 -0.518,1.049c-0.334,0.245 -0.766,0.309 -1.157,0.174l-16.894,-5.842l-0.663,17.236c-0.017,0.413 -0.234,0.793 -0.582,1.015c-0.348,0.223 -0.784,0.261 -1.166,0.102l-16.772,-6.98l-0.911,17.116c-0.022,0.417 -0.249,0.795 -0.605,1.012c-0.356,0.217 -0.796,0.244 -1.176,0.072l-17.849,-8.059l-2.207,17.92c-0.052,0.421 -0.311,0.787 -0.69,0.976c-0.379,0.189 -0.827,0.176 -1.194,-0.036l-17.095,-9.855l-2.514,17.425c-0.062,0.429 -0.34,0.796 -0.736,0.973c-0.397,0.176 -0.856,0.137 -1.216,-0.104l-16.842,-11.267l-4.494,17.937c-0.106,0.419 -0.417,0.756 -0.827,0.892c-0.41,0.136 -0.861,0.054 -1.196,-0.22l-15.842,-12.909l-6.149,17.505c-0.148,0.422 -0.508,0.734 -0.947,0.821c-0.44,0.086 -0.891,-0.067 -1.188,-0.401l-12.709,-14.321l-8.383,17.692c-0.185,0.389 -0.555,0.658 -0.981,0.713c-0.428,0.054 -0.853,-0.113 -1.129,-0.444l-12.974,-15.533l-8.633,17.395l3.19,31.111c117.754,-3.401 242.36,-73.554 305.643,-180.04l-0.002,-0l0.001,-0l0.001,-0.001Z" style="fill:#939393;"/></g><g id="sombra-arriba5" serif:id="sombra arriba"><path d="M2515.4,46.373c-81.431,117.301 -181.95,172.229 -304.573,179.245l0.607,5.93c117.306,-4.395 242.442,-71.574 306.044,-180.685l-2.078,-4.489l0,-0.001Z" style="fill:#939393;"/><path d="M2515.4,46.373c-81.431,117.301 -181.95,172.229 -304.573,179.245l0.607,5.93c117.306,-4.395 242.442,-71.574 306.044,-180.685l-2.078,-4.489l0,-0.001Zm-5.315,11.843c-80.027,110.076 -177.962,162.303 -296.477,169.765l0.097,0.946c112.689,-5.032 232.212,-68.156 296.378,-170.71l0.003,-0l-0.001,-0.001Z" style="fill:#939393;"/></g><g id="lineas-arriba5" serif:id="lineas arriba"><g><path d="M2513.16,39.638c-75.116,107.003 -175.263,177.611 -302.94,180.088" style="fill:none;stroke:#939393;stroke-width:2.53px;"/></g><g><path d="M2508.47,30.66c-49.26,80.309 -160.597,180.066 -299.003,181.739" style="fill:none;stroke:#939393;stroke-width:2.53px;"/></g></g><g><g id="shadows-arriba5" serif:id="shadows arriba"><path d="M2212.33,206.416l-0.59,-5.752l2.706,-5.716l11.032,6.056l8.614,-0.884l3.066,-7.5l9.532,6.209l9.609,-0.986l3.746,-8.863l9.444,6.614l11.758,-3.11l2.084,-9.469l9.979,5.198l10.774,-4.923l1.274,-8.852l12.551,4.4l8.3,-3.658l1.103,-9.523l11.063,3.745l10.067,-5.166l0.446,-9.37l8.863,3.886l9.897,-5.942l0.058,-8.413l10.019,1.692l8.962,-5.635l-0.324,-9.785l10.84,1.724l7.975,-6.297l-0.21,-9.382l10.23,1.55l9.316,-7.703l-0.192,-9.747l10.028,1.484l7.29,-6.382l-0.4,-9.932l8.528,0.825l8.743,-8.821l-0.214,-9.334l8.288,-0.078l7.217,-7.665l-1.066,-9.517l9.217,0.692l5.934,-7.912l-1.244,-11.274l9.083,2.56l3.528,-6.87l0.53,-7.101l2.819,8.733c-68.985,110.184 -200,182.106 -290.272,176.194l-0.001,-0Z" style="fill:#9d9d9d;"/></g></g><g id="ligth-arriba5" serif:id="ligth arriba"><g><path d="M2486.27,28.56c2.311,1.051 11.154,-1.362 11.154,-1.362l-13.711,-0.311c0,-0 0.846,0.894 2.557,1.673Zm-117.456,107.983c1.701,1.917 12.468,2.725 12.468,2.725l-14.512,-5.281c0,-0 0.795,1.151 2.044,2.556Zm-19.23,12.012c1.197,1.827 11.943,3.214 11.943,3.214l-13.569,-6.073c0,-0 0.596,1.287 1.626,2.859Zm-106.74,38.975c1.463,2.353 8.461,6.488 8.461,6.488l-10.185,-11.962c0,-0 0.731,3.877 1.724,5.474Zm-22.952,3.609c1.462,2.352 7.631,5.977 7.631,5.977l-9.917,-12.649c0,-0 1.293,5.075 2.286,6.672Zm43.541,-9.078c1.463,2.352 11.614,7.357 11.614,7.357l-13.247,-11.648c0,-0 0.641,2.694 1.633,4.291Zm22.659,-6.426c1.496,2.332 12.653,6.262 12.653,6.262l-14.374,-9.831c0,-0 0.707,1.986 1.721,3.569Zm101.07,-51.499c1.812,1.74 12.738,1.422 12.738,1.422l-14.724,-3.737c0,-0 0.629,1.013 1.986,2.315Zm37.367,-30.861c2.285,1.874 12.326,0.237 12.326,0.237l-14.417,-2.204c0,-0 0.637,0.775 2.091,1.967Zm33.76,-31.819c2.046,0.805 11.977,-1.58 11.977,-1.58l-14.822,-0.303c0,-0 1.095,1.195 2.845,1.883Zm-15.77,15.762c2.197,1.447 12.036,-0.796 12.036,-0.796l-14.749,-0.997c0,-0 1.141,0.76 2.713,1.793Zm30.638,-32.577c2.415,0.886 11.376,-1.57 11.376,-1.57l-14.391,-0.181c0,-0 1.251,1.104 3.015,1.751Zm-144.371,114.199c1.622,2.246 13.6,4.185 13.6,4.185l-15.599,-7.529c0,-0 0.898,1.819 1.999,3.344Zm76.59,-49.061c2.208,1.826 13.333,0.624 13.333,0.624l-15.495,-2.48c0,-0 0.712,0.658 2.162,1.856Zm-97.605,58.703c1.692,2.195 12.581,5.057 12.581,5.057l-14.604,-8.617c0,-0 0.875,2.072 2.023,3.56Z" style="fill:#fff;"/></g><g><path d="M2511.82,46.029c0.375,0.51 0.896,1.68 1.106,2.275c0.204,0.574 -0.414,1.833 -0.414,1.833c0,-0 2.181,-2.673 1.977,-3.248c-0.284,-0.803 -1.064,-2.706 -1.572,-3.393c-0.361,-0.491 -2.595,2.703 -2.595,2.703c0,-0 1.137,-0.661 1.498,-0.17Zm-4.296,-8.732c0.262,0.348 1.485,3.08 1.629,3.49c0.202,0.576 -0.742,2.414 -0.742,2.414c0,-0 2.684,-2.979 2.483,-3.555c-0.219,-0.626 -1.945,-4.466 -2.344,-4.996c-0.368,-0.486 -3.083,3.839 -3.083,3.839c0,-0 1.689,-1.678 2.057,-1.192Zm-9.456,-24.959c0,-0 5.203,16.722 5.385,17.241c0.16,0.47 0.285,1.54 0.033,2.554c-0.132,0.525 -1.128,4.929 -1.128,4.929c0,-0 2.428,-4.2 2.737,-4.716c0.716,-1.188 0.844,-1.966 0.598,-2.976c-0.183,-0.749 -0.576,-1.502 -0.893,-2.218c-1.275,-2.882 -2.312,-4.959 -3.563,-7.851c-0.482,-1.121 -3.169,-6.963 -3.169,-6.963Z" style="fill:#fff;"/></g><g><path d="M2509.97,47.897c-75.51,117.922 -197.289,175.692 -296.53,173.554c126.749,-2.547 224.722,-73.647 296.53,-173.554Z" style="fill:#cecece;"/></g><g><path d="M2505.06,39.564c-58.811,106.219 -200.792,181.196 -292.323,174.943c136.47,-3.098 246.123,-99.036 292.323,-174.943Z" style="fill:#cecece;"/></g></g><g id="brillo-arriba5" serif:id="brillo arriba"><path d="M2274.78,224.943l-8.019,0.823l-15.974,-38.052l2.514,2.833l6.033,-17.175c0.068,-0.195 0.182,-0.367 0.329,-0.505l24.532,49.857c-3.134,0.783 -6.273,1.523 -9.415,2.219Zm71.784,-23.706l-22.728,-49.551c0.112,-0.195 0.275,-0.358 0.476,-0.471c0.35,-0.197 0.772,-0.216 1.138,-0.05l17.73,8.005l0.909,-17.059c0.022,-0.41 0.241,-0.783 0.588,-1.002c0.347,-0.218 0.779,-0.254 1.158,-0.097l16.746,6.97l0.658,-17.123c0.016,-0.399 0.22,-0.768 0.55,-0.993c0.33,-0.226 0.747,-0.282 1.125,-0.152l16.785,5.805l-0.394,-16.645c-0.009,-0.393 0.166,-0.769 0.473,-1.015c0.308,-0.246 0.712,-0.335 1.094,-0.24l16.89,4.197l-0.401,-16.52c-0.009,-0.372 0.146,-0.728 0.424,-0.975c0.277,-0.247 0.65,-0.358 1.018,-0.306l18.093,2.591l-0.182,-17.82c-0.003,-0.365 0.151,-0.714 0.424,-0.957c0.273,-0.243 0.637,-0.355 1,-0.309l16.352,2.097l-0.545,-16.588c-0.012,-0.352 0.124,-0.693 0.375,-0.94c0.251,-0.248 0.594,-0.379 0.946,-0.363l7.236,0.338l32.871,35.615c-8.981,9.848 -18.517,19.216 -28.525,28.068c-22.045,19.3 -45.009,34.82 -64.058,46.05c-12.419,7.177 -25.196,13.672 -38.226,19.44Zm151.334,-118.194l-29.781,-27.063l-1.794,-14.955c-0.042,-0.355 0.068,-0.712 0.303,-0.981c0.236,-0.27 0.575,-0.427 0.933,-0.432l14.676,-0.216l-2.205,-14.271c-0.057,-0.365 0.05,-0.737 0.291,-1.017c0.048,-0.056 0.1,-0.107 0.156,-0.152l34.162,34.919c-1.287,2.044 -2.597,4.074 -3.928,6.091c-1.309,1.972 -2.724,4.067 -4.186,6.185c-2.789,4.024 -5.666,7.988 -8.627,11.892Z" style="fill:#d0d0d0;fill-opacity:0.25;"/></g></g></g></svg>