<?xml version="1.0" encoding="UTF-8" standalone="no"?>
<svg
   width="100%"
   height="100%"
   viewBox="0 0 3627 6000"
   version="1.1"
   xml:space="preserve"
   style="fill-rule:evenodd;clip-rule:evenodd;stroke-linejoin:round;stroke-miterlimit:2;"
   id="svg79"
   sodipodi:docname="Mini_store.svg"
   inkscape:version="1.3.2 (091e20e, 2023-11-25, custom)"
   xmlns:inkscape="http://www.inkscape.org/namespaces/inkscape"
   xmlns:sodipodi="http://sodipodi.sourceforge.net/DTD/sodipodi-0.dtd"
   xmlns="http://www.w3.org/2000/svg"
   xmlns:svg="http://www.w3.org/2000/svg"
   xmlns:serif="http://www.serif.com/"><defs
   id="defs79" /><sodipodi:namedview
   id="namedview79"
   pagecolor="#ffffff"
   bordercolor="#000000"
   borderopacity="0.25"
   inkscape:showpageshadow="2"
   inkscape:pageopacity="0.0"
   inkscape:pagecheckerboard="0"
   inkscape:deskcolor="#d1d1d1"
   inkscape:zoom="0.096755778"
   inkscape:cx="-614.95036"
   inkscape:cy="3663.8639"
   inkscape:window-width="1920"
   inkscape:window-height="1017"
   inkscape:window-x="-8"
   inkscape:window-y="-8"
   inkscape:window-maximized="1"
   inkscape:current-layer="mini-store" />
    <g
   id="mini-store"
   serif:id="mini store"
   transform="matrix(1.149,0,0,1.149,-484.875,-388.533)">
        <g
   id="base"
   transform="matrix(1,0,0,1,47.7234,0)">
            <g
   transform="matrix(1.00443,0,0,1.0243,-15.6249,-125.312)"
   id="g1">
                <path
   d="M3530.28,5208.62C3530.28,5180 3506.58,5156.76 3477.4,5156.76L441.063,5156.76C411.876,5156.76 388.179,5180 388.179,5208.62L388.179,5498.64C388.179,5527.26 411.876,5550.49 441.063,5550.49L3477.4,5550.49C3506.58,5550.49 3530.28,5527.26 3530.28,5498.64L3530.28,5208.62Z"
   style="fill:rgb(73,48,1);"
   id="path1" />
            </g>
            <g
   transform="matrix(1.00443,0,0,0.549323,-15.6249,2324.03)"
   id="g2">
                <path
   d="M3530.28,5208.62C3530.28,5180 3517.57,5156.76 3501.92,5156.76L416.54,5156.76C400.887,5156.76 388.179,5180 388.179,5208.62L388.179,5498.64C388.179,5527.26 400.887,5550.49 416.54,5550.49L3501.92,5550.49C3517.57,5550.49 3530.28,5527.26 3530.28,5498.64L3530.28,5208.62Z"
   style="fill:rgb(132,90,4);"
   id="path2" />
            </g>
        </g>
        <g
   id="wall"
   transform="matrix(1,0,0,1,47.7234,0)">
            <path
   id="wall1"
   serif:id="wall"
   d="M808.049,4352.06L808.049,2076.59L463.001,2076.59L463.001,5252C463.001,5268.38 476.302,5281.68 492.686,5281.68L3401.76,5281.68C3418.14,5281.68 3431.44,5268.38 3431.44,5252L3431.44,4352.06L808.049,4352.06Z"
   style="fill:#000070;fill-opacity:1" />
            <path
   id="wall-shadow"
   serif:id="wall shadow"
   d="M3431.44,4508.48L902.273,4508.48L902.273,4766.98C902.273,4801.54 930.333,4829.6 964.895,4829.6L3431.44,4829.6L3431.44,4508.48ZM808.049,2390.23L808.049,2076.59L463.001,2076.59L463.001,2390.23L808.049,2390.23Z"
   style="fill:#000050;fill-opacity:1" />
        </g>
        <g
   id="table-top"
   serif:id="table top"
   transform="matrix(1,0,0,1,47.7234,0)">
            <g
   transform="matrix(0.866373,0,0,1.42196,471.74,-3368.31)"
   id="g3">
                <path
   d="M3530.28,5208.62C3530.28,5180 3492.14,5156.76 3445.17,5156.76L473.291,5156.76C426.317,5156.76 388.179,5180 388.179,5208.62L388.179,5498.64C388.179,5527.26 426.317,5550.49 473.291,5550.49L3445.17,5550.49C3492.14,5550.49 3530.28,5527.26 3530.28,5498.64L3530.28,5208.62Z"
   style="fill:rgb(73,48,1);"
   id="path3" />
            </g>
            <g
   transform="matrix(0.866373,0,0,0.946983,471.74,-918.966)"
   id="g4">
                <path
   d="M3530.28,5208.62C3530.28,5180 3504.88,5156.76 3473.6,5156.76L444.861,5156.76C413.578,5156.76 388.179,5180 388.179,5208.62L388.179,5498.64C388.179,5527.26 413.578,5550.49 444.861,5550.49L3473.6,5550.49C3504.88,5550.49 3530.28,5527.26 3530.28,5498.64L3530.28,5208.62Z"
   style="fill:rgb(132,90,4);"
   id="path4" />
            </g>
        </g>
        <g
   id="cash-register"
   serif:id="cash register"
   transform="matrix(1,0,0,1,-26.2381,0)">
            <g
   transform="matrix(1,0,0,1,26.2381,44.9684)"
   id="g5">
                <path
   d="M1023.47,4181.52C1023.06,4193.32 1029.69,4199.59 1044.63,4199.37L2004.99,4199.37C2012.23,4199.15 2016.18,4195.35 2015.54,4186.56L2015.37,4152.77C2015.37,4152.77 1996.61,4046.84 1951.94,4004.8L1708.39,3795.27L1708.39,3691.46C1708.39,3639.49 1666.2,3597.29 1614.22,3597.29L1117.64,3597.29C1065.67,3597.29 1023.47,3639.49 1023.47,3691.46L1023.47,4181.52Z"
   style="fill:rgb(96,55,14);"
   id="path5" />
            </g>
            <g
   transform="matrix(1,0,0,1,129.127,0)"
   id="g6">
                <path
   d="M1049.71,4199.37L1912.5,4199.37C1914.51,4112.82 1904.32,4056.81 1849.05,4004.8L1605.5,3795.27L1605.5,3691.46C1605.5,3639.49 1563.31,3597.29 1511.33,3597.29L1143.88,3597.29C1091.91,3597.29 1049.71,3639.49 1049.71,3691.46L1049.71,4199.37Z"
   style="fill:rgb(242,240,221);"
   id="path6" />
            </g>
            <rect
   x="1231.66"
   y="3527.38"
   width="79.023"
   height="97.018"
   style="fill:rgb(102,106,111);"
   id="rect6" />
            <g
   transform="matrix(1,0,0,0.375809,0,2201.76)"
   id="g7">
                <rect
   x="1231.66"
   y="3527.38"
   width="79.023"
   height="97.018"
   style="fill:rgb(63,63,63);"
   id="rect7" />
            </g>
            <path
   d="M1049.71,4199.37L1605.5,4199.37L1605.5,3691.46C1605.5,3639.49 1563.31,3597.29 1511.33,3597.29L1143.88,3597.29C1091.91,3597.29 1049.71,3639.49 1049.71,3691.46L1049.71,4199.37Z"
   style="fill:rgb(172,158,130);"
   id="path7" />
            <g
   transform="matrix(1,0,0,1,26.2381,0)"
   id="g8">
                <path
   d="M1035.41,3813.82L1564.23,3813.82L1564.23,3701.29C1564.23,3650.32 1524.08,3608.94 1474.63,3608.94L1125.01,3608.94C1075.56,3608.94 1035.41,3650.32 1035.41,3701.29L1035.41,3813.82Z"
   style="fill:rgb(137,122,93);"
   id="path8" />
            </g>
            <g
   transform="matrix(1,0,0,1,26.2381,0)"
   id="g9">
                <path
   d="M1511.82,3644.85C1518.1,3644.85 1523.2,3649.95 1523.2,3656.23C1523.2,3662.52 1518.1,3667.62 1511.82,3667.62C1505.53,3667.62 1500.43,3662.52 1500.43,3656.23C1500.43,3649.95 1505.53,3644.85 1511.82,3644.85ZM1080.88,3644.85C1087.17,3644.85 1092.27,3649.95 1092.27,3656.23C1092.27,3662.52 1087.17,3667.62 1080.88,3667.62C1074.6,3667.62 1069.5,3662.52 1069.5,3656.23C1069.5,3649.95 1074.6,3644.85 1080.88,3644.85Z"
   style="fill:rgb(63,57,48);"
   id="path9" />
            </g>
            <g
   transform="matrix(1,0,0,1.00541,0,-22.4676)"
   id="g10">
                <path
   d="M1538.06,4025.63C1538.06,4017.97 1531.8,4011.76 1524.1,4011.76L1117.4,4011.76C1109.7,4011.76 1103.45,4017.97 1103.45,4025.63L1103.45,4136.64C1103.45,4144.29 1109.7,4150.51 1117.4,4150.51L1524.1,4150.51C1531.8,4150.51 1538.06,4144.29 1538.06,4136.64L1538.06,4025.63Z"
   style="fill:rgb(150,132,110);"
   id="path10" />
            </g>
            <g
   transform="matrix(1,0,0,1,26.2381,0)"
   id="g11">
                <path
   d="M1099.89,4121.05C1104.1,4121.05 1107.52,4124.47 1107.52,4128.68C1107.52,4132.88 1104.1,4136.3 1099.89,4136.3C1095.69,4136.3 1092.27,4132.88 1092.27,4128.68C1092.27,4124.47 1095.69,4121.05 1099.89,4121.05ZM1489.4,4121.05C1493.61,4121.05 1497.02,4124.47 1497.02,4128.68C1497.02,4132.88 1493.61,4136.3 1489.4,4136.3C1485.19,4136.3 1481.78,4132.88 1481.78,4128.68C1481.78,4124.47 1485.19,4121.05 1489.4,4121.05ZM1099.94,4025.83C1104.13,4025.86 1107.52,4029.26 1107.52,4033.45C1107.52,4037.64 1104.13,4041.05 1099.94,4041.07L1099.89,4041.07C1095.69,4041.07 1092.27,4037.66 1092.27,4033.45C1092.27,4029.24 1095.69,4025.83 1099.89,4025.83L1099.94,4025.83ZM1489.45,4025.83C1493.63,4025.86 1497.02,4029.26 1497.02,4033.45C1497.02,4037.64 1493.63,4041.05 1489.45,4041.07L1489.4,4041.07C1485.19,4041.07 1481.78,4037.66 1481.78,4033.45C1481.78,4029.24 1485.19,4025.83 1489.4,4025.83L1489.45,4025.83Z"
   style="fill:rgb(63,57,48);"
   id="path11" />
            </g>
            <g
   transform="matrix(1,0,0,1.00541,0,-22.4676)"
   id="g12">
                <path
   d="M1538.06,4025.63C1538.06,4017.97 1531.8,4011.76 1524.1,4011.76L1117.4,4011.76C1109.7,4011.76 1103.45,4017.97 1103.45,4025.63L1103.45,4136.64C1103.45,4144.29 1109.7,4150.51 1117.4,4150.51L1524.1,4150.51C1531.8,4150.51 1538.06,4144.29 1538.06,4136.64L1538.06,4025.63ZM1529.72,4025.63L1529.72,4136.64C1529.72,4139.72 1527.2,4142.22 1524.1,4142.22L1117.4,4142.22C1114.3,4142.22 1111.79,4139.72 1111.79,4136.64L1111.79,4025.63C1111.79,4022.55 1114.3,4020.05 1117.4,4020.05C1117.4,4020.05 1524.1,4020.05 1524.1,4020.05C1527.2,4020.05 1529.72,4022.55 1529.72,4025.63Z"
   style="fill:rgb(122,100,71);"
   id="path12" />
            </g>
            <path
   d="M1477.62,3449.54C1477.62,3432.86 1464.08,3419.32 1447.4,3419.32L1133.67,3419.32C1117,3419.32 1103.45,3432.86 1103.45,3449.54L1103.45,3509.98C1103.45,3526.66 1117,3540.2 1133.67,3540.2L1447.4,3540.2C1464.08,3540.2 1477.62,3526.66 1477.62,3509.98L1477.62,3449.54Z"
   style="fill:rgb(242,240,221);"
   id="path13" />
            <g
   transform="matrix(0.869309,0,0,1,144.211,0)"
   id="g14">
                <path
   d="M1477.62,3449.54C1477.62,3432.86 1462.04,3419.32 1442.86,3419.32L1138.22,3419.32C1119.03,3419.32 1103.45,3432.86 1103.45,3449.54L1103.45,3509.98C1103.45,3526.66 1119.03,3540.2 1138.22,3540.2L1442.86,3540.2C1462.04,3540.2 1477.62,3526.66 1477.62,3509.98L1477.62,3449.54Z"
   style="fill:rgb(172,158,130);"
   id="path14" />
            </g>
            <g
   transform="matrix(1,0,0,1,26.2381,0)"
   id="g15">
                <path
   d="M1084.35,3479.76L1394.33,3479.76L1394.33,3455.27C1394.33,3439.65 1381.65,3426.96 1366.02,3426.96L1112.66,3426.96C1097.03,3426.96 1084.35,3439.65 1084.35,3455.27L1084.35,3479.76Z"
   style="fill:rgb(137,122,93);"
   id="path15" />
            </g>
        </g>
        <g
   id="beam"
   transform="matrix(1,0,0,1,47.7234,0)">
            <g
   id="beam1"
   serif:id="beam"
   transform="matrix(1.00537,0,0,1,-22.7209,0)">
                <path
   d="M3368.65,2057.24C3368.65,2036.88 3352.21,2020.35 3331.96,2020.35L3189.49,2020.35C3169.24,2020.35 3152.79,2036.88 3152.79,2057.24L3152.79,4174.46C3152.79,4194.82 3169.24,4211.35 3189.49,4211.35L3331.96,4211.35C3352.21,4211.35 3368.65,4194.82 3368.65,4174.46L3368.65,2057.24Z"
   style="fill:rgb(160,160,160);"
   id="path16" />
            </g>
            <path
   id="beam-shadow"
   serif:id="beam shadow"
   d="M3147,2390.23L3364.02,2390.23L3364.02,2057.24C3364.02,2036.88 3347.49,2020.35 3327.12,2020.35L3183.89,2020.35C3163.53,2020.35 3147,2036.88 3147,2057.24L3147,2390.23Z"
   style="fill:rgb(111,111,111);" />
        </g>
        <g
   id="lights"
   transform="matrix(1,0,0,1,47.7234,0)">
            <path
   d="M1974.11,2057.04C2242.1,2401.98 2817.12,2456.28 3107.85,2043.38C3111.83,2037.74 3110.47,2029.94 3104.83,2025.97C3099.19,2021.99 3091.38,2023.35 3087.41,2028.99C2803.44,2432.29 2238.27,2373.03 1984.19,2028.94C1983.79,2028.38 1983.33,2027.84 1982.83,2027.34L1982.81,2027.32L1982.79,2027.3L1982.76,2027.27L1982.75,2027.25C1981.87,2026.39 1980.89,2025.68 1979.83,2025.13C1977.97,2024.14 1975.94,2023.67 1973.93,2023.69C1971.91,2023.7 1969.89,2024.19 1968.04,2025.2C1966.99,2025.77 1966.02,2026.49 1965.15,2027.36L1965.13,2027.37L1965.11,2027.4L1965.08,2027.42L1965.07,2027.44C1964.57,2027.95 1964.12,2028.49 1963.72,2029.07C1715.92,2373.06 1126.86,2432.49 860.801,2029.3C857.001,2023.54 849.242,2021.95 843.483,2025.75C837.725,2029.55 836.135,2037.31 839.935,2043.07C1112.44,2456.04 1711.61,2401.96 1974.11,2057.04Z"
   id="path17" />
            <g
   id="bulb"
   transform="matrix(0.654961,-0.143266,0.143266,0.654961,288.342,896.293)">
                <path
   d="M1419.49,2599.09L1419.49,2541.62L1317.68,2541.62L1317.68,2599.09L1287.16,2599.09C1266.02,2599.09 1248.85,2616.26 1248.85,2637.41L1248.85,2800.24C1248.85,2821.39 1266.02,2838.55 1287.16,2838.55L1450,2838.55C1471.15,2838.55 1488.31,2821.39 1488.31,2800.24L1488.31,2637.41C1488.31,2616.26 1471.15,2599.09 1450,2599.09L1419.49,2599.09Z"
   style="fill:rgb(255,240,202);"
   id="path18" />
                <path
   d="M1419.49,2599.09L1419.49,2541.62L1317.68,2541.62L1317.68,2599.09L1287.16,2599.09C1266.02,2599.09 1248.85,2616.26 1248.85,2637.41L1248.85,2800.24C1248.85,2821.39 1266.02,2838.55 1287.16,2838.55L1450,2838.55C1471.15,2838.55 1488.31,2821.39 1488.31,2800.24L1488.31,2637.41C1488.31,2616.26 1471.15,2599.09 1450,2599.09L1419.49,2599.09ZM1402.82,2599.09C1402.82,2608.3 1410.28,2615.76 1419.49,2615.76L1450,2615.76C1461.95,2615.76 1471.65,2625.46 1471.65,2637.41C1471.65,2637.41 1471.65,2800.24 1471.65,2800.24C1471.65,2812.19 1461.95,2821.89 1450,2821.89L1287.16,2821.89C1275.22,2821.89 1265.52,2812.19 1265.52,2800.24C1265.52,2800.24 1265.52,2637.41 1265.52,2637.41C1265.52,2625.46 1275.22,2615.76 1287.16,2615.76L1317.68,2615.76C1326.88,2615.76 1334.35,2608.3 1334.35,2599.09L1334.35,2558.29C1334.35,2558.29 1402.82,2558.29 1402.82,2558.29C1402.82,2558.29 1402.82,2599.09 1402.82,2599.09Z"
   style="fill:rgb(255,226,153);"
   id="path19" />
                <path
   d="M1289.03,2638.33C1289.19,2638.31 1289.35,2638.3 1289.49,2638.3C1289.5,2638.3 1289.52,2638.3 1289.53,2638.3L1317.57,2638.3C1321.01,2638.3 1323.82,2635.5 1323.82,2632.05C1323.82,2628.6 1321.01,2625.8 1317.57,2625.8L1289.54,2625.8C1285.71,2625.78 1282.76,2626.88 1280.63,2628.68C1278.33,2630.64 1276.73,2633.52 1276.53,2637.72C1276.53,2637.82 1276.53,2637.92 1276.53,2638.02L1276.53,2661.15C1276.53,2664.6 1279.33,2667.4 1282.78,2667.4C1286.23,2667.4 1289.03,2664.6 1289.03,2661.15L1289.03,2638.33Z"
   style="fill:rgb(255,251,242);"
   id="path20" />
                <g
   transform="matrix(1,0,0,1,3.86298,5.40818)"
   id="g21">
                    <path
   d="M1439.14,2732.07L1439.14,2787.72C1439.14,2787.72 1330.78,2787.72 1330.78,2787.72C1326.18,2787.72 1322.44,2791.45 1322.44,2796.05C1322.44,2800.65 1326.18,2804.38 1330.78,2804.38L1447.47,2804.38C1452.07,2804.38 1455.81,2800.65 1455.81,2796.05L1455.81,2732.07C1455.81,2727.47 1452.07,2723.74 1447.47,2723.74C1442.87,2723.74 1439.14,2727.47 1439.14,2732.07Z"
   style="fill:rgb(255,251,242);"
   id="path21" />
                </g>
                <g
   transform="matrix(1,0,0,1,0,-14)"
   id="g22">
                    <path
   d="M1379.29,2663.27L1379.29,2580.73C1379.29,2579.58 1380.23,2578.65 1381.38,2578.65C1382.53,2578.65 1383.46,2579.58 1383.46,2580.73L1383.46,2663.27L1402.14,2663.27C1402.16,2663.27 1402.19,2663.27 1402.21,2663.27C1414.79,2663.31 1425,2673.54 1425,2686.13C1425,2698.74 1414.75,2708.98 1402.14,2708.98C1389.53,2708.98 1379.29,2698.74 1379.29,2686.13L1379.29,2686.13L1379.29,2667.44L1358.69,2667.44L1358.69,2686.13C1358.69,2686.19 1358.69,2686.26 1358.68,2686.33L1358.68,2686.34C1358.57,2698.85 1348.37,2708.98 1335.83,2708.98C1323.21,2708.98 1312.97,2698.74 1312.97,2686.13C1312.97,2673.54 1323.17,2663.31 1335.75,2663.27C1335.78,2663.27 1335.8,2663.27 1335.83,2663.27L1354.52,2663.27L1354.52,2580.73C1354.52,2579.58 1355.46,2578.65 1356.61,2578.65C1357.76,2578.65 1358.69,2579.58 1358.69,2580.73L1358.69,2663.27L1379.29,2663.27ZM1335.83,2667.44C1335.83,2667.44 1354.52,2667.44 1354.52,2667.44L1354.52,2686.13L1354.51,2686.13C1354.51,2696.44 1346.14,2704.82 1335.83,2704.82C1325.51,2704.82 1317.14,2696.44 1317.14,2686.13C1317.14,2675.81 1325.51,2667.44 1335.83,2667.44L1335.83,2667.44ZM1402.14,2667.44L1383.46,2667.44L1383.46,2686.13C1383.46,2686.18 1383.46,2686.22 1383.45,2686.27L1383.45,2686.29C1383.54,2696.53 1391.88,2704.82 1402.14,2704.82C1412.45,2704.82 1420.83,2696.44 1420.83,2686.13C1420.83,2675.81 1412.45,2667.44 1402.14,2667.44C1402.14,2667.44 1402.14,2667.44 1402.14,2667.44Z"
   style="fill:rgb(210,170,69);"
   id="path22" />
                </g>
                <g
   transform="matrix(1.31347,0,0,1.03713,-441.348,-147.844)"
   id="g23">
                    <path
   d="M1426.12,2530.91C1426.12,2522.66 1420.82,2515.95 1414.31,2515.95L1341.65,2515.95C1335.13,2515.95 1329.84,2522.66 1329.84,2530.91L1329.84,2615.94C1329.84,2624.2 1335.13,2630.9 1341.65,2630.9L1414.31,2630.9C1420.82,2630.9 1426.12,2624.2 1426.12,2615.94L1426.12,2530.91Z"
   style="fill:rgb(47,47,47);"
   id="path23" />
                </g>
                <g
   transform="matrix(1.31347,0,0,1.03713,-441.348,-147.844)"
   id="g24">
                    <path
   d="M1426.12,2530.91C1426.12,2522.66 1420.82,2515.95 1414.31,2515.95L1341.65,2515.95C1335.13,2515.95 1329.84,2522.66 1329.84,2530.91L1329.84,2615.94C1329.84,2624.2 1335.13,2630.9 1341.65,2630.9L1414.31,2630.9C1420.82,2630.9 1426.12,2624.2 1426.12,2615.94L1426.12,2530.91ZM1419.77,2530.91L1419.77,2615.94C1419.77,2619.76 1417.32,2622.86 1414.31,2622.86L1341.65,2622.86C1338.63,2622.86 1336.18,2619.76 1336.18,2615.94C1336.18,2615.94 1336.18,2530.91 1336.18,2530.91C1336.18,2527.09 1338.63,2523.99 1341.65,2523.99C1341.65,2523.99 1414.31,2523.99 1414.31,2523.99C1417.32,2523.99 1419.77,2527.09 1419.77,2530.91Z"
   id="path24" />
                </g>
                <g
   transform="matrix(0.926768,0,0,1.46369,101.186,-1188.84)"
   id="g25">
                    <path
   d="M1447.65,2536.4C1447.65,2531.34 1441.17,2527.24 1433.19,2527.24L1302.76,2527.24C1294.78,2527.24 1288.3,2531.34 1288.3,2536.4L1288.3,2554.71C1288.3,2559.76 1294.78,2563.86 1302.76,2563.86L1433.19,2563.86C1441.17,2563.86 1447.65,2559.76 1447.65,2554.71L1447.65,2536.4Z"
   style="fill:rgb(70,70,70);"
   id="path25" />
                </g>
                <g
   transform="matrix(0.926768,0,0,1.46369,101.186,-1188.84)"
   id="g26">
                    <path
   d="M1447.65,2536.4C1447.65,2531.34 1441.17,2527.24 1433.19,2527.24L1302.76,2527.24C1294.78,2527.24 1288.3,2531.34 1288.3,2536.4L1288.3,2554.71C1288.3,2559.76 1294.78,2563.86 1302.76,2563.86L1433.19,2563.86C1441.17,2563.86 1447.65,2559.76 1447.65,2554.71L1447.65,2536.4ZM1438.66,2536.4L1438.66,2554.71C1438.66,2556.62 1436.21,2558.17 1433.19,2558.17L1302.76,2558.17C1299.74,2558.17 1297.29,2556.62 1297.29,2554.71L1297.29,2536.4C1297.29,2534.49 1299.74,2532.94 1302.76,2532.94C1302.76,2532.94 1433.19,2532.94 1433.19,2532.94C1436.21,2532.94 1438.66,2534.49 1438.66,2536.4Z"
   id="path26" />
                </g>
            </g>
            <g
   id="bulb1"
   serif:id="bulb"
   transform="matrix(0.57376,0.346842,-0.346842,0.57376,1097.03,339.364)">
                <path
   d="M1419.49,2599.09L1419.49,2541.62L1317.68,2541.62L1317.68,2599.09L1287.16,2599.09C1266.02,2599.09 1248.85,2616.26 1248.85,2637.41L1248.85,2800.24C1248.85,2821.39 1266.02,2838.55 1287.16,2838.55L1450,2838.55C1471.15,2838.55 1488.31,2821.39 1488.31,2800.24L1488.31,2637.41C1488.31,2616.26 1471.15,2599.09 1450,2599.09L1419.49,2599.09Z"
   style="fill:rgb(255,240,202);"
   id="path27" />
                <path
   d="M1419.49,2599.09L1419.49,2541.62L1317.68,2541.62L1317.68,2599.09L1287.16,2599.09C1266.02,2599.09 1248.85,2616.26 1248.85,2637.41L1248.85,2800.24C1248.85,2821.39 1266.02,2838.55 1287.16,2838.55L1450,2838.55C1471.15,2838.55 1488.31,2821.39 1488.31,2800.24L1488.31,2637.41C1488.31,2616.26 1471.15,2599.09 1450,2599.09L1419.49,2599.09ZM1402.82,2599.09C1402.82,2608.3 1410.28,2615.76 1419.49,2615.76L1450,2615.76C1461.95,2615.76 1471.65,2625.46 1471.65,2637.41C1471.65,2637.41 1471.65,2800.24 1471.65,2800.24C1471.65,2812.19 1461.95,2821.89 1450,2821.89L1287.16,2821.89C1275.22,2821.89 1265.52,2812.19 1265.52,2800.24C1265.52,2800.24 1265.52,2637.41 1265.52,2637.41C1265.52,2625.46 1275.22,2615.76 1287.16,2615.76L1317.68,2615.76C1326.88,2615.76 1334.35,2608.3 1334.35,2599.09L1334.35,2558.29C1334.35,2558.29 1402.82,2558.29 1402.82,2558.29C1402.82,2558.29 1402.82,2599.09 1402.82,2599.09Z"
   style="fill:rgb(255,226,153);"
   id="path28" />
                <path
   d="M1289.03,2638.33C1289.19,2638.31 1289.35,2638.3 1289.49,2638.3C1289.5,2638.3 1289.52,2638.3 1289.53,2638.3L1317.57,2638.3C1321.01,2638.3 1323.82,2635.5 1323.82,2632.05C1323.82,2628.6 1321.01,2625.8 1317.57,2625.8L1289.54,2625.8C1285.71,2625.78 1282.76,2626.88 1280.63,2628.68C1278.33,2630.64 1276.73,2633.52 1276.53,2637.72C1276.53,2637.82 1276.53,2637.92 1276.53,2638.02L1276.53,2661.15C1276.53,2664.6 1279.33,2667.4 1282.78,2667.4C1286.23,2667.4 1289.03,2664.6 1289.03,2661.15L1289.03,2638.33Z"
   style="fill:rgb(255,251,242);"
   id="path29" />
                <g
   transform="matrix(1,0,0,1,3.86298,5.40818)"
   id="g30">
                    <path
   d="M1439.14,2732.07L1439.14,2787.72C1439.14,2787.72 1330.78,2787.72 1330.78,2787.72C1326.18,2787.72 1322.44,2791.45 1322.44,2796.05C1322.44,2800.65 1326.18,2804.38 1330.78,2804.38L1447.47,2804.38C1452.07,2804.38 1455.81,2800.65 1455.81,2796.05L1455.81,2732.07C1455.81,2727.47 1452.07,2723.74 1447.47,2723.74C1442.87,2723.74 1439.14,2727.47 1439.14,2732.07Z"
   style="fill:rgb(255,251,242);"
   id="path30" />
                </g>
                <g
   transform="matrix(1,0,0,1,0,-14)"
   id="g31">
                    <path
   d="M1379.29,2663.27L1379.29,2580.73C1379.29,2579.58 1380.23,2578.65 1381.38,2578.65C1382.53,2578.65 1383.46,2579.58 1383.46,2580.73L1383.46,2663.27L1402.14,2663.27C1402.16,2663.27 1402.19,2663.27 1402.21,2663.27C1414.79,2663.31 1425,2673.54 1425,2686.13C1425,2698.74 1414.75,2708.98 1402.14,2708.98C1389.53,2708.98 1379.29,2698.74 1379.29,2686.13L1379.29,2686.13L1379.29,2667.44L1358.69,2667.44L1358.69,2686.13C1358.69,2686.19 1358.69,2686.26 1358.68,2686.33L1358.68,2686.34C1358.57,2698.85 1348.37,2708.98 1335.83,2708.98C1323.21,2708.98 1312.97,2698.74 1312.97,2686.13C1312.97,2673.54 1323.17,2663.31 1335.75,2663.27C1335.78,2663.27 1335.8,2663.27 1335.83,2663.27L1354.52,2663.27L1354.52,2580.73C1354.52,2579.58 1355.46,2578.65 1356.61,2578.65C1357.76,2578.65 1358.69,2579.58 1358.69,2580.73L1358.69,2663.27L1379.29,2663.27ZM1335.83,2667.44C1335.83,2667.44 1354.52,2667.44 1354.52,2667.44L1354.52,2686.13L1354.51,2686.13C1354.51,2696.44 1346.14,2704.82 1335.83,2704.82C1325.51,2704.82 1317.14,2696.44 1317.14,2686.13C1317.14,2675.81 1325.51,2667.44 1335.83,2667.44L1335.83,2667.44ZM1402.14,2667.44L1383.46,2667.44L1383.46,2686.13C1383.46,2686.18 1383.46,2686.22 1383.45,2686.27L1383.45,2686.29C1383.54,2696.53 1391.88,2704.82 1402.14,2704.82C1412.45,2704.82 1420.83,2696.44 1420.83,2686.13C1420.83,2675.81 1412.45,2667.44 1402.14,2667.44C1402.14,2667.44 1402.14,2667.44 1402.14,2667.44Z"
   style="fill:rgb(210,170,69);"
   id="path31" />
                </g>
                <g
   transform="matrix(1.31347,0,0,1.03713,-441.348,-147.844)"
   id="g32">
                    <path
   d="M1426.12,2530.91C1426.12,2522.66 1420.82,2515.95 1414.31,2515.95L1341.65,2515.95C1335.13,2515.95 1329.84,2522.66 1329.84,2530.91L1329.84,2615.94C1329.84,2624.2 1335.13,2630.9 1341.65,2630.9L1414.31,2630.9C1420.82,2630.9 1426.12,2624.2 1426.12,2615.94L1426.12,2530.91Z"
   style="fill:rgb(47,47,47);"
   id="path32" />
                </g>
                <g
   transform="matrix(1.31347,0,0,1.03713,-441.348,-147.844)"
   id="g33">
                    <path
   d="M1426.12,2530.91C1426.12,2522.66 1420.82,2515.95 1414.31,2515.95L1341.65,2515.95C1335.13,2515.95 1329.84,2522.66 1329.84,2530.91L1329.84,2615.94C1329.84,2624.2 1335.13,2630.9 1341.65,2630.9L1414.31,2630.9C1420.82,2630.9 1426.12,2624.2 1426.12,2615.94L1426.12,2530.91ZM1419.77,2530.91L1419.77,2615.94C1419.77,2619.76 1417.32,2622.86 1414.31,2622.86L1341.65,2622.86C1338.63,2622.86 1336.18,2619.76 1336.18,2615.94C1336.18,2615.94 1336.18,2530.91 1336.18,2530.91C1336.18,2527.09 1338.63,2523.99 1341.65,2523.99C1341.65,2523.99 1414.31,2523.99 1414.31,2523.99C1417.32,2523.99 1419.77,2527.09 1419.77,2530.91Z"
   id="path33" />
                </g>
                <g
   transform="matrix(0.926768,0,0,1.46369,101.186,-1188.84)"
   id="g34">
                    <path
   d="M1447.65,2536.4C1447.65,2531.34 1441.17,2527.24 1433.19,2527.24L1302.76,2527.24C1294.78,2527.24 1288.3,2531.34 1288.3,2536.4L1288.3,2554.71C1288.3,2559.76 1294.78,2563.86 1302.76,2563.86L1433.19,2563.86C1441.17,2563.86 1447.65,2559.76 1447.65,2554.71L1447.65,2536.4Z"
   style="fill:rgb(70,70,70);"
   id="path34" />
                </g>
                <g
   transform="matrix(0.926768,0,0,1.46369,101.186,-1188.84)"
   id="g35">
                    <path
   d="M1447.65,2536.4C1447.65,2531.34 1441.17,2527.24 1433.19,2527.24L1302.76,2527.24C1294.78,2527.24 1288.3,2531.34 1288.3,2536.4L1288.3,2554.71C1288.3,2559.76 1294.78,2563.86 1302.76,2563.86L1433.19,2563.86C1441.17,2563.86 1447.65,2559.76 1447.65,2554.71L1447.65,2536.4ZM1438.66,2536.4L1438.66,2554.71C1438.66,2556.62 1436.21,2558.17 1433.19,2558.17L1302.76,2558.17C1299.74,2558.17 1297.29,2556.62 1297.29,2554.71L1297.29,2536.4C1297.29,2534.49 1299.74,2532.94 1302.76,2532.94C1302.76,2532.94 1433.19,2532.94 1433.19,2532.94C1436.21,2532.94 1438.66,2534.49 1438.66,2536.4Z"
   id="path35" />
                </g>
            </g>
            <g
   id="bulb2"
   serif:id="bulb"
   transform="matrix(0.57376,0.346842,-0.346842,0.57376,2229.59,333.308)">
                <path
   d="M1419.49,2599.09L1419.49,2541.62L1317.68,2541.62L1317.68,2599.09L1287.16,2599.09C1266.02,2599.09 1248.85,2616.26 1248.85,2637.41L1248.85,2800.24C1248.85,2821.39 1266.02,2838.55 1287.16,2838.55L1450,2838.55C1471.15,2838.55 1488.31,2821.39 1488.31,2800.24L1488.31,2637.41C1488.31,2616.26 1471.15,2599.09 1450,2599.09L1419.49,2599.09Z"
   style="fill:rgb(255,240,202);"
   id="path36" />
                <path
   d="M1419.49,2599.09L1419.49,2541.62L1317.68,2541.62L1317.68,2599.09L1287.16,2599.09C1266.02,2599.09 1248.85,2616.26 1248.85,2637.41L1248.85,2800.24C1248.85,2821.39 1266.02,2838.55 1287.16,2838.55L1450,2838.55C1471.15,2838.55 1488.31,2821.39 1488.31,2800.24L1488.31,2637.41C1488.31,2616.26 1471.15,2599.09 1450,2599.09L1419.49,2599.09ZM1402.82,2599.09C1402.82,2608.3 1410.28,2615.76 1419.49,2615.76L1450,2615.76C1461.95,2615.76 1471.65,2625.46 1471.65,2637.41C1471.65,2637.41 1471.65,2800.24 1471.65,2800.24C1471.65,2812.19 1461.95,2821.89 1450,2821.89L1287.16,2821.89C1275.22,2821.89 1265.52,2812.19 1265.52,2800.24C1265.52,2800.24 1265.52,2637.41 1265.52,2637.41C1265.52,2625.46 1275.22,2615.76 1287.16,2615.76L1317.68,2615.76C1326.88,2615.76 1334.35,2608.3 1334.35,2599.09L1334.35,2558.29C1334.35,2558.29 1402.82,2558.29 1402.82,2558.29C1402.82,2558.29 1402.82,2599.09 1402.82,2599.09Z"
   style="fill:rgb(255,226,153);"
   id="path37" />
                <path
   d="M1289.03,2638.33C1289.19,2638.31 1289.35,2638.3 1289.49,2638.3C1289.5,2638.3 1289.52,2638.3 1289.53,2638.3L1317.57,2638.3C1321.01,2638.3 1323.82,2635.5 1323.82,2632.05C1323.82,2628.6 1321.01,2625.8 1317.57,2625.8L1289.54,2625.8C1285.71,2625.78 1282.76,2626.88 1280.63,2628.68C1278.33,2630.64 1276.73,2633.52 1276.53,2637.72C1276.53,2637.82 1276.53,2637.92 1276.53,2638.02L1276.53,2661.15C1276.53,2664.6 1279.33,2667.4 1282.78,2667.4C1286.23,2667.4 1289.03,2664.6 1289.03,2661.15L1289.03,2638.33Z"
   style="fill:rgb(255,251,242);"
   id="path38" />
                <g
   transform="matrix(1,0,0,1,3.86298,5.40818)"
   id="g39">
                    <path
   d="M1439.14,2732.07L1439.14,2787.72C1439.14,2787.72 1330.78,2787.72 1330.78,2787.72C1326.18,2787.72 1322.44,2791.45 1322.44,2796.05C1322.44,2800.65 1326.18,2804.38 1330.78,2804.38L1447.47,2804.38C1452.07,2804.38 1455.81,2800.65 1455.81,2796.05L1455.81,2732.07C1455.81,2727.47 1452.07,2723.74 1447.47,2723.74C1442.87,2723.74 1439.14,2727.47 1439.14,2732.07Z"
   style="fill:rgb(255,251,242);"
   id="path39" />
                </g>
                <g
   transform="matrix(1,0,0,1,0,-14)"
   id="g40">
                    <path
   d="M1379.29,2663.27L1379.29,2580.73C1379.29,2579.58 1380.23,2578.65 1381.38,2578.65C1382.53,2578.65 1383.46,2579.58 1383.46,2580.73L1383.46,2663.27L1402.14,2663.27C1402.16,2663.27 1402.19,2663.27 1402.21,2663.27C1414.79,2663.31 1425,2673.54 1425,2686.13C1425,2698.74 1414.75,2708.98 1402.14,2708.98C1389.53,2708.98 1379.29,2698.74 1379.29,2686.13L1379.29,2686.13L1379.29,2667.44L1358.69,2667.44L1358.69,2686.13C1358.69,2686.19 1358.69,2686.26 1358.68,2686.33L1358.68,2686.34C1358.57,2698.85 1348.37,2708.98 1335.83,2708.98C1323.21,2708.98 1312.97,2698.74 1312.97,2686.13C1312.97,2673.54 1323.17,2663.31 1335.75,2663.27C1335.78,2663.27 1335.8,2663.27 1335.83,2663.27L1354.52,2663.27L1354.52,2580.73C1354.52,2579.58 1355.46,2578.65 1356.61,2578.65C1357.76,2578.65 1358.69,2579.58 1358.69,2580.73L1358.69,2663.27L1379.29,2663.27ZM1335.83,2667.44C1335.83,2667.44 1354.52,2667.44 1354.52,2667.44L1354.52,2686.13L1354.51,2686.13C1354.51,2696.44 1346.14,2704.82 1335.83,2704.82C1325.51,2704.82 1317.14,2696.44 1317.14,2686.13C1317.14,2675.81 1325.51,2667.44 1335.83,2667.44L1335.83,2667.44ZM1402.14,2667.44L1383.46,2667.44L1383.46,2686.13C1383.46,2686.18 1383.46,2686.22 1383.45,2686.27L1383.45,2686.29C1383.54,2696.53 1391.88,2704.82 1402.14,2704.82C1412.45,2704.82 1420.83,2696.44 1420.83,2686.13C1420.83,2675.81 1412.45,2667.44 1402.14,2667.44C1402.14,2667.44 1402.14,2667.44 1402.14,2667.44Z"
   style="fill:rgb(210,170,69);"
   id="path40" />
                </g>
                <g
   transform="matrix(1.31347,0,0,1.03713,-441.348,-147.844)"
   id="g41">
                    <path
   d="M1426.12,2530.91C1426.12,2522.66 1420.82,2515.95 1414.31,2515.95L1341.65,2515.95C1335.13,2515.95 1329.84,2522.66 1329.84,2530.91L1329.84,2615.94C1329.84,2624.2 1335.13,2630.9 1341.65,2630.9L1414.31,2630.9C1420.82,2630.9 1426.12,2624.2 1426.12,2615.94L1426.12,2530.91Z"
   style="fill:rgb(47,47,47);"
   id="path41" />
                </g>
                <g
   transform="matrix(1.31347,0,0,1.03713,-441.348,-147.844)"
   id="g42">
                    <path
   d="M1426.12,2530.91C1426.12,2522.66 1420.82,2515.95 1414.31,2515.95L1341.65,2515.95C1335.13,2515.95 1329.84,2522.66 1329.84,2530.91L1329.84,2615.94C1329.84,2624.2 1335.13,2630.9 1341.65,2630.9L1414.31,2630.9C1420.82,2630.9 1426.12,2624.2 1426.12,2615.94L1426.12,2530.91ZM1419.77,2530.91L1419.77,2615.94C1419.77,2619.76 1417.32,2622.86 1414.31,2622.86L1341.65,2622.86C1338.63,2622.86 1336.18,2619.76 1336.18,2615.94C1336.18,2615.94 1336.18,2530.91 1336.18,2530.91C1336.18,2527.09 1338.63,2523.99 1341.65,2523.99C1341.65,2523.99 1414.31,2523.99 1414.31,2523.99C1417.32,2523.99 1419.77,2527.09 1419.77,2530.91Z"
   id="path42" />
                </g>
                <g
   transform="matrix(0.926768,0,0,1.46369,101.186,-1188.84)"
   id="g43">
                    <path
   d="M1447.65,2536.4C1447.65,2531.34 1441.17,2527.24 1433.19,2527.24L1302.76,2527.24C1294.78,2527.24 1288.3,2531.34 1288.3,2536.4L1288.3,2554.71C1288.3,2559.76 1294.78,2563.86 1302.76,2563.86L1433.19,2563.86C1441.17,2563.86 1447.65,2559.76 1447.65,2554.71L1447.65,2536.4Z"
   style="fill:rgb(70,70,70);"
   id="path43" />
                </g>
                <g
   transform="matrix(0.926768,0,0,1.46369,101.186,-1188.84)"
   id="g44">
                    <path
   d="M1447.65,2536.4C1447.65,2531.34 1441.17,2527.24 1433.19,2527.24L1302.76,2527.24C1294.78,2527.24 1288.3,2531.34 1288.3,2536.4L1288.3,2554.71C1288.3,2559.76 1294.78,2563.86 1302.76,2563.86L1433.19,2563.86C1441.17,2563.86 1447.65,2559.76 1447.65,2554.71L1447.65,2536.4ZM1438.66,2536.4L1438.66,2554.71C1438.66,2556.62 1436.21,2558.17 1433.19,2558.17L1302.76,2558.17C1299.74,2558.17 1297.29,2556.62 1297.29,2554.71L1297.29,2536.4C1297.29,2534.49 1299.74,2532.94 1302.76,2532.94C1302.76,2532.94 1433.19,2532.94 1433.19,2532.94C1436.21,2532.94 1438.66,2534.49 1438.66,2536.4Z"
   id="path44" />
                </g>
            </g>
            <g
   id="bulb3"
   serif:id="bulb"
   transform="matrix(0.668315,-0.0534299,0.0534299,0.668315,1556.87,755.758)">
                <path
   d="M1419.49,2599.09L1419.49,2541.62L1317.68,2541.62L1317.68,2599.09L1287.16,2599.09C1266.02,2599.09 1248.85,2616.26 1248.85,2637.41L1248.85,2800.24C1248.85,2821.39 1266.02,2838.55 1287.16,2838.55L1450,2838.55C1471.15,2838.55 1488.31,2821.39 1488.31,2800.24L1488.31,2637.41C1488.31,2616.26 1471.15,2599.09 1450,2599.09L1419.49,2599.09Z"
   style="fill:rgb(255,240,202);"
   id="path45" />
                <path
   d="M1419.49,2599.09L1419.49,2541.62L1317.68,2541.62L1317.68,2599.09L1287.16,2599.09C1266.02,2599.09 1248.85,2616.26 1248.85,2637.41L1248.85,2800.24C1248.85,2821.39 1266.02,2838.55 1287.16,2838.55L1450,2838.55C1471.15,2838.55 1488.31,2821.39 1488.31,2800.24L1488.31,2637.41C1488.31,2616.26 1471.15,2599.09 1450,2599.09L1419.49,2599.09ZM1402.82,2599.09C1402.82,2608.3 1410.28,2615.76 1419.49,2615.76L1450,2615.76C1461.95,2615.76 1471.65,2625.46 1471.65,2637.41C1471.65,2637.41 1471.65,2800.24 1471.65,2800.24C1471.65,2812.19 1461.95,2821.89 1450,2821.89L1287.16,2821.89C1275.22,2821.89 1265.52,2812.19 1265.52,2800.24C1265.52,2800.24 1265.52,2637.41 1265.52,2637.41C1265.52,2625.46 1275.22,2615.76 1287.16,2615.76L1317.68,2615.76C1326.88,2615.76 1334.35,2608.3 1334.35,2599.09L1334.35,2558.29C1334.35,2558.29 1402.82,2558.29 1402.82,2558.29C1402.82,2558.29 1402.82,2599.09 1402.82,2599.09Z"
   style="fill:rgb(255,226,153);"
   id="path46" />
                <path
   d="M1289.03,2638.33C1289.19,2638.31 1289.35,2638.3 1289.49,2638.3C1289.5,2638.3 1289.52,2638.3 1289.53,2638.3L1317.57,2638.3C1321.01,2638.3 1323.82,2635.5 1323.82,2632.05C1323.82,2628.6 1321.01,2625.8 1317.57,2625.8L1289.54,2625.8C1285.71,2625.78 1282.76,2626.88 1280.63,2628.68C1278.33,2630.64 1276.73,2633.52 1276.53,2637.72C1276.53,2637.82 1276.53,2637.92 1276.53,2638.02L1276.53,2661.15C1276.53,2664.6 1279.33,2667.4 1282.78,2667.4C1286.23,2667.4 1289.03,2664.6 1289.03,2661.15L1289.03,2638.33Z"
   style="fill:rgb(255,251,242);"
   id="path47" />
                <g
   transform="matrix(1,0,0,1,3.86298,5.40818)"
   id="g48">
                    <path
   d="M1439.14,2732.07L1439.14,2787.72C1439.14,2787.72 1330.78,2787.72 1330.78,2787.72C1326.18,2787.72 1322.44,2791.45 1322.44,2796.05C1322.44,2800.65 1326.18,2804.38 1330.78,2804.38L1447.47,2804.38C1452.07,2804.38 1455.81,2800.65 1455.81,2796.05L1455.81,2732.07C1455.81,2727.47 1452.07,2723.74 1447.47,2723.74C1442.87,2723.74 1439.14,2727.47 1439.14,2732.07Z"
   style="fill:rgb(255,251,242);"
   id="path48" />
                </g>
                <g
   transform="matrix(1,0,0,1,0,-14)"
   id="g49">
                    <path
   d="M1379.29,2663.27L1379.29,2580.73C1379.29,2579.58 1380.23,2578.65 1381.38,2578.65C1382.53,2578.65 1383.46,2579.58 1383.46,2580.73L1383.46,2663.27L1402.14,2663.27C1402.16,2663.27 1402.19,2663.27 1402.21,2663.27C1414.79,2663.31 1425,2673.54 1425,2686.13C1425,2698.74 1414.75,2708.98 1402.14,2708.98C1389.53,2708.98 1379.29,2698.74 1379.29,2686.13L1379.29,2686.13L1379.29,2667.44L1358.69,2667.44L1358.69,2686.13C1358.69,2686.19 1358.69,2686.26 1358.68,2686.33L1358.68,2686.34C1358.57,2698.85 1348.37,2708.98 1335.83,2708.98C1323.21,2708.98 1312.97,2698.74 1312.97,2686.13C1312.97,2673.54 1323.17,2663.31 1335.75,2663.27C1335.78,2663.27 1335.8,2663.27 1335.83,2663.27L1354.52,2663.27L1354.52,2580.73C1354.52,2579.58 1355.46,2578.65 1356.61,2578.65C1357.76,2578.65 1358.69,2579.58 1358.69,2580.73L1358.69,2663.27L1379.29,2663.27ZM1335.83,2667.44C1335.83,2667.44 1354.52,2667.44 1354.52,2667.44L1354.52,2686.13L1354.51,2686.13C1354.51,2696.44 1346.14,2704.82 1335.83,2704.82C1325.51,2704.82 1317.14,2696.44 1317.14,2686.13C1317.14,2675.81 1325.51,2667.44 1335.83,2667.44L1335.83,2667.44ZM1402.14,2667.44L1383.46,2667.44L1383.46,2686.13C1383.46,2686.18 1383.46,2686.22 1383.45,2686.27L1383.45,2686.29C1383.54,2696.53 1391.88,2704.82 1402.14,2704.82C1412.45,2704.82 1420.83,2696.44 1420.83,2686.13C1420.83,2675.81 1412.45,2667.44 1402.14,2667.44C1402.14,2667.44 1402.14,2667.44 1402.14,2667.44Z"
   style="fill:rgb(210,170,69);"
   id="path49" />
                </g>
                <g
   transform="matrix(1.31347,0,0,1.03713,-441.348,-147.844)"
   id="g50">
                    <path
   d="M1426.12,2530.91C1426.12,2522.66 1420.82,2515.95 1414.31,2515.95L1341.65,2515.95C1335.13,2515.95 1329.84,2522.66 1329.84,2530.91L1329.84,2615.94C1329.84,2624.2 1335.13,2630.9 1341.65,2630.9L1414.31,2630.9C1420.82,2630.9 1426.12,2624.2 1426.12,2615.94L1426.12,2530.91Z"
   style="fill:rgb(47,47,47);"
   id="path50" />
                </g>
                <g
   transform="matrix(1.31347,0,0,1.03713,-441.348,-147.844)"
   id="g51">
                    <path
   d="M1426.12,2530.91C1426.12,2522.66 1420.82,2515.95 1414.31,2515.95L1341.65,2515.95C1335.13,2515.95 1329.84,2522.66 1329.84,2530.91L1329.84,2615.94C1329.84,2624.2 1335.13,2630.9 1341.65,2630.9L1414.31,2630.9C1420.82,2630.9 1426.12,2624.2 1426.12,2615.94L1426.12,2530.91ZM1419.77,2530.91L1419.77,2615.94C1419.77,2619.76 1417.32,2622.86 1414.31,2622.86L1341.65,2622.86C1338.63,2622.86 1336.18,2619.76 1336.18,2615.94C1336.18,2615.94 1336.18,2530.91 1336.18,2530.91C1336.18,2527.09 1338.63,2523.99 1341.65,2523.99C1341.65,2523.99 1414.31,2523.99 1414.31,2523.99C1417.32,2523.99 1419.77,2527.09 1419.77,2530.91Z"
   id="path51" />
                </g>
                <g
   transform="matrix(0.926768,0,0,1.46369,101.186,-1188.84)"
   id="g52">
                    <path
   d="M1447.65,2536.4C1447.65,2531.34 1441.17,2527.24 1433.19,2527.24L1302.76,2527.24C1294.78,2527.24 1288.3,2531.34 1288.3,2536.4L1288.3,2554.71C1288.3,2559.76 1294.78,2563.86 1302.76,2563.86L1433.19,2563.86C1441.17,2563.86 1447.65,2559.76 1447.65,2554.71L1447.65,2536.4Z"
   style="fill:rgb(70,70,70);"
   id="path52" />
                </g>
                <g
   transform="matrix(0.926768,0,0,1.46369,101.186,-1188.84)"
   id="g53">
                    <path
   d="M1447.65,2536.4C1447.65,2531.34 1441.17,2527.24 1433.19,2527.24L1302.76,2527.24C1294.78,2527.24 1288.3,2531.34 1288.3,2536.4L1288.3,2554.71C1288.3,2559.76 1294.78,2563.86 1302.76,2563.86L1433.19,2563.86C1441.17,2563.86 1447.65,2559.76 1447.65,2554.71L1447.65,2536.4ZM1438.66,2536.4L1438.66,2554.71C1438.66,2556.62 1436.21,2558.17 1433.19,2558.17L1302.76,2558.17C1299.74,2558.17 1297.29,2556.62 1297.29,2554.71L1297.29,2536.4C1297.29,2534.49 1299.74,2532.94 1302.76,2532.94C1302.76,2532.94 1433.19,2532.94 1433.19,2532.94C1436.21,2532.94 1438.66,2534.49 1438.66,2536.4Z"
   id="path53" />
                </g>
            </g>
            <g
   id="bulb4"
   serif:id="bulb"
   transform="matrix(0.516642,-0.427294,0.427294,0.516642,1227.83,1485.53)">
                <path
   d="M1419.49,2599.09L1419.49,2541.62L1317.68,2541.62L1317.68,2599.09L1287.16,2599.09C1266.02,2599.09 1248.85,2616.26 1248.85,2637.41L1248.85,2800.24C1248.85,2821.39 1266.02,2838.55 1287.16,2838.55L1450,2838.55C1471.15,2838.55 1488.31,2821.39 1488.31,2800.24L1488.31,2637.41C1488.31,2616.26 1471.15,2599.09 1450,2599.09L1419.49,2599.09Z"
   style="fill:rgb(255,240,202);"
   id="path54" />
                <path
   d="M1419.49,2599.09L1419.49,2541.62L1317.68,2541.62L1317.68,2599.09L1287.16,2599.09C1266.02,2599.09 1248.85,2616.26 1248.85,2637.41L1248.85,2800.24C1248.85,2821.39 1266.02,2838.55 1287.16,2838.55L1450,2838.55C1471.15,2838.55 1488.31,2821.39 1488.31,2800.24L1488.31,2637.41C1488.31,2616.26 1471.15,2599.09 1450,2599.09L1419.49,2599.09ZM1402.82,2599.09C1402.82,2608.3 1410.28,2615.76 1419.49,2615.76L1450,2615.76C1461.95,2615.76 1471.65,2625.46 1471.65,2637.41C1471.65,2637.41 1471.65,2800.24 1471.65,2800.24C1471.65,2812.19 1461.95,2821.89 1450,2821.89L1287.16,2821.89C1275.22,2821.89 1265.52,2812.19 1265.52,2800.24C1265.52,2800.24 1265.52,2637.41 1265.52,2637.41C1265.52,2625.46 1275.22,2615.76 1287.16,2615.76L1317.68,2615.76C1326.88,2615.76 1334.35,2608.3 1334.35,2599.09L1334.35,2558.29C1334.35,2558.29 1402.82,2558.29 1402.82,2558.29C1402.82,2558.29 1402.82,2599.09 1402.82,2599.09Z"
   style="fill:rgb(255,226,153);"
   id="path55" />
                <path
   d="M1289.03,2638.33C1289.19,2638.31 1289.35,2638.3 1289.49,2638.3C1289.5,2638.3 1289.52,2638.3 1289.53,2638.3L1317.57,2638.3C1321.01,2638.3 1323.82,2635.5 1323.82,2632.05C1323.82,2628.6 1321.01,2625.8 1317.57,2625.8L1289.54,2625.8C1285.71,2625.78 1282.76,2626.88 1280.63,2628.68C1278.33,2630.64 1276.73,2633.52 1276.53,2637.72C1276.53,2637.82 1276.53,2637.92 1276.53,2638.02L1276.53,2661.15C1276.53,2664.6 1279.33,2667.4 1282.78,2667.4C1286.23,2667.4 1289.03,2664.6 1289.03,2661.15L1289.03,2638.33Z"
   style="fill:rgb(255,251,242);"
   id="path56" />
                <g
   transform="matrix(1,0,0,1,3.86298,5.40818)"
   id="g57">
                    <path
   d="M1439.14,2732.07L1439.14,2787.72C1439.14,2787.72 1330.78,2787.72 1330.78,2787.72C1326.18,2787.72 1322.44,2791.45 1322.44,2796.05C1322.44,2800.65 1326.18,2804.38 1330.78,2804.38L1447.47,2804.38C1452.07,2804.38 1455.81,2800.65 1455.81,2796.05L1455.81,2732.07C1455.81,2727.47 1452.07,2723.74 1447.47,2723.74C1442.87,2723.74 1439.14,2727.47 1439.14,2732.07Z"
   style="fill:rgb(255,251,242);"
   id="path57" />
                </g>
                <g
   transform="matrix(1,0,0,1,0,-14)"
   id="g58">
                    <path
   d="M1379.29,2663.27L1379.29,2580.73C1379.29,2579.58 1380.23,2578.65 1381.38,2578.65C1382.53,2578.65 1383.46,2579.58 1383.46,2580.73L1383.46,2663.27L1402.14,2663.27C1402.16,2663.27 1402.19,2663.27 1402.21,2663.27C1414.79,2663.31 1425,2673.54 1425,2686.13C1425,2698.74 1414.75,2708.98 1402.14,2708.98C1389.53,2708.98 1379.29,2698.74 1379.29,2686.13L1379.29,2686.13L1379.29,2667.44L1358.69,2667.44L1358.69,2686.13C1358.69,2686.19 1358.69,2686.26 1358.68,2686.33L1358.68,2686.34C1358.57,2698.85 1348.37,2708.98 1335.83,2708.98C1323.21,2708.98 1312.97,2698.74 1312.97,2686.13C1312.97,2673.54 1323.17,2663.31 1335.75,2663.27C1335.78,2663.27 1335.8,2663.27 1335.83,2663.27L1354.52,2663.27L1354.52,2580.73C1354.52,2579.58 1355.46,2578.65 1356.61,2578.65C1357.76,2578.65 1358.69,2579.58 1358.69,2580.73L1358.69,2663.27L1379.29,2663.27ZM1335.83,2667.44C1335.83,2667.44 1354.52,2667.44 1354.52,2667.44L1354.52,2686.13L1354.51,2686.13C1354.51,2696.44 1346.14,2704.82 1335.83,2704.82C1325.51,2704.82 1317.14,2696.44 1317.14,2686.13C1317.14,2675.81 1325.51,2667.44 1335.83,2667.44L1335.83,2667.44ZM1402.14,2667.44L1383.46,2667.44L1383.46,2686.13C1383.46,2686.18 1383.46,2686.22 1383.45,2686.27L1383.45,2686.29C1383.54,2696.53 1391.88,2704.82 1402.14,2704.82C1412.45,2704.82 1420.83,2696.44 1420.83,2686.13C1420.83,2675.81 1412.45,2667.44 1402.14,2667.44C1402.14,2667.44 1402.14,2667.44 1402.14,2667.44Z"
   style="fill:rgb(210,170,69);"
   id="path58" />
                </g>
                <g
   transform="matrix(1.31347,0,0,1.03713,-441.348,-147.844)"
   id="g59">
                    <path
   d="M1426.12,2530.91C1426.12,2522.66 1420.82,2515.95 1414.31,2515.95L1341.65,2515.95C1335.13,2515.95 1329.84,2522.66 1329.84,2530.91L1329.84,2615.94C1329.84,2624.2 1335.13,2630.9 1341.65,2630.9L1414.31,2630.9C1420.82,2630.9 1426.12,2624.2 1426.12,2615.94L1426.12,2530.91Z"
   style="fill:rgb(47,47,47);"
   id="path59" />
                </g>
                <g
   transform="matrix(1.31347,0,0,1.03713,-441.348,-147.844)"
   id="g60">
                    <path
   d="M1426.12,2530.91C1426.12,2522.66 1420.82,2515.95 1414.31,2515.95L1341.65,2515.95C1335.13,2515.95 1329.84,2522.66 1329.84,2530.91L1329.84,2615.94C1329.84,2624.2 1335.13,2630.9 1341.65,2630.9L1414.31,2630.9C1420.82,2630.9 1426.12,2624.2 1426.12,2615.94L1426.12,2530.91ZM1419.77,2530.91L1419.77,2615.94C1419.77,2619.76 1417.32,2622.86 1414.31,2622.86L1341.65,2622.86C1338.63,2622.86 1336.18,2619.76 1336.18,2615.94C1336.18,2615.94 1336.18,2530.91 1336.18,2530.91C1336.18,2527.09 1338.63,2523.99 1341.65,2523.99C1341.65,2523.99 1414.31,2523.99 1414.31,2523.99C1417.32,2523.99 1419.77,2527.09 1419.77,2530.91Z"
   id="path60" />
                </g>
                <g
   transform="matrix(0.926768,0,0,1.46369,101.186,-1188.84)"
   id="g61">
                    <path
   d="M1447.65,2536.4C1447.65,2531.34 1441.17,2527.24 1433.19,2527.24L1302.76,2527.24C1294.78,2527.24 1288.3,2531.34 1288.3,2536.4L1288.3,2554.71C1288.3,2559.76 1294.78,2563.86 1302.76,2563.86L1433.19,2563.86C1441.17,2563.86 1447.65,2559.76 1447.65,2554.71L1447.65,2536.4Z"
   style="fill:rgb(70,70,70);"
   id="path61" />
                </g>
                <g
   transform="matrix(0.926768,0,0,1.46369,101.186,-1188.84)"
   id="g62">
                    <path
   d="M1447.65,2536.4C1447.65,2531.34 1441.17,2527.24 1433.19,2527.24L1302.76,2527.24C1294.78,2527.24 1288.3,2531.34 1288.3,2536.4L1288.3,2554.71C1288.3,2559.76 1294.78,2563.86 1302.76,2563.86L1433.19,2563.86C1441.17,2563.86 1447.65,2559.76 1447.65,2554.71L1447.65,2536.4ZM1438.66,2536.4L1438.66,2554.71C1438.66,2556.62 1436.21,2558.17 1433.19,2558.17L1302.76,2558.17C1299.74,2558.17 1297.29,2556.62 1297.29,2554.71L1297.29,2536.4C1297.29,2534.49 1299.74,2532.94 1302.76,2532.94C1302.76,2532.94 1433.19,2532.94 1433.19,2532.94C1436.21,2532.94 1438.66,2534.49 1438.66,2536.4Z"
   id="path62" />
                </g>
            </g>
        </g>
        <g
   id="roof"
   transform="matrix(1,0,0,1,47.7234,0)">
            <g
   transform="matrix(1.00443,0,0,1.44535,-15.6249,-5946.71)"
   id="g63">
                <path
   d="M3530.28,5208.62C3530.28,5180 3496.84,5156.76 3455.66,5156.76L462.801,5156.76C421.616,5156.76 388.179,5180 388.179,5208.62L388.179,5498.64C388.179,5527.26 421.616,5550.49 462.801,5550.49L3455.66,5550.49C3496.84,5550.49 3530.28,5527.26 3530.28,5498.64L3530.28,5208.62Z"
   style="fill:rgb(73,48,1);"
   id="path63" />
            </g>
            <g
   transform="matrix(1.00443,0,0,0.775129,-15.6249,-2490.53)"
   id="g64">
                <path
   d="M3530.28,5208.62C3530.28,5180 3512.35,5156.76 3490.26,5156.76L428.198,5156.76C406.111,5156.76 388.179,5180 388.179,5208.62L388.179,5498.64C388.179,5527.26 406.111,5550.49 428.198,5550.49L3490.26,5550.49C3512.35,5550.49 3530.28,5527.26 3530.28,5498.64L3530.28,5208.62Z"
   style="fill:rgb(132,90,4);"
   id="path64" />
            </g>
            <g
   id="shadow"
   transform="matrix(0.891266,0,0,0.383273,206.253,-395.518)">
                <path
   d="M3530.28,5208.62C3530.28,5180 3520.29,5156.76 3507.98,5156.76L410.48,5156.76C398.172,5156.76 388.179,5180 388.179,5208.62L388.179,5498.64C388.179,5527.26 398.172,5550.49 410.48,5550.49L3507.98,5550.49C3520.29,5550.49 3530.28,5527.26 3530.28,5498.64L3530.28,5208.62Z"
   style="fill:rgb(96,55,14);"
   id="path65" />
            </g>
        </g>
        <g
   id="sign-base"
   serif:id="sign base"
   transform="matrix(1,0,0,1,-8.204,-45)">
            <g
   transform="matrix(1.00537,0,0,0.239386,-633.225,712.041)"
   id="g66">
                <path
   d="M3368.65,2174.47C3368.65,2089.41 3352.21,2020.35 3331.96,2020.35L3189.49,2020.35C3169.24,2020.35 3152.79,2089.41 3152.79,2174.47L3152.79,4057.23C3152.79,4142.29 3169.24,4211.35 3189.49,4211.35L3331.96,4211.35C3352.21,4211.35 3368.65,4142.29 3368.65,4057.23L3368.65,2174.47Z"
   style="fill:rgb(160,160,160);"
   id="path66" />
            </g>
            <g
   transform="matrix(1.00537,0,0,0.239386,-2018.71,715.904)"
   id="g67">
                <path
   d="M3368.65,2174.47C3368.65,2089.41 3352.21,2020.35 3331.96,2020.35L3189.49,2020.35C3169.24,2020.35 3152.79,2089.41 3152.79,2174.47L3152.79,4057.23C3152.79,4142.29 3169.24,4211.35 3189.49,4211.35L3331.96,4211.35C3352.21,4211.35 3368.65,4142.29 3368.65,4057.23L3368.65,2174.47Z"
   style="fill:rgb(160,160,160);"
   id="path67" />
            </g>
            <g
   transform="matrix(1,0,0,1,55.9274,0)"
   id="g68">
                <path
   d="M1095.08,1461.8L1312.1,1461.8L1312.1,1236.44C1312.1,1216.08 1295.57,1199.55 1275.21,1199.55L1131.98,1199.55C1111.61,1199.55 1095.08,1216.08 1095.08,1236.44L1095.08,1461.8ZM2480.57,1461.8L2697.59,1461.8L2697.59,1232.58C2697.59,1212.22 2681.05,1195.68 2660.69,1195.68L2517.46,1195.68C2497.1,1195.68 2480.57,1212.22 2480.57,1232.58L2480.57,1461.8Z"
   style="fill:rgb(111,111,111);"
   id="path68" />
            </g>
        </g>
        <g
   id="sign"
   transform="matrix(1,0,0,1,-8.204,-45)">
            <g
   transform="matrix(1,0,0,1.04807,0,-212.924)"
   id="g69">
                <path
   d="M3408.6,721.094C3408.6,637.003 3337.05,568.732 3248.91,568.732L767.839,568.732C679.705,568.732 608.152,637.003 608.152,721.094L608.152,1170.45C608.152,1254.54 679.705,1322.81 767.839,1322.81L3248.91,1322.81C3337.05,1322.81 3408.6,1254.54 3408.6,1170.45L3408.6,721.094Z"
   style="fill:#000050;fill-opacity:1"
   id="path69" />
            </g>
            <g
   transform="matrix(1,0,0,1.04807,0,-49.4451)"
   id="g70">
                <path
   d="M3408.6,721.094C3408.6,637.003 3337.05,568.732 3248.91,568.732L767.839,568.732C679.705,568.732 608.152,637.003 608.152,721.094L608.152,1170.45C608.152,1254.54 679.705,1322.81 767.839,1322.81L3248.91,1322.81C3337.05,1322.81 3408.6,1254.54 3408.6,1170.45L3408.6,721.094Z"
   style="fill:#000070;fill-opacity:1"
   id="path70" />
            </g>
            <g
   transform="matrix(0.933347,0,0,0.797387,128.952,188.683)"
   id="g71">
                <path
   d="M3408.6,721.094C3408.6,637.003 3350.27,568.732 3278.43,568.732L738.32,568.732C666.478,568.732 608.152,637.003 608.152,721.094L608.152,1170.45C608.152,1254.54 666.478,1322.81 738.32,1322.81L3278.43,1322.81C3350.27,1322.81 3408.6,1254.54 3408.6,1170.45L3408.6,721.094Z"
   style="fill:#000050;fill-opacity:1"
   id="path71" />
            </g>
            <g
   transform="matrix(0.933347,0,0,0.704562,128.952,241.475)"
   id="g72">
                <path
   d="M3408.6,721.094C3408.6,637.003 3357.06,568.732 3293.59,568.732L723.167,568.732C659.688,568.732 608.152,637.003 608.152,721.094L608.152,1170.45C608.152,1254.54 659.688,1322.81 723.167,1322.81L3293.59,1322.81C3357.06,1322.81 3408.6,1254.54 3408.6,1170.45L3408.6,721.094Z"
   style="fill:white;"
   id="path72" />
            </g>
            <g
   id="market">
                <path
   d="M3093.67,706.63L3177.64,706.839C3218.04,706.63 3221.09,823.613 3177.64,823.933L3091.56,823.613L3091.37,1090.4L2973.4,1090.4C2973.4,1090.4 2973.21,823.613 2973.21,823.613L2887.13,823.933C2843.68,823.613 2846.73,706.63 2887.13,706.839L2971.1,706.63L3093.67,706.63ZM1055.59,788.116L1078.74,742.948C1105.95,691.037 1193.32,698.141 1210.51,742.948L1311.82,1090.4L1311.98,1118.4L1162.52,1090.4L1116.29,894.773L1055.62,948.143L1055.59,948.118L1055.56,948.143L994.887,894.773L948.655,1090.4L799.358,1118.4L799.358,1090.4L900.669,742.948C917.854,698.141 1005.22,691.037 1032.43,742.948L1055.59,788.116ZM2784.76,706.839C2825.16,706.63 2828.21,825.647 2784.76,825.966L2666.6,825.647L2666.6,876.815L2735.57,876.815C2774.73,876.815 2776.68,984.189 2735.3,984.189L2666.6,984.189L2666.6,1011.99L2784.76,1011.99C2837.72,1011.99 2837.96,1118.4 2784.76,1118.4L2548.44,1118.4L2548.44,706.63L2668.71,706.63L2784.76,706.839ZM1960.7,706.63C2036.02,706.63 2095.48,771.015 2096.15,872.84C2096.48,922.716 2080.94,964.515 2035.99,992.41L2113.21,1090.4L2113.21,1118.4L1984,1090.4L1923.25,992.521L1886.92,992.521L1886.32,1090.4L1766.51,1090.4L1766.51,807.565C1767.18,785.375 1766.15,706.63 1901.95,706.63L1960.7,706.63ZM2461.38,715.899C2474.89,725.651 2481.89,737.511 2483.33,750.612C2484.72,763.331 2486.64,788.396 2478.38,802.664C2475.19,808.163 2465.59,802.543 2461.14,808.109L2369.98,927.608L2516.55,1090.4L2516.55,1118.4L2332.67,1090.4L2271.92,992.521L2263.88,992.521L2263.28,1090.4L2143.47,1090.4L2143.47,760.776C2143.47,728.463 2169.96,706.63 2206.84,706.63C2241.53,706.63 2263.74,727.471 2263.74,760.776L2263.74,870.947L2373.89,739.54C2401,705.752 2437.44,698.611 2461.38,715.899ZM1602.04,706.63C1677.35,706.63 1736.81,796.69 1737.48,898.514L1737.48,1090.4L1591.91,1090.4L1591.31,1012.37L1541.64,1012.29L1491.96,1012.37L1491.37,1090.4L1345.79,1090.4L1345.79,898.514C1346.46,796.69 1405.92,706.63 1481.24,706.63L1602.04,706.63ZM1483,932.848L1593.1,932.848C1592.79,865.997 1587.2,830.27 1537.74,829.715C1485.36,829.127 1482.57,873.208 1483,932.848ZM1924.41,813.671C1954.88,813.671 1979.62,837.679 1979.62,867.25C1979.62,896.821 1954.88,920.829 1924.41,920.829C1893.94,920.829 1869.2,896.821 1869.2,867.25C1869.2,837.679 1893.94,813.671 1924.41,813.671Z"
   style="fill:#000070;fill-opacity:1"
   id="path73" />
                <g
   transform="matrix(1,0,0,1,-16,0)"
   id="g74">
                    <path
   d="M1071.59,816.116L1094.74,770.948C1121.95,719.037 1209.32,726.141 1226.51,770.948L1327.82,1118.4L1178.52,1118.4L1132.29,922.773L1071.62,976.143L1071.59,976.118L1071.56,976.143L1010.89,922.773L964.655,1118.4L815.358,1118.4L916.669,770.948C933.854,726.141 1021.22,719.037 1048.43,770.948L1071.59,816.116Z"
   style="fill:#000080;fill-opacity:1"
   id="path74" />
                </g>
                <g
   transform="matrix(1,0,0,1,-16,0)"
   id="g75">
                    <path
   d="M1618.04,734.63C1693.35,734.63 1752.81,824.69 1753.48,926.514L1753.48,1118.4L1607.91,1118.4L1607.31,1040.37L1557.64,1040.29L1507.96,1040.37L1507.37,1118.4L1361.79,1118.4L1361.79,926.514C1362.46,824.69 1421.92,734.63 1497.24,734.63L1618.04,734.63ZM1499,960.848L1609.1,960.848C1608.79,893.997 1603.2,858.27 1553.74,857.715C1501.36,857.127 1498.57,901.208 1499,960.848Z"
   style="fill:#000080;fill-opacity:1"
   id="path75" />
                </g>
                <g
   transform="matrix(1,0,0,1,-16,0)"
   id="g76">
                    <path
   d="M1976.7,734.63C2052.02,734.63 2111.48,799.015 2112.15,900.84C2112.48,950.716 2096.94,992.515 2051.99,1020.41L2129.21,1118.4L2000,1118.4L1939.25,1020.52L1902.92,1020.52L1902.32,1118.4L1782.51,1118.4L1782.51,835.565C1783.18,813.375 1782.15,734.63 1917.95,734.63L1976.7,734.63ZM1940.41,841.671C1970.88,841.671 1995.62,865.679 1995.62,895.25C1995.62,924.821 1970.88,948.829 1940.41,948.829C1909.94,948.829 1885.2,924.821 1885.2,895.25C1885.2,865.679 1909.94,841.671 1940.41,841.671Z"
   style="fill:#000080;fill-opacity:1"
   id="path76" />
                </g>
                <g
   transform="matrix(1,0,0,1,360.962,0)"
   id="g77">
                    <path
   d="M2100.42,743.899C2132.09,766.769 2128.02,801.227 2100.18,836.109L2009.02,955.608L2155.59,1118.4L1971.7,1118.4L1910.96,1020.52L1902.92,1020.52L1902.32,1118.4L1782.51,1118.4L1782.51,788.776C1782.51,756.463 1809,734.63 1845.88,734.63C1880.57,734.63 1902.78,755.471 1902.78,788.776L1902.78,898.947L2012.93,767.54C2040.04,733.752 2076.48,726.611 2100.42,743.899Z"
   style="fill:#000080;fill-opacity:1"
   id="path77" />
                </g>
                <g
   transform="matrix(1,0,0,1,765.928,0)"
   id="g78">
                    <path
   d="M2018.84,734.839C2059.23,734.63 2062.28,825.647 2018.84,825.966L1900.67,825.647L1900.67,904.815L1969.64,904.815C2008.8,904.815 2010.75,984.189 1969.37,984.189L1900.67,984.189L1900.67,1039.99L2018.84,1039.99C2071.79,1039.99 2072.03,1118.4 2018.84,1118.4L1782.51,1118.4L1782.51,734.63L1902.78,734.63L2018.84,734.839Z"
   style="fill:#000080;fill-opacity:1"
   id="path78" />
                </g>
                <g
   transform="matrix(1,0,0,1,-16,0)"
   id="g79">
                    <path
   d="M3109.67,734.63L3193.64,734.839C3234.04,734.63 3237.09,825.647 3193.64,825.966L3107.56,825.647L3107.37,1118.4L2989.4,1118.4C2989.4,1118.4 2989.21,825.647 2989.21,825.647L2903.13,825.966C2859.68,825.647 2862.73,734.63 2903.13,734.839L2987.1,734.63L3109.67,734.63Z"
   style="fill:#000080;fill-opacity:1"
   id="path79" />
                </g>
            </g>
        </g>
    </g>
</svg>
