<?xml version="1.0" encoding="UTF-8" standalone="no"?>
<!-- Created with Inkscape (http://www.inkscape.org/) -->
<svg width="220.27431mm" height="220.27431mm" viewBox="0 0 220.2743 220.27431" version="1.1" id="svg1220" inkscape:version="1.2 (dc2aedaf03, 2022-05-15)" sodipodi:docname="wheel_lights.svg" xmlns:inkscape="http://www.inkscape.org/namespaces/inkscape" xmlns:sodipodi="http://sodipodi.sourceforge.net/DTD/sodipodi-0.dtd" xmlns="http://www.w3.org/2000/svg" xmlns:svg="http://www.w3.org/2000/svg">
  <sodipodi:namedview id="namedview1222" pagecolor="#505050" bordercolor="#ffffff" borderopacity="1" inkscape:showpageshadow="0" inkscape:pageopacity="0" inkscape:pagecheckerboard="1" inkscape:deskcolor="#505050" inkscape:document-units="mm" showgrid="false" inkscape:zoom="0.57848045" inkscape:cx="337.95437" inkscape:cy="423.52338" inkscape:window-width="1366" inkscape:window-height="705" inkscape:window-x="-8" inkscape:window-y="-8" inkscape:window-maximized="1" inkscape:current-layer="layer1"/>
  <defs id="defs1217"/>
  <g inkscape:label="Layer 1" inkscape:groupmode="layer" id="layer1" transform="translate(63.74858,0.38858458)">
    <g id="g57122" transform="matrix(0.16007291,0,0,0.16007291,-85.954209,-30.204658)" style="clip-rule:evenodd;fill-rule:evenodd;stroke-linejoin:round;stroke-miterlimit:2">
      <g id="g57040">
        <path id="path15596" style="fill:#f6ea3c;fill-opacity:1;stroke-width:0.175759" d="m 865.05502,224.54974 a 38.284167,38.284167 0 0 1 -38.2841,38.28417 38.284167,38.284167 0 0 1 -38.2842,-38.28417 38.284167,38.284167 0 0 1 38.2842,-38.28416 38.284167,38.284167 0 0 1 38.2841,38.28416 z"/>
        <path id="circle17305" style="fill:#fbf5a7;stroke-width:0.128061" d="m 854.66542,229.82252 a 27.894526,27.894526 0 0 1 -27.8945,27.89453 27.894526,27.894526 0 0 1 -27.8946,-27.89453 27.894526,27.894526 0 0 1 27.8946,-27.89453 27.894526,27.894526 0 0 1 27.8945,27.89453 z"/>
        <path id="circle17301" style="fill:#fdfbd8;stroke-width:0.0962628" d="m 847.73902,233.3377 a 20.9681,20.9681 0 0 1 -20.9681,20.9681 20.9681,20.9681 0 0 1 -20.9682,-20.9681 20.9681,20.9681 0 0 1 20.9682,-20.9681 20.9681,20.9681 0 0 1 20.9681,20.9681 z"/>
      </g>
      <g transform="rotate(-18,2093.649,2200.8577)" class="UnoptimicedTransforms" id="g56888">
        <path style="fill:#f6ea3c;fill-opacity:1;stroke-width:0.175759" id="path56882" d="m 1336.9867,-102.01285 c 0,21.143738 -17.1404,38.284136 -38.2841,38.284173 -21.1438,1.8e-5 -38.2842,-17.140396 -38.2842,-38.284173 0,-21.14377 17.1404,-38.28418 38.2842,-38.28416 21.1437,4e-5 38.2841,17.14043 38.2841,38.28416 z"/>
        <path style="fill:#fbf5a7;stroke-width:0.128061" id="path56884" d="m 1326.5971,-96.74007 c 0,15.405713 -12.4888,27.894516 -27.8945,27.89453 -15.4058,4.1e-5 -27.8946,-12.488778 -27.8946,-27.89453 0,-15.40575 12.4888,-27.89457 27.8946,-27.89453 15.4057,1e-5 27.8945,12.48882 27.8945,27.89453 z"/>
        <path style="fill:#fdfbd8;stroke-width:0.0962628" id="path56886" d="m 1319.6707,-93.224887 c 0,11.58036 -9.3877,20.968096 -20.9681,20.968096 -11.5804,5.5e-5 -20.9682,-9.387697 -20.9682,-20.968096 0,-11.580403 9.3878,-20.968163 20.9682,-20.968103 11.5804,0 20.9681,9.38774 20.9681,20.968103 z"/>
      </g>
      <g transform="rotate(-36,1565.2596,1437.2562)" class="UnoptimicedTransforms" id="g56896">
        <path style="fill:#f6ea3c;fill-opacity:1;stroke-width:0.175759" id="path56890" d="m 1336.9867,-102.01285 c 0,21.143738 -17.1404,38.284136 -38.2841,38.284173 -21.1438,1.8e-5 -38.2842,-17.140396 -38.2842,-38.284173 0,-21.14377 17.1404,-38.28418 38.2842,-38.28416 21.1437,4e-5 38.2841,17.14043 38.2841,38.28416 z"/>
        <path style="fill:#fbf5a7;stroke-width:0.128061" id="path56892" d="m 1326.5971,-96.74007 c 0,15.405713 -12.4888,27.894516 -27.8945,27.89453 -15.4058,4.1e-5 -27.8946,-12.488778 -27.8946,-27.89453 0,-15.40575 12.4888,-27.89457 27.8946,-27.89453 15.4057,1e-5 27.8945,12.48882 27.8945,27.89453 z"/>
        <path style="fill:#fdfbd8;stroke-width:0.0962628" id="path56894" d="m 1319.6707,-93.224887 c 0,11.58036 -9.3877,20.968096 -20.9681,20.968096 -11.5804,5.5e-5 -20.9682,-9.387697 -20.9682,-20.968096 0,-11.580403 9.3878,-20.968163 20.9682,-20.968103 11.5804,0 20.9681,9.38774 20.9681,20.968103 z"/>
      </g>
      <g transform="rotate(-54,1383.189,1174.137)" class="UnoptimicedTransforms" id="g56904">
        <path style="fill:#f6ea3c;fill-opacity:1;stroke-width:0.175759" id="path56898" d="m 1336.9867,-102.01285 c 0,21.143738 -17.1404,38.284136 -38.2841,38.284173 -21.1438,1.8e-5 -38.2842,-17.140396 -38.2842,-38.284173 0,-21.14377 17.1404,-38.28418 38.2842,-38.28416 21.1437,4e-5 38.2841,17.14043 38.2841,38.28416 z"/>
        <path style="fill:#fbf5a7;stroke-width:0.128061" id="path56900" d="m 1326.5971,-96.74007 c 0,15.405713 -12.4888,27.894516 -27.8945,27.89453 -15.4058,4.1e-5 -27.8946,-12.488778 -27.8946,-27.89453 0,-15.40575 12.4888,-27.89457 27.8946,-27.89453 15.4057,1e-5 27.8945,12.48882 27.8945,27.89453 z"/>
        <path style="fill:#fdfbd8;stroke-width:0.0962628" id="path56902" d="m 1319.6707,-93.224887 c 0,11.58036 -9.3877,20.968096 -20.9681,20.968096 -11.5804,5.5e-5 -20.9682,-9.387697 -20.9682,-20.968096 0,-11.580403 9.3878,-20.968163 20.9682,-20.968103 11.5804,0 20.9681,9.38774 20.9681,20.968103 z"/>
      </g>
      <g transform="rotate(-72,1287.4689,1035.8071)" class="UnoptimicedTransforms" id="g56912">
        <path style="fill:#f6ea3c;fill-opacity:1;stroke-width:0.175759" id="path56906" d="m 1336.9867,-102.01285 c 0,21.143738 -17.1404,38.284136 -38.2841,38.284173 -21.1438,1.8e-5 -38.2842,-17.140396 -38.2842,-38.284173 0,-21.14377 17.1404,-38.28418 38.2842,-38.28416 21.1437,4e-5 38.2841,17.14043 38.2841,38.28416 z"/>
        <path style="fill:#fbf5a7;stroke-width:0.128061" id="path56908" d="m 1326.5971,-96.74007 c 0,15.405713 -12.4888,27.894516 -27.8945,27.89453 -15.4058,4.1e-5 -27.8946,-12.488778 -27.8946,-27.89453 0,-15.40575 12.4888,-27.89457 27.8946,-27.89453 15.4057,1e-5 27.8945,12.48882 27.8945,27.89453 z"/>
        <path style="fill:#fdfbd8;stroke-width:0.0962628" id="path56910" d="m 1319.6707,-93.224887 c 0,11.58036 -9.3877,20.968096 -20.9681,20.968096 -11.5804,5.5e-5 -20.9682,-9.387697 -20.9682,-20.968096 0,-11.580403 9.3878,-20.968163 20.9682,-20.968103 11.5804,0 20.9681,9.38774 20.9681,20.968103 z"/>
      </g>
      <g transform="rotate(-90,1226.0128,946.99382)" class="UnoptimicedTransforms" id="g56920">
        <path style="fill:#f6ea3c;fill-opacity:1;stroke-width:0.175759" id="path56914" d="m 1336.9867,-102.01285 c 0,21.143738 -17.1404,38.284136 -38.2841,38.284173 -21.1438,1.8e-5 -38.2842,-17.140396 -38.2842,-38.284173 0,-21.14377 17.1404,-38.28418 38.2842,-38.28416 21.1437,4e-5 38.2841,17.14043 38.2841,38.28416 z"/>
        <path style="fill:#fbf5a7;stroke-width:0.128061" id="path56916" d="m 1326.5971,-96.74007 c 0,15.405713 -12.4888,27.894516 -27.8945,27.89453 -15.4058,4.1e-5 -27.8946,-12.488778 -27.8946,-27.89453 0,-15.40575 12.4888,-27.89457 27.8946,-27.89453 15.4057,1e-5 27.8945,12.48882 27.8945,27.89453 z"/>
        <path style="fill:#fdfbd8;stroke-width:0.0962628" id="path56918" d="m 1319.6707,-93.224887 c 0,11.58036 -9.3877,20.968096 -20.9681,20.968096 -11.5804,5.5e-5 -20.9682,-9.387697 -20.9682,-20.968096 0,-11.580403 9.3878,-20.968163 20.9682,-20.968103 11.5804,0 20.9681,9.38774 20.9681,20.968103 z"/>
      </g>
      <g transform="rotate(-108,1181.3623,882.46719)" class="UnoptimicedTransforms" id="g56928">
        <path style="fill:#f6ea3c;fill-opacity:1;stroke-width:0.175759" id="path56922" d="m 1336.9867,-102.01285 c 0,21.143738 -17.1404,38.284136 -38.2841,38.284173 -21.1438,1.8e-5 -38.2842,-17.140396 -38.2842,-38.284173 0,-21.14377 17.1404,-38.28418 38.2842,-38.28416 21.1437,4e-5 38.2841,17.14043 38.2841,38.28416 z"/>
        <path style="fill:#fbf5a7;stroke-width:0.128061" id="path56924" d="m 1326.5971,-96.74007 c 0,15.405713 -12.4888,27.894516 -27.8945,27.89453 -15.4058,4.1e-5 -27.8946,-12.488778 -27.8946,-27.89453 0,-15.40575 12.4888,-27.89457 27.8946,-27.89453 15.4057,1e-5 27.8945,12.48882 27.8945,27.89453 z"/>
        <path style="fill:#fdfbd8;stroke-width:0.0962628" id="path56926" d="m 1319.6707,-93.224887 c 0,11.58036 -9.3877,20.968096 -20.9681,20.968096 -11.5804,5.5e-5 -20.9682,-9.387697 -20.9682,-20.968096 0,-11.580403 9.3878,-20.968163 20.9682,-20.968103 11.5804,0 20.9681,9.38774 20.9681,20.968103 z"/>
      </g>
      <g transform="rotate(-126,1145.9274,831.25858)" class="UnoptimicedTransforms" id="g56936">
        <path style="fill:#f6ea3c;fill-opacity:1;stroke-width:0.175759" id="path56930" d="m 1336.9867,-102.01285 c 0,21.143738 -17.1404,38.284136 -38.2841,38.284173 -21.1438,1.8e-5 -38.2842,-17.140396 -38.2842,-38.284173 0,-21.14377 17.1404,-38.28418 38.2842,-38.28416 21.1437,4e-5 38.2841,17.14043 38.2841,38.28416 z"/>
        <path style="fill:#fbf5a7;stroke-width:0.128061" id="path56932" d="m 1326.5971,-96.74007 c 0,15.405713 -12.4888,27.894516 -27.8945,27.89453 -15.4058,4.1e-5 -27.8946,-12.488778 -27.8946,-27.89453 0,-15.40575 12.4888,-27.89457 27.8946,-27.89453 15.4057,1e-5 27.8945,12.48882 27.8945,27.89453 z"/>
        <path style="fill:#fdfbd8;stroke-width:0.0962628" id="path56934" d="m 1319.6707,-93.224887 c 0,11.58036 -9.3877,20.968096 -20.9681,20.968096 -11.5804,5.5e-5 -20.9682,-9.387697 -20.9682,-20.968096 0,-11.580403 9.3878,-20.968163 20.9682,-20.968103 11.5804,0 20.9681,9.38774 20.9681,20.968103 z"/>
      </g>
      <g transform="rotate(-144,1115.7848,787.69792)" class="UnoptimicedTransforms" id="g56944">
        <path style="fill:#f6ea3c;fill-opacity:1;stroke-width:0.175759" id="path56938" d="m 1336.9867,-102.01285 c 0,21.143738 -17.1404,38.284136 -38.2841,38.284173 -21.1438,1.8e-5 -38.2842,-17.140396 -38.2842,-38.284173 0,-21.14377 17.1404,-38.28418 38.2842,-38.28416 21.1437,4e-5 38.2841,17.14043 38.2841,38.28416 z"/>
        <path style="fill:#fbf5a7;stroke-width:0.128061" id="path56940" d="m 1326.5971,-96.74007 c 0,15.405713 -12.4888,27.894516 -27.8945,27.89453 -15.4058,4.1e-5 -27.8946,-12.488778 -27.8946,-27.89453 0,-15.40575 12.4888,-27.89457 27.8946,-27.89453 15.4057,1e-5 27.8945,12.48882 27.8945,27.89453 z"/>
        <path style="fill:#fdfbd8;stroke-width:0.0962628" id="path56942" d="m 1319.6707,-93.224887 c 0,11.58036 -9.3877,20.968096 -20.9681,20.968096 -11.5804,5.5e-5 -20.9682,-9.387697 -20.9682,-20.968096 0,-11.580403 9.3878,-20.968163 20.9682,-20.968103 11.5804,0 20.9681,9.38774 20.9681,20.968103 z"/>
      </g>
      <g transform="rotate(-162,1088.5927,748.40129)" class="UnoptimicedTransforms" id="g56952">
        <path style="fill:#f6ea3c;fill-opacity:1;stroke-width:0.175759" id="path56946" d="m 1336.9867,-102.01285 c 0,21.143738 -17.1404,38.284136 -38.2841,38.284173 -21.1438,1.8e-5 -38.2842,-17.140396 -38.2842,-38.284173 0,-21.14377 17.1404,-38.28418 38.2842,-38.28416 21.1437,4e-5 38.2841,17.14043 38.2841,38.28416 z"/>
        <path style="fill:#fbf5a7;stroke-width:0.128061" id="path56948" d="m 1326.5971,-96.74007 c 0,15.405713 -12.4888,27.894516 -27.8945,27.89453 -15.4058,4.1e-5 -27.8946,-12.488778 -27.8946,-27.89453 0,-15.40575 12.4888,-27.89457 27.8946,-27.89453 15.4057,1e-5 27.8945,12.48882 27.8945,27.89453 z"/>
        <path style="fill:#fdfbd8;stroke-width:0.0962628" id="path56950" d="m 1319.6707,-93.224887 c 0,11.58036 -9.3877,20.968096 -20.9681,20.968096 -11.5804,5.5e-5 -20.9682,-9.387697 -20.9682,-20.968096 0,-11.580403 9.3878,-20.968163 20.9682,-20.968103 11.5804,0 20.9681,9.38774 20.9681,20.968103 z"/>
      </g>
      <g transform="rotate(180,1062.7315,711.02797)" class="UnoptimicedTransforms" id="g56960">
        <path style="fill:#f6ea3c;fill-opacity:1;stroke-width:0.175759" id="path56954" d="m 1336.9867,-102.01285 c 0,21.143738 -17.1404,38.284136 -38.2841,38.284173 -21.1438,1.8e-5 -38.2842,-17.140396 -38.2842,-38.284173 0,-21.14377 17.1404,-38.28418 38.2842,-38.28416 21.1437,4e-5 38.2841,17.14043 38.2841,38.28416 z"/>
        <path style="fill:#fbf5a7;stroke-width:0.128061" id="path56956" d="m 1326.5971,-96.74007 c 0,15.405713 -12.4888,27.894516 -27.8945,27.89453 -15.4058,4.1e-5 -27.8946,-12.488778 -27.8946,-27.89453 0,-15.40575 12.4888,-27.89457 27.8946,-27.89453 15.4057,1e-5 27.8945,12.48882 27.8945,27.89453 z"/>
        <path style="fill:#fdfbd8;stroke-width:0.0962628" id="path56958" d="m 1319.6707,-93.224887 c 0,11.58036 -9.3877,20.968096 -20.9681,20.968096 -11.5804,5.5e-5 -20.9682,-9.387697 -20.9682,-20.968096 0,-11.580403 9.3878,-20.968163 20.9682,-20.968103 11.5804,0 20.9681,9.38774 20.9681,20.968103 z"/>
      </g>
      <g transform="rotate(162,1036.8702,673.65466)" class="UnoptimicedTransforms" id="g56968">
        <path style="fill:#f6ea3c;fill-opacity:1;stroke-width:0.175759" id="path56962" d="m 1336.9867,-102.01285 c 0,21.143738 -17.1404,38.284136 -38.2841,38.284173 -21.1438,1.8e-5 -38.2842,-17.140396 -38.2842,-38.284173 0,-21.14377 17.1404,-38.28418 38.2842,-38.28416 21.1437,4e-5 38.2841,17.14043 38.2841,38.28416 z"/>
        <path style="fill:#fbf5a7;stroke-width:0.128061" id="path56964" d="m 1326.5971,-96.74007 c 0,15.405713 -12.4888,27.894516 -27.8945,27.89453 -15.4058,4.1e-5 -27.8946,-12.488778 -27.8946,-27.89453 0,-15.40575 12.4888,-27.89457 27.8946,-27.89453 15.4057,1e-5 27.8945,12.48882 27.8945,27.89453 z"/>
        <path style="fill:#fdfbd8;stroke-width:0.0962628" id="path56966" d="m 1319.6707,-93.224887 c 0,11.58036 -9.3877,20.968096 -20.9681,20.968096 -11.5804,5.5e-5 -20.9682,-9.387697 -20.9682,-20.968096 0,-11.580403 9.3878,-20.968163 20.9682,-20.968103 11.5804,0 20.9681,9.38774 20.9681,20.968103 z"/>
      </g>
      <g transform="rotate(144,1009.6782,634.35803)" class="UnoptimicedTransforms" id="g56976">
        <path style="fill:#f6ea3c;fill-opacity:1;stroke-width:0.175759" id="path56970" d="m 1336.9867,-102.01285 c 0,21.143738 -17.1404,38.284136 -38.2841,38.284173 -21.1438,1.8e-5 -38.2842,-17.140396 -38.2842,-38.284173 0,-21.14377 17.1404,-38.28418 38.2842,-38.28416 21.1437,4e-5 38.2841,17.14043 38.2841,38.28416 z"/>
        <path style="fill:#fbf5a7;stroke-width:0.128061" id="path56972" d="m 1326.5971,-96.74007 c 0,15.405713 -12.4888,27.894516 -27.8945,27.89453 -15.4058,4.1e-5 -27.8946,-12.488778 -27.8946,-27.89453 0,-15.40575 12.4888,-27.89457 27.8946,-27.89453 15.4057,1e-5 27.8945,12.48882 27.8945,27.89453 z"/>
        <path style="fill:#fdfbd8;stroke-width:0.0962628" id="path56974" d="m 1319.6707,-93.224887 c 0,11.58036 -9.3877,20.968096 -20.9681,20.968096 -11.5804,5.5e-5 -20.9682,-9.387697 -20.9682,-20.968096 0,-11.580403 9.3878,-20.968163 20.9682,-20.968103 11.5804,0 20.9681,9.38774 20.9681,20.968103 z"/>
      </g>
      <g transform="rotate(126,979.53548,590.79737)" class="UnoptimicedTransforms" id="g56984">
        <path style="fill:#f6ea3c;fill-opacity:1;stroke-width:0.175759" id="path56978" d="m 1336.9867,-102.01285 c 0,21.143738 -17.1404,38.284136 -38.2841,38.284173 -21.1438,1.8e-5 -38.2842,-17.140396 -38.2842,-38.284173 0,-21.14377 17.1404,-38.28418 38.2842,-38.28416 21.1437,4e-5 38.2841,17.14043 38.2841,38.28416 z"/>
        <path style="fill:#fbf5a7;stroke-width:0.128061" id="path56980" d="m 1326.5971,-96.74007 c 0,15.405713 -12.4888,27.894516 -27.8945,27.89453 -15.4058,4.1e-5 -27.8946,-12.488778 -27.8946,-27.89453 0,-15.40575 12.4888,-27.89457 27.8946,-27.89453 15.4057,1e-5 27.8945,12.48882 27.8945,27.89453 z"/>
        <path style="fill:#fdfbd8;stroke-width:0.0962628" id="path56982" d="m 1319.6707,-93.224887 c 0,11.58036 -9.3877,20.968096 -20.9681,20.968096 -11.5804,5.5e-5 -20.9682,-9.387697 -20.9682,-20.968096 0,-11.580403 9.3878,-20.968163 20.9682,-20.968103 11.5804,0 20.9681,9.38774 20.9681,20.968103 z"/>
      </g>
      <g transform="rotate(108,944.10066,539.58876)" class="UnoptimicedTransforms" id="g56992">
        <path style="fill:#f6ea3c;fill-opacity:1;stroke-width:0.175759" id="path56986" d="m 1336.9867,-102.01285 c 0,21.143738 -17.1404,38.284136 -38.2841,38.284173 -21.1438,1.8e-5 -38.2842,-17.140396 -38.2842,-38.284173 0,-21.14377 17.1404,-38.28418 38.2842,-38.28416 21.1437,4e-5 38.2841,17.14043 38.2841,38.28416 z"/>
        <path style="fill:#fbf5a7;stroke-width:0.128061" id="path56988" d="m 1326.5971,-96.74007 c 0,15.405713 -12.4888,27.894516 -27.8945,27.89453 -15.4058,4.1e-5 -27.8946,-12.488778 -27.8946,-27.89453 0,-15.40575 12.4888,-27.89457 27.8946,-27.89453 15.4057,1e-5 27.8945,12.48882 27.8945,27.89453 z"/>
        <path style="fill:#fdfbd8;stroke-width:0.0962628" id="path56990" d="m 1319.6707,-93.224887 c 0,11.58036 -9.3877,20.968096 -20.9681,20.968096 -11.5804,5.5e-5 -20.9682,-9.387697 -20.9682,-20.968096 0,-11.580403 9.3878,-20.968163 20.9682,-20.968103 11.5804,0 20.9681,9.38774 20.9681,20.968103 z"/>
      </g>
      <g transform="rotate(90,899.45017,475.06213)" class="UnoptimicedTransforms" id="g57000">
        <path style="fill:#f6ea3c;fill-opacity:1;stroke-width:0.175759" id="path56994" d="m 1336.9867,-102.01285 c 0,21.143738 -17.1404,38.284136 -38.2841,38.284173 -21.1438,1.8e-5 -38.2842,-17.140396 -38.2842,-38.284173 0,-21.14377 17.1404,-38.28418 38.2842,-38.28416 21.1437,4e-5 38.2841,17.14043 38.2841,38.28416 z"/>
        <path style="fill:#fbf5a7;stroke-width:0.128061" id="path56996" d="m 1326.5971,-96.74007 c 0,15.405713 -12.4888,27.894516 -27.8945,27.89453 -15.4058,4.1e-5 -27.8946,-12.488778 -27.8946,-27.89453 0,-15.40575 12.4888,-27.89457 27.8946,-27.89453 15.4057,1e-5 27.8945,12.48882 27.8945,27.89453 z"/>
        <path style="fill:#fdfbd8;stroke-width:0.0962628" id="path56998" d="m 1319.6707,-93.224887 c 0,11.58036 -9.3877,20.968096 -20.9681,20.968096 -11.5804,5.5e-5 -20.9682,-9.387697 -20.9682,-20.968096 0,-11.580403 9.3878,-20.968163 20.9682,-20.968103 11.5804,0 20.9681,9.38774 20.9681,20.968103 z"/>
      </g>
      <g transform="rotate(72,837.99404,386.24886)" class="UnoptimicedTransforms" id="g57008">
        <path style="fill:#f6ea3c;fill-opacity:1;stroke-width:0.175759" id="path57002" d="m 1336.9867,-102.01285 c 0,21.143738 -17.1404,38.284136 -38.2841,38.284173 -21.1438,1.8e-5 -38.2842,-17.140396 -38.2842,-38.284173 0,-21.14377 17.1404,-38.28418 38.2842,-38.28416 21.1437,4e-5 38.2841,17.14043 38.2841,38.28416 z"/>
        <path style="fill:#fbf5a7;stroke-width:0.128061" id="path57004" d="m 1326.5971,-96.74007 c 0,15.405713 -12.4888,27.894516 -27.8945,27.89453 -15.4058,4.1e-5 -27.8946,-12.488778 -27.8946,-27.89453 0,-15.40575 12.4888,-27.89457 27.8946,-27.89453 15.4057,1e-5 27.8945,12.48882 27.8945,27.89453 z"/>
        <path style="fill:#fdfbd8;stroke-width:0.0962628" id="path57006" d="m 1319.6707,-93.224887 c 0,11.58036 -9.3877,20.968096 -20.9681,20.968096 -11.5804,5.5e-5 -20.9682,-9.387697 -20.9682,-20.968096 0,-11.580403 9.3878,-20.968163 20.9682,-20.968103 11.5804,0 20.9681,9.38774 20.9681,20.968103 z"/>
      </g>
      <g transform="rotate(54,742.27388,247.91894)" class="UnoptimicedTransforms" id="g57016">
        <path style="fill:#f6ea3c;fill-opacity:1;stroke-width:0.175759" id="path57010" d="m 1336.9867,-102.01285 c 0,21.143738 -17.1404,38.284136 -38.2841,38.284173 -21.1438,1.8e-5 -38.2842,-17.140396 -38.2842,-38.284173 0,-21.14377 17.1404,-38.28418 38.2842,-38.28416 21.1437,4e-5 38.2841,17.14043 38.2841,38.28416 z"/>
        <path style="fill:#fbf5a7;stroke-width:0.128061" id="path57012" d="m 1326.5971,-96.74007 c 0,15.405713 -12.4888,27.894516 -27.8945,27.89453 -15.4058,4.1e-5 -27.8946,-12.488778 -27.8946,-27.89453 0,-15.40575 12.4888,-27.89457 27.8946,-27.89453 15.4057,1e-5 27.8945,12.48882 27.8945,27.89453 z"/>
        <path style="fill:#fdfbd8;stroke-width:0.0962628" id="path57014" d="m 1319.6707,-93.224887 c 0,11.58036 -9.3877,20.968096 -20.9681,20.968096 -11.5804,5.5e-5 -20.9682,-9.387697 -20.9682,-20.968096 0,-11.580403 9.3878,-20.968163 20.9682,-20.968103 11.5804,0 20.9681,9.38774 20.9681,20.968103 z"/>
      </g>
      <g transform="rotate(36,560.20331,-15.200206)" class="UnoptimicedTransforms" id="g57024">
        <path style="fill:#f6ea3c;fill-opacity:1;stroke-width:0.175759" id="path57018" d="m 1336.9867,-102.01285 c 0,21.143738 -17.1404,38.284136 -38.2841,38.284173 -21.1438,1.8e-5 -38.2842,-17.140396 -38.2842,-38.284173 0,-21.14377 17.1404,-38.28418 38.2842,-38.28416 21.1437,4e-5 38.2841,17.14043 38.2841,38.28416 z"/>
        <path style="fill:#fbf5a7;stroke-width:0.128061" id="path57020" d="m 1326.5971,-96.74007 c 0,15.405713 -12.4888,27.894516 -27.8945,27.89453 -15.4058,4.1e-5 -27.8946,-12.488778 -27.8946,-27.89453 0,-15.40575 12.4888,-27.89457 27.8946,-27.89453 15.4057,1e-5 27.8945,12.48882 27.8945,27.89453 z"/>
        <path style="fill:#fdfbd8;stroke-width:0.0962628" id="path57022" d="m 1319.6707,-93.224887 c 0,11.58036 -9.3877,20.968096 -20.9681,20.968096 -11.5804,5.5e-5 -20.9682,-9.387697 -20.9682,-20.968096 0,-11.580403 9.3878,-20.968163 20.9682,-20.968103 11.5804,0 20.9681,9.38774 20.9681,20.968103 z"/>
      </g>
      <g transform="rotate(18,31.813936,-778.8017)" class="UnoptimicedTransforms" id="g57032">
        <path style="fill:#f6ea3c;fill-opacity:1;stroke-width:0.175759" id="path57026" d="m 1336.9867,-102.01285 c 0,21.143738 -17.1404,38.284136 -38.2841,38.284173 -21.1438,1.8e-5 -38.2842,-17.140396 -38.2842,-38.284173 0,-21.14377 17.1404,-38.28418 38.2842,-38.28416 21.1437,4e-5 38.2841,17.14043 38.2841,38.28416 z"/>
        <path style="fill:#fbf5a7;stroke-width:0.128061" id="path57028" d="m 1326.5971,-96.74007 c 0,15.405713 -12.4888,27.894516 -27.8945,27.89453 -15.4058,4.1e-5 -27.8946,-12.488778 -27.8946,-27.89453 0,-15.40575 12.4888,-27.89457 27.8946,-27.89453 15.4057,1e-5 27.8945,12.48882 27.8945,27.89453 z"/>
        <path style="fill:#fdfbd8;stroke-width:0.0962628" id="path57030" d="m 1319.6707,-93.224887 c 0,11.58036 -9.3877,20.968096 -20.9681,20.968096 -11.5804,5.5e-5 -20.9682,-9.387697 -20.9682,-20.968096 0,-11.580403 9.3878,-20.968163 20.9682,-20.968103 11.5804,0 20.9681,9.38774 20.9681,20.968103 z"/>
      </g>
    </g>
    <path id="rect6097" style="clip-rule:evenodd;display:inline;fill:#8200b9;fill-opacity:1;fill-rule:evenodd;stroke-width:0.254504;stroke-linejoin:round;stroke-miterlimit:2;paint-order:stroke fill markers;stop-color:#000000" d="m -24.567792,36.691112 a 102.09329,102.09329 0 0 0 -31.136843,73.057198 102.09329,102.09329 0 0 0 0.590592,8.25858 H 33.487662 V 36.691112 Z"/>
    <path id="rect4835" style="clip-rule:evenodd;display:inline;fill:#3080ff;fill-rule:evenodd;stroke-width:0.221434;stroke-linejoin:round;stroke-miterlimit:2;paint-order:stroke fill markers;stop-color:#000000" d="m 19.79653,130.45306 -51.385752,45.05559 a 102.09329,102.09329 0 0 0 77.977957,36.33303 102.09329,102.09329 0 0 0 22.077264,-2.68095 l -17.968457,-67.9207 z"/>
    <path id="rect2581" style="clip-rule:evenodd;fill:#adf406;fill-opacity:1;fill-rule:evenodd;stroke-width:0.221434;stroke-linejoin:round;stroke-miterlimit:2;paint-order:stroke fill markers;stop-color:#000000" d="m 59.545239,99.150822 v 87.541838 h 53.912881 a 102.09329,102.09329 0 0 0 35.02399,-76.94435 102.09329,102.09329 0 0 0 -0.56465,-10.597488 z"/>
    <path id="rect929" style="clip-rule:evenodd;fill:#f99336;fill-opacity:1;fill-rule:evenodd;stroke-width:0.221434;stroke-linejoin:round;stroke-miterlimit:2;paint-order:stroke fill markers;stop-color:#000000" d="m 46.388735,7.6552583 a 102.09329,102.09329 0 0 0 -3.88433,0.2776299 L 37.220044,83.424047 82.017375,102.00998 129.4569,50.4454 A 102.09329,102.09329 0 0 0 46.388735,7.6552583 Z"/>
    <path id="path5279" style="clip-rule:evenodd;fill:#0038b2;fill-opacity:1;fill-rule:evenodd;stroke-width:0.221434;stroke-linejoin:round;stroke-miterlimit:2;paint-order:stroke fill markers;stop-color:#000000" d="m -26.127587,170.71982 c 0.77851,0.92475 1.561235,1.84595 2.373929,2.74005 1.020133,1.12231 2.066769,2.21996 3.138979,3.29216 1.072211,1.07222 2.169877,2.11915 3.292174,3.13931 1.122296,1.02013 2.269352,2.01374 3.439744,2.97982 1.170393,0.96607 2.364254,1.90444 3.580749,2.81447 1.2164938,0.91001 2.4555164,1.79147 3.7161236,2.6434 1.2606073,0.85199 2.542831,1.67458 3.84556,2.46648 1.3027289,0.79192 2.6258837,1.5531 3.968742,2.28298 1.3428583,0.72988 2.705301,1.42824 4.086299,2.09409 1.3809954,0.66585 2.7807708,1.29919 4.1979135,1.89902 1.4171429,0.59984 2.8516629,1.16618 4.3029639,1.69799 1.451298,0.53181 2.919235,1.02918 4.402696,1.49101 1.483463,0.46183 2.982544,0.88826 4.496178,1.27809 1.513636,0.38984 3.041904,0.74309 4.583721,1.05895 1.541817,0.31586 3.097315,0.59428 4.665321,0.83415 1.568008,0.23987 3.148465,0.44116 4.740669,0.60309 1.592204,0.1619 3.195976,0.28448 4.81039,0.36642 1.614413,0.0819 3.239542,0.12348 4.87417,0.12348 1.634632,0 3.259751,-0.0415 4.874167,-0.12348 1.614419,-0.0819 3.21818,-0.20452 4.810392,-0.36642 1.59221,-0.16193 3.172653,-0.36322 4.740667,-0.60309 1.568013,-0.23987 3.123498,-0.51829 4.665321,-0.83415 0.396375,-0.0812 0.783807,-0.18619 1.178367,-0.27231 l -0.645303,-2.43928 c -0.348734,0.0757 -0.690928,0.16868 -1.041117,0.24043 -1.500786,0.30745 -3.014922,0.57846 -4.5412,0.81193 -1.526278,0.23349 -3.064838,0.42958 -4.614669,0.58716 -1.549834,0.15759 -3.110759,0.27665 -4.682204,0.35642 -1.571448,0.0798 -3.153299,0.12036 -4.744421,0.12036 -1.591136,0 -3.172966,-0.0406 -4.744421,-0.12036 -1.571456,-0.0798 -3.132678,-0.19883 -4.682517,-0.35642 -1.549842,-0.15758 -3.088388,-0.35367 -4.614672,-0.58716 -1.526286,-0.23347 -3.040097,-0.50448 -4.540887,-0.81193 -1.500794,-0.30744 -2.988429,-0.65135 -4.461788,-1.03082 -1.473361,-0.37943 -2.932446,-0.79446 -4.376436,-1.24401 -1.44399,-0.44953 -2.872772,-0.93361 -4.285456,-1.4513 -1.412682,-0.51768 -2.809409,-1.06878 -4.188846,-1.65266 -1.3794372,-0.58388 -2.7417345,-1.20023 -4.0859845,-1.84838 -1.34425,-0.64812 -2.6703707,-1.32799 -3.977497,-2.03845 -1.307129,-0.71044 -2.5953138,-1.45174 -3.8633823,-2.22261 -1.2680659,-0.77084 -2.5159441,-1.5712 -3.7430101,-2.40048 -1.2270687,-0.82931 -2.4332009,-1.6873 -3.6173278,-2.5731 -1.1841294,-0.8858 -2.3464523,-1.79938 -3.4857053,-2.73974 -1.139251,-0.94035 -2.255388,-1.90775 -3.347823,-2.90073 -1.092438,-0.99298 -2.161265,-2.01181 -3.204946,-3.05549 -1.043683,-1.0437 -2.062511,-2.11222 -3.055501,-3.20466 -0.802693,-0.88307 -1.576123,-1.79247 -2.344541,-2.70626 z"/>
    <path d="m 46.387891,211.84223 c 27.992368,0 53.368942,-11.29173 71.823239,-29.56591 L 46.387891,112.12168 Z" style="clip-rule:evenodd;fill:#00bf22;fill-opacity:1;fill-rule:evenodd;stroke-width:0.160075;stroke-linejoin:round;stroke-miterlimit:2" id="path150"/>
    <path id="path4744" style="clip-rule:evenodd;fill:#62c905;fill-opacity:1;fill-rule:evenodd;stroke-width:0.221434;stroke-linejoin:round;stroke-miterlimit:2;paint-order:stroke fill markers;stop-color:#000000" d="m 110.17155,179.8235 c 1.09701,-0.99923 2.17188,-2.02242 3.2209,-3.07147 1.07223,-1.0722 2.11884,-2.16985 3.13897,-3.29216 1.02016,-1.12231 2.01377,-2.26904 2.97985,-3.43945 0.9661,-1.17038 1.90476,-2.36455 2.81477,-3.58105 0.91,-1.2165 1.79149,-2.45552 2.64342,-3.71613 0.85196,-1.26061 1.67426,-2.54283 2.46618,-3.84556 0.7919,-1.30273 1.55337,-2.62586 2.28325,-3.96872 0.72988,-1.3429 1.42825,-2.70531 2.09413,-4.08631 0.66585,-1.38102 1.29915,-2.78077 1.89899,-4.19793 0.59984,-1.41713 1.16618,-2.85197 1.69802,-4.30326 0.53181,-1.45132 1.02917,-2.91923 1.491,-4.40269 0.46183,-1.48348 0.88826,-2.98255 1.2781,-4.49619 0.38984,-1.51365 0.74308,-3.04158 1.05894,-4.58341 0.31583,-1.54182 0.59428,-3.0973 0.83415,-4.66532 0.23987,-1.56801 0.44117,-3.14877 0.60307,-4.74098 0.16192,-1.59221 0.28416,-3.19597 0.36613,-4.81039 0.0819,-1.61442 0.12348,-3.23953 0.12348,-4.87417 0,-0.84797 -0.0419,-1.68572 -0.0641,-2.52838 h -2.52243 c 0.0227,0.84253 0.0641,1.6804 0.0641,2.52838 0,1.59112 -0.0403,3.17298 -0.12007,4.74442 -0.0798,1.57145 -0.19881,3.13269 -0.35639,4.68252 -0.15762,1.54983 -0.35367,3.08839 -0.58717,4.61467 -0.23347,1.52628 -0.50451,3.0401 -0.81195,4.54089 -0.30742,1.50078 -0.65133,2.98842 -1.03079,4.46179 -0.37944,1.47335 -0.79447,2.93244 -1.24402,4.37642 -0.44953,1.44401 -0.93363,2.87279 -1.45129,4.28545 -0.51769,1.41269 -1.06881,2.80943 -1.65267,4.18886 -0.58388,1.37943 -1.20055,2.74174 -1.84869,4.08599 -0.64813,1.34426 -1.32768,2.67036 -2.03814,3.9775 -0.71046,1.30712 -1.45177,2.5953 -2.22261,3.86337 -0.77084,1.26807 -1.5712,2.51595 -2.40051,3.74301 -0.82928,1.22708 -1.68759,2.43321 -2.57339,3.61735 -0.8858,1.18412 -1.79938,2.34643 -2.73974,3.4857 -0.94035,1.13925 -1.90744,2.25539 -2.90042,3.3478 -0.99301,1.09244 -2.01181,2.16096 -3.05551,3.20466 -0.85135,0.85135 -1.73014,1.67468 -2.61403,2.49243 v 2.36236 z"/>
    <path d="m 112.9765,177.16351 c -17.125658,16.91516 -40.647119,27.36005 -66.588609,27.36005 v 7.31867 c 27.992368,0 53.368942,-11.29173 71.823239,-29.56591 z" style="clip-rule:evenodd;fill:#00bf22;fill-opacity:1;fill-rule:evenodd;stroke-width:0.160075;stroke-linejoin:round;stroke-miterlimit:2" id="path152"/>
    <path d="m 111.17262,175.40107 c -16.665597,16.44615 -39.548689,26.60131 -64.784729,26.60131 v 2.52118 c 25.94149,0 49.462951,-10.44489 66.588609,-27.36005 z" style="clip-rule:evenodd;fill:#00762e;fill-opacity:1;fill-rule:evenodd;stroke-width:0.160075;stroke-linejoin:round;stroke-miterlimit:2" id="path154"/>
    <path d="m 106.96985,171.29513 c -15.596631,15.35285 -36.991334,24.83088 -60.581959,24.83088 v 5.87637 c 25.23604,0 48.119132,-10.15516 64.784729,-26.60131 z" style="clip-rule:evenodd;fill:#9eff90;fill-opacity:1;fill-rule:evenodd;stroke-width:0.160075;stroke-linejoin:round;stroke-miterlimit:2" id="path156" sodipodi:nodetypes="ccccc"/>
    <path d="m 148.48179,109.74833 c 0,-27.99238 -11.29173,-53.368964 -29.56591,-71.823249 L 48.761248,109.74833 Z" style="clip-rule:evenodd;fill:#ffdd27;fill-opacity:1;fill-rule:evenodd;stroke-width:0.160075;stroke-linejoin:round;stroke-miterlimit:2" id="path160"/>
    <path id="path2494" style="clip-rule:evenodd;fill:#f8501b;fill-opacity:1;fill-rule:evenodd;stroke-width:0.221434;stroke-linejoin:round;stroke-miterlimit:2;paint-order:stroke fill markers;stop-color:#000000" d="m 118.36448,48.121178 c -0.10837,-0.126434 -0.21362,-0.255572 -0.32263,-0.381429 -0.49668,-0.573294 -1.00034,-1.140592 -1.51043,-1.701739 -0.51007,-0.561144 -1.02656,-1.116097 -1.54977,-1.664846 -0.52322,-0.548748 -1.0531,-1.091226 -1.5892,-1.627327 -0.53612,-0.536104 -1.07857,-1.065977 -1.62732,-1.589186 -0.54877,-0.523208 -1.10371,-1.04004 -1.66486,-1.550103 -0.56113,-0.510067 -1.12842,-1.013415 -1.70172,-1.510089 -0.57333,-0.49667 -1.15282,-0.986409 -1.738,-1.46944 -0.5852,-0.483031 -1.1762,-0.959345 -1.77302,-1.428485 -0.59685,-0.469138 -1.19949,-0.931278 -1.80772,-1.386279 -0.60827,-0.454999 -1.22211,-0.902833 -1.84152,-1.343443 C 100.6189,32.028201 99.993979,31.5948 99.363662,31.168824 98.733345,30.74285 98.097498,30.324321 97.456519,29.913233 96.815566,29.502145 96.16948,29.098615 95.518102,28.702664 94.866724,28.30671 94.210267,27.918309 93.548729,27.53774 c -0.661511,-0.380568 -1.328248,-0.753401 -1.999668,-1.118338 -0.671436,-0.364937 -1.34769,-0.722077 -2.028777,-1.071131 -0.681091,-0.349054 -1.367028,-0.690057 -2.05753,-1.02298 -0.690502,-0.332922 -1.385692,-0.657664 -2.085351,-0.974209 -0.699672,-0.316545 -1.403667,-0.624895 -2.11224,-0.924808 -0.708591,-0.299916 -1.421582,-0.591439 -2.138831,-0.874475 -0.717235,-0.283038 -1.438806,-0.557604 -2.164458,-0.823515 -0.725654,-0.265909 -1.455327,-0.523079 -2.189144,-0.771613 -0.733832,-0.248533 -1.471813,-0.488489 -2.213554,-0.719399 -0.741731,-0.230913 -1.487268,-0.452903 -2.236674,-0.665938 -0.7494,-0.21304 -1.502677,-0.416938 -2.259499,-0.611851 -0.756822,-0.194916 -1.517084,-0.380908 -2.281074,-0.557451 -0.763992,-0.176543 -1.531736,-0.343564 -2.302647,-0.501486 -0.770911,-0.157925 -1.545072,-0.30647 -2.322656,-0.445521 -0.777584,-0.139055 -1.558657,-0.268685 -2.342665,-0.38862 -0.784008,-0.119939 -1.570929,-0.230214 -2.36111,-0.330782 -0.790184,-0.100568 -1.583455,-0.191363 -2.379557,-0.272315 -0.796107,-0.08095 -1.595287,-0.152138 -2.397067,-0.213225 -0.801782,-0.06109 -1.606116,-0.112223 -2.413325,-0.153199 -0.807209,-0.04097 -1.617194,-0.07193 -2.429581,-0.09254 -0.812385,-0.02061 -1.62727,-0.03095 -2.444586,-0.03095 -0.454809,0 -0.907032,0.01079 -1.360329,0.0172 V 17.5124 c 0.453252,-0.0066 0.905523,-0.0172 1.360329,-0.0172 0.795559,0 1.588791,0.01027 2.379556,0.03032 0.790766,0.02006 1.579139,0.05016 2.364865,0.09004 0.785722,0.03989 1.568788,0.08967 2.34923,0.149133 0.780441,0.05946 1.558057,0.128489 2.332974,0.207285 0.774914,0.0788 1.547251,0.167232 2.3164,0.265125 0.769149,0.09789 1.535131,0.205283 2.298269,0.322028 0.76314,0.116744 1.523249,0.242948 2.280137,0.378301 0.756888,0.135353 1.51067,0.279924 2.261063,0.433644 0.750395,0.15372 1.497401,0.316508 2.241055,0.488355 0.743659,0.171844 1.484056,0.352713 2.220735,0.54244 0.736677,0.189728 1.469702,0.388226 2.199159,0.595596 0.729456,0.207365 1.455282,0.423661 2.177274,0.64843 0.722001,0.224764 1.440162,0.458095 2.15445,0.700016 0.714287,0.241922 1.42467,0.492456 2.131004,0.75129 0.706348,0.258834 1.408774,0.525812 2.106927,0.801314 0.698151,0.275506 1.391886,0.559406 2.081604,0.85134 0.689716,0.291933 1.375238,0.591992 2.056279,0.900112 0.681056,0.308118 1.357905,0.624194 2.030028,0.948259 0.672124,0.324061 1.339543,0.656016 2.002494,0.99578 0.662969,0.339765 1.321438,0.687454 1.974993,1.042678 0.653574,0.355225 1.302311,0.718196 1.946235,1.088636 0.643917,0.370443 1.282806,0.748245 1.916853,1.13366 0.634021,0.385416 1.263227,0.778532 1.887115,1.17868 0.623914,0.40015 1.242668,0.8075 1.856184,1.222136 0.613542,0.414639 1.221713,0.836399 1.824619,1.265285 0.602903,0.428887 1.200653,0.86491 1.792733,1.307804 0.59204,0.442891 1.17859,0.892728 1.75956,1.349386 0.58098,0.456655 1.15618,0.920162 1.72583,1.39034 0.56962,0.470175 1.13368,0.946907 1.69172,1.430361 0.55806,0.483455 1.11019,0.973574 1.65639,1.470068 0.54621,0.49649 1.08662,0.999548 1.62079,1.508834 0.53414,0.509286 1.06201,1.024829 1.58385,1.546667 0.52184,0.521835 1.03738,1.049721 1.54667,1.58387 0.5093,0.534146 1.01235,1.074549 1.50884,1.620763 0.11626,0.127923 0.22865,0.259416 0.34422,0.387993 z"/>
    <path d="m 113.80306,43.159703 c 16.91516,17.125662 27.36009,40.647133 27.36009,66.588627 h 7.31864 c 0,-27.99238 -11.29173,-53.368964 -29.56591,-71.823249 z" style="clip-rule:evenodd;fill:#ffdd27;fill-opacity:1;fill-rule:evenodd;stroke-width:0.160075;stroke-linejoin:round;stroke-miterlimit:2" id="path162"/>
    <path d="m 112.04062,44.963593 c 16.44616,16.665604 26.60134,39.548696 26.60134,64.784737 h 2.52119 c 0,-25.941494 -10.44493,-49.462965 -27.36009,-66.588627 z" style="clip-rule:evenodd;fill:#f3aa00;fill-opacity:1;fill-rule:evenodd;stroke-width:0.160075;stroke-linejoin:round;stroke-miterlimit:2" id="path164"/>
    <path d="m 107.93471,49.166372 c 15.35282,15.596621 24.83089,36.991332 24.83089,60.581958 h 5.87636 c 0,-25.236041 -10.15518,-48.119133 -26.60134,-64.784737 z" style="clip-rule:evenodd;fill:#ffe4bd;fill-opacity:0.880637;fill-rule:evenodd;stroke-width:0.160075;stroke-linejoin:round;stroke-miterlimit:2" id="path166"/>
    <path d="m 46.387891,7.6549117 c -27.992377,0 -53.368961,11.2917153 -71.823246,29.5659173 l 71.823246,70.154621 z" style="clip-rule:evenodd;fill:#ff3520;fill-opacity:1;fill-rule:evenodd;stroke-width:0.160075;stroke-linejoin:round;stroke-miterlimit:2" id="path170"/>
    <path id="path6920" style="clip-rule:evenodd;display:inline;fill:#49007e;fill-opacity:1;fill-rule:evenodd;stroke-width:0.254504;stroke-linejoin:round;stroke-miterlimit:2;paint-order:stroke fill markers;stop-color:#000000" d="m -13.95686,36.691112 c -1.144201,0.946422 -2.267511,1.917266 -3.365645,2.915436 -1.122297,1.020127 -2.219963,2.067081 -3.292174,3.139289 -1.07221,1.072205 -2.118846,2.169882 -3.138979,3.292173 -1.02013,1.122294 -2.013776,2.269046 -2.979838,3.439433 -0.966063,1.170384 -1.90445,2.364258 -2.81445,3.580746 -0.910002,1.216491 -1.791483,2.455524 -2.643433,3.716126 -0.851951,1.260599 -1.674567,2.542841 -2.466473,3.84556 -0.791908,1.302721 -1.553077,2.625894 -2.282949,3.968742 -0.729872,1.342847 -1.428266,2.705314 -2.094111,4.086299 -0.665848,1.380985 -1.299189,2.780469 -1.89902,4.197601 -0.599829,1.41713 -1.166167,2.851989 -1.697985,4.303276 -0.53182,1.451285 -1.029195,2.919248 -1.491017,4.402696 -0.461817,1.483447 -0.888272,2.982248 -1.278099,4.495868 -0.389829,1.513618 -0.743093,3.04192 -1.058936,4.583719 -0.315847,1.541798 -0.594273,3.097334 -0.834144,4.665321 -0.119936,0.783995 -0.230212,1.570945 -0.33078,2.36111 -0.100571,0.790167 -0.191362,1.583468 -0.272317,2.379563 -0.08095,0.79609 -0.152135,1.59498 -0.213225,2.39675 -0.06109,0.80176 -0.111908,1.60644 -0.152884,2.41364 -0.04097,0.80719 -0.07193,1.61689 -0.09254,2.42926 -0.02061,0.81238 -0.03095,1.62729 -0.03095,2.44459 0,0.81732 0.01034,1.6322 0.03095,2.44459 0.02061,0.81239 0.05157,1.62237 0.09254,2.42958 0.04098,0.80721 0.0918,1.61186 0.152884,2.41364 0.02474,0.32475 0.05828,0.64694 0.08629,0.97077 h 2.546824 c -0.103836,-1.16731 -0.207762,-2.33481 -0.267626,-3.51416 -0.03988,-0.78572 -0.06998,-1.5741 -0.09004,-2.36486 -0.02006,-0.79077 -0.03001,-1.584 -0.03001,-2.37956 0,-0.79555 0.0099,-1.5888 0.03001,-2.37956 0.02005,-0.79075 0.05016,-1.57883 0.09004,-2.36455 0.07977,-1.57143 0.198821,-3.13269 0.356417,-4.68251 0.157599,-1.549825 0.353664,-3.088409 0.58715,-4.614674 0.233493,-1.526267 0.504505,-3.040112 0.811946,-4.54089 0.307443,-1.500775 0.651341,-2.98844 1.030798,-4.461785 0.379457,-1.473346 0.794491,-2.932462 1.244023,-4.376436 0.449535,-1.443977 0.933638,-2.872785 1.451309,-4.285453 0.51767,-1.412672 1.068781,-2.809113 1.652653,-4.188537 0.583869,-1.379421 1.200552,-2.741745 1.848684,-4.085984 0.648128,-1.34424 1.327692,-2.670382 2.038146,-3.977497 0.710454,-1.307116 1.451771,-2.595327 2.222608,-3.863383 0.770837,-1.268055 1.57122,-2.515954 2.400504,-3.74301 0.829284,-1.227055 1.687296,-2.433209 2.573086,-3.617327 0.885793,-1.184119 1.799368,-2.346463 2.739726,-3.485703 0.940361,-1.139243 1.90744,-2.255401 2.900431,-3.347826 0.99299,-1.092428 2.011818,-2.160961 3.055501,-3.204633 1.043681,-1.043676 2.112508,-2.06252 3.204946,-3.055501 1.092435,-0.992984 2.208572,-1.960076 3.347823,-2.900429 0.78241,-0.645811 1.590222,-1.261295 2.3939419,-1.88151 z"/>
    <path d="M -20.200733,42.333634 C -3.0750713,25.418473 20.4464,14.973556 46.387891,14.973556 V 7.6549117 c -27.992377,0 -53.368961,11.2917153 -71.823246,29.5659173 z" style="clip-rule:evenodd;fill:#ff3520;fill-opacity:1;fill-rule:evenodd;stroke-width:0.160075;stroke-linejoin:round;stroke-miterlimit:2" id="path172"/>
    <path d="M -18.396843,44.096064 C -1.7312393,27.649924 21.151853,17.494742 46.387891,17.494742 v -2.521186 c -25.941491,0 -49.4629623,10.444917 -66.588624,27.360078 z" style="clip-rule:evenodd;fill:#d40000;fill-opacity:1;fill-rule:evenodd;stroke-width:0.160075;stroke-linejoin:round;stroke-miterlimit:2" id="path174"/>
    <path d="M -14.194064,48.201997 C 1.4025571,32.849171 22.797268,23.371109 46.387891,23.371109 v -5.876367 c -25.236038,0 -48.1191303,10.155182 -64.784734,26.601322 z" style="clip-rule:evenodd;fill:#ffe8e8;fill-opacity:0.825871;fill-rule:evenodd;stroke-width:0.160075;stroke-linejoin:round;stroke-miterlimit:2" id="path176"/>
    <path d="m -55.704963,109.74937 c 0,27.99236 11.291715,53.36895 29.565917,71.82324 l 70.154619,-71.82324 z" style="clip-rule:evenodd;fill:#6800ff;fill-opacity:1;fill-rule:evenodd;stroke-width:0.160075;stroke-linejoin:round;stroke-miterlimit:2" id="path180"/>
    <path d="m -21.026241,176.33798 c -16.915161,-17.12565 -27.360078,-40.64712 -27.360078,-66.58861 h -7.318644 c 0,27.99236 11.291715,53.36895 29.565917,71.82324 z" style="clip-rule:evenodd;fill:#6800ff;fill-opacity:1;fill-rule:evenodd;stroke-width:0.160075;stroke-linejoin:round;stroke-miterlimit:2" id="path182"/>
    <path d="m -19.263811,174.53411 c -16.44614,-16.6656 -26.601322,-39.5487 -26.601322,-64.78474 h -2.521186 c 0,25.94149 10.444917,49.46296 27.360078,66.58861 z" style="clip-rule:evenodd;fill:#3b00b4;fill-opacity:1;fill-rule:evenodd;stroke-width:0.160075;stroke-linejoin:round;stroke-miterlimit:2" id="path184"/>
    <path d="M -15.157878,170.33133 C -30.510706,154.7347 -39.988766,133.33999 -39.988766,109.74937 h -5.876367 c 0,25.23604 10.155182,48.11914 26.601322,64.78474 z" style="clip-rule:evenodd;fill:#eac5ff;fill-opacity:1;fill-rule:evenodd;stroke-width:0.160075;stroke-linejoin:round;stroke-miterlimit:2" id="path186"/>
    <path d="m 132.7656,109.74833 c -0.54573,21.87844 -8.83251,45.15272 -25.79575,61.5468 l 4.20277,4.10594 c 18.14641,-17.53754 26.91473,-42.24526 27.46934,-65.65274 z" style="clip-rule:evenodd;fill:#f9ffe2;fill-opacity:0.823383;fill-rule:evenodd;stroke-width:0.160075;stroke-linejoin:round;stroke-miterlimit:2" id="path1148" inkscape:transform-center-x="-286.06593" inkscape:transform-center-y="124.97212" sodipodi:nodetypes="ccccc"/>
    <path d="m 46.387891,196.12601 c -21.878809,-0.53068 -45.1897696,-8.8995 -61.595516,-25.85146 l -4.103041,4.20561 c 17.5500076,18.13433 42.291541,26.98368 65.699401,27.52219 z" style="clip-rule:evenodd;fill:#e2f9ff;fill-opacity:0.823383;fill-rule:evenodd;stroke-width:0.160075;stroke-linejoin:round;stroke-miterlimit:2" id="path6963" inkscape:transform-center-x="124.76986" inkscape:transform-center-y="286.14643" sodipodi:nodetypes="ccccc"/>
    <path d="m -39.988766,109.74937 c 0.458911,-21.880434 8.896659,-45.086112 25.794702,-61.547373 l -4.202779,-4.105933 c -18.076664,17.609394 -27.006433,42.24275 -27.46816,65.652246 z" style="clip-rule:evenodd;fill:#f0cfff;fill-opacity:0.902985;fill-rule:evenodd;stroke-width:0.160075;stroke-linejoin:round;stroke-miterlimit:2" id="path6965" inkscape:transform-center-x="286.52874" inkscape:transform-center-y="-123.80453" sodipodi:nodetypes="ccccc"/>
    <path d="m 46.387891,23.371109 c 21.882991,0.314089 44.974075,9.00653 61.546819,25.795263 l 4.10591,-4.202779 C 94.311999,27.003869 69.799933,17.801526 46.387891,17.494742 Z" style="clip-rule:evenodd;fill:#fff3e2;fill-opacity:0.773632;fill-rule:evenodd;stroke-width:0.160075;stroke-linejoin:round;stroke-miterlimit:2" id="path7733" inkscape:transform-center-x="-121.85264" inkscape:transform-center-y="-287.2907" sodipodi:nodetypes="ccccc"/>
    <circle cx="46.645092" cy="110.85204" r="33.469513" style="clip-rule:evenodd;fill:#00010e;fill-opacity:0.35049;fill-rule:evenodd;stroke:none;stroke-width:1.18456;stroke-linejoin:round;stroke-miterlimit:2;stroke-dasharray:none;stroke-opacity:1;paint-order:normal" id="circle6460"/>
    <g transform="matrix(0.16007535,0,0,0.16007535,-114.41063,-58.542267)" id="g192" style="clip-rule:evenodd;fill-rule:evenodd;stroke-linejoin:round;stroke-miterlimit:2">
      <circle cx="1004.52" cy="1051.3199" r="34.314999" style="fill:#ff9d00" id="circle190"/>
    </g>
    <circle cx="46.645092" cy="108.61098" r="33.469513" style="clip-rule:evenodd;fill:#f3d7ec;fill-opacity:1;fill-rule:evenodd;stroke:#4b3d68;stroke-width:1.18456;stroke-linejoin:round;stroke-miterlimit:2;stroke-dasharray:none;stroke-opacity:1;paint-order:normal" id="circle598"/>
    <circle cx="46.645092" cy="108.61098" r="31.091957" style="clip-rule:evenodd;fill:#fff9fd;fill-opacity:1;fill-rule:evenodd;stroke-width:0.148704;stroke-linejoin:round;stroke-miterlimit:2" id="circle55434"/>
    <path d="m 46.645613,77.520278 c 17.160076,0 31.091428,13.931196 31.091428,31.090952 0,17.15848 -13.931352,31.08985 -31.091428,31.08985 -17.159118,0 -31.090475,-13.93137 -31.090475,-31.08985 0,-17.159756 13.931357,-31.090952 31.090475,-31.090952 z m 0,1.68335 c 16.230039,0 29.407435,13.176925 29.407435,29.407602 0,16.23004 -13.177396,29.40744 -29.407435,29.40744 -16.2302,0 -29.407122,-13.1774 -29.407122,-29.40744 0,-16.230677 13.176922,-29.407602 29.407122,-29.407602 z" id="path602" style="clip-rule:evenodd;fill:#c49fba;fill-opacity:1;fill-rule:evenodd;stroke-width:0.160075;stroke-linejoin:round;stroke-miterlimit:2"/>
    <path id="rect3381" style="fill:#0bc2cf;fill-opacity:1;stroke:none;stroke-width:0.2;stroke-linecap:round;stroke-linejoin:round;paint-order:stroke fill markers;stop-color:#000000" d="M 45.1564 89.80591 C 35.092389 89.80591 30.060681 90.642237 30.060681 92.313767 L 30.060681 125.90086 C 30.060681 126.42322 30.356483 126.80638 30.948482 127.05015 C 31.540485 127.29391 32.706831 127.4155 34.44801 127.4155 L 45.887622 127.4155 C 48.081508 127.4155 49.979448 127.34608 51.581331 127.20673 C 55.377103 126.82367 58.197698 125.90101 60.043347 124.43842 C 62.167584 122.76689 63.229716 120.18999 63.229716 116.70763 C 63.229716 113.7128 62.690223 111.58854 61.610693 110.33489 C 60.531159 109.08124 59.172715 108.28018 57.536007 107.93194 C 58.615541 107.75782 59.608189 106.99149 60.513603 105.63337 C 61.453838 104.27525 61.923852 102.23836 61.923852 99.522113 C 61.923852 98.12917 61.750156 96.910197 61.40192 95.865488 C 60.775096 94.089488 59.346652 92.626822 57.117944 91.477643 C 54.924056 90.36329 50.937115 89.80591 45.1564 89.80591 z M 44.633952 97.589414 L 46.305684 97.589414 C 46.897687 97.589414 47.419806 97.885213 47.872514 98.477215 C 48.360042 99.034393 48.603735 99.905454 48.603735 101.08946 C 48.603735 103.45746 47.715815 104.64118 45.939815 104.64118 L 44.633952 104.64118 L 44.633952 97.589414 z M 44.633952 112.58075 L 46.305684 112.58075 C 46.897687 112.58075 47.419806 112.87707 47.872514 113.46907 C 48.360042 114.02624 48.603735 114.89679 48.603735 116.08079 C 48.603735 118.44879 47.715815 119.63251 45.939815 119.63251 L 44.633952 119.63251 L 44.633952 112.58075 z "/>
  </g>
</svg>