<?xml version="1.0" encoding="UTF-8" standalone="no"?>
<!-- Created with Inkscape (http://www.inkscape.org/) -->
<svg width="108.76272" height="161.87117" viewBox="0 0 28.776802 42.828414" version="1.1" id="svg1000" inkscape:version="1.2 (dc2aedaf03, 2022-05-15)" sodipodi:docname="arrow.svg" xmlns:inkscape="http://www.inkscape.org/namespaces/inkscape" xmlns:sodipodi="http://sodipodi.sourceforge.net/DTD/sodipodi-0.dtd" xmlns="http://www.w3.org/2000/svg" xmlns:svg="http://www.w3.org/2000/svg">
  <sodipodi:namedview id="namedview1002" pagecolor="#505050" bordercolor="#ffffff" borderopacity="1" inkscape:showpageshadow="0" inkscape:pageopacity="0" inkscape:pagecheckerboard="1" inkscape:deskcolor="#505050" inkscape:document-units="mm" showgrid="false" inkscape:zoom="0.46769781" inkscape:cx="-18.174128" inkscape:cy="406.24522" inkscape:window-width="1366" inkscape:window-height="705" inkscape:window-x="-8" inkscape:window-y="-8" inkscape:window-maximized="1" inkscape:current-layer="layer1"/>
  <defs id="defs997"/>
  <g inkscape:label="Layer 1" inkscape:groupmode="layer" id="layer1" transform="translate(-55.760171,-41.380078)">
    <g id="g1504" transform="matrix(0.16007535,0,0,0.16007535,-31.979502,58.252548)" style="clip-rule:evenodd;fill-rule:evenodd;stroke-linejoin:round;stroke-miterlimit:2">
      <path id="path11856" style="fill:#030030;fill-opacity:0.164216;stroke-width:0.590554;paint-order:stroke fill markers;stop-color:#000000" d="m 638,-83.571127 c -2.3368,0 -4.6738,0.51214 -6.8359,1.53711 l -73.2208,34.70898 c -4.1616,1.97272 -7.5784,5.82308 -9.0429,10.18946 a 3.35053,3.35053 0 0 0 -0.1739,1.04687 l -0.6113,112.912112 a 3.35053,3.35053 0 0 0 0.1582,1.041016 c 1.3696,4.280284 3.8212,8.134131 7.1153,11.191406 l 75.9511,70.494143 c 3.7327,3.46447 9.5875,3.46442 13.3203,0 l 75.9512,-70.494143 c 3.2941,-3.057267 5.7455,-6.911166 7.1152,-11.191406 a 3.35053,3.35053 0 0 0 0.1583,-1.041016 l -0.6133,-112.912112 a 3.35053,3.35053 0 0 0 -0.1739,-1.04687 c -1.5035,-4.48285 -4.7687,-8.16413 -9.041,-10.18946 l -73.2207,-34.70898 c -2.1622,-1.025 -4.4991,-1.53711 -6.8359,-1.53711 z"/>
      <path id="rect10769" style="fill:#4337ff;fill-opacity:1;stroke-width:0.590554;paint-order:stroke fill markers;stop-color:#000000" d="m 559.37906,-66.128688 73.22021,-34.709872 c 3.41824,-1.62039 7.38338,-1.62039 10.80146,0 l 73.22029,34.709872 c 3.45072,1.635824 6.08688,4.606067 7.3012,8.226754 l 0.61276,112.913229 c -1.19425,3.73188 -3.33036,7.09284 -6.20235,9.75835 l -75.95185,70.492935 c -2.47051,2.29289 -6.29105,2.29289 -8.76148,10e-6 L 557.66729,64.769645 c -2.872,-2.66552 -5.0081,-6.02647 -6.20227,-9.75835 l 0.61259,-112.913229 c 1.04965,-3.129563 4.31856,-6.812807 7.30145,-8.226754 z" sodipodi:nodetypes="cccccccsssccc"/>
      <path id="path10955" style="fill:#5f00d4;fill-opacity:1;stroke-width:0.590554;paint-order:stroke fill markers;stop-color:#000000" d="m 551.58408,33.114715 -0.11922,21.89689 c 1.19408,3.73186 3.33076,7.09264 6.20275,9.75816 l 75.95161,70.492595 c 2.47043,2.29289 6.29121,2.29289 8.76172,0 l 75.95153,-70.492595 c 2.87199,-2.66552 5.00866,-6.0263 6.20283,-9.75816 l -0.1193,-21.89689 c -1.21171,3.60788 -3.29143,6.86406 -6.08353,9.4555 l -75.95153,70.492595 c -2.47051,2.29289 -6.29129,2.29288 -8.76172,0 L 557.66761,42.570215 c -2.7921,-2.59144 -4.87182,-5.84762 -6.08353,-9.4555 z"/>
      <path id="path11037" style="fill:none;fill-opacity:1;stroke:#5f00d4;stroke-width:6.70039;stroke-dasharray:none;stroke-opacity:1;paint-order:stroke fill markers;stop-color:#000000" d="m 559.37906,-66.128688 73.22021,-34.709872 c 3.41824,-1.62039 7.38338,-1.62039 10.80146,0 l 73.22029,34.709872 c 3.45072,1.635824 6.08688,4.606067 7.3012,8.226754 l 0.61276,112.913229 c -1.19425,3.73188 -3.33036,7.09284 -6.20235,9.75835 l -75.95185,70.492935 c -2.47051,2.29289 -6.29105,2.29289 -8.76148,10e-6 L 557.66729,64.769645 c -2.872,-2.66552 -5.0081,-6.02647 -6.20227,-9.75835 l 0.61259,-112.913229 c 1.04965,-3.129563 4.31856,-6.812807 7.30145,-8.226754 z" sodipodi:nodetypes="cccccccsssccc"/>
      <path id="path11039" style="fill:#688aff;fill-opacity:1;stroke:#97b7ff;stroke-width:11.3391;stroke-dasharray:none;stroke-opacity:1;paint-order:stroke fill markers;stop-color:#000000" d="m 581.27166,-55.87778 52.83154,-25.044658 c 2.46635,-1.169182 5.32733,-1.169182 7.79368,0 l 52.83154,25.044658 c 2.48985,1.18032 4.39192,3.323474 5.26817,5.935956 l 0.44212,81.471729 c -0.86172,2.69271 -2.40303,5.11779 -4.47524,7.04107 l -54.80256,50.86367 c -1.78253,1.65441 -4.53922,1.65441 -6.32182,0 l -54.80257,-50.86367 c -2.07229,-1.92329 -3.61359,-4.34836 -4.47515,-7.04107 l 0.44196,-81.471729 c 0.75735,-2.258115 3.11606,-4.915732 5.26833,-5.935956 z" sodipodi:nodetypes="cccccccsssccc"/>
      <circle style="fill:#000929;fill-opacity:0.522059;fill-rule:evenodd;stroke-width:0.94462" id="circle12642" cx="638" cy="-55.016605" r="12.655222"/>
      <circle style="fill:#dddddd;fill-opacity:1;fill-rule:evenodd;stroke-width:0.778477" id="path12640" cx="638" cy="-57.242447" r="10.429382"/>
    </g>
  </g>
</svg>