<svg id="Layer_1" data-name="Layer 1" xmlns="http://www.w3.org/2000/svg" xmlns:xlink="http://www.w3.org/1999/xlink" viewBox="0 0 300 345"><defs><style>.cls-1{fill:url(#linear-gradient);}.cls-2,.cls-5{fill:#4cc9f5;}.cls-2{fill-opacity:0.35;}.cls-3{fill:#fff;}.cls-4{fill:#9bd4ee;}.cls-6{fill:#fabc2e;}.cls-7{fill:#ffcd05;}.cls-8{fill:#fff0a4;}.cls-10,.cls-9{fill-opacity:0.5;}.cls-9{fill:url(#radial-gradient);}.cls-10{fill:url(#radial-gradient-2);}.cls-11{fill:#680e19;}.cls-12{fill:#c62639;}.cls-13{fill:#f4fbfe;}.cls-14{fill:#cd8029;}.cls-15{fill:#414042;}</style><linearGradient id="linear-gradient" x1="150" y1="356.11" x2="150" y2="161.16" gradientUnits="userSpaceOnUse"><stop offset="0.08" stop-color="#bfe7fb"/><stop offset="0.61" stop-color="#0db0da"/></linearGradient><radialGradient id="radial-gradient" cx="257.16" cy="256.38" r="41.85" gradientUnits="userSpaceOnUse"><stop offset="0" stop-color="#ec008c"/><stop offset="1" stop-color="#ffcd05" stop-opacity="0"/></radialGradient><radialGradient id="radial-gradient-2" cx="42.84" cy="256.38" r="41.85" xlink:href="#radial-gradient"/></defs><title>blook_alice</title><g id="alice_in_wonderland" data-name="alice in wonderland"><path class="cls-1" d="M263.62,345H36.38A36.38,36.38,0,0,1,0,308.62V259.14H300v49.48A36.38,36.38,0,0,1,263.62,345Z"/><path class="cls-2" d="M26,259.14c1.3,33.12,13.63,63.14,33.1,85.86H240.9c19.47-22.72,31.8-52.74,33.1-85.86Zm124,79c-53.36,0-52.63-39.74-52.63-39.74H202.63S203.36,338.13,150,338.13Z"/><path class="cls-3" d="M39.61,259.14c1.16,33.12,12.13,63.14,29.47,85.86H230.92c17.34-22.72,28.31-52.74,29.47-85.86Zm110.39,79c-47.5,0-46.85-39.74-46.85-39.74h93.7S197.5,338.13,150,338.13Z"/><path class="cls-4" d="M176.28,337.06c-10.72,0-21.52-7-26.28-10.49-4.76,3.51-15.56,10.49-26.28,10.49a19.6,19.6,0,0,1-15.25-6.77c-12.43-14,.06-32.53.6-33.31l.74-1.09h80.38l.74,1.09c.54.78,13,19.32.6,33.31a19.6,19.6,0,0,1-15.25,6.77Z"/><path class="cls-5" d="M188.87,298.39s12.06,17.56.79,30.24a17.16,17.16,0,0,1-13.38,5.93c-11.57,0-23.75-9.14-26.28-11.14-2.53,2-14.71,11.14-26.28,11.14a17.19,17.19,0,0,1-13.38-5.93c-11.27-12.68.79-30.24.79-30.24h77.74m2.63-5h-83L107,295.56c-.59.85-14.12,21-.41,36.39a22.27,22.27,0,0,0,17.12,7.61c10.41,0,20.75-6.06,26.28-9.92,5.53,3.86,15.87,9.92,26.28,9.92A22.27,22.27,0,0,0,193.4,332c13.71-15.43.18-35.54-.41-36.39l-1.49-2.17Z"/><path class="cls-6" d="M177.36,298.39S170,325.75,150,325.75s-27.36-27.36-27.36-27.36Z"/><rect class="cls-7" y="45" width="300" height="253.39" rx="36.38"/><path class="cls-6" d="M300,92.38A36.38,36.38,0,0,0,263.62,56H36.38A36.38,36.38,0,0,0,0,92.38v72.11c143.39,0,150-86.72,150-86.72s6.61,86.72,150,86.72Z"/><path class="cls-8" d="M300,81.38A36.38,36.38,0,0,0,263.62,45H36.38A36.38,36.38,0,0,0,0,81.38v72.11c143.39,0,150-86.72,150-86.72s6.61,86.72,150,86.72Z"/><circle class="cls-9" cx="257.16" cy="256.38" r="41.85"/><circle class="cls-10" cx="42.84" cy="256.38" r="41.85"/><path class="cls-11" d="M150,293.57c-13.25,0-20.85-8.95-20.85-24.55,0-15.37,7.79-24.55,20.85-24.55s20.85,9.18,20.85,24.55C170.85,284.62,163.25,293.57,150,293.57Z"/><path class="cls-7" d="M150,245c14.35,0,20.35,10.77,20.35,24s-5.74,24.05-20.35,24.05S129.65,282.3,129.65,269s6-24,20.35-24m0-1c-13.37,0-21.35,9.36-21.35,25,0,15.92,7.78,25.05,21.35,25.05s21.35-9.13,21.35-25.05c0-15.69-8-25-21.35-25Z"/><path class="cls-12" d="M168.53,280.59c-4.18-3.66-10.26-5.88-18.53-5.88s-14.35,2.22-18.53,5.88C134.16,288,140,293.07,150,293.07S165.84,288,168.53,280.59Z"/><path class="cls-13" d="M150,258.4a69.59,69.59,0,0,1,19.48,2.42C167.36,251.58,161.24,245,150,245s-17.36,6.61-19.48,15.85A69.59,69.59,0,0,1,150,258.4Z"/><path class="cls-14" d="M151,237.85a14.45,14.45,0,0,1-6,1.57,14.91,14.91,0,0,1-6.39-1.12,13.18,13.18,0,0,1-5.59-4.29,11.76,11.76,0,0,1-1.73-3.24,10.7,10.7,0,0,1-.47-1.79c0-.31-.09-.62-.12-.95l0-.5c0-.18,0-.3,0-.63l0-1.69,2-1.33c.76-.51,1.78-1.08,2.68-1.61l2.75-1.64a57.6,57.6,0,0,0,5.27-3.53c.83-.65,1.62-1.34,2.39-2.07a25.67,25.67,0,0,0,2.11-2.4,20.36,20.36,0,0,0,3.1-6.08,13.6,13.6,0,0,1,0,7.54,19.65,19.65,0,0,1-3.55,7,25.29,25.29,0,0,1-5.62,5.32,26.11,26.11,0,0,1-3.31,1.92,18.68,18.68,0,0,1-3.69,1.36l2-3c0-.09,0,0,.07.07l.09.19.18.44c.14.29.26.59.42.87a13.41,13.41,0,0,0,1,1.67,13,13,0,0,0,2.91,2.93,29.84,29.84,0,0,0,4.24,2.49C147.4,236.13,149.14,236.86,151,237.85Z"/><circle class="cls-6" cx="55.47" cy="205.79" r="39.96"/><path class="cls-15" d="M55.47,172.39A39.89,39.89,0,0,0,24.55,187l.1-.31L8.83,183.37l6.52,32.85.28-.88a40,40,0,1,0,39.84-43Z"/><circle class="cls-3" cx="55.47" cy="220.08" r="39.96"/><path class="cls-5" d="M90.29,214.28a14.48,14.48,0,0,1-21-19.63,24.38,24.38,0,0,0-3.54-.26,25.17,25.17,0,1,0,24.58,19.89ZM55.16,235.94a6,6,0,1,1,6-6A6,6,0,0,1,55.16,235.94Z"/><circle class="cls-6" cx="244.53" cy="205.79" r="39.96"/><path class="cls-15" d="M291.17,183.37l-15.82,3.36.1.31a40,40,0,1,0,8.92,28.3l.28.88Z"/><circle class="cls-3" cx="244.53" cy="220.08" r="39.96"/><path class="cls-5" d="M258.84,214.13a14.49,14.49,0,0,1-20.91-19.47,25.67,25.67,0,0,0-3.64-.27,25.16,25.16,0,1,0,24.55,19.74Zm-35.32,21.81a6,6,0,1,1,6-6A6,6,0,0,1,223.52,235.94Z"/><path class="cls-15" d="M206.34,156.63a48.63,48.63,0,0,1,16.6-14.47,48.12,48.12,0,0,1,5.13-2.42c.88-.35,1.78-.66,2.69-1l1.36-.45,1.39-.37c.93-.24,1.86-.49,2.8-.67l2.85-.49c1-.16,1.92-.19,2.89-.29s1.92-.13,2.89-.14a46.12,46.12,0,0,1,22.2,5.32,45,45,0,0,1,9.23,6.41,39.5,39.5,0,0,1,3.88,4,27,27,0,0,1,3.17,4.55c-3.29-1.66-6.47-3.11-9.68-4.39a87.87,87.87,0,0,0-9.56-3.28,66.18,66.18,0,0,0-19.1-2.6,23.76,23.76,0,0,0-2.39.06c-.8.06-1.6.08-2.39.17l-2.39.24c-.8.1-1.59.27-2.39.37l-1.2.17-1.19.26c-.79.19-1.6.3-2.4.49-1.57.44-3.2.74-4.78,1.27C219.53,151.23,213.17,153.9,206.34,156.63Z"/><path class="cls-15" d="M16.58,156.63a48.63,48.63,0,0,1,16.6-14.47,49.06,49.06,0,0,1,5.13-2.42c.88-.35,1.78-.66,2.69-1l1.36-.45,1.39-.37c.93-.24,1.86-.49,2.8-.67l2.85-.49c1-.16,1.93-.19,2.89-.29s1.93-.13,2.9-.14a46.11,46.11,0,0,1,22.19,5.32,44.75,44.75,0,0,1,9.23,6.41,38.45,38.45,0,0,1,3.88,4,27,27,0,0,1,3.17,4.55c-3.29-1.66-6.47-3.11-9.68-4.39A87.87,87.87,0,0,0,74.42,149a66.18,66.18,0,0,0-19.1-2.6,23.76,23.76,0,0,0-2.39.06c-.8.06-1.59.08-2.39.17l-2.39.24c-.8.1-1.58.27-2.39.37l-1.2.17-1.19.26c-.79.19-1.6.3-2.39.49-1.58.44-3.21.74-4.79,1.27C29.77,151.23,23.41,153.9,16.58,156.63Z"/><path class="cls-15" d="M138.81,50.43s-22-7.81-22-40.42a25.1,25.1,0,0,0,14.49,4.53c8.76,0,21.7,10.2,21.7,35.89"/><path class="cls-15" d="M164.15,50.43s22-7.81,22-40.42a25.1,25.1,0,0,1-14.49,4.53c-8.76,0-21.7,10.2-21.7,35.89"/><path class="cls-15" d="M151.58,59.67A89.6,89.6,0,0,1,204.3,76.41a4.45,4.45,0,0,0,2.61.85h0a4.45,4.45,0,0,0,2.87-7.84,91.13,91.13,0,0,0-116.39,0,4.45,4.45,0,0,0,2.87,7.84h0a4.45,4.45,0,0,0,2.61-.85A89.59,89.59,0,0,1,151.58,59.67Z"/></g></svg>