<svg id="Layer_1" data-name="Layer 1" xmlns="http://www.w3.org/2000/svg" xmlns:xlink="http://www.w3.org/1999/xlink" viewBox="0 0 300 345"><defs><style>.cls-1{fill:url(#linear-gradient);}.cls-2{fill:#f9a241;}.cls-3{fill:#f7913f;}.cls-4{fill:#d96d52;fill-opacity:0.6;}.cls-5{fill:#6f160b;}.cls-6{fill:#a64b3e;}.cls-7{fill:#822017;}.cls-8{fill-opacity:0.4;fill:url(#linear-gradient-2);}.cls-9{fill:#bf4d2d;}.cls-10{fill:#a64123;}.cls-11{fill:#9c2c23;}.cls-12{fill:#ffd346;}</style><linearGradient id="linear-gradient" x1="150" y1="356.11" x2="150" y2="161.16" gradientTransform="matrix(-1, 0, 0, 1, 300, 0)" gradientUnits="userSpaceOnUse"><stop offset="0.1" stop-color="#f9a241"/><stop offset="0.38" stop-color="#c44c21"/></linearGradient><linearGradient id="linear-gradient-2" x1="150" y1="18.92" x2="150" y2="313.19" gradientTransform="matrix(-1, 0, 0, 1, 300, 0)" gradientUnits="userSpaceOnUse"><stop offset="0.42" stop-color="#f9a241"/><stop offset="0.59" stop-color="#f46a35"/><stop offset="0.75" stop-color="#f0402c"/><stop offset="0.88" stop-color="#ee2626"/><stop offset="0.95" stop-color="#ed1c24"/></linearGradient></defs><g id="dinosaur"><path class="cls-1" d="M36.38,345H263.62A36.38,36.38,0,0,0,300,308.62V259.14H0v49.48A36.38,36.38,0,0,0,36.38,345Z"/><path class="cls-2" d="M36.38,45l164.89-8,26.63,56,23.64-56S300,46.54,300,81.38V262a36.38,36.38,0,0,1-36.38,36.38H36.38A36.38,36.38,0,0,1,0,262V81.38A36.38,36.38,0,0,1,36.38,45Z"/><path class="cls-3" d="M48.2,89.92l134.2-6.07a18.12,18.12,0,0,1,14.7,6.43l13.19,15.64a18.15,18.15,0,0,0,30.6-4.63h0A18.15,18.15,0,0,1,269.94,95a32,32,0,0,1,10.83,24.23v98.94a47.48,47.48,0,0,1-47.48,47.48H66.36a47.49,47.49,0,0,1-47.49-47.48V119.25A29.33,29.33,0,0,1,48.2,89.92Z"/><path class="cls-4" d="M181,147.47s43.23-62.19,9.2-77.2-20.86,72.05-20.86,72.05"/><path class="cls-5" d="M105.6,126.9A112.85,112.85,0,0,1,122,130.15c-4.46,4.67-9.42,12.42-10.66,24.37a73.39,73.39,0,0,0-13.54.74C96.45,139.56,102.92,130.09,105.6,126.9Z"/><path class="cls-5" d="M133.36,134c11.23,4.52,17.39,9.29,17.39,9.29l-9.64,17.06a98.85,98.85,0,0,0-19.48-4.88C123.13,141.66,130.78,135.66,133.36,134Z"/><path class="cls-5" d="M59.59,131.57a62,62,0,0,0-.5,31.22c-7.73.7-13.39-.2-15.24-4.37C40.87,151.72,43.35,138.93,59.59,131.57Z"/><path class="cls-5" d="M72,127.71a91.79,91.79,0,0,1,14.34-1.62c2.51-.1,5-.12,7.34-.07-3.76,6.52-7.62,17-6.13,31.32-6.31,1.41-12.51,2.85-18.17,3.92C65.06,144.28,70.19,131.48,72,127.71Z"/><path class="cls-6" d="M133.36,134c-2.58,1.65-10.23,7.65-11.73,21.47a95.1,95.1,0,0,0-10.32-1c1.24-12,6.2-19.7,10.66-24.37A107,107,0,0,1,133.36,134Z"/><path class="cls-6" d="M93.69,126a116.41,116.41,0,0,1,11.91.88c-2.68,3.19-9.15,12.66-7.83,28.36-1.11.17-2.23.36-3.34.59-2.29.48-4.59,1-6.87,1.49C86.07,143,89.93,132.54,93.69,126Z"/><path class="cls-6" d="M59.59,131.57A56.76,56.76,0,0,1,72,127.71c-1.82,3.77-7,16.57-2.62,33.55-3.7.7-7.17,1.25-10.3,1.53A62,62,0,0,1,59.59,131.57Z"/><ellipse class="cls-7" cx="166.86" cy="166.95" rx="25.64" ry="35.71" transform="translate(-65.68 207.41) rotate(-54.89)"/><circle class="cls-5" cx="201.21" cy="189.32" r="18.12"/><path class="cls-4" d="M165.2,147.47a9.9,9.9,0,0,1-8.53-4.86c-10.44-17.64-43.12-77.27-8.11-77.27,32.84,0,29.25,52.45,26.48,73.52a9.92,9.92,0,0,1-9.84,8.61Z"/><path class="cls-5" d="M211.25,202.64c3.41,6.68,6.72,13.41,10,20.16s6.49,13.52,9.74,20.29c1.61,3.39,3.17,6.8,4.65,10.25l4.43,10.36,9,20.66-10.71-19.82-5.41-9.88c-1.8-3.3-3.52-6.63-5.2-10-3.31-6.73-6.68-13.43-9.94-20.18s-6.53-13.51-9.67-20.33Z"/><path class="cls-5" d="M168.27,181.86a93.22,93.22,0,0,0-2.85,11.23,97.87,97.87,0,0,0-1.54,11.53,68.64,68.64,0,0,0,1.86,22.93c2.07,7.33,5.79,14.26,11.47,19.32l1,1c.34.33.74.59,1.11.89.76.56,1.49,1.16,2.27,1.7a46.47,46.47,0,0,0,4.93,2.86,56,56,0,0,0,10.73,4h0l.9.34.18.68,7.13,26.05L195.43,259.3l1.08,1h0a58.9,58.9,0,0,1-11.35-4.27,49,49,0,0,1-5.28-3.07c-.83-.58-1.63-1.23-2.45-1.84-.39-.32-.82-.6-1.2-.95l-1.12-1.05a43.29,43.29,0,0,1-4.21-4.46l-1.81-2.48c-.6-.83-1.08-1.73-1.63-2.6a48.64,48.64,0,0,1-4.67-11.24,71.54,71.54,0,0,1-1.94-24,103.07,103.07,0,0,1,1.61-11.88,95.26,95.26,0,0,1,3-11.65,1.5,1.5,0,0,1,2.85.94Z"/><path class="cls-5" d="M153.38,175.82a143.89,143.89,0,0,0-9,21.78,103.77,103.77,0,0,0-4.78,23c-.55,7.73,0,15.68,3,22.73a32.26,32.26,0,0,0,6.08,9.56,37.69,37.69,0,0,0,9.07,6.86h0l.88.61-.08.8L156,287.25,155.49,261l.81,1.4h0a41,41,0,0,1-9.87-7.48,35.69,35.69,0,0,1-6.65-10.46,42.16,42.16,0,0,1-3-11.94,66.22,66.22,0,0,1-.15-12.19,107.07,107.07,0,0,1,4.92-23.65,147.32,147.32,0,0,1,9.2-22.29,1.5,1.5,0,0,1,2.66,1.38Z"/><path class="cls-5" d="M142.75,169.82a145.6,145.6,0,0,0-17.69,15.26,93.71,93.71,0,0,0-14.35,18.23,49.7,49.7,0,0,0-4.65,10.45,29.7,29.7,0,0,0-1.18,11.09,25.18,25.18,0,0,0,3.48,10.46,37.51,37.51,0,0,0,7.43,8.45h0l1,1.07-.65.95-13,19,10.24-20.62.35,2h0a41,41,0,0,1-8.1-9.26,28.4,28.4,0,0,1-3.89-11.8,32.76,32.76,0,0,1,1.31-12.28,52.82,52.82,0,0,1,5-11.11,96.7,96.7,0,0,1,14.87-18.82A147.44,147.44,0,0,1,141,167.36a1.5,1.5,0,0,1,1.76,2.43Z"/><path class="cls-8" d="M36.38,45l164.89-8,26.63,56,23.64-56S300,46.54,300,81.38V262a36.38,36.38,0,0,1-36.38,36.38H36.38A36.38,36.38,0,0,1,0,262V81.38A36.38,36.38,0,0,1,36.38,45Z"/><polyline class="cls-9" points="251.54 36.97 233.52 43.77 219.49 75.23 227.9 92.92"/><polygon class="cls-9" points="69.21 265.38 77.93 249.71 85.29 298.39 72.61 298.39 69.21 265.38"/><polygon class="cls-10" points="85.29 298.39 108.83 337.79 88.58 325.11 72.61 298.39 85.29 298.39"/><polygon class="cls-11" points="51.47 298.39 51.47 298.39 69.21 265.38 72.61 298.39 51.47 298.39"/><polygon class="cls-7" points="72.61 298.39 88.58 325.11 51.47 298.39 72.61 298.39"/><path class="cls-12" d="M241.81,277.13c3.1,5.37,17.78,5.69,29.58-1.13s16.24-18.26,13.18-23.56S275,255,263.18,261.77,238.71,271.76,241.81,277.13Z"/><circle class="cls-12" cx="227.99" cy="276.67" r="5.22"/><path class="cls-12" d="M65,64.63c-3.68-7.2-19-10.56-30.66-4.59S19.08,79.15,22.71,86.26s9.74-1.14,21.43-7.11S68.72,71.84,65,64.63Z"/><ellipse class="cls-12" cx="17.99" cy="103.1" rx="10.17" ry="7.43" transform="translate(-86.6 106.71) rotate(-82.08)"/><circle class="cls-12" cx="16.95" cy="139.63" r="5.62"/></g></svg>