<svg id="Layer_1" data-name="Layer 1" xmlns="http://www.w3.org/2000/svg" xmlns:xlink="http://www.w3.org/1999/xlink" viewBox="0 0 300 345"><defs><style>.cls-1{fill:#95ceb7;}.cls-2{fill:#f1613a;}.cls-3{fill:url(#linear-gradient);}.cls-4{fill:#cb5230;}.cls-5{fill:#bcdcd2;}.cls-6{fill:#539b7a;}.cls-7{fill:#ebf6f1;}.cls-8{fill:none;stroke:#f1613a;stroke-miterlimit:10;stroke-width:9px;}.cls-9{fill:#f68c3f;}.cls-10{fill:#ecf7fe;}</style><linearGradient id="linear-gradient" x1="150" y1="352.49" x2="150" y2="258.12" gradientUnits="userSpaceOnUse"><stop offset="0" stop-color="#bcdcd2"/><stop offset="1" stop-color="#539b7a"/></linearGradient></defs><g id="robot"><polygon class="cls-1" points="154.49 27.17 145.51 27.17 145.51 46.94 154.49 46.94 154.49 27.17 154.49 27.17"/><circle class="cls-2" cx="150" cy="16.49" r="16.49"/><path class="cls-3" d="M263.62,345H36.38A36.38,36.38,0,0,1,0,308.62V259.14H300v49.48A36.38,36.38,0,0,1,263.62,345Z"/><path class="cls-4" d="M300,288c0,18.13-18.25,32.88-36.38,32.88H36.38C18.25,320.86,0,306.11,0,288v16.3a39.94,39.94,0,0,0,36.38,23.58H263.62A39.94,39.94,0,0,0,300,304.28Z"/><rect class="cls-5" y="45" width="300" height="253.39" rx="36.38"/><polygon class="cls-4" points="119.09 345 180.91 345 190.48 298.09 109.52 298.09 119.09 345"/><path class="cls-2" d="M150,263.75c-22.36,0-40.48,12-40.48,34.34h81C190.48,275.73,172.36,263.75,150,263.75Z"/><path class="cls-2" d="M300,257.61c-25.48,0-44.31-13.63-54.43-39.42A116.29,116.29,0,0,1,238.08,180V45h9V180A108.87,108.87,0,0,0,254,215.11c8.8,22.23,24.26,33.5,46,33.5Z"/><path class="cls-2" d="M0,257.61v-9c21.71,0,37.17-11.27,46-33.5a108.86,108.86,0,0,0,7-35.14V45h9V180a116.29,116.29,0,0,1-7.49,38.21C44.31,244,25.48,257.61,0,257.61Z"/><circle class="cls-6" cx="242.58" cy="172.54" r="36.45"/><circle class="cls-6" cx="57.42" cy="172.54" r="36.45"/><circle class="cls-6" cx="150" cy="111.4" r="36.45"/><path class="cls-2" d="M242.58,195.49a32,32,0,1,1,31.95-32A32,32,0,0,1,242.58,195.49Z"/><path class="cls-7" d="M242.58,136.08a27.46,27.46,0,1,1-27.45,27.46,27.48,27.48,0,0,1,27.45-27.46m0-9A36.46,36.46,0,1,0,279,163.54a36.46,36.46,0,0,0-36.45-36.46Z"/><path class="cls-2" d="M57.42,195.49a32,32,0,1,1,32-32A32,32,0,0,1,57.42,195.49Z"/><path class="cls-7" d="M57.42,136.08A27.46,27.46,0,1,1,30,163.54a27.48,27.48,0,0,1,27.45-27.46m0-9a36.46,36.46,0,1,0,36.45,36.46,36.46,36.46,0,0,0-36.45-36.46Z"/><path class="cls-2" d="M150,134.36a32,32,0,1,1,31.95-32A32,32,0,0,1,150,134.36Z"/><path class="cls-7" d="M150,75a27.46,27.46,0,1,1-27.45,27.45A27.48,27.48,0,0,1,150,75m0-9a36.46,36.46,0,1,0,36.45,36.45A36.45,36.45,0,0,0,150,66Z"/><path class="cls-7" d="M206.13,163.54A36.45,36.45,0,0,1,269,138.47L217.51,190A36.31,36.31,0,0,1,206.13,163.54Z"/><path class="cls-7" d="M93.87,163.54A36.45,36.45,0,0,0,31,138.47L82.49,190A36.31,36.31,0,0,0,93.87,163.54Z"/><path class="cls-7" d="M150,66a36.37,36.37,0,0,0-25.78,10.67h0L150,102.4l25.77-25.77h0A36.37,36.37,0,0,0,150,66Z"/><path class="cls-6" d="M219.14,223c-2.69-2.32-27.48-22.7-69.14-22.7h0c-41.66,0-66.44,20.38-69.13,22.7a25,25,0,1,0,32.69,37.83l1.59-1.1c4-2.59,15.55-8.91,32.73-9.4.7,0,1.41,0,2.12,0s1.42,0,2.12,0c17.18.49,28.71,6.81,32.74,9.4l1.59,1.1A25,25,0,0,0,219.14,223Z"/><path class="cls-7" d="M219.14,214c-2.69-2.32-27.48-22.7-69.14-22.7h0c-41.66,0-66.44,20.38-69.13,22.7a25,25,0,1,0,32.69,37.83l1.59-1.1c4-2.59,15.55-8.91,32.73-9.4.7,0,1.41,0,2.12,0s1.42,0,2.12,0c17.18.49,28.71,6.81,32.74,9.4l1.59,1.1A25,25,0,1,0,219.14,214Z"/><line class="cls-8" x1="93.12" y1="209.58" x2="93.12" y2="250.53"/><line class="cls-8" x1="115.87" y1="201.98" x2="115.87" y2="244.4"/><line class="cls-8" x1="138.62" y1="197.31" x2="138.62" y2="238.69"/><line class="cls-8" x1="161.38" y1="197.31" x2="161.38" y2="238.69"/><line class="cls-8" x1="184.13" y1="201.98" x2="184.13" y2="244.4"/><line class="cls-8" x1="206.88" y1="209.58" x2="206.88" y2="250.53"/><path class="cls-1" d="M150,200.33c38.41,0,60.82,18.41,63.25,20.51a16,16,0,0,1-20.78,24.33,25.12,25.12,0,0,0-2.74-2c-4.77-3.08-18-10.28-37.35-10.83-.79,0-1.59,0-2.38,0s-1.58,0-2.37,0c-19.39.55-32.58,7.75-37.37,10.84a25.27,25.27,0,0,0-2.58,1.84h0a16,16,0,0,1-20.93-24.21c2.43-2.1,24.85-20.51,63.25-20.51h0m0-9h0c-41.66,0-66.44,20.38-69.13,22.7a25,25,0,1,0,32.69,37.83l1.59-1.1c4-2.59,15.55-8.91,32.73-9.4.7,0,1.41,0,2.12,0s1.42,0,2.12,0c17.18.49,28.71,6.81,32.74,9.4l1.59,1.1A25,25,0,1,0,219.14,214c-2.69-2.32-27.48-22.7-69.14-22.7Z"/><path class="cls-9" d="M160.15,17.69c-3.08,3.08-6.36,1.37-9.44-1.71S145.92,9.62,149,6.54a7.88,7.88,0,0,1,11.15,11.15Z"/><circle class="cls-9" cx="157.91" cy="24.18" r="2.99"/><circle class="cls-10" cx="156.47" cy="10.37" r="3.49"/><circle class="cls-10" cx="159.96" cy="19.8" r="2.43"/></g></svg>