<svg id="Layer_1" data-name="Layer 1" xmlns="http://www.w3.org/2000/svg" xmlns:xlink="http://www.w3.org/1999/xlink" viewBox="0 0 300 345"><defs><style>.cls-1,.cls-8{fill:#c4e3c7;}.cls-2{fill:#b0d8a1;}.cls-3{fill:#fffef6;}.cls-17,.cls-18,.cls-4,.cls-7{fill:none;stroke-miterlimit:10;}.cls-4,.cls-7{stroke:#dd7399;}.cls-4{stroke-width:6px;}.cls-5{fill:#dd7399;}.cls-6{fill:#f6a9cb;}.cls-7{stroke-width:2px;}.cls-8{fill-opacity:0.25;}.cls-9{fill:url(#linear-gradient);}.cls-10{fill:#dae6f5;}.cls-11{fill:#72a4c4;}.cls-12{fill:#9dc6ea;}.cls-13{fill:#2d5997;}.cls-14{fill:#416eb5;}.cls-15{fill:#9ecf7a;}.cls-16{fill:#d1e176;}.cls-17,.cls-18{stroke:#7fb2d7;stroke-width:19px;}.cls-18{stroke-dasharray:2 10;}.cls-19{fill:#6f9b4e;}</style><linearGradient id="linear-gradient" x1="150" y1="356.11" x2="150" y2="161.16" gradientUnits="userSpaceOnUse"><stop offset="0" stop-color="#9dc6ea"/><stop offset="0.69" stop-color="#416eb5"/></linearGradient></defs><g id="robot"><path class="cls-1" d="M212.1,28.77H87.9A87.89,87.89,0,0,0,0,116.67H0v62H300v-62h0A87.89,87.89,0,0,0,212.1,28.77Z"/><path class="cls-2" d="M275,116.67a65,65,0,0,0-13.54-36.83,66.09,66.09,0,0,0-6.6-7.28,63.3,63.3,0,0,0-7.64-6.13,62,62,0,0,0-17.5-8.38,64.86,64.86,0,0,0-19.16-2.58l-20.17.22L150,55.82c-13.45-.07-26.9,0-40.35-.2l-20.17-.21a72.79,72.79,0,0,0-9.7.53,67,67,0,0,0-9.49,2A63.39,63.39,0,0,0,38.52,79.79,64.88,64.88,0,0,0,25,116.67a62.84,62.84,0,0,1,11.2-38.55A64.91,64.91,0,0,1,68.92,53.63a65.65,65.65,0,0,1,20.56-3.38L109.65,50c13.45-.15,26.9-.12,40.35-.19l40.35.13,20.17.21A73.21,73.21,0,0,1,221,51a69.18,69.18,0,0,1,10.16,2.52,67.79,67.79,0,0,1,9.6,4.11,60.1,60.1,0,0,1,8.8,5.56,66.64,66.64,0,0,1,7.76,6.87,68.53,68.53,0,0,1,6.55,8A62.3,62.3,0,0,1,269,87a58.89,58.89,0,0,1,3.64,9.57,66,66,0,0,1,2,10A71.33,71.33,0,0,1,275,116.67Z"/><circle class="cls-3" cx="233.72" cy="93.43" r="8.68"/><circle class="cls-3" cx="214.49" cy="107.58" r="3.85"/><circle class="cls-3" cx="62.68" cy="76.39" r="6.91"/><circle class="cls-3" cx="78.84" cy="95.91" r="3.88"/><circle class="cls-3" cx="41.37" cy="118.01" r="2.79"/><circle class="cls-3" cx="262.26" cy="117.57" r="7.92"/><path class="cls-4" d="M152.91,115.22s16.51,15.35,19,28.05,1.16,34.66,16.34,41.92"/><path class="cls-5" d="M167.48,124.94c-6.19,0-9.19-2.48-10.42-3.92a18,18,0,0,1-3.48.36c-8.17,0-11.63-6.65-12.31-10.16l-.21-1.08L177.65,90l.78.62c.6.47,14.69,11.64,13.32,21.42-.55,4-3.49,7.1-8.73,9.24C177.07,123.7,171.84,124.94,167.48,124.94Z"/><path class="cls-5" d="M177.5,91.79s25.25,19.8,4.95,28.09c-6.48,2.65-11.35,3.56-15,3.56-7.72,0-9.78-4.1-9.78-4.1a17,17,0,0,1-4.12.54c-9.09,0-10.84-8.95-10.84-8.95L177.5,91.79m.29-3.59-1.74,1L141.29,108.3l-1.91,1.06.42,2.14c.76,3.94,4.63,11.38,13.78,11.38a18.76,18.76,0,0,0,2.93-.24c1.69,1.68,5,3.8,11,3.8,4.56,0,10-1.27,16.11-3.78,5.77-2.36,9-5.86,9.65-10.42,1.46-10.45-12.31-21.58-13.89-22.81l-1.56-1.23Z"/><path class="cls-6" d="M133,117.89l-1.11,0c-12-.37-18.19-6.27-18.88-18a21.33,21.33,0,0,1-2.79.19A17.6,17.6,0,0,1,97.53,95c-4.76-4.77-7.17-12.68-7.17-23.49,0-22,28.28-35.66,54.48-35.66,19.55,0,36.64,6.79,48.12,19.12,13.19,14.18,18.39,30.78,13.9,44.42-2.34,7.1-7.1,12-12.74,13a23.34,23.34,0,0,1-4.33.45,16.36,16.36,0,0,1-7.55-1.92,16.63,16.63,0,0,0-7.86-1.9,35.31,35.31,0,0,0-7.29.89c-6.88,1.46-12.08,3.06-16.66,4.47C144.08,116.34,139.05,117.89,133,117.89Z"/><path class="cls-5" d="M144.84,37.33c17.13,0,34.83,5.56,47,18.65,23.93,25.7,15.18,52.47,2,55a22.26,22.26,0,0,1-4.05.42c-6.42,0-7.69-3.82-15.41-3.82a36.81,36.81,0,0,0-7.6.92C150.2,112,143,116.39,133,116.39c-.35,0-.7,0-1.06,0-10.56-.33-17.33-5-17.5-18.31a17.27,17.27,0,0,1-4.22.48c-6.54,0-18.38-3.29-18.38-27.05,0-20.15,25.77-34.16,53-34.16m0-3c-14,0-27.91,3.63-38.26,10-11.43,7-17.72,16.65-17.72,27.2,0,27.12,15,30.05,21.38,30.05.5,0,1,0,1.42-.05,1.21,11.49,8,17.5,20.2,17.88.39,0,.78,0,1.16,0,6.26,0,11.38-1.57,17.85-3.57,4.56-1.4,9.71-3,16.53-4.43a33.82,33.82,0,0,1,7-.86,15,15,0,0,1,7.23,1.77,17.89,17.89,0,0,0,8.18,2,25.27,25.27,0,0,0,4.6-.47c6.19-1.16,11.38-6.41,13.89-14a37.21,37.21,0,0,0,.14-21.23c-2.31-8.62-7.14-16.92-14.37-24.68-11.76-12.64-29.24-19.6-49.21-19.6Z"/><path class="cls-7" d="M127.42,37.74s18.48,2.73,19,15.89c.34,9.16-5,10.81-6,17.47-1.13,7.73,6,10.63,6,10.63"/><path class="cls-5" d="M155.86,35.45a25.5,25.5,0,0,1,4.86,7.61,24,24,0,0,1,1.35,4.34c.07.37.14.74.2,1.12s.1.81.1,1.19a19.19,19.19,0,0,1,0,2.28,38.55,38.55,0,0,1-1.72,8.7,30.58,30.58,0,0,1-1.56,4.12,18.31,18.31,0,0,1-2.26,3.76,20.78,20.78,0,0,0,1.69-4,39.92,39.92,0,0,0,1.09-4.17c.3-1.41.5-2.83.67-4.25a37.88,37.88,0,0,0,.28-4.24,20.42,20.42,0,0,0-.09-2.08c0-.34-.1-.65-.15-1s-.17-.67-.25-1A27.78,27.78,0,0,0,158.63,44a38.21,38.21,0,0,0-4.26-7.17Z"/><path class="cls-5" d="M172.13,41.89a11.26,11.26,0,0,0-3.56.12,8.55,8.55,0,0,0-3.27,1.38,7.67,7.67,0,0,0-2.36,2.66,10.6,10.6,0,0,0-.75,1.68c-.2.58-.33,1.2-.49,1.8l-1.23-.2c.15-.67.25-1.35.44-2a11.52,11.52,0,0,1,.77-1.94,9.09,9.09,0,0,1,2.66-3.29,10.08,10.08,0,0,1,3.83-1.84,12.56,12.56,0,0,1,4.26-.33Z"/><path class="cls-7" d="M112.48,100.28s13.16-18.19,44.06-19.71c16.51-.82,22.12,17,11.23,21"/><path class="cls-5" d="M125.42,116.19a26.89,26.89,0,0,1,4.63-10,33.82,33.82,0,0,1,7.74-7.69,39,39,0,0,1,4.7-2.76c.83-.38,1.61-.84,2.46-1.14l2.55-.92c.43-.14.84-.32,1.28-.42L150.1,93q1.31-.32,2.61-.6c.88-.18,1.78-.23,2.67-.34s1.77-.19,2.65-.25c-1.7.56-3.4,1-5.07,1.55-.82.32-1.64.62-2.46.91a20.41,20.41,0,0,0-2.42,1c-.8.36-1.58.73-2.37,1.07s-1.52.83-2.27,1.24a38.52,38.52,0,0,0-4.34,2.78,36.48,36.48,0,0,0-7.15,7.27,34.5,34.5,0,0,0-2.69,4.34,27.38,27.38,0,0,0-1.88,4.66Z"/><path class="cls-5" d="M146.72,95.63a17.45,17.45,0,0,0,.38,5.33,14.79,14.79,0,0,0,2.08,4.91,17.67,17.67,0,0,0,3.78,3.95c.72.6,1.56,1,2.33,1.59s1.69.88,2.53,1.38c-.93-.24-1.87-.5-2.8-.79-.46-.18-.9-.38-1.36-.57a7.4,7.4,0,0,1-1.32-.66l-1.28-.77c-.43-.26-.79-.62-1.19-.92a7.21,7.21,0,0,1-1.11-1c-.34-.37-.71-.73-1-1.14a13.56,13.56,0,0,1-2.59-5.52,12.85,12.85,0,0,1,.1-6.1Z"/><path class="cls-5" d="M196,92.87A36.08,36.08,0,0,1,186.1,100a29.42,29.42,0,0,1-12,3.13,36.94,36.94,0,0,1-6.22-.41,32,32,0,0,1-6-1.65,23.33,23.33,0,0,1-5.54-3,17.25,17.25,0,0,1-4.43-4.68l1.74-1a14.06,14.06,0,0,0,1.79,2.08,18.33,18.33,0,0,0,2.2,1.82,24.32,24.32,0,0,0,5.06,2.7A32.92,32.92,0,0,0,174.08,101a23.32,23.32,0,0,0,5.74-.71,41.44,41.44,0,0,0,5.58-1.85A71.07,71.07,0,0,0,196,92.87Z"/><path class="cls-5" d="M145.89,96.76a19.08,19.08,0,0,0-3,7,15.79,15.79,0,0,0-.28,2l-.09,1,0,1c-.05.67,0,1.35,0,2s.07,1.38,0,2.12a12.09,12.09,0,0,1-1.57-4,13.58,13.58,0,0,1-.16-4.41,14.79,14.79,0,0,1,1.15-4.31,12.47,12.47,0,0,1,2.51-3.78Z"/><path class="cls-5" d="M172.49,88a21.36,21.36,0,0,0,5.55.17,24.07,24.07,0,0,0,5.5-1.17,23.4,23.4,0,0,0,5.07-2.43,21.75,21.75,0,0,0,2.28-1.66L193.24,81a12.66,12.66,0,0,1,5.89-2.39,8.57,8.57,0,0,1,6.25,1.89A10,10,0,0,1,208.74,86a8.85,8.85,0,0,1-.8,6.15l-.64-.21a12.71,12.71,0,0,0-.46-5.43A8.65,8.65,0,0,0,204,82.23a6.61,6.61,0,0,0-4.7-1.49,10.19,10.19,0,0,0-4.89,1.92c-1.43,1-3,2.51-4.73,3.56a25.55,25.55,0,0,1-11.46,3.9,22.84,22.84,0,0,1-6.16-.21Z"/><path class="cls-7" d="M161.63,50s27.34-3,16.88,39.06"/><path class="cls-7" d="M159.58,60.59s13.84,3,4.74,21.14"/><path class="cls-7" d="M178.51,59.43s.06-8.9,10.46-7.74"/><path class="cls-7" d="M145.43,60.21S118.84,70.66,111.16,43.6"/><path class="cls-5" d="M141.58,45a35,35,0,0,0-4.14.43,24.54,24.54,0,0,0-4.06,1,15.43,15.43,0,0,0-3.68,2,12.79,12.79,0,0,0-2.86,3.21,10.8,10.8,0,0,1,2.24-3.87A13.78,13.78,0,0,1,132.74,45a17.54,17.54,0,0,1,4.31-1.57,17.12,17.12,0,0,1,4.59-.42Z"/><path class="cls-5" d="M200.87,66.21c-1.23.25-2.56.61-3.81,1a26.62,26.62,0,0,0-3.69,1.44A19.45,19.45,0,0,0,190,70.76a17.42,17.42,0,0,0-2.82,3,11.48,11.48,0,0,1,2-3.76,14.09,14.09,0,0,1,3.24-2.92,17.85,17.85,0,0,1,3.92-1.93,15.76,15.76,0,0,1,4.3-.91Z"/><path class="cls-5" d="M195.3,66.81a10.24,10.24,0,0,1,.52,3.26,11.92,11.92,0,0,1-.41,3.25,9.16,9.16,0,0,1-1.38,3,7.37,7.37,0,0,1-2.39,2.07,8.57,8.57,0,0,0,1.67-2.49,10.19,10.19,0,0,0,.66-2.8,16.3,16.3,0,0,0-.12-2.88c-.12-.94-.28-1.93-.46-2.8Z"/><path class="cls-5" d="M118.48,56.81c-1.1.91-2.23,1.91-3.31,2.88a37.79,37.79,0,0,0-3.11,3.09,19.48,19.48,0,0,0-2.55,3.52,11.77,11.77,0,0,0-1.4,4.2,9.11,9.11,0,0,1,.25-4.68,15.08,15.08,0,0,1,2.14-4.26A21.66,21.66,0,0,1,113.6,58a20.42,20.42,0,0,1,3.78-2.84Z"/><path class="cls-7" d="M92.6,61.09S90.2,84.85,112.39,82.3"/><path class="cls-7" d="M124.45,60.38s-19.25,16.89-9.59,37.21"/><path class="cls-5" d="M112.24,61.83l-3.26.05c-1.09,0-2.17.06-3.25.17a19.45,19.45,0,0,0-3.18.63,12,12,0,0,0-3,1.47A7.56,7.56,0,0,1,102,61.5,12.23,12.23,0,0,1,105.33,60a14.71,14.71,0,0,1,3.6-.53,12.39,12.39,0,0,1,3.61.37Z"/><path class="cls-5" d="M128.55,67.64a8.21,8.21,0,0,1,.71,3.94,9.94,9.94,0,0,1-1,4,9.19,9.19,0,0,1-2.53,3.23,8.26,8.26,0,0,1-3.59,1.78c.85-1.07,1.69-1.94,2.37-2.94a18.53,18.53,0,0,0,1.78-3,26.42,26.42,0,0,0,1.28-3.29C127.9,70.13,128.21,68.94,128.55,67.64Z"/><path class="cls-7" d="M127.27,75s9,2,9,9.39"/><path class="cls-8" d="M212.1,28.77H87.9A87.89,87.89,0,0,0,0,116.67H0v62H300v-62h0A87.89,87.89,0,0,0,212.1,28.77Z"/><path class="cls-9" d="M263.62,345H36.38A36.38,36.38,0,0,1,0,308.62V259.14H300v49.48A36.38,36.38,0,0,1,263.62,345Z"/><path class="cls-10" d="M283.13,139.1H0V262a36.38,36.38,0,0,0,36.38,36.38H263.62A36.38,36.38,0,0,0,300,262V139.1Z"/><path class="cls-11" d="M260.92,305.66v3c0,1,0,2.09-.12,3.13a40.38,40.38,0,0,1-1,6.18,34.77,34.77,0,0,1-5.06,11.4,36.58,36.58,0,0,1-8.67,8.88,35.25,35.25,0,0,1-19.79,6.8,35.24,35.24,0,0,0,21.79-6.8,36.58,36.58,0,0,0,8.67-8.88,34.77,34.77,0,0,0,5.06-11.4,40.38,40.38,0,0,0,1-6.18c.09-1,.1-2.08.12-3.13V298.39h-2Z"/><polygon class="cls-12" points="262.92 272.8 262.92 272.5 262.81 272.23 241.98 234.43 241.98 234.72 241.87 234.15 241.98 234.43 241.98 152.74 239.98 152.74 239.98 234.43 260.81 272.23 260.92 272.5 260.92 272.8 260.92 296.84 260.92 298.39 262.92 298.39 262.92 296.84 262.92 272.8"/><path class="cls-13" d="M244.66,336.42A38,38,0,0,0,256.8,317.2a34.9,34.9,0,0,0,1-5.66c.09-1,.11-1.92.14-2.88V298.39h-2v10.27c0,1,0,1.92-.14,2.88a34.9,34.9,0,0,1-1,5.66,38,38,0,0,1-12.14,19.22A37.52,37.52,0,0,1,221,345a32,32,0,0,0,3.25.05c-.42,0-.83,0-1.25-.05A37.52,37.52,0,0,0,244.66,336.42Z"/><polygon class="cls-14" points="257.92 296.84 257.92 273.09 237.1 235.29 236.98 235.02 236.98 234.72 236.98 152.74 234.98 152.74 234.98 234.72 234.98 235.02 235.1 235.29 255.92 273.09 255.92 272.8 256.03 273.37 255.92 273.09 255.92 296.84 255.92 298.39 257.92 298.39 257.92 296.84"/><path class="cls-14" d="M259.92,298.39h-2v10.27c0,1-.05,1.92-.14,2.88a34.9,34.9,0,0,1-1,5.66,38,38,0,0,1-12.14,19.22A37.52,37.52,0,0,1,223,345c.42,0,.83,0,1.25.05l1,0H225a38,38,0,0,0,14.06-3.7A35.6,35.6,0,0,1,225.28,345l1,0a35.25,35.25,0,0,0,19.79-6.8,36.58,36.58,0,0,0,8.67-8.88,34.77,34.77,0,0,0,5.06-11.4,40.38,40.38,0,0,0,1-6.18c.09-1,.1-2.08.12-3.13V298.39Z"/><path class="cls-11" d="M260.81,272.23,240,234.43v.29l-.11-.57.11.28V152.74h-3V235l.12.27,20.82,37.8v-.29l.11.57-.11-.28v25.3h3V272.5ZM238,234.72l-.11-.57.11.28Zm21.94,38.37v-.29l.11.57Z"/><path class="cls-11" d="M45.25,329.37A34.77,34.77,0,0,1,40.19,318a40.38,40.38,0,0,1-1-6.18c-.09-1-.1-2.08-.12-3.13V298.39h-2v10.27c0,1,0,2.09.12,3.13a40.38,40.38,0,0,0,1,6.18,34.77,34.77,0,0,0,5.06,11.4,36.58,36.58,0,0,0,8.67,8.88,35.24,35.24,0,0,0,21.79,6.8,35.25,35.25,0,0,1-19.79-6.8A36.58,36.58,0,0,1,45.25,329.37Z"/><polygon class="cls-12" points="39.08 296.84 39.08 272.8 39.08 272.5 39.19 272.23 60.02 234.43 60.02 152.74 58.02 152.74 58.02 234.43 58.13 234.15 58.02 234.72 58.02 234.43 37.19 272.23 37.08 272.5 37.08 272.8 37.08 296.84 37.08 298.39 39.08 298.39 39.08 296.84"/><path class="cls-13" d="M42.08,305.66v3c0,1,.05,1.92.14,2.88a34.9,34.9,0,0,0,1,5.66,38,38,0,0,0,12.14,19.22A37.52,37.52,0,0,0,77,345c-.42,0-.83,0-1.25.05A32,32,0,0,0,79,345a37.52,37.52,0,0,1-21.62-8.58A38,38,0,0,1,45.2,317.2a34.9,34.9,0,0,1-1-5.66c-.09-1-.11-1.92-.14-2.88V298.39h-2Z"/><polygon class="cls-14" points="44.08 273.09 43.97 273.37 44.08 272.8 44.08 273.09 64.9 235.29 65.02 235.02 65.02 234.72 65.02 152.74 63.02 152.74 63.02 234.72 63.02 235.02 62.9 235.29 42.08 273.09 42.08 296.84 42.08 298.39 44.08 298.39 44.08 296.84 44.08 273.09"/><path class="cls-14" d="M55.34,336.42A38,38,0,0,1,43.2,317.2a34.9,34.9,0,0,1-1-5.66c-.09-1-.11-1.92-.14-2.88V298.39h-3v10.27c0,1,0,2.09.12,3.13a40.38,40.38,0,0,0,1,6.18,34.77,34.77,0,0,0,5.06,11.4,36.58,36.58,0,0,0,8.67,8.88,35.25,35.25,0,0,0,19.79,6.8l1,0A35.6,35.6,0,0,1,60.9,341.3,38,38,0,0,0,75,345h-.24l1,0c.42,0,.83,0,1.25-.05A37.52,37.52,0,0,1,55.34,336.42Z"/><path class="cls-11" d="M62,152.74H60v81.69l.11-.28-.11.57v-.29l-20.83,37.8-.11.27v25.89h3v-25.3l-.11.28.11-.57v.29l20.82-37.8L63,235V152.74ZM40,273.37l.11-.57v.29ZM62,234.72v-.29l.11-.28Z"/><path class="cls-15" d="M231.78,253.78a45.42,45.42,0,0,1-13.64-2.09,46.11,46.11,0,0,1-29.2-27.07,1.5,1.5,0,0,1,.8-1.94l82.14-35.21a1.52,1.52,0,0,1,.59-.12,1.5,1.5,0,0,1,1.36.87,46.19,46.19,0,0,1-42,65.56Z"/><path class="cls-14" d="M272.47,188.85a45.08,45.08,0,0,1,3.88,14.08,44.72,44.72,0,0,1-44.57,49.35,43.93,43.93,0,0,1-13.19-2,44.61,44.61,0,0,1-20.74-13.68,45.17,45.17,0,0,1-7.52-12.52l82.14-35.21m0-3a3.11,3.11,0,0,0-1.18.24l-82.14,35.22a3,3,0,0,0-1.61,3.86,47.71,47.71,0,0,0,30.15,28,47.08,47.08,0,0,0,14.09,2.15A47.69,47.69,0,0,0,275.2,187.6a3,3,0,0,0-2.73-1.75Z"/><path class="cls-15" d="M68.22,253.78a46.18,46.18,0,0,1-42-65.56,1.5,1.5,0,0,1,1.36-.87,1.52,1.52,0,0,1,.59.12l82.14,35.21a1.5,1.5,0,0,1,.8,1.94,46.11,46.11,0,0,1-29.2,27.07,45.42,45.42,0,0,1-13.64,2.09Z"/><path class="cls-14" d="M27.53,188.85l82.14,35.21a45.17,45.17,0,0,1-7.52,12.52,44.61,44.61,0,0,1-20.74,13.68,43.93,43.93,0,0,1-13.19,2,44.68,44.68,0,0,1-40.69-63.43m0-3a3,3,0,0,0-2.73,1.75,47.7,47.7,0,0,0,43.42,67.68,47.08,47.08,0,0,0,14.09-2.15,47.71,47.71,0,0,0,30.15-28,3,3,0,0,0-1.61-3.86L28.71,186.09a3.07,3.07,0,0,0-1.18-.24Z"/><path class="cls-16" d="M252.12,216.25a24.36,24.36,0,0,0-2.12-7.7L205.09,227.8a24.77,24.77,0,0,0,4.11,6.85,24.45,24.45,0,0,0,42.92-18.4Z"/><path class="cls-16" d="M47.88,216.25a24.36,24.36,0,0,1,2.12-7.7L94.91,227.8a24.77,24.77,0,0,1-4.11,6.85,24.45,24.45,0,0,1-42.92-18.4Z"/><rect class="cls-12" y="135.67" width="300" height="19"/><line class="cls-17" y1="145.17" x2="1" y2="145.17"/><line class="cls-18" x1="11" y1="145.17" x2="294" y2="145.17"/><line class="cls-17" x1="299" y1="145.17" x2="300" y2="145.17"/><path class="cls-15" d="M191.4,288.43a1.48,1.48,0,0,1-1.17-.57c-.12-.15-10.23-12.35-40.23-12.35s-40.13,12.23-40.23,12.35a1.48,1.48,0,0,1-1.17.57,1.61,1.61,0,0,1-.48-.08,1.48,1.48,0,0,1-1-1.38,42.92,42.92,0,1,1,85.8,0,1.48,1.48,0,0,1-1.5,1.46Z"/><path class="cls-14" d="M150,244.39a41.39,41.39,0,0,1,41.4,42.54S181.29,274,150,274s-41.4,12.92-41.4,12.92A41.39,41.39,0,0,1,150,244.39m0-3h0A44.4,44.4,0,0,0,105.6,287a3,3,0,0,0,2.06,2.77,3,3,0,0,0,3.3-1c.08-.09,9.9-11.77,39-11.77s39,11.68,39.06,11.79A3,3,0,0,0,191.4,290a2.83,2.83,0,0,0,.95-.16A3,3,0,0,0,194.4,287,44.4,44.4,0,0,0,150,241.39Z"/><path class="cls-19" d="M113.88,265.52v17.05q1.32-.85,3-1.74v-19.9A42,42,0,0,0,113.88,265.52Z"/><path class="cls-19" d="M127.73,250.88v25.8c1-.26,2-.5,3-.73V249.13C129.71,249.66,128.71,250.26,127.73,250.88Z"/><path class="cls-19" d="M141.58,245.26v29.09c1-.08,2-.15,3-.2v-29.4Q143.07,244.95,141.58,245.26Z"/><path class="cls-19" d="M155.42,244.75v29.4c1,.05,2,.12,3,.2V245.26Q156.94,244.95,155.42,244.75Z"/><path class="cls-19" d="M169.27,249.13V276c1,.23,2,.47,3,.73v-25.8C171.29,250.26,170.29,249.66,169.27,249.13Z"/><path class="cls-19" d="M183.12,260.94v19.89q1.68.89,3,1.74V265.52A41,41,0,0,0,183.12,260.94Z"/></g></svg>