<svg id="Layer_1" data-name="Layer 1" xmlns="http://www.w3.org/2000/svg" xmlns:xlink="http://www.w3.org/1999/xlink" viewBox="0 0 300 345"><defs><style>.cls-1{fill:url(#linear-gradient);}.cls-2{fill:#dae6f5;}.cls-3{fill:#c3d8ea;}.cls-4{fill:url(#linear-gradient-2);}.cls-5{fill:#9dc6ea;fill-opacity:0.6;}.cls-6{fill:#8bbcc4;}.cls-7{fill:#f3fafd;}.cls-8{fill:#d38d30;}.cls-9{fill:#fbb040;}.cls-10{fill:#fd8;}.cls-11{fill:#dc5841;}.cls-12{fill:#f4a57d;}.cls-13{fill:#a8362a;}.cls-14{fill:#af6d2f;}.cls-15{fill:#c88b4b;}.cls-16{fill:#eab371;}.cls-17{fill:#e39a4a;}.cls-18{fill:url(#radial-gradient);}.cls-19{fill:#ffcd05;}.cls-20{fill:#feea96;}</style><linearGradient id="linear-gradient" x1="150" y1="356.11" x2="150" y2="161.16" gradientUnits="userSpaceOnUse"><stop offset="0" stop-color="#dae6f5"/><stop offset="0.37" stop-color="#73a0d5"/></linearGradient><linearGradient id="linear-gradient-2" x1="150" y1="326.72" x2="150" y2="-24.16" gradientUnits="userSpaceOnUse"><stop offset="0.65" stop-color="#dae6f5"/><stop offset="0.73" stop-color="#73a0d5"/></linearGradient><radialGradient id="radial-gradient" cx="72.79" cy="241.73" r="21.5" gradientTransform="matrix(0.99, -0.13, 0.15, 1.12, -34.74, -19.72)" gradientUnits="userSpaceOnUse"><stop offset="0.54" stop-color="#d88f2a"/><stop offset="1" stop-color="#fabc2e"/></radialGradient></defs><title>blook-breakfast</title><path class="cls-1" d="M263.62,345H36.38A36.38,36.38,0,0,1,0,308.62V259.14H300v49.48A36.38,36.38,0,0,1,263.62,345Z"/><rect class="cls-2" y="45" width="300" height="284.51" rx="36.38"/><rect class="cls-3" x="33.41" y="76.68" width="233.19" height="221.14" rx="28.28"/><path class="cls-4" d="M238.32,76.68H61.69A28.28,28.28,0,0,0,33.41,105v6.47A28.28,28.28,0,0,1,61.69,83.16H238.32a28.27,28.27,0,0,1,28.27,28.27V105A28.28,28.28,0,0,0,238.32,76.68Z"/><path class="cls-5" d="M288.26,155.1l.18.05-.31-.11h0l-46-15.54a10.41,10.41,0,0,0-12.1,4.26l-8.83,13.79c-.7-7.74-4.64-18.48-10.61-22h0a22.53,22.53,0,0,0-4.46-3.41,15.56,15.56,0,0,1-7.31-9.17l-6.91-24.92C187,80.38,168,70.29,149.43,75.55L98.38,90c-32.44,9.21-51.78,41.79-43.19,72.78L66.74,204.5A30.52,30.52,0,0,0,68,208.13L19.6,173.81a7.36,7.36,0,0,0-11,3.15h0S5,185.87,6.1,192.33l16.43,96.54A33.51,33.51,0,0,0,61.2,316.28l96.54-16.44c6.46-1.1,8-17.56,8-17.56h0a7.22,7.22,0,0,0-3-7l-8.61-6.1-45.72-32.42a37,37,0,0,0,5-1.05l13.79-3.91a16.1,16.1,0,0,1,9.69.38,24.33,24.33,0,0,0,9.51,1.28l53.5-3.43a69.29,69.29,0,0,1-10,26.26l-13.62,21.28a10.41,10.41,0,0,0,5.44,15.48l46,15.54h0l.31.1-.12,0a10.4,10.4,0,0,0,11.91-4.3l16.42-25.65a69.19,69.19,0,0,0,10.59-30.53l2.56-25.84A69.19,69.19,0,0,1,280,191.81l13.62-21.29A10.4,10.4,0,0,0,288.26,155.1Z"/><path class="cls-6" d="M194.64,124l-13.08-20.57c-5-17.89-17.56-32.93-35.45-27.91L91.19,91a53,53,0,0,0-36.7,65.31l13.4,47.78a33.61,33.61,0,0,0,41.46,23.3l13.3-3.73a15.06,15.06,0,0,1,9.4.53,23.09,23.09,0,0,0,9.24,1.43l52.1-2.67a23,23,0,0,0,21.77-24.11l-2.41-47c-.4-7.84-4.5-19.88-10.71-23.71C198.56,125.91,195.74,128,194.64,124Z"/><path class="cls-7" d="M190.44,115.22,183.38,90a33.62,33.62,0,0,0-41.46-23.3L92.67,80.55a58.86,58.86,0,0,0-40.79,72.57l11.81,42.11a33.62,33.62,0,0,0,41.46,23.3l13.31-3.73a15.07,15.07,0,0,1,9.4.53,22.86,22.86,0,0,0,9.23,1.42l52.1-2.66A23,23,0,0,0,211,190l-2.4-47a23,23,0,0,0-10.9-18.4A16.12,16.12,0,0,1,190.44,115.22Z"/><rect class="cls-8" x="93.97" y="105.65" width="67.19" height="63.72" rx="28.12" transform="translate(-32.39 39.55) rotate(-15.67)"/><rect class="cls-9" x="91.64" y="97.35" width="67.19" height="63.72" rx="28.12" transform="translate(-30.24 38.62) rotate(-15.67)"/><rect class="cls-10" x="122.33" y="101.96" width="23.56" height="22.35" rx="11.17" transform="translate(-7.29 9.25) rotate(-3.85)"/><path class="cls-11" d="M223.49,301.19l-46-15.54A10.42,10.42,0,0,1,172,270.17l13.62-21.28a69.37,69.37,0,0,0,10.6-30.54l2.55-25.83A69.37,69.37,0,0,1,209.4,162l16.41-25.64a10.41,10.41,0,0,1,12.1-4.26l46,15.54a10.42,10.42,0,0,1,5.44,15.48l-13.63,21.29a69.19,69.19,0,0,0-10.59,30.53l-2.56,25.84A69.19,69.19,0,0,1,252,271.29L235.6,296.94A10.43,10.43,0,0,1,223.49,301.19Z"/><path class="cls-12" d="M193.05,277.27,206.68,256a69.44,69.44,0,0,0,10.59-30.53l2.55-25.84a69.33,69.33,0,0,1,10.6-30.53l16.41-25.64a10.41,10.41,0,0,1,12.1-4.26l-11.58-3.91a10.42,10.42,0,0,0-12.1,4.25l-16.42,25.65a69.44,69.44,0,0,0-10.59,30.53l-2.55,25.84a69.33,69.33,0,0,1-10.6,30.53l-13.62,21.29a10.42,10.42,0,0,0,5.44,15.48l11.58,3.91A10.42,10.42,0,0,1,193.05,277.27Z"/><path class="cls-12" d="M218.37,285.81,232,264.53A69.19,69.19,0,0,0,242.58,234l2.56-25.84a69.19,69.19,0,0,1,10.59-30.53L272.15,152a10.4,10.4,0,0,1,12.1-4.25l-11.59-3.91a10.41,10.41,0,0,0-12.1,4.25l-16.41,25.65a69.33,69.33,0,0,0-10.6,30.53L231,230.08a69.33,69.33,0,0,1-10.6,30.54L206.78,281.9a10.41,10.41,0,0,0,5.44,15.48l11.59,3.91A10.41,10.41,0,0,1,218.37,285.81Z"/><path class="cls-13" d="M278.6,154.17l-16.42,25.64a69.23,69.23,0,0,0-10.59,30.54L249,236.18a69.23,69.23,0,0,1-10.59,30.54L224.82,288c-4.89,6.49.68,12.3,5.22,8.29a7.76,7.76,0,0,0,1.34-1.63l16-25a69.44,69.44,0,0,0,10.59-30.54l2.56-25.83a69.19,69.19,0,0,1,10.59-30.53l13.62-21.29C290.89,152.75,281.14,150.19,278.6,154.17Z"/><path class="cls-14" d="M62.24,309.36l92.44-15.74c6.19-1.05,7.71-16.82,7.71-16.82L11.83,176s-3.4,8.53-2.34,14.72l15.74,92.44A32.08,32.08,0,0,0,62.24,309.36Z"/><path class="cls-15" d="M64.15,298.56l92.44-15.74a7.05,7.05,0,0,0,2.9-12.7L22.42,172.94a7,7,0,0,0-11,6.93l15.74,92.44A32.08,32.08,0,0,0,64.15,298.56Z"/><path class="cls-16" d="M67.38,289.29l81.32-13.84a6.2,6.2,0,0,0,2.54-11.17L30.66,178.78a6.2,6.2,0,0,0-9.69,6.1L34.81,266.2A28.23,28.23,0,0,0,67.38,289.29Z"/><path class="cls-17" d="M74.17,275l42.31-7.2a8.71,8.71,0,0,0,3.57-15.69L52.73,204.35a8.71,8.71,0,0,0-13.63,8.57l7.21,42.31A24.14,24.14,0,0,0,74.17,275Z"/><path class="cls-18" d="M91.88,245.6h0v-.07l0-.16-1.12-5.89-3.52.9-14.12-7.83a6,6,0,0,0-8.14,2.33l-7.23,13.05-3.29.84,1.08,5.92v.11h0a5.94,5.94,0,0,0,3,4.07l15.79,8.76a6,6,0,0,0,8.14-2.33l8.79-15.85A6,6,0,0,0,91.88,245.6Z"/><rect class="cls-19" x="57.63" y="229.67" width="30.09" height="30.03" rx="5.98" transform="translate(-176.56 189.59) rotate(-60.99)"/><rect class="cls-20" x="76.01" y="236.21" width="9.8" height="9.78" rx="3.75" transform="translate(-169.18 194.94) rotate(-60.99)"/><rect class="cls-20" x="77.79" y="247.68" width="6.23" height="6.22" rx="3.11" transform="translate(-177.65 199.93) rotate(-60.99)"/></svg>