<svg id="Layer_1" data-name="Layer 1" xmlns="http://www.w3.org/2000/svg" xmlns:xlink="http://www.w3.org/1999/xlink" viewBox="0 0 300 345"><defs><style>.cls-1{fill:url(#linear-gradient);}.cls-2{fill:#416eb5;}.cls-3{fill:#184483;fill-opacity:0.5;}.cls-4{fill:#032657;}.cls-5{fill:#fff;}.cls-6{fill:#231f20;}.cls-7{fill:#001534;}.cls-8{fill:#fbe2cd;}</style><linearGradient id="linear-gradient" x1="150" y1="356.11" x2="150" y2="161.16" gradientTransform="matrix(-1, 0, 0, 1, 300, 0)" gradientUnits="userSpaceOnUse"><stop offset="0.07" stop-color="#416eb5"/><stop offset="0.54" stop-color="#032657"/></linearGradient></defs><g id="dinosaur"><path class="cls-1" d="M36.38,345H263.62A36.38,36.38,0,0,0,300,308.62V259.14H0v49.48A36.38,36.38,0,0,0,36.38,345Z"/><rect class="cls-2" y="45" width="300" height="253.39" rx="36.38"/><path class="cls-3" d="M23.17,162.09a423.62,423.62,0,0,0,34.26,41.58c7.43,7.89,29.62,20.53,32.34,34,2.38,11.77-6,15.39-7.43,19.15-3.48,9.36,3,17.65,3,17.65s-.33-8.19,19.41-10.12c14.54-1.42,15.79-27.75-22.89-61.36C67.93,190.91,23.17,162.09,23.17,162.09Z"/><path class="cls-3" d="M210.67,175.88a57.62,57.62,0,0,1-22.09-14.49,54.22,54.22,0,0,1-4.23-5.2l-1.8-2.76a29.81,29.81,0,0,1-1.73-2.81l-1.6-2.89c-.55-1-.95-2-1.43-3a29.17,29.17,0,0,1-1.29-3.06c-.38-1-.79-2.08-1.14-3.14A49.72,49.72,0,0,1,173,125.34c-.07-1.12.25-11.48-13.62-15q-8.61-2.17-17.33-3.71a164.55,164.55,0,0,0-17.46-2.18,82.73,82.73,0,0,0-17.2.46,36.25,36.25,0,0,0-8,2l-.21.09a11.66,11.66,0,0,1,1.13-1.31,18,18,0,0,1,6.3-4,36.62,36.62,0,0,1,7.87-2,81.52,81.52,0,0,1,17-.45,161,161,0,0,1,17.25,2.16c5.73,1,11.44,2.24,17.12,3.65,4.87,1.2,9.75,2.52,14.53,4-.07.27-.13.54-.2.81a32,32,0,0,0-.59,3.34c-.18,1.11-.2,2.23-.3,3.35s-.06,2.23,0,3.34a49.4,49.4,0,0,0,2.33,13c.34,1,.75,2.06,1.12,3.1a32.16,32.16,0,0,0,1.28,3c.48,1,.88,2,1.41,3l1.58,2.86c.5,1,1.13,1.86,1.71,2.78l1.79,2.72a52.87,52.87,0,0,0,4.17,5.14,57,57,0,0,0,21.83,14.32,75.86,75.86,0,0,0,12.52,3.52q3.18.61,6.42,1c1.39.14,2.74.26,4.14.33,0,.23,0,.46.05.69.09,1,.24,2.05.41,3.07a37,37,0,0,0,1.55,6,29.9,29.9,0,0,0,6.45,10.77,27.1,27.1,0,0,0,10.69,6.75,38.33,38.33,0,0,0,12.2,1.91,46.61,46.61,0,0,0,12.11-1.45,34.65,34.65,0,0,0,11.28-5.16,30.64,30.64,0,0,0,5.3-4.68,37.5,37.5,0,0,1-4.52,6,32.15,32.15,0,0,1-5.7,5.1A35.17,35.17,0,0,1,278,208.85a46.87,46.87,0,0,1-12.26,1.48,38.62,38.62,0,0,1-12.34-2,27.3,27.3,0,0,1-10.83-6.83,29.45,29.45,0,0,1-6.53-10.9c-1.5-4.48.18-8.81-12.72-11.2A74.27,74.27,0,0,1,210.67,175.88Z"/><path class="cls-4" d="M3.89,117.27a71.53,71.53,0,0,0,2,9.54,66.57,66.57,0,0,0,13.83,25.45A105.63,105.63,0,0,0,34,165.86c5.19,4.14,10.68,8,16.29,11.7C61.48,185,73.19,192.07,84,200.7c2.69,2.15,5.32,4.4,7.86,6.76s5,4.87,7.25,7.48a81.75,81.75,0,0,1,11.72,17.31,74.81,74.81,0,0,1,4,9.67c.65,1.82,1.19,3.67,1.66,5.54h0v.11c.37,1.48.7,3,1,4.46a54.12,54.12,0,0,1-.23,20.65c-1.12-5.06-2-10-3.1-14.83-.24.48-.5,1-.78,1.44a17,17,0,0,1-4.38,4.92,15.13,15.13,0,0,1-6.16,2.68,13.31,13.31,0,0,1-1.63.23,12.64,12.64,0,0,1-1.62.08H98.26a7.14,7.14,0,0,0-1.13,0,15.48,15.48,0,0,0-4.42,1,16.4,16.4,0,0,0-4.14,2.25,10.05,10.05,0,0,0-3.28,4,5.66,5.66,0,0,1-.21-3,9.25,9.25,0,0,1,1-2.94A12.81,12.81,0,0,1,90.46,264a15.74,15.74,0,0,1,6-2.24,10.8,10.8,0,0,1,1.59-.2l1.39-.11a8,8,0,0,0,1.11-.14c.37-.05.72-.14,1.07-.22a10.88,10.88,0,0,0,6.6-5,21.44,21.44,0,0,0,2-4.22c.26-.76.52-1.54.74-2.34s.4-1.59.54-2.25c-.37-1.27-.76-2.52-1.22-3.76a70.4,70.4,0,0,0-3.9-9,77,77,0,0,0-11.21-16.11c-2.2-2.44-4.54-4.77-7-7s-5-4.35-7.63-6.4c-10.52-8.17-22.1-15.1-33.5-22.56-5.71-3.72-11.37-7.61-16.8-11.89a105.26,105.26,0,0,1-15.15-14.35,72.49,72.49,0,0,1-15-27.71c0-.14-.07-.28-.11-.43V101.18Z"/><path class="cls-4" d="M90.72,110.24a16.25,16.25,0,0,1,.85-2.4c.36-.77.64-1.53,1.08-2.31a18.34,18.34,0,0,1,3.17-4.24,22.07,22.07,0,0,1,4.05-3.21,30.44,30.44,0,0,1,4.48-2.2,42.59,42.59,0,0,1,9.26-2.32A84.1,84.1,0,0,1,132,93.3a168.26,168.26,0,0,1,17.84,2.5A253.9,253.9,0,0,1,184.36,105l2.49.86-1,2.5h0c-.11.28-.28.78-.4,1.21s-.24.92-.36,1.37c-.2.94-.39,1.89-.5,2.86s-.17,2-.26,2.92-.06,2,0,3a44.58,44.58,0,0,0,2.11,11.68c.3.95.68,1.88,1,2.82a25.8,25.8,0,0,0,1.17,2.77c.44.91.8,1.85,1.29,2.73l1.47,2.65A29.79,29.79,0,0,0,193,145l1.66,2.54a48,48,0,0,0,3.76,4.62,52,52,0,0,0,19.93,13A71.43,71.43,0,0,0,230,168.44q3,.59,6,.92a56.08,56.08,0,0,0,6,.37h2.58l-.05,2.58c0,.74,0,1.71.12,2.58s.21,1.78.35,2.67a33.93,33.93,0,0,0,1.35,5.2,24.87,24.87,0,0,0,5.34,9,22,22,0,0,0,8.72,5.48A33.27,33.27,0,0,0,271,198.85c7.34.05,14.69-1.59,20.5-5.7a27.63,27.63,0,0,0,7.32-7.61c.42-.64.81-1.3,1.18-2v8.64a31,31,0,0,1-5.63,5,34.65,34.65,0,0,1-11.28,5.16A46.61,46.61,0,0,1,271,203.85a38.33,38.33,0,0,1-12.2-1.91,27.1,27.1,0,0,1-10.69-6.75,29.9,29.9,0,0,1-6.45-10.77,37,37,0,0,1-1.55-6c-.17-1-.32-2-.41-3.07,0-.23,0-.46-.05-.69-1.4-.07-2.75-.19-4.14-.33q-3.24-.36-6.42-1a75.86,75.86,0,0,1-12.52-3.52,57,57,0,0,1-21.83-14.32,52.87,52.87,0,0,1-4.17-5.14l-1.79-2.72c-.58-.92-1.21-1.81-1.71-2.78L185.47,142c-.53-.95-.93-2-1.41-3a32.16,32.16,0,0,1-1.28-3c-.37-1-.78-2.06-1.12-3.1a49.4,49.4,0,0,1-2.33-13c-.07-1.11,0-2.23,0-3.34s.12-2.24.3-3.35a32,32,0,0,1,.59-3.34c.07-.27.13-.54.2-.81-4.78-1.45-9.66-2.77-14.53-4-5.68-1.41-11.39-2.65-17.12-3.65a161,161,0,0,0-17.25-2.16,81.52,81.52,0,0,0-17,.45,36.62,36.62,0,0,0-7.87,2,18,18,0,0,0-6.3,4,11.88,11.88,0,0,0-2.1,2.84c-.29.5-.51,1.14-.77,1.7a9.8,9.8,0,0,0-.62,1.77,16,16,0,0,0-.42,7.3c.8,4.94,3.92,9.61,7.58,13.72a73.12,73.12,0,0,0,6.09,5.83c2.19,1.82,4.42,3.59,6.79,5.24a202.68,202.68,0,0,0,30.26,17.16c2.64,1.25,5.31,2.45,8,3.63l4,1.74c.68.29,1.34.56,2,.87l2.1,1a67.84,67.84,0,0,1,15.54,9.89l3.46,3c1.09,1.07,2.14,2.19,3.21,3.28.52.56,1.08,1.09,1.57,1.67l1.47,1.77L190,190a22.38,22.38,0,0,1,1.4,1.81l2.66,3.72c.86,1.25,1.61,2.58,2.42,3.87.39.65.81,1.29,1.18,2l1.07,2,1.06,2c.36.67.71,1.35,1,2l1.87,4.15c.57,1.41,1.08,2.84,1.62,4.26.22.53.41,1.08.59,1.62,1.66,1.1,3.36,2.33,5,3.49,1.86,1.33,3.73,2.65,5.64,3.91a67.43,67.43,0,0,0,6,3.41,39.06,39.06,0,0,0,6.64,2.47,20.63,20.63,0,0,1-7.44.2,30.51,30.51,0,0,1-3.68-.8,33.2,33.2,0,0,1-3.57-1.19,39,39,0,0,1-6.33-3.17,47.85,47.85,0,0,1,.85,7.83c0,1.53-.07,3.06-.21,4.57a39.81,39.81,0,0,1-.9,4.5c-.51-1.47-.9-2.91-1.25-4.34s-.84-2.83-1.19-4.23c-.83-2.79-1.56-5.55-2.41-8.29A92.86,92.86,0,0,0,196,209.71a20.14,20.14,0,0,0-1-1.91l-1-1.89-1-1.88c-.36-.62-.76-1.21-1.14-1.82-.78-1.19-1.49-2.43-2.32-3.6l-2.54-3.45a17.57,17.57,0,0,0-1.33-1.66l-1.39-1.63-1.38-1.62c-.47-.54-1-1-1.49-1.53-1-1-2-2-3-3L175.08,183a64.6,64.6,0,0,0-14.33-8.9l-1.91-.9c-.65-.29-1.36-.57-2-.86l-4.11-1.73c-2.74-1.19-5.46-2.39-8.16-3.65-5.42-2.5-10.77-5.15-16-8a155.56,155.56,0,0,1-15.35-9.5,87,87,0,0,1-13.92-12,47.75,47.75,0,0,1-5.67-7.64,27.63,27.63,0,0,1-3.49-9.3A22.28,22.28,0,0,1,90.72,110.24Z"/><ellipse class="cls-3" cx="272.09" cy="109.13" rx="5.71" ry="5.19"/><circle class="cls-3" cx="242.43" cy="108.31" r="21.38"/><path class="cls-4" d="M276.38,189.94a17.91,17.91,0,0,0-3.78-2.06,29.48,29.48,0,0,0-3.86-1.26c-1.31-.38-2.68-.63-4.07-1-.7-.14-1.41-.3-2.14-.5a14.87,14.87,0,0,1-2.23-.64,14.84,14.84,0,0,1,2.22-.83,19.37,19.37,0,0,1,2.3-.39,14.13,14.13,0,0,1,4.7.44,11.49,11.49,0,0,1,4.32,2.16A6.83,6.83,0,0,1,276.38,189.94Z"/><circle class="cls-5" cx="237.41" cy="114.88" r="22.3"/><circle class="cls-6" cx="237.41" cy="114.88" r="10.94"/><ellipse class="cls-7" cx="273.06" cy="98.96" rx="5.98" ry="9.06"/><path class="cls-8" d="M99.18,335.3S99.3,326,92.63,326s-5,13.71-5,13.71"/><path class="cls-8" d="M58.32,335.3S58.2,326,64.88,326s5,13.71,5,13.71"/><path class="cls-8" d="M84.57,340.16s1.35-14.54-5.41-14.54-5.4,14.54-5.4,14.54"/><path class="cls-4" d="M104.69,304.54c-.76,4.51-1.4,8.78-2.29,12.92a39.61,39.61,0,0,1-4,11.58,19.63,19.63,0,0,1-8.27,7.89,21.27,21.27,0,0,1-5.54,1.86,26.24,26.24,0,0,1-3,.46c-1,.11-2,.1-3,.16a26.74,26.74,0,0,1-11.65-2.27,19.82,19.82,0,0,1-8.53-7.91,36.63,36.63,0,0,1-4.06-11.72c-.83-4.18-1.37-8.48-1.88-13a34.8,34.8,0,0,0,2,26.88,24.24,24.24,0,0,0,10.12,10.33,30.89,30.89,0,0,0,14,3.25A30.55,30.55,0,0,0,92.66,342,24.41,24.41,0,0,0,103,331.61,32.62,32.62,0,0,0,104.69,304.54Z"/><path class="cls-8" d="M241.68,335.3s.12-9.26-6.56-9.26-5,13.71-5,13.71"/><path class="cls-8" d="M200.82,335.3s-.12-9.26,6.55-9.26,5,13.71,5,13.71"/><path class="cls-8" d="M227.06,340.16s1.35-14.54-5.41-14.54-5.4,14.54-5.4,14.54"/><path class="cls-4" d="M247.18,304.54c-.76,4.51-1.4,8.78-2.29,12.92a39.61,39.61,0,0,1-4,11.58,19.63,19.63,0,0,1-8.27,7.89,21.27,21.27,0,0,1-5.54,1.86,26.24,26.24,0,0,1-3,.46c-1,.11-2,.1-3,.16a26.74,26.74,0,0,1-11.65-2.27,19.82,19.82,0,0,1-8.53-7.91,36.87,36.87,0,0,1-4.06-11.72c-.83-4.18-1.37-8.48-1.88-13a34.8,34.8,0,0,0,2,26.88,24.24,24.24,0,0,0,10.12,10.33,30.92,30.92,0,0,0,14,3.25,30.55,30.55,0,0,0,14.1-3.05,24.41,24.41,0,0,0,10.37-10.34A32.62,32.62,0,0,0,247.18,304.54Z"/></g></svg>