<svg id="Layer_1" data-name="Layer 1" xmlns="http://www.w3.org/2000/svg" xmlns:xlink="http://www.w3.org/1999/xlink" viewBox="0 0 300 345"><defs><style>.cls-1{fill:url(#linear-gradient);}.cls-2{fill:#15141a;}.cls-3{fill:#2f2c38;}.cls-13,.cls-14,.cls-15,.cls-4,.cls-5,.cls-6{fill:none;stroke-miterlimit:10;stroke-width:8px;}.cls-14,.cls-4{stroke:#cf1f3d;}.cls-15,.cls-5{stroke:#00729a;}.cls-13,.cls-6{stroke:#048b75;}.cls-7{fill:#9dc6ea;}.cls-8{fill:#dae6f5;}.cls-9{fill:url(#linear-gradient-2);}.cls-10{fill:url(#linear-gradient-3);}.cls-11{fill:#f9a241;}.cls-12{fill:#da7d25;}.cls-13,.cls-14,.cls-15{stroke-linecap:round;}.cls-16{fill:#4e4a59;}.cls-17{fill:#605c6e;}.cls-18{fill:#fff;}.cls-19{fill:#414042;}</style><linearGradient id="linear-gradient" x1="150" y1="356.11" x2="150" y2="161.16" gradientUnits="userSpaceOnUse"><stop offset="0" stop-color="#2f2c38"/><stop offset="0.35" stop-color="#15141a"/></linearGradient><linearGradient id="linear-gradient-2" x1="64.23" y1="352.66" x2="64.23" y2="176.63" gradientUnits="userSpaceOnUse"><stop offset="0" stop-color="#9dc6ea"/><stop offset="0.16" stop-color="#9bc4e9"/><stop offset="0.24" stop-color="#93bce4"/><stop offset="0.31" stop-color="#85afdc"/><stop offset="0.37" stop-color="#719cd1"/><stop offset="0.43" stop-color="#5884c2"/><stop offset="0.47" stop-color="#416eb5"/></linearGradient><linearGradient id="linear-gradient-3" x1="235.77" y1="352.66" x2="235.77" y2="176.63" gradientUnits="userSpaceOnUse"><stop offset="0" stop-color="#9dc6ea"/><stop offset="0.6" stop-color="#416eb5"/></linearGradient></defs><g id="robot"><path class="cls-1" d="M263.62,345H36.38A36.38,36.38,0,0,1,0,308.62V259.14H300v49.48A36.38,36.38,0,0,1,263.62,345Z"/><polygon class="cls-2" points="56.63 298.39 243.6 298.39 270.11 282.19 300 217.49 300 136.88 298.07 136.88 228.03 45.03 228.03 45 71.97 45 71.97 45.03 1.93 136.88 0 136.88 0 217.01 30.11 282.19 56.63 298.39"/><path class="cls-3" d="M172.69,61H127.31C59.19,61,4,112.24,4,175.48H4C4,238.72,59.19,290,127.31,290h45.38C240.81,290,296,238.72,296,175.48h0C296,112.24,240.81,61,172.69,61Z"/><line class="cls-4" x1="21.43" y1="94.62" x2="41.59" y2="131.3"/><line class="cls-5" x1="278.57" y1="94.62" x2="258.41" y2="131.3"/><path class="cls-6" d="M143,74.05s7.55-40.79-94.49-10.22"/><path class="cls-4" d="M157,74.05s-7.55-40.79,94.49-10.22"/><path class="cls-7" d="M274.89,106c-22.87-19-37.77-5.13-49-21.73C221.7,78.14,222,74.16,223.77,71c-3.65,3.91-6.66,8.29-.76,17,11.26,16.6,26.16,2.72,49,21.73,18.35,15.27,12.32,28.15,25.11,30.87H300v-3.68C287.21,134.16,293.24,121.27,274.89,106Z"/><path class="cls-7" d="M223,45c3,6.16,6.59,14,6.59,16.39a8,8,0,0,1-1,3.89c2.07-2.22,3.89-4.5,3.89-7.57,0-3.51-1.85-8.21-4.15-12.71"/><path class="cls-7" d="M28,109.69c22.87-19,37.77-5.13,49-21.73,5.9-8.7,2.89-13.08-.76-17,1.8,3.19,2.07,7.17-2.09,13.31C62.88,100.88,48,87,25.11,106,6.76,121.27,12.79,134.16,0,136.88v3.68H2.85C15.64,137.84,9.61,125,28,109.69Z"/><path class="cls-7" d="M71.74,45c-2.3,4.5-4.15,9.2-4.15,12.71,0,3.07,1.82,5.35,3.89,7.57a8,8,0,0,1-1-3.89C70.44,59,74.06,51.16,77,45"/><path class="cls-8" d="M263.62,45H228.26c2.3,4.5,4.15,9.2,4.15,12.71,0,9.36-16.85,11.37-6.55,26.57,11.26,16.6,26.16,2.72,49,21.73,18.35,15.26,12.32,28.15,25.11,30.87V81.38A36.38,36.38,0,0,0,263.62,45Z"/><path class="cls-8" d="M74.14,84.28c10.3-15.2-6.55-17.21-6.55-26.57,0-3.51,1.85-8.21,4.15-12.71H36.38A36.38,36.38,0,0,0,0,81.38v55.5c12.79-2.72,6.76-15.61,25.11-30.87C48,87,62.88,100.88,74.14,84.28Z"/><path class="cls-5" d="M106.42,319.56s20.64,8.15,43.58,8.15,43.58-8.15,43.58-8.15"/><line class="cls-5" x1="231.7" y1="249.26" x2="256.3" y2="284.22"/><line class="cls-5" x1="68.3" y1="249.26" x2="43.7" y2="284.22"/><path class="cls-9" d="M0,262v46.61A36.38,36.38,0,0,0,36.38,345h79.2l12.87-46.61H36.38A36.38,36.38,0,0,1,0,262Z"/><path class="cls-8" d="M128.45,298.39a5,5,0,0,0-4.72-5c-13.92-.84-55.44-4.93-81.88-24.3C20,253.05,9.48,229,6.26,220.28A5,5,0,0,0,1.54,217H0v45H0a36.38,36.38,0,0,0,36.38,36.38Z"/><path class="cls-10" d="M300,262v46.61A36.38,36.38,0,0,1,263.62,345h-79.2l-12.87-46.61h92.07A36.38,36.38,0,0,0,300,262Z"/><path class="cls-8" d="M171.55,298.39a5,5,0,0,1,4.72-5c13.92-.84,55.44-4.93,81.88-24.3,21.88-16,32.37-40.11,35.59-48.79a5,5,0,0,1,4.72-3.27H300v45h0a36.38,36.38,0,0,1-36.38,36.38Z"/><path class="cls-11" d="M13.85,268.94a7.76,7.76,0,1,1,7.76-7.76A7.77,7.77,0,0,1,13.85,268.94Z"/><path class="cls-12" d="M13.85,254.42a6.76,6.76,0,1,1-6.76,6.76,6.76,6.76,0,0,1,6.76-6.76m0-2a8.76,8.76,0,1,0,8.76,8.76,8.77,8.77,0,0,0-8.76-8.76Z"/><path class="cls-13" d="M35.09,222.49s-30.64-2.06-21.43,38.24"/><path class="cls-11" d="M286.15,268.94a7.76,7.76,0,1,1,7.76-7.76A7.77,7.77,0,0,1,286.15,268.94Z"/><path class="cls-12" d="M286.15,254.42a6.76,6.76,0,1,1-6.76,6.76,6.76,6.76,0,0,1,6.76-6.76m0-2a8.76,8.76,0,1,0,8.76,8.76,8.77,8.77,0,0,0-8.76-8.76Z"/><path class="cls-14" d="M264.91,222.49s30.64-2.06,21.43,38.24"/><path class="cls-11" d="M239.11,88.57a7.76,7.76,0,1,1,7.76-7.76A7.77,7.77,0,0,1,239.11,88.57Z"/><path class="cls-12" d="M239.11,74.05a6.76,6.76,0,1,1-6.76,6.76,6.76,6.76,0,0,1,6.76-6.76m0-2a8.76,8.76,0,1,0,8.76,8.76,8.77,8.77,0,0,0-8.76-8.76Z"/><path class="cls-13" d="M217.87,119.5s30.64,2.06,21.43-38.24"/><path class="cls-11" d="M60.89,88.57a7.76,7.76,0,1,1,7.76-7.76A7.77,7.77,0,0,1,60.89,88.57Z"/><path class="cls-12" d="M60.89,74.05a6.76,6.76,0,1,1-6.76,6.76,6.76,6.76,0,0,1,6.76-6.76m0-2a8.76,8.76,0,1,0,8.76,8.76,8.77,8.77,0,0,0-8.76-8.76Z"/><path class="cls-15" d="M82.13,119.5S51.49,121.56,60.7,81.26"/><path class="cls-16" d="M164.3,123.07H135.7a10.94,10.94,0,0,1-10.95-10.94V81.46A10.92,10.92,0,0,1,134,70.65a104.1,104.1,0,0,1,32,0,10.92,10.92,0,0,1,9.23,10.81v30.67A10.94,10.94,0,0,1,164.3,123.07Z"/><ellipse class="cls-17" cx="150" cy="139.83" rx="53.54" ry="59.73"/><path class="cls-8" d="M289.05,178.64c0-39-30.23-70.54-67.51-70.54-46.93,0-41.54,27-71.54,27s-21.19-27-71.54-27C41.18,108.1,11,139.68,11,178.64,11,201.07,16.78,284.22,150,284.22S289.05,201.07,289.05,178.64Z"/><path class="cls-7" d="M150,276.52c-125.67,0-138-74-139-101.2,0,1.1-.08,2.21-.08,3.32C11,201.07,16.78,284.22,150,284.22s139.05-83.15,139.05-105.58c0-1.11,0-2.22-.08-3.32C288,202.53,275.67,276.52,150,276.52Z"/><path class="cls-2" d="M170.82,226.66a66.94,66.94,0,0,1-41.64,0,9.19,9.19,0,0,0-11.78,5.58,9.88,9.88,0,0,0,1.35,2.42c7.39,9.78,18.65,16,31.25,16s23.86-6.24,31.25-16a9.88,9.88,0,0,0,1.35-2.42A9.19,9.19,0,0,0,170.82,226.66Z"/><path class="cls-7" d="M183,227.07v0a5.66,5.66,0,0,0-.15-.59v0c-.06-.19-.13-.39-.2-.58v0a9.76,9.76,0,0,0-1.52-2.66l-.06-.07c-.1-.13-.2-.24-.31-.36l-.14-.15q-.13-.15-.3-.3l-.18-.18-.3-.26-.22-.18-.29-.23-.26-.18-.29-.19-.3-.18-.28-.16-.37-.18-.24-.11-.62-.25-.18-.06-.48-.14-.26-.06c-.14,0-.28-.07-.43-.09l-.28-.05-.42-.05-.29,0-.43,0h-.3l-.44,0-.3,0c-.16,0-.31,0-.47.06l-.29,0-.52.12-.24.05c-.26.07-.51.15-.77.24a66.94,66.94,0,0,1-41.64,0c-.26-.09-.51-.17-.77-.24l-.24-.05-.52-.12-.29,0c-.16,0-.31,0-.47-.06l-.3,0-.44,0h-.3l-.43,0-.29,0-.42.05-.28.05c-.15,0-.29.06-.43.09l-.26.06-.47.14-.19.06-.62.25-.24.11-.37.18-.28.16-.3.18-.29.19-.26.18-.29.23-.22.18-.3.26-.18.18c-.1.1-.21.2-.3.3l-.14.15c-.11.12-.21.23-.31.36l-.06.07a9.76,9.76,0,0,0-1.52,2.66v0c-.07.19-.14.39-.2.58v0c0,.19-.11.39-.15.59v0a9,9,0,0,0,.37,5.17h0a9.19,9.19,0,0,1,11.78-5.58,66.94,66.94,0,0,0,41.64,0,9.19,9.19,0,0,1,11.78,5.58h0A9,9,0,0,0,183,227.07Z"/><path class="cls-18" d="M235.88,221.65a40,40,0,1,1,40-40A40,40,0,0,1,235.88,221.65Z"/><path class="cls-7" d="M235.88,145.24a36.46,36.46,0,1,1-36.45,36.45,36.45,36.45,0,0,1,36.45-36.45m0-7a43.46,43.46,0,1,0,43.46,43.45,43.5,43.5,0,0,0-43.46-43.45Z"/><path class="cls-18" d="M64.12,221.65a40,40,0,1,1,39.95-40A40,40,0,0,1,64.12,221.65Z"/><path class="cls-7" d="M64.12,145.24a36.46,36.46,0,1,1-36.46,36.45,36.45,36.45,0,0,1,36.46-36.45m0-7a43.46,43.46,0,1,0,43.45,43.45,43.5,43.5,0,0,0-43.45-43.45Z"/><path class="cls-19" d="M95.88,176.4a13.21,13.21,0,0,1-19.19-17.9,22.88,22.88,0,1,0,19.19,17.9Zm-32,19.76a5.45,5.45,0,1,1,5.45-5.45A5.45,5.45,0,0,1,63.83,196.16Z"/><path class="cls-19" d="M248.94,176.27a13.22,13.22,0,0,1-19.08-17.76,22.66,22.66,0,0,0-3.32-.24,22.93,22.93,0,1,0,22.93,22.92A23.47,23.47,0,0,0,248.94,176.27Zm-32.22,19.89a5.45,5.45,0,1,1,5.45-5.45A5.45,5.45,0,0,1,216.72,196.16Z"/></g></svg>