<svg id="Layer_1" data-name="Layer 1" xmlns="http://www.w3.org/2000/svg" xmlns:xlink="http://www.w3.org/1999/xlink" viewBox="0 0 300 345"><defs><style>.cls-1{fill:url(#linear-gradient);}.cls-2{fill:#44c649;}.cls-3{fill:#3f312b;}.cls-4{fill:#7af471;}.cls-5,.cls-7{fill:#1f4c0f;}.cls-5{opacity:0.6;isolation:isolate;}.cls-6{fill:#47e247;}.cls-8{fill:#231916;}.cls-9{fill:#3abf3a;}.cls-10{fill:#84562c;}.cls-11{fill:#663f22;}.cls-12{fill:#247a32;}.cls-13{fill:#6ae26a;}</style><linearGradient id="linear-gradient" x1="150" y1="550.57" x2="150" y2="439.38" gradientTransform="translate(0 -154)" gradientUnits="userSpaceOnUse"><stop offset="0.24" stop-color="#44c649"/><stop offset="0.39" stop-color="#42bd43"/><stop offset="0.64" stop-color="#3da534"/><stop offset="0.95" stop-color="#357e1c"/><stop offset="1" stop-color="#347718"/></linearGradient></defs><path class="cls-1" d="M263.6,345H36.4A36.4,36.4,0,0,1,0,308.6H0V259.1H300v49.5A36.4,36.4,0,0,1,263.6,345Z"/><path class="cls-2" d="M300,221.7V262a36.4,36.4,0,0,1-36.4,36.4H36.4A36.4,36.4,0,0,1,0,262H0v-6.7a49.33,49.33,0,0,1,.3-5.5,43.58,43.58,0,0,1,19.4-30.7,23.56,23.56,0,0,1,.8-28.2,17,17,0,0,1,2.2-2.4c-.1-.1-.2-.2-.3-.2A61.16,61.16,0,0,1,4.4,161h0A88.27,88.27,0,0,1,0,132.6C0,108.9,8,82.3,24.2,58a154.1,154.1,0,0,1,9.6-12.9c33.9-41,83.2-57,115.5-35.5a59,59,0,0,1,8.6,7.1,55.88,55.88,0,0,1,9.3,12.4,65.66,65.66,0,0,1,5.4,12.1,4.87,4.87,0,0,0,.4,1.1,27.59,27.59,0,0,1,.8,2.7,83.12,83.12,0,0,1,2.5,13.2,104.36,104.36,0,0,1-.1,23.7l.6-.2c12.8-4.6,25.6-4.1,35.6,2.5l.9.6C230.5,73,250,70.2,264,79.6c7.1,4.7,11.9,12,14.3,20.6,4.6,16.5.6,38.2-12.3,57.5-1.7,2.5-3.4,4.9-5.3,7.2-.8.9-1.5,1.8-2.3,2.7a52.3,52.3,0,0,1,15.5,6.8l.8.5a55.91,55.91,0,0,1,22,28h0A54.73,54.73,0,0,1,300,221.7Z"/><path class="cls-3" d="M172.1,210.8s-18-24.7,1.2-34.7c10-4.4,13.1,3.8,13.1,3.8-.5,2.5-1.3,9.2-1.3,9.2s-5.9-10.9-11.5-5.9S167.4,197.1,172.1,210.8Z"/><path class="cls-3" d="M180.1,178.5s14.6-36.8,50.1-43.9c-27.4,21.3-38.1,38.4-38.1,38.4l-4,16.4-5.5,1.4Z"/><path class="cls-3" d="M216.4,168.5s38.8-49.1,56.7-30.4C286,155.4,252,187.6,252,187.6l-39.4,3-8.6-2.9Z"/><path class="cls-4" d="M236,143.1c-.9,5-3.6,11.6-6.8,18.4a334.84,334.84,0,0,1-16.8,29.8l-6.1,3.4L191.5,203l-6.4,3.6a57.31,57.31,0,0,1-.6-14.9h0c.1-1.2.2-2.6.4-3.9,2-14.5,9.6-34.4,34-48.4C233.9,130.7,237.6,134.5,236,143.1Z"/><path class="cls-4" d="M192.1,199.7l-.6,3.3-2.6,13.6L177.4,219s-7.7-9.6-10.3-19.6c-1.9-7.2-1.1-14.5,7-18.7,7.4-2.7,10,3.8,10.8,7,.1.6.3,1.1.4,1.7l1.6-.6,4-1.5Z"/><path class="cls-5" d="M274.7,174.8c-.2,1.1-.5,2.2-.8,3.3-4.6,15.6-19.7,32.1-19.7,32.1l-14.7,2.2h0l-24.4,3.7-8.8-2.2-14.9,8.3-2.6,13.6-11.3,2.4h-.2a59.75,59.75,0,0,1-6.9-11,49.66,49.66,0,0,1-3.4-8.6c.3-4.6,2.4-8.7,7.8-11.5,5.2-2,8.1.8,9.6,3.7h0a16.07,16.07,0,0,1,1.2,3.3c.3-2,.6-4,1.1-6.1,3.2-13.6,11.7-30.2,32.8-42.3,9.4-5.4,14.4-5.9,16.4-3.5a56.26,56.26,0,0,1-3.7,11.4c-.9,2.3-2,4.6-3.1,6.9a69.84,69.84,0,0,1,9.2-6.1c6.4-3.8,15-8.1,22.2-9.7-.8.9-1.5,1.8-2.3,2.7A60,60,0,0,1,274.7,174.8Z"/><path class="cls-5" d="M24.9,171.5a30.55,30.55,0,0,0,1.3,6.7c4.6,15.6,19.7,32.1,19.7,32.1l14.7,2.2h0L85,216.2l8.8-2.2,14.8,8.3,2.6,13.6,11.3,2.4h.2a59.75,59.75,0,0,0,6.9-11,49.66,49.66,0,0,0,3.4-8.6c-.3-4.6-2.4-8.7-7.8-11.5-5.2-2-8.1.8-9.6,3.7h0a16.07,16.07,0,0,0-1.2,3.3c-.3-2-.6-4-1.1-6.1-3.2-13.6-11.7-30.2-32.8-42.3-9.4-5.4-14.4-5.9-16.4-3.4a56.26,56.26,0,0,0,3.7,11.4c.9,2.3,2,4.6,3.1,6.9a69.84,69.84,0,0,0-9.2-6.1c-10.8-6.3-27.8-14.3-33.9-7.9A11.29,11.29,0,0,0,24.9,171.5Z"/><path class="cls-5" d="M238.4,299c-.6,7.8-5.3,17.3-23.2,19.9a42.17,42.17,0,0,1-33.2-7.1c-14,11-27.2,1.4-32-3.1-4.8,4.4-18,14.1-32,3.1a42.57,42.57,0,0,1-33.2,7.1c-17.9-2.6-22.6-12.1-23.2-19.9-38-.5-42.9-18.6-40.3-33.6a52.59,52.59,0,0,1,2.7-9.6c.5-1.2.9-2.3,1.4-3.4a11.73,11.73,0,0,1,.5-1.1c.5-1,1-1.9,1.4-2.7a26.06,26.06,0,0,1,1.7-2.8,25.65,25.65,0,0,0,5,12.6h0c3.6,4.3,8.8,6.1,14.8,6.3,18.1.7,44.2-12.9,61.8-17.7,22.5-6.2,35.5,6.1,39.4,10.7,3.9-4.6,16.9-16.8,39.4-10.7,17.5,4.8,43.7,18.4,61.8,17.7,6.1-.2,11.2-2,14.8-6.3h0c2.5-2.9,4.2-7,5-12.6a26.06,26.06,0,0,1,1.7,2.8c.4.8.9,1.7,1.4,2.7.2.4.3.7.5,1.1.5,1,.9,2.2,1.4,3.4a52.59,52.59,0,0,1,2.7,9.6C281.3,280.3,276.4,298.4,238.4,299Z"/><path class="cls-4" d="M275.1,152.3c-1.2,17.1-21,38.8-21,38.8L215,197l-8.8-2.2,10.9-20s5-6,12-13.2c2-2,4.1-4.1,6.4-6.2,12.6-11.7,28.3-23,36-15C274.5,143.6,275.4,147.8,275.1,152.3Z"/><path class="cls-6" d="M275.1,152.3a30.55,30.55,0,0,1-1.3,6.7c-4.6,15.6-19.7,32.1-19.7,32.1l-14.7,2.2h0L215,197l-8.8-2.2L191.3,203l-2.6,13.6L177.4,219h-.2a59.75,59.75,0,0,1-6.9-11,49.66,49.66,0,0,1-3.4-8.6c.3-4.6,2.4-8.7,7.8-11.5,5.2-2,8.1.8,9.6,3.7h0a16.07,16.07,0,0,1,1.2,3.3c.3-1.9.6-4,1.1-6.1,3.2-13.6,11.7-30.2,32.8-42.3,9.4-5.4,14.4-5.9,16.4-3.4a56.26,56.26,0,0,1-3.7,11.4c-.9,2.3-2,4.6-3.1,6.9a69.84,69.84,0,0,1,9.2-6.1C249,149,266,141,272.1,147.4A11.45,11.45,0,0,1,275.1,152.3Z"/><path class="cls-7" d="M178,224.5a41.36,41.36,0,0,0,54.2,23.2c21.3-8.8,31.5-33.4,22.9-54.9-2-5.1-7.9-7.2-15.5-7.2a65.37,65.37,0,0,0-13.9,1.8C201.6,193,172.6,210.8,178,224.5Z"/><path class="cls-8" d="M217.2,249.5a23,23,0,0,1-3.4,1.2,41.48,41.48,0,0,1-32.4-19.5,42.16,42.16,0,0,1-3.4-6.7,9.41,9.41,0,0,1-.5-5.5c.9-4.5,4.6-9.2,10-13.7a10.63,10.63,0,0,0,1.1-.9c9.7-7.5,24.1-14,37-17,6.4.2,11.4,2,13.7,5.9h0a5.17,5.17,0,0,1,.6,1.3,42.21,42.21,0,0,1-22.7,54.9Z"/><path class="cls-3" d="M127.9,210.8s18-24.7-1.2-34.7c-10-4.4-13.1,3.8-13.1,3.8.5,2.5,1.3,9.2,1.3,9.2s5.9-10.9,11.5-5.9S132.6,197.1,127.9,210.8Z"/><path class="cls-3" d="M119.9,178.5s-14.6-36.8-50.1-43.9c27.4,21.3,38.1,38.4,38.1,38.4l4,16.4,5.5,1.4Z"/><path class="cls-3" d="M63.8,138.5a21.58,21.58,0,0,0-1.6,9.7c.3,6.1,6.9,6.3,6.9,6.3Z"/><path class="cls-3" d="M83.6,168.5s-38.8-49.1-56.7-30.4C14,155.4,48,187.5,48,187.5l39.4,3,8.6-2.9Z"/><path class="cls-4" d="M64,143.1c.9,5,3.6,11.6,6.8,18.4a334.84,334.84,0,0,0,16.8,29.8l6.1,3.4,14.8,8.3,6.4,3.6a57.31,57.31,0,0,0,.6-14.9h0c-.1-1.2-.2-2.6-.4-3.9-2-14.5-9.6-34.4-34-48.4C66.2,130.7,62.5,134.5,64,143.1Z"/><path class="cls-4" d="M107.9,199.7l.6,3.3,2.6,13.6,11.5,2.4s7.7-9.6,10.3-19.6c1.9-7.2,1.1-14.5-7-18.7-7.3-2.7-10,3.8-10.8,7a10.1,10.1,0,0,0-.3,1.7l-1.6-.6-4-1.5Z"/><path class="cls-4" d="M24.9,152.3c1.2,17.1,21,38.8,21,38.8L85,197l8.8-2.2-10.9-20s-5-6-12-13.2c-2-2-4.1-4.1-6.3-6.2-12.6-11.7-28.3-23-36-15C25.5,143.6,24.6,147.8,24.9,152.3Z"/><path class="cls-6" d="M24.9,152.3a30.55,30.55,0,0,0,1.3,6.7c4.6,15.6,19.7,32.1,19.7,32.1l14.7,2.2h0L85,197l8.8-2.2,14.8,8.2,2.6,13.6,11.3,2.4h.2a59.75,59.75,0,0,0,6.9-11,49.66,49.66,0,0,0,3.4-8.6c-.3-4.6-2.4-8.7-7.8-11.5-5.2-2-8.1.8-9.6,3.7h0a16.07,16.07,0,0,0-1.2,3.3c-.3-1.9-.6-4-1.1-6.1-3.2-13.6-11.7-30.1-32.8-42.3-9.4-5.4-14.4-5.9-16.4-3.5a56.26,56.26,0,0,0,3.7,11.4c.9,2.3,2,4.6,3.1,6.9a69.84,69.84,0,0,0-9.2-6.1c-10.8-6.3-27.8-14.3-34-7.9A14.59,14.59,0,0,0,24.9,152.3Z"/><path class="cls-7" d="M122,224.5a41.36,41.36,0,0,1-54.2,23.2c-21.3-8.7-31.6-33.4-22.9-54.9,2-5.1,7.9-7.2,15.5-7.2a65.37,65.37,0,0,1,13.9,1.8C98.4,193,127.5,210.8,122,224.5Z"/><path class="cls-8" d="M82.8,249.5a23,23,0,0,0,3.4,1.2,41.48,41.48,0,0,0,32.4-19.5,42.16,42.16,0,0,0,3.4-6.7,9.41,9.41,0,0,0,.5-5.5c-.9-4.5-4.6-9.2-10-13.7l-1.2-.9c-9.7-7.5-24-14-37-17-6.4.2-11.4,2-13.7,5.9h0a5.17,5.17,0,0,0-.6,1.3A42.34,42.34,0,0,0,82.8,249.5Z"/><path class="cls-9" d="M276,255.7c-.5,11.8-6.6,17.8-6.6,17.8L244.2,282l-5.8,2.2h-.1l-1.1,2.2h0l-4.4,8.4-23.1,9.9-23.6-7.4-1.8.3-2.9.5-8.2,1.4-17.3-3.6-5.9-5-5.9,5-17.3,3.6-8.2-1.4-2.9-.5-1.8-.3-23.6,7.4-23.2-9.9-4.4-8.4h0l-1.2-2.2h-.1L55.6,282l-25.2-8.4s-6.1-5.9-6.6-17.8a38.54,38.54,0,0,1,1.5-12.6,12.09,12.09,0,0,1,.5-1.8,53.58,53.58,0,0,1,3-7.9,43.71,43.71,0,0,0,1.2,5.2c.1.2.1.5.2.7.2.5.3.9.5,1.3s.4.9.6,1.3c0,.1.1.2.1.3a9.5,9.5,0,0,0,1,1.7c3.1,4.9,7.8,7.3,13.5,8a25.72,25.72,0,0,0,4.8.2h1.5l.8-.1a4.1,4.1,0,0,0,1.1-.1h.4c.5-.1,1-.1,1.6-.2l1.5-.2.7-.1c.5-.1.9-.1,1.3-.2.8-.2,1.6-.3,2.5-.5l1.5-.3,1.8-.4.3-.1,1.7-.5,1.7-.5,1.3-.4,6.6-2.1c3.4-1.2,6.8-2.4,10.1-3.7l3.5-1.3,4.2-1.7c1-.4,2-.8,3-1.1,4.6-1.7,8.9-3.2,12.8-4.3a38.5,38.5,0,0,1,6.6-1.3h0c18.4-2.4,29.3,7.9,32.8,12,3.5-4.1,14.4-14.4,32.8-12h0a51.3,51.3,0,0,1,6.6,1.3c3.9,1.1,8.2,2.6,12.8,4.3,1,.3,2,.7,3,1.1l4.2,1.6,3.5,1.3c3.3,1.3,6.7,2.5,10.1,3.7q3.3,1.2,6.6,2.1l1.3.4,1.7.5,1.7.5.3.1,1.8.4,1.4.3a20.48,20.48,0,0,0,2.4.5,5.9,5.9,0,0,0,1.4.2l.6.1,1.5.2c.5.1,1.1.1,1.6.2h.4a4.1,4.1,0,0,0,1.1.1l.8.1h1.5a25.72,25.72,0,0,0,4.8-.2c5.7-.7,10.4-3.1,13.5-8a15.05,15.05,0,0,0,1-1.7.37.37,0,0,0,.1-.3c.2-.4.4-.9.6-1.3s.3-.9.5-1.3a1.85,1.85,0,0,0,.2-.7,48.75,48.75,0,0,0,1.2-5.2,58.21,58.21,0,0,1,3,7.9,12.09,12.09,0,0,1,.5,1.8A38.54,38.54,0,0,1,276,255.7Z"/><path class="cls-6" d="M274.1,239v2.4a16.35,16.35,0,0,1-.2,2.2,26.78,26.78,0,0,1-1.1,4.9,22.12,22.12,0,0,1-6.7,9.8h0a31.08,31.08,0,0,1-14.8,6.3c-7.4,1.3-13.9.4-14.6-.5h0v.2a.37.37,0,0,0,.1.3c.5,3.1,1.5,17.4-23.1,21.9-23,2.2-23-9.1-23-9.1-20,17.9-34.9,3.5-40.6-3.9-5.7,7.5-20.6,21.9-40.6,3.9,0,0,0,11.3-23,9.1C62,282,63,267.7,63.5,264.6a.37.37,0,0,1,.1-.3v-.2h0c-.8.9-7.3,1.8-14.6.5a32.09,32.09,0,0,1-14.8-6.3h0a21.58,21.58,0,0,1-6.7-9.8,26.78,26.78,0,0,1-1.1-4.9,16.35,16.35,0,0,1-.2-2.2,19.22,19.22,0,0,1,0-2.4,48.26,48.26,0,0,1,3-5.5,43.71,43.71,0,0,0,1.2,5.2c.1.2.1.5.2.7.2.5.3.9.5,1.3s.4.9.6,1.3c0,.1.1.2.1.3a9.5,9.5,0,0,0,1,1.7c3.1,4.9,7.8,7.3,13.5,8a25.72,25.72,0,0,0,4.8.2h1.5l.8-.1,1.1-.1h.4c.5-.1,1-.1,1.6-.2l1.5-.2.7-.1c.5-.1.9-.1,1.3-.2.8-.2,1.6-.3,2.5-.5l1.5-.3c.6-.1,1.2-.3,1.8-.4l.3-.1,1.7-.5a10.93,10.93,0,0,0,1.7-.5l1.3-.4,6.6-2.1c3.4-1.2,6.8-2.4,10.1-3.7l3.5-1.3,4.2-1.7c1-.4,2-.8,3-1.1,4.6-1.7,8.9-3.2,12.8-4.3a38.5,38.5,0,0,1,6.6-1.3h0c18.4-2.4,29.3,7.9,32.8,12,3.5-4.1,14.4-14.4,32.8-12h0a51.3,51.3,0,0,1,6.6,1.3c3.9,1.1,8.2,2.6,12.8,4.3,1,.3,2,.7,3,1.1l4.2,1.6,3.5,1.3c3.3,1.3,6.7,2.5,10.1,3.7q3.3,1.2,6.6,2.1l1.3.4c.6.2,1.1.3,1.7.5l1.7.5.3.1a11.63,11.63,0,0,0,1.8.4l1.4.3a20.48,20.48,0,0,0,2.4.5,5.9,5.9,0,0,0,1.4.2l.6.1,1.5.2c.5.1,1.1.1,1.6.2h.4l1.1.1.8.1h1.5a38.54,38.54,0,0,0,4.8-.2c5.7-.7,10.4-3.1,13.5-8a15.05,15.05,0,0,0,1-1.7.37.37,0,0,0,.1-.3c.2-.4.4-.9.6-1.3s.3-.9.5-1.3a1.85,1.85,0,0,0,.2-.7,48.75,48.75,0,0,0,1.2-5.2C272.3,235.2,273.3,237.1,274.1,239Z"/><path class="cls-3" d="M274.1,239a48.26,48.26,0,0,0-3-5.5,72.1,72.1,0,0,1,2.8,10.1c6.9,37.1-34.6,34.8-36.8,32.4a.35.35,0,0,0-.1-.2v.2h0a4.33,4.33,0,0,1,.1.5c.5,3.1,1.6,17.4-23.1,22-22.7,2.2-22.9-8.9-22.9-9.1h0l-.2.1c-20.9,18.6-36,2.1-41-4.9-5,7-20.1,23.5-41,4.9l-.2-.1h0c0,.2-.2,11.3-22.9,9.1-24.7-4.5-23.6-18.9-23.1-22a4.33,4.33,0,0,0,.1-.5h0v-.2a.31.31,0,0,1-.1.2c-2.2,2.3-43.7,4.6-36.8-32.4a72.1,72.1,0,0,1,2.8-10.1,58.59,58.59,0,0,0-3,5.5c-6.4,13.7-16,47,35.7,47.7.6,7.8,5.3,17.3,23.2,19.9a42.17,42.17,0,0,0,33.2-7.1c14.1,11.1,27.3,1.2,32-3.2,4.7,4.4,17.9,14.3,32,3.2a42.57,42.57,0,0,0,33.2,7.1c17.9-2.6,22.6-12.1,23.2-19.9C290.1,286,280.5,252.7,274.1,239Z"/><path class="cls-3" d="M62.9,276.2V276h0C63,276,62.9,276.1,62.9,276.2Z"/><path class="cls-3" d="M62.9,276.2V276h0C63,276,62.9,276.1,62.9,276.2Z"/><path class="cls-4" d="M249,252.4h0a219.74,219.74,0,0,1-28.1-1.8c-1.6-.2-3.1-.5-4.6-.7-9.9-1.8-16.2-4.1-22.3-5.9a55.76,55.76,0,0,0-16.2-2.4c-16.1,0-24.6,9.3-27.7,13.7-3.1-4.4-11.6-13.7-27.7-13.7a55.76,55.76,0,0,0-16.2,2.4c-6.1,1.7-12.4,4.1-22.3,5.9-1.4.3-3,.5-4.6.7a220.14,220.14,0,0,1-28.2,1.8h1.3l.8-.1,1.1-.1h.4c.5-.1,1-.1,1.6-.2l1.5-.2.7-.1c.5-.1.9-.1,1.3-.2.8-.2,1.6-.3,2.5-.5l1.5-.3c.6-.1,1.2-.3,1.8-.4l.3-.1,1.7-.5a10.93,10.93,0,0,0,1.7-.5l1.3-.4,6.6-2.1c3.4-1.2,6.8-2.4,10.1-3.7l3.5-1.3,4.1-1.7c1-.4,2-.8,3-1.1,4.6-1.7,8.9-3.2,12.8-4.3a38.5,38.5,0,0,1,6.6-1.3h0c18.4-2.4,29.3,7.9,32.8,12,3.5-4.1,14.4-14.4,32.8-12h0a51.3,51.3,0,0,1,6.6,1.3c3.9,1.1,8.2,2.6,12.8,4.3,1,.3,2,.7,3,1.1l4.2,1.6,3.5,1.3c3.3,1.3,6.7,2.5,10.1,3.7q3.3,1.2,6.6,2.1l1.3.4c.6.2,1.1.3,1.7.5l1.7.5.3.1a11.63,11.63,0,0,0,1.8.4l1.4.3a20.48,20.48,0,0,0,2.4.5,5.9,5.9,0,0,0,1.4.2l.6.1,1.5.2c.5.1,1.1.1,1.6.2h.4l1.1.1.8.1h1.2Z"/><path class="cls-10" d="M243,21a43.83,43.83,0,0,1-1.7,8c-1.7,6.2-4.5,15-7.6,24.3,0,.2-.1.3-.2.5h0c-6.8,20.6-14.8,43-14.8,43-4.1,4.8-22.1,0-22.1-4.8,0-1.5,2.9-8.7,7-18.1h0c3.9-9,8.9-20,13.4-29.6,3.2-6.9,6.2-13.1,8.2-17.3,1.4-2.9,2.4-4.9,2.8-5.5C232.8,11.9,242.9,13.5,243,21Z"/><path class="cls-2" d="M226,36.6C192.7,43,196.6,0,196.6,0h.1C199,.5,230.1,6.9,226,36.6Z"/><path class="cls-5" d="M226,36.6C192.7,43,196.6,0,196.6,0S208.1,28.4,226,36.6Z"/><path class="cls-11" d="M233.5,53.8c-6.8,20.6-14.8,43-14.8,43-4.1,4.8-22.1,0-22.1-4.8,0-1.5,2.9-8.7,7-18.1h0C203.6,74,211.8,87.2,233.5,53.8Z"/><ellipse class="cls-2" cx="217.42" cy="103.21" rx="25.4" ry="16.9" transform="translate(-22.48 122.54) rotate(-30)"/><polygon class="cls-2" points="12.9 117.8 8.51 78.6 14.21 49.1 21.3 53.8 28.8 59.2 41.8 21.1 53.2 13.1 61.1 14.9 65.61 22 41.8 83.2 16.61 112.5 12.9 117.8"/><ellipse class="cls-2" cx="194.2" cy="97.5" rx="18.6" ry="9.9"/><path class="cls-12" d="M178.4,92.8a18.9,18.9,0,0,1,5.5-6.1,17.87,17.87,0,0,1,8-3.4,18.48,18.48,0,0,1,4.7,0,13.89,13.89,0,0,1,4.5,1.4,17.31,17.31,0,0,1,6.7,5.9l-4.1,3.6a32.32,32.32,0,0,0-5.4-3.7,14.7,14.7,0,0,0-5.9-1.5,22.4,22.4,0,0,0-6.8,1A63,63,0,0,0,178.4,92.8Z"/><path class="cls-12" d="M190.6,114.7a53.43,53.43,0,0,1,5.7-14.5A51.7,51.7,0,0,1,206,87.6a29.81,29.81,0,0,1,6.8-4.8,20.68,20.68,0,0,1,8.4-2.3,15.46,15.46,0,0,1,8.4,2.1,17.56,17.56,0,0,1,5.8,5.7,36.75,36.75,0,0,0-7.1-2.3,15.79,15.79,0,0,0-6.5.2,22.17,22.17,0,0,0-6,2.4,31.68,31.68,0,0,0-5.6,4A99.22,99.22,0,0,0,200.1,103C197,106.7,193.8,110.7,190.6,114.7Z"/><path class="cls-12" d="M8.7,108.1A129.73,129.73,0,0,1,5.8,87.6a144.42,144.42,0,0,1-.2-20.8A64.11,64.11,0,0,1,7.1,56.1a27.5,27.5,0,0,1,2-5.7,11.9,11.9,0,0,1,2.2-3.3,7,7,0,0,1,1-.8c.4-.3.8-.5,1.2-.8A8.8,8.8,0,0,1,15,45a9.85,9.85,0,0,1,1.7-.2,10,10,0,0,1,1.6.2c.5.1.9.3,1.3.4s.7.4,1.1.6a7,7,0,0,1,.9.6,4.35,4.35,0,0,1,.7.6l.6.6a6.42,6.42,0,0,1,1,1.3,23.29,23.29,0,0,1,2.7,5.2,32.07,32.07,0,0,1,1.5,5.3,25.48,25.48,0,0,1,.4,5.5,45.86,45.86,0,0,1-3.9-3.7c-1.2-1.2-2.4-2.5-3.5-3.7s-2.1-2.2-3.2-3.2l-.7-.6-.3-.2c-.1-.1-.2-.1-.3-.2-.4-.2-.4,0,.1,0h.4a.76.76,0,0,0,.4-.1c.1,0,.1,0,.2-.1h0a3.33,3.33,0,0,0-.6,1,30.44,30.44,0,0,0-1.4,3.9c-.8,3.1-1.4,6.3-1.9,9.5-1,6.5-1.7,13.3-2.4,20C10.5,94.4,9.8,101.2,8.7,108.1Z"/><path class="cls-12" d="M24.8,79A140.48,140.48,0,0,1,27,55.6a151.54,151.54,0,0,1,5.7-23c.7-1.9,1.4-3.8,2.2-5.6a56,56,0,0,1,2.7-5.5,38.35,38.35,0,0,1,3.5-5.4,20.22,20.22,0,0,1,5.2-4.9A17.64,17.64,0,0,1,50,9.5a9.58,9.58,0,0,1,4.4-.4,11.07,11.07,0,0,1,4,1.3,12.88,12.88,0,0,1,3,2.2A17.93,17.93,0,0,1,65.1,18a20.81,20.81,0,0,1,1.8,6c-1.8-1.2-3.3-2.4-4.9-3.5a33.5,33.5,0,0,0-4.5-2.7,7.71,7.71,0,0,0-3.7-.8A7,7,0,0,0,51,18.2a15.68,15.68,0,0,0-3.2,3.1,40.48,40.48,0,0,0-2.9,4.3A99.49,99.49,0,0,0,40,35.4c-3,6.9-5.5,14.1-8,21.4Z"/><polygon class="cls-2" points="177.91 53.8 176.41 58.2 165.6 90.3 162.71 98.8 124.61 98.8 135.5 36.9 140.1 30.2 158 16.7 160.5 14.9 168.81 18.6 167.41 29.1 164.5 50.7 170.71 41.2 175.6 41.2 177.91 53.8"/><path class="cls-5" d="M176.3,81.9l.6-.2a91.69,91.69,0,0,1-11.2,8.5c-4,2.7-8.9,5.5-14.7,8.6-5.2,2.7-11.1,5.6-17.9,8.6a84.35,84.35,0,0,0,11.1-8.6c23.8-21.4,28.2-48.7,29-56.5,0-.4.1-.8.1-1.1h2.4L178,53.8l-1.5,4.4A110.47,110.47,0,0,1,176.3,81.9Z"/><path class="cls-12" d="M160.5,59.5a38.25,38.25,0,0,1,1.7-8.7,46,46,0,0,1,3.5-8.2,16.23,16.23,0,0,1,3-3.9,7.5,7.5,0,0,1,2.8-1.8l1.1-.3a5.7,5.7,0,0,1,1.3-.1l1.4.3,1.2.6a5.36,5.36,0,0,1,1.5,1.5c.2.2.3.5.5.7l.4.7a12.54,12.54,0,0,1,.9,2.5,24.3,24.3,0,0,1,.8,4.7A85.44,85.44,0,0,1,180,65c-.4,2.8-.9,5.7-1.5,8.5-.3,1.4-.6,2.8-1,4.2s-.7,2.8-1.2,4.2c-.4-5.8-.5-11.4-.7-17.1a150.74,150.74,0,0,0-1.2-16.5,24.47,24.47,0,0,0-.8-3.7,4.71,4.71,0,0,0-.6-1.5l-.1-.3a.1.1,0,0,0-.1-.1c0-.1-.1,0,0-.1.1.1.1.1.2.1a.37.37,0,0,0,.3.1h.4a1.79,1.79,0,0,0-.7.5,19.47,19.47,0,0,0-2.4,2.6q-2.4,3.15-4.8,6.6C164.1,55,162.4,57.2,160.5,59.5Z"/><path class="cls-12" d="M161.7,52.6c.4-5.5,1.1-10.8,1.7-16.1.3-2.6.5-5.2.7-7.8.1-1.3.1-2.5.1-3.7a18.84,18.84,0,0,0-.2-3.4,11,11,0,0,0-.6-2.6,2.19,2.19,0,0,0-.3-.5c0-.1,0,0,.1,0h-.9a22.88,22.88,0,0,0-2.8.8c-2.1.8-4.5,2-6.9,3.1a58.79,58.79,0,0,1-7.9,3.1,28.62,28.62,0,0,1,4.3-7.6,27.36,27.36,0,0,1,6.5-6.2,11.25,11.25,0,0,1,2.1-1.2l1.2-.5c.4-.2.9-.3,1.3-.5a11.27,11.27,0,0,1,3.2-.5,10.46,10.46,0,0,1,3.9.8A9.39,9.39,0,0,1,169,11a9.27,9.27,0,0,1,1.4,1.4,13,13,0,0,1,1,1.5,10.09,10.09,0,0,1,.7,1.5,19.25,19.25,0,0,1,1.1,5.3,38.58,38.58,0,0,1-.5,9,77.17,77.17,0,0,1-2,8.3,72.23,72.23,0,0,1-6.6,15.4Z"/><path class="cls-5" d="M38.4,223.7c-26.5-1.7-36.2,20.8-38,26A43,43,0,0,1,19.8,219a23.56,23.56,0,0,1,.8-28.2C20.1,192,12.5,213.6,38.4,223.7Z"/><ellipse class="cls-13" cx="99.7" cy="23.81" rx="20.3" ry="14.9" transform="translate(4.24 61.16) rotate(-34.8)"/><ellipse class="cls-13" cx="51.1" cy="39.53" rx="17.3" ry="7.8" transform="translate(-3.74 73.69) rotate(-69.64)"/><ellipse class="cls-13" cx="217.85" cy="103" rx="13.1" ry="7.8" transform="translate(-12.99 172.14) rotate(-41.98)"/><ellipse class="cls-13" cx="80.69" cy="60.79" rx="11.1" ry="7.8" transform="translate(-15.5 91.68) rotate(-54.8)"/><path class="cls-12" d="M57.5,70.7a48.49,48.49,0,0,1,2.3-11.2,58.18,58.18,0,0,1,4.5-10.6l1.5-2.5c.5-.8,1.1-1.6,1.6-2.5a35.44,35.44,0,0,1,3.8-4.7,11.41,11.41,0,0,1,1.1-1.1L73.5,37c.4-.4.8-.7,1.2-1.1a11.32,11.32,0,0,1,1.3-1,22.3,22.3,0,0,1,6.4-3.1,17.11,17.11,0,0,1,8.1-.6,14.93,14.93,0,0,1,7.7,3.9,18.53,18.53,0,0,1,4.1,6.3,27.29,27.29,0,0,1,1.6,6.4,39.53,39.53,0,0,1-.5,11.9,42.28,42.28,0,0,1-3.6,10.9c-.9-3.7-1.6-7.4-2.4-10.9a83.64,83.64,0,0,0-2.7-9.8c-.1-.3-.3-.7-.4-1s-.3-.7-.5-1l-.5-1-.5-.9a7.28,7.28,0,0,0-2.2-2.4,3.13,3.13,0,0,0-1-.5A1.27,1.27,0,0,0,89,43c-.2,0-.3-.1-.5-.1a6.26,6.26,0,0,0-2.7.3,15,15,0,0,0-3.4,1.6l-.9.6-.9.7-.9.6c-.3.2-.6.5-.9.7a92.75,92.75,0,0,0-7.1,6.9C67.1,59.4,62.6,65.1,57.5,70.7Z"/><circle class="cls-13" cx="54.1" cy="103" r="19.9"/><circle class="cls-13" cx="82.2" cy="126.2" r="8"/></svg>