<?xml version="1.0" encoding="UTF-8" standalone="no"?>
<svg id="Layer_1" data-name="Layer 1" viewBox="0 0 300 345" version="1.1" sodipodi:docname="pirateCaptain.svg" xml:space="preserve" inkscape:version="1.2 (dc2aedaf03, 2022-05-15)" xmlns:inkscape="http://www.inkscape.org/namespaces/inkscape" xmlns:sodipodi="http://sodipodi.sourceforge.net/DTD/sodipodi-0.dtd" xmlns="http://www.w3.org/2000/svg" xmlns:svg="http://www.w3.org/2000/svg" xmlns:rdf="http://www.w3.org/1999/02/22-rdf-syntax-ns#" xmlns:cc="http://creativecommons.org/ns#" xmlns:dc="http://purl.org/dc/elements/1.1/"><sodipodi:namedview id="namedview98" pagecolor="#505050" bordercolor="#ffffff" borderopacity="1" inkscape:showpageshadow="0" inkscape:pageopacity="0" inkscape:pagecheckerboard="1" inkscape:deskcolor="#505050" showgrid="false" inkscape:zoom="3.064338" inkscape:cx="63.308943" inkscape:cy="119.76486" inkscape:window-width="1366" inkscape:window-height="705" inkscape:window-x="-8" inkscape:window-y="-8" inkscape:window-maximized="1" inkscape:current-layer="Layer_1" showguides="false"/><defs id="defs29"><inkscape:path-effect effect="mirror_symmetry" start_point="108.08789,238.91211" end_point="108.08789,310.70435" center_point="108.08789,274.80823" id="path-effect35783" is_visible="true" lpeversion="1.2" lpesatellites="" mode="vertical" discard_orig_path="false" fuse_paths="false" oposite_fuse="false" split_items="true" split_open="false" link_styles="false"/><inkscape:path-effect effect="mirror_symmetry" start_point="131.1683,300.87393" end_point="131.1683,344.67386" center_point="131.1683,322.77389" id="path-effect35769" is_visible="true" lpeversion="1.2" lpesatellites="" mode="vertical" discard_orig_path="false" fuse_paths="false" oposite_fuse="false" split_items="true" split_open="false" link_styles="false"/><inkscape:path-effect effect="mirror_symmetry" start_point="116.08594,300.63564" end_point="116.08594,345" center_point="116.08594,322.81782" id="path-effect34842" is_visible="true" lpeversion="1.2" lpesatellites="" mode="vertical" discard_orig_path="false" fuse_paths="false" oposite_fuse="false" split_items="true" split_open="false" link_styles="false"/><inkscape:path-effect effect="mirror_symmetry" start_point="108.08789,238.91211" end_point="108.08789,303.61533" center_point="108.08789,271.26372" id="path-effect31849" is_visible="true" lpeversion="1.2" lpesatellites="" mode="vertical" discard_orig_path="false" fuse_paths="false" oposite_fuse="false" split_items="true" split_open="false" link_styles="false"/><inkscape:path-effect effect="tiling" id="path-effect10958" is_visible="true" lpeversion="1" unit="px" seed="1;1" lpesatellites="" num_rows="1" num_cols="3" gapx="3" gapy="0" offset="0" offset_type="false" scale="0" rotate="0" mirrorrowsx="false" mirrorrowsy="false" mirrorcolsx="false" mirrorcolsy="false" mirrortrans="false" shrink_interp="false" split_items="false" link_styles="false" interpolate_scalex="false" interpolate_scaley="true" interpolate_rotatex="false" interpolate_rotatey="true" random_scale="false" random_rotate="false" random_gap_y="false" random_gap_x="false" transformorigin="rotate(90)"/><inkscape:path-effect effect="fillet_chamfer" id="path-effect8119" is_visible="false" lpeversion="1" nodesatellites_param="F,0,0,1,0,9.8213999,0,1 @ F,0,0,1,0,17.8247,0,1 @ F,0,0,1,0,0,0,1 @ F,0,0,1,0,17.824684,0,1 @ F,0,0,1,0,9.8213999,0,1 @ F,0,0,1,0,27.7484,0,1 @ F,0,0,1,0,15.994785,0,1 @ F,0,0,1,0,15.9948,0,1 @ F,0,0,1,0,27.748394,0,1" unit="px" method="auto" mode="F" radius="0" chamfer_steps="1" flexible="false" use_knot_distance="true" apply_no_radius="true" apply_with_radius="true" only_selected="false" hide_knots="false"/><style id="style2">.cls-1{fill:url(#linear-gradient);}.cls-2{fill:#ecf7fe;}.cls-17,.cls-3{fill:none;stroke-miterlimit:10;}.cls-3{stroke:#6eb8cc;stroke-width:10px;}.cls-4{fill:#ffcd05;}.cls-5{fill:#ad1d25;}.cls-6{fill:#6eb8cc;}.cls-10,.cls-11,.cls-6,.cls-8{fill-opacity:0.5;}.cls-7{fill:#ffebd1;}.cls-8,.cls-9{fill:#cd8029;}.cls-10{fill:url(#radial-gradient);}.cls-11{fill:url(#radial-gradient-2);}.cls-12{fill:#fabc2e;}.cls-13{fill:#fff;}.cls-14{fill:#414042;}.cls-15{fill:#9dc6ea;opacity:0.5;}.cls-16{fill:#9a3e21;}.cls-17{stroke:#9a3e21;stroke-width:6px;}.cls-18{fill:#d62027;}.cls-19{fill:#c7eaf7;}</style><linearGradient id="linear-gradient" x1="150" y1="356.11" x2="150" y2="161.16" gradientUnits="userSpaceOnUse"><stop offset="0.66" stop-color="#9a1c25" id="stop6" style="stop-color:#7b1c15;stop-opacity:1;"/><stop offset="1" stop-color="#ed1c24" id="stop4" style="stop-color:#a4231d;stop-opacity:1;"/></linearGradient></defs><title id="title31">captain</title><path id="path17009" style="opacity:1;fill:#181818;fill-opacity:1;stroke-width:5.2919;stroke-linecap:round;stroke-linejoin:round;stop-color:#000000" d="m 118.97995,11.047735 0.67542,0.502569 -3.26347,2.495196 0.27612,9.320849 -4.28463,-3.650461 -4.25466,3.084947 -5.0766,-8.5076 -28.482155,16.595161 c -7.968357,4.642773 -11.532691,16.77632 -9.185842,26.41601 3.495922,14.35947 5.602063,18.658677 6.079383,27.860772 -0.814042,14.35171 -5.784754,8.768618 -10.921805,31.155742 30.681838,12.17392 58.705089,27.9263 87.722099,27.76287 29.01701,0.16343 60.51264,-15.58895 91.19448,-27.76287 -5.13705,-22.387124 -10.10776,-16.804032 -10.9218,-31.155742 0.47732,-9.202095 2.58345,-13.501302 6.07937,-27.860772 2.34686,-9.63969 -0.84527,-22.480914 -9.18584,-26.41601 l -3.21843,-1.930374 c -0.69193,2.050047 -7.11445,5.724406 -10.86829,7.414227 l -2.76269,-3.378087 -6.79825,8.257358 1.56556,-7.504736 -3.03386,-1.195388 -5.17293,-13.185545 C 172.52874,3.1064632 143.93284,-4.8453242 118.97995,11.047735 Z" sodipodi:nodetypes="cccccccsscccccsscccccccc"/><path class="cls-1" d="M263.62,345H36.38A36.38,36.38,0,0,1,0,308.62V259.14H300v49.48A36.38,36.38,0,0,1,263.62,345Z" id="path33"/><path id="rect11376" style="opacity:1;fill:#d0aac3;stroke-width:4.62084;stroke-linecap:round;stroke-linejoin:round;stop-color:#000000" d="M 54.266369,301.36704 H 238.99109 l -23.34704,42.96863 H 77.613407 Z" sodipodi:nodetypes="ccccc"/><g class="UnoptimicedTransforms" id="g34850" transform="matrix(-1,0,0,1,300,0)"><path id="path34844" d="M 50.490234,301.83203 36.726562,319.85352 61.09375,330.00195 59.240234,342.53711 63.197266,345 H 105.82031 C 88.352507,327.82936 78.951981,314.60501 73.462891,303.74219 Z" style="fill:#57140f;fill-opacity:1;stroke-width:2.80958;stroke-linejoin:round;stroke-opacity:0.612903;stop-color:#000000"/><path id="path34846" d="m 79.259766,301.97461 -29.726563,2.55469 -5.380859,12.76758 28.353515,8.30468 -6.83789,13.26563 L 75.570312,345 H 114.12305 C 94.867973,326.80289 84.904676,313.09084 79.259766,301.97461 Z" style="fill:#a4231d;stroke-width:2.67848;stroke-linejoin:round;stroke-opacity:0.612903;stop-color:#000000"/><path id="path34848" d="m 79.144531,300.64062 -29.726562,2.55469 c -0.495289,0.0428 -0.926152,0.35632 -1.119141,0.81446 l -5.380859,12.76757 c -0.310094,0.7369 0.09028,1.57959 0.857422,1.80469 l 26.796875,7.84766 -6.09375,11.82422 c -0.320158,0.62094 -0.109282,1.38366 0.484375,1.75195 L 73.027344,345 h 10.310547 l -9.41211,-6.74414 4.396485,-13.78906 c 0.386738,-0.74863 -0.0056,-1.66415 -0.814454,-1.90039 l -27.164062,-6.88282 0.109375,-9.88867 28.087891,-2.41406 c 5.111796,9.91618 14.91351,23.11325 34.037104,41.61914 h 3.50782 C 96.236373,326.39581 86.109707,312.50641 80.453125,301.36719 c -0.247552,-0.48606 -0.765141,-0.77343 -1.308594,-0.72657 z" style="color:#000000;fill:#f2c92e;stroke-linejoin:round"/></g><path id="rect39" class="cls-4" d="M 0,91.150391 V 262.00977 c 0,20.15448 16.22638,36.38085 36.380859,36.38085 H 263.61914 C 283.77362,298.39062 300,282.16425 300,262.00977 V 91.150391 Z m 24.480469,3.539062 c 8.928352,2.29e-4 16.166077,7.548377 16.166015,16.859377 5.9e-5,9.31099 -7.237666,16.85914 -16.166015,16.85937 -8.92835,-2.3e-4 -16.1660747,-7.54838 -16.1660159,-16.85937 -3.93e-5,-5.84966 -0.4094193,-17.617394 3.9285329,-20.640919 2.566835,-1.789067 8.918394,3.781627 12.237483,3.781542 z" sodipodi:nodetypes="cssssccccccsc"/><g id="g34858"><path id="path34549" style="fill:#57140f;fill-opacity:1;stroke-width:2.80958;stroke-linejoin:round;stroke-opacity:0.612903;stop-color:#000000" d="M 50.490234,301.83203 36.726562,319.85352 61.09375,330.00195 59.240234,342.53711 63.197266,345 H 105.82031 C 88.352507,327.82936 78.951981,314.60501 73.462891,303.74219 Z"/><path id="rect33329" style="fill:#a4231d;stroke-width:2.67848;stroke-linejoin:round;stroke-opacity:0.612903;stop-color:#000000" d="m 79.259766,301.97461 -29.726563,2.55469 -5.380859,12.76758 28.353515,8.30468 -6.83789,13.26563 L 75.570312,345 H 114.12305 C 94.867973,326.80289 84.904676,313.09084 79.259766,301.97461 Z"/><path id="path33646" style="color:#000000;fill:#f2c92e;stroke-linejoin:round" d="m 79.144531,300.64062 -29.726562,2.55469 c -0.495289,0.0428 -0.926152,0.35632 -1.119141,0.81446 l -5.380859,12.76757 c -0.310094,0.7369 0.09028,1.57959 0.857422,1.80469 l 26.796875,7.84766 -6.09375,11.82422 c -0.320158,0.62094 -0.109282,1.38366 0.484375,1.75195 L 73.027344,345 h 10.310547 l -9.41211,-6.74414 4.396485,-13.78906 c 0.386738,-0.74863 -0.0056,-1.66415 -0.814454,-1.90039 l -27.164062,-6.88282 0.109375,-9.88867 28.087891,-2.41406 c 5.111796,9.91618 14.91351,23.11325 34.037104,41.61914 h 3.50782 C 96.236373,326.39581 86.109707,312.50641 80.453125,301.36719 c -0.247552,-0.48606 -0.765141,-0.77343 -1.308594,-0.72657 z"/></g><g class="UnoptimicedTransforms" id="g35775" transform="matrix(-1,0,0,1,300,0)"><path id="path35771" d="m 97.227184,303.70236 25.984006,29.94418 c -6.15173,-1.84476 3.89693,4.84312 -8.81687,2.58787 -6.34317,-1.12519 -12.64765,0.27665 -17.019504,8.32257 l -2.570999,0.11688 c -8.87784,-7.89242 -19.923704,-13.81679 -14.193643,-34.96983 -0.395779,-2.84932 10.54957,-4.738 16.61701,-6.00167 z" style="fill:#57140f;fill-opacity:0.551198;stroke-width:6.51441;stroke-linejoin:round;stop-color:#000000"/><path id="path35773" d="m 97.934291,300.87393 33.234009,41.0122 c -14.07216,-3.46253 -25.5251,-18.30686 -33.941121,-1.51899 -9.070369,-8.13446 -22.016397,-13.00403 -15.909898,-33.92366 -0.395779,-2.64417 10.54957,-4.39686 16.61701,-5.56955 z" style="fill:#d0aac3;stroke-width:6.27551;stroke-linejoin:round;stop-color:#000000"/></g><path id="rect6385" style="opacity:1;fill:#4b4654;fill-opacity:1;stroke-width:5.6;stroke-linecap:round;stroke-linejoin:round;stop-color:#000000" class="UnoptimicedTransforms" d="M 0 238.91211 L 0 281.85742 C 2.7371891 284.73917 5.5403249 287.26501 8.4042969 289.47461 C 12.545296 292.66946 13.812223 308.20271 18.1875 310.1875 C 26.591631 313.28225 28.922122 301.45167 47.599609 302.07812 C 65.313386 302.67225 91.351313 300.09291 108.08789 298.68359 C 108.08789 298.68359 64.535387 292.49401 37.625 280.30859 C 33.366715 278.3804 21.561364 281.42304 18.375 279.19531 C 13.321204 275.66199 15.816742 263.75054 11.179688 257.07031 C 4.8042411 247.88575 0 238.91211 0 238.91211 z M 300 238.91211 C 300 238.91211 295.19576 247.88575 288.82031 257.07031 C 284.18326 263.75054 286.6788 275.66199 281.625 279.19531 C 278.43864 281.42304 266.63328 278.3804 262.375 280.30859 C 235.46461 292.49401 191.91211 298.68359 191.91211 298.68359 C 208.64869 300.09291 234.68661 302.67225 252.40039 302.07812 C 271.07788 301.45167 273.40837 313.28225 281.8125 310.1875 C 286.18778 308.20271 287.4547 292.66946 291.5957 289.47461 C 294.45968 287.26501 297.26281 284.73917 300 281.85742 L 300 238.91211 z "/><g id="g35781"><path id="path35053" style="fill:#57140f;fill-opacity:0.551198;stroke-width:6.51441;stroke-linejoin:round;stop-color:#000000" d="m 97.227184,303.70236 25.984006,29.94418 c -6.15173,-1.84476 3.89693,4.84312 -8.81687,2.58787 -6.34317,-1.12519 -12.64765,0.27665 -17.019504,8.32257 l -2.570999,0.11688 c -8.87784,-7.89242 -19.923704,-13.81679 -14.193643,-34.96983 -0.395779,-2.84932 10.54957,-4.738 16.61701,-6.00167 z" sodipodi:nodetypes="ccscccc"/><path id="rect34860" style="fill:#d0aac3;stroke-width:6.27551;stroke-linejoin:round;stop-color:#000000" d="m 97.934291,300.87393 33.234009,41.0122 c -14.07216,-3.46253 -25.5251,-18.30686 -33.941121,-1.51899 -9.070369,-8.13446 -22.016397,-13.00403 -15.909898,-33.92366 -0.395779,-2.64417 10.54957,-4.39686 16.61701,-5.56955 z" sodipodi:nodetypes="ccccc"/></g><path id="path47" style="fill:#4b4654;fill-opacity:1;stroke-width:1.56499" class="cls-7" d="m 139.21597,262.06136 c -27.00174,0.37003 -54.51856,6.75324 -65.839346,30.5627 -2.902761,8.89778 14.658491,23.11327 25.932865,30.02596 6.731881,4.12754 14.212541,7.01612 22.004191,8.94165 8.95491,2.21301 18.3206,3.15394 27.43245,3.24165 18.48804,0.17796 37.38226,-4.05302 53.91691,-12.1833 10.01289,-4.92346 26.11472,-15.03259 25.77893,-21.35258 -2.28843,-28.46581 -37.03298,-35.07291 -63.01459,-38.024 -8.26714,-0.78988 -17.21084,-1.33543 -26.21141,-1.21208 z" sodipodi:nodetypes="scsssaccs"/><path class="cls-7" d="m 242.35838,271.67227 c 0,0 2.56174,12.59223 -15.37036,10.01553 -16.80054,-2.40866 -7.59091,-13.44366 -30.74075,-23.79528 a 40.736198,29.038306 0 0 0 -29.24771,-4.01069 22.002575,15.68427 0 0 0 -16.97342,8.828 22.002575,15.68427 0 0 0 -16.9734,-8.78319 40.736198,29.038306 0 0 0 -29.24772,4.01069 c -23.149853,10.37403 -13.940205,21.38663 -30.787894,23.81769 -17.932099,2.5767 -15.370371,-10.01553 -15.370371,-10.01553 0,0 -14.820306,18.0033 17.60206,23.45919 13.107245,2.24061 50.401615,0.50413 66.793535,-10.08275 a 31.102213,22.170836 0 0 0 7.93664,-7.95416 31.102213,22.170836 0 0 0 7.93664,7.95416 c 16.39193,10.56448 53.6863,12.26734 66.79353,10.08275 32.46953,-5.47829 17.64922,-23.52641 17.64922,-23.52641 z" id="path4693" style="fill:#211f25;fill-opacity:0.389706;stroke-width:1.32692"/><path class="cls-7" d="m 242.35838,265.67227 c 0,0 2.56174,12.59223 -15.37036,10.01553 -16.80054,-2.40866 -7.59091,-13.44366 -30.74075,-23.79528 a 40.736198,29.038306 0 0 0 -29.24771,-4.01069 22.002575,15.68427 0 0 0 -16.97342,8.828 22.002575,15.68427 0 0 0 -16.9734,-8.78319 40.736198,29.038306 0 0 0 -29.24772,4.01069 c -23.149853,10.37403 -13.940205,21.38663 -30.787894,23.81769 -17.932099,2.5767 -15.370371,-10.01553 -15.370371,-10.01553 0,0 -14.820306,18.0033 17.60206,23.45919 13.107245,2.24061 50.401615,0.50413 66.793535,-10.08275 a 31.102213,22.170836 0 0 0 7.93664,-7.95416 31.102213,22.170836 0 0 0 7.93664,7.95416 c 16.39193,10.56448 53.6863,12.26734 66.79353,10.08275 32.46953,-5.47829 17.64922,-23.52641 17.64922,-23.52641 z" id="path55" style="fill:#4b4654;fill-opacity:1;stroke-width:1.32692"/><path class="cls-4" d="m 142.3,181.24 c 0,0 9.24,39.12 2.91,44.78 -6.33,5.66 -14.2,5.24 -13,19.35 1.2,14.11 18.23,11.75 18.23,11.75" id="path57"/><g id="g9388"><path class="cls-12" d="M 98.710995,221.01063 C 93.500258,240.45736 76.34416,241.42059 56.897434,236.20985 37.450707,230.99912 23.103685,221.59465 28.31442,202.14793 a 36.45495,36.45495 0 0 1 70.425553,18.87047 z" id="path67" style="fill:#7e6324;fill-opacity:0.367647;stroke-width:1.00013"/><path class="cls-13" d="M 96.091391,230.78713 C 90.880653,250.23385 74.519239,248.23129 55.072511,243.02056 35.625785,237.80982 20.48408,231.37116 25.694816,211.92443 A 36.45495,36.45495 0 0 1 96.120369,230.7949 Z" id="path71" style="stroke-width:1.00013"/><path class="cls-14" d="m 97.445579,214.97307 a 13.211793,13.211793 0 0 1 -13.892891,-22.2669 23.003123,23.003123 0 1 0 13.902556,22.2695 z M 61.4168,225.77904 a 5.4607414,5.4607414 0 1 1 6.678354,-3.86392 5.4607414,5.4607414 0 0 1 -6.716997,3.85356 z" id="path73" style="stroke-width:1.00013"/></g><path class="cls-14" d="m 150.61109,258.2165 a 18.9008,18.9008 0 0 1 -7.84809,2.05359 19.502486,19.502486 0 0 1 -8.35821,-1.46498 17.239622,17.239622 0 0 1 -7.31179,-5.61139 15.382242,15.382242 0 0 1 -2.26287,-4.23796 13.995748,13.995748 0 0 1 -0.61476,-2.34134 c 0,-0.40549 -0.11773,-0.81097 -0.15697,-1.24262 v -0.65401 c 0,-0.23543 0,-0.3924 0,-0.82404 v -2.21055 l 2.61603,-1.73965 c 0.99409,-0.66709 2.32827,-1.41266 3.50548,-2.1059 l 3.59703,-2.14515 a 75.341596,75.341596 0 0 0 6.89324,-4.61729 c 1.08565,-0.8502 2.11899,-1.75274 3.12615,-2.70759 a 33.576715,33.576715 0 0 0 2.75991,-3.13923 26.631161,26.631161 0 0 0 4.05485,-7.95273 17.788988,17.788988 0 0 1 0,9.86243 25.702471,25.702471 0 0 1 -4.64345,9.1561 33.079669,33.079669 0 0 1 -7.35104,6.95864 34.152241,34.152241 0 0 1 -4.32952,2.51138 24.433699,24.433699 0 0 1 -4.82658,1.7789 l 2.61603,-3.92405 c 0,-0.11772 0,0 0.0916,0.0916 l 0.11772,0.24853 0.23544,0.57553 c 0.18312,0.37932 0.34009,0.77173 0.54937,1.13796 a 17.540465,17.540465 0 0 0 1.30801,2.18439 17.00418,17.00418 0 0 0 3.80632,3.83248 39.031132,39.031132 0 0 0 5.54598,3.25695 c 2.1713,1.02025 4.44724,1.97511 6.88016,3.27004 z" id="path507" style="fill:#cd8029;stroke-width:1.30801"/><path id="rect6344" style="opacity:0.496471;fill:#e27d13;stroke-width:1.96962;stroke-linecap:round;stroke-linejoin:round;stop-color:#000000" d="m 120.61523,177.03488 c 0,0 7.71349,17.30852 16.1716,29.38448 -8.45812,12.07596 -16.1716,29.38448 -16.1716,29.38448 0,0 17.30909,-7.71347 29.38505,-16.1716 12.07596,8.45812 29.38449,16.1716 29.38449,16.1716 0,0 -7.71348,-17.30852 -16.1716,-29.38448 8.45812,-12.07596 16.1716,-29.38448 16.1716,-29.38448 0,0 -17.30852,7.71348 -29.38449,16.1716 -12.07596,-8.45812 -29.38506,-16.1716 -29.38505,-16.1716 z"/><path id="path5816" style="fill:#4b4654;fill-opacity:1;stroke-width:2.446;stroke-linecap:round;stroke-linejoin:round;stop-color:#000000" class="UnoptimicedTransforms" d="M 0 145.64844 L 0 217.2168 C 20.4167 183.5803 38.128243 152.45827 0 145.64844 z M 300 145.64844 C 261.87176 152.45827 279.5833 183.5803 300 217.2168 L 300 145.64844 z "/><path id="path9390" style="opacity:1;fill:#403b47;fill-opacity:1;stroke-width:4.67735;stroke-linecap:round;stroke-linejoin:round;stop-color:#000000" d="M 22.009766 161.84961 C 21.911962 161.36263 21.818668 160.87457 21.683594 160.4043 C 21.495563 159.74965 21.270853 159.11137 21.007812 158.49023 C 20.744772 157.8691 20.442856 157.26402 20.101562 156.67773 C 19.760269 156.09145 19.37982 155.52472 18.957031 154.97461 C 18.534242 154.4245 18.070028 153.89151 17.5625 153.37891 C 17.054972 152.8663 16.503713 152.37416 15.908203 151.90039 C 15.312693 151.42662 14.673063 150.97071 13.986328 150.53711 C 13.299593 150.10351 12.566359 149.69093 11.785156 149.29883 C 11.003953 148.90673 10.173836 148.53677 9.2949219 148.1875 C 8.4160075 147.83823 7.4876811 147.51019 6.5078125 147.20508 C 5.5279439 146.89996 4.4961753 146.61705 3.4121094 146.35742 C 2.3292331 146.09808 1.1939855 145.86106 0.00390625 145.64844 L 0.00390625 174.04883 C 0.00390625 174.04883 10.840934 167.19437 22.009766 161.84961 z "/><path id="path13363" style="opacity:1;fill:#403b47;fill-opacity:1;stroke-width:4.67735;stroke-linecap:round;stroke-linejoin:round;stop-color:#000000" d="M 300 145.64844 C 298.80849 145.86124 297.67196 146.0978 296.58789 146.35742 C 295.50382 146.61705 294.47206 146.89996 293.49219 147.20508 C 292.51232 147.51019 291.58399 147.83823 290.70508 148.1875 C 289.82616 148.53677 288.99605 148.90673 288.21484 149.29883 C 287.43364 149.69093 286.70041 150.10351 286.01367 150.53711 C 285.32694 150.97071 284.68731 151.42662 284.0918 151.90039 C 283.49629 152.37416 282.94503 152.8663 282.4375 153.37891 C 281.92997 153.89151 281.46576 154.4245 281.04297 154.97461 C 280.62018 155.52472 280.23973 156.09145 279.89844 156.67773 C 279.55714 157.26402 279.25523 157.8691 278.99219 158.49023 C 278.72915 159.11137 278.50444 159.74965 278.31641 160.4043 C 278.2076 160.78313 278.13728 161.17866 278.05273 161.56836 C 289.11829 165.69679 300 170.91602 300 170.91602 L 300 145.64844 z "/><g class="UnoptimicedTransforms" id="g9380" transform="matrix(-1,0,0,1,300,0)"><path class="cls-12" id="path9374" d="M 98.710995,221.01063 C 93.500258,240.45736 76.34416,241.42059 56.897434,236.20985 37.450707,230.99912 23.103685,221.59465 28.31442,202.14793 a 36.45495,36.45495 0 0 1 70.425553,18.87047 z" style="fill:#7e6324;fill-opacity:0.367647;stroke-width:1.00013"/><path class="cls-13" id="path9376" d="M 96.091391,230.78713 C 90.880653,250.23385 74.519239,248.23129 55.072511,243.02056 35.625785,237.80982 20.48408,231.37116 25.694816,211.92443 A 36.45495,36.45495 0 0 1 96.120369,230.7949 Z" style="stroke-width:1.00013"/><path class="cls-14" id="path9378" d="m 51.486492,214.97307 a 13.211793,13.211793 0 0 0 13.892891,-22.2669 23.003123,23.003123 0 1 1 -13.902556,22.2695 z m 36.028779,10.80597 a 5.4607414,5.4607414 0 1 0 -6.678354,-3.86392 5.4607414,5.4607414 0 0 0 6.716997,3.85356 z" style="stroke-width:1.00013"/></g><path id="path13361" style="opacity:1;fill:#7d2000;fill-opacity:0.285714;stroke-width:4.67735;stroke-linecap:round;stroke-linejoin:round;stop-color:#000000" d="M 0.00390625 95.505859 L 0.00390625 145.64844 C 1.1939843 145.86106 2.3292342 146.09808 3.4121094 146.35742 C 4.4961742 146.61705 5.5279449 146.89996 6.5078125 147.20508 C 7.4876801 147.51019 8.4160084 147.83823 9.2949219 148.1875 C 10.173835 148.53677 11.003954 148.90673 11.785156 149.29883 C 12.566358 149.69093 13.299594 150.10351 13.986328 150.53711 C 14.673062 150.97071 15.312694 151.42662 15.908203 151.90039 C 16.503713 152.37416 17.054973 152.8663 17.5625 153.37891 C 18.070027 153.89151 18.534243 154.4245 18.957031 154.97461 C 19.37982 155.52472 19.76027 156.09145 20.101562 156.67773 C 20.442856 157.26402 20.744773 157.8691 21.007812 158.49023 C 21.270853 159.11137 21.495563 159.74965 21.683594 160.4043 C 21.818668 160.87457 21.911962 161.36263 22.009766 161.84961 C 27.206523 159.36274 32.469836 157.17252 36.755859 156.20703 C 73.261503 147.98359 111.11823 175.75007 149.34961 175.92969 C 187.94813 176.11102 226.12959 150.30688 263.24805 157.08594 C 267.45099 157.85353 272.77189 159.59814 278.05273 161.56836 C 278.13728 161.17866 278.2076 160.78313 278.31641 160.4043 C 278.50444 159.74965 278.72915 159.11137 278.99219 158.49023 C 279.25523 157.8691 279.55714 157.26402 279.89844 156.67773 C 280.23973 156.09145 280.62018 155.52472 281.04297 154.97461 C 281.46576 154.4245 281.92997 153.89151 282.4375 153.37891 C 282.94503 152.8663 283.49629 152.37416 284.0918 151.90039 C 284.68731 151.42662 285.32694 150.97071 286.01367 150.53711 C 286.70041 150.10351 287.43364 149.69093 288.21484 149.29883 C 288.99605 148.90673 289.82616 148.53677 290.70508 148.1875 C 291.58399 147.83823 292.51232 147.51019 293.49219 147.20508 C 294.47206 146.89996 295.50382 146.61705 296.58789 146.35742 C 297.67196 146.0978 298.80849 145.86124 300 145.64844 L 300 95.505859 L 242.41406 95.505859 C 251.06153 105.68977 201.06691 137.22035 150.00195 138.61133 C 89.871199 140.24925 48.021534 102.54859 57.589844 95.505859 L 34.65625 95.505859 A 18.475901 17.090208 0 0 1 40.646484 108.08398 A 18.475901 17.090208 0 0 1 22.171875 125.17383 A 18.475901 17.090208 0 0 1 3.6953125 108.08398 A 18.475901 17.090208 0 0 1 9.9628906 95.505859 L 0.00390625 95.505859 z "/><path id="path4154" style="color:#000000;fill:#4b4654;fill-opacity:1;stroke-width:5.6;stroke-linejoin:round;-inkscape-stroke:none" class="UnoptimicedTransforms" d="m 62.599609,134.24219 c -4.09163,-0.11376 -8.206608,1.08605 -11.59375,3.38476 -3.173809,2.44047 0.352477,5.98292 3.339844,5.11328 8.573661,0.35166 15.588756,6.01555 22.082031,11.03125 11.945158,9.90325 22.412502,21.45061 34.333986,31.38282 3.82074,2.5097 5.716,-2.87759 3.5332,-5.51563 -5.27159,-13.44056 -14.38578,-25.23381 -25.441404,-34.43945 -6.136708,-4.78189 -13.114361,-8.86416 -20.816407,-10.4082 -1.792657,-0.33363 -3.615252,-0.51825 -5.4375,-0.54883 z m 174.800781,0 c -1.82225,0.0306 -3.64484,0.2152 -5.4375,0.54883 -7.70204,1.54404 -14.6797,5.62631 -20.81641,10.4082 -11.05562,9.20564 -20.16981,20.99889 -25.4414,34.43945 -2.1828,2.63804 -0.28754,8.02533 3.5332,5.51563 11.92148,-9.93221 22.38883,-21.47957 34.33399,-31.38282 6.49327,-5.0157 13.50837,-10.67959 22.08203,-11.03125 2.98736,0.86964 6.51365,-2.67281 3.33984,-5.11328 -3.38714,-2.29871 -7.50212,-3.49852 -11.59375,-3.38476 z" transform="translate(0,28)"/><g id="g15838" transform="matrix(0.88487761,0,0,0.88487761,15.502593,50.287346)"><path id="path15183" style="fill:#c78300;fill-opacity:1;stroke-width:2.30661;stroke-linecap:round;stroke-linejoin:round;paint-order:stroke markers fill;stop-color:#000000" d="m 206.95313,73.414146 6.03006,12.407256 -99.57383,82.830308 C 119.61757,251.85195 28.799043,271.6145 1.7930425,208.16707 1.3896894,207.21944 -17.14513,208.66505 -17.519477,207.68023 V 188.64694 C -15.655533,187.29896 4.3348218,167.13578 6.1652637,165.95218 32.315975,149.04258 55.56605,148.22025 90.726928,143.83783 Z" sodipodi:nodetypes="cccsccscc"/><path id="rect10860" style="fill:#1f1f20;stroke-width:2.31917;stroke-linecap:round;stroke-linejoin:round;paint-order:stroke markers fill;stop-color:#000000" d="m 206.95313,63.414146 6.03006,12.542723 -99.57383,83.734681 c 6.25873,84.7931 -86.094859,104.40789 -112.2628575,38.36422 -0.17645243,-0.44534 -18.4955965,4.01516 -18.6659795,3.56203 V 185.00209 C -17.300094,184.8417 1.0647238,160.47839 1.2835811,160.32039 29.489671,139.95728 53.394604,139.31061 90.726929,134.60674 Z" sodipodi:nodetypes="cccsccscc"/><path id="path10174-6" style="fill:#c1c1c1;fill-opacity:1;stroke:none;stroke-width:1.30004;stroke-linecap:round;stroke-linejoin:round;stroke-dasharray:none;stroke-opacity:1;paint-order:stroke markers fill;stop-color:#000000" class="UnoptimicedTransforms" d="m 84.371541,-406.60738 c -3.767306,10.28682 2.020613,23.73951 17.147789,24.63565 5.88868,0.56151 12.43309,-1.27759 16.57663,-4.10308 0.21378,0.0511 0.43621,0.081 0.66608,0.081 l 6.83829,-8.2e-4 c 1.57342,0 2.83969,-1.2654 2.83969,-2.83883 l 6.6e-4,-1.7785 c 0,-1.57342 -1.26641,-2.84044 -2.83984,-2.84044 l -3.30085,-9.1e-4 -0.002,-2.99936 3.30305,-6e-5 c 1.57343,0 2.84016,-1.26676 2.84016,-2.84018 l -0.001,-1.77886 c 0,-1.57343 -1.26688,-2.83909 -2.84031,-2.83909 l -3.30085,-9.2e-4 1.1e-4,-2.99899 3.30132,-4.3e-4 c 1.57343,0 2.84016,-1.26676 2.84016,-2.84017 l 6.6e-4,-1.7785 c 0,-1.57343 -1.26814,-2.8408 -2.84157,-2.8408 l -6.83829,8.2e-4 c -0.17148,0 -0.33937,0.018 -0.50232,0.0468 -4.1733,-3.3246 -10.68613,-4.70343 -16.73945,-3.98446 -9.187557,0.49658 -14.888045,5.52797 -17.148429,11.70006 z m 13.826512,-4.92116 c 0.768447,-1.82579 3.482047,-3.30842 8.969987,-3.51508 3.64039,6e-5 6.14327,3.22301 6.14338,6.05297 -1.1e-4,2.82996 -2.95224,5.12386 -6.59263,5.12392 -5.68083,-0.62387 -9.801481,-4.61882 -8.520737,-7.66181 z m -0.388608,20.22842 c 0.836539,-2.57813 4.643315,-5.17151 8.910535,-5.46912 3.56231,6.7e-4 6.44844,2.24535 6.44932,5.01462 2.6e-4,2.76988 -2.88651,5.82814 -6.44962,5.82881 -7.613379,-0.23381 -9.746774,-2.79619 -8.910235,-5.37431 z" transform="matrix(0.28202686,1.0525386,-1.3539594,0.36279232,-516.26242,217.57357)"/></g><rect style="opacity:1;fill:#1a1a1a;fill-opacity:1;stroke:none;stroke-width:5.6;stroke-linecap:round;stroke-linejoin:round;stroke-dasharray:none;stroke-opacity:1;stop-color:#000000" id="rect9313" width="224.8372" height="70.31588" x="39.932476" y="73.788269"/><path id="rect8121" style="opacity:1;fill:#2b2b2b;stroke-width:5.2919;stroke-linecap:round;stroke-linejoin:round;stop-color:#000000" d="m 118.19523,9.5945519 2.00624,2.7625631 -2.94067,5.336092 2.3118,8.691336 -5.79715,-2.36687 -8.09881,6.133195 0.71823,-8.340346 -3.10052,-8.063929 -28.724038,17.142079 c -7.919316,4.725919 -11.532393,16.776335 -9.185546,26.416016 3.495918,14.359455 5.600805,18.659242 6.078125,27.861328 -0.814042,14.351695 -5.78483,8.767195 -10.921875,31.154294 30.681807,12.17391 58.705674,27.9271 87.722654,27.76367 29.01698,0.16343 60.51351,-15.58976 91.19531,-27.76367 -5.13704,-22.387099 -10.10783,-16.802599 -10.92187,-31.154294 0.47732,-9.202086 2.58221,-13.501873 6.07812,-27.861328 2.34686,-9.639681 -0.84498,-22.480924 -9.18554,-26.416016 l -3.08203,-1.847656 -0.10157,0.01953 -8.61602,13.758953 -3.54139,0.06527 2.57867,4.555888 -0.68768,7.294606 -2.65323,-5.52363 -2.58984,-2.443189 -1.11008,2.9894 -12.98681,6.443429 5.01367,-16.367188 C 197.25051,38.113501 195.6736,17.834753 196.02539,17.992543 172.22687,1.4451915 144.52289,-6.1173997 118.19523,9.5945519 Z" sodipodi:nodetypes="cccccccccscccccscccccccccccccc"/><path id="rect17285" style="fill:#1a1a1a;stroke-width:8.70866;stroke-linecap:round;stroke-linejoin:round;stop-color:#000000" d="m 8.1652718,108.76142 3.6032682,-2.93951 3.473746,-3.72804 3.495905,-0.58 4.569106,3.33433 3.334049,-1.51408 14.185013,5.4273 V 85.898658 H 8.1652718 Z" sodipodi:nodetypes="cccccccccc"/><g id="g17480" transform="matrix(1.278707,-0.09854558,0.09854558,1.278707,-32.771118,-17.193951)"><path id="rect5158" style="fill:#38c248;fill-opacity:1;stroke-width:12.8163;stroke-linecap:round;stroke-linejoin:round;paint-order:stroke fill markers;stop-color:#000000" d="m 40.944595,27.491745 c 4.252266,0.908531 5.961773,5.632026 8.778839,8.379908 2.421736,1.732391 1.107172,3.272531 0.371796,4.83967 -0.311195,1.145511 -2.584226,3.798038 -0.01756,3.699108 0.988706,-1.451077 1.977405,-2.902158 2.966109,-4.353236 9.651046,12.285294 17.055143,25.699543 21.499375,39.352495 -1.502189,3.283815 -3.004385,6.567629 -4.506566,9.851447 1.225492,2.395516 2.384657,-0.994866 3.206864,-1.875785 0.873136,-1.281485 1.746279,-2.562967 2.619407,-3.844455 3.404039,11.73859 6.949793,23.882603 5.538719,35.135963 -0.642575,5.93267 -4.799269,11.2869 -11.880485,11.53274 -7.184606,0.75897 -15.654509,-2.46281 -20.983415,-8.36788 -5.646279,-5.96166 -8.959426,-13.07253 -11.521023,-20.00342 3.212694,2.4082 6.425378,4.81641 9.638081,7.22461 2.173645,-0.38756 -1.529072,-2.56457 -2.480778,-3.74844 -2.895122,-2.67505 -5.790238,-5.350122 -8.685351,-8.025194 -4.189687,-14.189642 -6.804755,-28.675483 -5.261169,-42.213778 2.195613,1.645761 4.39123,3.291529 6.586842,4.93729 2.641596,-0.278973 -1.268965,-2.674349 -2.319635,-3.910106 -1.299574,-1.20084 -2.59915,-2.40168 -3.898724,-3.60252 1.39258,-8.46418 4.534086,-16.293056 8.032035,-23.835416 0.49717,-0.670323 1.281361,-1.203361 2.316635,-1.172991 z"/><path id="path35919" style="fill:#32873c;fill-opacity:1;stroke-width:9.39795;stroke-linecap:round;stroke-linejoin:round;paint-order:stroke fill markers;stop-color:#000000" d="m 51.330704,47.349418 c 1.775814,1.270331 0.811869,2.399687 0.272631,3.548841 -0.228193,0.839982 -4.339669,10.934044 -2.457584,10.861501 0.725,-1.064048 8.580381,-4.980254 9.305379,-6.044302 7.076933,9.008578 8.533576,18.53941 11.792449,28.550866 -1.101527,2.407961 -3.119824,7.464349 -4.221345,9.872312 0.779988,0.771485 7.335056,-1.297541 7.531901,-1.546116 2.496119,8.60769 2.040275,7.22454 1.00556,15.47642 -0.471188,4.35032 -3.519215,8.27647 -8.711739,8.45674 -5.268338,0.55654 -11.479161,-1.80593 -15.386749,-6.13601 -4.140311,-4.37157 -6.569781,-9.58584 -8.448152,-14.668134 2.355809,1.765889 4.71161,3.531784 7.067426,5.297674 1.593893,-0.28419 -1.12124,-1.880553 -1.819109,-2.748663 C 45.138433,96.308983 43.015498,94.347402 40.892566,92.385822 37.820346,81.98082 34.57855,75.025678 35.710433,65.098298 l 8.191477,2.194346 c -1.465513,-2.781607 -7.661751,-10.386423 -9.460695,-14.04186 2.375914,-7.2413 6.564963,-14.533859 7.168766,-21.125892 2.356211,7.644211 4.460474,9.895232 9.720723,15.224526 z" sodipodi:nodetypes="ccccccccccccccccccc"/></g><path id="rect6450" style="opacity:1;fill:#2b2b2b;fill-opacity:1;stroke-width:4.72757;stroke-linecap:round;stroke-linejoin:round;stop-color:#000000" d="m 51.480469,87.068359 -51.47656275,0.4375 v 80.238281 c 0,0 23.25443575,-15.1204 36.75195275,-18.22656 36.50568,-8.40097 74.362331,19.96495 112.593751,20.14844 38.59856,0.18525 76.77995,-26.1754 113.89844,-19.25 C 276.25792,152.84333 300,164.54492 300,164.54492 V 87.505859 l -52.16797,1.625 C 256.47951,99.53463 201.06696,130.12196 150.00195,131.54297 89.871136,133.21625 41.91215,94.26314 51.480469,87.068359 Z m -37.580012,5.183552 c 1.417639,0 5.344232,5.943712 7.560033,6.544167 4.074892,1.104246 8.612429,3.273772 10.350057,6.692202 1.889828,3.71785 -1.057107,13.40847 -2.357422,12.28711 -7.652054,-6.59894 -7.174254,0.99534 -9.099609,1.07813 -4.021715,0.17293 -7.066407,4.80632 -7.066407,0.17187 0,-1.90495 -3.4467728,-7.34189 -3.6093746,-9.62695 -0.158301,-2.22462 1.6065826,-6.72977 3.4978336,-9.38946 0.89226,-1.254792 -0.03494,-7.757069 0.724889,-7.757069 z" sodipodi:nodetypes="cccssscccscsssssssss"/><path id="path8587" style="opacity:1;fill:#841600;fill-opacity:1;stroke-width:4.72757;stroke-linecap:round;stroke-linejoin:round;stop-color:#000000" d="M 4.6156349,68.302757 C -0.80848805,68.30331 0.00342789,91.559135 0.00390625,96.558464 v 11.206026 c 0.02674972,0.40911 0.06060823,0.8178 0.1015625,1.22591 C 0.37527543,104.21211 4.6331036,88.450883 9.8242188,88.407343 H 39.765625 c 9.8443,0 17.215547,20.052907 23.322266,26.159967 13.546958,13.54772 45.998029,31.01771 86.914059,29.87914 35.66549,-0.99248 70.8083,-17.00458 85.81446,-30.11677 6.60531,-5.77164 14.57758,-25.122225 24.42187,-25.122225 h 29.93945 c 4.99886,0.01134 9.191,14.683015 9.73829,19.262695 0.0302,-0.23499 0.0582,-0.47022 0.084,-0.70566 V 96.558464 c 4.8e-4,-5.000033 0.8112,-29.056261 -4.61369,-29.055819 l -35.14803,0.800112 c -9.84129,0.224028 -17.81656,27.351711 -24.42187,33.123353 -15.00618,13.11218 -50.14899,29.12428 -85.81448,30.11676 C 109.08592,132.68144 76.634849,115.21145 63.087891,101.66373 56.981172,95.556668 49.609925,68.302757 39.765625,68.302757 h -15.52798 l -3.762522,6.475039 -3.522595,-0.912135 -1.986205,6.121772 -1.372131,-3.060752 -4.4953388,-1.827836 0.0012,-6.796088 z" sodipodi:nodetypes="cccccssssscccccssssscccccccc"/><rect class="cls-4" y="45" width="300" height="253.39" rx="36.380001" id="rect9253" x="0" style="display:none"/><g id="g2138" transform="matrix(1.3214273,0,0,1.3214273,-378.69659,-106.57444)"><path style="fill:#ffffff;fill-opacity:1;stroke:none;stroke-width:1.30004;stroke-linecap:round;stroke-linejoin:round;stroke-dasharray:none;stroke-opacity:1;paint-order:stroke markers fill;stop-color:#000000" id="rect1890" width="12.519693" height="7.4587083" x="115.92112" y="-393.45255" ry="2.8401196" transform="matrix(0,0.7773782,-1,0,-0.0867976,25.806569)" inkscape:path-effect="#path-effect10958" class="UnoptimicedTransforms" d="m 118.76124,-393.45255 h 6.83945 c 1.57343,0 2.84012,1.2667 2.84012,2.84012 v 1.77847 c 0,1.57343 -1.26669,2.84012 -2.84012,2.84012 h -6.83945 c -1.57343,0 -2.84012,-1.26669 -2.84012,-2.84012 v -1.77847 c 0,-1.57342 1.26669,-2.84012 2.84012,-2.84012 z m 0,-10.4587 h 6.83945 c 1.57343,0 2.84012,1.26669 2.84012,2.84012 v 1.77847 c 0,1.57342 -1.26669,2.84011 -2.84012,2.84011 h -6.83945 c -1.57343,0 -2.84012,-1.26669 -2.84012,-2.84011 v -1.77847 c 0,-1.57343 1.26669,-2.84012 2.84012,-2.84012 z m 0,-10.45871 h 6.83945 c 1.57343,0 2.84012,1.26669 2.84012,2.84012 v 1.77847 c 0,1.57342 -1.26669,2.84012 -2.84012,2.84012 h -6.83945 c -1.57343,0 -2.84012,-1.2667 -2.84012,-2.84012 v -1.77847 c 0,-1.57343 1.26669,-2.84012 2.84012,-2.84012 z" sodipodi:type="rect"/><path id="rect1832" style="opacity:1;fill:#ffffff;fill-opacity:1;stroke:none;stroke-width:4.14197;stroke-linecap:round;stroke-linejoin:round;stroke-dasharray:none;stroke-opacity:1;paint-order:stroke markers fill;stop-color:#000000" d="m 381.92672,104.72543 c -0.89762,7.31793 4.33844,15.94139 9.93424,16.15425 h 16.46827 c 7.52324,-1.54756 10.99061,-9.24029 9.93425,-16.15425 -1.32423,-19.045901 -34.90293,-18.815268 -36.33676,0 z m 33.07262,4.39091 c -6e-5,2.82996 -3.22322,4.77568 -6.05318,4.77575 -2.82996,-7e-5 -5.12407,-2.29418 -5.12413,-5.12414 0.9982,-7.06585 10.62621,-11.028171 11.17731,0.34839 z M 396.725,108.76795 c -6.7e-4,2.76927 -2.24543,5.01403 -5.0147,5.01471 -2.76989,2e-4 -5.82854,-2.24482 -5.82921,-5.01471 0.4676,-11.836965 10.2487,-6.63449 10.84391,0 z" sodipodi:nodetypes="ccccccccccccc"/><g id="g2095" transform="rotate(60,400.59676,177.82092)"><rect style="opacity:1;fill:#ffffff;fill-opacity:1;stroke:none;stroke-width:5.852;stroke-linecap:round;stroke-linejoin:round;stroke-dasharray:none;stroke-opacity:1;paint-order:stroke markers fill;stop-color:#000000" id="rect1959" width="7.9307804" height="53.18288" x="365.28241" y="132.95718" ry="3.7104335"/><rect style="opacity:1;fill:#ffffff;fill-opacity:1;stroke:none;stroke-width:2.95156;stroke-linecap:round;stroke-linejoin:round;stroke-dasharray:none;stroke-opacity:1;paint-order:stroke markers fill;stop-color:#000000" id="rect2082" width="7.9307804" height="13.528978" x="9.4823885" y="383.43271" ry="3.9653902" transform="rotate(-67.750976)"/><rect style="opacity:1;fill:#ffffff;fill-opacity:1;stroke:none;stroke-width:2.95156;stroke-linecap:round;stroke-linejoin:round;stroke-dasharray:none;stroke-opacity:1;paint-order:stroke markers fill;stop-color:#000000" id="rect2084" width="7.9307804" height="13.528978" x="-270.12857" y="-300.06079" ry="3.9653902" transform="matrix(-0.37863285,-0.92554695,-0.92554695,0.37863285,0,0)"/><rect style="opacity:1;fill:#ffffff;fill-opacity:1;stroke:none;stroke-width:2.95156;stroke-linecap:round;stroke-linejoin:round;stroke-dasharray:none;stroke-opacity:1;paint-order:stroke markers fill;stop-color:#000000" id="rect2086" width="7.9307804" height="13.528978" x="306.20361" y="262.04694" ry="3.9653902" transform="matrix(0.37863285,0.92554695,0.92554695,-0.37863285,0,0)"/><rect style="opacity:1;fill:#ffffff;fill-opacity:1;stroke:none;stroke-width:2.95156;stroke-linecap:round;stroke-linejoin:round;stroke-dasharray:none;stroke-opacity:1;paint-order:stroke markers fill;stop-color:#000000" id="rect2088" width="7.9307804" height="13.528978" x="26.592373" y="-421.44656" ry="3.9653902" transform="rotate(112.24902)"/></g><g id="g2119" transform="matrix(-0.5,0.8660254,0.8660254,0.5,445.89439,-258.01651)"><rect style="opacity:1;fill:#ffffff;fill-opacity:1;stroke:none;stroke-width:5.852;stroke-linecap:round;stroke-linejoin:round;stroke-dasharray:none;stroke-opacity:1;paint-order:stroke markers fill;stop-color:#000000" id="rect2109" width="7.9307804" height="53.18288" x="365.28241" y="132.95718" ry="3.7104335"/><rect style="opacity:1;fill:#ffffff;fill-opacity:1;stroke:none;stroke-width:2.95156;stroke-linecap:round;stroke-linejoin:round;stroke-dasharray:none;stroke-opacity:1;paint-order:stroke markers fill;stop-color:#000000" id="rect2111" width="7.9307804" height="13.528978" x="9.4823885" y="383.43271" ry="3.9653902" transform="rotate(-67.750976)"/><rect style="opacity:1;fill:#ffffff;fill-opacity:1;stroke:none;stroke-width:2.95156;stroke-linecap:round;stroke-linejoin:round;stroke-dasharray:none;stroke-opacity:1;paint-order:stroke markers fill;stop-color:#000000" id="rect2113" width="7.9307804" height="13.528978" x="-270.12857" y="-300.06079" ry="3.9653902" transform="matrix(-0.37863285,-0.92554695,-0.92554695,0.37863285,0,0)"/><rect style="opacity:1;fill:#ffffff;fill-opacity:1;stroke:none;stroke-width:2.95156;stroke-linecap:round;stroke-linejoin:round;stroke-dasharray:none;stroke-opacity:1;paint-order:stroke markers fill;stop-color:#000000" id="rect2115" width="7.9307804" height="13.528978" x="306.20361" y="262.04694" ry="3.9653902" transform="matrix(0.37863285,0.92554695,0.92554695,-0.37863285,0,0)"/><rect style="opacity:1;fill:#ffffff;fill-opacity:1;stroke:none;stroke-width:2.95156;stroke-linecap:round;stroke-linejoin:round;stroke-dasharray:none;stroke-opacity:1;paint-order:stroke markers fill;stop-color:#000000" id="rect2117" width="7.9307804" height="13.528978" x="26.592373" y="-421.44656" ry="3.9653902" transform="rotate(112.24902)"/></g></g><g id="g13183" transform="matrix(0.86513179,0,0,0.88592074,33.542903,8.7913279)"><path style="color:#000000;fill:#ffcf14;fill-rule:evenodd;stroke-linecap:round" d="m 253.39453,42.033203 c -6.4847,-0.803605 -12.76685,2.692156 -15.72266,8.585938 -2.9558,5.893781 -2.12293,13.029211 2.14258,18.033203 4.26552,5.003992 11.22546,6.806466 17.3086,4.398437 6.08314,-2.408028 10.01562,-8.420092 10.01562,-15.03125 1.6e-4,-2.087315 -1.69199,-3.779457 -3.7793,-3.779297 l -3.77929,3.779297 c 0,3.622268 -2.13957,6.777271 -5.23828,8.003906 -3.09872,1.226636 -6.52052,0.374107 -8.77735,-2.273437 -2.25682,-2.647544 -2.7296,-6.567977 -1.13672,-9.744141 1.59289,-3.176163 4.97341,-4.856282 8.24222,-4.4512 l 2.88209,-6.654848 c -0.53768,-0.448299 -1.41117,-0.774032 -2.15751,-0.866608 z" id="path11065" sodipodi:nodetypes="cssscccsssccc" transform="matrix(0.99001319,0.14097479,-0.08947493,0.99598907,0,0)"/><path style="color:#000000;fill:#110918;fill-opacity:0.352941;fill-rule:evenodd;stroke-width:1.06581;stroke-linecap:round" d="m 246.72253,77.83698 c -6.77034,-1.828623 -13.73709,0.940199 -17.42048,6.756439 -3.68338,5.81624 -3.48489,13.521058 0.54144,19.477871 4.02633,5.95681 11.20315,8.91793 17.85597,7.27463 6.65282,-1.6433 11.37874,-7.43834 12.00962,-14.461028 0.19936,-2.217221 -1.42586,-4.269115 -3.62982,-4.582779 l -4.3511,3.446321 c -0.34566,3.847745 -2.90585,6.877446 -6.29475,7.714536 -3.38892,0.83709 -6.92055,-0.58299 -9.05083,-3.734654 -2.13027,-3.151667 -2.25535,-7.387222 -0.27038,-10.521599 1.98499,-3.134375 5.71472,-4.410806 9.12751,-3.489032 l 3.67818,-6.635765 c -0.52494,-0.557046 -1.41615,-1.034387 -2.19536,-1.24494 z" id="path12941" sodipodi:nodetypes="cssscccsssccc"/><path style="color:#000000;fill:#fe8600;fill-opacity:1;fill-rule:evenodd;stroke-linecap:round" d="m 253.39453,42.033203 c -6.4847,-0.803605 -12.76685,2.692156 -15.72266,8.585938 -2.9558,5.893781 -2.12293,13.029211 2.14258,18.033203 4.26552,5.003992 11.22546,6.806466 17.3086,4.398437 6.08314,-2.408028 10.01562,-8.420092 10.01562,-15.03125 1.6e-4,-2.087315 -1.69199,-3.779457 -3.7793,-3.779297 l -3.77929,3.779297 c 0,3.622268 -2.13957,6.777271 -5.23828,8.003906 -3.09872,1.226636 -6.52052,0.374107 -8.77735,-2.273437 -2.25682,-2.647544 -2.7296,-6.567977 -1.13672,-9.744141 1.59289,-3.176163 4.97341,-4.856282 8.24222,-4.4512 l 2.88209,-6.654848 c -0.53768,-0.448299 -1.41117,-0.774032 -2.15751,-0.866608 z" id="path12503" sodipodi:nodetypes="cssscccsssccc" transform="matrix(0.99001319,0.14097479,-0.08947493,0.99598907,0,0)"/><path style="color:#000000;fill:#ffcf14;fill-opacity:1;fill-rule:evenodd;stroke-width:0.929898;stroke-linecap:round" d="m 246.87356,78.674735 c -5.907,-1.59544 -11.98536,0.820307 -15.19905,5.89487 -3.21368,5.074563 -3.0405,11.796875 0.47239,16.994085 3.51291,5.19721 9.77455,7.78073 15.57901,6.34698 5.80447,-1.43375 9.92774,-6.48982 10.47818,-12.616981 0.17393,-1.934484 -0.92109,-3.563249 -2.844,-3.836915 l -3.74243,3.006852 c -0.30158,3.357087 -2.91208,5.838974 -5.86884,6.569314 -2.95676,0.73035 -6.03805,-0.50864 -7.89668,-3.258415 -1.85862,-2.749772 -1.96775,-6.445216 -0.2359,-9.179903 1.73187,-2.734684 5.03982,-4.009822 8.01742,-3.205591 l 2.99383,-5.735758 c -0.458,-0.486013 -1.07408,-0.794834 -1.75393,-0.978538 z" id="path12574" sodipodi:nodetypes="cssscccsssccc"/><path id="path12943" style="fill:#fe8600;fill-opacity:1;fill-rule:evenodd" d="m 236.70508,90.650391 c -0.93927,0.638844 -1.71419,1.425711 -2.2793,2.314453 -1.75965,2.773784 -0.17786,7.01575 2.34603,9.355336 5.54225,4.58358 14.71677,1.06984 14.91374,-5.865102 l -0.41211,-0.380859 c -0.85022,2.528004 -3.06528,4.351321 -5.52539,4.958981 -2.95676,0.73035 -6.03786,-0.50804 -7.89649,-3.257809 -1.42351,-2.10604 -1.81657,-4.766011 -1.14648,-7.125 z" sodipodi:nodetypes="cccccssc"/><path id="rect12286" style="fill:#fffbe8;fill-opacity:0.864722;stroke:none;stroke-width:5.0317;stroke-linecap:round;stroke-linejoin:round;stroke-dasharray:none;stroke-opacity:1;stop-color:#000000" d="m 238.47404,-75.044167 c -1.51302,2.496876 -2.2856,5.439299 -2.10555,8.505487 0.12831,2.184986 0.72434,4.28711 1.69071,6.207483 0.72286,-7.799084 5.7373,-1.795322 9.44335,3.33e-4 -1.97274,-1.572989 -3.27728,-3.912161 -3.42462,-6.421249 -0.20392,-3.472647 1.93757,-6.48581 5.04038,-7.65158 l -0.0757,-0.640731 c -4.12461,1.349289 -9.45726,5.407134 -10.56859,2.57e-4 z" sodipodi:nodetypes="csccsccc" transform="rotate(35.706477)"/></g><g id="g13190"><path style="color:#000000;fill:#110918;fill-opacity:0.352785;fill-rule:evenodd;stroke-width:1.08467;stroke-linecap:round" d="m 226.12283,102.60911 c -6.92245,-1.85292 -14.04489,0.95132 -17.81099,6.84478 -3.76609,5.89345 -3.56572,13.70138 0.55102,19.73729 4.11675,6.03592 11.45813,9.03611 18.2604,7.37096 6.80226,-1.66512 11.63253,-7.53694 12.27757,-14.65283 0.20478,-2.24804 -1.45756,-4.32902 -3.71246,-4.64741 l -4.45272,3.49514 c -0.35328,3.89715 -2.96946,6.96615 -6.4328,7.81394 -3.46334,0.8478 -7.07129,-0.591 -9.2484,-3.78305 -2.17712,-3.19205 -2.30544,-7.48085 -0.27679,-10.65542 1.56651,-2.45138 4.37673,-3.37875 7.18172,-3.24422 l 7.12314,-4.44532 c -0.43873,-1.72578 -1.83614,-3.39893 -3.45969,-3.83386 z" id="path12939" sodipodi:nodetypes="cssscccsssccc"/><path style="color:#000000;fill:#fe8600;fill-rule:evenodd;stroke-width:0.999328;stroke-linecap:round;fill-opacity:1" d="m 226.57808,102.65765 c -6.3491,-1.71485 -12.88163,0.88043 -16.3358,6.33473 -3.45417,5.45429 -3.2704,12.6804 0.50538,18.26653 3.77578,5.58614 10.50911,8.36276 16.74799,6.8217 6.23887,-1.54105 10.66907,-6.97531 11.26069,-13.56095 0.18782,-2.08052 -1.33684,-4.00643 -3.40498,-4.30109 l -4.08392,3.23469 c -0.32402,3.60674 -2.72352,6.44705 -5.90001,7.23167 -3.17649,0.78462 -6.48561,-0.54696 -8.48241,-3.50116 -1.9968,-2.95419 -2.11449,-6.92339 -0.25386,-9.86141 1.43676,-2.2687 4.01422,-3.12697 6.58689,-3.00247 l 6.53317,-4.11406 c -0.40239,-1.59719 -1.68406,-3.14566 -3.17314,-3.54818 z" id="path10699" sodipodi:nodetypes="cssscccsssccc"/><path style="color:#000000;fill:#ffcf14;fill-opacity:1;fill-rule:evenodd;stroke-width:0.943794;stroke-linecap:round" d="m 226.39451,103.52792 c -5.99627,-1.61955 -12.16578,0.8315 -15.42799,5.9827 -3.26222,5.15119 -3.08866,11.97573 0.47729,17.25143 3.56596,5.27571 9.9251,7.89803 15.81728,6.44261 5.89217,-1.45541 10.07617,-6.58768 10.63492,-12.80735 0.17738,-1.9649 -0.99342,-3.56849 -2.94663,-3.84677 l -3.80315,2.94728 c -0.30602,3.40631 -2.89512,5.98113 -5.89509,6.72215 -2.99997,0.74102 -6.1252,-0.51657 -8.01103,-3.3066 -1.88584,-2.79002 -1.99699,-6.53864 -0.23975,-9.31339 1.35691,-2.14263 3.62966,-3.22233 6.05936,-3.10475 l 6.11629,-3.83161 c -0.38002,-1.50843 -1.37517,-2.75555 -2.7815,-3.1357 z" id="path12783" sodipodi:nodetypes="cssscccsssccc"/><path id="path13086" style="fill:#fe8600;fill-opacity:1;fill-rule:evenodd" d="m 216.25152,115.40997 c -0.93927,0.63884 -1.71419,1.42571 -2.2793,2.31445 -1.75965,2.77378 -0.17786,7.01575 2.34603,9.35533 5.54225,4.58358 14.71677,1.06984 14.91374,-5.8651 l -0.41211,-0.38086 c -0.85022,2.52801 -3.06528,4.35132 -5.52539,4.95898 -2.95676,0.73035 -6.03786,-0.50804 -7.89649,-3.2578 -1.42351,-2.10604 -1.81657,-4.76602 -1.14648,-7.125 z" sodipodi:nodetypes="cccccssc"/><path id="rect11643" style="fill:#fff5cc;fill-opacity:1;stroke:none;stroke-width:4.55636;stroke-linecap:round;stroke-linejoin:round;stroke-dasharray:none;stroke-opacity:1;stop-color:#000000" d="m 230.63573,-64.383524 c -0.87366,2.331536 -1.16736,4.893849 -0.75964,7.479609 0.33023,2.094318 1.08939,4.068858 2.18036,5.842597 0.63092,-5.473955 5.22389,-3.734272 10.91239,2.3e-5 -2.12794,-1.827106 -3.95279,-4.691423 -5.43541,-6.806976 -1.51387,-2.160145 0.90568,-4.914398 2.86193,-6.516297 -3.82476,3.65518 -7.31198,5.151928 -9.75963,0.001 z" sodipodi:nodetypes="csccsccc" transform="rotate(41.306391)"/></g><metadata id="metadata17848"><rdf:RDF><cc:Work rdf:about=""><dc:title>captain</dc:title></cc:Work></rdf:RDF></metadata><rect style="fill:#2b2b2b;fill-opacity:1;stroke-width:10.081;stroke-linecap:round;stroke-linejoin:round;stop-color:#000000" id="rect619" width="32.944118" height="43.736156" x="8.4476976" y="92.016327"/></svg>