<svg id="Layer_1" data-name="Layer 1" xmlns="http://www.w3.org/2000/svg" xmlns:xlink="http://www.w3.org/1999/xlink" viewBox="0 0 300 345"><defs><style>.cls-1{fill:url(#linear-gradient);}.cls-2{fill:#fbe2cd;}.cls-3{fill:#e7bf9a;}.cls-4{fill:#c62127;}.cls-5{fill:#8e1924;}.cls-6{fill:#0095d9;}.cls-7{fill:#00c0f3;}.cls-8{fill:#86d5f2;}.cls-9{fill:#25afe5;}.cls-10{fill:url(#linear-gradient-2);}.cls-11,.cls-12{fill-opacity:0.75;}.cls-11{fill:url(#radial-gradient);}.cls-12{fill:url(#radial-gradient-2);}.cls-13{fill:#15141a;}.cls-14{fill:#fff;}.cls-15{fill:#3e3a4f;}</style><linearGradient id="linear-gradient" x1="150" y1="356.11" x2="150" y2="161.16" gradientTransform="matrix(-1, 0, 0, 1, 300, 0)" gradientUnits="userSpaceOnUse"><stop offset="0" stop-color="#fbe2cd"/><stop offset="0.44" stop-color="#e7bf9a"/></linearGradient><linearGradient id="linear-gradient-2" x1="131.8" y1="133.33" x2="131.8" y2="100.84" gradientTransform="matrix(1, 0, 0, -1, 36.39, 154.55)" gradientUnits="userSpaceOnUse"><stop offset="0.12" stop-color="#00c0f3"/><stop offset="0.64" stop-color="#0095d9"/></linearGradient><radialGradient id="radial-gradient" cx="166.68" cy="101.82" r="15.63" gradientTransform="matrix(-1, 0, 0, 1, 300, 0)" gradientUnits="userSpaceOnUse"><stop offset="0" stop-color="#f6a9cb"/><stop offset="1" stop-color="#63aee0" stop-opacity="0"/></radialGradient><radialGradient id="radial-gradient-2" cx="90.37" cy="104.22" r="15.63" gradientTransform="matrix(-0.58, 0, 0, 0.82, 263.57, 16.61)" xlink:href="#radial-gradient"/></defs><title>blook_caterpillar</title><g id="alice_in_wonderland" data-name="alice in wonderland"><path class="cls-1" d="M113.47,345h73.06a36.38,36.38,0,0,0,36.38-36.38V259.14H77.09v49.48A36.38,36.38,0,0,0,113.47,345Z"/><rect class="cls-2" x="77.09" y="103.3" width="145.81" height="195.9" rx="36.38"/><path class="cls-3" d="M77.09,260.52V153.88a36.38,36.38,0,0,1,36.38-36.38h73.06a36.38,36.38,0,0,1,36.38,36.38V260.52C178.13,269.15,121.87,269.15,77.09,260.52Z"/><path class="cls-4" d="M.22,200.88c0,75.93,299.56,75.93,299.56,0S232.72,79.45,150,79.45.22,125,.22,200.88Z"/><path class="cls-5" d="M217.22,175c5.21,0,8.27,6.09,5.29,10.53l-.06.1-1.63,2.42c-.23.33-.46.66-.7,1a12.57,12.57,0,0,0-2.6,9.47,19.93,19.93,0,0,1,.21,3.95c-.2,4.8-.37,7.46-3.54,11l-1.6,1.77a19.11,19.11,0,0,1-12,6.39c-5.5.6-12.66.6-16.65-3.27a3.77,3.77,0,0,0-3.82-.91,24.1,24.1,0,0,1-7.42,1.18H153.51a31.2,31.2,0,0,0-17.32,5.56c-.32.21-.64.41-1,.6a19.59,19.59,0,0,1-10,2.76,19.87,19.87,0,0,1-5.48-.77,20.17,20.17,0,0,1-8.83-5.28,9.93,9.93,0,0,0-7.16-2.87,24.6,24.6,0,0,1-20.4-11.12,25.58,25.58,0,0,0-11.42-9.07,25.19,25.19,0,0,1-13.81-14.93A6.34,6.34,0,0,1,63.93,175Z"/><ellipse class="cls-2" cx="241.9" cy="165.95" rx="28.98" ry="33.49" transform="translate(-51.28 176.05) rotate(-36.42)"/><path class="cls-2" d="M38.69,137.61c14.74-10.87,32.77-11.44,43.72,3.4s5.09,31.9-9.64,42.77a44,44,0,0,1-5.44,3.42c.14.19.3.36.44.55,7.35,10,4.53,20.59-4,26.87S43.89,220,36.93,210.51c-5.68-7.68-5.1-16.51-.09-22.91a27.62,27.62,0,0,1-7.79-7.22C18.68,166.32,24,148.48,38.69,137.61Z"/><ellipse class="cls-2" cx="152.85" cy="214.76" rx="42.87" ry="31.51" transform="translate(-0.84 0.6) rotate(-0.23)"/><path class="cls-3" d="M63.93,175H81.72a43.17,43.17,0,0,1-9,8.78,44,44,0,0,1-5.44,3.42c.14.19.3.36.44.55A20.4,20.4,0,0,1,72,198.4l0,0a25.19,25.19,0,0,1-13.81-14.93A6.34,6.34,0,0,1,63.93,175Z"/><path class="cls-3" d="M217.22,175c5.21,0,8.27,6.09,5.29,10.53l-.06.1-.83,1.23a44.51,44.51,0,0,1-3-3.71,42.72,42.72,0,0,1-4.74-8.15Z"/><path class="cls-3" d="M152.73,183.25c23.67-.09,42.91,12.15,43,31.34a26.91,26.91,0,0,1-1,7.26c-4.06-.11-8.16-1-10.83-3.55a3.77,3.77,0,0,0-3.82-.91,24.1,24.1,0,0,1-7.42,1.18H153.51a31.2,31.2,0,0,0-17.32,5.56c-.32.21-.64.41-1,.6a19.59,19.59,0,0,1-10,2.76,19.87,19.87,0,0,1-5.48-.77,20.17,20.17,0,0,1-8.83-5.28l-.17-.15a29,29,0,0,1-.72-6.36C109.91,194.68,129.06,183.34,152.73,183.25Z"/><path class="cls-6" d="M207.5,128h0a11.71,11.71,0,0,1,11.71,11.71v18.05a1.7,1.7,0,0,1-1.7,1.7h-20a1.7,1.7,0,0,1-1.7-1.7V139.73A11.71,11.71,0,0,1,207.5,128Z" transform="matrix(-0.5, 0.87, -0.87, -0.5, 435.74, 35.91)"/><path class="cls-6" d="M204.24,152.73h0A11.71,11.71,0,0,1,216,164.45V182.5a1.7,1.7,0,0,1-1.7,1.7h-20a1.7,1.7,0,0,1-1.7-1.7V164.45a11.71,11.71,0,0,1,11.71-11.71Z" transform="translate(459.37 97.72) rotate(124.99)"/><path class="cls-6" d="M195.91,179.41h0a11.71,11.71,0,0,1,11.71,11.71v18.05a1.7,1.7,0,0,1-1.7,1.7h-20a1.7,1.7,0,0,1-1.7-1.7V191.12a11.71,11.71,0,0,1,11.71-11.71Z" transform="translate(472.27 186.05) rotate(133.23)"/><rect class="cls-6" x="81.84" y="79.51" width="24.22" height="30.85" rx="10.35" transform="translate(187.9 189.87) rotate(-180)"/><path class="cls-7" d="M79.14,96.17h61.75a16.34,16.34,0,0,1,16.34,16.34v47a27.59,27.59,0,0,1-27.59,27.59H79.14a16.34,16.34,0,0,1-16.34-16.34V112.51A16.34,16.34,0,0,1,79.14,96.17Z" transform="translate(220.03 283.27) rotate(-180)"/><path class="cls-6" d="M138.12,187.11H78.71V142.86a29.64,29.64,0,0,1,29.65-29.65h47.85a19.1,19.1,0,0,1,1,6.14V168A19.12,19.12,0,0,1,138.12,187.11Z"/><path class="cls-7" d="M102.31,119.85h71.62a16.34,16.34,0,0,1,16.34,16.34v42.42a26.73,26.73,0,0,1-26.73,26.73H102.31A16.34,16.34,0,0,1,86,189v-52.8A16.34,16.34,0,0,1,102.31,119.85Z" transform="translate(276.24 325.19) rotate(-180)"/><path class="cls-8" d="M130,182.67l9.42-40.27c0-10.56-4.69-19.12,5.86-19.12H157a19.12,19.12,0,0,1,19.12,19.12v43.82A19.12,19.12,0,0,1,157,205.34H129.57C119,205.34,130,193.22,130,182.67Z"/><path class="cls-6" d="M171.16,119.85A19.12,19.12,0,0,1,190.28,139v47.25a18.74,18.74,0,0,1-.19,2.5,17.85,17.85,0,0,1-2.44.18H139.57a19.12,19.12,0,0,1-19.12-19.12V119.85Z"/><path class="cls-9" d="M129.63,186.09a19.15,19.15,0,0,0,.34-3.42l9.42-40.27c0-10.56-4.69-19.12,5.86-19.12H157a19.12,19.12,0,0,1,19.12,19.12v43.82a19.77,19.77,0,0,1-.21,2.68H139.57A19,19,0,0,1,129.63,186.09Z"/><rect class="cls-7" x="126.14" y="100.61" width="74.93" height="82.06" rx="16.34" transform="translate(327.22 283.27) rotate(-180)"/><path class="cls-6" d="M125.52,130a16.35,16.35,0,0,1-16.34-16.34V96.17h31.71a16.33,16.33,0,0,1,16.34,16.34V130Z"/><path class="cls-8" d="M157.56,182.67H169.3a19.12,19.12,0,0,0,19.12-19.12V119.72a19.12,19.12,0,0,0-19.12-19.11H157.56c-10.56,0-5.87,8.56-5.87,19.11v43.83C151.69,174.11,147,182.67,157.56,182.67Z"/><path class="cls-6" d="M145.26,97.81H182a19.12,19.12,0,0,1,19.12,19.12v13H132.41a19.15,19.15,0,0,1-6.27-1.07v-12A19.12,19.12,0,0,1,145.26,97.81Z"/><path class="cls-9" d="M188.42,116.93v13H151.69v-13c0-10.56-4.69-19.12,5.87-19.12H169.3A19.12,19.12,0,0,1,188.42,116.93Z"/><path class="cls-7" d="M105,191.52l8.67,17.75a11.72,11.72,0,0,0,15.66,5.39h0A11.72,11.72,0,0,0,134.72,199l-8.67-17.75"/><path class="cls-6" d="M124.2,217.35a13.21,13.21,0,0,0,11.86-19l-8.66-17.75a1.5,1.5,0,0,0-2.7,1.32l8.67,17.75a10.21,10.21,0,1,1-18.35,9l-8.67-17.74a1.5,1.5,0,0,0-2.7,1.31l8.67,17.75a13.15,13.15,0,0,0,7.58,6.7A13.29,13.29,0,0,0,124.2,217.35Z"/><path class="cls-7" d="M125.53,171.66l9,17.56a11.72,11.72,0,0,0,15.78,5.06h0a11.71,11.71,0,0,0,5.06-15.77l-9-17.56"/><path class="cls-6" d="M145,197.09a13.23,13.23,0,0,0,11.73-19.27l-9-17.56a1.5,1.5,0,0,0-2.67,1.37l9,17.57a10.21,10.21,0,0,1-18.16,9.34l-9-17.57a1.5,1.5,0,1,0-2.67,1.37l9,17.57a13.11,13.11,0,0,0,7.71,6.54A13.5,13.5,0,0,0,145,197.09Z"/><path class="cls-7" d="M134,149.69l14,14a11.71,11.71,0,0,0,16.56,0h0a11.73,11.73,0,0,0,0-16.57l-14-14"/><path class="cls-6" d="M156.24,168.58A13.21,13.21,0,0,0,165.58,146l-14-14a1.49,1.49,0,0,0-2.12,0,1.51,1.51,0,0,0,0,2.12l14,14A10.21,10.21,0,1,1,149,162.6l-14-14a1.5,1.5,0,0,0-2.12,2.12l14,14A13.18,13.18,0,0,0,156.24,168.58Z"/><path class="cls-6" d="M193.47,46.73V16A11.84,11.84,0,0,1,205.31,4.16h8.09a8.13,8.13,0,0,1,8.14,8.14h0a8.13,8.13,0,0,1-8.14,8.13h-.65a6.43,6.43,0,0,0-6.43,6.43V46.73a6.42,6.42,0,0,1-6.42,6.43h0A6.43,6.43,0,0,1,193.47,46.73Z"/><path class="cls-10" d="M129.63,29.61h77.13A16.34,16.34,0,0,1,223.1,46V96a28.94,28.94,0,0,1-28.94,28.94H142.23A28.94,28.94,0,0,1,113.29,96V46A16.34,16.34,0,0,1,129.63,29.61Z" transform="translate(336.39 154.55) rotate(-180)"/><path class="cls-7" d="M142.23,29.61h51.93a28.94,28.94,0,0,1,28.94,29V98.22a16.34,16.34,0,0,1-16.34,16.34H129.63a16.35,16.35,0,0,1-16.34-16.34V58.56A29,29,0,0,1,142.23,29.61Z"/><path class="cls-7" d="M120.88,46.73V16A11.84,11.84,0,0,1,132.72,4.16h8.1A8.13,8.13,0,0,1,149,12.3h0a8.13,8.13,0,0,1-8.13,8.13h-.65a6.43,6.43,0,0,0-6.43,6.43V46.73a6.43,6.43,0,0,1-6.43,6.43h0A6.43,6.43,0,0,1,120.88,46.73Z"/><circle class="cls-11" cx="133.32" cy="101.82" r="15.63"/><ellipse class="cls-12" cx="210.8" cy="101.82" rx="9.13" ry="12.78"/><path class="cls-13" d="M168.25,104.16a12.18,12.18,0,0,0,2-.17,13.65,13.65,0,0,0,7.33-3.9,13.12,13.12,0,0,0,6.95,3.5c6.37,1.06,11.92-3,12.15-3.12a2.92,2.92,0,1,0-3.46-4.71s-3.85,2.72-7.77,2.06a8.43,8.43,0,0,1-5.5-3.91h0a2.92,2.92,0,0,0-4.79,0h0c-1.21,1.73-3.2,3.87-5.87,4.31-2.17.36-4.62-.44-7.31-2.39a3,3,0,0,0-4,.3,2.92,2.92,0,0,0,.42,4.34C161.76,102.92,165.06,104.16,168.25,104.16Z"/><rect class="cls-13" x="134.92" y="66.85" width="15.18" height="28.74" rx="6.49" transform="translate(285.01 162.43) rotate(180)"/><ellipse class="cls-14" cx="140.25" cy="75.36" rx="3.38" ry="4.32"/><path class="cls-15" d="M136.5,87.7a6,6,0,0,0,12,0c0-3.32-2.69-3.45-6-3.45S136.5,84.38,136.5,87.7Z"/><rect class="cls-13" x="199.57" y="66.85" width="15.18" height="28.74" rx="6.49" transform="translate(414.33 162.43) rotate(180)"/><ellipse class="cls-14" cx="204.91" cy="75.36" rx="3.38" ry="4.32"/><path class="cls-15" d="M201.16,87.7a6,6,0,0,0,12,0c0-3.32-2.69-3.45-6-3.45S201.16,84.38,201.16,87.7Z"/></g></svg>