<svg id="Layer_1" data-name="Layer 1" xmlns="http://www.w3.org/2000/svg" xmlns:xlink="http://www.w3.org/1999/xlink" viewBox="0 0 300 345"><defs><style>.cls-1{fill:url(#linear-gradient);}.cls-2{fill:#2fa04a;}.cls-3{fill:url(#linear-gradient-2);}.cls-4{fill:url(#linear-gradient-3);}.cls-5{fill:#ecf7fe;}.cls-6{fill:#dd7399;}.cls-7{fill:#9bd4ee;}.cls-8{fill:#89c768;}.cls-9{fill:#c89c2e;}.cls-10{fill:#f4d575;}.cls-11{fill:#6ead47;}.cls-12{fill:#c62c6b;}</style><linearGradient id="linear-gradient" x1="150" y1="356.11" x2="150" y2="161.16" gradientUnits="userSpaceOnUse"><stop offset="0" stop-color="#1f8e58"/><stop offset="1" stop-color="#104931"/><stop offset="1" stop-color="#176737"/></linearGradient><linearGradient id="linear-gradient-2" x1="150" y1="270.32" x2="150" y2="-73.45" gradientUnits="userSpaceOnUse"><stop offset="0.49" stop-color="#1f8e58"/><stop offset="1" stop-color="#104931"/><stop offset="1" stop-color="#176737"/></linearGradient><linearGradient id="linear-gradient-3" x1="150" y1="61.33" x2="150" y2="326.74" gradientUnits="userSpaceOnUse"><stop offset="0.42" stop-color="#c7eaf7"/><stop offset="1" stop-color="#6eb8cc"/></linearGradient></defs><title>blook-cereal</title><path class="cls-1" d="M263.62,345H36.38A36.38,36.38,0,0,1,0,308.62V259.14H300v49.48A36.38,36.38,0,0,1,263.62,345Z"/><rect class="cls-2" y="45" width="300" height="253.39" rx="36.38"/><path class="cls-3" d="M251.07,57.31H48.93A32.37,32.37,0,0,0,16.56,89.68v26.53A32.37,32.37,0,0,1,48.93,83.84H251.07a32.37,32.37,0,0,1,32.37,32.37V89.68A32.37,32.37,0,0,0,251.07,57.31Z"/><rect class="cls-4" x="16.56" y="83.84" width="266.87" height="176.83" rx="32.36"/><path class="cls-5" d="M236.5,112.26H63.5a46.94,46.94,0,0,0-46.94,46.93v69.12a32.36,32.36,0,0,0,32.37,32.36H251.07a32.36,32.36,0,0,0,32.37-32.36V159.19A46.94,46.94,0,0,0,236.5,112.26Z"/><path class="cls-6" d="M39.57,112.83v6.37c0,3.51,4.81,6.36,10.74,6.36s10.75-2.85,10.75-6.36c0,0-2.94-13.91,6.87-13.91v6.36c0,3.52,3,6.37,8.94,6.37s10.75-2.85,10.75-6.37v-6.36S87.64,91,62,91C39.57,91,39.57,112.83,39.57,112.83Z"/><path class="cls-7" d="M49.83,130c-8.39,0-15.18-2.71-15.18-6v3.61c0,3.34,6.79,6,15.18,6s15.17-2.71,15.17-6V123.9C65,127.24,58.21,130,49.83,130Z"/><path class="cls-7" d="M79.14,122.06c-8.38,0-15.17-2.71-15.17-6v3.61c0,3.34,6.79,6,15.17,6s15.18-2.71,15.18-6V116C94.32,119.35,87.53,122.06,79.14,122.06Z"/><path class="cls-6" d="M208.3,230.28v6.37c0,3.51,4.81,6.36,10.74,6.36s10.75-2.85,10.75-6.36c0,0-2.94-13.91,6.87-13.91v6.36c0,3.52,3,6.37,8.94,6.37s10.75-2.85,10.75-6.37v-6.36s0-14.34-25.59-14.34C208.3,208.4,208.3,230.28,208.3,230.28Z"/><path class="cls-7" d="M218.56,247.4c-8.39,0-15.18-2.71-15.18-6.05V245c0,3.34,6.79,6,15.18,6s15.17-2.71,15.17-6v-3.61C233.73,244.69,226.94,247.4,218.56,247.4Z"/><path class="cls-7" d="M247.88,239.51c-8.39,0-15.18-2.71-15.18-6v3.61c0,3.34,6.79,6.05,15.18,6.05s15.17-2.71,15.17-6.05v-3.61C263.05,236.8,256.26,239.51,247.88,239.51Z"/><path class="cls-8" d="M209.75,160.85v6.36c0,3.52-4.81,6.37-10.75,6.37s-10.74-2.85-10.74-6.37c0,0,2.94-13.9-6.87-13.9v6.36c0,3.51-3,6.36-8.95,6.36s-10.74-2.85-10.74-6.36v-6.36s0-14.34,25.59-14.34C209.75,139,209.75,160.85,209.75,160.85Z"/><path class="cls-7" d="M199.49,178c8.38,0,15.18-2.71,15.18-6.05v3.61c0,3.34-6.8,6.05-15.18,6.05s-15.17-2.71-15.17-6.05v-3.61C184.32,175.26,191.11,178,199.49,178Z"/><path class="cls-7" d="M170.17,170.07c8.38,0,15.18-2.71,15.18-6v3.61c0,3.35-6.8,6.05-15.18,6.05S155,171,155,167.63V164C155,167.36,161.79,170.07,170.17,170.07Z"/><path class="cls-9" d="M244.13,114.18c-12.6,0-8.73,4.49-8.73,8.71a5.68,5.68,0,0,0,.27,1.75c1-2.94,4.38-4.17,8.46-4.17s7.44,1.39,8.44,4.17a5.22,5.22,0,0,0,.3-1.75C252.87,118.94,256.74,114.18,244.13,114.18Z"/><path class="cls-10" d="M244.52,110c-11.48,0-20.78,4-20.78,14.09s9.3,14.08,20.78,14.08S265.3,133.44,265.3,124,256,110,244.52,110Zm-.39,16.77c-4.82,0-8.73-1.7-8.73-5.92s3.91-5.92,8.73-5.92,8.74,2,8.74,5.92S249,126.72,244.13,126.72Z"/><path class="cls-7" d="M244.52,143.54c-12.23,0-22.3-3.44-23.83-11.81a12.66,12.66,0,0,0-.22,2.27c0,10,10.77,14.08,24.05,14.08s24.06-4.69,24.06-14.08a11,11,0,0,0-.26-2.27C266.71,139.6,256.68,143.54,244.52,143.54Z"/><path class="cls-11" d="M157.12,95.11c-12.61,0-8.74,4.49-8.74,8.71a5.35,5.35,0,0,0,.28,1.75c1-2.94,4.37-4.16,8.46-4.16s7.43,1.39,8.43,4.16a5.14,5.14,0,0,0,.3-1.75C165.85,99.87,169.72,95.11,157.12,95.11Z"/><path class="cls-8" d="M157.5,90.89c-11.47,0-20.78,4-20.78,14.08s9.31,14.09,20.78,14.09,20.79-4.69,20.79-14.09S169,90.89,157.5,90.89Zm-.38,16.77c-4.83,0-8.74-1.7-8.74-5.92s3.91-5.92,8.74-5.92,8.73,2,8.73,5.92S161.94,107.66,157.12,107.66Z"/><path class="cls-7" d="M157.5,124.48c-12.23,0-22.3-3.44-23.83-11.82a12.76,12.76,0,0,0-.22,2.27c0,10,10.77,14.09,24.05,14.09s24.06-4.69,24.06-14.09a11.19,11.19,0,0,0-.25-2.27C179.69,120.54,169.67,124.48,157.5,124.48Z"/><path class="cls-9" d="M160.39,200.26c-12.6,0-8.73,4.5-8.73,8.71a5.7,5.7,0,0,0,.27,1.76c.95-2.94,4.37-4.17,8.46-4.17s7.44,1.39,8.43,4.17a5.24,5.24,0,0,0,.3-1.76C169.12,205,173,200.26,160.39,200.26Z"/><path class="cls-10" d="M160.78,196C149.3,196,140,200.09,140,210.13s9.3,14.08,20.78,14.08,20.78-4.68,20.78-14.08S172.25,196,160.78,196Zm-.39,16.77c-4.82,0-8.73-1.7-8.73-5.92s3.91-5.92,8.73-5.92,8.73,2,8.73,5.92S165.21,212.81,160.39,212.81Z"/><path class="cls-7" d="M160.78,229.63c-12.23,0-22.31-3.44-23.83-11.81a11.8,11.8,0,0,0-.23,2.27c0,10,10.77,14.08,24.06,14.08s24.05-4.69,24.05-14.08a11,11,0,0,0-.25-2.27C183,225.69,172.94,229.63,160.78,229.63Z"/><path class="cls-10" d="M36.37,190.36v6.37c0,3.51,4.81,6.36,10.74,6.36s10.75-2.85,10.75-6.36c0,0-2.94-13.91,6.87-13.91v6.36c0,3.52,3,6.37,8.94,6.37s10.75-2.85,10.75-6.37v-6.36s0-14.34-25.59-14.34C36.37,168.48,36.37,190.36,36.37,190.36Z"/><path class="cls-7" d="M46.63,207.48c-8.39,0-15.18-2.71-15.18-6V205c0,3.34,6.79,6.05,15.18,6.05S61.8,208.38,61.8,205v-3.61C61.8,204.77,55,207.48,46.63,207.48Z"/><path class="cls-7" d="M75.94,199.59c-8.38,0-15.17-2.71-15.17-6.05v3.61c0,3.34,6.79,6,15.17,6s15.18-2.71,15.18-6v-3.61C91.12,196.88,84.33,199.59,75.94,199.59Z"/><path class="cls-12" d="M114.71,144.64c-12.6,0-8.73,4.49-8.73,8.71a5.68,5.68,0,0,0,.27,1.75c1-2.94,4.38-4.17,8.46-4.17s7.44,1.39,8.44,4.17a5.14,5.14,0,0,0,.3-1.75C123.45,149.4,127.32,144.64,114.71,144.64Z"/><path class="cls-6" d="M115.1,140.42c-11.48,0-20.78,4-20.78,14.08s9.3,14.09,20.78,14.09,20.78-4.69,20.78-14.09S126.58,140.42,115.1,140.42Zm-.39,16.76c-4.82,0-8.73-1.7-8.73-5.92s3.91-5.91,8.73-5.91,8.74,2,8.74,5.91S119.54,157.18,114.71,157.18Z"/><path class="cls-7" d="M115.1,174c-12.23,0-22.3-3.45-23.83-11.82a12.66,12.66,0,0,0-.22,2.27c0,10,10.77,14.08,24,14.08s24.06-4.68,24.06-14.08a11.19,11.19,0,0,0-.26-2.27C137.29,170.07,127.26,174,115.1,174Z"/><path class="cls-11" d="M90.66,218.61c-12.61,0-8.73,4.49-8.73,8.71a5.7,5.7,0,0,0,.27,1.76c1-2.94,4.37-4.17,8.46-4.17s7.44,1.39,8.43,4.17a5.24,5.24,0,0,0,.3-1.76C99.39,223.37,103.26,218.61,90.66,218.61Z"/><path class="cls-8" d="M91.05,214.39c-11.48,0-20.79,4.05-20.79,14.09s9.31,14.08,20.79,14.08,20.78-4.69,20.78-14.08S102.52,214.39,91.05,214.39Zm-.39,16.77c-4.82,0-8.73-1.7-8.73-5.92s3.91-5.92,8.73-5.92,8.73,2,8.73,5.92S95.48,231.16,90.66,231.16Z"/><path class="cls-7" d="M91.05,248c-12.23,0-22.31-3.44-23.84-11.81a12.64,12.64,0,0,0-.22,2.26c0,10,10.77,14.09,24.06,14.09s24-4.69,24-14.09a11,11,0,0,0-.25-2.26C113.24,244,103.21,248,91.05,248Z"/><path class="cls-12" d="M248.08,164.49c-12.61,0-8.74,4.5-8.74,8.71a5.7,5.7,0,0,0,.28,1.76c.95-2.94,4.37-4.17,8.46-4.17s7.44,1.39,8.43,4.17a5.24,5.24,0,0,0,.3-1.76C256.81,169.25,260.68,164.49,248.08,164.49Z"/><path class="cls-6" d="M248.47,160.27c-11.48,0-20.79,4-20.79,14.09s9.31,14.08,20.79,14.08,20.78-4.68,20.78-14.08S259.94,160.27,248.47,160.27ZM248.08,177c-4.83,0-8.74-1.7-8.74-5.92s3.91-5.92,8.74-5.92,8.73,2,8.73,5.92S252.9,177,248.08,177Z"/><path class="cls-7" d="M248.47,193.86c-12.23,0-22.31-3.44-23.84-11.81a12.66,12.66,0,0,0-.22,2.27c0,10,10.77,14.08,24.06,14.08s24-4.69,24-14.08a11,11,0,0,0-.25-2.27C270.66,189.92,260.63,193.86,248.47,193.86Z"/></svg>