<svg id="Layer_1" data-name="Layer 1" xmlns="http://www.w3.org/2000/svg" xmlns:xlink="http://www.w3.org/1999/xlink" viewBox="0 0 300 345"><defs><style>.cls-1{fill:url(#linear-gradient);}.cls-2{fill:url(#linear-gradient-2);}.cls-3{fill:url(#linear-gradient-3);}.cls-4{fill:#dd7399;}.cls-5{fill:#c62c6b;}.cls-6{fill:#a15095;}.cls-7{fill:#f6a9cb;}.cls-11,.cls-8{fill:#f4fbfe;}.cls-9{fill:#414042;}.cls-10{fill:none;stroke:#d1d3d4;stroke-linejoin:bevel;stroke-width:3px;}.cls-11{stroke:#414042;stroke-miterlimit:10;stroke-width:4px;}.cls-12{fill:#fff;}</style><linearGradient id="linear-gradient" x1="150" y1="356.11" x2="150" y2="161.16" gradientUnits="userSpaceOnUse"><stop offset="0" stop-color="#f6a9cb"/><stop offset="0.4" stop-color="#c62c6b"/></linearGradient><linearGradient id="linear-gradient-2" x1="266.19" y1="351.17" x2="266.49" y2="180.9" gradientUnits="userSpaceOnUse"><stop offset="0" stop-color="#a15095"/><stop offset="0.4" stop-color="#822778"/></linearGradient><linearGradient id="linear-gradient-3" x1="498.8" y1="351.17" x2="499.1" y2="180.9" gradientTransform="matrix(-1, 0, 0, 1, 532.61, 0)" xlink:href="#linear-gradient-2"/></defs><title>blook_cheshire-cat</title><g id="alice_in_wonderland" data-name="alice in wonderland"><path class="cls-1" d="M263.62,345H36.38A36.38,36.38,0,0,1,0,308.62V259.14H300v49.48A36.38,36.38,0,0,1,263.62,345Z"/><path class="cls-2" d="M300,266.81l-17.6-7.67H232.61l19,39.09V345h12A36.38,36.38,0,0,0,300,308.62Z"/><path class="cls-3" d="M0,266.81l17.6-7.67H67.39l-19,39.09V345h-12A36.38,36.38,0,0,1,0,308.62Z"/><path class="cls-4" d="M150,45C8.45,45,0,150.2,0,150.2V262a36.38,36.38,0,0,0,36.38,36.38H263.62A36.38,36.38,0,0,0,300,262V150.2S291.55,45,150,45Z"/><path class="cls-4" d="M200.87,84c19.8-37.91,79.38-55,79.38-55l-.06,0s20,58.69.18,96.6c0,0-14.23,2.23-43.71-13.16S200.87,84,200.87,84Z"/><path class="cls-4" d="M99.13,84c-19.8-37.91-79.38-55-79.38-55l.06,0s-20,58.69-.18,96.6c0,0,14.23,2.23,43.71-13.16S99.13,84,99.13,84Z"/><path class="cls-5" d="M69.68,82.32C60.14,64.05,31.43,55.8,31.43,55.8l0,0s-9.62,28.28-.08,46.54c0,0,6.86,1.08,21.06-6.34S69.68,82.32,69.68,82.32Z"/><path class="cls-5" d="M230.32,82.32c9.54-18.27,38.25-26.52,38.25-26.52l0,0s9.62,28.28.08,46.54c0,0-6.86,1.08-21.06-6.34S230.32,82.32,230.32,82.32Z"/><path class="cls-6" d="M249.43,140.73,300,151.8v-1.6s-1.54-19.07-14.22-41Z"/><polygon class="cls-6" points="300 238.43 300 190.63 262.49 192.88 300 238.43"/><path class="cls-6" d="M263.62,298.39a36.37,36.37,0,0,0,36.07-31.71L240.53,244.5l11.05,53.73v.16Z"/><path class="cls-6" d="M50.57,140.73,0,151.8v-1.6s1.54-19.07,14.22-41Z"/><polygon class="cls-6" points="0 238.43 0 190.63 37.51 192.88 0 238.43"/><path class="cls-6" d="M36.07,298.39A36.37,36.37,0,0,1,0,266.68L59.17,244.5,48.11,298.23v.16Z"/><path class="cls-7" d="M94.51,298.39H205.78S231.7,200.06,150,200.06s-55.78,98.33-55.78,98.33Z"/><rect class="cls-4" x="94.22" y="298.39" width="111.56" height="46.61"/><path class="cls-8" d="M150,286.8c-38.25,0-70.06-8.35-94.56-24.81C35.9,248.85,26.9,234.3,23.94,228.65l-2.77-5.27,5.22,2.86c20.8,11.42,59.13,25,123.61,25s102.81-13.61,123.61-25l5.22-2.86-2.77,5.27c-3,5.65-11.95,20.2-31.5,33.34C220.06,278.45,188.25,286.8,150,286.8Z"/><path class="cls-9" d="M274.47,227.82C268.76,238.71,239.24,285,150,285S31.24,238.71,25.53,227.82C48.31,240.32,87,253.07,150,253.07s101.69-12.75,124.47-25.25m8.71-8.88-10.43,5.73C252.13,236,214.1,249.48,150,249.48S47.87,236,27.25,224.67l-10.43-5.73,5.53,10.54c3,5.77,12.2,20.64,32.09,34,24.8,16.66,57,25.11,95.56,25.11s70.76-8.45,95.56-25.11c19.89-13.36,29.07-28.23,32.09-34l5.53-10.54Z"/><polyline class="cls-10" points="42.77 234.8 47.55 255.12 66.91 243.72 74.27 271.89 94.88 250.01 106.5 283.57 123.75 251.87 136.55 286.01 150 250.97"/><polyline class="cls-10" points="257.18 234.8 252.41 255.12 233.04 243.72 225.68 271.89 205.08 250.01 193.46 283.57 176.2 251.87 163.4 286.01 149.95 250.97"/><path class="cls-9" d="M274.47,227.82C268.76,238.71,239.24,285,150,285S31.24,238.71,25.53,227.82C48.31,240.32,87,253.07,150,253.07s101.69-12.75,124.47-25.25m9.7-9.89-11.62,6.38C252,235.61,214,249.07,150,249.07S48,235.61,27.45,224.31l-11.62-6.38L22,229.67c3,5.8,12.27,20.73,32.23,34.15C79.08,280.53,111.31,289,150,289s70.92-8.47,95.79-25.18c20-13.42,29.19-28.35,32.23-34.15l6.15-11.74Z"/><line class="cls-11" x1="150" y1="252.63" x2="150" y2="229.56"/><path class="cls-9" d="M127.83,218.69c0,9.41,12.87,18.24,22.17,18.24s22.17-10,22.17-18.24S127.83,209.28,127.83,218.69Z"/><path class="cls-5" d="M279,192.19c0,20.14-16.32,24.13-36.45,24.13s-36.45-4-36.45-24.13a36.45,36.45,0,1,1,72.9,0Z"/><path class="cls-5" d="M93.87,192.19c0,20.14-16.32,24.13-36.45,24.13S21,212.33,21,192.19a36.45,36.45,0,0,1,72.9,0Z"/><path class="cls-12" d="M88.29,214.93c-7.32,18.76-21.62,10.51-40.37,3.19s-34.86-10.94-27.54-29.7a36.45,36.45,0,0,1,67.91,26.51Z"/><path class="cls-12" d="M211.71,214.93c7.32,18.76,21.62,10.51,40.37,3.19s34.86-10.94,27.54-29.7a36.45,36.45,0,0,0-67.91,26.51Z"/><path class="cls-9" d="M73.44,193a13.19,13.19,0,0,1-10.95-20.53c-11.33.2-15.43,10.29-15.43,22.71s4.37,22.72,15.77,22.72S78.6,207.71,78.6,195.16c0-1.08,0-2.15-.09-3.2A13.22,13.22,0,0,1,73.44,193Zm-16,17.15a5.46,5.46,0,1,1,5.45-5.45A5.45,5.45,0,0,1,57.42,210.13Z"/><path class="cls-9" d="M248.53,193a13.17,13.17,0,0,1-10.94-20.52l-.42,0c-11.59,0-15.77,10.18-15.77,22.72s4.37,22.72,15.77,22.72,15.77-10.17,15.77-22.72c0-1,0-2-.08-2.93A13,13,0,0,1,248.53,193Zm-16,17.15a5.46,5.46,0,1,1,5.46-5.45A5.45,5.45,0,0,1,232.51,210.13Z"/><ellipse class="cls-6" cx="76.44" cy="125.66" rx="12.66" ry="18.85" transform="translate(-61.75 176.04) rotate(-78.72)"/><ellipse class="cls-6" cx="211.18" cy="149.83" rx="18.85" ry="12.66" transform="translate(-47.43 136.91) rotate(-32.49)"/><path class="cls-4" d="M119.77,70.47,101.53,110.9s30.57,4.34,49.85-19.22L150.07,123S189.5,112.2,189.5,78"/><path class="cls-5" d="M119.77,70.47c-.93,3.63-2,7.18-3.24,10.7s-2.47,7-3.79,10.46-2.73,6.87-4.23,10.25-3.06,6.73-4.85,10l-1.8-3.28h0a48.75,48.75,0,0,0,6.57.27,62.3,62.3,0,0,0,6.69-.47,59.39,59.39,0,0,0,13-3.09,54,54,0,0,0,6.09-2.67,51,51,0,0,0,5.68-3.43,49.83,49.83,0,0,0,9.69-9L154,84.86l-.29,6.91-1.3,31.28-2.95-2.35h0c2.3-.83,4.74-1.9,7-3s4.61-2.31,6.82-3.62a63.21,63.21,0,0,0,12.18-9.17,43.44,43.44,0,0,0,8.85-12.17A67.69,67.69,0,0,0,189.5,78a27.78,27.78,0,0,1,.63,8.25,18.12,18.12,0,0,1-.23,2.08c-.1.7-.19,1.4-.33,2.08a32.08,32.08,0,0,1-1.18,4.07,33.46,33.46,0,0,1-1.66,3.91c-.68,1.23-1.35,2.49-2.14,3.66a43.24,43.24,0,0,1-5.22,6.67A56.88,56.88,0,0,1,166.14,119a63.72,63.72,0,0,1-7.48,3.64,53.51,53.51,0,0,1-8,2.62h0l-3.08.86.13-3.21L149,91.58l4.15,1.58A54.07,54.07,0,0,1,142.56,103a57.06,57.06,0,0,1-6.21,3.77,62.94,62.94,0,0,1-6.64,2.9,64.68,64.68,0,0,1-14,3.34,69.11,69.11,0,0,1-7.18.51c-1.21,0-2.41,0-3.62,0s-2.37-.12-3.69-.29h0L98.3,113l1.1-3c1.25-3.49,2.72-6.89,4.27-10.24s3.19-6.67,4.89-10S112,83.2,113.9,80,117.66,73.57,119.77,70.47Z"/></g></svg>