<?xml version="1.0" encoding="UTF-8" standalone="no"?>
<svg
   id="Layer_1"
   data-name="Layer 1"
   viewBox="0 0 300 345"
   version="1.1"
   sodipodi:docname="cookieplate.svg"
   xml:space="preserve"
   inkscape:version="1.2 (dc2aedaf03, 2022-05-15)"
   xmlns:inkscape="http://www.inkscape.org/namespaces/inkscape"
   xmlns:sodipodi="http://sodipodi.sourceforge.net/DTD/sodipodi-0.dtd"
   xmlns="http://www.w3.org/2000/svg"
   xmlns:svg="http://www.w3.org/2000/svg"><sodipodi:namedview
     id="namedview16935"
     pagecolor="#505050"
     bordercolor="#ffffff"
     borderopacity="1"
     inkscape:showpageshadow="0"
     inkscape:pageopacity="0"
     inkscape:pagecheckerboard="1"
     inkscape:deskcolor="#505050"
     showgrid="false"
     inkscape:zoom="1.2428876"
     inkscape:cx="259.4764"
     inkscape:cy="248.6146"
     inkscape:window-width="1366"
     inkscape:window-height="705"
     inkscape:window-x="-8"
     inkscape:window-y="-8"
     inkscape:window-maximized="1"
     inkscape:current-layer="Layer_1" /><defs
     id="defs16886"><style
       id="style16869">.cls-1{fill:url(#linear-gradient);}.cls-2{fill:#dae6f5;}.cls-3{fill:#c3d8ea;}.cls-4{fill:url(#linear-gradient-2);}.cls-5{fill:#9dc6ea;fill-opacity:0.6;}.cls-6{fill:#8bbcc4;}.cls-7{fill:#f3fafd;}.cls-8{fill:#d38d30;}.cls-9{fill:#fbb040;}.cls-10{fill:#fd8;}.cls-11{fill:#dc5841;}.cls-12{fill:#f4a57d;}.cls-13{fill:#a8362a;}.cls-14{fill:#af6d2f;}.cls-15{fill:#c88b4b;}.cls-16{fill:#eab371;}.cls-17{fill:#e39a4a;}.cls-18{fill:url(#radial-gradient);}.cls-19{fill:#ffcd05;}.cls-20{fill:#feea96;}</style><linearGradient
       id="linear-gradient"
       x1="150"
       y1="356.11"
       x2="150"
       y2="161.16"
       gradientUnits="userSpaceOnUse"><stop
         offset="0"
         stop-color="#dae6f5"
         id="stop16871" /><stop
         offset="0.37"
         stop-color="#73a0d5"
         id="stop16873" /></linearGradient><linearGradient
       id="linear-gradient-2"
       x1="150"
       y1="326.72"
       x2="150"
       y2="-24.16"
       gradientUnits="userSpaceOnUse"><stop
         offset="0.65"
         stop-color="#dae6f5"
         id="stop16876" /><stop
         offset="0.73"
         stop-color="#73a0d5"
         id="stop16878" /></linearGradient></defs><title
     id="title16888">blook-breakfast</title><path
     class="cls-1"
     d="M263.62,345H36.38A36.38,36.38,0,0,1,0,308.62V259.14H300v49.48A36.38,36.38,0,0,1,263.62,345Z"
     id="path16890" /><rect
     class="cls-2"
     y="45"
     width="300"
     height="284.51"
     rx="36.38"
     id="rect16892" /><rect
     class="cls-3"
     x="33.41"
     y="76.68"
     width="233.19"
     height="221.14"
     rx="28.28"
     id="rect16894" /><path
     id="path31107"
     style="color:#000000;fill:#9dc6ea;fill-opacity:0.6;stroke-width:6.75565;stroke-linejoin:round;-inkscape-stroke:none;paint-order:markers fill stroke"
     d="m 256.05928,133.39102 c -5.44764,1.13491 -12.4551,3.97935 -18.38318,6.21857 -13.64428,5.88671 -29.141,11.68052 -37.12445,25.09378 -4.33017,5.34291 4.53777,12.15505 -3.85477,13.27241 -12.80758,7.04659 -26.9342,14.67728 -34.17606,27.85475 -3.60029,4.04306 0.13036,11.6309 -1.88767,13.71357 -8.12558,1.96015 -15.54974,9.17085 -14.29387,17.87745 1.35075,12.84885 12.73104,21.42297 22.54382,28.31275 -4.27059,10.74015 2.55372,23.5245 13.4332,26.74306 7.5798,2.83539 14.79378,6.87903 22.7043,8.69887 8.68812,1.35021 17.89479,-3.6347 21.48861,-11.66966 11.96382,2.25139 25.88873,3.76733 36.19438,-4.11444 5.45507,-4.8623 6.83165,-13.06589 3.65826,-19.61664 -5.46883,-5.71442 4.3684,-5.94938 5.55624,-11.1433 5.76566,-12.52784 2.06308,-26.82608 -1.034,-39.57448 0.29776,-4.87237 -7.80112,-12.92046 0.12724,-13.45944 2.24939,-1.69052 3.88983,-4.89593 4.43134,-6.90785 3.57786,-13.80954 -2.66748,-27.65642 -7.49814,-40.3591 -3.18596,-6.88283 -5.74011,-14.32768 -10.24442,-20.4328 l -1.63663,-0.50789 z m 14.60335,123.16109 c 0.077,0.11037 -0.67001,0.64108 0,0 z m -10.78898,30.75727 c -0.13086,0.0168 -0.87235,0.48722 0,0 z" /><path
     id="path39427"
     style="color:#000000;fill:#9dc6ea;fill-opacity:0.6;fill-rule:evenodd;stroke-width:7.45232;-inkscape-stroke:none"
     d="M 89.49951,83.332782 C 75.585876,82.261088 64.18529,92.354654 55.835798,102.61286 33.946743,129.5687 29.517859,171.14535 48.414203,201.0025 c 9.630938,15.2293 24.182168,27.52864 40.974173,33.37409 8.21041,1.17439 9.76707,-8.76219 9.956627,-14.94348 2.231817,-8.75436 12.994027,-9.20658 19.723497,-6.09995 5.35728,4.94732 14.61874,1.03788 10.84024,-7.00082 1.89055,-7.58064 10.64328,-12.97907 18.03962,-9.92979 6.65486,4.15739 14.53082,-0.9054 10.35955,-8.85489 -1.64696,-10.50846 -3.34217,-23.30367 4.33367,-31.81913 9.18213,-8.15882 22.01477,-3.9997 32.71517,-2.43687 8.05891,-0.0516 10.50967,-10.3176 6.80956,-16.45969 -8.69159,-26.41031 -32.0049,-46.604785 -58.18816,-52.94612 -12.34045,-1.557429 -24.42219,4.74441 -36.75936,1.643531 -5.887,-0.866884 -11.755204,-2.073372 -17.71928,-2.196599 z" /><path
     class="cls-4"
     d="M238.32,76.68H61.69A28.28,28.28,0,0,0,33.41,105v6.47A28.28,28.28,0,0,1,61.69,83.16H238.32a28.27,28.27,0,0,1,28.27,28.27V105A28.28,28.28,0,0,0,238.32,76.68Z"
     id="path16896" /><path
     id="path35140"
     style="color:#000000;fill:#b5d3ee;stroke-width:8.2349;stroke-linejoin:round;-inkscape-stroke:none;paint-order:markers fill stroke"
     d="m 66.414189,183.99937 c 0.128162,0.0169 0.02769,-0.009 0,0 z m -0.415105,0.0299 c -6.258823,0.12776 -10.589325,5.80686 -10.999787,11.68197 -1.702309,7.73896 -2.791171,15.63709 -4.94938,23.25819 -2.512796,7.17958 -9.088876,11.6331 -15.900913,14.56031 -6.175166,3.14642 -12.495523,6.0361 -18.579524,9.34335 -7.1619448,4.34395 -5.6611648,16.01852 2.13427,18.71249 7.939075,4.22152 16.221893,7.85196 23.902145,12.51938 6.437049,4.29234 8.182848,12.03651 9.045594,19.2056 1.312288,6.66732 1.72351,13.57306 3.727037,20.0588 3.420497,7.18467 14.041147,7.75896 18.879038,1.79074 6.600036,-5.77861 12.771217,-12.08578 19.700902,-17.4588 7.03378,-4.98743 15.766514,-3.73813 23.710334,-2.43705 6.62724,0.70652 13.2141,2.30913 19.8737,2.32473 7.61039,-0.83276 12.23915,-10.33022 7.84397,-16.67617 -3.6757,-7.75391 -7.98561,-15.23782 -11.18091,-23.19675 -2.6019,-7.58874 1.25935,-14.91673 4.95972,-21.32577 2.94721,-6.00583 6.80523,-11.63343 9.0716,-17.92339 1.83425,-7.7688 -6.44893,-14.40893 -13.74985,-12.32652 -8.80429,1.03212 -17.55822,2.69878 -26.4013,3.27107 -7.534974,0.0225 -14.189376,-4.1015 -19.148653,-9.48234 -5.110613,-4.58163 -9.792048,-9.71878 -15.180742,-13.9408 -1.524787,-1.22902 -3.83434,-2.15859 -6.757251,-1.95904 z m -1.274347,0.0923 c -0.324727,0.0764 0.231462,-0.0264 0,0 z M 17.995975,242.4212 c -0.279613,1.94365 -0.463227,0.40409 0,0 z" /><path
     id="path31118"
     style="color:#000000;fill:#8bbcc4;fill-opacity:1;fill-rule:evenodd;stroke-width:7.3626;-inkscape-stroke:none"
     d="M 92.909335,76.876399 C 79.109533,75.068502 67.213678,84.307504 58.347732,93.874187 35.101359,119.01573 28.460174,159.39783 45.678414,189.60422 c 8.775015,15.40704 22.607565,28.22024 39.018012,34.84995 8.114166,1.5964 10.197537,-8.02745 10.717895,-14.05679 2.692386,-8.43179 13.435269,-8.28521 19.970829,-4.8818 5.0702,5.12691 14.50389,1.81341 11.17188,-6.24775 2.28955,-7.3036 11.29641,-12.0998 18.49924,-8.71597 6.4049,4.42603 14.52053,-0.0901 10.79258,-8.08562 -1.07659,-10.35779 -2.0786,-22.95259 6.02296,-30.85329 9.58259,-7.46988 22.14016,-2.70439 32.71342,-0.59228 8.02902,0.39021 11.02054,-9.50662 7.6649,-15.71033 -7.2397,-26.28056 -29.37535,-47.287129 -55.11243,-54.914821 -12.20695,-2.196491 -24.57778,3.300402 -36.69867,-0.404003 -5.81665,-1.16891 -11.596379,-2.668616 -17.529695,-3.115117 z" /><path
     id="path17148"
     style="fill:#ce8e55;fill-opacity:1;fill-rule:evenodd;stroke-width:1.13888"
     d="M 117.84554,71.251415 C 102.66935,71.080637 86.644961,61.739639 72.32981,70.055465 46.596047,85.00448 30.402742,120.03775 36.453713,150.91517 c 4.133118,24.48466 22.026701,45.05025 44.296625,55.27231 3.008576,1.38096 5.321969,-0.47904 6.310403,-3.62233 0.952469,-19.35765 17.634449,-20.44773 30.407169,-12.70818 2.67407,0.90383 3.18477,0.2844 2.58336,-2.45863 -1.57719,-7.19369 6.60667,-13.05197 12.85914,-15.48686 5.42256,-2.11171 16.8859,3.89369 17.29858,2.35163 0.53525,-1.99996 -6.34262,-28.45677 6.81627,-39.45368 9.13459,-7.63379 22.20872,-4.77448 35.42907,-1.50479 2.66013,0.65791 6.30551,-2.46604 5.58621,-6.03128 -5.3195,-26.36662 -26.17551,-46.994666 -51.12879,-56.131359 -8.1665,-2.990178 -19.37802,0.218436 -29.06621,0.109414 z"
     sodipodi:nodetypes="ascccccasssssa" /><path
     id="path17931"
     style="display:inline;fill:#bd7637;fill-opacity:1;stroke:none;stroke-width:7.56517;stroke-linejoin:round;paint-order:markers fill stroke;stop-color:#000000"
     d="m 195.37239,117.76419 c 3.09908,9.36627 -9.15377,7.9557 -14.34788,5.29184 -6.50367,-1.82458 -12.43764,-5.23217 -18.87113,-7.15859 -5.99807,-0.23494 -10.22976,7.2154 -11.64445,12.02433 -0.59659,6.71374 1.83638,7.93276 -5.13141,11.15063 -3.78785,13.48816 -17.88983,10.01354 -13.10792,17.05951 4.60235,6.78139 -9.41491,10.14125 -14.53118,8.0814 -7.36111,-5.90922 -19.227517,-4.44818 -25.616521,2.20566 -3.053599,3.22897 -10.31909,28.41272 -15.838522,20.41706 -7.103955,-5.57503 -16.081617,-4.90825 -21.96155,-10.49985 -7.606319,-7.23334 -12.971442,-17.29814 -14.992758,-27.69137 -1.933799,-8.14641 -2.163973,-16.55159 -2.818084,-24.8632 -5.558926,27.19397 6.40138,56.57542 28.635064,72.96645 5.121094,3.95674 10.729085,7.30015 16.698517,9.80833 8.057575,-1.33355 4.036254,-12.01554 9.216053,-16.33481 6.583231,-6.97688 17.577771,-5.4434 25.192111,-1.12301 6.89396,1.94955 1.3701,-10.31954 8.01514,-11.86713 4.81126,-4.76851 12.2301,-7.6112 18.6743,-4.48166 4.31475,2.57211 9.37368,1.64685 6.68309,-4.15397 -1.3206,-11.48699 -1.92657,-25.3487 7.40074,-33.7865 9.39838,-7.5711 22.2415,-4.64054 32.95757,-2.10869 11.01677,3.55771 7.96897,-9.30715 5.38882,-14.93643 z"
     sodipodi:nodetypes="cssccscccacccccccccccc" /><path
     style="fill:#bd7637;fill-opacity:0.352941;stroke:none;stroke-width:6.09411;stroke-linejoin:round;stroke-dasharray:none;stroke-opacity:0.6;paint-order:markers fill stroke;stop-color:#000000"
     d="m 57.770267,110.26624 c 0.333451,5.22891 0.571786,11.41965 4.029514,15.08964 2.888104,3.06539 8.127176,5.45749 11.768073,3.45901 4.429285,-2.43123 1.644032,-11.3565 5.306571,-14.97896 2.819366,-2.7885 10.778509,0.68217 11.024293,-3.41327 0.357337,-5.9542 -10.280257,-9.41095 -15.317749,-6.86866 -2.7943,1.4102 0.08487,8.21496 -2.76326,9.49269 -4.687881,2.10307 -8.893536,-10.06984 -13.41094,-7.5677 -1.335922,0.73995 -0.738888,3.18173 -0.636502,4.78725 z"
     id="path31322"
     sodipodi:nodetypes="aaaaaaaaa" /><path
     style="fill:#bd7637;fill-opacity:0.352941;stroke:none;stroke-width:6.09411;stroke-linejoin:round;stroke-dasharray:none;stroke-opacity:0.6;paint-order:markers fill stroke;stop-color:#000000"
     d="m 144.10832,75.320374 c -5.22891,0.33345 -11.41966,0.571782 -15.08965,4.029512 -3.06539,2.888111 -5.45749,8.127183 -3.459,11.768077 2.43122,4.429292 11.35649,1.64403 14.97895,5.306575 2.78851,2.819354 -0.68217,10.778512 3.41327,11.024292 5.9542,0.35732 9.41097,-10.280253 6.86866,-15.31775 -1.41019,-2.794299 -8.21496,0.08488 -9.49269,-2.763264 -2.10306,-4.687883 10.06985,-8.89354 7.5677,-13.410946 -0.73995,-1.335916 -3.18173,-0.738882 -4.78724,-0.636496 z"
     id="path31188"
     sodipodi:nodetypes="aaaaaaaaa" /><path
     id="path37082"
     style="fill:#d6aa6f;fill-opacity:1;stroke:none;stroke-width:8.3577;stroke-linejoin:round;stroke-dasharray:none;stroke-opacity:0.6;paint-order:markers fill stroke;stop-color:#000000"
     d="m 89.021601,66.73437 c -5.714035,-0.432839 -11.323134,0.203497 -16.69131,3.321928 -8.279064,4.809396 -15.551066,11.713217 -21.432155,19.873026 0,0 0.806869,-0.437531 1.219663,-0.637715 9.803537,-4.75425 23.670195,-21.069544 29.828276,-13.367281 8.123235,10.160198 39.673455,0.859019 61.197965,0.910088 20.75865,2.80235 35.837,16.406499 42.91453,32.116454 3.43737,8.08366 9.46907,13.0046 13.26145,18.83288 -6.47891,-26.9051 -29.77118,-48.595805 -52.408,-56.642486 -8.19438,-2.912848 -19.37881,0.219995 -29.06698,0.110975 -9.48511,-0.106737 -19.300048,-3.79647 -28.823439,-4.517869 z"
     sodipodi:nodetypes="sscascccsss" /><path
     id="path20304"
     style="fill:#541d0a;fill-opacity:1;stroke:none;stroke-width:7.09993;stroke-linejoin:round;paint-order:markers fill stroke;stop-color:#000000"
     d="m 112.33111,77.461317 c -8.01337,-0.570568 -18.285193,7.035789 -19.36313,14.54497 -0.16745,1.166501 1.662936,1.722663 2.429047,2.637404 5.097993,6.087079 6.418983,20.015899 14.396973,18.938369 3.55273,-0.47986 0.66672,-8.03603 3.7531,-9.80803 2.03366,-1.16757 5.37977,2.66282 7.02095,1.01145 6.41504,-6.454855 3.48536,-22.907949 -4.97357,-26.554948 -1.01925,-0.439438 -2.11861,-0.687705 -3.26337,-0.769215 z m 35.40899,3.597778 c -1.14098,-0.07431 -2.45401,0.131388 -4.03381,0.59067 -5.05534,1.469705 -13.07713,10.524588 -11.21925,16.906046 1.85788,6.381489 12.00539,11.712899 18.18635,8.508449 6.18094,-3.20445 5.75725,-16.439435 3.08751,-21.106435 -1.83544,-3.208565 -3.51062,-4.735245 -6.0208,-4.89873 z m -69.568764,4.373871 c -4.069045,-0.128144 -9.135074,2.538229 -12.135847,5.09475 -3.866241,3.293865 -7.695848,9.677084 -5.276947,14.104334 2.66387,4.8756 11.675805,6.91245 16.50109,4.03384 6.471758,-3.86086 10.412433,-16.369741 5.046886,-21.624874 -1.103262,-1.080559 -2.542948,-1.557906 -4.135182,-1.60805 z m 10.97979,32.451114 c -4.887207,-0.3768 -3.155611,18.27662 1.137356,22.66019 5.816115,5.93883 20.465858,3.44311 21.985718,-6.30303 0.23358,-1.49781 -16.212793,-14.28258 -22.629277,-16.26026 -0.171561,-0.0529 -0.336145,-0.0848 -0.493797,-0.0969 z M 59.363577,128.6548 c -4.873252,-0.36218 -11.150618,3.35054 -11.928276,7.78572 -1.730253,9.86806 10.682553,24.92542 20.637758,22.41104 2.518762,-0.63614 1.86612,-4.88812 1.693052,-7.41707 -0.541728,-7.91581 -0.787317,-19.55388 -8.418305,-22.3641 -0.618688,-0.22785 -1.288049,-0.36386 -1.984229,-0.41559 z" /><g
     id="g29111"
     transform="matrix(0.93222668,0.3854171,-0.3854171,0.93222668,143.56394,-109.3993)"><path
       id="path20987"
       style="fill:#ce7f39;fill-opacity:1;stroke:#ce7f39;stroke-width:1.597;stroke-linejoin:round;stroke-dasharray:none;stroke-opacity:1;paint-order:markers fill stroke;stop-color:#000000"
       class="UnoptimicedTransforms"
       d="m 12.931983,325.84245 c 0,0 -44.285138,35.69072 -35.441406,52.08789 2.211649,4.10063 12.6601561,-4.48437 12.6601561,-4.48437 0,0 -42.2973811,41.663 -31.5683591,58.9707 1.520541,2.45289 4.553889,2.9714 8.175781,2.44531 -8.191112,4.98085 -15.118614,11.21267 -14.585938,17.95313 0.99358,12.57273 17.570428,18.54175 33.16211,21.40429 v 1.75196 c 0,9.44273 7.6021924,17.04492 17.0449217,17.04492 H 23.486671 c 9.442729,0 17.044921,-7.60219 17.044921,-17.04492 v -1.75196 c 15.591336,-2.86262 32.166602,-8.83186 33.160157,-21.40429 0.532676,-6.74046 -6.394826,-12.97228 -14.585938,-17.95313 3.621893,0.52609 6.65524,0.008 8.175781,-2.44531 10.729022,-17.3077 -31.568359,-58.9707 -31.568359,-58.9707 0,0 10.448508,8.585 12.660156,4.48437 8.843733,-16.39717 -35.441406,-52.08789 -35.441406,-52.08789 z"
       transform="translate(179.50747,-147.90495)" /><path
       id="path21709"
       style="fill:#077e10;stroke-width:6.997;stroke-linejoin:round;paint-order:markers fill stroke"
       class="UnoptimicedTransforms"
       d="m 6.2574358,339.30449 c -6.69775487,7.01364 -14.9876178,16.62147 -20.6577118,24.05278 -2.59498,3.40102 -0.992242,6.2297 3.200434,7.04705 6.5494458,1.2768 12.8136103,4.16234 9.6446871,8.43 -9.6574921,3.1162 -41.6805671,28.39918 -34.7148961,47.05201 1.341117,3.59127 11.333486,3.56629 10.001593,2.40655 3.985162,4.33875 3.163012,11.61511 -1.754808,14.93138 -3.134789,3.32828 -13.141463,6.46377 -8.222069,12.08333 23.161693,15.52912 68.59428,12.32162 90.082726,4.92353 5.084052,-1.29526 13.847115,-7.39017 6.670727,-12.14334 -5.165231,-3.81948 -13.886649,-8.21398 -10.74602,-16.09315 1.670912,0.03 8.551686,-2.80371 9.230396,-7.61948 2.648715,-18.79386 -15.691982,-34.85103 -31.419362,-45.23629 -3.160945,-3.93485 3.170519,-7.55156 10.08938,-9.51793 5.565511,-1.58175 7.642636,-5.39258 3.719857,-9.66716 -6.240118,-6.79974 -14.792845,-14.84994 -21.480545,-20.95212 -3.824922,-3.49004 -10.0689897,-3.44118 -13.6443882,0.30284 z"
       transform="matrix(0.97873543,0,0,1,179.89331,-147.90495)"
       sodipodi:nodetypes="ccccsccccccsccssc" /><path
       id="path24526"
       style="fill:#b06522;fill-opacity:1;stroke:none;stroke-width:1.597;stroke-linejoin:round;stroke-dasharray:none;stroke-opacity:1;paint-order:markers fill stroke;stop-color:#000000"
       class="UnoptimicedTransforms"
       d="m -9.8492669,369.99284 c -3.5753171,2.67975 -12.5439371,9.13165 -13.6933591,1.21484 -1.897072,5.32525 4.016543,11.44164 7.576295,4.75674 2.000527,-2.02932 4.030102,-4.03096 6.1170641,-5.97158 z m 45.5624999,0 c 3.867148,2.73699 10.512583,14.21927 13.541898,5.58463 0.5043,-3.00908 0.396554,-5.75174 -0.881742,-1.42447 -3.747026,3.08985 -9.383564,-2.26582 -12.660156,-4.16016 z m -78.4375,51.75586 c -1.175994,4.16137 -0.231693,14.81903 5.166973,7.84779 1.629071,-1.32776 6.691822,-3.30002 1.723828,-2.47131 -3.435801,0.24668 -6.230492,-2.05546 -6.890801,-5.37648 z m 111.3125,0 c -0.665965,4.43816 -5.518487,6.20065 -9.482422,5.20508 3.55956,0.66878 8.993388,9.46857 9.60028,1.85582 0.487646,-2.32879 0.329326,-4.74087 -0.117858,-7.0609 z m -115.380859,25.84961 c -3.683587,8.02183 3.119033,16.19371 10.071615,19.56026 6.841684,3.69187 14.461888,5.62832 22.055338,7.06083 -1.012875,9.35895 6.6469652,18.57665 16.1652347,18.77478 8.1935828,-0.0617 16.4111723,0.24417 24.5895973,-0.1736 8.805387,-1.1149 15.346889,-9.86517 14.442433,-18.60118 10.926012,-2.25549 23.088953,-4.95273 30.444709,-14.06496 2.779917,-2.73984 3.788675,-11.34893 1.275844,-11.72794 -5.586363,9.04193 -16.355697,13.21614 -26.004542,15.56402 -4.463116,-0.18163 -6.455512,1.79444 -6.061111,5.99107 -1.752681,8.53114 -10.847168,11.81101 -19.121274,10.90969 -7.372937,-0.1595 -14.7879269,0.35124 -22.1294617,-0.32007 -7.9991939,-1.25448 -15.4075633,-6.27464 -14.5487523,-14.46103 -10.881232,-2.18373 -22.351535,-7.06829 -29.790666,-16.10327 -0.541032,-0.75423 -1.011685,-1.56008 -1.388964,-2.4086 z"
       transform="translate(179.50747,-147.90495)"
       sodipodi:nodetypes="ccccccccccccccccccccccccccccccc" /><path
       id="path23044"
       style="fill:#0fa213;fill-opacity:1;stroke-width:6.997;stroke-linejoin:round;paint-order:markers fill stroke"
       class="UnoptimicedTransforms"
       d="m 12.986355,336.4402 c -0.759341,0.0143 -1.513597,0.13002 -2.248996,0.32478 -0.251459,0.0626 -0.496544,0.14441 -0.7423481,0.22693 -1.3901752,0.49586 -2.6819027,1.32398 -3.7376834,2.50246 -6.69774817,7.47611 -14.9879459,17.71746 -20.6580345,25.63878 -0.330346,0.46151 -0.588642,0.91052 -0.78625,1.34908 0.663804,0.43745 2.027296,0.63183 3.987128,1.0139 6.5494393,1.2768 12.8134602,4.1641 9.6445402,8.43175 -0.2342214,0.0756 -0.5385669,0.23269 -0.7982239,0.33727 1.68981384,1.45466 2.27319336,3.24774 0.7982239,5.3651 -8.2760887,2.84655 -32.9557722,23.04286 -35.4690782,41.27605 0.160066,1.01425 0.392931,2.01148 0.754321,2.97922 1.341116,3.59127 11.333637,3.56643 10.001746,2.40669 2.469674,2.6888 3.088921,6.50648 2.035471,9.80999 1.316581,4.33961 -0.04619,9.4718 -3.789568,12.16255 -1.598268,1.80881 -4.975899,3.56809 -7.257851,5.64823 23.433998,14.82268 67.919515,11.61606 89.117706,4.3179 2.320077,-0.59109 5.391611,-2.18648 7.37958,-4.19298 -0.228042,-0.19663 -0.435283,-0.39426 -0.708424,-0.5871 -5.165226,-4.07134 -13.886715,-8.75626 -10.746089,-17.15498 4.81e-4,1e-5 0.0015,-10e-6 0.002,0 -0.805626,-1.83361 -0.957221,-3.90551 -0.002,-6.30196 1.67091,0.03 8.550754,-2.80196 9.229464,-7.61773 0.04662,-0.33075 0.07202,-0.66226 0.105764,-0.99307 -1.653154,-17.09798 -17.605719,-31.63144 -31.523857,-41.42803 -1.408623,-1.86913 -0.926923,-3.67097 0.646562,-5.27974 -0.214487,-0.14418 -0.43298,-0.30241 -0.646562,-0.44345 -3.160941,-3.93484 3.170696,-7.55215 10.08955,-9.51851 2.788696,-0.79257 4.700845,-1.41404 5.421936,-2.37547 -0.314737,-0.9105 -0.863611,-1.85942 -1.702212,-2.83349 -6.240112,-7.24811 -14.794507,-15.82814 -21.482201,-22.3327 -1.912459,-1.86009 -4.42856,-2.77833 -6.914614,-2.73147 z"
       transform="matrix(0.97873543,0,0,0.9381386,179.89331,-127.09238)" /><path
       id="rect23345"
       style="fill:#9c320b;stroke-width:0.896303;stroke-linejoin:round;paint-order:markers fill stroke;stop-color:#000000"
       d="m 179.82943,320.04602 h 25.22125 c 3.84988,0 6.94924,3.09936 6.94924,6.94924 v 3.2499 c 0,3.84987 -3.09936,6.94923 -6.94924,6.94923 h -25.22125 c -3.84988,0 -6.94924,-3.09936 -6.94924,-6.94923 v -3.2499 c 0,-3.84988 3.09936,-6.94924 6.94924,-6.94924 z" /><path
       id="path23762"
       style="fill:#cd4e18;fill-opacity:1;stroke-width:0.721098;stroke-linejoin:round;paint-order:markers fill stroke;stop-color:#000000"
       d="m 181.55691,320.04602 h 21.76629 c 3.3225,0 5.99729,2.32452 5.99729,5.21193 v 2.43742 c 0,2.88741 -2.67479,5.21193 -5.99729,5.21193 h -21.76629 c -3.3225,0 -5.99729,-2.32452 -5.99729,-5.21193 v -2.43742 c 0,-2.88741 2.67479,-5.21193 5.99729,-5.21193 z" /><path
       class="cls-7"
       d="m 202.87601,196.96083 c 4.37601,2.65467 8.03459,7.50345 8.23311,12.31145 a 6.2210592,3.3184398 56.642843 0 1 -4.6098,1.81757 c -5.70695,-3.97662 -10.53773,-6.76581 -11.26103,-11.41154 -0.79432,-5.22599 3.2511,-5.37857 7.63772,-2.71748 z"
       id="path26559"
       style="fill:#d2ffd3;fill-opacity:1;stroke-width:0.774036" /><path
       class="cls-7"
       d="m 219.01918,243.76525 c 5.36218,3.55343 9.84525,10.0438 10.08851,16.47958 a 8.1303592,4.1647476 60.586625 0 1 -5.64866,2.43292 c -6.99306,-5.32293 -12.9125,-9.05642 -13.7988,-15.275 -0.97333,-6.99528 3.98376,-7.19952 9.35895,-3.6375 z"
       id="path26561"
       style="fill:#d2ffd3;fill-opacity:1;stroke-width:0.991314" /><circle
       class="cls-7"
       cx="219.98151"
       cy="271.42664"
       id="circle25296"
       style="fill:#d2ffd3;fill-opacity:1;stroke-width:0.696013"
       r="4.2943964" /><path
       style="fill:#ffdad2;fill-opacity:1;stroke:none;stroke-width:1.32906;stroke-linejoin:round;stroke-dasharray:none;stroke-opacity:1;paint-order:markers fill stroke;stop-color:#000000"
       d="m 206.80013,323.19911 c 1.9253,1.04647 1.54034,5.12915 0,6.71093 -1.50367,1.54412 -5.35863,1.91562 -6.37951,0 -0.73906,-1.38679 1.41627,-2.86128 2.48957,-3.9946 1.09321,-1.15434 2.50406,-3.4696 3.88994,-2.71633 z"
       id="path28478"
       sodipodi:nodetypes="aaaaa" /></g><path
     style="fill:#bd7637;fill-opacity:0.352941;stroke:none;stroke-width:9.54264;stroke-linejoin:round;stroke-dasharray:none;stroke-opacity:0.6;paint-order:markers fill stroke;stop-color:#000000"
     d="m 113.56307,121.59536 c 5.22659,3.09856 13.19418,-0.92931 17.62609,-4.97345 4.81172,-4.3907 10.56148,-12.93047 6.56907,-18.056825 -3.60584,-4.630042 -13.48683,0.166588 -18.01632,0.793257 -29.29948,4.053558 -19.71585,14.211718 -6.17884,22.237018 z"
     id="path31389"
     sodipodi:nodetypes="saass" /><path
     id="path29434"
     style="fill:#bd7637;fill-opacity:1;stroke:none;stroke-width:1.90778;stroke-linejoin:round;stroke-dasharray:none;stroke-opacity:1;paint-order:markers fill stroke;stop-color:#000000"
     d="m 137.46467,91.405952 c -0.93317,-0.06368 -1.84655,0.170352 -2.73429,0.61125 -2.03622,3.04473 -3.2461,6.497911 -2.40055,9.402188 1.85787,6.38149 12.00539,11.71289 18.18635,8.50844 4.38308,-2.27238 5.43484,-9.57994 4.72971,-15.308154 -0.33397,0.06277 -0.65945,0.190423 -0.97163,0.401383 -7.09521,4.794393 -11.63085,-2.054021 -15.62963,-3.381136 -0.39558,-0.131299 -0.78999,-0.207353 -1.17996,-0.233971 z M 98.778033,90.111126 c -1.843052,-0.215009 -3.616298,0.706076 -5.258001,2.240756 -0.336212,0.833243 -0.588323,1.675512 -0.709259,2.517979 -0.167451,1.166505 1.662937,1.722677 2.429046,2.637408 5.097991,6.087071 6.418991,20.015891 14.396971,18.938371 3.55273,-0.47985 0.66673,-8.03602 3.75311,-9.80803 2.03366,-1.16757 5.37976,2.66282 7.02094,1.01146 2.05986,-2.07265 3.14399,-5.17891 3.40321,-8.558288 -2.56905,-3.612688 -5.91018,-7.099577 -8.44737,-5.385136 -7.09523,4.794386 -11.63084,-2.054032 -15.62962,-3.381147 -0.321228,-0.106639 -0.641487,-0.176342 -0.959027,-0.213373 z m -33.218094,6.382188 c -1.216783,0.01212 -2.387555,0.546554 -3.501278,1.368569 -1.967556,3.126817 -3.015706,6.781487 -1.457328,9.633757 2.663871,4.87556 11.67581,6.91244 16.501091,4.03383 3.556592,-2.12176 6.336335,-6.85622 7.239605,-11.562318 -1.239285,-0.800502 -2.46312,-1.109152 -3.521681,-0.45561 -6.27113,3.871738 -10.318955,-1.717148 -13.869502,-2.812865 -0.468319,-0.144529 -0.932498,-0.209922 -1.390907,-0.205363 z m 26.707255,35.514026 c -1.979011,-0.13288 -3.853315,1.08601 -5.536023,2.87478 0.698422,3.64152 1.883772,6.9774 3.400103,8.52573 5.816111,5.93882 20.465866,3.4431 21.985716,-6.30303 0.0314,-0.20174 -0.26008,-0.62058 -0.7686,-1.1779 -1.45454,-1.12871 -2.92359,-1.67816 -4.16495,-0.91176 -6.27113,3.87173 -10.321055,-1.71729 -13.871605,-2.813 -0.351239,-0.10842 -0.698798,-0.17158 -1.044641,-0.19482 z m -42.035636,10.82161 c -0.995054,-0.0669 -1.960767,0.23033 -2.893744,0.74208 1.567713,9.38015 11.978986,20.31596 20.578037,18.14411 2.518759,-0.63614 1.866119,-4.88813 1.693052,-7.41707 -0.162775,-2.37847 -0.322072,-5.09092 -0.639755,-7.80105 -1.340473,-0.94875 -2.677999,-1.3641 -3.821453,-0.65814 -6.271129,3.87171 -10.321062,-1.71731 -13.871609,-2.81302 -0.351245,-0.10831 -0.698681,-0.17369 -1.044528,-0.19691 z" /><path
     id="path29421"
     style="fill:#411608;fill-opacity:1;stroke:none;stroke-width:1.90778;stroke-linejoin:round;stroke-dasharray:none;stroke-opacity:1;paint-order:markers fill stroke;stop-color:#000000"
     d="m 137.62188,88.542362 c -0.93317,-0.06372 -1.84655,0.170357 -2.73429,0.611256 -2.03622,3.044725 -3.2461,6.497907 -2.40055,9.402193 1.85787,6.381489 12.00539,11.712889 18.18635,8.508449 4.38308,-2.27238 5.43484,-9.579946 4.72971,-15.308155 -0.33398,0.06284 -0.65945,0.190416 -0.97163,0.401365 -7.09521,4.794394 -11.63085,-2.054023 -15.62963,-3.381137 -0.39558,-0.131285 -0.78999,-0.207342 -1.17996,-0.233971 z M 98.935242,87.247541 c -1.843052,-0.215009 -3.616299,0.706086 -5.258002,2.240763 -0.336211,0.833232 -0.588323,1.675511 -0.70926,2.517983 -0.16745,1.166501 1.662938,1.722663 2.429047,2.637404 5.097993,6.087069 6.418993,20.015889 14.396973,18.938369 3.55273,-0.47986 0.66673,-8.03603 3.7531,-9.80803 2.03366,-1.16757 5.37977,2.66282 7.02095,1.01145 2.05986,-2.07263 3.14399,-5.178908 3.40321,-8.558286 -2.56905,-3.612685 -5.91018,-7.099573 -8.44737,-5.385137 -7.09523,4.794387 -11.63084,-2.054021 -15.629622,-3.381133 -0.32123,-0.10661 -0.641487,-0.176339 -0.959026,-0.213383 z m -33.218094,6.382185 c -1.216778,0.01202 -2.387556,0.546564 -3.501279,1.368579 -1.967556,3.126817 -3.015706,6.781485 -1.457327,9.633745 2.663869,4.87559 11.675809,6.91245 16.50109,4.03384 3.556592,-2.12176 6.336335,-6.85623 7.239606,-11.562331 -1.239286,-0.800487 -2.463121,-1.109137 -3.521682,-0.455591 -6.27113,3.871752 -10.318954,-1.717172 -13.869501,-2.812879 -0.46832,-0.144529 -0.932499,-0.209912 -1.390907,-0.205363 z m 26.707254,35.514034 c -1.979005,-0.13298 -3.853317,1.08603 -5.536023,2.87478 0.698422,3.64151 1.883773,6.97739 3.400103,8.52573 5.816111,5.93882 20.465868,3.4431 21.985718,-6.30303 0.0315,-0.20174 -0.26008,-0.62057 -0.76861,-1.1779 -1.45453,-1.12872 -2.92358,-1.67816 -4.16494,-0.91177 -6.27113,3.87174 -10.321056,-1.71728 -13.871607,-2.81299 -0.351239,-0.10842 -0.698797,-0.17158 -1.044641,-0.19482 z m -42.035635,10.8216 c -0.995055,-0.0668 -1.960768,0.23035 -2.893744,0.74208 1.567712,9.38016 11.978985,20.31598 20.578036,18.14412 2.518759,-0.63614 1.866119,-4.88812 1.693052,-7.41707 -0.162774,-2.37848 -0.322072,-5.09091 -0.639755,-7.80105 -1.340473,-0.94875 -2.677998,-1.36411 -3.821453,-0.65815 -6.271129,3.87172 -10.321062,-1.7173 -13.871609,-2.813 -0.351239,-0.10842 -0.698681,-0.17369 -1.044527,-0.19693 z" /><path
     id="path39843"
     style="color:#000000;fill:#ab5c16;fill-opacity:0.519608;stroke-width:8.9036;stroke-linejoin:round;paint-order:markers fill stroke"
     d="m 65.046279,178.08118 c -0.372891,-0.0295 -0.75672,-0.0436 -1.152654,-0.0379 -4.930899,-0.16986 -8.908157,2.91976 -11.020593,7.04669 2.351922,2.75322 4.873521,5.36646 7.583997,7.78257 0.614649,0.53276 1.209161,1.08726 1.843149,1.59854 0.0062,0.005 0.01191,0.0108 0.01816,0.0158 0.123819,0.10404 0.252147,0.20278 0.376565,0.30618 1.07157,0.89056 2.168915,1.75008 3.284115,2.58706 0.695035,0.51868 1.394056,1.03191 2.105021,1.52832 0.306157,0.21479 0.60928,0.43427 0.918428,0.64472 1.05124,0.71287 2.120575,1.39713 3.203065,2.06022 0.348739,0.21294 0.700385,0.42163 1.05254,0.6288 0.657457,0.38933 1.325981,0.75829 1.993714,1.12884 2.142166,1.17149 4.336425,2.24671 6.592819,3.18534 3.449146,-0.42415 4.671859,-2.6674 5.364628,-5.41573 0.115046,-1.20479 0.308497,-2.31402 0.542598,-3.37309 -0.374877,-0.41792 -0.761298,-0.82678 -1.117377,-1.25837 -5.24575,-5.24912 -9.996197,-11.07324 -15.563471,-15.95061 -1.376622,-1.24005 -3.41464,-2.26799 -6.024708,-2.47738 z m -2.53498,-0.0144 c -0.355095,0.0632 0.251449,-0.0148 0,0 z" /><path
     id="path29436"
     style="fill:none;fill-opacity:1;fill-rule:evenodd;stroke:#b36725;stroke-width:2.86843;stroke-dasharray:none;stroke-opacity:1"
     d="M 117.84554,71.251415 C 102.66935,71.080637 86.644961,61.739639 72.32981,70.055465 46.596047,85.00448 30.402742,120.03775 36.453713,150.91517 c 4.133118,24.48466 22.026701,45.05025 44.296625,55.27231 3.008576,1.38096 5.321969,-0.47904 6.310403,-3.62233 0.952469,-19.35765 17.634449,-20.44773 30.407169,-12.70818 2.67407,0.90383 3.18477,0.2844 2.58336,-2.45863 -1.57719,-7.19369 6.60667,-13.05197 12.85914,-15.48686 5.42256,-2.11171 16.8859,3.89369 17.29858,2.35163 0.53525,-1.99996 -6.34262,-28.45677 6.81627,-39.45368 9.13459,-7.63379 22.20872,-4.77448 35.42907,-1.50479 2.66013,0.65791 6.30551,-2.46604 5.58621,-6.03128 -5.3195,-26.36662 -26.17551,-46.994666 -51.12879,-56.131359 -8.1665,-2.990178 -19.37802,0.218436 -29.06621,0.109414 z"
     sodipodi:nodetypes="ascccccasssssa" /><g
     id="g34558"
     transform="matrix(0.79577491,-0.1895518,0.18659755,0.75480512,-48.579088,18.660903)"><path
       id="path31493"
       transform="translate(53.954014,96.595089)"
       inkscape:transform-center-x="1.9515749"
       inkscape:transform-center-y="-7.2102628"
       d="M 80.929787,299.3579 52.888138,287.81255 a 32.539832,32.539832 176.19443 0 0 -28.652997,1.90593 L -2.0302825,304.8762 a 8.4417043,8.4417043 32.194428 0 1 -12.6365405,-7.95594 l 2.314929,-30.2369 a 32.539832,32.539832 68.194428 0 0 -10.666909,-26.66165 l -22.53231,-20.29591 a 8.4417043,8.4417043 104.19443 0 1 3.661641,-14.47659 l 29.472353,-7.14208 A 32.539832,32.539832 140.19443 0 0 9.6433662,179.72339 L 21.983057,152.02211 a 8.4417043,8.4417043 176.19443 0 1 14.899559,-0.99109 l 15.899987,25.82285 a 32.539832,32.539832 32.194428 0 0 24.301039,15.29988 l 30.158658,3.17558 a 8.4417043,8.4417043 68.194428 0 1 5.54679,13.86406 l -19.645618,23.10148 a 32.539832,32.539832 104.19443 0 0 -7.041618,27.83959 l 6.299385,29.66389 a 8.4417043,8.4417043 140.19443 0 1 -11.471452,9.55955 z"
       style="fill:#e09536;fill-opacity:1;stroke:none;stroke-width:6.853;stroke-linejoin:round;stroke-dasharray:none;stroke-opacity:0.6;paint-order:markers fill stroke;stop-color:#000000" /><path
       id="path34135"
       style="fill:#e3bd5f;fill-opacity:1;stroke:none;stroke-width:6.29785;stroke-linejoin:round;stroke-dasharray:none;stroke-opacity:0.6;paint-order:markers fill stroke;stop-color:#000000"
       inkscape:transform-center-x="1.7537952"
       inkscape:transform-center-y="-6.776147"
       d="m 84.9375,243.71484 c -3.301935,-0.43555 -6.489761,1.43042 -7.861328,4.60157 l -11.087891,26.0332 c -2.223452,5.05638 -5.724208,9.38235 -10.125,12.51172 -4.031099,3.78931 -8.961791,6.48825 -14.326172,7.84179 l -25.626953,6.20899 c -2.715745,3.20833 -2.504761,8.09209 0.476563,11.03125 l 20.25,19.07422 c 6.736475,6.34666 10.276671,15.60225 9.583984,25.05664 l -2.080078,28.41601 c -0.466191,6.36147 6.07413,10.66695 11.357422,7.47657 l 23.603515,-14.24414 c 7.852748,-4.73984 17.363703,-5.40214 25.748048,-1.79297 l 25.19922,10.85156 c 2.25059,0.96896 4.54815,0.72772 6.41638,-0.30862 2.81393,-1.56095 4.65385,-4.92569 3.89221,-8.67575 l -5.66015,-27.87891 c -1.88304,-9.27507 0.45447,-18.93895 6.32812,-26.16211 l 17.6543,-21.71094 c 2.44095,-3.01392 2.39016,-7.44655 -0.11914,-10.39844 l -27.52344,-2.89843 c -6.22513,-0.73113 -12.10663,-3.2446 -16.9375,-7.23828 -0.0706,-0.0557 -0.14087,-0.11165 -0.21094,-0.16797 -0.97052,-0.7262 -1.8997,-1.50606 -2.7832,-2.33594 -2.48539,-2.07376 -4.63073,-4.55753 -6.35156,-7.35352 L 90.466797,247.38477 c -0.567545,-0.9522 -1.321774,-1.76768 -2.212891,-2.39258 -1.002303,-0.65629 -2.132821,-1.09172 -3.316406,-1.27735 z"
       sodipodi:nodetypes="ccccccccccccccsccccccccccccc" /><path
       id="path33300"
       inkscape:transform-center-x="1.4183134"
       inkscape:transform-center-y="-5.2401038"
       d="m 122.38298,374.53726 -20.37945,-8.39065 a 23.648527,23.648527 0 0 0 -20.823743,1.38514 l -19.088562,11.01597 a 6.1350616,6.1350616 0 0 1 -9.183685,-5.78203 l 1.682389,-21.97486 A 23.648527,23.648527 0 0 0 46.837686,331.41431 L 30.462188,316.66413 a 6.1350616,6.1350616 0 0 1 2.661121,-10.52095 l 21.419218,-5.19055 a 23.648527,23.648527 0 0 0 16.032596,-13.3605 l 8.967948,-20.13208 a 6.1350616,6.1350616 0 0 1 10.828348,-0.72028 l 11.555411,18.76692 a 23.648527,23.648527 0 0 0 17.66094,11.11928 l 21.91799,2.30787 a 6.1350616,6.1350616 0 0 1 4.03117,10.0758 l -14.27758,16.78914 a 23.648527,23.648527 0 0 0 -5.11754,20.2326 l 4.57812,21.55842 a 6.1350616,6.1350616 0 0 1 -8.33695,6.94746 z"
       style="fill:#ba0200;fill-opacity:1;stroke:none;stroke-width:4.98046;stroke-linejoin:round;stroke-dasharray:none;stroke-opacity:0.6;paint-order:markers fill stroke;stop-color:#000000" /><path
       id="path33509"
       style="fill:#ff4224;fill-opacity:1;stroke:none;stroke-width:4.72492;stroke-linejoin:round;stroke-dasharray:none;stroke-opacity:0.6;paint-order:markers fill stroke;stop-color:#000000"
       inkscape:transform-center-x="1.332991"
       inkscape:transform-center-y="-5.0180475"
       d="m 86.068359,263.89019 c -6.048872,-0.59142 -8.183523,5.73183 -10.201053,9.73236 -4.298941,9.30273 -5.972017,19.8986 -15.770682,25.15963 -7.589555,3.29314 -15.856235,4.43675 -23.803747,6.59356 -5.297891,-0.24972 -5.036031,7.04917 -1.147771,9.3753 5.540161,5.26453 11.485588,10.1322 16.696704,15.71953 4.863259,5.72537 5.369881,13.46039 4.474207,20.58539 l -1.230079,16.36158 c -0.08426,8.00014 7.78888,3.54119 12.013274,0.0305 6.67467,-3.65914 12.89285,-10.91443 20.2263,-13.22531 9.668146,-2.0837 17.577658,5.59486 26.192368,8.8102 3.9588,1.42849 9.7294,8.63432 13.39237,4.5276 2.83821,-3.89826 -1.21109,-9.64559 -1.7162,-13.88549 -1.50899,-8.77678 -4.85416,-17.19177 -1.11641,-26.02018 3.85014,-7.32888 11.00507,-12.45345 16.07834,-18.90956 2.64156,-2.40785 5.2988,-7.69434 1.34988,-9.81214 l -21.91797,-2.30664 c -10.3151,-0.49851 -16.65009,-8.85787 -21.270459,-16.98214 -2.648779,-4.30153 -5.297558,-8.60305 -7.946337,-12.90458 l -1.83716,-1.89924 z"
       sodipodi:nodetypes="ccccccccccccccccccccc" /></g><path
     style="fill:#bd7637;fill-opacity:0.352941;stroke:none;stroke-width:6.80338;stroke-linejoin:round;stroke-dasharray:none;stroke-opacity:0.6;paint-order:markers fill stroke;stop-color:#000000"
     d="m 172.33594,123.23565 c 0.5509,4.20665 6.37517,6.47827 10.64219,6.88835 4.63268,0.44524 12.04412,-0.58099 13.195,-5.10008 1.03946,-4.08156 -6.07043,-6.99264 -8.43422,-9.07102 -15.29034,-13.44429 -16.82985,-3.61257 -15.40297,7.28275 z"
     id="path31391"
     sodipodi:nodetypes="saass" /><path
     style="fill:#bd7637;fill-opacity:0.352941;stroke:none;stroke-width:7.7574;stroke-linejoin:round;stroke-dasharray:none;stroke-opacity:0.6;paint-order:markers fill stroke;stop-color:#000000"
     d="m 93.165504,165.61565 c 1.017939,3.55536 10.131196,5.69117 16.758836,6.20235 7.19558,0.555 18.63929,-0.0176 20.24601,-3.76892 1.45118,-3.38813 -9.6791,-6.11136 -13.4229,-7.94966 -24.21709,-11.89127 -26.218464,-3.6922 -23.581946,5.51623 z"
     id="path31387"
     sodipodi:nodetypes="saass" /><path
     class="cls-7"
     d="m 80.605106,214.41045 c 5.125741,1.59901 10.330957,6.00384 12.203362,11.54594 a 7.1088901,3.5977625 47.539057 0 1 -3.785449,3.69932 c -6.864711,-2.68572 -12.473668,-4.28598 -14.792627,-9.45905 -2.59007,-5.82578 1.236531,-7.38913 6.374691,-5.78625 z"
     id="path26561-9"
     style="fill:#ffdacc;fill-opacity:1;stroke-width:0.861548" /><ellipse
     style="fill:#ffdacc;fill-opacity:1;fill-rule:evenodd;stroke-width:0.922591"
     id="path34789"
     cx="75.393303"
     cy="239.91074"
     rx="2.7812002"
     ry="2.5494335"
     transform="rotate(-3.3002556)" /><path
     id="path37017"
     style="fill:#8bbcc4;fill-opacity:1;stroke:none;stroke-width:10.0837;stroke-linejoin:round;stroke-dasharray:none;stroke-opacity:0.6;paint-order:markers fill stroke;stop-color:#000000"
     d="m 190.58869,143.84171 c -2.20832,-0.0523 -4.37834,0.32363 -6.56471,0.51518 -2.13488,0.1549 -4.43571,0.6528 -5.57192,2.46039 -1.03923,1.45914 -2.07843,2.91889 -3.11763,4.37802 l -0.68793,1.32634 -0.27531,1.44417 c -0.20038,2.01177 1.19877,3.65323 2.69059,5.00141 1.59188,1.57888 3.35938,3.25754 5.91311,3.39123 2.43246,0.24994 4.55364,-0.83242 6.7586,-1.50276 2.54358,-0.92335 5.33628,-1.47285 7.32102,-3.29282 2.05491,-1.70592 2.56859,-4.20193 2.79929,-6.58229 0.13805,-1.2321 -0.64405,-2.31849 -1.56993,-3.16971 -1.91601,-2.11321 -4.5474,-3.84865 -7.69518,-3.96916 z m -26.34232,21.88757 c -1.40589,-0.0506 -2.87465,1.27733 -3.53741,2.58479 -0.80615,1.59029 -1.33792,4.48407 0.14602,5.38409 2.21688,1.34454 6.28823,-1.14632 6.82465,-3.77266 0.3548,-1.73727 -1.47807,-3.87672 -3.15328,-4.16605 -0.0929,-0.016 -0.18627,-0.0267 -0.27998,-0.0302 z m 17.32639,6.5224 c -1.85431,-0.0805 -4.2419,1.14068 -5.86742,2.42514 -1.64537,1.30014 -3.60056,3.38841 -3.08422,4.75416 1.00537,2.65922 10.2282,1.90872 10.2282,1.90872 0,0 2.07131,-4.41164 1.64021,-6.27793 -0.29202,-1.26423 -1.12526,-2.65116 -2.73943,-2.79826 -0.0586,-0.005 -0.11752,-0.009 -0.17735,-0.0117 z"
     sodipodi:nodetypes="cccccccccccccssssssscsscsccc" /><path
     id="path36803"
     style="fill:#ce8e55;fill-opacity:1;stroke:none;stroke-width:9.76944;stroke-linejoin:round;stroke-dasharray:none;stroke-opacity:0.6;paint-order:markers fill stroke;stop-color:#000000"
     d="m 188.91149,141.80068 c -2.07305,-0.045 -4.11158,0.33827 -6.16484,0.53713 -2.00479,0.16205 -4.16655,0.66758 -5.23934,2.47865 -0.98054,1.46236 -1.96107,2.92533 -2.94161,4.38768 l -0.65028,1.3284 -0.26332,1.44484 c -0.19499,2.01207 1.11314,3.64854 2.50918,4.99145 1.48921,1.57325 3.14295,3.24566 5.54,3.37075 2.28282,0.24172 4.27786,-0.84756 6.35019,-1.52518 2.39108,-0.93173 5.01477,-1.4905 6.88422,-3.3168 1.93492,-1.71251 2.42555,-4.20978 2.65013,-6.59048 0.13365,-1.23236 -0.59685,-2.3159 -1.46324,-3.16387 -1.7917,-2.10637 -4.25629,-3.83265 -7.21109,-3.94257 z m -24.80435,21.97199 c -1.31969,-0.046 -2.70308,1.28676 -3.32969,2.5962 -0.76215,1.59271 -1.27111,4.48774 0.11902,5.38261 2.07674,1.33684 5.90741,-1.16722 6.41981,-3.79488 0.33895,-1.73813 -1.37462,-3.87105 -2.94638,-4.1547 -0.0872,-0.0157 -0.17479,-0.0261 -0.26276,-0.0293 z m 17.03163,6.45101 c -1.74059,-0.0742 -3.98623,1.15473 -5.51662,2.4444 -1.54907,1.30543 -3.39167,3.39989 -2.9115,4.76365 0.93494,2.65536 9.59608,1.87402 9.59608,1.87402 0,0 1.95941,-4.41779 1.56095,-6.28228 -0.26991,-1.26303 -1.04752,-2.64691 -2.56244,-2.78854 -0.0551,-0.005 -0.1103,-0.009 -0.16647,-0.0111 z"
     sodipodi:nodetypes="ccccccccccccccsssscccsscsccc" /><path
     id="path36943"
     style="fill:#bd7637;fill-opacity:1;stroke:none;stroke-width:8.3577;stroke-linejoin:round;stroke-dasharray:none;stroke-opacity:0.6;paint-order:markers fill stroke;stop-color:#000000"
     d="m 197.57488,148.29742 c -4.23566,3.25192 -12.05235,8.53208 -17.27342,7.72282 -2.28013,-0.35343 -4.8026,-3.25362 -6.39843,-5.41646 l -0.25093,1.3736 c -0.19489,2.01207 1.11314,3.64854 2.50918,4.99145 1.48921,1.57325 3.14295,3.24566 5.54,3.37075 2.28282,0.24172 4.27786,-0.84756 6.35019,-1.52518 2.39107,-0.93173 5.01477,-1.4905 6.88422,-3.3168 1.93492,-1.71251 2.42555,-4.20978 2.65013,-6.59048 0.0225,-0.20836 0.0125,-0.41026 -0.0109,-0.60969 z m -30.314,19.85916 c -2.21868,1.61488 -4.67069,2.01932 -7.1951,2.04561 0.0902,0.66769 0.34076,1.23391 0.83069,1.54929 2.0237,1.3027 5.70315,-1.04286 6.36441,-3.5949 z m 6.5324,6.62493 c -0.70157,0.93623 -1.14465,1.90277 -0.88149,2.65022 0.93494,2.65536 9.59608,1.87402 9.59608,1.87402 0,0 0.62882,-1.43584 1.10228,-3.01245 -2.49428,2.61416 -5.91595,1.74545 -9.81687,-1.51179 z"
     sodipodi:nodetypes="csccccccccccsccscccs" /></svg>
