<?xml version="1.0" encoding="UTF-8" standalone="no"?>
<svg id="Layer_1" data-name="Layer 1" viewBox="0 0 300 345" version="1.1" sodipodi:docname="crocodile_5.svg" xml:space="preserve" inkscape:version="1.2 (dc2aedaf03, 2022-05-15)" xmlns:inkscape="http://www.inkscape.org/namespaces/inkscape" xmlns:sodipodi="http://sodipodi.sourceforge.net/DTD/sodipodi-0.dtd" xmlns="http://www.w3.org/2000/svg" xmlns:svg="http://www.w3.org/2000/svg"><sodipodi:namedview id="namedview65" pagecolor="#505050" bordercolor="#ffffff" borderopacity="1" inkscape:showpageshadow="0" inkscape:pageopacity="0" inkscape:pagecheckerboard="1" inkscape:deskcolor="#505050" showgrid="false" inkscape:zoom="0.65175812" inkscape:cx="122.74492" inkscape:cy="230.14673" inkscape:window-width="1366" inkscape:window-height="705" inkscape:window-x="-8" inkscape:window-y="-8" inkscape:window-maximized="1" inkscape:current-layer="Layer_1"/><defs id="defs15"><style id="style2">.cls-1{fill:url(#linear-gradient);}.cls-2{fill:#9bd4ee;}.cls-15,.cls-3,.cls-9{fill:none;}.cls-3{stroke:#90b83e;stroke-width:19px;}.cls-12,.cls-14,.cls-15,.cls-3,.cls-9{stroke-miterlimit:10;}.cls-4{fill:#559441;}.cls-5{fill:url(#linear-gradient-2);}.cls-6{fill:url(#linear-gradient-3);}.cls-7{fill:#90b83e;}.cls-8{fill:#789b3e;}.cls-12,.cls-15,.cls-9{stroke:#587635;}.cls-12,.cls-14,.cls-15,.cls-9{stroke-linecap:round;}.cls-9{stroke-width:12px;}.cls-10,.cls-12{fill:#a7d054;}.cls-11{fill:#8faf3f;}.cls-12{stroke-width:4px;}.cls-13,.cls-14{fill:#e32b59;}.cls-14{stroke:#b71e48;}.cls-14,.cls-15{stroke-width:3px;}.cls-16{fill:#2f2c38;}.cls-17{fill:#e573ac;}</style><linearGradient id="linear-gradient" x1="150" y1="356.11" x2="150" y2="161.16" gradientUnits="userSpaceOnUse"><stop offset="0.07" stop-color="#416eb5" id="stop4" style="stop-color:#69aee3;stop-opacity:1;"/><stop offset="0.54000002" stop-color="#032657" id="stop6" style="stop-color:#1766c9;stop-opacity:1;"/></linearGradient></defs><path class="cls-1" d="M 263.62,345 H 36.38 A 36.38,36.38 0 0 1 0,308.62 v -49.48 h 300 v 49.48 A 36.38,36.38 0 0 1 263.62,345 Z" id="path17" style="fill:url(#linear-gradient)"/><path id="rect19" class="cls-2" style="fill:#7bbae6;fill-opacity:1" d="M 36.380001,65.912653 H 263.62 c 20.15452,0 36.38,16.22548 36.38,36.379997 V 262.01 c 0,20.15452 -16.22548,36.38 -36.38,36.38 H 36.380001 C 16.22548,298.39 0,282.16452 0,262.01 V 102.29265 C 0,82.138133 16.22548,65.912653 36.380001,65.912653 Z" sodipodi:nodetypes="sssssssss"/><path id="path25156" style="opacity:1;fill:#b0d6f0;fill-opacity:1;stroke-width:6.9146;stroke-linejoin:round;stop-color:#000000" d="M 51.119141,148.91797 C 53.308472,178.56317 18.594495,190.09822 0,181.11133 v 1.41015 c 21.618337,14.13881 68.707378,-0.72454 51.119141,-33.60351 z" sodipodi:insensitive="true"/><path id="rect25351" style="opacity:1;fill:#679b4f;stroke-width:1.95651;stroke-linecap:round;stroke-linejoin:round;stop-color:#000000" d="m 250.36719,225.11719 10.4375,27.09961 -1.88477,9.95703 c -1.55962,-11.91819 -15.27825,-19.88497 -19.86719,-27.53321 l -24.58398,-8.8125 8.99219,25.08204 -0.0371,0.21093 c -5.75087,-7.30583 -15.72623,-12.02471 -20.16797,-17.38867 l -25.62891,-5.00781 12.66797,23.43945 -0.0996,4.2461 c -6.5686,-7.81305 -18.9715,-11.01502 -24.78711,-16.09375 l -26.10156,-0.82813 16.26563,21.10352 2.7207,19.55664 31.58789,-10.20703 -0.0449,1.96289 30.75195,-4.68555 -0.55273,3.13477 h 37.33593 l -0.54297,2.87304 41.86511,-3.81532 C 305.15482,251.37015 285.36588,244.6615 278.9043,234.63867 Z M 20.167969,243.63672 13.072266,258.25 l -9.931641,6.79883 16.216797,16.57226 c 9.648718,-4.69485 5.784551,-17.13495 7.453125,-23.51562 z m 88.267581,3.25976 13.30273,17.25782 2.22461,15.99414 29.59766,-9.56446 c 0.13295,-14.3939 -17.11534,-17.1921 -23.7793,-23.01171 z m -12.416019,8.17188 -21.238281,2.25391 15.542969,15.27343 4.392578,15.53907 28.009763,-13.5293 C 120.8863,260.32906 103.41794,259.92014 96.019531,255.06836 Z m -66.130859,4.35937 2.080078,16.10938 -4.576172,11.13281 22.650391,4.96289 c 5.493232,-9.21758 -4.56179,-17.49945 -6.666016,-23.75 z m 38.058594,5.56836 -19.011719,2.01758 13.914062,13.67188 3.931641,13.91015 25.074219,-12.10937 c -1.647368,-12.77999 -17.285275,-13.147 -23.908203,-17.49024 z" sodipodi:nodetypes="cccccccccccccccccccccccccccccccccccccccccccccccccccccc" sodipodi:insensitive="true"/><path id="path25372" style="opacity:1;fill:#679b4f;stroke-width:0.710141;stroke-linecap:round;stroke-linejoin:round;stop-color:#000000" inkscape:transform-center-x="-1.1993297" inkscape:transform-center-y="1.0816252" d="m 23.125,139.13672 5.890625,10.13086 c 3.840027,2.54106 9.403612,10.47698 14.503906,8.81836 L 39.097656,142.875 32.802734,143.58398 Z M 1.0429688,149.35547 0,150.77539 v 21.11328 l 2.6679688,-1.79883 c -0.048459,0.93672 0.090134,1.92809 0.4765624,2.98047 l 15.4550778,-0.46679 -1.630859,-7.85938 3.345703,-10.30078 -9.880859,3.88086 c -0.7946617,1.41981 -2.3371545,2.89102 -3.839844,4.51758 l -2.8828125,-2.98828 z m 23.4589842,1.10742 -0.564453,8.08984 c 1.941872,2.74131 2.334913,9.36536 7.777344,9.86915 l 4.751953,-10.8125 -5.957031,-1.45704 z" sodipodi:insensitive="true"/><path id="rect1092" style="opacity:1;fill:#679b4f;fill-opacity:1;stroke-width:7.72914;stroke-linejoin:round;stop-color:#000000" d="M 0 206.82227 L 0 262.00977 C 0.05198443 263.95187 0.20523879 265.85742 0.48632812 267.71484 C 0.48751221 267.72267 0.48904579 267.73046 0.49023438 267.73828 C 0.62189016 268.60478 0.78916974 269.45789 0.97851562 270.30273 C 1.0468944 270.59767 1.1276597 270.88759 1.203125 271.17969 C 1.3702426 271.84339 1.5349029 272.50777 1.7421875 273.15625 C 1.7572485 273.20335 1.7777218 273.24785 1.7929688 273.29492 C 1.8105759 273.34924 1.8337081 273.40088 1.8515625 273.45508 C 1.887569 273.55298 1.9234089 273.65085 1.9570312 273.75 C 2.1992612 274.46444 2.4460277 275.1776 2.7304688 275.87109 C 2.7310228 275.87209 2.7318719 275.874 2.7324219 275.875 C 2.9573162 276.42278 3.2184796 276.95046 3.46875 277.48438 C 3.5927527 277.74874 3.7175316 278.01262 3.8476562 278.27344 C 3.8692146 278.31665 3.8884314 278.36119 3.9101562 278.4043 C 3.9656301 278.52281 4.0201057 278.64194 4.0800781 278.75781 C 4.0807476 278.75881 4.0813613 278.76072 4.0820312 278.76172 C 4.0824389 278.76251 4.0835767 278.76288 4.0839844 278.76367 C 4.3459666 279.26978 4.6272829 279.76421 4.9121094 280.25586 C 4.9142948 280.25963 4.915782 280.26381 4.9179688 280.26758 C 4.9198061 280.27149 4.9216436 280.27555 4.9238281 280.2793 C 5.1708373 280.70503 5.4258861 281.1246 5.6894531 281.53906 C 5.9865794 282.00672 6.287894 282.47111 6.6054688 282.92383 C 6.6268918 282.95434 6.6503605 282.98323 6.671875 283.01367 C 6.7387866 283.10362 6.8074534 283.19221 6.8730469 283.2832 C 7.0965091 283.58787 7.3205399 283.89212 7.5507812 284.19141 C 7.5533212 284.19441 7.5560538 284.19717 7.5585938 284.20117 C 7.877199 284.61601 8.1873198 285.03739 8.5234375 285.4375 C 9.1504408 286.18308 9.8040448 286.90526 10.488281 287.59766 C 10.795165 287.90854 11.125467 288.19448 11.443359 288.49414 C 11.517535 288.56398 11.595158 288.63 11.669922 288.69922 C 11.727724 288.75139 11.784305 288.80487 11.841797 288.85742 C 12.164055 289.15856 12.483904 289.46231 12.820312 289.74805 C 12.824912 289.75205 12.829414 289.75607 12.833984 289.75977 C 12.836077 289.76154 12.83775 289.76385 12.839844 289.76562 C 13.199095 290.07003 13.572538 290.3576 13.943359 290.64844 C 14.057224 290.73764 14.176058 290.82034 14.291016 290.9082 C 14.351306 290.95261 14.410917 290.99786 14.470703 291.04297 C 14.777993 291.2765 15.082555 291.51343 15.398438 291.73633 C 15.403037 291.73933 15.407539 291.74309 15.412109 291.74609 C 15.414466 291.74776 15.417565 291.74834 15.419922 291.75 C 15.788054 292.00977 16.158929 292.26554 16.537109 292.51172 C 17.094708 292.87425 17.667747 293.21467 18.246094 293.54688 C 18.587796 293.74336 18.922981 293.9509 19.271484 294.13672 C 19.272769 294.1374 19.274106 294.13799 19.275391 294.13867 C 19.276691 294.13936 19.277997 294.13963 19.279297 294.14062 C 20.208557 294.63439 21.157294 295.09637 22.132812 295.50977 C 22.289357 295.57617 22.453655 295.62713 22.611328 295.69141 C 23.456802 296.03568 24.317131 296.35155 25.193359 296.63281 C 25.54868 296.74697 25.911361 296.84392 26.271484 296.94727 C 26.272089 296.94744 26.272833 296.94709 26.273438 296.94727 C 26.274808 296.94765 26.275944 296.94852 26.277344 296.94922 C 26.981752 297.1513 27.692567 297.33592 28.414062 297.49609 C 28.807541 297.58359 29.203309 297.66558 29.601562 297.74023 C 29.603545 297.74061 29.605439 297.74182 29.607422 297.74219 C 30.360252 297.88298 31.123879 297.99393 31.892578 298.08789 C 32.250092 298.13159 32.604124 298.18539 32.964844 298.21875 C 34.090279 298.32274 35.22738 298.39062 36.380859 298.39062 L 263.61914 298.39062 C 264.82604 298.39062 266.01728 298.32462 267.19336 298.21094 C 267.56852 298.17458 267.93366 298.10797 268.30469 298.05859 C 268.31844 298.05684 268.33195 298.05451 268.3457 298.05273 C 269.1175 297.95323 269.88896 297.84988 270.64453 297.70312 C 271.12222 297.61013 271.58795 297.48642 272.05859 297.375 C 272.28107 297.32245 272.49894 297.25899 272.7207 297.20508 C 273.14204 297.09711 273.56917 297.00528 273.98438 296.88281 C 273.98834 296.88164 273.99213 296.88008 273.99609 296.87891 C 274.4883 296.73296 274.96998 296.56425 275.45312 296.39844 C 275.4545 296.39797 275.45566 296.39695 275.45703 296.39648 C 276.03614 296.19824 276.61239 295.99371 277.17773 295.76758 C 277.68288 295.565 278.1804 295.34743 278.67383 295.12305 C 278.67968 295.12039 278.68556 295.11789 278.69141 295.11523 C 279.19701 294.88568 279.69667 294.6462 280.18945 294.39453 C 280.724 294.12079 281.25093 293.83616 281.76953 293.53711 C 281.77001 293.53683 281.771 293.53739 281.77148 293.53711 C 282.18176 293.30115 282.58447 293.05405 282.98438 292.80273 C 282.98957 292.79946 282.9948 292.79625 283 292.79297 C 283.56587 292.43609 284.126 292.07048 284.66992 291.68359 C 284.96515 291.47422 285.2505 291.25304 285.53906 291.03516 C 286.1432 290.57761 286.74266 290.11465 287.31641 289.62109 C 287.32063 289.61747 287.32586 289.61495 287.33008 289.61133 C 287.51337 289.45387 287.68516 289.28408 287.86523 289.12305 C 288.5157 288.53956 289.15898 287.94704 289.76562 287.31836 C 291.04777 285.98966 292.23 284.56358 293.29883 283.05078 C 293.8015 282.33932 294.273 281.60567 294.72461 280.85742 C 294.77275 280.77791 294.82159 280.69906 294.86914 280.61914 C 297.22087 276.6541 298.84614 272.20028 299.55469 267.43945 C 287.17752 255.47789 266.17336 250.799 248.33789 245.72461 C 168.25748 222.94006 4.8865892 344.5985 0 206.82227 z "/><path id="rect27620" style="opacity:1;fill:#4f733f;fill-opacity:1;stroke:none;stroke-width:2.29387;stroke-linecap:round;stop-color:#000000" d="M 299.35314,266.11285 300,262.01 c -0.13142,4.47106 0.74811,8.60513 -0.44531,13.43019 l -3.31557,2.10326 z" sodipodi:nodetypes="ccccc"/><path id="path25380" style="opacity:1;fill:#518d40;fill-opacity:1" class="cls-1" d="m 0,260.00977 v 10 c 0,3.89371 0.61966149,7.63472 1.7421875,11.14648 0.015061,0.0471 0.035534,0.0916 0.050781,0.13867 0.054493,0.15179 0.1121335,0.30194 0.1640624,0.45508 0.24223,0.71444 0.4889965,1.4276 0.7734376,2.12109 5.54e-4,0.001 0.0014,0.003 0.00195,0.004 0.2248943,0.54778 0.4860577,1.07546 0.7363281,1.60938 0.1240027,0.26436 0.2487816,0.52824 0.3789062,0.78906 0.077553,0.16141 0.1502762,0.32566 0.2324219,0.48437 6.695e-4,10e-4 0.00128,0.003 0.00195,0.004 0.2623274,0.50693 0.5448085,1.00172 0.8300782,1.49414 0.00437,0.008 0.00735,0.0159 0.011719,0.0234 0.2470092,0.42573 0.502058,0.8453 0.765625,1.25976 0.2971263,0.46766 0.5984409,0.93205 0.9160157,1.38477 0.085916,0.12235 0.180196,0.23815 0.2675781,0.35937 0.2234622,0.30467 0.447493,0.60892 0.6777343,0.90821 0.00254,0.003 0.00527,0.006 0.00781,0.01 0.3186052,0.41484 0.628726,0.83622 0.9648437,1.23633 0.6270033,0.74558 1.2806073,1.46776 1.9648433,2.16016 0.306884,0.31088 0.637186,0.59682 0.955078,0.89648 0.130876,0.12323 0.265736,0.24199 0.398438,0.36328 0.322258,0.30114 0.642107,0.60489 0.978515,0.89063 0.0046,0.004 0.0091,0.008 0.01367,0.0117 0.361183,0.30637 0.736393,0.59614 1.109375,0.88867 0.172796,0.13536 0.352039,0.26225 0.527344,0.39453 0.30729,0.23353 0.611852,0.47046 0.927735,0.69336 0.0046,0.003 0.0091,0.007 0.01367,0.01 0.370444,0.2615 0.744399,0.51788 1.125,0.76563 0.557599,0.36253 1.130638,0.70295 1.708985,1.03516 0.342961,0.1972 0.67941,0.40545 1.029297,0.59179 0.0013,6.9e-4 0.0026,10e-4 0.0039,0.002 0.92926,0.49377 1.877997,0.95575 2.853515,1.36915 0.156545,0.0664 0.320843,0.11736 0.478516,0.18164 0.845474,0.34427 1.705803,0.66014 2.582031,0.9414 0.355321,0.11416 0.718002,0.21111 1.078125,0.31446 0.002,5.6e-4 0.0039,10e-4 0.0059,0.002 0.704408,0.20208 1.415223,0.3867 2.136718,0.54687 0.393479,0.0875 0.789247,0.16949 1.1875,0.24414 0.002,3.8e-4 0.0038,0.002 0.0059,0.002 0.75283,0.14079 1.516457,0.25174 2.285156,0.3457 0.357514,0.0437 0.711546,0.0975 1.072266,0.13086 1.125434,0.10399 2.262538,0.17187 3.416015,0.17187 H 263.61914 c 1.2069,0 2.39814,-0.066 3.57422,-0.17968 0.38902,-0.0377 0.76712,-0.10843 1.15234,-0.15821 0.7718,-0.0995 1.54326,-0.20285 2.29883,-0.34961 0.47769,-0.093 0.94342,-0.2167 1.41406,-0.32812 0.64692,-0.15281 1.29294,-0.30553 1.92579,-0.49219 0.49772,-0.14715 0.98424,-0.31874 1.47265,-0.48633 0.57911,-0.19824 1.15536,-0.40277 1.7207,-0.6289 0.51111,-0.20497 1.01453,-0.42515 1.51368,-0.65235 0.5056,-0.22955 1.00526,-0.46903 1.49804,-0.7207 0.53506,-0.274 1.06295,-0.55805 1.58203,-0.85742 0.41028,-0.23596 0.81299,-0.48306 1.2129,-0.73438 0.57116,-0.36 1.13662,-0.7287 1.68554,-1.11914 0.29523,-0.20937 0.58058,-0.43055 0.86914,-0.64843 0.6086,-0.46093 1.21343,-0.92615 1.79102,-1.42383 0.18329,-0.15746 0.35508,-0.32725 0.53515,-0.48828 0.65047,-0.58349 1.29375,-1.17601 1.90039,-1.80469 5.12858,-5.31481 8.6461,-12.19913 9.78907,-19.87891 -0.68976,-0.66659 -1.41496,-1.30309 -2.15625,-1.92578 -5.34453,13.42353 -18.40618,22.87695 -33.7793,22.87695 H 36.380859 C 16.22638,296.39062 0,280.16425 0,260.00977 Z"/><path d="m 246.05352,263.0517 a 16.522137,16.522137 0 0 0 -3.08482,4.72931 5.8468478,5.8468478 0 0 0 -0.42811,2.43162 3.953811,3.953811 0 0 0 0.80871,2.02269 7.0569536,7.0569536 0 0 0 1.83805,1.55497 6.2302476,6.2302476 0 0 0 2.10661,0.87143 5.4155229,5.4155229 0 0 0 2.13951,0.01 6.9371411,6.9371411 0 0 0 1.07078,-0.30655 6.6256287,6.6256287 0 0 0 0.90925,-0.43953 l 7.43141,-4.64233 -4.92347,7.08468 a 5.0081606,5.0081606 0 0 0 -0.53456,1.00659 6.8053474,6.8053474 0 0 0 -0.38454,1.13633 4.5169295,4.5169295 0 0 0 0.006,2.21846 5.0920293,5.0920293 0 0 0 1.11649,2.03527 7.0689348,7.0689348 0 0 0 2.03399,1.61053 4.8643856,4.8643856 0 0 0 2.42198,0.5499 7.6200721,7.6200721 0 0 0 2.678,-0.66021 16.989406,16.989406 0 0 0 4.86454,-3.53961 13.718526,13.718526 0 0 1 -4.13461,4.83011 8.1831906,8.1831906 0 0 1 -3.14236,1.37537 6.9611036,6.9611036 0 0 1 -3.66067,-0.26607 11.442089,11.442089 0 0 1 -3.09428,-1.82406 7.3085597,7.3085597 0 0 1 -2.20479,-3.11606 7.3924284,7.3924284 0 0 1 -0.31369,-3.89982 9.0937653,9.0937653 0 0 1 0.51651,-1.82121 8.7223467,8.7223467 0 0 1 0.90016,-1.72486 l 2.43414,2.57087 a 7.5242221,7.5242221 0 0 1 -1.68688,0.85414 9.0338591,9.0338591 0 0 1 -1.73539,0.45431 7.9914907,7.9914907 0 0 1 -3.66395,-0.25455 8.6025342,8.6025342 0 0 1 -3.08085,-1.69571 11.490014,11.490014 0 0 1 -2.17745,-2.5977 5.6551478,5.6551478 0 0 1 -0.75723,-3.47766 6.7574224,6.7574224 0 0 1 1.15586,-3.10943 12.688139,12.688139 0 0 1 4.57569,-3.97022 z" fill="#518d40" id="path3084" style="stroke-width:1.19812"/><path d="m 102.64411,284.73429 a 5.9451713,5.9451713 0 0 1 -1.69391,1.09992 5.2845967,5.2845967 0 0 1 -2.053348,0.47313 3.302873,3.302873 0 0 1 -2.300216,-0.79665 3.3623247,3.3623247 0 0 1 -0.801256,-1.06333 3.0914891,3.0914891 0 0 1 -0.321431,-1.28025 3.9634476,3.9634476 0 0 1 0.698492,-2.29705 7.2663208,7.2663208 0 0 1 1.406441,-1.5481 9.6972349,9.6972349 0 0 1 3.536718,-1.85656 c -0.861,1.00989 -1.683195,1.92696 -2.393881,2.88308 -0.710679,0.95614 -1.291583,1.97965 -1.218659,2.70953 a 1.7835514,1.7835514 0 0 0 0.442259,1.0158 2.0874157,2.0874157 0 0 0 1.13088,0.58723 13.766375,13.766375 0 0 0 3.567911,0.0732 z" fill="#518d40" id="path27610" style="stroke-width:0.660575"/><path d="m 249.80455,285.35546 a 7.8158686,7.8158686 0 0 1 -1.89838,1.8564 6.9474387,6.9474387 0 0 1 -2.52402,1.14162 4.3421493,4.3421493 0 0 1 -3.17106,-0.43104 4.4203079,4.4203079 0 0 1 -1.30814,-1.163 4.0642517,4.0642517 0 0 1 -0.74588,-1.56685 5.2105791,5.2105791 0 0 1 0.30535,-3.14155 9.5527286,9.5527286 0 0 1 1.41179,-2.35962 12.74855,12.74855 0 0 1 4.0776,-3.30891 c -0.84817,1.52464 -1.67037,2.91959 -2.33873,4.336 -0.66835,1.41642 -1.15199,2.88607 -0.86896,3.80792 a 2.3447606,2.3447606 0 0 0 0.83312,1.19472 2.7442383,2.7442383 0 0 0 1.60967,0.46397 18.098078,18.098078 0 0 0 4.61764,-0.82966 z" fill="#518d40" id="path27612" style="stroke-width:0.868431"/><path d="m 107.1224,278.14635 a 9.4439463,9.4439463 0 0 0 -2.71329,1.71206 8.3946188,8.3946188 0 0 0 -2.04814,2.64746 5.2466369,5.2466369 0 0 0 -0.38059,3.84808 5.3410762,5.3410762 0 0 0 1.00106,1.86306 4.910852,4.910852 0 0 0 1.63308,1.31516 6.2959642,6.2959642 0 0 0 3.77821,0.52007 11.542601,11.542601 0 0 0 3.16866,-0.99928 15.404126,15.404126 0 0 0 5.03041,-3.86726 c -2.02949,0.5704 -3.89924,1.14657 -5.75118,1.53589 -1.85195,0.3893 -3.71479,0.54662 -4.71921,-0.044 a 2.8331839,2.8331839 0 0 1 -1.17124,-1.31359 3.3158744,3.3158744 0 0 1 -0.095,-2.02192 21.867982,21.867982 0 0 1 2.26723,-5.19572 z" fill="#518d40" id="path27614" style="stroke-width:1.04933"/><path d="m 194.50798,269.4404 a 7.8158686,7.8158686 0 0 1 -2.59356,0.56877 6.9474387,6.9474387 0 0 1 -2.74552,-0.3689 4.3421493,4.3421493 0 0 1 -2.46115,-2.04553 4.4203079,4.4203079 0 0 1 -0.49336,-1.67941 4.0642517,4.0642517 0 0 1 0.19747,-1.72405 5.2105791,5.2105791 0 0 1 1.92329,-2.5027 9.5527286,9.5527286 0 0 1 2.44746,-1.25336 12.74855,12.74855 0 0 1 5.21135,-0.64621 c -1.52708,0.84377 -2.96343,1.5913 -4.28067,2.43853 -1.31724,0.84725 -2.50601,1.8375 -2.75434,2.7693 a 2.3447606,2.3447606 0 0 0 0.0737,1.45465 2.7442383,2.7442383 0 0 0 1.11943,1.24627 18.098078,18.098078 0 0 0 4.35593,1.74264 z" fill="#518d40" id="path27616" style="stroke-width:0.868431"/><path id="path28041" style="opacity:1;fill:#679b4f;stroke-width:0.939964;stroke-linecap:round;stroke-linejoin:round;stop-color:#000000" inkscape:transform-center-x="-3.4638301" inkscape:transform-center-y="6.2862644" d="M 9.53125,226.74219 1.8964844,238.87695 0,239.89062 v 13.5254 l 5.1523438,6.57226 C 14.070663,256.8017 11.88067,245.51463 13.960938,240.07812 Z" sodipodi:insensitive="true"/><path id="rect1884" style="opacity:1;fill:#679b4f;fill-opacity:1;stroke-width:6.9146;stroke-linejoin:round;stop-color:#000000" d="m 28.152344,127.15625 c -5.294852,3.08587 20.273406,22.64591 2.802734,33.60352 C 22.210057,166.24465 10.511755,166.03801 0,161.50391 v 29.64062 c 18.911149,0.23942 61.473495,-22.39042 50.904297,-40.50781 -4.488248,-7.69362 -20.69749,-23.40077 -22.751953,-23.48047 z" sodipodi:insensitive="true"/><path id="path28375" style="color:#000000;fill:#679b4f;stroke-width:1.715;stroke-linejoin:round" d="m 28.152344,127.15625 c -5.294852,3.08587 20.273406,22.64591 2.802734,33.60352 C 22.210057,166.24465 10.511755,166.03801 0,161.50391 v 29.64062 c 18.911149,0.23942 61.473495,-22.39042 50.904297,-40.50781 -4.488248,-7.69362 -20.69749,-23.40077 -22.751953,-23.48047 z" sodipodi:insensitive="true"/><path id="path4989" style="fill:#4f733f;fill-opacity:1;fill-rule:evenodd;stroke-width:0.701277" d="m 222.75324,72.451566 c -8.4895,10.170406 -20.6439,9.898664 -33.54644,7.628338 -12.90255,-2.270326 -21.50099,-14.687897 -19.20515,-27.735419 2.29583,-13.047521 11.76767,-22.626702 24.85383,-23.245231 19.33807,-0.914034 40.38598,28.391428 27.89776,43.352312 z" sodipodi:nodetypes="sssss"/><path id="rect13364" style="fill:#2f382c;fill-opacity:1;stroke-width:0.361912;stroke-linejoin:round;stop-color:#000000" d="m 174.59104,77.151611 104.51238,-1.050863 -6.68101,92.977222 -106.23828,18.00391 c 17.27976,-31.70166 41.40014,-60.12083 8.40691,-109.930269 z" sodipodi:nodetypes="ccccc"/><path id="rect16773" style="fill:#76241b;fill-opacity:1;stroke-width:0.361063;stroke-linejoin:round;stop-color:#000000" d="m 151.10891,168.4439 c -23.26912,14.10129 -88.002898,9.86889 -95.76647,32.58457 -2.821083,8.25429 6.316042,8.44049 14.45446,21.78528 27.982806,2.28269 54.84783,-2.55075 81.31201,-9.93138 z" sodipodi:nodetypes="csccc"/><path id="rect17382" style="fill:#2f382c;fill-opacity:1;stroke-width:0.361912;stroke-linejoin:round;stop-color:#000000" d="m 135.41309,174.44512 c -28.69161,7.43822 -73.679852,7.88239 -80.071263,26.58323 -2.207532,6.45909 2.912695,8.00285 9.141459,14.75215 -4.087623,-13.13217 9.559038,-30.35848 46.594144,-23.64494 z" sodipodi:nodetypes="csccc"/><path id="rect17181" style="fill:#4f733f;fill-opacity:1;stroke-width:0.361912;stroke-linejoin:round;stop-color:#000000" d="m 53.193323,200.60808 c 3.969151,-13.75183 30.470357,-17.46644 49.989057,-20.51745 l 10.08519,4.999 c -22.011783,-3.60015 -54.072243,3.24397 -55.136465,22.80994 z" sodipodi:nodetypes="ccccc"/><path d="m 63.477381,187.92476 c -0.470377,0.0598 -0.911088,0.56178 -1.188651,1.35365 l -5.725814,16.11741 c -0.717831,1.98869 -0.07056,4.65879 1.121276,4.62543 7.710373,9.20003 9.838171,6.2199 10.474153,-0.0151 1.143394,-0.10834 1.863289,-2.66724 1.291334,-4.59013 L 64.770826,189.3056 c -0.247576,-0.85232 -0.701287,-1.36908 -1.204074,-1.37137 z" fill="#e2c2a6" id="path17802" style="fill:#f7ddc8;fill-opacity:1;stroke-width:1.40556" sodipodi:nodetypes="ccccccccc"/><path id="path1544" style="fill:#679b4f;fill-opacity:0.95098037;fill-rule:evenodd;stroke:#679a4f;stroke-opacity:1;stroke-width:0.8;stroke-dasharray:none" d="M 273.84961 67.386719 C 264.79839 67.993346 258.45898 75.3822 258.45898 84.414062 C 258.45898 93.842934 266.31508 101.48633 276.00586 101.48633 C 282.3731 101.48633 293.26982 103.50938 299.99609 102.22266 C 299.96467 85.657907 288.96602 71.782612 273.84961 67.386719 z "/><ellipse style="fill:#141813;fill-opacity:1;fill-rule:evenodd;stroke-width:0.95715" id="path17186" cx="240.10808" cy="137.07237" rx="35.364178" ry="35.364182"/><path id="rect13419" style="fill:#b43e32;fill-opacity:1;stroke-width:0.361912;stroke-linejoin:round;stop-color:#000000" d="m 163.02302,137.87929 c -27.08682,0.86674 -49.52661,18.99893 -61.47733,34.29682 -7.973042,8.02643 -13.743736,21.97943 -5.062928,28.69186 8.244298,6.37488 47.651578,-2.45458 50.996418,-15.18025 0.29513,-1.12284 1.49058,-1.67309 2.04283,-2.54469 l 94.50533,-0.70332 1.67172,-23.93956 c -21.96049,11.97856 -35.53314,-7.47824 -52.28992,-14.08947 -9.6371,-3.80223 -20.75441,-6.83959 -30.38612,-6.53139 z" sodipodi:nodetypes="scsscccss"/><path id="rect18078" style="fill:#9b352b;fill-opacity:1;stroke-width:0.361912;stroke-linejoin:round;stop-color:#000000" d="m 214.95067,156.97863 c 4.42907,7.84246 5.09361,16.246 -1.21226,25.68727 l 30.28893,-0.22619 1.67172,-23.93956 c -12.16971,6.63809 -21.7611,3.61202 -30.74839,-1.52152 z"/><path id="path25013" style="fill:#b0d6f0;fill-opacity:1;stroke-width:0.466361;stroke-linejoin:round;stop-color:#000000" d="m 300,169.26032 c -18.72652,10.38261 -41.07097,11.18768 -60.74396,3.46537 -0.87698,1.47931 -1.85315,2.97821 -2.97587,4.50446 19.83319,12.08899 44.86365,13.98383 63.71983,-3.49365 z"/><path id="rect11030" style="fill:#4f733f;fill-opacity:1;stroke-width:0.405496;stroke-linejoin:round;stop-color:#000000" d="m 300,116.1681 -71.51473,0.48773 c 6.39003,18.9723 27.39719,33.68522 7.23824,54.40344 20.02539,9.22804 45.35811,13.14456 64.27649,0.19438 z"/><path d="m 166.13087,132.84858 a 5.0030003,5.5091001 0 0 1 -3.64225,-2.89098 L 147.35044,98.522471 a 4.9696471,5.4723727 0 0 1 4.91608,-8.041533 l 35.08251,3.740065 a 4.9696471,5.4723727 0 0 1 3.17454,8.832217 l -19.71363,27.73458 a 4.9696471,5.4723727 0 0 1 -4.37734,2.07527 z" fill="#e2c2a6" id="path18240" style="fill:#f6ebe2;fill-opacity:1;stroke-width:3.49997"/><path d="m 112.66296,123.93725 a 5.0030003,5.5091001 0 0 1 -3.64225,-2.89098 L 93.882523,89.611148 a 4.9696471,5.4723727 0 0 1 4.916086,-8.041529 l 35.082511,3.740068 a 4.9696471,5.4723727 0 0 1 3.17454,8.832224 l -19.71363,27.734569 a 4.9696471,5.4723727 0 0 1 -4.37734,2.07527 z" fill="#e2c2a6" id="path18242" style="fill:#f6ebe2;fill-opacity:1;stroke-width:3.49997"/><path d="M 62.868303,100.70848 A 5.0030003,5.5091001 10.869882 0 1 59.836576,97.182518 L 50.898017,63.456652 a 4.9696471,5.4723727 10.869882 0 1 6.344348,-6.970175 l 33.747759,10.288798 a 4.9696471,5.4723727 10.869882 0 1 1.451998,9.272405 l -24.59009,23.519381 a 4.9696471,5.4723727 10.869882 0 1 -4.690149,1.212569 z" fill="#e2c2a6" id="path18244" style="fill:#f6ebe2;fill-opacity:1;stroke-width:3.49997"/><path d="M 44.882739,85.643748 C 43.862185,85.535805 42.854522,84.447906 42.164944,82.709562 L 32.133596,45.172148 c -1.776541,-4.364576 -2.325889,-8.825631 0.246296,-8.814164 l 20.040039,0.161843 c 2.476458,0.179967 4.323297,5.806645 3.312829,10.09303 l -8.222184,35.906585 c -0.435081,1.899645 -1.353126,3.067264 -2.436339,3.098665 z" fill="#e2c2a6" id="path18248" style="fill:#f6ebe2;fill-opacity:1;stroke-width:3.0718" sodipodi:nodetypes="ccccccccc" inkscape:transform-center-x="-0.83512729" inkscape:transform-center-y="22.361272"/><path id="path396" style="fill:#679b4f;fill-opacity:1;fill-rule:evenodd;stroke-width:1.06686" d="M 108.66181,36.803541 C 105.03076,53.290178 58.006283,58.022361 38.78895,50.140907 21.003534,42.846714 18.700513,17.399346 34.532637,8.3789495 67.638666,-10.483301 115.88586,4.0029991 108.66181,36.803541 Z" sodipodi:nodetypes="ssss"/><path id="rect4390" style="fill:#679b4f;fill-opacity:1;stroke-width:6.39679;stroke-linejoin:round;stop-color:#000000" d="M 44.48504,20.132576 28.565994,37.241953 c 1.021629,3.088665 2.49685,6.242063 4.642299,9.491356 5.096817,4.68932 14.302546,13.970118 27.305978,23.356401 20.857951,15.055918 51.545429,30.38327 91.156589,27.46679 19.94945,-1.468838 46.34739,19.23315 62.53938,31.33153 25.33101,16.61959 46.93525,12.24656 55.06436,-1.49145 7.41865,-9.98109 13.3157,-9.29965 30.7254,-1.24762 V 102.9569 c 0,-1.13971 -0.0577,-2.26603 -0.16965,-3.375259 -0.11198,-1.10921 -0.27804,-2.201214 -0.49656,-3.274521 -0.21852,-1.073297 -0.48973,-2.127705 -0.80936,-3.159656 -0.31963,-1.031947 -0.6874,-2.041965 -1.1027,-3.027126 -0.4153,-0.985161 -0.87813,-1.945743 -1.38368,-2.878685 -0.50554,-0.932943 -1.05485,-1.837282 -1.64522,-2.712573 -0.59035,-0.875291 -1.2211,-1.721884 -1.89084,-2.53409 -0.66975,-0.812208 -1.37865,-1.590711 -2.12234,-2.334403 -0.74369,-0.743693 -1.5222,-1.452602 -2.33441,-2.122347 -0.81221,-0.669743 -1.65703,-1.300485 -2.53232,-1.890848 -0.8753,-0.590363 -1.7814,-1.139665 -2.71434,-1.645216 -0.12263,-0.06645 -0.25461,-0.117109 -0.37817,-0.182015 v -0.07422 C 275.90319,69.92428 268.82586,61.263079 256.58823,50.389539 205.94977,47.985952 163.98792,51.066668 137.55311,50.163344 114.82454,49.386665 104.68671,43.937383 109.20098,36.335403 109.83803,23.457228 106.52225,15.02508 99.819188,10.404266 Z" sodipodi:nodetypes="cccsscccsssssssssssscccsccc"/><path id="path4503" style="fill:#679b4f;fill-opacity:1;fill-rule:evenodd;stroke-width:0.90478" d="m 273.24374,80.867063 c -10.95305,13.12174 -26.63451,12.771145 -43.28123,9.841995 -16.64672,-2.929149 -27.74033,-18.950156 -24.77827,-35.783919 2.96207,-16.833764 15.18251,-29.192711 32.06613,-29.990731 24.94976,-1.179276 52.10554,36.630294 35.99337,55.932655 z" sodipodi:nodetypes="sssss"/><ellipse style="fill:#dae93c;fill-opacity:1;fill-rule:evenodd;stroke-width:0.90478" id="path4991" cx="241.42279" cy="61.985073" rx="25.102659" ry="24.071045"/><path id="rect6563" style="fill:#679b4f;fill-opacity:1;stroke-width:5.91513;stroke-linejoin:round;stop-color:#000000" d="m 201.75205,64.930759 c 28.99022,19.824567 55.34099,19.336132 80.219,9.481333 l -4.31621,31.393908 -80.219,-9.481331 z" sodipodi:nodetypes="ccccc"/><path id="path7851" style="fill:#467150;fill-opacity:1;stroke-width:3.09393;stroke-linejoin:round;stop-color:#000000" d="m 73.248739,21.961398 c 7.901079,2.930988 15.245697,24.842777 3.426325,17.514334 C 64.855696,32.147296 47.928266,39.255978 47.563177,34.050165 47.198095,28.844359 65.347658,19.030409 73.248739,21.961398 Z" sodipodi:nodetypes="zzzz"/><path id="rect6635" style="fill:#325139;fill-opacity:1;stroke-width:3.09393;stroke-linejoin:round;stop-color:#000000" d="m 70.830885,19.971613 c -8.222574,-0.01306 -20.920357,7.101736 -22.190085,11.742699 4.527454,-5.136891 17.705985,-11.163313 24.123345,-8.782726 5.112751,1.89663 9.985483,11.732811 9.590315,16.45922 4.371438,-1.501147 -1.696955,-16.495134 -8.135952,-18.883747 -0.987635,-0.366374 -2.135903,-0.53346 -3.387623,-0.535446 z"/><path id="rect8634" style="fill:#333231;fill-opacity:1;stroke-width:2.90624;stroke-linejoin:round;stop-color:#000000" d="m 245.22426,40.731156 c 6.96434,0 9.951,11.406745 9.951,18.371097 0,6.964353 -2.98666,18.371099 -9.951,18.371099 -6.96437,0 -9.95102,-11.406746 -9.95102,-18.371099 0,-6.964352 2.98665,-18.371097 9.95102,-18.371097 z" sodipodi:nodetypes="aaaaa"/><circle style="fill:#ffffff;fill-opacity:1;fill-rule:evenodd;stroke-width:0.502656" id="path8637" cx="234.95734" cy="51.682533" r="8.4241362"/><path d="m 275.44534,78.437492 a 22.585383,22.585383 0 0 1 4.67957,4.317765 5.9988559,5.9988559 0 0 1 1.20794,2.469648 3.0303499,3.0303499 0 0 1 -0.39029,2.226833 3.5498384,3.5498384 0 0 1 -3.72629,2.043364 13.766447,13.766447 0 0 1 -5.28245,-1.770872 l -3.34173,-1.890411 0.57683,3.790358 a 15.423862,15.423862 0 0 1 0.035,4.817062 4.7619783,4.7619783 0 0 1 -0.71206,1.853453 2.0284792,2.0284792 0 0 1 -0.61524,0.573629 4.4898654,4.4898654 0 0 1 -0.98886,0.424377 5.281467,5.281467 0 0 1 -4.42938,-0.912159 16.487578,16.487578 0 0 1 -3.84291,-3.842318 12.628519,12.628519 0 0 0 2.91935,4.952044 7.7675907,7.7675907 0 0 0 2.55561,1.783606 6.5307133,6.5307133 0 0 0 3.3134,0.47583 7.5696904,7.5696904 0 0 0 1.65961,-0.42959 4.836191,4.836191 0 0 0 1.6447,-1.02888 6.8399326,6.8399326 0 0 0 1.78498,-3.054207 15.238331,15.238331 0 0 0 0.37041,-6.256208 l -2.77952,1.865855 a 16.871009,16.871009 0 0 0 3.27334,1.542876 12.566675,12.566675 0 0 0 3.74877,0.706235 7.2728398,7.2728398 0 0 0 4.12466,-1.083709 5.8627994,5.8627994 0 0 0 1.59087,-1.530698 8.089179,8.089179 0 0 0 1.00117,-1.775649 5.9122746,5.9122746 0 0 0 -0.004,-4.211287 7.7799596,7.7799596 0 0 0 -2.28177,-3.058658 15.015693,15.015693 0 0 0 -6.09188,-2.998289 z" fill="#518d40" id="path3092" style="stroke-width:1.23688"/><path d="m 274.80736,98.497061 a 11.131898,11.131898 0 0 0 2.134,3.122069 9.89502,9.89502 0 0 0 3.20712,2.29814 6.1843876,6.1843876 0 0 0 4.54925,0.28192 6.2957066,6.2957066 0 0 0 2.1513,-1.25974 5.7885867,5.7885867 0 0 0 1.47857,-1.98053 7.4212651,7.4212651 0 0 0 0.44926,-4.472981 13.605653,13.605653 0 0 0 -1.31412,-3.689295 18.157362,18.157362 0 0 0 -4.77287,-5.7583 c 0.75965,2.365936 1.51918,4.54348 2.05784,6.708131 0.53868,2.164657 0.80449,4.352176 0.15221,5.560846 a 3.3395693,3.3395693 0 0 1 -1.49669,1.436439 3.9085329,3.9085329 0 0 1 -2.3776,0.19933 25.776527,25.776527 0 0 1 -6.21827,-2.446029 z" fill="#518d40" id="path3094" style="stroke-width:1.23688"/><path d="m 152.31294,168.46422 a 4.3784499,4.3784499 0 0 0 -2.45973,3.06423 l -6.10917,27.61119 a 4.3492603,4.3492603 0 0 0 5.85038,5.013 l 28.79964,-11.04938 a 4.3492603,4.3492603 0 0 0 0.80652,-7.50615 L 156.69633,168.9512 a 4.3492603,4.3492603 0 0 0 -4.13194,-0.56848 z" fill="#e2c2a6" id="path3122" style="fill:#f6ebe2;fill-opacity:1;stroke-width:2.91896"/><path d="m 121.91126,189.07521 a 3.6176585,4.3784499 0 0 0 -2.58874,2.37135 l -10.46214,25.28567 a 3.5935408,4.3492603 0 0 0 3.67695,6.2891 l 25.30392,-3.68748 a 3.5935408,4.3492603 0 0 0 2.15966,-7.08242 l -14.6756,-21.6343 a 3.5935408,4.3492603 0 0 0 -3.19615,-1.55959 z" fill="#e2c2a6" id="path15682" style="fill:#f6ebe2;fill-opacity:1;stroke-width:2.65328"/><path d="m 196.26641,153.58369 a 4.3784499,4.3784499 0 0 0 -3.05457,2.47172 l -11.83558,25.68305 a 4.3492603,4.3492603 0 0 0 4.65184,6.14146 l 30.48963,-4.6788 a 4.3492603,4.3492603 0 0 0 2.38275,-7.16348 l -18.4542,-21.04685 a 4.3492603,4.3492603 0 0 0 -3.91684,-1.43331 z" fill="#e2c2a6" id="path15684" style="fill:#f6ebe2;fill-opacity:1;stroke-width:2.91896"/><path d="m 90.499929,198.8047 a 2.4824849,3.4128406 1.7572864 0 0 -1.902196,1.64734 l -8.573911,18.85513 a 2.4659349,3.3900883 1.7572863 0 0 2.156699,5.16201 l 17.493069,-0.96096 a 2.4659349,3.3900883 1.7572863 0 0 1.87503,-5.33922 l -8.803605,-17.90965 a 2.4659349,3.3900883 1.7572863 0 0 -2.095233,-1.45192 z" fill="#e2c2a6" id="path17184" style="fill:#f6ebe2;fill-opacity:1;stroke-width:1.94048"/><path d="m 71.860381,199.66097 a 1.4859516,2.9914419 2.060451 0 0 -1.188651,1.35365 l -5.725813,16.11739 a 1.4760452,2.9714988 2.060451 0 0 1.121276,4.62545 l 10.474153,-0.0151 a 1.4760452,2.9714988 2.060451 0 0 1.291332,-4.59011 l -4.678852,-16.11043 a 1.4760452,2.9714988 2.060451 0 0 -1.204074,-1.37138 z" fill="#e2c2a6" id="path17326" style="fill:#f6ebe2;fill-opacity:1;stroke-width:1.40556"/><path id="rect11879" style="fill:#4f733f;stroke-width:0.361912;stroke-linejoin:round;stop-color:#000000" d="m 235.72351,171.05927 c -4.94244,6.19814 -12.21086,8.1467 -25.74912,5.39865 -44.39003,-7.24143 -85.58745,57.77512 -140.161383,40.75397 -8.880399,-4.68019 -16.805146,-10.50934 -9.11062,-24.9433 l -1.273145,1.49677 c -16.193251,6.59584 -18.182947,32.34052 13.285209,40.49131 12.555395,3.25206 26.64525,5.85934 38.889879,-1.22527 10.21083,-10.04076 32.82114,-6.76039 48.68848,-12.02191 10.79455,-3.57942 12.37472,-14.86246 31.4464,-13.23242 31.6535,7.92693 62.22207,1.83971 77.48418,-28.22665 z" sodipodi:nodetypes="cccccscsccc"/><path id="path17951" style="fill:#f7ddc8;fill-opacity:1;stroke-width:1.94048" d="m 82.234293,174.98056 c -1.646217,0.32763 -2.024196,2.05624 -2.672212,3.34199 -2.601096,5.72019 -5.202256,11.44034 -7.803444,17.16048 l -0.283432,0.84365 -0.108874,0.91291 c 7.604327,1.39633 21.114669,-2.41595 20.081905,-6.62594 -2.323371,-4.72589 -4.646082,-9.45208 -6.967897,-14.17871 -0.396955,-0.87428 -1.252121,-1.53828 -2.246046,-1.45438 z" sodipodi:nodetypes="cccccccc"/><path id="path24180" style="fill:#b0d6f0;fill-opacity:1;stroke-width:0.361912;stroke-linejoin:round;stop-color:#000000" d="m 268.14008,201.94726 c -23.49495,-0.86564 -54.36756,10.4717 -76.4009,4.766 -19.07165,-1.58284 -20.65187,9.37496 -31.44641,12.85071 -15.8673,5.10916 -38.47767,1.9238 -48.68847,11.67378 -12.24461,6.87945 -26.334266,4.34716 -38.889636,1.18929 -17.097983,-4.30043 -24.303235,-13.6438 -24.734777,-22.30848 -2.88957,10.15329 3.279142,23.23835 24.093303,28.62956 12.55537,3.25206 26.645023,5.85998 38.88964,-1.22463 10.21079,-10.04073 32.82117,-6.76038 48.68847,-12.0219 10.79453,-3.5794 12.37476,-14.86245 31.44641,-13.23241 31.59208,4.92539 73.39935,-11.05702 99.30138,-3.84355 l -1.8237,-0.46299 c -5.59141,-4.08356 -12.60366,-5.72683 -20.43531,-6.01538 z"/><path id="rect24937" style="fill:#b0d6f0;stroke-width:2.44652;stroke-linecap:round;stroke-linejoin:round;stop-color:#000000" d="m 43.092736,222.01648 c -2.941787,1.71306 -4.70172,4.90775 -3.743746,7.68465 2.717746,7.878 32.937488,17.6711 43.415882,14.74411 l 0.848231,-0.88534 c -12.430941,1.71249 -39.564351,-10.34793 -37.058523,-21.54342 -0.581261,-0.85902 -1.49875,-1.21372 -3.461844,0 z" sodipodi:nodetypes="cscccc"/><path id="path24946" style="fill:#b0d6f0;stroke-width:2.44652;stroke-linecap:round;stroke-linejoin:round;stop-color:#000000" d="m 177.32762,220.33249 c 2.94179,1.71306 2.87305,5.5343 1.91508,8.3112 -2.71775,7.878 -32.52601,6.81811 -43.00441,3.89113 l -0.84823,-0.88534 c 12.43094,1.71249 40.98155,-0.12151 38.47571,-11.31699 0.58127,-0.85903 1.49876,-1.21371 3.46185,0 z" sodipodi:nodetypes="cscccc"/><path id="path25008" style="fill:#b0d6f0;fill-opacity:1;stroke-width:0.264331;stroke-linejoin:round;stop-color:#000000" d="m 259.78271,213.27433 c -22.33731,4.70364 -68.11272,4.91576 -63.78843,4.89379 3.34583,3.91423 33.41761,7.40646 56.15416,-0.11925 8.20714,-2.71655 17.8743,-3.56543 27.8312,-0.96586 l -1.65474,-0.27219 c -5.07343,-2.40076 -11.67435,-4.98268 -18.54219,-3.53649 z" sodipodi:nodetypes="scsccs"/><path d="m 92.478492,37.664537 a 9.4415523,9.4415523 0 0 0 0.842712,3.094781 8.3924906,8.3924906 0 0 0 1.93158,2.732651 5.2453068,5.2453068 0 0 0 3.567249,1.489825 5.3397223,5.3397223 0 0 0 2.073957,-0.411818 4.9096072,4.9096072 0 0 0 1.7351,-1.17633 6.2943683,6.2943683 0 0 0 1.60273,-3.459652 11.539676,11.539676 0 0 0 -0.0281,-3.321542 15.40022,15.40022 0 0 0 -2.22497,-5.940494 c -0.0486,2.107013 -0.0449,4.063026 -0.21462,5.947341 -0.16974,1.884326 -0.56447,3.711167 -1.42298,4.498516 a 2.8324657,2.8324657 0 0 1 -1.598474,0.735289 3.3150339,3.3150339 0 0 1 -1.960683,-0.500821 21.86244,21.86244 0 0 1 -4.303506,-3.687746 z" fill="#518d40" id="path28476" style="stroke-width:1.04907"/><path d="m 85.249995,46.883916 a 9.4415523,9.4415523 0 0 0 0.441389,3.17695 8.3924906,8.3924906 0 0 0 1.567532,2.956557 5.2453068,5.2453068 0 0 0 3.348268,1.932344 5.3397223,5.3397223 0 0 0 2.109531,-0.144121 4.9096072,4.9096072 0 0 0 1.870883,-0.945585 6.2943683,6.2943683 0 0 0 2.030613,-3.227157 11.539676,11.539676 0 0 0 0.395489,-3.298034 15.40022,15.40022 0 0 0 -1.449673,-6.175632 c -0.316728,2.083639 -0.562383,4.024167 -0.970901,5.871481 -0.408517,1.847324 -1.032877,3.608954 -1.984739,4.280459 a 2.8324657,2.8324657 0 0 1 -1.679153,0.525555 3.3150339,3.3150339 0 0 1 -1.880858,-0.746638 21.86244,21.86244 0 0 1 -3.798381,-4.206179 z" fill="#518d40" id="path28478" style="stroke-width:1.04907"/><path d="m 19.368695,172.72768 a 4.0486374,4.0486374 0 0 0 1.372898,0.0829 3.5987889,3.5987889 0 0 0 1.37542,-0.40908 2.2492431,2.2492431 0 0 0 1.095362,-1.24426 2.2897295,2.2897295 0 0 0 0.117725,-0.89903 2.1052915,2.1052915 0 0 0 -0.239391,-0.86644 2.6990917,2.6990917 0 0 0 -1.185059,-1.12644 4.9483349,4.9483349 0 0 0 -1.35305,-0.44503 6.6037775,6.6037775 0 0 0 -2.718761,0.0874 c 0.849189,0.30926 1.644219,0.57657 2.386299,0.90445 0.74208,0.32788 1.429885,0.73926 1.631734,1.19618 a 1.2145912,1.2145912 0 0 1 0.07902,0.75033 1.4215216,1.4215216 0 0 1 -0.472871,0.7276 9.3748451,9.3748451 0 0 1 -2.089349,1.24124 z" fill="#518d40" id="path1688" style="stroke-width:0.449849"/><path d="m 14.503551,170.328 a 6.431289,6.431289 0 0 1 2.18238,0.10339 5.7167012,5.7167012 0 0 1 2.102346,0.88093 3.5729384,3.5729384 0 0 1 1.517452,2.15213 3.6372511,3.6372511 0 0 1 0.0324,1.43993 3.3442702,3.3442702 0 0 1 -0.526012,1.3275 4.287526,4.287526 0 0 1 -2.063905,1.57663 7.8604643,7.8604643 0 0 1 -2.212869,0.4718 10.490148,10.490148 0 0 1 -4.278822,-0.60237 c 1.393941,-0.34342 2.695174,-0.62981 3.923128,-1.02092 1.227945,-0.39112 2.384461,-0.92334 2.781281,-1.61047 a 1.9293867,1.9293867 0 0 0 0.252911,-1.17151 2.258097,2.258097 0 0 0 -0.622559,-1.22984 14.892007,14.892007 0 0 0 -3.087709,-2.31716 z" fill="#518d40" id="path1690" style="stroke-width:0.714589"/><path d="m 43.38514,162.2104 a 4.0486374,4.0486374 0 0 0 1.036305,-0.90432 3.5987889,3.5987889 0 0 0 0.692874,-1.2566 2.2492431,2.2492431 0 0 0 -0.09271,-1.65512 2.2897295,2.2897295 0 0 0 -0.546988,-0.72313 2.1052915,2.1052915 0 0 0 -0.778549,-0.44932 2.6990917,2.6990917 0 0 0 -1.634744,0.029 4.9483349,4.9483349 0 0 0 -1.276277,0.63239 6.6037775,6.6037775 0 0 0 -1.875676,1.97006 c 0.822025,-0.37555 1.576026,-0.74299 2.334806,-1.03011 0.758779,-0.28713 1.537483,-0.47668 2.001919,-0.29278 a 1.2145912,1.2145912 0 0 1 0.582816,0.47913 1.4215216,1.4215216 0 0 1 0.173665,0.8502 9.3748451,9.3748451 0 0 1 -0.61758,2.35046 z" fill="#518d40" id="path1692" style="stroke-width:0.449849"/></svg>