<?xml version="1.0" encoding="UTF-8" standalone="no"?>
<svg id="Layer_1" data-name="Layer 1" viewBox="0 0 300 345" version="1.1" sodipodi:docname="dingo_2.svg" inkscape:version="1.2 (dc2aedaf03, 2022-05-15)" xmlns:inkscape="http://www.inkscape.org/namespaces/inkscape" xmlns:sodipodi="http://sodipodi.sourceforge.net/DTD/sodipodi-0.dtd" xmlns="http://www.w3.org/2000/svg" xmlns:svg="http://www.w3.org/2000/svg">
  <sodipodi:namedview id="namedview38039" pagecolor="#505050" bordercolor="#ffffff" borderopacity="1" inkscape:showpageshadow="0" inkscape:pageopacity="0" inkscape:pagecheckerboard="1" inkscape:deskcolor="#505050" showgrid="false" inkscape:zoom="0.87055056" inkscape:cx="140.1412" inkscape:cy="221.69878" inkscape:window-width="1366" inkscape:window-height="705" inkscape:window-x="-8" inkscape:window-y="-8" inkscape:window-maximized="1" inkscape:current-layer="Layer_1"/>
  <defs id="defs37959">
    <inkscape:path-effect effect="mirror_symmetry" start_point="253.20354,166.29204" end_point="253.20354,219.61947" center_point="253.20354,192.95575" id="path-effect39083" is_visible="true" lpeversion="1.2" lpesatellites="#path39085" mode="vertical" discard_orig_path="false" fuse_paths="false" oposite_fuse="false" split_items="true" split_open="false" link_styles="false"/>
    <linearGradient id="linear-gradient" x1="150" y1="356.11" x2="150" y2="161.16" gradientUnits="userSpaceOnUse">
      <stop offset="0" stop-color="#e38e4d" id="stop37940"/>
      <stop offset="0.69" stop-color="#a85a26" id="stop37942"/>
    </linearGradient>
    <linearGradient id="linear-gradient-2" x1="150" y1="139.54" x2="150" y2="342.79" gradientUnits="userSpaceOnUse">
      <stop offset="0.63" stop-color="#e38e4d" id="stop37945"/>
      <stop offset="0.69" stop-color="#e69558" id="stop37947"/>
      <stop offset="0.8" stop-color="#eea974" id="stop37949"/>
      <stop offset="0.86" stop-color="#f3b788" id="stop37951"/>
    </linearGradient>
    <linearGradient id="linear-gradient-3" x1="150" y1="272.56" x2="150" y2="342.67" gradientUnits="userSpaceOnUse">
      <stop offset="0" stop-color="#e38e4d" id="stop37954"/>
      <stop offset="1" stop-color="#f3b788" id="stop37956"/>
    </linearGradient>
  </defs>
  <path d="M 263.62,345 H 36.38 A 36.38,36.38 0 0 1 0,308.62 v -49.48 h 300 v 49.48 A 36.38,36.38 0 0 1 263.62,345 Z" fill="url(#linear-gradient)" id="path37961" style="fill:url(#linear-gradient)"/>
  <rect y="45" width="300" height="253.39" rx="36.380001" fill="url(#linear-gradient-2)" id="rect37963" style="fill:url(#linear-gradient-2)" x="0"/>
  <path d="m 61,59.13 c 0,0 19.68,12.44 26.92,34.87 0,0 0.23,8.87 -4.44,14.24" fill="#e38e4d" id="path37965"/>
  <path d="m 61,59.13 a 45.51,45.51 0 0 1 9.6,6.08 57.19,57.19 0 0 1 8.14,8 c 1.25,1.45 2.36,3 3.48,4.59 0.52,0.8 1,1.61 1.53,2.44 l 0.75,1.23 0.68,1.27 a 51.28,51.28 0 0 1 4.25,10.72 l 0.09,0.28 v 0.16 a 24.39,24.39 0 0 1 -0.53,4 29.23,29.23 0 0 1 -1.12,3.81 20.52,20.52 0 0 1 -1.79,3.53 13.43,13.43 0 0 1 -2.58,2.93 19.07,19.07 0 0 0 1.57,-3.42 23.58,23.58 0 0 0 0.89,-3.57 28,28 0 0 0 0.4,-3.63 30.3,30.3 0 0 0 0,-3.57 l 0.08,0.44 A 80,80 0 0 0 81.73,84.64 L 81.08,83.45 80.36,82.3 78.9,80 c -1.05,-1.48 -2,-3 -3.14,-4.45 A 124.6,124.6 0 0 0 61,59.13 Z" fill="#a85a26" id="path37967"/>
  <path d="m 73.39,102.14 c 0,0 4.2,-14.39 -4.07,-30.79 C 60,52.83 70.12,9.26 49.58,3 31.58,-2.53 17.67,16.35 10.76,35.51 3.14,56.63 -0.64,81.86 2,97.24 c 3.61,21.47 13,32.21 13,32.21" fill="#e38e4d" id="path37969"/>
  <path d="m 73.39,102.14 a 36.86,36.86 0 0 0 0.73,-8 47.59,47.59 0 0 0 -0.68,-8 49.9,49.9 0 0 0 -5.33,-15 37.21,37.21 0 0 1 -2.69,-7.9 c -0.63,-2.69 -1,-5.41 -1.41,-8.12 C 63.3,49.7 63.01,44.27 62.55,38.89 62.09,33.51 61.62,28.16 60.68,22.95 a 49.16,49.16 0 0 0 -2,-7.54 A 21.11,21.11 0 0 0 55.06,8.93 12.61,12.61 0 0 0 49.3,5.01 19,19 0 0 0 42,4 19.36,19.36 0 0 0 35,5.91 28,28 0 0 0 28.76,10.16 50.33,50.33 0 0 0 19,22.31 a 84.53,84.53 0 0 0 -6.67,14.37 176.74,176.74 0 0 0 -8.1,31.06 138.28,138.28 0 0 0 -1.73,16 68,68 0 0 0 0.93,15.93 82.41,82.41 0 0 0 4.14,15.53 69.28,69.28 0 0 0 3.27,7.38 45.16,45.16 0 0 0 4.2,6.91 A 55.18,55.18 0 0 1 6.59,115.6 84.44,84.44 0 0 1 1.5,100 69.37,69.37 0 0 1 -0.12,83.63 129.72,129.72 0 0 1 1.15,67.27 167.6,167.6 0 0 1 8.78,35.41 85,85 0 0 1 15.65,20.33 54.23,54.23 0 0 1 26.08,7.16 32.31,32.31 0 0 1 33.26,2.35 23.36,23.36 0 0 1 41.77,0.09 22.67,22.67 0 0 1 50.51,1.25 16.14,16.14 0 0 1 58,6.4 a 25.28,25.28 0 0 1 4.14,7.68 50.69,50.69 0 0 1 2,8.16 140,140 0 0 1 1.53,16.35 c 0.27,5.42 0.48,10.81 1,16.15 0.52,5.34 1.22,10.67 3.26,15.47 4.63,9.85 6.36,21.44 3.46,31.93 z" fill="#a85a26" id="path37971"/>
  <path d="m 32.9,118.64 c 0,0 -14.78,-18.64 -15.42,-32.98 -0.64,-14.34 1.06,-30.17 4,-40.1 2.94,-9.93 12.43,-22 19.22,-19.64 4.87,1.66 5.06,12.84 8.4,24.72 2.9,10.13 9.25,20.77 9.15,26.47 -0.21,12.38 -6.76,30.76 -6.76,30.76 0,0 -5.07,-3.59 -9.93,-12.67 l -2.73,13.73 c 0,0 -2.55,-1.06 -6.35,-5.5 z" fill="#723717" id="path37973"/>
  <path d="m 239,59.13 c 0,0 -19.68,12.44 -26.92,34.87 0,0 -0.23,8.87 4.44,14.24" fill="#e38e4d" id="path37975"/>
  <path d="m 239,59.13 a 124.6,124.6 0 0 0 -14.77,16.45 c -1.12,1.44 -2.09,3 -3.14,4.45 l -1.43,2.31 -0.66,1.15 -0.65,1.19 a 80,80 0 0 0 -4.71,9.78 l 0.08,-0.44 a 30.3,30.3 0 0 0 0,3.57 28,28 0 0 0 0.4,3.63 23.58,23.58 0 0 0 0.89,3.57 19.07,19.07 0 0 0 1.57,3.42 13.43,13.43 0 0 1 -2.58,-2.93 20.52,20.52 0 0 1 -1.79,-3.53 29.23,29.23 0 0 1 -1.21,-3.81 24.39,24.39 0 0 1 -0.53,-4 v -0.16 l 0.09,-0.28 a 51.28,51.28 0 0 1 4.25,-10.72 l 0.68,-1.27 0.75,-1.23 c 0.5,-0.83 1,-1.64 1.53,-2.44 1.12,-1.57 2.23,-3.14 3.48,-4.59 a 57.19,57.19 0 0 1 8.14,-8 45.51,45.51 0 0 1 9.61,-6.12 z" fill="#a85a26" id="path37977"/>
  <path d="m 226.61,102.14 c 0,0 -4.2,-14.39 4.07,-30.79 C 240,52.83 229.88,9.26 250.42,3 c 18,-5.53 31.91,13.35 38.82,32.51 7.62,21.16 11.4,46.39 8.79,61.77 -3.64,21.43 -13.03,32.17 -13.03,32.17" fill="#e38e4d" id="path37979"/>
  <path d="m 226.61,102.14 c -2.9,-10.49 -1.17,-22.08 3.52,-31.93 2,-4.8 2.78,-10.16 3.26,-15.47 0.48,-5.31 0.69,-10.73 1,-16.15 a 140,140 0 0 1 1.53,-16.35 50.69,50.69 0 0 1 2,-8.16 25.28,25.28 0 0 1 4.14,-7.68 16.14,16.14 0 0 1 7.44,-5.15 22.67,22.67 0 0 1 8.73,-1.16 23.36,23.36 0 0 1 8.51,2.26 32.31,32.31 0 0 1 7.18,4.81 54.23,54.23 0 0 1 10.43,13.17 85,85 0 0 1 6.87,15.08 167.6,167.6 0 0 1 7.63,31.86 129.72,129.72 0 0 1 1.27,16.36 69.37,69.37 0 0 1 -1.62,16.37 84.44,84.44 0 0 1 -5.09,15.55 55.18,55.18 0 0 1 -8.41,13.9 45.16,45.16 0 0 0 4.2,-6.91 69.28,69.28 0 0 0 3.27,-7.38 82.41,82.41 0 0 0 4.14,-15.53 68,68 0 0 0 0.93,-15.93 138.28,138.28 0 0 0 -1.73,-16 A 176.74,176.74 0 0 0 287.69,36.64 84.53,84.53 0 0 0 281,22.31 50.33,50.33 0 0 0 271.29,10.16 28,28 0 0 0 265,5.91 19.36,19.36 0 0 0 258,4 a 19,19 0 0 0 -7.25,0.93 12.61,12.61 0 0 0 -5.75,3.9 21.11,21.11 0 0 0 -3.62,6.48 49.16,49.16 0 0 0 -2,7.54 c -0.94,5.21 -1.43,10.56 -1.87,15.94 -0.44,5.38 -0.81,10.81 -1.51,16.21 -0.36,2.71 -0.78,5.43 -1.41,8.12 a 37.21,37.21 0 0 1 -2.69,7.9 49.9,49.9 0 0 0 -5.33,15 47.59,47.59 0 0 0 -0.68,8 36.86,36.86 0 0 0 0.72,8.12 z" fill="#a85a26" id="path37981"/>
  <path d="m 267.1,118.64 c 0,0 14.78,-18.65 15.42,-33 0.64,-14.35 -1.06,-30.17 -4,-40.1 -2.94,-9.93 -12.43,-22 -19.22,-19.64 -4.87,1.66 -5.06,12.84 -8.4,24.72 -2.84,10.13 -9.23,20.77 -9.13,26.47 0.21,12.38 6.76,30.76 6.76,30.76 0,0 5.07,-3.59 9.93,-12.67 l 2.73,13.73 c 0,0 2.55,-1.06 6.35,-5.5 z" fill="#723717" id="path37983"/>
  <path d="m 77,265.19 a 200.51,200.51 0 0 0 -1.64,27.45 c 0,16.73 18.53,24.68 18.53,24.68 h 112.27 c 0,0 18.53,-7.95 18.53,-24.68 a 200.51,200.51 0 0 0 -1.64,-27.45" fill="#e38e4d" id="path37985"/>
  <path d="m 77,265.19 c -0.22,2.5 -0.34,5 -0.43,7.5 -0.09,2.5 -0.17,5 -0.18,7.49 -0.01,2.49 0,5 0,7.49 a 64.46,64.46 0 0 0 0.38,7.34 10.2,10.2 0 0 0 0.35,1.73 13.67,13.67 0 0 0 0.44,1.7 21.53,21.53 0 0 0 1.39,3.23 24.35,24.35 0 0 0 4.14,5.71 33.82,33.82 0 0 0 5.38,4.62 35.1,35.1 0 0 0 3,1.91 31.57,31.57 0 0 0 3.12,1.58 l -0.78,-0.16 c 9.36,-0.22 18.72,-0.26 28.08,-0.39 l 28.08,-0.13 28.08,0.12 c 9.36,0.14 18.72,0.18 28.08,0.39 l -0.78,0.16 a 30.38,30.38 0 0 0 3.12,-1.57 q 1.56,-0.89 3,-1.92 a 32.83,32.83 0 0 0 5.41,-4.63 23.82,23.82 0 0 0 4.14,-5.7 21,21 0 0 0 1.39,-3.23 16.34,16.34 0 0 0 0.45,-1.7 10.18,10.18 0 0 0 0.34,-1.73 62.24,62.24 0 0 0 0.38,-7.34 c 0.05,-2.49 0,-5 0,-7.49 0,-2.49 -0.07,-5 -0.18,-7.49 -0.11,-2.49 -0.21,-5 -0.43,-7.5 0.95,4.93 1.58,9.92 2,14.92 0.24,2.5 0.4,5 0.54,7.52 a 64.77,64.77 0 0 1 0.14,7.67 11.87,11.87 0 0 1 -0.28,2 18.21,18.21 0 0 1 -0.4,1.95 24.72,24.72 0 0 1 -1.37,3.75 27.25,27.25 0 0 1 -4.28,6.66 34.72,34.72 0 0 1 -5.75,5.36 c -1,0.8 -2.12,1.53 -3.23,2.23 a 33.32,33.32 0 0 1 -3.51,1.94 l -0.32,0.15 h -0.47 c -9.36,0.21 -18.72,0.25 -28.08,0.39 l -28.08,0.12 -28.08,-0.13 c -9.36,-0.13 -18.72,-0.17 -28.08,-0.39 h -0.47 l -0.32,-0.15 a 34.17,34.17 0 0 1 -3.5,-1.94 38,38 0 0 1 -3.12,-2.23 35.12,35.12 0 0 1 -5.75,-5.36 27.06,27.06 0 0 1 -4.28,-6.64 23.54,23.54 0 0 1 -1.36,-3.74 18.24,18.24 0 0 1 -0.41,-1.95 13,13 0 0 1 -0.27,-2 64.81,64.81 0 0 1 0.13,-7.67 c 0.15,-2.51 0.3,-5 0.55,-7.52 A 149.79,149.79 0 0 1 77,265.19 Z" fill="#a85a26" id="path37987"/>
  <path d="m 204.41,272.81 c 0,0 6.74,31.65 1,43.92 -5.36,11.49 -15.12,25.8 -55.43,25.8 v 0 c -40.31,0 -50.07,-14.31 -55.43,-25.8 -5.72,-12.27 1,-43.92 1,-43.92" fill="url(#linear-gradient-3)" id="path37989" style="fill:url(#linear-gradient-3)"/>
  <path d="m 204.41,272.81 c 1.1,4.44 2,8.92 2.77,13.45 a 122.48,122.48 0 0 1 1.53,13.74 50.46,50.46 0 0 1 -0.85,14 21.54,21.54 0 0 1 -1.14,3.49 c -0.5,1.06 -0.95,2.13 -1.51,3.17 a 45.9,45.9 0 0 1 -3.7,6.08 37.65,37.65 0 0 1 -10.7,9.49 l -1.56,0.89 -0.78,0.45 -0.8,0.38 c -1.08,0.49 -2.16,1 -3.25,1.48 l -3.33,1.23 -0.84,0.3 -0.85,0.23 -1.7,0.47 A 107.65,107.65 0 0 1 150,345 h -2.39 v -2.43 l -0.1,-28.61 h 5 l -0.1,28.61 V 345 h -2.4 a 108.09,108.09 0 0 1 -27.7,-3.34 l -1.7,-0.47 -0.85,-0.24 -0.84,-0.3 -3.34,-1.22 c -1.09,-0.47 -2.16,-1 -3.24,-1.49 l -0.81,-0.38 -0.78,-0.44 -1.55,-0.9 a 37.36,37.36 0 0 1 -10.7,-9.49 44.71,44.71 0 0 1 -3.71,-6.08 c -0.55,-1 -1,-2.11 -1.5,-3.16 a 21.06,21.06 0 0 1 -1.15,-3.5 50.84,50.84 0 0 1 -0.85,-14 122.49,122.49 0 0 1 1.54,-13.69 c 0.73,-4.53 1.67,-9 2.77,-13.45 a 181.81,181.81 0 0 0 -2.29,27.15 52,52 0 0 0 1.5,13.22 18.66,18.66 0 0 0 1.12,3 c 0.52,1 1,2 1.58,2.95 a 40.79,40.79 0 0 0 3.67,5.44 c 5.49,6.8 13.63,10.86 22.22,12.88 2.12,0.61 4.33,0.92 6.51,1.34 2.18,0.42 4.43,0.55 6.64,0.83 2.24,0.13 4.47,0.3 6.71,0.4 l 6.74,0.11 -2.4,2.4 -0.1,-28.61 h 5 l -0.1,28.61 -2.4,-2.4 6.74,-0.1 c 2.24,-0.11 4.47,-0.27 6.71,-0.4 2.24,-0.13 4.45,-0.47 6.64,-0.84 2.19,-0.37 4.39,-0.73 6.51,-1.34 8.59,-2 16.73,-6.08 22.22,-12.87 a 41.94,41.94 0 0 0 3.68,-5.45 c 0.57,-0.95 1.05,-2 1.57,-2.95 a 18,18 0 0 0 1.12,-2.95 52.09,52.09 0 0 0 1.51,-13.27 181.83,181.83 0 0 0 -2.29,-27.19 z" fill="#a85a26" id="path37991"/>
  <path d="m 150,287.28 c 0,0 -28.11,-0.51 -28.11,11.11 0,29.25 28.11,30.76 28.11,30.76 0,0 28.11,-1.51 28.11,-30.76 0,-11.62 -28.11,-11.11 -28.11,-11.11 z" fill="#15141a" id="path37993"/>
  <path d="m 160.6,146.47 c 0,18.56 -10.6,33.61 -10.6,33.61 0,0 -10.6,-15.08 -10.6,-33.61 0,-18.53 6.86,-33.6 10.6,-33.6 3.74,0 10.6,15.04 10.6,33.6 z" fill="#d87d3e" id="path37995"/>
  <path d="m 182.09,243 c 0,25.1 -6.46,32.58 -32.09,32.58 -25.63,0 -32.09,-7.48 -32.09,-32.58 0,-25.1 19.09,-45.5 32.09,-45.5 13,0 32.09,20.35 32.09,45.5 z" fill="#d87d3e" id="path37997"/>
  <path d="m 118.54,150.53 c -2.59,8 -11.64,11.2 -19.06,8.82 -7.42,-2.38 -13.45,-10.87 -11,-18.48 2.45,-7.61 12.28,-11 19.71,-8.61 7.43,2.39 12.93,10.23 10.35,18.27 z" fill="#a85a26" id="path37999"/>
  <path d="m 97.38,139 a 14.78,14.78 0 0 1 -4.51,-2.5 19.29,19.29 0 0 1 -3.62,-3.71 19.88,19.88 0 0 1 -1.42,-2.18 18.87,18.87 0 0 1 -1.08,-2.38 14.19,14.19 0 0 1 -1,-5.06 c 0.83,1.52 1.5,3 2.36,4.4 a 42.15,42.15 0 0 0 2.69,4 c 1,1.29 2,2.55 3.08,3.76 1.08,1.21 2.29,2.47 3.5,3.67 z" fill="#723717" id="path38001"/>
  <path d="m 95.59,113.39 c 0.32,2.22 0.66,4.37 1,6.51 0.34,2.14 0.85,4.23 1.44,6.29 a 45.54,45.54 0 0 0 2.19,6 39.68,39.68 0 0 0 3.28,5.62 16.75,16.75 0 0 1 -4.6,-4.81 25.56,25.56 0 0 1 -2.74,-6.22 31.57,31.57 0 0 1 -1.07,-6.66 25,25 0 0 1 0.5,-6.73 z" fill="#723717" id="path38003"/>
  <path d="m 40.19,240.56 a 30.73,30.73 0 0 0 -2.74,7.68 13.93,13.93 0 0 0 -0.19,3.74 12,12 0 0 0 0.91,3.51 l -1.78,-0.73 c 1.85,-0.58 3.73,-1.09 5.63,-1.51 1,-0.19 1.9,-0.41 2.88,-0.55 0.98,-0.14 2,-0.29 3,-0.36 a 27.85,27.85 0 0 1 -2.55,1.54 c -0.85,0.49 -1.73,0.9 -2.6,1.34 q -2.64,1.26 -5.36,2.29 l -1.21,0.46 -0.57,-1.2 a 11.77,11.77 0 0 1 -1.26,-4.58 12.7,12.7 0 0 1 0.66,-4.61 15.19,15.19 0 0 1 2.11,-4 13.13,13.13 0 0 1 3.07,-3.02 z" fill="#723717" id="path38005" style="fill:#a85a26;fill-opacity:1"/>
  <path d="m 29.72,234.86 a 22.18,22.18 0 0 1 -2.19,4.52 26.78,26.78 0 0 1 -3.08,4 c -0.56,0.64 -1.19,1.22 -1.81,1.82 -0.62,0.6 -1.3,1.13 -2,1.62 a 26.52,26.52 0 0 1 -4.42,2.7 v -2.42 c 2.2,1 4.4,1.93 6.57,2.94 2.17,1.01 4.36,2 6.51,3.06 l 1.93,0.94 -1.55,1.46 a 22.92,22.92 0 0 0 -2.2,2.5 21,21 0 0 0 -1.93,2.72 11.16,11.16 0 0 0 -1.79,6 l -0.9,-0.93 c 1.08,0.21 2.16,0.46 3.23,0.7 1.07,0.24 2.16,0.47 3.23,0.74 q 3.23,0.75 6.42,1.66 c -2.22,-0.07 -4.42,-0.21 -6.62,-0.38 -1.1,-0.08 -2.2,-0.18 -3.3,-0.29 -1.1,-0.11 -2.19,-0.19 -3.29,-0.32 l -0.78,-0.09 -0.11,-0.84 a 11.42,11.42 0 0 1 0.18,-4 16.45,16.45 0 0 1 1.38,-3.6 24,24 0 0 1 2,-3.18 27.57,27.57 0 0 1 2.5,-2.85 l 0.37,2.41 c -2.18,-1 -4.35,-2 -6.51,-3.07 -2.16,-1.07 -4.31,-2.1 -6.45,-3.18 l -2.5,-1.27 2.53,-1.15 a 32.79,32.79 0 0 0 4.21,-2.08 31.1,31.1 0 0 0 3.88,-2.81 32.73,32.73 0 0 0 3.47,-3.4 31.19,31.19 0 0 0 3.02,-3.93 z" fill="#723717" id="path38007" style="fill:#a85a26;fill-opacity:1"/>
  <path d="m 163.3,72.14 a 24.78,24.78 0 0 1 7.18,5 22.45,22.45 0 0 1 2.86,3.42 20.87,20.87 0 0 1 2.08,4 l 0.53,1.27 -1.49,-0.05 c -2.65,-0.1 -5.29,-0.26 -7.93,-0.39 -2.64,-0.13 -5.29,-0.3 -7.93,-0.47 l 1.25,-0.62 c -1.41,2.32 -2.82,4.65 -4.27,6.95 l -2.16,3.45 -1.07,1.73 -0.54,0.87 -0.27,0.43 -0.14,0.22 -0.07,0.11 v 0 0 0 l -1.27,0.7 -1.27,-0.7 v 0 0 0 l -0.06,-0.11 -0.14,-0.22 -0.27,-0.43 -0.54,-0.86 -1.08,-1.73 -2.15,-3.46 c -1.45,-2.3 -2.86,-4.63 -4.27,-6.95 l 1.25,0.62 c -2.64,0.17 -5.28,0.35 -7.93,0.48 -2.65,0.13 -5.28,0.29 -7.93,0.38 l -1.49,0.06 0.53,-1.28 a 20.59,20.59 0 0 1 2.08,-4 21.89,21.89 0 0 1 2.86,-3.42 24.78,24.78 0 0 1 7.18,-5 27.4,27.4 0 0 0 -3.42,2.62 28.55,28.55 0 0 0 -2.95,3.08 20.87,20.87 0 0 0 -2.46,3.47 19.18,19.18 0 0 0 -1.61,3.8 l -1,-1.23 c 2.63,-0.33 5.26,-0.59 7.89,-0.89 2.63,-0.3 5.27,-0.54 7.9,-0.8 l 0.79,-0.08 0.47,0.7 c 1.49,2.28 3,4.55 4.44,6.84 l 2.19,3.44 1.1,1.71 0.55,0.86 0.27,0.43 0.14,0.22 0.07,0.11 v 0 0 0 l -1.26,-0.7 -1.26,0.7 v 0 0 0 l 0.07,-0.11 0.14,-0.22 0.27,-0.43 0.55,-0.85 1.1,-1.72 2.19,-3.44 c 1.46,-2.29 3,-4.56 4.45,-6.83 l 0.46,-0.71 0.79,0.08 c 2.63,0.26 5.27,0.51 7.9,0.81 2.63,0.3 5.26,0.56 7.89,0.89 l -1,1.22 A 18.69,18.69 0 0 0 172,81.3 a 21.09,21.09 0 0 0 -2.37,-3.47 28.45,28.45 0 0 0 -2.95,-3.07 27.4,27.4 0 0 0 -3.38,-2.62 z" fill="#723717" id="path38009" style="fill:#a85a26;fill-opacity:1"/>
  <path d="m 259.81,240.56 a 13.13,13.13 0 0 1 3.12,3.06 15.19,15.19 0 0 1 2.11,4 12.7,12.7 0 0 1 0.66,4.61 11.77,11.77 0 0 1 -1.26,4.58 l -0.57,1.2 -1.21,-0.46 q -2.71,-1 -5.36,-2.29 c -0.87,-0.44 -1.75,-0.85 -2.6,-1.34 a 27.85,27.85 0 0 1 -2.55,-1.54 c 1,0.07 2,0.2 2.95,0.36 0.95,0.16 1.92,0.36 2.88,0.55 1.9,0.42 3.78,0.93 5.63,1.51 l -1.78,0.73 a 12,12 0 0 0 0.91,-3.51 13.93,13.93 0 0 0 -0.19,-3.74 30.73,30.73 0 0 0 -2.74,-7.72 z" fill="#723717" id="path38011" style="fill:#a85a26;fill-opacity:1"/>
  <path d="m 270.28,234.86 a 31.19,31.19 0 0 0 3,3.9 32.73,32.73 0 0 0 3.47,3.4 31.1,31.1 0 0 0 3.88,2.81 32.79,32.79 0 0 0 4.21,2.16 l 2.53,1.15 -2.5,1.27 c -2.14,1.08 -4.29,2.16 -6.45,3.18 -2.16,1.02 -4.33,2.08 -6.51,3.07 l 0.37,-2.41 a 27.57,27.57 0 0 1 2.5,2.85 24,24 0 0 1 2,3.18 16.45,16.45 0 0 1 1.38,3.6 11.42,11.42 0 0 1 0.18,4 l -0.11,0.84 -0.78,0.09 c -1.1,0.13 -2.2,0.22 -3.29,0.32 -1.09,0.1 -2.2,0.21 -3.3,0.29 -2.2,0.17 -4.4,0.31 -6.62,0.38 q 3.19,-0.91 6.42,-1.66 c 1.07,-0.27 2.15,-0.5 3.23,-0.74 1.08,-0.24 2.15,-0.49 3.23,-0.7 l -0.9,0.93 a 11.16,11.16 0 0 0 -1.79,-6 21,21 0 0 0 -1.93,-2.72 22.92,22.92 0 0 0 -2.22,-2.46 l -1.55,-1.46 1.93,-0.94 c 2.15,-1.06 4.33,-2.07 6.51,-3.06 2.18,-0.99 4.37,-2 6.57,-2.94 v 2.42 a 26.52,26.52 0 0 1 -4.42,-2.7 c -0.7,-0.49 -1.34,-1.07 -2,-1.62 -0.66,-0.55 -1.25,-1.18 -1.81,-1.82 a 26.78,26.78 0 0 1 -3.08,-4 22.18,22.18 0 0 1 -2.15,-4.61 z" fill="#723717" id="path38013" style="fill:#a85a26;fill-opacity:1"/>
  <path d="m 181.46,150.53 c 2.59,8 11.64,11.2 19.06,8.82 7.42,-2.38 13.45,-10.87 11,-18.48 -2.45,-7.61 -12.28,-11 -19.71,-8.61 -7.43,2.39 -12.93,10.23 -10.35,18.27 z" fill="#a85a26" id="path38015"/>
  <path d="m 202.62,139 c 1.21,-1.23 2.35,-2.42 3.45,-3.64 1.1,-1.22 2.11,-2.47 3.08,-3.76 a 42.15,42.15 0 0 0 2.69,-4 c 0.86,-1.39 1.53,-2.88 2.36,-4.4 a 14.19,14.19 0 0 1 -0.95,5.06 18.87,18.87 0 0 1 -1.08,2.38 19.88,19.88 0 0 1 -1.42,2.18 19.29,19.29 0 0 1 -3.62,3.71 14.78,14.78 0 0 1 -4.51,2.47 z" fill="#723717" id="path38017"/>
  <path d="m 204.41,113.39 a 25,25 0 0 1 0.5,6.69 31.57,31.57 0 0 1 -1.07,6.66 25.56,25.56 0 0 1 -2.74,6.26 16.75,16.75 0 0 1 -4.65,4.87 39.68,39.68 0 0 0 3.28,-5.62 45.54,45.54 0 0 0 2.19,-6 c 0.59,-2.06 1,-4.16 1.44,-6.29 0.44,-2.13 0.73,-4.35 1.05,-6.57 z" fill="#723717" id="path38019"/>
  <g id="g39101">
    <circle cx="232.07001" cy="188.73" r="35.619999" fill="#d87d3e" id="circle38023"/>
    <circle cx="232.07001" cy="198.25999" r="35.619999" fill="#ffffff" id="circle38025"/>
    <circle cx="214.38" cy="209.08" r="12.56" fill="#ffffff" id="circle38029"/>
    <path d="m 252.56845,187.17093 a 15.314248,15.314248 0 0 1 -22.1077,-20.58903 26.663717,26.663717 0 1 0 22.1077,20.58903 z m -37.35239,23.05832 a 6.3181416,6.3181416 0 1 1 6.32974,-6.31814 6.3181416,6.3181416 0 0 1 -6.32974,6.31814 z" fill="#414042" id="path38228" style="fill:#15141a;fill-opacity:1;stroke-width:1.15929" inkscape:path-effect="#path-effect39083" inkscape:original-d="m 252.56845,187.17093 a 15.314248,15.314248 0 0 1 -22.1077,-20.58903 26.663717,26.663717 0 1 0 22.1077,20.58903 z m -37.35239,23.05832 a 6.3181416,6.3181416 0 1 1 6.32974,-6.31814 6.3181416,6.3181416 0 0 1 -6.32974,6.31814 z" class="UnoptimicedTransforms"/>
  </g>
  <circle cx="67.93" cy="188.73" r="35.619999" fill="#d87d3e" id="circle38021"/>
  <circle cx="67.93" cy="198.25999" r="35.619999" fill="#ffffff" id="circle38031"/>
  <circle cx="64.410004" cy="209.08" r="12.56" fill="#ffffff" id="circle38035"/>
  <path class="UnoptimicedTransforms" id="path39085" d="m 252.56845,187.17093 a 15.314248,15.314248 0 0 1 -22.1077,-20.58903 26.663717,26.663717 0 1 0 22.1077,20.58903 z m -37.35239,23.05832 a 6.3181416,6.3181416 0 1 1 6.32974,-6.31814 6.3181416,6.3181416 0 0 1 -6.32974,6.31814 z" style="fill:#15141a;fill-opacity:1;stroke-width:1.15929" fill="#414042" transform="translate(-153.07964)"/>
</svg>