<svg id="Layer_1" data-name="Layer 1" xmlns="http://www.w3.org/2000/svg" xmlns:xlink="http://www.w3.org/1999/xlink" viewBox="0 0 300 345"><defs><style>.cls-1{fill:url(#linear-gradient);}.cls-2{fill:url(#linear-gradient-2);}.cls-3{fill:#524760;}.cls-4{fill:#8f78a5;}.cls-5{fill:#bba7ce;}.cls-6{fill:#2a1a44;}.cls-7{fill:#fff;}.cls-8{fill:#d8d1ba;stroke:#878173;}.cls-10,.cls-8{stroke-linecap:round;stroke-linejoin:round;stroke-width:12px;}.cls-9{fill:#e9ddf4;}.cls-10{fill:none;stroke:#2a1a44;}.cls-11{fill:#beb5c9;}.cls-12{fill:#b3acc6;}.cls-13{fill:#e2e1ea;}.cls-14{fill:#665877;opacity:0.55;isolation:isolate;}</style><linearGradient id="linear-gradient" x1="150" y1="-901.04" x2="150" y2="-545.77" gradientTransform="matrix(1, 0, 0, -1, 0, -479.13)" gradientUnits="userSpaceOnUse"><stop offset="0" stop-color="#8f78a5"/><stop offset="0.09" stop-color="#89739e"/><stop offset="0.23" stop-color="#78668b"/><stop offset="0.39" stop-color="#5d506c"/><stop offset="0.44" stop-color="#524760"/></linearGradient><linearGradient id="linear-gradient-2" x1="150" y1="-918.04" x2="150" y2="-562.77" xlink:href="#linear-gradient"/></defs><path class="cls-1" d="M36.38,198H263.62c20.09,0,36.38,18.31,36.38,40.89v48.22C300,309.7,283.71,328,263.62,328H36.38C16.29,328,0,309.7,0,287.11V238.89C0,216.31,16.29,198,36.38,198Z"/><path class="cls-2" d="M36.38,215H263.62c20.09,0,36.38,18.31,36.38,40.89v48.22C300,326.7,283.71,345,263.62,345H36.38C16.29,345,0,326.7,0,304.11V255.89C0,233.31,16.29,215,36.38,215Z"/><path class="cls-3" d="M260.75,152l27.51-13.55c6.48,0,11.74-6.5,11.74-14.53V43.59c0-12.67-12.26-19.35-19.72-10.66-2.41,2.81-6.94,16.64-11.37,32.9-2.08,7.62-4.13,15.77-5.93,23.56C263,89.39,248.89,137.32,260.75,152Z"/><path class="cls-4" d="M268.91,65.81C273.67,82.08,288.42,127,300,103V43.59c0-12.67-12.26-19.35-19.72-10.66C277.87,35.74,273.34,49.57,268.91,65.81Z"/><ellipse class="cls-5" cx="288.77" cy="52.51" rx="7.75" ry="16.47" transform="translate(-0.15 0.86) rotate(-0.17)"/><path class="cls-3" d="M39.25,152,11.74,138.45C5.26,138.45,0,132,0,123.92V43.59C0,30.92,12.26,24.24,19.72,32.93c2.41,2.81,6.94,16.64,11.37,32.9C33.17,73.45,35.22,81.6,37,89.39,37,89.39,51.11,137.32,39.25,152Z"/><path class="cls-4" d="M31.09,65.81C26.33,82.1,11.58,127.06,0,103V43.59C0,30.92,12.26,24.24,19.72,32.93,22.13,35.74,26.66,49.57,31.09,65.81Z"/><path class="cls-4" d="M300,195v67a36.38,36.38,0,0,1-36.38,36.38H36.38A36.38,36.38,0,0,1,0,262H0V195A150,150,0,0,1,218.34,61.44a147.9,147.9,0,0,1,16.55,9.89A150.12,150.12,0,0,1,300,195Z"/><path class="cls-3" d="M280.55,201.36S284.46,249,250.35,249s-39.09,10.3-62.18-11-4.27-44.41-4.27-44.41Z"/><path class="cls-6" d="M226.1,177.31c-24.35,3.57-43.57,10.11-40,34.46h0a44.59,44.59,0,0,0,88.23-13C270.76,174.38,250.44,173.74,226.1,177.31Z"/><path class="cls-7" d="M227.16,185.54c-19.83,3.46-35.35,9.49-32.11,28s21.95,30.8,41.78,27.33,33.29-21.32,30-39.87S247,182.08,227.16,185.54Z"/><path class="cls-6" d="M251.36,207.72a13.8,13.8,0,0,1-19.86-18.61,20,20,0,0,0-3.46-.21,24.05,24.05,0,1,0,24,24.16,21.85,21.85,0,0,0-.63-5.34Z"/><path class="cls-7" d="M217.69,228.53a5.74,5.74,0,0,1-5.75-5.73h0a5.75,5.75,0,1,1,5.79,5.75Z"/><rect class="cls-4" x="177.93" y="148.29" width="114.85" height="43.99"/><path class="cls-3" d="M167.43,191.81a11,11,0,0,0,10.88,11l103.48.72a11,11,0,0,0,11-10.77v-.57H292L193.15,184c-5.76-.47-10.35-4.59-10.19-9.15l1.28-38.15a7.37,7.37,0,0,1,4.23-6.18h-9.7a11,11,0,0,0-11,10.89Z"/><ellipse class="cls-5" cx="273.22" cy="248.76" rx="18.79" ry="14.04" transform="translate(-48.48 66.99) rotate(-12.85)"/><path class="cls-8" d="M249,266s-2.94-29.39-12.78-34.31S206,260.87,206,260.87"/><ellipse class="cls-5" cx="219.6" cy="165.91" rx="16.58" ry="29.47" transform="translate(33.69 368.86) rotate(-84.58)"/><ellipse class="cls-5" cx="246.32" cy="144.59" rx="9.44" ry="9.68" transform="translate(79.11 376.15) rotate(-84.58)"/><path class="cls-3" d="M184,148c2-11,29-14,24-16-24-3-28-1-28-1Z"/><path class="cls-3" d="M19.45,201.36S15.54,249,49.65,249s39.09,10.3,62.18-11,4.27-44.41,4.27-44.41Z"/><path class="cls-6" d="M73.9,177.31c24.35,3.57,43.57,10.11,40,34.46h0a44.59,44.59,0,0,1-88.23-13C29.24,174.38,49.56,173.74,73.9,177.31Z"/><path class="cls-7" d="M72.84,185.54c19.83,3.46,35.35,9.49,32.11,28s-22,30.8-41.78,27.33-33.29-21.32-30-39.87S53,182.08,72.84,185.54Z"/><path class="cls-6" d="M95.48,207.72a13.8,13.8,0,0,1-19.86-18.61,20,20,0,0,0-3.46-.21,24.05,24.05,0,1,0,24,24.16,21.85,21.85,0,0,0-.63-5.34Z"/><path class="cls-7" d="M61.81,228.53a5.74,5.74,0,1,1,5.75-5.73h0a5.74,5.74,0,0,1-5.71,5.75h0Z"/><rect class="cls-4" x="7.22" y="148.29" width="114.85" height="43.99"/><path class="cls-3" d="M132.57,191.81a11,11,0,0,1-10.88,11l-103.48.72a11,11,0,0,1-11-10.72v-.57H8l98.85-8.19c5.76-.47,10.35-4.59,10.19-9.15l-1.28-38.15a7.37,7.37,0,0,0-4.23-6.18h9.7a11,11,0,0,1,11,10.89Z"/><ellipse class="cls-5" cx="26.77" cy="248.76" rx="14.04" ry="18.79" transform="translate(-221.72 219.54) rotate(-77.15)"/><path class="cls-8" d="M53,266s.94-29.39,10.78-34.31S94,260.87,94,260.87"/><ellipse class="cls-5" cx="80.41" cy="165.9" rx="29.47" ry="16.58" transform="translate(-15.31 8.34) rotate(-5.42)"/><ellipse class="cls-5" cx="53.68" cy="144.59" rx="9.68" ry="9.44" transform="translate(-13.42 5.72) rotate(-5.42)"/><path class="cls-3" d="M195.05,265.23l-16.73,9.91a55,55,0,0,1-56.64,0L105,265.23a14.46,14.46,0,0,1-6.88-14.06A14.1,14.1,0,0,1,107.37,239l1.77-.63a19.36,19.36,0,0,0,6.27-3.65l9.82-8.38a37.61,37.61,0,0,1,49.64,0l9.82,8.38a19.36,19.36,0,0,0,6.27,3.65l1.77.63A14.1,14.1,0,0,1,202,251.17,14.44,14.44,0,0,1,195.05,265.23Z"/><ellipse class="cls-5" cx="11.24" cy="52.53" rx="16.47" ry="7.75" transform="translate(-41.32 63.61) rotate(-89.83)"/><path class="cls-3" d="M116,148c-2-11-29-14-24-16,24-3,28-1,28-1Z"/><path class="cls-3" d="M189.33,322.66l-8.22-20.15a6.32,6.32,0,0,0-4-3.69,7,7,0,0,0-3.3-.82H126.1a6.91,6.91,0,0,0-3.5.92,6.32,6.32,0,0,0-3.71,3.59l-8.22,20.15a6.44,6.44,0,0,0,9.14,8l10.61-6,14,15.76a7.14,7.14,0,0,0,10.05.95,8.52,8.52,0,0,0,.95-.95l14.07-15.8,10.68,6.07a6.44,6.44,0,0,0,9.16-8Z"/><path class="cls-9" d="M189.33,314.66l-8.22-20.15a6.32,6.32,0,0,0-4-3.69,7,7,0,0,0-3.3-.82H126.1a6.91,6.91,0,0,0-3.5.92,6.32,6.32,0,0,0-3.71,3.59l-8.22,20.15a6.44,6.44,0,0,0,9.14,8l10.61-6,14,15.76a7.14,7.14,0,0,0,10.05.95,8.52,8.52,0,0,0,.95-.95l14.07-15.8,10.68,6.07a6.44,6.44,0,0,0,9.16-8Z"/><path class="cls-10" d="M39,269c10,11,52-11,80-14,36,0,32.5-30,32.5-30"/><path class="cls-10" d="M261.59,269c-10,11-52-11-80-14-36,0-32.5-30-32.5-30"/><path class="cls-3" d="M178.47,230c-5.36-10-14.16-19.14-28.52-19.14s-23.09,9-28.42,19c3.64-13,11.61-29.85,28.43-29.85S174.81,216.93,178.47,230Z"/><path class="cls-3" d="M217.52,145.37c-15.08,1.24-31.6-2.45-45.93-6.84a167.27,167.27,0,0,1-39.82-18.24c-6.65,8.67-18.43,13-29.15,8.66-8.94-3.66-14.1-12-14.89-20.92-5.79,2.18-11.88,3.18-18,1.11C60.94,106.21,55.24,98,57.18,88.72c2.1-10.07,11.44-17.59,19.14-23.56Q78.45,63.5,80.64,62a150.43,150.43,0,0,1,116-9.56c-.35,1.08-.74,2.15-1.15,3.21a116.3,116.3,0,0,1,18.21,4.27c1.5.49,3,1,4.6,1.55,5.86,2,11.84,4.66,15.95,9.19.21.23.41.46.6.7,4.64,5.68,5,13.45.18,19.27a17.81,17.81,0,0,1-6.32,4.79c7.67,6.33,13.72,14.17,14.32,24.85C243.94,135.62,231.53,144.22,217.52,145.37Z"/><path class="cls-9" d="M243.07,112.24c-.6-10.68-6.65-18.52-14.32-24.85a17.81,17.81,0,0,0,6.32-4.79c5.06-6.06,4.42-14.24-.78-20s-11.82-7.79-20.55-10.7a157.09,157.09,0,0,0-16.05-3.34,23.31,23.31,0,0,0,3.48-2.7c4.65-4.49,5.34-11.82.42-16.46-5.49-5.19-12.77-3.65-19.32-1.87Q164.6,32.33,147,37.19a17.6,17.6,0,0,0,.37-7.57c-1.13-6.18-5.54-11.75-12-12.67-7.13-1-12.66,3.82-16.89,8.93-5.32,6.42-10.47,13-15.67,19.51C90.48,48.87,81.7,53,76.32,57.16c-7.7,6-17,13.49-19.14,23.56-1.94,9.28,3.76,17.5,12.51,20.42,6.16,2.07,12.25,1.07,18-1.11.79,8.92,6,17.26,14.89,20.92,10.72,4.39,22.5,0,29.15-8.66a167.27,167.27,0,0,0,39.82,18.24c14.33,4.39,30.85,8.08,45.93,6.84C231.53,136.23,243.94,127.62,243.07,112.24Z"/><path class="cls-11" d="M217.52,137.37c-15.08,1.24-31.6-2.45-45.93-6.84a167.27,167.27,0,0,1-39.82-18.24c-6.65,8.67-18.43,13-29.15,8.66-8.94-3.66-14.1-12-14.89-20.92-5.79,2.18-11.88,3.18-18,1.11C60.94,98.21,55.24,90,57.18,80.72a26.44,26.44,0,0,1,5.52-11c3.87-4.86,9-9,13.62-12.52,5.38-4.2,14.16-8.29,26.49-11.78,5.2-6.51,10.35-13.08,15.67-19.5,4.23-5.11,9.76-10,16.89-8.93,6.46.92,10.87,6.49,11.95,12.67a17.6,17.6,0,0,1-.37,7.57q17.66-4.84,35.32-9.66c6.55-1.78,13.83-3.32,19.32,1.87,4.92,4.64,4.23,12-.42,16.46a22.14,22.14,0,0,1-3.48,2.69,159.83,159.83,0,0,1,16.05,3.34c8.73,2.9,15.35,5,20.55,10.74a16.63,16.63,0,0,1,3.05,4.75h0a14.51,14.51,0,0,1-2.29,15.19,17.81,17.81,0,0,1-6.32,4.79c7.47,6.16,13.4,13.76,14.26,24l.06.83C243.94,127.62,231.53,136.22,217.52,137.37Z"/><path class="cls-9" d="M243,111.41a33.45,33.45,0,0,1-17.14,6c-15.39,1.24-32.26-2.45-46.88-6.84a172.22,172.22,0,0,1-40.65-18.24c-6.79,8.67-18.82,13-29.77,8.66A24.5,24.5,0,0,1,93.38,80C87.47,82.21,81.25,83.21,75,81.14A19,19,0,0,1,62.7,69.68c3.87-4.86,9-9,13.62-12.52C81.7,53,90.48,48.87,102.81,45.38c5.2-6.51,10.35-13.08,15.67-19.5,4.23-5.11,9.76-10,16.89-8.93,6.46.92,10.87,6.49,11.95,12.67a17.6,17.6,0,0,1-.37,7.57q17.66-4.84,35.32-9.66c6.55-1.78,13.83-3.32,19.32,1.87,4.92,4.64,4.23,12-.42,16.46a22.14,22.14,0,0,1-3.48,2.69,159.83,159.83,0,0,1,16.05,3.34c8.73,2.9,15.35,5,20.55,10.74a16.63,16.63,0,0,1,3.05,4.75h0a14.51,14.51,0,0,1-2.29,15.19,17.81,17.81,0,0,1-6.32,4.79C236.22,93.55,242.15,101.15,243,111.41Z"/><path class="cls-12" d="M150,272.5a52.12,52.12,0,0,1-26.54-7.37l-16.72-9.91a11,11,0,0,1-5.18-10.71,10.62,10.62,0,0,1,6.92-9.2l1.77-.63a23,23,0,0,0,7.39-4.29l9.81-8.38a34.12,34.12,0,0,1,45.1,0l9.81,8.38a23,23,0,0,0,7.39,4.29l1.77.63a10.62,10.62,0,0,1,6.92,9.2,11,11,0,0,1-5.18,10.71l-16.72,9.91A52.12,52.12,0,0,1,150,272.5Z"/><path class="cls-12" d="M150,217a31.1,31.1,0,0,1,20.27,7.67l9.82,8.39a26.87,26.87,0,0,0,8.49,4.93l1.78.62c5.61,2,6.31,10.51,1.12,13.6l-16.73,9.91a48,48,0,0,1-49.5,0l-16.73-9.91c-5.19-3.09-4.49-11.62,1.12-13.6l1.78-.62a26.87,26.87,0,0,0,8.49-4.93l9.82-8.39A31.1,31.1,0,0,1,150,217m0-7a38.33,38.33,0,0,0-24.82,9.35l-9.82,8.38a19.36,19.36,0,0,1-6.27,3.65l-1.77.63a14.1,14.1,0,0,0-9.25,12.16A14.46,14.46,0,0,0,105,258.23l16.73,9.91a55,55,0,0,0,56.64,0l16.73-9.91a14.46,14.46,0,0,0,6.9-14.06A14.1,14.1,0,0,0,192.73,232l-1.77-.63a19.36,19.36,0,0,1-6.27-3.65l-9.82-8.38A38.32,38.32,0,0,0,150,210Z"/><ellipse class="cls-13" cx="150" cy="225" rx="21" ry="12"/><circle class="cls-14" cx="133" cy="245" r="7"/><circle class="cls-14" cx="141" cy="258" r="5"/><circle class="cls-14" cx="152" cy="250" r="6"/><circle class="cls-14" cx="163.5" cy="259.5" r="4.5"/><circle class="cls-14" cx="172.5" cy="243.5" r="4.5"/><circle class="cls-14" cx="179.5" cy="252.5" r="3.5"/><circle class="cls-14" cx="122.5" cy="251.5" r="3.5"/></svg>