<svg id="Layer_1" data-name="Layer 1" xmlns="http://www.w3.org/2000/svg" xmlns:xlink="http://www.w3.org/1999/xlink" viewBox="0 0 300 345"><defs><style>.cls-1{fill:url(#linear-gradient);}.cls-2{fill:url(#linear-gradient-2);}.cls-3{fill:#a65641;}.cls-4{fill:#d69b5a;}.cls-5{fill:#d38c2b;}.cls-6{fill:#e5ab70;}.cls-7{fill:#854d25;}.cls-8{fill:#a46735;}.cls-9{fill:#965829;}.cls-10{fill:#753e1a;}</style><linearGradient id="linear-gradient" x1="150" y1="356.11" x2="150" y2="161.16" gradientUnits="userSpaceOnUse"><stop offset="0" stop-color="#d69b5a"/><stop offset="0.5" stop-color="#954c33"/></linearGradient><linearGradient id="linear-gradient-2" x1="150" y1="354.19" x2="150" y2="242.16" gradientUnits="userSpaceOnUse"><stop offset="0.06" stop-color="#ea8844"/><stop offset="0.52" stop-color="#8f3429"/></linearGradient></defs><g id="dinosaur"><path class="cls-1" d="M263.62,345H36.38A36.38,36.38,0,0,1,0,308.62V259.14H300v49.48A36.38,36.38,0,0,1,263.62,345Z"/><path class="cls-2" d="M237.36,317.52c-27.48-2.72-24.15-12.83-56.76-11.47S143.17,323.71,120.07,323,94,311.48,70,310.45s-35,5-52.23-1.23A35,35,0,0,1,0,295.72v10a35,35,0,0,0,17.73,13.5c17.21,6.19,28.23.19,52.23,1.23s27,11.75,50.11,12.51S148,317.37,180.6,316s29.28,8.76,56.76,11.47c23.32,2.31,49.24-2.14,62.64-18.49V299C286.6,315.38,260.68,319.83,237.36,317.52Z"/><path class="cls-3" d="M204.64,331.67c0,3.63-6.84,5.78-11.1,5.78s-7.69-.91-7.69-5.78,3.44-5.77,7.69-5.77S204.64,328.05,204.64,331.67Z"/><circle class="cls-3" cx="177.58" cy="326.24" r="5.43"/><path class="cls-3" d="M129.62,312.29c0,2.72-5.86,5.2-8.73,5.2s-7.56-1.19-7.56-5.2,4.69-5.2,7.56-5.2S129.62,309.57,129.62,312.29Z"/><path class="cls-3" d="M61.51,332.33c-.6-2.19,3.6-5.47,5.92-6.09s6.36-.69,7.23,2.55-2.65,5.21-5,5.84S62.1,334.53,61.51,332.33Z"/><path class="cls-3" d="M137.12,305.49c.82,1.63.66,4.56-1,5.39s-4.1-.8-4.92-2.42a3.3,3.3,0,1,1,5.9-3Z"/><rect class="cls-4" y="45" width="300" height="253.39" rx="36.38"/><path class="cls-5" d="M15,149.47c3,2.05,8.62-2.39,11-5.89s3.59-6.87-.42-9.62-6.71-.41-9.12,3.1S12,147.43,15,149.47Z"/><path class="cls-5" d="M241.34,88.16c1,4.37,9.79,5.16,14.92,4s9-3.12,7.76-9-5.69-6-10.82-4.93S240.39,83.79,241.34,88.16Z"/><path class="cls-5" d="M43.44,78.71c1,4.37,9.78,5.16,14.91,4s9.05-3.13,7.76-9-5.68-6.06-10.81-4.94S42.48,74.34,43.44,78.71Z"/><path class="cls-5" d="M216.47,276c.95,4.37,9.78,5.16,14.91,4s9.05-3.12,7.76-9-5.68-6.05-10.81-4.93S215.51,271.59,216.47,276Z"/><circle class="cls-5" cx="23.93" cy="96.14" r="5.43"/><circle class="cls-5" cx="166.39" cy="66.03" r="3.75"/><circle class="cls-5" cx="219.74" cy="86.96" r="3.75"/><circle class="cls-5" cx="246.8" cy="123.47" r="3.75"/><path class="cls-5" d="M219.74,161.5c0,2.72,5.87,5.2,8.74,5.2s7.55-1.18,7.55-5.2-4.68-5.19-7.55-5.19S219.74,158.79,219.74,161.5Z"/><path class="cls-5" d="M127.24,273c0,2.71,5.87,5.19,8.73,5.19s7.56-1.18,7.56-5.19-4.69-5.2-7.56-5.2S127.24,270.27,127.24,273Z"/><path class="cls-5" d="M46.71,282.49c0,2.72,5.87,5.2,8.74,5.2s7.56-1.18,7.56-5.2-4.69-5.2-7.56-5.2S46.71,279.77,46.71,282.49Z"/><path class="cls-5" d="M292.47,161.42c.59-2.2-3.61-5.47-5.93-6.1s-6.35-.69-7.23,2.55,2.66,5.22,5,5.84S291.88,163.61,292.47,161.42Z"/><path class="cls-5" d="M187.89,78.13c-2.28-2.18-9,.75-11.35,3.15s-5.06,7.28-1.7,10.49,8.1.24,10.4-2.16S190.16,80.3,187.89,78.13Z"/><path class="cls-5" d="M109.52,99.38c-2.27-2.17-9,.75-11.35,3.16s-5.06,7.27-1.7,10.49,8.11.23,10.41-2.17S111.8,101.56,109.52,99.38Z"/><path class="cls-5" d="M215.64,151.59c-.82,1.63-.66,4.56,1,5.39s4.1-.79,4.92-2.42a3.3,3.3,0,1,0-5.9-3Z"/><path class="cls-5" d="M266.39,254.67c0,2.71,5.87,5.19,8.74,5.19s7.55-1.18,7.55-5.19-4.68-5.2-7.55-5.2S266.39,252,266.39,254.67Z"/><path class="cls-5" d="M262.29,244.75c-.82,1.63-.66,4.57,1,5.4s4.1-.8,4.92-2.43a3.3,3.3,0,0,0-5.9-3Z"/><path class="cls-5" d="M162.88,282.65c-.82,1.63-.66,4.57,1,5.39s4.1-.79,4.92-2.42a3.3,3.3,0,0,0-5.9-3Z"/><path class="cls-5" d="M22,199.4c-2.7-1.85-7.8,2.16-10,5.34s-3.25,6.21.38,8.69,6.07.38,8.25-2.79S24.74,201.25,22,199.4Z"/><path class="cls-6" d="M253.38,59.59c-.86-4-8.85-4.67-13.49-3.65s-8.18,2.83-7,8.14,5.14,5.48,9.78,4.46S254.25,63.54,253.38,59.59Z"/><path class="cls-6" d="M49.39,149.09c-.87-4-8.85-4.67-13.49-3.65s-8.19,2.83-7,8.14S34,159.06,38.66,158,50.25,153,49.39,149.09Z"/><path class="cls-6" d="M20.5,228.6c2.4,3.26,10,.65,13.8-2.17s6.32-5.93,3.09-10.3-6.93-2.91-10.75-.08S18.09,225.34,20.5,228.6Z"/><path class="cls-6" d="M282.58,278c-.87-3.95-8.85-4.67-13.5-3.65s-8.18,2.83-7,8.14,5.14,5.48,9.79,4.46S283.44,282,282.58,278Z"/><circle class="cls-6" cx="13.91" cy="247.65" r="4.92"/><circle class="cls-6" cx="209.98" cy="287.74" r="3.39"/><circle class="cls-6" cx="161.71" cy="268.8" r="3.39"/><circle class="cls-6" cx="195.24" cy="137.57" r="3.39"/><path class="cls-6" d="M213.16,113c0-3.06-6.63-5.86-9.87-5.86s-8.53,1.33-8.53,5.86,5.29,5.87,8.53,5.87S213.16,116.1,213.16,113Z"/><path class="cls-6" d="M288.46,119.62c0-2.45-5.31-4.7-7.91-4.7s-6.84,1.07-6.84,4.7,4.25,4.71,6.84,4.71S288.46,122.08,288.46,119.62Z"/><path class="cls-6" d="M269.55,169c0-2.46-5.31-4.7-7.9-4.7s-6.84,1.07-6.84,4.7,4.24,4.7,6.84,4.7S269.55,171.44,269.55,169Z"/><path class="cls-6" d="M119.53,67c0-2.46-5.31-4.7-7.91-4.7s-6.84,1.07-6.84,4.7,4.25,4.7,6.84,4.7S119.53,69.44,119.53,67Z"/><path class="cls-6" d="M39.4,73c0-2.45-5.3-4.7-7.9-4.7s-6.84,1.07-6.84,4.7,4.24,4.7,6.84,4.7S39.4,75.43,39.4,73Z"/><path class="cls-6" d="M166.16,113.8c-.53,2,3.27,5,5.36,5.52s5.75.62,6.54-2.31-2.4-4.72-4.49-5.28S166.7,111.82,166.16,113.8Z"/><path class="cls-6" d="M249,156.23c2.06,2,8.19-.68,10.27-2.85s4.58-6.58,1.54-9.49-7.34-.22-9.42,2S246.9,154.27,249,156.23Z"/><path class="cls-6" d="M181.81,284.65c2.06,2,8.19-.68,10.27-2.86s4.58-6.58,1.54-9.49-7.34-.21-9.42,2S179.75,282.68,181.81,284.65Z"/><path class="cls-6" d="M217.79,124.22c.92-1.84.74-5.15-1.12-6.08s-4.62.89-5.54,2.73a3.73,3.73,0,1,0,6.66,3.35Z"/><path class="cls-6" d="M256.21,104.88c.74-1.48.6-4.13-.89-4.88s-3.71.72-4.45,2.19a3,3,0,1,0,5.34,2.69Z"/><path class="cls-7" d="M281.63,228.73s-6.44,15.16-10.06,16-.67-14.14-.67-14.14-8.38,18.25-11.3,17.27-3.32-18.5-3.32-18.5-6.19,14.6-10,14.11-3.86-15.41-3.86-15.41-5.26,12.39-8.55,12S232,227,232,227s-5.44,11.81-7.75,11.65-3.69-16-3.69-16-.33,11.85-3.46,11.63-4.81-12.52-4.81-12.52.23,10.84-4.25,10.62-3.8-11.07-3.8-11.07-2.24,11.74-5.7,11.18-2.35-14-2.35-14-4.92,12.3-8.83,11.74-3-13.62-3-13.62-2.61,12.26-6.19,12.73-3.93-13.53-3.93-13.53-1.06,11.4-5.31,11.29S164.11,215,164.11,215"/><path class="cls-7" d="M259.56,261.23s.47-6.87-1.77-7.45-7.88,4.64-7.88,4.64,2.07-6.72-1.09-7.73-9,4.84-9,4.84,4.66-10.57,1-11.74-14.4,8-14.4,8,3.62-9.44.92-10.94-15.08,7.07-15.08,7.07,3.78-10.5.07-10.35-9.19,8-9.19,8,.61-9.45-2.74-10.46-8.07,9-8.07,9,1.7-10.63-1-11.3-7.15,8.72-7.15,8.72.89-8.34-2.35-8.75-9.28,5.4-9.28,5.4,3-7.83-.9-9.17-9.61,5.7-9.61,5.7,2.91-6.53-.45-8.63-8.38,6.51-8.38,6.51"/><path class="cls-8" d="M279.46,231.18a12.68,12.68,0,0,0,13.44-11.93c.59-10.68-1.33-25.64-14.74-32.91-22.16-12-38.72-5.91-56.26-17.25-3.38-2.18-20.68-13.72-39.53-28.14C171.76,132.83,163.44,121.61,150,116c-13.74-5.74-38.17-8.91-49.16-7.17-87.22,13.84-79.3,107.15-24,125,22.87,7.38,59.55,15.69,99.32,24.46,47.28,10.42,65.83,17,76.35,16.06,4.2-.39,8.22-.43,10.49-4A6.92,6.92,0,0,0,258.94,260c-27.26-7.09-115.39-30.32-114.37-34,2.72-9.88,20.25-5.84,31.38-4.69C207.66,224.52,256.58,229.81,279.46,231.18Z"/><path class="cls-9" d="M176,221.25c-4.36-.45-9.7-1.34-14.75-1.67,3.59-8.62,20.29-4.82,31-3.71,29.6,3,74.19,7.86,98.6,9.6a12.72,12.72,0,0,1-11.38,5.71C256.58,229.81,207.66,224.52,176,221.25Z"/><path class="cls-9" d="M92,110.6c-59.75,26.12-48.09,102,1.21,117.87,22.87,7.38,59.54,15.68,99.32,24.46,40.46,8.92,59.88,15,71.23,16a6.84,6.84,0,0,1-.68,1.42c-2.27,3.59-6.29,3.63-10.49,4-10.52,1-29.07-5.64-76.35-16.06-39.77-8.77-76.45-17.08-99.32-24.46C23.5,216.62,14.26,129.19,92,110.6Z"/><path class="cls-8" d="M164,103.91c14.64-9.62-3.5-28.63-13.73-37.74a10.47,10.47,0,0,0-12.83-.83c-8.59,5.82-22.05,16.42-19.26,24.11C124.76,107.69,155.6,109.4,164,103.91Z"/><path class="cls-8" d="M55.05,71.69a10.42,10.42,0,0,1,12.86-7.46c12,3.33,30.7,10.19,32,20.77,2,15.67-33.36,28.76-44,21.1C48.9,101,52.11,83.11,55.05,71.69Z"/><path class="cls-9" d="M164,96.47a11.68,11.68,0,0,0,4.91-5.88c1.4,5.06.43,9.82-4.91,13.32-8.36,5.49-39.2,3.78-45.82-14.46a8,8,0,0,1,.58-6.06C126.37,100.33,155.82,101.82,164,96.47Z"/><path class="cls-8" d="M47.68,121.74c3.09-15.19-29.21-10.6-29.21-10.6s-5.88,22,1.19,25.29C31.26,141.8,46.37,128.19,47.68,121.74Z"/><path class="cls-9" d="M41,118.5a7.11,7.11,0,0,0-1.92-7c5.59,1.35,9.83,4.25,8.62,10.21-1.31,6.45-16.42,20.06-28,14.69a4.72,4.72,0,0,1-2.09-2.06C28.21,135.18,39.83,124.13,41,118.5Z"/><path class="cls-8" d="M24.08,160.33c-3.45-4.51-8.38-2-12.55,1.83a12.69,12.69,0,0,0,.25,19c2.38,2,4.84,3.26,6.76,2.4C27.35,179.64,27.1,164.28,24.08,160.33Z"/><path class="cls-9" d="M18.91,162.54A5.37,5.37,0,0,0,14,160.17c3.54-2.52,7.3-3.49,10.09.16,3,3.95,3.27,19.31-5.54,23.25a3.53,3.53,0,0,1-2.21.17C22.07,178.09,21.54,166,18.91,162.54Z"/><path class="cls-9" d="M56,98.66c9.46,6.83,38.5-2.82,43.35-16.08A10.78,10.78,0,0,1,100,85c2,15.67-33.36,28.76-44,21.1-3.87-2.79-4.65-9.42-4.09-16.72C52.28,93.49,53.49,96.87,56,98.66Z"/><path class="cls-8" d="M39.34,216.72c-5.25-.9-10.22,10.57-10.22,14.34,0,18.08,22.3,24.5,25.93,23.19S67.71,244,67.71,239.06s-8.38-4.68-15.43-10.13C46,224.05,44.6,217.63,39.34,216.72Z"/><path class="cls-8" d="M24,240.86c-4.74-.82-9.22,9.53-9.22,12.93,0,16.31,20.12,22.1,23.4,20.92S49.57,265.42,49.57,261s-7.56-4.22-13.92-9.14C30,247.46,28.72,241.67,24,240.86Z"/><path class="cls-9" d="M32.51,221.74a4.12,4.12,0,0,0,0,.48c0,20.29,25,27.49,29.1,26a8.36,8.36,0,0,0,1.72-.89c-2.82,3.3-6.3,6.2-8.25,6.9-3.63,1.31-25.93-5.11-25.93-23.19C29.12,229.09,30.47,225,32.51,221.74Z"/><path class="cls-9" d="M16.38,248.08c.3,18,22.59,24.43,26.24,23.12a6.54,6.54,0,0,0,.74-.33,18.4,18.4,0,0,1-5.2,3.84c-3.28,1.18-23.4-4.61-23.4-20.92A16.42,16.42,0,0,1,16.38,248.08Z"/><path class="cls-8" d="M70.46,258.45c0,3.9,3.42,7.06,7.64,7.06s7.92-3.4,7.92-7.06-3.69-7-7.92-7S70.46,254.56,70.46,258.45Z"/><path class="cls-8" d="M69.62,272.37A5.14,5.14,0,0,0,75,277.29c3,0,4.3-2.37,4.3-4.92s-1.35-4.92-4.3-4.92A5.14,5.14,0,0,0,69.62,272.37Z"/><path class="cls-8" d="M61.81,262.07a5.14,5.14,0,0,0,.6,7.23c2.16,2,4.77,1.16,6.49-.71s2.34-4.54.17-6.54A5.14,5.14,0,0,0,61.81,262.07Z"/><path class="cls-8" d="M89.85,258.62c0,5.52,4.42,5.51,8.64,5.51s24.15.39,24.15-5.51-19.93-5.51-24.15-5.51S89.85,253.1,89.85,258.62Z"/><path class="cls-8" d="M83.34,270.52c-1.25,5.37,3.06,6.37,7.17,7.32s23.44,5.84,24.77.1S97.12,268.06,93,267.1,84.59,265.14,83.34,270.52Z"/><path class="cls-7" d="M263.89,214.68c3.93,2.89,9.05,2.61,11.45-.64s1.16-8.24-2.76-11.13-11.17-5.57-14.24-1.42S260,211.78,263.89,214.68Z"/><path class="cls-7" d="M94.91,176.74c0,22.58,15.39,29.44,31.62,29.44s44.23-2.47,47.44-20.51-23.22-39.78-47.44-38.29C110.33,148.37,94.91,154.16,94.91,176.74Z"/><path class="cls-10" d="M272.58,208.17c-3.93-2.9-11.17-5.57-14.24-1.42a7,7,0,0,0-.38.63c-.81-2-.9-4.14.38-5.89,3.07-4.15,10.31-1.48,14.24,1.42,3.43,2.54,4.81,6.67,3.49,9.84A10,10,0,0,0,272.58,208.17Z"/><path class="cls-10" d="M173.46,187.72c-4.34-15.7-26.43-31.09-46.93-29.84-14.87.91-29.06,5.88-31.3,24.13a41.92,41.92,0,0,1-.32-5.27c0-22.58,15.42-28.37,31.62-29.36,24.22-1.49,50.65,20.25,47.44,38.29A16.6,16.6,0,0,1,173.46,187.72Z"/></g></svg>