<svg id="Layer_1" data-name="Layer 1" xmlns="http://www.w3.org/2000/svg" xmlns:xlink="http://www.w3.org/1999/xlink" viewBox="0 0 300 345"><defs><style>.cls-1{fill:url(#linear-gradient);}.cls-2{fill:#d69b5a;}.cls-3{fill:#c07a3f;}.cls-4{fill:#f0e0c1;}.cls-5,.cls-6{fill:#a67568;}.cls-5{fill-opacity:0.2;}</style><linearGradient id="linear-gradient" x1="150" y1="356.11" x2="150" y2="161.16" gradientUnits="userSpaceOnUse"><stop offset="0" stop-color="#d69b5a"/><stop offset="0.5" stop-color="#9a5e39"/></linearGradient></defs><g id="dinosaur"><path class="cls-1" d="M263.62,345H36.38A36.38,36.38,0,0,1,0,308.62V259.14H300v49.48A36.38,36.38,0,0,1,263.62,345Z"/><rect class="cls-2" y="45" width="300" height="253.39" rx="36.38"/><path class="cls-3" d="M53.8,184.45,37.47,168.6l2.62.14-6.54,5.06-1.64,1.26a5.11,5.11,0,0,0-1,1.05,4.85,4.85,0,0,0-.88,2.73,5,5,0,0,0,.21,1.43c.05.19.2.58.31.88l.35,1,1.4,3.88,2.81,7.78h0l1,2.05-2.84.63a50.82,50.82,0,0,1-8.8,1.06l-2.2.06H20.55c-.18,0-.23,0-.34,0a4.14,4.14,0,0,0-3.13,1.65,4.52,4.52,0,0,0-.66,1.15,5,5,0,0,0-.3,1.36c0,.24,0,.49,0,.74a4.65,4.65,0,0,0,.15.87,54.91,54.91,0,0,1,1.55,8.91A54.59,54.59,0,0,1,12.5,205a12.6,12.6,0,0,1-.62-1.19,11.06,11.06,0,0,1-.46-1.41,9,9,0,0,1-.15-3A9.21,9.21,0,0,1,14,193.93a9.56,9.56,0,0,1,2.65-1.78,9.35,9.35,0,0,1,3.1-.77c.25,0,.57,0,.77,0H22.2c.73,0,1.46,0,2.2.07a51.79,51.79,0,0,1,8.8,1.05l-1.88,2.68h0l-2.81-7.77-1.4-3.89-.35-1c-.12-.34-.23-.59-.37-1.06a8.78,8.78,0,0,1,3.08-9.56l1.63-1.26,6.54-5L39,164.52l1.25,1.21,16.32,15.85Z"/><path class="cls-3" d="M31.58,116.35a36.24,36.24,0,0,1-2.76-5.91,58.35,58.35,0,0,1-1.88-6.08l-.39-1.54-.19-.77-.1-.41c0-.21-.08-.41-.1-.62A6.47,6.47,0,0,1,29.5,94.6a7.82,7.82,0,0,1,2.11-.76c1-.25,2-.51,3.08-.73l1.54-.34L37,92.6l.4-.08.64-.1a6.42,6.42,0,0,1,4.77,1.39,6.56,6.56,0,0,1,1.6,1.92,7.12,7.12,0,0,1,.49,1.14c.05.19.12.43.15.57l.08.39c.22,1,.44,2.06.63,3.1.39,2.08.72,4.17.92,6.3A44.77,44.77,0,0,1,47,113.7,44.07,44.07,0,0,1,44,107.93c-.87-2-1.61-3.94-2.29-5.94-.34-1-.65-2-1-3l-.12-.37c0-.12-.06-.13-.08-.19a1.41,1.41,0,0,0-.18-.29,1.54,1.54,0,0,0-.49-.43,1.64,1.64,0,0,0-1.19-.2l-2.81.72c-1,.26-2,.48-3.08.72a5.16,5.16,0,0,0-.88.23,1.71,1.71,0,0,0-.47.34,1.55,1.55,0,0,0-.47,1.11v.16a3.19,3.19,0,0,0,.05.37l.11.78.22,1.57a58.07,58.07,0,0,1,.54,6.34A35.11,35.11,0,0,1,31.58,116.35Z"/><path class="cls-3" d="M264.81,165.91c3.21-3.71,6.54-7.3,9.94-10.82.85-.88,1.69-1.77,2.56-2.64A9.08,9.08,0,0,1,281.8,150a8.92,8.92,0,0,1,5.16.4,9.16,9.16,0,0,1,2.26,1.32,10.23,10.23,0,0,1,1,.89c.27.31.61.7.75.9l1.11,1.46.3.39.37.54a7.89,7.89,0,0,1,.61,1.15,8.81,8.81,0,0,1,.62,5.06,8.91,8.91,0,0,1-.81,2.43,8.66,8.66,0,0,1-.66,1.1l-.37.5-.29.35c-.77,1-1.54,1.9-2.34,2.83a61.46,61.46,0,0,1-10.83,10.19,61.08,61.08,0,0,1,7.17-13c.7-1,1.43-2,2.15-3l.27-.37.17-.25a3.89,3.89,0,0,0,.25-.5,3.46,3.46,0,0,0,.28-1.06,3.66,3.66,0,0,0-.38-2.09c-.08-.16-.17-.31-.26-.47l-.16-.21-.27-.34-1.14-1.43c-.22-.29-.3-.35-.42-.5s-.26-.25-.4-.35a3.83,3.83,0,0,0-.91-.5,4,4,0,0,0-2.06-.16,3.59,3.59,0,0,0-1.84,1c-.87.86-1.75,1.7-2.64,2.55-3.52,3.4-7.11,6.73-10.82,9.94Z"/><path class="cls-4" d="M253.55,208.81C210.9,284,150,290.32,96.57,260S17.27,174.22,59.92,99,194.35-4.74,234,17.72,296.2,133.59,253.55,208.81Z"/><path class="cls-5" d="M228.83,243l1.62-1.74.84-.94c.49-.55,1-1.11,1.48-1.68l.9-1.05c.47-.55.94-1.1,1.41-1.67l.93-1.14,1.35-1.68.95-1.21c.44-.57.88-1.14,1.31-1.72l.95-1.27c.44-.59.86-1.18,1.29-1.77l.95-1.32c.43-.6.85-1.22,1.27-1.83.32-.45.63-.9.94-1.36l1.27-1.92c.3-.46.61-.91.9-1.37l1.31-2.05.84-1.34c.48-.77.95-1.55,1.42-2.34l.7-1.16c.7-1.18,1.4-2.38,2.09-3.6.61-1.07,1.2-2.15,1.78-3.22l.5-1c.41-.78.82-1.56,1.22-2.34l.52-1q.62-1.22,1.2-2.43c.13-.28.27-.56.41-.84,1.07-2.26,2.1-4.53,3.07-6.82l0-.06c.47-1.11.93-2.23,1.38-3.35.12-.29.23-.59.35-.89.36-.86.68-1.74,1-2.61.05-.15.11-.3.16-.44,20.14-54.11,11.46-112.31-10-145,3,33.28-2.91,71.14-22.25,105.25-13.53,23.86-46.59,39.08-51.59,37.62l-2.64-.77a9.85,9.85,0,0,0-10.8,3.74l-4.18,5.86,0,0-1.85-.24c-5.27-.68-8.38,6.12-13.93,4.42s-3.91-14.1-3.91-14.1a10,10,0,0,0-8.86-10.32l-5.18-.61a10,10,0,0,0-8.32,2.9,10.38,10.38,0,0,0-2.89,6.29S118.26,195.2,104,187c-2.5-1.43-5.79,0-8.17,1.62l-5.14,3.53a8,8,0,0,0-2.16,2.62,6.76,6.76,0,0,1-9,2.5c-1.18-.63-2.37-1.28-3.54-1.95-14.84-8.42-27.55-18.77-37.26-31A97.28,97.28,0,0,0,41,191.57h0c.21.9.44,1.79.67,2.68a3.57,3.57,0,0,1,.11.47,8.23,8.23,0,0,0,.54,1.94c.16.43.28.88.42,1.33.33,1,.67,2.1,1,3.14,0,.08.06.15.08.22.34,1,.7,1.91,1.07,2.85l.22.58c.4,1,.82,2,1.25,3a2.14,2.14,0,0,1,.1.22q.61,1.37,1.26,2.7l.3.63c.47,1,1,1.9,1.45,2.84l.13.22c.46.86.94,1.71,1.43,2.56l.39.67c.54.9,1.08,1.8,1.64,2.68l.15.23c.52.81,1,1.62,1.6,2.41l.49.72c.59.85,1.18,1.69,1.8,2.52h0c.3.41.62.8.92,1.21h0l.54.68,1.17,1.49.86,1,1.27,1.53.33.37q1.5,1.72,3.09,3.4l.88.93c.45.47.9.92,1.36,1.38l1,1,1.36,1.3L71,241.58l1.35,1.23,1.25,1.09L75,245.05l1.48,1.23,1.17,1c.87.69,1.75,1.37,2.64,2,.36.28.74.55,1.11.83.58.43,1.16.86,1.75,1.28l1.22.86c.57.41,1.15.81,1.74,1.21l1.23.83,1.84,1.2,1.19.76,2.07,1.28c.34.21.67.42,1,.62,1,.63,2.09,1.24,3.15,1.84.83.48,1.67.94,2.5,1.39l1.42.76,1.09.58,1.7.86.83.42,1.9.92.62.3c.69.33,1.38.64,2.07.95l.47.22c.73.33,1.47.64,2.2,1l.34.15,2.41,1,.14.06c.84.34,1.68.66,2.52,1h0a119.07,119.07,0,0,0,20.57,5.77h.07a96.35,96.35,0,0,0,35.71,0h0a91.74,91.74,0,0,0,21.71-7.1l.15-.07c.82-.38,1.63-.78,2.44-1.19l.34-.18c.75-.38,1.5-.77,2.24-1.18l.45-.25,2.13-1.2.52-.31c.68-.4,1.36-.82,2-1.24l.56-.35c.67-.42,1.34-.86,2-1.3l.57-.38c.67-.45,1.33-.91,2-1.38l.55-.39c.67-.48,1.35-1,2-1.48l.5-.37c.71-.54,1.42-1.1,2.13-1.66l.36-.29c.81-.65,1.61-1.31,2.41-2l.06-.05q3.75-3.18,7.4-6.81l.51-.52c.62-.62,1.24-1.25,1.85-1.89Z"/><path class="cls-2" d="M19.46,241.4,34.39,211a7,7,0,0,1,7.17-3.85l5.54.71a7,7,0,0,1,6,7.87L49.72,241.4l11.93,3,5-19.25a4.64,4.64,0,0,1,8.06-1.81l13.66,16.45,2.13-29.22a5,5,0,0,1,2.18-3.8l5.15-3.53a5,5,0,0,1,7.16,1.52l14,22.88,4.13-38.33a4.54,4.54,0,0,1,5.06-4l5.18.61a4.55,4.55,0,0,1,4,4.68l-1.24,37.07,15-18.26a9.82,9.82,0,0,1,8.85-3.5l5.15.67,6.12-8.59a4.34,4.34,0,0,1,4.75-1.64l2.7.79a4.34,4.34,0,0,1,3,5.11L175,231.85l11.77-7.7a6.94,6.94,0,0,1,9.29,1.57l5,6.45,11.3-18.83a9.92,9.92,0,0,1,7.46-4.77l18.82-2,2.9-10.7a5.15,5.15,0,0,1,5.06-3.79l10.71.18a5.13,5.13,0,0,1,5.06,5.14V215l15.18-8.9a6.37,6.37,0,0,1,8.06,1.35l3.2,3.74a6.37,6.37,0,0,1,.32,7.87l-8,11V279.9H19.46Z"/><path class="cls-3" d="M19.46,241.4c2.21-6.8,4.9-13.37,7.75-19.87,1.45-3.23,2.91-6.46,4.43-9.67l.56-1.2.28-.6c.14-.26.26-.52.42-.77a9,9,0,0,1,2.3-2.58,9.18,9.18,0,0,1,6.6-1.82l5.29.63.34,0,.44.07a8.23,8.23,0,0,1,.86.19,9.32,9.32,0,0,1,4.48,2.77,9.39,9.39,0,0,1,2.37,6.54l-.07.88-.09.67L55.25,218l-.36,2.63c-1,7-2,14-3.19,21v0l-1.5-2.21,11.93,3-2.42,1.44,3.22-12.45,1.62-6.23.1-.39,0-.19.08-.27a6,6,0,0,1,.43-1.06,6.36,6.36,0,0,1,1.37-1.85,6.74,6.74,0,0,1,4.14-1.77,6.54,6.54,0,0,1,4.33,1.28,5.25,5.25,0,0,1,.86.76l.36.39.26.31,1,1.24,4.11,5,8.22,9.89-3.54,1.13,1.37-18.72.68-9.37.09-1.18a6.58,6.58,0,0,1,.32-1.6A7,7,0,0,1,90.49,206a6.31,6.31,0,0,1,.61-.55c.2-.17.46-.34.59-.44l1-.66L94.6,203l1.93-1.32c.13-.1.42-.27.64-.4a6.24,6.24,0,0,1,.73-.37,7.06,7.06,0,0,1,7.61,1.37,6.57,6.57,0,0,1,1,1.25c.28.43.43.69.65,1.05l1.23,2,2.45,4,9.82,16-3.7.83,2.54-23.56L120.82,192l.31-2.94a6.59,6.59,0,0,1,5.43-5.79,6.32,6.32,0,0,1,1.06-.09c.18,0,.36,0,.54,0l.26,0,.18,0,1.48.17,2.94.35.37,0,.43.06a7.33,7.33,0,0,1,1,.24,6.66,6.66,0,0,1,1.89,1,6.58,6.58,0,0,1,2.39,3.44,7.2,7.2,0,0,1,.25,2.09l0,1.48-.4,11.84-.79,23.7-3.54-1.34,12.3-15,1.54-1.87.77-.93.39-.47.47-.55a11.82,11.82,0,0,1,7.7-3.73,11.7,11.7,0,0,1,1.45,0c.47,0,1,.08,1.38.13l4.81.63-1.89.82,4-5.66,2-2.83a6.49,6.49,0,0,1,1.77-1.73,6.65,6.65,0,0,1,2.35-.93,6.29,6.29,0,0,1,2.52.07c.48.12.64.18.95.27l.84.24.83.24.42.13.59.2a6.2,6.2,0,0,1,2.11,1.39,6.34,6.34,0,0,1,1.87,4.58,7.59,7.59,0,0,1-.14,1.26l-.2.86-.38,1.7L177,232.29l-3-2.12,6.81-4.45,3.41-2.23c.59-.38,1.08-.72,1.75-1.14a8.79,8.79,0,0,1,2.4-1,8.93,8.93,0,0,1,5.17.18,9,9,0,0,1,4.2,3l5,6.44-3.29.2,6.44-10.74,3.22-5.36,1.61-2.69a12,12,0,0,1,9.14-5.8l6.22-.67,12.44-1.36L236.73,206l1.77-6.53.89-3.26.22-.82a8,8,0,0,1,.37-1.07,7.25,7.25,0,0,1,1.27-2,7.14,7.14,0,0,1,4-2.22,6.62,6.62,0,0,1,1.17-.11c.39,0,.59,0,.9,0l1.69,0,6.76.11,1.74,0a6.7,6.7,0,0,1,2.29.48,7,7,0,0,1,3.52,3,7.16,7.16,0,0,1,.87,2.17,9.39,9.39,0,0,1,.16,2.11v17l-3-1.73c3.66-2.57,7.41-5,11.21-7.32,1-.58,1.89-1.18,2.85-1.75l.72-.42a9.19,9.19,0,0,1,1-.53,9,9,0,0,1,9.05,1.07,11.33,11.33,0,0,1,.91.78c.26.28.57.62.71.8l2.15,2.56.53.65.27.32.35.46a8.81,8.81,0,0,1,.94,8.88,9.21,9.21,0,0,1-.55,1,10,10,0,0,1-.61.86,45.47,45.47,0,0,1-9.77,9.44,45,45,0,0,1,5.89-12.24c.18-.28.21-.36.31-.53a4.84,4.84,0,0,0,.21-.47,3.9,3.9,0,0,0,.22-1,4.05,4.05,0,0,0-.34-1.95A4,4,0,0,0,287,213l-.17-.2-.28-.31-.55-.62-2.2-2.52a5.1,5.1,0,0,0-.41-.44,2.69,2.69,0,0,0-.37-.3,3.17,3.17,0,0,0-.83-.45,3.73,3.73,0,0,0-1.87-.23,3.22,3.22,0,0,0-.91.24,3.08,3.08,0,0,0-.45.22l-.73.42c-1,.56-1.94,1.09-2.91,1.63-3.89,2.18-7.84,4.26-11.87,6.2l-3,1.45V198a5.86,5.86,0,0,0-.07-1.26,3.32,3.32,0,0,0-.38-1,3.12,3.12,0,0,0-2.56-1.52l-1.64,0-6.76-.11-1.69,0c-.26,0-.61,0-.79,0a3.15,3.15,0,0,0-2.29,1,3.24,3.24,0,0,0-.74,1.38l-.22.82-.89,3.26-1.77,6.53-.36,1.31-1.36.15-12.44,1.35-6.22.68a7.91,7.91,0,0,0-6.14,3.88l-1.61,2.68-3.22,5.37L202.8,233.2l-1.51,2.52-1.79-2.32-5-6.45a5,5,0,0,0-5.18-1.76,4.67,4.67,0,0,0-1.32.57c-.49.3-1.11.72-1.66,1.08L183,229.06l-6.82,4.46-4.13,2.7,1.09-4.81,6.12-27.14.38-1.7.19-.84a2.31,2.31,0,0,0,.05-.46,2.4,2.4,0,0,0-.69-1.69,2.18,2.18,0,0,0-.77-.5l-.23-.08-.42-.13-.84-.24-.83-.24-.73-.21a2.38,2.38,0,0,0-.92,0,2.34,2.34,0,0,0-1.56,1l-2,2.83-4,5.66-.7,1-1.19-.16-4.8-.62a8.86,8.86,0,0,0-1-.1,6.29,6.29,0,0,0-1,0,7.58,7.58,0,0,0-1.88.39,7.84,7.84,0,0,0-3.21,2.07l-.31.37-.39.47-.77.93L150,213.9l-12.3,15L134,233.43l.19-5.89.8-23.69.39-11.84,0-1.49a2.57,2.57,0,0,0-1.76-2.56,1.79,1.79,0,0,0-.4-.09,2.6,2.6,0,0,0-.3-.05l-.37,0-3-.35-1.47-.17-.18,0h-.1a1.48,1.48,0,0,0-.21,0,1.84,1.84,0,0,0-.41,0,2.55,2.55,0,0,0-2.12,2.26l-.32,2.95-1.26,11.78L121,227.82l-.63,5.83-3.06-5-9.82-16-2.45-4-1.23-2c-.19-.31-.43-.72-.59-1a2.58,2.58,0,0,0-.45-.54,3.05,3.05,0,0,0-2.61-.79,3.13,3.13,0,0,0-.68.2,3,3,0,0,0-.31.16,2.23,2.23,0,0,0-.36.23l-1.94,1.32-1.94,1.33-1,.66a3.14,3.14,0,0,0-.35.26,1.55,1.55,0,0,0-.27.24,3.08,3.08,0,0,0-.73,1.2,3.12,3.12,0,0,0-.13.69l-.09,1.15-.68,9.37L90.34,239.9,90,244.85,86.81,241l-8.22-9.89-4.11-4.94a17.53,17.53,0,0,0-1.81-2,2.5,2.5,0,0,0-1.7-.5,2.77,2.77,0,0,0-1.66.7,2.68,2.68,0,0,0-.53.72,2,2,0,0,0-.17.43l0,.11,0,.2-.1.39-1.61,6.22-3.23,12.45-.49,1.92-1.92-.48-11.94-3-1.68-.42.18-1.79v0c.68-7.06,1.53-14.09,2.43-21.12l.34-2.63.17-1.32.09-.65,0-.44a4.64,4.64,0,0,0-1.16-3.21,4.92,4.92,0,0,0-1.37-1.08,3.88,3.88,0,0,0-.82-.32,2.7,2.7,0,0,0-.43-.11l-.21,0-.32,0-5.26-.73a4.77,4.77,0,0,0-4.69,2.13c-.09.12-.16.27-.24.4l-.3.58-.61,1.18c-1.61,3.16-3.27,6.29-4.95,9.41C27.05,229.35,23.49,235.49,19.46,241.4Z"/><path class="cls-3" d="M187.32,275.52c2.45-5.48,5.27-10.73,8.22-15.9q2.21-3.87,4.54-7.68l1.16-1.9.58-.95c.19-.31.36-.61.68-1.06a8.17,8.17,0,0,1,8-3.26,10.21,10.21,0,0,1,1.43.38l1.05.36,4.21,1.46,1.05.37.66.26a4.83,4.83,0,0,1,.69.33,8.08,8.08,0,0,1,2.4,1.95,8.3,8.3,0,0,1,1.27,8.73l-.33.68-.27.49-.53,1-2.16,3.9q-2.16,3.9-4.43,7.73h0l-2.73-2.69c2.62-1.75,5.31-3.38,8-4.93s5.46-3.06,8.31-4.52a8.6,8.6,0,0,1,3.11-.91,8.78,8.78,0,0,1,3.2.41,8,8,0,0,1,4.66,4.06,7,7,0,0,1,.68,3l0,.75c0,.22-.05.4-.08.6-.07.4-.13.79-.21,1.18a26.86,26.86,0,0,1-1.34,4.71,26.86,26.86,0,0,1-1.34-4.71c-.08-.39-.14-.78-.21-1.18,0-.19-.06-.4-.1-.57l-.11-.43a4.78,4.78,0,0,0-.71-1.47,3.91,3.91,0,0,0-3.93-1.77,4.45,4.45,0,0,0-1.35.48c-2.66,1.56-5.44,3.13-8.2,4.6s-5.57,2.9-8.44,4.2L209,275.78l3-5.28h0q1.94-4,4-8l2-4,.52-1,.26-.49.15-.34a3.74,3.74,0,0,0-.58-3.81,3.52,3.52,0,0,0-1-.85,1.77,1.77,0,0,0-.31-.15c-.11,0-.17-.08-.38-.15l-1.05-.38-4.17-1.56-1-.39a6.86,6.86,0,0,0-.72-.22,4,4,0,0,0-1.38,0,3.83,3.83,0,0,0-2.4,1.39c-.12.14-.34.47-.55.79l-.63.92-1.24,1.84q-2.5,3.69-5.11,7.31C194.91,266.28,191.3,271,187.32,275.52Z"/><path class="cls-3" d="M92.68,274.05a54,54,0,0,1-6.19-13.73l-.29-.89a7.32,7.32,0,0,1-.29-1.24,6.69,6.69,0,0,1,.15-2.67,7,7,0,0,1,3.18-4.24,6.36,6.36,0,0,1,1.24-.58l.62-.2.45-.12,1.81-.46L97,249l1.81-.46a8.24,8.24,0,0,1,2.47-.36,7.2,7.2,0,0,1,6.51,4.59l.67,1.75,1.3,3.49c1.74,4.66,3.42,9.35,5,14.09h0l-3.82.27c.71-4.22,1.57-8.41,2.49-12.58.23-1,.46-2.09.71-3.13l.18-.78a8.21,8.21,0,0,1,.36-1.13,7.28,7.28,0,0,1,1.27-2,7,7,0,0,1,4.14-2.28,8.09,8.09,0,0,1,1.2-.1c.2,0,.39,0,.59,0l.3,0,.2,0,.79.11a7.4,7.4,0,0,1,1.13.24,7,7,0,0,1,3.79,2.71,7.07,7.07,0,0,1,1,2.12,8.08,8.08,0,0,1,.26,2.09c.05,2.14.14,4.28.13,6.42a62.22,62.22,0,0,1-1.19,12.9,63.5,63.5,0,0,1-2.66-12.68c-.24-2.13-.4-4.26-.6-6.39a3.61,3.61,0,0,0-.18-1.07,2.6,2.6,0,0,0-1.79-1.62,2.25,2.25,0,0,0-.44-.07l-.8-.09-.2,0h-.3a1.75,1.75,0,0,0-.4.05,2.43,2.43,0,0,0-1.35.79,2.36,2.36,0,0,0-.41.66,3.14,3.14,0,0,0-.13.4l-.17.78c-.24,1-.49,2.08-.74,3.11-1,4.16-2.07,8.3-3.27,12.41l-1.59,5.4L111,273.52h0c-2-4.56-3.89-9.17-5.7-13.8l-1.36-3.47-.67-1.74a2.27,2.27,0,0,0-.48-.77,2.34,2.34,0,0,0-1.63-.74,19,19,0,0,0-3,.59l-3.64.83-1.82.41-.72.17a2.29,2.29,0,0,0-.46.17,2.61,2.61,0,0,0-1.28,1.5,2.73,2.73,0,0,0-.13,1,1.26,1.26,0,0,0,0,.27,2.31,2.31,0,0,0,.06.32l.24.9A54.42,54.42,0,0,1,92.68,274.05Z"/><ellipse class="cls-6" cx="97.45" cy="77.59" rx="16.41" ry="8.72" transform="translate(-23.48 107.48) rotate(-52.41)"/><ellipse class="cls-6" cx="133.17" cy="79.78" rx="12.02" ry="6.38" transform="translate(-11.28 136.63) rotate(-52.41)"/><ellipse class="cls-6" cx="106.34" cy="104.7" rx="12.02" ry="6.38" transform="translate(-41.49 125.09) rotate(-52.41)"/><ellipse class="cls-6" cx="140.8" cy="106.96" rx="8" ry="4.25" transform="translate(-29.84 153.28) rotate(-52.41)"/><ellipse class="cls-6" cx="166.52" cy="82.97" rx="12.02" ry="6.38" transform="translate(-0.81 164.31) rotate(-52.41)"/><ellipse class="cls-6" cx="81.65" cy="109.51" rx="8" ry="4.25" transform="translate(-54.93 107.41) rotate(-52.41)"/><ellipse class="cls-6" cx="159.56" cy="58.37" rx="8" ry="4.25" transform="translate(15.97 149.19) rotate(-52.41)"/><ellipse class="cls-6" cx="130.18" cy="52.47" rx="8" ry="4.25" transform="translate(9.19 123.62) rotate(-52.41)"/></g></svg>