<svg id="Layer_1" data-name="Layer 1" xmlns="http://www.w3.org/2000/svg" xmlns:xlink="http://www.w3.org/1999/xlink" viewBox="0 0 300 345"><defs><style>.cls-1{fill:url(#linear-gradient);}.cls-2{fill:url(#linear-gradient-2);}.cls-3{fill:#677c9e;}.cls-4{fill:#43536b;}.cls-5{fill:#192230;}.cls-6{fill:#fff;}.cls-7{fill:#889fba;}.cls-13,.cls-8{fill:none;}.cls-8{stroke:#43536b;}.cls-13,.cls-8,.cls-9{stroke-linecap:round;stroke-linejoin:round;stroke-width:12px;}.cls-12,.cls-9{fill:#d8d1ba;}.cls-9{stroke:#878173;}.cls-10{fill:#878173;}.cls-11{fill:#b7af9a;}.cls-13{stroke:#192230;}.cls-14{fill:#2e3a4c;}</style><linearGradient id="linear-gradient" x1="150" y1="-832.11" x2="150" y2="-644.74" gradientTransform="matrix(1, 0, 0, -1, 0, -431.8)" gradientUnits="userSpaceOnUse"><stop offset="0.38" stop-color="#43536b"/><stop offset="0.55" stop-color="#415168"/><stop offset="0.67" stop-color="#3a495f"/><stop offset="0.77" stop-color="#2f3c50"/><stop offset="0.86" stop-color="#202a3a"/><stop offset="0.89" stop-color="#192230"/></linearGradient><linearGradient id="linear-gradient-2" x1="150" y1="-846.11" x2="150" y2="-658.74" xlink:href="#linear-gradient"/></defs><rect class="cls-1" y="215.33" width="300" height="115.67" rx="36.38"/><rect class="cls-2" y="229.33" width="300" height="115.67" rx="36.38"/><rect class="cls-3" y="45" width="300" height="253.39" rx="36.38"/><path class="cls-4" d="M280.55,201.36S284.46,249,250.35,249s-39.09,10.3-62.18-11-4.27-44.41-4.27-44.41Z"/><path class="cls-5" d="M226.1,177.31c-24.35,3.56-43.57,10.11-40,34.46h0a44.59,44.59,0,1,0,88.23-13h0C270.76,174.38,250.44,173.74,226.1,177.31Z"/><path class="cls-6" d="M227.16,185.54c-19.83,3.46-35.35,9.48-32.11,28s21.95,30.8,41.78,27.38,33.29-21.32,30-39.87S247,182.08,227.16,185.54Z"/><path class="cls-5" d="M251.36,207.72a13.8,13.8,0,0,1-19.86-18.61,17.83,17.83,0,0,0-3.5-.19,24.05,24.05,0,1,0,24,24.15,21.71,21.71,0,0,0-.63-5.33Z"/><path class="cls-6" d="M217.69,228.53a5.75,5.75,0,0,1-5.75-5.73h0a5.75,5.75,0,0,1,11.5,0h0a5.74,5.74,0,0,1-5.71,5.75Z"/><rect class="cls-3" x="177.93" y="148.29" width="114.85" height="43.99"/><path class="cls-4" d="M167.43,191.78a11,11,0,0,0,10.88,11l103.48.72a11,11,0,0,0,11-10.77v-.57H292L193.2,184c-5.76-.47-10.35-4.59-10.19-9.15l1.28-38.15a7.35,7.35,0,0,1,4.23-6.18h-9.7a11,11,0,0,0-11,10.89Z"/><ellipse class="cls-4" cx="251.14" cy="64.23" rx="19.48" ry="38.72" transform="translate(159.57 306.74) rotate(-83.66)"/><ellipse class="cls-7" cx="273.23" cy="248.76" rx="18.79" ry="14.04" transform="translate(-48.48 67) rotate(-12.85)"/><path class="cls-8" d="M187.43,67.07a230.74,230.74,0,0,1-39.18,3.37"/><path class="cls-9" d="M249,266s-2.94-29.39-12.78-34.31S206,260.92,206,260.92"/><ellipse class="cls-7" cx="219.31" cy="153.24" rx="16.65" ry="29.59" transform="translate(47.03 357.93) rotate(-84.86)"/><ellipse class="cls-7" cx="267.7" cy="171.6" rx="11.53" ry="11.83" transform="translate(71.58 421.89) rotate(-84.58)"/><path class="cls-8" d="M251,114s-26-7.5-41-7.5-33,4.5-63,4.5"/><path class="cls-4" d="M184,148c2-11,29-14,24-16-24-3-28-1-28-1Z"/><path class="cls-4" d="M19.45,201.36S15.54,249,49.65,249s39.09,10.3,62.18-11,4.27-44.41,4.27-44.41Z"/><path class="cls-5" d="M73.9,177.31c24.35,3.56,43.57,10.11,40,34.46h0a44.59,44.59,0,1,1-88.23-13C29.24,174.38,49.56,173.74,73.9,177.31Z"/><path class="cls-6" d="M72.84,185.54c19.83,3.46,35.35,9.48,32.11,28s-22,30.8-41.78,27.38-33.29-21.32-30-39.87S53,182.08,72.84,185.54Z"/><path class="cls-5" d="M95.48,207.72a13.8,13.8,0,0,1-19.86-18.61,18.18,18.18,0,0,0-3.46-.21,24.05,24.05,0,1,0,24,24.15,21.71,21.71,0,0,0-.63-5.33Z"/><path class="cls-6" d="M61.81,228.53a5.75,5.75,0,0,1-5.75-5.73h0a5.75,5.75,0,1,1,5.79,5.75Z"/><rect class="cls-3" x="7.22" y="148.29" width="114.85" height="43.99"/><path class="cls-4" d="M132.57,191.78a11,11,0,0,1-10.88,11l-103.48.72a11,11,0,0,1-11-10.77v-.57H8L106.8,184c5.76-.47,10.35-4.59,10.19-9.15l-1.28-38.15a7.35,7.35,0,0,0-4.23-6.18h9.7a11,11,0,0,1,11,10.89Z"/><path class="cls-4" d="M201.35,258.71c0,21.7-23,39.29-51.35,39.29s-51.35-17.59-51.35-39.29c0-6.07,1.8-13.71,5-21.57,8.27-20.2,25.9-41.82,46.33-41.82s38,21.6,46.33,41.82C199.55,245,201.35,252.64,201.35,258.71Z"/><ellipse class="cls-4" cx="48.86" cy="64.21" rx="38.72" ry="19.48" transform="translate(-6.79 5.79) rotate(-6.34)"/><path class="cls-10" d="M78.69,56.74c-.7,4-3,9.76-10.11,14.68-5.58,4-15.09,6.5-24.34,6.5-7.61,0-15-1.65-20.09-5.41-5.44-4-7.87-10.15-6.85-17.21C18,48.08,22,13.92,34.06,4a13.44,13.44,0,0,1,3.45-2.16c10.54-4.47,20.89,9.85,27.75,21a230.45,230.45,0,0,1,12.4,23.47A18.51,18.51,0,0,1,78.69,56.74Z"/><path class="cls-11" d="M69.15,53.24c-.49,2.59-2.11,6.34-7.07,9.53C58.14,65.41,51.5,67,45,67c-5.3,0-10.51-1.07-14-3.51A11,11,0,0,1,26.16,52.3c.43-4,2.58-21.11,8.56-29.88a15.52,15.52,0,0,1,3.17-3.5,9.84,9.84,0,0,1,2.42-1.38C47.7,14.63,54.94,24,59.75,31.2a144.07,144.07,0,0,1,8.67,15.24,10.41,10.41,0,0,1,.93,3.84A11.75,11.75,0,0,1,69.15,53.24Z"/><path class="cls-12" d="M69.35,50.29a20.9,20.9,0,0,1-2.55,1.94c-3.94,2.64-10.58,4.23-17,4.23-5.33,0-10.54-1.07-14.07-3.51a11,11,0,0,1-4.8-11.2,110.8,110.8,0,0,1,3.84-19.33,15.52,15.52,0,0,1,3.17-3.5,9.84,9.84,0,0,1,2.42-1.38C47.7,14.63,54.94,24,59.75,31.2a144.07,144.07,0,0,1,8.67,15.24A10.46,10.46,0,0,1,69.35,50.29Z"/><path class="cls-10" d="M221.39,56.74c.69,4,3,9.76,10.1,14.68,5.62,4,15.09,6.5,24.34,6.5,7.61,0,15-1.65,20.09-5.41,5.44-4,7.87-10.15,6.85-17.21C282.06,48.08,278,13.92,266,4a12.71,12.71,0,0,0-3.44-2.16c-10.54-4.47-20.89,9.85-27.75,21a228.4,228.4,0,0,0-12.39,23.47A18.33,18.33,0,0,0,221.39,56.74Z"/><path class="cls-11" d="M231.85,53.24c.49,2.59,2.12,6.34,7.07,9.53C242.86,65.41,249.5,67,256,67c5.32,0,10.54-1.07,14.07-3.51a11,11,0,0,0,4.79-11.19c-.43-4-2.57-21.11-8.56-29.88a15.11,15.11,0,0,0-3.17-3.5,9.84,9.84,0,0,0-2.42-1.38c-7.39-2.91-14.63,6.4-19.43,13.66a144.15,144.15,0,0,0-8.68,15.24,10.61,10.61,0,0,0-.93,3.84A12.25,12.25,0,0,0,231.85,53.24Z"/><path class="cls-12" d="M231.65,50.29a20.9,20.9,0,0,0,2.55,1.94c3.94,2.64,10.58,4.23,17.06,4.23,5.32,0,10.53-1.07,14.07-3.51a11,11,0,0,0,4.79-11.2,110.8,110.8,0,0,0-3.84-19.33,15.11,15.11,0,0,0-3.17-3.5,9.84,9.84,0,0,0-2.42-1.38c-7.39-2.91-14.63,6.4-19.43,13.66a144.15,144.15,0,0,0-8.68,15.24A10.66,10.66,0,0,0,231.65,50.29Z"/><ellipse class="cls-7" cx="26.77" cy="248.75" rx="14.04" ry="18.79" transform="translate(-221.7 219.53) rotate(-77.15)"/><path class="cls-8" d="M112.57,67.07a230.74,230.74,0,0,0,39.18,3.37"/><path class="cls-9" d="M53,266s.94-29.39,10.78-34.31S94,260.92,94,260.92"/><ellipse class="cls-7" cx="80.42" cy="154.89" rx="29.47" ry="16.58" transform="translate(-14.27 8.29) rotate(-5.42)"/><ellipse class="cls-7" cx="32.33" cy="171.58" rx="11.83" ry="11.53" transform="translate(-16.06 3.82) rotate(-5.42)"/><path class="cls-13" d="M30.82,273.13S45.11,261.36,80,265s14-6.59,70-6.59,34.22,10.23,69.11,6.59,49.18,8.13,49.18,8.13"/><path class="cls-8" d="M49,114s26-7.5,41-7.5,33,4.5,63,4.5"/><path class="cls-4" d="M116,148c-2-11-29-14-24-16,24-3,28-1,28-1Z"/><path class="cls-14" d="M201.35,247.71c0,21.7-23,39.29-51.35,39.29s-51.35-17.59-51.35-39.29c0-6.07,1.8-13.71,5-21.57,8.27-20.2,25.9-41.82,46.33-41.82s38,21.6,46.33,41.82C199.55,234,201.35,241.64,201.35,247.71Z"/><path class="cls-3" d="M193.57,235.46c0,19.45-19.5,35.21-43.57,35.21s-43.57-15.75-43.57-35.21c0-5.44,1.52-12.29,4.26-19.33,7-18.1,22-37.47,39.31-37.47s32.29,19.37,39.31,37.47C192.05,223.17,193.57,230,193.57,235.46Z"/><circle class="cls-7" cx="138.6" cy="230.42" r="21.52"/><circle class="cls-7" cx="167.81" cy="251.66" r="9.76"/><path class="cls-14" d="M189.33,322.66l-8.22-20.15a6.32,6.32,0,0,0-4-3.69,7,7,0,0,0-3.3-.82H126.1a6.91,6.91,0,0,0-3.5.92,6.32,6.32,0,0,0-3.71,3.59l-8.22,20.15a6.44,6.44,0,0,0,9.14,8l10.61-6,14,15.76a7.15,7.15,0,0,0,10.05.94,7,7,0,0,0,.95-.94l14.07-15.8,10.68,6.06a6.44,6.44,0,0,0,9.16-8Z"/><path class="cls-7" d="M189.33,314.66l-8.22-20.15a6.32,6.32,0,0,0-4-3.69,7,7,0,0,0-3.3-.82H126.1a6.91,6.91,0,0,0-3.5.92,6.32,6.32,0,0,0-3.71,3.59l-8.22,20.15a6.44,6.44,0,0,0,9.14,8l10.61-6,14,15.76a7.15,7.15,0,0,0,10.05.94,7,7,0,0,0,.95-.94l14.07-15.8,10.68,6.06a6.44,6.44,0,0,0,9.16-8Z"/></svg>