<svg id="Layer_1" data-name="Layer 1" viewBox="0 0 300 345" version="1.1" xmlns:xlink="http://www.w3.org/1999/xlink" xmlns="http://www.w3.org/2000/svg"><defs id="defs20"><radialGradient id="radial-gradient" cx="97.28" cy="174.77" r="22.05" gradientTransform="matrix(-1 0 0 1 300 0)" gradientUnits="userSpaceOnUse"><stop offset=".09" stop-color="#f6afce" stop-opacity=".97" id="stop4"/><stop offset=".17" stop-color="#f4afce" stop-opacity=".94" id="stop6"/><stop offset=".28" stop-color="#eeb1cf" stop-opacity=".84" id="stop8"/><stop offset=".43" stop-color="#e5b2d1" stop-opacity=".7" id="stop10"/><stop offset=".6" stop-color="#d8b5d4" stop-opacity=".49" id="stop12"/><stop offset=".79" stop-color="#c8b8d7" stop-opacity=".23" id="stop14"/><stop offset=".87" stop-color="#c0bad8" stop-opacity=".1" id="stop16"/></radialGradient><radialGradient id="radial-gradient-2" cx="202.71" cy="174.77" r="22.05" xlink:href="#radial-gradient"/><style id="style2">.cls-1{fill:#1d8eb8}.cls-2{fill:#3cb1dc}.cls-3{fill:#89d6f8}.cls-6{fill:#f6a9cb}.cls-7{fill:#555166}.cls-8{fill:#c0bad8}.cls-13{fill:#fff}.cls-14{fill:#414042}</style></defs><path class="cls-1" d="M77.84 337c-22.3-5.6-33.61-14-33.61-25.11 0-4.9 2.2-9.2 6.58-12.84-1.56-1.62-3-3.28-4.44-5-1.33.09-2.71.13-4.16.12-11.76-.07-22.63-7-30.62-19.59C4 262.7-.09 247 0 230.46s4.37-32.19 12.06-44S29.8 168 40.74 167.26c6.45-20.78 25.08-35 46.52-35h125.48a47 47 0 0117.69 3.41c17.48-16.62 34.88-23.25 50.45-19.2 7.95 2.07 13.74 5.92 16.77 11.13a18.67 18.67 0 011.57 14.55c-2.32 8.54-7.8 10.26-12.63 11.78-6.09 1.92-14.38 4.52-24.94 23.76 2 10.07 4.37 21.56 7.27 32.85l1.32 5.11a90.08 90.08 0 01-.63 48.13 86.83 86.83 0 01-20.09 34.93c5 4.54 6.26 9.48 6.26 13.18 0 26.66-57.52 32.25-105.78 32.25-28.17.02-53.8-2.51-72.16-7.14zm157-192.16l-2.44 2.44-3.11-1.51a37.59 37.59 0 00-16.6-3.83H87.26c-18.16 0-33.83 12.83-38.1 31.2l-.9 3.86-4-.12h-1.57c-17.77 0-32.9 24.53-33 53.65-.08 14.72 3.5 28.54 10.08 38.89 6.16 9.69 14.15 15 22.51 15.1a43.71 43.71 0 005.68-.3l2.75-.33 1.68 2.2a73.83 73.83 0 009.34 10.08l5.12 4.61-6.07 3.22c-4.56 2.45-6.88 5.1-6.88 7.88 0 11.1 35.95 22.58 96.1 22.58 66.39 0 96.1-11.34 96.1-22.58 0-2-.67-5.09-6.46-8.4l-5.78-3.29 4.91-4.48A76.79 76.79 0 00260.34 261a80.39 80.39 0 00.52-42.95l-1.31-5.05c-3.13-12.17-5.63-24.49-7.74-35.09l-.33-1.69.81-1.52c12.82-24.11 24-27.62 31.4-29.95 4.25-1.34 5.26-1.65 6.19-5.08a9 9 0 00-.6-7.16c-1.68-2.89-5.53-5.24-10.84-6.63a26.44 26.44 0 00-6.69-.84c-13.88-.04-27.41 10.35-36.86 19.82zM33.06 267.59c-10.56-5.59-17.59-20.48-17.5-37 .1-19.37 9.65-35.63 22.71-38.66l7.48-1.74-1.66 7.5c-1.23 5.61-2.42 10.62-3.63 15.32l-1.31 5.11a80.3 80.3 0 00.52 42.88c0 .11.07.22.11.33s.12.35.17.52l3.48 11.21zm-7.83-37a46.68 46.68 0 001.68 12.73 92.83 92.83 0 012.86-27.66l1.32-5.11c.22-.88.45-1.77.67-2.67-3.93 5.53-6.48 13.82-6.53 22.72z" id="path24"/><path class="cls-2" d="M49.06 311.91c0 17.89 46.25 27.42 100.94 27.42s100.94-7.82 100.94-27.42-45.19-24-100.94-24-100.94 6.09-100.94 24z" id="path26"/><path class="cls-2" d="M80.26 230.89c-.28 52.58-21.83 58.54-38 58.46-20.79-.11-37.57-26.52-37.4-58.86s17.23-58.57 38-58.46c16.19.09 37.68 6.28 37.4 58.86zm-15.55-.08c.15-29.31-7-34.5-22-34.58-12.21-.07-22.24 15.34-22.34 34.34s9.76 34.52 22 34.58c15.01.08 22.18-5.03 22.34-34.34z" id="path28"/><path class="cls-3" d="M87.26 137.12h125.48c21.29 0 39 15.66 43.16 36.47 2.52 12.79 5.09 25.57 8.34 38.18l1.31 5.11a85.3 85.3 0 01-.58 45.53c-6.6 22.14-22.08 41-43.65 50.43-9.45 4.14-18.6 11.62-67.18 11.62s-66-7.48-75.46-11.62c-21.56-9.46-37-28.29-43.65-50.43a85.3 85.3 0 01-.57-45.53l1.31-5.11c3.24-12.61 5.82-25.39 8.34-38.18 4.11-20.81 21.89-36.47 43.15-36.47z" id="path30"/><path d="M86 48.54h1.35c13.17.55 21.56 10.23 23.26 21.06h13.59a9 9 0 0114.85-4.35l.73.7a25.59 25.59 0 012.86-6.15c4.23-6.54 14.22-4.77 16.18 2.69a9 9 0 0113.68 7.11h16.92c1.7-10.83 10.08-20.51 23.26-21.06h1.35c41 0 37.31 49.22 12.32 56.85v73.07a35.66 35.66 0 01-35.66 35.66h-81.37a35.67 35.67 0 01-35.67-35.66v-73.07C48.66 97.76 45 48.54 86 48.54z" id="path32" stroke-width="13" stroke="#414042" stroke-miterlimit="10" fill="none"/><path d="M86 48.54h1.35c13.17.55 21.56 10.23 23.26 21.06h13.59a9 9 0 0114.85-4.35l.73.7a25.59 25.59 0 012.86-6.15c4.23-6.54 14.22-4.77 16.18 2.69a9 9 0 0113.68 7.11h16.92c1.7-10.83 10.08-20.51 23.26-21.06h1.35c41 0 37.31 49.22 12.32 56.85v73.07a35.66 35.66 0 01-35.66 35.66h-81.37a35.67 35.67 0 01-35.67-35.66v-73.07C48.66 97.76 45 48.54 86 48.54z" id="path34" fill="#928aa0"/><path class="cls-6" d="M81.83 96.36L93.9 89c13.69-8.37 8.49-29.71-7.53-30.39h-.89c-29.06 0-23.77 37.8-3.65 37.8" id="path36"/><path class="cls-6" d="M218.18 96.36L206.1 89c-13.68-8.37-8.49-29.71 7.54-30.39h.88c29.07 0 23.77 37.8 3.66 37.8" id="path38"/><path class="cls-7" d="M175.36 189.66s-12 15.26-1.78 21.77 26.24-19.68 26.24-19.68z" id="path40"/><path class="cls-7" d="M123.76 188.2s12 15.25 1.78 21.76-25.35-18.79-25.35-18.79z" id="path42"/><path class="cls-8" d="M80.44 159.52v-26.31a57.84 57.84 0 0157.84-57.85h23.45a57.85 57.85 0 0157.84 57.85v26.31a29 29 0 011.78 10.59c0 16.78-10.38 23.19-23.19 23.19h-96.31c-12.81 0-23.2-6.41-23.2-23.19a28.94 28.94 0 011.79-10.59z" id="path44"/><ellipse class="cls-7" cx="102.26" cy="109.62" rx="14.09" ry="10.05" transform="rotate(-17.4 102.24 109.612)" id="ellipse46"/><ellipse class="cls-7" cx="197.75" cy="109.6" rx="10.05" ry="14.09" transform="rotate(-72.6 197.753 109.602)" id="ellipse48"/><ellipse cx="202.72" cy="174.77" rx="17.02" ry="13.42" id="ellipse50" fill="url(#radial-gradient)"/><ellipse cx="97.29" cy="174.77" rx="17.02" ry="13.42" id="ellipse52" fill="url(#radial-gradient-2)"/><path d="M136.3 179.12c10.36-4.53 13.7-15.82 13.7-15.82s3.35 11.29 13.7 15.82" id="path54" stroke-linecap="round" stroke-width="7.09" stroke="#414042" stroke-miterlimit="10" fill="none"/><path d="M143.88 150.08c-3.4 0-4.53 6.7-1.55 9.1a11.75 11.75 0 0015.34 0c3-2.4 1.86-9.1-1.54-9.1z" id="path56" fill="#dd7399"/><circle class="cls-7" cx="98.73" cy="141.91" r="21.77" id="circle58"/><path class="cls-13" d="M77 148a21.77 21.77 0 1043.54 0c0-12-9.74-10.8-21.77-10.8S77 135.93 77 148z" id="path60"/><path class="cls-14" d="M117.68 144.72a13.51 13.51 0 01.32 2.94A13.69 13.69 0 1194.62 138c2.85-.85 6.47-.92 10.52-.9a8.2 8.2 0 00-.12 1.32 7.9 7.9 0 0012.69 6.28zm-16 8.62a3.26 3.26 0 10-3.26 3.25 3.26 3.26 0 003.28-3.25z" id="path62"/><circle class="cls-7" cx="201.27" cy="141.91" r="21.77" id="circle64"/><path class="cls-13" d="M179.51 148a21.77 21.77 0 1043.49 0c0-12-9.74-10.8-21.77-10.8s-21.72-1.27-21.72 10.8z" id="path66"/><path class="cls-14" d="M209.4 147.66a13.7 13.7 0 11-22.45-10.53h9.34a7.45 7.45 0 00-.2 1.65 7.89 7.89 0 0013 6 13.57 13.57 0 01.31 2.88zm-16.19 5.68a3.26 3.26 0 10-3.25 3.25 3.26 3.26 0 003.25-3.25z" id="path68"/><path class="cls-3" d="M213.49 197.54H92.12c-13.37 0-24.21-9.34-24.21-9.34 0 9.35 18.23 38.94 18.23 38.94h127.72s18.24-29.59 18.24-38.94c0 0-5.24 9.34-18.61 9.34z" id="path70"/><path class="cls-2" d="M213.49 197.54H92.12c-13.37 0-24.21-9.34-24.21-9.34 0 9.35 8.16 16.92 18.23 16.92h127.72c10.07 0 18.24-7.57 18.24-16.92 0 0-5.24 9.34-18.61 9.34z" id="path72"/><path class="cls-8" d="M175.6 188s-10.81 9.64-1.61 14.75 19.43-9.42 19.43-9.42z" id="path74"/><path class="cls-8" d="M124.41 188s10.81 9.64 1.61 14.75-19.43-9.42-19.43-9.42z" id="path76"/><path class="cls-2" d="M183.72 259.88c8.58 23.67 38.58 30.41 58.52 10.47a27.19 27.19 0 005.63-7.79c9.7-21.11-8.59-48.64 4.72-77.57 21.86-47.53 37.63-28.12 42-44.09 2.71-10-3.71-16.82-14.89-19.73-30.81-8-64.44 34.25-81 68.27-14.06 28.8-20.48 55.26-14.98 70.44z" id="path78"/><ellipse class="cls-1" cx="277.5" cy="133.58" rx="6.21" ry="11.32" transform="rotate(-65.3 277.51 133.579)" id="ellipse80"/><path d="M110.18 65.61a3.92 3.92 0 01.11-.88h0c1.1-4.63 10.39-11.05 19.76-16.48a40.78 40.78 0 0111.06-4.38 9.47 9.47 0 01-.73-3.65c0-5.31 5.73-12.6 9.62-12.6s9.62 7.29 9.62 12.6a9.56 9.56 0 01-.64 3.44 41.22 41.22 0 0112 4.59c9.33 5.41 18.58 11.8 19.74 16.43h.13v8.33c0 9.43-9.79 17.08-40.31 17.08s-40.31-7.65-40.31-17.08c0-1.38 0-4.17.07-6.14-.09-.38-.12-.82-.12-1.26z" id="path82" stroke="#1d8eb8" stroke-linejoin="round" stroke-width="10" fill="none"/><path class="cls-2" d="M110.18 73.06c0 9.43 9.79 17.08 40.31 17.08s40.31-7.65 40.31-17.08v-8.33s-15.47-6.48-19.87-9a40.75 40.75 0 00-40.88 0c-5.13 3-16 5.92-19.76 9 0 0-.11 6.06-.11 8.33z" id="path84"/><path class="cls-3" d="M110.18 65.61c0 9.43 9.79 17.08 40.31 17.08S190.8 75 190.8 65.61c0-4.67-9.89-11.57-19.87-17.36a40.75 40.75 0 00-40.88 0c-9.98 5.75-19.87 12.69-19.87 17.36z" id="path86"/><path d="M159.62 40.22c0-5.31-5.72-12.6-9.62-12.6s-9.62 7.29-9.62 12.6a9.62 9.62 0 0019.24 0z" id="path88" fill="#67cef6"/></svg>