<svg id="Layer_1" data-name="Layer 1" xmlns="http://www.w3.org/2000/svg" xmlns:xlink="http://www.w3.org/1999/xlink" viewBox="0 0 300 345"><defs><style>.cls-1,.cls-9{fill:none;stroke:#414042;stroke-linecap:round;stroke-miterlimit:10;}.cls-1{stroke-width:6px;}.cls-2{fill:#d49e7e;}.cls-3{fill-opacity:0.8;fill:url(#linear-gradient);}.cls-4,.cls-5{fill:#dd7399;}.cls-4,.cls-6{fill-opacity:0.5;}.cls-5{fill-opacity:0.59;}.cls-6,.cls-7{fill:#fbddea;}.cls-8{fill:#dcbf9a;}.cls-9{stroke-width:6.11px;}.cls-10{fill:#f1f2f2;}.cls-11{fill:#231f20;}</style><linearGradient id="linear-gradient" x1="149.67" y1="-3533.19" x2="150.74" y2="-4304.68" gradientTransform="matrix(1, 0, 0, -1, 0, -3555.6)" gradientUnits="userSpaceOnUse"><stop offset="0.19" stop-color="#c7e9f6"/><stop offset="0.63" stop-color="#10afd1"/></linearGradient></defs><title>blook_drink-me</title><g id="alice_in_wonderland" data-name="alice in wonderland"><g id="faity"><path class="cls-1" d="M19.9,89.78s45.23,11,130.1,11S279.63,90.25,279.63,90.25"/><path class="cls-2" d="M220.78,40.81H75.6c-12.84,0-23.25,5.74-23.25,12.83V71.15C52.35,78.23,62.76,84,75.6,84H220.78C233.62,84,244,78.23,244,71.15V53.64C244,46.55,233.62,40.81,220.78,40.81Z"/><path class="cls-3" d="M275.25,90.13V79.6a36.38,36.38,0,0,0-36.38-36.38H61.13A36.38,36.38,0,0,0,24.75,79.6V90.13A36.4,36.4,0,0,0,0,124.6v184A36.38,36.38,0,0,0,36.36,345H263.62A36.38,36.38,0,0,0,300,308.62h0v-184A36.41,36.41,0,0,0,275.25,90.13Z"/><path class="cls-4" d="M247.93,288.05H48.44c-17.64,0-31.93,8.69-31.93,19.41v3.7c0,10.72,14.29,19.42,31.93,19.42H247.93c17.64,0,31.94-8.7,31.94-19.42v-3.7C279.87,296.74,265.57,288.05,247.93,288.05Z"/><path class="cls-5" d="M247.93,142.34H48.44c-17.64,0-31.93,8.69-31.93,19.41V311.16c0,10.72,14.29,19.42,31.93,19.42H247.93c17.64,0,31.94-8.7,31.94-19.42V161.75C279.87,151,265.57,142.34,247.93,142.34Z"/><path class="cls-6" d="M239.66,153.49H56.71c-16.18,0-29.29,8.69-29.29,19.41v3.7c0,10.72,13.11,19.42,29.29,19.42h183c16.18,0,29.3-8.7,29.3-19.42v-3.7C269,162.18,255.84,153.49,239.66,153.49Z"/><path class="cls-7" d="M244,165.52a26.83,26.83,0,0,0-53.66,0C190.34,180.34,244,180.34,244,165.52Z"/><path class="cls-7" d="M200.45,173.86a18.91,18.91,0,1,0-37.81,0C162.64,184.3,200.45,184.3,200.45,173.86Z"/><path class="cls-2" d="M220.78,23.38H75.6c-12.84,0-23.25,5.74-23.25,12.82V53.72c0,7.08,10.41,12.82,23.25,12.82H220.78c12.84,0,23.25-5.74,23.25-12.82V36.2C244,29.12,233.62,23.38,220.78,23.38Z"/><path class="cls-8" d="M220.78,18.44H75.6c-12.84,0-23.25,5.75-23.25,12.83v2.45c0,7.08,10.41,12.82,23.25,12.82H220.78c12.84,0,23.25-5.74,23.25-12.82V31.27C244,24.19,233.62,18.44,220.78,18.44Z"/><path class="cls-9" d="M19.9,89.78c0,37.67,105.81,52.57,105.81,52.57"/><path class="cls-10" d="M129.25,120.25l-30.47-1.54a20.37,20.37,0,0,0-17.56,8.44L13,221.85a20.37,20.37,0,0,0,4.62,28.44l41.58,30a20.37,20.37,0,0,0,28.44-4.62l68.23-94.7a20.38,20.38,0,0,0,2.44-19.33l-11.11-28.41A20.39,20.39,0,0,0,129.25,120.25Zm5.33,28.7a10,10,0,1,1-2.28-14A10,10,0,0,1,134.58,149Z"/><path class="cls-11" d="M50.58,216.41c6.92,5,8.92,14.12,2.42,23.15l-6.6,9.16L33,229.82l-.57.78c-3.34,4.65.08,7.16.08,7.16l-4,2.94s-7.17-5.11,0-15l2-2.73C37.21,213.54,44.54,212.06,50.58,216.41Zm-2.7,5.4c-3.51-2.53-8-1.45-11.16,2.82l10.07,14.16,2.46-3.41C53.06,230.09,51.81,224.64,47.88,221.81Z"/><path class="cls-11" d="M74.28,200.43s3,6.39-.81,11.75c-2.44,3.38-6.29,3.17-9-.33l-1-1.3a11.08,11.08,0,0,0-1.93-2c-1-.7-1.86-.5-2.89.59a10.76,10.76,0,0,1-1.17,1.07c2.19,2.92,4.35,6.69,4.91,10.3l-4.09.41c-1-3.88-4.84-8.42-8.53-11.58L53,205c1.39,1,2.17.88,3.66-.77,2.43-2.68,5-2.89,7.15-1.3a22.62,22.62,0,0,1,3.57,3.75c1.29,1.62,2.35,1.79,3.17.66,1.5-2.08-.31-5.8-.31-5.8Z"/><path class="cls-11" d="M71.91,203.32a24.41,24.41,0,0,1-4.8-5.53L63.63,193,67,188.25l4.16,5.81c1.59,2.23,2.44,3.39,3.41,4.09a2,2,0,0,0,3-.57c1.57-2.18-.24-5.9-.24-5.9l4-1.09s2.93,6.56-.54,11.36C78.59,205.07,75.16,205.66,71.91,203.32Zm-12.51-15a3.47,3.47,0,1,1,4.71-.86A3.3,3.3,0,0,1,59.4,188.29Z"/><path class="cls-11" d="M94.56,172.28s3,6.39-.88,11.84c-2.51,3.48-6.48,3.38-9.09-.13l-1.06-1.46a12.71,12.71,0,0,0-2.52-2.8,1.8,1.8,0,0,0-2.71.47c-.91,1.27-.77,3.05,1.18,5.68l6.13,8.42-3.35,4.64L70.6,183.29l2.74-3.8,1.52,1.58a7.32,7.32,0,0,1,1.08-6.22c2.13-3,4.86-2.91,7.07-1.32a13.07,13.07,0,0,1,3,3.21l1.48,2.06c1.23,1.72,2.45,1.67,3.29.5,1.59-2.21-.22-5.93-.22-5.93Z"/><path class="cls-11" d="M107.76,154s3,6.38-.93,11.9c-2.37,3.29-5.43,3.15-8.31,1.47-1.61-.92-2.67-.89-3.54.31s-.71,2.16.37,3.67L98.78,176l-3.35,4.65-17.25-24L81.57,152l10.08,14.42c.38-4.22.44-7.38-.93-11L95,149.45a33.38,33.38,0,0,1,1.36,11.73,4.67,4.67,0,0,1,4.27.17c1.71.78,2.53.74,3.3-.34,1.62-2.24-.19-6-.19-6Z"/><path class="cls-11" d="M113.09,203.4s3.34,7-.21,11.93c-1.94,2.69-5.57,4.58-9.3,1.88a15,15,0,0,1-4.09-4.67L98,210.4a11.24,11.24,0,0,0-2.75-3.16c-1.92-1.38-3.89-1.18-5.16.58-1.59,2.2-1.07,5,1.64,8.82l9.66,13.57-3.75,5.2L88.9,223.07a11.54,11.54,0,0,0-2.55-3c-2.08-1.5-4.09-1.31-5.47.6-1.73,2.41-1.28,5.35,1.4,9.15L92,243.33l-3.74,5.2L78.57,235c-1.64-2.31-2.42-3.42-3.33-4.07a2,2,0,0,0-3,.52c-1.36,1.88.14,5.28.14,5.28L68,237.91s-3-6.14.56-11c1.92-2.66,4.25-3.1,6.18-2.55a12.51,12.51,0,0,1,2.12-9c2-2.76,4.54-3.83,7.39-3.21a12.09,12.09,0,0,1,1.93-9.71c2.78-3.87,7.16-4.81,11.57-1.63a16.57,16.57,0,0,1,3.84,4.2l1.68,2.39c1.56,2.36,2.28,3.62,3.25,4.32a2,2,0,0,0,3-.57c1.61-2.24-.41-6.42-.41-6.42Z"/><path class="cls-11" d="M125.72,186.9a16.83,16.83,0,0,1-2.85,14.57c-4.38,6.07-10.21,6.76-14.49,3.67a10.22,10.22,0,0,1-2.18-14.44c2.56-3.54,6.27-4.86,9.09-2.83,3.84,2.76,3,8.11.44,13.09a7.22,7.22,0,0,0,3.16-2.6,14,14,0,0,0,2.46-11Zm-14.86,13.22a5.78,5.78,0,0,0,1,.61c2-3.95,2.55-7,.86-8.26-.94-.68-2.22-.41-3.27,1.05A4.81,4.81,0,0,0,110.86,200.12Z"/><path class="cls-9" d="M126.89,142.33S210,149,279.75,90.13"/></g></g></svg>