<svg id="Layer_1" data-name="Layer 1" xmlns="http://www.w3.org/2000/svg" xmlns:xlink="http://www.w3.org/1999/xlink" viewBox="0 0 300 345"><defs><style>.cls-1{fill:url(#linear-gradient);}.cls-2{fill:#edaa72;}.cls-3{fill:#ee3565;}.cls-4{fill:url(#linear-gradient-2);}.cls-5{fill:#e3965d;}.cls-6{fill:#d58c55;}.cls-7{fill:#bf6d35;}.cls-8{fill:#c62c6b;}.cls-9{fill:#dd7399;}.cls-10{fill:#fbd8e7;}</style><linearGradient id="linear-gradient" x1="150" y1="429.94" x2="150" y2="35.13" gradientUnits="userSpaceOnUse"><stop offset="0" stop-color="#edaa72"/><stop offset="0.18" stop-color="#edaa72"/><stop offset="0.34" stop-color="#bf6d35"/><stop offset="1" stop-color="#bf6d35"/></linearGradient><linearGradient id="linear-gradient-2" x1="150" y1="368.81" x2="150" y2="158.23" xlink:href="#linear-gradient"/></defs><title>blook_biscuit-2</title><g id="alice_in_wonderland" data-name="alice in wonderland"><path class="cls-1" d="M300,112.92s-6-9.42-13.53-13.31a36.06,36.06,0,0,0-22.7-8h0A36.14,36.14,0,0,0,235,105.9a36.15,36.15,0,0,0-28.82-14.29h0c-.71,0-1.41,0-2.11.06a37.91,37.91,0,0,0-4.12.47,36.11,36.11,0,0,0-20.55,11.3c-.44.48-.87,1-1.29,1.49-.41-.51-.84-1-1.28-1.49A36.12,36.12,0,0,0,150,91.61h0a36.12,36.12,0,0,0-26.78,11.83c-.44.48-.87,1-1.28,1.49-.42-.51-.85-1-1.29-1.49a36.11,36.11,0,0,0-20.55-11.3,37.83,37.83,0,0,0-4.1-.47c-.7,0-1.4-.06-2.11-.06h0A36.12,36.12,0,0,0,65.05,105.9,36.15,36.15,0,0,0,36.23,91.61h0a36.06,36.06,0,0,0-22.7,8C6,103.5,0,112.92,0,112.92v14.91c0,8.1,2.66,18.6,7.15,24.63C5.9,154.14,0,155.82,0,155.82V171a36.09,36.09,0,0,0,7.8,22.45l-7.75,9.8S0,209,0,215.93c0,9,3.28,22.76,8.69,29.09C7,246.94.3,245.61.3,245.61S0,256.73,0,263H0c0,8.68,3.06,22.22,8.16,28.46C6.88,293,0,295.5,0,295.5v13.27A36.23,36.23,0,0,0,36.23,345h0a36.15,36.15,0,0,0,28.82-14.29A36.15,36.15,0,0,0,93.87,345h0a36.17,36.17,0,0,0,28.07-13.32A36.14,36.14,0,0,0,150,345h0a36.14,36.14,0,0,0,28.06-13.32A36.17,36.17,0,0,0,206.13,345h0A36.18,36.18,0,0,0,235,330.71,36.14,36.14,0,0,0,263.77,345h0A36.23,36.23,0,0,0,300,308.77h0V293.71s-6.39-.1-8.16-2.27c5.1-6.24,8.16-19.78,8.16-28.46h0c0-6.25-.3-17.37-.3-17.37s-6.74,1.33-8.39-.59c5.41-6.33,8.69-20.11,8.69-29.09,0-6.94-.05-12.68-.05-12.68l-7.75-9.76A36.08,36.08,0,0,0,300,171V155.82s-5.9-1.68-7.15-3.36c4.49-6,7.15-16.53,7.15-24.63Z"/><path class="cls-2" d="M300,116.24A36.23,36.23,0,0,0,263.78,80h0A36.15,36.15,0,0,0,235,94.3,36.16,36.16,0,0,0,206.13,80h0a36.15,36.15,0,0,0-28.07,13.33A36.15,36.15,0,0,0,150,80h0a36.15,36.15,0,0,0-28.06,13.33A36.15,36.15,0,0,0,93.87,80h0A36.19,36.19,0,0,0,65.05,94.3,36.19,36.19,0,0,0,36.23,80h0A36.23,36.23,0,0,0,0,116.23H0a36.09,36.09,0,0,0,7.15,21.61A36,36,0,0,0,0,159.45H0A36.09,36.09,0,0,0,7.8,181.9,36,36,0,0,0,0,204.34H0a36,36,0,0,0,8.69,23.52A36.07,36.07,0,0,0,0,251.39H0a36,36,0,0,0,8.16,22.89A36.07,36.07,0,0,0,0,297.18H0a36.23,36.23,0,0,0,36.23,36.23h0a36.15,36.15,0,0,0,28.82-14.29,36.15,36.15,0,0,0,28.82,14.29h0a36.17,36.17,0,0,0,28.07-13.32A36.14,36.14,0,0,0,150,333.41h0a36.14,36.14,0,0,0,28.06-13.32,36.17,36.17,0,0,0,28.07,13.32h0A36.18,36.18,0,0,0,235,319.12a36.15,36.15,0,0,0,28.82,14.29h0A36.23,36.23,0,0,0,300,297.18h0a36.07,36.07,0,0,0-8.16-22.9A36,36,0,0,0,300,251.39h0a36.07,36.07,0,0,0-8.69-23.53A36,36,0,0,0,300,204.34h0a36,36,0,0,0-7.8-22.44,36.09,36.09,0,0,0,7.8-22.45h0a36,36,0,0,0-7.15-21.6A36.09,36.09,0,0,0,300,116.24Z"/><path class="cls-3" d="M288,105.25c0-20-4.22-36.22-24.23-36.22h0a36.1,36.1,0,0,0-23.18,8.39,8.74,8.74,0,0,1-11.28,0A36.05,36.05,0,0,0,206.13,69h0a36.11,36.11,0,0,0-22.6,7.91,8.71,8.71,0,0,1-10.93,0A36.11,36.11,0,0,0,150,69h0a36.11,36.11,0,0,0-22.6,7.91,8.71,8.71,0,0,1-10.93,0A36.11,36.11,0,0,0,93.87,69h0a36.1,36.1,0,0,0-23.18,8.39,8.74,8.74,0,0,1-11.28,0A36.1,36.1,0,0,0,36.23,69h0C16.22,69,12,85.25,12,105.25h0a38.43,38.43,0,0,0,3.66,16.51,12,12,0,0,1,0,10.2A38.42,38.42,0,0,0,12,148.46h0a38.52,38.52,0,0,0,4.1,17.4,11.23,11.23,0,0,1,0,10.1A38.44,38.44,0,0,0,12,193.35h0a38.47,38.47,0,0,0,4.63,18.42,10.69,10.69,0,0,1,0,10.21A38.47,38.47,0,0,0,12,240.4h0C12,246-2.49,251.3,4.38,256a7.24,7.24,0,0,1,1.78,10A36.06,36.06,0,0,0,0,286.19H0a36.23,36.23,0,0,0,36.23,36.23h0A36,36,0,0,0,59.41,314a8.77,8.77,0,0,1,11.28,0,36,36,0,0,0,23.18,8.4h0a36.11,36.11,0,0,0,22.6-7.91,8.68,8.68,0,0,1,10.93,0A36.11,36.11,0,0,0,150,322.4h0a36.11,36.11,0,0,0,22.6-7.91,8.68,8.68,0,0,1,10.93,0,36.11,36.11,0,0,0,22.6,7.91h0a36,36,0,0,0,23.18-8.4,8.77,8.77,0,0,1,11.28,0,36,36,0,0,0,23.18,8.4h0A36.23,36.23,0,0,0,300,286.19h0A36.06,36.06,0,0,0,293.84,266a7.24,7.24,0,0,1,1.78-10c6.87-4.73-7.62-10-7.62-15.63h0A38.5,38.5,0,0,0,283.37,222a10.69,10.69,0,0,1,0-10.21A38.41,38.41,0,0,0,288,193.35h0A38.44,38.44,0,0,0,283.9,176a11.23,11.23,0,0,1,0-10.1,38.52,38.52,0,0,0,4.1-17.4h0a38.42,38.42,0,0,0-3.66-16.5,12,12,0,0,1,0-10.2A38.64,38.64,0,0,0,288,105.25Z"/><path class="cls-4" d="M300,77.3s-6-9.41-13.53-13.3a36.06,36.06,0,0,0-22.7-8h0A36.18,36.18,0,0,0,235,70.28,36.15,36.15,0,0,0,206.13,56h0c-.71,0-1.41,0-2.11.06a37.91,37.91,0,0,0-4.12.47,36.23,36.23,0,0,0-20.55,11.3c-.44.48-.87,1-1.29,1.49-.41-.51-.84-1-1.28-1.49A36.12,36.12,0,0,0,150,56h0a36.12,36.12,0,0,0-26.78,11.83c-.44.49-.87,1-1.28,1.49-.42-.51-.85-1-1.29-1.49a36.23,36.23,0,0,0-20.55-11.3,35.51,35.51,0,0,0-4.1-.48c-.7,0-1.4-.06-2.11-.06h0A36.16,36.16,0,0,0,65.05,70.28,36.14,36.14,0,0,0,36.23,56h0a36.06,36.06,0,0,0-22.7,8C6,67.89,0,77.3,0,77.3V92.21c0,8.1,2.66,18.6,7.15,24.63C5.9,118.52,0,120.2,0,120.2v15.22a36.09,36.09,0,0,0,7.8,22.45C6.92,159,.05,167.63.05,167.63v12.68c0,9,3.28,22.76,8.69,29.09C7,211.32.3,210,.3,210S0,221.11,0,227.36H0c0,8.69,3.06,22.22,8.16,28.46C6.88,257.38,0,259.88,0,259.88v13.28a36.23,36.23,0,0,0,36.23,36.22h0a36.15,36.15,0,0,0,28.82-14.29,36.15,36.15,0,0,0,28.82,14.29h0a36.17,36.17,0,0,0,28.07-13.32A36.14,36.14,0,0,0,150,309.38h0a36.14,36.14,0,0,0,28.06-13.32,36.17,36.17,0,0,0,28.07,13.32h0A36.18,36.18,0,0,0,235,295.09a36.15,36.15,0,0,0,28.82,14.29h0A36.23,36.23,0,0,0,300,273.16V258.09s-6.39-.1-8.16-2.27c5.1-6.24,8.16-19.77,8.16-28.46h0c0-6.25-.3-17.37-.3-17.37s-6.74,1.33-8.39-.59c5.41-6.33,8.69-20.1,8.69-29.09,0-6.94-.05-12.68-.05-12.68s-6.87-8.64-7.75-9.76a36.09,36.09,0,0,0,7.8-22.45V120.2s-5.9-1.68-7.15-3.36c4.49-6,7.15-16.53,7.15-24.63Z"/><path class="cls-2" d="M300,81.23A36.23,36.23,0,0,0,263.77,45h0A36.14,36.14,0,0,0,235,59.29,36.18,36.18,0,0,0,206.13,45h0a36.17,36.17,0,0,0-28.07,13.32A36.14,36.14,0,0,0,150,45h0a36.14,36.14,0,0,0-28.06,13.32A36.17,36.17,0,0,0,93.87,45h0A36.15,36.15,0,0,0,65.05,59.29,36.15,36.15,0,0,0,36.23,45h0A36.23,36.23,0,0,0,0,81.23H0a36.08,36.08,0,0,0,7.15,21.6A36.09,36.09,0,0,0,0,124.44H0a36,36,0,0,0,7.8,22.44A36.09,36.09,0,0,0,0,169.33H0a36,36,0,0,0,8.69,23.52A36,36,0,0,0,0,216.37H0a36.07,36.07,0,0,0,8.16,22.9A36.07,36.07,0,0,0,0,262.17H0a36.23,36.23,0,0,0,36.23,36.22h0A36.15,36.15,0,0,0,65.05,284.1a36.15,36.15,0,0,0,28.82,14.29h0a36.17,36.17,0,0,0,28.07-13.32A36.14,36.14,0,0,0,150,298.39h0a36.14,36.14,0,0,0,28.06-13.32,36.17,36.17,0,0,0,28.07,13.32h0A36.12,36.12,0,0,0,235,284.1a36.15,36.15,0,0,0,28.82,14.29h0A36.23,36.23,0,0,0,300,262.17h0a36.07,36.07,0,0,0-8.16-22.9,36.07,36.07,0,0,0,8.16-22.9h0a36,36,0,0,0-8.69-23.52A36,36,0,0,0,300,169.33h0a36.09,36.09,0,0,0-7.8-22.45,36,36,0,0,0,7.8-22.44h0a36.09,36.09,0,0,0-7.15-21.61A36.08,36.08,0,0,0,300,81.23Z"/><ellipse class="cls-5" cx="250.01" cy="180.21" rx="11.2" ry="12.6"/><ellipse class="cls-5" cx="150" cy="248.67" rx="11.2" ry="12.6"/><ellipse class="cls-5" cx="150" cy="106.86" rx="11.2" ry="12.6"/><ellipse class="cls-5" cx="49.99" cy="107.18" rx="11.2" ry="12.6"/><ellipse class="cls-5" cx="150" cy="180.21" rx="11.2" ry="12.6"/><ellipse class="cls-5" cx="250.01" cy="106.86" rx="11.2" ry="12.6"/><ellipse class="cls-5" cx="49.99" cy="180.52" rx="11.2" ry="12.6"/><ellipse class="cls-5" cx="49.99" cy="248.98" rx="11.2" ry="12.6"/><ellipse class="cls-5" cx="250.01" cy="248.67" rx="11.2" ry="12.6"/><ellipse class="cls-6" cx="150" cy="242.62" rx="11.2" ry="12.6"/><ellipse class="cls-6" cx="150" cy="100.8" rx="11.2" ry="12.6"/><ellipse class="cls-6" cx="49.99" cy="101.11" rx="11.2" ry="12.6"/><ellipse class="cls-6" cx="250.01" cy="100.8" rx="11.2" ry="12.6"/><ellipse class="cls-6" cx="150" cy="174.14" rx="11.2" ry="12.6"/><ellipse class="cls-6" cx="250.01" cy="174.14" rx="11.2" ry="12.6"/><ellipse class="cls-6" cx="49.99" cy="174.45" rx="11.2" ry="12.6"/><ellipse class="cls-6" cx="49.99" cy="242.93" rx="11.2" ry="12.6"/><ellipse class="cls-6" cx="250.01" cy="242.62" rx="11.2" ry="12.6"/><path class="cls-7" d="M250.55,159.71c-.26-6.76-1.36-7.67-2-8.22l-8.25-6.9-.4-.31a5.22,5.22,0,0,0,.25-.82l2.34-10c.1-.39.47-10.91-1.22-13a6.42,6.42,0,0,0-3.47-2.24l3.47-9.89c.41-1.2.61-11.4-.83-13.43a6.45,6.45,0,0,0-5.24-2.7H219.31a6.44,6.44,0,0,0-6.07,4.3L205.71,118H201.4a6.33,6.33,0,0,0-3.08.79,6.43,6.43,0,0,0-3.07-.79h-13.7a6.84,6.84,0,0,0-4.71,1.86,24,24,0,0,0-13-3.35,28.79,28.79,0,0,0-14.54,3.89c.5-.79,1.1-2.59,1.11-7.74,0-6.65-1-7.7-1.43-8.2-2.37-2.54-11.46-10.8-29-10.8-25.9,0-35.09,14.78-35.09,27.44,0,.32,0,.63,0,.94v.12c0,.49,0,1,0,1.46,0,.33,0,.64,0,1v.12c0,.49,0,1,0,1.46,0,.32,0,.64,0,1v.12c0,.49,0,1,0,1.46a20.09,20.09,0,0,0,1,6.48,19.74,19.74,0,0,0-8,16.44c0,.44,0,.87,0,1.29s0,.82,0,1.24,0,.87,0,1.29,0,.82,0,1.24,0,.87,0,1.29,0,.82,0,1.24a23.27,23.27,0,0,0,.16,2.65c-16.24.43-25.47,13.29-27.94,17.28C49,180.9,49,192.85,51.48,195l9.1,7.64a6.44,6.44,0,0,0,7.55.53l-11.31,32.1c-.42,1.19-.63,11.39.81,13.43a6.45,6.45,0,0,0,5.25,2.71H80.74a6.44,6.44,0,0,0,6.07-4.29l13-37c3.39-9.56,5.81-9.86,7.76-9.87l-.12.36L95.27,235.25c-.42,1.19-.62,11.39.82,13.43a6.44,6.44,0,0,0,5.24,2.7H119.2a6.43,6.43,0,0,0,6.06-4.29l13-37c2.75-7.77,4.56-9.41,5.79-9.76-.13.34-.28.7-.43,1.07l-1.67,4.13c-2,4.73-3.9,9.94-3.9,16.91q0,.72,0,1.41v.25c0,.29,0,.57,0,.87,0,.48,0,.94,0,1.41v.25c0,.29,0,.57,0,.87,0,.47,0,.94,0,1.4v.26c0,.28,0,.57,0,.87,0,15.71,12.62,22.86,24.36,22.86,6.71,0,13.13-2.32,19.1-6.92,6,4.54,14,6.92,23.32,6.92,22.28,0,34.39-12.87,37.56-16.81.4-.49,1.22-1.51,1.19-7.88s-.87-7.41-1.33-7.94l-7.56-8.77a6.48,6.48,0,0,0-4.6-2.22,6.35,6.35,0,0,0-2.89.56c0-.39,0-.76-.05-1.14s.05-.87.05-1.31,0-.82-.05-1.22.05-.87.05-1.31c0-11.88-10.31-20.18-25.06-20.18a30.75,30.75,0,0,0-24.92,11.89c0-.21,0-.41,0-.62q0-.73,0-1.47v-.12c0-.32,0-.63,0-.93q0-.75,0-1.47v-.13c0-.32,0-.63,0-.93q0-.75,0-1.47v-.13c0-.31,0-.63,0-.93a36.09,36.09,0,0,0-.43-5.59,25,25,0,0,0,10,1.95,30.9,30.9,0,0,0,16.61-5c4.15,3.25,9.73,5,16.27,5,17.22,0,27.4-13.09,30.11-17.1C250,167.18,250.8,166,250.55,159.71ZM226.7,149.8l.48-1.37h1.56A7.85,7.85,0,0,1,226.7,149.8Zm-90.21-14.48c0-.81,0-1.63-.07-2.35a6.29,6.29,0,0,0,1.65-.94A32.17,32.17,0,0,0,136.49,135.32ZM165,151.22h0Z"/><path class="cls-8" d="M246.92,150.9l-8.25-6.9a3.88,3.88,0,0,0-5.76.86c-1.06,1.62-4,5.4-8.31,5.4a9.72,9.72,0,0,1-1,0,.45.45,0,0,1-.38-.59c.45-1.37,1-3,1.69-4.84l.39-1.1a.45.45,0,0,1,.43-.31h8.16a3.88,3.88,0,0,0,3.8-3l2.34-10c.17-.71,0-10-.74-10.9a3.91,3.91,0,0,0-3.05-1.47h-1.29a.46.46,0,0,1-.43-.61l4.36-12.46c.29-.83.22-10.1-.5-11.12a3.9,3.9,0,0,0-3.18-1.64H219.31a3.9,3.9,0,0,0-3.68,2.61l-8,22.91a.45.45,0,0,1-.43.31H201.4a3.87,3.87,0,0,0-2.76,1.16.44.44,0,0,1-.62,0,3.87,3.87,0,0,0-2.77-1.17h-13.7a4.35,4.35,0,0,0-3.88,2.38h0a.45.45,0,0,1-.69.14c-3.38-2.66-7.76-4-13.09-4-15.33,0-27,12.38-27.56,29a.45.45,0,0,1-.15.33,18.54,18.54,0,0,1-4.75,2.85,4.17,4.17,0,0,0,.44-1.21l2-11.23a55,55,0,0,0-.12-6.92l.12-.66,0-.27a3.84,3.84,0,0,0,2.94-1.18l10.26-10.61c1.05-1.08,1.06-11.86.05-12.94-2.2-2.35-10.64-10-27.21-10-24,0-32.56,13.42-32.56,24.91,0,.36,0,.71,0,1.06s0,1,0,1.47,0,.71,0,1.06,0,1,0,1.46,0,.72,0,1.07,0,1,0,1.46a17.28,17.28,0,0,0,1.46,7,.45.45,0,0,1-.17.56A17.47,17.47,0,0,0,80.46,149c0,.44,0,.86,0,1.29s0,.82,0,1.24,0,.86,0,1.29,0,.82,0,1.24,0,.86,0,1.29,0,.82,0,1.24a18.71,18.71,0,0,0,.58,4.66.46.46,0,0,1-.47.57c-.53,0-1.07-.06-1.64-.06-15.45,0-24.29,12.32-26.63,16.09-.63,1-.44,11.58.8,12.63l9.11,7.64a3.89,3.89,0,0,0,5.7-.76c1.62-2.34,3.41-4,4.84-4.53a.46.46,0,0,1,.59.58c-.43,1.25-.94,2.68-1.53,4.34L59.2,233.55c-.29.83-.23,10.11.5,11.13a3.91,3.91,0,0,0,3.18,1.65H80.74a3.91,3.91,0,0,0,3.68-2.61l13-37c3.42-9.66,6.38-11.55,10.34-11.55a3.29,3.29,0,0,1,2.75,1.15.47.47,0,0,1,.06.43c-.22.69-.48,1.4-.75,2.15L97.65,233.55c-.29.84-.22,10.11.5,11.13a3.91,3.91,0,0,0,3.18,1.65H119.2a3.91,3.91,0,0,0,3.68-2.61l13-37c3.42-9.66,5.9-11.55,9-11.55a2.61,2.61,0,0,1,2.14,1,.43.43,0,0,1,.07.41A32.33,32.33,0,0,1,146,199.8L144.27,204c-1.87,4.5-3.7,9.43-3.7,15.94,0,.47,0,.94,0,1.4s0,.74,0,1.13,0,.94,0,1.39,0,.75,0,1.14,0,.94,0,1.39,0,.75,0,1.14c0,14.05,11,20.34,21.83,20.34,7.73,0,14.07-3.45,18.82-7.42a.45.45,0,0,1,.58,0c5.19,4.48,12.78,7.41,23,7.41,21.16,0,32.6-12.16,35.6-15.88.86-1.06.84-11.49-.09-12.57l-7.57-8.78a3.88,3.88,0,0,0-5.65-.26c-.4.38-1,.92-1.77,1.55a.46.46,0,0,1-.75-.39c0-.53.07-1.06.07-1.6s0-.81,0-1.21,0-.87,0-1.32,0-.81,0-1.21,0-.87,0-1.32,0-.81,0-1.21,0-.87,0-1.32c0-10.39-9.26-17.65-22.53-17.65-18.2,0-29.08,14.63-29.08,28.78,0,.27,0,.53,0,.79a.52.52,0,0,1-.11.32,13.43,13.43,0,0,1-4.15,3.47l-.63-.62c.53-1.31,1.12-2.78,1.75-4.48l1.78-4.75a43.63,43.63,0,0,0,3-14.76q0-.75,0-1.47c0-.36,0-.72,0-1.06q0-.75,0-1.47c0-.36,0-.72,0-1.06q0-.75,0-1.47c0-.36,0-.72,0-1.06a30.72,30.72,0,0,0-1.18-8.68l1.25-.92a20.65,20.65,0,0,0,12,3.43,28.9,28.9,0,0,0,16.52-5.4.45.45,0,0,1,.56,0c3.72,3.47,9.09,5.36,15.8,5.36,16,0,25.48-12.23,28-16C248.36,162.6,248.18,152,246.92,150.9ZM195.4,140.79a3.77,3.77,0,0,0,.61,1.11,3.91,3.91,0,0,0,3.05,1.47h0c-.17.66-.31,1.29-.44,1.91a.53.53,0,0,1-.08.17c-1.56,2.14-3.69,4.23-5.73,4.7a.46.46,0,0,1-.53-.6c.38-1.1.82-2.32,1.3-3.69ZM166.9,147a.49.49,0,0,1,0,.53,4.86,4.86,0,0,1-4,2.69,3.29,3.29,0,0,1-2.64-1.2.47.47,0,0,1,0-.52,4.82,4.82,0,0,1,4.07-2.68A3.32,3.32,0,0,1,166.9,147Zm-47.42,3.71c-.53,0-1,0-1.53,0,1.19-.06,2.52-.09,4-.09h.71C121.67,150.71,120.61,150.75,119.48,150.75Z"/><path class="cls-9" d="M151.37,151.14a1.13,1.13,0,0,1,.33,1.48c-2,3.57-11.11,16.48-35,16.48-21,0-33.29-8.24-33.29-20.07,0-8,4.88-13.06,13.47-16a1.13,1.13,0,0,0,.33-2c-4.61-3.27-6.84-7.63-6.84-12.53,0-10.54,7.75-22,29.61-22,15,0,22.67,6.57,24.92,8.92a1.14,1.14,0,0,1,0,1.57l-10,10.36a1.11,1.11,0,0,1-1.44.16A21.34,21.34,0,0,0,122,114c-7.36,0-9.74,3.28-9.74,6.45,0,3.48,3.38,6.56,11.53,6.56h6.09a1.14,1.14,0,0,1,1.12,1.34l-2,10.85a1.12,1.12,0,0,1-1.11.93H122c-10.83,0-16.7,1.49-16.7,6.66,0,4.27,5.37,6.95,14.21,6.95,14,0,19.69-6.21,21.37-8.66a1.14,1.14,0,0,1,1.59-.27Z"/><path class="cls-9" d="M211,153.05a1.13,1.13,0,0,1,.21,1.51c-2.24,3.24-11,14.54-24.47,14.54-5.22,0-9.34-1.6-12.21-4.49a1.11,1.11,0,0,0-1.49-.09,21.13,21.13,0,0,1-13.73,4.58c-12.12,0-20.07-9.63-20.07-22.35,0-14.71,9.74-27.33,24.64-27.33,6.07,0,10.35,1.94,13.18,5.21a1.13,1.13,0,0,0,1.85-.24l1.45-2.86a1.15,1.15,0,0,1,1-.62H195a1.13,1.13,0,0,1,1.07,1.51l-4.84,13.79c-2.29,6.46-3.58,9.94-3.58,12.72,0,2.59,1.49,4.28,4.37,4.28,4.35,0,7.93-4.51,9.37-6.6a1.12,1.12,0,0,1,1.66-.23Zm-40-9.68c0-4.87-2.88-8.05-6.76-8.05-4.87,0-8.15,4.87-8.15,9.84s2.79,8.05,6.76,8.05C167.67,153.21,171.05,148.34,171.05,143.37Z"/><path class="cls-9" d="M244.89,153.06a1.12,1.12,0,0,1,.22,1.5c-2.22,3.24-11,14.54-25.48,14.54-12.32,0-18.78-6.95-18.78-17.78,0-4.28,1.79-10.34,4.37-17.89l.2-.59H199.3a1.14,1.14,0,0,1-1.1-1.4l2.25-9.65a1.13,1.13,0,0,1,1.1-.88h7.24a1.13,1.13,0,0,0,1.07-.76l8.51-24.31a1.13,1.13,0,0,1,1.07-.76h15.49A1.14,1.14,0,0,1,236,96.59l-8,22.81a1.13,1.13,0,0,0,1.07,1.51H236a1.13,1.13,0,0,1,1.1,1.39L234.84,132a1.14,1.14,0,0,1-1.1.88h-9.63a1.13,1.13,0,0,0-1.07.75l-.92,2.62c-2.29,6.36-3.38,9.74-3.38,12.32s1.59,4.68,5.86,4.68c5.61,0,9.26-4.46,10.67-6.57a1.12,1.12,0,0,1,1.67-.24Z"/><path class="cls-9" d="M187.6,219.27a1.12,1.12,0,0,1,.28,1.51c-2.27,3.56-11.51,16.5-25.48,16.5-8.75,0-18.88-4.67-18.88-17.39,0-5.66,1.49-10,3.48-14.8l1.69-4.18a24.15,24.15,0,0,0,2.18-9.24c0-4.57-2.68-7-6-7-5.37,0-8.45,4-11.83,13.51L120.14,235a1.13,1.13,0,0,1-1.07.76H101.6a1.14,1.14,0,0,1-1.08-1.51l11.7-33.37c1.09-3.08,2.18-5.76,2.18-8.54,0-5.17-2.78-7.75-6.65-7.75-6.16,0-9.74,4-13.12,13.51L81.68,235a1.13,1.13,0,0,1-1.07.76H63.14a1.13,1.13,0,0,1-1.07-1.51l12.39-35.16c2.38-6.65,3.58-9.93,3.58-12.72s-1.69-4.27-4.38-4.27c-3.52,0-6.7,3.91-8.06,5.82a1.12,1.12,0,0,1-1.65.22l-8.82-7.4a1.13,1.13,0,0,1-.24-1.47c2-3.22,10.14-14.56,24-14.56,7.44,0,11.65,3.08,13.79,6.75a1.13,1.13,0,0,0,1.67.35,31.6,31.6,0,0,1,19.72-7.1c7,0,12.42,2.41,15.53,7.39a1.13,1.13,0,0,0,1.68.27,30.57,30.57,0,0,1,20.25-7.66c11.22,0,20.17,6.66,20.17,21.07A41.13,41.13,0,0,1,169,199.52l-1.78,4.77c-2.49,6.66-4.38,10-4.38,12.82s1.69,4.27,4.38,4.27c4.63,0,8.84-5.72,10.39-8.11a1.14,1.14,0,0,1,1.63-.29Z"/><path class="cls-9" d="M238,221.17a1.13,1.13,0,0,1,0,1.46c-2.53,3.09-13.31,14.65-33.19,14.65-19.48,0-28.82-11.13-28.82-23.85a25.75,25.75,0,0,1,26.13-25.83c11,0,19.58,5.46,19.58,14.7S214.48,217.39,205,220a1,1,0,0,0,.23,1.86h.06a34.57,34.57,0,0,0,23.71-9.3,1.14,1.14,0,0,1,1.64.09Zm-45.1-10.82h0a1.14,1.14,0,0,0,1.29,1.13c7.5-1.11,11.63-3.71,11.63-7.3,0-1.89-1.59-3.48-4.77-3.48C196.47,200.71,192.89,205.28,192.89,210.35Z"/><ellipse class="cls-10" cx="120.32" cy="102.26" rx="8.28" ry="3.77"/><circle class="cls-10" cx="134.89" cy="105.02" r="3.03"/><ellipse class="cls-10" cx="153.94" cy="129.05" rx="8.28" ry="3.77" transform="translate(-43.43 91.67) rotate(-29.25)"/><circle class="cls-10" cx="168.01" cy="124.33" r="3.03"/><ellipse class="cls-10" cx="227.21" cy="105.29" rx="8.28" ry="3.77" transform="translate(59.26 291.03) rotate(-72.74)"/><circle class="cls-10" cx="231.07" cy="126.51" r="3.03"/><circle class="cls-10" cx="238.3" cy="153.18" r="3.03"/><ellipse class="cls-10" cx="157.65" cy="172.59" rx="3.77" ry="8.28" transform="translate(-68.75 230.74) rotate(-62)"/><circle class="cls-10" cx="166.04" cy="184.56" r="3.03"/><circle class="cls-10" cx="215.06" cy="198.3" r="3.03"/><circle class="cls-10" cx="231.04" cy="220" r="3.03"/><ellipse class="cls-10" cx="116.15" cy="170.8" rx="3.77" ry="8.28" transform="translate(-75.03 249.01) rotate(-78.03)"/><circle class="cls-10" cx="85.15" cy="171.11" r="3.03"/></g></svg>