<svg id="Layer_1" data-name="Layer 1" xmlns="http://www.w3.org/2000/svg" xmlns:xlink="http://www.w3.org/1999/xlink" viewBox="0 0 300 345"><defs><linearGradient id="linear-gradient" x1="150" y1="356.11" x2="150" y2="161.16" gradientUnits="userSpaceOnUse"><stop offset="0" stop-color="#755643"/><stop offset="0.61" stop-color="#3f271e"/></linearGradient><clipPath id="clip-path"><rect width="300" height="169.85" fill="none"/></clipPath></defs><g id="australia"><path d="M263.62,345H36.38A36.38,36.38,0,0,1,0,308.62V259.14H300v49.48A36.38,36.38,0,0,1,263.62,345Z" fill="url(#linear-gradient)"/><rect y="45" width="300" height="253.39" rx="36.38" fill="#88766b"/><path d="M307.43,268.58H295.51s2.73,20.74-3.06,24.15-9.53-2.39-9.53-2.39,7.15,8.18,0,14-23.15-5.94-23.15-5.94,7.83,11.58-2.08,16.47-30.46-17.46-30.46-17.46,7.69,12.57,0,17.46-11.72,0-30.46-10.53S168,298.39,168,298.39H132s-10-4.59-28.75,5.94-22.78,15.41-30.46,10.53,0-17.46,0-17.46-20.55,22.34-30.46,17.46-2.08-16.47-2.08-16.47-16,11.76-23.15,5.94,0-14,0-14-3.74,5.79-9.53,2.39-3.06-24.15-3.06-24.15H-7.43" fill="#88766b"/><path d="M248.89,246.38a30.46,30.46,0,0,1-43.07-43.08c11.89-11.89,34.79-18,47.18-5.19S260.79,234.48,248.89,246.38Z" fill="#4c372e"/><path d="M94.18,203.3a30.46,30.46,0,1,1-43.07,43.08c-11.9-11.9-16.5-35.46-4.11-48.27S82.29,191.41,94.18,203.3Z" fill="#4c372e"/><circle cx="227.35" cy="233.3" r="30.46" fill="#fff"/><circle cx="72.65" cy="233.3" r="30.46" fill="#fff"/><path d="M99.19,228.88a11,11,0,0,1-16-15,18.45,18.45,0,0,0-2.7-.2,19.16,19.16,0,1,0,19.16,19.16A19.52,19.52,0,0,0,99.19,228.88Zm-26.78,16.5A4.56,4.56,0,1,1,77,240.83,4.56,4.56,0,0,1,72.41,245.38Z" fill="#414042"/><path d="M238.26,228.77a11,11,0,0,1-15.94-14.85,19.53,19.53,0,0,0-2.77-.2,19.18,19.18,0,1,0,18.71,15.05Zm-26.92,16.61a4.56,4.56,0,1,1,4.55-4.55A4.56,4.56,0,0,1,211.34,245.38Z" fill="#414042"/><path d="M169.21,216.43a50.6,50.6,0,0,1,.53-14.42,31.63,31.63,0,0,1,2.11-7.11,17.9,17.9,0,0,1,1.94-3.34,12.08,12.08,0,0,1,3-2.82,8.39,8.39,0,0,1,4-1.27,8.85,8.85,0,0,1,4.16.68,7.29,7.29,0,0,1,3.22,2.86,10.1,10.1,0,0,1,1.36,3.77,22.25,22.25,0,0,1-.17,7.43,33.54,33.54,0,0,1-2,6.94,60.94,60.94,0,0,0,.55-7.08,25.2,25.2,0,0,0-.64-6.79c-.59-2.11-1.68-3.91-3.41-4.52a6.41,6.41,0,0,0-2.84-.37,5.42,5.42,0,0,0-2.66.9,9.1,9.1,0,0,0-2.23,2,19.84,19.84,0,0,0-1.7,2.78,37.56,37.56,0,0,0-2.4,6.42A120,120,0,0,0,169.21,216.43Z" fill="#694e42"/><path d="M182.75,189c4.85-14.3,19.15-24.31,27.91-22.22s2.47,16.77,2.47,16.77S223.6,166,231.77,168.86,234.32,180,234.32,180s15.32-13.06,21.45-8.28-2.56,12.46-2.56,12.46,12.26-6.77,14.81-1-5.87,7.12-5.87,7.12,11.23-1.34,12.26,4.18-6.13,8.5-6.13,8.5,8.42-2.72,10.47,1.87-6.39,11.62-6.39,11.62,5.36-2.17,6.39,2.43a5,5,0,0,1-3.2,6s3.71-3.06,5.24,2.7-9.45,11-9.45,11,5.87.64,6.64,6.14-8.43,21-27.83,28.12" fill="none" stroke="#694e42" stroke-linecap="round" stroke-linejoin="round" stroke-width="2"/><path d="M173.7,194.38s-2.44-22.68,10.83-22.68c4.25,0,5.5,4.89,5.5,4.89" fill="none" stroke="#694e42" stroke-miterlimit="10" stroke-width="3"/><path d="M130.79,216.43a120,120,0,0,0-2.8-13.9,37.56,37.56,0,0,0-2.4-6.42,19.84,19.84,0,0,0-1.7-2.78,9.1,9.1,0,0,0-2.23-2,5.42,5.42,0,0,0-2.66-.9,6.41,6.41,0,0,0-2.84.37c-1.73.61-2.82,2.41-3.41,4.52a25.2,25.2,0,0,0-.64,6.79,60.94,60.94,0,0,0,.55,7.08,33.54,33.54,0,0,1-2-6.94,22.25,22.25,0,0,1-.17-7.43,10.1,10.1,0,0,1,1.36-3.77,7.29,7.29,0,0,1,3.22-2.86,8.85,8.85,0,0,1,4.16-.68,8.39,8.39,0,0,1,4,1.27,12.08,12.08,0,0,1,3,2.82,17.9,17.9,0,0,1,1.94,3.34,31.63,31.63,0,0,1,2.11,7.11A50.6,50.6,0,0,1,130.79,216.43Z" fill="#694e42"/><path d="M117.25,189c-4.85-14.3-19.15-24.31-27.91-22.22s-2.47,16.77-2.47,16.77S76.4,166,68.23,168.86,65.68,180,65.68,180s-15.32-13.06-21.45-8.28,2.56,12.46,2.56,12.46-12.26-6.77-14.81-1,5.87,7.12,5.87,7.12-11.23-1.34-12.26,4.18,6.13,8.5,6.13,8.5-8.42-2.72-10.47,1.87,6.39,11.62,6.39,11.62-5.36-2.17-6.39,2.43a5,5,0,0,0,3.2,6s-3.71-3.06-5.24,2.7,9.45,11,9.45,11-5.87.64-6.64,6.14,8.43,21,27.83,28.12" fill="none" stroke="#694e42" stroke-linecap="round" stroke-linejoin="round" stroke-width="2"/><path d="M126.3,194.38s2.44-22.68-10.83-22.68c-4.25,0-5.5,4.89-5.5,4.89" fill="none" stroke="#694e42" stroke-miterlimit="10" stroke-width="3"/><path d="M132.12,331.2s.72-17.84,0-29.79c-1.41-22.92-11.7-33.8-18.95-38.67a2.39,2.39,0,0,1,.94-4.34c19.18-3.61,28.5-19.65,32.73-30.82a3.41,3.41,0,0,1,6.36,0c4.23,11.17,13.55,27.21,32.73,30.82a2.39,2.39,0,0,1,.94,4.34c-7.25,4.87-17.54,15.75-18.95,38.67-.74,11.95,0,29.79,0,29.79" fill="#c4ada9"/><path d="M167.9,330.06C167.9,340,164.73,345,150,345s-17.9-5.05-17.9-14.94,4.1-17.89,17.9-17.89S167.9,320.18,167.9,330.06Z" fill="#aa7e79"/><path d="M136.93,268.58a21.79,21.79,0,0,1,6.34-2.41,31,31,0,0,1,6.73-.75,28.35,28.35,0,0,1,6.74.73,22,22,0,0,1,6.33,2.43c-2.3.07-4.46-.1-6.63-.09s-4.29-.08-6.43-.07-4.29,0-6.45.09S139.21,268.6,136.93,268.58Z" fill="#aa7e79"/><path d="M141.59,255.84a11.21,11.21,0,0,1,4-2,16.18,16.18,0,0,1,4.38-.6,15.58,15.58,0,0,1,4.39.58,11.3,11.3,0,0,1,4,2,39.8,39.8,0,0,1-4.32.35c-1.37,0-2.73.07-4.08.08s-2.72,0-4.1-.07A42.37,42.37,0,0,1,141.59,255.84Z" fill="#aa7e79"/><ellipse cx="143.66" cy="330.5" rx="3.23" ry="6.38" fill="#75514f"/><ellipse cx="156.34" cy="330.5" rx="3.23" ry="6.38" fill="#75514f"/><path d="M263.62,45H36.38A36.38,36.38,0,0,0,0,81.38V166a14.38,14.38,0,0,0,16.5,1.18,14.06,14.06,0,0,0,5.8-7.3A4.42,4.42,0,0,1,27.25,157a14.14,14.14,0,0,0,14.54-6.89,4.27,4.27,0,0,1,5.08-2,14.13,14.13,0,0,0,16.09-5,4.36,4.36,0,0,1,5.51-1.31,14.16,14.16,0,0,0,17.87-4.51,4.34,4.34,0,0,1,6-1.09,14.15,14.15,0,0,0,19.79-4.3,4.36,4.36,0,0,1,6-1.38,14.17,14.17,0,0,0,19.14-3.74,4.27,4.27,0,0,1,5.64-1.12,14.15,14.15,0,0,0,14.3,0,4.27,4.27,0,0,1,5.64,1.12,14.17,14.17,0,0,0,19.14,3.74,4.36,4.36,0,0,1,6,1.38,14.15,14.15,0,0,0,19.79,4.3,4.34,4.34,0,0,1,6,1.09,14.16,14.16,0,0,0,17.87,4.51,4.36,4.36,0,0,1,5.51,1.31,14.13,14.13,0,0,0,16.09,5,4.27,4.27,0,0,1,5.08,2A14.14,14.14,0,0,0,272.75,157a4.42,4.42,0,0,1,4.95,2.89,14.06,14.06,0,0,0,5.8,7.3A14.38,14.38,0,0,0,300,166V81.38A36.38,36.38,0,0,0,263.62,45Z" fill="#694e42"/><g clip-path="url(#clip-path)"><path d="M126,42.85a10.68,10.68,0,1,0,21.24-2.26,83.72,83.72,0,0,0-2.38-12.17c-4.57-17.24-18.25-15.84-19.09,1.95A82.35,82.35,0,0,0,126,42.85Z" fill="#3f271e"/><path d="M143.1,29.27A7.87,7.87,0,0,1,137.17,39c-.23,0-.46.08-.7.1s-.47,0-.7,0a7.87,7.87,0,0,1-7.85-8.3c.61-14.15,4.46-30.17,4.46-30.17S139.52,15.56,143.1,29.27Z" fill="#c59a3b"/><path d="M141.4,23.46a6.69,6.69,0,0,1-4.35,8.5l-.62.14c-.23,0-.46.08-.7.11s-.46,0-.7,0-.43,0-.64,0a6.68,6.68,0,0,1-6-7.39,200.76,200.76,0,0,1,4-24.14A200.18,200.18,0,0,1,141.4,23.46Z" fill="#e9c264"/><path d="M99.65,43.16a10.68,10.68,0,0,0,21.24-2.26,82.4,82.4,0,0,0-2.38-12.17C114,11.49,100.27,12.89,99.42,30.68A83.68,83.68,0,0,0,99.65,43.16Z" fill="#3f271e"/><path d="M116.32,29.58a7.87,7.87,0,0,1-5.92,9.77l-.7.1c-.23,0-.47,0-.7,0a7.86,7.86,0,0,1-7.85-8.29C101.76,17,105.61,1,105.61,1S112.75,15.87,116.32,29.58Z" fill="#c59a3b"/><path d="M114.63,23.78a6.68,6.68,0,0,1-4.35,8.49,6.23,6.23,0,0,1-.62.15c-.23,0-.46.08-.7.1s-.47,0-.7,0-.43,0-.64,0a6.68,6.68,0,0,1-6-7.39,200.76,200.76,0,0,1,4-24.14A199.88,199.88,0,0,1,114.63,23.78Z" fill="#e9c264"/><path d="M75.56,47.56A10.68,10.68,0,0,0,96.8,45.3a82.4,82.4,0,0,0-2.38-12.17c-4.57-17.24-18.25-15.84-19.09,1.95A82.35,82.35,0,0,0,75.56,47.56Z" fill="#3f271e"/><path d="M91.81,34.06a7.87,7.87,0,0,1-5.93,9.76c-.23,0-.46.08-.7.11s-.47,0-.7,0a7.87,7.87,0,0,1-7.85-8.29C77.24,21.52,81.09,5.5,81.09,5.5S88.23,20.35,91.81,34.06Z" fill="#c59a3b"/><path d="M90.11,28.25a6.68,6.68,0,0,1-4.35,8.5,6.23,6.23,0,0,1-.62.15c-.23,0-.46.08-.7.1s-.46,0-.7,0-.43,0-.64,0a6.68,6.68,0,0,1-6-7.39,200.76,200.76,0,0,1,4-24.14A200.18,200.18,0,0,1,90.11,28.25Z" fill="#e9c264"/><path d="M49.91,53.73a10.68,10.68,0,1,0,20.84-4.65A82.32,82.32,0,0,0,67,37.26C60.53,20.65,47.1,23.58,48.27,41.35A82.28,82.28,0,0,0,49.91,53.73Z" fill="#3f271e"/><path d="M64.48,38.42a7.87,7.87,0,0,1-4.79,10.37c-.22.07-.45.13-.68.18s-.46.09-.69.12a7.87,7.87,0,0,1-8.74-7.35c-1-14.14,1-30.49,1-30.49S59.38,25.2,64.48,38.42Z" fill="#c59a3b"/><path d="M62.14,32.84a6.68,6.68,0,0,1-3.36,8.93l-.6.22c-.23.07-.45.13-.68.18l-.69.12-.64.06a6.68,6.68,0,0,1-6.84-6.66,200.1,200.1,0,0,1,1.28-24.44A200.35,200.35,0,0,1,62.14,32.84Z" fill="#e9c264"/><path d="M27.89,63.89a10.68,10.68,0,0,0,19.58-8.55,82,82,0,0,0-5.93-10.88C32,29.39,19.37,34.83,23.92,52.06A82.76,82.76,0,0,0,27.89,63.89Z" fill="#3f271e"/><path d="M39.54,45.85a7.87,7.87,0,0,1-2.72,11.09,6.14,6.14,0,0,1-.63.31c-.22.09-.44.18-.66.25a7.87,7.87,0,0,1-10-5.54c-3.68-13.69-4.82-30.13-4.82-30.13S32,33.85,39.54,45.85Z" fill="#c59a3b"/><path d="M36.18,40.82a6.69,6.69,0,0,1-1.59,9.41,6.32,6.32,0,0,1-.56.33c-.2.11-.41.21-.63.31s-.43.18-.65.25-.41.13-.62.18a6.67,6.67,0,0,1-8-5.23,198.3,198.3,0,0,1-3.42-24.24A201.72,201.72,0,0,1,36.18,40.82Z" fill="#e9c264"/><path d="M9.44,78A10.68,10.68,0,1,0,27.3,66.25a83.16,83.16,0,0,0-7.68-9.73C7.68,43.27-3.85,50.77,3.53,67A84.18,84.18,0,0,0,9.44,78Z" fill="#3f271e"/><path d="M18.1,58.06a7.88,7.88,0,0,1-.81,11.4c-.18.14-.37.27-.57.4s-.4.25-.6.37A7.88,7.88,0,0,1,5.34,66.44C-.58,53.57-4.48,37.56-4.48,37.56S8.66,47.51,18.1,58.06Z" fill="#c59a3b"/><path d="M13.94,53.67a6.69,6.69,0,0,1,0,9.55c-.16.14-.32.28-.49.41s-.37.28-.57.41-.4.25-.6.36a4.41,4.41,0,0,1-.58.28A6.68,6.68,0,0,1,3,60.87,200.29,200.29,0,0,1-4.48,37.56,199,199,0,0,1,13.94,53.67Z" fill="#e9c264"/><path d="M174,42.15a10.68,10.68,0,0,1-21.24-2.26,83.86,83.86,0,0,1,2.38-12.16c4.57-17.24,18.25-15.85,19.09,1.95A82.19,82.19,0,0,1,174,42.15Z" fill="#3f271e"/><path d="M156.9,28.56a7.87,7.87,0,0,0,5.93,9.76c.23,0,.46.08.7.11s.47,0,.7,0a7.87,7.87,0,0,0,7.85-8.29C171.47,16,167.62,0,167.62,0S160.48,14.85,156.9,28.56Z" fill="#c59a3b"/><path d="M158.6,22.75a6.68,6.68,0,0,0,4.35,8.5,6.23,6.23,0,0,0,.62.15c.23,0,.46.08.7.1s.46,0,.7.05.43,0,.64,0a6.68,6.68,0,0,0,6-7.39,200.76,200.76,0,0,0-4-24.14A200.18,200.18,0,0,0,158.6,22.75Z" fill="#e9c264"/><path d="M200.35,42.46a10.68,10.68,0,0,1-21.24-2.26A82.54,82.54,0,0,1,181.49,28c4.56-17.24,18.24-15.85,19.09,1.95A83.51,83.51,0,0,1,200.35,42.46Z" fill="#3f271e"/><path d="M183.68,28.88a7.86,7.86,0,0,0,5.92,9.76c.23,0,.46.08.7.1s.47,0,.7,0a7.87,7.87,0,0,0,7.85-8.3C198.24,16.34,194.39.32,194.39.32S187.25,15.17,183.68,28.88Z" fill="#c59a3b"/><path d="M185.37,23.07a6.69,6.69,0,0,0,4.35,8.5l.62.14c.23.05.46.08.7.11s.47,0,.7,0,.43,0,.64,0a6.68,6.68,0,0,0,6-7.39,200.76,200.76,0,0,0-4-24.14A199.27,199.27,0,0,0,185.37,23.07Z" fill="#e9c264"/><path d="M224.44,46.87A10.68,10.68,0,0,1,203.2,44.6a82.54,82.54,0,0,1,2.38-12.16c4.57-17.24,18.25-15.85,19.09,2A82.35,82.35,0,0,1,224.44,46.87Z" fill="#3f271e"/><path d="M208.19,33.36a7.87,7.87,0,0,0,5.93,9.76c.23,0,.46.08.7.1s.47,0,.7.05a7.88,7.88,0,0,0,7.85-8.3c-.61-14.15-4.46-30.18-4.46-30.18S211.77,19.65,208.19,33.36Z" fill="#c59a3b"/><path d="M209.89,27.55A6.67,6.67,0,0,0,214.24,36a6.23,6.23,0,0,0,.62.15,5.36,5.36,0,0,0,.7.1c.23,0,.46,0,.7.05s.43,0,.64,0a6.69,6.69,0,0,0,6-7.39,201.14,201.14,0,0,0-4-24.15A199.88,199.88,0,0,0,209.89,27.55Z" fill="#e9c264"/><path d="M250.09,53a10.68,10.68,0,1,1-20.84-4.64A81.53,81.53,0,0,1,233,36.57c6.48-16.61,19.91-13.68,18.74,4.09A82.32,82.32,0,0,1,250.09,53Z" fill="#3f271e"/><path d="M235.52,37.71a7.87,7.87,0,0,0,4.79,10.37c.22.07.45.13.68.18l.69.13A7.88,7.88,0,0,0,250.42,41c1-14.13-1-30.49-1-30.49S240.62,24.5,235.52,37.71Z" fill="#c59a3b"/><path d="M237.86,32.13a6.69,6.69,0,0,0,3.36,8.94l.6.21c.23.07.45.13.68.18s.46.1.69.13l.64.06A6.68,6.68,0,0,0,250.67,35a200.18,200.18,0,0,0-1.28-24.45A201.5,201.5,0,0,0,237.86,32.13Z" fill="#e9c264"/><path d="M272.11,63.19a10.68,10.68,0,1,1-19.58-8.54,82.72,82.72,0,0,1,5.93-10.89c9.54-15.06,22.17-9.62,17.62,7.6A82.76,82.76,0,0,1,272.11,63.19Z" fill="#3f271e"/><path d="M260.46,45.14a7.88,7.88,0,0,0,2.72,11.1,6.09,6.09,0,0,0,.63.3c.22.1.44.18.66.26a7.87,7.87,0,0,0,10-5.55c3.68-13.68,4.82-30.12,4.82-30.12S268,33.15,260.46,45.14Z" fill="#c59a3b"/><path d="M263.82,40.11a6.69,6.69,0,0,0,1.59,9.41,6.32,6.32,0,0,0,.56.33,6.14,6.14,0,0,0,.63.31c.21.1.43.18.65.26s.41.13.62.18a6.69,6.69,0,0,0,8-5.23,198.3,198.3,0,0,0,3.42-24.24A200.82,200.82,0,0,0,263.82,40.11Z" fill="#e9c264"/><path d="M290.56,77.28A10.68,10.68,0,0,1,272.7,65.55a83.16,83.16,0,0,1,7.68-9.73c11.94-13.24,23.47-5.75,16.09,10.46A84.33,84.33,0,0,1,290.56,77.28Z" fill="#3f271e"/><path d="M281.9,57.36a7.87,7.87,0,0,0,.81,11.39c.18.14.37.28.57.41s.4.25.6.36a7.88,7.88,0,0,0,10.78-3.79c5.92-12.87,9.82-28.88,9.82-28.88S291.34,46.8,281.9,57.36Z" fill="#c59a3b"/><path d="M286.06,53a6.69,6.69,0,0,0,0,9.55l.49.42c.18.14.37.28.57.41l.6.36.58.28A6.68,6.68,0,0,0,297,60.17a200.11,200.11,0,0,0,7.45-23.32A200.74,200.74,0,0,0,286.06,53Z" fill="#e9c264"/><path d="M187.47,62.7a13.73,13.73,0,0,1-15.2,12A13.56,13.56,0,0,1,160,59.85a101.83,101.83,0,0,1,3.08-15.34c5.9-21.75,23.61-20,24.7,2.45A101.5,101.5,0,0,1,187.47,62.7Z" fill="#3f271e"/><path d="M165.53,43a10.26,10.26,0,0,0,7.73,12.73c.3.05.6.1.91.13s.61,0,.91.06A10.27,10.27,0,0,0,185.32,45.1c-.8-18.45-5.82-39.35-5.82-39.35S170.19,25.12,165.53,43Z" fill="#ad822d"/><path d="M167.73,35.42a8.72,8.72,0,0,0,5.68,11.08,6.84,6.84,0,0,0,.81.19,9.07,9.07,0,0,0,.91.14c.3,0,.61.05.91.06s.56,0,.84,0a8.72,8.72,0,0,0,7.88-9.64A261,261,0,0,0,179.5,5.75,261.81,261.81,0,0,0,167.73,35.42Z" fill="#c59a3b"/><path d="M212.41,68.23a13.74,13.74,0,0,1-15.21,12,13.55,13.55,0,0,1-12.28-14.81A101.94,101.94,0,0,1,188,50c5.91-21.74,23.61-20,24.7,2.46A102.84,102.84,0,0,1,212.41,68.23Z" fill="#3f271e"/><path d="M191.09,48.81a10.27,10.27,0,0,0,7.74,12.73c.29.06.6.1.9.14s.61,0,.92.06a10.28,10.28,0,0,0,10.24-10.82c-.8-18.46-5.82-39.36-5.82-39.36S195.76,30.93,191.09,48.81Z" fill="#ad822d"/><path d="M193.3,41.24A8.72,8.72,0,0,0,199,52.32c.27.07.54.14.82.19s.6.1.9.13a7.22,7.22,0,0,0,.92.06c.28,0,.56,0,.84,0a8.71,8.71,0,0,0,7.87-9.64,259.77,259.77,0,0,0-5.25-31.49A260.27,260.27,0,0,0,193.3,41.24Z" fill="#c59a3b"/><path d="M237.1,72.73a13.74,13.74,0,0,1-15.21,12,13.56,13.56,0,0,1-12.28-14.82,101.83,101.83,0,0,1,3.08-15.34c5.9-21.75,23.61-20,24.7,2.45A102.82,102.82,0,0,1,237.1,72.73Z" fill="#3f271e"/><path d="M216.41,53.55a10.27,10.27,0,0,0,7.74,12.73c.29.06.6.1.9.14s.61,0,.92,0A10.25,10.25,0,0,0,236.2,55.66c-.79-18.46-5.81-39.36-5.81-39.36S221.08,35.67,216.41,53.55Z" fill="#ad822d"/><path d="M218.62,46a8.72,8.72,0,0,0,5.67,11.08l.82.19c.29,0,.6.1.9.13s.61,0,.92.06.56,0,.83,0a8.72,8.72,0,0,0,7.88-9.64,262.06,262.06,0,0,0-5.25-31.49A260.27,260.27,0,0,0,218.62,46Z" fill="#c59a3b"/><path d="M259.5,79.58A13.83,13.83,0,0,1,243,89.8a13.47,13.47,0,0,1-10.48-16.08,102.35,102.35,0,0,1,4.84-14.9c8.39-21,25.77-17.26,24.26,5.16A102.61,102.61,0,0,1,259.5,79.58Z" fill="#3f271e"/><path d="M241,58.25a10.27,10.27,0,0,0,6.24,13.53,8.93,8.93,0,0,0,.89.23c.3.07.6.12.9.17a10.27,10.27,0,0,0,11.39-9.6c1.3-18.43-1.33-39.76-1.33-39.76S247.63,41,241,58.25Z" fill="#ad822d"/><path d="M244,51a8.72,8.72,0,0,0,4.39,11.65c.25.1.52.2.79.28s.58.17.88.24.6.12.9.16.56.06.84.08a8.72,8.72,0,0,0,8.91-8.69,260.77,260.77,0,0,0-1.66-31.88A260.93,260.93,0,0,0,244,51Z" fill="#c59a3b"/><path d="M280.13,89.86a14,14,0,0,1-18.19,7,13.33,13.33,0,0,1-7.14-17.73,103.38,103.38,0,0,1,7.68-13.73c12.34-19,28.68-12.13,22.8,9.59A102.85,102.85,0,0,1,280.13,89.86Z" fill="#3f271e"/><path d="M265.45,65.27A10.27,10.27,0,0,0,269,79.74a9,9,0,0,0,.83.4,7.44,7.44,0,0,0,.85.33,10.26,10.26,0,0,0,13-7.23C288.49,55.4,290,34,290,34S275.28,49.63,265.45,65.27Z" fill="#ad822d"/><path d="M269.83,58.72A8.71,8.71,0,0,0,271.91,71c.23.15.47.29.72.43l.82.4c.29.12.57.23.86.33s.53.17.8.24a8.72,8.72,0,0,0,10.41-6.82A259.66,259.66,0,0,0,290,34,260.18,260.18,0,0,0,269.83,58.72Z" fill="#c59a3b"/><path d="M299.11,103.45A14,14,0,0,1,280,107.32a13.26,13.26,0,0,1-4-18.65,104.42,104.42,0,0,1,9.94-12.28c15.45-16.7,30.37-7.25,20.82,13.19A104.69,104.69,0,0,1,299.11,103.45Z" fill="#3f271e"/><path d="M288.38,76.81a10.27,10.27,0,0,0,1.05,14.86q.36.28.75.54c.25.17.52.32.78.47A10.29,10.29,0,0,0,305,87.74c7.73-16.78,12.81-37.66,12.81-37.66S300.7,63.05,288.38,76.81Z" fill="#ad822d"/><path d="M293.8,71.09a8.72,8.72,0,0,0,0,12.45c.2.18.42.37.64.54s.48.36.74.53a9.12,9.12,0,0,0,.79.47c.25.14.5.26.75.37a8.71,8.71,0,0,0,11.41-5,259.14,259.14,0,0,0,9.72-30.4A261.49,261.49,0,0,0,293.8,71.09Z" fill="#c59a3b"/><path d="M112.53,62.7a13.73,13.73,0,0,0,15.2,12A13.56,13.56,0,0,0,140,59.85a101.83,101.83,0,0,0-3.08-15.34c-5.9-21.75-23.61-20-24.7,2.45A101.5,101.5,0,0,0,112.53,62.7Z" fill="#3f271e"/><path d="M134.47,43a10.26,10.26,0,0,1-7.73,12.73c-.3.05-.6.1-.91.13s-.61,0-.91.06A10.27,10.27,0,0,1,114.68,45.1c.8-18.45,5.82-39.35,5.82-39.35S129.81,25.12,134.47,43Z" fill="#ad822d"/><path d="M132.27,35.42a8.72,8.72,0,0,1-5.68,11.08,6.84,6.84,0,0,1-.81.19,9.07,9.07,0,0,1-.91.14c-.3,0-.61.05-.91.06s-.56,0-.84,0a8.72,8.72,0,0,1-7.88-9.64A261,261,0,0,1,120.5,5.75,261.81,261.81,0,0,1,132.27,35.42Z" fill="#c59a3b"/><path d="M87.59,68.23a13.74,13.74,0,0,0,15.21,12,13.55,13.55,0,0,0,12.28-14.81A101.94,101.94,0,0,0,112,50c-5.91-21.74-23.61-20-24.7,2.46A102.84,102.84,0,0,0,87.59,68.23Z" fill="#3f271e"/><path d="M108.91,48.81a10.27,10.27,0,0,1-7.74,12.73c-.29.06-.6.1-.9.14s-.61,0-.92.06A10.28,10.28,0,0,1,89.11,50.92c.8-18.46,5.82-39.36,5.82-39.36S104.24,30.93,108.91,48.81Z" fill="#ad822d"/><path d="M106.7,41.24A8.72,8.72,0,0,1,101,52.32c-.27.07-.54.14-.82.19s-.6.1-.9.13a7.22,7.22,0,0,1-.92.06c-.28,0-.56,0-.84,0a8.71,8.71,0,0,1-7.87-9.64,259.77,259.77,0,0,1,5.25-31.49A260.27,260.27,0,0,1,106.7,41.24Z" fill="#c59a3b"/><path d="M62.9,72.73a13.74,13.74,0,0,0,15.21,12A13.56,13.56,0,0,0,90.39,69.88a101.83,101.83,0,0,0-3.08-15.34c-5.9-21.75-23.61-20-24.7,2.45A102.82,102.82,0,0,0,62.9,72.73Z" fill="#3f271e"/><path d="M83.59,53.55a10.27,10.27,0,0,1-7.74,12.73c-.29.06-.6.1-.9.14s-.61,0-.92,0A10.25,10.25,0,0,1,63.8,55.66c.79-18.46,5.81-39.36,5.81-39.36S78.92,35.67,83.59,53.55Z" fill="#ad822d"/><path d="M81.38,46a8.72,8.72,0,0,1-5.67,11.08l-.82.19c-.29,0-.6.1-.9.13s-.61,0-.92.06-.56,0-.83,0a8.72,8.72,0,0,1-7.88-9.64A262.06,262.06,0,0,1,69.61,16.3,260.27,260.27,0,0,1,81.38,46Z" fill="#c59a3b"/><path d="M40.5,79.58A13.83,13.83,0,0,0,57,89.8,13.47,13.47,0,0,0,67.48,73.72a102.35,102.35,0,0,0-4.84-14.9c-8.39-21-25.77-17.26-24.26,5.16A102.61,102.61,0,0,0,40.5,79.58Z" fill="#3f271e"/><path d="M59,58.25a10.27,10.27,0,0,1-6.24,13.53,8.93,8.93,0,0,1-.89.23c-.3.07-.6.12-.9.17a10.27,10.27,0,0,1-11.39-9.6c-1.3-18.43,1.33-39.76,1.33-39.76S52.37,41,59,58.25Z" fill="#ad822d"/><path d="M56,51a8.72,8.72,0,0,1-4.39,11.65c-.25.1-.52.2-.79.28s-.58.17-.88.24-.6.12-.9.16-.56.06-.84.08a8.72,8.72,0,0,1-8.91-8.69,260.77,260.77,0,0,1,1.66-31.88A260.93,260.93,0,0,1,56,51Z" fill="#c59a3b"/><path d="M19.87,89.86a14,14,0,0,0,18.19,7A13.33,13.33,0,0,0,45.2,79.08a103.38,103.38,0,0,0-7.68-13.73c-12.34-19-28.68-12.13-22.8,9.59A102.85,102.85,0,0,0,19.87,89.86Z" fill="#3f271e"/><path d="M34.55,65.27A10.27,10.27,0,0,1,31,79.74a9,9,0,0,1-.83.4,7.44,7.44,0,0,1-.85.33,10.26,10.26,0,0,1-13-7.23C11.51,55.4,10,34,10,34S24.72,49.63,34.55,65.27Z" fill="#ad822d"/><path d="M30.17,58.72A8.71,8.71,0,0,1,28.09,71c-.23.15-.47.29-.72.43l-.82.4c-.29.12-.57.23-.86.33s-.53.17-.8.24a8.72,8.72,0,0,1-10.41-6.82A259.66,259.66,0,0,1,10,34,260.18,260.18,0,0,1,30.17,58.72Z" fill="#c59a3b"/><path d="M.89,103.45A14,14,0,0,0,20,107.32a13.26,13.26,0,0,0,4-18.65,104.42,104.42,0,0,0-9.94-12.28C-1.39,59.69-16.31,69.14-6.76,89.58A104.69,104.69,0,0,0,.89,103.45Z" fill="#3f271e"/><path d="M11.62,76.81a10.27,10.27,0,0,1-1,14.86q-.36.28-.75.54c-.25.17-.52.32-.78.47A10.29,10.29,0,0,1-5,87.74C-12.75,71-17.83,50.08-17.83,50.08S-.7,63.05,11.62,76.81Z" fill="#ad822d"/><path d="M6.2,71.09a8.72,8.72,0,0,1,0,12.45c-.2.18-.42.37-.64.54s-.48.36-.74.53a9.12,9.12,0,0,1-.79.47c-.25.14-.5.26-.75.37a8.71,8.71,0,0,1-11.41-5,259.14,259.14,0,0,1-9.72-30.4A261.49,261.49,0,0,1,6.2,71.09Z" fill="#c59a3b"/><path d="M163.82,56.4a13.82,13.82,0,0,1-27.64,0,100.81,100.81,0,0,1,1.4-15.57c3.51-22.23,21.3-22.31,24.83-.11A102.35,102.35,0,0,1,163.82,56.4Z" fill="#3f271e"/><path d="M140.05,38.87a10.27,10.27,0,0,0,9,11.84c.31,0,.61,0,.92,0s.61,0,.92,0a10.27,10.27,0,0,0,9-11.84C157.21,20.6,150,.35,150,.35S142.79,20.6,140.05,38.87Z" fill="#ad822d"/><path d="M141.44,31.1a8.72,8.72,0,0,0,6.81,10.42c.28,0,.55.08.83.1s.61,0,.92,0,.61,0,.92,0,.55-.06.83-.1a8.72,8.72,0,0,0,6.81-10.42A261.12,261.12,0,0,0,150,.35,261.12,261.12,0,0,0,141.44,31.1Z" fill="#c59a3b"/><path d="M188.43,87.44a14.17,14.17,0,0,1-28.19-3,111.57,111.57,0,0,1,3.16-16.15c6.06-22.88,24.22-21,25.34,2.59A110.94,110.94,0,0,1,188.43,87.44Z" fill="#3f271e"/><path d="M165.53,74.68a10.26,10.26,0,0,0,7.73,12.73c.3.06.6.1.91.14s.61,0,.91.06a10.27,10.27,0,0,0,10.24-10.82c-.8-18.46-5.82-39.36-5.82-39.36S170.19,56.8,165.53,74.68Z" fill="#c59a3b"/><path d="M167.73,67.11a8.72,8.72,0,0,0,5.68,11.08c.26.07.53.14.81.19a9.06,9.06,0,0,0,.91.13,7,7,0,0,0,.91.06c.28,0,.56,0,.84,0a8.73,8.73,0,0,0,7.88-9.64,261.37,261.37,0,0,0-5.26-31.49A262.42,262.42,0,0,0,167.73,67.11Z" fill="#e9c264"/><path d="M214,93.25a14.17,14.17,0,1,1-28.19-3A108.82,108.82,0,0,1,189,74.11c6.06-22.88,24.21-21,25.33,2.58A109.64,109.64,0,0,1,214,93.25Z" fill="#3f271e"/><path d="M191.09,80.5a10.28,10.28,0,0,0,7.74,12.73c.29,0,.6.1.9.13s.61,0,.92.06A10.27,10.27,0,0,0,210.89,82.6c-.8-18.46-5.82-39.35-5.82-39.35S195.76,62.62,191.09,80.5Z" fill="#c59a3b"/><path d="M193.3,72.92A8.72,8.72,0,0,0,199,84a7.51,7.51,0,0,0,.82.19c.3.06.6.11.9.14l.92.06c.28,0,.56,0,.84,0a8.71,8.71,0,0,0,7.87-9.64,259.83,259.83,0,0,0-5.25-31.48A259.67,259.67,0,0,0,193.3,72.92Z" fill="#e9c264"/><path d="M239.32,98a14.17,14.17,0,1,1-28.19-3,108.82,108.82,0,0,1,3.16-16.14c6.05-22.88,24.21-21,25.33,2.58A109.64,109.64,0,0,1,239.32,98Z" fill="#3f271e"/><path d="M216.41,85.23A10.28,10.28,0,0,0,224.15,98c.29,0,.6.1.9.13s.61.05.92.06A10.25,10.25,0,0,0,236.2,87.34C235.41,68.88,230.39,48,230.39,48S221.08,67.36,216.41,85.23Z" fill="#c59a3b"/><path d="M218.62,77.66a8.72,8.72,0,0,0,5.67,11.08,7.51,7.51,0,0,0,.82.19c.29.06.6.1.9.14s.61.05.92.06.56,0,.83,0a8.71,8.71,0,0,0,7.88-9.64A262.12,262.12,0,0,0,230.39,48,259.67,259.67,0,0,0,218.62,77.66Z" fill="#e9c264"/><path d="M262.29,105.2A14.17,14.17,0,0,1,234.62,99a110.42,110.42,0,0,1,5-15.69c8.6-22,26.43-18.16,24.88,5.43A110.44,110.44,0,0,1,262.29,105.2Z" fill="#3f271e"/><path d="M241,89.94a10.25,10.25,0,0,0,6.24,13.52c.29.09.59.17.89.24s.6.12.9.16a10.26,10.26,0,0,0,11.39-9.59c1.3-18.43-1.33-39.76-1.33-39.76S247.63,72.7,241,89.94Z" fill="#c59a3b"/><path d="M244,82.66a8.72,8.72,0,0,0,4.39,11.65c.25.11.52.2.79.29s.58.16.88.23.6.12.9.16a8,8,0,0,0,.84.08,8.71,8.71,0,0,0,8.91-8.68,260.6,260.6,0,0,0-1.66-31.88A261.36,261.36,0,0,0,244,82.66Z" fill="#e9c264"/><path d="M283.45,116a14.17,14.17,0,1,1-26-11.35,109.55,109.55,0,0,1,7.87-14.44c12.66-20,29.42-12.77,23.38,10.08A109,109,0,0,1,283.45,116Z" fill="#3f271e"/><path d="M265.45,97A10.27,10.27,0,0,0,269,111.43l.83.4c.28.12.57.23.85.33a10.26,10.26,0,0,0,13-7.24c4.8-17.84,6.29-39.28,6.29-39.28S275.28,81.31,265.45,97Z" fill="#c59a3b"/><path d="M269.83,90.4a8.71,8.71,0,0,0,2.08,12.27,6.52,6.52,0,0,0,.72.43,8.86,8.86,0,0,0,.82.4,7.58,7.58,0,0,0,.86.33,7.36,7.36,0,0,0,.8.24,8.71,8.71,0,0,0,10.41-6.82A259.66,259.66,0,0,0,290,65.64,261.7,261.7,0,0,0,269.83,90.4Z" fill="#e9c264"/><path d="M302.91,130.32a14.17,14.17,0,1,1-23.69-15.56,109.53,109.53,0,0,1,10.19-12.91c15.84-17.58,31.15-7.64,21.35,13.88A111.06,111.06,0,0,1,302.91,130.32Z" fill="#3f271e"/><path d="M288.38,108.5a10.27,10.27,0,0,0,1.05,14.86c.24.18.49.36.75.53a9,9,0,0,0,.78.47A10.27,10.27,0,0,0,305,119.42c7.73-16.78,12.81-37.66,12.81-37.66S300.7,94.73,288.38,108.5Z" fill="#c59a3b"/><path d="M293.8,102.77a8.72,8.72,0,0,0,0,12.45,8.3,8.3,0,0,0,.64.54c.24.19.48.37.74.54s.52.32.79.47.5.26.75.37a8.72,8.72,0,0,0,11.41-5,259.62,259.62,0,0,0,9.72-30.41A261.49,261.49,0,0,0,293.8,102.77Z" fill="#e9c264"/><path d="M111.57,87.44a14.17,14.17,0,0,0,28.19-3,111.57,111.57,0,0,0-3.16-16.15c-6.06-22.88-24.22-21-25.34,2.59A110.94,110.94,0,0,0,111.57,87.44Z" fill="#3f271e"/><path d="M134.47,74.68a10.26,10.26,0,0,1-7.73,12.73c-.3.06-.6.1-.91.14s-.61,0-.91.06a10.27,10.27,0,0,1-10.24-10.82c.8-18.46,5.82-39.36,5.82-39.36S129.81,56.8,134.47,74.68Z" fill="#c59a3b"/><path d="M132.27,67.11a8.72,8.72,0,0,1-5.68,11.08c-.26.07-.53.14-.81.19a9.06,9.06,0,0,1-.91.13,7,7,0,0,1-.91.06c-.28,0-.56,0-.84,0a8.73,8.73,0,0,1-7.88-9.64,261.37,261.37,0,0,1,5.26-31.49A262.42,262.42,0,0,1,132.27,67.11Z" fill="#e9c264"/><path d="M86,93.25a14.17,14.17,0,1,0,28.19-3A108.82,108.82,0,0,0,111,74.11c-6.06-22.88-24.21-21-25.33,2.58A109.64,109.64,0,0,0,86,93.25Z" fill="#3f271e"/><path d="M108.91,80.5a10.28,10.28,0,0,1-7.74,12.73c-.29,0-.6.1-.9.13s-.61,0-.92.06A10.27,10.27,0,0,1,89.11,82.6c.8-18.46,5.82-39.35,5.82-39.35S104.24,62.62,108.91,80.5Z" fill="#c59a3b"/><path d="M106.7,72.92A8.72,8.72,0,0,1,101,84a7.51,7.51,0,0,1-.82.19c-.3.06-.6.11-.9.14l-.92.06c-.28,0-.56,0-.84,0a8.71,8.71,0,0,1-7.87-9.64,259.83,259.83,0,0,1,5.25-31.48A259.67,259.67,0,0,1,106.7,72.92Z" fill="#e9c264"/><path d="M60.68,98a14.17,14.17,0,1,0,28.19-3,108.82,108.82,0,0,0-3.16-16.14c-6-22.88-24.21-21-25.33,2.58A109.64,109.64,0,0,0,60.68,98Z" fill="#3f271e"/><path d="M83.59,85.23A10.28,10.28,0,0,1,75.85,98c-.29,0-.6.1-.9.13s-.61.05-.92.06A10.25,10.25,0,0,1,63.8,87.34C64.59,68.88,69.61,48,69.61,48S78.92,67.36,83.59,85.23Z" fill="#c59a3b"/><path d="M81.38,77.66a8.72,8.72,0,0,1-5.67,11.08,7.51,7.51,0,0,1-.82.19c-.29.06-.6.1-.9.14s-.61.05-.92.06-.56,0-.83,0a8.71,8.71,0,0,1-7.88-9.64A262.12,262.12,0,0,1,69.61,48,259.67,259.67,0,0,1,81.38,77.66Z" fill="#e9c264"/><path d="M37.71,105.2A14.17,14.17,0,0,0,65.38,99a110.42,110.42,0,0,0-5-15.69c-8.6-22-26.43-18.16-24.88,5.43A110.44,110.44,0,0,0,37.71,105.2Z" fill="#3f271e"/><path d="M59,89.94a10.25,10.25,0,0,1-6.24,13.52c-.29.09-.59.17-.89.24s-.6.12-.9.16A10.26,10.26,0,0,1,39.6,94.27c-1.3-18.43,1.33-39.76,1.33-39.76S52.37,72.7,59,89.94Z" fill="#c59a3b"/><path d="M56,82.66a8.72,8.72,0,0,1-4.39,11.65c-.25.11-.52.2-.79.29s-.58.16-.88.23-.6.12-.9.16a8,8,0,0,1-.84.08,8.71,8.71,0,0,1-8.91-8.68,260.6,260.6,0,0,1,1.66-31.88A261.36,261.36,0,0,1,56,82.66Z" fill="#e9c264"/><path d="M16.55,116a14.17,14.17,0,1,0,26-11.35,109.55,109.55,0,0,0-7.87-14.44C22,70.23,5.23,77.46,11.27,100.31A109,109,0,0,0,16.55,116Z" fill="#3f271e"/><path d="M34.55,97A10.27,10.27,0,0,1,31,111.43l-.83.4c-.28.12-.57.23-.85.33a10.26,10.26,0,0,1-13-7.24C11.51,87.08,10,65.64,10,65.64S24.72,81.31,34.55,97Z" fill="#c59a3b"/><path d="M30.17,90.4a8.71,8.71,0,0,1-2.08,12.27,6.52,6.52,0,0,1-.72.43,8.86,8.86,0,0,1-.82.4,7.58,7.58,0,0,1-.86.33,7.36,7.36,0,0,1-.8.24,8.71,8.71,0,0,1-10.41-6.82A259.66,259.66,0,0,1,10,65.64,261.7,261.7,0,0,1,30.17,90.4Z" fill="#e9c264"/><path d="M-2.91,130.32a14.17,14.17,0,1,0,23.69-15.56,109.53,109.53,0,0,0-10.19-12.91c-15.84-17.58-31.15-7.64-21.35,13.88A111.06,111.06,0,0,0-2.91,130.32Z" fill="#3f271e"/><path d="M11.62,108.5a10.27,10.27,0,0,1-1,14.86c-.24.18-.49.36-.75.53a9,9,0,0,1-.78.47A10.27,10.27,0,0,1-5,119.42c-7.73-16.78-12.81-37.66-12.81-37.66S-.7,94.73,11.62,108.5Z" fill="#c59a3b"/><path d="M6.2,102.77a8.72,8.72,0,0,1,0,12.45,8.3,8.3,0,0,1-.64.54c-.24.19-.48.37-.74.54s-.52.32-.79.47-.5.26-.75.37a8.72,8.72,0,0,1-11.41-5,259.62,259.62,0,0,1-9.72-30.41A261.49,261.49,0,0,1,6.2,102.77Z" fill="#e9c264"/><path d="M164.17,80.81a14.17,14.17,0,1,1-28.34,0,110.5,110.5,0,0,1,1.43-16.39c3.6-23.39,21.85-23.47,25.46-.11A109.51,109.51,0,0,1,164.17,80.81Z" fill="#3f271e"/><path d="M140.05,70.55a10.26,10.26,0,0,0,9,11.84c.31,0,.61,0,.92,0s.61,0,.92,0a10.26,10.26,0,0,0,9-11.84C157.21,52.28,150,32,150,32S142.79,52.28,140.05,70.55Z" fill="#c59a3b"/><path d="M141.44,62.79a8.71,8.71,0,0,0,6.81,10.41c.28,0,.55.08.83.11s.61,0,.92,0,.61,0,.92,0,.55-.06.83-.11a8.71,8.71,0,0,0,6.81-10.41A261.62,261.62,0,0,0,150,32,261.62,261.62,0,0,0,141.44,62.79Z" fill="#e9c264"/><path d="M188.43,111.49a14.17,14.17,0,0,1-28.19-3,111.57,111.57,0,0,1,3.16-16.15c6.06-22.88,24.22-21,25.34,2.59A110.94,110.94,0,0,1,188.43,111.49Z" fill="#3f271e"/><path d="M165.53,98.73a10.26,10.26,0,0,0,7.73,12.73c.3.06.6.1.91.14s.61.05.91.06a10.27,10.27,0,0,0,10.24-10.82c-.8-18.46-5.82-39.36-5.82-39.36S170.19,80.85,165.53,98.73Z" fill="#e9c264"/><path d="M167.73,91.16a8.72,8.72,0,0,0,5.68,11.08c.26.07.53.14.81.19a9.06,9.06,0,0,0,.91.13,7,7,0,0,0,.91.06c.28,0,.56,0,.84,0A8.73,8.73,0,0,0,184.76,93a261.37,261.37,0,0,0-5.26-31.49A262.42,262.42,0,0,0,167.73,91.16Z" fill="#ffdf81"/><path d="M214,117.3a14.17,14.17,0,1,1-28.19-3A108.82,108.82,0,0,1,189,98.16c6.06-22.88,24.21-21,25.33,2.58A109.64,109.64,0,0,1,214,117.3Z" fill="#3f271e"/><path d="M191.09,104.55a10.28,10.28,0,0,0,7.74,12.73c.29,0,.6.1.9.13s.61,0,.92.06a10.27,10.27,0,0,0,10.24-10.82c-.8-18.46-5.82-39.35-5.82-39.35S195.76,86.67,191.09,104.55Z" fill="#e9c264"/><path d="M193.3,97A8.72,8.72,0,0,0,199,108.05a7.51,7.51,0,0,0,.82.19c.3.06.6.1.9.14l.92.06c.28,0,.56,0,.84,0a8.71,8.71,0,0,0,7.87-9.64,259.83,259.83,0,0,0-5.25-31.48A259.67,259.67,0,0,0,193.3,97Z" fill="#ffdf81"/><path d="M239.32,122a14.17,14.17,0,1,1-28.19-3,108.82,108.82,0,0,1,3.16-16.14c6.05-22.88,24.21-21,25.33,2.58A109.64,109.64,0,0,1,239.32,122Z" fill="#3f271e"/><path d="M216.41,109.28A10.28,10.28,0,0,0,224.15,122c.29,0,.6.1.9.13s.61,0,.92.06a10.25,10.25,0,0,0,10.23-10.82C235.41,92.93,230.39,72,230.39,72S221.08,91.41,216.41,109.28Z" fill="#e9c264"/><path d="M218.62,101.71a8.72,8.72,0,0,0,5.67,11.08,7.51,7.51,0,0,0,.82.19c.29.06.6.1.9.14s.61,0,.92.06.56,0,.83,0a8.71,8.71,0,0,0,7.88-9.64A262.12,262.12,0,0,0,230.39,72,259.67,259.67,0,0,0,218.62,101.71Z" fill="#ffdf81"/><path d="M262.29,129.25a14.17,14.17,0,0,1-27.67-6.16,110.42,110.42,0,0,1,5-15.69c8.6-22.05,26.43-18.16,24.88,5.43A110.44,110.44,0,0,1,262.29,129.25Z" fill="#3f271e"/><path d="M241,114a10.25,10.25,0,0,0,6.24,13.52c.29.09.59.17.89.24s.6.12.9.16a10.26,10.26,0,0,0,11.39-9.59c1.3-18.43-1.33-39.76-1.33-39.76S247.63,96.75,241,114Z" fill="#e9c264"/><path d="M244,106.71a8.72,8.72,0,0,0,4.39,11.65c.25.11.52.2.79.29s.58.16.88.23.6.12.9.16a8,8,0,0,0,.84.08,8.71,8.71,0,0,0,8.91-8.68,260.6,260.6,0,0,0-1.66-31.88A261.36,261.36,0,0,0,244,106.71Z" fill="#ffdf81"/><path d="M283.45,140.07a14.17,14.17,0,1,1-26-11.35,109.55,109.55,0,0,1,7.87-14.44c12.66-20,29.42-12.77,23.38,10.08A109,109,0,0,1,283.45,140.07Z" fill="#3f271e"/><path d="M265.45,121A10.27,10.27,0,0,0,269,135.48l.83.4c.28.12.57.23.85.33a10.26,10.26,0,0,0,13-7.24c4.8-17.84,6.29-39.28,6.29-39.28S275.28,105.36,265.45,121Z" fill="#e9c264"/><path d="M269.83,114.45a8.71,8.71,0,0,0,2.08,12.27,6.52,6.52,0,0,0,.72.43,8.86,8.86,0,0,0,.82.4,7.58,7.58,0,0,0,.86.33,7.36,7.36,0,0,0,.8.24,8.71,8.71,0,0,0,10.41-6.82A259.66,259.66,0,0,0,290,89.69,261.7,261.7,0,0,0,269.83,114.45Z" fill="#ffdf81"/><path d="M302.91,154.37a14.17,14.17,0,1,1-23.69-15.56,109.53,109.53,0,0,1,10.19-12.91c15.84-17.58,31.15-7.64,21.35,13.88A111.06,111.06,0,0,1,302.91,154.37Z" fill="#3f271e"/><path d="M288.38,132.55a10.27,10.27,0,0,0,1.05,14.86c.24.18.49.36.75.53a9,9,0,0,0,.78.47A10.27,10.27,0,0,0,305,143.47c7.73-16.78,12.81-37.66,12.81-37.66S300.7,118.78,288.38,132.55Z" fill="#e9c264"/><path d="M293.8,126.82a8.72,8.72,0,0,0,0,12.45,8.3,8.3,0,0,0,.64.54c.24.19.48.37.74.54s.52.32.79.47.5.26.75.37a8.72,8.72,0,0,0,11.41-5,259.62,259.62,0,0,0,9.72-30.41A261.49,261.49,0,0,0,293.8,126.82Z" fill="#ffdf81"/><path d="M111.57,111.49a14.17,14.17,0,0,0,28.19-3,111.57,111.57,0,0,0-3.16-16.15c-6.06-22.88-24.22-21-25.34,2.59A110.94,110.94,0,0,0,111.57,111.49Z" fill="#3f271e"/><path d="M134.47,98.73a10.26,10.26,0,0,1-7.73,12.73c-.3.06-.6.1-.91.14s-.61.05-.91.06a10.27,10.27,0,0,1-10.24-10.82c.8-18.46,5.82-39.36,5.82-39.36S129.81,80.85,134.47,98.73Z" fill="#e9c264"/><path d="M132.27,91.16a8.72,8.72,0,0,1-5.68,11.08c-.26.07-.53.14-.81.19a9.06,9.06,0,0,1-.91.13,7,7,0,0,1-.91.06c-.28,0-.56,0-.84,0A8.73,8.73,0,0,1,115.24,93a261.37,261.37,0,0,1,5.26-31.49A262.42,262.42,0,0,1,132.27,91.16Z" fill="#ffdf81"/><path d="M86,117.3a14.17,14.17,0,1,0,28.19-3A108.82,108.82,0,0,0,111,98.16c-6.06-22.88-24.21-21-25.33,2.58A109.64,109.64,0,0,0,86,117.3Z" fill="#3f271e"/><path d="M108.91,104.55a10.28,10.28,0,0,1-7.74,12.73c-.29,0-.6.1-.9.13s-.61,0-.92.06a10.27,10.27,0,0,1-10.24-10.82c.8-18.46,5.82-39.35,5.82-39.35S104.24,86.67,108.91,104.55Z" fill="#e9c264"/><path d="M106.7,97A8.72,8.72,0,0,1,101,108.05a7.51,7.51,0,0,1-.82.19c-.3.06-.6.1-.9.14l-.92.06c-.28,0-.56,0-.84,0a8.71,8.71,0,0,1-7.87-9.64A259.83,259.83,0,0,1,94.93,67.3,259.67,259.67,0,0,1,106.7,97Z" fill="#ffdf81"/><path d="M60.68,122a14.17,14.17,0,1,0,28.19-3,108.82,108.82,0,0,0-3.16-16.14c-6-22.88-24.21-21-25.33,2.58A109.64,109.64,0,0,0,60.68,122Z" fill="#3f271e"/><path d="M83.59,109.28A10.28,10.28,0,0,1,75.85,122c-.29,0-.6.1-.9.13s-.61,0-.92.06A10.25,10.25,0,0,1,63.8,111.39C64.59,92.93,69.61,72,69.61,72S78.92,91.41,83.59,109.28Z" fill="#e9c264"/><path d="M81.38,101.71a8.72,8.72,0,0,1-5.67,11.08,7.51,7.51,0,0,1-.82.19c-.29.06-.6.1-.9.14s-.61,0-.92.06-.56,0-.83,0a8.71,8.71,0,0,1-7.88-9.64A262.12,262.12,0,0,1,69.61,72,259.67,259.67,0,0,1,81.38,101.71Z" fill="#ffdf81"/><path d="M37.71,129.25a14.17,14.17,0,0,0,27.67-6.16,110.42,110.42,0,0,0-5-15.69C51.81,85.35,34,89.24,35.53,112.83A110.44,110.44,0,0,0,37.71,129.25Z" fill="#3f271e"/><path d="M59,114a10.25,10.25,0,0,1-6.24,13.52c-.29.09-.59.17-.89.24s-.6.12-.9.16a10.26,10.26,0,0,1-11.39-9.59c-1.3-18.43,1.33-39.76,1.33-39.76S52.37,96.75,59,114Z" fill="#e9c264"/><path d="M56,106.71a8.72,8.72,0,0,1-4.39,11.65c-.25.11-.52.2-.79.29s-.58.16-.88.23-.6.12-.9.16a8,8,0,0,1-.84.08,8.71,8.71,0,0,1-8.91-8.68,260.6,260.6,0,0,1,1.66-31.88A261.36,261.36,0,0,1,56,106.71Z" fill="#ffdf81"/><path d="M16.55,140.07a14.17,14.17,0,1,0,26-11.35,109.55,109.55,0,0,0-7.87-14.44C22,94.28,5.23,101.51,11.27,124.36A109,109,0,0,0,16.55,140.07Z" fill="#3f271e"/><path d="M34.55,121A10.27,10.27,0,0,1,31,135.48l-.83.4c-.28.12-.57.23-.85.33a10.26,10.26,0,0,1-13-7.24C11.51,111.13,10,89.69,10,89.69S24.72,105.36,34.55,121Z" fill="#e9c264"/><path d="M30.17,114.45a8.71,8.71,0,0,1-2.08,12.27,6.52,6.52,0,0,1-.72.43,8.86,8.86,0,0,1-.82.4,7.58,7.58,0,0,1-.86.33,7.36,7.36,0,0,1-.8.24,8.71,8.71,0,0,1-10.41-6.82A259.66,259.66,0,0,1,10,89.69,261.7,261.7,0,0,1,30.17,114.45Z" fill="#ffdf81"/><path d="M-2.91,154.37a14.17,14.17,0,1,0,23.69-15.56A109.53,109.53,0,0,0,10.59,125.9c-15.84-17.58-31.15-7.64-21.35,13.88A111.06,111.06,0,0,0-2.91,154.37Z" fill="#3f271e"/><path d="M11.62,132.55a10.27,10.27,0,0,1-1,14.86c-.24.18-.49.36-.75.53a9,9,0,0,1-.78.47A10.27,10.27,0,0,1-5,143.47c-7.73-16.78-12.81-37.66-12.81-37.66S-.7,118.78,11.62,132.55Z" fill="#e9c264"/><path d="M6.2,126.82a8.72,8.72,0,0,1,0,12.45,8.3,8.3,0,0,1-.64.54c-.24.19-.48.37-.74.54s-.52.32-.79.47-.5.26-.75.37a8.72,8.72,0,0,1-11.41-5,259.62,259.62,0,0,1-9.72-30.41A261.49,261.49,0,0,1,6.2,126.82Z" fill="#ffdf81"/><path d="M164.17,104.86a14.17,14.17,0,1,1-28.34,0,110.5,110.5,0,0,1,1.43-16.39c3.6-23.39,21.85-23.47,25.46-.11A109.51,109.51,0,0,1,164.17,104.86Z" fill="#3f271e"/><path d="M140.05,94.6a10.26,10.26,0,0,0,9,11.84c.31,0,.61,0,.92,0s.61,0,.92,0a10.26,10.26,0,0,0,9-11.84C157.21,76.33,150,56.08,150,56.08S142.79,76.33,140.05,94.6Z" fill="#e9c264"/><path d="M141.44,86.84a8.71,8.71,0,0,0,6.81,10.41c.28,0,.55.08.83.11s.61,0,.92,0,.61,0,.92,0,.55-.06.83-.11a8.71,8.71,0,0,0,6.81-10.41A261.62,261.62,0,0,0,150,56.08,261.62,261.62,0,0,0,141.44,86.84Z" fill="#ffdf81"/></g></g></svg>