<?xml version="1.0" encoding="UTF-8"?>
<svg id="Layer_1" data-name="Layer 1" xmlns="http://www.w3.org/2000/svg" xmlns:xlink="http://www.w3.org/1999/xlink" viewBox="0 0 300 345">
  <defs>
    <style>
      .cls-1 {
        fill: url(#linear-gradient-2);
      }

      .cls-2 {
        fill: #fff;
      }

      .cls-3 {
        fill: #dae6f5;
      }

      .cls-4 {
        fill: #f68b1f;
      }

      .cls-5 {
        fill: #c12d21;
      }

      .cls-6 {
        fill: #269830;
      }

      .cls-7 {
        fill: #1a8420;
      }

      .cls-8 {
        fill: #fcaa06;
      }

      .cls-9 {
        fill: #7ca1d5;
      }

      .cls-10 {
        fill: #15141a;
      }

      .cls-11 {
        fill: url(#linear-gradient);
      }

      .cls-12 {
        fill: #fffae1;
      }

      .cls-13 {
        fill: #f4cc21;
      }

      .cls-14 {
        fill: #2f2c38;
      }
    </style>
    <linearGradient id="linear-gradient" x1="150.00002" y1="13.76999" x2="150.00002" y2="169.48" gradientTransform="translate(0 346) scale(1 -1)" gradientUnits="userSpaceOnUse">
      <stop offset="0" stop-color="#9dc6ea"/>
      <stop offset=".69" stop-color="#416eb5"/>
    </linearGradient>
    <linearGradient id="linear-gradient-2" x1="150.01001" y1="182.05" x2="150.01001" y2="303.08" gradientTransform="translate(0 346) scale(1 -1)" gradientUnits="userSpaceOnUse">
      <stop offset="0" stop-color="#9dc6ea"/>
      <stop offset=".94" stop-color="#416eb5"/>
    </linearGradient>
  </defs>
  <path class="cls-11" d="M217.74002,345H82.26002c-22.05,0-39.92-19.88-39.92-44.41v-24.16h215.32v24.16c0,24.53-17.87001,44.41-39.92,44.41Z"/>
  <path class="cls-3" d="M257.72999,203.56v70.88c0,1.19-.03998,2.37-.13,3.53998-.58997,8.40002-3.28998,16.15002-7.51996,22.59003-7.25,11.08997-19.01001,18.28998-32.29004,18.28998H82.21004c-13.28003,0-25.04004-7.20001-32.29004-18.28998-4.82001-7.33002-7.64996-16.37-7.64996-26.13v-70.88c0-24.52997,17.88-44.40997,39.94-44.40997H217.78999c22.06,0,39.94,19.84998,39.94,44.40997Z"/>
  <path class="cls-8" d="M250.49002,201.32001s10.87001,7.75999,18.34001,7.75999c5.17191-.16759,10.28772-1.12534,15.16998-2.84l-8.60999,41s-29.88,1.67-38.49001-18"/>
  <path class="cls-13" d="M242.00001,186.39999s11.75,6.35001,19.16,5.42c5.11096-.80811,10.06827-2.3931,14.70001-4.7l-3.44,41.77s-29.44,5.37-40.42-13"/>
  <circle class="cls-9" cx="150.00001" cy="260.95999" r="8.06"/>
  <circle class="cls-14" cx="150.00001" cy="257.23001" r="8"/>
  <circle class="cls-9" cx="150.00001" cy="289.13" r="8.06"/>
  <path class="cls-6" d="M257.72998,203.56v81.84003H42.27002v-81.84003c0-1.21002,.03998-2.40997,.13-3.59998,.16998-2.37,.50995-4.67999,1-6.92999,1.65997-7.64001,5.10999-14.49005,9.81995-20.01001,.14001-.16003,.28003-.33002,.42004-.48999,2.70996-3.09003,5.82001-5.74005,9.25-7.84003,.02997-.02002,.06-.03998,.08997-.06,5.70001-3.48999,12.26001-5.47998,19.23004-5.47998H217.78998c6.97003,0,13.53003,1.98999,19.23004,5.47998,.02997,.02002,.06,.03998,.08997,.06,3.42999,2.09998,6.54004,4.75,9.26001,7.84003,.14001,.15997,.28003,.32996,.41998,.48999,4.71002,5.51996,8.15002,12.38,9.81,20.01001,.49005,2.25,.83002,4.56,1,6.92999,.09003,1.19,.13,2.38995,.13,3.59998Z"/>
  <path class="cls-1" d="M205.00001,172.82001H95.00001c-20.92605-.0276-37.8676-17.01389-37.84-37.93994v-15.36007H242.86001v15.35999c.02763,20.92606-16.91388,37.91237-37.83994,37.94-.00668,0-.01338,.00002-.02007,.00002Z"/>
  <rect class="cls-3" x="56.88001" y="23.52" width="186.24001" height="125.34" rx="37.94" ry="37.94"/>
  <circle class="cls-9" cx="207.47001" cy="98.6" r="22.63"/>
  <circle class="cls-9" cx="92.53001" cy="98.6" r="22.63"/>
  <circle class="cls-14" cx="207.47001" cy="104.88" r="22.63"/>
  <circle class="cls-14" cx="92.53001" cy="104.88" r="22.63"/>
  <path class="cls-4" d="M155.37001,116.77c0,5.17-3.42999,9.36-7.67,9.36s-41-3.11-41-9.36,36.74001-9.36,41-9.36,7.67,4.19,7.67,9.36Z"/>
  <circle class="cls-14" cx="150.00001" cy="139.92" r="4.99001"/>
  <circle class="cls-14" cx="166.92001" cy="138.21001" r="4.99001"/>
  <circle class="cls-14" cx="182.88002" cy="133.22" r="4.99001"/>
  <path class="cls-7" d="M255.8913,181.24536H44.1087l-.25574,.27887c-3.61481,3.92999-.31866,9.88,5.30676,9.58002,.1319-.01001,.26379-.01001,.39563-.01001,3.44989,0,6.31763,2.51996,6.40546,5.70996l.71417,28.31c.10986,4.31006,5.13098,7.03003,9.33911,5.07001l35.47754-16.50995c2.71387-1.26001,6.03198-.61005,7.93274,1.54999l27.00647,30.71997c6.95483,7.91003,20.18347,7.91003,27.13831,0l27.00647-30.71997c1.90076-2.16003,5.21887-2.81,7.93274-1.54999l35.47754,16.50995c4.20813,1.96002,9.22925-.75995,9.33911-5.07001l.71417-28.31c.08783-3.19,2.95557-5.70996,6.40546-5.70996,.13184,0,.26373,0,.39563,.01001,5.62543,.29999,8.92157-5.65002,5.30676-9.58002l-.25574-.27887Z"/>
  <circle class="cls-14" cx="133.08001" cy="138.21001" r="4.99001"/>
  <circle class="cls-14" cx="117.12002" cy="133.22" r="4.99"/>
  <circle class="cls-2" cx="212.51001" cy="96.11" r="7.9"/>
  <circle class="cls-2" cx="97.57001" cy="96.11" r="7.9"/>
  <path class="cls-10" d="M241.79001,186.83l36.99998-42.09,1.07999-27.05c.07733-1.933,1.707-3.43732,3.63998-3.36,1.93301,.07732,3.43735,1.707,3.36002,3.64h0l-.76999,19.35001,7.89999-8.14c1.23956-1.48324,3.44681-1.68079,4.93005-.44124,1.48322,1.23956,1.68079,3.44681,.44122,4.93005-.11392,.13629-.23804,.26372-.37128,.38118l-11.64001,12,8.60001-1.32001c1.91092-.29271,3.6973,1.01909,3.98999,2.93001,.29272,1.9109-1.01907,3.69728-2.92999,3.98999l-16.23001,2.48c-.17969,.01489-.36032,.01489-.54001,0-.13983,.00981-.28018,.00981-.42001,0l-32.79001,37.3c-1.27577,1.45251-3.48749,1.59578-4.93999,.31999-1.45251-1.27577-1.59578-3.48747-.32001-4.93999l.01007,.02Z"/>
  <path class="cls-10" d="M58.21001,186.83l-37-42.09-1.08-27.05c-.07732-1.933-1.707-3.43732-3.64-3.36s-3.43732,1.707-3.36,3.64h0l.77,19.35001-7.9-8.14001c-1.23955-1.48324-3.44681-1.68079-4.93004-.44124-1.48324,1.23956-1.68078,3.44681-.44123,4.93005,.11391,.13629,.23802,.26372,.37127,.38118l11.64,12-8.64-1.29999c-1.92422-.18402-3.63328,1.2267-3.8173,3.15091-.1716,1.7944,1.04773,3.42566,2.8173,3.76909l16.23,2.48c.17969,.01489,.36031,.01489,.54,0,.13983,.00981,.28017,.00981,.42,0l32.81,37.3c1.27578,1.45251,3.48749,1.59578,4.94,.32001,1.45251-1.27579,1.59578-3.48749,.32-4.94h-.05Z"/>
  <path class="cls-5" d="M58.03998,191.84003c-3.77997,2.59998-11.41998,1.57996-19.72998-2.37006-1.04999-.5-2.12-1.06-3.20001-1.64996-.14001-.08002-.27997-.16003-.41998-.23999-2-1.14001-4.02002-2.44-6-3.89001-.70001-.51001-1.39001-1.03998-2.08002-1.59003-.5-.39996-1-.81-1.5-1.22998-.57001-.47998-1.13-.96997-1.67999-1.46997-.34998-.32001-.67999-.64001-.98999-.96002-.72998-.73999-1.35999-1.47003-1.90997-2.21002-1.10004-1.48999-1.85004-2.96997-2.32001-4.41998-2.83002-8.76001,4.48999-16.40002,5.84998-17.64001,1.31-1.20001,8.90002-11.44,18.37-6.57996,1.58002,.79999,3.20001,2.01996,4.85004,3.76996,.35999,.37,.70996,.76001,1.06,1.17999,.96997,1.15002,1.94995,2.48004,2.91998,4.02002,.34998,.53003,.70001,1.09003,1.03998,1.67999,.10004,.16998,.20001,.33002,.29004,.5,.62994,1.08002,1.22998,2.13,1.78998,3.14001,1.16998,2.09998,2.20001,4.04999,3.08997,5.84998,.11005,.20001,.20001,.40002,.30005,.60004,.35999,.72998,.69,1.42999,1,2.10999,6.21997,13.52002,4.07996,18.10999-.73004,21.40002Z"/>
  <path class="cls-5" d="M281.78998,171.81c-.69995,2.16998-2.02997,4.40997-4.22998,6.63-.31,.32001-.64001,.64001-.98999,.96002-.89001,.79999-1.78998,1.57996-2.70001,2.31-.28998,.23999-.57001,.46997-.85999,.69-2.22998,1.75-4.52002,3.31-6.81,4.64996-9.94,5.88-19.78003,7.85004-24.23999,4.79004-5.42999-3.72003-7.45001-9.08002,2.06-27.02002,.94995-1.78003,2.01001-3.69,3.19-5.73999,.15997-.28003,.32001-.56,.48999-.84003,.14996-.26001,.29999-.51001,.45996-.76001,1.17004-1.94,2.34003-3.57001,3.5-4.94,.5-.58997,.99005-1.13,1.49005-1.63,1.5-1.50995,2.97998-2.58997,4.41998-3.31995,9.46997-4.86005,17.06,5.37994,18.37,6.57996,1.35999,1.23999,8.67999,8.88,5.84998,17.64001Z"/>
  <rect class="cls-5" x="269.9105" y="139.1675" width="14.46099" height="25.66499" rx="7.23049" ry="7.23049" transform="translate(580.58951 63.51199) rotate(135.00001)"/>
  <rect class="cls-5" x="42.27001" y="279.34581" width="215.46001" height="9.78419"/>
  <path class="cls-12" d="M47.28003,151.35999l-26.75,24.87c-1.10004-1.48999-1.85004-2.96997-2.32001-4.41998-2.83002-8.76001,4.48999-16.40002,5.84998-17.64001,1.31-1.20001,8.90002-11.44,18.37-6.57996,1.58002,.79999,3.20001,2.01996,4.85004,3.76996Z"/>
  <rect class="cls-5" x="15.62854" y="139.1675" width="14.46099" height="25.66499" rx="7.23049" ry="7.23049" transform="translate(114.17549 28.356) rotate(45)"/>
  <path class="cls-12" d="M57.46997,167.72998l-22.35999,20.09003c-.14001-.08002-.27997-.16003-.41998-.23999-2-1.14001-4.02002-2.44-6-3.89001-.70001-.51001-1.39001-1.03998-2.08002-1.59003l25.98004-23.35999c.62994,1.08002,1.22998,2.13,1.78998,3.14001,1.16998,2.09998,2.20001,4.04999,3.08997,5.84998Z"/>
  <path class="cls-12" d="M252.72001,151.35999l26.75,24.87c1.10004-1.48999,1.85004-2.96997,2.32001-4.41998,2.83002-8.76001-4.48999-16.40002-5.84998-17.64001-1.31-1.20001-8.90002-11.44-18.37-6.57996-1.58002,.79999-3.20001,2.01996-4.85004,3.76996Z"/>
  <ellipse class="cls-13" cx="80.61311" cy="46.42593" rx="38.19517" ry="23.64862" transform="translate(-9.21706 70.59991) rotate(-45)"/>
  <path class="cls-12" d="M242.53007,167.72998l22.35999,20.09003c.14001-.08002,.27997-.16003,.41998-.23999,2-1.14001,4.02002-2.44,6-3.89001,.70001-.51001,1.39001-1.03998,2.08002-1.59003l-25.98004-23.35999c-.62994,1.08002-1.22998,2.13-1.78998,3.14001-1.16998,2.09998-2.20001,4.04999-3.08997,5.84998Z"/>
  <path class="cls-8" d="M241.78003,178.96002c-.12006-.01001-.24005-.01001-.36005-.01001-3.13995,0-5.75,2.51996-5.82996,5.70996l-.65002,28.31c-.09998,4.31006-4.66998,7.03003-8.5,5.07001l-32.28998-16.50995c-2.47003-1.26001-5.49005-.61005-7.22003,1.54999l-24.58002,30.71997c-6.32996,7.91003-18.37,7.91003-24.69995,0l-24.58002-30.71997c-1.72998-2.16003-4.75-2.81-7.22003-1.54999l-32.28998,16.50995c-3.83002,1.96002-8.40002-.75995-8.5-5.07001l-.65002-28.31c-.07996-3.19-2.69-5.70996-5.82996-5.70996-.12,0-.23999,0-.36005,.01001-5.12,.29999-8.12-5.65002-4.82996-9.58002l3.02997-3.63c.35004-.41998,.75-.77002,1.19-1.06,.29999-.21002,.60999-.39001,.94-.53003v-2.92999h.04999c.15002-3.23999,1.06-6.40997,2.66003-9.22998,3.97998,6.98999,11.42999,11.28003,19.46997,11.21997H219.27002c8.03998,.06006,15.48999-4.22998,19.46997-11.21997,1.60004,2.82001,2.51001,5.98999,2.66003,9.22998v2.90002c.34998,.15002,.67999,.33002,1,.54999,.42999,.28998,.82996,.65002,1.17999,1.07001l3.02997,3.63c3.29004,3.92999,.29004,9.88-4.82996,9.58002Z"/>
  <path class="cls-13" d="M242.40002,164.67999c-.96002,1.83002-2.84003,3.13-5.18005,2.98999-.10999-.01001-.22998-.01001-.33997-.01001-2.97998,0-5.47003,2.52002-5.53998,5.71002l-.62006,28.31c-.08997,4.31-4.43994,7.03003-8.07996,5.07001l-30.67999-16.51001c-2.35004-1.26001-5.22003-.60999-6.86005,1.54999l-23.35999,30.72003c-6.02002,7.90997-17.45996,7.90997-23.47998,0l-23.35999-30.72003c-1.64001-2.15997-4.51001-2.81-6.86005-1.54999l-30.67999,16.51001c-3.64001,1.96002-7.98999-.76001-8.07996-5.07001l-.62006-28.31c-.06995-3.19-2.56-5.71002-5.53998-5.71002-.10999,0-.22998,0-.33997,.01001-2.34003,.14001-4.21002-1.14996-5.17004-2.97998,.29999-.21002,.60999-.39001,.94-.53003v-2.92999h.04999c.15002-3.23999,1.06-6.40997,2.66003-9.22998,3.97998,6.98999,11.42999,11.28003,19.46997,11.21997H219.27002c8.03998,.06006,15.48999-4.22998,19.46997-11.21997,1.60004,2.82001,2.51001,5.98999,2.66003,9.22998v2.90002c.34998,.15002,.67999,.33002,1,.54999Z"/>
  <rect class="cls-7" x="42.34002" y="253.98782" width="215.39" height="18.63313"/>
  <rect class="cls-10" x="42.34002" y="249.23001" width="215.39" height="18.63313"/>
  <path class="cls-13" d="M169.80273,250.68931v14.78389h-39.65546v-14.78389h39.65546m.1969-8.08727h-40.04926c-4.35773,0-7.89038,3.53263-7.89038,7.89034v15.17773c0,4.35771,3.53265,7.89034,7.89038,7.89034h40.04926c4.35773,0,7.89038-3.53263,7.89038-7.89034v-15.17773c0-4.35771-3.53265-7.89034-7.89038-7.89034h0Z"/>
  <path class="cls-6" d="M103.96002,32.03998c-1.02002,7.37-5.34003,16.08002-12.41003,23.83002-12.45996,13.66003-28.75,19.10999-36.38,12.17999-.29999-.26996-.57001-.56-.82996-.85999-.14001-.15002-.28003-.32001-.42004-.48999-.01996-.04004-.06-.08002-.08997-.13-.65002-.82001-1.28003-1.78003-1.87-2.87-1.34003-2.41003-2.56-5.42999-3.65002-8.79999-.08002-.25-.15997-.5-.23999-.76001-.66998-2.10999-1.29999-4.35004-1.88-6.66003-.69-2.75-1.32001-5.60999-1.89001-8.44995-.26001-1.31006-.51001-2.62006-.75-3.92004-2.46997-13.46997-3.58997-25.75-3.58997-25.75,0,0,3.06-.04999,7.81,.03003,4.51001,.07996,10.56,.26996,16.97998,.71997,3.66998,.26001,7.46002,.60004,11.15997,1.06,.98004,.12,1.95001,.23999,2.91003,.38,3.17999,.45001,6.23999,1,9.03998,1.66003,.42004,.09998,.83002,.19995,1.23999,.29999,2.96002,.75,5.59003,1.64001,7.68005,2.69,1.25995,.63,2.31995,1.31,3.14996,2.06l-.01001,.01001c.12,.10999,.25,.20996,.37,.31,3.30005,3.01001,4.44,7.83997,3.67004,13.45996Z"/>
  <path class="cls-7" d="M103.9604,32.03542c-1.02496,7.3704-5.34353,16.0881-12.4145,23.83855-12.46054,13.6582-28.74439,19.10534-36.37964,12.17263-.29943-.26492-.56435-.55283-.8292-.85226-.13819-.14965-.27638-.32242-.41457-.49519-.02305-.03451-.05757-.08062-.09215-.12666-9.76572-12.29929-13.86548-57.21248-13.86548-57.21248,0,0,3.05175-.04604,7.80795,.03451,2.56816,12.90969,8.52202,35.82695,19.33575,43.55428,15.38563,10.99803,36.84031-20.92492,36.84031-20.92492l.01153,.01153Z"/>
  <circle class="cls-13" cx="41.73526" cy="10.44896" r="10.44896"/>
  <path class="cls-13" d="M89.09998,13.51001c-1.79999,9.26001-8.46997,34.01001-40.78998,41.39001-.08002-.25-.15997-.5-.23999-.76001-.66998-2.10999-1.29999-4.35004-1.88-6.66003-.69-2.75-1.32001-5.60999-1.89001-8.44995,12.39001-1.31006,26.26001-7.64001,31.60999-27.86005,.98004,.12,1.95001,.23999,2.91003,.38,3.17999,.45001,6.23999,1,9.03998,1.66003,.42004,.09998,.83002,.19995,1.23999,.29999Z"/>
</svg>