<svg id="Layer_1" data-name="Layer 1" xmlns="http://www.w3.org/2000/svg" xmlns:xlink="http://www.w3.org/1999/xlink" viewBox="0 0 300 345"><defs><style>.cls-1{fill:url(#linear-gradient);}.cls-2{fill:#f9a241;}.cls-3{fill:#da7d25;}.cls-4{fill:#c95b28;}.cls-5{fill:#b23a25;}.cls-6{fill:#9e2f21;}.cls-7{fill:#bc4a27;}.cls-8{fill:#e17826;}.cls-9{fill:#493d7d;}.cls-10{fill:#635ba1;}.cls-11{fill:#322b59;}.cls-12{fill:#d62027;}.cls-13{fill:#8e191b;}.cls-14{fill:#59af48;}.cls-15{fill:#f7941d;}.cls-16{fill:url(#radial-gradient);}.cls-17{fill:#ffcd05;}.cls-18{fill:#feea96;}</style><linearGradient id="linear-gradient" x1="150" y1="381.25" x2="150" y2="186.29" gradientUnits="userSpaceOnUse"><stop offset="0.1" stop-color="#f9a241"/><stop offset="0.38" stop-color="#c66821"/></linearGradient><radialGradient id="radial-gradient" cx="136.67" cy="116.28" r="51.56" gradientTransform="matrix(0.99, -0.13, 0.15, 1.12, -15.86, 3.67)" gradientUnits="userSpaceOnUse"><stop offset="0.54" stop-color="#d88f2a"/><stop offset="1" stop-color="#fabc2e"/></radialGradient></defs><title>blook-french-waffle</title><path class="cls-1" d="M243.66,345H56.34A36.38,36.38,0,0,1,20,308.62V259.14H280v49.48A36.38,36.38,0,0,1,243.66,345Z"/><path class="cls-2" d="M56.43,290.39A28.5,28.5,0,0,1,28,261.93V154a47,47,0,0,0-7.51-25.56,78.81,78.81,0,0,1,9.07-96.66A77.34,77.34,0,0,1,85.93,8c1.66,0,3.34,0,5,.15A77.7,77.7,0,0,1,133.52,24a27.09,27.09,0,0,0,33,0A77.7,77.7,0,0,1,209.07,8.14c1.66-.1,3.34-.15,5-.15a77.45,77.45,0,0,1,77.86,81.55,77.94,77.94,0,0,1-12.38,38.94A47,47,0,0,0,272,154V261.93a28.5,28.5,0,0,1-28.47,28.46Z"/><path class="cls-3" d="M214.07,16a70.16,70.16,0,0,1,58.76,108.15A55,55,0,0,0,264,154V261.93a20.49,20.49,0,0,1-20.47,20.46H56.43A20.49,20.49,0,0,1,36,261.93V154a55,55,0,0,0-8.79-29.9A69.85,69.85,0,0,1,85.93,16c1.5,0,3,0,4.52.14a69.71,69.71,0,0,1,38.22,14.21A34.86,34.86,0,0,0,150,37.57a35.35,35.35,0,0,0,21.33-7.23,69.71,69.71,0,0,1,38.22-14.21c1.5-.09,3-.14,4.52-.14m0-16c-1.82,0-3.64.06-5.48.17a85.72,85.72,0,0,0-47,17.46,19.1,19.1,0,0,1-23.26,0A85.72,85.72,0,0,0,91.41.16C89.58.05,87.74,0,85.93,0,36.82,0-2,40,.08,89.87a85.61,85.61,0,0,0,13.65,42.95A39.13,39.13,0,0,1,20,154V261.93a36.46,36.46,0,0,0,36.47,36.46H243.57A36.46,36.46,0,0,0,280,261.93V154a39.13,39.13,0,0,1,6.23-21.22,85.6,85.6,0,0,0,13.65-42.94C302,40,263.18,0,214.07,0Z"/><path class="cls-4" d="M266.56,189.94c-45.51-57.71,55-105-22.86-131.48-37.32-12.67-51.7-26.95-57-37.54A14.82,14.82,0,0,0,165,15.15c-1.11.77-2.2,1.56-3.28,2.38a19.25,19.25,0,0,1-23.35.11,83.72,83.72,0,0,0-7.68-5.23A25.09,25.09,0,0,0,101,15.34L17.11,90.75a30.25,30.25,0,0,0-6.39,37.05q1.35,2.45,2.85,4.79A39.81,39.81,0,0,1,20,154.1v82.71a17.31,17.31,0,0,0,6,13.1h0c6.07,5.23,14.95,9.41,27.81,9.41A50.88,50.88,0,0,1,87,271.2a49.36,49.36,0,0,1,16,25.63c2.71,10.32,11,28,36.21,28,26.67,0,33.78-19.82,35.67-29.74a74.1,74.1,0,0,1,6.23-19c5.61-11.35,15.35-25.72,28.68-25.72,22,0,19.63,16.23,42.27,9.28S286.06,214.67,266.56,189.94Z"/><path class="cls-5" d="M103.38,298.39c0,.16.09.3.13.46a40.27,40.27,0,0,0,8.09,14.77c.66.73,1.35,1.44,2.09,2.14.37.34.75.68,1.15,1,5.5,4.67,13.29,8.05,24.31,8.05,13.34,0,21.78-5,27.13-11.15a34.26,34.26,0,0,0,4.16-6.06c.45-.82.85-1.65,1.23-2.47.18-.41.36-.82.53-1.23a43.88,43.88,0,0,0,1.86-5.53Z"/><path class="cls-6" d="M172.2,303.92c-.17.41-.35.82-.53,1.23-.38.82-.78,1.65-1.23,2.47a34.26,34.26,0,0,1-4.16,6.06c-5.35,6.19-13.79,11.15-27.13,11.15-11,0-18.81-3.38-24.31-8.05-.4-.34-.78-.68-1.15-1-.74-.7-1.43-1.41-2.09-2.14a40.27,40.27,0,0,1-8.09-14.77c0-.16-.09-.3-.13-.46H93.08a54.71,54.71,0,0,1,5.32,13.14c2.82,10.74,15.73,29.15,42,29.15h0c27.77,0,38.19-20.64,40.16-31a83.18,83.18,0,0,1,3-11.33h-9.45A43.88,43.88,0,0,1,172.2,303.92Z"/><path class="cls-7" d="M263.58,252.57l-.65.61c-.32.29-.64.58-1,.86s-.46.38-.7.57-.66.52-1,.77l-.73.53-1.05.69-.74.46c-.37.22-.75.42-1.13.62l-.73.39c-.42.2-.85.39-1.28.57-.21.1-.42.2-.64.28l-.59.22c-.45.17-.9.33-1.36.48h0c-9.2,2.82-14.26,1.82-18.51-.37l-.21-.11c-1.23-.65-2.39-1.39-3.58-2.16-4.68-3.08-9.64-6.64-20-6.64-6.75,0-12.58,3.69-17.42,8.8a70.84,70.84,0,0,0-11.26,16.92c-1,2.07-1.91,4.18-2.72,6.33h12.8c5.2-8.34,11.91-14.58,22.73-14.58,22.95,0,21.91,13.13,44,8.15l.75-.2A20.4,20.4,0,0,0,264,261.93v-9.82C263.88,252.26,263.73,252.42,263.58,252.57Z"/><path class="cls-7" d="M94.83,279.57c-.75-1-1.55-2-2.38-3A44.85,44.85,0,0,0,87,271.2c-1-.79-2-1.57-3-2.33-.53-.38-1.07-.75-1.63-1.12-1.11-.74-2.27-1.44-3.49-2.11A49.8,49.8,0,0,0,73,262.88a52.05,52.05,0,0,0-19.24-3.56c-1.55,0-3-.06-4.48-.18A43.83,43.83,0,0,1,36,256v5.89a20.33,20.33,0,0,0,2.92,10.48,41.84,41.84,0,0,0,12.58,2.25c13.27,0,20.36,2.7,27.21,7.73H96.73C96.13,281.43,95.5,280.49,94.83,279.57Z"/><path class="cls-5" d="M36,261.93V256a37.11,37.11,0,0,1-8-4.53c-.7-.52-1.37-1-2-1.6a17.31,17.31,0,0,1-6-13.1v25a13.72,13.72,0,0,0,2.54,3s2.42,1.53,6.17,3.37a77.86,77.86,0,0,0,10.21,4.18A20.33,20.33,0,0,1,36,261.93Z"/><path class="cls-5" d="M178.33,282.39l-.22.6q-.86,2.36-1.55,4.77c-.25.87-.49,1.75-.71,2.63-.39,1.56-.73,3.13-1,4.7-.19,1-.44,2.12-.76,3.3h9.45a73,73,0,0,1,3.28-8c.08-.16.15-.33.23-.49,1.29-2.61,2.64-5.14,4.11-7.51Z"/><path class="cls-5" d="M102.94,296.83a55.85,55.85,0,0,0-2.14-6.44,52.48,52.48,0,0,0-2.88-6c-.31-.56-.63-1.1-1-1.65l-.22-.35H78.67c1,.76,2.07,1.58,3.11,2.44a47.31,47.31,0,0,1,5.67,5.56,51.22,51.22,0,0,1,5.63,8h10.3C103.22,297.86,103.07,297.34,102.94,296.83Z"/><path class="cls-5" d="M273,200.22c-.32-.4-.62-.79-.92-1.19q.5,1.08.93,2.16c0,.06.05.12.08.19q.42,1.05.78,2.13c0,.07,0,.14.07.21.25.72.47,1.45.68,2.18l0,.1a49.93,49.93,0,0,1,1.81,14v.17c0,.71,0,1.41-.08,2.1,0,.13,0,.25,0,.37,0,.67-.1,1.33-.17,2,0,.14,0,.29-.05.43-.07.65-.15,1.3-.25,1.95l-.06.39c-.11.67-.22,1.33-.35,2l0,.15a51,51,0,0,1-1.71,6.34s0,.11,0,.16c-.18.52-.38,1-.57,1.54-.09.24-.18.48-.28.71-.18.46-.37.9-.56,1.34-.1.22-.18.43-.28.64l-.1.21c-.19.41-.39.82-.59,1.22s-.3.6-.46.9-.4.75-.61,1.12-.35.62-.54.93-.41.69-.62,1-.42.65-.64,1-.41.62-.62.92-.54.72-.81,1.07-.35.48-.54.71c-.45.56-.92,1.11-1.4,1.64l-.54.56c-.18.19-.35.38-.53.56v9.82a20.4,20.4,0,0,1-5.42,13.83,26.54,26.54,0,0,0,12.86-8.21,40.34,40.34,0,0,0,5.78-8.41A50.4,50.4,0,0,0,280,252.8V212.74A46.83,46.83,0,0,0,273,200.22Z"/><path class="cls-7" d="M274.69,206l0-.1c-.21-.73-.43-1.46-.68-2.18,0-.07-.05-.14-.07-.21q-.36-1.08-.78-2.13c0-.07-.05-.13-.08-.19q-.44-1.08-.93-2.16l-.08-.17a45.18,45.18,0,0,0-5.48-8.92c-.9-1.14-1.73-2.28-2.52-3.41V252.1c.18-.18.36-.36.53-.55l.54-.56c.48-.53.95-1.08,1.4-1.64.19-.23.36-.47.54-.71s.55-.71.81-1.07.42-.61.62-.92.43-.63.64-1,.42-.68.62-1,.37-.62.54-.93.41-.74.61-1.12.31-.6.46-.9.4-.81.59-1.22l.1-.22.28-.63c.19-.44.38-.89.56-1.34.1-.23.19-.47.28-.71.19-.51.39-1,.57-1.54,0-.05,0-.11,0-.16a51,51,0,0,0,1.71-6.34l0-.15c.13-.65.24-1.31.35-2l.06-.39c.1-.65.18-1.3.25-1.95,0-.14,0-.29.05-.43.07-.66.13-1.32.17-2,0-.12,0-.24,0-.37,0-.69.07-1.39.08-2.1V220A49.93,49.93,0,0,0,274.69,206Z"/><path class="cls-7" d="M186.72,20.92A15.13,15.13,0,0,0,181.47,15a14.65,14.65,0,0,0-16.23,0l-.55.38c-.89.62-1.77,1.25-2.63,1.9l-.43.32A19.15,19.15,0,0,1,150,21.57a19.07,19.07,0,0,1-8.37-2l-.55-.26-.2-.11a19.36,19.36,0,0,1-2.48-1.6c-1.1-.84-2.23-1.64-3.36-2.43l-.84-.57c-1.14-.77-2.3-1.52-3.48-2.23a25,25,0,0,0-23-1.41,25.31,25.31,0,0,0-6.7,4.34l-2,1.83a69.69,69.69,0,0,1,29.73,13.17A34.86,34.86,0,0,0,150,37.57a35.35,35.35,0,0,0,21.33-7.23,69.78,69.78,0,0,1,15.61-9C186.86,21.2,186.79,21.06,186.72,20.92Z"/><path class="cls-7" d="M27.17,124.14a69.92,69.92,0,0,1-11-32.5,30.3,30.3,0,0,0-6.71,9.74,30,30,0,0,0,1.17,26.31l.12.23.71,1.24.68,1.18c.24.4.49.79.74,1.19s.53.86.81,1.29A39.13,39.13,0,0,1,20,154v.06h0v82.71a17.31,17.31,0,0,0,6,13.1c.63.55,1.3,1.08,2,1.6A37.11,37.11,0,0,0,36,256V154A55,55,0,0,0,27.17,124.14Z"/><path class="cls-7" d="M96.73,282.39l.22.35c.34.55.66,1.09,1,1.65a52.48,52.48,0,0,1,2.88,6,55.85,55.85,0,0,1,2.14,6.44c.13.51.28,1,.44,1.56h70.68c.32-1.18.57-2.29.76-3.3.3-1.57.64-3.14,1-4.7.22-.88.46-1.76.71-2.63q.69-2.42,1.55-4.77l.22-.6Z"/><circle class="cls-8" cx="264.1" cy="235.97" r="4.37"/><ellipse class="cls-8" cx="246.85" cy="246.96" rx="10.56" ry="7.63" transform="translate(-34.69 40.42) rotate(-8.75)"/><path class="cls-8" d="M131,309.23c1.14-4.19,4.91-1.91,11.62-2.53s9.47-4.09,12.7.31c3.56,4.86-4.51,10.7-11.23,11.32S129.13,316,131,309.23Z"/><circle class="cls-8" cx="120.78" cy="307.1" r="4.37"/><ellipse class="cls-8" cx="38.79" cy="241.83" rx="7.63" ry="10.56" transform="translate(-194.26 166.51) rotate(-62.98)"/><circle class="cls-8" cx="58.42" cy="250.27" r="5.41"/><path class="cls-5" d="M247.59,182.33a4.77,4.77,0,0,0-2.83-7.54l-4.7-1a4.79,4.79,0,0,1-3.72-3.87l-.35-2.07a4.77,4.77,0,0,0-7.52-3l-1.7,1.24a4.76,4.76,0,0,1-6.13-.43l-3-2.9a4.77,4.77,0,0,0-7.84,1.89l-.43,1.26a4.76,4.76,0,0,1-6,3l-1-.34a4.77,4.77,0,0,0-5.93,6.33l.37.91a.47.47,0,0,1-.13.54,34.1,34.1,0,0,0-11.37,21.51,29.74,29.74,0,0,0-.16,6.07l-.15-.27-1-2.22a4.77,4.77,0,0,0-8-1.11l-1.34,1.62a4.77,4.77,0,0,1-6.05,1.1l-3.62-2.08a4.77,4.77,0,0,0-7.13,3.76l-.11,1.33a4.77,4.77,0,0,1-5.11,4.38l-1.08-.08a4.76,4.76,0,0,0-4.19,7.59l.58.79a.48.48,0,0,1,0,.56,34.12,34.12,0,0,0-5.74,23.65c2.37,18.75,18.61,25,37.36,22.69s32.92-12.51,30.55-31.26a33.74,33.74,0,0,0-1.28-5.91.48.48,0,0,1,.57-.61,57.82,57.82,0,0,0,6.54,1.18c18.75,2.32,35-4,37.3-22.78a34.11,34.11,0,0,0-5.6-23.33.48.48,0,0,1,0-.56Z"/><path class="cls-5" d="M46.86,90.32c4.37,18.38,21.2,22.9,39.59,18.52s31.37-16,27-34.36a34.1,34.1,0,0,0-13.39-19.92.46.46,0,0,1-.18-.52h0A4.77,4.77,0,0,0,94.59,48l-4.74.72A4.77,4.77,0,0,1,85,46.35L84,44.54a4.76,4.76,0,0,0-8.1-.23l-1.16,1.75a4.78,4.78,0,0,1-5.9,1.75L65,46.13a4.78,4.78,0,0,0-6.69,4.51l0,1.33a4.76,4.76,0,0,1-4.61,4.9l-1.08,0a4.77,4.77,0,0,0-3.35,8l.67.72a.48.48,0,0,1,.06.55A34.16,34.16,0,0,0,46.86,90.32Z"/><path class="cls-5" d="M263.88,77.18c0-3.15-1.25-18.11-22.2-21.38a.48.48,0,0,1-.27-.83A44.52,44.52,0,0,1,250,48.53c2.23-1.25,2.9-4.74,1.18-6.24h0c-3.16-2.78-7.81-2.6-11.63.52A57.39,57.39,0,0,0,231,51.58a.47.47,0,0,1-.68.08c-4.72-3.91-17.22-12.45-29.47-5.52a.5.5,0,0,0-.18.68,25.77,25.77,0,0,0,3.68,4.69l-.82.2-.22,0c-.6.16-1.19.33-1.78.52l-.12,0a27.48,27.48,0,0,0-3.72,1.54h0C192,56.8,187.25,61.92,184.2,69.74a40.9,40.9,0,0,0-2,22.91,100.23,100.23,0,0,1,1.59,19.11,28.27,28.27,0,0,0,49,19.11,101.45,101.45,0,0,1,14.11-13,40.89,40.89,0,0,0,14-18.23A30.76,30.76,0,0,0,263,84.26h0A26.19,26.19,0,0,0,261.35,78a.48.48,0,0,1,.55-.66c.46.11.93.21,1.4.29A.48.48,0,0,0,263.88,77.18Z"/><path class="cls-5" d="M104.26,171.16h0a25.72,25.72,0,0,0-5.6-3.18.49.49,0,0,1-.08-.86c.4-.25.79-.51,1.19-.79a.49.49,0,0,0,.06-.75c-2.26-2.19-13.78-11.82-30.81.82a.49.49,0,0,1-.78-.4,45,45,0,0,1,1.43-10.63c.68-2.46-1.34-5.39-3.62-5.22h0c-4.2.3-7.33,3.74-7.78,8.65A56.75,56.75,0,0,0,58.54,171a.47.47,0,0,1-.42.54c-6.1.62-20.95,3.54-24.61,17.12a.5.5,0,0,0,.36.61,24.75,24.75,0,0,0,5.92.67c-.15.24-.29.48-.43.73a1.74,1.74,0,0,0-.11.18c-.32.54-.61,1.09-.89,1.64a.37.37,0,0,1,0,.11,26.12,26.12,0,0,0-1.51,3.74h0c-2,6.18-1.61,13.11,1.82,20.77a41,41,0,0,0,14.91,17.53,101,101,0,0,1,14.73,12.27,28.26,28.26,0,0,0,48-21.49,100.54,100.54,0,0,1,.65-19.16,40.85,40.85,0,0,0-3.16-22.79A30.61,30.61,0,0,0,104.26,171.16Z"/><path class="cls-5" d="M95.36,138.45h0v0a13.54,13.54,0,0,0,.43,2.37L98,152.64l0,.16,0,.11h0a14.33,14.33,0,0,0,7.11,9.75l37.45,20.77a14.83,14.83,0,0,0,20.16-5.78l20.84-37.58a14.32,14.32,0,0,0,1.61-9.23h0l0-.15c0-.13-.05-.27-.08-.4l-2.21-11.59a14.9,14.9,0,0,0-.47-2.5h0a14.34,14.34,0,0,0-6.83-8.58L138.1,86.83a14.83,14.83,0,0,0-20.16,5.78L97.1,130.19A14.33,14.33,0,0,0,95.36,138.45Z"/><path class="cls-9" d="M250.46,200.93c-2.32,18.76-18.54,25.1-37.3,22.79s-32.95-12.43-30.63-31.18a34.22,34.22,0,1,1,67.93,8.39Z"/><path class="cls-10" d="M238.14,211.33a7,7,0,0,1-10-.39c-2.88-3.17-1.48-6.9,1.21-9.34s7.25-3.18,10.21.09S240.83,208.9,238.14,211.33Z"/><path class="cls-10" d="M221.07,216.59c-2.33.5-5-1.05-5.74-4.26a4.41,4.41,0,0,1,3.6-5.58,5.07,5.07,0,0,1,5.94,4.14C225.59,214.18,223.39,216.08,221.07,216.59Z"/><path class="cls-11" d="M241.72,183.52l.63,3.53a4.28,4.28,0,0,1-5.27,4.91h0a4.28,4.28,0,0,0-4.79,2.07l-1.41,2.52a4.29,4.29,0,0,1-6.22,1.41l-5.12-3.63a4.28,4.28,0,0,0-4.82-.1l-3.6,2.36a4.29,4.29,0,0,1-6.39-2.16l-1.2-3.41a4.29,4.29,0,0,0-4.37-2.85l-1.22.09a4.28,4.28,0,0,1-4.26-6l1.95-4.54a4.25,4.25,0,0,0,0-3.32l-2.4-5.85a4.29,4.29,0,0,1,5.33-5.69l2.49.84a4.29,4.29,0,0,0,5.42-2.68l.83-2.45a4.29,4.29,0,0,1,7-1.69l3.84,3.72a4.29,4.29,0,0,0,5.51.38l2.66-1.94a4.29,4.29,0,0,1,6.76,2.73l.54,3.17a4.28,4.28,0,0,0,3.34,3.47l5.77,1.21a4.29,4.29,0,0,1,2.54,6.78l-2.82,3.74A4.25,4.25,0,0,0,241.72,183.52Z"/><path class="cls-11" d="M222.48,188.93a39.1,39.1,0,0,1-4.95-.32c-5.31-.65-9.65-2.11-12.55-4.2s-4.19-4.72-3.79-7.92c.73-5.92,6.78-9.74,15.42-9.74a29.38,29.38,0,0,1,3.6.23,23.23,23.23,0,0,1,12.3,5,10.09,10.09,0,0,1,3.83,8.9C235.46,187.88,227.28,188.93,222.48,188.93Z"/><path class="cls-9" d="M216.61,164.75v4h0A27.27,27.27,0,0,1,220,169c7.75,1,15.18,5.26,14.39,11.63-.65,5.24-6.81,6.34-11.87,6.34a38.79,38.79,0,0,1-4.7-.3c-3.66-.45-15.52-2.5-14.6-9.9.72-5.89,7.69-8,13.43-8v-4m0,0c-9.11,0-16.5,4.2-17.4,11.49-1,8.3,7.28,13,18.08,14.36a42.43,42.43,0,0,0,5.19.33c8.43,0,15-2.92,15.84-9.85,1-8.3-7.07-14.75-17.87-16.09a31.54,31.54,0,0,0-3.84-.24Z"/><path class="cls-9" d="M207.33,229.05c2.37,18.75-11.8,28.89-30.55,31.26s-35-3.94-37.36-22.69a34.22,34.22,0,0,1,67.91-8.57Z"/><path class="cls-10" d="M198,242.16a7,7,0,0,1-9.81,2.08c-3.57-2.36-3.13-6.32-1.13-9.34s6.26-4.87,9.92-2.43S200,239.14,198,242.16Z"/><path class="cls-10" d="M182.7,251.45c-2.13,1.07-5.14.22-6.61-2.71a4.4,4.4,0,0,1,2.11-6.29A5.06,5.06,0,0,1,185,245C186.49,248,184.82,250.39,182.7,251.45Z"/><path class="cls-11" d="M194.58,214.33l1.48,3.25a4.29,4.29,0,0,1-3.9,6.07h0a4.28,4.28,0,0,0-4.14,3.18l-.74,2.79a4.28,4.28,0,0,1-5.68,2.89l-5.86-2.26a4.27,4.27,0,0,0-4.69,1.1l-2.92,3.17a4.29,4.29,0,0,1-6.72-.52l-2-3a4.28,4.28,0,0,0-4.93-1.68l-1.16.39a4.29,4.29,0,0,1-5.6-4.74l.78-4.87a4.29,4.29,0,0,0-.79-3.23l-3.76-5.08A4.28,4.28,0,0,1,147.7,205l2.62.2a4.3,4.3,0,0,0,4.6-3.94l.2-2.57a4.29,4.29,0,0,1,6.4-3.38l4.65,2.67a4.29,4.29,0,0,0,5.43-1l2.1-2.54a4.29,4.29,0,0,1,7.22,1l1.31,2.94a4.27,4.27,0,0,0,4.09,2.54l5.89-.24a4.28,4.28,0,0,1,4.13,5.94l-1.81,4.32A4.25,4.25,0,0,0,194.58,214.33Z"/><path class="cls-11" d="M167.36,225.54c-4.77,0-12.91-1-13.79-8.06-.86-6.77,5.91-12.62,16.09-13.9a28.62,28.62,0,0,1,3.67-.24c8.59,0,14.63,3.81,15.37,9.7,1.17,9.24-12.19,11.65-16.31,12.17A40.53,40.53,0,0,1,167.36,225.54Z"/><path class="cls-9" d="M173.33,201.34v4c5.71,0,12.65,2.09,13.39,7.95.93,7.39-10.93,9.47-14.58,9.94a38.4,38.4,0,0,1-4.78.31c-5,0-11.15-1.09-11.81-6.31-.33-2.65.72-5,3.13-7.16a21.31,21.31,0,0,1,11.23-4.51,28.44,28.44,0,0,1,3.42-.22v-4m0,0a32.89,32.89,0,0,0-3.92.25c-10.8,1.37-18.87,7.84-17.83,16.14.87,6.9,7.4,9.81,15.78,9.81a42.28,42.28,0,0,0,5.28-.35c10.8-1.36,19.09-6.1,18.05-14.4-.92-7.27-8.28-11.45-17.36-11.45Z"/><path class="cls-9" d="M110.73,69.19c4.37,18.39-8.62,30-27,34.37S48.51,103.42,44.14,85a34.22,34.22,0,1,1,66.59-15.84Z"/><path class="cls-10" d="M102.82,83.23a7,7,0,0,1-9.53,3.13c-3.8-2-3.8-6-2.13-9.17s5.69-5.51,9.6-3.48S104.48,80,102.82,83.23Z"/><path class="cls-10" d="M88.65,94.12c-2,1.28-5.09.77-6.86-2a4.4,4.4,0,0,1,1.42-6.48,5.05,5.05,0,0,1,7,1.8C92.05,90.28,90.65,92.83,88.65,94.12Z"/><path class="cls-11" d="M96.46,55.92,98.29,59a4.29,4.29,0,0,1-3.22,6.45h0a4.3,4.3,0,0,0-3.78,3.61l-.44,2.85a4.27,4.27,0,0,1-5.33,3.49l-6.07-1.61a4.28,4.28,0,0,0-4.55,1.59l-2.55,3.47a4.29,4.29,0,0,1-6.74.2l-2.32-2.78a4.3,4.3,0,0,0-5.09-1.14l-1.11.52A4.28,4.28,0,0,1,51,71.54l.24-4.93a4.28,4.28,0,0,0-1.13-3.12l-4.29-4.64a4.29,4.29,0,0,1,3-7.2l2.63-.08a4.29,4.29,0,0,0,4.14-4.41l-.08-2.58a4.29,4.29,0,0,1,6-4l4.9,2.15a4.29,4.29,0,0,0,5.3-1.56l1.81-2.75a4.28,4.28,0,0,1,7.28.2l1.62,2.78a4.28,4.28,0,0,0,4.34,2.09l5.83-.88A4.29,4.29,0,0,1,97.38,48L96,52.51A4.28,4.28,0,0,0,96.46,55.92Z"/><path class="cls-11" d="M67.4,70.19C62.94,70.19,57.35,69,56,63.48c-1.58-6.64,4.52-13.18,14.5-15.56A28.45,28.45,0,0,1,77,47.14c7.14,0,12.33,3.12,13.52,8.14.75,3.14-.2,5.85-2.89,8.3s-6.8,4.32-12,5.56A35.76,35.76,0,0,1,67.4,70.19Z"/><path class="cls-9" d="M77,45.14v4c2.35,0,10.12.48,11.57,6.61C90.26,63,78.7,66.34,75.11,67.19a33.86,33.86,0,0,1-7.71,1C62,68.19,58.79,66.45,58,63c-1.48-6.24,5.43-11.33,13-13.14a26.11,26.11,0,0,1,6-.73v-4m0,0a30,30,0,0,0-6.89.84c-10.59,2.52-17.92,9.82-16,18,1.39,5.81,6.59,8.25,13.32,8.25A37.71,37.71,0,0,0,76,71.08C86.63,68.56,94.36,63,92.43,54.82,90.92,48.5,84.65,45.14,77,45.14Z"/><path class="cls-12" d="M258.13,94.36c8.26-21.16-5.73-36-26.9-44.24s-41.49-6.84-49.75,14.33a40.88,40.88,0,0,0-2.18,22.16A98.48,98.48,0,0,1,181,105.84a28.26,28.26,0,0,0,49.39,19.27,99.43,99.43,0,0,1,14.3-13A41,41,0,0,0,258.13,94.36Z"/><path class="cls-13" d="M260.07,78.93l.22,0c-1.78-13.12-13.46-22.77-29.06-28.85a66.44,66.44,0,0,0-18-4.5l-1.82-.13A32.28,32.28,0,0,0,195,48.58a35.25,35.25,0,0,0,8.62,7.51A40.32,40.32,0,0,0,192,72.21l-3.27,8.36,9,.55c.85.06,15.76.85,26.73-6.78,2.37,6.18,6.5,13.12,13.7,17.9l6.52,4.32,3.11-7.17a39.2,39.2,0,0,0,2.64-13.3A40.74,40.74,0,0,0,260.07,78.93Z"/><path class="cls-14" d="M261.15,72.48s1.3-18.82-23.18-22.11a45.89,45.89,0,0,1,9.31-7.13c2.23-1.25,2.9-4.74,1.18-6.24h0c-3.16-2.78-7.81-2.6-11.63.52A57.47,57.47,0,0,0,228,46.69c-4.46-3.78-17.55-13.16-30.27-5.59,0,0,5.77,11.39,20.89,13.53,0,0-14.62,4.87-20.51,20,0,0,23.46,1.45,29.71-14.58,0,0,.83,18.08,13.93,26.77a35.24,35.24,0,0,0-.84-26.32S246.68,70.06,261.15,72.48Z"/><ellipse class="cls-13" cx="216.3" cy="88.39" rx="6.75" ry="4.01" transform="translate(55.32 257.75) rotate(-68.68)"/><ellipse class="cls-15" cx="216.5" cy="87.87" rx="4.13" ry="2.46" transform="translate(55.93 257.61) rotate(-68.68)"/><ellipse class="cls-13" cx="227.6" cy="107.17" rx="6.75" ry="4.01" transform="translate(75.61 307.64) rotate(-78.05)"/><ellipse class="cls-15" cx="227.72" cy="106.62" rx="4.13" ry="2.46" transform="matrix(0.21, -0.98, 0.98, 0.21, 76.24, 307.31)"/><ellipse class="cls-13" cx="195.32" cy="94.57" rx="6.75" ry="4.01" transform="translate(12.72 211.83) rotate(-58.54)"/><ellipse class="cls-15" cx="195.62" cy="94.09" rx="4.13" ry="2.46" transform="translate(13.26 211.85) rotate(-58.54)"/><ellipse class="cls-13" cx="246.75" cy="92.47" rx="6.75" ry="4.01" transform="translate(105.18 314.71) rotate(-78.05)"/><ellipse class="cls-15" cx="246.86" cy="91.92" rx="4.13" ry="2.46" transform="translate(105.81 314.39) rotate(-78.05)"/><ellipse class="cls-13" cx="191.16" cy="70.77" rx="6.75" ry="4.01" transform="translate(31.03 196.9) rotate(-58.54)"/><ellipse class="cls-15" cx="191.45" cy="70.29" rx="4.13" ry="2.46" transform="translate(31.57 196.92) rotate(-58.54)"/><ellipse class="cls-13" cx="207.5" cy="110.94" rx="6.01" ry="3.58" transform="translate(28.71 263.91) rotate(-68.68)"/><ellipse class="cls-15" cx="207.68" cy="110.48" rx="3.67" ry="2.19" transform="translate(29.26 263.78) rotate(-68.68)"/><ellipse class="cls-13" cx="191.82" cy="116.35" rx="3.31" ry="5.56" transform="translate(-15 29.42) rotate(-8.44)"/><ellipse class="cls-15" cx="191.76" cy="115.89" rx="2.02" ry="3.4" transform="translate(-14.94 29.41) rotate(-8.44)"/><ellipse class="cls-13" cx="215.36" cy="125.54" rx="5.56" ry="3.31" transform="translate(-31.06 163.17) rotate(-38.92)"/><ellipse class="cls-15" cx="215.72" cy="125.25" rx="3.4" ry="2.02" transform="translate(-30.8 163.33) rotate(-38.92)"/><path class="cls-12" d="M111,178.21c-9.29-20.73-29.66-21.16-50.39-11.87s-34,24.78-24.7,45.51A41,41,0,0,0,50.17,229a99.21,99.21,0,0,1,14.92,12.26,28.27,28.27,0,0,0,48.38-21.68,98.8,98.8,0,0,1,.79-19.29A40.91,40.91,0,0,0,111,178.21Z"/><path class="cls-13" d="M101.36,166l.18-.13c-10.6-7.94-25.67-6.38-40.94.46A66.52,66.52,0,0,0,44.77,176l-1.37,1.21a32.33,32.33,0,0,0-9.32,13.86,35.2,35.2,0,0,0,11.4-.87,40.28,40.28,0,0,0,3.35,19.58L52.5,218l6.68-6c.63-.57,11.65-10.64,13.91-23.81,6.07,2.65,13.91,4.57,22.37,2.79l7.65-1.6-2.93-7.25a38.92,38.92,0,0,0-7.62-11.21A40.74,40.74,0,0,0,101.36,166Z"/><path class="cls-14" d="M97.52,160.71s-12.5-14.12-32,1A46.16,46.16,0,0,1,67,150.09c.68-2.47-1.34-5.4-3.62-5.23h0c-4.2.31-7.33,3.74-7.78,8.66a57.38,57.38,0,0,0,.34,12.71c-5.82.53-21.69,3.28-25.22,17.65,0,0,12.17,3.88,24.3-5.39,0,0-6.79,13.84-.17,28.62,0,0,17.49-15.7,10.46-31.4,0,0,13.47,12.08,28.85,8.85a35.26,35.26,0,0,0-19.35-17.87S85.64,169.32,97.52,160.71Z"/><ellipse class="cls-13" cx="77.39" cy="203.84" rx="4.01" ry="6.75" transform="translate(-76.57 49.46) rotate(-24.13)"/><ellipse class="cls-15" cx="77.16" cy="203.33" rx="2.46" ry="4.13" transform="translate(-76.38 49.32) rotate(-24.13)"/><ellipse class="cls-13" cx="98.7" cy="208.95" rx="4.01" ry="6.75" transform="translate(-98.92 89.17) rotate(-33.5)"/><ellipse class="cls-15" cx="98.4" cy="208.48" rx="2.46" ry="4.13" transform="translate(-98.71 88.92) rotate(-33.5)"/><ellipse class="cls-13" cx="67.08" cy="223.12" rx="4.01" ry="6.75" transform="translate(-51.95 22.84) rotate(-13.99)"/><ellipse class="cls-15" cx="66.95" cy="222.57" rx="2.46" ry="4.13" transform="translate(-51.82 22.79) rotate(-13.99)"/><ellipse class="cls-13" cx="101.66" cy="184.99" rx="4.01" ry="6.75" transform="matrix(0.83, -0.55, 0.55, 0.83, -85.21, 86.82)"/><ellipse class="cls-15" cx="101.35" cy="184.53" rx="2.46" ry="4.13" transform="translate(-85 86.58) rotate(-33.5)"/><ellipse class="cls-13" cx="47.2" cy="209.39" rx="4.01" ry="6.75" transform="translate(-49.22 17.62) rotate(-13.99)"/><ellipse class="cls-15" cx="47.07" cy="208.85" rx="2.46" ry="4.13" transform="translate(-49.1 17.57) rotate(-13.99)"/><ellipse class="cls-13" cx="87.29" cy="225.93" rx="3.58" ry="6.01" transform="translate(-84.74 55.43) rotate(-24.13)"/><ellipse class="cls-15" cx="87.09" cy="225.47" rx="2.19" ry="3.67" transform="translate(-84.57 55.31) rotate(-24.13)"/><ellipse class="cls-13" cx="80.15" cy="240.89" rx="3.31" ry="5.56" transform="translate(-161.7 163.68) rotate(-53.89)"/><ellipse class="cls-15" cx="79.78" cy="240.62" rx="2.02" ry="3.4" transform="translate(-161.63 163.27) rotate(-53.89)"/><ellipse class="cls-13" cx="103.21" cy="230.56" rx="5.56" ry="3.31" transform="translate(-136.36 310.66) rotate(-84.37)"/><ellipse class="cls-15" cx="103.25" cy="230.1" rx="3.4" ry="2.02" transform="translate(-135.86 310.29) rotate(-84.37)"/><path class="cls-16" d="M182.45,125.55h0l0-.16c0-.13-.05-.26-.08-.4l-2.68-14.09-8.43,2.15L137.38,94.28a14.35,14.35,0,0,0-19.51,5.59l-17.34,31.27-7.89,2,2.59,14.2,0,.15,0,.11h0a14.31,14.31,0,0,0,7.11,9.75l37.87,21a14.35,14.35,0,0,0,19.51-5.59l21.07-38A14.31,14.31,0,0,0,182.45,125.55Z"/><rect class="cls-17" x="100.33" y="87.36" width="72.15" height="72" rx="14.35" transform="translate(-37.63 182.83) rotate(-60.99)"/><rect class="cls-18" x="144.4" y="103.04" width="23.5" height="23.46" rx="8.99" transform="translate(-19.94 195.68) rotate(-60.99)"/><rect class="cls-18" x="148.68" y="130.54" width="14.94" height="14.91" rx="7.46" transform="translate(-40.26 207.64) rotate(-60.99)"/></svg>