<svg id="Layer_1" data-name="Layer 1" xmlns="http://www.w3.org/2000/svg" xmlns:xlink="http://www.w3.org/1999/xlink" viewBox="0 0 300 345"><defs><style>.cls-1{fill:url(#linear-gradient);}.cls-2,.cls-5{fill:#c4e8f7;}.cls-13,.cls-2{opacity:0.6;}.cls-12,.cls-13,.cls-16,.cls-17,.cls-18,.cls-19,.cls-2,.cls-3{isolation:isolate;}.cls-3{fill:#8ebbe8;}.cls-12,.cls-3{opacity:0.33;}.cls-4{fill:#9ed2ef;}.cls-6{fill:#e3f8ff;}.cls-7{fill:#4b514d;}.cls-8{fill:#99a19c;}.cls-9{fill:#777f7a;}.cls-10{fill:#697a93;}.cls-11{fill:#fff;}.cls-12{fill:#aeeeff;}.cls-13{fill:#53739b;}.cls-14{fill:#9dc6ea;}.cls-15{fill:#dae6f5;}.cls-16{fill:#e1faff;}.cls-16,.cls-17,.cls-18,.cls-19{opacity:0.8;}.cls-17{fill:#d8e9f7;}.cls-18{fill:#7ba0b5;}.cls-19{fill:#728fae;}.cls-20{fill:#f5f8fc;}</style><linearGradient id="linear-gradient" x1="150" y1="401.97" x2="150" y2="596.91" gradientTransform="translate(0 -154)" gradientUnits="userSpaceOnUse"><stop offset="0" stop-color="#275572"/><stop offset="0.58" stop-color="#7fc8ef"/></linearGradient></defs><path class="cls-1" d="M300,259.1v49.5A36.4,36.4,0,0,1,263.6,345H36.4A36.55,36.55,0,0,1,0,308.5H0V259H300Z"/><path class="cls-2" d="M204.7,331.6c0,3.6-6.8,5.8-11.1,5.8s-7.7-.9-7.7-5.8,3.4-5.8,7.7-5.8S204.7,328,204.7,331.6Z"/><circle class="cls-2" cx="177.6" cy="326.2" r="5.4"/><path class="cls-2" d="M129.6,312.2c0,2.7-5.9,5.2-8.7,5.2s-7.6-1.2-7.6-5.2,4.7-5.2,7.6-5.2S129.6,309.5,129.6,312.2Z"/><path class="cls-3" d="M107.7,298.3v46.6H36.4A36.4,36.4,0,0,1,0,308.5H0V260.8Z"/><path class="cls-2" d="M76.5,332.3c-.6-2.2,3.6-5.5,5.9-6.1s6.4-.7,7.2,2.5-2.7,5.2-5,5.8S77.1,334.5,76.5,332.3Z"/><path class="cls-2" d="M137.2,305.4c.8,1.6.7,4.6-1,5.4s-4.1-.8-4.9-2.4a3.31,3.31,0,0,1,5.9-3Z"/><path class="cls-4" d="M300,81.3V261.9a36.4,36.4,0,0,1-36.4,36.4H36.4A36.4,36.4,0,0,1,0,261.9V81.3A36.4,36.4,0,0,1,36.4,44.9H263.6A36.4,36.4,0,0,1,300,81.3Z"/><path class="cls-5" d="M15,149.4c3,2.1,8.6-2.4,11-5.9s3.6-6.9-.4-9.6-6.7-.4-9.1,3.1S12,147.4,15,149.4Z"/><path class="cls-5" d="M241.4,88.1c1,4.4,9.8,5.2,14.9,4s9-3.1,7.8-9-5.7-6-10.8-4.9S240.4,83.7,241.4,88.1Z"/><path class="cls-5" d="M43.4,78.6c1,4.4,9.8,5.2,14.9,4s9-3.1,7.8-9-5.7-6-10.8-4.9S42.5,74.3,43.4,78.6Z"/><path class="cls-5" d="M216.5,275.9c.9,4.4,9.8,5.2,14.9,4s9.1-3.1,7.8-9-5.7-6-10.8-4.9S215.5,271.5,216.5,275.9Z"/><circle class="cls-5" cx="23.9" cy="96.1" r="5.4"/><circle class="cls-5" cx="166.4" cy="66" r="3.8"/><circle class="cls-5" cx="219.8" cy="86.9" r="3.8"/><circle class="cls-5" cx="246.8" cy="123.4" r="3.8"/><path class="cls-5" d="M219.8,161.4c0,2.7,5.9,5.2,8.7,5.2s7.6-1.2,7.6-5.2-4.7-5.2-7.6-5.2S219.8,158.7,219.8,161.4Z"/><path class="cls-5" d="M127.3,272.9c0,2.7,5.9,5.2,8.7,5.2s7.6-1.2,7.6-5.2-4.7-5.2-7.6-5.2S127.3,270.2,127.3,272.9Z"/><path class="cls-5" d="M46.7,282.4c0,2.7,5.9,5.2,8.7,5.2s7.6-1.2,7.6-5.2-4.7-5.2-7.6-5.2S46.7,279.7,46.7,282.4Z"/><path class="cls-5" d="M292.8,161.3c.6-2.2-3.6-5.5-5.9-6.1s-6.4-.7-7.2,2.6,2.7,5.2,5,5.8S292.2,163.5,292.8,161.3Z"/><path class="cls-5" d="M187.9,78.1c-2.3-2.2-9,.8-11.4,3.1s-5.1,7.3-1.7,10.5,8.1.2,10.4-2.2S190.2,80.2,187.9,78.1Z"/><path class="cls-5" d="M109.5,99.3c-2.3-2.2-9,.8-11.3,3.2s-5.1,7.3-1.7,10.5,8.1.2,10.4-2.2S111.8,101.5,109.5,99.3Z"/><path class="cls-5" d="M215.7,151.5c-.8,1.6-.7,4.6,1,5.4s4.1-.8,4.9-2.4a3.33,3.33,0,1,0-5.9-3.1v.1Z"/><path class="cls-5" d="M266.7,254.6c0,2.7,5.9,5.2,8.7,5.2s7.5-1.2,7.5-5.2-4.7-5.2-7.5-5.2S266.7,251.9,266.7,254.6Z"/><path class="cls-5" d="M262.3,244.7c-.8,1.6-.7,4.6,1,5.4s4.1-.8,4.9-2.4a3.32,3.32,0,0,0-1.5-4.4,3.23,3.23,0,0,0-4.4,1.4Z"/><path class="cls-5" d="M162.9,282.6c-.8,1.6-.7,4.6,1,5.4s4.1-.8,4.9-2.4a3.31,3.31,0,0,0-5.9-3Z"/><path class="cls-5" d="M22,199.3c-2.7-1.9-7.8,2.2-10,5.3s-3.2,6.2.4,8.7,6.1.4,8.3-2.8S24.7,201.2,22,199.3Z"/><path class="cls-6" d="M253.4,59.5c-.9-4-8.9-4.7-13.5-3.7s-8.2,2.8-7,8.1,5.1,5.5,9.8,4.5S254.3,63.5,253.4,59.5Z"/><path class="cls-6" d="M49.4,149c-.9-4-8.8-4.7-13.5-3.6s-8.2,2.8-7,8.1,5.1,5.5,9.8,4.4S50.3,152.9,49.4,149Z"/><path class="cls-6" d="M20.5,228.5c2.4,3.3,10,.6,13.8-2.2s6.3-5.9,3.1-10.3-6.9-2.9-10.8-.1S18.1,225.3,20.5,228.5Z"/><path class="cls-6" d="M282.6,277.9c-.9-4-8.9-4.7-13.5-3.6s-8.2,2.8-7,8.1,5.1,5.5,9.8,4.5S283.5,281.9,282.6,277.9Z"/><circle class="cls-6" cx="13.9" cy="247.6" r="4.9"/><circle class="cls-6" cx="210" cy="287.7" r="3.4"/><circle class="cls-6" cx="161.7" cy="268.7" r="3.4"/><circle class="cls-6" cx="195.3" cy="137.5" r="3.4"/><path class="cls-6" d="M213.2,112.9c0-3.1-6.6-5.9-9.9-5.9s-8.5,1.3-8.5,5.9,5.3,5.9,8.5,5.9S213.2,116,213.2,112.9Z"/><path class="cls-6" d="M288.8,119.5c0-2.4-5.3-4.7-7.9-4.7s-6.8,1.1-6.8,4.7,4.2,4.7,6.8,4.7S288.8,122,288.8,119.5Z"/><path class="cls-6" d="M269.6,168.9c0-2.5-5.3-4.7-7.9-4.7s-6.8,1.1-6.8,4.7,4.2,4.7,6.8,4.7S269.6,171.4,269.6,168.9Z"/><path class="cls-6" d="M119.5,66.9c0-2.5-5.3-4.7-7.9-4.7s-6.8,1.1-6.8,4.7,4.2,4.7,6.8,4.7S119.5,69.4,119.5,66.9Z"/><path class="cls-6" d="M39.4,72.9c0-2.4-5.3-4.7-7.9-4.7s-6.8,1.1-6.8,4.7,4.2,4.7,6.8,4.7S39.4,75.4,39.4,72.9Z"/><path class="cls-6" d="M166.2,113.7c-.5,2,3.3,5,5.4,5.5s5.8.6,6.5-2.3-2.4-4.7-4.5-5.3S166.7,111.7,166.2,113.7Z"/><path class="cls-6" d="M249,156.2c2.1,2,8.2-.7,10.3-2.9s4.6-6.6,1.5-9.5-7.3-.2-9.4,2S246.9,154.2,249,156.2Z"/><path class="cls-6" d="M181.8,284.6c2.1,2,8.2-.7,10.3-2.9s4.6-6.6,1.5-9.5-7.3-.2-9.4,2S179.8,282.6,181.8,284.6Z"/><path class="cls-6" d="M217.8,124.1c.9-1.8.7-5.2-1.1-6.1s-4.6.9-5.5,2.7a3.76,3.76,0,1,0,6.6,3.6Z"/><path class="cls-6" d="M256.2,104.8c.7-1.5.6-4.1-.9-4.9s-3.7.7-4.4,2.2a3,3,0,1,0,5.1,3.1A.52.52,0,0,0,256.2,104.8Z"/><path class="cls-7" d="M281.7,228.7s-6.4,15.2-10.1,16-.7-14.1-.7-14.1-8.4,18.2-11.3,17.3-3.3-18.5-3.3-18.5-6.2,14.6-10,14.1-3.9-15.4-3.9-15.4-5.3,12.4-8.6,12-1.9-13.1-1.9-13.1-5.4,11.8-7.8,11.6-3.7-16-3.7-16-.3,11.9-3.5,11.6-4.8-12.5-4.8-12.5.2,10.8-4.2,10.6-3.8-11.1-3.8-11.1-2.2,11.7-5.7,11.2-2.4-14-2.4-14-4.9,12.3-8.8,11.7-3-13.6-3-13.6-2.6,12.3-6.2,12.7-3.9-13.5-3.9-13.5-1.1,11.4-5.3,11.3-4.8-12.1-4.8-12.1"/><path class="cls-7" d="M259.6,261.2s.5-6.9-1.8-7.4-7.9,4.6-7.9,4.6,2.1-6.7-1.1-7.7-9,4.8-9,4.8,4.7-10.6,1-11.7-14.4,8-14.4,8,3.6-9.4.9-10.9-15.1,7.1-15.1,7.1,3.8-10.5.1-10.4-9.2,8-9.2,8,.6-9.4-2.7-10.5-8.1,9-8.1,9,1.7-10.6-1-11.3-7.1,8.7-7.1,8.7.9-8.3-2.4-8.8-9.3,5.4-9.3,5.4,3-7.8-.9-9.2-9.7,5.7-9.7,5.7,2.9-6.5-.4-8.6-8.4,6.5-8.4,6.5"/><path class="cls-8" d="M279.5,231.1a12.66,12.66,0,0,0,13.4-11.9v-.1c.6-10.7-1.3-25.6-14.7-32.9-22.2-12-38.7-5.9-56.3-17.2-3.4-2.2-20.7-13.7-39.5-28.1-10.6-8.1-18.9-19.3-32.4-25-13.7-5.7-38.2-8.9-49.2-7.2-87.2,13.8-79.3,107.2-24,125,22.9,7.4,59.6,15.7,99.3,24.5,47.3,10.4,65.8,17,76.4,16.1,4.2-.4,8.2-.4,10.5-4a6.94,6.94,0,0,0-2.2-9.5,6.39,6.39,0,0,0-1.9-.8c-27.3-7.1-115.4-30.3-114.4-34,2.7-9.9,20.2-5.8,31.4-4.7C207.7,224.4,256.6,229.7,279.5,231.1Z"/><path class="cls-9" d="M176,221.2c-4.4-.4-9.7-1.3-14.8-1.7,3.6-8.6,20.3-4.8,31-3.7,29.6,3,74.2,7.9,98.6,9.6a12.62,12.62,0,0,1-11.4,5.7C256.6,229.7,207.7,224.4,176,221.2Z"/><path class="cls-9" d="M92,110.5c-59.7,26.1-48.1,102,1.2,117.9,22.9,7.4,59.5,15.7,99.3,24.5,40.5,8.9,59.9,15,71.2,16a6.11,6.11,0,0,1-.7,1.4c-2.3,3.6-6.3,3.6-10.5,4-10.5,1-29.1-5.6-76.3-16.1-39.8-8.8-76.4-17.1-99.3-24.5C23.5,216.5,14.3,129.1,92,110.5Z"/><path class="cls-8" d="M164,103.8c14.6-9.6-3.5-28.6-13.7-37.7a10.39,10.39,0,0,0-12.8-.8c-8.6,5.8-22,16.4-19.3,24.1C124.8,107.6,155.6,109.3,164,103.8Z"/><path class="cls-8" d="M55.1,71.6a10.41,10.41,0,0,1,12.7-7.5H68c12,3.3,30.7,10.2,32,20.8,2,15.7-33.4,28.8-44,21.1C48.9,100.9,52.1,83,55.1,71.6Z"/><path class="cls-9" d="M164,96.4a11.35,11.35,0,0,0,4.9-5.9c1.4,5.1.4,9.8-4.9,13.3-8.4,5.5-39.2,3.8-45.8-14.5a8.12,8.12,0,0,1,.6-6.1C126.4,100.3,155.8,101.7,164,96.4Z"/><path class="cls-8" d="M47.7,121.7c3.1-15.2-29.2-10.6-29.2-10.6s-5.9,22,1.2,25.3C31.3,141.7,46.4,128.1,47.7,121.7Z"/><path class="cls-9" d="M41,118.4a7,7,0,0,0-1.9-7c5.6,1.3,9.8,4.2,8.6,10.2-1.3,6.5-16.4,20.1-28,14.7a4.74,4.74,0,0,1-2.1-2.1C28.2,135.1,39.8,124.1,41,118.4Z"/><path class="cls-8" d="M24.1,160.3c-3.5-4.5-8.4-2-12.6,1.8a12.65,12.65,0,0,0-.8,17.9h0a11.41,11.41,0,0,0,1.1,1.1c2.4,2,4.8,3.3,6.8,2.4C27.4,179.6,27.1,164.2,24.1,160.3Z"/><path class="cls-9" d="M18.9,162.5a5.63,5.63,0,0,0-4.9-2.4c3.5-2.5,7.3-3.5,10.1.2,3,3.9,3.3,19.3-5.5,23.2a4.16,4.16,0,0,1-2.2.2C22.1,178,21.5,165.9,18.9,162.5Z"/><path class="cls-9" d="M56,98.6c9.5,6.8,38.5-2.8,43.3-16.1a21.72,21.72,0,0,1,.7,2.4c2,15.7-33.4,28.7-44,21.1-3.9-2.8-4.7-9.4-4.1-16.7C52.3,93.4,53.5,96.8,56,98.6Z"/><path class="cls-8" d="M39.3,216.6c-5.2-.9-10.2,10.6-10.2,14.3,0,18.1,22.3,24.5,25.9,23.2s12.7-10.2,12.7-15.2-8.4-4.7-15.4-10.1C46,224,44.6,217.6,39.3,216.6Z"/><path class="cls-8" d="M24,240.8c-4.7-.8-9.2,9.5-9.2,12.9,0,16.3,20.1,22.1,23.4,20.9s11.4-9.3,11.4-13.7-7.6-4.2-13.9-9.1C30,247.4,28.7,241.6,24,240.8Z"/><path class="cls-9" d="M32.5,221.7v.5c0,20.3,25,27.5,29.1,26a5.56,5.56,0,0,0,1.7-.9c-2.8,3.3-6.3,6.2-8.2,6.9-3.6,1.3-25.9-5.1-25.9-23.2C29.1,229,30.5,224.9,32.5,221.7Z"/><path class="cls-9" d="M16.4,248c.3,18,22.6,24.4,26.2,23.1a4.88,4.88,0,0,0,.7-.3,17.41,17.41,0,0,1-5.2,3.8c-3.3,1.2-23.4-4.6-23.4-20.9A18.77,18.77,0,0,1,16.4,248Z"/><path class="cls-8" d="M70.5,258.4a7.37,7.37,0,0,0,7.6,7.1c4.2,0,7.9-3.4,7.9-7.1s-3.7-7-7.9-7S70.5,254.5,70.5,258.4Z"/><path class="cls-8" d="M69.6,272.3a5.13,5.13,0,0,0,5.3,4.9H75c3,0,4.3-2.4,4.3-4.9s-1.3-4.9-4.3-4.9a5.14,5.14,0,0,0-5.4,4.9Z"/><path class="cls-8" d="M61.8,262a5.08,5.08,0,0,0,.6,7.2c2.2,2,4.8,1.2,6.5-.7s2.3-4.5.2-6.5A5.19,5.19,0,0,0,61.8,262Z"/><path class="cls-8" d="M89.9,258.5c0,5.5,4.4,5.5,8.6,5.5s24.2.4,24.2-5.5S102.8,253,98.5,253,89.9,253,89.9,258.5Z"/><path class="cls-8" d="M83.3,270.4c-1.2,5.4,3.1,6.4,7.2,7.3s23.4,5.8,24.8.1S97.1,267.9,93,267,84.6,265.1,83.3,270.4Z"/><path class="cls-9" d="M263.9,214.6c3.9,2.9,9,2.6,11.5-.6s1.2-8.2-2.8-11.1-11.2-5.6-14.2-1.4S260,211.7,263.9,214.6Z"/><path class="cls-9" d="M94.9,176.7c0,22.6,15.4,29.4,31.6,29.4s44.2-2.5,47.5-20.5-23.2-39.8-47.4-38.3C110.3,148.3,94.9,154.1,94.9,176.7Z"/><path class="cls-7" d="M272.6,208.1c-3.9-2.9-11.2-5.6-14.2-1.4-.1.2-.3.4-.4.6a5.94,5.94,0,0,1,.4-5.9c3.1-4.1,10.3-1.5,14.2,1.4,3.4,2.5,4.8,6.7,3.5,9.8A9.72,9.72,0,0,0,272.6,208.1Z"/><path class="cls-7" d="M173.5,187.6c-4.3-15.7-26.5-31-46.9-29.8-14.9.9-29.1,5.9-31.3,24.1a45.78,45.78,0,0,1-.3-5.3c0-22.6,15.4-28.4,31.6-29.4,24.2-1.5,50.6,20.3,47.5,38.3Q173.8,186.7,173.5,187.6Z"/><path class="cls-10" d="M281.6,54.7c-6.6,6.4-50.4,79.9-73.3,123.7h0c-6.8,13-11.7,23.3-13.3,28.6l-.3.3-19.4,91.1H162.7l24.5-85.5c-12.3,9.1-34.6,25.2-56.4,41.4h0c-23.7,17.6-46.9,35.3-56.1,44h-13c14.6-10.8,50.3-37.1,80.1-59h0c20.5-15.2,38.2-28.3,44.1-33,3.7-2.9,9.8-11.9,17-24.2,10.2-17.4,22.6-41.4,34-64.2a116.83,116.83,0,0,0-8.2-20.8c-7.2-14.4-19.8-33.4-40.6-46.7l-.7-.5h18.4S220.6,75,230.6,93.7c4.9,9.1,8.6,16.8,8.9,19.2,16.5-33.2,30.2-62.5,30.2-62.5A34.79,34.79,0,0,1,281.6,54.7Z"/><path class="cls-10" d="M153.2,49.9h-27C109.7,73.8,80.4,116.4,74.4,127a85.21,85.21,0,0,1-5.3,8H69c-33.1,15.5-54.9,23.4-69,27.4v7.5c22.8-10.1,55.5-23.9,63.3-27.2-16.2,20.6-44.4,52-63.3,70.2v14.7s60.6-70.3,79.3-95.4S153.2,49.9,153.2,49.9Z"/><path class="cls-11" d="M281.6,49.7a36.44,36.44,0,0,0-12.1-4.3s-13.7,29.3-30.2,62.5c-.9-7.4-33.7-63-33.7-63H187.2l.7.5c38,24.4,48.8,67.5,48.8,67.5-19.4,38.9-42,81.4-51,88.4-17.2,13.3-131,97-131,97H70.3c1.3-6.9,87.4-68.8,116.8-90.5l-26,90.5h13l20.4-96,.3-.3C202,179,273,58,281.6,49.7Z"/><path class="cls-11" d="M153.2,44.9h-27C109.7,68.8,80.4,111.4,74.4,122a85.21,85.21,0,0,1-5.3,8H69c-33.1,15.5-54.9,23.4-69,27.4v7.5c22.8-10.1,55.5-23.9,63.3-27.2-16.2,20.6-44.4,52-63.3,70.2v14.7s60.6-70.3,79.3-95.4S153.2,44.9,153.2,44.9Z"/><path class="cls-3" d="M248.3,44.9a5,5,0,0,0-.2,1.2c-.2.7-.3,1.4-.5,2a162.5,162.5,0,0,1-6.5,21.7c-.3.8-.6,1.6-.9,2.3l-1.8,4.5c-.7,1.8-1.5,3.5-2.2,5.2-1.2,2.8-2.6,5.6-3.9,8.3l-.9,1.8c-.3.6-.6,1.1-.9,1.7s-.6,1.1-.9,1.7-.6,1.1-.9,1.7h0c-2.6,4.8-5.4,9.6-8.5,14.3s-6.3,9.4-9.7,14c-.6.8-1.2,1.7-1.9,2.5-.1.1-.2.2-.2.3-.7.9-1.4,1.8-2.1,2.8s-1.5,1.8-2.2,2.7a27.46,27.46,0,0,1-2.2,2.6l-4.8,5.7c-.7.8-1.5,1.6-2.2,2.5l-3.1,3.4c-.6.6-1.2,1.3-1.8,1.9a13.65,13.65,0,0,1-1.7,1.7,18.48,18.48,0,0,1-1.4,1.4c-2.9,3-6,5.9-9.1,8.8-.5.5-1,.9-1.5,1.4-.7.7-1.5,1.4-2.2,2-.9.8-1.7,1.6-2.6,2.3-1,.9-2.1,1.8-3.1,2.7s-1.8,1.5-2.7,2.3c-1.1.9-2.1,1.8-3.2,2.6l-2.7,2.1c-.6.5-1.3,1-1.9,1.5s-1.2.9-1.8,1.4l-2.4,1.8-6.6,4.8c-.7.5-1.5,1-2.2,1.5a281.66,281.66,0,0,1-43,24.5h0c-2.3,1-4.6,2.1-6.9,3h0c-2.3,1-4.6,1.9-6.9,2.8h0c-1.5.6-3.1,1.2-4.6,1.7h0c-1.5.6-3.1,1.1-4.6,1.6-.8.3-1.5.5-2.3.8s-1.5.5-2.3.8-1.5.5-2.3.7c-2.1.7-4.2,1.3-6.2,1.9-4,1.1-8.1,2.2-12.1,3.1-1.5.4-3,.7-4.5,1-2.3.5-4.5.9-6.8,1.3-1.5.3-3,.5-4.5.7h0A193,193,0,0,1,7,234.1H6.9c-1.5,0-3.1-.1-4.6-.1-.8,0-1.5-.1-2.3-.1V81.3a39.28,39.28,0,0,1,1.3-9.8A36.33,36.33,0,0,1,36.4,44.9Z"/><path class="cls-3" d="M300,139.8V261.9a36.4,36.4,0,0,1-36.4,36.4H107.7a218.08,218.08,0,0,1,23.1-44.1h0c3.4-5.1,7-10.1,10.9-15h0a274.36,274.36,0,0,1,52.7-51.1c2.8-2.1,5.6-4.1,8.4-6.1,1.8-1.3,3.6-2.5,5.5-3.7h0C238.1,158.7,269.7,145.8,300,139.8Z"/><path class="cls-12" d="M300,81.3v58.5c-30.3,6-61.9,18.9-91.7,38.6-1.8,1.2-3.7,2.4-5.5,3.7-2.8,1.9-5.7,4-8.4,6a277.26,277.26,0,0,0-52.7,51.1c-3.9,4.9-7.5,9.9-10.9,15a222.46,222.46,0,0,0-23.1,44H36.4A36.26,36.26,0,0,1,0,261.9V234c.8,0,1.5.1,2.3.1,1.5.1,3.1.1,4.6.1H7A193.76,193.76,0,0,0,37.9,232h0c1.5-.2,3-.5,4.5-.7,2.2-.4,4.5-.8,6.8-1.3,1.5-.3,3-.6,4.5-1,4-.9,8-1.9,12.1-3.1,2.1-.6,4.2-1.2,6.2-1.9.8-.2,1.5-.5,2.3-.7a20.94,20.94,0,0,0,2.3-.8c.8-.3,1.5-.5,2.3-.8,1.5-.5,3.1-1.1,4.6-1.6h0c1.5-.6,3.1-1.1,4.6-1.7h0c2.3-.9,4.6-1.8,6.9-2.8h0l6.9-3h0a278.07,278.07,0,0,0,43-24.5c.7-.5,1.5-1,2.2-1.5q3.3-2.25,6.6-4.8l2.4-1.8c.6-.5,1.2-.9,1.8-1.4s1.3-1,1.9-1.5l2.7-2.1c1.1-.9,2.2-1.7,3.2-2.6s1.8-1.5,2.7-2.3c1.1-.9,2.1-1.8,3.1-2.7l2.6-2.3c.8-.7,1.5-1.4,2.2-2a19.2,19.2,0,0,0,1.5-1.4c3.1-2.9,6.1-5.8,9.1-8.8l1.4-1.4c.6-.6,1.1-1.2,1.7-1.7s1.2-1.3,1.8-1.9c1.1-1.1,2.1-2.3,3.1-3.4.7-.8,1.5-1.6,2.2-2.5,1.6-1.9,3.3-3.8,4.8-5.7.7-.9,1.5-1.8,2.2-2.6s1.5-1.8,2.2-2.7,1.4-1.8,2.1-2.8c.1-.1.1-.2.2-.3.6-.8,1.2-1.7,1.9-2.5,3.4-4.6,6.7-9.3,9.7-14s5.8-9.5,8.5-14.3c.3-.6.6-1.1.9-1.7s.6-1.1.9-1.7.6-1.1.9-1.7l.9-1.8c1.4-2.8,2.7-5.5,4-8.3.8-1.7,1.5-3.5,2.2-5.2l1.8-4.5c.3-.8.6-1.6.9-2.3a186.18,186.18,0,0,0,6.5-21.7c.2-.7.3-1.3.5-2l.3-1.2h15.3a36.45,36.45,0,0,1,35.5,28.3A50.67,50.67,0,0,1,300,81.3Z"/><path class="cls-13" d="M299.1,73.3a25.22,25.22,0,0,1-16.2,18.3c-13.1,4.6-25.9-3.1-38.1-7.1-2.8-.9-5.7-1.8-8.5-2.6h0c-2.4-.7-4.8-1.3-7.2-1.9-2.5,3.5-5.1,7-9.2,8.6-11.2,4.5-19.9-5-25.1-13.8l-.3-.6a1.7,1.7,0,0,1-.7-.1c-5.7-.4-11.4-.6-17.1-.7-6.3,0-12.6.2-18.9.7-5.9.4-10.4,1-14.4,1.6-12.6,2-25.3,5.1-38.2,5.1-2.9,2.8-5.5,5.8-9.4,7.5C85.1,93.3,74,89.4,64,84.5c-1.2,1.3-2.3,2.6-3.5,3.8-3.2,10.8-11.6,19.9-23.6,22.6C15.7,115.7-5.3,96.7,1.2,75.6c0-1.3,0-2.7.1-4A36.33,36.33,0,0,1,36.4,45H248.3a5,5,0,0,0-.2,1.2l.3-1.2h15.3A36.05,36.05,0,0,1,299.1,73.3Z"/><path class="cls-14" d="M282.9,86.5c-13.1,4.6-25.9-3.2-38.1-7.1-5.2-1.7-10.5-3.2-15.8-4.5-2.5,3.5-5.1,7-9.2,8.6-11.2,4.5-19.9-5-25.1-13.8l-.3-.6a1.7,1.7,0,0,1-.7-.1c-5.7-.4-11.4-.6-17.1-.7-6.3,0-12.6.2-18.9.7-5.9.4-10.4,1-14.4,1.6-12.6,2-25.3,5.1-38.2,5.1-2.8,2.8-5.5,5.8-9.4,7.5-10.7,5-21.8,1.1-31.8-3.8-1.2,1.3-2.3,2.6-3.5,3.8C57.2,94,48.8,103.1,36.8,105.8,17,110.4-2.6,94,.3,74.6v-.1c.2-1.3,3.2-22,8-29.3,8.7-13.4,22.6-19.7,38-21.3,14.1-1.4,28.1,3,41.8,5.7a213.11,213.11,0,0,0,39,3.9c25.7.4,47-3,71.8-9.8,24.2-6.6,49-11.6,72.8-.9a53.43,53.43,0,0,1,19.2,14.4,39,39,0,0,1,5.7,8.8,36.5,36.5,0,0,1,3.1,10.7C301.3,69.2,295.8,82,282.9,86.5Z"/><path class="cls-15" d="M299.8,56.7c-1.2,9.6-6.7,18.2-16.9,21.8-13.1,4.6-25.9-3.2-38.1-7.1-5.2-1.7-10.5-3.2-15.8-4.5-2.5,3.5-5.1,7-9.2,8.6-11.2,4.5-19.9-5-25.1-13.8l-.3-.6a1.7,1.7,0,0,1-.7-.1c-5.7-.4-11.4-.6-17.1-.7-6.3,0-12.6.2-18.9.7-5.9.4-10.4,1-14.4,1.6-12.6,2-25.3,5.1-38.2,5.1-2.8,2.8-5.5,5.8-9.4,7.5-10.7,5-21.8,1.1-31.8-3.8-1.2,1.3-2.3,2.6-3.5,3.8C57.2,86,48.8,95.1,36.8,97.8,19.8,101.5,2.9,90,.3,74.4v-.1c.2-1.3,3.2-22,8-29.3,8.6-13.4,22.6-19.7,38-21.2,14.1-1.4,28.1,3,41.8,5.7a213.11,213.11,0,0,0,39,3.9c25.7.4,47-3,71.8-9.8,24.2-6.6,49-11.6,72.8-.9a53.43,53.43,0,0,1,19.2,14.4,39,39,0,0,1,5.7,8.8A35.25,35.25,0,0,1,299.8,56.7Z"/><rect class="cls-16" x="54.9" y="298.3" width="15.6" height="46.6"/><path class="cls-17" d="M174.3,298.3v46.6h-13V298.3Z"/><rect class="cls-18" x="70.5" y="298.3" width="4.2" height="46.6"/><rect class="cls-19" x="174.3" y="298.3" width="1.1" height="46.6"/><ellipse class="cls-20" cx="40.52" cy="52.18" rx="24.5" ry="18.5" transform="translate(-17.67 20.9) rotate(-23.91)"/><ellipse class="cls-20" cx="232.59" cy="40.11" rx="22.7" ry="17.1" transform="translate(3.7 97.71) rotate(-23.91)"/><ellipse class="cls-20" cx="270" cy="44.6" rx="12.1" ry="9.2" transform="translate(5.09 113.26) rotate(-23.91)"/><ellipse class="cls-20" cx="76.21" cy="53.9" rx="9.5" ry="7.2" transform="translate(-15.3 35.51) rotate(-23.91)"/></svg>