<svg id="Layer_1" data-name="Layer 1" xmlns="http://www.w3.org/2000/svg" xmlns:xlink="http://www.w3.org/1999/xlink" viewBox="0 0 300 345"><defs><style>.cls-1{fill:url(#linear-gradient);}.cls-2{fill:#995b3c;}.cls-3,.cls-4{fill-opacity:0.5;}.cls-3{fill:url(#radial-gradient);}.cls-4{fill:url(#radial-gradient-2);}.cls-5{fill:#c62c6b;}.cls-6{fill:#dd7399;}.cls-7{fill:#fff;}.cls-8{fill:#04859b;}.cls-9{fill:#0fafd2;}.cls-10{fill:#6eb8cc;}.cls-11{fill:#ecf7fe;}.cls-12{fill:#009444;}.cls-13{fill:#4ab96d;}</style><linearGradient id="linear-gradient" x1="150" y1="356.11" x2="150" y2="161.16" gradientUnits="userSpaceOnUse"><stop offset="0" stop-color="#7d4f33"/><stop offset="0.69" stop-color="#573321"/></linearGradient><radialGradient id="radial-gradient" cx="257.16" cy="222.49" r="41.85" gradientUnits="userSpaceOnUse"><stop offset="0.21" stop-color="#ec008c"/><stop offset="0.3" stop-color="#ea028a" stop-opacity="0.98"/><stop offset="0.4" stop-color="#e50786" stop-opacity="0.92"/><stop offset="0.51" stop-color="#dd107e" stop-opacity="0.82"/><stop offset="0.62" stop-color="#d21c73" stop-opacity="0.69"/><stop offset="0.74" stop-color="#c32c65" stop-opacity="0.51"/><stop offset="0.86" stop-color="#b24054" stop-opacity="0.3"/><stop offset="0.98" stop-color="#9d5740" stop-opacity="0.05"/><stop offset="1" stop-color="#995b3c" stop-opacity="0"/></radialGradient><radialGradient id="radial-gradient-2" cx="42.84" cy="222.49" r="41.85" xlink:href="#radial-gradient"/></defs><title>blook_gingerbread-man</title><path class="cls-1" d="M263.62,345H36.38A36.38,36.38,0,0,1,0,308.62V259.14H300v49.48A36.38,36.38,0,0,1,263.62,345Z"/><rect class="cls-2" y="45" width="300" height="253.39" rx="36.38"/><circle class="cls-3" cx="257.16" cy="222.49" r="41.85"/><circle class="cls-4" cx="42.84" cy="222.49" r="41.85"/><path class="cls-5" d="M150,282.24c-51.55,0-71.75-17.11-76.72-22.35a26,26,0,0,1,34.55-38.63,27.23,27.23,0,0,0,6.14,3.66c6,2.43,17.19,5.32,36,5.32s30-2.89,36-5.32a27.23,27.23,0,0,0,6.14-3.66,26,26,0,0,1,34.55,38.63C221.75,265.13,201.55,282.24,150,282.24ZM92.18,228A14,14,0,0,0,82,251.64c1.8,1.9,19,18.6,68,18.6s66.2-16.7,68-18.6a14,14,0,0,0-18.59-20.81,38.78,38.78,0,0,1-8.9,5.22c-7,2.83-19.76,6.19-40.51,6.19s-33.49-3.36-40.51-6.19a38.78,38.78,0,0,1-8.9-5.22A13.9,13.9,0,0,0,92.18,228Z"/><path class="cls-6" d="M150,273.24c-51.55,0-71.75-17.11-76.72-22.35a26,26,0,0,1,34.55-38.63,27.23,27.23,0,0,0,6.14,3.66c6,2.43,17.19,5.32,36,5.32s30-2.89,36-5.32a27.23,27.23,0,0,0,6.14-3.66,26,26,0,0,1,34.55,38.63C221.75,256.13,201.55,273.24,150,273.24ZM92.18,219A14,14,0,0,0,82,242.64c1.8,1.9,19,18.6,68,18.6s66.2-16.7,68-18.6a14,14,0,0,0-18.59-20.81,38.78,38.78,0,0,1-8.9,5.22c-7,2.83-19.76,6.19-40.51,6.19s-33.49-3.36-40.51-6.19a38.78,38.78,0,0,1-8.9-5.22A13.9,13.9,0,0,0,92.18,219Z"/><ellipse class="cls-7" cx="214.55" cy="213.83" rx="3.25" ry="5.68" transform="translate(-51.3 359.02) rotate(-73.54)"/><circle class="cls-7" cx="224.99" cy="222.16" r="3.16"/><path class="cls-8" d="M223.13,189.73V181h64.62v8.72a32.31,32.31,0,0,1-64.62,0Z"/><circle class="cls-9" cx="255.44" cy="178.82" r="32.31"/><circle class="cls-7" cx="277.25" cy="184.99" r="6.17"/><path class="cls-7" d="M273.83,158.51c4.13,4.13,5.15,9.8,1,13.94a5.87,5.87,0,0,1-8.62-.46c-4.91-5.82-9.6-10.26-6.39-14.49C263.46,152.75,269.69,154.37,273.83,158.51Z"/><path class="cls-10" d="M273.55,128.62a6.5,6.5,0,0,1-4.6-1.91c-6.16-6.16-12.35-8.3-18.92-6.54a21.61,21.61,0,0,0-8.2,4.37,6.52,6.52,0,0,1-9.2-.19c-2.48-2.59-3.31-10.89-.63-13.37,7.86-7.28,27.78-16.15,47,2.36,2.63,2.54,1.71,10.84-.82,13.38A6.53,6.53,0,0,1,273.55,128.62Z"/><path class="cls-11" d="M273.55,122.62a6.5,6.5,0,0,1-4.6-1.91c-6.16-6.16-12.35-8.3-18.92-6.54a21.61,21.61,0,0,0-8.2,4.37,6.5,6.5,0,1,1-9-9.38c7.58-7.28,26.81-16.15,45.33,2.36a6.5,6.5,0,0,1-4.6,11.1Z"/><path class="cls-8" d="M12.25,189.73V181H76.87v8.72a32.31,32.31,0,0,1-64.62,0Z"/><circle class="cls-9" cx="44.56" cy="178.82" r="32.31"/><circle class="cls-7" cx="66.38" cy="184.99" r="6.17"/><path class="cls-7" d="M63,158.51c4.13,4.13,5.15,9.8,1,13.94a5.87,5.87,0,0,1-8.62-.46c-4.91-5.82-9.6-10.26-6.39-14.49C52.59,152.75,58.82,154.37,63,158.51Z"/><path class="cls-10" d="M62.68,128.62a6.48,6.48,0,0,1-4.6-1.91c-6.16-6.16-12.36-8.3-18.92-6.54A21.7,21.7,0,0,0,31,124.54a6.5,6.5,0,0,1-9.19-.19c-2.49-2.59-3.32-10.89-.63-13.37,7.85-7.28,27.78-16.15,47,2.36,2.64,2.54,1.72,10.84-.82,13.38A6.51,6.51,0,0,1,62.68,128.62Z"/><path class="cls-11" d="M62.68,122.62a6.48,6.48,0,0,1-4.6-1.91c-6.16-6.16-12.36-8.3-18.92-6.54A21.7,21.7,0,0,0,31,118.54a6.5,6.5,0,0,1-9-9.38c7.58-7.28,26.81-16.15,45.32,2.36a6.5,6.5,0,0,1-4.59,11.1Z"/><path class="cls-10" d="M171.31,172.5a21.92,21.92,0,0,1-5-.6,18.86,18.86,0,0,1-13-9.9,21.73,21.73,0,0,1-1.32-3.29c-4.76,5.42-10.48,10.15-16.92,12.22a22.78,22.78,0,0,1-19.25-2.43c-9.32-5.66-11.83-13.23-12.3-18.58-.64-7.37,2.14-15.11,6.2-22.21a20.25,20.25,0,0,1-4.19,0,17.65,17.65,0,0,1-12.94-7.49c-3.88-5.4-5-11.38-3.28-17.29C94,87,118.78,76.7,121.6,75.58c3.33-1.32,6.77-8.38,8.44-5.2,4.3,8.17-.93,13.17-7.36,15.08-4.18,1.23-18.74,13.65-20.93,21.16-.4,1.37-.6,3.29,1.37,6a4.65,4.65,0,0,0,3.62,2.14c6.69.63,17.83-7.2,23.59-12.21.82-.76,1.43-1.3,1.76-1.59,2.66-2.33,7.68-10.21,9.81-7.38C148,101.76,145,108.1,137.05,115c-4.11,3.57-21.55,23.14-20.61,33.84.2,2.21,1,5.52,6.1,8.59a9.73,9.73,0,0,0,8.52,1.16c11-3.51,21.34-22.75,24.4-29.87,1.42-3.29,7.82-8.07,7.82-8.07s.31,9.55-1.09,12.85c-2.44,5.75-.06,17.26,2.69,22.67.56,1.1,1.57,2.45,4.38,3.11s4.06,0,4.92-.76c4.65-4,5.87-18.13,5.22-26.43a6.5,6.5,0,0,1,13-1c.21,2.78,1.77,27.43-9.73,37.3A17,17,0,0,1,171.31,172.5Z"/><path class="cls-11" d="M171.31,163.65a21.92,21.92,0,0,1-5-.6,18.86,18.86,0,0,1-13-9.9,21.73,21.73,0,0,1-1.32-3.29C147.2,155.28,141.48,160,135,162.08a22.78,22.78,0,0,1-19.25-2.43c-9.32-5.66-11.83-13.23-12.3-18.58-.64-7.37,2.14-15.11,6.2-22.2a21,21,0,0,1-4.19,0,17.62,17.62,0,0,1-12.94-7.49c-3.88-5.4-5-11.38-3.28-17.29,4.68-16,29.5-26.25,32.32-27.37a6.5,6.5,0,0,1,4.8,12.08h0c-8.36,3.34-22.46,11.44-24.65,19-.4,1.37-.6,3.29,1.37,6a4.67,4.67,0,0,0,3.62,2.13c6.69.63,17.83-7.2,23.59-12.21.82-.76,1.43-1.3,1.76-1.59a6.5,6.5,0,0,1,8.75,9.62c-.3.27-.94.87-1.86,1.68-9.85,9.13-23.48,25.8-22.54,36.5.2,2.22,1,5.52,6.1,8.59a9.7,9.7,0,0,0,8.52,1.16c11-3.51,21.34-22.75,24.4-29.86A6.5,6.5,0,0,1,167.41,125c-2.44,5.76-5.28,16.92-2.53,22.33.56,1.1,1.57,2.45,4.38,3.11s4.06,0,4.92-.76c4.65-4,5.87-18.13,5.22-26.43a6.5,6.5,0,0,1,13-1c.21,2.78,1.77,27.43-9.73,37.3A17,17,0,0,1,171.31,163.65Z"/><path class="cls-12" d="M193.4,296.92A10.65,10.65,0,0,0,183,293.35c-6.29,1.46-13.56,3.79-19.34,7.44a4.66,4.66,0,0,1-4.35.33,23,23,0,0,0-9.26-1.7,21.32,21.32,0,0,0-8.92,1.8,4.64,4.64,0,0,1-4.48-.31c-5.81-3.71-13.19-6.08-19.55-7.56a10.65,10.65,0,0,0-10.45,3.57c-3.1,3.47-3.1,36.52,0,40a10.67,10.67,0,0,0,10.45,3.57c6.36-1.48,13.74-3.85,19.55-7.57a4.67,4.67,0,0,1,4.48-.31,21.32,21.32,0,0,0,8.92,1.81,22.86,22.86,0,0,0,9.26-1.71,4.64,4.64,0,0,1,4.35.34c5.78,3.64,13,6,19.34,7.44a10.67,10.67,0,0,0,10.45-3.57C196.5,333.44,196.5,300.39,193.4,296.92Z"/><path class="cls-13" d="M193.4,289.75A10.65,10.65,0,0,0,183,286.18c-6.14,1.43-13.23,3.69-18.94,7.19a5.65,5.65,0,0,1-5.07.44,23.49,23.49,0,0,0-8.94-1.56,21.6,21.6,0,0,0-8.61,1.66,5.54,5.54,0,0,1-5.14-.39c-5.76-3.59-13-5.89-19.2-7.34a10.65,10.65,0,0,0-10.45,3.57c-3.1,3.47-3.1,36.52,0,40a10.64,10.64,0,0,0,10.45,3.56c6.23-1.45,13.44-3.75,19.2-7.34a5.54,5.54,0,0,1,5.14-.39,21.43,21.43,0,0,0,8.61,1.67,23.4,23.4,0,0,0,8.93-1.57,5.67,5.67,0,0,1,5.08.44c5.71,3.51,12.8,5.77,18.94,7.19a10.64,10.64,0,0,0,10.45-3.56C196.5,326.27,196.5,293.22,193.4,289.75Z"/><circle class="cls-7" cx="189.05" cy="308" r="3.51"/><path class="cls-7" d="M187.68,293c2.35,2.35,2.93,5.57.59,7.92a3.32,3.32,0,0,1-4.89-.26c-2.79-3.31-5.46-5.83-3.64-8.24C181.79,289.7,185.33,290.62,187.68,293Z"/></svg>