<?xml version="1.0" encoding="UTF-8"?>
<!DOCTYPE svg PUBLIC "-//W3C//DTD SVG 1.1//EN" "http://www.w3.org/Graphics/SVG/1.1/DTD/svg11.dtd">
<svg xmlns="http://www.w3.org/2000/svg" version="1.1" width="300px" height="335px" style="shape-rendering:geometricPrecision; text-rendering:geometricPrecision; image-rendering:optimizeQuality; fill-rule:evenodd; clip-rule:evenodd" xmlns:xlink="http://www.w3.org/1999/xlink">
<g><path style="opacity:0.978" fill="#feb300" d="M 185.5,-0.5 C 194.833,-0.5 204.167,-0.5 213.5,-0.5C 232.875,2.70041 247.208,13.0337 256.5,30.5C 255.446,41.9907 254.779,53.6574 254.5,65.5C 254.167,65.5 253.833,65.5 253.5,65.5C 253.657,64.1266 253.49,62.7932 253,61.5C 233.8,29.8088 205.966,10.4754 169.5,3.5C 174.806,2.03906 180.139,0.705724 185.5,-0.5 Z"/></g>
<g><path style="opacity:0.991" fill="#feb800" d="M 169.5,3.5 C 205.966,10.4754 233.8,29.8088 253,61.5C 253.49,62.7932 253.657,64.1266 253.5,65.5C 253.624,71.0687 252.957,76.402 251.5,81.5C 237.052,46.5569 211.385,24.7236 174.5,16C 162.445,13.8685 150.445,14.0351 138.5,16.5C 137.893,16.3764 137.56,16.0431 137.5,15.5C 147.416,9.74678 158.083,5.74678 169.5,3.5 Z"/></g>
<g><path style="opacity:0.996" fill="#febe00" d="M 251.5,81.5 C 251.5,82.5 251.5,83.5 251.5,84.5C 250.476,88.5914 249.143,92.5914 247.5,96.5C 232.943,52.8128 202.777,28.8128 157,24.5C 113.615,28.5456 83.948,50.8789 68,91.5C 57.4997,121.824 58.3331,151.824 70.5,181.5C 67.8333,179.833 65.1667,178.167 62.5,176.5C 60.4602,174.823 58.4602,173.156 56.5,171.5C 49.8994,146.659 49.8994,121.826 56.5,97C 56.4301,96.2352 56.0967,95.7352 55.5,95.5C 68.14,71.1983 85.14,50.5317 106.5,33.5C 116.042,26.226 126.375,20.226 137.5,15.5C 137.56,16.0431 137.893,16.3764 138.5,16.5C 150.445,14.0351 162.445,13.8685 174.5,16C 211.385,24.7236 237.052,46.5569 251.5,81.5 Z"/></g>
<g><path style="opacity:1" fill="#fec400" d="M 247.5,96.5 C 246.166,101.501 244.833,106.501 243.5,111.5C 242.833,112.167 242.167,112.833 241.5,113.5C 236.109,80.5452 218.442,56.7119 188.5,42C 170.999,34.5669 153.332,33.7336 135.5,39.5C 135.5,38.1667 135.5,36.8333 135.5,35.5C 129.678,35.3064 125.678,37.9731 123.5,43.5C 117.486,45.8355 112.152,49.1688 107.5,53.5C 105.218,52.6103 102.885,52.4436 100.5,53C 90.0523,58.5489 85.0523,67.0489 85.5,78.5C 81.1161,83.5652 78.7828,89.2318 78.5,95.5C 76.1289,97.9966 75.1289,100.997 75.5,104.5C 74.4138,104.62 73.7472,105.287 73.5,106.5C 66.757,134.694 70.4237,161.36 84.5,186.5C 84.5,187.167 84.1667,187.5 83.5,187.5C 78.5285,186.847 74.1951,184.847 70.5,181.5C 58.3331,151.824 57.4997,121.824 68,91.5C 83.948,50.8789 113.615,28.5456 157,24.5C 202.777,28.8128 232.943,52.8128 247.5,96.5 Z"/></g>
<g><path style="opacity:1" fill="#eda816" d="M 256.5,30.5 C 257.401,31.2905 258.068,32.2905 258.5,33.5C 276.042,69.0741 280.708,106.407 272.5,145.5C 273.471,122.983 269.971,100.983 262,79.5C 259.953,74.4663 257.453,69.7997 254.5,65.5C 254.779,53.6574 255.446,41.9907 256.5,30.5 Z"/></g>
<g><path style="opacity:0.997" fill="#e5e465" d="M 106.5,33.5 C 85.14,50.5317 68.14,71.1983 55.5,95.5C 45.1715,113.819 39.5049,133.486 38.5,154.5C 33.7253,156.984 29.5587,160.317 26,164.5C 25.7978,170.078 26.9645,175.411 29.5,180.5C 25.5666,180.83 21.5666,180.997 17.5,181C 10.9117,183.582 9.07838,188.082 12,194.5C 17.8488,203.744 19.0155,202.744 15.5,191.5C 15.8757,189.617 16.8757,188.117 18.5,187C 24.32,186.952 29.9867,186.119 35.5,184.5C 33.3019,179.239 31.3019,173.905 29.5,168.5C 30.5633,164.784 32.8966,162.117 36.5,160.5C 37.1698,162.291 37.8365,163.958 38.5,165.5C 39.222,175.444 41.222,185.11 44.5,194.5C 40.1606,193.846 36.3273,194.846 33,197.5C 27.9499,207.6 23.4499,217.933 19.5,228.5C 19.8457,229.696 20.3457,229.696 21,228.5C 26.2536,219.661 31.2536,210.661 36,201.5C 37.1171,199.876 38.6171,198.876 40.5,198.5C 43.2076,199.041 45.8743,199.708 48.5,200.5C 49.6964,201.559 50.363,202.893 50.5,204.5C 49.1709,213.799 48.1709,223.133 47.5,232.5C 52.7596,233.921 58.0929,234.921 63.5,235.5C 64.5206,228.415 66.0206,221.415 68,214.5C 70.8808,212.972 73.2141,213.638 75,216.5C 79.289,222.458 83.9557,228.124 89,233.5C 90.1892,222.185 91.1892,210.852 92,199.5C 94.1089,196.777 96.7756,194.777 100,193.5C 101.261,193.759 102.261,194.426 103,195.5C 108.333,204.167 113.667,212.833 119,221.5C 121.257,206.967 123.257,192.3 125,177.5C 128.112,176.427 131.279,176.427 134.5,177.5C 133.821,192.497 133.654,207.497 134,222.5C 140.714,214.241 147.548,206.074 154.5,198C 158.5,197.667 162.5,197.333 166.5,197C 168.356,193.104 171.022,189.938 174.5,187.5C 176.923,187.702 178.589,188.869 179.5,191C 176.555,202.478 174.055,213.978 172,225.5C 177.775,221.376 183.775,217.71 190,214.5C 194.257,216.254 197.424,219.254 199.5,223.5C 200.002,224.521 200.668,224.688 201.5,224C 206.002,215.992 211.002,208.325 216.5,201C 223.735,199.583 231.068,198.583 238.5,198C 240.525,194.096 242.025,189.929 243,185.5C 243.5,185 244,184.5 244.5,184C 249.419,183.198 254.252,183.365 259,184.5C 259.169,192.188 259.669,199.855 260.5,207.5C 266.893,203.637 273.56,200.304 280.5,197.5C 284.015,198.85 286.349,201.35 287.5,205C 284.65,209.184 282.817,213.684 282,218.5C 286.087,215.084 289.42,211.084 292,206.5C 292.706,204.029 292.373,201.695 291,199.5C 288.74,194.908 285.074,192.241 280,191.5C 274.242,193.713 268.909,196.713 264,200.5C 263.667,194.833 263.333,189.167 263,183.5C 262.487,182.473 261.987,181.473 261.5,180.5C 265.296,172.111 268.296,163.444 270.5,154.5C 274.589,151.917 278.256,148.75 281.5,145C 284.804,143.958 286.971,145.125 288,148.5C 288.667,149.833 288.667,151.167 288,152.5C 283.906,157.368 280.906,162.701 279,168.5C 284.599,163.96 289.265,158.627 293,152.5C 293.344,143.179 288.844,139.013 279.5,140C 277.004,141.666 274.671,143.5 272.5,145.5C 280.708,106.407 276.042,69.0741 258.5,33.5C 278.932,33.1974 292.599,42.5308 299.5,61.5C 299.5,127.5 299.5,193.5 299.5,259.5C 295.153,273.653 285.82,282.819 271.5,287C 190.167,287.667 108.833,287.667 27.5,287C 20.5963,285.217 14.5963,281.883 9.5,277C 5.23494,271.953 1.90161,266.453 -0.5,260.5C -0.5,194.167 -0.5,127.833 -0.5,61.5C 3.98363,48.1839 12.9836,39.3506 26.5,35C 53.1237,33.5449 79.7904,33.0449 106.5,33.5 Z"/></g>
<g><path style="opacity:1" fill="#cca800" d="M 135.5,39.5 C 133.927,45.2587 130.26,48.0921 124.5,48C 123.62,46.6439 123.286,45.1439 123.5,43.5C 125.678,37.9731 129.678,35.3064 135.5,35.5C 135.5,36.8333 135.5,38.1667 135.5,39.5 Z"/></g>
<g><path style="opacity:1" fill="#feca00" d="M 241.5,113.5 C 239.443,119.281 237.11,124.947 234.5,130.5C 233.833,131.167 233.167,131.833 232.5,132.5C 232.505,100.67 219.505,75.8368 193.5,58C 184.212,52.5147 174.212,49.348 163.5,48.5C 164.537,46.2625 164.703,43.9291 164,41.5C 162.132,40.3281 160.298,40.4947 158.5,42C 156.7,43.8119 155.033,45.6452 153.5,47.5C 135.453,49.3602 119.787,56.3602 106.5,68.5C 108.67,63.6358 109.003,58.6358 107.5,53.5C 112.152,49.1688 117.486,45.8355 123.5,43.5C 123.286,45.1439 123.62,46.6439 124.5,48C 130.26,48.0921 133.927,45.2587 135.5,39.5C 153.332,33.7336 170.999,34.5669 188.5,42C 218.442,56.7119 236.109,80.5452 241.5,113.5 Z"/></g>
<g><path style="opacity:1" fill="#ccac00" d="M 163.5,48.5 C 161.482,52.7447 158.316,54.4113 154,53.5C 153.505,51.5273 153.338,49.5273 153.5,47.5C 155.033,45.6452 156.7,43.8119 158.5,42C 160.298,40.4947 162.132,40.3281 164,41.5C 164.703,43.9291 164.537,46.2625 163.5,48.5 Z"/></g>
<g><path style="opacity:1" fill="#fed100" d="M 153.5,47.5 C 153.338,49.5273 153.505,51.5273 154,53.5C 158.316,54.4113 161.482,52.7447 163.5,48.5C 174.212,49.348 184.212,52.5147 193.5,58C 219.505,75.8368 232.505,100.67 232.5,132.5C 230.366,137.774 227.033,142.107 222.5,145.5C 226.836,112.356 215.502,86.1895 188.5,67C 173.69,58.5312 158.023,56.3646 141.5,60.5C 136.187,58.0267 131.687,59.36 128,64.5C 123.461,69.01 122.628,74.01 125.5,79.5C 121.833,82.8333 118.167,86.1667 114.5,89.5C 115.127,86.1359 113.794,84.1359 110.5,83.5C 101.445,86.6126 97.1113,92.946 97.5,102.5C 94.6164,106.971 92.7831,111.971 92,117.5C 88.3125,138.204 91.8125,157.538 102.5,175.5C 99.2569,175.914 96.2569,176.914 93.5,178.5C 83.126,160.616 79.2927,141.283 82,120.5C 84.0425,104.52 89.8758,90.1867 99.5,77.5C 102.086,74.6421 104.42,71.6421 106.5,68.5C 119.787,56.3602 135.453,49.3602 153.5,47.5 Z"/></g>
<g><path style="opacity:1" fill="#cba900" d="M 107.5,53.5 C 109.003,58.6358 108.67,63.6358 106.5,68.5C 104.42,71.6421 102.086,74.6421 99.5,77.5C 96.9561,79.1825 94.1228,80.1825 91,80.5C 88.8218,80.6052 86.9885,79.9385 85.5,78.5C 85.0523,67.0489 90.0523,58.5489 100.5,53C 102.885,52.4436 105.218,52.6103 107.5,53.5 Z"/></g>
<g><path style="opacity:1" fill="#fed700" d="M 222.5,145.5 C 221.833,146.5 221.167,147.5 220.5,148.5C 217.455,151.547 214.122,154.213 210.5,156.5C 219.31,126.566 212.31,101.066 189.5,80C 184.782,76.1405 179.449,73.6405 173.5,72.5C 174.7,69.2977 174.7,66.1311 173.5,63C 171.5,62.3333 169.5,62.3333 167.5,63C 164.669,65.0007 162.003,67.1673 159.5,69.5C 158.726,68.8529 157.726,68.5195 156.5,68.5C 150.768,69.223 145.102,70.223 139.5,71.5C 141.092,68.0336 141.758,64.3669 141.5,60.5C 158.023,56.3646 173.69,58.5312 188.5,67C 215.502,86.1895 226.836,112.356 222.5,145.5 Z"/></g>
<g><path style="opacity:1" fill="#ccb100" d="M 141.5,60.5 C 141.758,64.3669 141.092,68.0336 139.5,71.5C 136.665,74.1653 133.665,76.6653 130.5,79C 128.866,79.4935 127.199,79.6602 125.5,79.5C 122.628,74.01 123.461,69.01 128,64.5C 131.687,59.36 136.187,58.0267 141.5,60.5 Z"/></g>
<g><path style="opacity:1" fill="#cbb300" d="M 173.5,72.5 C 171.885,75.4495 169.885,78.1162 167.5,80.5C 164.681,82.0971 161.681,82.5971 158.5,82C 157.748,81.3292 157.414,80.4959 157.5,79.5C 157.31,75.9682 157.977,72.6348 159.5,69.5C 162.003,67.1673 164.669,65.0007 167.5,63C 169.5,62.3333 171.5,62.3333 173.5,63C 174.7,66.1311 174.7,69.2977 173.5,72.5 Z"/></g>
<g><path style="opacity:1" fill="#edab14" d="M 253.5,65.5 C 253.833,65.5 254.167,65.5 254.5,65.5C 257.453,69.7997 259.953,74.4663 262,79.5C 269.971,100.983 273.471,122.983 272.5,145.5C 271.677,148.461 271.01,151.461 270.5,154.5C 268.296,163.444 265.296,172.111 261.5,180.5C 258.236,179.676 254.902,179.342 251.5,179.5C 259.18,157.719 261.347,135.386 258,112.5C 256.129,103.063 253.962,93.7301 251.5,84.5C 251.5,83.5 251.5,82.5 251.5,81.5C 252.957,76.402 253.624,71.0687 253.5,65.5 Z"/></g>
<g><path style="opacity:1" fill="#fedd00" d="M 159.5,69.5 C 157.977,72.6348 157.31,75.9682 157.5,79.5C 131.029,82.4648 115.195,97.1315 110,123.5C 107.961,137.301 110.294,150.301 117,162.5C 117.671,163.252 118.504,163.586 119.5,163.5C 118.5,167.5 117.5,171.5 116.5,175.5C 115.833,175.833 115.167,176.167 114.5,176.5C 98.4403,153.296 95.7736,128.629 106.5,102.5C 110.776,99.2103 113.442,94.877 114.5,89.5C 118.167,86.1667 121.833,82.8333 125.5,79.5C 127.199,79.6602 128.866,79.4935 130.5,79C 133.665,76.6653 136.665,74.1653 139.5,71.5C 145.102,70.223 150.768,69.223 156.5,68.5C 157.726,68.5195 158.726,68.8529 159.5,69.5 Z"/></g>
<g><path style="opacity:1" fill="#fedd00" d="M 173.5,72.5 C 179.449,73.6405 184.782,76.1405 189.5,80C 212.31,101.066 219.31,126.566 210.5,156.5C 208.5,158.167 206.5,159.833 204.5,161.5C 201.366,162.901 198.366,164.568 195.5,166.5C 207.254,144.966 207.421,123.299 196,101.5C 189.157,90.8138 179.657,83.8138 167.5,80.5C 169.885,78.1162 171.885,75.4495 173.5,72.5 Z"/></g>
<g><path style="opacity:1" fill="#fee300" d="M 157.5,79.5 C 157.414,80.4959 157.748,81.3292 158.5,82C 161.681,82.5971 164.681,82.0971 167.5,80.5C 179.657,83.8138 189.157,90.8138 196,101.5C 207.421,123.299 207.254,144.966 195.5,166.5C 188.614,170.009 181.281,171.342 173.5,170.5C 192.579,156.076 198.079,137.41 190,114.5C 180.956,96.0607 166.456,89.0607 146.5,93.5C 145.712,89.2034 143.379,88.37 139.5,91C 136.195,93.7811 134.528,97.2811 134.5,101.5C 126.986,107.165 122.486,114.832 121,124.5C 119.247,135.408 120.914,145.741 126,155.5C 127.196,157.286 128.696,158.619 130.5,159.5C 126.071,158.887 122.405,160.22 119.5,163.5C 118.504,163.586 117.671,163.252 117,162.5C 110.294,150.301 107.961,137.301 110,123.5C 115.195,97.1315 131.029,82.4648 157.5,79.5 Z"/></g>
<g><path style="opacity:1" fill="#c3b342" d="M 34.5,81.5 C 42.233,80.905 46.0664,84.5716 46,92.5C 46.6667,95.8333 46.6667,99.1667 46,102.5C 43.7232,97.6127 41.7232,92.6127 40,87.5C 39.4387,86.9781 38.772,86.6448 38,86.5C 35.0337,86.8519 32.5337,88.0186 30.5,90C 31.5919,95.1259 31.7586,100.293 31,105.5C 28.3099,100.455 26.4765,95.1215 25.5,89.5C 25.8481,87.3033 26.8481,85.47 28.5,84C 30.8516,83.7599 32.8516,82.9265 34.5,81.5 Z"/></g>
<g><path style="opacity:1" fill="#cbb100" d="M 114.5,89.5 C 113.442,94.877 110.776,99.2103 106.5,102.5C 103.379,105.053 100.379,105.053 97.5,102.5C 97.1113,92.946 101.445,86.6126 110.5,83.5C 113.794,84.1359 115.127,86.1359 114.5,89.5 Z"/></g>
<g><path style="opacity:1" fill="#ecb214" d="M 251.5,84.5 C 253.962,93.7301 256.129,103.063 258,112.5C 261.347,135.386 259.18,157.719 251.5,179.5C 248.022,179.184 244.688,179.684 241.5,181C 238.848,185.091 237.181,189.591 236.5,194.5C 233.167,194.5 229.833,194.5 226.5,194.5C 243.296,169.188 248.963,141.521 243.5,111.5C 244.833,106.501 246.166,101.501 247.5,96.5C 249.143,92.5914 250.476,88.5914 251.5,84.5 Z"/></g>
<g><path style="opacity:1" fill="#cdbb00" d="M 146.5,93.5 C 144.875,98.2918 141.708,101.625 137,103.5C 135.699,103.361 134.866,102.695 134.5,101.5C 134.528,97.2811 136.195,93.7811 139.5,91C 143.379,88.37 145.712,89.2034 146.5,93.5 Z"/></g>
<g><path style="opacity:1" fill="#fee900" d="M 173.5,170.5 C 169.161,171.995 165.827,174.829 163.5,179C 158.918,179.244 154.918,180.911 151.5,184C 147.834,185.271 145.334,184.104 144,180.5C 143.841,175.084 143.174,169.75 142,164.5C 139.081,160.802 135.247,159.136 130.5,159.5C 128.696,158.619 127.196,157.286 126,155.5C 120.914,145.741 119.247,135.408 121,124.5C 122.486,114.832 126.986,107.165 134.5,101.5C 134.866,102.695 135.699,103.361 137,103.5C 141.708,101.625 144.875,98.2918 146.5,93.5C 166.456,89.0607 180.956,96.0607 190,114.5C 198.079,137.41 192.579,156.076 173.5,170.5 Z"/></g>
<g><path style="opacity:1" fill="#cba900" d="M 75.5,104.5 C 75.1289,100.997 76.1289,97.9966 78.5,95.5C 80.5027,93.0181 83.1694,92.0181 86.5,92.5C 87.044,97.9113 85.044,102.078 80.5,105C 78.735,105.64 77.0683,105.473 75.5,104.5 Z"/></g>
<g><path style="opacity:1" fill="#feb902" d="M 55.5,95.5 C 56.0967,95.7352 56.4301,96.2352 56.5,97C 49.8994,121.826 49.8994,146.659 56.5,171.5C 52.5428,168.878 48.8761,165.878 45.5,162.5C 43.1377,159.808 40.8044,157.141 38.5,154.5C 39.5049,133.486 45.1715,113.819 55.5,95.5 Z"/></g>
<g><path style="opacity:1" fill="#feca00" d="M 99.5,77.5 C 89.8758,90.1867 84.0425,104.52 82,120.5C 79.2927,141.283 83.126,160.616 93.5,178.5C 90.4864,181.246 87.4864,183.913 84.5,186.5C 70.4237,161.36 66.757,134.694 73.5,106.5C 73.7472,105.287 74.4138,104.62 75.5,104.5C 77.0683,105.473 78.735,105.64 80.5,105C 85.044,102.078 87.044,97.9113 86.5,92.5C 83.1694,92.0181 80.5027,93.0181 78.5,95.5C 78.7828,89.2318 81.1161,83.5652 85.5,78.5C 86.9885,79.9385 88.8218,80.6052 91,80.5C 94.1228,80.1825 96.9561,79.1825 99.5,77.5 Z"/></g>
<g><path style="opacity:1" fill="#fed700" d="M 97.5,102.5 C 100.379,105.053 103.379,105.053 106.5,102.5C 95.7736,128.629 98.4403,153.296 114.5,176.5C 113.688,177.993 112.355,178.66 110.5,178.5C 107.445,178.263 104.779,177.263 102.5,175.5C 91.8125,157.538 88.3125,138.204 92,117.5C 92.7831,111.971 94.6164,106.971 97.5,102.5 Z"/></g>
<g><path style="opacity:1" fill="#fff000" d="M 150.5,102.5 C 168.989,100.997 180.156,109.33 184,127.5C 185.672,140.98 181.172,151.813 170.5,160C 153.063,167.19 140.23,162.356 132,145.5C 126.214,125.761 132.381,111.427 150.5,102.5 Z"/></g>
<g><path style="opacity:1" fill="#fff600" d="M 154.5,112.5 C 167.529,113.028 174.529,119.861 175.5,133C 173.136,149.331 164.136,155.331 148.5,151C 139.119,142.863 136.952,133.03 142,121.5C 145.26,117.049 149.427,114.049 154.5,112.5 Z"/></g>
<g><path style="opacity:1" fill="#ecb814" d="M 243.5,111.5 C 248.963,141.521 243.296,169.188 226.5,194.5C 222.097,194.987 217.764,196.154 213.5,198C 208.971,204.364 204.637,210.864 200.5,217.5C 198.407,214.401 195.741,212.067 192.5,210.5C 220.646,191.553 234.646,164.886 234.5,130.5C 237.11,124.947 239.443,119.281 241.5,113.5C 242.167,112.833 242.833,112.167 243.5,111.5 Z"/></g>
<g><path style="opacity:1" fill="#fffb00" d="M 153.5,123.5 C 162.764,122.934 166.597,127.267 165,136.5C 159.667,144.5 154.333,144.5 149,136.5C 147.675,131.157 149.175,126.824 153.5,123.5 Z"/></g>
<g><path style="opacity:1" fill="#ecbe14" d="M 234.5,130.5 C 234.646,164.886 220.646,191.553 192.5,210.5C 187.194,210.815 182.527,212.815 178.5,216.5C 178.167,216 177.833,215.5 177.5,215C 179.444,208.439 181.11,201.939 182.5,195.5C 182.238,196.978 182.571,198.311 183.5,199.5C 203.893,188.394 216.226,171.394 220.5,148.5C 221.167,147.5 221.833,146.5 222.5,145.5C 227.033,142.107 230.366,137.774 232.5,132.5C 233.167,131.833 233.833,131.167 234.5,130.5 Z"/></g>
<g><path style="opacity:1" fill="#c2b140" d="M 270.5,154.5 C 271.01,151.461 271.677,148.461 272.5,145.5C 274.671,143.5 277.004,141.666 279.5,140C 288.844,139.013 293.344,143.179 293,152.5C 289.265,158.627 284.599,163.96 279,168.5C 280.906,162.701 283.906,157.368 288,152.5C 288.667,151.167 288.667,149.833 288,148.5C 286.971,145.125 284.804,143.958 281.5,145C 278.256,148.75 274.589,151.917 270.5,154.5 Z"/></g>
<g><path style="opacity:1" fill="#edc413" d="M 220.5,148.5 C 216.226,171.394 203.893,188.394 183.5,199.5C 182.571,198.311 182.238,196.978 182.5,195.5C 183.678,192.477 183.678,189.477 182.5,186.5C 192.373,180.434 199.706,172.101 204.5,161.5C 206.5,159.833 208.5,158.167 210.5,156.5C 214.122,154.213 217.455,151.547 220.5,148.5 Z"/></g>
<g><path style="opacity:1" fill="#c3b241" d="M 38.5,154.5 C 38.5,158.167 38.5,161.833 38.5,165.5C 37.8365,163.958 37.1698,162.291 36.5,160.5C 32.8966,162.117 30.5633,164.784 29.5,168.5C 31.3019,173.905 33.3019,179.239 35.5,184.5C 29.9867,186.119 24.32,186.952 18.5,187C 16.8757,188.117 15.8757,189.617 15.5,191.5C 19.0155,202.744 17.8488,203.744 12,194.5C 9.07838,188.082 10.9117,183.582 17.5,181C 21.5666,180.997 25.5666,180.83 29.5,180.5C 26.9645,175.411 25.7978,170.078 26,164.5C 29.5587,160.317 33.7253,156.984 38.5,154.5 Z"/></g>
<g><path style="opacity:1" fill="#eca715" d="M 38.5,154.5 C 40.8044,157.141 43.1377,159.808 45.5,162.5C 48.4822,180.134 55.1489,196.134 65.5,210.5C 64.4582,214.697 63.1249,218.697 61.5,222.5C 59.1667,219.167 56.8333,215.833 54.5,212.5C 54.6657,208.154 54.499,203.821 54,199.5C 51.7146,196.108 48.548,194.441 44.5,194.5C 41.222,185.11 39.222,175.444 38.5,165.5C 38.5,161.833 38.5,158.167 38.5,154.5 Z"/></g>
<g><path style="opacity:1" fill="#eccb14" d="M 130.5,159.5 C 135.247,159.136 139.081,160.802 142,164.5C 143.174,169.75 143.841,175.084 144,180.5C 145.334,184.104 147.834,185.271 151.5,184C 154.918,180.911 158.918,179.244 163.5,179C 165.827,174.829 169.161,171.995 173.5,170.5C 181.281,171.342 188.614,170.009 195.5,166.5C 198.366,164.568 201.366,162.901 204.5,161.5C 199.706,172.101 192.373,180.434 182.5,186.5C 179.129,184.32 175.462,183.486 171.5,184C 168.808,186.557 166.475,189.391 164.5,192.5C 160.893,193.489 157.226,193.823 153.5,193.5C 149.022,193.138 144.688,192.138 140.5,190.5C 139.833,186.353 139.166,182.353 138.5,178.5C 138.141,176.629 137.141,175.129 135.5,174C 129.266,170.808 124.266,171.974 120.5,177.5C 119.685,176.571 118.852,175.571 118,174.5C 117.617,175.056 117.117,175.389 116.5,175.5C 117.5,171.5 118.5,167.5 119.5,163.5C 122.405,160.22 126.071,158.887 130.5,159.5 Z"/></g>
<g><path style="opacity:1" fill="#ecab14" d="M 45.5,162.5 C 48.8761,165.878 52.5428,168.878 56.5,171.5C 58.4602,173.156 60.4602,174.823 62.5,176.5C 67.2732,191.581 75.2732,204.581 86.5,215.5C 86.6641,218.187 86.4974,220.854 86,223.5C 82.5,219.333 79,215.167 75.5,211C 72.2467,209.18 68.9133,209.013 65.5,210.5C 55.1489,196.134 48.4822,180.134 45.5,162.5 Z"/></g>
<g><path style="opacity:1" fill="#c2b13f" d="M 138.5,178.5 C 138.334,188.839 138.5,199.172 139,209.5C 143.626,203.863 148.459,198.53 153.5,193.5C 157.226,193.823 160.893,193.489 164.5,192.5C 166.475,189.391 168.808,186.557 171.5,184C 175.462,183.486 179.129,184.32 182.5,186.5C 183.678,189.477 183.678,192.477 182.5,195.5C 181.11,201.939 179.444,208.439 177.5,215C 177.833,215.5 178.167,216 178.5,216.5C 182.527,212.815 187.194,210.815 192.5,210.5C 195.741,212.067 198.407,214.401 200.5,217.5C 204.637,210.864 208.971,204.364 213.5,198C 217.764,196.154 222.097,194.987 226.5,194.5C 229.833,194.5 233.167,194.5 236.5,194.5C 237.181,189.591 238.848,185.091 241.5,181C 244.688,179.684 248.022,179.184 251.5,179.5C 254.902,179.342 258.236,179.676 261.5,180.5C 261.987,181.473 262.487,182.473 263,183.5C 263.333,189.167 263.667,194.833 264,200.5C 268.909,196.713 274.242,193.713 280,191.5C 285.074,192.241 288.74,194.908 291,199.5C 292.373,201.695 292.706,204.029 292,206.5C 289.42,211.084 286.087,215.084 282,218.5C 282.817,213.684 284.65,209.184 287.5,205C 286.349,201.35 284.015,198.85 280.5,197.5C 273.56,200.304 266.893,203.637 260.5,207.5C 259.669,199.855 259.169,192.188 259,184.5C 254.252,183.365 249.419,183.198 244.5,184C 244,184.5 243.5,185 243,185.5C 242.025,189.929 240.525,194.096 238.5,198C 231.068,198.583 223.735,199.583 216.5,201C 211.002,208.325 206.002,215.992 201.5,224C 200.668,224.688 200.002,224.521 199.5,223.5C 197.424,219.254 194.257,216.254 190,214.5C 183.775,217.71 177.775,221.376 172,225.5C 174.055,213.978 176.555,202.478 179.5,191C 178.589,188.869 176.923,187.702 174.5,187.5C 171.022,189.938 168.356,193.104 166.5,197C 162.5,197.333 158.5,197.667 154.5,198C 147.548,206.074 140.714,214.241 134,222.5C 133.654,207.497 133.821,192.497 134.5,177.5C 131.279,176.427 128.112,176.427 125,177.5C 123.257,192.3 121.257,206.967 119,221.5C 113.667,212.833 108.333,204.167 103,195.5C 102.261,194.426 101.261,193.759 100,193.5C 96.7756,194.777 94.1089,196.777 92,199.5C 91.1892,210.852 90.1892,222.185 89,233.5C 83.9557,228.124 79.289,222.458 75,216.5C 73.2141,213.638 70.8808,212.972 68,214.5C 66.0206,221.415 64.5206,228.415 63.5,235.5C 58.0929,234.921 52.7596,233.921 47.5,232.5C 48.1709,223.133 49.1709,213.799 50.5,204.5C 50.363,202.893 49.6964,201.559 48.5,200.5C 45.8743,199.708 43.2076,199.041 40.5,198.5C 38.6171,198.876 37.1171,199.876 36,201.5C 31.2536,210.661 26.2536,219.661 21,228.5C 20.3457,229.696 19.8457,229.696 19.5,228.5C 23.4499,217.933 27.9499,207.6 33,197.5C 36.3273,194.846 40.1606,193.846 44.5,194.5C 48.548,194.441 51.7146,196.108 54,199.5C 54.499,203.821 54.6657,208.154 54.5,212.5C 53.1003,217.287 52.1003,222.287 51.5,227.5C 51.8333,228.167 52.1667,228.833 52.5,229.5C 59.2095,232.133 62.2095,229.8 61.5,222.5C 63.1249,218.697 64.4582,214.697 65.5,210.5C 68.9133,209.013 72.2467,209.18 75.5,211C 79,215.167 82.5,219.333 86,223.5C 86.4974,220.854 86.6641,218.187 86.5,215.5C 87.0025,209.132 87.6692,202.798 88.5,196.5C 91.4706,194.343 94.4706,192.176 97.5,190C 100.85,189.07 103.683,189.903 106,192.5C 109.27,198.764 112.936,204.764 117,210.5C 118.131,199.485 119.298,188.485 120.5,177.5C 124.266,171.974 129.266,170.808 135.5,174C 137.141,175.129 138.141,176.629 138.5,178.5 Z"/></g>
<g><path style="opacity:1" fill="#ecbe14" d="M 120.5,177.5 C 119.298,188.485 118.131,199.485 117,210.5C 112.936,204.764 109.27,198.764 106,192.5C 103.683,189.903 100.85,189.07 97.5,190C 94.4706,192.176 91.4706,194.343 88.5,196.5C 86.5919,193.688 84.9252,190.688 83.5,187.5C 84.1667,187.5 84.5,187.167 84.5,186.5C 87.4864,183.913 90.4864,181.246 93.5,178.5C 96.2569,176.914 99.2569,175.914 102.5,175.5C 104.779,177.263 107.445,178.263 110.5,178.5C 112.355,178.66 113.688,177.993 114.5,176.5C 115.167,176.167 115.833,175.833 116.5,175.5C 117.117,175.389 117.617,175.056 118,174.5C 118.852,175.571 119.685,176.571 120.5,177.5 Z"/></g>
<g><path style="opacity:1" fill="#ecb114" d="M 62.5,176.5 C 65.1667,178.167 67.8333,179.833 70.5,181.5C 74.1951,184.847 78.5285,186.847 83.5,187.5C 84.9252,190.688 86.5919,193.688 88.5,196.5C 87.6692,202.798 87.0025,209.132 86.5,215.5C 75.2732,204.581 67.2732,191.581 62.5,176.5 Z"/></g>
<g><path style="opacity:1" fill="#ebc415" d="M 138.5,178.5 C 139.166,182.353 139.833,186.353 140.5,190.5C 144.688,192.138 149.022,193.138 153.5,193.5C 148.459,198.53 143.626,203.863 139,209.5C 138.5,199.172 138.334,188.839 138.5,178.5 Z"/></g>
<g><path style="opacity:1" fill="#e4e263" d="M 54.5,212.5 C 56.8333,215.833 59.1667,219.167 61.5,222.5C 62.2095,229.8 59.2095,232.133 52.5,229.5C 52.1667,228.833 51.8333,228.167 51.5,227.5C 52.1003,222.287 53.1003,217.287 54.5,212.5 Z"/></g>
<g><path style="opacity:1" fill="#c2b241" d="M 204.5,234.5 C 210.436,234.091 215.936,235.424 221,238.5C 224.285,243.189 224.118,247.855 220.5,252.5C 223.718,252.584 226.718,251.417 229.5,249C 235.242,248.076 238.909,250.41 240.5,256C 239.014,263.232 237.681,263.066 236.5,255.5C 235.441,254.304 234.107,253.637 232.5,253.5C 225.203,257.149 217.87,260.815 210.5,264.5C 210.167,264.167 209.833,263.833 209.5,263.5C 212.776,257.283 215.776,250.949 218.5,244.5C 218.392,243.558 218.059,242.725 217.5,242C 214.534,240.734 211.534,239.567 208.5,238.5C 206.971,238.529 205.804,239.196 205,240.5C 200.156,248.188 194.823,255.521 189,262.5C 192.829,252.516 197.996,243.182 204.5,234.5 Z"/></g>
<g><path style="opacity:1" fill="#c2b241" d="M 97.5,237.5 C 101.594,236.705 104.761,238.038 107,241.5C 108.48,245.615 110.147,249.615 112,253.5C 112.509,248.907 114.009,244.74 116.5,241C 120.999,238.633 124.832,239.467 128,243.5C 128.667,250.833 128.667,258.167 128,265.5C 125.816,259.077 124.483,252.411 124,245.5C 122.333,244.167 120.667,244.167 119,245.5C 117.309,252.932 115.309,260.266 113,267.5C 109.619,260.698 106.619,253.698 104,246.5C 103.519,244.522 102.353,243.189 100.5,242.5C 96.7919,242.919 93.2919,243.919 90,245.5C 91.2055,250.375 91.5388,255.375 91,260.5C 87.2995,255.402 85.6329,249.735 86,243.5C 89.2414,240.244 93.0747,238.244 97.5,237.5 Z"/></g>
<g><path style="opacity:1" fill="#c5c449" d="M 299.5,259.5 C 299.5,269.5 299.5,279.5 299.5,289.5C 199.5,289.5 99.5,289.5 -0.5,289.5C -0.5,279.833 -0.5,270.167 -0.5,260.5C 1.90161,266.453 5.23494,271.953 9.5,277C 14.5963,281.883 20.5963,285.217 27.5,287C 108.833,287.667 190.167,287.667 271.5,287C 285.82,282.819 295.153,273.653 299.5,259.5 Z"/></g>
<g><path style="opacity:1" fill="#bebd42" d="M -0.5,289.5 C 99.5,289.5 199.5,289.5 299.5,289.5C 299.5,291.167 299.5,292.833 299.5,294.5C 199.5,294.5 99.5,294.5 -0.5,294.5C -0.5,292.833 -0.5,291.167 -0.5,289.5 Z"/></g>
<g><path style="opacity:0.999" fill="#b9b83d" d="M -0.5,294.5 C 99.5,294.5 199.5,294.5 299.5,294.5C 299.5,297.167 299.5,299.833 299.5,302.5C 199.57,301.502 99.5704,301.169 -0.5,301.5C -0.5,299.167 -0.5,296.833 -0.5,294.5 Z"/></g>
<g><path style="opacity:0.997" fill="#b2b137" d="M -0.5,301.5 C 99.5704,301.169 199.57,301.502 299.5,302.5C 299.5,303.833 299.5,305.167 299.5,306.5C 298.833,307.833 298.167,309.167 297.5,310.5C 198.668,309.501 99.6681,309.167 0.5,309.5C 0.737305,308.209 0.403972,307.209 -0.5,306.5C -0.5,304.833 -0.5,303.167 -0.5,301.5 Z"/></g>
<g><path style="opacity:0.998" fill="#aaa930" d="M 0.5,309.5 C 99.6681,309.167 198.668,309.501 297.5,310.5C 297.075,313.119 296.075,315.453 294.5,317.5C 197.833,317.5 101.167,317.5 4.5,317.5C 2.98137,314.956 1.64803,312.289 0.5,309.5 Z"/></g>
<g><path style="opacity:0.996" fill="#a6a52c" d="M 4.5,317.5 C 101.167,317.5 197.833,317.5 294.5,317.5C 293.488,318.872 292.488,320.205 291.5,321.5C 196.999,321.167 102.665,321.501 8.5,322.5C 6.93731,321.055 5.60398,319.389 4.5,317.5 Z"/></g>
<g><path style="opacity:0.996" fill="#a1a028" d="M 291.5,321.5 C 289.451,324.55 286.784,326.883 283.5,328.5C 194.665,328.167 105.998,328.501 17.5,329.5C 13.6367,328.306 10.6367,325.973 8.5,322.5C 102.665,321.501 196.999,321.167 291.5,321.5 Z"/></g>
<g><path style="opacity:0.989" fill="#9b9a22" d="M 283.5,328.5 C 279.786,331.071 275.786,333.071 271.5,334.5C 190.167,334.5 108.833,334.5 27.5,334.5C 23.9295,333.381 20.5961,331.715 17.5,329.5C 105.998,328.501 194.665,328.167 283.5,328.5 Z"/></g>
</svg>
