<?xml version="1.0" encoding="UTF-8" standalone="no"?>
<svg
   id="Layer_1"
   data-name="Layer 1"
   viewBox="0 0 300 345"
   version="1.1"
   sodipodi:docname="hackedBot.svg"
   inkscape:version="1.3 (0e150ed6c4, 2023-07-21)"
   xmlns:inkscape="http://www.inkscape.org/namespaces/inkscape"
   xmlns:sodipodi="http://sodipodi.sourceforge.net/DTD/sodipodi-0.dtd"
   xmlns="http://www.w3.org/2000/svg"
   xmlns:svg="http://www.w3.org/2000/svg">
  <sodipodi:namedview
     id="namedview60"
     pagecolor="#505050"
     bordercolor="#eeeeee"
     borderopacity="1"
     inkscape:showpageshadow="0"
     inkscape:pageopacity="0"
     inkscape:pagecheckerboard="0"
     inkscape:deskcolor="#505050"
     inkscape:zoom="2.3565217"
     inkscape:cx="150.00923"
     inkscape:cy="176.31919"
     inkscape:window-width="1920"
     inkscape:window-height="1009"
     inkscape:window-x="2552"
     inkscape:window-y="254"
     inkscape:window-maximized="1"
     inkscape:current-layer="robot" />
  <defs
     id="defs2">
    <style
       id="style1">.cls-1,.cls-8{fill:#c4e3c7;}.cls-2{fill:#b0d8a1;}.cls-3{fill:#fffef6;}.cls-17,.cls-18,.cls-4,.cls-7{fill:none;stroke-miterlimit:10;}.cls-4,.cls-7{stroke:#dd7399;}.cls-4{stroke-width:6px;}.cls-5{fill:#dd7399;}.cls-6{fill:#f6a9cb;}.cls-7{stroke-width:2px;}.cls-8{fill-opacity:0.25;}.cls-9{fill:url(#linear-gradient);}.cls-10{fill:#dae6f5;}.cls-11{fill:#72a4c4;}.cls-12{fill:#9dc6ea;}.cls-13{fill:#2d5997;}.cls-14{fill:#416eb5;}.cls-15{fill:#9ecf7a;}.cls-16{fill:#d1e176;}.cls-17,.cls-18{stroke:#7fb2d7;stroke-width:19px;}.cls-18{stroke-dasharray:2 10;}.cls-19{fill:#6f9b4e;}</style>
    <linearGradient
       id="linear-gradient"
       x1="150"
       y1="356.11"
       x2="150"
       y2="161.16"
       gradientUnits="userSpaceOnUse">
      <stop
         offset="0"
         stop-color="#9dc6ea"
         id="stop1"
         style="stop-color:#b18181;stop-opacity:1;" />
      <stop
         offset="0.69"
         stop-color="#416eb5"
         id="stop2"
         style="stop-color:#962424;stop-opacity:1;" />
    </linearGradient>
  </defs>
  <g
     id="robot">
    <path
       class="cls-1"
       d="M 212.1,28.77 H 87.9 A 87.89,87.89 0 0 0 0,116.67 v 0 62 h 300 v -62 0 a 87.89,87.89 0 0 0 -87.9,-87.9 z"
       id="path2"
       style="fill:#ef8686;fill-opacity:1" />
    <path
       class="cls-2"
       d="m 275,116.67 a 65,65 0 0 0 -13.54,-36.83 66.09,66.09 0 0 0 -6.6,-7.28 63.3,63.3 0 0 0 -7.64,-6.13 62,62 0 0 0 -17.5,-8.38 64.86,64.86 0 0 0 -19.16,-2.58 L 190.39,55.69 150,55.82 c -13.45,-0.07 -26.9,0 -40.35,-0.2 L 89.48,55.41 a 72.79,72.79 0 0 0 -9.7,0.53 67,67 0 0 0 -9.49,2 A 63.39,63.39 0 0 0 38.52,79.79 64.88,64.88 0 0 0 25,116.67 62.84,62.84 0 0 1 36.2,78.12 64.91,64.91 0 0 1 68.92,53.63 65.65,65.65 0 0 1 89.48,50.25 L 109.65,50 c 13.45,-0.15 26.9,-0.12 40.35,-0.19 l 40.35,0.13 20.17,0.21 A 73.21,73.21 0 0 1 221,51 a 69.18,69.18 0 0 1 10.16,2.52 67.79,67.79 0 0 1 9.6,4.11 60.1,60.1 0 0 1 8.8,5.56 66.64,66.64 0 0 1 7.76,6.87 68.53,68.53 0 0 1 6.55,8 62.3,62.3 0 0 1 5.13,8.94 58.89,58.89 0 0 1 3.64,9.57 66,66 0 0 1 2,10 71.33,71.33 0 0 1 0.36,10.1 z"
       id="path3"
       style="fill:#d8a1a1;fill-opacity:1" />
    <circle
       class="cls-3"
       cx="233.72"
       cy="93.43"
       r="8.6800003"
       id="circle3"
       style="fill:#ffd0d0;fill-opacity:1" />
    <circle
       class="cls-3"
       cx="214.49001"
       cy="107.58"
       r="3.8499999"
       id="circle4"
       style="fill:#ffd0d0;fill-opacity:1" />
    <circle
       class="cls-3"
       cx="62.68"
       cy="76.389999"
       r="6.9099998"
       id="circle5"
       style="fill:#ffd0d0;fill-opacity:1" />
    <circle
       class="cls-3"
       cx="78.839996"
       cy="95.910004"
       r="3.8800001"
       id="circle6"
       style="fill:#ffd0d0;fill-opacity:1" />
    <circle
       class="cls-3"
       cx="41.369999"
       cy="118.01"
       r="2.79"
       id="circle7"
       style="fill:#ffd0d0;fill-opacity:1" />
    <circle
       class="cls-3"
       cx="262.26001"
       cy="117.57"
       r="7.9200001"
       id="circle8"
       style="fill:#ffd0d0;fill-opacity:1" />
    <path
       class="cls-5"
       d="m 167.48,124.94 c -6.19,0 -9.19,-2.48 -10.42,-3.92 a 18,18 0 0 1 -3.48,0.36 c -8.17,0 -11.63,-6.65 -12.31,-10.16 l -0.21,-1.08 36.59,-20.14 0.78,0.62 c 0.6,0.47 14.69,11.64 13.32,21.42 -0.55,4 -3.49,7.1 -8.73,9.24 -5.95,2.42 -11.18,3.66 -15.54,3.66 z"
       id="path9"
       style="fill:#ffffff;fill-opacity:1" />
    <path
       class="cls-5"
       d="m 177.5,91.79 c 0,0 25.25,19.8 4.95,28.09 -6.48,2.65 -11.35,3.56 -15,3.56 -7.72,0 -9.78,-4.1 -9.78,-4.1 a 17,17 0 0 1 -4.12,0.54 c -9.09,0 -10.84,-8.95 -10.84,-8.95 L 177.5,91.79 m 0.29,-3.59 -1.74,1 -34.76,19.1 -1.91,1.06 0.42,2.14 c 0.76,3.94 4.63,11.38 13.78,11.38 a 18.76,18.76 0 0 0 2.93,-0.24 c 1.69,1.68 5,3.8 11,3.8 4.56,0 10,-1.27 16.11,-3.78 5.77,-2.36 9,-5.86 9.65,-10.42 1.46,-10.45 -12.31,-21.58 -13.89,-22.81 l -1.56,-1.23 z"
       id="path10"
       style="fill:#000000;fill-opacity:1" />
    <path
       class="cls-6"
       d="m 133,117.89 h -1.11 c -12,-0.37 -18.19,-6.27 -18.88,-18 a 21.33,21.33 0 0 1 -2.79,0.19 A 17.6,17.6 0 0 1 97.53,95 c -4.76,-4.77 -7.17,-12.68 -7.17,-23.49 0,-22 28.28,-35.66 54.48,-35.66 19.55,0 36.64,6.79 48.12,19.12 13.19,14.18 18.39,30.78 13.9,44.42 -2.34,7.1 -7.1,12 -12.74,13 a 23.34,23.34 0 0 1 -4.33,0.45 16.36,16.36 0 0 1 -7.55,-1.92 16.63,16.63 0 0 0 -7.86,-1.9 35.31,35.31 0 0 0 -7.29,0.89 c -6.88,1.46 -12.08,3.06 -16.66,4.47 -6.35,1.96 -11.38,3.51 -17.43,3.51 z"
       id="path11"
       style="fill:#ffffff;fill-opacity:1" />
    <path
       class="cls-5"
       d="m 144.84,37.33 c 17.13,0 34.83,5.56 47,18.65 23.93,25.7 15.18,52.47 2,55 a 22.26,22.26 0 0 1 -4.05,0.42 c -6.42,0 -7.69,-3.82 -15.41,-3.82 a 36.81,36.81 0 0 0 -7.6,0.92 C 150.2,112 143,116.39 133,116.39 c -0.35,0 -0.7,0 -1.06,0 -10.56,-0.33 -17.33,-5 -17.5,-18.31 a 17.27,17.27 0 0 1 -4.22,0.48 c -6.54,0 -18.38,-3.29 -18.38,-27.05 0,-20.15 25.77,-34.16 53,-34.16 m 0,-3 c -14,0 -27.91,3.63 -38.26,10 -11.43,7 -17.72,16.65 -17.72,27.2 0,27.12 15,30.05 21.38,30.05 0.5,0 1,0 1.42,-0.05 1.21,11.49 8,17.5 20.2,17.88 0.39,0 0.78,0 1.16,0 6.26,0 11.38,-1.57 17.85,-3.57 4.56,-1.4 9.71,-3 16.53,-4.43 a 33.82,33.82 0 0 1 7,-0.86 15,15 0 0 1 7.23,1.77 17.89,17.89 0 0 0 8.18,2 25.27,25.27 0 0 0 4.6,-0.47 c 6.19,-1.16 11.38,-6.41 13.89,-14 a 37.21,37.21 0 0 0 0.14,-21.23 C 206.13,70.02 201.3,61.72 194.07,53.96 182.31,41.32 164.83,34.36 144.86,34.36 Z"
       id="path12"
       style="fill:#2f2f2f;fill-opacity:1" />
    <path
       class="cls-8"
       d="M 212.1,28.77 H 87.9 A 87.89,87.89 0 0 0 0,116.67 v 0 62 h 300 v -62 0 a 87.89,87.89 0 0 0 -87.9,-87.9 z"
       id="path35"
       style="fill:#b43a3a;fill-opacity:0.25" />
    <path
       class="cls-9"
       d="M 263.62,345 H 36.38 A 36.38,36.38 0 0 1 0,308.62 v -49.48 h 300 v 49.48 A 36.38,36.38 0 0 1 263.62,345 Z"
       id="path36" />
    <path
       class="cls-10"
       d="M 283.13,139.1 H 0 V 262 a 36.38,36.38 0 0 0 36.38,36.38 H 263.62 A 36.38,36.38 0 0 0 300,262 V 139.1 Z"
       id="path37"
       style="fill:#c07d7d;fill-opacity:1" />
    <line
       class="cls-17"
       y1="145.17"
       x2="1"
       y2="145.17"
       id="line51"
       x1="0" />
    <path
       class="cls-15"
       d="m 191.4,288.43 a 1.48,1.48 0 0 1 -1.17,-0.57 C 190.11,287.71 180,275.51 150,275.51 c -30,0 -40.13,12.23 -40.23,12.35 a 1.48,1.48 0 0 1 -1.17,0.57 1.61,1.61 0 0 1 -0.48,-0.08 1.48,1.48 0 0 1 -1,-1.38 42.92,42.92 0 1 1 85.8,0 1.48,1.48 0 0 1 -1.5,1.46 z"
       id="path53"
       style="fill:#be4949;fill-opacity:1"
       transform="matrix(1,0,0,-0.87690005,0,503.06489)" />
    <path
       class="cls-11"
       d="m 260.92,305.66 v 3 c 0,1 0,2.09 -0.12,3.13 a 40.38,40.38 0 0 1 -1,6.18 34.77,34.77 0 0 1 -5.06,11.4 36.58,36.58 0 0 1 -8.67,8.88 35.25,35.25 0 0 1 -19.79,6.8 35.24,35.24 0 0 0 21.79,-6.8 36.58,36.58 0 0 0 8.67,-8.88 34.77,34.77 0 0 0 5.06,-11.4 40.38,40.38 0 0 0 1,-6.18 c 0.09,-1 0.1,-2.08 0.12,-3.13 v -10.27 h -2 z"
       id="path38"
       transform="translate(0)"
       style="fill:#7a2525;fill-opacity:1" />
    <polygon
       class="cls-12"
       points="241.98,234.72 241.87,234.15 241.98,234.43 241.98,152.74 239.98,152.74 239.98,234.43 260.81,272.23 260.92,272.5 260.92,272.8 260.92,296.84 260.92,298.39 262.92,298.39 262.92,296.84 262.92,272.8 262.92,272.5 262.81,272.23 241.98,234.43 "
       id="polygon38"
       transform="translate(0)"
       style="fill:#a53b3b;fill-opacity:1" />
    <path
       class="cls-13"
       d="m 244.66,336.42 a 38,38 0 0 0 12.14,-19.22 34.9,34.9 0 0 0 1,-5.66 c 0.09,-1 0.11,-1.92 0.14,-2.88 v -10.27 h -2 v 10.27 c 0,1 0,1.92 -0.14,2.88 a 34.9,34.9 0 0 1 -1,5.66 38,38 0 0 1 -12.14,19.22 37.52,37.52 0 0 1 -21.66,8.58 32,32 0 0 0 3.25,0.05 c -0.42,0 -0.83,0 -1.25,-0.05 a 37.52,37.52 0 0 0 21.66,-8.58 z"
       id="path39"
       transform="translate(0)"
       style="fill:#491616;fill-opacity:1" />
    <polygon
       class="cls-14"
       points="236.98,234.72 236.98,152.74 234.98,152.74 234.98,234.72 234.98,235.02 235.1,235.29 255.92,273.09 255.92,272.8 256.03,273.37 255.92,273.09 255.92,296.84 255.92,298.39 257.92,298.39 257.92,296.84 257.92,273.09 237.1,235.29 236.98,235.02 "
       id="polygon39"
       transform="translate(0)"
       style="fill:#612227;fill-opacity:1" />
    <path
       class="cls-14"
       d="m 259.92,298.39 h -2 v 10.27 c 0,1 -0.05,1.92 -0.14,2.88 a 34.9,34.9 0 0 1 -1,5.66 38,38 0 0 1 -12.14,19.22 A 37.52,37.52 0 0 1 223,345 c 0.42,0 0.83,0 1.25,0.05 h 1 -0.25 a 38,38 0 0 0 14.06,-3.7 35.6,35.6 0 0 1 -13.78,3.65 h 1 a 35.25,35.25 0 0 0 19.79,-6.8 36.58,36.58 0 0 0 8.67,-8.88 34.77,34.77 0 0 0 5.06,-11.4 40.38,40.38 0 0 0 1,-6.18 c 0.09,-1 0.1,-2.08 0.12,-3.13 v -10.22 z"
       id="path40"
       transform="translate(0)"
       style="fill:#642430;fill-opacity:1" />
    <path
       class="cls-11"
       d="M 260.81,272.23 240,234.43 v 0.29 l -0.11,-0.57 0.11,0.28 v -81.69 h -3 V 235 l 0.12,0.27 20.82,37.8 v -0.29 l 0.11,0.57 -0.11,-0.28 v 25.3 h 3 V 272.5 Z M 238,234.72 l -0.11,-0.57 0.11,0.28 z m 21.94,38.37 v -0.29 l 0.11,0.57 z"
       id="path41"
       transform="translate(0)"
       style="fill:#943a3a;fill-opacity:1" />
    <path
       class="cls-11"
       d="M 45.25,329.37 A 34.77,34.77 0 0 1 40.19,318 a 40.38,40.38 0 0 1 -1,-6.18 c -0.09,-1 -0.1,-2.08 -0.12,-3.13 v -10.3 h -2 v 10.27 c 0,1 0,2.09 0.12,3.13 a 40.38,40.38 0 0 0 1,6.18 34.77,34.77 0 0 0 5.06,11.4 36.58,36.58 0 0 0 8.67,8.88 35.24,35.24 0 0 0 21.79,6.8 35.25,35.25 0 0 1 -19.79,-6.8 36.58,36.58 0 0 1 -8.67,-8.88 z"
       id="path42"
       transform="translate(0)"
       style="fill:#7a2525;fill-opacity:1" />
    <polygon
       class="cls-12"
       points="60.02,234.43 60.02,152.74 58.02,152.74 58.02,234.43 58.13,234.15 58.02,234.72 58.02,234.43 37.19,272.23 37.08,272.5 37.08,272.8 37.08,296.84 37.08,298.39 39.08,298.39 39.08,296.84 39.08,272.8 39.08,272.5 39.19,272.23 "
       id="polygon42"
       transform="translate(0)"
       style="fill:#a53b3b;fill-opacity:1" />
    <path
       class="cls-13"
       d="m 42.08,305.66 v 3 c 0,1 0.05,1.92 0.14,2.88 a 34.9,34.9 0 0 0 1,5.66 38,38 0 0 0 12.14,19.22 A 37.52,37.52 0 0 0 77,345 c -0.42,0 -0.83,0 -1.25,0.05 A 32,32 0 0 0 79,345 37.52,37.52 0 0 1 57.38,336.42 38,38 0 0 1 45.2,317.2 a 34.9,34.9 0 0 1 -1,-5.66 c -0.09,-1 -0.11,-1.92 -0.14,-2.88 v -10.27 h -2 z"
       id="path43"
       transform="translate(0)"
       style="fill:#491616;fill-opacity:1" />
    <polygon
       class="cls-14"
       points="64.9,235.29 65.02,235.02 65.02,234.72 65.02,152.74 63.02,152.74 63.02,234.72 63.02,235.02 62.9,235.29 42.08,273.09 42.08,296.84 42.08,298.39 44.08,298.39 44.08,296.84 44.08,273.09 43.97,273.37 44.08,272.8 44.08,273.09 "
       id="polygon43"
       transform="translate(0)"
       style="fill:#612227;fill-opacity:1" />
    <path
       class="cls-14"
       d="M 55.34,336.42 A 38,38 0 0 1 43.2,317.2 a 34.9,34.9 0 0 1 -1,-5.66 c -0.09,-1 -0.11,-1.92 -0.14,-2.88 v -10.27 h -3 v 10.27 c 0,1 0,2.09 0.12,3.13 a 40.38,40.38 0 0 0 1,6.18 34.77,34.77 0 0 0 5.06,11.4 36.58,36.58 0 0 0 8.67,8.88 35.25,35.25 0 0 0 19.79,6.8 h 1 A 35.6,35.6 0 0 1 60.9,341.3 38,38 0 0 0 75,345 h -0.24 1 c 0.42,0 0.83,0 1.25,-0.05 a 37.52,37.52 0 0 1 -21.67,-8.53 z"
       id="path44"
       transform="translate(0)"
       style="fill:#642430;fill-opacity:1" />
    <path
       class="cls-11"
       d="m 62,152.74 h -2 v 81.69 l 0.11,-0.28 -0.11,0.57 v -0.29 l -20.83,37.8 -0.11,0.27 v 25.89 h 3 v -25.3 l -0.11,0.28 0.11,-0.57 v 0.29 L 62.88,235.29 63,235 v -82.26 z m -22,120.63 0.11,-0.57 v 0.29 z m 22,-38.65 v -0.29 l 0.11,-0.28 z"
       id="path45"
       transform="translate(0)"
       style="fill:#943a3a;fill-opacity:1" />
    <path
       class="cls-19"
       d="m 113.88,265.52 v 17.05 q 1.32,-0.85 3,-1.74 v -19.9 a 42,42 0 0 0 -3,4.59 z"
       id="path55"
       style="fill:#000000;fill-opacity:1"
       transform="matrix(1,0,0,-0.87690005,0,503.06489)" />
    <path
       class="cls-19"
       d="m 127.73,250.88 v 25.8 c 1,-0.26 2,-0.5 3,-0.73 v -26.82 c -1.02,0.53 -2.02,1.13 -3,1.75 z"
       id="path56"
       style="fill:#000000;fill-opacity:1"
       transform="matrix(1,0,0,-0.87690005,0,503.06489)" />
    <path
       class="cls-19"
       d="m 141.58,245.26 v 29.09 c 1,-0.08 2,-0.15 3,-0.2 v -29.4 q -1.51,0.2 -3,0.51 z"
       id="path57"
       style="fill:#000000;fill-opacity:1"
       transform="matrix(1,0,0,-0.87690005,0,503.06489)" />
    <path
       class="cls-15"
       d="m 231.78,253.78 a 45.42,45.42 0 0 1 -13.64,-2.09 46.11,46.11 0 0 1 -29.2,-27.07 1.5,1.5 0 0 1 0.8,-1.94 l 82.14,-35.21 a 1.52,1.52 0 0 1 0.59,-0.12 1.5,1.5 0 0 1 1.36,0.87 46.19,46.19 0 0 1 -42,65.56 z"
       id="path46"
       style="fill:#c15454;fill-opacity:1" />
    <path
       class="cls-14"
       d="m 272.47,188.85 a 45.08,45.08 0 0 1 3.88,14.08 44.72,44.72 0 0 1 -44.57,49.35 43.93,43.93 0 0 1 -13.19,-2 44.61,44.61 0 0 1 -20.74,-13.68 45.17,45.17 0 0 1 -7.52,-12.52 l 82.14,-35.21 m 0,-3 a 3.11,3.11 0 0 0 -1.18,0.24 l -82.14,35.22 a 3,3 0 0 0 -1.61,3.86 47.71,47.71 0 0 0 30.15,28 47.08,47.08 0 0 0 14.09,2.15 47.69,47.69 0 0 0 43.42,-67.74 3,3 0 0 0 -2.73,-1.75 z"
       id="path47"
       style="fill:#000000;fill-opacity:1" />
    <path
       class="cls-15"
       d="m 68.22,253.78 a 46.18,46.18 0 0 1 -42,-65.56 1.5,1.5 0 0 1 1.36,-0.87 1.52,1.52 0 0 1 0.59,0.12 l 82.14,35.21 a 1.5,1.5 0 0 1 0.8,1.94 46.11,46.11 0 0 1 -29.2,27.07 45.42,45.42 0 0 1 -13.64,2.09 z"
       id="path48"
       style="fill:#c15454;fill-opacity:1" />
    <path
       class="cls-14"
       d="m 27.53,188.85 82.14,35.21 a 45.17,45.17 0 0 1 -7.52,12.52 44.61,44.61 0 0 1 -20.74,13.68 43.93,43.93 0 0 1 -13.19,2 44.68,44.68 0 0 1 -40.69,-63.43 m 0,-3 a 3,3 0 0 0 -2.73,1.75 47.7,47.7 0 0 0 43.42,67.68 47.08,47.08 0 0 0 14.09,-2.15 47.71,47.71 0 0 0 30.15,-28 3,3 0 0 0 -1.61,-3.86 L 28.71,186.09 a 3.07,3.07 0 0 0 -1.18,-0.24 z"
       id="path49"
       style="fill:#000000;fill-opacity:1" />
    <path
       class="cls-16"
       d="m 252.12,216.25 a 24.36,24.36 0 0 0 -2.12,-7.7 l -44.91,19.25 a 24.77,24.77 0 0 0 4.11,6.85 24.45,24.45 0 0 0 42.92,-18.4 z"
       id="path50"
       style="fill:#e17676;fill-opacity:1" />
    <path
       class="cls-16"
       d="m 47.88,216.25 a 24.36,24.36 0 0 1 2.12,-7.7 l 44.91,19.25 a 24.77,24.77 0 0 1 -4.11,6.85 24.45,24.45 0 0 1 -42.92,-18.4 z"
       id="path51"
       style="fill:#e17676;fill-opacity:1" />
    <path
       class="cls-19"
       d="m 155.42,244.75 v 29.4 c 1,0.05 2,0.12 3,0.2 v -29.09 q -1.48,-0.31 -3,-0.51 z"
       id="path58"
       style="fill:#000000;fill-opacity:1"
       transform="matrix(1,0,0,-0.87690005,0,503.06489)" />
    <rect
       class="cls-12"
       y="135.67"
       width="300"
       height="19"
       id="rect51"
       x="0"
       style="fill:#6a1717;fill-opacity:1" />
    <line
       class="cls-18"
       x1="11"
       y1="145.17"
       x2="294"
       y2="145.17"
       id="line52"
       style="stroke:#8d2b2b;stroke-opacity:1" />
    <path
       class="cls-19"
       d="M 169.27,249.13 V 276 c 1,0.23 2,0.47 3,0.73 v -25.8 c -0.98,-0.67 -1.98,-1.27 -3,-1.8 z"
       id="path59"
       style="fill:#000000;fill-opacity:1"
       transform="matrix(1,0,0,-0.87690005,0,503.06489)" />
    <path
       class="cls-19"
       d="m 183.12,260.94 v 19.89 q 1.68,0.89 3,1.74 v -17.05 a 41,41 0 0 0 -3,-4.58 z"
       id="path60"
       style="fill:#000000;fill-opacity:1"
       transform="matrix(1,0,0,-0.87690005,0,503.06489)" />
    <path
       class="cls-14"
       d="m 150,244.39 a 41.39,41.39 0 0 1 41.4,42.54 c 0,0 -10.11,-12.93 -41.4,-12.93 -31.29,0 -41.4,12.92 -41.4,12.92 A 41.39,41.39 0 0 1 150,244.39 m 0,-3 v 0 a 44.4,44.4 0 0 0 -44.4,45.61 3,3 0 0 0 2.06,2.77 3,3 0 0 0 3.3,-1 c 0.08,-0.09 9.9,-11.77 39,-11.77 29.1,0 39,11.68 39.06,11.79 a 3,3 0 0 0 2.38,1.21 2.83,2.83 0 0 0 0.95,-0.16 A 3,3 0 0 0 194.4,287 44.4,44.4 0 0 0 150,241.39 Z"
       id="path54"
       inkscape:label="path54"
       style="fill:#000000;fill-opacity:1"
       transform="matrix(1,0,0,-0.87690005,0,503.06489)" />
    <line
       class="cls-17"
       x1="299"
       y1="145.17"
       x2="300"
       y2="145.17"
       id="line53" />
  </g>
  <g
     inkscape:groupmode="layer"
     id="layer1"
     inkscape:label="Layer 1"
     transform="matrix(1,0,0,-0.87690005,0,503.06489)" />
</svg>
