<svg id="Layer_1" data-name="Layer 1" xmlns="http://www.w3.org/2000/svg" xmlns:xlink="http://www.w3.org/1999/xlink" viewBox="0 0 300 345"><defs><style>.cls-1{fill:#9dc6ea;}.cls-2{fill:url(#linear-gradient);}.cls-3{fill:#dae6f5;}.cls-4{fill:#51ba6b;}.cls-5{fill:#6eb8cc;}.cls-6{fill:#9bd4ee;}.cls-7{fill:#0e542b;}.cls-8{fill:#ecf7fe;fill-opacity:0.3;}</style><linearGradient id="linear-gradient" x1="150" y1="356.11" x2="150" y2="161.16" gradientUnits="userSpaceOnUse"><stop offset="0" stop-color="#9dc6ea"/><stop offset="0.69" stop-color="#416eb5"/></linearGradient></defs><g id="robot"><rect class="cls-1" x="63.85" y="17.32" width="11.44" height="38.44" rx="5.72"/><rect class="cls-1" x="224.71" y="17.32" width="11.44" height="38.44" rx="5.72"/><path class="cls-2" d="M263.62,345H36.38A36.38,36.38,0,0,1,0,308.62V259.14H300v49.48A36.38,36.38,0,0,1,263.62,345Z"/><rect class="cls-3" y="45" width="300" height="253.39" rx="36.38"/><path class="cls-4" d="M242.08,76.13H57.92c-14.33,0-26,11.19-26,24.94V242.32c0,13.75,11.66,24.95,26,24.95H242.08c14.33,0,26-11.2,26-24.95V101.07C268.07,87.32,256.41,76.13,242.08,76.13Z"/><path class="cls-5" d="M242.08,79.63c12.4,0,22.49,9.62,22.49,21.44V242.32c0,11.82-10.09,21.45-22.49,21.45H57.92c-12.4,0-22.49-9.63-22.49-21.45V101.07c0-11.82,10.09-21.44,22.49-21.44H242.08m0-7H57.92c-16.29,0-29.49,12.73-29.49,28.44V242.32c0,15.71,13.2,28.45,29.49,28.45H242.08c16.29,0,29.49-12.74,29.49-28.45V101.07c0-15.71-13.2-28.44-29.49-28.44Z"/><path class="cls-6" d="M242.08,79.63c12.4,0,22.49,9.62,22.49,21.44V243.52h0a7,7,0,0,0,7-7V101.07c0-15.71-13.2-28.44-29.49-28.44H57.92c-16.29,0-29.49,12.73-29.49,28.44V236.52a7,7,0,0,0,7,7h0V101.07c0-11.82,10.09-21.44,22.49-21.44H242.08"/><path class="cls-7" d="M57.65,131.84h9.57a4.67,4.67,0,0,1,4.67,4.67v9.57a4.66,4.66,0,0,1-4.66,4.66H57.65A4.67,4.67,0,0,1,53,146.07v-9.57A4.66,4.66,0,0,1,57.65,131.84Z"/><rect class="cls-7" x="52.98" y="106.82" width="18.9" height="18.89" rx="4.66"/><rect class="cls-7" x="78" y="206.9" width="18.9" height="18.89" rx="4.66"/><path class="cls-7" d="M82.67,181.88h9.56a4.67,4.67,0,0,1,4.67,4.67v9.57a4.66,4.66,0,0,1-4.66,4.66H82.67A4.66,4.66,0,0,1,78,196.11v-9.57A4.67,4.67,0,0,1,82.67,181.88Z"/><path class="cls-7" d="M82.67,131.84h9.56a4.67,4.67,0,0,1,4.67,4.67v9.57a4.66,4.66,0,0,1-4.66,4.66H82.67A4.66,4.66,0,0,1,78,146.08v-9.57A4.67,4.67,0,0,1,82.67,131.84Z"/><rect class="cls-7" x="78" y="106.82" width="18.9" height="18.89" rx="4.66"/><rect class="cls-7" x="103.02" y="231.92" width="18.9" height="18.89" rx="4.66"/><rect class="cls-7" x="103.02" y="206.9" width="18.9" height="18.89" rx="4.66"/><rect class="cls-7" x="128.04" y="231.92" width="18.9" height="18.89" rx="4.66"/><rect class="cls-7" x="128.04" y="206.9" width="18.9" height="18.89" rx="4.66"/><rect class="cls-7" x="153.06" y="231.92" width="18.9" height="18.89" rx="4.66"/><rect class="cls-7" x="153.06" y="206.9" width="18.9" height="18.89" rx="4.66"/><rect class="cls-7" x="178.08" y="231.92" width="18.9" height="18.89" rx="4.66"/><rect class="cls-7" x="178.08" y="206.9" width="18.9" height="18.89" rx="4.66"/><rect class="cls-7" x="203.1" y="206.9" width="18.9" height="18.89" rx="4.66"/><path class="cls-7" d="M207.77,181.88h9.57a4.67,4.67,0,0,1,4.67,4.67v9.57a4.66,4.66,0,0,1-4.66,4.66h-9.57a4.67,4.67,0,0,1-4.67-4.67v-9.57A4.66,4.66,0,0,1,207.77,181.88Z"/><path class="cls-7" d="M207.77,131.84h9.57a4.67,4.67,0,0,1,4.67,4.67v9.57a4.66,4.66,0,0,1-4.66,4.66h-9.57a4.67,4.67,0,0,1-4.67-4.67v-9.57A4.66,4.66,0,0,1,207.77,131.84Z"/><rect class="cls-7" x="203.1" y="106.82" width="18.9" height="18.89" rx="4.66"/><path class="cls-7" d="M232.79,131.84h9.57a4.67,4.67,0,0,1,4.67,4.67v9.57a4.66,4.66,0,0,1-4.66,4.66h-9.57a4.67,4.67,0,0,1-4.67-4.67v-9.57A4.66,4.66,0,0,1,232.79,131.84Z"/><rect class="cls-7" x="228.12" y="106.82" width="18.9" height="18.89" rx="4.66"/><path class="cls-8" d="M244.24,242.62c-10.9,10.9-30.24,9.23-35.94,3.53s-2.81-20.48,8.09-31.38,24.4-15.07,31.38-8.09S255.14,231.72,244.24,242.62Z"/><circle class="cls-8" cx="243.87" cy="181.51" r="12.74"/><path class="cls-8" d="M50.89,95.51C61.79,84.61,84.43,84.27,86.82,92c2.16,7-7.22,10.45-18.12,21.35s-12.78,20-21.35,18.12C37.7,129.35,40,106.41,50.89,95.51Z"/><circle class="cls-8" cx="47.33" cy="147.1" r="8.13"/></g></svg>