<svg id="Layer_1" data-name="Layer 1" xmlns="http://www.w3.org/2000/svg" xmlns:xlink="http://www.w3.org/1999/xlink" viewBox="0 0 300 345"><defs><style>.cls-1{fill:none;}.cls-2{fill:#348e53;}.cls-3{fill:#1a673d;}.cls-4{fill:url(#linear-gradient);}.cls-5{fill:url(#New_Pattern_2);}.cls-6{fill:url(#linear-gradient-2);}.cls-7{fill:#4ab96d;}.cls-8{fill:url(#New_Pattern);}.cls-9{fill:url(#linear-gradient-3);}.cls-10{fill:#ce2235;}.cls-11{fill:#f1f2f2;}.cls-12{fill:#231f20;}.cls-13{fill:#8e191b;}.cls-14{fill:#192314;}.cls-15{fill:#8c141c;}.cls-16{fill:#ad1d25;}</style><linearGradient id="linear-gradient" x1="150" y1="356.11" x2="150" y2="161.16" gradientUnits="userSpaceOnUse"><stop offset="0" stop-color="#4ab96d"/><stop offset="0.69" stop-color="#1a673d"/></linearGradient><pattern id="New_Pattern_2" data-name="New Pattern 2" width="90.34" height="158.73" patternUnits="userSpaceOnUse" viewBox="0 0 90.34 158.73"><rect class="cls-1" width="90.34" height="158.73"/><circle class="cls-3" cx="99.32" cy="161.97" r="18"/><circle class="cls-3" cx="8.98" cy="161.97" r="18"/><circle class="cls-3" cx="54.15" cy="82.61" r="18"/><circle class="cls-3" cx="99.32" cy="3.24" r="18"/><circle class="cls-3" cx="8.98" cy="3.24" r="18"/></pattern><linearGradient id="linear-gradient-2" x1="150" y1="370.49" x2="150" y2="235.5" gradientUnits="userSpaceOnUse"><stop offset="0" stop-color="#ce2235"/><stop offset="0.65" stop-color="#8e191b"/></linearGradient><pattern id="New_Pattern" data-name="New Pattern" width="90.34" height="158.73" patternUnits="userSpaceOnUse" viewBox="0 0 90.34 158.73"><rect class="cls-1" width="90.34" height="158.73"/><circle class="cls-2" cx="99.32" cy="161.97" r="18"/><circle class="cls-2" cx="8.98" cy="161.97" r="18"/><circle class="cls-2" cx="54.15" cy="82.61" r="18"/><circle class="cls-2" cx="99.32" cy="3.24" r="18"/><circle class="cls-2" cx="8.98" cy="3.24" r="18"/></pattern><linearGradient id="linear-gradient-3" x1="150" y1="335.15" x2="150" y2="229.98" xlink:href="#linear-gradient-2"/></defs><title>blook_present</title><path class="cls-4" d="M263.62,345H36.38A36.38,36.38,0,0,1,0,308.62V259.14H300v49.48A36.38,36.38,0,0,1,263.62,345Z"/><path class="cls-5" d="M263.62,345H36.38A36.38,36.38,0,0,1,0,308.62V259.14H300v49.48A36.38,36.38,0,0,1,263.62,345Z"/><path class="cls-6" d="M263.62,312.25H36.38A36.38,36.38,0,0,1,0,275.87v23.07a36.38,36.38,0,0,0,36.38,36.38H263.62A36.38,36.38,0,0,0,300,298.94V275.87A36.38,36.38,0,0,1,263.62,312.25Z"/><rect class="cls-7" y="45" width="300" height="253.39" rx="36.38"/><rect class="cls-8" y="45" width="300" height="253.39" rx="36.38"/><rect class="cls-9" x="102.45" y="287.82" width="95.09" height="57.18"/><rect class="cls-10" x="102.45" y="45" width="95.09" height="253.39"/><path class="cls-11" d="M66,107,37.83,118.23a5.23,5.23,0,0,0-3.19,3.85L17.23,211.3a5.21,5.21,0,0,0,4.12,6.12l50.05,9.77a5.22,5.22,0,0,0,6.13-4.12l17.41-89.22a5.21,5.21,0,0,0-1.5-4.76L71.57,108A5.21,5.21,0,0,0,66,107Zm-3.07,10.39c7.14-2.45,12.45,5.46,7.46,11.15a4.83,4.83,0,0,1-2.05,1.36c-7.14,2.45-12.45-5.46-7.45-11.15A4.8,4.8,0,0,1,62.94,117.34Z"/><path class="cls-12" d="M20.45,210l1-5.19.79.32-.83,4.28,6.08,2.42.77-4,.79.31-.78,4,7.08,2.8-.17.88Z"/><path class="cls-12" d="M36.46,209.23l-7-2.77a26.08,26.08,0,0,0-3.52-1.12l.16-.82a21.75,21.75,0,0,1,2.14.6v0c-1.2-.87-2.06-2-1.83-3.2l0-.2,1,.37v.07c-.31,1.59,1.86,3.3,3.3,3.88l5.92,2.34Z"/><path class="cls-12" d="M30.93,196.52c2.34.45,7.67,2.58,7,5.94-.3,1.54-1.94,1.91-4.07,1.5-2.48-.48-7.36-2.74-6.74-6C27.5,196.16,29.51,196.25,30.93,196.52Zm3,6.45c1.52.29,3,.46,3.27-.88.46-2.38-4.58-4.27-6.35-4.61-1.39-.26-2.63-.29-2.85.84C27.53,200.5,31.59,202.53,33.88,203Z"/><path class="cls-12" d="M38.77,197.21,32,194.53c-1.71-.68-3-1.06-3.73-1.3l.16-.82,1.86.6v0c-1.34-1.22-1.72-2.28-1.55-3.17.23-1.2,1.34-1.5,2.39-1.32-1.32-1.2-1.69-2.33-1.52-3.21.23-1.21,1.35-1.51,2.39-1.31a10,10,0,0,1,1.8.58l6.9,2.72-.17.89-7-2.76a8.82,8.82,0,0,0-1.69-.52c-.77-.14-1.31.08-1.45.81-.23,1.22,1.34,2.91,3.4,3.73l6,2.39-.17.88-7-2.76A8.71,8.71,0,0,0,31,189.4c-.77-.15-1.31.08-1.45.8-.22,1.14,1.43,3,3.39,3.74l6,2.38Z"/><path class="cls-12" d="M40.58,184.31a1,1,0,0,1-.81-1.05.73.73,0,0,1,1-.57,1,1,0,0,1,.83,1.06A.75.75,0,0,1,40.58,184.31ZM32,180.92a1,1,0,0,1-.81-1,.73.73,0,0,1,1-.57,1,1,0,0,1,.83,1.06A.75.75,0,0,1,32,180.92Z"/><path class="cls-13" d="M50.21,196.57a14.89,14.89,0,0,1,7.44-.67c2.68.52,12.26,3.79,10.09,15-.1.53-.24,1.06-.38,1.59l.18.08c.42.12.83.24,1.21.31a9.34,9.34,0,0,0,7.42-1.79c.28-.22.86-.75,1.09-.7s.32.18.27.45-.39.56-.9,1a9.66,9.66,0,0,1-7.84,1.91,9,9,0,0,1-1.4-.39l-.29-.13a8.17,8.17,0,0,1-9.74,5.43,13.12,13.12,0,0,1-1.63-.43c-4.47-1.54-7.54-6.66-6.67-11.14.51-2.65,1.42-3.66,2.74-4.56a.72.72,0,0,1,.41-.08l.08,0a.41.41,0,0,1,.27.45.51.51,0,0,1-.36.4c-.62.36-1.84,1.12-2.39,4a9.58,9.58,0,0,0,6.07,10.15,11.35,11.35,0,0,0,1.51.41,7.6,7.6,0,0,0,9-4.94c-5.83-2.56-10.37-9.11-14.63-13.79-2,.25-3.62.66-5.23.35-1.8-.35-4.14-1.84-3.61-4.59.25-1.27,1.19-1.6,2.34-1.38a2.73,2.73,0,0,1,.56.15A12.16,12.16,0,0,1,50.21,196.57Zm2.42,2.5c4.23,4.63,8.64,10.8,14,13.14.14-.49.27-1,.37-1.52,1.42-7.35-6.78-10.76-10.19-11.42A14.4,14.4,0,0,0,52.63,199.07Zm-3.26-2.3a10.76,10.76,0,0,0-3.72-2.35,2.56,2.56,0,0,0-.49-.13c-.92-.18-1.39.21-1.49.74-.19,1,1.25,1.76,2.48,2A7.37,7.37,0,0,0,49.37,196.77Z"/><path class="cls-13" d="M63.19,175.4a.86.86,0,0,1,.22.08c2.7,1.47,7.36,4.68,6.68,8.2a3.27,3.27,0,0,1-3.26,2.71,4.78,4.78,0,0,1,1.79,5c-.41,2.11-2.42,4.3-6,3.61-3.76-.72-7.41-4-6.25-10a6.18,6.18,0,0,1,1.58-3.07c.62-.75,1.26-1.38,1.56-1.29a.5.5,0,0,1,.33.58c-.06.27-.61.48-1.33,1.34a6,6,0,0,0-1.4,2.71c-.68,3.52,3.64,5.86,6.62,6.44,1.84.35,3.89.27,4.2-1.38s-1-2.93-2.23-3.88a7.54,7.54,0,0,1-.81-.12,11.06,11.06,0,0,1-1.13-.3c-1.94-.65-4.16-1.52-3.85-3.12.13-.69,1-1.45,1.57-1.33.26.05,2,.82,2.95,1.16a21.48,21.48,0,0,0,2.41.71c1.15.22,2.15.13,2.32-.71.43-2.26-3.92-5.44-6-6.48a.59.59,0,0,1-.33-.58C62.84,175.37,63,175.37,63.19,175.4Z"/><path class="cls-13" d="M59.57,175.18a2.27,2.27,0,0,1-.93-2.17c.2-1,1.26-1.15,2.48-.91l.27.05a4.87,4.87,0,0,1-1.74-4.39c.48-2.45,1.59-3.7,4.2-3.2,1.53.3,4.44,1.65,6.24,2,1.27.24,2.14.05,2.29-.71.41-2.15-3.32-5-6-6.49a.58.58,0,0,1-.33-.58c0-.23.24-.23.4-.2a.86.86,0,0,1,.22.08c2.3,1.24,7.39,4.53,6.68,8.21-.47,2.45-1.91,3.32-4.7,2.78-1.88-.36-4.47-1.57-6.35-1.94-1.3-.25-1.66.2-1.76.74-.31,1.57,1.14,3.12,2.63,4.24L70,175a1.94,1.94,0,0,1,1.31,2.28,1.42,1.42,0,0,1-2,1.17Z"/><path class="cls-13" d="M56.68,156c-2.86-1.19-5.74-2.78-5.43-4.35.08-.42.36-.88.82-.75l5.22,1.76a31.91,31.91,0,0,0,.38-3.22c0-.12,0-.33,0-.52s.17-.48.48-.42h.08c.47.21.34,1.54-.18,4.42L67,156a45.37,45.37,0,0,0,4.6,1.44c1.31.25,2.39.18,2.56-.7.44-2.26-3.91-5.44-6-6.48a.57.57,0,0,1-.32-.58c0-.23.24-.23.39-.2a.71.71,0,0,1,.22.08c2.7,1.47,7.33,4.67,6.69,8.2-.53,2.76-2.86,3.07-5.54,2.55A31.85,31.85,0,0,1,65.31,159l-4.89-1.66c-.81-.31-1.89-.68-3-1.13l-.44,2.3c-.07.38,0,.66-.39.6l-.12,0c-.34-.11-.32-.42-.27-.65l0-.16Z"/><path class="cls-13" d="M71.59,131.81a.86.86,0,0,1,.22.08c2.7,1.47,7.36,4.68,6.68,8.2a3.28,3.28,0,0,1-3.26,2.71A4.78,4.78,0,0,1,77,147.75c-.41,2.11-2.42,4.3-6,3.61-3.76-.73-7.41-4.05-6.25-10a6.18,6.18,0,0,1,1.58-3.07c.62-.75,1.26-1.38,1.56-1.29a.5.5,0,0,1,.33.58c-.06.27-.61.48-1.33,1.34a6,6,0,0,0-1.4,2.71c-.68,3.52,3.64,5.86,6.63,6.44,1.83.35,3.88.27,4.19-1.38s-1-2.93-2.23-3.88a7.54,7.54,0,0,1-.81-.12,11.06,11.06,0,0,1-1.13-.3c-1.94-.65-4.16-1.52-3.85-3.12.13-.69.95-1.45,1.57-1.33.26.05,2,.82,3,1.16a21.48,21.48,0,0,0,2.41.71c1.15.22,2.16.13,2.32-.71.43-2.26-3.92-5.44-6-6.48a.59.59,0,0,1-.33-.58C71.24,131.78,71.43,131.78,71.59,131.81Z"/><path class="cls-1" d="M66.33,116.94a6.7,6.7,0,0,1,6,7.3,17.41,17.41,0,0,1-3.22-2.6A11.06,11.06,0,0,1,66.33,116.94Z"/><path class="cls-1" d="M70.12,128.76a4.65,4.65,0,0,1-1.77,1.09c-7.14,2.45-12.45-5.46-7.45-11.15a4.38,4.38,0,0,1,.54-.51,16,16,0,0,0,4.09,7A22.21,22.21,0,0,0,70.12,128.76Z"/><path class="cls-14" d="M100.44,115.85l3.62,3.46A49.44,49.44,0,0,1,92.3,128l-3.84-3.69A44.1,44.1,0,0,0,100.44,115.85Z"/><path class="cls-14" d="M61,109c2.35-16.55,18.91-35.44,19.86-36.51l3.74,3.31c-5.32,6-15.22,19.45-18,31a19.45,19.45,0,0,0-.2,10.16,11.06,11.06,0,0,0,2.76,4.7,17.41,17.41,0,0,0,3.22,2.6,7.54,7.54,0,0,1-1.91,4.25,3.57,3.57,0,0,1-.28.27,22.21,22.21,0,0,1-4.59-3.61,16,16,0,0,1-4.09-7A21.9,21.9,0,0,1,61,109Z"/><path class="cls-15" d="M139.27,51.77s21.59,36.59,22.38,55.35-12.45,40.63-4.18,55L180,132.58l4.9,32.63S216.12,125.32,202.7,97c-10.9-23-25.19-11-27.76-31.44"/><path class="cls-15" d="M160.73,51.77s-21.59,36.59-22.38,55.35,12.45,40.63,4.18,55L120,132.58l-4.9,32.63S83.88,125.32,97.3,97c10.9-23,25.19-11,27.76-31.44"/><path class="cls-10" d="M148.94,58.87s16.85,28.56,17.46,43.19-9.71,31.71-3.25,42.91l19.37-23,4.11,25.48s22.29-31.14,11.81-53.24c-8.5-18-19.65-8.61-21.66-24.53"/><path class="cls-16" d="M198.44,94.17c-8.5-18-19.65-8.61-21.66-24.53L148.94,58.87a225.71,225.71,0,0,1,11.88,23.62C172,90.6,187.11,95.63,200.1,98.68A27.21,27.21,0,0,0,198.44,94.17Z"/><path class="cls-10" d="M151.06,58.87s-16.85,28.56-17.46,43.19,9.71,31.71,3.25,42.91l-19.37-23-4.11,25.48s-22.29-31.14-11.81-53.24c8.5-18,19.65-8.61,21.66-24.53"/><path class="cls-16" d="M101.56,94.17c8.5-18,19.65-8.61,21.66-24.53l27.84-10.77a225.71,225.71,0,0,0-11.88,23.62C128,90.6,112.89,95.63,99.9,98.68A27.21,27.21,0,0,1,101.56,94.17Z"/><path class="cls-10" d="M221,7.18c5.81,6.51,6.93,16.86,3.62,25.48a33.9,33.9,0,0,0-2.33,12,33.89,33.89,0,0,0,2.33,12c3.31,8.62,2.19,19-3.62,25.48-5,5.58-12.13,8.4-19.55,6.68-24-5.59-55.72-17.93-55.72-44.12S177.43,6.09,201.45.5C208.87-1.22,216,1.6,221,7.18Z"/><path class="cls-10" d="M79,7.18C73.19,13.69,72.07,24,75.38,32.66a33.9,33.9,0,0,1,2.33,12,33.89,33.89,0,0,1-2.33,12c-3.31,8.62-2.19,19,3.62,25.48,5,5.58,12.13,8.4,19.55,6.68,24-5.59,55.72-17.93,55.72-44.12S122.57,6.09,98.55.5C91.13-1.22,84,1.6,79,7.18Z"/><ellipse class="cls-15" cx="149.83" cy="44.63" rx="24.03" ry="23.34"/><path class="cls-15" d="M194.09,27.28a89.81,89.81,0,0,1-7.8,6.11c-2.67,1.89-5.39,3.67-8.15,5.39s-5.57,3.33-8.39,4.91L165.48,46l-4.33,2.2L161,41c2.89,1.34,5.76,2.71,8.59,4.17s5.64,3,8.41,4.56,5.5,3.26,8.19,5a91.23,91.23,0,0,1,7.87,5.74,92.19,92.19,0,0,1-9.49-2.2c-3.1-.87-6.15-1.85-9.17-2.89s-6-2.18-9-3.37-5.87-2.46-8.77-3.77L150,44.77l7.61-3.72,4.36-2.13,4.41-2c3-1.31,5.94-2.59,9-3.76s6.09-2.28,9.21-3.28A93.24,93.24,0,0,1,194.09,27.28Z"/><path class="cls-15" d="M105.58,27.28a93.24,93.24,0,0,1,9.56,2.57c3.12,1,6.18,2.11,9.21,3.28s6,2.45,9,3.76l4.41,2,4.36,2.13,7.61,3.72L142,48.26c-2.9,1.31-5.82,2.58-8.77,3.77s-5.94,2.32-9,3.37-6.07,2-9.17,2.89a92.19,92.19,0,0,1-9.49,2.2,91.23,91.23,0,0,1,7.87-5.74c2.69-1.77,5.42-3.43,8.19-5s5.58-3.11,8.41-4.56,5.7-2.83,8.59-4.17l-.12,7.21L134.19,46l-4.27-2.31c-2.82-1.58-5.64-3.19-8.39-4.91s-5.49-3.5-8.15-5.39A89.81,89.81,0,0,1,105.58,27.28Z"/><ellipse class="cls-10" cx="149.83" cy="44.63" rx="17.34" ry="16.84"/></svg>