<svg id="Layer_1" data-name="Layer 1" xmlns="http://www.w3.org/2000/svg" xmlns:xlink="http://www.w3.org/1999/xlink" viewBox="0 0 300.03 345"><defs><style>.cls-1{fill:#e6f4fc;}.cls-2{fill:#abe1f4;}.cls-3{fill:#6dafcc;}.cls-4{fill:url(#linear-gradient);}.cls-5{fill:#6f7f9d;}.cls-6{fill:#56647a;}.cls-7{fill:url(#radial-gradient);}.cls-8{fill:#164b7f;}.cls-9{fill:#3d495b;}.cls-10{fill:#263144;}.cls-11{fill:#95a6bf;}.cls-12,.cls-13,.cls-14{fill:#337ae2;}.cls-13,.cls-14{stroke:#263144;stroke-linecap:round;stroke-linejoin:round;}.cls-13{stroke-width:7.53px;}.cls-14{stroke-width:9.3px;}.cls-15{fill:#adb6c8;}.cls-16{fill:#2468ba;}.cls-17{fill:#fff;}.cls-18{fill:#6ba9f2;}.cls-19{fill:#cdd4e0;}</style><linearGradient id="linear-gradient" x1="150" y1="554.76" x2="150" y2="388.88" gradientTransform="translate(0 -154)" gradientUnits="userSpaceOnUse"><stop offset="0" stop-color="#6f7f9d"/><stop offset="1" stop-color="#3b4656"/></linearGradient><radialGradient id="radial-gradient" cx="-274.71" cy="-645" r="41.84" gradientTransform="matrix(1.93, 0, 0, -2, 679.85, -1045.97)" gradientUnits="userSpaceOnUse"><stop offset="0" stop-color="#414042"/><stop offset="1" stop-color="#6f7f9d" stop-opacity="0"/></radialGradient></defs><path class="cls-1" d="M242.4,109.3,255.7,78l16-25.6h11.5S295,72.8,295.6,73.2s-2.1,27.7-2.1,27.7L278,132.7Z"/><path class="cls-2" d="M237,112.9c.6-2.5,1.3-5.1,2.2-7.8l1.5-4.2c.6-1.6,1.2-3.2,1.9-4.8l1.5-3.6c5.4-13.1,10.8-26.4,17.7-34.9a19.5,19.5,0,0,1,5.5,1.2,15.09,15.09,0,0,1,2.8,1.5,23.33,23.33,0,0,1,6.9,7.9,39.13,39.13,0,0,1,3.7,9.6,53,53,0,0,1,1.7,10.8,76,76,0,0,1-1.8,21.5A85.52,85.52,0,0,1,277,122a80.87,80.87,0,0,1-5.1,10.2,67.27,67.27,0,0,1-13.4,16.7,19,19,0,0,1-4.1.4,18.72,18.72,0,0,1-7.1-1.4C235.6,143,232.9,130.3,237,112.9Z"/><path class="cls-3" d="M247.4,147.8a17.31,17.31,0,0,0,7.1,1.4,19.63,19.63,0,0,0,4.1-.4c13.1-2.5,27.4-16.4,35.6-36.2a77.22,77.22,0,0,0,5.5-33.3A59.51,59.51,0,0,0,298,68.5a37.63,37.63,0,0,0-3.7-9.6c-2.5-4.5-5.8-7.8-9.7-9.4a20.54,20.54,0,0,0-6.6-1.2c-6.3,0-11.5,3.6-16.1,9.3-6.9,8.6-12.3,21.8-17.7,34.9l-1.5,3.6c-.7,1.6-1.3,3.2-1.9,4.8a35.23,35.23,0,0,0-1.5,4.2c-.8,2.7-1.6,5.3-2.2,7.8C232.9,130.3,235.6,143,247.4,147.8Zm-2.6-33c.6-2.5,1.4-5.1,2.3-7.8.8-2.2,1.6-4.5,2.6-6.9.1-.3.3-.6.4-.9.5-1.3,1.1-2.6,1.6-3.9s1-2.5,1.5-3.7c4.9-11.9,10.6-24.8,16.9-31.2,2.5-2.5,5.1-4,7.8-4h0a10.07,10.07,0,0,1,3.7.7c2.9,1.3,5.6,4.9,7.4,10a47.86,47.86,0,0,1,2.4,10.5,62.67,62.67,0,0,1-1,20,62.15,62.15,0,0,1-3.7,12.1c-.2.3-.3.7-.5,1a66.63,66.63,0,0,1-14.4,21.5c-6.2,6-12.6,9.1-17.5,9.1a10.57,10.57,0,0,1-4-.8c-3-1.3-6.5-3.7-7-11.7A53,53,0,0,1,244.8,114.8Z"/><path class="cls-3" d="M237,112.9c.9.3,1.8.7,2.8,1,.2,0,.3.1.5.1s2,.4,4.5.7a105.84,105.84,0,0,0,14.5,1c8.5,0,18.5-1.1,26.8-5.2a29.39,29.39,0,0,0,11.6-9.7,72.51,72.51,0,0,0,1.8-21.5c-1.8,4.5-4.2,9.4-7,14.9a17.68,17.68,0,0,1-2.1,3.2c-9.8,12.2-32.9,10.9-43.2,9.6-2.5-.3-4.3-.6-4.9-.7a24.88,24.88,0,0,1-2.9-1.1C238.5,107.8,237.7,110.4,237,112.9Zm54.3-35.5a82.71,82.71,0,0,0,6.5-8.8,37.63,37.63,0,0,0-3.7-9.6,87.67,87.67,0,0,1-5.1,8.1c-7.3,10.3-19,21.5-35.8,24.4a30.62,30.62,0,0,1-5.4.7l-3.6.3-1.5,3.6c-.7,1.6-1.3,3.2-1.9,4.8,2-.3,4.5-.5,7.5-.7.4,0,.9-.1,1.4-.1C268.7,98.5,282.2,88.2,291.3,77.4Z"/><path class="cls-4" d="M263.6,345H36.4A36.4,36.4,0,0,1,0,308.6H0V255.2H300v53.4A36.4,36.4,0,0,1,263.6,345Z"/><path class="cls-1" d="M22,132.7,6.5,100.9S3.8,73.6,4.4,73.2,16.8,52.4,16.8,52.4H28.3L44.3,78l13.3,31.3Z"/><path class="cls-2" d="M52.7,147.9a18.72,18.72,0,0,1-7.1,1.4,19,19,0,0,1-4.1-.4,67.27,67.27,0,0,1-13.4-16.7A80.87,80.87,0,0,1,23,122a85.52,85.52,0,0,1-3.6-11.9,76,76,0,0,1-1.8-21.5,53,53,0,0,1,1.7-10.8A39.13,39.13,0,0,1,23,68.2a23.33,23.33,0,0,1,6.9-7.9,15.09,15.09,0,0,1,2.8-1.5,19.5,19.5,0,0,1,5.5-1.2c6.9,8.5,12.3,21.8,17.7,34.9l1.5,3.6c.7,1.6,1.3,3.2,1.9,4.8l1.5,4.2c.9,2.7,1.6,5.3,2.2,7.8C67.1,130.3,64.4,143,52.7,147.9Z"/><path class="cls-3" d="M62.9,112.9c-.6-2.5-1.4-5.1-2.2-7.8a35.23,35.23,0,0,0-1.5-4.2c-.6-1.6-1.2-3.2-1.9-4.8l-1.5-3.6C50.4,79.4,45,66.2,38.1,57.6c-4.6-5.7-9.8-9.3-16.1-9.3a20.54,20.54,0,0,0-6.6,1.2c-3.9,1.6-7.2,4.9-9.7,9.4A37.63,37.63,0,0,0,2,68.5,59.51,59.51,0,0,0,.3,79.3a72.51,72.51,0,0,0,1.8,21.5,73.18,73.18,0,0,0,3.7,11.8c8.2,19.8,22.5,33.7,35.6,36.2a19.63,19.63,0,0,0,4.1.4,17.31,17.31,0,0,0,7.1-1.4C64.4,143,67.1,130.3,62.9,112.9Zm-6.2,15.9c-.5,8-4,10.4-7,11.7a10.57,10.57,0,0,1-4,.8c-4.9,0-11.3-3.1-17.5-9.1a66.63,66.63,0,0,1-14.4-21.5c-.2-.3-.3-.7-.5-1A62.15,62.15,0,0,1,9.6,97.6a62.67,62.67,0,0,1-1-20A47.86,47.86,0,0,1,11,67.1c1.8-5.1,4.5-8.7,7.4-10a10.07,10.07,0,0,1,3.7-.7h0c2.7,0,5.3,1.5,7.8,4,6.3,6.4,12,19.3,16.9,31.2.5,1.2,1,2.5,1.5,3.7s1.1,2.6,1.6,3.9c.1.3.3.6.4.9,1,2.4,1.8,4.7,2.6,6.9.9,2.7,1.7,5.3,2.3,7.8A53,53,0,0,1,56.7,128.8Z"/><path class="cls-3" d="M60.6,105.2a24.88,24.88,0,0,1-2.9,1.1c-.6.1-2.4.4-4.9.7-10.3,1.3-33.4,2.6-43.2-9.6a17.68,17.68,0,0,1-2.1-3.2C4.7,88.7,2.3,83.8.5,79.3a72.51,72.51,0,0,0,1.8,21.5,29.39,29.39,0,0,0,11.6,9.7c8.3,4.1,18.3,5.2,26.8,5.2a105.84,105.84,0,0,0,14.5-1c2.5-.3,4.2-.7,4.5-.7s.3-.1.5-.1c1-.3,1.9-.7,2.8-1C62.3,110.4,61.5,107.8,60.6,105.2Zm-10.3-5.1c.5,0,1,.1,1.4.1,3,.2,5.5.4,7.5.7-.6-1.6-1.2-3.2-1.9-4.8l-1.5-3.6-3.6-.3a30.62,30.62,0,0,1-5.4-.7C30,88.6,18.3,77.4,11,67.1A87.67,87.67,0,0,1,5.9,59a37.63,37.63,0,0,0-3.7,9.6,82.71,82.71,0,0,0,6.5,8.8C17.8,88.2,31.3,98.5,50.3,100.1Z"/><path class="cls-5" d="M300,195.5v66.1A36.4,36.4,0,0,1,263.6,298H36.4A36.4,36.4,0,0,1,0,261.6V195.5c0-33.1,15.7-63.2,41.4-85.4.5-.5,1.1-.9,1.6-1.4,18.9-15.8,42.9-27.5,69.9-33.2A176.1,176.1,0,0,1,139.4,72c3.5-.2,7.1-.3,10.7-.3,46.6,0,88.2,17.5,115.7,45a.1.1,0,0,0,.1.1C287.2,138.2,300,165.6,300,195.5Z"/><path class="cls-6" d="M257,108.7c-18.9-15.9-42.9-27.6-69.9-33.2A176.1,176.1,0,0,0,160.6,72a14.7,14.7,0,0,1-1,1.3A102.52,102.52,0,0,0,150,88a96.2,96.2,0,0,0-9.6-14.7c-.3-.4-.7-.9-1-1.3a176.1,176.1,0,0,0-26.5,3.5c-27,5.7-51,17.4-69.9,33.2-.5.5-1.1.9-1.6,1.4a15.93,15.93,0,0,0,1.3,1.3c18.5,17.8,42.5,31.1,54,54.4a526.87,526.87,0,0,1,21.4,50s1,16.7,31.8,25c30.8-8.3,31.8-25,31.8-25a526.87,526.87,0,0,1,21.4-50c11.5-23.3,35.5-36.6,54-54.4a15.93,15.93,0,0,0,1.3-1.3A9.16,9.16,0,0,0,257,108.7Z"/><ellipse class="cls-7" cx="150" cy="245.7" rx="80.7" ry="83.8"/><path class="cls-8" d="M247.8,25.9l6.4-7.6L239.3,4V3.9h0C209,17.6,188.1,34.2,174.1,48.5h0c-7,6.7-24.1,23.2-24.1,23.2s-17.1-16.5-24.1-23.2h0C111.9,34.2,91,17.6,60.7,3.9L45.8,18.4,52.2,26l.6.1c-5.2,17.5-9.5,40.9,0,52.1,16.3,19.2,40.5,31.6,51.5,55.2S122.7,179,122.7,179s.9,15.2,27.3,22.8c26.4-7.6,27.3-22.8,27.3-22.8s7.4-22,18.4-45.6,35.2-36,51.5-55.2c9.5-11.2,5.2-34.5,0-52.1Z"/><path class="cls-6" d="M101.9,218.6c-9,24.6-34.3,36.4-56.4,26.4s-32.8-38-23.8-62.5h0C30.6,157.9,110.9,194,101.9,218.6Z"/><path class="cls-9" d="M75.6,326.7a9.7,9.7,0,0,1-6.3,2c-5.1,0-11.2-2.7-16.2-5.5a89.54,89.54,0,0,1-9.4-6.2c-.4,4.7-2.2,8.5-5.8,10.3a8.72,8.72,0,0,1-4,.9c-9.4,0-22.8-11.7-28.9-23.6a48.49,48.49,0,0,1-5-20.1v-3.4c.2-4,1.2-13.7,7.1-16.7a7.22,7.22,0,0,1,3.2-.8c-.5-5.2,0-10.4,3.4-13.3,6-5,15.8,1.7,22.7,7.2a174.75,174.75,0,0,1,24.1,23.9C74.2,297.9,84.8,319.1,75.6,326.7Z"/><path class="cls-9" d="M300,281.1c-.2-4-1.2-13.7-7.1-16.7a7.22,7.22,0,0,0-3.2-.8c.6-5.2.1-10.5-3.4-13.3-6-5-15.8,1.7-22.7,7.2a180.57,180.57,0,0,0-24.1,23.9c-13.7,16.5-24.3,37.7-15.2,45.3a9.8,9.8,0,0,0,6.2,2c6.9,0,16.6-4.7,25.7-11.6.4,4.7,2.2,8.5,5.8,10.3a8.46,8.46,0,0,0,4.1.9c4.9,0,10.1-3.2,13.3-5.5a52.93,52.93,0,0,0,15.5-18.1A49.71,49.71,0,0,0,300,281.1Z"/><path class="cls-10" d="M99.7,224.3a42.14,42.14,0,1,1-78.1-31.7c2.1-5.1,8-7.2,15.7-7.2,10.7,0,24.8,4.1,36.9,10,7.7,3.7,14.6,8.2,19.4,12.9C99,213.6,101.7,219.2,99.7,224.3Z"/><ellipse class="cls-11" cx="60.15" cy="266.53" rx="13.9" ry="20.4" transform="translate(-212.03 290.5) rotate(-82.32)"/><path class="cls-12" d="M45.8,18.4s-9.2,58.8,7,78,40.5,31.6,51.5,55.2,18.4,45.6,18.4,45.6.9,15.2,27.3,22.8V105.9S125.8,51.5,45.8,18.4Z"/><path class="cls-6" d="M198.1,218.6c9,24.6,34.3,36.4,56.4,26.4s32.8-38,23.8-62.5h0C269.4,157.9,189.1,194,198.1,218.6Z"/><path class="cls-13" d="M34,284.7c7,13.8,8,27.4,2.2,30.3s-20.8-7.3-27.8-21.1-5.4-32.2.4-35.2S27,270.9,34,284.7Z"/><path class="cls-9" d="M200.5,264.4a38.08,38.08,0,0,0-4.5-7.6,50.07,50.07,0,0,0-5.7-6.5,8.26,8.26,0,0,1,.7,1.3c-10-12.5-27-19.9-41-2.4-14-17.5-31-10.2-41,2.4.2-.4.5-.9.7-1.3a44.24,44.24,0,0,0-5.7,6.5,38.08,38.08,0,0,0-4.5,7.6,17.58,17.58,0,0,0-1.6,9.5,21.54,21.54,0,0,0,1.2,4.7c.5,1.4,1,2.8,1.6,4.2a161.42,161.42,0,0,0,7.7,15.6,166.15,166.15,0,0,0,9.2,14.9,71.73,71.73,0,0,0,5.7,7.2,33.19,33.19,0,0,0,3.8,3.6,15.64,15.64,0,0,0,3,1.9c.3.2.8.3,1.1.5s.5.1.7.2.5.1.8.2.6.1.9.1h1.1c.5,0,.5,0,.7-.1l.5-.1a12.86,12.86,0,0,0,1.9-.4,8.65,8.65,0,0,0,1.7-.7,12.9,12.9,0,0,0,1.6-.9,7.1,7.1,0,0,0,1.4-1,15.84,15.84,0,0,0,2.2-2.3l.9-1.2a5.39,5.39,0,0,0,.7-1.3l.6-1.2c.2-.4.3-.8.5-1.2a23.4,23.4,0,0,0,.9-2.4l.8-2.3.6-2.3a11.63,11.63,0,0,0,.4-1.8,11.63,11.63,0,0,0,.4,1.8l.6,2.3.8,2.3a23.4,23.4,0,0,0,.9,2.4c.2.4.3.8.5,1.2l.6,1.2c.2.4.4.8.7,1.3l.9,1.2a15.84,15.84,0,0,0,2.2,2.3,7.1,7.1,0,0,0,1.4,1c.5.3,1,.6,1.6.9s1.1.5,1.7.7a10.62,10.62,0,0,0,1.9.4l.5.1a2.64,2.64,0,0,1,.7.1h1.1c.3,0,.6-.1.9-.1a1.88,1.88,0,0,0,.8-.2c.2-.1.5-.1.7-.2a3.7,3.7,0,0,0,1.1-.5,15.64,15.64,0,0,0,3-1.9,26.55,26.55,0,0,0,3.8-3.6,71.73,71.73,0,0,0,5.7-7.2,166.15,166.15,0,0,0,9.2-14.9c2.8-5.1,5.4-10.3,7.7-15.6.6-1.4,1.1-2.7,1.6-4.2a21.54,21.54,0,0,0,1.2-4.7A22.38,22.38,0,0,0,200.5,264.4Z"/><path class="cls-14" d="M56.9,275.4c14.1,17,21.2,34.3,15.8,38.8s-27-7-41.1-24-20.3-40.8-14.9-45.3S42.8,258.5,56.9,275.4Z"/><ellipse class="cls-11" cx="239.91" cy="266.49" rx="20.4" ry="13.9" transform="translate(-33.48 34.47) rotate(-7.68)"/><path class="cls-10" d="M278.5,192.5h0a42.14,42.14,0,0,1-78.1,31.7C191.6,202.7,269.7,171,278.5,192.5Z"/><path class="cls-15" d="M150,237.8c-21.4-26.7-49.6,4.4-49.6,23.6l12.9,25.5,21.2,23.2,9.8-8.7,5.7-14.8,5.7,14.8,9.8,8.7,21.2-23.2,12.9-25.5C199.6,242.2,171.4,211,150,237.8Z"/><path class="cls-10" d="M190.3,238.9a44.24,44.24,0,0,1,5.7,6.5,38.08,38.08,0,0,1,4.5,7.6,17.58,17.58,0,0,1,1.6,9.5,21.54,21.54,0,0,1-1.2,4.7c-.5,1.4-1,2.8-1.6,4.2a161.42,161.42,0,0,1-7.7,15.6,166.15,166.15,0,0,1-9.2,14.9,71.73,71.73,0,0,1-5.7,7.2,33.19,33.19,0,0,1-3.8,3.6,15.64,15.64,0,0,1-3,1.9c-.3.2-.8.3-1.1.5s-.5.1-.7.2-.5.1-.8.2-.6.1-.9.1h-1.1c-.5,0-.5,0-.7-.1l-.5-.1a12.86,12.86,0,0,1-1.9-.4,8.65,8.65,0,0,1-1.7-.7,12.9,12.9,0,0,1-1.6-.9,7.1,7.1,0,0,1-1.4-1,15.84,15.84,0,0,1-2.2-2.3l-.9-1.2a5.39,5.39,0,0,1-.7-1.3l-.6-1.2c-.2-.4-.3-.8-.5-1.2a23.4,23.4,0,0,1-.9-2.4l-.8-2.3-.6-2.3c-.2-.8-.3-1.5-.5-2.3l-.4-2.3c-.2-1.5-.4-3-.5-4.5s-.2-3-.2-4.4v-4.4c.1-5.8.6-11.5,1.2-17.2.7,5.7,1.6,11.3,2.8,16.7l1.1,4,1.2,3.9c.4,1.3,1,2.5,1.4,3.8l.8,1.8a9.15,9.15,0,0,0,.9,1.7,12.83,12.83,0,0,0,4.5,5.4c.2.1.4.3.6.4l.6.3a6.89,6.89,0,0,0,1,.4c.6.1.9.3,1.2.3h-1l-.3.1c-.1,0-.1.1-.2.1s-.2.1-.1.1.3-.1.6-.3a18.1,18.1,0,0,0,2.5-2,73.27,73.27,0,0,0,5.5-5.6c3.6-4,7-8.4,10.4-12.8s6.6-9,9.5-13.6c.7-1.2,1.4-2.3,2.1-3.5a24.48,24.48,0,0,0,1.6-3.3,14.48,14.48,0,0,0,.1-7.2A52,52,0,0,0,190.3,238.9Z"/><path class="cls-16" d="M254.2,18.4s9.2,58.8-7,78-40.5,31.6-51.5,55.2-18.4,45.6-18.4,45.6-.9,15.2-27.3,22.8V105.9S174.2,51.5,254.2,18.4Z"/><path class="cls-13" d="M266,284.7c-7,13.8-8,27.4-2.2,30.3s20.8-7.3,27.8-21.1,5.4-32.2-.4-35.2S273,270.9,266,284.7Z"/><path class="cls-14" d="M243.1,275.4c-14.1,16.9-21.2,34.3-15.8,38.7s27-7,41.1-24,20.3-40.8,14.9-45.3S257.2,258.5,243.1,275.4Z"/><path class="cls-11" d="M100.6,188.3c-3.5,4.4-14.9,1.2-25.4-7.1s-24.8-26.9-21.3-31.4,23.5,7,34,15.4S104.1,183.9,100.6,188.3Z"/><path class="cls-10" d="M109.7,238.9c-2.9,4.9-5.4,10.1-6.5,15.3a14.48,14.48,0,0,0,.1,7.2,14.19,14.19,0,0,0,1.6,3.3c.7,1.2,1.4,2.3,2.1,3.5,2.9,4.7,6.2,9.2,9.5,13.6s6.8,8.8,10.4,12.8a73,73,0,0,0,5.5,5.6,31.07,31.07,0,0,0,2.5,2c.3.2.7.3.6.3l-.1-.1c-.1,0-.1-.1-.2-.1l-.3-.1h-1c.3,0,.6-.2,1.2-.3a6.89,6.89,0,0,0,1-.4l.6-.3c.2-.1.4-.3.6-.4a13.59,13.59,0,0,0,4.5-5.4c.3-.5.6-1.1.9-1.7l.8-1.8c.5-1.3,1-2.5,1.4-3.8s.9-2.6,1.2-3.9l1.1-4a157.24,157.24,0,0,0,2.8-16.7c.6,5.7,1.1,11.4,1.2,17.2v4.4c0,1.5-.1,2.9-.2,4.4s-.3,3-.5,4.5l-.4,2.3a18.92,18.92,0,0,1-.5,2.3l-.6,2.3-.8,2.3a23.4,23.4,0,0,1-.9,2.4c-.2.4-.3.8-.5,1.2l-.6,1.2c-.2.4-.4.8-.7,1.3l-.9,1.2a15.84,15.84,0,0,1-2.2,2.3,7.1,7.1,0,0,1-1.4,1c-.5.3-1,.6-1.6.9s-1.1.5-1.7.7a10.62,10.62,0,0,1-1.9.4l-.5.1a2.64,2.64,0,0,0-.7.1h-1.1c-.3,0-.6-.1-.9-.1a1.88,1.88,0,0,1-.8-.2c-.2-.1-.5-.1-.7-.2a3.7,3.7,0,0,1-1.1-.5,15.64,15.64,0,0,1-3-1.9,26.55,26.55,0,0,1-3.8-3.6,71.73,71.73,0,0,1-5.7-7.2,166.15,166.15,0,0,1-9.2-14.9c-2.8-5.1-5.4-10.3-7.7-15.6-.6-1.4-1.1-2.7-1.6-4.2a21.54,21.54,0,0,1-1.2-4.7,17.41,17.41,0,0,1,1.6-9.5,38.08,38.08,0,0,1,4.5-7.6A33.58,33.58,0,0,1,109.7,238.9Z"/><path class="cls-17" d="M93.5,208.2a13.8,13.8,0,1,1-19.3-12.9C81.8,199.1,88.7,203.5,93.5,208.2Z"/><circle class="cls-17" cx="46.2" cy="229.1" r="5.4"/><circle class="cls-17" cx="258.7" cy="208" r="13.8" transform="translate(12.18 430.3) rotate(-80.84)"/><circle class="cls-17" cx="225.3" cy="229.1" r="5.4"/><path class="cls-18" d="M59.2,71.5A4,4,0,0,1,51.9,70c-2-13-3.2-28.9,1.3-33.7,7.1-7.5,33,9.5,49.9,23.6a4,4,0,0,1-3.8,6.9C85.3,62.6,67,59.8,59.2,71.5Z"/><ellipse class="cls-19" cx="124.23" cy="246.78" rx="14.1" ry="10.3" transform="translate(-132.64 145.04) rotate(-41.67)"/><path class="cls-11" d="M199.4,188.3c3.5,4.4,14.9,1.2,25.4-7.1s24.8-26.9,21.3-31.4-23.5,7-34,15.4S195.9,183.9,199.4,188.3Z"/><path class="cls-18" d="M240.8,71.5a4,4,0,0,0,7.3-1.5c2-13,3.2-28.9-1.3-33.7-7.1-7.5-33,9.5-49.9,23.6a4,4,0,0,0,3.8,6.9C214.7,62.6,233,59.8,240.8,71.5Z"/><ellipse class="cls-19" cx="175.78" cy="246.82" rx="10.3" ry="14.1" transform="translate(-125.46 214.02) rotate(-48.33)"/><path class="cls-18" d="M116,177.7s30.6,13.4,33.9-61.7l.1,100.7C150,216.6,121.4,208.2,116,177.7Z"/><path class="cls-8" d="M189.3,165.9c-7.8,57.3-39.2,55.9-39.2,55.9H150s-31.5,1.4-39.2-55.9c0,0,17.5,45.3,39.2,45.5h.1C171.8,211.2,189.3,165.9,189.3,165.9Z"/></svg>