<svg id="Layer_1" data-name="Layer 1" xmlns="http://www.w3.org/2000/svg" xmlns:xlink="http://www.w3.org/1999/xlink" viewBox="0 0 300 345"><defs><style>.cls-1{fill:url(#linear-gradient);}.cls-2{fill:#295eb6;}.cls-3,.cls-7{fill:#699fcf;}.cls-4{fill:#2c5aba;}.cls-5{fill:#90cadd;}.cls-13,.cls-6,.cls-9{fill:#2d4a75;}.cls-6{opacity:0.6;}.cls-11,.cls-6,.cls-7,.cls-9{isolation:isolate;}.cls-7{opacity:0.5;}.cls-8{fill:#fff;}.cls-9{opacity:0.35;}.cls-10{fill:#163772;}.cls-11{fill:#91c8dd;opacity:0.82;}.cls-12{fill:#b8dae9;}.cls-14{fill:#1e2733;}.cls-15{fill:#1b3768;}</style><linearGradient id="linear-gradient" x1="150" y1="568.72" x2="150" y2="464.56" gradientTransform="translate(0 -197.85)" gradientUnits="userSpaceOnUse"><stop offset="0" stop-color="#2c5aba"/><stop offset="1" stop-color="#113160"/></linearGradient></defs><path class="cls-1" d="M300,262v46.62A36.43,36.43,0,0,1,278,342h0a36.61,36.61,0,0,1-6.92,2.19,35.73,35.73,0,0,1-5.54.71c-.63,0-1.27.05-1.91.05a9.83,9.83,0,0,1-1.62-.13,10.31,10.31,0,0,1-4.42-1.89l-.1-.07c-.52-.39-1-.77-1.57-1.14-1.12-.78-2.28-1.52-3.46-2.21-.49-.3-1-.58-1.49-.84s-1.14-.61-1.72-.9-1.05-.51-1.58-.75l-.35-.16c-.5-.22-1-.44-1.5-.64l-.39-.16c-.47-.19-.94-.37-1.42-.54l-1.25-.44-.77-.25c-.71-.23-1.43-.44-2.16-.64-.54-.15-1.1-.3-1.65-.43-1.62-.38-3.26-.69-4.92-.91l-1-.13-1-.11h-.08c-.67-.06-1.33-.11-2-.14h-1a52,52,0,0,0-32.43,9.76A14.68,14.68,0,0,1,188.3,345a17,17,0,0,1-2.26,0,14.59,14.59,0,0,1-6-1.81q-.75-.42-1.44-.9a51.77,51.77,0,0,0-28.6-9.77,51.77,51.77,0,0,0-28.6,9.77,14.41,14.41,0,0,1-1.34.85,15.32,15.32,0,0,1-3.18,1.34A15.68,15.68,0,0,1,114,345a17,17,0,0,1-2.26,0,14.58,14.58,0,0,1-3.45-.7,14,14,0,0,1-4-2,52,52,0,0,0-32.43-9.76h-1a13.36,13.36,0,0,0-2,.15h-.08l-1,.11-1,.13c-1.66.22-3.3.53-4.92.91-.55.13-1.11.27-1.65.42-.73.21-1.45.41-2.16.65l-.77.25-1.25.44c-.48.17-1,.35-1.42.54l-.39.16c-.5.2-1,.42-1.5.64l-.35.16c-.53.24-1.06.49-1.58.75s-1.15.58-1.72.9-1,.54-1.49.84c-1.18.69-2.34,1.43-3.46,2.21-.53.37-1,.75-1.57,1.14l-.1.07-.13.09a10.2,10.2,0,0,1-4.29,1.8,9.83,9.83,0,0,1-1.62.13h-2a35.73,35.73,0,0,1-5.54-.71A36.47,36.47,0,0,1,22,342h0A36.41,36.41,0,0,1,0,308.6V262a36.38,36.38,0,0,0,36.36,36.4H73.77c.78,0,1.56,0,2.33.05a54.14,54.14,0,0,1,12.2,1.91,52.86,52.86,0,0,1,15.94,7.43,15.26,15.26,0,0,0,17.16,0,52.81,52.81,0,0,1,15.93-7.43A54.26,54.26,0,0,1,150,298.39a54.26,54.26,0,0,1,12.67,1.93,52.81,52.81,0,0,1,15.93,7.43,15.26,15.26,0,0,0,17.16,0,52.86,52.86,0,0,1,15.94-7.43,54.14,54.14,0,0,1,12.2-1.91l39.72-.05A36.38,36.38,0,0,0,300,262Z"/><path class="cls-2" d="M300,81.36v194.5a36.37,36.37,0,0,1-22,33.42h0a36.61,36.61,0,0,1-6.92,2.19,35.73,35.73,0,0,1-5.54.71h-1.91a9.83,9.83,0,0,1-1.62-.13,10.31,10.31,0,0,1-4.42-1.89l-.1-.07c-.52-.39-1-.77-1.57-1.14-1.12-.78-2.28-1.52-3.46-2.21-.49-.3-1-.58-1.49-.84s-1.14-.61-1.72-.9-1.05-.51-1.58-.75l-.35-.16c-.5-.22-1-.44-1.5-.64l-.39-.16c-.47-.19-.94-.37-1.42-.54l-1.25-.44-.77-.25c-.71-.24-1.43-.44-2.16-.65-.54-.15-1.1-.29-1.65-.42-1.62-.38-3.26-.69-4.92-.91l-1-.13-1-.11h-.08c-.67-.06-1.33-.11-2-.15h-1a52,52,0,0,0-32.43,9.76,14.43,14.43,0,0,1-7.45,2.71,14.21,14.21,0,0,1-2.26,0,14.64,14.64,0,0,1-7.45-2.71,51.84,51.84,0,0,0-28.6-9.76,51.84,51.84,0,0,0-28.6,9.76,14.74,14.74,0,0,1-7.39,2.68,14.21,14.21,0,0,1-2.26,0,14.67,14.67,0,0,1-7.45-2.71,52,52,0,0,0-32.43-9.76h-1a13.36,13.36,0,0,0-2,.15h-.08l-1,.11-1,.13c-1.66.22-3.3.53-4.92.91-.55.13-1.11.27-1.65.42-.73.2-1.45.41-2.16.64l-.77.25-1.28.49c-.48.17-1,.35-1.42.54l-.39.16c-.5.2-1,.42-1.5.64l-.35.16c-.53.24-1.06.49-1.58.75s-1.15.58-1.72.9-1,.54-1.49.84c-1.18.69-2.34,1.43-3.46,2.21-.53.37-1,.75-1.57,1.14l-.1.07A10.29,10.29,0,0,1,38,312.11a9.83,9.83,0,0,1-1.62.13H34.47A34.8,34.8,0,0,1,22,309.29h0A36.39,36.39,0,0,1,0,276.47V81.36A36.38,36.38,0,0,1,36.36,45h25.8S44.22,49,33.59,64.65c-7.5,11.11-11.36,28.1-2.66,53.74,21,61.93,65.81,75.4,119.07,75.4s98.07-13.47,119.07-75.4c8.7-25.64,4.84-42.63-2.66-53.74C255.78,49,237.84,45,237.84,45h25.78A36.38,36.38,0,0,1,300,81.34Z"/><path class="cls-3" d="M0,263.33V169.07S15,49.25,42.07,222.69c14.64,93.91-8.69,91-31.91,64.92C6.3,283.27.64,274,0,263.33Z"/><path class="cls-3" d="M52.64,290.76c.6-26.07-4.9-101.39,6.28-107.4,10.6-5.71,42,64.46,53.21,102.78,2.69,9.19-1.31,19.36-17.46,9.8A33.66,33.66,0,0,0,73,292C62.25,293.31,52.56,302,52.64,290.76Z"/><path class="cls-3" d="M300,263.33V169.07s-15-119.82-42.07,53.62c-14.64,93.91,8.69,91,31.91,64.92C293.7,283.27,299.36,274,300,263.33Z"/><path class="cls-3" d="M247.36,290.76c-.6-26.07,4.9-101.39-6.28-107.4-10.6-5.71-42,64.46-53.21,102.78-2.69,9.19,1.31,19.36,17.46,9.8,6.53-3.87,14.31-4.92,21.64-4C237.75,293.31,247.44,302,247.36,290.76Z"/><path class="cls-4" d="M189.72,268.69h0C188.2,285.58,176.41,313.3,150,313.3s-38.21-27.77-39.72-44.66c-.42-4.69,0-8.54,1-10.72a4.86,4.86,0,0,1,.4-.7c1.65-2.41,5.48-4,10.1-5C133.38,249.85,150,251,150,251s16.62-1.09,28.21,1.38c4.62,1,8.45,2.54,10.1,5a4.86,4.86,0,0,1,.4.7h0C189.77,260.2,190.14,264,189.72,268.69Z"/><ellipse class="cls-5" cx="150" cy="272.17" rx="23.67" ry="31.27"/><path class="cls-6" d="M188.73,258c1,2.19,1.41,6,1,10.68v.05C179.61,274,166.42,277,150,277h0c-16.41,0-29.62-3-39.72-8.27-.42-4.69,0-8.54,1-10.72-15.35-7.54-23.79-20-25.62-34.37,3.62-24.8,32.72-48.09,64.37-48.09s60.76,23.29,64.38,48.09C212.59,238,204.13,250.46,188.73,258Z"/><path class="cls-4" d="M126,169.07c.15,4.3-12.12,23.11-16.87,26.29a3.64,3.64,0,0,1-.85.55c-4.44,2.2-16.64,1.2-16.64,1.2A89.55,89.55,0,0,1,71.9,153.49c-2.28-20,7.73-43,8.39-44.5a.09.09,0,0,0,0-.07C85.08,114,126,169.07,126,169.07Z"/><path class="cls-4" d="M214.8,217.51a49.54,49.54,0,0,1-.38,6.09C212.59,238,204.13,250.46,188.73,258c-10,4.89-22.83,7.72-38.69,7.72h0c-15.87,0-28.75-2.85-38.71-7.76C96,250.43,87.54,238,85.71,223.6a49.54,49.54,0,0,1-.38-6.09c0-26.63,30.92-53.23,64.75-53.23S214.8,190.88,214.8,217.51Z"/><path class="cls-5" d="M108.29,196a19.82,19.82,0,0,1-6.76,1.32c-.77.06-1.55.09-2.31.1h0c-4,.07-7.56-.22-7.56-.22A89.39,89.39,0,0,1,71.9,153.49c-2.29-20,7.73-43,8.39-44.5a90.19,90.19,0,0,0,1.78,20.8c.51,2.59,1.12,5.19,1.81,7.77C89.41,158.51,100.15,179,108.29,196Z"/><path class="cls-7" d="M108.3,342.09c0,.72,0,1.43-.06,2.14a14.29,14.29,0,0,1-4-2,52,52,0,0,0-32.43-9.76h-1a13.36,13.36,0,0,0-2,.15h-.08l-1,.11-1,.13c-1.66.22-3.3.53-4.92.91-.55.13-1.11.27-1.65.42-.73.2-1.45.41-2.16.64l-.77.25-1.25.44c-.48.17-1,.35-1.42.54l-.39.16c-.5.2-1,.42-1.5.64l-.35.16c-.53.24-1.06.49-1.58.75s-1.15.58-1.72.9-1,.54-1.49.84c-1.18.69-2.34,1.43-3.46,2.21-.53.37-1,.75-1.57,1.14l-.1.07-.13.09v-1c0-20.27,14.78-36.7,33-36.7S108.3,321.82,108.3,342.09Z"/><path class="cls-7" d="M150,309.39c-16,0-29.14,14.9-30,33.67a14.41,14.41,0,0,0,1.34-.85,51.77,51.77,0,0,1,28.6-9.77,51.77,51.77,0,0,1,28.6,9.77,13.35,13.35,0,0,0,1.44.9C179.22,324.32,166.1,309.39,150,309.39Z"/><path class="cls-7" d="M224.71,305.39c-18.23,0-33,16.43-33,36.7,0,.72,0,1.43.06,2.14a14.29,14.29,0,0,0,4-2,52,52,0,0,1,32.43-9.76h1a13.36,13.36,0,0,1,2,.15h.08l1,.11,1,.13c1.66.22,3.3.53,4.92.91.55.13,1.11.27,1.65.42.73.2,1.45.41,2.16.64l.77.25,1.25.44c.48.17.95.35,1.42.54l.39.16c.5.2,1,.42,1.5.64l.35.16c.53.24,1.06.49,1.58.75s1.15.58,1.72.9,1,.54,1.49.84c1.18.69,2.34,1.43,3.46,2.21.53.37,1,.75,1.57,1.14l.1.07.13.09v-1C257.72,321.82,242.94,305.39,224.71,305.39Z"/><path class="cls-8" d="M158.51,263.36s.5,2.67,1.41,5.74c1.28,4.29,3.37,9.36,6,9s4.88-4.81,6.32-8.59c1.08-2.82,1.71-5.24,1.71-5.24C171,263.06,158.51,263.36,158.51,263.36Z"/><path class="cls-9" d="M158.51,263.36s.5,2.67,1.41,5.74a14.29,14.29,0,0,0,12.36.43c1.08-2.82,1.71-5.24,1.71-5.24C171,263.06,158.51,263.36,158.51,263.36Z"/><path class="cls-4" d="M174,169.07c-.14,4.3,12.13,23.11,16.87,26.29a3.7,3.7,0,0,0,.86.55c4.44,2.2,16.63,1.2,16.63,1.2a89.4,89.4,0,0,0,19.76-43.62c2.28-20-7.74-43-8.4-44.5v0C214.92,114,174,169.07,174,169.07Z"/><path class="cls-10" d="M219.68,109h0c.66,1.5,10.68,24.51,8.4,44.5a89.48,89.48,0,0,1-19.38,43.19,41.36,41.36,0,0,1,6.1,20.83,49.54,49.54,0,0,1-.38,6.09C212.59,238,204.13,250.43,188.73,258c1,2.19,1.41,6,1,10.68h0c-1.52,16.89-13.31,44.61-39.71,44.61s-38.21-27.77-39.72-44.66c-.42-4.69,0-8.54,1-10.72C96,250.43,87.51,238,85.68,223.6a49.54,49.54,0,0,1-.38-6.09,41.32,41.32,0,0,1,6.07-20.77A89.46,89.46,0,0,1,71.9,153.49c-2.28-20,7.73-43,8.39-44.5a.09.09,0,0,0,0-.07c4.57,4.89,42.43,55.76,45.49,59.88a67.22,67.22,0,0,1,48.4,0c3.2-4.29,40.92-55,45.47-59.85m0-7a7,7,0,0,0-5.12,2.23c-4.18,4.48-32.15,41.9-42.93,56.36a73.79,73.79,0,0,0-43.25,0c-10.78-14.47-38.75-51.9-42.93-56.38a7,7,0,0,0-5.13-2.2,6.77,6.77,0,0,0-1.62.19,7,7,0,0,0-4.79,4h0c-1.17,2.65-11.41,26.54-9,48.12v.26a96,96,0,0,0,18.07,43,47.07,47.07,0,0,0-4.76,20,56.47,56.47,0,0,0,.44,7c2,15.64,10.64,28.63,24.56,37.09a41.8,41.8,0,0,0,0,7.75,68.39,68.39,0,0,0,11.81,32c8.93,12.41,21,19,35,19s26.08-6.54,34.89-18.91a68.47,68.47,0,0,0,11.77-31.77v-.47a40.1,40.1,0,0,0,0-7.59c14-8.47,22.66-21.48,24.65-37.13a56.46,56.46,0,0,0,.43-7,46.72,46.72,0,0,0-4.74-20.1,96.1,96.1,0,0,0,18-42.88v-.26c2.47-21.58-7.77-45.47-8.95-48.12h0a7,7,0,0,0-6.41-4.2Z"/><path class="cls-5" d="M191.72,196c4.44,2.2,16.63,1.2,16.63,1.2a89.4,89.4,0,0,0,19.76-43.62c2.28-20-7.74-43-8.4-44.5C220.91,139.18,203.54,171.27,191.72,196Z"/><path class="cls-11" d="M199.91,216.21C195.81,204.6,187.06,195,173.32,195A27,27,0,0,0,150,207.78,27,27,0,0,0,126.68,195c-13.74,0-22.49,9.64-26.59,21.25-6.11,21,13,27.56,24.28,29.61a58.73,58.73,0,0,0,7.71.9c2.49.24,5.39-2.33,8.12-5.81a25.77,25.77,0,0,0,9.8-9.39,25.77,25.77,0,0,0,9.8,9.39c2.73,3.48,5.63,6,8.12,5.81a58.73,58.73,0,0,0,7.71-.9C186.93,243.77,206,237.19,199.91,216.21Z"/><path class="cls-8" d="M141.49,263.36s-.5,2.67-1.41,5.74c-1.28,4.29-3.37,9.36-6,9s-4.88-4.81-6.32-8.59c-1.08-2.82-1.71-5.24-1.71-5.24C129,263.06,141.49,263.36,141.49,263.36Z"/><path class="cls-9" d="M141.49,263.36s-.5,2.67-1.41,5.74a14.29,14.29,0,0,1-12.36.43c-1.08-2.82-1.71-5.24-1.71-5.24C129,263.06,141.49,263.36,141.49,263.36Z"/><path class="cls-12" d="M178.27,252.77a3.47,3.47,0,0,0-.06-.45,14,14,0,0,0-2.46-6.34l-.12-.16-.26-.36-8.88-12-2.23-3a17.74,17.74,0,0,0-24.8-3.72h0a17.4,17.4,0,0,0-3.71,3.71l-2.23,3-8.88,12-.26.36-.12.16a14,14,0,0,0-2.46,6.34,3.47,3.47,0,0,0-.06.45,13.68,13.68,0,0,0,0,3,14.29,14.29,0,0,0,28.25,1,14.3,14.3,0,0,0,28.29-4Z"/><path class="cls-13" d="M143.75,251.53c-2.32,6.65-8.36,10.15-11.93,8.46s-2.94-7.73.07-14.09a43.62,43.62,0,0,1,4.21-7l.06-.08c2.94-4,6.2-6.78,7.85-4.85a7.66,7.66,0,0,1,1.34,3.94A34.93,34.93,0,0,1,143.75,251.53Z"/><path class="cls-13" d="M156.25,251.53c2.32,6.65,8.36,10.15,11.93,8.46s2.94-7.73-.07-14.09a43.62,43.62,0,0,0-4.21-7l-.06-.08c-2.94-4-6.2-6.78-7.85-4.85a7.66,7.66,0,0,0-1.34,3.94A34.93,34.93,0,0,0,156.25,251.53Z"/><path class="cls-14" d="M143.88,248.36c-2,5.77-7.26,8.79-10.39,7.31s-2.58-6.72,0-12.24a39.87,39.87,0,0,1,2.58-4.54l.06-.08c2.94-4,6.2-6.78,7.85-4.85a7.66,7.66,0,0,1,1.34,3.94A31.14,31.14,0,0,1,143.88,248.36Z"/><path class="cls-14" d="M132.3,221.59v.14c0,7.83-4.27,14.18-9.54,14.18s-9.54-6.35-9.54-14.18c0-5.23,1.9-9.79,4.73-12.25Z"/><path class="cls-14" d="M156.12,248.36c2,5.77,7.26,8.79,10.39,7.31s2.58-6.72,0-12.24a39.87,39.87,0,0,0-2.58-4.54l-.06-.08c-2.94-4-6.2-6.78-7.85-4.85a7.66,7.66,0,0,0-1.34,3.94A31.14,31.14,0,0,0,156.12,248.36Z"/><path class="cls-14" d="M167.71,221.59v.14c0,7.83,4.27,14.18,9.54,14.18s9.54-6.35,9.54-14.18c0-5.23-1.9-9.79-4.73-12.25Z"/><path class="cls-15" d="M91.65,197.11l6.16-1.33c2-.45,3.84-.91,5.68-1.41.93-.25,1.83-.54,2.73-.81l.68-.22c.2-.07.49-.15.6-.21s.29-.1.45-.18l.47-.25a17.42,17.42,0,0,0,3.88-3.49,87.18,87.18,0,0,0,7-9.65c2.22-3.44,4.4-7,6.72-10.49a57.36,57.36,0,0,1-3.34,12.21,47.57,47.57,0,0,1-6.14,11.38,19.88,19.88,0,0,1-5.17,4.93l-.89.5c-.3.15-.65.28-1,.42s-.57.2-.86.29l-.81.23a20.8,20.8,0,0,1-3.31.64,22.87,22.87,0,0,1-6.66-.17A16.5,16.5,0,0,1,91.65,197.11Z"/><path class="cls-15" d="M208.53,197.11a16.11,16.11,0,0,1-6.19,2.39,22.87,22.87,0,0,1-6.66.17,20.8,20.8,0,0,1-3.31-.64l-.81-.23a6.34,6.34,0,0,1-.87-.29c-.33-.14-.67-.27-1-.42l-.89-.5a19.88,19.88,0,0,1-5.17-4.93,47.72,47.72,0,0,1-6.13-11.38,57.38,57.38,0,0,1-3.35-12.21c2.33,3.53,4.5,7,6.72,10.49a90.85,90.85,0,0,0,7,9.65,18,18,0,0,0,3.89,3.49l.47.25c.15.08.3.11.45.18a5.18,5.18,0,0,0,.6.21l.67.22c.9.27,1.81.56,2.73.81,1.84.5,3.73,1,5.68,1.41Z"/><path class="cls-3" d="M28.2,109c-.33-12.47-.08-24.45,3.37-33.71L16.82,71.12C17.43,82.1,21.51,100.87,28.2,109Z"/><path class="cls-5" d="M62.16,45C48,55.83,36.2,66.25,31.57,75.28L16.82,71.12S27.9,52,62.16,45Z"/><path class="cls-2" d="M0,92.21V60.13S14,38.72,62.16,45C46.63,47.43,23.31,53.4,23.31,53.4L8.87,68.05,8.12,81Z"/><path class="cls-3" d="M271.8,109c.33-12.47.08-24.45-3.37-33.71l14.75-4.16C282.57,82.1,278.49,100.87,271.8,109Z"/><path class="cls-5" d="M237.84,45c14.12,10.85,26,21.27,30.59,30.3l14.75-4.16S272.1,52,237.84,45Z"/><path class="cls-2" d="M300,92.21V60.13S286,38.72,237.84,45c15.53,2.47,38.85,8.44,38.85,8.44L291.13,68l.75,13Z"/></svg>