<?xml version="1.0" encoding="UTF-8"?>
<!-- Generator: Adobe Illustrator 25.1.0, SVG Export Plug-In . SVG Version: 6.00 Build 0)  -->
<svg version="1.1" id="Layer_1" xmlns="http://www.w3.org/2000/svg" xmlns:xlink="http://www.w3.org/1999/xlink" x="0px" y="0px" viewBox="0 0 300 345" style="enable-background:new 0 0 300 345;" xml:space="preserve">
<style type="text/css">
	.st0{display:none;fill:#DAE6F5;}
	.st1{display:none;fill:#FFFFFF;}
	.st2{fill:url(#SVGID_1_);}
	.st3{fill:#10245A;}
	.st4{fill:#AFEBFB;}
	.st5{fill:#93D3EC;}
	.st6{fill:#429CD3;}
	.st7{fill:#A8D7F4;}
	.st8{fill:#3EA8CF;}
	.st9{fill:#2B59BA;}
	.st10{fill:#62C8EF;}
	.st11{fill:#AFE4F2;}
	.st12{fill:#1B408E;}
	.st13{fill:#347FC4;}
	.st14{fill:#191F35;}
	.st15{fill:#89DBF4;}
	.st16{fill:none;stroke:#10245A;stroke-width:6;stroke-linecap:round;stroke-miterlimit:10;}
	.st17{opacity:0.42;fill:#3B444F;enable-background:new    ;}
	.st18{opacity:0.39;fill:#3B444F;enable-background:new    ;}
	.st19{fill:#9DC6EA;}
	.st20{fill:#DAE6F5;}
	.st21{fill:#F5F8FC;}
</style>
<rect x="150.1" y="-54.9" class="st0" width="150" height="427.1"/>
<rect x="150.1" y="0" class="st1" width="150" height="351.1"/>
<linearGradient id="SVGID_1_" gradientUnits="userSpaceOnUse" x1="150" y1="319.6646" x2="150" y2="112.8146" gradientTransform="matrix(1 0 0 1 0 44.65)">
	<stop offset="0" style="stop-color:#68CEEA"/>
	<stop offset="0.32" style="stop-color:#3EA8CF"/>
</linearGradient>
<path class="st2" d="M263.6,344.7H36.4C16.3,344.7,0,328.4,0,308.4c0,0,0,0,0,0l0,0v-82.2h300v82.2  C300,328.4,283.7,344.7,263.6,344.7L263.6,344.7L263.6,344.7z"/>
<polygon class="st3" points="121.6,120.1 120.3,122.8 124.2,122.9 125,119.3 "/>
<polygon class="st3" points="170.5,104 162.8,108.7 150,91.4 137.2,108.7 129.5,104 121.6,120.1 123.6,120.3 150,122.3 176.4,120.3   178.4,120.1 "/>
<polygon class="st3" points="121.6,120.1 120.3,122.8 124.2,122.9 125,119.3 "/>
<polygon class="st3" points="178.4,120.1 179.7,122.8 175.8,122.9 175,119.3 "/>
<polygon class="st4" points="177.4,122.8 175.5,123 150,124.9 124.5,123 122.6,122.8 130.2,107.3 137.6,111.8 150,95.1 162.4,111.8   169.8,107.3 "/>
<polygon class="st5" points="175.5,123 150,124.9 124.5,123 130.2,111.3 137.6,115.9 150,99.2 162.4,115.9 169.8,111.3 "/>
<polygon class="st3" points="150,119.3 144.2,111.6 150,105.1 155.8,111.6 "/>
<polygon class="st3" points="131.9,120.9 128.2,117.2 131.1,114.7 135.1,116.7 "/>
<polygon class="st3" points="168.1,120.9 171.8,117.2 168.9,114.7 165,116.7 "/>
<polygon class="st6" points="150,117.4 144.2,111.6 150,103.2 155.8,111.6 "/>
<polygon class="st7" points="150,113.3 147.1,110.5 150,106.3 152.9,110.5 "/>
<polygon class="st6" points="131.9,119.5 128.2,117.2 131.1,113.3 135.1,116.7 "/>
<polygon class="st6" points="168.1,119.5 171.8,117.2 168.9,113.3 165,116.7 "/>
<path class="st8" d="M209.9,130v-0.2c0,0,1.2-16.5-12.5-17.2c-11.1-0.6-15.6,7.5-23.2,10.3c-7.9-2.2-16-3.3-24.1-3.2  c-8.2-0.1-16.3,0.9-24.2,3.2c-7.6-2.8-12.2-10.8-23.2-10.3c-13.7,0.7-12.5,17.2-12.5,17.2v0.2c-39.7,9.1-72.1,27-90.1,49.7v56.6h300  v-56.6C281.9,157,249.6,139.1,209.9,130z"/>
<ellipse transform="matrix(0.2358 -0.9718 0.9718 0.2358 22.4291 311.7831)" class="st9" cx="209.5" cy="141.6" rx="5.6" ry="8"/>
<ellipse transform="matrix(0.9659 -0.2588 0.2588 0.9659 -29.009 63.0956)" class="st9" cx="225.1" cy="141.7" rx="4.2" ry="3.6"/>
<ellipse transform="matrix(0.9659 -0.2588 0.2588 0.9659 -31.4992 67.9633)" class="st9" cx="242.4" cy="153.6" rx="4.2" ry="3.6"/>
<circle class="st9" cx="219.3" cy="150.7" r="2.7"/>
<circle class="st9" cx="251.3" cy="155.1" r="1.7"/>
<circle class="st9" cx="228.2" cy="153.2" r="3.4"/>
<circle class="st9" cx="234.3" cy="146.3" r="2.7"/>
<ellipse transform="matrix(0.9718 -0.2358 0.2358 0.9718 -30.8475 25.347)" class="st9" cx="90.5" cy="141.6" rx="8" ry="5.6"/>
<ellipse transform="matrix(0.2588 -0.9659 0.9659 0.2588 -81.3902 177.3742)" class="st9" cx="74.9" cy="141.7" rx="3.6" ry="4.2"/>
<ellipse transform="matrix(0.2588 -0.9659 0.9659 0.2588 -104.4476 170.3977)" class="st9" cx="58.8" cy="153.3" rx="3.6" ry="4.2"/>
<circle class="st9" cx="80.7" cy="150.7" r="2.7"/>
<circle class="st9" cx="48.7" cy="155.1" r="1.7"/>
<circle class="st9" cx="71.8" cy="153.2" r="3.4"/>
<circle class="st9" cx="65.7" cy="146.3" r="2.7"/>
<path class="st10" d="M150,190.3c-62.6,0-117.8,17.6-150,44.3v18.4c0,20.1,16.3,36.4,36.4,36.4l0,0h227.2  c20.1,0,36.4-16.3,36.4-36.4l0,0l0,0v-18.4C267.8,207.9,212.6,190.3,150,190.3z"/>
<path class="st11" d="M0,242.1v11c0,20.1,16.3,36.4,36.4,36.4l0,0h227.2c20.1,0,36.4-16.3,36.4-36.4l0,0v-11  c-32.2-26.7-87.4-44.4-150-44.4S32.3,215.4,0,242.1z"/>
<ellipse transform="matrix(0.7026 -0.7115 0.7115 0.7026 -176.2419 99.9581)" class="st10" cx="31.5" cy="260.8" rx="18.8" ry="21.3"/>
<path class="st9" d="M1.1,281.6c-0.4,0.1-0.8,0.2-1.1,0.3v26.4c0,3.1,0.4,6.3,1.2,9.3c1.1,2.5,2.2,4.8,3.4,7  c1.8,3.3,3.9,6.5,6.2,9.6c3.4,3.3,7.4,6,11.8,7.8c1.4-5.9-8.3-46-11.5-49.3C7.7,289.2,1.1,281.6,1.1,281.6z"/>
<path class="st12" d="M0,281.9v22.2c4.4,2.5,8.8,1.7,14.6-2.4c-1.4-4.6-2.7-8-3.5-8.9c-3.4-3.6-10-11.1-10-11.1  C0.7,281.6,0.4,281.7,0,281.9z"/>
<path class="st13" d="M8,258.8c-3.1,4-5.7,8.3-8,12.9v19.9c0.2,0.2,0.4,0.5,0.6,0.7c6.6,6.7,13.8,3.6,29.9-9  c8.2-6.4,20.9-18.1,10.2-30.2C30.2,241,14.9,249.4,8,258.8z"/>
<ellipse transform="matrix(0.7027 -0.7115 0.7115 0.7027 -176.5991 127.496)" class="st10" cx="64.2" cy="275" rx="15.7" ry="17.8"/>
<path class="st9" d="M38.9,292.3c0,0-5.2,0.4-5.8,8.8c-0.3,4,3.6,17.9,8.7,27.1c5.6,10.2,12.2,16.3,14.7,15.1s-6.5-38.8-9.3-41.7  S38.9,292.3,38.9,292.3z"/>
<path class="st12" d="M50.2,309.1c-1.2-3.9-2.2-6.7-2.9-7.5c-2.8-3-8.3-9.3-8.3-9.3s-5.2,0.5-5.8,8.8c0,2.2,0.4,4.4,0.9,6.5  c0.7,0.9,1.4,1.7,2.3,2.3C40.6,313.3,44.6,313.1,50.2,309.1z"/>
<path class="st13" d="M63.5,293.7c-13.4,10.6-19.5,13.2-25,7.6s-3.8-14.4,6.1-27.9c5.8-7.9,18.5-14.9,27.4-4.8  C80.9,278.7,70.3,288.3,63.5,293.7z"/>
<ellipse transform="matrix(0.4961 -0.8683 0.8683 0.4961 -195.4587 223.8613)" class="st10" cx="95.1" cy="280.3" rx="14.3" ry="16.2"/>
<path class="st9" d="M76.9,301.5c0,0-4.5,1.6-3.1,9.2c0.7,3.6,7.4,14.9,14,21.9c7.4,7.7,14.6,11.5,16.5,9.9s-14.7-32.7-17.9-34.7  S76.9,301.5,76.9,301.5z"/>
<path class="st12" d="M90.7,313.7c-1.9-3.1-3.6-5.4-4.3-5.9c-3.2-2-9.5-6.2-9.5-6.2s-4.5,1.6-3.1,9.2c0.5,1.9,1.3,3.8,2.4,5.5  c0.8,0.6,1.7,1.1,2.6,1.5C83.3,319.6,86.7,318.5,90.7,313.7z"/>
<path class="st13" d="M98.9,297c-9.4,12.5-14.1,16.2-20.3,12.5s-6.8-11.8-1.2-26.1c3.3-8.3,12.8-17.5,23-10.7S103.6,290.6,98.9,297z  "/>
<ellipse transform="matrix(0.7115 -0.7026 0.7026 0.7115 -105.8354 263.9468)" class="st10" cx="268.5" cy="260.9" rx="21.3" ry="18.8"/>
<path class="st9" d="M300,281.9c-0.4-0.1-0.7-0.2-1.1-0.3c0,0-6.6,7.6-10,11.1c-3.2,3.4-12.9,43.4-11.5,49.3  c4.4-1.8,8.4-4.5,11.8-7.8c2.3-3,4.4-6.2,6.2-9.6c1.2-2.2,2.3-4.5,3.4-7c0.8-3,1.2-6.2,1.2-9.3V281.9z"/>
<path class="st12" d="M300,304.1v-22.2c-0.4-0.1-0.7-0.2-1.1-0.3c0,0-6.6,7.6-10,11.1c-0.8,0.9-2.1,4.3-3.5,8.9  C291.2,305.8,295.6,306.6,300,304.1z"/>
<path class="st13" d="M300,271.6c-2.3-4.5-4.9-8.8-8-12.9c-7-9.4-22.1-17.9-32.8-5.8s2,23.7,10.2,30.2c16.1,12.7,23.3,15.8,29.9,9  c0.2-0.2,0.4-0.5,0.6-0.7L300,271.6z"/>
<ellipse transform="matrix(0.7121 -0.7021 0.7021 0.7121 -125.7141 244.0533)" class="st10" cx="234.7" cy="275.3" rx="17.7" ry="15.7"/>
<path class="st9" d="M261.1,292.3c0,0,5.2,0.4,5.8,8.8c0.3,4-3.6,17.9-8.7,27.1c-5.6,10.2-12.2,16.3-14.7,15.1s6.5-38.8,9.3-41.7  S261.1,292.3,261.1,292.3z"/>
<path class="st12" d="M249.8,309.1c1.2-3.9,2.2-6.7,2.9-7.5c2.8-3,8.3-9.3,8.3-9.3s5.2,0.5,5.8,8.8c0,2.2-0.3,4.4-0.9,6.6  c-0.7,0.9-1.4,1.7-2.3,2.3C259.4,313.3,255.4,313.1,249.8,309.1z"/>
<path class="st13" d="M236.5,293.7c13.4,10.6,19.5,13.2,25,7.6s3.9-14.4-6.1-27.9c-5.8-7.9-18.5-14.9-27.4-4.8  C219.1,278.7,229.7,288.3,236.5,293.7z"/>
<ellipse transform="matrix(0.8683 -0.4961 0.4961 0.8683 -112.0829 138.5612)" class="st10" cx="204.9" cy="280.3" rx="16.2" ry="14.3"/>
<path class="st9" d="M223.1,301.5c0,0,4.5,1.6,3.1,9.2c-0.7,3.6-7.4,14.9-14.1,21.9c-7.4,7.7-14.6,11.5-16.5,9.9s14.8-32.7,18-34.6  S223.1,301.5,223.1,301.5z"/>
<path class="st12" d="M209.3,313.7c2-3.1,3.6-5.4,4.3-5.9c3.2-2,9.5-6.2,9.5-6.2s4.5,1.6,3.1,9.2c-0.5,1.9-1.3,3.8-2.4,5.5  c-0.8,0.6-1.7,1.1-2.6,1.5C216.7,319.6,213.3,318.5,209.3,313.7z"/>
<path class="st13" d="M201.1,297c9.4,12.5,14.1,16.2,20.3,12.5s6.8-11.8,1.1-26.1c-3.3-8.3-12.8-17.5-23-10.7S196.4,290.6,201.1,297  z"/>
<ellipse transform="matrix(0.9509 -0.3095 0.3095 0.9509 -34.7395 38.3722)" class="st14" cx="103.6" cy="128.7" rx="5.2" ry="6.8"/>
<path class="st15" d="M137.2,71.6c-0.1,0.5-0.4,1-0.8,1.3c-0.8,0.9-1.4,2-2.3,2.8c-0.6,0.6-1.6,1-2.3,0.2c-0.3-0.4-0.4-0.8-0.5-1.2  c-0.1-0.4-0.3-0.9-0.5-1.2c-0.3-0.5-0.6-0.9-1-1.2c-0.1,0.1-0.3,0.2-0.4,0.3c-0.7,0.3-1.6,0-1.9-0.7c-0.4-0.7-0.1-1.6,0.6-2  c0.1,0,0.1-0.1,0.2-0.1c0,0,0,0,0.1,0l0,0c0.7-0.2,1.4-0.2,2.1,0.1c0.1,0,0.2,0.1,0.4,0.2l2.1,0.1l2.1,0.2c0.5,0,1,0.1,1.5,0.3  C137,70.8,137.2,71.2,137.2,71.6z"/>
<ellipse transform="matrix(0.3095 -0.9509 0.9509 0.3095 13.303 275.6222)" class="st14" cx="196.4" cy="128.7" rx="6.8" ry="5.2"/>
<ellipse transform="matrix(0.9169 -0.3992 0.3992 0.9169 -74.1707 29.6733)" class="st12" cx="34.2" cy="192.9" rx="17.5" ry="15.2"/>
<path class="st9" d="M0,111.6v46.1c6.5,21.1,19.7,51.1,36.8,45.6c25.1-8-5.5-70.5-5.5-70.5L0,111.6z"/>
<path class="st15" d="M162.8,71.6c0.1,0.5,0.4,1,0.8,1.3c0.8,0.9,1.4,2,2.3,2.8c0.6,0.6,1.6,1,2.3,0.2c0.3-0.4,0.4-0.8,0.5-1.2  c0.1-0.4,0.3-0.9,0.5-1.2c0.3-0.5,0.6-0.9,1-1.2c0.1,0.1,0.3,0.2,0.4,0.3c0.7,0.3,1.6,0,1.9-0.7c0.3-0.7,0.1-1.6-0.6-2  c-0.1,0-0.1-0.1-0.2-0.1s0,0-0.1,0l0,0c-0.7-0.2-1.4-0.2-2.1,0.1c-0.1,0-0.3,0.1-0.4,0.2l-2.1,0.1l-2.1,0.2c-0.5,0-1,0.1-1.4,0.3  C163,70.8,162.8,71.2,162.8,71.6z"/>
<path class="st12" d="M36.8,146c-3-7.8-5.5-13.1-5.5-13.1L0,111.6V145c0.9,0.9,1.9,1.8,3,2.5C10.8,152.8,26.5,154.2,36.8,146z"/>
<path class="st9" d="M141.1,70.1c-6.1,5.2-15.7-1.7-39.1-2c-7.3-0.2-14.6,1-21.5,3.5c-9.1,3.4-13.7,8.1-13.7,8.1s-0.4-0.5-1.1-1.4  c-2.8-3.8-10-14.4-8.6-20.7c0.9-4.1,5.7-9.1,13.6-12.9h0.1h47.2c3,1.4,5.9,3,8.7,4.9C138.1,57.2,144.9,67.1,141.1,70.1z"/>
<path class="st12" d="M141.4,64.8c-0.1,0.1-0.2,0.2-0.3,0.3c-6.1,5.1-15.7-1.7-39.1-2c-5.1-0.1-10.2,0.4-15.1,1.6  c-2.1,0.5-4.2-0.7-4.8-2.8C82.1,61.6,82,61.3,82,61l0,0c-0.2-5.5,6.3-12,11.5-16.3H70.9c-8,3.7-12.8,8.8-13.7,12.9  c-1.8,7.8,9.6,22.1,9.6,22.1l0.1-0.1l0,0c0.1-0.1,0.3-0.3,0.6-0.5l0,0c2-1.7,8.2-6.5,18.6-9.1l0,0c5.2-1.3,10.6-2,16-1.9  c23.5,0.3,33,7.2,39.2,2C142.5,69.1,142.5,67.2,141.4,64.8z"/>
<path class="st8" d="M101.9,104.8c-11.9,7.4-23,5.3-36.6,8.4s-13.7,14.9-23.2,23.7c-9.3,8.7-24.9,7.5-32.3,2.4  c-9.8-6.7-9.8-21.8-9.8-21.8V81.1C0,61,16.3,44.7,36.4,44.7h48.9C80,49,73.6,55.5,73.8,61c0.1,3.9,1.2,6.5,3.7,8.7  c0.9,0.8,1.9,1.4,3,2c3.5,1.9,8.6,3.5,15.7,5.7c15.3,4.6,26.9,2.7,29.3,11.6C127.3,95.7,111.5,98.8,101.9,104.8z"/>
<ellipse transform="matrix(0.2358 -0.9718 0.9718 0.2358 -32.6847 147.5463)" class="st9" cx="77.5" cy="94.6" rx="5.6" ry="8"/>
<ellipse transform="matrix(0.9659 -0.2588 0.2588 0.9659 -19.2172 26.2672)" class="st9" cx="90.2" cy="86.1" rx="4.2" ry="3.6"/>
<ellipse transform="matrix(0.9659 -0.2588 0.2588 0.9659 -24.7548 20.6262)" class="st9" cx="66" cy="104.3" rx="4.2" ry="3.6"/>
<circle class="st9" cx="92.8" cy="95.2" r="2.7"/>
<circle class="st9" cx="56.4" cy="102.5" r="1.7"/>
<circle class="st9" cx="61.5" cy="95.2" r="3.4"/>
<circle class="st9" cx="100.9" cy="88.9" r="2.7"/>
<ellipse transform="matrix(0.3992 -0.9169 0.9169 0.3992 -17.1251 359.5901)" class="st12" cx="265.8" cy="192.9" rx="15.2" ry="17.5"/>
<path class="st9" d="M300,111.6v46.1c-6.5,21.1-19.7,51.1-36.8,45.6c-25.1-8,5.5-70.5,5.5-70.5L300,111.6z"/>
<path class="st12" d="M263.2,146c3-7.8,5.5-13.1,5.5-13.1l31.4-21.2V145c-0.9,0.9-1.9,1.8-3,2.5C289.2,152.8,273.5,154.2,263.2,146z  "/>
<path class="st9" d="M236.9,74.5c-2,3.1-3.7,5.2-3.7,5.2s-4.6-4.6-13.7-8c-6.9-2.5-14.2-3.7-21.5-3.6c-23.5,0.3-33,7.2-39.1,2  c-2.8-2.3,0.4-8.6,7.1-14.7c4.8-4.4,10.1-8,16-10.7h47.2h0.1c7.9,3.7,12.7,8.8,13.6,12.9C243.9,62.4,240.1,69.6,236.9,74.5z"/>
<path class="st12" d="M158.6,64.8c0.1,0.1,0.2,0.2,0.3,0.3c6.1,5.1,15.7-1.7,39.1-2c5.1-0.1,10.2,0.4,15.1,1.6  c2.1,0.5,4.2-0.7,4.8-2.8c0.1-0.3,0.1-0.5,0.1-0.8l0,0c0.2-5.5-6.3-12-11.5-16.3h22.7c8,3.7,12.8,8.8,13.7,12.9  c1.8,7.8-9.6,22.1-9.6,22.1l-0.1-0.1l0,0c-0.1-0.1-0.3-0.3-0.6-0.5l0,0c-2-1.7-8.2-6.5-18.6-9.1l0,0c-5.2-1.3-10.6-1.9-16-1.8  c-23.5,0.3-33,7.2-39.2,2C157.5,69.1,157.5,67.2,158.6,64.8z"/>
<path class="st8" d="M300,81.1v36.4c0,0,0.1,15.1-9.8,21.8c-7.5,5.1-23,6.3-32.3-2.4c-9.6-8.8-9.6-20.7-23.2-23.7s-24.7-1-36.6-8.4  c-9.6-6-25.4-9.1-23.6-15.9c2.4-8.8,13.9-6.9,29.3-11.6c7.1-2.2,12.2-3.8,15.8-5.7c2.3-1,4.1-2.8,5.4-4.9c0.9-1.8,1.3-3.8,1.4-5.8  c0.2-5.5-6.2-12-11.5-16.3h48.9C283.7,44.7,300,61,300,81.1C300,81.1,300,81.1,300,81.1z"/>
<ellipse transform="matrix(0.9718 -0.2358 0.2358 0.9718 -16.0223 55.1462)" class="st9" cx="222.5" cy="94.6" rx="8" ry="5.6"/>
<ellipse transform="matrix(0.2588 -0.9659 0.9659 0.2588 72.3806 266.545)" class="st9" cx="209.9" cy="86.1" rx="3.6" ry="4.2"/>
<ellipse transform="matrix(0.2588 -0.9659 0.9659 0.2588 72.706 303.4038)" class="st9" cx="234.1" cy="104.3" rx="3.6" ry="4.2"/>
<circle class="st9" cx="207.2" cy="95.2" r="2.7"/>
<circle class="st9" cx="243.6" cy="102.5" r="1.7"/>
<circle class="st9" cx="238.5" cy="95.2" r="3.4"/>
<circle class="st9" cx="199.1" cy="88.9" r="2.7"/>
<line class="st16" x1="137" y1="149.3" x2="150" y2="143.2"/>
<line class="st16" x1="163" y1="149.3" x2="150" y2="143.2"/>
<path class="st15" d="M80.6,109.7c-1.4,0-3.1,0.6-4.4,0.1c-1.4-0.6-2.4-1.7-4.2-1.7c-2,0-3.9,1.3-4.5,3.2H66c-1.7,0-3.9,0-5.2,0.9  c-0.5-0.5-1.2-0.8-1.9-0.7c-0.7,0.1-1.4,0.4-1.8,1c-0.9,0.9-1.6,2-2.1,3.1c0,0.1-0.1,0.2-0.1,0.2c-3.3,2.8-4.1,7.3-1.5,10.7l2.1,7.8  c0.3,1.5,2.6,1.8,3-0.3c0.4-2.6,0.5-5.2,0.5-7.8c0.5-1.5,0.8-3.1,0.9-4.7c0.1-1.1,0.1-2.2-0.1-3.3c0,0,0,0,0-0.1  c0.1-0.7,0.4-1.3,0.8-1.8c0.7-0.5,1.6-0.8,2.4-0.7c0.6,0,1.2,0.1,1.8,0.2c0.8,0.2,1.5,0.5,2.2,0.8l0.2,0.2l0.1,0.1  c0.1,0.2,0.3,0.3,0.4,0.5c0.3,0.3,0.5,0.7,0.8,1.1c2.1,5.1,4,5.3,4.2,1.3c0.2-0.4,1-7,4.8-3.7c0.4,0.7,0.6,1.5,0.6,2.2  c0.2,1,0.3,2.1,0.4,3.1l0.9,6.4c0.2,1.6,2.8,1.6,3,0l1.3-10.9C84,114.6,85.3,109.9,80.6,109.7z"/>
<ellipse transform="matrix(0.6689 -0.7434 0.7434 0.6689 -42.8772 39.4405)" class="st15" cx="22.8" cy="67.8" rx="17.1" ry="12"/>
<ellipse transform="matrix(0.6689 -0.7434 0.7434 0.6689 -61.2475 51.3946)" class="st15" cx="27.1" cy="94.4" rx="9.1" ry="7.1"/>
<path class="st15" d="M219.4,109.7c1.4,0,3,0.6,4.4,0.1s2.4-1.7,4.2-1.7c2,0,3.9,1.3,4.5,3.2h1.6c1.6,0,3.9,0,5.1,0.9  c0.5-0.5,1.2-0.8,1.9-0.7c0.7,0.1,1.4,0.4,1.9,1c0.9,0.9,1.6,2,2.1,3.2c0,0.1,0.1,0.2,0.1,0.2c3.3,2.8,4.1,7.3,1.5,10.7l-2.1,7.8  c-0.4,1.4-2.8,1-2.9-0.3c-0.3-2.6-0.5-5.2-0.6-7.8c-0.5-1.5-0.8-3.1-0.9-4.7c-0.1-1.1-0.1-2.2,0.1-3.3c0,0,0,0,0-0.1  c-0.1-0.7-0.4-1.3-0.8-1.8c-0.7-0.5-1.6-0.8-2.4-0.7c-0.6,0-1.2,0.1-1.8,0.2c-0.8,0.2-1.5,0.5-2.2,0.8l-0.2,0.2l-0.1,0.1  c-0.1,0.2-0.3,0.3-0.4,0.5c-0.3,0.3-0.5,0.7-0.8,1.1c-0.4,0.7-0.8,1.4-1.1,2.2c-0.1,0.1-0.1,0.2-0.2,0.3v0.1c0,0.1-0.1,0.1-0.1,0.2  c0,0,0,0.1,0,0.1c-0.4,0.5-1.1,0.7-1.7,0.6c-0.2,0-0.4-0.1-0.5-0.2c-0.4-0.2-0.6-0.6-0.6-1c-0.2-1.3-0.7-2.6-1.5-3.8  c-0.5-0.8-2.3-2.1-3.2-0.9c-0.4,0.7-0.6,1.5-0.6,2.2l-0.4,3.1l-0.9,6.4c-0.2,1.6-2.8,1.6-3,0l-1.4-11  C216,114.6,214.7,109.9,219.4,109.7z"/>
<ellipse transform="matrix(0.7434 -0.6689 0.6689 0.7434 25.7508 202.7974)" class="st15" cx="277.2" cy="67.8" rx="12" ry="17.1"/>
<ellipse transform="matrix(0.7434 -0.6689 0.6689 0.7434 6.8773 206.7908)" class="st15" cx="272.9" cy="94.4" rx="7.1" ry="9.1"/>
<path class="st17" d="M127.2,53.7c-0.1,0.8-0.3,1.7-0.7,2.4c-3,6-11.8,7.5-17.4,4.4c-1-0.6-1.9-1.3-2.7-2.2  c-6.2,5-16.2,4.8-24.6,2.8c-0.5,1.4-1,2.8-1.7,4.2c-0.7,1.5-1.7,3-2.7,4.3c-2.1,2.8-4.8,5.1-7.8,6.9c-1.2,0.7-2.6,1.3-3.9,1.8  c-9.1,3.2-20,0.4-25.5-8.1c-1.4-2.1-2.3-4.4-2.7-6.9c-3.9-0.7-7.7-2.4-10.9-4.8c-2.2,1.5-4.8,2.3-7.5,2.4c-3.7,0.1-7.1-1.8-9-5  c6.9-7.2,16.3-11.2,26.3-11.2h34.4h0.1h47.2c3,1.4,5.9,3,8.7,4.9C127.4,50.9,127.5,52.4,127.2,53.7z"/>
<path class="st18" d="M293.4,60.2c-1.7,3.3-5.9,5-10,4.7c-3.1-0.3-6.1-1.3-8.8-2.9c-4.4,1.7-9.1,2.6-13.8,2.6  c-0.8,3.2-2.6,6-5.2,7.9c-5.6,4.3-12.4,3.9-18.7,1.9c-1.3-0.4-2.5-0.9-3.8-1.4c-3.2-1.4-6.1-3.5-8.3-6.3c-2-2.4-3.1-5.5-3.1-8.6  l-0.8-0.2c-1.6-0.5-3.2-1.3-4.6-2.3c-1.1,0.4-2.1,0.8-3.2,1.1c-5.6,1.8-11.2,3.6-16.9,5.3c-6.7,2-13.9,2.7-20.3-0.7  c-0.9-0.5-1.8-1.1-2.6-1.7c-1.3-0.2-2.6-0.7-3.7-1.3c-1.4-0.7-2.7-1.7-3.7-3c4.8-4.4,10.1-8,16-10.7h47.2h0.1h34.4  C275.5,44.7,286.6,50.5,293.4,60.2z"/>
<path class="st19" d="M283.4,58.9c-3.1-0.3-6.1-1.3-8.8-2.9c-4.4,1.7-9.1,2.6-13.8,2.6c-0.8,3.2-2.6,6-5.2,7.9  c-6.8,5.1-15.1,3.6-22.4,0.4c-6.1-2.6-11.5-8.3-11.4-14.9l-0.8-0.2c-1.6-0.5-3.2-1.3-4.6-2.3c-1.1,0.4-2.1,0.8-3.2,1.1  c-5.6,1.8-11.2,3.6-16.9,5.3c-6.7,2-13.9,2.7-20.3-0.7c-0.9-0.5-1.8-1.1-2.6-1.7c-1.3-0.2-2.6-0.7-3.7-1.3  c-4.5-2.2-7.1-7.5-5.1-11.4c0.3-0.6,0.8-1.2,1.3-1.7c0.7-0.7,1.4-1.3,2.2-2c8.2-7.1,18.4-11.4,29.2-12.5c6.2-0.6,13.1-0.7,19.1,1.1  c1.9,0.5,3.7,1.4,5.4,2.4c1.5-0.7,3-1.4,4.5-1.9c11.9-4.3,24.7-5.3,37.2-3c11.2,2.1,21.3,8.6,22.2,17.7c1.9,0.2,3.7,0.9,5.3,2  c1.4,1.1,2.5,2.5,3.1,4.2c0.2,0.7,0.4,1.4,0.5,2.1C294.9,55.9,289.2,59.4,283.4,58.9z"/>
<path class="st19" d="M127.2,47.7c-0.1,0.8-0.3,1.7-0.7,2.4c-3,6-11.8,7.5-17.4,4.4c-1-0.6-1.9-1.3-2.7-2.2  c-6.2,5-16.2,4.9-24.6,2.8c-0.5,1.4-1,2.8-1.7,4.2c-2.3,4.7-6,8.6-10.5,11.2c-9.7,5.7-23.2,3.5-29.4-6.3c-1.4-2.1-2.3-4.4-2.7-6.9  c-3.9-0.7-7.7-2.4-10.9-4.8c-2.2,1.5-4.8,2.3-7.5,2.4c-4.5,0.2-8.6-2.7-9.8-7c-0.6-1.9-0.5-3.9,0.1-5.7c0.5-1.5,1.5-2.8,2.7-3.8  c2.1-1.7,4.7-2.5,7.4-2.3c1.2-5.5,5.6-10.1,12.4-11.7c6.1-1.5,12.7-0.9,18.8,0.4c3.3,0.8,6.6,1.8,9.8,3.1c3.2,1.4,7.3,4.5,11,4.5  c8.6-4.6,18.7-5.1,27.7-1.4c4.1,1.3,8,3.5,10.3,6.3c2-0.8,4.1-0.9,6.2-0.3c2.8,0.1,5.5,1,7.8,2.6c1.4,1,2.6,2.3,3.3,3.9l0,0  C127.4,44.8,127.5,46.3,127.2,47.7z"/>
<path class="st20" d="M293.8,47.4c-1.5,3.8-5.9,5.9-10.3,5.5c-3.1-0.3-6.1-1.3-8.8-2.9c-4.4,1.7-9.1,2.6-13.8,2.6  c-0.8,3.2-2.6,6-5.2,7.9c-6.8,5.1-15.1,3.6-22.4,0.5c-6.1-2.6-11.5-8.3-11.4-14.9l-0.8-0.2c-1.6-0.5-3.2-1.3-4.6-2.3  c-1.1,0.4-2.1,0.8-3.2,1.1c-5.6,1.8-11.2,3.6-16.9,5.3c-6.7,2-13.9,2.7-20.3-0.7c-0.9-0.5-1.8-1.1-2.6-1.7c-1.3-0.2-2.6-0.7-3.7-1.3  c-2.3-1.1-4.1-3-5.1-5.4c0.3-0.6,0.8-1.2,1.3-1.7c0.7-0.7,1.4-1.3,2.2-2c8.2-7.1,18.4-11.4,29.2-12.5c6.2-0.6,13.1-0.7,19.1,1.1  c1.9,0.5,3.7,1.4,5.4,2.4c1.5-0.7,3-1.4,4.5-1.9c11.9-4.3,24.7-5.3,37.2-3c11.2,2.1,21.3,8.6,22.2,17.7c1.9,0.2,3.7,0.9,5.3,2  C292.1,44.2,293.2,45.7,293.8,47.4z"/>
<path class="st20" d="M126.7,43.6c-0.1,0.2-0.2,0.4-0.3,0.6c-3,6-11.8,7.5-17.4,4.4c-1-0.6-1.9-1.3-2.7-2.2  c-6.2,5-16.2,4.8-24.6,2.8c-0.5,1.4-1,2.8-1.7,4.2c-2.3,4.7-6,8.6-10.5,11.2c-9.7,5.7-23.2,3.5-29.4-6.3c-1.4-2.1-2.3-4.4-2.7-6.9  c-3.9-0.7-7.7-2.4-10.9-4.8c-2.2,1.5-4.8,2.3-7.5,2.4c-4.4,0.2-8.4-2.6-9.7-6.7c0.5-1.5,1.5-2.8,2.7-3.8c2.1-1.7,4.7-2.5,7.4-2.3  c1.2-5.5,5.6-10.1,12.4-11.7c6.1-1.5,12.7-0.9,18.8,0.4c3.3,0.8,6.6,1.8,9.8,3.1c3.2,1.4,7.3,4.5,11,4.5c8.6-4.6,18.7-5.1,27.7-1.4  c4.1,1.3,8,3.5,10.3,6.3c2-0.8,4.1-0.9,6.2-0.3c2.8,0.1,5.5,1,7.8,2.6C124.8,40.7,125.9,42,126.7,43.6z"/>
<ellipse transform="matrix(0.9142 -0.4053 0.4053 0.9142 -10.941 18.521)" class="st21" cx="38.3" cy="35.1" rx="11.7" ry="8.8"/>
<ellipse transform="matrix(0.9142 -0.4053 0.4053 0.9142 6.5396 101.4538)" class="st21" cx="242.8" cy="35.3" rx="11.3" ry="8.5"/>
<ellipse transform="matrix(0.9142 -0.4053 0.4053 0.9142 -10.9162 25.6751)" class="st21" cx="55.2" cy="38.6" rx="5.8" ry="4.4"/>
<ellipse transform="matrix(0.9142 -0.4053 0.4053 0.9142 -7.8315 37.3102)" class="st21" cx="84.2" cy="37.1" rx="6.9" ry="5.2"/>
<ellipse transform="matrix(0.9142 -0.4053 0.4053 0.9142 0.1709 77.114)" class="st21" cx="182.2" cy="38.2" rx="6.9" ry="5.2"/>
<ellipse transform="matrix(0.9142 -0.4053 0.4053 0.9142 8.0891 109.9933)" class="st21" cx="263.8" cy="35.9" rx="7.6" ry="5.7"/>
</svg>