<svg id="Layer_1" data-name="Layer 1" xmlns="http://www.w3.org/2000/svg" xmlns:xlink="http://www.w3.org/1999/xlink" viewBox="0 0 300.01 345"><defs><style>.cls-1{fill:url(#linear-gradient);}.cls-2{fill:#58c7f0;}.cls-3{fill:#1f4a89;}.cls-4{fill:#15141a;}.cls-5,.cls-9{fill:#2b59b9;}.cls-6{fill:url(#linear-gradient-2);}.cls-7{fill:#c6ecf7;}.cls-8{fill:url(#linear-gradient-3);}.cls-9{opacity:0.55;isolation:isolate;}.cls-10{fill:#3e72ce;}</style><linearGradient id="linear-gradient" x1="150.01" y1="402.02" x2="150.01" y2="596.97" gradientTransform="translate(0 -154)" gradientUnits="userSpaceOnUse"><stop offset="0" stop-color="#2b59ba"/><stop offset="0.07" stop-color="#326ac2"/><stop offset="0.25" stop-color="#408bd3"/><stop offset="0.43" stop-color="#4aa5e0"/><stop offset="0.61" stop-color="#52b8e9"/><stop offset="0.8" stop-color="#57c3ee"/><stop offset="1" stop-color="#58c7f0"/></linearGradient><linearGradient id="linear-gradient-2" x1="247.38" y1="248.06" x2="247.38" y2="154.33" gradientTransform="translate(0 -154)" gradientUnits="userSpaceOnUse"><stop offset="0" stop-color="#58c7f0"/><stop offset="0.69" stop-color="#2b59ba"/></linearGradient><linearGradient id="linear-gradient-3" x1="92.29" y1="219.55" x2="92.29" y2="149.69" xlink:href="#linear-gradient-2"/></defs><path class="cls-1" d="M300,259.13V309.5A36.36,36.36,0,0,1,263.63,345H36.39A36.41,36.41,0,0,1,0,309.59V259.13Z"/><path class="cls-2" d="M300,172.49V262a24.58,24.58,0,0,1-.14,3.09,36.34,36.34,0,0,1-36.24,33.29H36.39q-1.23,0-2.43-.09A36.32,36.32,0,0,1,.15,265.1,21.38,21.38,0,0,1,0,262V151.1s2.24-43.28,26.56-79a105.8,105.8,0,0,1,30.32-30c10.79,7.61,20.77,17.63,29.79,28.67q2.91,3.54,5.66,7.21c1.54-2.32,3.17-4.73,4.86-7.21h46.3L165.57,0C184.41,9.1,209.09,39.07,228,70.77q1,1.64,1.92,3.27c.49.83,1,1.66,1.44,2.5q2.49,4.33,4.78,8.66l3,5.74c1,1.91,1.91,3.81,2.81,5.7l1.33,2.82c.43.94.86,1.87,1.28,2.8,2.09,4.65,4,9.19,5.57,13.56,4.33-12.22,11.43-26.28,22.76-35.72,27,23,27.1,74.18,27.1,74.18Z"/><path class="cls-3" d="M115.18,228.92a10.65,10.65,0,0,1-1,5c-.07.14-.14.29-.22.43a45,45,0,0,1-36.49,23.18A44.13,44.13,0,0,1,52,251.4c-20.29-12-28.24-37.68-18.92-59.25.46-1.09,1-2.17,1.54-3.23A9.59,9.59,0,0,1,37,186c4.49-3.77,12.37-3.88,21.46-1.61C82.43,190.33,114.7,212.85,115.18,228.92Z"/><path class="cls-4" d="M113.93,234.37a45,45,0,0,1-36.5,23.19,44.3,44.3,0,0,1-11.56-4.83c-21.32-12.61-29-40.32-17.38-62.49,1.9-3.5,5.43-5.35,10-5.89C85.29,191.05,122.55,218.48,113.93,234.37Z"/><path class="cls-5" d="M97.2,70.77c-1.69,2.48-3.32,4.89-4.86,7.21,13.35,17.7,24.32,37.14,32.34,53.15L165.57,0C143.68,7.82,116,43.37,97.2,70.77Z"/><path class="cls-2" d="M239.14,90.94l-3-5.74Q237.72,88.08,239.14,90.94Z"/><path class="cls-5" d="M56.89,42.1a686.28,686.28,0,0,0-23,79c-31,8-33.76,54-33.88,63v-33s2.24-43.28,26.56-79A105.8,105.8,0,0,1,56.89,42.1Z"/><path class="cls-5" d="M272.89,80.1l-13.83,61.82c-3.39-10.42-7.29-21.64-8.93-26.09h0C254.46,103.6,261.56,89.54,272.89,80.1Z"/><path class="cls-6" d="M241.43,20.32,226.89,40.9s-.08,13.12,2,15.36L242.6,71a6.43,6.43,0,0,0,9.09.48h0l.47-.47,13.7-14.71c2.09-2.24,2-15.89,2-15.89l-14.54-20a6.56,6.56,0,0,0-11.91-.08Z"/><path class="cls-2" d="M241.43,10.18l-13.7,27.48a7.56,7.56,0,0,0,1.17,8.47l13.7,14.71a6.47,6.47,0,0,0,9.14.44h0l.44-.44,13.7-14.71A7.59,7.59,0,0,0,267,37.66l-13.7-27.48a6.55,6.55,0,0,0-11.88,0Z"/><path class="cls-7" d="M234.75,33.61l9.72-18.5a1.27,1.27,0,0,1,1.71-.57,1.29,1.29,0,0,1,.71,1.24V38.07A3.48,3.48,0,0,1,242,41.45l-5.65-2.65a3.8,3.8,0,0,1-1.64-5.13Z"/><path class="cls-8" d="M87.82,10.76,77,26.1s0,9.78,1.5,11.45l10.21,11a4.81,4.81,0,0,0,6.8.33h0q.16-.15.33-.33l10.21-11c1.56-1.67,1.5-11.85,1.5-11.85L96.71,10.76a4.89,4.89,0,0,0-8.89,0Z"/><path class="cls-2" d="M87.82,3.2,77.61,23.69A5.63,5.63,0,0,0,78.48,30L88.69,41a4.81,4.81,0,0,0,6.8.33h0l.33-.33L106,30a5.66,5.66,0,0,0,.88-6.31L96.71,3.2A4.91,4.91,0,0,0,90.2.82,4.84,4.84,0,0,0,87.82,3.2Z"/><path class="cls-7" d="M82.84,20.67,90.08,6.88a1,1,0,0,1,1.39-.23,1,1,0,0,1,.42.73V24a2.62,2.62,0,0,1-2.47,2.73,2.51,2.51,0,0,1-1.15-.21l-4.21-2a2.83,2.83,0,0,1-1.24-3.81h0Z"/><path class="cls-7" d="M188.24,94.23l-8.53-67.89c-.57-4.55-6.15-4.64-7.63-.12L148.9,97c-2.77,8.47,2.71,16.56,10.37,15.29l18.92-3.12C184.46,108.15,189.12,101.21,188.24,94.23Z"/><path class="cls-7" d="M76.54,101.68,64,63.16c-.84-2.58-4.83-2.6-5.46,0l-9.8,40.34c-1.17,4.83,3.52,9.4,8.86,8.63l13.19-1.89C75.17,109.61,77.83,105.64,76.54,101.68Z"/><path class="cls-7" d="M269.55,133.74l7.73-31.18a2,2,0,0,1,3.84.14l8.06,33.35c1,4-2.2,7.59-6,6.81l-9.35-1.94a5.88,5.88,0,0,1-4.3-7.12v-.06Z"/><path class="cls-5" d="M126.27,201.37a3.71,3.71,0,0,1-2.2,1.16c-6.12,1.51-21.86-.6-21.86-.6a3.74,3.74,0,0,1-2.78-1.36L74.67,171.38,64.28,159.12l-.43-.52a2,2,0,0,1-.54-1.75.62.62,0,0,1,.07-.19.61.61,0,0,1,.09-.18h0l.13-.15.15-.14a1.8,1.8,0,0,1,1.77-.1l.62.23,49.76,19.3a3.94,3.94,0,0,1,2.21,2.21S128.56,197.9,126.27,201.37Z"/><path class="cls-5" d="M19.87,165.17l10.38,14.48c1.88,2.62,5.12,3.93,8.07,2.16,2.53-1.51,4-5.6,2.11-8.25L30.06,159.08c-1.88-2.62-5.12-3.93-8.07-2.16C19.46,158.43,18,162.53,19.87,165.17Z"/><path class="cls-5" d="M15.73,192.42l6.61,2.87a6,6,0,0,0,4.75-.64,6.58,6.58,0,0,0,2.82-3.83,6.74,6.74,0,0,0-.62-4.94,7.35,7.35,0,0,0-3.67-2.95L19,180.06a6,6,0,0,0-4.74.65,6.44,6.44,0,0,0-2.83,3.83,6.72,6.72,0,0,0,.62,4.93,7.29,7.29,0,0,0,3.68,2.95Z"/><path d="M185.64,272.74v.13c0,5.9-4.35,9.25-7.46,5.91-6.49-7-16.64-11.47-28-11.47s-21.55,4.49-28,11.47c-3.11,3.34-7.43,0-7.46-5.91v-.13c0-16.37,15.89-29.64,35.5-29.64S185.64,256.37,185.64,272.74Z"/><ellipse class="cls-5" cx="150.14" cy="284.1" rx="16" ry="10"/><ellipse class="cls-7" cx="99.8" cy="149.07" rx="13" ry="22.76" transform="translate(-78.51 129.45) rotate(-49.92)"/><path class="cls-3" d="M186.17,234.37a45,45,0,0,0,36.49,23.19,44.29,44.29,0,0,0,25.45-6.16c21.31-12.61,29-40.32,17.37-62.49-3.55-6.54-12.82-7.32-23.87-4.56C214.8,191.05,177.55,218.48,186.17,234.37Z"/><path class="cls-4" d="M186.17,234.37a45,45,0,0,0,36.49,23.19,44.31,44.31,0,0,0,11.57-4.83c21.32-12.61,29-40.32,17.37-62.49-1.89-3.5-5.43-5.35-10-5.89C214.8,191.05,177.55,218.48,186.17,234.37Z"/><path class="cls-5" d="M236.25,158.6l-.44.52-10.4,12.26-24.75,29.19a3.75,3.75,0,0,1-2.78,1.36s-15.73,2.11-21.85.6a3.65,3.65,0,0,1-2.2-1.16c-2.29-3.47,8.14-23.58,8.14-23.58a3.94,3.94,0,0,1,2.21-2.21l49.76-19.3.62-.23a1.79,1.79,0,0,1,1.76.1l.16.14s.08.1.12.15h0l.09.18a.2.2,0,0,0,.07.19A2,2,0,0,1,236.25,158.6Z"/><path class="cls-3" d="M124.07,202.53c-6.12,1.51-21.86-.6-21.86-.6a3.74,3.74,0,0,1-2.78-1.36L74.67,171.38l41.25,16a4,4,0,0,1,2.21,2.21S121.58,196.22,124.07,202.53Z"/><path class="cls-3" d="M225.41,171.38l-24.75,29.19a3.75,3.75,0,0,1-2.78,1.36s-15.73,2.11-21.85.6c2.49-6.31,5.94-12.95,5.94-12.95a3.94,3.94,0,0,1,2.21-2.21Z"/><path class="cls-5" d="M270,159.08l-10.38,14.48c-1.88,2.63-.43,6.73,2.12,8.25,3,1.79,6.18.48,8.07-2.16l10.37-14.48c1.89-2.63.44-6.73-2.11-8.25C275.08,155.13,271.9,156.45,270,159.08Z"/><path class="cls-5" d="M281.1,180.06l-6.62,2.87a6.44,6.44,0,0,0-4.3,7.89c.92,3,4.39,5.85,7.57,4.47l6.62-2.87a6.44,6.44,0,0,0,4.3-7.88C287.75,181.54,284.28,178.68,281.1,180.06Z"/><ellipse class="cls-7" cx="200.28" cy="149.07" rx="22.76" ry="13" transform="translate(-48.95 163.96) rotate(-40.08)"/><path class="cls-9" d="M71.28,291.05l-.75,2.25-.41,1.22-3,8.87-.75,2.24a4.77,4.77,0,0,1-6,2.74l-16,22.22L.53,314.78A34.84,34.84,0,0,1,0,309.59v-36A30.24,30.24,0,0,1,4.23,260.1c.19-.32,4.6,3,4.23,4.63h25.4l3.45,2.46h0c1.26.47,21.77,8.38,32.45,17v.05A7,7,0,0,1,71.28,291.05Z"/><path class="cls-2" d="M62.68,280.43l-.61,1.87-3.3,10.23A3.7,3.7,0,0,1,55.21,295a3.76,3.76,0,0,1-1.25-.2l-14.22-5.13c-3.39-1.22-6.74,1.85-5.53,5.07l7,18.51L5.56,299.9v-23c.26-10,.34-11.78,2.83-22.21h25.4l3.45,2.46h0l18.53,13.23,1.73,1.23h0l2.68,1.92A6.06,6.06,0,0,1,62.68,280.43Z"/><path class="cls-10" d="M54,294.81,41.17,313.26l-7-18.51c-1.21-3.22,2.14-6.29,5.53-5.07Z"/><path class="cls-5" d="M71.28,281.05l-.75,2.25-.41,1.22-3,8.87-.75,2.24a4.77,4.77,0,0,1-6,2.74l-16,22.22L0,304.59v-41A29.82,29.82,0,0,1,15.89,239.1c-2.69,2.42-4.68,6.43-6.15,11-.48,1.5-.91,3.05-1.28,4.63C6,265.16,5.89,266.91,5.63,276.94v23L41.24,313.3,54,294.81a3.76,3.76,0,0,0,1.25.2,3.71,3.71,0,0,0,3.56-2.48l3.3-10.23.61-1.87a6.08,6.08,0,0,0-2.35-6.82l-2.68-1.92h0L56,270.46l-18.6-13.24c1.26.47,21.77,8.38,32.45,17h0A7,7,0,0,1,71.28,281.05Z"/><path class="cls-2" d="M62.68,280.43l-.61,1.87-3.3,10.23A3.7,3.7,0,0,1,55.21,295a3.76,3.76,0,0,1-1.25-.2l-14.22-5.13c-3.39-1.22-6.74,1.85-5.53,5.07l7,18.51L5.56,299.9v-23c.26-10,.34-11.78,2.83-22.21h25.4l3.45,2.46h0l18.53,13.23,1.73,1.23h0l2.68,1.92A6.06,6.06,0,0,1,62.68,280.43Z"/><path class="cls-5" d="M71.28,281.05l-.75,2.25-.41,1.22-3,8.87-.75,2.24a4.77,4.77,0,0,1-6,2.74l-16,22.22L0,304.59v-41A29.82,29.82,0,0,1,15.89,239.1c-2.69,2.42-4.68,6.43-6.15,11-.48,1.5-.91,3.05-1.28,4.63C6,265.16,5.89,266.91,5.63,276.94v23L41.24,313.3,54,294.81a3.76,3.76,0,0,0,1.25.2,3.71,3.71,0,0,0,3.56-2.48l3.3-10.23.61-1.87a6.08,6.08,0,0,0-2.35-6.82l-2.68-1.92h0L56,270.46l-18.6-13.24c1.26.47,21.77,8.38,32.45,17h0A7,7,0,0,1,71.28,281.05Z"/><path class="cls-9" d="M228.74,291.05l.75,2.25.41,1.22,3,8.87.75,2.24a4.77,4.77,0,0,0,6,2.74l16,22.22,43.83-15.81a37.69,37.69,0,0,0,.51-5.19v-36a30.46,30.46,0,0,0-4.22-13.44c-.19-.32-4.6,3-4.23,4.63h-25.4l-3.45,2.46h0c-1.26.47-21.77,8.38-32.45,17v.05A7,7,0,0,0,228.74,291.05Z"/><path class="cls-10" d="M246.06,294.81l12.79,18.45,7-18.51c1.21-3.22-2.14-6.29-5.53-5.07Z"/><path class="cls-2" d="M237.34,280.43l.61,1.87,3.3,10.23a3.68,3.68,0,0,0,3.56,2.47,3.85,3.85,0,0,0,1.25-.2l14.22-5.13c3.39-1.22,6.74,1.85,5.53,5.07l-7,18.51,35.61-13.36V279.05c0-.17,0-.73-.05-1.62v-.49c-.26-10-.34-11.78-2.83-22.21h-25.4l-3.45,2.46h0l-18.53,13.23-1.73,1.23h0l-2.68,1.92A6.06,6.06,0,0,0,237.34,280.43Z"/><path class="cls-5" d="M228.74,281.05l.75,2.25.41,1.22,3,8.87.75,2.24a4.77,4.77,0,0,0,6,2.74l16,22.22,44.34-16v-41a29.86,29.86,0,0,0-15.88-24.49c2.69,2.42,4.68,6.43,6.15,11,.48,1.5.91,3.05,1.28,4.63,2.49,10.43,2.57,12.18,2.83,22.21v.49c0,.89.05,1.45.05,1.62V299.9l-35.61,13.36L246,294.81a3.85,3.85,0,0,1-1.25.2,3.69,3.69,0,0,1-3.56-2.48l-3.3-10.23-.61-1.87a6,6,0,0,1,2.35-6.82l2.68-1.92h0l1.73-1.23,18.53-13.23c-1.26.47-21.77,8.38-32.45,17h0A7,7,0,0,0,228.74,281.05Z"/><ellipse class="cls-7" cx="45.58" cy="275.44" rx="7.11" ry="12.43" transform="translate(-211.48 166.52) rotate(-57.64)"/><ellipse class="cls-7" cx="254.43" cy="275.46" rx="12.43" ry="7.11" transform="translate(-107.93 178.96) rotate(-32.36)"/></svg>