<svg id="Layer_1" data-name="Layer 1" xmlns="http://www.w3.org/2000/svg" xmlns:xlink="http://www.w3.org/1999/xlink" viewBox="0 0 300 345"><defs><style>.cls-1{fill:#42b7ea;}.cls-2{fill:url(#linear-gradient);}.cls-3{fill:#8ee8ef;}.cls-4{fill:#1f7093;fill-opacity:0.7;}.cls-5{fill:#46c3e0;fill-opacity:0.5;opacity:0.99;isolation:isolate;}.cls-6,.cls-9{fill:#15141a;}.cls-6{stroke:#15141a;stroke-miterlimit:10;stroke-width:7px;}.cls-7{fill:#e4f5fd;}.cls-8{fill:#0d69b5;}.cls-10{fill:#fff;}.cls-11{fill:#bdedf4;}</style><linearGradient id="linear-gradient" x1="149.97" y1="1478.03" x2="149.97" y2="1290.66" gradientTransform="translate(0.02 -1063.72)" gradientUnits="userSpaceOnUse"><stop offset="0.35" stop-color="#2b9fe0"/><stop offset="1" stop-color="#1c5b99"/></linearGradient></defs><rect class="cls-1" x="-0.01" y="45" width="300" height="253.39" rx="36.38"/><rect class="cls-2" x="-0.01" y="229.33" width="300" height="115.67" rx="36.38"/><path class="cls-3" d="M274.1,46.54c.86,7.5-1.41,16-10,24.61C247.55,87.66,239.62,92.49,236,93.82a24.9,24.9,0,0,1,15,15.83c1-3.31,5.35-11.16,22.83-28.64,8.61-8.61,17.11-10.88,24.57-10A36.5,36.5,0,0,0,274.1,46.54Z"/><path class="cls-3" d="M25.88,46.54c-.86,7.5,1.41,16,10,24.61C52.43,87.66,60.36,92.49,64,93.82a24.87,24.87,0,0,0-15,15.8C48.05,106.31,43.6,98.46,26.12,81,17.47,72.37,9,70.1,1.51,70.94A36.48,36.48,0,0,1,25.88,46.54Z"/><rect class="cls-4" x="47.78" y="92.25" width="204.41" height="137.08" rx="24.79"/><rect class="cls-5" x="0.01" y="45" width="300" height="253.39" rx="36.38"/><path class="cls-6" d="M186.59,277.49h-73.2c0-36.68,18.33-45.87,36.6-45.87S186.59,240.82,186.59,277.49Z"/><polygon class="cls-7" points="122.53 261.94 113.39 277.49 131.68 277.49 122.53 261.94"/><polygon class="cls-7" points="140.83 261.94 131.68 277.49 149.97 277.49 140.83 261.94"/><polygon class="cls-7" points="159.12 261.94 149.97 277.49 168.26 277.49 159.12 261.94"/><polygon class="cls-7" points="177.41 261.94 168.26 277.49 186.56 277.49 177.41 261.94"/><path class="cls-8" d="M97.38,209.92A36.45,36.45,0,1,1,30.72,180.4C38.87,162,105.54,191.51,97.38,209.92Z"/><path class="cls-9" d="M93.29,219.17a36.46,36.46,0,0,1-66.67-29.52C34.77,171.24,101.44,200.76,93.29,219.17Z"/><circle class="cls-10" cx="76.04" cy="210.16" r="7.63"/><path class="cls-8" d="M202.6,209.92a36.45,36.45,0,0,0,66.66-29.52C261.11,162,194.44,191.51,202.6,209.92Z"/><path class="cls-9" d="M206.69,219.17a36.46,36.46,0,0,0,66.67-29.52C265.21,171.24,198.54,200.76,206.69,219.17Z"/><circle class="cls-10" cx="261.07" cy="210.16" r="7.63"/><ellipse class="cls-11" cx="46.22" cy="92.39" rx="27.27" ry="18.31" transform="matrix(0.94, -0.35, 0.35, 0.94, -29.26, 21.85)"/><circle class="cls-11" cx="94.67" cy="73.66" r="12.38"/><circle class="cls-11" cx="279.02" cy="260.65" r="7"/></svg>