<?xml version="1.0" encoding="UTF-8" standalone="no"?>
<svg id="Layer_1" data-name="Layer 1" viewBox="0 0 300 345" version="1.1" sodipodi:docname="joey.svg" xml:space="preserve" inkscape:version="1.2 (dc2aedaf03, 2022-05-15)" xmlns:inkscape="http://www.inkscape.org/namespaces/inkscape" xmlns:sodipodi="http://sodipodi.sourceforge.net/DTD/sodipodi-0.dtd" xmlns:xlink="http://www.w3.org/1999/xlink" xmlns="http://www.w3.org/2000/svg" xmlns:svg="http://www.w3.org/2000/svg"><sodipodi:namedview id="namedview14668" pagecolor="#505050" bordercolor="#ffffff" borderopacity="1" inkscape:showpageshadow="0" inkscape:pageopacity="0" inkscape:pagecheckerboard="1" inkscape:deskcolor="#505050" showgrid="false" inkscape:zoom="2.3193102" inkscape:cx="72.866491" inkscape:cy="191.86739" inkscape:window-width="1366" inkscape:window-height="705" inkscape:window-x="-8" inkscape:window-y="-8" inkscape:window-maximized="1" inkscape:current-layer="Layer_1"/><defs id="defs14585"><inkscape:path-effect effect="fillet_chamfer" id="path-effect5823" is_visible="true" lpeversion="1" nodesatellites_param="F,0,0,1,0,0,0,1 @ F,0,0,1,0,14.318966,0,1 @ F,0,0,1,0,0,0,1 @ F,0,0,1,0,0,0,1 @ F,0,0,1,0,10.666864,0,1 @ F,0,0,1,0,0,0,1" unit="px" method="auto" mode="F" radius="0" chamfer_steps="1" flexible="false" use_knot_distance="true" apply_no_radius="true" apply_with_radius="true" only_selected="false" hide_knots="false"/><inkscape:path-effect effect="mirror_symmetry" start_point="211.17794,135.66398" end_point="211.17794,185.7108" center_point="211.17794,160.68739" id="path-effect3000" is_visible="true" lpeversion="1.2" lpesatellites="" mode="vertical" discard_orig_path="false" fuse_paths="false" oposite_fuse="false" split_items="true" split_open="false" link_styles="false"/><inkscape:path-effect effect="mirror_symmetry" start_point="213.7742,135.62125" end_point="213.7742,187.06615" center_point="213.7742,161.3437" id="path-effect7151" is_visible="true" lpeversion="1.2" lpesatellites="" mode="vertical" discard_orig_path="false" fuse_paths="false" oposite_fuse="false" split_items="false" split_open="false" link_styles="false"/><linearGradient inkscape:collect="always" id="linearGradient30702"><stop style="stop-color:#bba88c;stop-opacity:1;" offset="0" id="stop30698"/><stop style="stop-color:#d5cebe;stop-opacity:1;" offset="0.66322315" id="stop30700"/></linearGradient><inkscape:path-effect effect="fillet_chamfer" id="path-effect28034" is_visible="true" lpeversion="1" nodesatellites_param="F,0,0,1,0,6.3319807,0,1 @ F,0,0,1,0,0,0,1 @ F,0,0,1,0,0,0,1 @ F,0,0,1,0,0,0,1 @ F,0,0,1,0,0,0,1" unit="px" method="auto" mode="F" radius="0" chamfer_steps="1" flexible="false" use_knot_distance="true" apply_no_radius="true" apply_with_radius="true" only_selected="false" hide_knots="false"/><inkscape:path-effect effect="fillet_chamfer" id="path-effect28030" is_visible="true" lpeversion="1" nodesatellites_param="F,0,0,1,0,6.3319807,0,1 @ F,0,0,1,0,0,0,1 @ F,0,0,1,0,0,0,1 @ F,0,0,1,0,0,0,1 @ F,0,0,1,0,0,0,1" unit="px" method="auto" mode="F" radius="0" chamfer_steps="1" flexible="false" use_knot_distance="true" apply_no_radius="true" apply_with_radius="true" only_selected="false" hide_knots="false"/><inkscape:path-effect effect="fillet_chamfer" id="path-effect28026" is_visible="true" lpeversion="1" nodesatellites_param="F,0,0,1,0,6.3319807,0,1 @ F,0,0,1,0,0,0,1 @ F,0,0,1,0,0,0,1 @ F,0,0,1,0,0,0,1 @ F,0,0,1,0,0,0,1" unit="px" method="auto" mode="F" radius="0" chamfer_steps="1" flexible="false" use_knot_distance="true" apply_no_radius="true" apply_with_radius="true" only_selected="false" hide_knots="false"/><inkscape:path-effect effect="fillet_chamfer" id="path-effect26973" is_visible="true" lpeversion="1" nodesatellites_param="F,0,0,1,0,6.3319807,0,1 @ F,0,0,1,0,0,0,1 @ F,0,0,1,0,0,0,1 @ F,0,0,1,0,0,0,1 @ F,0,0,1,0,0,0,1" unit="px" method="auto" mode="F" radius="0" chamfer_steps="1" flexible="false" use_knot_distance="true" apply_no_radius="true" apply_with_radius="true" only_selected="false" hide_knots="false"/><inkscape:path-effect effect="fillet_chamfer" id="path-effect25006" is_visible="true" lpeversion="1" nodesatellites_param="F,0,0,1,0,6.3319807,0,1 @ F,0,0,1,0,0,0,1 @ F,0,0,1,0,0,0,1 @ F,0,0,1,0,0,0,1 @ F,0,0,1,0,0,0,1" unit="px" method="auto" mode="F" radius="0" chamfer_steps="1" flexible="false" use_knot_distance="true" apply_no_radius="true" apply_with_radius="true" only_selected="false" hide_knots="false"/><inkscape:path-effect effect="fillet_chamfer" id="path-effect25000" is_visible="true" lpeversion="1" nodesatellites_param="F,0,0,1,0,6.3319807,0,1 @ F,0,0,1,0,0,0,1 @ F,0,0,1,0,0,0,1 @ F,0,0,1,0,0,0,1 @ F,0,0,1,0,0,0,1" unit="px" method="auto" mode="F" radius="0" chamfer_steps="1" flexible="false" use_knot_distance="true" apply_no_radius="true" apply_with_radius="true" only_selected="false" hide_knots="false"/><linearGradient id="linear-gradient" x1="150" y1="356.11" x2="150" y2="161.16" gradientUnits="userSpaceOnUse"><stop offset="0.01" stop-color="#f47e20" id="stop14580" style="stop-color:#ab8045;stop-opacity:1;"/><stop offset="0.69" stop-color="#ae402f" id="stop14582"/></linearGradient><linearGradient inkscape:collect="always" xlink:href="#linearGradient30702" id="linearGradient30704" x1="150" y1="298.38086" x2="150.75757" y2="345" gradientUnits="userSpaceOnUse"/></defs><path d="M263.62,345H36.38A36.38,36.38,0,0,1,0,308.62V259.14H300v49.48A36.38,36.38,0,0,1,263.62,345Z" fill="url(#linear-gradient)" id="path14587"/><path d="M205.94,45H94.06A94.06,94.06,0,0,0,0,139.06V262a36.38,36.38,0,0,0,36.38,36.38H263.62A36.38,36.38,0,0,0,300,262V139.06A94.06,94.06,0,0,0,205.94,45Z" fill="#f18221" id="path14591" style="fill:#ab8045;fill-opacity:1"/><path id="rect28687" style="opacity:1;fill:#d5cebe;fill-opacity:1;stroke:none;stroke-width:1.02968;stroke-linecap:round;stroke-linejoin:round;stop-color:#000000;stop-opacity:1" class="UnoptimicedTransforms" d="M 94.060547,45 C 72.749196,45.06222 52.090663,52.359741 35.46875,65.697266 30.646506,103.67421 25.705126,144.01151 33.003159,199.36307 c 0.55931,4.24206 -1.105832,1.29019 0.941391,5.04181 1.021965,8.82459 11.23913,31.04229 11.504404,39.73028 0.701704,22.98149 -5.942001,38.07002 21.386984,54.2457 H 233.16406 c 19.81008,-15.2184 19.11353,-38.21828 16.45906,-51.12992 -3.56506,-17.14461 6.08589,-28.06479 9.17654,-40.13694 0.71605,-2.7969 0.42187,-1.93751 0.75777,-4.5657 14.49134,-42.31477 9.06018,-94.83596 4.94452,-137.069784 C 247.85885,52.225778 227.2145,45.006725 205.93945,45 Z" sodipodi:nodetypes="ccscscccscccc"/><path id="path7056" style="opacity:1;fill:#bdaa88;fill-opacity:1;stroke:none;stroke-width:0.670038;stroke-linecap:round;stop-color:#000000;stop-opacity:1" class="UnoptimicedTransforms" d="m 214.88558,178.09375 c -0.36458,10.12027 -3.50124,21.0126 -11.01607,33.16406 -21.76748,30.87539 -78.50068,37.3322 -107.737834,0 -7.40737,-11.9777 -10.481333,-22.73102 -10.822168,-32.72851 -0.42026,11.12104 2.417487,23.13816 10.822168,36.72851 29.237154,37.3322 85.970354,30.87539 107.737834,0 8.51487,-13.76853 11.41048,-25.92094 11.01607,-37.16406 z" transform="matrix(1.0777935,0,0,1,-11.774158,4)"/><path id="rect40555" style="opacity:1;fill:#bdaa88;fill-opacity:1;stroke-width:1.82;stroke-linecap:round;stroke-linejoin:round;stop-color:#000000;stop-opacity:1" d="m 117.21387,172.77 77.17572,3.90016 c 12.67898,19.16812 13.12408,41.87745 59.23363,27.90274 -65.4813,37.48001 -159.613652,28.15183 -207.742631,-0.49619 44.577967,16.40376 60.505371,-8.1051 71.333281,-31.30671 z" sodipodi:nodetypes="ccccc"/><path style="opacity:1;fill:none;fill-opacity:1;stroke:#bdaa88;stroke-width:4.732;stroke-linecap:round;stroke-linejoin:round;stroke-dasharray:none;stroke-opacity:1;stop-color:#000000;stop-opacity:1" d="m 31.744569,200.27344 c 0,0 75.398831,33.66874 115.501831,33.66874 40.10301,0 115.50184,-33.66874 115.50184,-33.66874" id="path31099" sodipodi:nodetypes="cac"/><path id="rect29522" style="opacity:1;fill:url(#linearGradient30704);fill-opacity:1;stroke-width:1.13014;stroke-linecap:round;stroke-linejoin:round;stop-color:#000000;stop-opacity:1.0" d="M 66.835937,298.38086 H 233.16406 C 222.46971,312.34023 217.86062,328.01151 210.43679,345 H 91.078361 C 86.245254,327.70647 75.545481,312.93924 66.835937,298.38086 Z" sodipodi:nodetypes="ccccc"/><path style="opacity:1;fill:none;fill-opacity:1;stroke:#bdaa88;stroke-width:5.00669;stroke-linecap:round;stroke-linejoin:round;stroke-dasharray:none;stroke-opacity:1;stop-color:#000000;stop-opacity:1" d="m 67.944419,298.50604 c 0,0 52.338491,21.25472 80.328731,21.29879 28.32684,0.0446 81.38373,-21.29879 81.38373,-21.29879" id="path33036" sodipodi:nodetypes="cac"/><path id="path33038" style="fill:#d5cebe;fill-opacity:1;fill-rule:evenodd;stroke-width:0.809318" d="m 232.11315,293.64334 c -1e-5,10.8 -57.77596,23.91115 -82.16751,23.99479 -24.39155,0.0837 -85.238089,-13.46149 -85.615889,-24.26018 l 85.271969,4.59808 z" sodipodi:nodetypes="csccc"/><path id="rect33995" style="opacity:1;fill:#bdaa88;fill-opacity:1;stroke-width:2.62148;stroke-linecap:round;stroke-linejoin:round;stop-color:#000000;stop-opacity:1" d="m 118.56061,264.14884 17.605,2.15189 a 117.1458,117.1458 0 0 0 28.42636,0 l 17.605,-2.15189 v 0.26738 l -21.48626,5.51522 a 41.556087,41.556087 -180 0 1 -20.66384,0 l -21.48626,-5.51522 z" sodipodi:nodetypes="ccccccc" inkscape:path-effect="#path-effect5823" inkscape:original-d="m 118.56061,264.14884 31.81818,3.8892 31.81818,-3.8892 v 0.26738 l -31.81818,8.16728 -31.81818,-8.16728 z"/><path id="rect34516" style="opacity:1;fill:#d5cebe;fill-opacity:1;stroke-width:1.82268;stroke-linecap:round;stroke-linejoin:round;stop-color:#000000;stop-opacity:1" d="m 8.7964135,149.91545 38.2636095,3.67274 -6.88049,30.25636 z" sodipodi:nodetypes="cccc"/><path id="path34657" style="opacity:1;fill:#d5cebe;fill-opacity:1;stroke-width:1.24212;stroke-linecap:round;stroke-linejoin:round;stop-color:#000000;stop-opacity:1" d="m 20.984123,176.82771 25.20535,-11.86118 -4.68892,20.61912 z" sodipodi:nodetypes="cccc"/><path id="path34659" style="opacity:1;fill:#d5cebe;fill-opacity:1;stroke-width:1.45951;stroke-linecap:round;stroke-linejoin:round;stop-color:#000000;stop-opacity:1" d="m 270.17024,251.47624 -37.44833,6.01175 12.74963,16.16036 z" sodipodi:nodetypes="cccc"/><path id="path39569" d="m 209.64038,207.51359 -22.51864,24.6565 39.90645,-11.25932 c -6.48977,-2.83426 -15.06692,-3.61478 -17.38781,-13.39718 z" style="fill:#68442e;fill-opacity:1;stroke-width:1.82;stroke-linecap:round;stroke-linejoin:round;stop-color:#000000"/><path id="path39571" d="m 208.17404,212.81295 c 8.11176,-0.0881 16.16581,4.21496 22.24663,9.30164 5.28817,4.60583 10.08508,10.64823 10.85652,17.843 0.18104,2.0463 0.62445,4.63473 -0.83558,6.0566 -1.71828,1.67337 -1.86301,4.05407 -7.15142,0.7943 2.52735,6.22201 0.62526,6.01119 -1.13178,8.09242 -3.48991,4.13382 -10.14974,5.89999 -15.46876,4.91211 -2.98349,-0.55411 -4.22451,0.21995 -7.10862,-5.68695 -0.99089,5.4987 -2.40041,4.50203 -4.51638,4.46234 -4.99826,-0.0937 -8.56899,-6.08123 -10.26566,-10.93337 -1.46671,-4.17013 2.94813,-9.5749 3.08049,-14.01663 0.12277,-4.11976 -4.62388,-7.52142 -3.01812,-11.31452 1.91819,-4.5867 5.88734,-8.58759 10.9794,-9.27767 0.77101,-0.13253 1.55151,-0.20773 2.33328,-0.23327 z" style="fill:#9f693c;fill-opacity:1;stroke-width:2.12041;stroke-linecap:round;stroke-linejoin:round;stop-color:#000000"/><path id="path39575" d="m 208.17426,212.81368 c 8.11176,-0.0881 16.16528,4.21411 22.2461,9.30078 1.62811,1.41803 3.20879,2.97417 4.64062,4.65625 -17.10185,-14.08677 -30.14102,-13.65688 -37.25781,7.72656 0.0405,-0.28992 0.0678,-0.57668 0.0762,-0.85937 0.12277,-4.11976 -4.62333,-7.52136 -3.01757,-11.31445 1.91819,-4.5867 5.88646,-8.58727 10.97851,-9.27735 0.77101,-0.13253 1.55221,-0.20688 2.33398,-0.23242 z" style="fill:#6b4729;fill-opacity:1;stroke-width:1.82;stroke-linecap:round;stroke-linejoin:round;stop-color:#000000"/><path id="path34661" style="opacity:1;fill:#d5cebe;fill-opacity:1;stroke-width:1.82268;stroke-linecap:round;stroke-linejoin:round;stop-color:#000000;stop-opacity:1" d="m 216.0684,22.880654 -3.67274,38.2636 -30.25636,-6.88048 z" sodipodi:nodetypes="cccc"/><path id="path34663" style="opacity:1;fill:#d5cebe;fill-opacity:1;stroke-width:1.24212;stroke-linecap:round;stroke-linejoin:round;stop-color:#000000;stop-opacity:1" d="m 195.38473,31.718918 11.86118,25.20534 -20.61912,-4.68891 z" sodipodi:nodetypes="cccc"/><path id="rect39500" style="fill:#68442e;fill-opacity:1;stroke-width:1.82;stroke-linecap:round;stroke-linejoin:round;stop-color:#000000" d="m 90.359623,207.51359 22.518637,24.6565 -39.906451,-11.25932 c 6.489775,-2.83426 15.066923,-3.61478 17.387814,-13.39718 z" sodipodi:nodetypes="cccc"/><path id="rect39121" style="fill:#9f693c;fill-opacity:1;stroke-width:2.12041;stroke-linecap:round;stroke-linejoin:round;stop-color:#000000" inkscape:transform-center-x="8.7544897" inkscape:transform-center-y="22.750954" d="m 91.825964,212.81295 c -8.11176,-0.0881 -16.16581,4.21496 -22.24663,9.30164 -5.28817,4.60583 -10.08508,10.64823 -10.856528,17.843 -0.18104,2.0463 -0.624443,4.63473 0.835588,6.0566 1.718277,1.67337 1.863005,4.05407 7.151415,0.7943 -2.52735,6.22201 -0.625255,6.01119 1.131785,8.09242 3.489908,4.13382 10.149735,5.89999 15.46876,4.91211 2.983481,-0.55411 4.224503,0.21995 7.108613,-5.68695 0.99089,5.4987 2.400415,4.50203 4.516387,4.46234 4.998253,-0.0937 8.568986,-6.08123 10.265656,-10.93337 1.46671,-4.17013 -2.94813,-9.5749 -3.08049,-14.01663 -0.12277,-4.11976 4.62388,-7.52142 3.01812,-11.31452 -1.91819,-4.5867 -5.887343,-8.58759 -10.979396,-9.27767 -0.77101,-0.13253 -1.55151,-0.20773 -2.33328,-0.23327 z" sodipodi:nodetypes="cccacaacacsccc"/><path id="rect39503" style="fill:#6b4729;fill-opacity:1;stroke-width:1.82;stroke-linecap:round;stroke-linejoin:round;stop-color:#000000" d="m 91.825735,212.81368 c -8.111752,-0.0881 -16.16528,4.21411 -22.246094,9.30078 -1.628109,1.41803 -3.208788,2.97417 -4.640625,4.65625 17.101854,-14.08677 30.14102,-13.65688 37.257814,7.72656 -0.0405,-0.28992 -0.0678,-0.57668 -0.0762,-0.85937 -0.12277,-4.11976 4.62333,-7.52136 3.01757,-11.31445 -1.91819,-4.5867 -5.886461,-8.58727 -10.978509,-9.27735 -0.771009,-0.13253 -1.552215,-0.20688 -2.333984,-0.23242 z" sodipodi:nodetypes="ccccsccc"/><path id="rect24859" style="opacity:1;fill:#936741;fill-opacity:1.0;stroke-width:6.593;stroke-linecap:round;stop-color:#000000;stop-opacity:1.0" d="M 64.553979,7.7634979 C 91.48898,21.820013 117.29227,41.211778 135.83669,94.823889 L 99.101406,127.07633 C 95.054886,119.19161 88.74506,113.2873 74.194547,114.59359 66.630902,116.01355 58.549813,115.84274 53.508923,104.22643 46.420783,80.412359 43.056322,53.288349 56.875832,10.8897 c 1.0837,-3.324822 4.577923,-4.7441093 7.678147,-3.1262021 z" sodipodi:nodetypes="cccccc" inkscape:path-effect="#path-effect25000" inkscape:original-d="M 58.909898,4.8934739 C 87.858324,19.284072 116.00028,37.47663 135.83669,94.823889 L 99.101406,127.07633 C 95.054886,119.19161 88.74506,113.2873 74.194547,114.59359 66.630902,116.01355 58.549813,115.84274 53.508923,104.22643 46.092191,79.308385 42.752385,50.766404 58.909898,4.8934739 Z"/><path id="path28016" style="fill:#936741;fill-opacity:1.0;stroke-width:6.593;stroke-linecap:round;stop-color:#000000;stop-opacity:1.0" d="m 280.98471,47.740818 c -30.34715,1.459696 -61.90527,8.237212 -101.23062,49.12328 l 19.81535,44.688392 c 6.98106,-5.45966 15.18578,-8.1721 27.84587,-0.88198 6.27012,4.46212 13.67733,7.69732 23.12653,-0.7325 16.42487,-18.64337 30.85824,-41.853487 36.10112,-86.138206 0.41114,-3.472724 -2.16529,-6.226997 -5.65825,-6.058986 z" sodipodi:nodetypes="cccccc" inkscape:path-effect="#path-effect28026" inkscape:original-d="m 287.31214,47.503428 c -32.31498,0.918268 -65.49291,5.626076 -107.55805,49.36067 l 19.81535,44.688392 c 6.98106,-5.45966 15.18578,-8.1721 27.84587,-0.88198 6.27012,4.46212 13.67733,7.69732 23.12653,-0.7325 17.1863,-19.50764 32.19216,-44.015252 36.7703,-92.434582 z"/><path id="path28018" style="fill:#7d5330;fill-opacity:1;stroke-width:6.593;stroke-linecap:round;stop-color:#000000;stop-opacity:1" d="m 279.62978,54.220698 c -30.34713,1.459698 -61.90526,8.237211 -101.23062,49.123272 l 19.81535,44.6884 c 6.98106,-5.45966 15.18579,-8.1721 27.84588,-0.88198 6.27013,4.46213 13.67733,7.69732 23.12653,-0.7325 16.42488,-18.64336 30.85824,-41.85348 36.10111,-86.138207 0.41114,-3.472724 -2.16529,-6.226997 -5.65825,-6.058985 z" sodipodi:nodetypes="cccccc" inkscape:path-effect="#path-effect28030" inkscape:original-d="m 285.95721,53.983307 c -32.31496,0.918271 -65.4929,5.626075 -107.55805,49.360663 l 19.81535,44.6884 c 6.98106,-5.45966 15.18579,-8.1721 27.84588,-0.88198 6.27013,4.46213 13.67733,7.69732 23.12653,-0.7325 17.18631,-19.50763 32.19216,-44.01525 36.77029,-92.434583 z"/><path id="path28020" style="fill:#d39cd5;fill-opacity:1.0;stroke-width:6.593;stroke-linecap:round;stop-color:#000000;stop-opacity:1.0" d="m 280.98471,47.740818 c -30.34715,1.459696 -61.90527,8.237212 -101.23062,49.12328 l 19.81535,44.688392 c 6.98106,-5.45966 15.18578,-8.1721 27.84587,-0.88198 6.27012,4.46212 13.67733,7.69732 23.12653,-0.7325 16.42487,-18.64337 30.85824,-41.853487 36.10112,-86.138206 0.41114,-3.472724 -2.16529,-6.226997 -5.65825,-6.058986 z" sodipodi:nodetypes="cccccc" inkscape:path-effect="#path-effect28034" inkscape:original-d="m 287.31214,47.503428 c -32.31498,0.918268 -65.49291,5.626076 -107.55805,49.36067 l 19.81535,44.688392 c 6.98106,-5.45966 15.18578,-8.1721 27.84587,-0.88198 6.27012,4.46212 13.67733,7.69732 23.12653,-0.7325 17.1863,-19.50764 32.19216,-44.015252 36.7703,-92.434582 z"/><path id="ellipse28431" style="fill:#e175d8;fill-opacity:1.0;fill-rule:evenodd;stroke-width:1.12896" d="M 237.9679 -90.816422 C 223.2541 -74.762262 210.83238 -52.37044 203.5888 -15.670476 L 222.38907 -3.290072 A 45.445145 35.390903 90 0 0 225.05243 -3.0651125 A 45.445145 35.390903 90 0 0 260.44352 -48.509962 A 45.445145 35.390903 90 0 0 237.9679 -90.816422 z " transform="rotate(32.720168)"/><path id="path28022" style="fill:#9f693c;fill-rule:evenodd;stroke:#936741;stroke-width:1.132;stroke-linecap:round;stroke-linejoin:round;stroke-dasharray:none;stroke-opacity:1;fill-opacity:1" d="m 284.91686,49.09378 c 0.12573,0.111641 0.26333,0.210329 0.37729,0.333591 -23.86996,-1.790039 -74.08457,40.407656 -91.84311,78.326279 L 179.75366,96.864478 c 39.32532,-40.886024 70.88402,-47.663518 101.23113,-49.123215 0.27352,-0.01316 0.53004,0.02135 0.79131,0.04297 1.093,0.427483 2.14351,0.863369 3.14076,1.309546 z"/><path id="path26969" style="opacity:1;fill:#7d5330;fill-opacity:1;stroke-width:6.593;stroke-linecap:round;stop-color:#000000;stop-opacity:1" d="M 63.065405,14.213987 C 90.000407,28.270501 115.8037,47.662266 134.34812,101.27437 l -36.735284,32.25245 c -4.046524,-7.88472 -10.35635,-13.78903 -24.906863,-12.48274 -7.563645,1.41996 -15.644734,1.24915 -20.685624,-10.36716 -7.08814,-23.814073 -10.452601,-50.938083 3.366909,-93.336731 1.0837,-3.324822 4.577923,-4.744109 7.678147,-3.126202 z" sodipodi:nodetypes="cccccc" inkscape:path-effect="#path-effect26973" inkscape:original-d="M 57.421324,11.343963 C 86.36975,25.73456 114.51171,43.927118 134.34812,101.27437 L 97.612836,133.52682 C 93.566312,125.6421 87.256486,119.73779 72.705973,121.04408 65.142328,122.46404 57.061239,122.29323 52.020349,110.67692 44.603617,85.758873 41.263811,57.216892 57.421324,11.343963 Z"/><path id="path25002" style="opacity:1;fill:#d39cd5;fill-opacity:1.0;stroke-width:6.593;stroke-linecap:round;stop-color:#000000;stop-opacity:1.0" d="M 64.553979,7.7634979 C 91.48898,21.820013 117.29227,41.211778 135.83669,94.823889 L 99.101406,127.07633 C 95.054886,119.19161 88.74506,113.2873 74.194547,114.59359 66.630902,116.01355 58.549813,115.84274 53.508923,104.22643 46.420783,80.412359 43.056322,53.288349 56.875832,10.8897 c 1.0837,-3.324822 4.577923,-4.7441093 7.678147,-3.1262021 z" sodipodi:nodetypes="cccccc" inkscape:path-effect="#path-effect25006" inkscape:original-d="M 58.909898,4.8934739 C 87.858324,19.284072 116.00028,37.47663 135.83669,94.823889 L 99.101406,127.07633 C 95.054886,119.19161 88.74506,113.2873 74.194547,114.59359 66.630902,116.01355 58.549813,115.84274 53.508923,104.22643 46.092191,79.308385 42.752385,50.766404 58.909898,4.8934739 Z"/><path id="path28360" style="fill:#ea60da;fill-opacity:0.64215684;fill-rule:evenodd;stroke-width:1.12896" d="M 96.300781 29.373047 A 35.390903 45.445145 0 0 0 80.433594 67.162109 A 35.390903 45.445145 0 0 0 115.60156 112.58789 L 135.83594 94.824219 C 124.79815 62.913869 111.18979 43.127613 96.300781 29.373047 z "/><path id="rect15900" style="opacity:1;fill:#9f693c;fill-opacity:1;stroke:none;stroke-width:0.670038;stroke-linecap:round;stop-color:#000000;stop-opacity:1" class="UnoptimicedTransforms" d="m 150,88.847232 c -27.48852,-0.993291 -46.28863,24.139938 -49.51852,45.371518 -12.315308,24.1841 -24.811624,47.95365 -4.350621,81.03906 29.237181,37.33223 85.970781,30.87542 107.738281,0 20.461,-33.08541 8.54655,-56.85496 -3.76876,-81.03906 C 194.12769,101.59318 170.67002,87.118541 150,88.847232 Z" transform="matrix(1.0777935,0,0,1,-11.774158,0)" sodipodi:nodetypes="cccccc"/><path id="path26407" style="opacity:1;fill:#9f693c;fill-rule:evenodd;stroke:none;stroke-width:1.132;stroke-linecap:round;stroke-linejoin:round;stroke-dasharray:none;stroke-opacity:1;fill-opacity:1" d="M 60.416992,7.3419922 C 60.256027,7.3905846 60.089718,7.4224396 59.93457,7.4865234 82.353302,15.875753 110.2321,75.246832 110.44434,117.11738 L 135.83692,94.824414 C 117.29251,41.212357 91.488685,21.820368 64.553711,7.7638672 64.310951,7.6371786 64.063628,7.5608851 63.817383,7.4708984 62.645888,7.4003991 61.509426,7.3553524 60.416992,7.3419922 Z"/><path id="rect19547" style="opacity:1;fill:#c1a185;stroke-width:0.293707;stroke-linecap:round;stop-color:#000000;fill-opacity:1;stop-opacity:1" d="M 152.33398 182.65234 C 151.56092 182.63942 150.78207 182.64898 150 182.67969 C 124.85583 183.6671 104.34943 197.63882 115.5 232.24609 C 115.72506 232.94461 116.21918 233.50204 116.82617 234 C 137.87065 243.45722 162.63533 242.74001 182.33984 234.39062 C 183.14162 233.71503 183.87322 233.00302 184.5 232.24609 C 195.52206 204.19539 176.29886 183.05289 152.33398 182.65234 z "/><path d="m 174.40139,217.98597 c 0,11.78236 -20.09434,11.2575 -23.81322,-1.4074 C 150.20894,215.2871 150,203.08143 150,201.53765 c 0,1.50732 -0.19907,13.6824 -0.56124,14.94908 -3.64756,12.75791 -23.84015,13.30512 -23.84015,1.49924" stroke="#414042" stroke-width="4.70818" id="path62641" style="fill:none;stroke:#202023;stroke-linecap:round;stroke-miterlimit:10;stroke-opacity:1" sodipodi:nodetypes="cscsc"/><path id="path19513" style="opacity:1;fill:#202023;fill-opacity:1;stroke-width:0.351498;stroke-linecap:round;stop-color:#000000;stop-opacity:1" class="UnoptimicedTransforms" d="m 149.79688,173.43945 a 24.973079,24.973079 0 0 0 -8.42774,1.51758 l -10.2793,3.76953 c -1.90142,0.69726 -3.47833,2.90532 -3.3789,4.92774 0.55402,11.26972 4.38159,15.06657 9.19531,16.61328 3.42961,1.10198 8.15576,1.83696 12.89063,2.00586 4.73486,-0.1689 9.46101,-0.90388 12.89062,-2.00586 4.81372,-1.54671 8.64129,-5.34356 9.19531,-16.61328 0.0994,-2.02242 -1.47748,-4.23048 -3.3789,-4.92774 l -10.2793,-3.76953 a 24.973079,24.973079 0 0 0 -8.42773,-1.51758 z" transform="translate(0,4)"/><ellipse cx="227.082" cy="88.009499" fill="#15141a" id="circle2046" style="fill:#6b4729;fill-opacity:1;stroke-width:0.554469" transform="matrix(0.94745967,0.31987526,-0.25506328,0.96692436,0,0)" rx="18.579544" ry="21.984444"/><ellipse cx="227.082" cy="94.113281" fill="#ffffff" id="circle2050" style="stroke-width:0.554469" transform="matrix(0.94745967,0.31987526,-0.25506328,0.96692436,0,0)" rx="18.579544" ry="21.984444"/><path d="m 204.74953,163.83002 a 8.7941618,10.544482 5.6520535 0 1 -8.51744,-17.71949 16.131499,19.342185 5.6520535 0 0 -2.06024,-0.89607 15.299979,18.345166 5.6520535 1 0 10.5797,18.60788 z m -24.48988,8.34667 a 3.632082,4.3549829 5.6520535 1 1 4.57079,-3.00941 3.6254299,4.3470068 5.6520535 0 1 -4.57079,3.00941 z" fill="#15141a" id="path2056" style="stroke-width:0.728414;fill:#202020;fill-opacity:1"/><path id="path3059" d="m 89.69359,163.67958 a 22.10512,18.435805 84.347948 0 0 23.21079,15.31415 22.10512,18.435805 84.347948 0 0 11.99594,-27.20042 22.10512,18.435805 84.347948 0 0 -23.21079,-15.31416 22.10512,18.435805 84.347948 0 0 -11.99594,27.20043 z" style="fill:#6b4729;fill-opacity:1;stroke-width:0.553834" fill="#15141a"/><path id="path3061" d="m 91.250441,169.58147 a 22.10512,18.435805 84.347948 0 0 23.210789,15.31416 22.10512,18.435805 84.347948 0 0 11.99594,-27.20043 22.10512,18.435805 84.347948 0 0 -23.21079,-15.31416 22.10512,18.435805 84.347948 0 0 -11.995939,27.20043 z" style="stroke-width:0.553834" fill="#ffffff"/><path id="path3063" d="m 125.85026,163.83002 a 8.7941618,10.544482 5.652053 0 1 -8.51744,-17.71949 16.131499,19.342185 5.652053 0 0 -2.06024,-0.89607 15.299979,18.345166 5.652053 1 0 10.5797,18.60788 z m -24.48988,8.34667 a 3.632082,4.3549829 5.652053 1 1 4.57079,-3.00941 3.6254299,4.3470068 5.652053 0 1 -4.57079,3.00941 z" style="fill:#202020;fill-opacity:1;stroke-width:0.728414" fill="#15141a"/><path d="m 136.82705,111.31022 a 24.468738,24.468738 0 0 0 -1.47436,6.76306 c 0,2.25886 0.63573,4.28778 2.42118,4.76119 a 5.0722922,5.0722922 0 0 0 5.16697,-0.96036 14.148313,14.148313 0 0 0 3.6791,-4.9235 l 1.86662,-4.05783 1.67723,4.30131 a 10.617998,10.617998 0 0 0 2.70522,4.05783 4.2607255,4.2607255 0 0 0 3.882,0.89271 3.4491587,3.4491587 0 0 0 2.70522,-2.70521 12.538706,12.538706 0 0 0 0.28405,-5.09935 l -0.68983,-4.73414 3.51678,3.0569 a 14.878724,14.878724 0 0 0 4.61241,2.70523 4.9505573,4.9505573 0 0 0 2.35354,0.24346 3.6249982,3.6249982 0 0 0 1.94776,-0.90624 c 0.91978,-0.98741 0.91978,-3.09748 0.45989,-4.96409 a 28.553624,28.553624 0 0 0 -2.01539,-5.72154 21.709411,21.709411 0 0 1 3.32743,5.28871 10.929099,10.929099 0 0 1 0.87919,3.17864 5.410445,5.410445 0 0 1 -0.78452,3.65204 6.0461723,6.0461723 0 0 1 -3.20569,2.17771 7.9939326,7.9939326 0 0 1 -3.70615,0 15.62266,15.62266 0 0 1 -6.16791,-2.94869 l 2.89459,-1.73135 a 17.583946,17.583946 0 0 1 0.39226,3.40859 11.713614,11.713614 0 0 1 -0.41931,3.50326 8.2103503,8.2103503 0 0 1 -1.8666,3.46269 7.3987838,7.3987838 0 0 1 -3.55737,2.05596 8.1156674,8.1156674 0 0 1 -7.43936,-1.78544 11.808296,11.808296 0 0 1 -2.31297,-2.79991 13.620795,13.620795 0 0 1 -1.43376,-3.21922 l 3.54384,0.257 a 19.017714,19.017714 0 0 1 -2.21829,3.30037 13.904844,13.904844 0 0 1 -2.94869,2.70522 8.8866559,8.8866559 0 0 1 -4.05783,1.46083 7.9533542,7.9533542 0 0 1 -2.19123,-0.0947 c -0.35168,-0.0812 -0.68984,-0.20289 -1.02798,-0.3111 a 4.2742516,4.2742516 0 0 1 -0.98741,-0.44636 6.7630563,6.7630563 0 0 1 -0.9333,-0.59515 l -0.8251,-0.78451 a 6.2084859,6.2084859 0 0 1 -1.02798,-1.96129 8.2509283,8.2509283 0 0 1 0,-3.97668 18.706614,18.706614 0 0 1 2.97575,-6.50606 z" fill="#6b6b87" id="path7799" style="stroke-width:1.35261;fill:#7d5330;fill-opacity:1"/><path id="path1866" style="opacity:1;fill:#6b4729;fill-opacity:1;stroke:none;stroke-width:0.670038;stroke-linecap:round;stop-color:#000000;stop-opacity:1" class="UnoptimicedTransforms" d="M 119.31815 234 C 119.17736 233.87551 119.04311 233.74648 118.91767 233.61328 C 118.79223 233.48008 118.67529 233.34368 118.56973 233.19922 C 118.46418 233.05476 118.37 232.90241 118.28885 232.74414 C 118.20771 232.58587 118.13991 232.42072 118.0877 232.24609 C 117.7644 231.16462 117.47007 230.10391 117.20337 229.0625 C 116.93667 228.02109 116.69739 226.99985 116.48576 225.99805 C 116.47441 225.94433 116.46796 225.89345 116.45677 225.83984 C 108.91985 221.70635 101.97208 216.00267 96.131676 208.51562 C 89.123329 197.1382 85.983365 186.85864 85.376557 177.2832 C 84.689833 188.75252 87.411747 201.15771 96.131676 215.25781 C 102.70526 223.65146 110.67457 229.8134 119.31815 234 z " transform="matrix(1.0777935,0,0,1,-11.774158,0)"/><path id="path2532" style="opacity:1;fill:#b98f6a;fill-opacity:1;stroke:none;stroke-width:0.670038;stroke-linecap:round;stop-color:#000000;stop-opacity:1" class="UnoptimicedTransforms" d="M 180.10496 234.38867 C 180.47619 234.05145 180.8321 233.70604 181.16688 233.34961 C 181.50226 232.99254 181.81662 232.62456 182.10739 232.24609 C 182.42696 231.36951 182.71898 230.49939 182.98447 229.63672 C 183.24996 228.77405 183.48923 227.91822 183.70208 227.07031 C 183.81033 226.63907 183.89348 226.21632 183.9884 225.78906 C 164.29436 236.41863 137.95044 237.62769 116.45677 225.83984 C 116.46796 225.89345 116.47441 225.94433 116.48576 225.99805 C 116.69739 226.99985 116.93667 228.02109 117.20337 229.0625 C 117.47007 230.10391 117.7644 231.16462 118.0877 232.24609 C 118.13991 232.42072 118.20771 232.58587 118.28885 232.74414 C 118.37 232.90241 118.46418 233.05476 118.56973 233.19922 C 118.67529 233.34368 118.79223 233.48008 118.91767 233.61328 C 119.04311 233.74648 119.17736 233.87551 119.31815 234 C 119.34285 234.01196 119.36774 234.02323 119.39245 234.03516 C 120.04507 234.35026 120.70223 234.65282 121.36226 234.94531 C 121.90905 235.18763 122.45622 235.42347 123.00769 235.65039 C 123.01073 235.65164 123.01371 235.65305 123.01675 235.6543 C 123.69708 235.93411 124.38122 236.20046 125.06811 236.45703 C 125.63298 236.66805 126.19901 236.87295 126.76791 237.06836 C 126.77392 237.07042 126.78001 237.07215 126.78603 237.07422 C 127.4503 237.30216 128.1174 237.51776 128.78664 237.72461 C 129.37703 237.90711 129.96874 238.08379 130.56255 238.25 C 131.22022 238.43406 131.88004 238.60724 132.54142 238.77148 C 132.54927 238.77343 132.55713 238.7754 132.56498 238.77734 C 133.18964 238.93225 133.8167 239.07747 134.44418 239.21484 C 135.10511 239.35952 135.76673 239.4957 136.4303 239.62109 C 137.05449 239.73906 137.67982 239.84819 138.30588 239.94922 C 138.90911 240.04656 139.51345 240.13503 140.11803 240.2168 C 140.19418 240.2271 140.27018 240.23995 140.34636 240.25 C 140.97947 240.33355 141.61323 240.40605 142.2473 240.47266 C 142.30107 240.47831 142.35481 240.48275 142.40859 240.48828 C 143.66549 240.61746 144.92358 240.7158 146.18149 240.7793 C 146.25036 240.78278 146.3192 240.78382 146.38807 240.78711 C 147.62775 240.84618 148.8677 240.8747 150.10479 240.87109 C 150.17976 240.87088 150.25454 240.86958 150.3295 240.86914 C 151.56725 240.86176 152.80196 240.8249 154.03354 240.75586 C 154.09101 240.75264 154.14823 240.74749 154.20569 240.74414 C 155.45763 240.67103 156.7059 240.56931 157.94778 240.43359 C 157.98106 240.42996 158.01419 240.42555 158.04745 240.42188 C 159.30436 240.2828 160.55574 240.11223 161.79861 239.91016 C 161.83252 239.90465 161.86619 239.89813 161.90009 239.89258 C 163.14146 239.68898 164.3751 239.45477 165.59869 239.18945 C 165.63264 239.1821 165.66623 239.17342 165.70017 239.16602 C 166.92507 238.8986 168.13931 238.60158 169.34259 238.27344 C 169.37045 238.26584 169.3981 238.25763 169.42595 238.25 C 170.64087 237.91713 171.84495 237.55378 173.03394 237.16016 C 173.04053 237.15798 173.04729 237.15648 173.05388 237.1543 C 174.25817 236.75522 175.44825 236.32542 176.622 235.86523 C 177.79319 235.40605 178.94816 234.91724 180.08503 234.39844 C 180.09175 234.39537 180.09824 234.39174 180.10496 234.38867 z " transform="matrix(1.0777935,0,0,1,-11.774158,0)"/><path id="path2530" style="opacity:1;fill:#6b4729;fill-opacity:1;stroke:none;stroke-width:0.670038;stroke-linecap:round;stop-color:#000000;stop-opacity:1" class="UnoptimicedTransforms" d="M 214.82034 176.57617 C 214.23314 186.35295 211.05119 196.85681 203.86951 208.51562 C 198.85065 215.66271 191.9593 221.48689 183.9884 225.78906 C 183.89348 226.21632 183.81033 226.63907 183.70208 227.07031 C 183.48923 227.91822 183.24996 228.77405 182.98447 229.63672 C 182.71898 230.49939 182.42696 231.36951 182.10739 232.24609 C 181.81662 232.62456 181.50226 232.99254 181.16688 233.34961 C 180.8321 233.70604 180.47619 234.05145 180.10496 234.38867 C 189.72455 229.99504 198.05225 223.50912 203.86951 215.25781 C 212.76831 200.86848 215.53889 188.24177 214.82034 176.57617 z " transform="matrix(1.0777935,0,0,1,-11.774158,0)"/></svg>