<?xml version="1.0" encoding="UTF-8" standalone="no"?>
<svg id="Layer_1" data-name="Layer 1" viewBox="0 0 300 345" version="1.1" sodipodi:docname="kangaroo.svg" xml:space="preserve" inkscape:version="1.2 (dc2aedaf03, 2022-05-15)" inkscape:export-filename="kangaroo.png" inkscape:export-xdpi="96" inkscape:export-ydpi="96" xmlns:inkscape="http://www.inkscape.org/namespaces/inkscape" xmlns:sodipodi="http://sodipodi.sourceforge.net/DTD/sodipodi-0.dtd" xmlns:xlink="http://www.w3.org/1999/xlink" xmlns="http://www.w3.org/2000/svg" xmlns:svg="http://www.w3.org/2000/svg"><sodipodi:namedview id="namedview231" pagecolor="#505050" bordercolor="#ffffff" borderopacity="1" inkscape:showpageshadow="0" inkscape:pageopacity="0" inkscape:pagecheckerboard="1" inkscape:deskcolor="#505050" showgrid="false" inkscape:zoom="0.8487868" inkscape:cx="186.73712" inkscape:cy="217.95815" inkscape:window-width="1366" inkscape:window-height="705" inkscape:window-x="-8" inkscape:window-y="-8" inkscape:window-maximized="1" inkscape:current-layer="Layer_1"/><defs id="defs151"><inkscape:path-effect effect="mirror_symmetry" start_point="136.43231,0.81721074" end_point="136.43231,96.244726" center_point="136.43231,48.530968" id="path-effect28844" is_visible="true" lpeversion="1.2" lpesatellites="#g28852" mode="vertical" discard_orig_path="false" fuse_paths="false" oposite_fuse="false" split_items="true" split_open="false" link_styles="false"/><inkscape:path-effect effect="mirror_symmetry" start_point="98.401992,201.69068" end_point="98.401992,308.1097" center_point="98.401992,254.90019" id="path-effect22307" is_visible="true" lpeversion="1.2" lpesatellites="#g22321" mode="vertical" discard_orig_path="false" fuse_paths="false" oposite_fuse="false" split_items="true" split_open="false" link_styles="false"/><linearGradient inkscape:collect="always" id="linearGradient16286"><stop style="stop-color:#b9853f;stop-opacity:1;" offset="0.43801653" id="stop16284"/><stop style="stop-color:#a25e33;stop-opacity:1;" offset="1" id="stop16282"/></linearGradient><inkscape:path-effect effect="mirror_symmetry" start_point="91.898438,18.861328" end_point="91.898438,40.193359" center_point="91.898438,29.527344" id="path-effect15723" is_visible="true" lpeversion="1.2" lpesatellites="#path15725" mode="vertical" discard_orig_path="false" fuse_paths="false" oposite_fuse="false" split_items="true" split_open="false" link_styles="false"/><linearGradient id="A" x1="150" y1="356.10999" x2="150" y2="161.16" gradientUnits="userSpaceOnUse"><stop offset="0" stop-color="#f49849" id="stop41380" style="stop-color:#b9853f;stop-opacity:1;"/><stop offset="0.69" stop-color="#d25927" id="stop41382" style="stop-color:#7c492b;stop-opacity:1;"/></linearGradient><linearGradient inkscape:collect="always" xlink:href="#linearGradient16286" id="linearGradient16288" x1="256.06723" y1="355.36264" x2="253.54529" y2="309.75256" gradientUnits="userSpaceOnUse"/></defs><path class="cls-1" d="M 263.62,345 H 36.38 A 36.38,36.38 0 0 1 0,308.62 v -49.48 h 300 v 49.48 A 36.38,36.38 0 0 1 263.62,345 Z" id="path402" style="fill:url(#A)"/><path id="path404" style="fill:#ccc1ad;fill-opacity:1;stroke-width:1.3205" class="cls-2" d="M 84.906251,296.76953 39.361329,345 H 260.63867 L 215.09375,296.76953 H 207.33399 92.666016 Z"/><path id="path16982" style="fill:#360b0b;fill-opacity:0.566176;stroke-width:0.760935;stroke-linejoin:round;paint-order:stroke fill markers;stop-color:#000000" d="m 142.04688,316.90625 c -4.1038,6.00035 -0.0694,13.60798 5.12248,17.43168 5.78808,4.68422 12.60117,8.11896 19.53463,10.66207 32.30505,0 64.6101,0 96.91515,0 12.34715,0.0969 24.45449,-6.64019 30.88086,-17.18359 -7.58568,11.51738 -21.49376,15.91217 -34.63311,15.29101 -22.00966,0 -44.01933,0 -66.029,0 -15.38876,-3.70391 -31.12137,-8.03573 -44.32614,-17.06972 -3.14798,-2.36904 -6.2458,-5.26763 -7.46487,-9.13145 z"/><path id="rect12254" style="fill:url(#linearGradient16288);fill-opacity:1;stroke-width:0.740952;stroke-linejoin:round;paint-order:stroke fill markers;stop-color:#000000" d="m 300,267.74805 c -32.59567,49.21073 -75.42444,50.59191 -121.61523,45.05273 -15.04019,-1.80361 -34.3982,-11.48328 -37.68555,0.64258 C 135.40326,332.97829 192.57617,345 192.57617,345 h 71.04297 A 36.38,36.38 0 0 0 300,308.61914 Z"/><path id="rect406" style="fill:#b9853f;fill-opacity:1" class="cls-3" d="M 36.380001,122.74165 H 263.62 c 20.15452,0 36.38,16.22549 36.38,36.38001 v 102.88833 c 0,20.15452 -16.22548,36.38 -36.38,36.38 H 36.380001 C 16.22548,298.38999 0,282.16451 0,262.00999 V 159.12166 c 0,-20.15452 16.22548,-36.38001 36.380001,-36.38001 z" sodipodi:nodetypes="sssssssss"/><path id="rect8048" style="fill:#d5cebe;stroke-width:1.00274;stroke-linejoin:round;paint-order:stroke fill markers;stop-color:#000000" d="M 57.747025,153.55656 H 242.25298 l -25.66202,144.83343 -131.465632,-0.009 z" sodipodi:nodetypes="ccccc"/><path id="path20818" style="color:#000000;fill:#603226;fill-opacity:0.31565;stroke-linejoin:round;-inkscape-stroke:none;paint-order:stroke fill markers" d="m 48.679688,122.74219 c -2.12038,16.8312 -9.03042,34.04964 -3.886719,50.97461 7.073407,24.21105 30.540596,41.50767 55.191406,44.20508 -2.176727,15.53699 -4.241533,33.08084 5.698105,46.55609 10.14762,15.00351 29.71338,18.07071 46.41931,17.9544 15.96804,-0.4172 34.381,-4.57269 43.22928,-19.45153 8.87925,-13.35424 6.73386,-30.06726 4.67596,-45.05883 28.37549,-2.91079 55.60043,-26.10946 57.09583,-55.63947 0.12973,-13.37772 -3.95083,-26.35982 -5.77946,-39.54049 -67.5479,5e-5 -135.09581,9e-5 -202.643712,1.4e-4 z"/><path id="rect1312" style="fill:#b9853f;fill-opacity:1;stroke-width:0.950379;stroke-linejoin:round;paint-order:stroke fill markers;stop-color:#000000" d="m 150,21.741847 c -10.89026,0 -21.78145,2.008212 -31.47385,6.022932 -25.945593,10.747017 -53.366435,27.15866 -59.573539,59.573539 0,0 -6.743059,35.219052 -10.115155,52.828882 -5.873528,30.67286 23.16016,72.09859 54.261344,74.80094 -1.20673,9.70117 -2.23213,23.77949 0.71806,30.90599 4.4641,10.7762 12.59249,24.19614 46.16482,24.19614 33.57233,0 41.70073,-13.41994 46.16482,-24.19614 2.96034,-7.12609 1.93357,-21.20304 0.72356,-30.90416 31.11292,-2.68775 60.16797,-44.11969 54.29248,-74.80277 C 247.79044,122.55737 241.04738,87.338318 241.04738,87.338318 234.84028,54.923439 207.41945,38.511796 181.47385,27.764779 171.78146,23.750059 160.89026,21.741847 150,21.741847 Z" sodipodi:nodetypes="sscsccsccscss"/><path id="rect3435" style="fill:#e2d0b7;fill-opacity:1;stroke-width:0.947367;stroke-linejoin:round;paint-order:stroke fill markers;stop-color:#000000" d="m 48.228516,151.59961 c 2.158096,25.98113 27.724492,62.25131 54.871094,64.65804 -1.20673,9.89847 -2.23339,24.26344 0.7168,31.53487 4.46409,10.99536 12.59374,24.68743 46.16601,24.68743 33.57226,0 41.69999,-13.69207 46.16406,-24.68743 2.96034,-7.27101 1.93267,-21.63447 0.72266,-31.53288 27.15821,-2.39383 52.74546,-38.66908 54.9043,-64.66003 h -1.60742 c -5.97966,17.49544 -26.54584,34.8254 -49.02344,38.08338 h -11.32422 c -1.64787,5.61924 -2.58594,20.50044 -2.58594,20.50044 0,16.93436 -13.36026,30.56835 -29.95703,30.56835 h -14.55078 c -16.59677,0 -29.95703,-13.63399 -29.95703,-30.56835 0,0 -0.93807,-14.8812 -2.58594,-20.50044 H 98.851562 C 76.375354,186.42757 55.810439,169.09574 49.832031,151.59961 Z" sodipodi:nodetypes="cccsccccccsssscccc"/><path d="m 196.78307,196.7444 c 0.57107,6.37883 1.38669,12.74584 1.16032,19.16324 0.0511,7.81647 1.08131,15.63521 0.45838,23.43506 0.0966,3.8471 -0.96124,7.56289 -2.76296,10.95863 -4.45063,10.41294 -14.57964,17.34326 -25.40617,19.71414 -7.25158,1.84209 -14.75461,2.52914 -22.22444,2.37225 -0.014,-9.70393 -0.0576,-19.40781 -0.0833,-29.11172 1.25542,0.29702 3.72454,-0.6159 4.16273,0.49582 -0.0252,9.53864 -0.0682,19.07725 -0.0818,28.6159 -10.62547,0.0968 -21.61609,-1.04938 -31.35215,-5.56367 -9.963,-4.6153 -17.20695,-14.38141 -19.10896,-25.14394 -1.02957,-7.26582 -0.21822,-14.60915 -0.3906,-21.91847 0.0419,-5.43748 -0.16218,-10.88992 0.74342,-16.27488 l 0.83028,-7.09755 c 0.0902,12.82696 -0.10521,25.6614 0.19301,38.48291 0.20223,6.38808 2.27724,12.58505 5.99627,17.78554 6.38823,9.63932 18.19167,13.53533 29.18805,14.6291 3.94819,0.44813 7.92365,0.51732 11.89349,0.57101 -0.88931,0.8402 -2.47725,3.52792 -2.00347,0.76344 -0.0262,-8.4484 -0.0524,-16.89681 -0.0787,-25.34521 1.25542,0.29702 3.72454,-0.6159 4.16273,0.49582 -0.0273,8.77896 -0.0545,17.55791 -0.0818,26.33686 -0.72814,-1.00358 -3.21515,-2.77992 -0.51158,-2.27576 11.90038,-0.0936 24.76029,-1.51429 34.29541,-9.31556 4.91958,-4.24334 8.62109,-10.09207 10.23242,-16.38181 0.62323,-6.28693 0.57951,-12.56125 0.4134,-18.89326 0.11868,-8.8326 0.23708,-17.66548 0.35592,-26.49789 z" fill="#a85a26" id="path183" style="fill:#9f6538;fill-opacity:1;stroke-width:0.883807" sodipodi:nodetypes="cccccccccccccccccccccccccccc"/><path d="m 133.0758,221.14879 c -20.3386,-9.55541 12.09863,24.91934 17.11873,24.91934 5.01879,2.60109 36.5113,-34.89751 17.11873,-24.91934 -13.09107,7.9746 -23.93256,5.26197 -34.23746,0 z" fill="#15141a" id="path185" style="stroke-width:0.702393" sodipodi:nodetypes="cccc"/><path id="ellipse3897" style="fill:#ac663c;stroke-width:0.846155" class="cls-6" d="M 87.90625,98.302734 C 69.130405,98.176045 56.237458,118.41683 59.195312,135.85547 c 1.42439,-16.20352 17.066315,-31.18782 33.851959,-27.46436 12.912719,2.54799 22.122739,14.77534 23.577729,27.46436 2.01989,-14.03743 -5.01524,-29.70689 -18.424049,-35.42352 -3.242138,-1.391315 -6.764978,-2.132472 -10.294701,-2.129216 z"/><path id="circle41757" style="fill:#ffffff;stroke-width:0.846155" class="cls-6" d="M 116.93742,138.64071 A 29.030745,32.766973 0 0 1 87.906677,171.40767 29.030745,32.766973 0 0 1 58.875932,138.64071 29.030745,32.766973 0 0 1 87.906677,105.87373 29.030745,32.766973 0 0 1 116.93742,138.64071 Z"/><path id="path41759" style="fill:#414042;stroke-width:1.02735" class="cls-7" d="m 93.817435,106.76194 a 25.51942,28.803742 0 1 0 16.573665,50.10976 27.392835,30.918265 0 0 0 6.54545,-20.0294 27.392835,30.918265 0 0 0 -0.44013,-5.49255 14.717907,16.612086 0 0 1 -19.165287,-24.14751 27.392835,30.918265 0 0 0 -0.702012,-0.21756 26.031935,29.382217 0 0 0 -2.811686,-0.22274 z m -10.752058,33.92394 a 6.0728287,6.8543955 0 0 1 6.072585,6.85316 6.0728287,6.8543955 0 0 1 -6.072585,6.85489 6.0728287,6.8543955 0 1 1 0,-13.70805 z"/><path id="path5145" style="fill:#af6f3d;fill-opacity:1;stroke-width:0.416698" d="m 150,112.04883 c -2.45952,0 -6.9707,3.98044 -6.9707,8.87305 0,4.89259 6.9707,8.87304 6.9707,8.87304 0,0 6.9707,-3.97253 6.9707,-8.87304 0,-4.90054 -4.51119,-8.87305 -6.9707,-8.87305 z m 0,29.20312 c -8.5491,0 -21.10352,6.6615 -21.10352,14.85743 0,8.1959 4.24864,10.63671 21.10352,10.63671 16.85488,0 21.10352,-2.44081 21.10352,-10.63671 0,-8.21224 -12.55442,-14.85743 -21.10352,-14.85743 z"/><g id="g28842" transform="translate(-1.6316359,-0.81721074)" inkscape:path-effect="#path-effect28844" class="UnoptimicedTransforms"><path id="rect7287" style="fill:#b9853f;fill-opacity:1;stroke-width:0.688587;stroke-linejoin:round;paint-order:stroke fill markers;stop-color:#000000" d="M 38.306591,95.410803 C 26.991049,99.732564 17.612685,86.288252 11.763936,77.319577 3.3573312,64.428594 -1.0194742,46.678482 3.352417,31.922635 7.1926804,18.961118 18.645539,7.3383983 31.271139,2.5069629 41.620695,-1.4534992 53.673754,2.4284513 64.407713,5.1817568 86.458766,10.837945 103.85773,21.826008 126.72125,33.131638 L 108.54506,57.779553 C 98.599867,47.814251 87.948337,46.729819 67.724438,50.28624 34.482564,56.131903 49.622133,91.089042 38.306591,95.410803 Z" sodipodi:nodetypes="zaaaaccsz" inkscape:original-d="M 38.306591,95.410803 C 26.991049,99.732564 17.612685,86.288252 11.763936,77.319577 3.3573312,64.428594 -1.0194742,46.678482 3.352417,31.922635 7.1926804,18.961118 18.645539,7.3383983 31.271139,2.5069629 41.620695,-1.4534992 53.673754,2.4284513 64.407713,5.1817568 86.458766,10.837945 103.85773,21.826008 126.72125,33.131638 L 108.54506,57.779553 C 98.599867,47.814251 87.948337,46.729819 67.724438,50.28624 34.482564,56.131903 49.622133,91.089042 38.306591,95.410803 Z"/><path id="rect11797" style="fill:#dd91e0;fill-opacity:1;stroke-width:0.589639;stroke-linejoin:round;paint-order:stroke fill markers;stop-color:#000000" d="m 18.193712,56.186588 c -1.591263,-5.748926 0.619599,-18.564067 6.363255,-24.935615 6.645516,-7.371998 18.021582,-10.782407 27.935298,-10.305451 16.046101,0.771989 43.405286,20.943759 43.405286,20.943759 0,-2.387587 -28.399623,-6.231066 -39.529916,1.835892 C 42.343216,53.889721 43.973538,62.473911 38.7499,75.163519 c -2.791069,6.780249 -9.719221,6.475728 -14.975208,1.186069 -5.255988,-5.289659 -5.58098,-20.163 -5.58098,-20.163 z" sodipodi:nodetypes="saacsszs" inkscape:original-d="m 18.193712,56.186588 c -1.591263,-5.748926 0.619599,-18.564067 6.363255,-24.935615 6.645516,-7.371998 18.021582,-10.782407 27.935298,-10.305451 16.046101,0.771989 43.405286,20.943759 43.405286,20.943759 0,-2.387587 -28.399623,-6.231066 -39.529916,1.835892 C 42.343216,53.889721 43.973538,62.473911 38.7499,75.163519 c -2.791069,6.780249 -9.719221,6.475728 -14.975208,1.186069 -5.255988,-5.289659 -5.58098,-20.163 -5.58098,-20.163 z"/><path id="path15718" style="fill:#e465b9;fill-opacity:1;stroke-width:0.589639;stroke-linejoin:round;paint-order:stroke fill markers;stop-color:#000000" d="m 57.544922,18.861328 c -3.504527,2.702734 -7.265559,6.281184 -8.361328,9.824219 -1.522196,4.921832 -0.56507,9.427046 2.576172,11.507812 0.2099,-0.156781 0.390086,-0.31123 0.607422,-0.46875 C 62.04627,32.709452 84.766308,34.701322 90.53125,36.910156 85.992298,33.696088 70.651697,23.226987 57.544922,18.861328 Z M 90.53125,36.910156 c 0.852562,0.603707 1.367188,0.978516 1.367188,0.978516 0,-0.3113 -0.502842,-0.647342 -1.367188,-0.978516 z" inkscape:path-effect="#path-effect15723" inkscape:original-d="m 57.544922,18.861328 c -3.504527,2.702734 -7.265559,6.281184 -8.361328,9.824219 -1.522196,4.921832 -0.56507,9.427046 2.576172,11.507812 0.2099,-0.156781 0.390086,-0.31123 0.607422,-0.46875 C 62.04627,32.709452 84.766308,34.701322 90.53125,36.910156 85.992298,33.696088 70.651697,23.226987 57.544922,18.861328 Z M 90.53125,36.910156 c 0.852562,0.603707 1.367188,0.978516 1.367188,0.978516 0,-0.3113 -0.502842,-0.647342 -1.367188,-0.978516 z" class="UnoptimicedTransforms" transform="translate(4,4)"/></g><g id="g22305" inkscape:path-effect="#path-effect22307" class="UnoptimicedTransforms"><path id="path20731" style="color:#000000;fill:#84250b;fill-opacity:0.162791;stroke-width:3;stroke-linejoin:round" d="m 19.417969,201.89258 a 1.5001502,1.5001502 0 0 0 -1.335938,0.68164 c -3.178071,4.89951 -6.48985,9.95026 -8.6113279,15.41601 -2.1251423,5.47523 -3.0028352,11.5044 -1.0253906,17.74024 3.9393705,12.42273 17.6019215,24.19133 30.8398435,36.10547 a 1.5001502,1.5001502 0 0 0 0.09961,0.0508 c 0.846994,1.34626 1.610792,2.88479 2.027343,4.78516 1.392391,6.35223 -0.558084,10.20973 -4.242187,20.31445 7.66056,9.00722 22.115393,13.40731 33.861328,9.93945 8.661069,-2.55709 16.671105,-9.12909 18.365234,-17.0664 1.694131,-7.93733 -1.112977,-23.78424 -5.726562,-30.0293 -4.407762,-5.96647 -12.93035,-11.69589 -21.744141,-11.4961 a 29.064718,12.773666 39.894062 0 1 9.0625,23.74414 A 29.064718,12.773666 39.894062 0 1 40.496094,263.23828 29.064718,12.773666 39.894062 0 1 36.5,259.58984 c -0.113322,0.26264 -0.23333,0.52267 -0.332031,0.79102 -10.353862,-9.65384 -19.303788,-19.08412 -21.677735,-26.57031 -1.47193,-4.64172 -0.895449,-8.92067 0.892578,-13.52735 1.784007,-4.59628 4.841247,-9.35794 8.019532,-14.25781 a 1.5001502,1.5001502 0 0 0 -0.44336,-2.07617 l -2.802734,-1.81836 a 1.5001502,1.5001502 0 0 0 -0.738281,-0.23828 z" inkscape:original-d="m 19.417969,201.89258 a 1.5001502,1.5001502 0 0 0 -1.335938,0.68164 c -3.178071,4.89951 -6.48985,9.95026 -8.6113279,15.41601 -2.1251423,5.47523 -3.0028352,11.5044 -1.0253906,17.74024 3.9393705,12.42273 17.6019215,24.19133 30.8398435,36.10547 a 1.5001502,1.5001502 0 0 0 0.09961,0.0508 c 0.846994,1.34626 1.610792,2.88479 2.027343,4.78516 1.392391,6.35223 -0.558084,10.20973 -4.242187,20.31445 7.66056,9.00722 22.115393,13.40731 33.861328,9.93945 8.661069,-2.55709 16.671105,-9.12909 18.365234,-17.0664 1.694131,-7.93733 -1.112977,-23.78424 -5.726562,-30.0293 -4.407762,-5.96647 -12.93035,-11.69589 -21.744141,-11.4961 a 29.064718,12.773666 39.894062 0 1 9.0625,23.74414 A 29.064718,12.773666 39.894062 0 1 40.496094,263.23828 29.064718,12.773666 39.894062 0 1 36.5,259.58984 c -0.113322,0.26264 -0.23333,0.52267 -0.332031,0.79102 -10.353862,-9.65384 -19.303788,-19.08412 -21.677735,-26.57031 -1.47193,-4.64172 -0.895449,-8.92067 0.892578,-13.52735 1.784007,-4.59628 4.841247,-9.35794 8.019532,-14.25781 a 1.5001502,1.5001502 0 0 0 -0.44336,-2.07617 l -2.802734,-1.81836 a 1.5001502,1.5001502 0 0 0 -0.738281,-0.23828 z"/><path style="color:#000000;fill:#b88540;stroke-width:3.17597;stroke-linejoin:round;-inkscape-stroke:none" d="m 62.177928,244.94221 c -10.185953,-0.1647 -18.719298,6.5778 -19.894153,15.14892 -0.60452,4.42667 4.645318,6.77295 6.03771,13.1252 1.392393,6.35225 -0.558065,10.21047 -4.242176,20.31521 7.660576,9.00724 22.114956,13.40812 33.860915,9.94026 8.661087,-2.55709 16.670413,-9.12956 18.364546,-17.06689 1.694133,-7.93733 -1.111861,-23.78361 -5.725456,-30.02869 -4.613595,-6.24508 -13.734807,-12.23627 -22.979916,-11.43405 h -5.421475 z" id="path20524" inkscape:original-d="m 62.177928,244.94221 c -10.185953,-0.1647 -18.719298,6.5778 -19.894153,15.14892 -0.60452,4.42667 4.645318,6.77295 6.03771,13.1252 1.392393,6.35225 -0.558065,10.21047 -4.242176,20.31521 7.660576,9.00724 22.114956,13.40812 33.860915,9.94026 8.661087,-2.55709 16.670413,-9.12956 18.364546,-17.06689 1.694133,-7.93733 -1.111861,-23.78361 -5.725456,-30.02869 -4.613595,-6.24508 -13.734807,-12.23627 -22.979916,-11.43405 h -5.421475 z"/><path style="color:#000000;fill:#975935;fill-opacity:1;stroke-linejoin:round;-inkscape-stroke:none" d="m 64.103412,246.25733 c 0.188944,0.84305 7.861067,-0.10865 11.447908,1.25975 5.259575,2.00656 10.776971,5.77695 13.751414,9.80323 2.0168,2.72999 3.903939,8.13744 4.94336,13.72657 1.039421,5.58913 1.270535,11.44468 0.505859,15.02734 -1.518214,7.11311 -9.054375,13.45187 -17.261719,15.875 -10.771871,3.18027 -24.248279,-0.81544 -31.583984,-8.83594 1.619331,-4.39209 2.987381,-7.82838 3.736328,-10.75195 0.816048,-3.18551 0.974265,-6.09109 0.230469,-9.48438 -0.724543,-3.30543 -4.196165,-4.71024 -5.549996,-6.56093 l -11.005022,-8.28585 6.940545,9.35785 c 1.441845,1.94403 4.33288,3.88112 4.948457,6.68945 0.648594,2.95896 2.091484,4.63695 1.359375,7.4948 -0.732107,2.85783 -2.127851,6.34003 -3.978515,11.41601 -0.195787,0.53654 -0.0884,1.13688 0.28125,1.57227 8.133849,9.56371 23.086325,14.10493 35.521484,10.43359 9.114796,-2.69104 17.596752,-9.4963 19.466797,-18.25781 0.929453,-4.35467 0.605156,-10.39189 -0.488281,-16.27149 -1.093438,-5.87958 -2.914924,-11.51617 -5.511719,-15.03125 -3.556997,-4.81484 -9.490207,-9.42648 -16.288398,-11.28484 -1.325874,-0.36244 -11.956301,0.36029 -11.465612,2.10858 z" id="path20526" sodipodi:nodetypes="casssscssccsssccsssssc" inkscape:original-d="m 64.103412,246.25733 c 0.188944,0.84305 7.861067,-0.10865 11.447908,1.25975 5.259575,2.00656 10.776971,5.77695 13.751414,9.80323 2.0168,2.72999 3.903939,8.13744 4.94336,13.72657 1.039421,5.58913 1.270535,11.44468 0.505859,15.02734 -1.518214,7.11311 -9.054375,13.45187 -17.261719,15.875 -10.771871,3.18027 -24.248279,-0.81544 -31.583984,-8.83594 1.619331,-4.39209 2.987381,-7.82838 3.736328,-10.75195 0.816048,-3.18551 0.974265,-6.09109 0.230469,-9.48438 -0.724543,-3.30543 -4.196165,-4.71024 -5.549996,-6.56093 l -11.005022,-8.28585 6.940545,9.35785 c 1.441845,1.94403 4.33288,3.88112 4.948457,6.68945 0.648594,2.95896 2.091484,4.63695 1.359375,7.4948 -0.732107,2.85783 -2.127851,6.34003 -3.978515,11.41601 -0.195787,0.53654 -0.0884,1.13688 0.28125,1.57227 8.133849,9.56371 23.086325,14.10493 35.521484,10.43359 9.114796,-2.69104 17.596752,-9.4963 19.466797,-18.25781 0.929453,-4.35467 0.605156,-10.39189 -0.488281,-16.27149 -1.093438,-5.87958 -2.914924,-11.51617 -5.511719,-15.03125 -3.556997,-4.81484 -9.490207,-9.42648 -16.288398,-11.28484 -1.325874,-0.36244 -11.956301,0.36029 -11.465612,2.10858 z"/><path style="color:#000000;fill:#975935;stroke-linejoin:round;-inkscape-stroke:none" d="m 12.943359,216.80664 c -2.042839,5.26316 -2.851895,10.88996 -0.996093,16.74219 3.711586,11.70441 17.169008,23.52301 30.416015,35.44531 l 2.234375,-2.48242 C 31.350649,254.58941 18.311302,242.56236 15.132813,232.53906 c -1.589237,-5.01162 -0.939397,-9.718 0.925781,-14.52344 1.865177,-4.80543 10.184967,-15.36241 8.7836,-16.27061 -1.401367,-0.90821 -9.855995,9.79847 -11.898835,15.06163 z" id="path20701" sodipodi:nodetypes="ssccsscs" inkscape:original-d="m 12.943359,216.80664 c -2.042839,5.26316 -2.851895,10.88996 -0.996093,16.74219 3.711586,11.70441 17.169008,23.52301 30.416015,35.44531 l 2.234375,-2.48242 C 31.350649,254.58941 18.311302,242.56236 15.132813,232.53906 c -1.589237,-5.01162 -0.939397,-9.718 0.925781,-14.52344 1.865177,-4.80543 10.184967,-15.36241 8.7836,-16.27061 -1.401367,-0.90821 -9.855995,9.79847 -11.898835,15.06163 z"/><path style="color:#000000;fill:#975935;stroke-linejoin:round;-inkscape-stroke:none" d="m 85.442661,282.84384 c -1.353516,0.64454 0.243016,4.11661 0.319058,7.4003 0.07605,3.28388 -1.36229,6.93573 -2.921875,10.74805 l 2.777343,1.13672 c 1.559586,-3.81232 3.241049,-7.78724 3.144532,-11.95508 -0.09652,-4.16803 -1.965543,-7.97452 -3.319058,-7.32999 z" id="path22062" sodipodi:nodetypes="csccsc" inkscape:original-d="m 85.442661,282.84384 c -1.353516,0.64454 0.243016,4.11661 0.319058,7.4003 0.07605,3.28388 -1.36229,6.93573 -2.921875,10.74805 l 2.777343,1.13672 c 1.559586,-3.81232 3.241049,-7.78724 3.144532,-11.95508 -0.09652,-4.16803 -1.965543,-7.97452 -3.319058,-7.32999 z"/><path style="color:#000000;fill:#975935;stroke-linejoin:round;-inkscape-stroke:none" d="m 71.23107,289.42887 c -1.476563,0.26074 -1.021017,3.03036 -1.477164,5.53793 -0.456177,2.50773 -1.911095,5.16486 -3.470703,7.9375 l 2.615234,1.4707 c 1.559608,-2.77263 3.22453,-5.66033 3.808594,-8.87109 0.584094,-3.21093 6.01e-4,-6.33579 -1.475961,-6.07504 z" id="path22129" sodipodi:nodetypes="csccsc" inkscape:original-d="m 71.23107,289.42887 c -1.476563,0.26074 -1.021017,3.03036 -1.477164,5.53793 -0.456177,2.50773 -1.911095,5.16486 -3.470703,7.9375 l 2.615234,1.4707 c 1.559608,-2.77263 3.22453,-5.66033 3.808594,-8.87109 0.584094,-3.21093 6.01e-4,-6.33579 -1.475961,-6.07504 z"/></g><g class="UnoptimicedTransforms" id="g22321" transform="matrix(-1,0,0,1,300,0)"><path id="path22309" d="m 19.417969,201.89258 a 1.5001502,1.5001502 0 0 0 -1.335938,0.68164 c -3.178071,4.89951 -6.48985,9.95026 -8.6113279,15.41601 -2.1251423,5.47523 -3.0028352,11.5044 -1.0253906,17.74024 3.9393705,12.42273 17.6019215,24.19133 30.8398435,36.10547 a 1.5001502,1.5001502 0 0 0 0.09961,0.0508 c 0.846994,1.34626 1.610792,2.88479 2.027343,4.78516 1.392391,6.35223 -0.558084,10.20973 -4.242187,20.31445 7.66056,9.00722 22.115393,13.40731 33.861328,9.93945 8.661069,-2.55709 16.671105,-9.12909 18.365234,-17.0664 1.694131,-7.93733 -1.112977,-23.78424 -5.726562,-30.0293 -4.407762,-5.96647 -12.93035,-11.69589 -21.744141,-11.4961 a 29.064718,12.773666 39.894062 0 1 9.0625,23.74414 A 29.064718,12.773666 39.894062 0 1 40.496094,263.23828 29.064718,12.773666 39.894062 0 1 36.5,259.58984 c -0.113322,0.26264 -0.23333,0.52267 -0.332031,0.79102 -10.353862,-9.65384 -19.303788,-19.08412 -21.677735,-26.57031 -1.47193,-4.64172 -0.895449,-8.92067 0.892578,-13.52735 1.784007,-4.59628 4.841247,-9.35794 8.019532,-14.25781 a 1.5001502,1.5001502 0 0 0 -0.44336,-2.07617 l -2.802734,-1.81836 a 1.5001502,1.5001502 0 0 0 -0.738281,-0.23828 z" style="color:#000000;fill:#84250b;fill-opacity:0.162791;stroke-width:3;stroke-linejoin:round"/><path id="path22311" d="m 62.177928,244.94221 c -10.185953,-0.1647 -18.719298,6.5778 -19.894153,15.14892 -0.60452,4.42667 4.645318,6.77295 6.03771,13.1252 1.392393,6.35225 -0.558065,10.21047 -4.242176,20.31521 7.660576,9.00724 22.114956,13.40812 33.860915,9.94026 8.661087,-2.55709 16.670413,-9.12956 18.364546,-17.06689 1.694133,-7.93733 -1.111861,-23.78361 -5.725456,-30.02869 -4.613595,-6.24508 -13.734807,-12.23627 -22.979916,-11.43405 h -5.421475 z" style="color:#000000;fill:#b88540;stroke-width:3.17597;stroke-linejoin:round;-inkscape-stroke:none"/><path id="path22313" d="m 64.103412,246.25733 c 0.188944,0.84305 7.861067,-0.10865 11.447908,1.25975 5.259575,2.00656 10.776971,5.77695 13.751414,9.80323 2.0168,2.72999 3.903939,8.13744 4.94336,13.72657 1.039421,5.58913 1.270535,11.44468 0.505859,15.02734 -1.518214,7.11311 -9.054375,13.45187 -17.261719,15.875 -10.771871,3.18027 -24.248279,-0.81544 -31.583984,-8.83594 1.619331,-4.39209 2.987381,-7.82838 3.736328,-10.75195 0.816048,-3.18551 0.974265,-6.09109 0.230469,-9.48438 -0.724543,-3.30543 -4.196165,-4.71024 -5.549996,-6.56093 l -11.005022,-8.28585 6.940545,9.35785 c 1.441845,1.94403 4.33288,3.88112 4.948457,6.68945 0.648594,2.95896 2.091484,4.63695 1.359375,7.4948 -0.732107,2.85783 -2.127851,6.34003 -3.978515,11.41601 -0.195787,0.53654 -0.0884,1.13688 0.28125,1.57227 8.133849,9.56371 23.086325,14.10493 35.521484,10.43359 9.114796,-2.69104 17.596752,-9.4963 19.466797,-18.25781 0.929453,-4.35467 0.605156,-10.39189 -0.488281,-16.27149 -1.093438,-5.87958 -2.914924,-11.51617 -5.511719,-15.03125 -3.556997,-4.81484 -9.490207,-9.42648 -16.288398,-11.28484 -1.325874,-0.36244 -11.956301,0.36029 -11.465612,2.10858 z" style="color:#000000;fill:#975935;fill-opacity:1;stroke-linejoin:round;-inkscape-stroke:none"/><path id="path22315" d="m 12.943359,216.80664 c -2.042839,5.26316 -2.851895,10.88996 -0.996093,16.74219 3.711586,11.70441 17.169008,23.52301 30.416015,35.44531 l 2.234375,-2.48242 C 31.350649,254.58941 18.311302,242.56236 15.132813,232.53906 c -1.589237,-5.01162 -0.939397,-9.718 0.925781,-14.52344 1.865177,-4.80543 10.184967,-15.36241 8.7836,-16.27061 -1.401367,-0.90821 -9.855995,9.79847 -11.898835,15.06163 z" style="color:#000000;fill:#975935;stroke-linejoin:round;-inkscape-stroke:none"/><path id="path22317" d="m 85.442661,282.84384 c -1.353516,0.64454 0.243016,4.11661 0.319058,7.4003 0.07605,3.28388 -1.36229,6.93573 -2.921875,10.74805 l 2.777343,1.13672 c 1.559586,-3.81232 3.241049,-7.78724 3.144532,-11.95508 -0.09652,-4.16803 -1.965543,-7.97452 -3.319058,-7.32999 z" style="color:#000000;fill:#975935;stroke-linejoin:round;-inkscape-stroke:none"/><path id="path22319" d="m 71.23107,289.42887 c -1.476563,0.26074 -1.021017,3.03036 -1.477164,5.53793 -0.456177,2.50773 -1.911095,5.16486 -3.470703,7.9375 l 2.615234,1.4707 c 1.559608,-2.77263 3.22453,-5.66033 3.808594,-8.87109 0.584094,-3.21093 6.01e-4,-6.33579 -1.475961,-6.07504 z" style="color:#000000;fill:#975935;stroke-linejoin:round;-inkscape-stroke:none"/></g><path id="path26908" style="fill:#ac663c;stroke-width:0.846155" class="cls-6" d="m 212.09375,98.302734 c -18.777,-0.12661 -31.66625,20.113826 -28.71289,37.552736 1.42435,-16.20413 17.06757,-31.18878 33.85364,-27.46402 12.91193,2.54873 22.12108,14.77557 23.57605,27.46402 2.03289,-14.03112 -5.02024,-29.71107 -18.4221,-35.42352 -3.24214,-1.391315 -6.76498,-2.132472 -10.2947,-2.129216 z"/><path class="cls-6" id="path26910" d="m 183.06258,138.64071 a 29.030745,32.766973 0 0 0 29.03074,32.76696 29.030745,32.766973 0 0 0 29.03075,-32.76696 29.030745,32.766973 0 0 0 -29.03075,-32.76698 29.030745,32.766973 0 0 0 -29.03074,32.76698 z" style="fill:#ffffff;stroke-width:0.846155"/><path class="cls-7" id="path26912" d="m 209.17472,106.76194 a 25.51942,28.803742 0 1 0 16.57367,50.10976 27.392835,30.918265 0 0 0 6.54545,-20.0294 27.392835,30.918265 0 0 0 -0.44013,-5.49255 14.717907,16.612086 0 0 1 -19.16529,-24.14751 27.392835,30.918265 0 0 0 -0.70201,-0.21756 26.031935,29.382217 0 0 0 -2.81169,-0.22274 z m -10.75205,33.92394 a 6.0728287,6.8543955 0 0 1 6.07258,6.85316 6.0728287,6.8543955 0 0 1 -6.07258,6.85489 6.0728287,6.8543955 0 1 1 0,-13.70805 z" style="fill:#414042;stroke-width:1.02735"/><g transform="matrix(-1,0,0,1,301.63164,-0.81721074)" class="UnoptimicedTransforms" id="g28852"><path id="path28846" d="M 38.306591,95.410803 C 26.991049,99.732564 17.612685,86.288252 11.763936,77.319577 3.3573312,64.428594 -1.0194742,46.678482 3.352417,31.922635 7.1926804,18.961118 18.645539,7.3383983 31.271139,2.5069629 41.620695,-1.4534992 53.673754,2.4284513 64.407713,5.1817568 86.458766,10.837945 103.85773,21.826008 126.72125,33.131638 L 108.54506,57.779553 C 98.599867,47.814251 87.948337,46.729819 67.724438,50.28624 34.482564,56.131903 49.622133,91.089042 38.306591,95.410803 Z" style="fill:#b9853f;fill-opacity:1;stroke-width:0.688587;stroke-linejoin:round;paint-order:stroke fill markers;stop-color:#000000"/><path id="path28848" d="m 18.193712,56.186588 c -1.591263,-5.748926 0.619599,-18.564067 6.363255,-24.935615 6.645516,-7.371998 18.021582,-10.782407 27.935298,-10.305451 16.046101,0.771989 43.405286,20.943759 43.405286,20.943759 0,-2.387587 -28.399623,-6.231066 -39.529916,1.835892 C 42.343216,53.889721 43.973538,62.473911 38.7499,75.163519 c -2.791069,6.780249 -9.719221,6.475728 -14.975208,1.186069 -5.255988,-5.289659 -5.58098,-20.163 -5.58098,-20.163 z" style="fill:#dd91e0;fill-opacity:1;stroke-width:0.589639;stroke-linejoin:round;paint-order:stroke fill markers;stop-color:#000000"/><path transform="translate(4,4)" class="UnoptimicedTransforms" id="path28850" d="m 57.544922,18.861328 c -3.504527,2.702734 -7.265559,6.281184 -8.361328,9.824219 -1.522196,4.921832 -0.56507,9.427046 2.576172,11.507812 0.2099,-0.156781 0.390086,-0.31123 0.607422,-0.46875 C 62.04627,32.709452 84.766308,34.701322 90.53125,36.910156 85.992298,33.696088 70.651697,23.226987 57.544922,18.861328 Z M 90.53125,36.910156 c 0.852562,0.603707 1.367188,0.978516 1.367188,0.978516 0,-0.3113 -0.502842,-0.647342 -1.367188,-0.978516 z" style="fill:#e465b9;fill-opacity:1;stroke-width:0.589639;stroke-linejoin:round;paint-order:stroke fill markers;stop-color:#000000"/></g><path d="m 136.84564,34.818554 a 68.162062,68.162062 0 0 1 -1.74086,5.74913 l -2.04175,5.6148 c -0.70923,1.85369 -1.46683,3.69663 -2.27278,5.51271 -0.80595,1.81608 -1.64414,3.61604 -2.60591,5.37301 l -0.96714,-1.75697 a 27.090739,27.090739 0 0 0 3.53007,0.15045 34.924594,34.924594 0 0 0 3.59454,-0.25254 32.238087,32.238087 0 0 0 6.98492,-1.66563 29.992167,29.992167 0 0 0 3.27217,-1.42923 26.231057,26.231057 0 0 0 8.25832,-6.68402 l 2.37487,-2.88531 -0.16119,3.71812 -0.69849,16.7853 -1.58504,-1.26803 c 1.23579,-0.44059 2.54681,-1.02087 3.76111,-1.6119 1.2143,-0.59104 2.47159,-1.2358 3.6644,-1.94504 a 33.774769,33.774769 0 0 0 6.54433,-4.93242 23.243661,23.243661 0 0 0 4.75512,-6.53359 36.472022,36.472022 0 0 0 2.79934,-7.88759 14.888623,14.888623 0 0 1 0.33849,4.42737 9.8326165,9.8326165 0 0 1 -0.12357,1.12296 c -0.0538,0.37611 -0.10746,0.75222 -0.17731,1.11759 a 17.156035,17.156035 0 0 1 -0.63402,2.18144 17.596622,17.596622 0 0 1 -0.89192,2.10085 c -0.36537,0.66625 -0.72536,1.34325 -1.14982,1.97189 a 22.937399,22.937399 0 0 1 -2.80472,3.57843 30.422008,30.422008 0 0 1 -7.1085,5.50197 35.144888,35.144888 0 0 1 -4.01901,1.96115 28.740255,28.740255 0 0 1 -4.29841,1.40236 l -1.65489,0.46745 0.76297,-18.54765 2.2298,0.84894 a 29.078754,29.078754 0 0 1 -5.69003,5.29779 29.787992,29.787992 0 0 1 -3.33664,2.02025 32.775388,32.775388 0 0 1 -3.56767,1.56355 34.741912,34.741912 0 0 1 -7.52223,1.78922 35.709055,35.709055 0 0 1 -3.85782,0.27402 h -1.94503 c -0.64476,0 -1.27341,-0.0645 -1.98802,-0.15044 l -1.56354,-0.12359 0.59103,-1.6119 c 0.67163,-1.88055 1.46146,-3.69663 2.29427,-5.50196 0.83282,-1.80534 1.71937,-3.58381 2.63279,-5.37302 0.91341,-1.78921 1.84293,-3.53545 2.86381,-5.24406 1.02087,-1.70862 2.02026,-3.46023 3.15396,-5.12586 z" id="path50876" style="fill:#ac663c;fill-opacity:1;stroke-width:0.537302"/></svg>