<svg id="Layer_1" data-name="Layer 1" xmlns="http://www.w3.org/2000/svg" xmlns:xlink="http://www.w3.org/1999/xlink" viewBox="0 0 300 345"><defs><style>.cls-1{fill:url(#linear-gradient);}.cls-2{fill:url(#linear-gradient-2);}.cls-3{fill:#ffcd05;}.cls-4{fill:#414042;}.cls-5{fill:#94acd9;}.cls-6{fill:#cd8029;}.cls-7{fill:#fabc2e;}.cls-8{fill:#fff;}.cls-9{fill:none;stroke:#414042;stroke-miterlimit:10;stroke-width:5px;}.cls-10{fill:#8e1924;}.cls-11{fill:#c62127;}</style><linearGradient id="linear-gradient" x1="150" y1="356.11" x2="150" y2="161.16" gradientUnits="userSpaceOnUse"><stop offset="0" stop-color="#fabc2e"/><stop offset="1" stop-color="#cd8029"/></linearGradient><linearGradient id="linear-gradient-2" x1="150" y1="353.75" x2="150" y2="200.2" gradientUnits="userSpaceOnUse"><stop offset="0" stop-color="#ed1c24"/><stop offset="0.34" stop-color="#9a1c25"/></linearGradient></defs><title>blook_kinf-of-hearts</title><g id="alice_in_wonderland" data-name="alice in wonderland"><path class="cls-1" d="M263.62,345H36.38A36.38,36.38,0,0,1,0,308.62V259.14H300v49.48A36.38,36.38,0,0,1,263.62,345Z"/><path class="cls-2" d="M263.62,313.75H172.86l-21.07,21.08-21.07-21.08H36.38A36.38,36.38,0,0,1,0,277.37v31.25A36.38,36.38,0,0,0,36.38,345H263.62A36.38,36.38,0,0,0,300,308.62V277.37A36.38,36.38,0,0,1,263.62,313.75Z"/><rect class="cls-3" y="45" width="300" height="253.39" rx="36.38"/><path class="cls-4" d="M122.67,244.35a21,21,0,0,0,6,4.65,31.14,31.14,0,0,0,6.8,2.57A57.56,57.56,0,0,0,150,253.16a58,58,0,0,0,14.49-1.6,30.84,30.84,0,0,0,6.79-2.56,21.23,21.23,0,0,0,6.05-4.65,11.09,11.09,0,0,1-1.41,3.91,17.52,17.52,0,0,1-2.51,3.44,23.78,23.78,0,0,1-7,5,40.92,40.92,0,0,1-32.89,0,23.81,23.81,0,0,1-7-5,17.11,17.11,0,0,1-2.52-3.43A11.09,11.09,0,0,1,122.67,244.35Z"/><path class="cls-5" d="M300,256.34l-2.83-2.17-.75-.57-.71-.65c-.49-.43-1-.88-1.42-1.36a76.66,76.66,0,0,1-5.32-6c-3.37-4.23-6.58-8.63-9.67-13.12l-5.76,9.61-5.94,11.83L258.18,264l-12,4.84h0l-8.65,7.39-.42-.52c.06.22.13.43.19.64l-8.67,2.32h0l-13,3.5-15-1.88a45.34,45.34,0,0,0,2.66,12.84A59.25,59.25,0,0,0,209.06,305a65.85,65.85,0,0,0,18.45,19.11,58.9,58.9,0,0,0,11.93,6.17,61.81,61.81,0,0,0,13,3.46l1.66.26,1.66.17c1.11.1,2.22.24,3.34.3,2.23.05,4.4.24,6.75.07A32.42,32.42,0,0,0,279.37,331a27.41,27.41,0,0,0,10.43-9.68,25.53,25.53,0,0,0,3-6.54,26.27,26.27,0,0,0,1.14-7.1v0a20.48,20.48,0,0,0,4-6l.44-1.09c.13-.38.22-.77.33-1.15s.22-.76.28-1.16l.16-1.19a5,5,0,0,0,.06-.54c.3-.28.58-.6.87-.9Z"/><path class="cls-5" d="M71.37,278.68h0l-8.67-2.32c.06-.21.13-.42.19-.64l-.42.52-8.65-7.39h0l-12-4.84-9.42-10.1-5.94-11.83-5.76-9.61c-3.09,4.49-6.3,8.89-9.67,13.12a76.66,76.66,0,0,1-5.32,6c-.46.48-.93.93-1.42,1.36l-.71.65-.75.57L0,256.34v39.34c.29.3.57.62.87.9a5,5,0,0,0,.06.54l.16,1.19c.06.4.19.77.28,1.16s.2.77.33,1.15l.44,1.09a20.48,20.48,0,0,0,4,6v0a26.27,26.27,0,0,0,1.14,7.1,25.53,25.53,0,0,0,3,6.54A27.41,27.41,0,0,0,20.63,331a32.42,32.42,0,0,0,13.55,3.54c2.35.17,4.52,0,6.75-.07,1.12-.06,2.23-.2,3.34-.3l1.66-.17,1.66-.26a61.65,61.65,0,0,0,13-3.46,58.9,58.9,0,0,0,11.93-6.17A65.85,65.85,0,0,0,90.94,305a59.25,59.25,0,0,0,5.77-11.88,45.34,45.34,0,0,0,2.66-12.84l-15,1.88Z"/><path class="cls-4" d="M69.7,319.9a53.16,53.16,0,0,1-11,5.43,56.58,56.58,0,0,1-11.93,2.95l-1.53.24-1.54.13c-1,.09-2,.22-3.08.26-2,0-4.18.19-6.12,0a26.66,26.66,0,0,1-11.16-3,21.52,21.52,0,0,1-8.18-7.69,21.88,21.88,0,0,1-3.27-10.73,17.15,17.15,0,0,1,2.91-10.44,14.64,14.64,0,0,1,1.71-2.05,14.41,14.41,0,0,1,2.11-1.62l.55-.37c.19-.12.4-.2.6-.3.41-.19.8-.41,1.22-.58a16.86,16.86,0,0,1,2.63-.76,21.18,21.18,0,0,1,5.65-.4c1,.08,1.95.21,2.91.31l1.32.28,1.26.4a11.77,11.77,0,0,1,7,7.41A14.28,14.28,0,0,1,41.25,310,8.1,8.1,0,0,1,38,313.59a7.94,7.94,0,0,1-4.78.77l-.14,0h-.14c-.16,0-.51,0-.78-.08a8.55,8.55,0,0,1-.88-.17,10.41,10.41,0,0,1-1.69-.54,7.87,7.87,0,0,1-2.74-1.88,8,8,0,0,1-1.61-2.91,9.31,9.31,0,0,1-.36-1.79l-.12-.94c0-.3,0-.61,0-.9a7.84,7.84,0,0,1,.23-1.71,6.41,6.41,0,0,1,.65-1.49,5.54,5.54,0,0,1,2.73-2.07,9.19,9.19,0,0,1,3.9-.48,6.57,6.57,0,0,1,2,.43,2.12,2.12,0,0,1,1.45,1.36,2.37,2.37,0,0,0-1.06-2A7.9,7.9,0,0,0,32.56,298a10.1,10.1,0,0,0-4.78-.51,8,8,0,0,0-4.65,2.36,9,9,0,0,0-2.21,4.86c-.07.43-.09.85-.13,1.28v1.25a13.82,13.82,0,0,0,.29,2.53,11.67,11.67,0,0,0,2.29,4.84,12.27,12.27,0,0,0,4.31,3.2,14.57,14.57,0,0,0,2.46.84c.42.11.84.2,1.27.27s.73.1,1.2.14a13.16,13.16,0,0,0,6.45-.66,47.32,47.32,0,0,0,14.72-2,44.11,44.11,0,0,0,14.31-7.59,46.49,46.49,0,0,0,10.55-12,49.35,49.35,0,0,0,3.54-7.09,36.19,36.19,0,0,0,2.17-7.53A69.5,69.5,0,0,1,76.06,295a55.53,55.53,0,0,1-10.75,10.16A50.4,50.4,0,0,1,59,308.86l-1.65.77c-.55.26-1.12.45-1.68.69-1.11.5-2.28.83-3.43,1.24a54.48,54.48,0,0,1-7.09,1.65c.19-.31.36-.62.52-.94a15,15,0,0,0,1.1-2.67,13.45,13.45,0,0,0,3.92-1.07,21.3,21.3,0,0,0,4.83-3,37.43,37.43,0,0,0,7.1-8.05,64.21,64.21,0,0,0,5.12-9.09,61,61,0,0,0,3.6-9.69c-2,2.81-4,5.58-6,8.28q-1.53,2-3.07,4c-1,1.3-2.09,2.58-3.17,3.82a56.39,56.39,0,0,1-6.84,6.74,20.77,20.77,0,0,1-4.69,2.94,19.59,19.59,0,0,0-.43-4.76,23.36,23.36,0,0,0,5-4.1,38,38,0,0,0,4.61-6.13,54.56,54.56,0,0,0,3.53-6.67,46.19,46.19,0,0,0,2.55-7.07l-4.69,5.75-2.32,2.82L53.52,287c-1.6,1.78-3.16,3.56-4.82,5.16q-1.55,1.53-3.14,2.89A16.5,16.5,0,0,0,43,291.27a15.79,15.79,0,0,0-1.56-1.5A25.6,25.6,0,0,0,44,287.34a38.42,38.42,0,0,0,4.19-5.76,59,59,0,0,0,3.24-6.2,47.85,47.85,0,0,0,2.42-6.53c-1.45,1.82-2.87,3.6-4.32,5.35s-2.89,3.47-4.4,5.11c-.74.82-1.49,1.63-2.27,2.4l-1.15,1.17c-.4.36-.78.74-1.16,1.12-1.14,1.09-2.28,2.1-3.41,3.1-.13-.06-.25-.13-.38-.18-.59-.22-1.2-.41-1.8-.61l-1.83-.42L31,285.61l.06-.06a44.14,44.14,0,0,0,4.61-6.76,69.7,69.7,0,0,0,3.54-7.21A57.51,57.51,0,0,0,41.82,264c-1.7,2.07-3.3,4.17-4.91,6.26s-3.17,4.15-4.77,6.18-3.21,4-4.87,5.83a35.28,35.28,0,0,1-2.48,2.54,11.75,11.75,0,0,1-1.06.88c-.42.07-.85.13-1.27.23a21.4,21.4,0,0,0-3.55,1c-.58.22-1.13.52-1.7.78-.28.14-.57.26-.84.42l-.79.5a20.76,20.76,0,0,0-3,2.3A21,21,0,0,0,7,300.49l-.06.24a12,12,0,0,1-1-7.47,17.85,17.85,0,0,1,2.85-6.49c.33-.52.77-1,1.14-1.5a14.19,14.19,0,0,1,1.22-1.47l1.33-1.41.66-.71c.23-.22.48-.44.73-.66l3-2.71.82-.75.73-.8c.5-.52,1-1.06,1.4-1.61a66.61,66.61,0,0,0,4.84-6.78,123.8,123.8,0,0,0,7.81-14.46c-3.16,4.46-6.4,8.83-9.79,13-1.7,2.09-3.46,4.13-5.31,6-.46.47-.92.92-1.41,1.34l-.72.65-.73.57L11.18,278l-.84.66-.79.72L8,280.86a18.57,18.57,0,0,0-1.47,1.59c-.47.56-1,1.08-1.42,1.68a21.92,21.92,0,0,0-3.32,6.1A15.41,15.41,0,0,1,.7,288a12.94,12.94,0,0,1-.7-2.63v10.29c.29.3.57.62.87.9a5,5,0,0,0,.06.54l.16,1.19c.06.4.19.77.28,1.16s.2.77.33,1.15l.44,1.09a20.48,20.48,0,0,0,4,6v0a26.27,26.27,0,0,0,1.14,7.1,25.53,25.53,0,0,0,3,6.54A27.41,27.41,0,0,0,20.63,331a32.42,32.42,0,0,0,13.55,3.54c2.35.17,4.52,0,6.75-.07,1.12-.06,2.23-.2,3.34-.3l1.66-.17,1.66-.26a61.65,61.65,0,0,0,13-3.46,58.9,58.9,0,0,0,11.93-6.17A65.85,65.85,0,0,0,90.94,305a59.25,59.25,0,0,0,5.77-11.88,45.34,45.34,0,0,0,2.66-12.84,147,147,0,0,1-12.24,22.21A61.94,61.94,0,0,1,69.7,319.9Z"/><path class="cls-4" d="M2.92,275c.33-.52.76-1,1.13-1.49a15.36,15.36,0,0,1,1.21-1.46l1.33-1.4.65-.71.73-.66,3-2.71c.27-.26.56-.5.82-.76l.73-.8c.5-.53,1-1.07,1.4-1.62a65.56,65.56,0,0,0,4.84-6.82,118.09,118.09,0,0,0,7.7-14.53c-3.21,4.43-6.48,8.78-9.88,13-1.72,2.07-3.48,4.1-5.33,6-.46.47-.92.92-1.41,1.33l-.71.64-.73.57-3.27,2.52-.84.66-.79.72-1.59,1.46a20.76,20.76,0,0,0-1.48,1.61c-.14.17-.29.33-.43.49v10.92a3.85,3.85,0,0,1,.08-.47A17.59,17.59,0,0,1,2.92,275Z"/><path class="cls-4" d="M0,261.51l.62-.66.66-.71.73-.66,3-2.73.8-.75.73-.79c.5-.52,1-1.05,1.4-1.6a72.69,72.69,0,0,0,4.83-6.77,133.31,133.31,0,0,0,7.93-14.37c-3.09,4.49-6.3,8.89-9.67,13.12a76.66,76.66,0,0,1-5.32,6c-.46.48-.93.93-1.42,1.36l-.71.65-.75.57L0,256.34Z"/><path class="cls-4" d="M279.3,232.47a133.31,133.31,0,0,0,7.93,14.37,72.69,72.69,0,0,0,4.83,6.77c.44.55.9,1.08,1.4,1.6l.73.79.8.75,3,2.73.73.66.66.71.62.66v-5.17l-2.83-2.17-.75-.57-.71-.65c-.49-.43-1-.88-1.42-1.36a76.66,76.66,0,0,1-5.32-6C285.6,241.36,282.39,237,279.3,232.47Z"/><path class="cls-4" d="M300,285.39a12.94,12.94,0,0,1-.7,2.63,15.41,15.41,0,0,1-1.06,2.21,21.92,21.92,0,0,0-3.32-6.1c-.43-.6-.95-1.12-1.42-1.68a18.57,18.57,0,0,0-1.47-1.59l-1.58-1.46-.79-.72-.84-.66-3.26-2.52-.73-.57-.72-.65c-.49-.42-.95-.87-1.41-1.34-1.85-1.87-3.61-3.91-5.31-6-3.39-4.2-6.63-8.57-9.79-13a123.8,123.8,0,0,0,7.81,14.46,66.61,66.61,0,0,0,4.84,6.78c.44.55.9,1.09,1.4,1.61l.73.8.82.75,3,2.71c.25.22.5.44.73.66l.66.71,1.33,1.41a14.19,14.19,0,0,1,1.22,1.47c.37.5.81,1,1.14,1.5a17.85,17.85,0,0,1,2.85,6.49,12,12,0,0,1-1.05,7.47l-.06-.24a19.44,19.44,0,0,0-8.6-11.84l-.79-.5c-.27-.16-.56-.28-.84-.42-.57-.26-1.12-.56-1.7-.78a21.4,21.4,0,0,0-3.55-1c-.42-.1-.85-.16-1.27-.23a11.75,11.75,0,0,1-1.06-.88,35.28,35.28,0,0,1-2.48-2.54c-1.66-1.83-3.25-3.83-4.87-5.83s-3.17-4.1-4.77-6.18-3.21-4.19-4.91-6.26a57.51,57.51,0,0,0,2.65,7.57,69.7,69.7,0,0,0,3.54,7.21,44.14,44.14,0,0,0,4.61,6.76l.06.06-2.14.28-1.83.42c-.6.2-1.21.39-1.8.61-.13.05-.25.12-.38.18-1.13-1-2.27-2-3.41-3.1-.38-.38-.76-.76-1.16-1.12l-1.15-1.17c-.78-.77-1.53-1.58-2.27-2.4-1.51-1.64-3-3.36-4.4-5.11s-2.87-3.53-4.32-5.35a47.85,47.85,0,0,0,2.42,6.53,59,59,0,0,0,3.24,6.2,38.42,38.42,0,0,0,4.19,5.76,25.6,25.6,0,0,0,2.55,2.43,15.79,15.79,0,0,0-1.56,1.5,16.5,16.5,0,0,0-2.58,3.81q-1.59-1.36-3.14-2.89c-1.66-1.6-3.22-3.38-4.82-5.16l-2.36-2.74-2.32-2.82-4.69-5.75a46.19,46.19,0,0,0,2.55,7.07,54.56,54.56,0,0,0,3.53,6.67,38,38,0,0,0,4.61,6.13,23.36,23.36,0,0,0,5,4.1,19.59,19.59,0,0,0-.43,4.76,20.77,20.77,0,0,1-4.69-2.94,56.39,56.39,0,0,1-6.84-6.74c-1.08-1.24-2.13-2.52-3.17-3.82s-2.05-2.65-3.07-4c-2-2.7-4-5.47-6-8.28a61,61,0,0,0,3.6,9.69,64.21,64.21,0,0,0,5.12,9.09,37.43,37.43,0,0,0,7.1,8.05,21.3,21.3,0,0,0,4.83,3,13.45,13.45,0,0,0,3.92,1.07,15,15,0,0,0,1.1,2.67c.16.32.33.63.52.94a54.48,54.48,0,0,1-7.09-1.65c-1.15-.41-2.32-.74-3.43-1.24-.56-.24-1.13-.43-1.68-.69l-1.65-.77a50.4,50.4,0,0,1-6.28-3.73A55.53,55.53,0,0,1,223.94,295a69.5,69.5,0,0,1-8.3-12.79,36.19,36.19,0,0,0,2.17,7.53,49.35,49.35,0,0,0,3.54,7.09,46.49,46.49,0,0,0,10.55,12,44.11,44.11,0,0,0,14.31,7.59,47.32,47.32,0,0,0,14.72,2,13.16,13.16,0,0,0,6.45.66c.47,0,.81-.08,1.2-.14s.85-.16,1.27-.27a14.57,14.57,0,0,0,2.46-.84,12.27,12.27,0,0,0,4.31-3.2,11.67,11.67,0,0,0,2.29-4.84,13.82,13.82,0,0,0,.29-2.53V306c0-.43-.06-.85-.13-1.28a9,9,0,0,0-2.21-4.86,8,8,0,0,0-4.65-2.36,10.1,10.1,0,0,0-4.78.51,7.9,7.9,0,0,0-2.07,1.14,2.37,2.37,0,0,0-1.06,2,2.12,2.12,0,0,1,1.45-1.36,6.57,6.57,0,0,1,2-.43,9.19,9.19,0,0,1,3.9.48,5.54,5.54,0,0,1,2.73,2.07,6.41,6.41,0,0,1,.65,1.49,7.84,7.84,0,0,1,.23,1.71c0,.29,0,.6,0,.9l-.12.94a9.31,9.31,0,0,1-.36,1.79,8,8,0,0,1-1.61,2.91,7.87,7.87,0,0,1-2.74,1.88,10.41,10.41,0,0,1-1.69.54,8.55,8.55,0,0,1-.88.17c-.27,0-.62.07-.78.08h-.14l-.14,0a7.94,7.94,0,0,1-4.78-.77,8.1,8.1,0,0,1-3.27-3.58,14.28,14.28,0,0,1-.48-10.59,11.77,11.77,0,0,1,7-7.41l1.26-.4,1.32-.28c1-.1,1.94-.23,2.91-.31a21.18,21.18,0,0,1,5.65.4,16.86,16.86,0,0,1,2.63.76c.42.17.81.39,1.22.58.2.1.41.18.6.3l.55.37a14.41,14.41,0,0,1,2.11,1.62,14.64,14.64,0,0,1,1.71,2.05,17.15,17.15,0,0,1,2.91,10.44,21.88,21.88,0,0,1-3.27,10.73,21.52,21.52,0,0,1-8.18,7.69,26.66,26.66,0,0,1-11.16,3c-1.94.16-4.07,0-6.12,0-1,0-2.06-.17-3.08-.26l-1.54-.13-1.53-.24a56.58,56.58,0,0,1-11.93-2.95,53.16,53.16,0,0,1-11-5.43,61.94,61.94,0,0,1-17.43-17.39,147,147,0,0,1-12.24-22.21,45.34,45.34,0,0,0,2.66,12.84A59.25,59.25,0,0,0,209.06,305a65.85,65.85,0,0,0,18.45,19.11,58.9,58.9,0,0,0,11.93,6.17,61.81,61.81,0,0,0,13,3.46l1.66.26,1.66.17c1.11.1,2.22.24,3.34.3,2.23.05,4.4.24,6.75.07A32.42,32.42,0,0,0,279.37,331a27.41,27.41,0,0,0,10.43-9.68,25.53,25.53,0,0,0,3-6.54,26.27,26.27,0,0,0,1.14-7.1v0a20.48,20.48,0,0,0,4-6l.44-1.09c.13-.38.22-.77.33-1.15s.22-.76.28-1.16l.16-1.19a5,5,0,0,0,.06-.54c.3-.28.58-.6.87-.9Z"/><path class="cls-4" d="M298.09,268.91l-1.59-1.46-.79-.72c-.28-.23-.56-.44-.84-.66l-3.27-2.52-.73-.57-.71-.64c-.49-.41-1-.86-1.41-1.33-1.85-1.86-3.61-3.89-5.33-6-3.4-4.19-6.67-8.54-9.88-13a118.09,118.09,0,0,0,7.7,14.53,65.56,65.56,0,0,0,4.84,6.82c.44.55.9,1.09,1.4,1.62l.73.8c.26.26.55.5.82.76l3,2.71.73.66.65.71,1.33,1.4a15.36,15.36,0,0,1,1.21,1.46c.37.5.8,1,1.13,1.49a17.59,17.59,0,0,1,2.84,6.42,3.85,3.85,0,0,1,.08.47V271c-.14-.16-.29-.32-.43-.49A20.76,20.76,0,0,0,298.09,268.91Z"/><path class="cls-6" d="M141.58,170c-4.23,8.59-8.39,17-11.64,25.48a76.59,76.59,0,0,0-3.8,12.74,27,27,0,0,0-.1,11.88,11.78,11.78,0,0,0,2.22,4.61,14.15,14.15,0,0,0,4,3.51,31.18,31.18,0,0,0,11.71,3.7,50.6,50.6,0,0,0,13.24,0,32.85,32.85,0,0,0,6.52-1.51,14,14,0,0,0,3-1.47,5.6,5.6,0,0,0,2.23-2.52,5.82,5.82,0,0,1-1.27,3.49,13.24,13.24,0,0,1-2.71,2.68,27.39,27.39,0,0,1-6.61,3.6A42.62,42.62,0,0,1,143.63,239a37.67,37.67,0,0,1-7.73-.69,28.88,28.88,0,0,1-7.71-2.6,21.94,21.94,0,0,1-6.82-5.37,20.56,20.56,0,0,1-4-7.94,28.33,28.33,0,0,1-.78-8.32,39.06,39.06,0,0,1,1.28-7.76,49.11,49.11,0,0,1,2.47-7.16c.47-1.16,1-2.28,1.53-3.39s1.11-2.2,1.71-3.27a87.25,87.25,0,0,1,8.11-12A77.13,77.13,0,0,1,141.58,170Z"/><circle class="cls-7" cx="242.58" cy="192.41" r="36.45"/><circle class="cls-7" cx="57.42" cy="192.41" r="36.45"/><path class="cls-8" d="M279,202.53c0,20.13-16.32,29.5-36.45,29.5s-36.45-9.37-36.45-29.5a36.45,36.45,0,1,1,72.9,0Z"/><path class="cls-8" d="M93.87,202.53c0,20.13-16.32,29.5-36.45,29.5S21,222.66,21,202.53a36.45,36.45,0,1,1,72.9,0Z"/><path class="cls-4" d="M89.18,197.24A13.21,13.21,0,0,1,70,179.33a23,23,0,1,0,19.19,17.91ZM57.14,217a5.46,5.46,0,1,1,5.45-5.46A5.46,5.46,0,0,1,57.14,217Z"/><path class="cls-4" d="M255.63,197.11a13.22,13.22,0,0,1-19.07-17.77,24.25,24.25,0,0,0-3.32-.24,23,23,0,1,0,22.39,18ZM223.41,217a5.46,5.46,0,1,1,5.46-5.46A5.46,5.46,0,0,1,223.41,217Z"/><path class="cls-7" d="M300,131.12V89.38A36.38,36.38,0,0,0,263.62,53H157.19l1.72,24.79c-2.84.1-5.8.15-8.91.15s-6.07,0-8.91-.15L142.81,53H36.38A36.38,36.38,0,0,0,0,89.38v45.1H0v1.64c32.14,0,48.17-12.08,55.47-20.58a21.1,21.1,0,0,0,.75,3.33,23.64,23.64,0,0,0,2.72,6,25,25,0,0,0,9.55,8.86A29.56,29.56,0,0,0,80.9,137c2.15.15,4.14,0,6.19-.07,1-.05,2-.18,3-.27l1.53-.15,1.52-.25a56.22,56.22,0,0,0,11.87-3.16A54.75,54.75,0,0,0,116,127.42a60.48,60.48,0,0,0,16.9-17.51A54.46,54.46,0,0,0,138.18,99c.45-1.32.86-2.66,1.22-4q5,.19,10.6.2t10.6-.2c.36,1.35.77,2.69,1.22,4a54.46,54.46,0,0,0,5.28,10.89A60.48,60.48,0,0,0,184,127.42a54.75,54.75,0,0,0,10.94,5.65,56.22,56.22,0,0,0,11.87,3.16l1.52.25,1.53.15c1,.09,2,.22,3,.27,2.05,0,4,.22,6.19.07a29.56,29.56,0,0,0,12.41-3.25,25,25,0,0,0,9.55-8.86,23.64,23.64,0,0,0,2.72-6,21.1,21.1,0,0,0,.75-3.33c7.3,8.5,23.33,20.58,55.47,20.58v-5Z"/><path class="cls-5" d="M263.62,45H157.19l2.43,34.9,8.55,19.82,9.16,11.36L187.72,119l11.69,5,14.38,2.37,15.08-2.29,10.74-10,3.63-11.2,10.26,9.58,12.86,7.26,16.89,4.64L300,126.48V81.38A36.38,36.38,0,0,0,263.62,45Z"/><path class="cls-4" d="M159.38,79.26a135.09,135.09,0,0,0,11.21,20.35,56.6,56.6,0,0,0,16,15.93,49.23,49.23,0,0,0,10.08,5,51.85,51.85,0,0,0,10.93,2.7l1.4.21,1.41.13c.94.08,1.88.19,2.83.24,1.88,0,3.83.17,5.6,0A24.44,24.44,0,0,0,229,121.09a19.67,19.67,0,0,0,7.49-7,19.92,19.92,0,0,0,3-9.82,15.7,15.7,0,0,0-2.66-9.57,13.41,13.41,0,0,0-1.57-1.87,12.72,12.72,0,0,0-1.93-1.49l-.51-.34c-.17-.1-.36-.18-.55-.27-.37-.17-.73-.38-1.11-.53a15.15,15.15,0,0,0-2.41-.7,19.77,19.77,0,0,0-5.18-.37c-.88.08-1.78.2-2.66.29l-1.21.25-1.15.37a10.76,10.76,0,0,0-6.39,6.79,13,13,0,0,0,.43,9.7,7.36,7.36,0,0,0,3,3.28,7.21,7.21,0,0,0,4.38.7h.27a6,6,0,0,0,.71-.07c.27,0,.54-.09.8-.15a8.77,8.77,0,0,0,1.55-.5,7.24,7.24,0,0,0,2.51-1.72,7.31,7.31,0,0,0,1.48-2.67,8.55,8.55,0,0,0,.32-1.63l.11-.86c0-.28,0-.56,0-.83a7.25,7.25,0,0,0-.21-1.57,5.17,5.17,0,0,0-.6-1.36,5,5,0,0,0-2.49-1.9,8.52,8.52,0,0,0-3.58-.44,6.44,6.44,0,0,0-1.83.39,2,2,0,0,0-1.33,1.25,2.18,2.18,0,0,1,1-1.83,7.3,7.3,0,0,1,1.89-1A9.21,9.21,0,0,1,225,95a7.29,7.29,0,0,1,4.26,2.16,8.3,8.3,0,0,1,2,4.46c.07.39.08.77.12,1.17V104a11.62,11.62,0,0,1-.26,2.32,10.71,10.71,0,0,1-2.1,4.43,11.11,11.11,0,0,1-4,2.93,13,13,0,0,1-2.25.78c-.38.09-.77.18-1.16.24a12.84,12.84,0,0,1-1.28.14l.26,0a11.7,11.7,0,0,1-7.09-1.07,11.85,11.85,0,0,1-5-5.16,16.45,16.45,0,0,1-1.75-6.59,18.05,18.05,0,0,1,.85-6.68,15.92,15.92,0,0,1,3.4-6,15.4,15.4,0,0,1,5.72-4c.55-.2,1.1-.38,1.65-.56l1.67-.38c1.07-.14,2.12-.3,3.2-.39a24.27,24.27,0,0,1,6.56.42,21.37,21.37,0,0,1,3.25.93c.52.21,1,.48,1.55.72.26.13.52.24.77.38l.73.47a17.94,17.94,0,0,1,2.74,2.1,18.49,18.49,0,0,1,2.24,2.61A18.72,18.72,0,0,1,244,97.76a22.09,22.09,0,0,1,.81,6.6,24.73,24.73,0,0,1-1,6.51,23.64,23.64,0,0,1-2.72,6,25,25,0,0,1-9.55,8.86A29.56,29.56,0,0,1,219.1,129c-2.15.15-4.14,0-6.19-.07-1-.05-2-.18-3-.27l-1.53-.15-1.52-.25a56.22,56.22,0,0,1-11.87-3.16A54.75,54.75,0,0,1,184,119.42a60.48,60.48,0,0,1-16.9-17.51A54.46,54.46,0,0,1,161.82,91,41.71,41.71,0,0,1,159.38,79.26Z"/><path class="cls-9" d="M241.5,98.48s11.11,27.14,58.5,27.14"/><path class="cls-4" d="M300,104.72l-.43,0c-1.17-.09-2.35-.19-3.53-.37l-1.76-.24c-.59-.09-1.17-.22-1.76-.33s-1.17-.2-1.75-.33L289,103a85.87,85.87,0,0,1-13.67-4.61c-2.18-1.05-4.44-2-6.55-3.22-1.07-.58-2.2-1.09-3.23-1.74s-2.1-1.29-3.16-1.91-2.1-1.31-3.12-2l-3.12-2.06c-2-1.43-4-3-6.13-4.39,1.55,2,3.17,4,4.88,5.84l2.7,2.69a36.49,36.49,0,0,0,2.83,2.59A71.76,71.76,0,0,0,273.13,103a64.38,64.38,0,0,0,14.54,5.61,39.31,39.31,0,0,0,3.85.81c1.3.23,2.6.39,3.92.52.65.07,1.32.09,2,.12s1.32.07,2,0H300Z"/><path class="cls-4" d="M300,87.83a89.12,89.12,0,0,1-9.65-3.51c-2.18-1-4.44-2-6.55-3.22-1.07-.58-2.2-1.09-3.23-1.75s-2.1-1.28-3.16-1.9-2.1-1.31-3.12-2l-3.12-2.07c-2-1.42-4-3-6.13-4.38,1.55,2,3.17,4,4.88,5.84l2.7,2.69a36.49,36.49,0,0,0,2.83,2.59,71.76,71.76,0,0,0,12.68,8.78A68.08,68.08,0,0,0,300,93.77Z"/><path class="cls-5" d="M36.38,45H142.81l-2.43,34.9-8.55,19.82-9.16,11.36L112.28,119l-11.69,5L86.21,126.4l-15.08-2.29-10.74-10-3.63-11.2L46.5,112.45l-12.86,7.26-16.89,4.64L0,126.48V81.38A36.38,36.38,0,0,1,36.38,45Z"/><path class="cls-4" d="M140.62,79.26A41.71,41.71,0,0,1,138.18,91a54.46,54.46,0,0,1-5.28,10.89A60.48,60.48,0,0,1,116,119.42a54.75,54.75,0,0,1-10.94,5.65,56.22,56.22,0,0,1-11.87,3.16l-1.52.25-1.53.15c-1,.09-2,.22-3,.27-2,0-4,.22-6.19.07a29.56,29.56,0,0,1-12.41-3.25,25,25,0,0,1-9.55-8.86,23.64,23.64,0,0,1-2.72-6,24.73,24.73,0,0,1-1-6.51,22.09,22.09,0,0,1,.81-6.6,18.72,18.72,0,0,1,2.89-6.13A18.49,18.49,0,0,1,61.12,89a17.94,17.94,0,0,1,2.74-2.1l.73-.47c.25-.14.51-.25.77-.38.52-.24,1-.51,1.55-.72a21.37,21.37,0,0,1,3.25-.93A24.27,24.27,0,0,1,76.72,84c1.08.09,2.13.25,3.2.39l1.67.38c.55.18,1.1.36,1.65.56a15.4,15.4,0,0,1,5.72,4,15.92,15.92,0,0,1,3.4,6,18.05,18.05,0,0,1,.85,6.68,16.45,16.45,0,0,1-1.75,6.59,11.85,11.85,0,0,1-5,5.16,11.7,11.7,0,0,1-7.09,1.07l.26,0a12.84,12.84,0,0,1-1.28-.14c-.39-.06-.78-.15-1.16-.24a13,13,0,0,1-2.25-.78A11.11,11.11,0,0,1,71,110.72a10.71,10.71,0,0,1-2.1-4.43,11.62,11.62,0,0,1-.26-2.32v-1.14c0-.4,0-.78.12-1.17a8.3,8.3,0,0,1,2-4.46A7.29,7.29,0,0,1,75,95a9.21,9.21,0,0,1,4.38.46,7.3,7.3,0,0,1,1.89,1,2.18,2.18,0,0,1,1,1.83A2,2,0,0,0,81,97.13a6.44,6.44,0,0,0-1.83-.39,8.52,8.52,0,0,0-3.58.44,5,5,0,0,0-2.49,1.9,5.17,5.17,0,0,0-.6,1.36,7.25,7.25,0,0,0-.21,1.57c0,.27,0,.55,0,.83l.11.86a8.55,8.55,0,0,0,.32,1.63A7.31,7.31,0,0,0,74.17,108a7.24,7.24,0,0,0,2.51,1.72,8.77,8.77,0,0,0,1.55.5c.26.06.53.11.8.15a6,6,0,0,0,.71.07H80a7.21,7.21,0,0,0,4.38-.7,7.36,7.36,0,0,0,3-3.28,13,13,0,0,0,.43-9.7A10.76,10.76,0,0,0,81.42,90l-1.15-.37-1.21-.25c-.88-.09-1.78-.21-2.66-.29a19.77,19.77,0,0,0-5.18.37,15.15,15.15,0,0,0-2.41.7c-.38.15-.74.36-1.11.53-.19.09-.38.17-.55.27l-.51.34a12.72,12.72,0,0,0-1.93,1.49,13.41,13.41,0,0,0-1.57,1.87,15.7,15.7,0,0,0-2.66,9.57,19.92,19.92,0,0,0,3,9.82,19.67,19.67,0,0,0,7.49,7,24.44,24.44,0,0,0,10.23,2.73c1.77.15,3.72,0,5.6,0,.95,0,1.89-.16,2.83-.24l1.41-.13,1.4-.21a51.85,51.85,0,0,0,10.93-2.7,49.23,49.23,0,0,0,10.08-5,56.6,56.6,0,0,0,16-15.93A135.09,135.09,0,0,0,140.62,79.26Z"/><path class="cls-9" d="M58.5,98.48S47.39,125.62,0,125.62"/><path class="cls-4" d="M0,104.72l.43,0c1.17-.09,2.35-.19,3.53-.37l1.76-.24c.59-.09,1.17-.22,1.76-.33s1.17-.2,1.75-.33L11,103A85.87,85.87,0,0,0,24.65,98.4c2.18-1.05,4.44-2,6.55-3.22,1.07-.58,2.2-1.09,3.23-1.74s2.1-1.29,3.16-1.91,2.1-1.31,3.12-2l3.12-2.06c2-1.43,4-3,6.13-4.39-1.55,2-3.17,4-4.88,5.84l-2.7,2.69a36.49,36.49,0,0,1-2.83,2.59A71.76,71.76,0,0,1,26.87,103a64.38,64.38,0,0,1-14.54,5.61,39.31,39.31,0,0,1-3.85.81c-1.3.23-2.6.39-3.92.52-.65.07-1.32.09-2,.12s-1.32.07-2,0H0Z"/><path class="cls-4" d="M0,87.83a89.12,89.12,0,0,0,9.65-3.51c2.18-1,4.44-2,6.55-3.22,1.07-.58,2.2-1.09,3.23-1.75s2.1-1.28,3.16-1.9,2.1-1.31,3.12-2l3.12-2.07c2-1.42,4-3,6.13-4.38-1.55,2-3.17,4-4.88,5.84l-2.7,2.69a36.49,36.49,0,0,1-2.83,2.59,71.76,71.76,0,0,1-12.68,8.78A68.08,68.08,0,0,1,0,93.77Z"/><ellipse class="cls-4" cx="67.93" cy="148.34" rx="36.11" ry="20.93" transform="translate(-25.36 14.49) rotate(-10.27)"/><ellipse class="cls-4" cx="232.07" cy="148.34" rx="20.93" ry="36.11" transform="translate(44.73 350.24) rotate(-79.73)"/><polygon class="cls-10" points="98.81 32.13 109.84 6.89 145.27 29.64 98.81 32.13"/><polygon class="cls-10" points="201.19 32.13 190.16 6.89 154.73 29.64 201.19 32.13"/><polygon class="cls-10" points="173.23 37.52 150 1.01 126.77 35.05 173.23 37.52"/><path class="cls-11" d="M186.15,29.2,169.32,0,150,32.12,130.68,0,113.85,29.2l-23.27-18L91,63.12s17.15,12.35,59,12.35,59-12.35,59-12.35l.39-51.92Z"/><path class="cls-10" d="M90.17,60.54s17.38,9.4,59.83,9.4,59.83-9.4,59.83-9.4V77.81s-17.38,9.4-59.83,9.4-59.83-9.4-59.83-9.4Z"/><path class="cls-8" d="M159.61,33.73a10.31,10.31,0,0,0-9.61,6.6A10.3,10.3,0,0,0,130.08,44c0,13.68,19.92,21.76,19.92,21.76S169.92,57.71,169.92,44A10.3,10.3,0,0,0,159.61,33.73Z"/></g></svg>