<?xml version="1.0" encoding="UTF-8" standalone="no"?>
<svg viewBox="0 0 300 345" version="1.1" id="svg60941" sodipodi:docname="koala_3.svg" xml:space="preserve" inkscape:version="1.2 (dc2aedaf03, 2022-05-15)" xmlns:inkscape="http://www.inkscape.org/namespaces/inkscape" xmlns:sodipodi="http://sodipodi.sourceforge.net/DTD/sodipodi-0.dtd" xmlns:xlink="http://www.w3.org/1999/xlink" xmlns="http://www.w3.org/2000/svg" xmlns:svg="http://www.w3.org/2000/svg"><sodipodi:namedview id="namedview60943" pagecolor="#505050" bordercolor="#ffffff" borderopacity="1" inkscape:showpageshadow="0" inkscape:pageopacity="0" inkscape:pagecheckerboard="1" inkscape:deskcolor="#505050" showgrid="false" inkscape:zoom="0.49837466" inkscape:cx="-121.39462" inkscape:cy="224.73053" inkscape:window-width="1366" inkscape:window-height="705" inkscape:window-x="-8" inkscape:window-y="-8" inkscape:window-maximized="1" inkscape:current-layer="svg60941"/><defs id="defs60891"><linearGradient inkscape:collect="always" id="linearGradient11860"><stop style="stop-color:#c4c1ca;stop-opacity:1;" offset="0" id="stop11856"/><stop style="stop-color:#ada9b4;stop-opacity:1;" offset="0.66115701" id="stop11858"/></linearGradient><inkscape:path-effect effect="fillet_chamfer" id="path-effect77033" is_visible="true" lpeversion="1" nodesatellites_param="F,0,0,1,0,12.405177,0,1 @ F,0,0,1,0,13.255777,0,1 @ F,0,0,1,0,0,0,1 @ F,0,0,1,0,0,0,1 @ F,0,0,1,0,0,0,1 @ F,0,0,1,0,0,0,1" unit="px" method="auto" mode="F" radius="0" chamfer_steps="1" flexible="false" use_knot_distance="true" apply_no_radius="true" apply_with_radius="true" only_selected="false" hide_knots="false"/><inkscape:path-effect effect="mirror_symmetry" start_point="144.71471,238.55631" end_point="144.71471,256.72496" center_point="144.71471,247.64063" id="path-effect76169" is_visible="true" lpeversion="1.2" lpesatellites="" mode="vertical" discard_orig_path="false" fuse_paths="false" oposite_fuse="false" split_items="true" split_open="false" link_styles="false"/><linearGradient id="A" x1="150" y1="356.11" x2="150" y2="161.16" gradientUnits="userSpaceOnUse"><stop offset="0" stop-color="#594a42" id="stop60886" style="stop-color:#827b8b;stop-opacity:1;"/><stop offset="0.80405837" stop-color="#281813" id="stop60888" style="stop-color:#3b3841;stop-opacity:1;"/></linearGradient><linearGradient inkscape:collect="always" xlink:href="#linearGradient11860" id="linearGradient11862" x1="150" y1="345" x2="150.72852" y2="267.65039" gradientUnits="userSpaceOnUse" gradientTransform="matrix(1.2549206,0,0,1,-38.237867,0)"/></defs><path transform="matrix(-0.95606472,0,0,0.95606472,295.04144,3.0341742)" class="UnoptimicedTransforms" id="path9601" d="M 58.103516,24.740234 C 28.736284,24.21633 10.039303,46.504195 0.79568608,68.744123 -8.3642883,90.782808 -7.2753169,123.23275 9.946076,139.75644 21.57288,150.9122 29.66055,167.10972 58.103516,143.94727 84.270327,122.63837 102.03687,122.77717 110.95898,91.091797 119.86965,59.447178 96.664641,25.428159 58.103516,24.740234 Z" style="fill:#4e455d;fill-opacity:1;fill-rule:evenodd"/><path id="path9603" d="m 226,84.1875 c 24.429,8.582259 48.8581,33.96958 73.28711,21.08398 -1.30371,12.14477 -5.6535,23.60668 -13.75391,31.37891 -11.11596,10.66562 -18.84968,26.15064 -46.04297,4.00586 -4.79447,-3.90437 -9.2887,-7.04809 -13.49023,-9.80469 z" style="fill:#3e3649;fill-opacity:1;stroke-linejoin:round;paint-order:stroke fill markers;stop-color:#000000"/><path transform="matrix(-0.85374601,0,0,0.96301024,286.02929,1.9614919)" class="UnoptimicedTransforms" id="path9605" d="M 40.709785,51.243846 C 13.108728,50.992035 -9.2077054,82.750094 -1.4222625,112.08312 c 5.6773321,21.39033 17.7698485,40.08837 39.0349715,42.15275 5.304115,-2.53096 10.943795,-5.91405 16.898313,-10.21291 7.41982,-5.35676 14.225188,-9.34182 20.430642,-12.82674 3.417937,-5.94778 6.497036,-12.47153 9.601811,-19.1131 C 96.678041,86.125463 76.021043,56.657322 46.293709,51.730545 44.414011,51.419018 42.549855,51.260634 40.709785,51.243846 Z" style="fill:#bcb6c3;fill-opacity:1;fill-rule:evenodd;stroke-width:1.02565"/><path id="path321" style="fill:#4e455d;fill-opacity:1;fill-rule:evenodd" class="UnoptimicedTransforms" d="M 58.103516,24.740234 C 28.736284,24.21633 10.039303,46.504195 0.79568608,68.744123 -8.3642883,90.782808 -7.2753169,123.23275 9.946076,139.75644 21.57288,150.9122 29.66055,167.10972 58.103516,143.94727 84.270327,122.63837 102.03687,122.77717 110.95898,91.091797 119.86965,59.447178 96.664641,25.428159 58.103516,24.740234 Z" transform="matrix(0.95606472,0,0,0.95606472,4.9585615,3.0341742)" sodipodi:nodetypes="saascs"/><path id="rect8926" style="fill:#3e3649;fill-opacity:1;stroke-linejoin:round;paint-order:stroke fill markers;stop-color:#000000" d="M 74,84.1875 C 49.570995,92.769759 25.141896,118.15708 0.71289062,105.27148 2.0165986,117.41625 6.3663914,128.87816 14.466797,136.65039 25.582763,147.31601 33.316476,162.80103 60.509766,140.65625 65.304237,136.75188 69.798469,133.60816 74,130.85156 Z"/><path id="path2334" style="fill:#bcb6c3;fill-opacity:1;fill-rule:evenodd;stroke-width:1.02565" class="UnoptimicedTransforms" d="M 40.709785,51.243846 C 13.108728,50.992035 -9.2077054,82.750094 -1.4222625,112.08312 c 5.6773321,21.39033 17.7698485,40.08837 39.0349715,42.15275 5.304115,-2.53096 10.943795,-5.91405 16.898313,-10.21291 7.41982,-5.35676 14.225188,-9.34182 20.430642,-12.82674 3.417937,-5.94778 6.497036,-12.47153 9.601811,-19.1131 C 96.678041,86.125463 76.021043,56.657322 46.293709,51.730545 44.414011,51.419018 42.549855,51.260634 40.709785,51.243846 Z" transform="matrix(0.85374601,0,0,0.96301024,13.970715,1.9614919)"/><path d="M 263.62,345 H 36.38 A 36.38,36.38 0 0 1 0,308.62 v -49.48 h 300 v 49.48 A 36.38,36.38 0 0 1 263.62,345 Z" fill="url(#A)" id="path60893" style="fill:url(#A)"/><path id="rect11496" style="fill:url(#linearGradient11862);fill-opacity:1;stroke-width:2.26567;stroke-linecap:round;stop-color:#000000" d="M 74.773617,267.65039 C 46.65908,294.94193 40.730231,320.5234 49.121274,345 H 250.87918 c 8.39103,-24.4766 2.45975,-50.05807 -25.6548,-77.34961 h -74.30992 -1.82847 z"/><path id="path60895" style="fill:#827b8b;fill-opacity:1" d="m 150,86.273438 a 150,128.18568 0 0 0 -18.88672,1.058593 150,128.18568 0 0 0 -5.85547,0.916016 150,128.18568 0 0 0 -12.73437,2.164062 150,128.18568 0 0 0 -6.79102,1.806641 150,128.18568 0 0 0 -11.203123,3.25 150,128.18568 0 0 0 -6.886719,2.650391 150,128.18568 0 0 0 -10.240234,4.316409 150,128.18568 0 0 0 -6.621094,3.41992 150,128.18568 0 0 0 -9.345703,5.33594 150,128.18568 0 0 0 -6.162109,4.12695 150,128.18568 0 0 0 -8.408204,6.30273 150,128.18568 0 0 0 -5.513672,4.71289 150,128.18568 0 0 0 -7.4375,7.2461 150,128.18568 0 0 0 -4.740234,5.17383 150,128.18568 0 0 0 -6.365234,8.14257 150,128.18568 0 0 0 -2.982422,3.9336 149.59,127.83531 0 0 0 -1.207031,1.99414 150,128.18568 0 0 0 -1.488282,2.10547 c 0.05419,0.0102 0.134581,0.0289 0.189453,0.0391 a 149.59,127.83531 0 0 0 -5.085937,9.02148 150,128.18568 0 0 0 -1.574219,3.32422 149.59,127.83531 0 0 0 -2.2792966,4.8086 c 0.083501,0.0419 0.2218897,0.1137 0.3066406,0.15625 A 150,128.18568 0 0 0 3.953125,186.0332 150,128.18568 0 0 0 1.0449219,200.15039 150,128.18568 0 0 0 0,214.45898 v 12.82227 14.18359 3.23633 V 262 c 0,20.09206 16.2888,36.38086 36.380859,36.38086 H 263.61914 C 283.7112,298.38086 300,282.09206 300,262 v -17.29883 -3.23633 -14.18359 -12.82227 a 150,128.18568 0 0 0 -1.53125,-18.20312 150,128.18568 0 0 0 -4.53906,-17.83594 150,128.18568 0 0 0 -7.45899,-17.10156 149.59,127.83531 0 0 0 -0.31054,-0.56445 150,128.18568 0 0 0 -3.35743,-5.82032 c 0.008,-0.001 0.0195,-0.002 0.0274,-0.004 a 150,128.18568 0 0 0 -0.24219,-0.34375 150,128.18568 0 0 0 -2.10351,-3.31446 149.59,127.83531 0 0 0 -0.4336,-0.72656 v -0.01 a 91.1,77.851439 0 0 0 -0.0644,0.008 150,128.18568 0 0 0 -6.52344,-8.86524 150,128.18568 0 0 0 -10.89062,-11.88671 150,128.18568 0 0 0 -0.51954,-0.51172 150,128.18568 0 0 0 -12.32226,-10.53321 150,128.18568 0 0 0 -0.62109,-0.46484 150,128.18568 0 0 0 -13.78126,-9.23242 150,128.18568 0 0 0 -0.1582,-0.0996 150,128.18568 0 0 0 -14.97656,-7.73633 150,128.18568 0 0 0 -0.94336,-0.42578 150,128.18568 0 0 0 -15.86328,-6.105469 150,128.18568 0 0 0 -0.51563,-0.160157 150,128.18568 0 0 0 -16.4375,-4.380859 150,128.18568 0 0 0 -0.88671,-0.197266 150,128.18568 0 0 0 -16.92579,-2.65039 150,128.18568 0 0 0 -1.19531,-0.117188 A 150,128.18568 0 0 0 150,86.273438 Z"/><path id="path9607" d="m 219.78869,68.758021 c 1.89335,7.236528 7.40717,22.75718 21.43169,31.401289 7.71853,4.75738 15.7228,6.21934 21.60616,-1.52613 4.64703,-6.117844 16.4887,-15.438157 23.04825,-17.072855 2.86101,8.852252 3.63245,18.717885 1.36874,28.338355 -2.95097,12.54123 -7.94717,24.09597 -15.4931,31.67899 -1.46705,-1.99938 -3.00138,-3.96213 -4.60106,-5.88578 -1.46095,-1.68166 -2.9721,-3.33104 -4.53197,-4.94651 -2.26778,-2.38461 -4.6397,-4.69549 -7.11073,-6.92774 -1.71116,-1.54072 -3.46889,-3.04318 -5.27143,-4.50582 -2.59101,-2.09332 -5.27246,-4.10332 -8.03879,-6.02583 -1.92328,-1.35879 -3.88775,-2.67445 -5.89137,-3.94563 -2.90299,-1.7949 -5.8832,-3.497 -8.93509,-5.10152 -2.07682,-1.13621 -4.1876,-2.22645 -6.3302,-3.26965 -3.20097,-1.48128 -6.46678,-2.85787 -9.79033,-4.12677 -0.11754,-0.0456 -0.23518,-0.0911 -0.35291,-0.13632 -0.48688,-10.092535 2.90175,-19.972968 8.89215,-27.948095 z" style="fill:#9f99a9;fill-opacity:1;fill-rule:evenodd;stroke-width:0.956065"/><path id="path9609" d="M 291.88326,83.157971 C 264.73323,84.723336 262.48939,97.80665 243.10336,97.4849 l -2.15092,-16.734777 c 21.6409,-5.389249 23.58,-15.52075 50.93082,2.407848 z" style="fill:#bcb6c3;fill-opacity:1;stroke-width:1.4803;stroke-linecap:round;stroke-linejoin:round;stop-color:#000000"/><path id="path9611" d="M 248.11731,135.12865 C 258.12627,108.295 231.97289,98.78898 219.66848,88.045124 l -8.07391,9.347606 c 19.87915,14.59808 33.14768,28.18299 36.52274,37.73592 z" style="fill:#9f99a9;fill-opacity:1;stroke-width:1.15136;stroke-linecap:round;stroke-linejoin:round;stop-color:#000000"/><path class="cls-4" id="path9613" d="m 271.71869,71.90818 a 23.707085,24.707363 43.040111 0 1 5.35172,0.395871 26.395908,27.509636 43.0401 0 1 9.85195,4.315362 27.07127,28.213493 43.04011 0 1 4.02779,3.514285 26.301231,27.410964 43.040114 0 1 1.72353,2.054046 18.695523,19.484348 43.040126 0 1 1.49012,2.313602 l 2.15115,3.084802 -4.10996,-0.675968 c -0.20952,-0.03142 -0.55496,-0.07443 -0.87764,-0.126978 -0.32267,-0.05255 -0.64036,-0.05118 -0.971,-0.09897 -0.33064,-0.04781 -0.64762,-0.03179 -0.99155,-0.05602 -0.34391,-0.02419 -0.66419,-0.03632 -1.00461,-0.02614 l -1.00648,0.0019 c -0.33956,0.03053 -0.67421,0.04177 -1.01022,0.05975 -0.65782,-0.01423 -1.35617,0.115144 -2.0335,0.169926 a 37.409983,38.988429 43.040117 0 0 -8.10041,2.033505 l -1.98496,0.773068 c -0.64658,0.250225 -1.29292,0.567041 -1.94574,0.862698 l -0.96913,0.433217 c -0.32819,0.154104 -0.64044,0.345688 -0.9598,0.515379 l -1.89719,1.043829 c -0.89945,0.514399 -1.80293,1.035174 -2.68707,1.598421 a 23.081973,23.201398 45.584945 0 1 7.7923,10.694105 33.275972,33.44814 45.584945 0 1 1.56481,14.10943 56.681222,56.974487 45.584945 0 1 -3.0904,13.76956 52.316983,52.587669 45.584945 0 1 -2.76363,6.49639 40.948412,41.160276 45.584945 0 1 -3.7477,6.05196 l -3.35743,5.91192 -1.62643,-7.05471 -1.30152,-5.7812 c -0.45273,-1.92114 -0.92684,-3.86757 -1.46397,-5.78868 a 101.29344,101.81753 45.584945 0 0 -3.39664,-10.30756 50.289004,38.922995 0 0 1 -1.24177,6.90532 46.416942,35.926073 0 0 1 -1.77021,4.6272 36.330459,28.119275 0 0 1 -2.68333,4.39939 l -2.35468,4.27428 -2.14555,-4.67761 -1.731,-3.83546 c -0.59307,-1.27332 -1.20749,-2.56291 -1.87478,-3.82986 a 89.870083,69.558205 0 0 0 -4.47222,-7.43751 c -0.87512,-1.19582 -1.79139,-2.35927 -2.7935,-3.49561 a 46.034516,35.630081 0 0 0 -3.24539,-3.26967 41.999923,32.507361 0 0 0 -3.78691,-2.96343 43.022912,33.29914 0 0 0 -4.37139,-2.5769 27.295648,21.126455 0 0 1 5.20421,1.52373 32.726095,25.329546 0 0 1 4.80646,2.39764 41.588815,32.189169 0 0 1 7.94356,6.41796 51.694419,40.010767 0 0 1 5.72331,7.70079 52.248937,40.439956 0 0 1 1.29219,2.5881 c 0.42126,-0.96246 0.83431,-1.92568 1.21562,-2.88687 a 54.610417,42.267709 0 0 0 2.3995,-8.6662 28.920958,22.384423 0 0 0 -0.099,-5.52725 51.885948,52.154402 45.584945 0 0 -2.04285,-3.27154 47.338519,47.583445 45.584945 0 0 -3.75516,-4.76725 48.491539,48.742432 45.584945 0 0 -4.47596,-4.28175 30.765187,30.924366 45.584945 0 1 4.57492,2.27066 20.478906,15.85039 0 0 1 5.13698,3.88401 36.885898,37.076743 45.584945 0 1 0.87017,0.77493 46.875155,47.117685 45.584945 0 1 7.84459,10.29637 58.265279,58.566741 45.584945 0 1 5.13698,11.88358 58.890281,59.194976 45.584945 0 1 1.01769,3.91763 c 0.6342,-1.34503 1.25765,-2.69274 1.84677,-4.04087 a 61.551927,61.870394 45.584945 0 0 4.14544,-12.27945 32.597091,32.765746 45.584945 0 0 0.41827,-12.7855 24.127235,24.252068 45.584945 0 0 -2.00176,-6.16587 26.153104,26.288418 45.584945 0 0 -3.43025,-5.148187 c -0.32744,0.21002 -0.65252,0.425631 -0.97287,0.649826 -1.21306,0.848946 -2.42036,1.705021 -3.67674,2.543281 h -0.002 c 0.97666,-1.12854 1.98258,-2.241728 3.01758,-3.342492 l 1.67129,-1.529382 0.87577,-0.75813 a 8.1358976,8.4791772 43.040093 0 1 0.8683,-0.731987 l 1.81503,-1.43223 c 0.30261,-0.227491 0.59854,-0.477118 0.92058,-0.679702 l 0.96727,-0.612478 c 0.64586,-0.411441 1.29037,-0.836907 1.94948,-1.224958 l 2.05217,-1.058768 a 29.135224,30.364533 43.040112 0 1 8.82306,-2.855122 21.756741,22.674728 43.040109 0 1 2.32294,-0.233415 l 1.17267,-0.05415 1.05877,0.03734 c -0.0763,-0.0798 -0.14945,-0.16172 -0.22594,-0.240881 a 41.739871,43.501009 43.040116 0 0 -3.5423,-3.226718 29.29302,30.528985 43.040116 0 0 -3.96617,-2.660923 24.792713,25.838797 43.040121 0 0 -4.43301,-1.848641 23.296818,24.279786 43.040108 0 0 -9.77912,-0.689038 24.085792,25.102049 43.040118 0 0 -2.50593,0.457492 c -0.84014,0.162345 -1.64795,0.420179 -2.48727,0.649825 -0.83931,0.229645 -1.63786,0.569979 -2.46485,0.849628 l -2.42751,1.006481 a 30.561689,31.851185 43.040103 0 1 9.65588,-4.447941 23.707085,24.707363 43.040111 0 1 5.35546,-0.808547 z" style="fill:#6a6376;fill-opacity:1;stroke-width:0.644357"/><path id="rect4994" style="fill:#b8b5be;fill-opacity:1;stroke:#b8b5be;stroke-width:1;stroke-linejoin:round;stroke-dasharray:none;stroke-opacity:1;paint-order:stroke fill markers;stop-color:#000000" class="UnoptimicedTransforms" d="m 104.91211,248.32031 c 0,0 -0.88653,27.99604 -9.056641,38.23242 -5.545053,6.94744 -43.447052,11.73594 -43.798402,11.82813 h 65.370663 z m 90.17578,0 -12.51562,50.06055 h 65.80416 c -0.35135,-0.0922 -38.68685,-4.88069 -44.2319,-11.82813 -8.17011,-10.23638 -9.05664,-38.23242 -9.05664,-38.23242 z" sodipodi:nodetypes="csccccccsc"/><path id="rect77087" style="fill:#cdcbd2;fill-opacity:1;stroke-width:2.07932;stroke-linecap:round;stroke-linejoin:round;stop-color:#000000" d="m 115.57124,214.98697 h 69.41775 c 0,0 32.23027,43.35016 22.66702,64.11609 -8.42884,18.30264 -36.65957,29.57446 -59.50093,29.31022 -21.82429,-0.2525 -48.267311,-11.70198 -55.959204,-29.31022 -9.158429,-20.96542 23.375364,-64.11609 23.375364,-64.11609 z" sodipodi:nodetypes="ccaaac"/><path id="path78295" style="fill:#a8a2b1;fill-opacity:0.621262;stroke-width:2.47;stroke-linecap:round;stroke-linejoin:round;stop-color:#000000" d="m 147.26868,178.32985 h 5.46263 c 35.65647,6.85691 34.17776,39.40014 38.46756,68.68748 2.67215,18.24333 -20.02958,33.28157 -38.46756,33.28157 h -5.46263 c -18.43798,0 -41.13971,-15.03824 -38.46755,-33.28157 2.51117,-27.7413 10.79732,-67.83748 38.46755,-68.68748 z" sodipodi:nodetypes="cccsscc"/><path d="m 177.83369,282.50246 c 0,11.67838 -22.92081,11.15815 -27.16278,-1.39498 C 150.23834,279.82741 150,267.72945 150,266.19929 c 0,1.49402 -0.22706,13.56166 -0.64018,14.81716 -4.16064,12.64532 -27.19351,13.1877 -27.19351,1.48601" stroke="#414042" stroke-width="5.00618" id="path62641" style="fill:none;stroke:#1f1e21;stroke-linecap:round;stroke-miterlimit:10;stroke-opacity:1" sodipodi:nodetypes="cscsc"/><path id="circle69376" style="fill:#cdcbd2;fill-opacity:1;stroke-width:1.29543" d="m 96.697467,203.20138 c -11.574402,29.49426 -17.399887,57.36903 -38.863735,57.36903 -21.463848,0 -38.213759,-25.69166 -38.863735,-57.36903 -0.741386,-36.13236 42.598369,-69.46071 65.414809,-60.58734 22.558004,8.77286 23.492844,32.09764 12.312661,60.58734 z" sodipodi:nodetypes="sssss"/><path id="rect74714" style="fill:#3b3841;fill-opacity:1;stroke-width:2.47;stroke-linecap:round;stroke-linejoin:round;stop-color:#000000" d="m 147.26868,168.32985 h 5.46263 c 35.65647,6.85691 34.17776,39.40014 38.46756,68.68748 2.67215,18.24333 -20.02958,33.28157 -38.46756,33.28157 h -5.46263 c -18.43798,0 -41.13971,-15.03824 -38.46755,-33.28157 2.51117,-27.7413 10.79732,-67.83748 38.46755,-68.68748 z" sodipodi:nodetypes="cccsscc"/><path id="path74717" style="opacity:0.594104;fill:#0b0b0b;fill-opacity:1;fill-rule:evenodd;stroke-width:0.774453" class="UnoptimicedTransforms" d="M 130.8973 240.5834 C 126.01254 240.5105 120.23635 242.72093 119.82175 246.83253 C 119.37212 251.29148 126.98769 252.44112 131.18094 254.02263 C 134.98043 255.45564 140.91791 259.27689 143.21321 255.92708 C 146.42424 251.24085 140.00895 243.0887 134.65443 241.1912 C 133.5638 240.80472 132.26503 240.60381 130.8973 240.5834 z M 174.61418 240.5834 C 173.24645 240.60381 171.94768 240.80472 170.85705 241.1912 C 165.50253 243.0887 159.08724 251.24085 162.29827 255.92708 C 164.59357 259.27689 170.53105 255.45564 174.33054 254.02263 C 178.52379 252.44112 186.13936 251.29148 185.68973 246.83253 C 185.27513 242.72093 179.49894 240.5105 174.61418 240.5834 z " transform="matrix(0.867621,0,0,0.867621,17.465912,36.952291)"/><path id="rect76225" style="opacity:0.596372;fill:#201d21;stroke-width:1.82596;stroke-linecap:round;stroke-linejoin:round;stop-color:#000000;fill-opacity:1" d="m 178.8677,223.73919 c -18.89254,14.94679 -37.94301,15.93269 -57.19358,0.93696 -5.76993,-4.49464 -10.61416,-3.08522 -11.67497,4.15848 l -1.19837,8.18295 c -2.67216,18.24331 20.03079,33.28125 38.46875,33.28125 h 5.46094 c 18.43796,0 41.1409,-15.03794 38.46875,-33.28125 l -1.37002,-9.35277 c -0.99298,-6.77885 -5.59232,-8.17343 -10.9615,-3.92562 z" inkscape:path-effect="#path-effect77033" inkscape:original-d="m 188.03125,215.39062 c -25.06986,25.8305 -50.40719,27.52633 -76.11133,0.32813 l -3.11914,21.29883 c -2.67216,18.24331 20.03079,33.28125 38.46875,33.28125 h 5.46094 c 18.43796,0 41.1409,-15.03794 38.46875,-33.28125 z"/><path id="path78725" d="m 203.30253,203.20138 c 11.5744,29.49426 17.39989,57.36903 38.86374,57.36903 21.46385,0 38.21376,-25.69166 38.86373,-57.36903 0.74139,-36.13236 -42.59837,-69.46071 -65.41481,-60.58734 -22.558,8.77286 -23.49284,32.09764 -12.31266,60.58734 z" style="fill:#cdcbd2;fill-opacity:1;stroke-width:1.29543"/><path id="path7922" style="fill:#9f99a9;fill-opacity:1;fill-rule:evenodd;stroke-width:0.956065" d="m 80.211312,68.758021 c -1.893349,7.236528 -7.40717,22.75718 -21.431691,31.401289 -7.718536,4.75738 -15.722797,6.21934 -21.60616,-1.52613 -4.64703,-6.117844 -16.488703,-15.438157 -23.048256,-17.072855 -2.861009,8.852252 -3.632449,18.717885 -1.36874,28.338355 2.950973,12.54123 7.947178,24.09597 15.493104,31.67899 1.467051,-1.99938 3.001378,-3.96213 4.60106,-5.88578 1.46095,-1.68166 2.972101,-3.33104 4.531972,-4.94651 2.267776,-2.38461 4.639699,-4.69549 7.110732,-6.92774 1.711152,-1.54072 3.468885,-3.04318 5.271426,-4.50582 2.591007,-2.09332 5.272464,-4.10332 8.038788,-6.02583 1.923287,-1.35879 3.887749,-2.67445 5.891373,-3.94563 2.90299,-1.7949 5.883196,-3.497 8.935094,-5.10152 2.07682,-1.13621 4.187592,-2.22645 6.3302,-3.26965 3.200968,-1.48128 6.466775,-2.85787 9.790322,-4.12677 0.117547,-0.0456 0.235185,-0.0911 0.352916,-0.13632 0.486874,-10.092535 -2.901757,-19.972968 -8.89215,-27.948095 z" sodipodi:nodetypes="csscsccccccccccccc"/><path id="rect4764" style="fill:#bcb6c3;fill-opacity:1;stroke-width:1.4803;stroke-linecap:round;stroke-linejoin:round;stop-color:#000000" d="M 8.1167369,83.157971 C 35.26677,84.723336 37.510607,97.80665 56.896635,97.4849 L 59.047557,80.750123 C 37.406663,75.360874 35.467563,65.229373 8.1167369,83.157971 Z" sodipodi:nodetypes="cccc"/><path id="path4775" style="fill:#9f99a9;fill-opacity:1;stroke-width:1.15136;stroke-linecap:round;stroke-linejoin:round;stop-color:#000000" d="M 51.882694,135.12865 C 41.873728,108.295 68.027109,98.78898 80.331517,88.045124 l 8.073916,9.347606 C 68.52628,111.99081 55.257748,125.57572 51.882694,135.12865 Z" sodipodi:nodetypes="cccc"/><path id="path6679" style="fill:#6a6376;fill-opacity:1;stroke-width:0.644357" class="cls-4" d="m 28.281312,71.90818 a 24.707363,23.707085 46.959889 0 0 -5.351721,0.395871 27.509636,26.395908 46.9599 0 0 -9.851949,4.315362 28.213493,27.07127 46.95989 0 0 -4.0277957,3.514285 27.410964,26.301231 46.959886 0 0 -1.7235307,2.054046 19.484348,18.695523 46.959874 0 0 -1.4901165,2.313602 L 3.6850535,87.586148 7.7950114,86.91018 c 0.2095214,-0.03142 0.5549603,-0.07443 0.8776375,-0.126978 0.3226725,-0.05255 0.6403639,-0.05118 0.9710032,-0.09897 0.3306394,-0.04781 0.6476179,-0.03179 0.9915439,-0.05602 0.343919,-0.02419 0.664193,-0.03632 1.004615,-0.02614 l 1.006482,0.0019 c 0.339556,0.03053 0.674204,0.04177 1.010217,0.05975 0.657815,-0.01423 1.356169,0.115144 2.033504,0.169926 a 38.988429,37.409983 46.959883 0 1 8.100409,2.033505 l 1.984954,0.773068 c 0.646587,0.250225 1.292927,0.567041 1.945741,0.862698 l 0.969136,0.433217 c 0.328185,0.154104 0.64044,0.345688 0.959799,0.515379 l 1.897191,1.043829 c 0.899441,0.514399 1.802926,1.035174 2.687065,1.598421 a 23.201398,23.081973 44.415055 0 0 -7.792301,10.694105 33.44814,33.275972 44.415055 0 0 -1.564809,14.10943 56.974487,56.681222 44.415055 0 0 3.090404,13.76956 52.587669,52.316983 44.415055 0 0 2.763625,6.49639 41.160276,40.948412 44.415055 0 0 3.747699,6.05196 l 3.357431,5.91192 1.62643,-7.05471 1.301518,-5.7812 c 0.452738,-1.92114 0.926847,-3.86757 1.463974,-5.78868 a 101.81753,101.29344 44.415055 0 1 3.396643,-10.30756 50.289004,38.922995 0 0 0 1.241764,6.90532 46.416942,35.926073 0 0 0 1.770214,4.6272 36.330459,28.119275 0 0 0 2.683331,4.39939 l 2.354682,4.27428 2.145544,-4.67761 1.731,-3.83546 c 0.593072,-1.27332 1.207493,-2.56291 1.874783,-3.82986 a 89.870083,69.558205 0 0 1 4.472217,-7.43751 c 0.875123,-1.19582 1.791395,-2.35927 2.793501,-3.49561 a 46.034516,35.630081 0 0 1 3.245392,-3.26967 41.999923,32.507361 0 0 1 3.786912,-2.96343 43.022912,33.29914 0 0 1 4.371382,-2.5769 27.295648,21.126455 0 0 0 -5.204203,1.52373 32.726095,25.329546 0 0 0 -4.806466,2.39764 41.588815,32.189169 0 0 0 -7.943554,6.41796 51.694419,40.010767 0 0 0 -5.723317,7.70079 52.248937,40.439956 0 0 0 -1.292182,2.5881 c -0.421261,-0.96246 -0.834311,-1.92568 -1.215621,-2.88687 a 54.610417,42.267709 0 0 1 -2.399498,-8.6662 28.920958,22.384423 0 0 1 0.09897,-5.52725 52.154402,51.885948 44.415055 0 1 2.042841,-3.27154 47.583445,47.338519 44.415055 0 1 3.755168,-4.76725 48.742432,48.491539 44.415055 0 1 4.475952,-4.28175 30.924366,30.765187 44.415055 0 0 -4.57492,2.27066 20.478906,15.85039 0 0 0 -5.13698,3.88401 37.076743,36.885898 44.415055 0 0 -0.870169,0.77493 47.117685,46.875155 44.415055 0 0 -7.844585,10.29637 58.566741,58.265279 44.415055 0 0 -5.136981,11.88358 59.194976,58.890281 44.415055 0 0 -1.017686,3.91763 c -0.634202,-1.34503 -1.257659,-2.69274 -1.846773,-4.04087 a 61.870394,61.551927 44.415055 0 1 -4.145437,-12.27945 32.765746,32.597091 44.415055 0 1 -0.418278,-12.7855 24.252068,24.127235 44.415055 0 1 2.00176,-6.16587 26.288418,26.153104 44.415055 0 1 3.430256,-5.148187 c 0.327436,0.21002 0.652521,0.425631 0.972871,0.649826 1.21306,0.848946 2.420354,1.705021 3.676741,2.543281 h 0.0019 c -0.976665,-1.12854 -1.982585,-2.241728 -3.01758,-3.342492 l -1.671291,-1.529382 -0.875769,-0.75813 a 8.4791772,8.1358976 46.959907 0 0 -0.868302,-0.731987 l -1.815029,-1.43223 c -0.302617,-0.227491 -0.598545,-0.477118 -0.920586,-0.679702 l -0.967268,-0.612478 c -0.645857,-0.411441 -1.290372,-0.836907 -1.949476,-1.224958 l -2.052177,-1.058768 a 30.364533,29.135224 46.959888 0 0 -8.823059,-2.855122 22.674728,21.756741 46.959891 0 0 -2.322938,-0.233415 l -1.172673,-0.05415 -1.058767,0.03734 c 0.07626,-0.0798 0.149448,-0.16172 0.225945,-0.240881 a 43.501009,41.739871 46.959884 0 1 3.542294,-3.226718 30.528985,29.29302 46.959884 0 1 3.966175,-2.660923 25.838797,24.792713 46.959879 0 1 4.433003,-1.848641 24.279786,23.296818 46.959892 0 1 9.779122,-0.689038 25.102049,24.085792 46.959882 0 1 2.505936,0.457492 c 0.840134,0.162345 1.647948,0.420179 2.487263,0.649825 0.839315,0.229645 1.637868,0.569979 2.464854,0.849628 l 2.427508,1.006481 A 31.851185,30.561689 46.959897 0 0 33.636759,72.7167 24.707363,23.707085 46.959889 0 0 28.281302,71.908153 Z"/><path id="rect11864" style="fill:#827b8b;fill-opacity:1;stroke-width:2.1913;stroke-linecap:round;stop-color:#000000" d="m 141.58008,70.513672 c -1.91689,0.0011 -3.89626,0.08851 -5.9375,0.261719 -7.31822,0.620999 -7.41006,4.170848 -1.45117,8.453125 0.86551,0.621993 1.61359,1.230708 2.2832,1.830078 -4.17324,-1.594702 -9.26193,-2.03165 -15.19141,-1.265625 -3.06583,0.396072 -3.16823,1.948443 -0.51953,3.541015 6.20777,3.732508 6.02424,6.721761 4.54102,9.560547 h 14.32812 c -0.14998,0.331364 -0.30764,0.661509 -0.48047,0.990235 h 39.4375 C 172.77999,78.503403 160.11003,70.503304 141.58008,70.513672 Z"/><circle cx="244.58" cy="220.9021" r="36.450001" id="circle62619" style="fill:#ffffff"/><path id="path78723" d="m 206.91169,228.92499 a 38.863735,38.863735 0 0 0 38.86373,38.86373 38.863735,38.863735 0 0 0 38.86374,-38.86373 38.863735,38.863735 0 0 0 -38.86374,-38.86374 38.863735,38.863735 0 0 0 -38.86373,38.86374 z" style="fill:#cdcbd2;fill-opacity:1;stroke-width:1.06622"/><path id="path78727" d="M 205.71627,214.9021 A 38.863735,38.863735 0 0 0 244.58,253.76583 38.863735,38.863735 0 0 0 283.44374,214.9021 38.863735,38.863735 0 0 0 244.58,176.03836 38.863735,38.863735 0 0 0 205.71627,214.9021 Z" style="fill:#655d6e;fill-opacity:1;stroke-width:1.06622"/><path id="path78729" d="M 205.71627,220.9021 A 38.863735,38.863735 0 0 0 244.58,259.76583 38.863735,38.863735 0 0 0 283.44374,220.9021 38.863735,38.863735 0 0 0 244.58,182.03836 38.863735,38.863735 0 0 0 205.71627,220.9021 Z" style="fill:#ffffff;fill-opacity:1;stroke-width:1.06622"/><circle cx="54.224575" cy="228.92499" r="38.863735" id="circle68084" style="fill:#cdcbd2;fill-opacity:1;stroke-width:1.06622"/><circle cx="55.419998" cy="214.9021" r="38.863735" id="circle70730" style="fill:#766f7e;fill-opacity:1;stroke-width:1.06622"/><circle cx="55.419998" cy="220.9021" r="38.863735" id="circle64330" style="fill:#ffffff;fill-opacity:1;stroke-width:1.06622"/><path transform="matrix(-1.0737475,0,0,1.0737475,315.85648,-15.678224)" id="path1890" d="m 208.74439,218.85942 a 31.330471,31.330471 0 1 0 31.33047,-31.33048 32.578871,32.578871 0 0 0 -4.38035,0.30662 18.058003,18.058003 0 0 1 -26.22737,24.47522 31.483783,31.483783 0 0 0 -0.72275,6.54864 z m 37.03587,12.9987 a 7.45755,7.45755 0 1 1 7.44661,7.45755 7.4356482,7.4356482 0 0 1 -7.44661,-7.45755 z" style="fill:#2b292f;fill-opacity:1;stroke-width:1.09509" class="UnoptimicedTransforms"/><path style="fill:#2b292f;fill-opacity:1;stroke-width:1.09509" transform="matrix(-1.0737475,0,0,1.0737475,499.70308,-15.678224)" d="m 208.74439,218.85942 a 31.330471,31.330471 0 1 0 31.33047,-31.33048 32.578871,32.578871 0 0 0 -4.38035,0.30662 18.058003,18.058003 0 0 1 -26.22737,24.47522 31.483783,31.483783 0 0 0 -0.72275,6.54864 z m 37.03587,12.9987 a 7.45755,7.45755 0 1 1 7.44661,7.45755 7.4356482,7.4356482 0 0 1 -7.44661,-7.45755 z" id="path1892" class="UnoptimicedTransforms" sodipodi:insensitive="true"/></svg>