<?xml version="1.0" encoding="UTF-8" standalone="no"?>
<svg id="Layer_1" data-name="Layer 1" viewBox="0 0 300 345" version="1.1" sodipodi:docname="kookaburra.svg" xml:space="preserve" inkscape:version="1.2 (dc2aedaf03, 2022-05-15)" xmlns:inkscape="http://www.inkscape.org/namespaces/inkscape" xmlns:sodipodi="http://sodipodi.sourceforge.net/DTD/sodipodi-0.dtd" xmlns="http://www.w3.org/2000/svg" xmlns:svg="http://www.w3.org/2000/svg"><sodipodi:namedview id="namedview16928" pagecolor="#505050" bordercolor="#ffffff" borderopacity="1" inkscape:showpageshadow="0" inkscape:pageopacity="0" inkscape:pagecheckerboard="1" inkscape:deskcolor="#505050" showgrid="false" inkscape:zoom="3.2748441" inkscape:cx="5.6491238" inkscape:cy="100.76815" inkscape:window-width="1366" inkscape:window-height="705" inkscape:window-x="-8" inkscape:window-y="-8" inkscape:window-maximized="1" inkscape:current-layer="Layer_1"/><defs id="defs16836"><inkscape:path-effect effect="mirror_symmetry" start_point="269.38281,176.83984" end_point="269.38281,229.07617" center_point="269.38281,202.95801" id="path-effect40878" is_visible="true" lpeversion="1.2" lpesatellites="#path40880" mode="vertical" discard_orig_path="false" fuse_paths="false" oposite_fuse="false" split_items="true" split_open="false" link_styles="false"/><inkscape:path-effect effect="fillet_chamfer" id="path-effect37198" is_visible="true" lpeversion="1" nodesatellites_param="F,0,0,1,0,18,0,1 @ F,0,0,1,0,18,0,1" unit="px" method="auto" mode="F" radius="18" chamfer_steps="1" flexible="false" use_knot_distance="true" apply_no_radius="true" apply_with_radius="true" only_selected="false" hide_knots="false"/><inkscape:path-effect effect="mirror_symmetry" start_point="266.71801,70.784677" end_point="266.71801,166.38634" center_point="266.71801,118.58551" id="path-effect32203" is_visible="true" lpeversion="1.2" lpesatellites="#g32211" mode="vertical" discard_orig_path="false" fuse_paths="false" oposite_fuse="false" split_items="true" split_open="false" link_styles="false"/><inkscape:path-effect effect="mirror_symmetry" start_point="38.004895,53.829705" end_point="38.004895,85.120335" center_point="38.004895,69.47502" id="path-effect30983" is_visible="true" lpeversion="1.2" lpesatellites="#g40875" mode="vertical" discard_orig_path="false" fuse_paths="false" oposite_fuse="false" split_items="true" split_open="false" link_styles="false"/><inkscape:path-effect effect="mirror_symmetry" start_point="93.586769,31.983696" end_point="93.586769,66.172552" center_point="93.586769,49.078124" id="path-effect29953" is_visible="true" lpeversion="1.2" lpesatellites="" mode="vertical" discard_orig_path="false" fuse_paths="false" oposite_fuse="false" split_items="true" split_open="false" link_styles="false"/><inkscape:path-effect effect="fillet_chamfer" id="path-effect27822" is_visible="true" lpeversion="1" nodesatellites_param="F,0,0,1,0,0,0,1 @ F,0,0,1,0,9.5483971,0,1 @ F,0,0,1,0,0,0,1 @ F,0,0,1,0,0,0,1 @ F,0,0,1,0,10.296924,0,1 @ F,0,1,1,0,10.296924,0,1" unit="px" method="auto" mode="F" radius="0" chamfer_steps="1" flexible="false" use_knot_distance="true" apply_no_radius="true" apply_with_radius="true" only_selected="false" hide_knots="false"/><inkscape:path-effect effect="fillet_chamfer" id="path-effect27820" is_visible="true" lpeversion="1" nodesatellites_param="F,0,0,1,0,0,0,1 @ F,0,0,1,0,13.415912,0,1 @ F,0,0,1,0,0,0,1 @ F,0,0,1,0,8.4056075,0,1 @ F,0,0,1,0,0,0,1 @ F,0,0,1,0,10.886696,0,1 @ F,0,0,1,0,0,0,1" unit="px" method="auto" mode="F" radius="0" chamfer_steps="1" flexible="false" use_knot_distance="true" apply_no_radius="true" apply_with_radius="true" only_selected="false" hide_knots="false"/><inkscape:path-effect effect="fillet_chamfer" id="path-effect24791" is_visible="true" lpeversion="1" nodesatellites_param="F,0,0,1,0,0,0,1 @ F,0,0,1,0,24.488472,0,1 @ F,0,0,1,0,0,0,1 @ F,0,0,1,0,13.266953,0,1 @ F,0,0,1,0,27.409529,0,1 @ F,0,0,1,0,16.151716,0,1" unit="px" method="auto" mode="F" radius="0" chamfer_steps="1" flexible="false" use_knot_distance="true" apply_no_radius="true" apply_with_radius="true" only_selected="false" hide_knots="false"/><linearGradient id="linear-gradient" x1="150" y1="356.11" x2="150" y2="161.16" gradientUnits="userSpaceOnUse"><stop offset="0" stop-color="#ead9bb" id="stop16823"/><stop offset="0.69" stop-color="#9e712c" id="stop16825"/></linearGradient><clipPath clipPathUnits="userSpaceOnUse" id="clipPath25304"><path d="M 263.62,45 H 36.38 A 36.38,36.38 0 0 0 0,81.38 V 308.62 A 36.38,36.38 0 0 0 36.38,345 H 263.62 A 36.38,36.38 0 0 0 300,308.62 V 81.38 A 36.38,36.38 0 0 0 263.62,45 Z" fill="none" id="path25306"/></clipPath><clipPath clipPathUnits="userSpaceOnUse" id="clipPath25308"><path d="M 263.62,45 H 36.38 A 36.38,36.38 0 0 0 0,81.38 V 308.62 A 36.38,36.38 0 0 0 36.38,345 H 263.62 A 36.38,36.38 0 0 0 300,308.62 V 81.38 A 36.38,36.38 0 0 0 263.62,45 Z" fill="none" id="path25310"/></clipPath><clipPath clipPathUnits="userSpaceOnUse" id="clipPath25312"><path d="M 263.62,45 H 36.38 A 36.38,36.38 0 0 0 0,81.38 V 308.62 A 36.38,36.38 0 0 0 36.38,345 H 263.62 A 36.38,36.38 0 0 0 300,308.62 V 81.38 A 36.38,36.38 0 0 0 263.62,45 Z" fill="none" id="path25314"/></clipPath><clipPath clipPathUnits="userSpaceOnUse" id="clipPath25316"><path d="M 263.62,45 H 36.38 A 36.38,36.38 0 0 0 0,81.38 V 308.62 A 36.38,36.38 0 0 0 36.38,345 H 263.62 A 36.38,36.38 0 0 0 300,308.62 V 81.38 A 36.38,36.38 0 0 0 263.62,45 Z" fill="none" id="path25318"/></clipPath><clipPath clipPathUnits="userSpaceOnUse" id="clipPath25320"><path d="M 263.62,45 H 36.38 A 36.38,36.38 0 0 0 0,81.38 V 308.62 A 36.38,36.38 0 0 0 36.38,345 H 263.62 A 36.38,36.38 0 0 0 300,308.62 V 81.38 A 36.38,36.38 0 0 0 263.62,45 Z" fill="none" id="path25322"/></clipPath><clipPath clipPathUnits="userSpaceOnUse" id="clipPath25324"><path d="M 263.62,45 H 36.38 A 36.38,36.38 0 0 0 0,81.38 V 308.62 A 36.38,36.38 0 0 0 36.38,345 H 263.62 A 36.38,36.38 0 0 0 300,308.62 V 81.38 A 36.38,36.38 0 0 0 263.62,45 Z" fill="none" id="path25326"/></clipPath><clipPath clipPathUnits="userSpaceOnUse" id="clipPath25328"><path d="M 263.62,45 H 36.38 A 36.38,36.38 0 0 0 0,81.38 V 308.62 A 36.38,36.38 0 0 0 36.38,345 H 263.62 A 36.38,36.38 0 0 0 300,308.62 V 81.38 A 36.38,36.38 0 0 0 263.62,45 Z" fill="none" id="path25330"/></clipPath><clipPath clipPathUnits="userSpaceOnUse" id="clipPath25332"><path d="M 263.62,45 H 36.38 A 36.38,36.38 0 0 0 0,81.38 V 308.62 A 36.38,36.38 0 0 0 36.38,345 H 263.62 A 36.38,36.38 0 0 0 300,308.62 V 81.38 A 36.38,36.38 0 0 0 263.62,45 Z" fill="none" id="path25334"/></clipPath></defs><ellipse style="fill:#7d5f4f;fill-rule:evenodd;stroke-width:3.89300041;fill-opacity:1;stroke:#5f453c;stroke-opacity:1;stroke-dasharray:none" id="path27939" cx="150" cy="66.484337" rx="81.386009" ry="34.388454"/><path d="M 263.62,345 H 36.38 A 36.38,36.38 0 0 1 0,308.62 v -49.48 h 300 v 49.48 A 36.38,36.38 0 0 1 263.62,345 Z" fill="url(#linear-gradient)" id="path16838" style="fill:url(#linear-gradient)"/><rect y="45" width="300" height="253.39" rx="85.24192" fill="#ead9bb" id="rect16840" x="0"/><path d="m 115.02967,296.64066 c 0,0 -4.95309,4.41431 -13.74165,8.43624 -6.727325,3.07864 -11.619891,-1.50476 -10.351629,-8.80482 L 92,290.15 c 0,0 -4.615848,10.89439 -13.202495,16.39084 -3.877755,2.48221 -9.851048,-0.44032 -10.181554,-5.02509 C 68.188679,295.58867 70,290.15 70,290.15 c -4.485838,4.26445 -9.639645,7.72282 -15.232556,10.25203 -5.469485,2.47339 -12.064217,-1.06469 -14.243643,-6.66834 L 39.13,290.15" fill="#ead9bb" stroke="#7c6041" stroke-miterlimit="10" stroke-width="2" id="path16850" inkscape:path-effect="#path-effect27820" inkscape:original-d="m 115.02967,296.64066 c 0,0 -9.83967,8.76934 -26.38967,12.84934 L 92,290.15 c 0,0 -7.44,17.56 -21,19.34 -4.85,-7.78 -1,-19.34 -1,-19.34 -7.129121,6.77728 -15.945342,11.51863 -25.53,13.73 l -5.34,-13.73" sodipodi:nodetypes="ccccccc"/><path d="m 82.52,274.52 c 0,0 -1.939336,3.58367 -15.299336,6.33367 C 65.199007,273.5906 59.281195,272.74635 62.35,265.86" fill="#ead9bb" id="path16852" sodipodi:nodetypes="ccc"/><path d="m 82.52,274.52 c -3.460607,4.8269 -8.154255,8.74957 -13.48318,11.36712 -4.718938,2.31793 -10.415582,-1.14378 -10.35753,-6.39825 0.0212,-1.9194 0.231781,-3.83574 0.658653,-5.71799 0.605554,-2.77326 1.548881,-5.49621 3.012057,-7.94088 -1.277244,3.54174 -1.886435,7.45758 -1.953669,11.3085 -0.099,5.6703 4.546451,7.05562 9.709407,5.08147 C 73.727774,280.83503 79.1336,277.60606 82.52,274.52 Z" fill="#7c6041" id="path16854" inkscape:path-effect="#path-effect27822" inkscape:original-d="m 82.52,274.52 c -5.315971,7.41478 -13.541576,12.69584 -22.51,14.39 -1.413706,-4.89916 -1.805931,-10.13942 -0.672057,-15.13912 0.605554,-2.77326 1.548881,-5.49621 3.012057,-7.94088 -2.463235,6.83044 -2.441766,15.05228 -0.840066,21.51648 -1.1342,-0.73076 10.058908,-6.88862 15.44399,-6.67537 7.139022,-2.16767 0.09643,-1.16662 5.566076,-6.15111 z" sodipodi:nodetypes="ccccccc"/><g id="g30981" inkscape:path-effect="#path-effect30983" class="UnoptimicedTransforms"><path id="rect30797" style="opacity:1;fill:#ead9bb;stroke-width:1.1;stroke-linecap:round;paint-order:stroke fill markers;stop-color:#000000" d="m 13.114366,58.88082 c 2.431516,-3.177548 7.476051,-2.435569 14.184925,0.80292 L 38.004895,72.262825 24.087609,83.771349 Z" sodipodi:nodetypes="ccccc" inkscape:original-d="m 13.114366,58.88082 c 2.431516,-3.177548 7.476051,-2.435569 14.184925,0.80292 L 38.004895,72.262825 24.087609,83.771349 Z"/><path d="m 31.495221,65.153961 c -3.164757,0 -6.142296,-4.532932 -8.84386,-5.731777 -1.19355,-0.521861 -2.389842,-0.783051 -3.547619,-0.774561 -0.967228,0.0012 -1.829452,0.480144 -2.45765,1.365204 -0.528298,0.933445 -0.719219,2.246173 -0.529769,3.642565 0.198449,1.803921 0.563628,3.620041 1.085075,5.396327 1.172155,3.958585 3.826331,5.458408 5.279324,9.296782 -2.446545,-3.065339 -5.895747,-4.292815 -7.54252,-8.278284 -0.897135,-2.136273 -1.552484,-4.408036 -1.932894,-6.70036 -0.206781,-1.301897 -0.253928,-2.59043 -0.139073,-3.800887 0.127984,-1.318406 0.49165,-2.484307 1.057945,-3.391742 1.080027,-1.664162 2.657162,-2.494116 4.420488,-2.326242 1.546913,0.14071 3.137139,0.758666 4.671532,1.815339 2.820103,1.911577 12.579485,9.487636 8.479023,9.487636 z" fill="#0a6961" id="path29059" style="fill:#7c6041;fill-opacity:1;stroke-width:1.01296" sodipodi:nodetypes="sccccccccccccss" inkscape:original-d="m 31.495221,65.153961 c -3.164757,0 -6.142296,-4.532932 -8.84386,-5.731777 -1.19355,-0.521861 -2.389842,-0.783051 -3.547619,-0.774561 -0.967228,0.0012 -1.829452,0.480144 -2.45765,1.365204 -0.528298,0.933445 -0.719219,2.246173 -0.529769,3.642565 0.198449,1.803921 0.563628,3.620041 1.085075,5.396327 1.172155,3.958585 3.826331,5.458408 5.279324,9.296782 -2.446545,-3.065339 -5.895747,-4.292815 -7.54252,-8.278284 -0.897135,-2.136273 -1.552484,-4.408036 -1.932894,-6.70036 -0.206781,-1.301897 -0.253928,-2.59043 -0.139073,-3.800887 0.127984,-1.318406 0.49165,-2.484307 1.057945,-3.391742 1.080027,-1.664162 2.657162,-2.494116 4.420488,-2.326242 1.546913,0.14071 3.137139,0.758666 4.671532,1.815339 2.820103,1.911577 12.579485,9.487636 8.479023,9.487636 z"/><path id="path30973" style="opacity:1;fill:#ead9bb;stroke-width:0.807931;stroke-linecap:round;paint-order:stroke fill markers;stop-color:#000000" d="m 6.9429307,72.612933 c 0.508862,-2.894372 4.0480003,-4.11888 9.5172473,-4.279783 l 11.236998,4.57374 -5.174072,12.213445 z" sodipodi:nodetypes="ccccc" inkscape:original-d="m 6.9429307,72.612933 c 0.508862,-2.894372 4.0480003,-4.11888 9.5172473,-4.279783 l 11.236998,4.57374 -5.174072,12.213445 z"/><path d="m 21.04723,70.477732 c -2.062708,1.071607 -5.538273,-0.874629 -7.705019,-0.741239 -0.954631,0.06401 -1.822784,0.298843 -2.574519,0.696407 -0.630008,0.328293 -1.0298103,0.932411 -1.1395673,1.721981 -0.02826,0.787281 0.2918,1.707531 0.8881063,2.553515 0.740164,1.108553 1.593127,2.168602 2.534455,3.149775 2.104384,2.183205 4.342157,2.262031 6.588879,4.271792 -2.632539,-1.169494 -5.296272,-0.80161 -7.719102,-2.841628 -1.308085,-1.088593 -2.5044593,-2.347365 -3.5285963,-3.712634 -0.575605,-0.778526 -1.04264,-1.602394 -1.377649,-2.43023 -0.363006,-0.902639 -0.520758,-1.785683 -0.458924,-2.568878 0.140438,-1.450363 0.887347,-2.525333 2.09348,-3.012991 1.055885,-0.432084 2.3015973,-0.567776 3.6594723,-0.398618 2.485343,0.291011 11.411562,1.924304 8.738985,3.312747 z" fill="#0a6961" id="path30975" style="fill:#7c6041;fill-opacity:1;stroke-width:0.744001" sodipodi:nodetypes="sccccccccccccss" inkscape:original-d="m 21.04723,70.477732 c -2.062708,1.071607 -5.538273,-0.874629 -7.705019,-0.741239 -0.954631,0.06401 -1.822784,0.298843 -2.574519,0.696407 -0.630008,0.328293 -1.0298103,0.932411 -1.1395673,1.721981 -0.02826,0.787281 0.2918,1.707531 0.8881063,2.553515 0.740164,1.108553 1.593127,2.168602 2.534455,3.149775 2.104384,2.183205 4.342157,2.262031 6.588879,4.271792 -2.632539,-1.169494 -5.296272,-0.80161 -7.719102,-2.841628 -1.308085,-1.088593 -2.5044593,-2.347365 -3.5285963,-3.712634 -0.575605,-0.778526 -1.04264,-1.602394 -1.377649,-2.43023 -0.363006,-0.902639 -0.520758,-1.785683 -0.458924,-2.568878 0.140438,-1.450363 0.887347,-2.525333 2.09348,-3.012991 1.055885,-0.432084 2.3015973,-0.567776 3.6594723,-0.398618 2.485343,0.291011 11.411562,1.924304 8.738985,3.312747 z"/></g><path id="path40867" d="m 286.88563,58.88082 c -2.43151,-3.177548 -7.47605,-2.435569 -14.18492,0.80292 l -10.7056,12.579085 13.91728,11.508524 z" style="fill:#ead9bb;stroke-width:1.1;stroke-linecap:round;paint-order:stroke fill markers;stop-color:#000000"/><path id="path30985" d="m 286.88563,58.88082 c -2.43151,-3.177548 -7.47605,-2.435569 -14.18492,0.80292 l -10.7056,12.579085 13.91728,11.508524 z" style="fill:#ead9bb;stroke-width:1.1;stroke-linecap:round;paint-order:stroke fill markers;stop-color:#000000"/><rect style="opacity:1;fill:#7d5f4f;fill-opacity:1;stroke:none;stroke-width:1.18584;stroke-linecap:round;stroke-dasharray:none;stroke-opacity:1;paint-order:stroke fill markers;stop-color:#000000" id="rect35653" width="175.97316" height="34.551807" x="63.478905" y="44.194176"/><path id="path24293" style="fill:#7d5f4f;fill-opacity:1;stroke:#7d5f4f;stroke-opacity:1;stroke-width:1.1;stroke-dasharray:none" class="UnoptimicedTransforms" d="M 85.242188,45 C 65.452069,45 47.29353,51.694835 32.857422,62.927734 -13.674484,177.19578 86.265535,225.99017 87.660156,225.10938 l 61.107424,36.2832 v -62.01367 h 2.46484 v 62.01367 l 59.10742,-36.2832 c 1.39463,0.88079 103.33464,-47.9136 56.80274,-162.181646 C 252.70646,51.694835 234.54793,45 214.75781,45 h -54.46484 -9.06055 -2.46484 -10.76172 z" sodipodi:nodetypes="sccccccccsccccs"/><path d="m 42.44,345 c 0,0 6.38,-63.57 -1.79,-78.14 C 32.48,252.29 0,250.52 0,250.52 H -16 V 352.9 h 58.7 z" fill="#416eb5" stroke="#032657" stroke-miterlimit="10" stroke-width="2" id="path16874" clip-path="url(#clipPath25332)" style="stroke:#295293;stroke-opacity:1"/><path d="M 44.48,314.9 C 42.55,326.4 28.91,333 28.91,333 c 0,0 -14.52,-9.44 -14.52,-26 0,0 -4.63,19.66 -19.44,26" fill="#416eb5" stroke="#032657" stroke-miterlimit="10" stroke-width="2" id="path16876" clip-path="url(#clipPath25328)" style="stroke:#295293;stroke-opacity:1"/><path d="m 28.91,333 c 0,0 -3.32,17.36 -17.62,18.64" fill="#416eb5" stroke="#032657" stroke-miterlimit="10" stroke-width="2" id="path16878" clip-path="url(#clipPath25324)" style="stroke:#295293;stroke-opacity:1"/><path d="m -5,280.9 c 5.06,22.47 19.44,26 19.44,26 0,0 20.39,-5.23 24.75,-42.28 C 29.11,252.13 0,250.52 0,250.52 h -16 v 30.21 z" fill="#7d5f4f" stroke="#3a1c13" stroke-miterlimit="10" stroke-width="2" id="path16880" clip-path="url(#clipPath25320)" style="stroke:#6b5144;stroke-opacity:1"/><g class="UnoptimicedTransforms" id="g27837" transform="matrix(-1,0,0,1,300,0)"><path id="path27831" d="m 115.02967,296.64066 c 0,0 -4.95309,4.41431 -13.74165,8.43624 -6.727325,3.07864 -11.619891,-1.50476 -10.351629,-8.80482 L 92,290.15 c 0,0 -4.615848,10.89439 -13.202495,16.39084 -3.877755,2.48221 -9.851048,-0.44032 -10.181554,-5.02509 C 68.188679,295.58867 70,290.15 70,290.15 c -4.485838,4.26445 -9.639645,7.72282 -15.232556,10.25203 -5.469485,2.47339 -12.064217,-1.06469 -14.243643,-6.66834 L 39.13,290.15" fill="#ead9bb" stroke="#7c6041" stroke-width="2" stroke-miterlimit="10"/><path id="path27833" d="m 82.52,274.52 c 0,0 -1.939336,3.58367 -15.299336,6.33367 C 65.199007,273.5906 59.281195,272.74635 62.35,265.86" fill="#ead9bb"/><path id="path27835" d="m 82.52,274.52 c -3.460607,4.8269 -8.154255,8.74957 -13.48318,11.36712 -4.718938,2.31793 -10.415582,-1.14378 -10.35753,-6.39825 0.0212,-1.9194 0.231781,-3.83574 0.658653,-5.71799 0.605554,-2.77326 1.548881,-5.49621 3.012057,-7.94088 -1.277244,3.54174 -1.886435,7.45758 -1.953669,11.3085 -0.099,5.6703 4.546451,7.05562 9.709407,5.08147 C 73.727774,280.83503 79.1336,277.60606 82.52,274.52 Z" fill="#7c6041"/></g><path d="m 257.56,345 c 0,0 -6.38,-63.57 1.79,-78.14 8.17,-14.57 40.65,-16.34 40.65,-16.34 h 16 V 352.9 h -58.7 z" fill="#416eb5" stroke="#032657" stroke-miterlimit="10" stroke-width="2" id="path16882" clip-path="url(#clipPath25316)" style="stroke:#295293;stroke-opacity:1"/><path d="m 255.52,314.9 c 1.93,11.5 15.57,18.08 15.57,18.08 0,0 14.52,-9.44 14.52,-26 0,0 4.63,19.66 19.44,26" fill="#416eb5" stroke="#032657" stroke-miterlimit="10" stroke-width="2" id="path16884" clip-path="url(#clipPath25312)" style="stroke:#295293;stroke-opacity:1"/><path d="m 271.09,333 c 0,0 3.32,17.36 17.62,18.64" fill="#416eb5" stroke="#032657" stroke-miterlimit="10" stroke-width="2" id="path16886" clip-path="url(#clipPath25308)" style="stroke:#295293;stroke-opacity:1"/><path d="m 305.05,280.9 c -5.06,22.47 -19.44,26 -19.44,26 0,0 -20.39,-5.23 -24.75,-42.28 10,-12.53 39.13,-14.14 39.13,-14.14 h 16 v 30.21 z" fill="#7d5f4f" stroke="#3a1c13" stroke-miterlimit="10" stroke-width="2" id="path16888" clip-path="url(#clipPath25304)" style="stroke:#6b5144;stroke-opacity:1"/><path id="circle24649" style="fill:#ead9bb;fill-opacity:1;stroke-width:1.43392" class="cls-9" d="M 38.693359 150.79688 A 55.580975 49.149372 0 0 0 0 164.83008 L 0 213.14844 C 0 221.80092 1.2887281 230.13893 3.6640625 237.99609 A 55.580975 49.149372 0 0 0 38.693359 249.0957 A 55.580975 49.149372 0 0 0 94.273438 199.94531 A 55.580975 49.149372 0 0 0 38.693359 150.79688 z "/><path id="path28103" style="fill:#694032;fill-opacity:1" class="UnoptimicedTransforms" d="M 20.417969 165.70117 C 13.229741 165.64813 6.3074105 166.48815 0 167.74609 L 0 213.14844 C 0 216.34324 0.19021662 219.49018 0.52929688 222.5918 C 15.611374 236.92265 34.793077 245.07286 54.808594 227.41211 C 81.799758 203.60474 57.978516 176.24609 57.978516 176.24609 C 45.934795 168.51525 32.793846 165.79249 20.417969 165.70117 z "/><circle class="cls-8" cx="54.118309" cy="201.55315" r="38.397808" id="circle19536" style="fill:#c2a26c;fill-opacity:1;stroke-width:1.05344"/><circle class="cls-9" cx="54.118309" cy="212.21393" r="38.397808" id="circle19538" style="fill:#ffffff;stroke-width:1.05344"/><path d="m 178.53867,213.08789 c -4.66991,-2.51824 -9.6235,-7.41089 -14.05819,-12.65353 -8.72641,-10.31627 -19.70951,-10.30929 -28.42882,0.0132 -4.42437,5.23787 -9.36663,10.12454 -14.02899,12.64031 -5.4057,2.91687 -10.74815,7.12509 -17.06464,7.86893 -7.124736,0.83901 -11.732555,2.52379 -10.291411,9.70664 4.0186,20.02924 14.066681,58.72869 35.246291,84.82179 9.49186,11.69389 31.1966,11.69384 40.6885,-1.5e-4 20.22295,-24.9146 30.29724,-61.32241 34.66432,-81.99638 1.84321,-8.72586 -4.22966,-10.76766 -12.53574,-13.10536 -5.10388,-1.43646 -9.62167,-4.83129 -14.19132,-7.29547 z" fill="#4d4d85" id="path16892" sodipodi:nodetypes="acaccca" inkscape:path-effect="#path-effect24791" inkscape:original-d="m 178.53867,213.08789 c -13.03557,-7.02942 -28.28157,-32.56 -28.28157,-32.56 0,0 -15.20942,25.53181 -28.23443,32.56 -8.62627,4.65467 -17.09148,12.59774 -29.610775,4.50371 0,0 11.227775,88.05721 57.845205,116.05446 46.61743,-27.99725 57.84523,-116.05446 57.84523,-116.05446 -12.51931,8.09403 -20.94935,0.14155 -29.56366,-4.50371 z" style="stroke-width:0.932236"/><path d="m 171.368,224.45804 c -3.38051,-1.82294 -6.95962,-5.30799 -10.19401,-9.0848 -6.80837,-7.95012 -15.13756,-7.9454 -21.94007,0.009 -3.22697,3.77347 -6.79811,7.25448 -10.1733,9.0757 -3.82317,2.06295 -7.60406,4.98876 -11.99752,5.77522 -5.69203,1.01892 -9.55924,2.01063 -8.47652,7.40401 2.97376,14.81324 10.34684,43.23192 25.79215,62.74048 7.21635,9.11479 24.41957,9.11475 31.63596,-1.1e-4 14.73692,-18.61387 22.12507,-45.33931 25.35482,-60.61866 1.38539,-6.55407 -3.79456,-7.87888 -10.29633,-10.12802 -3.44949,-1.19327 -6.56093,-3.47739 -9.70518,-5.17292 z" fill="#4d4d85" id="path24793" sodipodi:nodetypes="acaccca" style="fill:#6b6ca5;stroke-width:0.697864"/><path id="rect29632" style="fill:#7d5f4f;stroke-width:1.373;stroke-linecap:round;paint-order:stroke fill markers;stop-color:#000000;fill-opacity:1" d="m 55.714888,37.490864 c 9.371402,-3.265442 16.131546,-7.608788 17.736647,5.521295 L 73.120672,66.172552 41.688709,61.871336 C 45.597113,52.210534 49.18838,41.915457 55.714888,37.490864 Z" sodipodi:nodetypes="ccccc"/><path id="path29739" style="fill:#7d5f4f;stroke-width:1.17916;stroke-linecap:round;paint-order:stroke fill markers;stop-color:#000000;fill-opacity:1" d="m 75.582746,40.817656 c 7.618825,-3.820218 12.89429,-8.268827 15.717346,2.73513 L 93.586769,63.313541 66.3414,63.136254 C 68.598542,54.4754 70.515262,45.309548 75.582746,40.817656 Z" sodipodi:nodetypes="ccccc"/><path id="path25225" style="fill:#ead9bb;fill-opacity:1;stroke-width:1.43392" class="cls-9" d="m 261.30664,150.79688 a 55.580975,49.149372 0 0 0 -55.58008,49.14843 55.580975,49.149372 0 0 0 55.58008,49.15039 55.580975,49.149372 0 0 0 35.0293,-11.09961 C 298.71127,230.13893 300,221.80092 300,213.14844 v -48.31836 a 55.580975,49.149372 0 0 0 -38.69336,-14.0332 z"/><path id="path35586" style="fill:#694032;fill-opacity:1" class="UnoptimicedTransforms" d="m 20.417969,165.70117 c 12.375877,0.0913 25.516826,2.81408 37.560547,10.54492 0,0 23.821242,27.35865 -3.169922,51.16602 C 34.793077,245.07286 15.611374,236.92265 0.52929688,222.5918 0.19021662,219.49018 0,216.34324 0,213.14844 v -45.40235 c 6.3074105,-1.25794 13.229741,-2.09796 20.417969,-2.04492 z" transform="matrix(-1,0,0,1,300,0)"/><path class="cls-8" id="path25227" d="m 207.48388,201.55315 a 38.397808,38.397808 0 0 0 38.39781,38.3978 38.397808,38.397808 0 0 0 38.39781,-38.3978 38.397808,38.397808 0 0 0 -38.39781,-38.39781 38.397808,38.397808 0 0 0 -38.39781,38.39781 z" style="fill:#c2a26c;fill-opacity:1;stroke-width:1.05344"/><path class="cls-9" id="path25229" d="m 207.48388,212.21393 a 38.397808,38.397808 0 0 0 38.39781,38.39781 38.397808,38.397808 0 0 0 38.39781,-38.39781 38.397808,38.397808 0 0 0 -38.39781,-38.39781 38.397808,38.397808 0 0 0 -38.39781,38.39781 z" style="fill:#ffffff;stroke-width:1.05344"/><path class="cls-10" id="path25231" d="m 271.29386,207.49802 a 30.53759,30.53759 0 0 1 -30.53759,30.53759 30.53759,30.53759 0 0 1 -30.53759,-30.53759 30.53759,30.53759 0 0 1 30.53759,-30.53759 30.53759,30.53759 0 0 1 30.53759,30.53759 z" style="fill:#414042;stroke-width:0.972535"/><path id="path25233" style="fill:#ffffff;stroke-width:1.53872" class="cls-9 UnoptimicedTransforms" d="m 254.45703,176.83984 a 14.925593,14.925593 0 0 0 -14.92578,14.92578 14.925593,14.925593 0 0 0 14.92578,14.92579 14.925593,14.925593 0 0 0 14.92578,-14.92579 14.925593,14.925593 0 0 0 -14.92578,-14.92578 z m -25.90625,37.39454 a 7.4202909,7.4202909 0 0 0 -7.42187,7.42187 7.4202909,7.4202909 0 0 0 7.42187,7.41992 7.4202909,7.4202909 0 0 0 7.41992,-7.41992 7.4202909,7.4202909 0 0 0 -7.41992,-7.42187 z" inkscape:path-effect="#path-effect40878" inkscape:original-d="m 254.45703,176.83984 a 14.925593,14.925593 0 0 0 -14.92578,14.92578 14.925593,14.925593 0 0 0 14.92578,14.92579 14.925593,14.925593 0 0 0 14.92578,-14.92579 14.925593,14.925593 0 0 0 -14.92578,-14.92578 z m -25.90625,37.39454 a 7.4202909,7.4202909 0 0 0 -7.42187,7.42187 7.4202909,7.4202909 0 0 0 7.42187,7.41992 7.4202909,7.4202909 0 0 0 7.41992,-7.41992 7.4202909,7.4202909 0 0 0 -7.41992,-7.42187 z"/><path d="m 87.430556,57.038299 c 0.945646,-1.403187 1.781987,-2.891896 2.49983,-4.449762 0.739423,-1.565972 1.338593,-3.206689 1.788813,-4.898339 0.503488,-1.787621 0.683017,-3.663105 0.528191,-5.517845 -0.173423,-2.075275 -1.052529,-3.989368 -2.459855,-5.35589 -0.709036,-0.652635 -1.503894,-1.182582 -2.358103,-1.572192 -0.853116,-0.394173 -1.752248,-0.657527 -2.672763,-0.782854 -1.909623,-0.195173 -3.833422,0.304808 -5.480102,1.424247 -1.516821,1.022198 -2.869782,2.319221 -4.001406,3.83597 -1.116214,1.447546 -2.08197,3.02857 -2.878672,4.712629 l 3.735367,1.366585 c 0.09933,-0.654601 0.144692,-1.317026 0.135517,-1.979057 0.0026,-0.623742 -0.03516,-1.246262 -0.113006,-1.862779 -0.16507,-1.26004 -0.518636,-2.477981 -1.046234,-3.603995 -1.084091,-2.239907 -2.836711,-3.987674 -4.963453,-4.949708 -1.932954,-0.95025 -4.031232,-1.434615 -6.157284,-1.421348 -2.138819,0.05715 -4.242077,0.674456 -6.137399,1.801342 -3.420653,2.165498 -6.306145,5.241619 -8.39069,8.94502 -2.111728,3.518701 -5.567181,14.093187 -6.697419,18.117117 1.836719,-3.576736 5.793744,-13.693369 8.221893,-16.813061 2.23786,-3.053033 5.061892,-5.517486 8.261852,-7.209881 1.495377,-0.706982 3.104287,-1.058602 4.721523,-1.03187 1.617136,0.101714 3.190601,0.588342 4.613312,1.426704 1.319017,0.649759 2.404304,1.761547 3.090906,3.166387 0.313647,0.711739 0.521865,1.475983 0.616785,2.263842 0.05516,0.402363 0.08426,0.808975 0.08708,1.216737 0.0044,0.369836 -0.02098,0.739829 -0.07571,1.105619 l -1.98187,14.304726 5.773934,-13.034231 c 0.635079,-1.391778 1.39708,-2.709416 2.273934,-3.932044 0.796952,-1.214074 1.770847,-2.273909 2.88091,-3.135136 0.996316,-0.772692 2.173791,-1.202517 3.382248,-1.234658 0.626768,0.01634 1.246772,0.133627 1.840513,0.348192 0.596748,0.204755 1.160604,0.509299 1.672206,0.903175 1.017397,0.803004 1.718829,2.005145 1.964572,3.366963 0.278085,1.546567 0.308139,3.138981 0.0888,4.704776 -0.531059,3.372531 -1.460474,6.659056 -2.76422,9.774619 z" fill="#0a6961" id="path29067" sodipodi:nodetypes="ccccccccccccccccccccccccccccccccccccc" style="fill:#5f453c;fill-opacity:1;stroke-width:1.05271"/><path id="path29955" d="m 244.28511,37.490864 c -9.3714,-3.265442 -16.13154,-7.608788 -17.73665,5.521295 l 0.33087,23.160393 31.43196,-4.301216 c -3.9084,-9.660802 -7.49967,-19.955879 -14.02618,-24.380472 z" style="fill:#7d5f4f;stroke-width:1.373;stroke-linecap:round;paint-order:stroke fill markers;stop-color:#000000;fill-opacity:1"/><path id="path29957" d="m 224.41725,40.817656 c -7.61882,-3.820218 -12.89429,-8.268827 -15.71734,2.73513 l -2.28668,19.760755 27.24537,-0.177287 C 231.40146,54.4754 229.48474,45.309548 224.41725,40.817656 Z" style="fill:#7d5f4f;stroke-width:1.17916;stroke-linecap:round;paint-order:stroke fill markers;stop-color:#000000;fill-opacity:1"/><path id="path29959" d="m 212.56944,57.038299 c -0.94564,-1.403187 -1.78198,-2.891896 -2.49983,-4.449762 -0.73942,-1.565972 -1.33859,-3.206689 -1.78881,-4.898339 -0.50349,-1.787621 -0.68302,-3.663105 -0.52819,-5.517845 0.17342,-2.075275 1.05253,-3.989368 2.45985,-5.35589 0.70904,-0.652635 1.5039,-1.182582 2.35811,-1.572192 0.85311,-0.394173 1.75225,-0.657527 2.67276,-0.782854 1.90962,-0.195173 3.83342,0.304808 5.4801,1.424247 1.51682,1.022198 2.86978,2.319221 4.00141,3.83597 1.11621,1.447546 2.08197,3.02857 2.87867,4.712629 l -3.73537,1.366585 c -0.0993,-0.654601 -0.14469,-1.317026 -0.13551,-1.979057 -0.003,-0.623742 0.0352,-1.246262 0.113,-1.862779 0.16507,-1.26004 0.51864,-2.477981 1.04624,-3.603995 1.08409,-2.239907 2.83671,-3.987674 4.96345,-4.949708 1.93295,-0.95025 4.03123,-1.434615 6.15728,-1.421348 2.13882,0.05715 4.24208,0.674456 6.1374,1.801342 3.42066,2.165498 6.30615,5.241619 8.39069,8.94502 2.11173,3.518701 5.56718,14.093187 6.69742,18.117117 -1.83672,-3.576736 -5.79374,-13.693369 -8.22189,-16.813061 -2.23786,-3.053033 -5.06189,-5.517486 -8.26185,-7.209881 -1.49538,-0.706982 -3.10429,-1.058602 -4.72153,-1.03187 -1.61713,0.101714 -3.1906,0.588342 -4.61331,1.426704 -1.31902,0.649759 -2.4043,1.761547 -3.0909,3.166387 -0.31365,0.711739 -0.52187,1.475983 -0.61679,2.263842 -0.0552,0.402363 -0.0843,0.808975 -0.0871,1.216737 -0.004,0.369836 0.021,0.739829 0.0757,1.105619 l 1.98187,14.304726 -5.77393,-13.034231 c -0.63508,-1.391778 -1.39708,-2.709416 -2.27394,-3.932044 -0.79695,-1.214074 -1.77084,-2.273909 -2.88091,-3.135136 -0.99631,-0.772692 -2.17379,-1.202517 -3.38225,-1.234658 -0.62676,0.01634 -1.24677,0.133627 -1.84051,0.348192 -0.59675,0.204755 -1.1606,0.509299 -1.6722,0.903175 -1.0174,0.803004 -1.71883,2.005145 -1.96458,3.366963 -0.27808,1.546567 -0.30813,3.138981 -0.0888,4.704776 0.53106,3.372531 1.46048,6.659056 2.76422,9.774619 z" style="fill:#5f453c;fill-opacity:1;stroke-width:1.05271" fill="#0a6961"/><path id="path30987" d="m 268.50478,65.153961 c 3.16476,0 6.14229,-4.532932 8.84386,-5.731777 1.19355,-0.521861 2.38984,-0.783051 3.54762,-0.774561 0.96723,0.0012 1.82945,0.480144 2.45765,1.365204 0.5283,0.933445 0.71922,2.246173 0.52977,3.642565 -0.19845,1.803921 -0.56363,3.620041 -1.08508,5.396327 -1.17215,3.958585 -3.82633,5.458408 -5.27932,9.296782 2.44654,-3.065339 5.89575,-4.292815 7.54252,-8.278284 0.89713,-2.136273 1.55248,-4.408036 1.93289,-6.70036 0.20678,-1.301897 0.25393,-2.59043 0.13907,-3.800887 -0.12798,-1.318406 -0.49165,-2.484307 -1.05794,-3.391742 -1.08003,-1.664162 -2.65716,-2.494116 -4.42049,-2.326242 -1.54691,0.14071 -3.13714,0.758666 -4.67153,1.815339 -2.8201,1.911577 -12.57949,9.487636 -8.47902,9.487636 z" style="fill:#7c6041;fill-opacity:1;stroke-width:1.01296" fill="#0a6961"/><path id="path30989" d="m 293.05707,72.612933 c -0.50886,-2.894372 -4.048,-4.11888 -9.51725,-4.279783 l -11.237,4.57374 5.17408,12.213445 z" style="fill:#ead9bb;stroke-width:0.807931;stroke-linecap:round;paint-order:stroke fill markers;stop-color:#000000"/><path id="path30991" d="m 278.95277,70.477732 c 2.06271,1.071607 5.53827,-0.874629 7.70502,-0.741239 0.95463,0.06401 1.82278,0.298843 2.57452,0.696407 0.63001,0.328293 1.02981,0.932411 1.13957,1.721981 0.0283,0.787281 -0.2918,1.707531 -0.88811,2.553515 -0.74017,1.108553 -1.59313,2.168602 -2.53446,3.149775 -2.10438,2.183205 -4.34215,2.262031 -6.58888,4.271792 2.63254,-1.169494 5.29628,-0.80161 7.71911,-2.841628 1.30808,-1.088593 2.50446,-2.347365 3.52859,-3.712634 0.57561,-0.778526 1.04264,-1.602394 1.37765,-2.43023 0.36301,-0.902639 0.52076,-1.785683 0.45893,-2.568878 -0.14044,-1.450363 -0.88735,-2.525333 -2.09348,-3.012991 -1.05589,-0.432084 -2.3016,-0.567776 -3.65948,-0.398618 -2.48534,0.291011 -11.41156,1.924304 -8.73898,3.312747 z" style="fill:#7c6041;fill-opacity:1;stroke-width:0.744001" fill="#0a6961"/><g id="g32201" inkscape:path-effect="#path-effect32203" class="UnoptimicedTransforms"><path d="m 230.11919,118.53013 a 24.194252,24.194252 0 0 1 -2.80063,-3.05184 21.26028,21.26028 0 0 1 -2.25112,-3.52484 11.216053,11.216053 0 0 1 -1.25149,-4.22593 6.5551797,6.5551797 0 0 1 1.3529,-4.61227 8.1851638,8.1851638 0 0 1 1.81032,-1.63481 9.0398042,9.0398042 0 0 1 2.19589,-1.07133 7.7798705,7.7798705 0 0 1 4.93893,0.17327 13.753542,13.753542 0 0 1 4.00923,2.31386 19.841753,19.841753 0 0 1 3.16576,3.19243 l -3.02962,1.71043 a 8.6697537,8.6697537 0 0 1 -0.40229,-1.52496 10.387845,10.387845 0 0 1 -0.17085,-1.47664 9.1543436,9.1543436 0 0 1 0.38432,-2.99905 8.854779,8.854779 0 0 1 3.57402,-4.724373 13.286574,13.286574 0 0 1 5.11376,-2.169109 11.920911,11.920911 0 0 1 5.56105,0.355416 20.555422,20.555422 0 0 1 8.53698,5.557036 34.714258,34.714258 0 0 1 5.86166,8.05789 49.533898,49.533898 0 0 0 -6.99054,-6.77598 20.65234,20.65234 0 0 0 -8.17563,-4.221753 10.123523,10.123523 0 0 0 -4.22712,0.0034 9.9384982,9.9384982 0 0 0 -3.77932,1.908203 5.8679431,5.8679431 0 0 0 -2.21355,3.00777 5.9472396,5.9472396 0 0 0 -0.20651,1.87691 6.8195014,6.8195014 0 0 0 0.10014,0.96679 4.9692491,4.9692491 0 0 0 0.22474,0.85194 l 3.77354,10.85032 -6.86599,-9.20533 a 17.956258,17.956258 0 0 0 -2.5309,-2.68561 10.57287,10.57287 0 0 0 -2.94034,-1.95797 5.356921,5.356921 0 0 0 -3.0995,-0.38515 5.6917286,5.6917286 0 0 0 -1.53964,0.5884 5.4450283,5.4450283 0 0 0 -1.31427,0.99366 4.4053627,4.4053627 0 0 0 -1.21173,2.97129 10.749085,10.749085 0 0 0 0.60136,3.6958 30.908024,30.908024 0 0 0 3.79644,7.17209 z" fill="#0a6961" id="path29067-8" style="fill:#5f453c;fill-opacity:1;stroke-width:0.881073" inkscape:original-d="m 230.11919,118.53013 a 24.194252,24.194252 0 0 1 -2.80063,-3.05184 21.26028,21.26028 0 0 1 -2.25112,-3.52484 11.216053,11.216053 0 0 1 -1.25149,-4.22593 6.5551797,6.5551797 0 0 1 1.3529,-4.61227 8.1851638,8.1851638 0 0 1 1.81032,-1.63481 9.0398042,9.0398042 0 0 1 2.19589,-1.07133 7.7798705,7.7798705 0 0 1 4.93893,0.17327 13.753542,13.753542 0 0 1 4.00923,2.31386 19.841753,19.841753 0 0 1 3.16576,3.19243 l -3.02962,1.71043 a 8.6697537,8.6697537 0 0 1 -0.40229,-1.52496 10.387845,10.387845 0 0 1 -0.17085,-1.47664 9.1543436,9.1543436 0 0 1 0.38432,-2.99905 8.854779,8.854779 0 0 1 3.57402,-4.724373 13.286574,13.286574 0 0 1 5.11376,-2.169109 11.920911,11.920911 0 0 1 5.56105,0.355416 20.555422,20.555422 0 0 1 8.53698,5.557036 34.714258,34.714258 0 0 1 5.86166,8.05789 49.533898,49.533898 0 0 0 -6.99054,-6.77598 20.65234,20.65234 0 0 0 -8.17563,-4.221753 10.123523,10.123523 0 0 0 -4.22712,0.0034 9.9384982,9.9384982 0 0 0 -3.77932,1.908203 5.8679431,5.8679431 0 0 0 -2.21355,3.00777 5.9472396,5.9472396 0 0 0 -0.20651,1.87691 6.8195014,6.8195014 0 0 0 0.10014,0.96679 4.9692491,4.9692491 0 0 0 0.22474,0.85194 l 3.77354,10.85032 -6.86599,-9.20533 a 17.956258,17.956258 0 0 0 -2.5309,-2.68561 10.57287,10.57287 0 0 0 -2.94034,-1.95797 5.356921,5.356921 0 0 0 -3.0995,-0.38515 5.6917286,5.6917286 0 0 0 -1.53964,0.5884 5.4450283,5.4450283 0 0 0 -1.31427,0.99366 4.4053627,4.4053627 0 0 0 -1.21173,2.97129 10.749085,10.749085 0 0 0 0.60136,3.6958 30.908024,30.908024 0 0 0 3.79644,7.17209 z"/><path d="m 187.97061,91.785804 a 67.67,67.67 0 0 1 -0.78722,-9.554719 13.9,13.9 0 0 1 0.61093,-4.170811 5.46,5.46 0 0 1 1.98904,-2.816368 4.16,4.16 0 0 1 3.18551,-0.478558 15.63,15.63 0 0 1 4.06107,1.47375 82.38,82.38 0 0 1 8.25042,5.049769 25.09,25.09 0 0 0 -6.61528,-7.652463 14.84,14.84 0 0 0 -4.83631,-2.513456 8.46,8.46 0 0 0 -3.08046,-0.308248 6.81,6.81 0 0 0 -3.1649,1.104717 8.48,8.48 0 0 0 -3.47115,5.070661 13.55,13.55 0 0 0 -0.14961,5.522691 21.52,21.52 0 0 0 4.00796,9.273035 z" fill="#0a6961" id="path29059-0" style="fill:#5f453c;fill-opacity:1" inkscape:original-d="m 187.97061,91.785804 a 67.67,67.67 0 0 1 -0.78722,-9.554719 13.9,13.9 0 0 1 0.61093,-4.170811 5.46,5.46 0 0 1 1.98904,-2.816368 4.16,4.16 0 0 1 3.18551,-0.478558 15.63,15.63 0 0 1 4.06107,1.47375 82.38,82.38 0 0 1 8.25042,5.049769 25.09,25.09 0 0 0 -6.61528,-7.652463 14.84,14.84 0 0 0 -4.83631,-2.513456 8.46,8.46 0 0 0 -3.08046,-0.308248 6.81,6.81 0 0 0 -3.1649,1.104717 8.48,8.48 0 0 0 -3.47115,5.070661 13.55,13.55 0 0 0 -0.14961,5.522691 21.52,21.52 0 0 0 4.00796,9.273035 z"/><path d="m 182.83619,166.38634 a 95.507284,95.507284 0 0 1 1.44376,-13.45368 19.618018,19.618018 0 0 1 1.95346,-5.61952 7.7060702,7.7060702 0 0 1 3.50444,-3.37634 5.8712916,5.8712916 0 0 1 4.54274,0.18177 22.059685,22.059685 0 0 1 5.23848,3.1204 116.26851,116.26851 0 0 1 10.097,9.18897 35.411227,35.411227 0 0 0 -7.13983,-12.36302 20.944704,20.944704 0 0 0 -6.03726,-4.76731 11.940175,11.940175 0 0 0 -4.18837,-1.24458 9.6114173,9.6114173 0 0 0 -4.6803,0.69166 11.968402,11.968402 0 0 0 -6.15706,6.10804 19.124039,19.124039 0 0 0 -1.67265,7.6159 30.372643,30.372643 0 0 0 3.09559,13.91771 z" fill="#0a6961" id="path32194" style="fill:#5f453c;fill-opacity:1;stroke-width:1.41137" inkscape:original-d="m 182.83619,166.38634 a 95.507284,95.507284 0 0 1 1.44376,-13.45368 19.618018,19.618018 0 0 1 1.95346,-5.61952 7.7060702,7.7060702 0 0 1 3.50444,-3.37634 5.8712916,5.8712916 0 0 1 4.54274,0.18177 22.059685,22.059685 0 0 1 5.23848,3.1204 116.26851,116.26851 0 0 1 10.097,9.18897 35.411227,35.411227 0 0 0 -7.13983,-12.36302 20.944704,20.944704 0 0 0 -6.03726,-4.76731 11.940175,11.940175 0 0 0 -4.18837,-1.24458 9.6114173,9.6114173 0 0 0 -4.6803,0.69166 11.968402,11.968402 0 0 0 -6.15706,6.10804 19.124039,19.124039 0 0 0 -1.67265,7.6159 30.372643,30.372643 0 0 0 3.09559,13.91771 z"/></g><path d="m 131.48725,72.644943 a 124.22172,95.507284 0 0 1 7.9502,-12.071603 25.51621,19.618018 0 0 1 4.96346,-4.56423 10.022914,7.7060702 0 0 1 5.81738,-1.917281 7.6365058,5.8712916 0 0 1 5.44231,1.777991 28.691968,22.059685 0 0 1 4.93571,4.772638 151.22485,116.26851 0 0 1 8.05191,12.168077 46.057675,35.411227 0 0 0 -2.99338,-14.089882 27.241766,20.944704 0 0 0 -5.14917,-6.595665 15.530009,11.940175 0 0 0 -4.52191,-2.646557 12.501107,9.6114173 0 0 0 -6.01176,-1.009803 15.566723,11.968402 0 0 0 -10.3018,3.533178 24.873715,19.124039 0 0 0 -5.54097,6.530757 39.504232,30.372643 0 0 0 -2.64198,14.11238 z" fill="#0a6961" id="path32196" style="fill:#5f453c;fill-opacity:1;stroke-width:1.60961"/><g class="UnoptimicedTransforms" id="g32211" transform="matrix(-1,0,0,1,300,0)"><path id="path32205" d="m 230.11919,118.53013 a 24.194252,24.194252 0 0 1 -2.80063,-3.05184 21.26028,21.26028 0 0 1 -2.25112,-3.52484 11.216053,11.216053 0 0 1 -1.25149,-4.22593 6.5551797,6.5551797 0 0 1 1.3529,-4.61227 8.1851638,8.1851638 0 0 1 1.81032,-1.63481 9.0398042,9.0398042 0 0 1 2.19589,-1.07133 7.7798705,7.7798705 0 0 1 4.93893,0.17327 13.753542,13.753542 0 0 1 4.00923,2.31386 19.841753,19.841753 0 0 1 3.16576,3.19243 l -3.02962,1.71043 a 8.6697537,8.6697537 0 0 1 -0.40229,-1.52496 10.387845,10.387845 0 0 1 -0.17085,-1.47664 9.1543436,9.1543436 0 0 1 0.38432,-2.99905 8.854779,8.854779 0 0 1 3.57402,-4.724373 13.286574,13.286574 0 0 1 5.11376,-2.169109 11.920911,11.920911 0 0 1 5.56105,0.355416 20.555422,20.555422 0 0 1 8.53698,5.557036 34.714258,34.714258 0 0 1 5.86166,8.05789 49.533898,49.533898 0 0 0 -6.99054,-6.77598 20.65234,20.65234 0 0 0 -8.17563,-4.221753 10.123523,10.123523 0 0 0 -4.22712,0.0034 9.9384982,9.9384982 0 0 0 -3.77932,1.908203 5.8679431,5.8679431 0 0 0 -2.21355,3.00777 5.9472396,5.9472396 0 0 0 -0.20651,1.87691 6.8195014,6.8195014 0 0 0 0.10014,0.96679 4.9692491,4.9692491 0 0 0 0.22474,0.85194 l 3.77354,10.85032 -6.86599,-9.20533 a 17.956258,17.956258 0 0 0 -2.5309,-2.68561 10.57287,10.57287 0 0 0 -2.94034,-1.95797 5.356921,5.356921 0 0 0 -3.0995,-0.38515 5.6917286,5.6917286 0 0 0 -1.53964,0.5884 5.4450283,5.4450283 0 0 0 -1.31427,0.99366 4.4053627,4.4053627 0 0 0 -1.21173,2.97129 10.749085,10.749085 0 0 0 0.60136,3.6958 30.908024,30.908024 0 0 0 3.79644,7.17209 z" style="fill:#5f453c;fill-opacity:1;stroke-width:0.881073" fill="#0a6961"/><path id="path32207" d="m 187.97061,91.785804 a 67.67,67.67 0 0 1 -0.78722,-9.554719 13.9,13.9 0 0 1 0.61093,-4.170811 5.46,5.46 0 0 1 1.98904,-2.816368 4.16,4.16 0 0 1 3.18551,-0.478558 15.63,15.63 0 0 1 4.06107,1.47375 82.38,82.38 0 0 1 8.25042,5.049769 25.09,25.09 0 0 0 -6.61528,-7.652463 14.84,14.84 0 0 0 -4.83631,-2.513456 8.46,8.46 0 0 0 -3.08046,-0.308248 6.81,6.81 0 0 0 -3.1649,1.104717 8.48,8.48 0 0 0 -3.47115,5.070661 13.55,13.55 0 0 0 -0.14961,5.522691 21.52,21.52 0 0 0 4.00796,9.273035 z" style="fill:#5f453c;fill-opacity:1" fill="#0a6961"/><path id="path32209" d="m 182.83619,166.38634 a 95.507284,95.507284 0 0 1 1.44376,-13.45368 19.618018,19.618018 0 0 1 1.95346,-5.61952 7.7060702,7.7060702 0 0 1 3.50444,-3.37634 5.8712916,5.8712916 0 0 1 4.54274,0.18177 22.059685,22.059685 0 0 1 5.23848,3.1204 116.26851,116.26851 0 0 1 10.097,9.18897 35.411227,35.411227 0 0 0 -7.13983,-12.36302 20.944704,20.944704 0 0 0 -6.03726,-4.76731 11.940175,11.940175 0 0 0 -4.18837,-1.24458 9.6114173,9.6114173 0 0 0 -4.6803,0.69166 11.968402,11.968402 0 0 0 -6.15706,6.10804 19.124039,19.124039 0 0 0 -1.67265,7.6159 30.372643,30.372643 0 0 0 3.09559,13.91771 z" style="fill:#5f453c;fill-opacity:1;stroke-width:1.41137" fill="#0a6961"/></g><path d="m 145.29616,221.84482 c -3.5927,16.90865 -6.92077,44.24604 -0.37384,73.2879 2.18459,9.69076 7.9708,9.69067 10.15541,-2e-4 6.54689,-29.0419 3.21877,-56.37931 -0.37393,-73.28791 -2.06482,-9.7178 -7.34281,-9.71771 -9.40764,2.1e-4 z" fill="#8d8cc4" id="path28083" style="stroke-width:0.83097" inkscape:path-effect="#path-effect37198" inkscape:original-d="m 150,204.48205 c 0,0 -19.83,53.9703 0,107.90608 19.83,-53.93578 0,-107.90608 0,-107.90608 z"/><path id="path40869" d="m 268.50478,65.153961 c 3.16476,0 6.14229,-4.532932 8.84386,-5.731777 1.19355,-0.521861 2.38984,-0.783051 3.54762,-0.774561 0.96723,0.0012 1.82945,0.480144 2.45765,1.365204 0.5283,0.933445 0.71922,2.246173 0.52977,3.642565 -0.19845,1.803921 -0.56363,3.620041 -1.08508,5.396327 -1.17215,3.958585 -3.82633,5.458408 -5.27932,9.296782 2.44654,-3.065339 5.89575,-4.292815 7.54252,-8.278284 0.89713,-2.136273 1.55248,-4.408036 1.93289,-6.70036 0.20678,-1.301897 0.25393,-2.59043 0.13907,-3.800887 -0.12798,-1.318406 -0.49165,-2.484307 -1.05794,-3.391742 -1.08003,-1.664162 -2.65716,-2.494116 -4.42049,-2.326242 -1.54691,0.14071 -3.13714,0.758666 -4.67153,1.815339 -2.8201,1.911577 -12.57949,9.487636 -8.47902,9.487636 z" style="fill:#7c6041;fill-opacity:1;stroke-width:1.01296" fill="#0a6961"/><path id="path40871" d="m 293.05707,72.612933 c -0.50886,-2.894372 -4.048,-4.11888 -9.51725,-4.279783 l -11.237,4.57374 5.17408,12.213445 z" style="fill:#ead9bb;stroke-width:0.807931;stroke-linecap:round;paint-order:stroke fill markers;stop-color:#000000"/><path id="path40873" d="m 278.95277,70.477732 c 2.06271,1.071607 5.53827,-0.874629 7.70502,-0.741239 0.95463,0.06401 1.82278,0.298843 2.57452,0.696407 0.63001,0.328293 1.02981,0.932411 1.13957,1.721981 0.0283,0.787281 -0.2918,1.707531 -0.88811,2.553515 -0.74017,1.108553 -1.59313,2.168602 -2.53446,3.149775 -2.10438,2.183205 -4.34215,2.262031 -6.58888,4.271792 2.63254,-1.169494 5.29628,-0.80161 7.71911,-2.841628 1.30808,-1.088593 2.50446,-2.347365 3.52859,-3.712634 0.57561,-0.778526 1.04264,-1.602394 1.37765,-2.43023 0.36301,-0.902639 0.52076,-1.785683 0.45893,-2.568878 -0.14044,-1.450363 -0.88735,-2.525333 -2.09348,-3.012991 -1.05589,-0.432084 -2.3016,-0.567776 -3.65948,-0.398618 -2.48534,0.291011 -11.41156,1.924304 -8.73898,3.312747 z" style="fill:#7c6041;fill-opacity:1;stroke-width:0.744001" fill="#0a6961"/><path id="circle19540" style="fill:#414042;stroke-width:0.972535" class="cls-10" d="m 59.24414,176.96094 a 30.53759,30.53759 0 0 1 7.863282,1.07617 14.925593,14.925593 0 0 0 -9.087891,13.72851 14.925593,14.925593 0 0 0 14.925781,14.92579 14.925593,14.925593 0 0 0 14.369141,-11.09961 30.53759,30.53759 0 0 1 2.466797,11.90625 30.53759,30.53759 0 0 1 -30.53711,30.53711 30.53759,30.53759 0 0 1 -30.537109,-30.53711 30.53759,30.53759 0 0 1 30.537109,-30.53711 z m -12.205078,37.27344 a 7.4202909,7.4202909 0 0 0 -7.421875,7.42187 7.4202909,7.4202909 0 0 0 7.421875,7.41992 7.4202909,7.4202909 0 0 0 7.419922,-7.41992 7.4202909,7.4202909 0 0 0 -7.419922,-7.42187 z"/></svg>