<svg id="Layer_1" data-name="Layer 1" xmlns="http://www.w3.org/2000/svg" xmlns:xlink="http://www.w3.org/1999/xlink" viewBox="0 0 300 345"><defs><style>.cls-1{fill:url(#linear-gradient);}.cls-2{fill:#bab681;}.cls-3{fill:none;stroke:#15141a;stroke-linecap:round;stroke-miterlimit:10;stroke-width:8px;}.cls-4{fill:#3e564a;}.cls-5{fill:#283633;}.cls-6{fill:#546e54;}.cls-7{fill:#859d7f;}.cls-8{fill:#687f76;}.cls-9{fill:#fff;}.cls-10{fill:#15141a;}.cls-11{fill:#2f2c38;}.cls-12{fill:#a07db8;}</style><linearGradient id="linear-gradient" x1="150" y1="356.11" x2="150" y2="161.16" gradientUnits="userSpaceOnUse"><stop offset="0" stop-color="#859d7f"/><stop offset="0.69" stop-color="#265669"/></linearGradient></defs><g id="robot"><path class="cls-1" d="M263.62,345H36.38A36.38,36.38,0,0,1,0,308.62V259.14H300v49.48A36.38,36.38,0,0,1,263.62,345Z"/><rect class="cls-2" y="81.71" width="300" height="216.68" rx="36.38"/><path class="cls-3" d="M179.43,241.34a29.43,29.43,0,0,1-58.86,0"/><path class="cls-4" d="M254.93,241.7a20.57,20.57,0,1,1,20.56-20.57A20.6,20.6,0,0,1,254.93,241.7Z"/><path class="cls-5" d="M254.93,202.57a18.57,18.57,0,1,1-18.57,18.56,18.56,18.56,0,0,1,18.57-18.56m0-4a22.57,22.57,0,1,0,22.56,22.56,22.59,22.59,0,0,0-22.56-22.56Z"/><circle class="cls-6" cx="261.24" cy="214.62" r="5.18"/><line class="cls-3" x1="223.64" y1="205.09" x2="252.09" y2="176.63"/><path class="cls-4" d="M45.07,241.7a20.57,20.57,0,1,1,20.57-20.57A20.59,20.59,0,0,1,45.07,241.7Z"/><path class="cls-5" d="M45.07,202.57a18.57,18.57,0,1,1-18.56,18.56,18.56,18.56,0,0,1,18.56-18.56m0-4a22.57,22.57,0,1,0,22.57,22.56,22.59,22.59,0,0,0-22.57-22.56Z"/><circle class="cls-6" cx="51.39" cy="214.62" r="5.18"/><line class="cls-3" x1="76.36" y1="205.09" x2="47.91" y2="176.63"/><path class="cls-7" d="M215,169l8.52,5.29a13.21,13.21,0,0,0,1.94-9.2c-6.16-40-37.6-70.51-75.46-70.51S80.7,125,74.54,165.05a13.21,13.21,0,0,0,1.94,9.2l8.72-4.95Z"/><path class="cls-8" d="M85.6,179.43H214.4a10.94,10.94,0,0,0,9.12-5.18l-12-9.79-122.9.34-12.17,9.45A10.94,10.94,0,0,0,85.6,179.43Z"/><path class="cls-9" d="M203.85,174.25H96.15c-5.76,0-10.22-5.73-9.25-12,5.15-33.48,31.44-59,63.1-59s57.95,25.48,63.1,59C214.07,168.52,209.61,174.25,203.85,174.25Z"/><path class="cls-10" d="M100,162.38l-12.61-3c-.18.93-.35,1.87-.49,2.81h0l12.71,2.41Q99.79,163.51,100,162.38Z"/><path class="cls-10" d="M134.31,120.28l-3.95-13.61c-1.55.56-3.08,1.19-4.59,1.87l4.88,13.22C131.85,121.22,133.09,120.72,134.31,120.28Z"/><path class="cls-10" d="M151.94,117.61l.48-14.29c-.8,0-1.61-.06-2.42-.06s-1.65,0-2.47.07l.48,14.28C149.31,117.56,150.63,117.55,151.94,117.61Z"/><path class="cls-10" d="M195.25,147.86l11.41-6.67c-.77-1.61-1.58-3.17-2.45-4.7l-10.91,7.62C194,145.32,194.65,146.58,195.25,147.86Z"/><path class="cls-10" d="M106.68,144.14l-10.92-7.61c-.86,1.53-1.68,3.1-2.44,4.7l11.41,6.66C105.33,146.62,106,145.36,106.68,144.14Z"/><path class="cls-10" d="M118.62,129.5l-7.93-11.28q-1.93,1.66-3.73,3.5l8.67,10.57C116.59,131.32,117.6,130.38,118.62,129.5Z"/><path class="cls-10" d="M184.35,132.27,193,121.69c-1.21-1.22-2.45-2.39-3.74-3.5l-7.92,11.29C182.38,130.36,183.38,131.3,184.35,132.27Z"/><path class="cls-10" d="M169.31,121.75l4.87-13.23c-1.5-.68-3-1.31-4.59-1.87l-4,13.62C166.88,120.71,168.12,121.21,169.31,121.75Z"/><path class="cls-10" d="M200.38,164.62l12.72-2.4h0c-.14-.94-.31-1.88-.49-2.81l-12.61,3C200.14,163.13,200.27,163.88,200.38,164.62Z"/><path class="cls-10" d="M144.81,158.2l30.88-22.86a2.28,2.28,0,0,1,3.18,3.19L156,169.41a8,8,0,0,1-12.1.9h0A8,8,0,0,1,144.81,158.2Z"/><ellipse class="cls-7" cx="235.78" cy="94.18" rx="7.35" ry="8.85" transform="translate(49.66 266.87) rotate(-64.63)"/><path class="cls-11" d="M235.9,98.18a4,4,0,0,1-3.72-5.47l14.71-37.33a4,4,0,0,1,7.45,2.94L239.62,95.64A4,4,0,0,1,235.9,98.18Z"/><circle class="cls-10" cx="250.83" cy="55.73" r="16.31"/><ellipse class="cls-7" cx="64.22" cy="94.18" rx="8.85" ry="7.35" transform="translate(-34.16 36.6) rotate(-25.37)"/><path class="cls-11" d="M64.1,98.18a4,4,0,0,0,3.72-5.47L53.11,55.38a4,4,0,0,0-7.45,2.94L60.38,95.64A4,4,0,0,0,64.1,98.18Z"/><circle class="cls-10" cx="49.17" cy="55.73" r="16.31"/><polygon class="cls-12" points="223.68 45.74 223.08 41.81 219.29 44.17 203.79 53.79 202.44 25.22 201.94 14.76 195.33 22.93 174.27 52.28 150 0 125.73 52.28 104.67 22.93 98.06 14.76 97.56 25.22 96.21 53.79 80.71 44.17 76.92 41.81 76.32 45.74 74.29 59.17 80.16 50.81 97.08 59.03 99.54 60.23 100.03 57.51 104.28 34 124.6 57.23 126.58 59.18 127.84 56.83 150 17.25 172.16 56.83 173.42 59.18 175.4 57.23 195.72 34 199.97 57.51 200.46 60.23 202.92 59.03 219.84 50.81 225.71 59.17 223.68 45.74"/></g></svg>