<svg id="Layer_1" data-name="Layer 1" xmlns="http://www.w3.org/2000/svg" xmlns:xlink="http://www.w3.org/1999/xlink" viewBox="0 0 300 345"><defs><style>.cls-1{fill:url(#linear-gradient);}.cls-2{fill:#ffe586;}.cls-3{fill:#f179af;}.cls-4{fill:#f493aa;}.cls-5{fill:#21022f;}</style><linearGradient id="linear-gradient" x1="150" y1="356.11" x2="150" y2="161.16" gradientUnits="userSpaceOnUse"><stop offset="0" stop-color="#ffe586"/><stop offset="0.4" stop-color="#f79b71"/></linearGradient></defs><g id="robot"><path class="cls-1" d="M263.62,345H36.38A36.38,36.38,0,0,1,0,308.62V259.14H300v49.48A36.38,36.38,0,0,1,263.62,345Z"/><rect class="cls-2" y="45" width="300" height="253.39" rx="36.38"/><path class="cls-3" d="M193.68,98.46A21.85,21.85,0,0,0,150,97.51a21.85,21.85,0,0,0-43.68.95c0,28,31.55,48.49,43.66,48.55h0C162.13,147,193.68,126.43,193.68,98.46Z"/><path class="cls-4" d="M168.1,112c.29-4.87-3.33-9.5-8.19-10a9.08,9.08,0,0,0-6.74,2.14,4.9,4.9,0,0,1-6.34,0,9.08,9.08,0,0,0-6.74-2.14c-4.86.45-8.48,5.08-8.19,10,.66,11.14,13.2,19.21,18.09,19.23h0C154.9,131.25,167.44,123.18,168.1,112Z"/><path class="cls-5" d="M126.23,223.87A12.38,12.38,0,0,0,113.94,238c2.66,17.46,11.46,35,36.06,35s33.4-17.57,36.06-35a12.38,12.38,0,0,0-12.29-14.13Z"/><path class="cls-5" d="M288.85,288.21,255,241.53l-5.67,4.11,34,46.93A37.28,37.28,0,0,0,288.85,288.21Z"/><path class="cls-5" d="M11.15,288.21,45,241.53l5.67,4.11-34,46.93A37.28,37.28,0,0,1,11.15,288.21Z"/><circle class="cls-3" cx="39.75" cy="243.59" r="29"/><circle class="cls-3" cx="251.69" cy="243.59" r="29"/><circle class="cls-4" cx="39.75" cy="243.59" r="14.72"/><circle class="cls-4" cx="251.69" cy="243.59" r="14.72"/><polygon class="cls-5" points="300 172.72 266.27 191.41 269.66 197.54 300 180.72 300 172.72"/><rect class="cls-5" x="226.26" y="45" width="7" height="122.6"/><path class="cls-5" d="M269.66,197.54h-17a22.9,22.9,0,0,0-45-6.18,8.48,8.48,0,0,1-8.17,6.18h0a8.5,8.5,0,0,1-8.22-10.71,39.91,39.91,0,0,1,78.35,10.71Z"/><circle class="cls-5" cx="229.76" cy="127.1" r="16.91"/><polygon class="cls-5" points="0 172.72 33.73 191.41 30.34 197.54 0 180.72 0 172.72"/><rect class="cls-5" x="66.74" y="45" width="7" height="122.6"/><path class="cls-5" d="M30.34,197.54h17a22.9,22.9,0,0,1,45-6.18,8.48,8.48,0,0,0,8.17,6.18h0a8.5,8.5,0,0,0,8.22-10.71,39.91,39.91,0,0,0-78.35,10.71Z"/><circle class="cls-5" cx="70.24" cy="127.1" r="16.91"/><path class="cls-5" d="M155.22,45H144.78c0-.22,3.58-22.4,34.59-27.19l.61,4C152.48,26,155.24,44.24,155.22,45Z"/><path class="cls-3" d="M195.41,27.66a7.09,7.09,0,0,0-5.59-13,7.09,7.09,0,0,0-6.16-12.76c-8.25,3.77-10.06,15.83-8.45,19.41h0C176.86,24.87,187.16,31.42,195.41,27.66Z"/></g></svg>