<svg id="Layer_1" data-name="Layer 1" xmlns="http://www.w3.org/2000/svg" xmlns:xlink="http://www.w3.org/1999/xlink" viewBox="0 0 300 345"><defs><style>.cls-1{fill:url(#linear-gradient);}.cls-2{fill:url(#linear-gradient-2);}.cls-3{fill:#ffcd05;}.cls-4{fill:#4ab96d;}.cls-5{fill:#cd8029;}.cls-6{fill:#fabc2e;}.cls-7{fill:#fff;}.cls-8{fill:#414042;}.cls-9{fill:#f4fbfe;}.cls-10{fill:#680e19;}.cls-11{fill:#c62639;}.cls-12{fill:#dd7399;}.cls-13{fill:#914f93;}.cls-14{fill:#5c2c60;}.cls-15{fill:#c62c6b;}.cls-16{fill:#b26a28;}.cls-17{fill:#66402d;}.cls-18{fill:#753f77;}.cls-19{fill:#a768ab;}.cls-20{fill:#f1f2f2;}</style><linearGradient id="linear-gradient" x1="150" y1="356.11" x2="150" y2="161.16" gradientUnits="userSpaceOnUse"><stop offset="0.08" stop-color="#bfe7fb"/><stop offset="0.61" stop-color="#0db0da"/></linearGradient><linearGradient id="linear-gradient-2" x1="150" y1="356.32" x2="150" y2="184.51" gradientUnits="userSpaceOnUse"><stop offset="0.02" stop-color="#fabc2e"/><stop offset="1" stop-color="#cd8029"/></linearGradient></defs><title>blook_hatter</title><g id="alice_in_wonderland" data-name="alice in wonderland"><path class="cls-1" d="M263.62,345H36.38A36.38,36.38,0,0,1,0,308.62V259.14H300v49.48A36.38,36.38,0,0,1,263.62,345Z"/><polygon class="cls-2" points="150 345 150 345 198.57 298.39 101.43 298.39 150 345"/><rect class="cls-3" y="45" width="300" height="253.39" rx="36.38"/><path class="cls-4" d="M222.46,281.88c-26.88,4.6-17.9,49.61-14.58,63.12h55.74A36.38,36.38,0,0,0,300,308.62V281.45C266.44,285.54,249.58,277.23,222.46,281.88Z"/><path class="cls-4" d="M77.54,281.88c-27.12-4.65-44,3.66-77.54-.43v27.17A36.38,36.38,0,0,0,36.38,345H92.12C95.44,331.49,104.42,286.48,77.54,281.88Z"/><ellipse class="cls-5" cx="258.08" cy="237.51" rx="11.32" ry="7.43"/><ellipse class="cls-5" cx="231.21" cy="230.08" rx="7.41" ry="5.39"/><circle class="cls-5" cx="235.8" cy="246.45" r="5.39"/><ellipse class="cls-5" cx="41.92" cy="237.51" rx="11.32" ry="7.43"/><ellipse class="cls-5" cx="68.79" cy="230.08" rx="7.41" ry="5.39"/><circle class="cls-5" cx="64.2" cy="246.45" r="5.39"/><path class="cls-5" d="M140.45,160.49c.74,3.73,1.25,7.45,1.72,11.18s.83,7.44,1.1,11.17.54,7.45.6,11.17a92.87,92.87,0,0,1-.42,11.18L143,209.1l-3-.94h0c-6.08-.28-12.61,0-18.11,1.67a14.85,14.85,0,0,0-6.64,3.87,8.64,8.64,0,0,0-1.62,3,10.41,10.41,0,0,0-.38,1.75,13.36,13.36,0,0,0-.07,1.9,14.57,14.57,0,0,0,.2,1.89A14,14,0,0,0,114,224a11.67,11.67,0,0,0,1.91,3.29,22,22,0,0,0,6.75,5.17c5.35,2.86,11.47,4.91,17.84,7.19a34.16,34.16,0,0,1-10.19.52,35.7,35.7,0,0,1-10.13-2.37,26.14,26.14,0,0,1-9.23-6.14,18.83,18.83,0,0,1-3.3-5,16.76,16.76,0,0,1-1.41-5.91,20.16,20.16,0,0,1,0-3,17.43,17.43,0,0,1,.57-3.07,14.65,14.65,0,0,1,3-5.67,18.17,18.17,0,0,1,4.79-3.87,24.75,24.75,0,0,1,5.3-2.19,41.17,41.17,0,0,1,10.6-1.48c1.74,0,3.47,0,5.19.14a51.11,51.11,0,0,1,5.21.65h0l-3.41,3A95,95,0,0,1,137,194c.06-3.72.29-7.45.6-11.17s.66-7.45,1.1-11.17S139.71,164.22,140.45,160.49Z"/><path class="cls-6" d="M279,189.94c0,20.13-16.32,27.32-36.45,27.32s-36.45-7.19-36.45-27.32a36.45,36.45,0,1,1,72.9,0Z"/><path class="cls-6" d="M93.87,189.94c0,20.13-16.32,24.59-36.45,24.59S21,210.07,21,189.94a36.45,36.45,0,0,1,72.9,0Z"/><path class="cls-7" d="M279,200.06c0,20.13-16.32,24.43-36.45,24.43s-36.45-4.3-36.45-24.43a36.45,36.45,0,1,1,72.9,0Z"/><path class="cls-7" d="M93.87,200.06c0,20.13-16.32,24.43-36.45,24.43S21,220.19,21,200.06a36.45,36.45,0,0,1,72.9,0Z"/><path class="cls-8" d="M70.84,194.48a13.21,13.21,0,0,1-19.19-17.9,22.94,22.94,0,1,0,19.19,17.9Zm-32,19.76a5.45,5.45,0,1,1,5.45-5.45A5.45,5.45,0,0,1,38.8,214.24Z"/><path class="cls-8" d="M273.75,185.71a13.22,13.22,0,0,1-19.08-17.77,24.13,24.13,0,0,0-3.32-.24,22.93,22.93,0,1,0,22.93,22.93A23.4,23.4,0,0,0,273.75,185.71ZM241.53,205.6a5.46,5.46,0,1,1,5.45-5.46A5.47,5.47,0,0,1,241.53,205.6Z"/><path class="cls-3" d="M212.22,225.26s24.3-19.47,61.58-.77"/><path class="cls-6" d="M212.22,225.26a35.3,35.3,0,0,1,14.05-8.67,48.87,48.87,0,0,1,16.54-2.7,55.47,55.47,0,0,1,8.35.85c1.37.29,2.76.47,4.1.85s2.66.82,4,1.24c.66.22,1.32.41,2,.67l1.9.84q1.89.85,3.75,1.74a77.59,77.59,0,0,1,6.94,4.41c-2.71-.58-5.25-1.45-7.83-2.12-1.31-.29-2.61-.59-3.89-.91l-1.92-.49c-.64-.14-1.3-.22-1.94-.34-1.3-.23-2.59-.46-3.86-.72s-2.59-.31-3.88-.48l-1.93-.24c-.64-.09-1.29-.07-1.94-.11-1.29-.05-2.58-.16-3.87-.19a74.11,74.11,0,0,0-15.41,1.47A67.28,67.28,0,0,0,212.22,225.26Z"/><path class="cls-3" d="M26.2,225.26s24.3-19.47,61.58-.77"/><path class="cls-6" d="M26.2,225.26a35.3,35.3,0,0,1,14.05-8.67,48.85,48.85,0,0,1,16.53-2.7,55.6,55.6,0,0,1,8.36.85c1.37.29,2.75.47,4.09.85s2.67.82,4,1.24c.66.22,1.32.41,2,.67l1.9.84q1.9.85,3.75,1.74a76.35,76.35,0,0,1,7,4.41c-2.71-.58-5.25-1.45-7.84-2.12-1.3-.29-2.6-.59-3.88-.91L74.14,221c-.64-.14-1.3-.22-2-.34-1.29-.23-2.58-.46-3.86-.72s-2.58-.31-3.87-.48l-1.93-.24c-.64-.09-1.29-.07-1.94-.11-1.29-.05-2.58-.16-3.87-.19a74.11,74.11,0,0,0-15.41,1.47A67.12,67.12,0,0,0,26.2,225.26Z"/><path class="cls-9" d="M134.65,245.56a9.54,9.54,0,0,0-3.36.44c-6.52,2.22-10.79,8.06-9.76,13.94,2.29,13.07,11.88,31.32,48.82,23.14,36.66-8.11,37.91-28.46,34.56-41.29a11.51,11.51,0,0,0-6.11-7.29,13.27,13.27,0,0,0-13.49,1.15c-3.13,2.15-9,5.3-18.54,7.41C153.78,245.94,139.3,245.72,134.65,245.56Z"/><path class="cls-10" d="M121.78,261.25c2.7,12.94,12.85,29.74,48.57,21.83s37.82-27.42,34.81-40.29c0,0-8.34,7.64-40.47,14.76S121.78,261.25,121.78,261.25Z"/><ellipse class="cls-11" cx="168.52" cy="274.85" rx="32.3" ry="8.44" transform="translate(-55.43 42.93) rotate(-12.48)"/><path class="cls-12" d="M127.81,280.94c3.13,5.57,2.92,13.87,0,20.47a31.16,31.16,0,0,0-2.14,19c1.34,7.07-.31,15.2-4.59,19.94-3.68,4.07-8.49,5.8-13.07,3.9-14.82-6.16-33.93-18.22-31.59-39s23.66-28.28,39.48-31C120.83,273.4,125.13,276.15,127.81,280.94Z"/><path class="cls-12" d="M24.2,269.26c-4.29,4.74-5.93,12.87-4.59,19.94a32.68,32.68,0,0,1,.42,9.66,32.79,32.79,0,0,1-2.56,9.33c-2.88,6.6-3.09,14.89,0,20.46,2.68,4.79,7,7.54,11.88,6.71,15.81-2.71,37.13-10.21,39.47-31s-16.77-32.85-31.58-39C32.69,263.46,27.88,265.19,24.2,269.26Z"/><path class="cls-13" d="M56,276.21a9.62,9.62,0,1,1-16.42-9.85l-2.31-1c-4.58-1.9-9.39-.17-13.07,3.9A18.18,18.18,0,0,0,20.79,275c.23,0,.46,0,.69,0a9.62,9.62,0,1,1,.5,19.23,9.79,9.79,0,0,1-1.8-.12,29.82,29.82,0,0,1-.15,4.77,32.79,32.79,0,0,1-2.56,9.33,27.2,27.2,0,0,0-2.2,12.08A9.61,9.61,0,1,1,27,335.48a10.42,10.42,0,0,0,2.35-.12,88.38,88.38,0,0,0,12.13-2.94,9.24,9.24,0,0,1-.24-1.91,9.62,9.62,0,0,1,16.78-6.67,28.58,28.58,0,0,0,10.8-19.47C70.23,292.16,64.2,283,56,276.21ZM40.52,317.73a9.62,9.62,0,1,1,9.36-9.87A9.62,9.62,0,0,1,40.52,317.73Z"/><path class="cls-13" d="M108.52,336.3a9.61,9.61,0,0,1,16.69-3.83,27.22,27.22,0,0,0,.5-12.08,32.68,32.68,0,0,1-.42-9.66,29.81,29.81,0,0,1,.95-4.82,10.79,10.79,0,0,1-1.84-.28A9.62,9.62,0,0,1,129.1,287c.25.06.49.14.73.22a18,18,0,0,0-2-6.25c-2.68-4.79-7-7.54-11.87-6.71l-2.57.48a9.61,9.61,0,1,1-18.2,6c-9.46,4.76-17.34,12.37-18.71,24.53a28.66,28.66,0,0,0,6.24,21.45,9.62,9.62,0,0,1,15,10.16,9.8,9.8,0,0,1-.69,1.88,89.28,89.28,0,0,0,11.09,5.52,10.45,10.45,0,0,0,2.5.68A9.61,9.61,0,0,1,108.52,336.3Zm-7.34-11.77a9.62,9.62,0,1,1,11.68-7A9.62,9.62,0,0,1,101.18,324.53Z"/><path class="cls-14" d="M100.5,315.6c-1.9-1.72-3.85-3.33-5.85-4.89-1.09-.84-2.21-1.67-3.33-2.47q.11-.64.18-1.32c.07-.58.09-1.13.12-1.68,1.34-.61,2.66-1.23,4-1.9,2.29-1.16,4.56-2.39,6.78-3.74a60,60,0,0,0,6.51-4.49,59.43,59.43,0,0,0-7.87.78c-2.57.4-5.09.93-7.59,1.52-.83.19-1.64.42-2.46.63-2.09-7.34-8.47-10.67-16.25-11.55-7.61-.85-14.51,1.51-18.22,7.74-.81-.42-1.62-.85-2.44-1.26-2.31-1.13-4.66-2.21-7.07-3.17a58.39,58.39,0,0,0-7.5-2.51,60.81,60.81,0,0,0,5.35,5.82c1.87,1.81,3.8,3.52,5.78,5.16,1.13,1,2.29,1.85,3.46,2.74-.1.55-.2,1.09-.26,1.66s-.07.88-.1,1.31c-1.28.54-2.55,1.1-3.82,1.69-2.29,1.07-4.56,2.21-6.79,3.46a58.36,58.36,0,0,0-6.55,4.19,60,60,0,0,0,7.76-.49c2.54-.31,5-.73,7.52-1.22l2.56-.56c2.1,7.19,8.41,11.17,16.2,12.05s15-1,18.63-8.07c.73.35,1.46.71,2.21,1,2.31,1,4.65,2,7.06,2.87a59.45,59.45,0,0,0,7.45,2.2A58.27,58.27,0,0,0,100.5,315.6Z"/><path class="cls-15" d="M49,312.12a9.49,9.49,0,0,0,.88-4.26,9.93,9.93,0,0,0-.28-2.05c-2.19,1-4.36,2.12-6.49,3.32a58.36,58.36,0,0,0-6.55,4.19,58.26,58.26,0,0,0,7.76-.49C45.89,312.64,47.45,312.39,49,312.12Z"/><path class="cls-15" d="M106,321.14a58.27,58.27,0,0,0-5.45-5.54c-1.81-1.64-3.69-3.19-5.59-4.68a9.61,9.61,0,0,0-.78,6.3c1.44.6,2.89,1.18,4.37,1.72A59.45,59.45,0,0,0,106,321.14Z"/><path class="cls-6" d="M263.62,57H36.38A36.16,36.16,0,0,0,18.7,61.59c-4.68-5.29-7,.11-6.46,4.59A36.24,36.24,0,0,0,0,93.38V155.3s35.81,9.55,75.41-19.54A130.31,130.31,0,0,0,105.13,139c60.68,0,89.89-35.65,89.89-35.65h0s10,41.08,53.88,41.08l-9.28-26.72S254.87,155.3,300,155.3V93.38A36.38,36.38,0,0,0,263.62,57Z"/><path class="cls-5" d="M263.62,45H36.38A36.38,36.38,0,0,0,0,81.38V143.3s45.81,12.23,91.09-33.06L195,91.35s10,41.08,53.88,41.08l-9.28-26.72S254.87,143.3,300,143.3V81.38A36.38,36.38,0,0,0,263.62,45Z"/><path class="cls-16" d="M195,91.35S165.81,127,105.13,127,11.39,92.13,11.39,40.28c0,0,22.42,34.37,53.21,34.37S149.7,19,195,91.35Z"/><ellipse class="cls-17" cx="58.19" cy="125.53" rx="29.61" ry="17.17" transform="translate(-40.8 28.86) rotate(-20.81)"/><ellipse class="cls-17" cx="241.81" cy="125.53" rx="17.17" ry="29.61" transform="translate(49.69 318.71) rotate(-72.59)"/><ellipse class="cls-16" cx="241.79" cy="79.65" rx="26.3" ry="55.72" transform="translate(93.46 286.54) rotate(-72.59)"/><ellipse class="cls-18" cx="243.79" cy="74.65" rx="26.3" ry="55.72" transform="translate(99.63 284.95) rotate(-72.59)"/><path class="cls-13" d="M279.88,80.67c-3.22,10.26-21.31,13.73-40.4,7.74s-32-19.16-28.75-29.42l10.11-49,78.73,24.68Z"/><ellipse class="cls-19" cx="260.2" cy="22.31" rx="19.47" ry="41.25" transform="translate(161.08 263.92) rotate(-72.59)"/><path class="cls-20" d="M213.41,46l-5.25-25.68s9.84,11.74,21.4,15.37l-4.29,22.68-4,12.58-8.5-10.26Z"/><path class="cls-4" d="M245.84,68.13c-15.94-5-28.25-13.77-32.43-22.14l-2.68,13c-3.22,10.26,9.66,23.43,28.75,29.42s37.18,2.52,40.4-7.74l5.22-12.21C276.89,73,261.78,73.13,245.84,68.13Z"/></g></svg>