<svg id="Layer_1" data-name="Layer 1" xmlns="http://www.w3.org/2000/svg" xmlns:xlink="http://www.w3.org/1999/xlink" viewBox="0 0 300 345"><defs><style>.cls-1{fill:url(#linear-gradient);}.cls-2{fill:#d71f27;}.cls-3,.cls-8{fill:#9f1216;}.cls-4{fill:#ffdd4c;}.cls-5{fill:#f9a023;}.cls-6{fill:#d5611d;}.cls-7{fill:#fbac21;}.cls-8{fill-opacity:0.6;}</style><linearGradient id="linear-gradient" x1="150" y1="356.11" x2="150" y2="161.16" gradientUnits="userSpaceOnUse"><stop offset="0" stop-color="#ed1c24"/><stop offset="0.34" stop-color="#9a1c25"/></linearGradient></defs><g id="robot"><path class="cls-1" d="M263.62,345H36.38A36.38,36.38,0,0,1,0,308.62V259.14H300v49.48A36.38,36.38,0,0,1,263.62,345Z"/><rect class="cls-2" y="45" width="300" height="253.39" rx="36.38"/><polygon class="cls-3" points="260.95 223.46 170.25 111.81 129.05 111.81 34.47 227.47 0 193 0 225.64 34.47 260.11 149.72 119.18 260.95 256.1 300 217.05 300 184.41 260.95 223.46"/><polygon class="cls-4" points="72.15 234.52 72.15 277.59 88.34 277.59 88.34 252.25 72.15 234.52"/><polygon class="cls-4" points="211.66 252.25 211.66 277.59 227.85 277.59 227.85 234.52 211.66 252.25"/><polygon class="cls-5" points="211.66 252.25 227.85 234.52 72.15 234.52 88.34 252.25 211.66 252.25"/><rect class="cls-6" x="88.34" y="252.25" width="123.32" height="25.34"/><path class="cls-7" d="M283.26,165.08a48,48,0,0,1-95.94,0Z"/><path class="cls-4" d="M268.22,179.75h0a48,48,0,0,1-39.29,32.87,49.5,49.5,0,0,0,6.37.43,48,48,0,0,0,48-48Z"/><path class="cls-6" d="M268.21,179.75H189.62a48,48,0,0,0,39.3,32.87A48,48,0,0,0,268.21,179.75Z"/><path class="cls-5" d="M270.51,165.08H187.32a47.72,47.72,0,0,0,2.3,14.67h78.6l15-14.67Z"/><path class="cls-7" d="M112.68,165.08a48,48,0,0,1-95.94,0Z"/><path class="cls-4" d="M31.78,179.75h0l-15-14.67a48,48,0,0,0,48,48,49.5,49.5,0,0,0,6.37-.43A48,48,0,0,1,31.78,179.75Z"/><path class="cls-6" d="M110.38,179.75H31.78a48,48,0,0,0,39.3,32.87A48,48,0,0,0,110.38,179.75Z"/><path class="cls-5" d="M29.49,165.08H16.74l15,14.67h78.6a47.72,47.72,0,0,0,2.3-14.67Z"/><path class="cls-8" d="M199.78,45,150,96.85,100.22,45h-57l76.55,102h0l3.48,5c7.39,10.74,17.09,16.11,26.78,16.11s19.39-5.37,26.78-16.11l3.48-5h0l47.63-57.54L258.49,45Z"/><path class="cls-4" d="M150,124.29c6.75,0,13.5-3.05,19.21-9.14L259,19.41H228.73c-8.9,0-17.58,4.06-24.82,11.59L150,87.16v37.13Z"/><path class="cls-5" d="M150,124.29V87.16L96.09,31c-7.24-7.53-15.92-11.59-24.82-11.59H41l89.83,95.74C136.5,121.24,143.25,124.29,150,124.29Z"/><path class="cls-6" d="M130.79,115.15,41,19.41l83.1,110.7h0l3,4.33c6.34,9.2,14.65,13.8,23,13.8v-24C143.25,124.29,136.5,121.24,130.79,115.15Z"/><path class="cls-5" d="M169.21,115.15c-5.71,6.09-12.46,9.14-19.21,9.14v24c8.31,0,16.62-4.6,23-13.8l3-4.33h0l40.82-49.32L259,19.41Z"/></g></svg>