<svg id="Layer_1" data-name="Layer 1" xmlns="http://www.w3.org/2000/svg" xmlns:xlink="http://www.w3.org/1999/xlink" viewBox="0 0 300 345"><defs><style>.cls-1{fill:url(#linear-gradient);}.cls-2{fill:#77c6e2;}.cls-3{fill:#ecf7fe;}.cls-4{fill:#9bd4ee;}.cls-5{fill:#d0ebf6;}.cls-6{fill:none;stroke:#77c6e2;stroke-miterlimit:10;stroke-width:20px;}.cls-7{fill:#15141a;}.cls-8{fill:#2f2c38;}.cls-9{fill:#dd7399;}.cls-10{fill:#c62c6b;}</style><linearGradient id="linear-gradient" x1="150" y1="441.02" x2="150" y2="166.34" gradientUnits="userSpaceOnUse"><stop offset="0.36" stop-color="#c7eaf7"/><stop offset="1" stop-color="#6eb8cc"/></linearGradient></defs><title>blook-milk-carton</title><path class="cls-1" d="M263.62,345H36.38A36.38,36.38,0,0,1,0,308.62V259.14H300v49.48A36.38,36.38,0,0,1,263.62,345Z"/><path class="cls-2" d="M300,125.54H0V283.88a36.38,36.38,0,0,0,36.38,36.38H263.62A36.38,36.38,0,0,0,300,283.88Z"/><path class="cls-3" d="M36.38,320.26H263.62A36.38,36.38,0,0,0,300,283.88V208.59a24.28,24.28,0,0,0-8.67,13.75l-5.94,25.93a3.91,3.91,0,0,1-7.61.07h0c-2.6-10.4-17.14-11.06-20.66-.94l-5.94,17a7.69,7.69,0,0,1-14.58-.13,12,12,0,0,0-20.78-3.71h0a21,21,0,0,1-35.12-3.34l-7.31-14a14.41,14.41,0,0,0-26,.9L140,261.06a10.77,10.77,0,0,1-20-.7l-1.51-4.23a11.62,11.62,0,0,0-21.21-1.55l-5.37,10.08a11.82,11.82,0,0,1-20.36.88L57.8,244.31a9.64,9.64,0,0,0-17.64,3.95h0a6.22,6.22,0,0,1-11.86,1.65L17.52,225.18A26.58,26.58,0,0,0,0,210v73.89A36.38,36.38,0,0,0,36.38,320.26Z"/><polygon class="cls-4" points="0 125.54 30.98 48.04 269.02 48.04 300 125.54 0 125.54"/><path class="cls-5" d="M31,35V28.16A28.16,28.16,0,0,1,59.14,0H240.86A28.16,28.16,0,0,1,269,28.16V35Z"/><rect class="cls-2" x="30.98" y="29.61" width="238.03" height="19.79"/><path class="cls-3" d="M216.51,236.52,230.58,214a15.27,15.27,0,0,1,15.08-7.05l.33,0a10.78,10.78,0,0,1,8.8,13.88h0a19.35,19.35,0,0,1-16.54,13.49Z"/><path class="cls-3" d="M50.94,215.94,27.85,202.77A15.29,15.29,0,0,1,20.22,188l0-.33a10.77,10.77,0,0,1,13.52-9.33h0a19.35,19.35,0,0,1,14.13,16Z"/><path class="cls-6" d="M228.46,166c-21.81-7.7-32.5-2.51-37.14,1.67-9.07-7.2-22.23-11.77-41.32-11.77s-32.25,4.57-41.32,11.77c-4.64-4.18-15.33-9.37-37.14-1.67-5.12,1.81-6,8.54-1.12,11,3,1.55,5.69,3.52,7.07,6,2.12,3.76,8.31,8.4,14.83,10.54h0c-3.34,11.77-24.58,64.85,6.48,90.69a1.56,1.56,0,0,1,.2.16c.54.44,1.1.88,1.68,1.31l.48.35c.5.37,1,.72,1.53,1.08l.61.4c.51.33,1,.65,1.57,1l.53.32c5.54,14.73,23.41,19.82,44.62,19.82,21.38,0,39.37-4.61,44.76-19.9,28.77-16.84,24.8-51.88,18.91-75.06v0c-.82-3.23-1.67-6.22-2.48-8.9l0-.13c-.13-.41-.25-.81-.37-1.21l0-.14c-.84-2.69-1.6-5-2.2-6.9l-.09-.28-.21-.67-.09-.3c-.07-.21-.13-.4-.18-.59a2.58,2.58,0,0,1-.08-.26c-.08-.26-.16-.51-.22-.74,6.53-2.14,12.73-6.79,14.85-10.55,1.38-2.43,4-4.4,7.07-6C234.41,174.5,233.58,167.77,228.46,166Z"/><path class="cls-7" d="M177.18,169.18s.22-29.23,33.34-36.7c0,0-8.61,17-8.61,22.87s-.22,20.23-11.7,20.23Z"/><path class="cls-7" d="M122.82,169.18s-.22-29.23-33.34-36.7c0,0,8.61,17,8.61,22.87s.22,20.23,11.7,20.23Z"/><path class="cls-3" d="M228.46,166c-21.81-7.7-32.5-2.51-37.14,1.67-9.07-7.2-22.23-11.77-41.32-11.77s-32.25,4.57-41.32,11.77c-4.64-4.18-15.33-9.37-37.14-1.67-5.12,1.81-6,8.54-1.12,11,3,1.55,5.69,3.52,7.07,6,2.12,3.76,8.32,8.41,14.85,10.55C87.88,209.18,51.55,298.39,150,298.39s62.12-89.21,57.66-104.91c6.53-2.14,12.73-6.79,14.85-10.55,1.38-2.43,4-4.4,7.07-6C234.41,174.5,233.58,167.77,228.46,166Z"/><path class="cls-8" d="M92.3,193.48s28.57-11.84,40,17.44,4.76,55.92-2.11,62.79c-4.12,4.12-10.68,13-15.27,19.47C61.46,273.9,88.49,206.89,92.3,193.48Z"/><path class="cls-8" d="M207.66,193.48s-28.57-11.84-40,17.44-4.75,55.92,2.11,62.79c4.12,4.12,10.68,13,15.27,19.47C238.5,273.9,211.47,206.89,207.66,193.48Z"/><ellipse class="cls-9" cx="150" cy="278.25" rx="46.41" ry="30.32"/><ellipse class="cls-10" cx="125.36" cy="277.74" rx="14.26" ry="10.32" transform="translate(-178.11 305.31) rotate(-70.9)"/><ellipse class="cls-10" cx="174.64" cy="277.74" rx="10.32" ry="14.26" transform="translate(-81.27 72.44) rotate(-19.1)"/><ellipse class="cls-7" cx="196.16" cy="231.37" rx="10.73" ry="16.56"/><ellipse class="cls-7" cx="103.84" cy="231.37" rx="10.73" ry="16.56"/></svg>