<svg id="Layer_1" data-name="Layer 1" xmlns="http://www.w3.org/2000/svg" xmlns:xlink="http://www.w3.org/1999/xlink" viewBox="0 0 300 345"><defs><style>.cls-1{fill:url(#linear-gradient);}.cls-2{fill:#f7941d;}.cls-3{fill:#ecf7fe;}.cls-4{fill:#f3b71c;}.cls-5{fill:#c7eaf7;}.cls-6{fill:#6eb8cc;}.cls-7{fill:#009444;}.cls-8{fill:#39b54a;}.cls-10,.cls-9{fill:#f47e20;}.cls-9{stroke:#f47e20;stroke-miterlimit:10;}.cls-11{fill:none;stroke:#f3b71c;stroke-linejoin:bevel;stroke-width:3px;}</style><linearGradient id="linear-gradient" x1="150" y1="441.02" x2="150" y2="166.34" gradientUnits="userSpaceOnUse"><stop offset="0.28" stop-color="#f7941d"/><stop offset="0.45" stop-color="#f47e20"/></linearGradient></defs><title>blook-orange-carton</title><path class="cls-1" d="M263.62,345H36.38A36.38,36.38,0,0,1,0,308.62V259.14H300v49.48A36.38,36.38,0,0,1,263.62,345Z"/><path class="cls-2" d="M300,125.54H0V283.88a36.38,36.38,0,0,0,36.38,36.38H263.62A36.38,36.38,0,0,0,300,283.88Z"/><rect class="cls-3" y="156.96" width="300" height="131.06"/><polygon class="cls-4" points="0 125.54 30.98 48.04 269.02 48.04 300 125.54 0 125.54"/><path class="cls-2" d="M240.86,0H59.14A28.16,28.16,0,0,0,31,28.16V49.4H269V28.16A28.16,28.16,0,0,0,240.86,0Z"/><path class="cls-5" d="M199.91,109.21c-7.41-3.71-12.35-8.85-8.64-16.25l33.24-66.37a33.8,33.8,0,0,1,45.32-15.08l21.88,11a15,15,0,1,1-13.43,26.83l-21.88-11A3.79,3.79,0,0,0,251.33,40L218.1,106.39C214.39,113.8,207.32,112.92,199.91,109.21Z"/><ellipse class="cls-6" cx="287.25" cy="36.53" rx="10.24" ry="7.84" transform="translate(119.22 272.36) rotate(-61.78)"/><path class="cls-7" d="M115.09,245.67S109,207.27,62,212.53c0,0,9.4,18.12,15.9,30.05C83.62,253,99.81,256.76,115.09,245.67Z"/><path class="cls-8" d="M126,252s-28.92-26-62.1,7.64c0,0,18.7,8.17,31.25,13.35C106.14,277.48,121.07,270.19,126,252Z"/><circle class="cls-2" cx="229.91" cy="215.64" r="49.1"/><circle class="cls-4" cx="253.47" cy="227.15" r="14.53"/><path class="cls-7" d="M226.62,193.43s-14.46-36.09,28.53-55.69c0,0,1.25,20.38,1.79,33.95C257.41,183.59,245.43,195.1,226.62,193.43Z"/><path class="cls-8" d="M226.67,193.54s11.47-37.15,57.21-25.34c0,0-11.85,16.62-20,27.51C256.8,205.26,240.24,206.67,226.67,193.54Z"/><path class="cls-9" d="M214.75,228a51.44,51.44,0,0,0-23-43.18,49.06,49.06,0,0,0,13.89,73.54A55.21,55.21,0,0,0,214.75,228Z"/><path class="cls-2" d="M201.16,228.19c0,26.29-22,47.61-49.1,47.61S103,254.48,103,228.19s22-45.12,49.09-45.12S201.16,201.89,201.16,228.19Z"/><ellipse class="cls-4" cx="152.06" cy="216.76" rx="38.22" ry="28.76"/><ellipse class="cls-10" cx="152.06" cy="216.76" rx="33.21" ry="24.99"/><ellipse class="cls-4" cx="152.06" cy="212.82" rx="7.68" ry="5.78"/><polyline class="cls-11" points="137.49 241.75 152.06 212.82 173.78 239.6"/><polyline class="cls-11" points="187.46 211.88 152.06 212.82 163.46 190.59"/><polyline class="cls-11" points="135.08 191.78 152.06 212.82 117.57 219.96"/></svg>