<?xml version="1.0" encoding="UTF-8" standalone="no"?>
<svg id="Layer_1" data-name="Layer 1" viewBox="0 0 300 345" version="1.1" sodipodi:docname="pirateShip.svg" xml:space="preserve" inkscape:version="1.2 (dc2aedaf03, 2022-05-15)" xmlns:inkscape="http://www.inkscape.org/namespaces/inkscape" xmlns:sodipodi="http://sodipodi.sourceforge.net/DTD/sodipodi-0.dtd" xmlns:xlink="http://www.w3.org/1999/xlink" xmlns="http://www.w3.org/2000/svg" xmlns:svg="http://www.w3.org/2000/svg"><sodipodi:namedview id="namedview63" pagecolor="#505050" bordercolor="#ffffff" borderopacity="1" inkscape:showpageshadow="0" inkscape:pageopacity="0" inkscape:pagecheckerboard="1" inkscape:deskcolor="#505050" showgrid="false" inkscape:zoom="0.485" inkscape:cx="152.57732" inkscape:cy="255.6701" inkscape:window-width="1366" inkscape:window-height="705" inkscape:window-x="-8" inkscape:window-y="-8" inkscape:window-maximized="1" inkscape:current-layer="Layer_1"/><defs id="defs9"><linearGradient inkscape:collect="always" id="linearGradient29230"><stop style="stop-color:#89d8f3;stop-opacity:1;" offset="0" id="stop29226"/><stop style="stop-color:#ffe288;stop-opacity:1;" offset="1" id="stop29228"/></linearGradient><inkscape:path-effect effect="fillet_chamfer" id="path-effect18245" is_visible="true" lpeversion="1" nodesatellites_param="F,0,0,1,0,1.533566,0,1 @ F,0,0,1,0,0,0,1 @ F,0,0,1,0,0,0,1 @ F,0,0,1,0,0,0,1 @ F,0,0,1,0,1.7117889,0,1" unit="px" method="auto" mode="F" radius="0" chamfer_steps="1" flexible="false" use_knot_distance="true" apply_no_radius="true" apply_with_radius="true" only_selected="false" hide_knots="false"/><inkscape:path-effect effect="fillet_chamfer" id="path-effect14798" is_visible="true" lpeversion="1" nodesatellites_param="F,0,0,1,0,4.6762483,0,1 @ F,0,0,1,0,1.3438104,0,1 @ F,0,0,1,0,2.1888016,0,1 @ F,0,0,1,0,3.228097,0,1" unit="px" method="auto" mode="F" radius="0" chamfer_steps="1" flexible="false" use_knot_distance="true" apply_no_radius="true" apply_with_radius="true" only_selected="false" hide_knots="false"/><inkscape:path-effect effect="fillet_chamfer" id="path-effect13697" is_visible="true" lpeversion="1" nodesatellites_param="F,0,0,1,0,4.6762483,0,1 @ F,0,0,1,0,1.3438104,0,1 @ F,0,0,1,0,2.1888016,0,1 @ F,0,0,1,0,3.228097,0,1" unit="px" method="auto" mode="F" radius="0" chamfer_steps="1" flexible="false" use_knot_distance="true" apply_no_radius="true" apply_with_radius="true" only_selected="false" hide_knots="false"/><inkscape:path-effect effect="fillet_chamfer" id="path-effect8718" is_visible="true" lpeversion="1" nodesatellites_param="F,0,0,1,0,1.533566,0,1 @ F,0,0,1,0,0,0,1 @ F,0,0,1,0,0,0,1 @ F,0,0,1,0,0,0,1 @ F,0,0,1,0,1.7117889,0,1" unit="px" method="auto" mode="F" radius="0" chamfer_steps="1" flexible="false" use_knot_distance="true" apply_no_radius="true" apply_with_radius="true" only_selected="false" hide_knots="false"/><inkscape:path-effect effect="fillet_chamfer" id="path-effect5564" is_visible="true" lpeversion="1" nodesatellites_param="F,0,0,1,0,4.6762483,0,1 @ F,0,0,1,0,1.3438104,0,1 @ F,0,0,1,0,2.1888016,0,1 @ F,0,0,1,0,3.228097,0,1" unit="px" method="auto" mode="F" radius="0" chamfer_steps="1" flexible="false" use_knot_distance="true" apply_no_radius="true" apply_with_radius="true" only_selected="false" hide_knots="false"/><style id="style2">.cls-1{fill:url(#linear-gradient);}.cls-2{fill:#f3c1da;}.cls-3{fill:#da77ac;}.cls-4{fill:#edb1d0;}.cls-5,.cls-6{fill:none;stroke-linecap:round;}.cls-5{stroke:#f38db6;stroke-linejoin:round;stroke-width:40px;}.cls-6{stroke:#e565a0;stroke-miterlimit:10;stroke-width:8px;}.cls-7{fill:#cd4d92;}.cls-8{fill:#2f2c38;}.cls-9{fill:#fff;}.cls-10{fill:#f38db6;}.cls-11{fill:#e565a0;}.cls-12{fill:#fbd9e8;}</style><linearGradient id="linear-gradient" x1="150" y1="356.11" x2="150" y2="161.16" gradientUnits="userSpaceOnUse"><stop offset="0" stop-color="#f3c1da" id="stop4" style="stop-color:#0b2c7e;stop-opacity:1;"/><stop offset="0.69" stop-color="#e573ac" id="stop6" style="stop-color:#1489e5;stop-opacity:1;"/></linearGradient><linearGradient inkscape:collect="always" xlink:href="#linearGradient29230" id="linearGradient29232" x1="157.36876" y1="74.595139" x2="142.63124" y2="205.1777" gradientUnits="userSpaceOnUse"/></defs><path class="cls-1" d="M 263.62,345 H 36.38 A 36.38,36.38 0 0 1 0,308.62 v -49.48 h 300 v 49.48 A 36.38,36.38 0 0 1 263.62,345 Z" id="path11" style="fill:url(#linear-gradient)"/><rect class="cls-2" y="45" width="300" height="253.39" rx="36.380001" id="rect13" x="0" style="fill:url(#linearGradient29232);fill-opacity:1"/><path id="ellipse31068" style="fill:#fffbd5;fill-opacity:1;fill-rule:evenodd;stroke-width:1.00679" d="M 6.640625,60.419922 C 2.4690437,66.340598 0,73.556256 0,81.380859 v 85.259761 c 11.331813,10.38953 29.567354,18.58238 48.480469,21.78126 30.909861,5.17387 66.965071,-3.05342 64.916041,-19.93731 11.87697,-29.79805 -20.352175,-43.51685 -56.300807,-37.24629 0.960205,-6.95767 -1.168537,-11.75708 -5.654297,-12.74805 -0.380024,-0.0659 -0.773602,-0.10499 -1.179687,-0.11718 2.65252,-5.02062 3.721437,-10.48577 3.099609,-15.84766 C 51.546212,87.600778 37.148857,76.419257 19.302734,76.074219 17.495615,69.435577 12.934371,63.796465 6.640625,60.419922 Z" sodipodi:nodetypes="csccccccccc"/><ellipse style="fill:#f9f57e;fill-opacity:1;fill-rule:evenodd;stroke-width:0.747837" id="path29786" cx="197.67468" cy="147.73239" rx="37.459545" ry="37.31134"/><path id="path31078" style="fill:#fffbd5;fill-opacity:1;fill-rule:evenodd;stroke-width:1.00679" d="m 300,92.396484 c -9.88159,1.21176 -11.30806,5.042842 -12.77344,17.091796 -0.62183,5.36188 -19.35659,-1.03182 -27.64258,3.13086 -8.88866,4.46545 -21.35668,14.82554 -20.39648,21.7832 -22.16812,-3.86681 -15.47725,16.21905 -28.97908,17.51528 -36.86057,3.53877 -23.04392,15.56619 8.12166,30.49058 -2.04903,16.88388 22.61361,14.3516 53.52344,9.17774 9.86392,-1.66834 19.53441,-4.70314 28.14648,-8.69141 z" sodipodi:nodetypes="ccscscccc"/><path id="path28237" style="fill:#289ce6;fill-opacity:1;stroke-width:32.4224;stroke-linejoin:round;stroke-opacity:0.727941;stop-color:#000000" d="M 255.5957 144.19531 C 246.58989 144.16111 235.83213 145.2548 226.50586 148.03906 C 195.15472 157.39868 165.95437 178.83529 156.58984 174.4375 C 149.23406 170.98306 154.13331 165.74009 161.28906 157.60352 C 156.86946 135.76244 42.734428 165.63871 30.755859 169.83203 C 23.744191 172.28661 17.4592 160.92541 14.125 155.53516 C 12.030058 152.14834 5.9602027 149.20684 0 149.5293 L 0 208.13672 L 299.05078 208.13672 L 299.05078 159.86328 C 284.56817 161.07416 271.08415 162.70685 263.55859 164.19922 C 254.83577 165.92901 256.71091 156.90764 271.2832 151.16992 C 280.74744 147.44346 270.6054 144.25225 255.5957 144.19531 z "/><path id="path28239" style="fill:#1377e5;fill-opacity:1;stroke-width:29.9767;stroke-linejoin:round;stroke-opacity:0.727941;stop-color:#000000" d="M 101.41211,176.23828 C 74.705171,175.75529 27.719778,179.02023 25.849609,194.58203 25.233418,199.70941 8.8668938,201.84385 0,199.51367 v 8.42774 h 4.9238281 c -0.00598,0.0593 -0.00183,0.13414 -0.00781,0.19336 H 224.47852 l -0.004,0.002 c 60.06018,28.42051 118.02698,-43.426 17.44727,-8.35547 -0.39873,-0.29548 -0.79722,-0.54022 -1.19532,-0.875 -4.91988,-5.14809 -2.21506,-9.99622 17.75391,-14.25 -11.48883,-7.9454 -69.18275,14.03328 -105.19336,16.16797 -15.34706,0.90977 -42.16238,7.48693 -46.19727,-1.49414 -4.36352,-9.71259 32.01717,-15.55137 41.76758,-16.6211 -3.93333,-2.54296 -29.9549,-5.53177 -37.43164,-6.05859 -2.79687,-0.19707 -6.19839,-0.34311 -10.01367,-0.41211 z" sodipodi:nodetypes="cscccccccccsscssc"/><path id="path28447" style="fill:#1a91dd;fill-opacity:1;stroke-width:34.4322;stroke-linejoin:round;stroke-opacity:0.727941;stop-color:#000000" d="M 77.859375 174.16406 C 66.066733 174.2458 58.097453 178.82844 65.533203 184.17773 C 76.98219 192.41415 78.45481 205.36394 71.601562 202.88086 C 56.923306 197.56257 13.752773 190.84433 0 195.88867 L 0 240.73242 C 6.3220027 255.64333 19.992344 265.95117 35.958984 265.95117 L 284.07422 265.95117 C 289.74813 265.95117 295.1265 264.63234 300 262.28906 L 300 188.52148 C 293.7364 185.16417 286.80745 182.72369 278.76367 181.82227 C 274.05149 181.2942 269.23095 185.54974 267.57422 190.44336 C 264.95464 198.181 260.01666 214.49032 254.50781 210.9668 C 245.09663 204.94734 155.42547 162.05758 151.95312 193.41016 C 157.57517 205.0901 161.42375 212.61738 155.64453 217.57617 C 148.28713 223.88913 125.34449 193.1192 100.71289 179.68359 C 93.385544 175.68681 84.93495 174.11496 77.859375 174.16406 z "/><path id="path28449" style="fill:#116bcf;fill-opacity:1;stroke-width:31.8349;stroke-linejoin:round;stroke-opacity:0.727941;stop-color:#000000" d="M 203.7168 220.10156 C 198.7889 220.072 194.42503 220.32957 191.12891 220.75391 C 185.25466 221.51015 164.811 225.80077 161.7207 229.45117 C 169.3813 230.98677 197.96344 239.36824 194.53516 253.31055 C 191.36508 266.20275 170.29794 256.76104 158.24023 255.45508 C 129.94781 252.39077 84.618207 220.84252 75.591797 232.24805 C 91.280792 238.35428 93.406414 245.31308 89.541016 252.70312 C 89.220235 253.196 88.899375 253.54917 88.578125 253.98828 C 80.712145 253.56042 72.965529 253.53876 63.900391 253.42188 C 59.213611 250.03399 54.329134 246.30067 49.117188 244.39258 C 31.42521 237.91558 14.915296 241.69953 18.119141 247.80078 C 20.221571 248.5686 25.364502 249.95189 30.359375 251.98047 C 30.011133 251.95517 29.76881 251.94993 29.416016 251.92383 L 29.416016 265.31055 C 30.128505 265.43998 30.835566 265.58448 31.560547 265.67188 L 41.03125 265.67188 C 40.975135 265.7671 40.961541 265.85507 40.900391 265.95117 L 274.80859 265.95117 C 274.80459 265.86615 274.80773 265.75697 274.80273 265.67188 L 279.80078 265.67188 C 279.76648 265.75658 279.73772 265.86847 279.70312 265.95117 L 284.07422 265.95117 C 285.52545 265.95117 286.94782 265.83774 288.35742 265.67188 L 288.4707 265.67188 C 288.73605 265.63997 288.99418 265.58467 289.25781 265.54688 C 291.62942 265.20755 293.93248 264.64449 296.15039 263.86719 C 296.23937 263.83589 296.33122 263.8112 296.41992 263.7793 C 297.13548 263.52233 297.83648 263.23338 298.5332 262.93359 C 298.64153 262.88703 298.75345 262.85023 298.86133 262.80273 L 298.86133 262.79102 C 299.24824 262.6201 299.61924 262.41785 300 262.23438 L 300 229.87305 C 296.36574 229.56588 292.80136 229.35992 289.56445 229.39453 C 280.74407 229.48886 274.19239 230.90515 274.04492 233.99805 C 279.45495 238.48974 285.40758 245.82592 281.99805 250.96289 C 277.27772 258.07476 258.94141 255.28559 258.36328 246.49609 C 256.9989 225.75293 225.071 220.22965 203.7168 220.10156 z "/><path id="path28451" style="fill:#bbe0f7;fill-opacity:0.674487;stroke-width:34.4322;stroke-linejoin:round;stroke-opacity:0.727941;stop-color:#000000" d="M 77.859375 174.16406 C 66.066744 174.2458 58.097453 178.82844 65.533203 184.17773 C 76.982179 192.41413 78.454799 205.36393 71.601562 202.88086 C 56.923324 197.56257 13.752771 190.84433 0 195.88867 L 0 210.92578 C 14.467884 201.1903 63.537258 202.07029 78.458984 208.20898 C 85.123907 210.95089 83.65625 188.58594 83.65625 188.58594 C 103.9168 179.60259 146.59726 228.86646 156.62305 221.19531 C 160.75077 216.99501 163.00812 209.0008 164.19727 199.10742 C 167.6696 172.5505 252.44235 216.43837 261.85352 221.53711 C 270.20674 212.71112 268.60177 203.98889 276.80469 199.55078 C 283.03789 196.17837 291.66098 195.61862 300 197.75586 L 300 188.52148 C 293.7364 185.16416 286.80745 182.72368 278.76367 181.82227 C 274.0515 181.2942 269.23095 185.54974 267.57422 190.44336 C 264.95465 198.18099 260.01666 214.49032 254.50781 210.9668 C 245.09664 204.94735 155.42547 162.05762 151.95312 193.41016 C 157.57517 205.09008 161.42375 212.61738 155.64453 217.57617 C 148.28714 223.88912 125.34447 193.11919 100.71289 179.68359 C 93.385554 175.68682 84.934939 174.11496 77.859375 174.16406 z "/><path id="path28453" style="fill:#116bcf;fill-opacity:1;fill-rule:evenodd;stroke-width:1.396" d="m 8.8007812,231.71289 c -2.3243634,-0.0503 -4.6059003,-0.0451 -6.8359374,0.0156 C 1.3044709,231.76187 0.64944679,231.80028 0,231.84375 v 8.91211 c -1.8532815,43.10279 19.997375,25.19531 35.958984,25.19531 H 102.30859 C 93.387573,254.02734 71.533933,242.75656 45.226562,236.51172 33.009566,233.61813 20.478844,231.9673 8.8007812,231.71289 Z" sodipodi:nodetypes="ccccsccc"/><path id="rect26327" style="opacity:1;fill:#344557;fill-opacity:1;stroke-width:0.687891;stroke-linejoin:round;stop-color:#000000" d="m 164.1893,68.179146 c 28.03354,-4.73449 27.30413,20.316416 43.73358,22.451812 l 15.37147,-1.553374 -16.09525,10.416932 6.82221,9.122124 c -32.70696,-6.29868 -35.36111,-15.957085 -37.35745,-20.908923 -1.53078,-3.797061 -13.18328,-3.084423 -16.47026,-6.044201 3.01995,-5.678434 7.29892,-7.285319 3.9957,-13.48437 z" sodipodi:nodetypes="cccccscc"/><path id="path27126" style="opacity:1;fill:#233343;fill-opacity:1;stroke-width:0.687891;stroke-linejoin:round;stop-color:#000000" d="m 162.72007,74.224259 c -2.5171,3.047954 1.06271,7.544856 -1.88609,6.320663 -0.21787,0.35648 -0.43186,0.726611 -0.64062,1.11914 3.28698,2.959776 14.93992,2.245912 16.4707,6.042969 1.99634,4.951833 4.6505,14.611479 37.35742,20.910159 l -4.49414,-6.00977 c -23.92124,1.04443 -32.4948,-17.02264 -32.14257,-22.072264 0.38662,-5.542675 -12.89747,-8.450847 -14.6647,-6.310897 z m 60.57485,14.853866 -4.74414,0.478516 -15.43934,7.534097 3.81557,2.395201 z" sodipodi:nodetypes="sccsccssccccc"/><path id="path26710" style="opacity:1;fill:none;fill-opacity:1;stroke-width:2.08800025;stroke-linejoin:round;stop-color:#000000;stroke:#111621;stroke-opacity:1;stroke-dasharray:none" d="m 164.1893,68.179146 c 28.03354,-4.73449 27.30413,20.316416 43.73358,22.451812 l 15.37147,-1.553374 -16.09525,10.416932 6.82221,9.122124 c -32.70696,-6.29868 -35.36111,-15.957085 -37.35745,-20.908923 -1.53078,-3.797061 -13.18328,-3.084423 -16.47026,-6.044201 3.01995,-5.678434 7.29892,-7.285319 3.9957,-13.48437 z" sodipodi:nodetypes="cccccscc"/><path id="rect25574" style="opacity:1;fill:#964e21;stroke-width:2.61942;stroke-linejoin:round;stop-color:#000000" d="m 160.22485,75.303823 1.77805,0.209363 1.82432,22.330516 -10.56365,-1.24386 z" sodipodi:nodetypes="ccccc"/><path id="rect18697" style="opacity:1;fill:#5d3015;fill-opacity:1;stroke-width:2.148;stroke-linejoin:round;stop-color:#000000" d="m 96.132598,192.2652 85.635362,-2.76243 15.46961,17.9558 h -95.58011 z" sodipodi:nodetypes="ccccc"/><path id="path25715" style="opacity:1;fill:none;stroke-width:2.619;stroke-linejoin:round;stop-color:#000000;stroke:#4f1e16;stroke-opacity:1;stroke-dasharray:none" d="m 160.22485,75.303823 1.77805,0.209363 1.82432,22.330516 -10.56365,-1.24386 z" sodipodi:nodetypes="ccccc"/><g id="g14756"><path id="ellipse6656" style="fill:#964e21;fill-opacity:1;fill-rule:evenodd;stroke-width:1.09928" d="m 162.52014,76.424961 c 2.96406,11.41833 17.40578,23.337571 25.82383,25.280839 l 5.25454,-4.844995 4.54545,3.215065 c 12.69287,-2.604159 21.30253,-14.126805 17.06633,-24.953851 -3.49338,-8.928514 -17.57563,-11.291738 -26.56879,-11.357174 -8.9886,-0.0654 -24.63684,2.7199 -26.36641,9.366613 -0.26227,1.007874 -0.2045,2.104533 0.24505,3.293503 z" transform="matrix(0.98450999,0.17532846,-0.35005184,0.93673033,0,0)" sodipodi:nodetypes="ccccassc"/><path id="path9824" style="color:#000000;fill:#b15923;fill-opacity:1;stroke-linejoin:round" d="M 151.33203 91.837891 C 149.65277 91.856607 147.97752 91.950587 146.35352 92.115234 C 153.86491 95.556257 148.96326 104.8386 149.39062 111.61328 L 152.38086 111.84766 L 153.94336 91.865234 C 153.07759 91.840929 152.20715 91.828137 151.33203 91.837891 z M 164.16211 92.958984 C 170.90346 100.78435 164.59791 106.66793 160.81445 112.92578 L 163.53906 114.17969 L 172.26172 95.224609 C 169.51308 94.20739 166.69736 93.465798 164.16211 92.958984 z M 137.22852 94.423828 C 135.91215 95.106089 134.85285 95.939763 134.16211 96.955078 C 133.80974 97.473017 133.56422 98.044577 133.41406 98.658203 C 137.55463 102.28631 138.49878 110.01589 141.16992 114.64258 L 143.02734 112.73438 L 137.22852 94.423828 z M 182.38672 101.22656 C 181.31507 111.70721 171.40873 114.13734 165.98828 118.01562 L 167.83594 120.37891 L 185.43164 106.79297 C 185.05198 104.68731 183.95421 102.8377 182.38672 101.22656 z "/><path id="path9802" style="color:#000000;fill:#623019;stroke-linejoin:round;fill-opacity:1" d="M 152.82812 91.849609 L 151.12109 113.70703 L 154.11133 113.94141 L 155.83008 91.949219 C 154.84336 91.894635 153.84226 91.861486 152.82812 91.849609 z M 138.15625 93.982422 C 137.13397 94.420805 136.24235 94.939142 135.50195 95.539062 L 141.89844 115.73438 L 144.75781 114.82812 L 138.15625 93.982422 z M 171.73828 95.041016 L 162.54492 115.01953 L 165.26953 116.27344 L 174.5332 96.142578 C 173.6174 95.742295 172.68203 95.377593 171.73828 95.041016 z M 185.33984 106.32812 L 167.71875 120.10938 L 169.56641 122.47266 L 185.51367 110 C 185.57781 109.37331 185.60243 108.74081 185.58008 108.10156 C 185.5587 107.48996 185.47401 106.90026 185.33984 106.32812 z "/><ellipse style="fill:#743815;fill-opacity:1;fill-rule:evenodd;stroke-width:0.783022" id="path6654" cx="173.88069" cy="92.74498" rx="16.456476" ry="8.7150536" transform="matrix(0.98644523,0.16409087,-0.17352065,0.98483023,0,0)"/><ellipse style="fill:none;fill-opacity:1;fill-rule:evenodd;stroke-width:0.783022;stroke:#623019;stroke-opacity:1" id="ellipse10726" cx="173.88069" cy="92.74498" rx="16.456476" ry="8.7150536" transform="matrix(0.98644523,0.16409087,-0.17352065,0.98483023,0,0)"/><path id="path14745" style="fill:none;fill-opacity:1;fill-rule:evenodd;stroke:#4f1e16;stroke-width:2.00652719;stroke-opacity:1;stroke-dasharray:none" d="m 176.80593,64.948019 c -6.93093,1.384221 -13.44971,4.028346 -14.53069,8.182537 -0.26227,1.007873 -0.20465,2.105436 0.2449,3.294405 1.60931,6.199479 6.71232,12.700287 11.85055,17.673282 2.72971,2.64193 4.96297,4.664216 9.56524,5.961837 1.57448,0.7725 3.06819,1.33642 4.40804,1.64572 l 0.77678,-0.71669 c 1.05616,0.10373 2.12074,0.15306 3.17892,0.14728 4.41576,-0.053 8.46929,-1.06346 11.24562,-2.803344 9.58226,-4.303075 15.26621,-14.006913 11.665,-23.211027 -3.49338,-8.928505 -17.57564,-11.291738 -26.56879,-11.357174 -3.37072,-0.02453 -7.67701,0.352641 -11.83557,1.183174 z" transform="matrix(0.98450999,0.17532846,-0.35005184,0.93673033,0,0)" sodipodi:nodetypes="sscacccccsss"/></g><path id="rect5618" style="display:inline;opacity:1;fill:#743815;fill-opacity:1;stroke-width:23.1423;stroke-linejoin:round;stroke-opacity:0.727941;stop-color:#000000" d="m 138.16064,166.86936 c 0,0 22.51254,10.06387 34.54018,12.11149 10.76047,1.8319 32.74586,0 32.74586,0 v 29.15728 h -67.28604 z" sodipodi:nodetypes="cacccc"/><path id="path21393" style="display:inline;opacity:1;fill:none;fill-opacity:1;stroke:#4f1e16;stroke-width:2.00344;stroke-linejoin:round;stroke-dasharray:none;stroke-opacity:1;stop-color:#000000" d="m 137.92187,166.87108 c 0,0 22.59186,10.06303 34.66187,12.11048 10.79838,1.83175 32.86122,0 32.86122,0 v 29.15485 h -67.52309 z" sodipodi:nodetypes="cacccc"/><path id="rect6583" style="opacity:1;fill:#854620;stroke-width:28.7319;stroke-linejoin:round;stroke-opacity:0.727941;stop-color:#000000;fill-opacity:1" d="m 159.98263,121.17008 -19.65021,106.1143 c -0.52037,2.81008 -3.20156,4.65343 -6.01165,4.13306 -2.81009,-0.52037 -4.65343,-3.20157 -4.13306,-6.01166 l 19.61775,-105.93905 c 0.17214,-0.92959 1.03293,-1.95476 1.95704,-2.15109 2.42768,-0.51577 4.85535,-0.21909 7.28304,1.41401 0.70233,0.47247 1.09131,1.60762 0.93709,2.44043 z" sodipodi:nodetypes="cssscc" inkscape:path-effect="#path-effect8718" inkscape:original-d="m 160.26187,119.66215 -19.92945,107.62223 c -0.52037,2.81008 -3.20156,4.65343 -6.01165,4.13306 -2.81009,-0.52037 -4.65343,-3.20157 -4.13306,-6.01166 l 19.92944,-107.62222 c 3.38158,-1.19251 6.76314,-1.03834 10.14472,1.87859 z"/><path id="path18241" style="opacity:1;fill:none;stroke-width:2.2;stroke-linejoin:round;stroke-opacity:1;stop-color:#000000;fill-opacity:1;stroke:#4f1e16;stroke-dasharray:none" d="m 159.98263,121.17008 -19.65021,106.1143 c -0.52037,2.81008 -3.20156,4.65343 -6.01165,4.13306 -2.81009,-0.52037 -4.65343,-3.20157 -4.13306,-6.01166 l 19.61775,-105.93905 c 0.17214,-0.92959 1.03293,-1.95476 1.95704,-2.15109 2.42768,-0.51577 4.85535,-0.21909 7.28304,1.41401 0.70233,0.47247 1.09131,1.60762 0.93709,2.44043 z" sodipodi:nodetypes="cssscc" inkscape:path-effect="#path-effect18245" inkscape:original-d="m 160.26187,119.66215 -19.92945,107.62223 c -0.52037,2.81008 -3.20156,4.65343 -6.01165,4.13306 -2.81009,-0.52037 -4.65343,-3.20157 -4.13306,-6.01166 l 19.92944,-107.62222 c 3.38158,-1.19251 6.76314,-1.03834 10.14472,1.87859 z"/><path id="rect5180" style="opacity:1;fill:#854620;fill-opacity:1;stroke-width:29.8585;stroke-linejoin:round;stroke-opacity:0.727941;stop-color:#000000" d="m 56.929157,190.78851 c 1.042539,20.79982 9.497333,43.77391 24.833782,63.496 38.657611,30.00829 84.656091,38.16154 130.348391,-2.24154 0.74074,-3.73754 1.34655,-7.63893 1.86133,-11.60742 h 14.80078 V 227.875 h -13.61328 c 0.70584,-11.82954 0.29403,-24.01648 -1.70313,-35.47461 -40.81848,17.78489 -99.26245,17.67272 -156.527873,-1.61188 z" sodipodi:nodetypes="ccccccccc"/><path id="path15770" style="opacity:1;fill:#b15923;fill-opacity:1;stroke-width:3.78667;stroke-linejoin:round;stop-color:#000000" d="m 170.54813,229.79988 c -9.4883,0.76774 -19.7928,1.57843 -30.26437,1.70405 6.79038,6.62094 6.27619,12.65158 3.47611,18.49743 8.85945,-0.36611 17.76428,-0.96169 26.71901,-1.83078 -5.77942,-5.7809 -7.34079,-12.14504 0.0692,-18.3707 z" sodipodi:nodetypes="ccccc"/><path id="rect14852" style="opacity:1;fill:#b15923;fill-opacity:1;stroke-width:3.18209;stroke-linejoin:round;stop-color:#000000" d="m 175.98571,248.08633 c -8.03151,0.6405 -16.5359,1.05926 -25.39971,1.16406 5.74782,5.52358 5.31257,10.55469 2.9424,15.43164 7.49921,-0.30543 15.03685,-0.8023 22.61671,-1.52734 -1.72606,-4.82277 -1.5388,-9.87455 -0.1594,-15.06836 z"/><path id="path14734" style="opacity:1;fill:none;fill-opacity:1;stroke:#4f1e16;stroke-width:3;stroke-linejoin:round;stroke-dasharray:none;stroke-opacity:1;stop-color:#000000" d="m 55.898934,190.78851 c 4.247796,18.45479 9.16265,43.75586 25.864005,63.496 38.657611,30.00829 84.656091,38.16154 130.348391,-2.24154 0.74074,-3.73754 1.34655,-7.63893 1.86133,-11.60742 h 14.80078 V 227.875 h -13.61328 c 0.70584,-11.82954 0.29403,-24.01648 -1.70313,-35.47461 -40.81848,17.78489 -100.29267,17.67272 -157.558096,-1.61188 z" sodipodi:nodetypes="ccccccccc"/><path id="rect5561" style="opacity:1;fill:#854620;fill-opacity:1;stroke-width:30.405;stroke-linejoin:round;stroke-opacity:0.727941;stop-color:#000000" d="m 48.92089,149.59156 c 56.59879,76.80206 146.50108,50.65908 163.91127,40.42165 0.63965,-0.37612 1.57951,-0.30709 2.12486,0.19631 l 9.06713,8.36967 c 0.88826,0.81993 0.72388,1.90668 -0.37362,2.4134 -61.06343,28.19333 -117.59471,15.3218 -171.87671,-11.92204 -1.593397,-0.79972 -3.013169,-2.89857 -3.187037,-4.6729 -1.889137,-19.27871 -3.347328,-26.22985 -2.878917,-33.96469 0.156001,-2.57603 1.680935,-2.92037 3.213024,-0.8414 z" sodipodi:nodetypes="ccccc" inkscape:path-effect="#path-effect5564" inkscape:original-d="m 46.203077,145.78641 c 57.737593,83.40078 153.376163,53.28731 167.766503,43.51163 l 11.66291,10.76577 C 162.72742,229.97715 104.64267,216.14596 48.894518,187.61104 46.488094,161.89056 44.626194,156.40627 46.203077,145.78641 Z"/><rect style="opacity:1;fill:#8fb2aa;fill-opacity:1;stroke:#4f1e16;stroke-width:2.18977;stroke-linejoin:round;stroke-dasharray:none;stroke-opacity:1;stop-color:#000000" id="rect24787" width="19.645456" height="18.593023" x="180.01442" y="187.5157"/><path id="rect25257" style="opacity:1;fill:#ffffff;fill-opacity:0.58651024;stroke:none;stroke-width:2.67781;stroke-linejoin:round;stroke-dasharray:none;stroke-opacity:1;stop-color:#000000" d="m 185.4864,188.70509 -4.11334,5.27247 v 12.13181 h 1.49055 l 13.57975,-17.40428 z"/><path id="path13693" style="opacity:1;fill:#854620;fill-opacity:1;stroke:none;stroke-width:3.3;stroke-linejoin:round;stroke-dasharray:none;stroke-opacity:1;stop-color:#000000" d="m 48.92089,149.59156 c 56.59879,76.80206 146.50108,50.65908 163.91127,40.42165 0.63965,-0.37612 1.57951,-0.30709 2.12486,0.19631 l 9.06713,8.36967 c 0.88826,0.81993 0.7239,1.90671 -0.37378,2.41305 -61.06354,28.16726 -117.59491,14.07774 -171.877006,-13.20857 -1.592898,-0.80071 -3.012609,-2.89949 -3.18726,-4.67374 -1.881895,-19.11785 -3.335917,-25.25072 -2.883303,-32.67774 0.156977,-2.57585 1.686,-2.9196 3.218089,-0.84063 z" sodipodi:nodetypes="ccccc" inkscape:path-effect="#path-effect13697" inkscape:original-d="m 46.203077,145.78641 c 57.737593,83.40078 153.376163,53.28731 167.766503,43.51163 l 11.66291,10.76577 C 162.72742,229.97715 104.64267,214.85818 48.894518,186.32326 46.488094,160.60278 44.626194,156.40627 46.203077,145.78641 Z"/><path id="rect5553" style="opacity:1;fill:#854620;fill-opacity:1;stroke-width:31.2614;stroke-linejoin:round;stroke-opacity:0.727941;stop-color:#000000" d="m 237.89369,209.34038 7.17906,-0.14007 -9.91915,50.52378 -19.83829,-1.6298 5.44286,-38.12897 c 2.03145,-6.13048 9.02473,-10.46668 17.13552,-10.62494 z" sodipodi:nodetypes="cccccc"/><path id="rect16271" style="opacity:1;fill:#b15923;stroke-width:3;stroke-linejoin:round;stop-color:#000000" d="m 245.07227,209.20117 -7.17774,0.13867 c -8.11078,0.15826 -15.10527,4.49453 -17.13672,10.625 l -3.26758,22.88672 c 1.57164,-3.50881 9.36463,-10.93102 8.88477,-16.29492 -0.95857,-10.71497 13.94745,-14.93974 18.58398,-16.7793 z" sodipodi:nodetypes="ccccscc"/><path style="opacity:1;fill:none;fill-opacity:1;stroke:#4f1e16;stroke-width:3;stroke-linejoin:round;stroke-dasharray:none;stroke-opacity:1;stop-color:#000000" d="m 67.838692,231.36453 c 44.205028,15.13693 97.823398,26.73208 147.477858,3.52625" id="path15762" sodipodi:nodetypes="cc"/><path id="path15768" style="opacity:1;fill:#b15923;fill-opacity:1;stroke-width:4.09746;stroke-linejoin:round;stop-color:#000000" d="m 173.6388,209.45298 c -9.4883,0.89895 -14.38413,1.84817 -24.8557,1.99525 6.79038,7.75238 1.12508,14.45208 -1.675,21.2969 8.85945,-0.42867 17.76428,-1.12603 26.71901,-2.14363 -5.74468,-6.76878 -8.87189,-13.85898 -0.18831,-21.14852 z" sodipodi:nodetypes="ccccc"/><path id="path16217" style="opacity:1;fill:none;fill-opacity:1;stroke-width:3;stroke-linejoin:round;stroke-opacity:1;stop-color:#000000;stroke:#4f1e16;stroke-dasharray:none" d="m 237.89369,209.34038 7.17906,-0.14007 -9.91915,50.52378 -19.83829,-1.6298 5.44286,-38.12897 c 2.03145,-6.13048 9.02473,-10.46668 17.13552,-10.62494 z" sodipodi:nodetypes="cccccc"/><path style="opacity:1;fill:none;fill-opacity:1;stroke:#4f1e16;stroke-width:3;stroke-linejoin:round;stroke-dasharray:none;stroke-opacity:1;stop-color:#000000" d="m 61.939788,212.03542 c 45.189612,16.0044 101.173282,29.5584 152.861652,5.40202" id="path15764" sodipodi:nodetypes="cc"/><path id="rect16327" style="opacity:1;fill:#b15923;fill-opacity:1;stroke-width:2.7181;stroke-linejoin:round;stop-color:#000000" d="m 55.266657,189.66513 16.497511,8.37373 c -1.062721,39.75203 12.167764,55.97271 29.558042,67.82726 l -2.062192,1.25606 C 66.78998,257.70548 58.849798,227.6733 55.266657,189.66513 Z" sodipodi:nodetypes="ccccc"/><path id="path16330" style="opacity:1;fill:none;fill-opacity:1;stroke-width:2.7181;stroke-linejoin:round;stop-color:#000000;stroke:#4f1e16;stroke-opacity:1" d="m 55.266657,189.66513 16.497511,8.37373 c -1.062721,39.75203 12.167764,55.97271 29.558042,67.82726 l -2.062192,1.25606 C 66.78998,257.70548 58.849798,227.6733 55.266657,189.66513 Z" sodipodi:nodetypes="ccccc"/><g id="g5498" style="display:inline" transform="matrix(1,0,0,1.0331308,0,-7.3597232)"><path id="rect2776" style="opacity:1;fill:#1a91dd;fill-opacity:1;stroke-width:30.0334;stroke-linejoin:round;stroke-opacity:0.727941;stop-color:#000000" d="m 225.24414,222.14258 c -6.48023,-0.0408 -14.22082,1.26379 -20.93164,4.58398 -22.55907,11.16117 -43.57024,36.72279 -50.30859,31.47852 -5.29294,-4.11935 -1.76814,-10.37151 3.38086,-20.07422 -3.18018,-26.04507 -85.306471,9.58352 -93.925786,14.58398 -5.045325,2.92704 -9.567635,-10.62104 -11.966796,-17.04882 -1.517326,-4.0652 -5.932355,-7.60079 -10.248047,-7.16211 C 23.286815,230.3292 11.187967,239.48535 0,249.78125 v 12.22852 c 0,20.1545 16.226359,36.38085 36.380859,36.38085 H 263.61914 c 20.1545,0 36.38086,-16.22635 36.38086,-36.38085 v -19.67774 c -5.30902,-7.81217 -53.83679,-1.32557 -69.02539,3.66602 -6.27661,2.06273 -4.92707,-8.695 5.55859,-15.53711 6.8101,-4.44374 -0.48866,-8.25046 -11.28906,-8.31836 z"/><path id="path4475" style="opacity:1;fill:#116bcf;fill-opacity:1;stroke-width:27.7679;stroke-linejoin:round;stroke-opacity:0.727941;stop-color:#000000" d="m 121.50594,260.84428 c -16.10019,-1.88 -60.040261,0.17604 -61.578206,21.38424 -0.529485,7.30158 -17.323327,9.61887 -21.646484,3.71093 -3.122655,-4.26736 2.330334,-10.36047 7.285156,-14.09179 -0.135068,-2.56932 -6.13662,-3.74586 -14.214844,-3.82422 -9.206616,-0.0893 -21.054891,1.26708 -30.0371089,3.59375 1.9696931,7.24957 6.1262827,13.56603 11.6992189,18.2539 -0.01022,0.003 -0.03277,0.0103 -0.04297,0.0137 0.256498,0.2154 0.526248,0.41437 0.792969,0.61718 2.728742,2.17238 5.782155,3.94464 9.074219,5.26367 v 0.01 c 0.0988,0.0395 0.201567,0.0707 0.300781,0.10938 0.638104,0.24904 1.280203,0.4877 1.935547,0.70117 0.08125,0.0265 0.164597,0.0482 0.246093,0.0742 2.031296,0.64571 4.140445,1.11264 6.3125,1.39453 0.241447,0.0314 0.477685,0.077 0.720704,0.10351 h 0.103515 c 1.290988,0.13779 2.594707,0.23242 3.923828,0.23242 h 4.001953 c -0.0317,-0.0687 -0.05652,-0.16205 -0.08789,-0.23242 h 4.576172 c -0.0043,0.0707 -0.0016,0.16179 -0.0059,0.23242 H 259.09375 c -0.056,-0.0798 -0.0697,-0.15331 -0.12109,-0.23242 h 8.67382 c 0.66398,-0.0726 1.31231,-0.1913 1.96485,-0.29882 v -11.1211 c -0.32311,0.0217 -0.54434,0.0259 -0.86328,0.0469 4.5746,-1.68517 9.28345,-2.83482 11.20898,-3.47266 2.93427,-5.06841 -12.18531,-8.21062 -28.38867,-2.83008 -4.77341,1.58508 -9.24663,4.68563 -13.53906,7.5 -8.30239,0.0971 -15.39744,0.11527 -22.60157,0.4707 -0.29422,-0.36478 -0.58902,-0.65891 -0.88281,-1.06835 -3.54016,-6.13902 -1.59352,-11.91965 12.77539,-16.99219 -8.26692,-9.47475 -49.78139,16.73333 -75.69326,19.2789 -11.04316,1.08488 -30.33792,8.92819 -33.24127,-1.78157 -3.13983,-11.58209 23.03754,-18.54387 30.05356,-19.81951 -2.83028,-3.03245 -21.55342,-6.5979 -26.9334,-7.22612 z" sodipodi:nodetypes="ssacscccccccccsccscccccccccccsccccaacs"/><path id="path3384" style="opacity:1;fill:#bbe0f7;fill-opacity:1;stroke-width:30.0334;stroke-linejoin:round;stroke-opacity:0.727941;stop-color:#000000" d="m 225.24414,222.14258 c -6.48022,-0.0408 -14.22083,1.2638 -20.93164,4.58398 -22.55905,11.16116 -43.57025,36.72278 -50.30859,31.47852 -5.29294,-4.11935 -1.76814,-10.37152 3.38086,-20.07422 -3.18018,-26.04504 -85.306479,9.58353 -93.925786,14.58398 -5.04532,2.92704 -9.567638,-10.62105 -11.966796,-17.04882 -1.517325,-4.0652 -5.93236,-7.60079 -10.248047,-7.16211 C 23.286833,230.32919 11.187956,239.48536 0,249.78125 v 7.43555 c 7.9127402,-15.27149 30.645637,-20.06829 43.039062,-13.98633 7.512722,3.6868 6.041627,10.9325 13.691999,18.26439 8.619306,-4.2356 86.258689,-40.69282 89.438859,-18.63158 1.08909,8.21859 3.15708,14.8584 6.9375,18.34766 9.18221,6.37254 48.27232,-34.5505 66.82813,-27.08789 0,0 -1.34437,18.57853 4.75976,16.30078 15.44442,-5.76305 70.8629,-5.95535 75.30469,5.86523 v -13.95703 c -5.30901,-7.81216 -53.83681,-1.32557 -69.02539,3.66602 -6.2766,2.06272 -4.92706,-8.69501 5.55859,-15.53711 6.8101,-4.44374 -0.48867,-8.25046 -11.28906,-8.31836 z" sodipodi:nodetypes="ssscsssccsccccsccsss"/><path id="path4601" style="fill:#116bcf;fill-opacity:1;fill-rule:evenodd;stroke-width:1.23396" d="m 155.31837,334.62752 a 67.834518,25.736279 0 0 0 -38.53542,-4.55506 67.834518,25.736279 0 0 0 -59.271519,13.27809 l 56.429129,13.10677 c 16.09807,3.73909 34.73911,-5.22134 45.26952,-20.67316 a 67.834518,25.736279 0 0 0 -3.89171,-1.15664 z" transform="matrix(0.97769576,-0.2100262,0.42703552,0.90423485,0,0)"/></g><path id="path15425" style="opacity:1;fill:#b15923;fill-opacity:1;stroke-width:3;stroke-linejoin:round;stop-color:#000000" d="M 47.275391 148.26562 C 46.444743 148.0859 45.819798 148.82518 45.724609 150.43555 C 45.369287 156.44678 46.108082 164.31393 47.132812 174.26953 L 53.908203 173.37695 L 87.869141 185.36328 C 74.074728 177.21819 60.766429 165.66698 48.919922 149.5918 C 48.345389 148.81218 47.773779 148.37346 47.275391 148.26562 z "/><path id="path15766" style="opacity:1;fill:#b15923;fill-opacity:1;stroke-width:2.69558;stroke-linejoin:round;stop-color:#000000" d="m 172.57645,201.46875 c -11.10695,0.33235 -22.86784,0.54965 -35.1258,0.60403 7.94878,2.86617 7.34687,5.4768 4.06912,8.00744 10.37082,-0.15848 20.79476,-0.41631 31.27711,-0.79253 -2.387,-2.50252 -2.12803,-5.12388 -0.22043,-7.81894 z"/><path id="path6526" style="display:inline;opacity:1;fill:#854620;fill-opacity:1;stroke-width:24.3453;stroke-linejoin:round;stroke-opacity:0.727941;stop-color:#000000" d="m 137.71159,158.79497 v 14.35352 c 0,0 24.91403,6.56499 38.22461,7.90039 11.90823,1.19472 36.23828,0 36.23828,0 V 170.9063 c 0,0 -24.33005,1.8319 -36.23828,0 -13.31058,-2.04762 -38.22461,-12.11133 -38.22461,-12.11133 z"/><path id="path14794" style="opacity:1;fill:none;fill-opacity:1;stroke:#4f1e16;stroke-width:3.3;stroke-linejoin:round;stroke-dasharray:none;stroke-opacity:1;stop-color:#000000" d="m 48.92089,149.59156 c 56.59879,76.80206 146.50108,50.65908 163.91127,40.42165 0.63965,-0.37612 1.57951,-0.30709 2.12486,0.19631 l 9.06713,8.36967 c 0.88826,0.81993 0.6671,1.75744 -0.49692,2.08355 -60.10627,16.83904 -117.03872,10.45721 -171.644827,-11.57222 -1.653349,-0.66701 -3.121772,-2.66098 -3.295485,-4.43533 -1.890526,-19.3103 -3.349517,-26.42665 -2.878065,-34.22206 0.155797,-2.57608 1.679948,-2.92054 3.212037,-0.84157 z" sodipodi:nodetypes="ccccc" inkscape:path-effect="#path-effect14798" inkscape:original-d="m 46.203077,145.78641 c 57.737593,83.40078 153.376163,53.28731 167.766503,43.51163 l 11.66291,10.76577 C 163.65137,217.96585 105.04733,211.14291 48.894518,187.8686 46.488094,162.14812 44.626194,156.40627 46.203077,145.78641 Z"/><circle style="fill:#964e21;fill-opacity:1;fill-rule:evenodd;stroke-width:2.148;stroke:#4f1e16;stroke-opacity:1;stroke-dasharray:none" id="path17722" cx="101.28997" cy="126.54592" r="8.1710119"/><path id="rect22501" style="opacity:1;fill:#b15923;stroke-width:4.18793;stroke-linejoin:round;stop-color:#000000" d="m 212.17383,172.34915 c 0,0 -6.1965,0.16784 -15.05365,0.33896 l 8.90018,2.00021 0.71324,6.46207 c 2.21353,-0.036 5.44023,-0.0873 5.44023,-0.0873 z"/><path id="path22499" style="display:inline;opacity:1;fill:none;fill-opacity:1;stroke-width:3;stroke-linejoin:round;stroke-opacity:1;stop-color:#000000;stroke:#4f1e16;stroke-dasharray:none" d="m 137.71159,158.79497 v 14.35352 c 0,0 24.91403,6.56499 38.22461,7.90039 11.90823,1.19472 36.23828,0 36.23828,0 V 170.9063 c 0,0 -24.33005,1.8319 -36.23828,0 -13.31058,-2.04762 -38.22461,-12.11133 -38.22461,-12.11133 z"/><path id="rect16591" style="opacity:1;fill:#233343;fill-opacity:1;stroke-width:2.90765;stroke-linejoin:round;stop-color:#000000" d="m 109.7484,128.3499 c -20.270569,14.32944 -14.409225,49.39925 -11.828478,59.50166 l 5.503908,0.14453 4.9375,-5.76171 4.61719,-2.10547 2.28125,-10.28321 c 2.43664,4.81058 4.57581,11.24022 10.03711,12.34961 l 9.67773,1.9668 c 3.30585,0.67154 -3.37151,4.96683 -3.37151,4.96683 14.44722,4.1842 30.96956,1.45135 46.85784,0.832 -12.2741,-23.80663 -13.82325,-45.48578 26.02539,-61.46289 z m -2.40074,33.22822 c 1.11612,0 2.02148,1.41831 2.02148,3.16797 0,1.74968 -2.01669,3.93946 -3.13281,3.93946 -1.11611,0 -2.1211,-2.34408 -2.1211,-4.09375 0,-1.74968 2.11631,-3.01368 3.23243,-3.01368 z" sodipodi:nodetypes="ccccccccccccsssss"/><path id="rect17851" style="opacity:1;fill:#344557;fill-opacity:1;stroke-width:2.77172;stroke-linejoin:round;stop-color:#000000" d="m 188.75,135.23242 c -8.75209,-0.006 -24.98478,0.36812 -30.30664,6.70703 -7.12362,8.48503 -14.10616,29.20259 -18.56055,3.56836 -11.00161,7.23607 -11.00843,0.72864 -11.11328,-5.65625 -9.98841,7.07736 -3.02051,16.89479 0,26.07422 5.95313,-22.60847 11.33355,-1.65775 16.83594,10.05664 4.60451,-20.70627 15.69394,2.06244 26.64062,-1.38867 -3.91853,-14.65482 -0.53207,-28.09243 18.375,-39.35547 -0.61016,-0.002 -1.14866,-0.005 -1.87109,-0.006 z" sodipodi:nodetypes="csccccccc"/><path id="path18514" style="opacity:1;fill:none;fill-opacity:1;stroke-width:2.90765;stroke-linejoin:round;stop-color:#000000;stroke:#111621;stroke-opacity:1" d="m 109.7484,128.3499 c -20.270569,14.32944 -14.409225,49.39925 -11.828478,59.50166 l 5.503908,0.14453 4.9375,-5.76171 4.61719,-2.10547 2.28125,-10.28321 c 2.43664,4.81058 4.57581,11.24022 10.03711,12.34961 l 9.67773,1.9668 c 3.30585,0.67154 -3.37151,4.96683 -3.37151,4.96683 14.44722,4.1842 30.96956,1.45135 46.85784,0.832 -12.2741,-23.80663 -13.82325,-45.48578 26.02539,-61.46289 z m -2.40074,33.22822 c 1.11612,0 2.02148,1.41831 2.02148,3.16797 0,1.74968 -2.01669,3.93946 -3.13281,3.93946 -1.11611,0 -2.1211,-2.34408 -2.1211,-4.09375 0,-1.74968 2.11631,-3.01368 3.23243,-3.01368 z" sodipodi:nodetypes="ccccccccccccsssss"/><path id="rect17530" style="opacity:1;fill:#964e21;fill-opacity:1;stroke:none;stroke-width:2.15106;stroke-linejoin:round;stroke-dasharray:none;stroke-opacity:1;stop-color:#000000" d="M 204.69336 118.375 A 8.1710119 8.1710119 0 0 0 197.08984 123.61328 L 104.33789 123.61328 C 102.71291 123.61328 101.4043 124.92189 101.4043 126.54688 C 101.4043 128.17186 102.71291 129.47852 104.33789 129.47852 L 197.08984 129.47852 A 8.1710119 8.1710119 0 0 0 204.69336 134.7168 A 8.1710119 8.1710119 0 0 0 212.86523 126.54688 A 8.1710119 8.1710119 0 0 0 204.69336 118.375 z "/><path id="path18512" style="opacity:1;fill:none;fill-opacity:1;stroke:#4f1e16;stroke-width:2.15106;stroke-linejoin:round;stroke-dasharray:none;stroke-opacity:1;stop-color:#000000" d="M 204.69336 118.375 A 8.1710119 8.1710119 0 0 0 197.08984 123.61328 L 104.33789 123.61328 C 102.71291 123.61328 101.4043 124.92189 101.4043 126.54688 C 101.4043 128.17186 102.71291 129.47852 104.33789 129.47852 L 197.08984 129.47852 A 8.1710119 8.1710119 0 0 0 204.69336 134.7168 A 8.1710119 8.1710119 0 0 0 212.86523 126.54688 A 8.1710119 8.1710119 0 0 0 204.69336 118.375 z "/><circle style="fill:#ffe847;fill-opacity:1;fill-rule:evenodd;stroke-width:0.796296" id="path25717" cx="161.20723" cy="72.108116" r="5.9399409"/><circle style="fill:none;fill-opacity:1;fill-rule:evenodd;stroke-width:0.996;stroke:#dc7e04;stroke-opacity:1;stroke-dasharray:none" id="circle25719" cx="161.20723" cy="72.108116" r="5.9399409"/><circle style="fill:#fffce9;fill-opacity:1;fill-rule:evenodd;stroke-width:0.479166" id="path25721" cx="159.50888" cy="70.035431" r="2.246604"/><path d="m 125.05698,163.73068 c -1.31075,-0.36368 -2.24209,-0.24052 -2.654,-0.45801 -0.4119,-0.2175 -0.56468,-0.52727 -0.45834,-0.92932 l 8.28044,-25.85198 c 0.34029,-1.28657 4.43341,0.72862 12.27936,1.2364 4.50666,0.29167 7.02083,0.68124 8.50434,1.64963 1.50355,0.99697 2.31889,2.19475 2.44601,3.59336 0.0588,0.82168 -0.0536,1.76858 -0.33715,2.84071 -0.55297,2.09068 -1.3342,3.63497 -2.34371,4.63287 -0.98234,0.99965 -1.91204,1.53925 -2.7891,1.6188 1.20509,0.35061 2.10083,1.03562 2.68722,2.05501 0.58639,1.01939 0.57476,2.68164 -0.0349,4.98674 -0.70893,2.68036 -2.06158,4.61023 -4.05793,5.78962 -1.73663,1.03262 -4.70757,1.65912 -7.16071,1.70392 -4.88087,0.0891 -9.17962,-2.23074 -14.36153,-2.86775 z m 14.5573,-14.78556 c 1.38458,0.0896 2.31791,-0.77691 2.79998,-2.59954 0.24104,-0.91132 0.22824,-1.59371 -0.0384,-2.04716 -0.23241,-0.4785 -0.57938,-0.73268 -1.0409,-0.76255 l -1.30313,-0.0843 -1.4356,5.42771 z m -4.07004,11.47303 1.01807,0.0659 c 1.38457,0.0896 2.3179,-0.77691 2.79998,-2.59956 0.24104,-0.91131 0.22824,-1.5937 -0.0384,-2.04715 -0.23241,-0.4785 -0.57937,-0.73268 -1.04089,-0.76255 l -1.30314,-0.0843 z" style="font-weight:bold;font-size:171.391px;font-family:'Titan One';-inkscape-font-specification:'Titan One Bold';text-align:center;text-anchor:middle;fill:#ffffff;fill-opacity:0.958944;stroke-width:3.19527;stroke-linejoin:round" id="path28158" sodipodi:nodetypes="csccsccsccsscaccscsccccsscscc"/><path style="color:#000000;fill:#1d0f36;fill-opacity:0.612903;stroke-linejoin:round;-inkscape-stroke:none" d="m 66.392578,76.482422 c -1.526541,-0.09103 -11.04753,3.47891 -11.04753,3.47891 0,0 11.918535,1.765007 12.928389,2.312105 1.009855,0.547099 1.698684,1.360378 1.78125,4.341797 0.07628,2.703331 3.698653,3.535632 4.947266,1.136719 1.168135,-2.247405 2.487238,-3.044254 3.943359,-3.339844 1.456122,-0.295589 12.380804,3.145257 12.380804,3.145257 0,0 -10.466597,-8.884228 -13.423772,-8.283929 C 76.539628,79.550066 75.216955,80.17192 74,81.056641 73.22831,79.571994 72.137485,78.402154 70.771484,77.662109 69.392789,76.915188 67.919119,76.573455 66.392578,76.482422 Z" id="path31359" sodipodi:nodetypes="scsccscscss"/><path style="color:#000000;fill:#1d0f36;fill-opacity:0.612903;stroke-linejoin:round;-inkscape-stroke:none" d="m 270.86328,84.703125 c -1.52654,0.09103 -3.00021,0.432766 -4.37891,1.179687 -1.366,0.740045 -2.45682,1.909886 -3.22851,3.394532 -1.21698,-0.884755 -2.5396,-1.506569 -3.90234,-1.783203 -2.95718,-0.6003 -12.33384,8.828899 -12.33384,8.828899 0,0 9.83474,-3.985817 11.29087,-3.690228 1.45612,0.29559 2.77522,1.09244 3.94336,3.339844 1.24862,2.398896 4.87096,1.566599 4.94726,-1.136719 0.0826,-2.98142 0.7714,-3.794698 1.78125,-4.341796 1.00986,-0.547099 14.01833,-0.312907 14.01833,-0.312907 0,0 -10.61093,-5.569142 -12.13747,-5.478109 z" id="path31363" sodipodi:nodetypes="sscscsccscs"/><path style="color:#000000;fill:#1d0f36;fill-opacity:0.612903;stroke-linejoin:round;-inkscape-stroke:none" d="m 222.51539,76.396484 c 0.85745,0.728788 1.44025,1.738524 1.39258,3.65625 -0.0514,2.049171 2.65804,2.823486 3.69727,1.056641 1.14561,-1.946857 1.90164,-2.233255 2.77148,-2.226563 0.86984,0.0067 9.17833,4.04927 9.17833,4.04927 0,0 -6.77395,-8.001699 -9.14903,-8.019973 -1.1867,-0.0091 -2.34982,0.368135 -3.41211,1.082032 -0.48287,-1.026726 -1.10693,-1.94367 -1.90625,-2.623047 -1.74135,-1.480063 -11.41526,-0.277057 -11.41526,-0.277057 0,0 7.98555,2.57366 8.84299,3.302447 z" id="path31357" sodipodi:nodetypes="sccscscscs"/><path style="color:#000000;fill:#1d0f36;fill-opacity:0.612903;stroke-linejoin:round;-inkscape-stroke:none" d="m 107.22852,97.958984 c -1.10601,0.06595 -2.17298,0.312361 -3.17188,0.853516 -0.99813,0.540739 -1.79759,1.39754 -2.35742,2.48633 -0.87953,-0.63771 -1.826262,-1.11855 -2.810548,-1.318361 -2.142534,-0.434928 -9.484388,4.647961 -9.484388,4.647961 0,0 7.67354,-1.13751 8.728528,-0.92335 1.054989,0.21416 2.011088,0.78967 2.857418,2.41797 0.90519,1.73719 3.52861,1.13387 3.58399,-0.82422 0.0598,-2.16016 0.55937,-2.74816 1.29101,-3.14453 0.73165,-0.39638 9.73777,0.093 9.73777,0.093 0,0 -7.26848,-4.354222 -8.37448,-4.288276 z" id="path31361" sodipodi:nodetypes="sscscsccscs"/><path style="color:#000000;fill:#1d0f36;fill-opacity:0.612903;stroke-linejoin:round;-inkscape-stroke:none" d="m 230.97852,106.18555 c -1.41466,-0.0844 -8.347,4.19828 -8.347,4.19828 0,0 9.15335,0.65996 10.08918,1.16695 0.93584,0.507 1.57583,1.2605 1.65235,4.02344 0.0726,2.50339 3.42642,3.27361 4.58398,1.05273 1.08252,-2.08269 2.3049,-2.81982 3.6543,-3.09375 1.3494,-0.27392 10.66646,3.25333 10.66646,3.25333 0,0 -8.89282,-8.57135 -11.63326,-8.01505 -1.26347,0.25648 -2.48897,0.83179 -3.61719,1.65235 -0.71509,-1.3751 -1.72677,-2.46094 -2.99218,-3.14649 -1.27766,-0.69217 -2.64199,-1.00744 -4.05664,-1.09179 z" id="path31292" sodipodi:nodetypes="scsccscscss"/></svg>