<svg id="Layer_1" data-name="Layer 1" xmlns="http://www.w3.org/2000/svg" xmlns:xlink="http://www.w3.org/1999/xlink" viewBox="0 0 300 345"><defs><style>.cls-1{fill:url(#linear-gradient);}.cls-2,.cls-6{fill:#fdb913;}.cls-3{fill:#f7941d;}.cls-4{fill:none;}.cls-4,.cls-6{stroke:#f7941d;stroke-linecap:round;stroke-miterlimit:10;stroke-width:3px;}.cls-5{fill:#ffd200;}.cls-7{fill:#86283b;}.cls-8{fill:#be4047;}.cls-9{fill:#d07374;}.cls-10{fill:#2a953c;}.cls-11{fill:#39b54a;}.cls-12{fill:#c97235;}</style><linearGradient id="linear-gradient" x1="150" y1="376.34" x2="150" y2="181.39" gradientUnits="userSpaceOnUse"><stop offset="0" stop-color="#e49553"/><stop offset="0.37" stop-color="#b75f2e"/></linearGradient></defs><g id="lunch"><path class="cls-1" d="M263.62,345H36.38A36.38,36.38,0,0,1,0,308.62V259.14H300v49.48A36.38,36.38,0,0,1,263.62,345Z"/><rect class="cls-2" x="8.03" y="52.09" width="283.93" height="239.82" rx="34.43"/><path class="cls-3" d="M286.74,242.05v1.07a23.32,23.32,0,0,1-23.32,23.31H36.58a23.32,23.32,0,0,1-23.32-23.31v-1.07H0a44,44,0,0,0,44,44H256a44,44,0,0,0,44-44Z"/><path class="cls-3" d="M292.92,156.22H162.38a2,2,0,0,1-1.13-3.54l124.67-88.5-2.31-3.26L155.07,152.16a1.94,1.94,0,0,1-3.07-1.59V51h-4v99.59a1.94,1.94,0,0,1-3.07,1.59L16.39,60.92l-2.31,3.26,124.67,88.5a2,2,0,0,1-1.13,3.54H7.08v4H137.62a2,2,0,0,1,1.13,3.53L14.65,251.84,17,255.11l128-90.84a2,2,0,0,1,3.07,1.59V268.05h4V165.86a2,2,0,0,1,3.07-1.59l128,90.84,2.31-3.27-124.1-88.09a2,2,0,0,1,1.13-3.53H292.92Z"/><path class="cls-3" d="M286.74,242.05v1.07a23.32,23.32,0,0,1-23.32,23.31H36.58a23.32,23.32,0,0,1-23.32-23.31v-1.07H0a44,44,0,0,0,44,44H256a44,44,0,0,0,44-44Z"/><path class="cls-4" d="M26,102.49s8-11.58,17.69,0"/><path class="cls-4" d="M37.45,107.88s7.33-11,15.68,0"/><ellipse class="cls-5" cx="47.55" cy="107.51" rx="1.44" ry="1.95" transform="translate(-70 109.1) rotate(-66.91)"/><ellipse class="cls-5" cx="36.74" cy="101.74" rx="1.44" ry="1.95" transform="translate(-71.26 95.64) rotate(-66.91)"/><path class="cls-4" d="M111.22,73.35s8-11.57,17.69,0"/><path class="cls-4" d="M122.65,78.74s7.34-11,15.69,0"/><ellipse class="cls-5" cx="132.76" cy="78.38" rx="1.44" ry="1.95" transform="translate(8.6 169.77) rotate(-66.91)"/><ellipse class="cls-5" cx="121.94" cy="72.61" rx="1.44" ry="1.95" transform="translate(7.33 156.31) rotate(-66.91)"/><path class="cls-4" d="M159.47,189.23s8-11.57,17.68,0"/><path class="cls-4" d="M170.9,194.63s7.33-11,15.68,0"/><ellipse class="cls-5" cx="181" cy="194.26" rx="1.44" ry="1.95" transform="translate(-68.68 284.6) rotate(-66.91)"/><ellipse class="cls-5" cx="170.19" cy="188.49" rx="1.44" ry="1.95" transform="translate(-69.94 271.14) rotate(-66.91)"/><path class="cls-4" d="M105,227.6s8-11.57,17.69,0"/><path class="cls-4" d="M95.07,232.71s7.34-11,15.69,0"/><ellipse class="cls-5" cx="105.18" cy="232.34" rx="1.44" ry="1.95" transform="translate(-149.8 237.99) rotate(-66.91)"/><ellipse class="cls-5" cx="115.69" cy="226.86" rx="1.44" ry="1.95" transform="translate(-138.36 244.33) rotate(-66.91)"/><path class="cls-4" d="M173.25,102.43s8-11.57,17.69,0"/><path class="cls-4" d="M163.37,107.54s7.33-11,15.68,0"/><ellipse class="cls-5" cx="173.47" cy="107.17" rx="1.44" ry="1.95" transform="translate(6.86 224.73) rotate(-66.91)"/><ellipse class="cls-5" cx="183.98" cy="101.69" rx="1.44" ry="1.95" transform="translate(18.3 231.06) rotate(-66.91)"/><path class="cls-4" d="M35.78,224.47s8-11.58,17.69,0"/><path class="cls-4" d="M25.89,229.57s7.34-11,15.69,0"/><ellipse class="cls-5" cx="36" cy="229.21" rx="1.44" ry="1.95" transform="translate(-188.97 172.45) rotate(-66.91)"/><ellipse class="cls-5" cx="46.5" cy="223.72" rx="1.44" ry="1.95" transform="translate(-177.54 178.78) rotate(-66.91)"/><path class="cls-6" d="M230.67,227.26s11.92-15.19,19.42,4.34"/><path class="cls-4" d="M220.78,232.37s7.34-11,15.69,0"/><ellipse class="cls-5" cx="230.89" cy="232" rx="1.44" ry="1.95" transform="translate(-73.07 353.43) rotate(-66.91)"/><ellipse class="cls-5" cx="241.39" cy="226.52" rx="1.44" ry="1.95" transform="translate(-61.64 359.76) rotate(-66.91)"/><ellipse class="cls-3" cx="148.59" cy="245.61" rx="37.37" ry="17.97"/><ellipse class="cls-3" cx="51.37" cy="191.01" rx="33.27" ry="16"/><ellipse class="cls-3" cx="217.49" cy="123.08" rx="37.37" ry="17.97"/><ellipse class="cls-3" cx="96.6" cy="113.42" rx="37.37" ry="17.97"/><ellipse class="cls-3" cx="240.31" cy="184.83" rx="33.27" ry="16"/><path class="cls-7" d="M246.56,116.29c0,10.52-13.23,19.06-29.54,19.06s-29.55-8.54-29.55-19.06v-5.17h59.09Z"/><ellipse class="cls-8" cx="217.02" cy="110.3" rx="29.55" ry="19.06"/><ellipse class="cls-9" cx="216.71" cy="97.53" rx="6.11" ry="3.17"/><ellipse class="cls-9" cx="197.85" cy="109.38" rx="6.11" ry="3.17"/><ellipse class="cls-9" cx="219.78" cy="122.29" rx="6.11" ry="3.17"/><ellipse class="cls-9" cx="231.13" cy="102.17" rx="3.24" ry="1.54"/><ellipse class="cls-9" cx="233.89" cy="107.51" rx="3.61" ry="1.87"/><ellipse class="cls-9" cx="209.12" cy="110.67" rx="2.17" ry="1.12"/><ellipse class="cls-9" cx="203.95" cy="115.02" rx="3.08" ry="1.6"/><path class="cls-7" d="M126.45,106.23c0,10.53-13.23,19.06-29.55,19.06s-29.55-8.53-29.55-19.06v-5.17h59.1Z"/><ellipse class="cls-8" cx="96.9" cy="100.25" rx="29.55" ry="19.06"/><ellipse class="cls-9" cx="96.6" cy="87.47" rx="6.11" ry="3.17"/><ellipse class="cls-9" cx="77.73" cy="99.32" rx="6.11" ry="3.17"/><ellipse class="cls-9" cx="99.66" cy="112.23" rx="6.11" ry="3.17"/><ellipse class="cls-9" cx="111.01" cy="92.11" rx="3.24" ry="1.54"/><ellipse class="cls-9" cx="113.77" cy="97.45" rx="3.61" ry="1.87"/><ellipse class="cls-9" cx="89" cy="100.62" rx="2.17" ry="1.12"/><ellipse class="cls-9" cx="83.83" cy="104.96" rx="3.08" ry="1.6"/><path class="cls-7" d="M178.14,238.81c0,10.53-13.23,19.06-29.55,19.06s-29.54-8.53-29.54-19.06v-5.16h59.09Z"/><ellipse class="cls-8" cx="148.59" cy="232.83" rx="29.55" ry="19.06"/><ellipse class="cls-9" cx="148.29" cy="220.06" rx="6.11" ry="3.17"/><ellipse class="cls-9" cx="129.42" cy="231.9" rx="6.11" ry="3.17"/><ellipse class="cls-9" cx="151.35" cy="244.81" rx="6.11" ry="3.17"/><ellipse class="cls-9" cx="162.71" cy="224.7" rx="3.24" ry="1.54"/><ellipse class="cls-9" cx="165.47" cy="230.03" rx="3.61" ry="1.87"/><ellipse class="cls-9" cx="140.69" cy="233.2" rx="2.17" ry="1.12"/><ellipse class="cls-9" cx="135.53" cy="237.54" rx="3.08" ry="1.6"/><path class="cls-7" d="M77.82,186.56c0,9.43-11.84,17.06-26.45,17.06S24.93,196,24.93,186.56v-4.62H77.82Z"/><ellipse class="cls-8" cx="51.37" cy="181.21" rx="26.45" ry="17.06"/><ellipse class="cls-9" cx="51.1" cy="169.78" rx="5.46" ry="2.83"/><ellipse class="cls-9" cx="34.22" cy="180.38" rx="5.46" ry="2.83"/><ellipse class="cls-9" cx="53.84" cy="191.93" rx="5.46" ry="2.83"/><ellipse class="cls-9" cx="64.01" cy="173.93" rx="2.9" ry="1.38"/><ellipse class="cls-9" cx="66.48" cy="178.7" rx="3.23" ry="1.67"/><ellipse class="cls-9" cx="44.3" cy="181.54" rx="1.94" ry="1.01"/><ellipse class="cls-9" cx="39.68" cy="185.42" rx="2.76" ry="1.43"/><path class="cls-7" d="M266.57,179.31c0,9.42-11.85,17.06-26.45,17.06s-26.45-7.64-26.45-17.06v-4.62h52.9Z"/><ellipse class="cls-8" cx="240.12" cy="173.95" rx="26.45" ry="17.06"/><ellipse class="cls-9" cx="239.85" cy="162.52" rx="5.46" ry="2.83"/><ellipse class="cls-9" cx="222.96" cy="173.13" rx="5.46" ry="2.83"/><ellipse class="cls-9" cx="242.59" cy="184.68" rx="5.46" ry="2.83"/><ellipse class="cls-9" cx="252.75" cy="166.68" rx="2.9" ry="1.38"/><ellipse class="cls-9" cx="255.22" cy="171.45" rx="3.23" ry="1.67"/><ellipse class="cls-9" cx="233.05" cy="174.29" rx="1.94" ry="1.01"/><ellipse class="cls-9" cx="228.42" cy="178.17" rx="2.76" ry="1.43"/><path class="cls-3" d="M96.11,202.53a10.8,10.8,0,0,0-3.89-3.88,2.44,2.44,0,0,0-3.06.34,5.29,5.29,0,0,0-1,4.66c1.35,6.27-.59,13.76-7,21.08s-13.6,10.21-20,9.68A5.26,5.26,0,0,0,56.62,236a2,2,0,0,0-.5,1.25h0a1.48,1.48,0,0,0,0,.34.86.86,0,0,0,0,.16c.1,1.08.76,3.64,4.58,5.06,7.55,2.8,19-1.61,27.63-11.45S100,209.6,96.11,202.53Z"/><path class="cls-10" d="M88.12,196.41l.92,2.72a4.83,4.83,0,0,0-1,4.29c1.24,5.78-.55,12.68-6.47,19.42s-12.53,9.4-18.42,8.91c-1.62-.13-7.09.17-7.09.17s-.3,3.44,4.24,5.12c6.95,2.58,17.48-1.47,25.44-10.54S96.51,206.42,93,199.91C92.13,198.37,89.15,195.24,88.12,196.41Z"/><path class="cls-11" d="M86.56,196.65h0a4.86,4.86,0,0,0-1,4.29c1.25,5.78-.54,12.67-6.46,19.41s-12.53,9.41-18.42,8.92a4.83,4.83,0,0,0-4.13,1.5h0a2.48,2.48,0,0,0,1.27,3.79c6.92,2.68,17.49-1.48,25.45-10.54s10.72-20.09,7.17-26.6C89.64,195.89,87.58,195.48,86.56,196.65Z"/><path class="cls-3" d="M184.65,76.5a10.82,10.82,0,0,0-3.9-3.88,2.44,2.44,0,0,0-3.06.34,5.29,5.29,0,0,0-1,4.66c1.35,6.27-.59,13.76-7,21.08s-13.6,10.21-20,9.68a5.26,5.26,0,0,0-4.49,1.63,2.09,2.09,0,0,0-.5,1.25h0a3,3,0,0,0,0,.34c0,.05,0,.11,0,.16.11,1.08.76,3.64,4.58,5.06,7.55,2.8,19-1.61,27.63-11.45S188.5,83.57,184.65,76.5Z"/><path class="cls-10" d="M176.65,70.38l.92,2.72a4.89,4.89,0,0,0-.95,4.29c1.24,5.78-.55,12.68-6.47,19.42s-12.52,9.4-18.42,8.91c-1.62-.13-7.09.17-7.09.17s-.3,3.44,4.24,5.12c7,2.58,17.48-1.47,25.45-10.54S185,80.39,181.5,73.88C180.66,72.34,177.68,69.21,176.65,70.38Z"/><path class="cls-11" d="M175.09,70.62h0a4.86,4.86,0,0,0-1,4.29c1.25,5.78-.54,12.67-6.46,19.41s-12.53,9.41-18.42,8.92a4.83,4.83,0,0,0-4.13,1.5h0a2.48,2.48,0,0,0,1.27,3.79c6.92,2.68,17.49-1.48,25.45-10.54S182.56,77.9,179,71.39C178.18,69.86,176.11,69.45,175.09,70.62Z"/><path class="cls-3" d="M265.88,213.28a3.58,3.58,0,0,0-4-1.75h0a7,7,0,0,0-4.59,4.42c-2.89,7.77-10.59,14.7-23.57,18.51s-23.66,2.27-31-2.5a7.93,7.93,0,0,0-6.55-1.16h0a3,3,0,0,0-1.51,1h0s-.1.14-.24.37a1.86,1.86,0,0,0-.1.2c-.65,1.24-1.7,4.48,1.87,8.54,7.05,8,23.94,10.69,41.39,5.57s29.62-16.27,30.08-26.54A13.34,13.34,0,0,0,265.88,213.28Z"/><path class="cls-10" d="M261.17,206.56l-.84,3.9a6.71,6.71,0,0,0-4.19,4.42c-2.63,7.77-9.67,14.7-21.51,18.51s-21.6,2.27-28.27-2.51c-1.83-1.31-8.56-4.84-8.56-4.84s-2.8,3.88,1.4,9.11c6.43,8,21.85,10.68,37.78,5.56s27-16.26,27.47-26.54C264.55,211.75,263.22,205.91,261.17,206.56Z"/><path class="cls-11" d="M259.14,205.73h0a6.77,6.77,0,0,0-4.19,4.43c-2.63,7.76-9.67,14.69-21.51,18.5s-21.6,2.27-28.27-2.5a6.73,6.73,0,0,0-6-1.16h0c-2.05.66-2.67,3.51-1.18,5.42,6.32,8.11,21.86,10.69,37.79,5.57s27.05-16.27,27.46-26.54C263.36,207,261.19,205.07,259.14,205.73Z"/><path class="cls-3" d="M157,172.43a6.17,6.17,0,0,0-5.58,0c-6.8,3.19-15.84,3-25.88-2.44s-15.22-12.81-16.31-20.24a6.14,6.14,0,0,0-3-4.68,2.5,2.5,0,0,0-1.56-.25h0a2.65,2.65,0,0,0-.38.09l-.19.06c-1.2.4-3.95,1.83-4.55,6.56-1.2,9.34,6.83,21.21,20.33,28.47s27.92,7.51,35,1.25a12.7,12.7,0,0,0,3.39-5.46A2.85,2.85,0,0,0,157,172.43Z"/><path class="cls-10" d="M156.64,170.69l-2.81,1.73a5.64,5.64,0,0,0-5.06,0c-6.15,2.9-14.34,2.68-23.43-2.2s-13.79-11.6-14.77-18.33c-.27-1.86-2-7.91-2-7.91s-3.94.56-4.64,6.08c-1.09,8.46,6.19,19.21,18.41,25.78S147.6,182.68,154,177C155.48,175.68,158.21,171.53,156.64,170.69Z"/><path class="cls-11" d="M156,169h0a5.61,5.61,0,0,0-5.06,0c-6.15,2.89-14.34,2.67-23.43-2.21s-13.79-11.6-14.77-18.33a5.58,5.58,0,0,0-2.76-4.24h0c-1.57-.85-3.63.42-3.91,2.41-1.21,8.44,6.19,19.21,18.41,25.78s25.29,6.81,31.67,1.14C157.62,172.26,157.54,169.84,156,169Z"/><path class="cls-12" d="M263.62,61A20.32,20.32,0,0,1,284,81.23V261.86a20.48,20.48,0,0,1-20.38,20.53H36.38A20.4,20.4,0,0,1,16,262V81.38A20.4,20.4,0,0,1,36.38,61H263.62m0-16H36.38A36.38,36.38,0,0,0,0,81.38V262a36.38,36.38,0,0,0,36.38,36.38H263.62A36.41,36.41,0,0,0,300,261.86V81.23A36.35,36.35,0,0,0,263.62,45Z"/><path class="cls-2" d="M214.39,299.27c.51,4.72,5.31,8.61,11.28,9.13,7.72.68,14.25-4.06,14.25-10H214.36A8.63,8.63,0,0,0,214.39,299.27Z"/><path class="cls-3" d="M238.92,294.49a25.77,25.77,0,0,1-2.71-8.41c-.18-1.22-.29-2.45-.37-3.69H218.32a1,1,0,0,1,0,.17v0c-.09,1.05-.22,2.09-.38,3.13,0,.12,0,.25,0,.37h0a30.9,30.9,0,0,1-2.67,8.69,8.19,8.19,0,0,0-.84,3.62h25.56A8.25,8.25,0,0,0,238.92,294.49Z"/><path class="cls-2" d="M174.56,260.05v6.38c3.45,0,6.24,1.9,6.24,4.24a39.76,39.76,0,0,1-2.14,11.72h23.57a.88.88,0,0,0,0-.15c0-.1-.06-.19-.08-.28q-.43-1.5-.75-3l-.06-.27c-.21-1-.39-2.07-.54-3.11,0,0,0-.07,0-.11-.21-1.53-.37-3.07-.46-4.61-.15-2.41,2.68-4.43,6.24-4.43H211c4.18,0,7.58,2.41,7.58,5.37v3h0V275c0,.23,0,.46,0,.69,0,.93,0,1.86,0,2.78,0,.24,0,.48,0,.72,0,1.06-.09,2.12-.18,3.17h17.52c-.15-2.51-.15-5.05-.14-7.62h0v-3c0-3,3.4-5.37,7.58-5.37v-6.38Z"/><path class="cls-3" d="M203.43,286.08a5.74,5.74,0,0,0-.23-.81c-.37-.95-.68-1.91-1-2.88H178.66c-.35,1.1-.7,2.19-1.07,3.29-.05.13-.07.27-.11.4a6.37,6.37,0,0,0-.1,2.43c.65,4.11,5.56,7.46,11.61,7.9,7.93.59,14.64-3.62,14.64-8.89A5.82,5.82,0,0,0,203.43,286.08Z"/></g></svg>