<svg id="Layer_1" data-name="Layer 1" xmlns="http://www.w3.org/2000/svg" xmlns:xlink="http://www.w3.org/1999/xlink" viewBox="0 0 300 345"><defs><style>.cls-1{fill:url(#linear-gradient);}.cls-2{fill:url(#linear-gradient-2);}.cls-3{fill:#ffcd05;}.cls-4{fill:#fabc2e;}.cls-5{fill:#414042;}.cls-6,.cls-7{fill-opacity:0.5;}.cls-6{fill:url(#radial-gradient);}.cls-7{fill:url(#radial-gradient-2);}.cls-8{fill:#fff;}.cls-9{fill:#d62027;}.cls-10{fill:#cd8029;}.cls-11{fill:#8e191b;}.cls-12{fill:#f6871f;}.cls-13{fill:#bc6234;}</style><linearGradient id="linear-gradient" x1="150" y1="356.11" x2="150" y2="161.16" gradientUnits="userSpaceOnUse"><stop offset="0" stop-color="#fabc2e"/><stop offset="1" stop-color="#cd8029"/></linearGradient><linearGradient id="linear-gradient-2" x1="150" y1="356.11" x2="150" y2="202.58" gradientUnits="userSpaceOnUse"><stop offset="0" stop-color="#9d1c20"/><stop offset="0.34" stop-color="#6a140e"/></linearGradient><radialGradient id="radial-gradient" cx="257.16" cy="215.58" r="41.85" gradientUnits="userSpaceOnUse"><stop offset="0" stop-color="#d62027"/><stop offset="1" stop-color="#ffcd05" stop-opacity="0"/></radialGradient><radialGradient id="radial-gradient-2" cx="42.84" cy="215.58" r="41.85" xlink:href="#radial-gradient"/></defs><title>blook_queen-of-hearts</title><g id="alice_in_wonderland" data-name="alice in wonderland"><path class="cls-1" d="M263.62,345H36.38A36.38,36.38,0,0,1,0,308.62V259.14H300v49.48A36.38,36.38,0,0,1,263.62,345Z"/><path class="cls-2" d="M0,259.14v49.48A36.38,36.38,0,0,0,36.38,345H263.62A36.38,36.38,0,0,0,300,308.62V259.14Zm175.8,50.59c-1.56,16.66-25.57,26.48-25.8,26.57h0c-.23-.09-24.24-9.91-25.8-26.57a13.61,13.61,0,0,1,13.32-15.09c5.68,0,10.53-6.68,12.47-1.68,0,0,0-1.85,0-1.86,1.94-5,6.79,3.55,12.47,3.54A13.61,13.61,0,0,1,175.8,309.73Z"/><rect class="cls-3" y="45" width="300" height="253.39" rx="36.38"/><path class="cls-4" d="M150,93.74V53H36.38A36.38,36.38,0,0,0,0,89.38v54.05S9.24,60.28,150,93.74Z"/><path class="cls-4" d="M150,93.74V53H263.62A36.38,36.38,0,0,1,300,89.38v54.05S290.76,60.28,150,93.74Z"/><path class="cls-5" d="M150,85.74V45H36.38A36.38,36.38,0,0,0,0,81.38v54.05S9.24,52.28,150,85.74Z"/><path class="cls-5" d="M150,85.74V45H263.62A36.38,36.38,0,0,1,300,81.38v54.05S290.76,52.28,150,85.74Z"/><circle class="cls-6" cx="257.16" cy="215.58" r="41.85"/><circle class="cls-7" cx="42.84" cy="215.58" r="41.85"/><circle class="cls-4" cx="57.42" cy="160.85" r="36.45"/><circle class="cls-5" cx="57.67" cy="169.01" r="36.45"/><polyline class="cls-5" points="21.35 172.06 9.24 149.06 28.71 151.57"/><polyline class="cls-5" points="22.63 161.58 15.69 136.53 34.18 143.13"/><circle class="cls-8" cx="57.42" cy="179.13" r="36.45"/><path class="cls-9" d="M80.9,183.35a13.21,13.21,0,0,1-19.19-17.9,22.88,22.88,0,1,0,19.19,17.9ZM48.85,203.11a5.46,5.46,0,1,1,5.45-5.45A5.45,5.45,0,0,1,48.85,203.11Z"/><circle class="cls-4" cx="242.58" cy="160.85" r="36.45"/><circle class="cls-5" cx="242.58" cy="169.01" r="36.45"/><polyline class="cls-5" points="278.91 172.06 291.02 149.06 271.55 151.57"/><polyline class="cls-5" points="277.62 161.58 284.56 136.53 266.07 143.13"/><circle class="cls-8" cx="242.58" cy="179.13" r="36.45"/><path class="cls-9" d="M263.92,183.22a13.22,13.22,0,0,1-19.08-17.76,22.66,22.66,0,0,0-3.32-.25,22.93,22.93,0,1,0,22.93,22.93A23.47,23.47,0,0,0,263.92,183.22ZM231.7,203.11a5.46,5.46,0,1,1,5.45-5.45A5.45,5.45,0,0,1,231.7,203.11Z"/><path class="cls-5" d="M30.11,111.5a34.54,34.54,0,0,1,6.45-4.91,44.67,44.67,0,0,1,23.94-6.4,45.86,45.86,0,0,1,16.7,3.66c.66.28,1.32.56,2,.86l1.91,1c1.29.63,2.48,1.41,3.72,2.12a49,49,0,0,1,6.87,5.39,53.62,53.62,0,0,1,5.67,6.52,68.94,68.94,0,0,1,4.47,7.14c2.63,4.86,4.66,9.83,6.78,14.44s4.44,8.8,8.33,10.8a14.26,14.26,0,0,0,6.87,1.34,46.63,46.63,0,0,0,7.76-1.07,30.85,30.85,0,0,1-7.35,3.55,16.17,16.17,0,0,1-8.76.35,17.37,17.37,0,0,1-7.84-4.76,39.33,39.33,0,0,1-5.21-6.8c-1.47-2.33-2.78-4.66-4.07-6.94s-2.55-4.5-3.9-6.63a57.45,57.45,0,0,0-9-11.44A41.72,41.72,0,0,0,80,115.25a54,54,0,0,0-6.28-3.65,47,47,0,0,0-13.75-4.38C50.29,105.78,39.93,107.36,30.11,111.5Z"/><path class="cls-5" d="M269.89,111.5c-9.82-4.14-20.18-5.72-29.82-4.28a47,47,0,0,0-13.75,4.38,54,54,0,0,0-6.28,3.65,41.72,41.72,0,0,0-5.49,4.45,57.45,57.45,0,0,0-9,11.44c-1.35,2.13-2.59,4.37-3.9,6.63s-2.6,4.61-4.07,6.94a39.33,39.33,0,0,1-5.21,6.8,17.37,17.37,0,0,1-7.84,4.76,16.17,16.17,0,0,1-8.76-.35,30.85,30.85,0,0,1-7.35-3.55,46.63,46.63,0,0,0,7.76,1.07,14.26,14.26,0,0,0,6.87-1.34c3.89-2,6.19-6.22,8.33-10.8s4.15-9.58,6.78-14.44a68.94,68.94,0,0,1,4.47-7.14,53.62,53.62,0,0,1,5.67-6.52,49,49,0,0,1,6.87-5.39c1.24-.71,2.43-1.49,3.72-2.12l1.91-1c.65-.3,1.31-.58,2-.86a45.86,45.86,0,0,1,16.7-3.66,44.67,44.67,0,0,1,23.94,6.4A34.54,34.54,0,0,1,269.89,111.5Z"/><path class="cls-10" d="M140.68,154.69A54.57,54.57,0,0,1,146,166.52,44.81,44.81,0,0,1,147.6,173a25.22,25.22,0,0,1,.26,7.23,12.28,12.28,0,0,1-1.41,4.32,8.15,8.15,0,0,1-4.61,3.8l-.74.21-.52.11c-.34.07-.67.13-1,.17a19,19,0,0,1-2,.19,27.3,27.3,0,0,1-3.76-.13,45.47,45.47,0,0,1-6.75-1.27l-3-.72a15.43,15.43,0,0,0-2.31-.42c-.25,0-.4,0-.21,0a2.21,2.21,0,0,0,1.1-.8,2.17,2.17,0,0,0,.26-.5l0-.07s0-.07,0,0l-.07.26c-.1.38-.19.82-.26,1.26a38.52,38.52,0,0,0-.53,5.53,28.54,28.54,0,0,0,1.67,10.77,17.3,17.3,0,0,0,6.66,8.34,32.86,32.86,0,0,0,11.35,4.34,24.66,24.66,0,0,1-13.16-.56,19.57,19.57,0,0,1-6.21-3.5,21.17,21.17,0,0,1-4.72-5.56,30.66,30.66,0,0,1-3.9-13.61,36.84,36.84,0,0,1,.19-7c.08-.6.17-1.2.3-1.85l.1-.5.1-.37a3.73,3.73,0,0,1,.14-.44,6.81,6.81,0,0,1,1-1.9,6.55,6.55,0,0,1,1.78-1.62,7.16,7.16,0,0,1,1.93-.83,9.82,9.82,0,0,1,2.92-.28,23,23,0,0,1,3.9.6c1.12.26,2.15.54,3.14.8,2,.52,3.84,1,5.6,1.25a17.24,17.24,0,0,0,2.52.21c.4,0,.8,0,1.18,0l.56,0,.25,0h0s-.07.22.21,0a4,4,0,0,0,.75-1.56,22.37,22.37,0,0,0,.78-5.33c.1-1.95.09-4,0-6C141.12,163.23,140.83,159,140.68,154.69Z"/><path class="cls-9" d="M161.14,229.28A11.93,11.93,0,0,0,150,236.92a11.93,11.93,0,0,0-23.07,4.29c0,15.84,23.07,25.2,23.07,25.2s23.07-9.36,23.07-25.2A11.93,11.93,0,0,0,161.14,229.28Z"/><path class="cls-10" d="M107.66,271.63a53.24,53.24,0,0,1,7-11.09,61.46,61.46,0,0,1,9.46-9.41,49.24,49.24,0,0,1,11.82-7,44.19,44.19,0,0,1,6.79-2.1,40.38,40.38,0,0,1,7.22-.76,41.3,41.3,0,0,1,7.21.76,45.71,45.71,0,0,1,6.79,2.11,49.81,49.81,0,0,1,11.81,7,61.53,61.53,0,0,1,9.47,9.41,52.88,52.88,0,0,1,7.06,11.09A144.79,144.79,0,0,0,171.85,257c-7-4-14.52-6.74-21.86-6.74S135.16,253,128.13,257A143,143,0,0,0,107.66,271.63Z"/><path class="cls-11" d="M157.21,242a41.3,41.3,0,0,0-7.21-.76,40.38,40.38,0,0,0-7.22.76,44.19,44.19,0,0,0-6.79,2.1,48.12,48.12,0,0,0-7.57,4,24.6,24.6,0,0,0,4.31,6.5A40.66,40.66,0,0,1,150,250.25a41,41,0,0,1,17.25,4.36,24.93,24.93,0,0,0,4.34-6.51,48.31,48.31,0,0,0-7.58-4A45.71,45.71,0,0,0,157.21,242Z"/><path class="cls-9" d="M175.58,0A27.41,27.41,0,0,0,150,17.56a27.41,27.41,0,0,0-53,9.85c0,36.37,53,57.88,53,57.88s53-21.51,53-57.88A27.41,27.41,0,0,0,175.58,0Z"/><path class="cls-12" d="M166.43,77,150,55.1h0L133.57,77l-21.64-17.2,14.81,26s6.76,5.61,23.26,5.61,23.26-5.61,23.26-5.61l14.81-26Z"/><path class="cls-4" d="M126.43,90.64s6.84,4.28,23.57,4.28,23.57-4.28,23.57-4.28v7.85s-6.84,4.28-23.57,4.28-23.57-4.28-23.57-4.28Z"/><path class="cls-13" d="M126.43,84.64s6.84,4.28,23.57,4.28,23.57-4.28,23.57-4.28v7.85s-6.84,4.28-23.57,4.28-23.57-4.28-23.57-4.28Z"/></g></svg>