<svg id="Layer_1" data-name="Layer 1" xmlns="http://www.w3.org/2000/svg" xmlns:xlink="http://www.w3.org/1999/xlink" viewBox="0 0 300 345"><defs><style>.cls-1{fill:url(#linear-gradient);}.cls-2{fill:#eab371;}.cls-3{fill:#c88b4b;}.cls-4{fill:url(#linear-gradient-2);}.cls-5{fill:#f6a9cb;}.cls-6{fill:#d62027;}.cls-7{fill:#ef4041;}.cls-8{fill:#dc6626;}.cls-9{fill:#f47e20;}.cls-10{fill:#f3b71c;}.cls-11{fill:#ffcf32;}.cls-12{fill:#8cbd40;}.cls-13{fill:#70a041;}.cls-14{fill:url(#linear-gradient-3);}.cls-15{fill:#e9a058;}.cls-16{fill:#c67e41;}.cls-17{fill:#9a3e21;}.cls-18{fill:#6c9355;}.cls-19{fill:#617c4d;}.cls-20{fill:#ce2235;}.cls-21{fill:#8c141c;}</style><linearGradient id="linear-gradient" x1="150" y1="381.25" x2="150" y2="186.29" gradientUnits="userSpaceOnUse"><stop offset="0.14" stop-color="#c88b4b"/><stop offset="0.25" stop-color="#af6d2f"/></linearGradient><linearGradient id="linear-gradient-2" x1="150" y1="362.47" x2="150" y2="159.46" gradientUnits="userSpaceOnUse"><stop offset="0.09" stop-color="#f6a9cb"/><stop offset="0.32" stop-color="#c62c6b"/></linearGradient><linearGradient id="linear-gradient-3" x1="150" y1="300.15" x2="150" y2="105.2" gradientUnits="userSpaceOnUse"><stop offset="0.1" stop-color="#c88b4b"/><stop offset="0.3" stop-color="#af6d2f"/></linearGradient></defs><title>blook-sandwich</title><path class="cls-1" d="M243.66,345H56.35A36.38,36.38,0,0,1,20,308.62V259.14H280v49.48A36.38,36.38,0,0,1,243.66,345Z"/><path class="cls-2" d="M56.43,328.57A30.5,30.5,0,0,1,26,298.11V194.61H274v103.5a30.49,30.49,0,0,1-30.46,30.46Z"/><path class="cls-3" d="M268,200.61v97.5a24.48,24.48,0,0,1-24.46,24.46H56.43A24.49,24.49,0,0,1,32,298.11v-97.5H268m12-12H20v109.5a36.46,36.46,0,0,0,36.47,36.46H243.58A36.46,36.46,0,0,0,280,298.11V188.61Z"/><path class="cls-4" d="M247.53,324.73H52.47a37.88,37.88,0,0,1-37.88-37.89V235.32H285.42v51.52A37.88,37.88,0,0,1,247.53,324.73Z"/><path class="cls-5" d="M14.59,166.05v114a38,38,0,0,0,38,38H247.44a38,38,0,0,0,38-38v-114Z"/><path class="cls-6" d="M279.07,275.12c0,19.78-26.85,35.82-60,35.82s-60-16-60-35.82V263.63l119.93-.16Z"/><ellipse class="cls-7" cx="219.1" cy="263.47" rx="59.97" ry="35.83"/><path class="cls-6" d="M186.82,285.43A73.73,73.73,0,0,0,211.24,292a5.89,5.89,0,0,0,6.46-5.87V270.62a5.89,5.89,0,0,0-5.89-5.89H176.93a5.9,5.9,0,0,0-4.66,9.5C175.49,278.49,180.43,282.34,186.82,285.43Z"/><path class="cls-6" d="M269.51,262.71c0-8-5.73-15.78-15.62-21.45a6.36,6.36,0,0,0-7.23.61L222,262.5a6.31,6.31,0,0,0-2.26,4.83v18.82a6.3,6.3,0,0,0,7,6.27,70.58,70.58,0,0,0,26.66-8C263.63,278.75,269.51,270.82,269.51,262.71Z"/><path class="cls-6" d="M141.47,275.12c0,19.78-26.85,35.82-60,35.82s-60-16-60-35.82V263.63l119.94-.16Z"/><ellipse class="cls-7" cx="81.5" cy="263.47" rx="59.97" ry="35.83"/><path class="cls-6" d="M49.22,285.43A73.73,73.73,0,0,0,73.64,292a5.89,5.89,0,0,0,6.46-5.87V270.62a5.89,5.89,0,0,0-5.89-5.89H39.33a5.9,5.9,0,0,0-4.66,9.5C37.89,278.49,42.83,282.34,49.22,285.43Z"/><path class="cls-6" d="M131.91,262.71c0-8-5.74-15.78-15.62-21.45a6.36,6.36,0,0,0-7.23.61L84.42,262.5a6.31,6.31,0,0,0-2.26,4.83v18.82a6.3,6.3,0,0,0,7,6.27,70.58,70.58,0,0,0,26.66-8C126,278.75,131.91,270.82,131.91,262.71Z"/><path class="cls-8" d="M85.64,285.34l49.47,35.05a11.3,11.3,0,0,1,4.77,5.92L147.63,341l28.27-16.34a17.25,17.25,0,0,0,5-5.33l24.82-34.61-60.38-55.11Z"/><path class="cls-9" d="M149.77,295.05l-4.45-65.48L85.64,285.34l49.47,35.05a11.3,11.3,0,0,1,4.77,5.92L147.63,341l4.75-15.32Z"/><path class="cls-10" d="M93.2,283.73l45.22,32.45a10.09,10.09,0,0,1,4.23,5.24l7,12.52,24.91-14A15.25,15.25,0,0,0,179,315.2l23.16-31.84-54.67-47.64Z"/><path class="cls-11" d="M145.1,316.32a27.43,27.43,0,0,1,6.76-2,44.19,44.19,0,0,1,6.76-.59,37.66,37.66,0,0,1,6.77.51,24.7,24.7,0,0,1,6.76,2.05,24.39,24.39,0,0,1-6.76,2.06,37.64,37.64,0,0,1-6.77.5,44.18,44.18,0,0,1-6.76-.58A27.9,27.9,0,0,1,145.1,316.32Z"/><path class="cls-12" d="M294,197.4a17.77,17.77,0,0,0-3.31-10.33l-3.23-4.52a4.53,4.53,0,0,1,.26-5.59,23.83,23.83,0,0,0,1.91-28.66l-9-13.71H18.87l-9,13.71A23.83,23.83,0,0,0,11.78,177a4.51,4.51,0,0,1,.26,5.59l-3.22,4.52A17.7,17.7,0,0,0,5.51,197.4v.24a17.81,17.81,0,0,0,5.2,12.58,14.11,14.11,0,0,0-4.13,10v7.23A14.14,14.14,0,0,0,10,236.59l5.73,6.68-4.23,14.28a12.29,12.29,0,0,0,13.22,15.69l6.4-.76,3.63,10A18.43,18.43,0,0,0,64,290.21l11.28-9.58a18.43,18.43,0,0,0,24.56,4.54l10.08-6.35,17,18.62a12.55,12.55,0,0,0,18.33.23l3.54-3.68-3.54-10.42,4.47,1.52a7.5,7.5,0,0,0,6.63-.9l7.91-5.37,9.41,11.9a15.62,15.62,0,0,0,25.93-2.11l1.49-2.7a18.43,18.43,0,0,0,23.25-5.28l11.28,9.58a18.42,18.42,0,0,0,29.24-7.75l3.63-10,6.4.76a12.29,12.29,0,0,0,13.22-15.69l-4.22-14.28,5.72-6.68a14.08,14.08,0,0,0,3.39-9.17v-7.23a14.11,14.11,0,0,0-4.13-10A17.82,17.82,0,0,0,294,197.64Z"/><path class="cls-13" d="M19.8,161.5l-6.91,3.79a4.54,4.54,0,0,0,.13,8l5.12,2.57a4.55,4.55,0,0,1,2.48,4.35l-.76,11.55a4.56,4.56,0,0,1-1.69,3.25L12,200a4.53,4.53,0,0,0,.65,7.52c3.17,1.74,6.53,3.44,6.89,3.06.52-.54,1,8.17,1.21,12.84a4.52,4.52,0,0,1-2.37,4.19l-1.19.65a4.53,4.53,0,0,0,1.46,8.47l3.17.5a4.54,4.54,0,0,1,3.59,3l2.23,6.39a4.54,4.54,0,0,1-.51,4l-6.34,9.5a4.54,4.54,0,0,0,5.45,6.74l12-4.74a4.54,4.54,0,0,1,6.21,4.5l-.9,14.59a4.54,4.54,0,0,0,7.87,3.35l13.93-15.16A4.58,4.58,0,0,1,69,268l9.71.89a4.53,4.53,0,0,1,4.09,3.94c.62,4.87,3.55,8.11,4.21,8.11s4.3,1.16,11.24-10a4.13,4.13,0,0,1,4.12-1.6l6,.82a4.58,4.58,0,0,1,3,1.69l5,6.31a4.54,4.54,0,0,0,8-3.7l-.19-.95a4.54,4.54,0,0,1,4.28-5.43l15.75-.58a4.55,4.55,0,0,1,4.69,4.1h0a4.54,4.54,0,0,0,8.29,2.08l1.47-2.2a4.53,4.53,0,0,1,3.77-2H172a4.53,4.53,0,0,1,4.29,3.06l2.39,7a4.54,4.54,0,0,0,8.7-.37l1.57-6.28a4.54,4.54,0,0,1,4.65-3.43l6.69.36a4.55,4.55,0,0,1,4,2.77l1,2.29a4.54,4.54,0,0,0,8.55-.53l.51-1.78a4.54,4.54,0,0,1,4.37-3.31h17.25a4.55,4.55,0,0,1,4,2.39l4,7.38a4.54,4.54,0,0,0,8.51-1.61l.86-7.24a4.52,4.52,0,0,1,2.35-3.46l8.84-4.78A4.51,4.51,0,0,1,269,262l1,.61a4.54,4.54,0,0,0,6.47-5.86l-.86-1.74a4.53,4.53,0,0,1-.27-3.33l4-13.13a4.53,4.53,0,0,1,3-3l.5-.16a4.54,4.54,0,0,0,.61-8.42l-1.17-.56a4.55,4.55,0,0,1-2.53-4.66l1-7.64a4.55,4.55,0,0,1,2.08-3.27l1.41-.88a4.55,4.55,0,0,0,.65-7.2l-2.69-2.46a4.54,4.54,0,0,1-1.43-2.66l-2.21-14.36a4.58,4.58,0,0,1,1.54-4.14l7.21-6.16a4.53,4.53,0,0,0-.1-7l-1.55-1.24a4.54,4.54,0,0,0-5.86.14L265.5,177.55A4.56,4.56,0,0,0,264,181v56.12a4.55,4.55,0,0,1-1.33,3.21l-14.39,14.39a4.55,4.55,0,0,1-3.21,1.33H70.53a4.48,4.48,0,0,1-1.77-.36L42.41,244.47a4.48,4.48,0,0,1-2.53-2.72l-6.44-19a4.51,4.51,0,0,1-.24-1.46V165.48a4.54,4.54,0,0,0-4.54-4.54H22A4.62,4.62,0,0,0,19.8,161.5Z"/><path class="cls-14" d="M243.66,263.9H56.35A36.38,36.38,0,0,1,20,227.52V178H280v49.48A36.38,36.38,0,0,1,243.66,263.9Z"/><path class="cls-2" d="M56.43,247.47A30.5,30.5,0,0,1,26,217V168.49A45,45,0,0,0,18.77,144,79.84,79.84,0,0,1,85.94,20.44c1.69,0,3.41,0,5.12.15a79.7,79.7,0,0,1,43.68,16.24,25.08,25.08,0,0,0,30.53,0A79.67,79.67,0,0,1,209,20.59c1.7-.1,3.43-.15,5.12-.15A80.17,80.17,0,0,1,281.24,144a45,45,0,0,0-7.2,24.48V217a30.49,30.49,0,0,1-30.46,30.46Z"/><path class="cls-3" d="M214.07,26.44A74.17,74.17,0,0,1,276.2,140.76,51,51,0,0,0,268,168.49V217a24.48,24.48,0,0,1-24.46,24.46H56.43A24.49,24.49,0,0,1,32,217V168.49a51,51,0,0,0-8.15-27.73A73.84,73.84,0,0,1,85.93,26.44h0c1.58,0,3.19,0,4.77.14a73.72,73.72,0,0,1,40.4,15,31.08,31.08,0,0,0,37.81,0,73.72,73.72,0,0,1,40.4-15c1.59-.09,3.19-.14,4.76-.14m0-12c-1.81,0-3.64.05-5.48.16a85.75,85.75,0,0,0-47,17.46,19.08,19.08,0,0,1-23.25,0,85.75,85.75,0,0,0-47-17.46c-1.84-.11-3.67-.16-5.48-.16-49.12,0-88,40-85.86,89.88a85.74,85.74,0,0,0,13.65,43A39.11,39.11,0,0,1,20,168.49V217a36.46,36.46,0,0,0,36.47,36.46H243.58A36.46,36.46,0,0,0,280,217V168.49a39.12,39.12,0,0,1,6.24-21.22,85.83,85.83,0,0,0,13.65-43c2.11-49.87-36.75-89.88-85.86-89.88Z"/><path class="cls-15" d="M253.81,156h-1.43a5.34,5.34,0,0,0-3.78,1.56l-13.71,13.71a5.33,5.33,0,0,1-7.55,0l-.62-.61a4.81,4.81,0,0,1-.42-.48l-1.39-1.76a5.34,5.34,0,0,1,.43-7.08l10.22-10.23a5.34,5.34,0,0,0,1.56-3.77v-8.75a5.34,5.34,0,0,0-5.34-5.34h-7.06a5.35,5.35,0,0,1-5.3-4.66,5.33,5.33,0,0,0,1.46-3.65v-8.7a5.35,5.35,0,0,0-5.34-5.35h-9.39a5.35,5.35,0,0,0-3.78,1.57l-7.62,7.62a5.34,5.34,0,0,1-7.56,0l-4.63-4.63a5.35,5.35,0,0,1,0-7.55l23.77-23.76a5.36,5.36,0,0,0,1.56-3.78V68.18a5.34,5.34,0,0,0-5.34-5.34H187.94a5.34,5.34,0,0,0-3.77,1.56l-40.94,40.94a5.35,5.35,0,0,1-7.55,0L134,103.61a5.36,5.36,0,0,1,0-7.56l7.42-7.41a5.34,5.34,0,0,0,1.56-3.78v-14a5.34,5.34,0,0,0-5.34-5.34H121.4a5.34,5.34,0,0,0-3.77,1.56L96,88.75a5.35,5.35,0,0,1-7.55,0h0a5.34,5.34,0,0,1,0-7.56L93.63,76a5.3,5.3,0,0,0,1.57-3.77V65a5.34,5.34,0,0,0-5.34-5.34H78.79A5.3,5.3,0,0,0,75,61.26L55.87,80.4h0L27.81,108.45a5.34,5.34,0,0,0-1.56,3.78v.85a5.34,5.34,0,0,0,5.34,5.34H33a5.34,5.34,0,0,0,3.78-1.56l13.71-13.71a5.34,5.34,0,0,1,7.56,0l.61.61a6.14,6.14,0,0,1,.42.47L60.49,106a5.35,5.35,0,0,1-.42,7.08L49.84,123.3a5.34,5.34,0,0,0-1.56,3.78v8.75a5.34,5.34,0,0,0,5.34,5.34h7.06l5.56,6.58-1.72,10.43a5.34,5.34,0,0,0,5.34,5.34h9.39A5.34,5.34,0,0,0,83,162l7.62-7.63a5.36,5.36,0,0,1,7.56,0l4.63,4.63a5.36,5.36,0,0,1,0,7.56L79.08,190.28a5.31,5.31,0,0,0-1.57,3.78v12.17a5.35,5.35,0,0,0,5.34,5.35H97.46a5.37,5.37,0,0,0,3.78-1.57l40.93-40.93a5.33,5.33,0,0,1,7.55,0l1.73,1.72a5.34,5.34,0,0,1,0,7.56L144,185.77a5.31,5.31,0,0,0-1.57,3.78v14a5.35,5.35,0,0,0,5.34,5.35H164a5.35,5.35,0,0,0,3.78-1.57l21.67-21.67a5.34,5.34,0,0,1,7.56,7.55l-5.24,5.24a5.35,5.35,0,0,0-1.57,3.78v7.14a5.35,5.35,0,0,0,5.35,5.34h11.06a5.38,5.38,0,0,0,3.78-1.56L229.53,194h0L257.59,166a5.34,5.34,0,0,0,1.56-3.78v-.84A5.34,5.34,0,0,0,253.81,156Z"/><ellipse class="cls-16" cx="157.88" cy="125.07" rx="10" ry="5.21"/><path class="cls-17" d="M155.84,92.47l4.66,32a2.61,2.61,0,0,1-2.12,2.94h0a2.6,2.6,0,0,1-3-2l-6.63-31.67Z"/><ellipse class="cls-18" cx="149.96" cy="79.92" rx="38.3" ry="30.82" transform="translate(-11.64 27.39) rotate(-10.05)"/><path class="cls-19" d="M164.85,94.71c-5.38,12-18.42,13.71-31,8.06S114.52,85,119.37,74.22s15.85-8,28.41-2.34S170.24,82.75,164.85,94.71Z"/><ellipse class="cls-20" cx="167.94" cy="76.73" rx="14.5" ry="19.01" transform="translate(-10.81 30.47) rotate(-10.05)"/><path class="cls-21" d="M164.62,58a12.92,12.92,0,0,0-3.07,1c6.74.42,12.3,5.9,14.16,16.38S174,92.85,168,95.58a12,12,0,0,0,3.22-.13c7.87-1.4,13.13-9,11-21.25S172.86,56.55,164.62,58Z"/><path class="cls-17" d="M138.36,14.44a79.39,79.39,0,0,1,3.89,10.77c1.08,3.63,1.9,7.31,2.68,11s1.49,7.38,2.11,11.09,1.12,7.45,1.39,11.22l-4.39.78c-1-3.64-1.82-7.32-2.54-11s-1.33-7.4-1.84-11.13-1-7.47-1.26-11.25A81,81,0,0,1,138.36,14.44Z"/></svg>