<svg id="Layer_1" data-name="Layer 1" xmlns="http://www.w3.org/2000/svg" xmlns:xlink="http://www.w3.org/1999/xlink" viewBox="0 0 300 345"><defs><style>.cls-1{fill:#8e191b;}.cls-2{fill:#d62027;}.cls-3{fill:url(#linear-gradient);}.cls-4{fill:#dae6f5;}.cls-5{fill:url(#linear-gradient-2);}.cls-6{fill:#7ca1d5;}.cls-7{fill:#2f2c38;}.cls-8{fill:#f68b1f;}.cls-9{fill:#fff;}.cls-10{fill:#15141a;}.cls-11{fill:#484454;}</style><linearGradient id="linear-gradient" x1="150" y1="332.23" x2="150" y2="176.52" gradientUnits="userSpaceOnUse"><stop offset="0" stop-color="#9dc6ea"/><stop offset="0.69" stop-color="#416eb5"/></linearGradient><linearGradient id="linear-gradient-2" x1="150" y1="163.95" x2="150" y2="42.92" gradientUnits="userSpaceOnUse"><stop offset="0" stop-color="#9dc6ea"/><stop offset="0.94" stop-color="#416eb5"/></linearGradient></defs><title>blook_snowman</title><path class="cls-1" d="M250.49,201.32s10.87,7.76,18.34,7.76A50.74,50.74,0,0,0,284,206.24l-8.61,41s-29.88,1.67-38.49-18"/><path class="cls-2" d="M242,186.4s11.75,6.35,19.16,5.42a50.75,50.75,0,0,0,14.7-4.7l-3.44,41.77s-29.44,5.37-40.42-13"/><path class="cls-3" d="M217.74,345H82.26c-22.05,0-39.92-19.88-39.92-44.41V276.43H257.66v24.16C257.66,325.12,239.79,345,217.74,345Z"/><path class="cls-4" d="M217.79,159.15H82.21c-22.06,0-39.94,19.88-39.94,44.41v70.88c0,24.53,17.88,44.42,39.94,44.42H217.79c22.06,0,39.94-19.89,39.94-44.42V203.56C257.73,179,239.85,159.15,217.79,159.15Z"/><path class="cls-5" d="M205,172.82H95a37.89,37.89,0,0,1-37.84-37.94V119.52H242.86v15.36A37.89,37.89,0,0,1,205,172.82Z"/><rect class="cls-4" x="56.88" y="23.52" width="186.24" height="125.34" rx="37.94"/><circle class="cls-6" cx="207.47" cy="98.6" r="22.63"/><circle class="cls-6" cx="92.53" cy="98.6" r="22.63"/><circle class="cls-7" cx="207.47" cy="104.88" r="22.63"/><circle class="cls-7" cx="92.53" cy="104.88" r="22.63"/><path class="cls-8" d="M155.37,116.77c0,5.17-3.43,9.36-7.67,9.36s-41-3.11-41-9.36,36.74-9.36,41-9.36S155.37,111.6,155.37,116.77Z"/><circle class="cls-7" cx="150" cy="139.92" r="4.99"/><circle class="cls-7" cx="166.92" cy="138.21" r="4.99"/><circle class="cls-7" cx="182.88" cy="133.22" r="4.99"/><circle class="cls-7" cx="133.08" cy="138.21" r="4.99"/><circle class="cls-7" cx="117.12" cy="133.22" r="4.99"/><circle class="cls-9" cx="212.51" cy="96.11" r="7.9"/><circle class="cls-9" cx="97.57" cy="96.11" r="7.9"/><ellipse class="cls-10" cx="76.43" cy="47.42" rx="37.66" ry="17.78" transform="translate(-10.14 71.85) rotate(-47.58)"/><path class="cls-7" d="M90.43,27.05c5.37,4.9,2.32,17-6.8,27S62.76,68.1,57.4,63.2L30.26,43,67.87,1.84Z"/><ellipse class="cls-11" cx="49.07" cy="22.42" rx="27.88" ry="13.16" transform="translate(-0.58 43.52) rotate(-47.58)"/><path class="cls-2" d="M73,44.31C65.41,52.64,56.52,57.68,50.2,57.84l7.2,5.36c5.36,4.9,17.1.78,26.23-9.2s12.17-22,6.8-26.95l-6-6.69C84.85,26.67,80.64,36,73,44.31Z"/><path class="cls-10" d="M58.21,186.83l-37-42.09-1.08-27.05a3.5,3.5,0,1,0-7,.28l.77,19.35L6,129.18a3.5,3.5,0,1,0-5,4.87l11.64,12L4,144.75A3.5,3.5,0,0,0,3,151.67l16.23,2.48a3.27,3.27,0,0,0,.54,0,3,3,0,0,0,.42,0L53,191.45a3.5,3.5,0,1,0,5.26-4.62Z"/><path class="cls-10" d="M241.79,186.83l37-42.09,1.08-27.05a3.5,3.5,0,1,1,7,.28l-.77,19.35,7.9-8.14a3.5,3.5,0,1,1,5,4.87l-11.64,12,8.6-1.32a3.5,3.5,0,0,1,1.06,6.92l-16.23,2.48a3.27,3.27,0,0,1-.54,0,3,3,0,0,1-.42,0l-32.79,37.3a3.5,3.5,0,1,1-5.26-4.62Z"/><path class="cls-2" d="M238.74,152a22.22,22.22,0,0,1-19.47,11.22H80.73A22.22,22.22,0,0,1,61.26,152a20.65,20.65,0,0,0-2.66,9.23h-.05v4h.05c.5,11.36,10.2,20.44,22.13,20.44H219.27c11.93,0,21.63-9.08,22.13-20.44h0v-4h0A20.65,20.65,0,0,0,238.74,152Z"/><path class="cls-1" d="M102.15,185.64a23.67,23.67,0,0,1-4-12.82,18.61,18.61,0,0,1,2.6-9.62H82a18.61,18.61,0,0,0-2.59,9.62,23.68,23.68,0,0,0,4,12.82Z"/><path class="cls-1" d="M76.54,185.25a25.35,25.35,0,0,1-3.88-13.16A20,20,0,0,1,75,162.47a22.17,22.17,0,0,1-12.22-8.11A34.56,34.56,0,0,0,58.62,161a2.28,2.28,0,0,0,0,.26h-.05v4h.05A21.62,21.62,0,0,0,76.54,185.25Z"/><path class="cls-1" d="M225,162.47a20,20,0,0,1,2.36,9.62,25.35,25.35,0,0,1-3.88,13.16A21.62,21.62,0,0,0,241.4,165.2h0v-4h0a2.28,2.28,0,0,0,0-.26,34.56,34.56,0,0,0-4.18-6.59A22.17,22.17,0,0,1,225,162.47Z"/><path class="cls-1" d="M128.36,172.82a29.39,29.39,0,0,1,1.51-9.62H108.15a29.39,29.39,0,0,0-1.51,9.62A36.11,36.11,0,0,0,109,185.64h21.72A36.11,36.11,0,0,1,128.36,172.82Z"/><path class="cls-1" d="M216.54,185.64a23.68,23.68,0,0,0,4-12.82A18.61,18.61,0,0,0,218,163.2H199.29a18.61,18.61,0,0,1,2.6,9.62,23.67,23.67,0,0,1-4,12.82Z"/><path class="cls-1" d="M191,185.64a36.11,36.11,0,0,0,2.35-12.82,29.39,29.39,0,0,0-1.51-9.62H170.13a29.39,29.39,0,0,1,1.51,9.62,36.11,36.11,0,0,1-2.35,12.82Z"/><path class="cls-1" d="M160.47,172.82V163.2H141.85v22.44h18.62Z"/><circle class="cls-6" cx="150" cy="204.63" r="8.06"/><circle class="cls-7" cx="150" cy="200.89" r="8"/><circle class="cls-6" cx="150" cy="232.79" r="8.06"/><circle class="cls-7" cx="150" cy="229.06" r="8"/><circle class="cls-6" cx="150" cy="260.96" r="8.06"/><circle class="cls-7" cx="150" cy="257.23" r="8"/><circle class="cls-6" cx="150" cy="289.13" r="8.06"/><circle class="cls-7" cx="150" cy="285.4" r="8"/></svg>