<svg id="Layer_1" data-name="Layer 1" xmlns="http://www.w3.org/2000/svg" xmlns:xlink="http://www.w3.org/1999/xlink" viewBox="0 0 300 345"><defs><style>.cls-1{fill:url(#linear-gradient);}.cls-2{fill:#6c9355;}.cls-3,.cls-8{fill:#425634;}.cls-3{fill-opacity:0.8;}.cls-4{fill:#192314;}.cls-5{fill:#597c41;}.cls-6{fill:#ecf7fe;}.cls-7{fill:#15141a;}.cls-9{fill:#cf1f3d;}.cls-10{fill:#e03b5f;}</style><linearGradient id="linear-gradient" x1="150" y1="356.11" x2="150" y2="161.16" gradientUnits="userSpaceOnUse"><stop offset="0" stop-color="#53824b"/><stop offset="0.69" stop-color="#425634"/></linearGradient></defs><g id="dinosaur"><path class="cls-1" d="M263.62,345H36.38A36.38,36.38,0,0,1,0,308.62V259.14H300v49.48A36.38,36.38,0,0,1,263.62,345Z"/><rect class="cls-2" y="45" width="300" height="253.39" rx="36.38"/><path class="cls-3" d="M263.62,298.39,150,275.52,36.38,298.39c-.44,0-.87,0-1.3,0,0,0,16.87,18.13,19.8,20.64l8.8,7.65A116.63,116.63,0,0,0,73,334a34.17,34.17,0,0,0,11.09,5.44,16,16,0,0,0,6.65.22,14.8,14.8,0,0,0,6.16-2.76,21.78,21.78,0,0,0,7.42-10.43,29.31,29.31,0,0,0,1.3-12.47,40.26,40.26,0,0,0-2.6-10.55,41.4,41.4,0,0,1,4.45,5.42,26.8,26.8,0,0,1,2,3.52c.61,1.24,1.18,2.63,1.93,4a36.22,36.22,0,0,0,5.46,7.61c1,1.16,2,2.2,3.14,3.31.59.54,1.15,1.11,1.78,1.6l.92.75,1,.7a36.89,36.89,0,0,0,8.27,4.44,51.29,51.29,0,0,0,36.2,0,37.23,37.23,0,0,0,8.26-4.44l1-.7.93-.76c.62-.49,1.19-1.06,1.77-1.6,1.09-1.1,2.13-2.15,3.15-3.3a36.08,36.08,0,0,0,5.45-7.61c.75-1.41,1.32-2.8,1.93-4.05a28.72,28.72,0,0,1,2-3.52,42.56,42.56,0,0,1,4.47-5.44A40.39,40.39,0,0,0,194.39,314a29.31,29.31,0,0,0,1.3,12.47,21.78,21.78,0,0,0,7.42,10.43,14.8,14.8,0,0,0,6.16,2.76,16,16,0,0,0,6.65-.22A34.17,34.17,0,0,0,227,334a116.63,116.63,0,0,0,9.31-7.35l8.8-7.65c2.93-2.51,19.8-20.64,19.8-20.64C264.49,298.38,264.06,298.39,263.62,298.39Z"/><path class="cls-2" d="M193,108s8,3,32.15,27.17,15.15,56.15,15.15,87.34-20.81,48.28-39.15,65-8.94,15.74-22.64,29.44-43.36,13.7-57.06,0-4.3-12.68-22.64-29.44-39.15-33.84-39.15-65-9-63.23,15.15-87.34S107,108,107,108"/><path class="cls-4" d="M193,108a38.31,38.31,0,0,1,7.82,4.15c2.5,1.59,4.85,3.38,7.21,5.16q7,5.46,13.38,11.54c1.08,1,2.12,2,3.18,3s2.12,2,3.16,3.15,2,2.26,3,3.4,1.88,2.38,2.71,3.66A51.54,51.54,0,0,1,238,150a55.62,55.62,0,0,1,3.15,8.53,80.63,80.63,0,0,1,2.76,17.78c.31,6,.17,11.9-.11,17.78l-.95,17.54q-.21,4.35-.25,8.69v2.17l-.09,2.27L242.4,227a17.34,17.34,0,0,1-.17,2.27l-.57,4.51-.94,4.46a19,19,0,0,1-.59,2.21l-.67,2.18a41.41,41.41,0,0,1-1.57,4.28,71.3,71.3,0,0,1-9,15.72c-7.21,9.69-16.18,17.58-24.78,25.46-1.1,1-2.14,2-3.18,3s-2.06,2-3.06,3a48.08,48.08,0,0,0-5.35,6.39,27.31,27.31,0,0,0-2,3.52c-.61,1.24-1.18,2.63-1.93,4a36.08,36.08,0,0,1-5.45,7.61c-1,1.15-2.06,2.2-3.15,3.31-.58.54-1.15,1.11-1.77,1.59l-.93.76-1,.7a36.83,36.83,0,0,1-8.26,4.44,51.29,51.29,0,0,1-36.2,0,36.89,36.89,0,0,1-8.27-4.44l-1-.7-.92-.75c-.63-.49-1.19-1.06-1.78-1.6-1.09-1.11-2.12-2.15-3.14-3.3a36.29,36.29,0,0,1-5.46-7.62c-.75-1.41-1.32-2.8-1.93-4a27.46,27.46,0,0,0-2-3.52,47.25,47.25,0,0,0-5.35-6.38c-1-1-2-2-3.06-3s-2.08-2-3.18-3c-8.6-7.88-17.58-15.77-24.79-25.46a71.3,71.3,0,0,1-9-15.72,40.74,40.74,0,0,1-1.57-4.29l-.67-2.18a18.28,18.28,0,0,1-.59-2.2l-.95-4.46-.57-4.52a19.1,19.1,0,0,1-.17-2.27l-.09-2.27-.08-2.27v-2.16c0-2.9-.12-5.8-.26-8.7l-1-17.54c-.28-5.88-.42-11.81-.12-17.78a80.74,80.74,0,0,1,2.77-17.79A54.6,54.6,0,0,1,62,150a51.17,51.17,0,0,1,4.49-7.93c.83-1.28,1.8-2.45,2.71-3.66s1.95-2.33,3-3.4,2.1-2.13,3.16-3.15,2.11-2.05,3.19-3.05q6.4-6.07,13.38-11.54c2.36-1.78,4.71-3.56,7.22-5.15A37.61,37.61,0,0,1,107,108a58,58,0,0,0-6.86,5.43c-2.18,1.93-4.31,3.91-6.42,5.92-4.23,4-8.37,8.11-12.49,12.23-1,1-2,2.06-3.08,3.1s-2.07,2.07-3,3.1-1.87,2.11-2.79,3.18-1.74,2.23-2.49,3.42a46.07,46.07,0,0,0-4.12,7.35,52,52,0,0,0-2.87,7.95,76.73,76.73,0,0,0-2.51,16.87c-.25,5.74-.08,11.53.23,17.35l1.06,17.54c.16,2.94.26,5.9.32,8.86l0,2.22.1,2.12.1,2.12a14.88,14.88,0,0,0,.17,2.11l.55,4.19.9,4.12a15.76,15.76,0,0,0,.56,2l.63,2a36.75,36.75,0,0,0,1.48,3.95,68.3,68.3,0,0,0,8.48,14.64c6.82,9.14,15.57,16.84,24.23,24.72,1.09,1,2.17,2,3.26,3s2.15,2.08,3.21,3.15a52.44,52.44,0,0,1,5.92,7.05,33.29,33.29,0,0,1,2.34,4.13c.68,1.38,1.23,2.71,1.86,3.88a31.09,31.09,0,0,0,4.78,6.6c.92,1,1.95,2.08,2.92,3a18.85,18.85,0,0,0,1.49,1.33l.77.64.82.59a31.9,31.9,0,0,0,7.18,3.83,47,47,0,0,0,32.56,0,32.28,32.28,0,0,0,7.18-3.82l.82-.6.78-.63c.53-.41,1-.89,1.49-1.33,1-1,2-2,2.92-3.06a31.18,31.18,0,0,0,4.78-6.6c.63-1.17,1.18-2.49,1.86-3.88a31.29,31.29,0,0,1,2.34-4.12,51,51,0,0,1,5.92-7.05c1.06-1.07,2.11-2.15,3.21-3.15s2.17-2,3.26-3c8.66-7.88,17.41-15.57,24.24-24.72a68.3,68.3,0,0,0,8.48-14.64,35.47,35.47,0,0,0,1.48-3.95l.63-2a15.62,15.62,0,0,0,.56-2l.91-4.12.55-4.2a14.77,14.77,0,0,0,.17-2.11l.1-2.12.09-2.12,0-2.22c0-3,.15-5.92.31-8.86l1.07-17.54c.31-5.81.48-11.61.23-17.35a76.9,76.9,0,0,0-2.51-16.88,51.61,51.61,0,0,0-2.87-8,46.16,46.16,0,0,0-4.12-7.36c-.75-1.19-1.65-2.29-2.49-3.42s-1.79-2.18-2.79-3.19-2-2.06-3-3.1-2-2.08-3.09-3.1c-4.12-4.12-8.26-8.21-12.49-12.22-2.11-2-4.25-4-6.43-5.92A58,58,0,0,0,193,108Z"/><path class="cls-5" d="M185.57,220.66c-7.65,11.1-10.3,28.68-7.95,45,2.39,16.64-13.81,32.71-28.18,32.71s-30.57-16.07-28.17-32.71c2.34-16.34-.3-33.92-8-45C100,201.34,59.19,207.82,59.19,207.82s1.3,25,4.15,36,18.14,28.39,26.4,35.36a245.19,245.19,0,0,1,18.09,17.68l.15-.17c1.64,3.11,3.76,7,6.49,11.85,6,10.6,20.46,18.25,35,18.25s29-7.65,35-18.25c2.72-4.86,4.84-8.74,6.48-11.85l.15.17a244.05,244.05,0,0,1,18.1-17.68c8.25-7,23.54-24.39,26.39-35.36s4.16-36,4.16-36S198.9,201.34,185.57,220.66Z"/><path class="cls-4" d="M193,108a38.31,38.31,0,0,1,7.82,4.15c2.5,1.59,4.85,3.38,7.21,5.16q7,5.46,13.38,11.54c1.08,1,2.12,2,3.18,3s2.12,2,3.16,3.15,2,2.26,3,3.4,1.88,2.38,2.71,3.66A51.54,51.54,0,0,1,238,150a55.62,55.62,0,0,1,3.15,8.53,80.63,80.63,0,0,1,2.76,17.78c.31,6,.17,11.9-.11,17.78l-.95,17.54q-.21,4.35-.25,8.69v2.17l-.09,2.27L242.4,227a17.34,17.34,0,0,1-.17,2.27l-.57,4.51-.94,4.46a19,19,0,0,1-.59,2.21l-.67,2.18a41.41,41.41,0,0,1-1.57,4.28,71.3,71.3,0,0,1-9,15.72c-7.21,9.69-16.18,17.58-24.78,25.46-1.1,1-2.14,2-3.18,3s-2.06,2-3.06,3a48.08,48.08,0,0,0-5.35,6.39,27.31,27.31,0,0,0-2,3.52c-.61,1.24-1.18,2.63-1.93,4a36.08,36.08,0,0,1-5.45,7.61c-1,1.15-2.06,2.2-3.15,3.31-.58.54-1.15,1.11-1.77,1.59l-.93.76-1,.7a36.83,36.83,0,0,1-8.26,4.44,51.29,51.29,0,0,1-36.2,0,36.89,36.89,0,0,1-8.27-4.44l-1-.7-.92-.75c-.63-.49-1.19-1.06-1.78-1.6-1.09-1.11-2.12-2.15-3.14-3.3a36.29,36.29,0,0,1-5.46-7.62c-.75-1.41-1.32-2.8-1.93-4a27.46,27.46,0,0,0-2-3.52,47.25,47.25,0,0,0-5.35-6.38c-1-1-2-2-3.06-3s-2.08-2-3.18-3c-8.6-7.88-17.58-15.77-24.79-25.46a71.3,71.3,0,0,1-9-15.72,40.74,40.74,0,0,1-1.57-4.29l-.67-2.18a18.28,18.28,0,0,1-.59-2.2l-.95-4.46-.57-4.52a19.1,19.1,0,0,1-.17-2.27l-.09-2.27-.08-2.27v-2.16c0-2.9-.12-5.8-.26-8.7l-1-17.54c-.28-5.88-.42-11.81-.12-17.78a80.74,80.74,0,0,1,2.77-17.79A54.6,54.6,0,0,1,62,150a51.17,51.17,0,0,1,4.49-7.93c.83-1.28,1.8-2.45,2.71-3.66s1.95-2.33,3-3.4,2.1-2.13,3.16-3.15,2.11-2.05,3.19-3.05q6.4-6.07,13.38-11.54c2.36-1.78,4.71-3.56,7.22-5.15A37.61,37.61,0,0,1,107,108a58,58,0,0,0-6.86,5.43c-2.18,1.93-4.31,3.91-6.42,5.92-4.23,4-8.37,8.11-12.49,12.23-1,1-2,2.06-3.08,3.1s-2.07,2.07-3,3.1-1.87,2.11-2.79,3.18-1.74,2.23-2.49,3.42a46.07,46.07,0,0,0-4.12,7.35,52,52,0,0,0-2.87,7.95,76.73,76.73,0,0,0-2.51,16.87c-.25,5.74-.08,11.53.23,17.35l1.06,17.54c.16,2.94.26,5.9.32,8.86l0,2.22.1,2.12.1,2.12a14.88,14.88,0,0,0,.17,2.11l.55,4.19.9,4.12a15.76,15.76,0,0,0,.56,2l.63,2a36.75,36.75,0,0,0,1.48,3.95,68.3,68.3,0,0,0,8.48,14.64c6.82,9.14,15.57,16.84,24.23,24.72,1.09,1,2.17,2,3.26,3s2.15,2.08,3.21,3.15a52.44,52.44,0,0,1,5.92,7.05,33.29,33.29,0,0,1,2.34,4.13c.68,1.38,1.23,2.71,1.86,3.88a31.09,31.09,0,0,0,4.78,6.6c.92,1,1.95,2.08,2.92,3a18.85,18.85,0,0,0,1.49,1.33l.77.64.82.59a31.9,31.9,0,0,0,7.18,3.83,47,47,0,0,0,32.56,0,32.28,32.28,0,0,0,7.18-3.82l.82-.6.78-.63c.53-.41,1-.89,1.49-1.33,1-1,2-2,2.92-3.06a31.18,31.18,0,0,0,4.78-6.6c.63-1.17,1.18-2.49,1.86-3.88a31.29,31.29,0,0,1,2.34-4.12,51,51,0,0,1,5.92-7.05c1.06-1.07,2.11-2.15,3.21-3.15s2.17-2,3.26-3c8.66-7.88,17.41-15.57,24.24-24.72a68.3,68.3,0,0,0,8.48-14.64,35.47,35.47,0,0,0,1.48-3.95l.63-2a15.62,15.62,0,0,0,.56-2l.91-4.12.55-4.2a14.77,14.77,0,0,0,.17-2.11l.1-2.12.09-2.12,0-2.22c0-3,.15-5.92.31-8.86l1.07-17.54c.31-5.81.48-11.61.23-17.35a76.9,76.9,0,0,0-2.51-16.88,51.61,51.61,0,0,0-2.87-8,46.16,46.16,0,0,0-4.12-7.36c-.75-1.19-1.65-2.29-2.49-3.42s-1.79-2.18-2.79-3.19-2-2.06-3-3.1-2-2.08-3.09-3.1c-4.12-4.12-8.26-8.21-12.49-12.22-2.11-2-4.25-4-6.43-5.92A58,58,0,0,0,193,108Z"/><path class="cls-6" d="M188.41,268.5s-9.74-50.9,34-50.9C222.37,217.6,232.56,268.5,188.41,268.5Z"/><path class="cls-7" d="M187.86,264.48a11.49,11.49,0,0,0,5.1,3.82,36.2,36.2,0,0,0,12.94-3.4c8-9.8,5.66-34.47,4.11-45.64C186.34,226.31,186.8,254,187.86,264.48Z"/><path class="cls-8" d="M178.67,265.56a45.49,45.49,0,0,1-2.16-8.54,60.47,60.47,0,0,1-.76-8.83,50.89,50.89,0,0,1,2.8-17.71,39.61,39.61,0,0,1,4.1-8.21,31.46,31.46,0,0,1,6.22-6.81,28.9,28.9,0,0,1,16.56-6.38c-5.35,2.39-10.2,5.3-13.91,9.28a36.23,36.23,0,0,0-4.86,6.45,44.82,44.82,0,0,0-3.4,7.37,73.18,73.18,0,0,0-3.6,16.22A163.31,163.31,0,0,0,178.67,265.56Z"/><path class="cls-6" d="M111.59,268.5s9.74-50.9-34-50.9C77.63,217.6,67.44,268.5,111.59,268.5Z"/><path class="cls-7" d="M112.14,264.48a11.49,11.49,0,0,1-5.1,3.82,36.2,36.2,0,0,1-12.94-3.4c-8-9.8-5.66-34.47-4.11-45.64C113.66,226.31,113.2,254,112.14,264.48Z"/><path class="cls-8" d="M121.33,265.56a163.31,163.31,0,0,0-1-17.16,73.18,73.18,0,0,0-3.6-16.22,44.82,44.82,0,0,0-3.4-7.37,36.23,36.23,0,0,0-4.86-6.45c-3.71-4-8.56-6.89-13.91-9.28a28.9,28.9,0,0,1,16.56,6.38,31.46,31.46,0,0,1,6.22,6.81,39.61,39.61,0,0,1,4.1,8.21,50.89,50.89,0,0,1,2.8,17.71,60.47,60.47,0,0,1-.76,8.83A45.49,45.49,0,0,1,121.33,265.56Z"/><path class="cls-4" d="M131.82,302.77a13.38,13.38,0,0,1,4.32,2.31,18.88,18.88,0,0,1,3.2,3.18,18.11,18.11,0,0,1,2.35,3.85,13.28,13.28,0,0,1,1.24,4.73,13,13,0,0,1-4.32-2.3,18.53,18.53,0,0,1-3.2-3.18,19.32,19.32,0,0,1-2.35-3.86A13.65,13.65,0,0,1,131.82,302.77Z"/><path class="cls-4" d="M168.18,302.77a13.65,13.65,0,0,1-1.24,4.73,19.32,19.32,0,0,1-2.35,3.86,18.53,18.53,0,0,1-3.2,3.18,13,13,0,0,1-4.32,2.3,13.28,13.28,0,0,1,1.24-4.73,18.11,18.11,0,0,1,2.35-3.85,18.88,18.88,0,0,1,3.2-3.18A13.38,13.38,0,0,1,168.18,302.77Z"/><path class="cls-5" d="M157.07,209.61c0,4.22-3.09,11.72-7.63,11.72s-7.63-7.5-7.63-11.72,7.63-13.51,7.63-13.51S157.07,205.39,157.07,209.61Z"/><path class="cls-5" d="M163.17,170.31c0,7.59-5.56,21.09-13.73,21.09s-13.73-13.5-13.73-21.09S149.44,146,149.44,146,163.17,162.73,163.17,170.31Z"/><path class="cls-5" d="M167.41,112.59c0,9.93-7.29,27.59-18,27.59s-18-17.66-18-27.59,18-31.8,18-31.8S167.41,102.67,167.41,112.59Z"/><path class="cls-5" d="M171.83,48.35c0,12.37-9.08,27.37-22.39,27.37s-22.38-15-22.38-27.37S149.44,8.73,149.44,8.73,171.83,36,171.83,48.35Z"/><path class="cls-9" d="M157.07,200.88c0,4.22-3.09,11.72-7.63,11.72s-7.63-7.5-7.63-11.72,7.63-13.51,7.63-13.51S157.07,196.67,157.07,200.88Z"/><path class="cls-9" d="M163.17,161.59c0,7.58-5.56,21.08-13.73,21.08s-13.73-13.5-13.73-21.08,13.73-24.31,13.73-24.31S163.17,154,163.17,161.59Z"/><path class="cls-9" d="M167.41,103.87c0,9.92-7.29,27.58-18,27.58s-18-17.66-18-27.58,18-31.81,18-31.81S167.41,93.94,167.41,103.87Z"/><path class="cls-9" d="M171.83,39.62C171.83,52,162.75,67,149.44,67s-22.38-15-22.38-27.38S149.44,0,149.44,0,171.83,27.26,171.83,39.62Z"/><path class="cls-10" d="M154.33,200.56c0,2.7-2,7.51-4.89,7.51s-4.89-4.81-4.89-7.51,4.89-8.66,4.89-8.66S154.33,197.86,154.33,200.56Z"/><path class="cls-10" d="M158.24,160.42c0,4.86-3.57,13.51-8.8,13.51s-8.8-8.65-8.8-13.51,8.8-15.57,8.8-15.57S158.24,155.56,158.24,160.42Z"/><path class="cls-10" d="M161,100.63c0,6.36-4.66,17.67-11.51,17.67S137.93,107,137.93,100.63s11.51-20.38,11.51-20.38S161,94.27,161,100.63Z"/><path class="cls-10" d="M163.78,34.87c0,7.92-5.81,17.54-14.34,17.54S135.1,42.79,135.1,34.87,149.44,9.48,149.44,9.48,163.78,27,163.78,34.87Z"/><path class="cls-2" d="M264.28,298.39c-18.87.84-43.43,43.55-61.09,27.4s-1.73-64.87,64.27-69.17"/><path class="cls-4" d="M264.28,298.39c-3.86.78-7.13,2.8-10.22,5s-6,4.72-8.94,7.23l-8.8,7.65a116.74,116.74,0,0,1-9.31,7.36,34.35,34.35,0,0,1-11.09,5.43,16,16,0,0,1-6.65.22,14.8,14.8,0,0,1-6.16-2.76,21.78,21.78,0,0,1-7.42-10.43,29.31,29.31,0,0,1-1.3-12.47,45,45,0,0,1,9.34-22.42,63.69,63.69,0,0,1,18.17-15.72A77.76,77.76,0,0,1,244,258.7a84.72,84.72,0,0,1,23.45-2.08,193.61,193.61,0,0,0-22.57,5.32A94.38,94.38,0,0,0,224,271.05a59,59,0,0,0-16.7,14.89,40.49,40.49,0,0,0-8.41,20.13,26.27,26.27,0,0,0,1,10.58,17.38,17.38,0,0,0,5.76,8.41,10.57,10.57,0,0,0,4.37,2.05A11.7,11.7,0,0,0,215,327a30.56,30.56,0,0,0,9.85-4.59c6.31-4.17,12.06-9.44,18.21-14.29,1.53-1.22,3.1-2.42,4.74-3.53a50.21,50.21,0,0,1,5.06-3.13,30.23,30.23,0,0,1,5.52-2.35A15.63,15.63,0,0,1,264.28,298.39Z"/><path class="cls-4" d="M241.65,261.37c-1-.68-.69-1.43-.76-2.15s0-1.43.1-2.14a28.54,28.54,0,0,1,.64-4.21,23.12,23.12,0,0,1,3.35-7.76,22,22,0,0,1,2.69-3.22,20.69,20.69,0,0,1,3.29-2.5,20.34,20.34,0,0,1,3.63-1.78c1.23-.49,2.56-.74,3.81-1.1l-1.74.93a12.08,12.08,0,0,0-1.68.95,19.31,19.31,0,0,0-3,2.34,18.59,18.59,0,0,0-2.52,2.73,19.19,19.19,0,0,0-1.81,3.17,20.65,20.65,0,0,0-1.77,6.94,25.29,25.29,0,0,0-.06,3.59c0,.59.09,1.18.17,1.77s.45,1.14-.38,1.74Z"/><path class="cls-2" d="M35.72,298.39c18.87.84,43.43,43.55,61.09,27.4s1.73-64.87-64.27-69.17"/><path class="cls-4" d="M35.72,298.39a15.63,15.63,0,0,1,5.9.72,30.23,30.23,0,0,1,5.52,2.35,50.21,50.21,0,0,1,5.06,3.13c1.64,1.11,3.21,2.31,4.74,3.53,6.15,4.85,11.9,10.12,18.21,14.29A30.56,30.56,0,0,0,85,327a11.7,11.7,0,0,0,4.92.11,10.57,10.57,0,0,0,4.37-2.05,17.38,17.38,0,0,0,5.76-8.41,26.27,26.27,0,0,0,1-10.58,40.49,40.49,0,0,0-8.41-20.13A59,59,0,0,0,76,271.05a94.38,94.38,0,0,0-20.85-9.11,193.61,193.61,0,0,0-22.57-5.32A84.72,84.72,0,0,1,56,258.7a77.76,77.76,0,0,1,22.11,8.78A63.69,63.69,0,0,1,96.27,283.2a45,45,0,0,1,9.34,22.42,29.31,29.31,0,0,1-1.3,12.47,21.78,21.78,0,0,1-7.42,10.43,14.8,14.8,0,0,1-6.16,2.76,16,16,0,0,1-6.65-.22A34.35,34.35,0,0,1,73,325.63a116.74,116.74,0,0,1-9.31-7.36l-8.8-7.65c-2.93-2.51-5.85-5-8.94-7.23S39.58,299.17,35.72,298.39Z"/><path class="cls-4" d="M54.41,260.67c-.83-.6-.39-1.16-.38-1.74s.14-1.18.17-1.77a25.29,25.29,0,0,0-.06-3.59,20.65,20.65,0,0,0-1.77-6.94,19.19,19.19,0,0,0-1.81-3.17A18.59,18.59,0,0,0,48,240.73a19.31,19.31,0,0,0-3-2.34,12.08,12.08,0,0,0-1.68-.95l-1.74-.93c1.25.36,2.58.61,3.81,1.1A20.34,20.34,0,0,1,49,239.39a20.69,20.69,0,0,1,3.29,2.5A22,22,0,0,1,55,245.11a23.12,23.12,0,0,1,3.35,7.76,28.54,28.54,0,0,1,.64,4.21c.07.71.09,1.42.1,2.14s.27,1.47-.76,2.15Z"/></g></svg>