<svg id="Layer_1" data-name="Layer 1" xmlns="http://www.w3.org/2000/svg" xmlns:xlink="http://www.w3.org/1999/xlink" viewBox="0 0 300 345"><defs><linearGradient id="linear-gradient" x1="150" y1="356.11" x2="150" y2="161.16" gradientUnits="userSpaceOnUse"><stop offset="0" stop-color="#0d1622"/><stop offset="0.69" stop-color="#07090c"/></linearGradient><linearGradient id="linear-gradient-2" x1="150" y1="72.09" x2="150" y2="152.26" gradientUnits="userSpaceOnUse"><stop offset="0.74" stop-color="#dcbf9a"/><stop offset="0.87" stop-color="#e9a4a9"/><stop offset="1" stop-color="#f38db6"/></linearGradient></defs><g id="australia"><path d="M263.62,345H36.38A36.38,36.38,0,0,1,0,308.62V259.14H300v49.48A36.38,36.38,0,0,1,263.62,345Z" fill="url(#linear-gradient)"/><rect y="45" width="300" height="253.39" rx="36.38" fill="#131f2b"/><path d="M150,212.64c-17.86,1.57-7.33,29.35-23,46.47-12.43,13.58-36,4.47-33.83,20.81,1.8,13.54,46.46,16.08,65.1-7.53S168.89,211,150,212.64Z" fill="#5e5d72"/><path d="M62,109.52s20.26,27.21,18.56,65.69S53.79,240,53.79,240s-9.65,1.3-9.7,5,5.32,3,5.32,3-3.62,3-1.92,5.55,6.71-.19,6.71-.19-1.6,6.32,2.15,5.64,6-7.83,6-7.83,11.49-5.73,26.8-12.11c0,0,44.75-20.87,60.87-20.87s61.35,21.07,61.35,21.07c15.07,6.3,26.32,11.91,26.32,11.91s2.24,7.14,6,7.83,2.15-5.64,2.15-5.64,5,2.74,6.71.19-1.92-5.55-1.92-5.55,5.37.57,5.32-3-9.7-5-9.7-5-25-26.34-26.73-64.82S238,109.52,238,109.52" fill="#dcbf9a"/><path d="M175,163.39a18.49,18.49,0,0,0,4.25,5.49,6.57,6.57,0,0,0,2.79,1.4,5,5,0,0,0,2.86-.39c1.76-.77,2.39-2.65,2.33-4.78a20.46,20.46,0,0,0-1.39-6.4l-2.3-6,4.72,4.4a40.31,40.31,0,0,0,6.17,4.91,15,15,0,0,0,3.35,1.64,3.84,3.84,0,0,0,3-.06,1.48,1.48,0,0,0,.76-.87,3.39,3.39,0,0,0,0-1.54,12.46,12.46,0,0,0-1.28-3.6,53.31,53.31,0,0,0-4.3-7,32.22,32.22,0,0,1,5.64,6.17,14.16,14.16,0,0,1,2,3.95,5.39,5.39,0,0,1,.12,2.55,3.79,3.79,0,0,1-1.63,2.36,4.93,4.93,0,0,1-2.55.86,8.13,8.13,0,0,1-2.45-.25A15.53,15.53,0,0,1,193,164.5a35.53,35.53,0,0,1-6.76-5.3l2.42-1.59a25.24,25.24,0,0,1,1,3.67,16.88,16.88,0,0,1,.34,3.85,9.34,9.34,0,0,1-.94,4,6,6,0,0,1-3.31,2.82,6.59,6.59,0,0,1-4.14.1,7.72,7.72,0,0,1-3.28-2.19,12.72,12.72,0,0,1-2.06-3.09A16.7,16.7,0,0,1,175,163.39Z" fill="#d49d7e"/><path d="M173.91,198c2,1.55,3.84,3.1,5.79,4.38a13.84,13.84,0,0,0,2.9,1.54A3.26,3.26,0,0,0,185,204a2.38,2.38,0,0,0,1.39-1.66,7.73,7.73,0,0,0,0-3,49.46,49.46,0,0,0-1.82-7,16.68,16.68,0,0,1,4.11,6.39,8.56,8.56,0,0,1,.45,4.21,5.34,5.34,0,0,1-1,2.28,5.22,5.22,0,0,1-2,1.55,5,5,0,0,1-2.51.36,6.83,6.83,0,0,1-2.18-.63,12,12,0,0,1-3.29-2.33A19.71,19.71,0,0,1,173.91,198Z" fill="#d49d7e"/><path d="M125,163.39a16.7,16.7,0,0,1-1.24,3.4,12.72,12.72,0,0,1-2.06,3.09,7.72,7.72,0,0,1-3.28,2.19,6.59,6.59,0,0,1-4.14-.1,6,6,0,0,1-3.31-2.82,9.34,9.34,0,0,1-.94-4,16.88,16.88,0,0,1,.34-3.85,25.24,25.24,0,0,1,1-3.67l2.42,1.59a35.53,35.53,0,0,1-6.76,5.3,15.53,15.53,0,0,1-4.14,1.77,8.13,8.13,0,0,1-2.45.25,4.93,4.93,0,0,1-2.55-.86,3.79,3.79,0,0,1-1.63-2.36,5.39,5.39,0,0,1,.12-2.55,14.16,14.16,0,0,1,2-3.95,32.22,32.22,0,0,1,5.64-6.17,53.31,53.31,0,0,0-4.3,7,12.46,12.46,0,0,0-1.28,3.6,3.39,3.39,0,0,0,0,1.54,1.48,1.48,0,0,0,.76.87,3.84,3.84,0,0,0,3,.06,15,15,0,0,0,3.35-1.64,40.31,40.31,0,0,0,6.17-4.91l4.72-4.4-2.3,6a20.46,20.46,0,0,0-1.39,6.4c-.06,2.13.57,4,2.33,4.78a5,5,0,0,0,2.86.39,6.57,6.57,0,0,0,2.79-1.4A18.49,18.49,0,0,0,125,163.39Z" fill="#d49d7e"/><path d="M126.09,198a19.71,19.71,0,0,1-4.31,6.21,12,12,0,0,1-3.29,2.33,6.83,6.83,0,0,1-2.18.63,5,5,0,0,1-2.51-.36,5.22,5.22,0,0,1-2-1.55,5.34,5.34,0,0,1-1-2.28,8.56,8.56,0,0,1,.45-4.21,16.68,16.68,0,0,1,4.11-6.39,49.46,49.46,0,0,0-1.82,7,7.73,7.73,0,0,0,0,3A2.38,2.38,0,0,0,115,204a3.26,3.26,0,0,0,2.43-.13,13.84,13.84,0,0,0,2.9-1.54C122.25,201.09,124.11,199.54,126.09,198Z" fill="#d49d7e"/><path d="M101.33,116.77c0,16.53,7.08,30.43,24.33,35.87C136.2,156,141.84,160,150,160s13.8-4,24.34-7.32c17.25-5.44,24.33-19.34,24.33-35.87a35.35,35.35,0,0,0-.74-7.25H102.07A35.35,35.35,0,0,0,101.33,116.77Z" fill="#d2ab81"/><path d="M213.07,240c-13.69-15.27-36.83-25.31-63.07-25.31s-49.38,10-63.07,25.31c19.56-8.26,46.33-18.09,63.07-18.09S193.51,231.69,213.07,240Z" fill="#707084"/><path d="M169.61,75.78s8.57-.3,13.33-4.39,6.81-8.51,12.09-7.32,6.41,21.79-6.93,26.47" fill="#5e5d72"/><path d="M130.39,75.71s-8.57-.3-13.33-4.38S110.25,62.82,105,64s-6.41,21.78,6.93,26.47" fill="#5e5d72"/><path d="M62,109.52s-5.34-.77-9.74-6.38c-2.47-3.15-6.51-2.69-4.92,2.23s5.11,6.13,5.11,6.13-5.11.32-4.41,2.42,8.29,6.66,17.33.84" fill="#c55b86"/><path d="M238,109.52s5.34-.77,9.74-6.38c2.47-3.15,6.51-2.69,4.92,2.23s-5.11,6.13-5.11,6.13,5.11.32,4.41,2.42-8.29,6.66-17.33.84" fill="#c55b86"/><path d="M184.28,113.09s48.82,2.3,53.76-3.57c0,0-18.85-3.87-31.43-7.7A110.26,110.26,0,0,1,181,90.54Z" fill="#707084"/><path d="M115.72,113.09S66.9,115.39,62,109.52c0,0,18.85-3.87,31.43-7.7A110.26,110.26,0,0,0,119,90.54Z" fill="#707084"/><path d="M101.49,113.49c8.11-.11,14.23-.4,14.23-.4L119,90.54a88.84,88.84,0,0,1-10.67,5.63A31.91,31.91,0,0,0,101.49,113.49Z" fill="#5e5d72"/><path d="M191.7,96.17A88.58,88.58,0,0,1,181,90.54l3.26,22.55s6.12.29,14.23.4A32,32,0,0,0,191.7,96.17Z" fill="#5e5d72"/><path d="M150,77.39s-6.67-4.88-9.83-4.34c-19,3.22-33.15,16-33.15,36.34,0,16.53,6.25,30.43,21.49,35.87,9.31,3.33,14.28,7.32,21.49,7.32s12.18-4,21.49-7.32c15.24-5.44,21.49-19.34,21.49-35.87C193,88.85,178.57,76,159.3,73,156.31,72.48,150,77.39,150,77.39Z" fill="url(#linear-gradient-2)"/><path d="M190.21,126.55A49.83,49.83,0,0,0,193,109.39c0-19.94-13.58-32.6-32-36.13-3.51-.68-11,4.68-11,4.68s-7.68-5.34-11.27-4.63C120.46,76.93,107,89.55,107,109.39a49.83,49.83,0,0,0,2.77,17.16c7.5-2.28,28.25-6.41,37.78,14l2.43.89,2.43-.89C162,120.14,182.71,124.27,190.21,126.55Z" fill="#808091"/><path d="M157.32,144.35a7,7,0,0,1-13.93,0c0-3.85,3.12-5.58,7-5.58S157.32,140.5,157.32,144.35Z" fill="#c55b86"/><path d="M168.32,102.53c-5.38,6.28-10.07,16.59-7,32.52,0,0,11.91,4.17,18.63-4,5.89-7.15,5.39-17,3.62-24.79A8.83,8.83,0,0,0,168.32,102.53Z" fill="#2f2c38"/><ellipse cx="171.06" cy="122.56" rx="5.68" ry="10.29" fill="#15141a"/><path d="M171.06,113.26c4.2,0,4.68,4.17,4.68,9.3s-1.2,9.29-4.68,9.29-4.68-4.16-4.68-9.29.48-9.3,4.68-9.3m0-2c-6.68,0-6.68,7.35-6.68,11.3,0,9.83,4.18,11.29,6.68,11.29s6.68-1.46,6.68-11.29c0-4,0-11.3-6.68-11.3Z" fill="#231f20"/><path d="M131.68,102.53c5.38,6.28,10.07,16.59,7,32.52,0,0-11.91,4.17-18.63-4-5.89-7.15-5.39-17-3.62-24.79A8.83,8.83,0,0,1,131.68,102.53Z" fill="#2f2c38"/><ellipse cx="128.94" cy="122.56" rx="5.68" ry="10.29" fill="#15141a"/><path d="M128.94,113.26c4.2,0,4.68,4.17,4.68,9.3s-1.2,9.29-4.68,9.29-4.68-4.16-4.68-9.29.48-9.3,4.68-9.3m0-2c-6.68,0-6.68,7.35-6.68,11.3,0,9.83,4.19,11.29,6.68,11.29s6.68-1.46,6.68-11.29c0-4,0-11.3-6.68-11.3Z" fill="#231f20"/><circle cx="171.92" cy="118.23" r="2.71" fill="#ecf7fe"/><circle cx="129.73" cy="118.23" r="2.71" fill="#ecf7fe"/><circle cx="173.49" cy="123.32" r="1.14" fill="#ecf7fe"/><circle cx="131.3" cy="123.32" r="1.14" fill="#ecf7fe"/><path d="M166,143a52.41,52.41,0,0,1,5.6-.32c1.86,0,3.73.09,5.6.22a75.61,75.61,0,0,1,11.1,1.64q1.38.28,2.73.66c.91.25,1.82.46,2.71.74,1.78.59,3.59,1.1,5.31,1.83.87.35,1.75.66,2.61,1l2.55,1.16c.85.38,1.67.83,2.49,1.28s1.64.89,2.45,1.35c-3.42-1.48-6.82-3-10.36-4.12a96.91,96.91,0,0,0-10.7-3,101.49,101.49,0,0,0-11-1.85A93.93,93.93,0,0,0,166,143Z" fill="#32160f"/><path d="M172.23,138.63a51.8,51.8,0,0,1,11.3-1.56,90.73,90.73,0,0,1,11.42.35c1.89.23,3.79.44,5.66.77s3.76.64,5.61,1.07,3.69.93,5.53,1.4,3.63,1.13,5.43,1.74c-3.7-.85-7.39-1.73-11.11-2.39s-7.46-1.24-11.22-1.6a112.42,112.42,0,0,0-11.31-.58c-1.88,0-3.78,0-5.66.19A51.33,51.33,0,0,0,172.23,138.63Z" fill="#32160f"/><path d="M134,143a93.93,93.93,0,0,0-11.13.67,101.49,101.49,0,0,0-11,1.85,96.91,96.91,0,0,0-10.7,3c-3.54,1.14-6.94,2.64-10.36,4.12.81-.46,1.63-.91,2.45-1.35s1.64-.9,2.49-1.28l2.55-1.16c.86-.39,1.74-.7,2.61-1,1.72-.73,3.53-1.24,5.31-1.83.89-.28,1.8-.49,2.71-.74s1.81-.47,2.73-.66a75.61,75.61,0,0,1,11.1-1.64c1.87-.13,3.74-.2,5.6-.22A52.41,52.41,0,0,1,134,143Z" fill="#32160f"/><path d="M127.77,138.63a51.33,51.33,0,0,0-5.65-.61c-1.88-.14-3.78-.19-5.66-.19a112.42,112.42,0,0,0-11.31.58c-3.76.36-7.5.91-11.22,1.6s-7.41,1.54-11.11,2.39q2.7-.92,5.43-1.74c1.84-.47,3.67-1,5.53-1.4s3.73-.78,5.61-1.07,3.77-.54,5.66-.77a90.73,90.73,0,0,1,11.42-.35A51.8,51.8,0,0,1,127.77,138.63Z" fill="#32160f"/><path d="M150,107.65s11.55-11.75,11.56-34.27a59.18,59.18,0,0,0-23.12,0C138.45,95.9,150,107.65,150,107.65Z" fill="#2f2c38"/><circle cx="221.38" cy="83.47" r="2.32" fill="#fff"/><circle cx="236.82" cy="77.18" r="3.98" fill="#fff"/><circle cx="56.68" cy="188.64" r="3.32" fill="#fff"/><circle cx="40.83" cy="162.16" r="6.11" fill="#fff"/><circle cx="24.76" cy="259.14" r="6.11" fill="#fff"/><circle cx="68.45" cy="323.02" r="2.66" fill="#fff"/><circle cx="207.57" cy="318.53" r="2.66" fill="#fff"/><circle cx="226.21" cy="327.51" r="2.66" fill="#fff"/><circle cx="221.63" cy="268.43" r="2.57" fill="#fff"/><path d="M245.7,147.55l3.56.65a1.23,1.23,0,0,1,0,2.36l-3.56.65-.65,3.57a1.24,1.24,0,0,1-2.37,0l-.65-3.57-3.56-.65a1.23,1.23,0,0,1,0-2.36l3.56-.65.65-3.57a1.24,1.24,0,0,1,2.37,0Z" fill="#fff"/><path d="M76.37,79.17l3.61.34a1.24,1.24,0,0,1,.2,2.36l-3.49.95-.35,3.61a1.23,1.23,0,0,1-2.35.2l-1-3.49-3.6-.35a1.23,1.23,0,0,1-.2-2.35l3.49-1,.34-3.61a1.24,1.24,0,0,1,2.36-.2Z" fill="#fff"/><path d="M266.66,196.18l4.62,1.94a1.71,1.71,0,0,1-.7,3.19l-5-.18-1.93,4.63a1.71,1.71,0,0,1-3.19-.7l.17-5L256,198.12a1.71,1.71,0,0,1,.7-3.19l5,.17,1.93-4.62a1.71,1.71,0,0,1,3.19.7Z" fill="#fff"/></g></svg>