<?xml version="1.0" encoding="UTF-8" standalone="no"?>
<svg id="Layer_1" data-name="Layer 1" viewBox="0 0 300 345" version="1.1" sodipodi:docname="swashbuckler.svg" inkscape:version="1.2 (dc2aedaf03, 2022-05-15)" xml:space="preserve" xmlns:inkscape="http://www.inkscape.org/namespaces/inkscape" xmlns:sodipodi="http://sodipodi.sourceforge.net/DTD/sodipodi-0.dtd" xmlns:xlink="http://www.w3.org/1999/xlink" xmlns="http://www.w3.org/2000/svg" xmlns:svg="http://www.w3.org/2000/svg"><sodipodi:namedview id="namedview6070" pagecolor="#505050" bordercolor="#ffffff" borderopacity="1" inkscape:showpageshadow="0" inkscape:pageopacity="0" inkscape:pagecheckerboard="1" inkscape:deskcolor="#505050" showgrid="false" inkscape:zoom="0.33951472" inkscape:cx="23.563043" inkscape:cy="223.84891" inkscape:window-width="1366" inkscape:window-height="705" inkscape:window-x="-8" inkscape:window-y="-8" inkscape:window-maximized="1" inkscape:current-layer="Layer_1"/><defs id="defs6002"><inkscape:path-effect effect="mirror_symmetry" start_point="340.14236,110.40267" end_point="340.14236,241.22665" center_point="340.14236,175.81466" id="path-effect16668" is_visible="true" lpeversion="1.2" lpesatellites="" mode="vertical" discard_orig_path="false" fuse_paths="false" oposite_fuse="false" split_items="true" split_open="false" link_styles="false"/><inkscape:path-effect effect="fillet_chamfer" id="path-effect14714" is_visible="true" lpeversion="1" nodesatellites_param="F,0,0,1,0,7.1484313,0,1 @ F,0,0,1,0,0,0,1 @ F,0,0,1,0,0,0,1 @ F,0,0,1,0,0,0,1 @ F,0,0,1,0,6.4609559,0,1 @ F,0,0,1,0,5.216279,0,1 @ F,0,0,1,0,7.9754285,0,1 @ F,0,0,1,0,0,0,1 @ F,0,0,1,0,0,0,1 @ F,0,0,1,0,11.243045,0,1" unit="px" method="auto" mode="F" radius="0" chamfer_steps="1" flexible="false" use_knot_distance="true" apply_no_radius="true" apply_with_radius="true" only_selected="false" hide_knots="false"/><inkscape:path-effect effect="fillet_chamfer" id="path-effect14708" is_visible="true" lpeversion="1" nodesatellites_param="F,0,0,1,0,7.1484313,0,1 @ F,0,0,1,0,0,0,1 @ F,0,0,1,0,0,0,1 @ F,0,0,1,0,0,0,1 @ F,0,0,1,0,6.4609559,0,1 @ F,0,0,1,0,5.216279,0,1 @ F,0,0,1,0,7.9754285,0,1 @ F,0,0,1,0,0,0,1 @ F,0,0,1,0,0,0,1 @ F,0,0,1,0,11.243045,0,1" unit="px" method="auto" mode="F" radius="0" chamfer_steps="1" flexible="false" use_knot_distance="true" apply_no_radius="true" apply_with_radius="true" only_selected="false" hide_knots="false"/><inkscape:path-effect effect="fillet_chamfer" id="path-effect14441" is_visible="true" lpeversion="1" nodesatellites_param="F,0,0,1,0,36.4602,0,1 @ F,0,0,1,0,0,0,1 @ F,0,0,1,0,0,0,1 @ F,0,0,1,0,36.460193,0,1" unit="px" method="auto" mode="F" radius="0" chamfer_steps="1" flexible="false" use_knot_distance="true" apply_no_radius="true" apply_with_radius="true" only_selected="false" hide_knots="false"/><inkscape:path-effect effect="mirror_symmetry" start_point="114.42448,132.5239" end_point="114.42448,173.36709" center_point="114.42448,152.9455" id="path-effect12927" is_visible="true" lpeversion="1.2" lpesatellites="" mode="vertical" discard_orig_path="false" fuse_paths="false" oposite_fuse="false" split_items="true" split_open="false" link_styles="false"/><inkscape:path-effect effect="mirror_symmetry" start_point="134.99414,311.56836" end_point="134.99414,335.57031" center_point="134.99414,323.56934" id="path-effect12438" is_visible="true" lpeversion="1.2" lpesatellites="" mode="vertical" discard_orig_path="false" fuse_paths="false" oposite_fuse="false" split_items="true" split_open="false" link_styles="false"/><inkscape:path-effect effect="mirror_symmetry" start_point="150,262" end_point="150,345" center_point="150,303.5" id="path-effect11547" is_visible="true" lpeversion="1.2" lpesatellites="" mode="vertical" discard_orig_path="false" fuse_paths="false" oposite_fuse="false" split_items="true" split_open="false" link_styles="false"/><linearGradient inkscape:collect="always" id="linearGradient11536"><stop style="stop-color:#37210f;stop-opacity:0;" offset="0" id="stop11534"/><stop style="stop-color:#37210f;stop-opacity:0.69767439;" offset="1" id="stop11532"/></linearGradient><inkscape:path-effect effect="mirror_symmetry" start_point="90.645144,168.08265" end_point="90.645144,220.71177" center_point="90.645144,194.39721" id="path-effect9739" is_visible="true" lpeversion="1.2" lpesatellites="" mode="vertical" discard_orig_path="false" fuse_paths="false" oposite_fuse="false" split_items="true" split_open="false" link_styles="false"/><inkscape:path-effect effect="mirror_symmetry" start_point="110.00536,114.57641" end_point="110.00536,150.89468" center_point="110.00536,132.73554" id="path-effect9531" is_visible="true" lpeversion="1.2" lpesatellites="" mode="vertical" discard_orig_path="false" fuse_paths="false" oposite_fuse="false" split_items="true" split_open="false" link_styles="false"/><linearGradient id="linearGradient6119" x1="75" y1="365.94" x2="75" y2="147.34" gradientUnits="userSpaceOnUse"><stop offset="0" stop-color="#a15095" id="stop6115" style="stop-color:#bda9b2;stop-opacity:1;"/><stop offset="0.40000001" stop-color="#822778" id="stop6117" style="stop-color:#dcd1d5;stop-opacity:1;"/></linearGradient><radialGradient id="radialGradient29546" cx="257.54001" cy="187.7" r="37.580002" gradientUnits="userSpaceOnUse"><stop offset="0" stop-color="#f493aa" id="stop29530"/><stop offset="0.09" stop-color="#f395ac" stop-opacity="0.97" id="stop29532"/><stop offset="0.22" stop-color="#f19cb2" stop-opacity="0.89" id="stop29534"/><stop offset="0.38" stop-color="#eea7bc" stop-opacity="0.76" id="stop29536"/><stop offset="0.56" stop-color="#e9b7ca" stop-opacity="0.57" id="stop29538"/><stop offset="0.76" stop-color="#e3cadc" stop-opacity="0.33" id="stop29540"/><stop offset="0.97" stop-color="#dbe2f1" stop-opacity="0.05" id="stop29542"/><stop offset="1" stop-color="#dae6f5" stop-opacity="0" id="stop29544"/></radialGradient><style id="style5980">.cls-1{fill:url(#linear-gradient);}.cls-2{fill:#e2e7f5;}.cls-3{fill:#ccbede;}.cls-4{fill:url(#linear-gradient-2);}.cls-5{fill:url(#linear-gradient-3);}.cls-6{fill:url(#linear-gradient-4);}.cls-7{fill:#a15095;}.cls-8{fill:#ce2235;}.cls-9{fill:#8c141c;}.cls-10{fill:#d29fc9;}.cls-11{fill:#f4fbfe;}.cls-12{fill:#fff;}.cls-13{fill:#414042;}.cls-14{fill:#2f2c38;}.cls-15{fill:#15141a;}</style><linearGradient id="linear-gradient" x1="150" y1="356.11" x2="150" y2="161.16" gradientUnits="userSpaceOnUse"><stop offset="0" stop-color="#e0d6ea" id="stop5982" style="stop-color:#eaa62c;stop-opacity:1;"/><stop offset="1" stop-color="#ba9ac8" id="stop5984" style="stop-color:#ffcd05;stop-opacity:1;"/></linearGradient><linearGradient id="linear-gradient-2" x1="150" y1="276.2" x2="150" y2="49.7" gradientUnits="userSpaceOnUse"><stop offset="0.33" stop-color="#8d68a3" stop-opacity="0" id="stop5987"/><stop offset="0.55" stop-color="#7c5c90" stop-opacity="0.14" id="stop5989"/><stop offset="0.76" stop-color="#483854" stop-opacity="0.57" id="stop5991"/><stop offset="0.88" stop-color="#15141a" id="stop5993"/></linearGradient><linearGradient id="linear-gradient-3" x1="75" y1="365.94" x2="75" y2="147.34" gradientUnits="userSpaceOnUse"><stop offset="0" stop-color="#a15095" id="stop5996" style="stop-color:#bda9b2;stop-opacity:1;"/><stop offset="0.40000001" stop-color="#822778" id="stop5998" style="stop-color:#dcd1d5;stop-opacity:1;"/></linearGradient><linearGradient id="linear-gradient-4" x1="225" y1="365.94" x2="225" y2="147.34" xlink:href="#linear-gradient-3"/><linearGradient inkscape:collect="always" xlink:href="#linearGradient6119" id="linearGradient6189" gradientUnits="userSpaceOnUse" x1="75" y1="365.94" x2="75" y2="147.34"/><radialGradient id="radial-gradient-2" cx="42.459999" cy="187.7" r="37.580002" xlink:href="#radial-gradient" gradientTransform="translate(-4.8799966,38.438725)"/><radialGradient id="radial-gradient" cx="257.54001" cy="187.7" r="37.580002" gradientUnits="userSpaceOnUse"><stop offset="0" stop-color="#f493aa" id="stop9303"/><stop offset="0.09" stop-color="#f395ac" stop-opacity="0.97" id="stop9305"/><stop offset="0.22" stop-color="#f19cb2" stop-opacity="0.89" id="stop9307"/><stop offset="0.38" stop-color="#eea7bc" stop-opacity="0.76" id="stop9309"/><stop offset="0.56" stop-color="#e9b7ca" stop-opacity="0.57" id="stop9311"/><stop offset="0.76" stop-color="#e3cadc" stop-opacity="0.33" id="stop9313"/><stop offset="0.97" stop-color="#dbe2f1" stop-opacity="0.05" id="stop9315"/><stop offset="1" stop-color="#dae6f5" stop-opacity="0" id="stop9317"/></radialGradient><linearGradient inkscape:collect="always" xlink:href="#linearGradient11536" id="linearGradient11538" x1="125.94157" y1="318.69907" x2="151.10486" y2="359.57867" gradientUnits="userSpaceOnUse"/><linearGradient inkscape:collect="always" xlink:href="#linearGradient6119" id="linearGradient11557" gradientUnits="userSpaceOnUse" x1="75" y1="365.94" x2="75" y2="147.34"/><linearGradient inkscape:collect="always" xlink:href="#linearGradient11536" id="linearGradient11559" gradientUnits="userSpaceOnUse" x1="125.94157" y1="318.69907" x2="151.10486" y2="359.57867"/><linearGradient inkscape:collect="always" xlink:href="#linearGradient6119" id="linearGradient11564" gradientUnits="userSpaceOnUse" x1="75" y1="365.94" x2="75" y2="147.34"/><linearGradient inkscape:collect="always" xlink:href="#linearGradient11536" id="linearGradient11566" gradientUnits="userSpaceOnUse" x1="125.94157" y1="318.69907" x2="151.10486" y2="359.57867"/></defs><path class="cls-1" d="M 263.62,345 H 36.38 A 36.38,36.38 0 0 1 0,308.62 v -49.48 h 300 v 49.48 A 36.38,36.38 0 0 1 263.62,345 Z" id="path6004" style="fill:url(#linear-gradient)"/><path id="rect6012" style="fill:#ffcd05" class="cls-4" d="M 0 96.123047 L 0 262.00977 C 0 282.16427 16.226359 298.39062 36.380859 298.39062 L 263.61914 298.39062 C 283.77364 298.39062 300 282.16427 300 262.00977 L 300 96.123047 L 0 96.123047 z "/><path id="path6034" style="fill:#cd8e2a;fill-opacity:1" class="cls-10" d="m 148.33594,194.03125 c -2.43971,18.41557 -14.55015,29.85634 -30.3086,35.50195 4.98067,9.16962 21.70525,16.82474 31.01172,17.67774 -24.46606,-14.14155 -18.34529,-13.14587 -3.73828,-31.74024 4.02586,-6.44101 5.50392,-13.94027 5.30078,-21.43945 z"/><path id="path17052" style="opacity:1;fill:#e0a010;fill-opacity:1;stroke-width:2.446;stroke-linecap:round;stroke-linejoin:round;stop-color:#000000" class="UnoptimicedTransforms" d="M 120.03285,117.22187 0,138.98541 v 54.31732 c 7.4337321,-16.4797 12.574104,-31.70258 12.876868,-44.38402 9.51785,5.72122 118.172992,-22.48479 107.155982,-31.69684 z M 300,121.73438 c -19.9856,13.40718 -14.14399,40.21281 0,71.56835 z" sodipodi:nodetypes="cccccccc" transform="matrix(1,0,0,0.92450806,0,16.849306)"/><path id="path16909" style="opacity:1;fill:#e0a010;fill-opacity:1;stroke-width:2.18392;stroke-linecap:round;stroke-linejoin:round;stop-color:#000000" d="m 164.42188,97.175781 -37.16016,22.411909 c 11.16735,3.53832 47.07774,16.52542 20.2539,34.63693 -11.96385,8.07802 -21.32397,2.7649 -19.45703,15.15926 1.35026,8.96412 32.07422,21.40714 32.07422,21.40714 -6.0516,-6.93423 -45.10098,-27.33719 14.99219,-28.40812 8.90648,-0.15873 9.73027,-9.16721 7.25,-20.43478 4.96139,4.72909 8.99549,10.0319 10.27734,15.51007 4.26,18.20572 -18.29262,32.74549 -17.80859,52.64082 0.69406,28.52877 35.12643,28.70764 31.77539,41.1136 -3.21846,11.91509 -25.89062,21.97339 -25.89062,21.97339 0.0511,5.22077 79.80959,27.31858 33.02734,-48.91534 -13.81559,-22.51317 39.39374,11.79459 17.68164,-55.98498 29.00563,5.20374 61.50088,-10.56501 50.83789,-42.83333 l -105.63281,-1.60344 c -5.48719,-14.10098 -12.2207,-26.673129 -12.2207,-26.673129 z"/><path id="path16122" style="opacity:1;fill:#e0a010;fill-opacity:1;stroke-width:7.50758;stroke-linecap:round;stroke-linejoin:round;stop-color:#000000" d="m 0,96.59734 v 53.22442 c 101.42653,-27.10785 201.51915,-28.85999 300,0 V 96.59733 C 300,76.460923 285.00177,53.615482 265.90495,47.244944 188.52831,21.432747 111.15167,19.347907 33.775032,46.441028 14.777197,53.093045 0,76.460927 0,96.59734 Z" sodipodi:nodetypes="cccccsc"/><path id="path6056" style="fill:#3b2f00;fill-opacity:1;stroke-width:1.12457" class="UnoptimicedTransforms" d="m 62.195312,132.5293 c -0.619997,-0.008 -1.239758,-0.006 -1.859374,0.008 -9.012608,0.20142 -17.947015,2.7373 -25.707032,7.95703 11.004512,-1.53776 22.392155,-1.46951 33.216797,1.25 17.250711,3.5057 26.158149,11.34471 37.699217,23.23633 7.63168,7.51899 13.5561,15.83919 3.72461,-3.58399 -8.62311,-17.86759 -27.854305,-28.61573 -47.074218,-28.86718 z m 175.609378,0 c -19.21991,0.25145 -38.45111,10.99959 -47.07422,28.86718 -9.83149,19.42318 -3.90707,11.10298 3.72461,3.58399 11.54107,-11.89162 20.44851,-19.73063 37.69922,-23.23633 10.82464,-2.71951 22.21228,-2.78776 33.21679,-1.25 -7.76001,-5.21973 -16.69442,-7.75561 -25.70703,-7.95703 -0.61961,-0.0139 -1.23938,-0.0159 -1.85937,-0.008 z" transform="translate(0,14)"/><path id="rect16665" style="opacity:1;fill:#3a2f37;fill-opacity:1;stroke-width:2.446;stroke-linecap:round;stroke-linejoin:round;stop-color:#000000" class="UnoptimicedTransforms" d="M 120.03285,117.22187 0,138.98541 v 54.31732 c 7.4337321,-16.4797 12.574104,-31.70258 12.876868,-44.38402 9.51785,5.72122 118.172992,-22.48479 107.155982,-31.69684 z M 300,121.73438 c -19.9856,13.40718 -14.14399,40.21281 0,71.56835 z" sodipodi:nodetypes="cccccccc"/><g id="g142" style="clip-rule:evenodd;display:none;fill-rule:evenodd;stroke-linejoin:round;stroke-miterlimit:2" transform="matrix(0.11586837,0,0,0.11586837,-181.23879,156.62906)">
            <g transform="matrix(0,-4.16114,4.16114,0,285.196,1624.17)" id="g134">
                <path d="M 263.62,345 H 36.38 C 16.423,345 0,328.577 0,308.62 V 244.793 H 300 V 308.62 C 300,328.577 283.577,345 263.62,345 Z" style="fill:#b48a00;fill-rule:nonzero" id="path132"/>
            </g>
            <path d="m 1700.47,1548.14 c -3.37,5.8 -7.12,11.37 -11.2,16.66 h -324.35 v -16.66 z m 20.32,-156 h -355.87 v 16.67 h 355.87 z m 0,-172.86 h -355.87 v 16.67 h 355.87 z m 0,-170.04 h -355.87 v 16.66 h 355.87 z m 0,-174.269 h -355.87 v 16.667 h 355.87 z m 0,-192.253 h -355.87 v 16.667 h 355.87 z m -11.73,-213.614 c 2.28,5.409 4.25,10.972 5.89,16.667 h -351.44 v -16.667 z" style="fill:#7b5f00" id="path136"/>
            <path d="m 1644.7,1580.62 c -24.49,18.01 -54.63,28.69 -87.07,28.69 h -55.74 v -0.21 c 29.4,-1.6 56.63,-11.95 79.1,-28.48 z m 60.71,-155.64 v 36.55 c 0,25.25 -6.47,49.1 -17.83,69.99 h -63.7 c 11.36,-20.89 17.83,-44.74 17.83,-69.99 v -36.55 z m 0,-49.1 h -63.7 v -124.69 h 63.7 z m 0,-173.79 h -63.7 v -120.58 h 63.7 z m 0,-169.69 h -63.7 V 907.274 h 63.7 z m 0,-174.23 h -63.7 V 715.431 h 63.7 z m -4.6,-356.117 c 3,11.661 4.6,23.866 4.6,36.415 v 127.859 h -63.7 V 538.468 c 0,-12.544 -1.6,-24.744 -4.6,-36.415 z m -86.67,-49.104 c -25.45,-35.547 -66.19,-59.551 -112.25,-62.044 v -0.215 h 55.74 c 49.31,0 93.3,24.677 120.21,62.259 z" style="fill:#a07a00;fill-rule:nonzero" id="path138"/>
            <path d="m 1720.79,1472.79 c 0,34.1 -11.52,65.72 -30.85,91.14 h -308.16 v -105.56 h 339.01 z m 0,-455.14 h -339.01 v 396.58 h 339.01 z" style="fill:#fff8c0;fill-opacity:0.25" id="path140"/>
        </g><g transform="matrix(0.11586837,0,0,0.11586837,-171.55752,159.11785)" id="g169" style="clip-rule:evenodd;display:none;fill-rule:evenodd;stroke-linejoin:round;stroke-miterlimit:2">
                
            </g><g transform="matrix(0.11586837,0,0,0.11586837,-181.49087,159.29101)" id="g179" style="clip-rule:evenodd;display:inline;fill-rule:evenodd;stroke-linejoin:round;stroke-miterlimit:2">
                    
                </g><g transform="matrix(0.11586837,0,0,0.11586837,-181.49087,159.29101)" id="g183" style="clip-rule:evenodd;display:inline;fill-rule:evenodd;stroke-linejoin:round;stroke-miterlimit:2">
                    
                </g><g id="g16907" transform="translate(0,6)"><path class="cls-10" d="m 272.15146,179.44236 a 64.42,74.827928 0 0 0 -14.93857,-9.10947 51.39,59.692754 0 0 0 -31.86739,-1.1754 64.14,74.50269 0 0 0 -15.44328,7.93994 34,39.493163 0 0 1 13.74631,-13.11437 39.79,46.218616 0 0 1 35.50555,1.36805 34.22,39.748707 0 0 1 12.99738,14.09125 z" id="path17589" style="fill:#e0a010;fill-opacity:1;stroke-width:1.07776"/><path id="path17587" class="cls-3" d="m 238.30973,165.58204 c 12.7554,-0.50321 25.10083,4.55669 33.83398,13.86719 1.91431,2.0909 3.62211,4.36187 5.09961,6.78125 l -79.39453,35.77929 c -4.70623,-15.94081 1.94651,-32.97737 12.08789,-44.54882 6.7579,-7.71085 17.79445,-11.46081 28.37305,-11.87891 z" style="fill:#6c5c81;fill-opacity:1" sodipodi:nodetypes="ccccac"/><path class="cls-12" d="m 274.83348,189.80272 c -5.7619,-11.0404 -85.04007,17.24016 -74.48619,37.44405 a 41.850976,41.062653 0 0 0 74.50712,-37.42217 z" id="path17591" style="fill:#2f2c38;fill-opacity:1;stroke-width:1.00955"/><path id="path17593" style="fill:#222127;fill-opacity:1;stroke-width:3.11127;stroke-linecap:round;stroke-linejoin:round;paint-order:stroke markers fill;stop-color:#000000" d="m 289.06567,165.51875 c -20.03439,11.99482 -56.96499,-0.95459 -93.3145,53.09789 -0.24376,6.74001 12.91831,16.17706 17.59823,18.29539 l 64.91078,-41.71675 z" sodipodi:nodetypes="ccccc"/><path class="cls-12" d="m 275.85303,187.80272 c -5.65337,-11.0404 -83.43823,17.24016 -73.08314,37.44405 a 41.062653,41.062653 0 0 0 73.10367,-37.42217 z" id="path17595"/><path id="path9746" style="fill:#414042;stroke-width:1.14411" d="m 236.61914,193.41602 c -10.01349,4.07453 -19.76345,9.32874 -26.39258,14.89453 a 26.314563,26.314563 0 1 0 51.16406,-3.4668 h -0.0117 a 15.113712,15.113712 0 0 1 -24.75977,-11.42773 z m -11.86719,21.54296 a 6.2468484,6.2468484 0 0 1 6.25196,6.2461 6.2354073,6.2354073 0 0 1 -6.2461,6.24414 6.2468484,6.2468484 0 0 1 -0.006,-12.49024 z"/></g><g id="g16899" transform="translate(0,6)"><path class="cls-10" d="m 27.848536,179.44236 a 64.42,74.827929 0 0 1 14.938568,-9.10947 51.39,59.692755 0 0 1 31.867389,-1.1754 64.14,74.502691 0 0 1 15.443287,7.93994 34,39.493163 0 0 0 -13.746314,-13.11437 39.79,46.218617 0 0 0 -35.505547,1.36805 34.22,39.748707 0 0 0 -12.997383,14.09125 z" id="path6050" style="fill:#e0a010;fill-opacity:1;stroke-width:1.07776"/><path id="circle6048" class="cls-3" d="m 61.690252,165.58203 c -12.755397,-0.50321 -25.100836,4.55669 -33.833986,13.86719 -1.914304,2.0909 -3.622106,4.36187 -5.099603,6.78125 l 79.394527,35.77929 c 4.70623,-15.94081 -1.94651,-32.97737 -12.087889,-44.54882 -6.757902,-7.71085 -17.794445,-11.46081 -28.373049,-11.87891 z" style="fill:#6c5c81;fill-opacity:1" sodipodi:nodetypes="ccccac"/><path class="cls-12" d="m 25.166513,189.80272 c 5.761905,-11.0404 85.040077,17.24016 74.486195,37.44405 A 41.850976,41.062653 0 0 1 25.145587,189.8246 Z" id="path8163" style="fill:#2f2c38;fill-opacity:1;stroke-width:1.00955"/><path id="rect6276" style="fill:#222127;fill-opacity:1;stroke-width:3.11127;stroke-linecap:round;stroke-linejoin:round;paint-order:stroke markers fill;stop-color:#000000" d="m 10.934328,165.51875 c 20.034392,11.99482 56.964991,-0.95459 93.314502,53.09789 0.24376,6.74001 -12.918309,16.17706 -17.598237,18.29539 L 21.739815,195.19528 Z" sodipodi:nodetypes="ccccc"/><path class="cls-12" d="m 24.146968,187.80272 c 5.653372,-11.0404 83.438232,17.24016 73.083142,37.44405 A 41.062653,41.062653 0 0 1 24.126437,187.8246 Z" id="path6052"/><path id="path9589" style="fill:#414042;stroke-width:1.14411" d="m 50.408203,188.8457 a 26.314563,26.314563 0 1 0 39.541016,19.61328 c -0.793802,-0.67283 -1.630334,-1.33956 -2.511719,-2.00195 A 15.113712,15.113712 0 0 1 65.277344,194.21484 C 60.298597,192.10785 55.230967,190.2854 50.408203,188.8457 Z m 3.619141,26.14258 a 6.2468484,6.2468484 0 0 1 5.638672,6.2168 6.2354073,6.2354073 0 0 1 -6.246094,6.24609 6.2468484,6.2468484 0 1 1 0.607422,-12.46289 z"/></g><g id="g11571"><path class="cls-5" d="M 36.38,298.39 C 16.367042,296.56469 -0.00552392,282.09602 0,262 v 46.61 C -0.00552392,328.70602 16.283975,345 36.38,345 H 150 c -5.41184,-18.6235 -13.4981,-35.46406 -37.43339,-41.7386 L 100.29,279.64 c -16.567714,11.77489 -34.988535,21.38782 -63.91,18.75 z" id="path6014" style="fill:url(#linearGradient11564)" sodipodi:nodetypes="sccscccs"/><path id="path10673" style="fill:#6b401e;fill-opacity:1" class="cls-5" d="m 0,262 v 22.62891 c -0.00503566,18.49095 14.920035,31.80485 33.164062,33.48437 26.365118,2.42714 43.158413,-6.41948 58.261719,-17.2539 l 11.191409,21.73632 c 14.68104,3.88455 22.80672,12.17884 28.06445,22.4043 H 150 c -5.41183,-18.62348 -13.49833,-35.46375 -37.43359,-41.73828 l -12.27735,-23.6211 C 83.721365,291.4155 65.302295,301.02844 36.380859,298.39062 16.367921,296.56532 -0.00552391,282.096 0,262 Z"/><path id="rect11422" style="opacity:0.612245;fill:url(#linearGradient11566);fill-opacity:1;stroke-width:1.724;stroke-linecap:round;stroke-linejoin:round;stop-color:#000000" d="m 112.08789,302.3418 -10.45312,18.3457 0.98242,1.9082 c 14.68102,3.88455 22.80673,12.17885 28.06445,22.4043 H 150 c -5.41182,-18.62346 -13.49836,-35.46376 -37.43359,-41.73828 z"/></g><g class="UnoptimicedTransforms" id="g11555" transform="matrix(-1,0,0,1,300,0)"><path class="cls-5" id="path11549" d="M 36.38,298.39 C 16.367042,296.56469 -0.00552392,282.09602 0,262 v 46.61 C -0.00552392,328.70602 16.283975,345 36.38,345 H 150 c -5.41184,-18.6235 -13.4981,-35.46406 -37.43339,-41.7386 L 100.29,279.64 c -16.567714,11.77489 -34.988535,21.38782 -63.91,18.75 z" style="fill:url(#linearGradient6189)"/><path class="cls-5" id="path11551" d="m 0,262 v 22.62891 c -0.00503566,18.49095 14.920035,31.80485 33.164062,33.48437 26.365118,2.42714 43.158413,-6.41948 58.261719,-17.2539 l 11.191409,21.73632 c 14.68104,3.88455 22.80672,12.17884 28.06445,22.4043 H 150 c -5.41183,-18.62348 -13.49833,-35.46375 -37.43359,-41.73828 l -12.27735,-23.6211 C 83.721365,291.4155 65.302295,301.02844 36.380859,298.39062 16.367921,296.56532 -0.00552391,282.096 0,262 Z" style="fill:#6b401e;fill-opacity:1"/><path id="path11553" d="m 112.08789,302.3418 -10.45312,18.3457 0.98242,1.9082 c 14.68102,3.88455 22.80673,12.17885 28.06445,22.4043 H 150 c -5.41182,-18.62346 -13.49836,-35.46376 -37.43359,-41.73828 z" style="opacity:0.612245;fill:url(#linearGradient11538);stroke-width:1.724;stroke-linecap:round;stroke-linejoin:round;stop-color:#000000;fill-opacity:1"/></g><path id="ellipse12435" style="fill:#3e2511;fill-opacity:1;fill-rule:evenodd;stroke-width:0.458078" class="UnoptimicedTransforms" d="M 123.72656 311.56836 A 5.9929228 5.6525636 0 0 0 117.73438 317.2207 A 5.9929228 5.6525636 0 0 0 123.72656 322.875 A 5.9929228 5.6525636 0 0 0 129.7207 317.2207 A 5.9929228 5.6525636 0 0 0 123.72656 311.56836 z M 176.27344 311.56836 A 5.9929228 5.6525636 0 0 0 170.2793 317.2207 A 5.9929228 5.6525636 0 0 0 176.27344 322.875 A 5.9929228 5.6525636 0 0 0 182.26562 317.2207 A 5.9929228 5.6525636 0 0 0 176.27344 311.56836 z M 129 324.26367 A 5.9929228 5.6525636 0 0 0 123.00781 329.91602 A 5.9929228 5.6525636 0 0 0 129 335.57031 A 5.9929228 5.6525636 0 0 0 134.99414 329.91602 A 5.9929228 5.6525636 0 0 0 129 324.26367 z M 171 324.26367 A 5.9929228 5.6525636 0 0 0 165.00586 329.91602 A 5.9929228 5.6525636 0 0 0 171 335.57031 A 5.9929228 5.6525636 0 0 0 176.99219 329.91602 A 5.9929228 5.6525636 0 0 0 171 324.26367 z "/><path style="opacity:1;fill:none;fill-opacity:1;stroke:#452913;stroke-width:8.039;stroke-linecap:round;stroke-linejoin:round;stroke-dasharray:none;stroke-opacity:1;stop-color:#000000" d="m 124.32444,316.95307 c 19.05473,-7.29452 35.38616,-5.17174 51.35112,0" id="path12241" sodipodi:nodetypes="cc"/><path style="opacity:1;fill:none;fill-opacity:1;stroke:#452913;stroke-width:6.92261;stroke-linecap:round;stroke-linejoin:round;stroke-dasharray:none;stroke-opacity:1;stop-color:#000000" d="m 128.68547,329.89136 c 15.81826,-6.05554 29.37577,-4.29331 42.62906,0" id="path11636" sodipodi:nodetypes="cc"/><path class="cls-11" d="m 157.8921,287.50022 c -15.73948,4.21738 -32.75596,-7.12733 -38.27926,-16.76333 -4.18311,-7.29792 19.57877,1.16376 32.00571,-6.64988 10.95867,-0.0225 28.09715,-17.63319 30.00594,-10.50948 2.89961,10.8215 -7.9929,29.70531 -23.73239,33.92269 z" id="path36258" style="fill:#680e19;fill-opacity:1;stroke-width:0.939777" sodipodi:nodetypes="sscss"/><path id="path36262" style="fill:#c62639;stroke-width:1.15629" class="cls-12" d="m 154.38727,274.41824 c -8.62553,2.3112 -14.76457,5.88214 -18.79783,10.22116 6.76889,3.29251 14.68424,4.90231 22.30314,2.86084 7.48177,-2.00474 13.86338,-7.32483 18.19393,-13.51628 -5.7131,-1.84092 -12.91054,-1.92064 -21.69924,0.43428 z"/><path style="fill:none;fill-opacity:1;stroke:#cd8029;stroke-width:2.6862;stroke-linecap:round;stroke-dasharray:none;stroke-opacity:1;paint-order:stroke fill markers;stop-color:#000000" d="m 118.9033,268.4467 c 0,0 21.92504,-0.85498 32.36594,-3.86152 12.83202,-3.69508 36.21047,-17.13567 36.21047,-17.13567" id="path51853" sodipodi:nodetypes="cac"/><path id="path52246" style="fill:#cd8029;fill-opacity:1;fill-rule:evenodd;stroke-width:0.418777" class="UnoptimicedTransforms" d="m 161.51602,254.7238 c -0.57436,-0.17573 -1.21887,-0.24569 -1.88451,-0.24223 -0.79877,0.004 -1.62833,0.11478 -2.40952,0.27945 -2.08804,0.44018 -1.95127,1.43052 0.0552,1.8531 1.06423,0.22414 2.14895,0.65522 2.93969,1.5031 1.07495,1.1526 1.41942,2.87453 1.53554,4.33051 0.11863,1.48746 0.94273,1.57299 1.4333,0.0661 0.73365,-2.25357 1.25473,-5.35379 -0.20215,-6.91594 -0.3888,-0.41689 -0.89318,-0.69835 -1.46753,-0.87408 z" transform="matrix(1.5097098,0.01438746,-0.01392367,1.4610427,-53.291077,-130.8667)"/><path id="rect16420" style="opacity:1;fill:#3a2f37;fill-opacity:1;stroke-width:2.21041;stroke-linecap:round;stroke-linejoin:round;stop-color:#000000" d="m 155.14911,118.16615 127.12611,1.97714 c 10.663,33.05602 -21.83156,49.20883 -50.83722,43.87807 21.71212,69.43414 -31.49772,34.2887 -17.68212,57.35143 46.7823,78.09488 -32.9766,55.45739 -33.02773,50.10918 0,0 22.67169,-10.3038 25.89015,-22.50976 3.35104,-12.7088 -31.08131,-12.89082 -31.77537,-42.11601 -0.48403,-20.38099 22.0689,-35.2765 17.8089,-53.92664 -4.18018,-18.30068 -37.50272,-34.76341 -37.50272,-34.76341 z" sodipodi:nodetypes="cccscssac"/><path id="rect16890" style="opacity:1;fill:#3a2f37;stroke-width:2.36249;stroke-linecap:round;stroke-linejoin:round;stop-color:#000000" d="m 127.26176,114.13547 37.15923,-22.958814 c 0,0 34.72971,66.360094 10.70497,66.798704 -60.09323,1.09707 -21.04506,21.99712 -14.99345,29.10062 0,0 -30.72356,-12.74621 -32.07382,-21.92915 -1.86695,-12.69692 7.49323,-7.25374 19.4571,-15.52895 26.82386,-18.55364 -9.08667,-31.85771 -20.25403,-35.48241 z" sodipodi:nodetypes="ccscssc"/><path id="rect14051" style="opacity:1;fill:#a71c12;fill-opacity:1;stroke-width:7.50758;stroke-linecap:round;stroke-linejoin:round;stop-color:#000000" d="m 0,90.597339 v 53.224421 c 101.42653,-27.10785 201.51915,-28.85999 300,0 V 90.597332 C 300,70.460923 285.00177,47.615482 265.90495,41.244944 188.52831,15.432747 111.15167,13.347907 33.775032,40.441028 14.777197,47.093045 0,70.460927 0,90.597339 Z" sodipodi:nodetypes="cccccsc"/><path id="rect15631" style="opacity:1;fill:#f64f43;fill-opacity:0.186047;stroke-width:2.50305;stroke-linecap:round;stroke-linejoin:round;stop-color:#000000" d="M 149.83984,21.003906 C 128.9026,20.80849 107.96459,22.621992 87.027344,26.408203 102.9093,33.42019 114.21392,61.949632 100.30183,70.215425 88.239689,77.382088 57.341554,90.312279 53.631052,97.948287 52.022147,101.25932 97.281721,88.0527 88.882983,114.94172 c -1.271618,4.07115 -3.378467,8.09469 -5.355639,12.43328 57.267556,-7.24494 114.083176,-5.89084 170.386716,5.17969 -4.73277,-10.1894 42.75444,3.36559 44.94362,2.2465 6.79912,-3.47566 -41.10259,-24.38785 -53.80937,-28.4055 -6.10047,-1.92885 -3.54922,-13.601271 -4.48001,-18.664285 -2.74597,-14.936706 34.72086,-0.18383 37.7011,-6.672378 3.1178,-6.788058 -35.07296,-30.606074 -39.68817,-31.728031 -5.35643,-1.302146 2.23168,-10.42812 3.89924,-15.10248 -30.88025,-8.368145 -61.76038,-12.936391 -92.64063,-13.22461 z" sodipodi:nodetypes="scsssccssssscs"/><path id="path15570" style="opacity:1;fill:#5d100a;stroke-width:2.446;stroke-linecap:round;stroke-linejoin:round;stop-color:#000000;fill-opacity:0.62790698" d="M 33.113281 94.908203 L 0 95.804688 L 0 109.09961 C 8.3774825 102.79881 17.75291 99.04471 33.113281 94.908203 z M 61.832031 100.65234 C 36.903377 104.89873 18.128343 106.36558 0 115.59961 L 0 131.73438 C 11.344696 121.12633 29.166971 110.81204 61.832031 100.65234 z M 243.125 100.65234 C 271.38138 109.44082 288.53193 118.34544 300 127.45508 L 300 113.26758 C 283.36944 106.07559 265.7903 104.51319 243.125 100.65234 z "/></svg>