<?xml version="1.0" encoding="UTF-8" standalone="no"?>
<svg id="Layer_1" data-name="Layer 1" viewBox="0 0 300 345" version="1.1" sodipodi:docname="perryPlatypus.svg" xml:space="preserve" inkscape:version="1.2 (dc2aedaf03, 2022-05-15)" xmlns:inkscape="http://www.inkscape.org/namespaces/inkscape" xmlns:sodipodi="http://sodipodi.sourceforge.net/DTD/sodipodi-0.dtd" xmlns="http://www.w3.org/2000/svg" xmlns:svg="http://www.w3.org/2000/svg"><sodipodi:namedview id="namedview123" pagecolor="#505050" bordercolor="#ffffff" borderopacity="1" inkscape:showpageshadow="0" inkscape:pageopacity="0" inkscape:pagecheckerboard="1" inkscape:deskcolor="#505050" showgrid="false" inkscape:zoom="1.4247736" inkscape:cx="103.17429" inkscape:cy="179.67767" inkscape:window-width="1366" inkscape:window-height="705" inkscape:window-x="-8" inkscape:window-y="-8" inkscape:window-maximized="1" inkscape:current-layer="Layer_1"/><defs id="defs25"><inkscape:path-effect effect="mirror_symmetry" start_point="144.07484,240.58228" end_point="144.07484,257.26541" center_point="144.07484,248.92385" id="path-effect8586" is_visible="true" lpeversion="1.2" lpesatellites="" mode="vertical" discard_orig_path="false" fuse_paths="false" oposite_fuse="false" split_items="false" split_open="false" link_styles="false"/><inkscape:path-effect effect="fillet_chamfer" id="path-effect8364" is_visible="true" lpeversion="1" nodesatellites_param="F,0,0,1,0,22.524135,0,1 @ F,0,0,1,0,11,0,1 @ F,0,0,1,0,11,0,1" unit="px" method="auto" mode="F" radius="11" chamfer_steps="1" flexible="false" use_knot_distance="true" apply_no_radius="true" apply_with_radius="true" only_selected="false" hide_knots="false"/><inkscape:path-effect effect="fillet_chamfer" id="path-effect7096" is_visible="true" lpeversion="1" nodesatellites_param="F,0,0,1,0,0,0,1 @ F,0,0,1,0,9.5937724,0,1 @ F,0,0,1,0,10.35309,0,1" unit="px" method="auto" mode="F" radius="0" chamfer_steps="1" flexible="false" use_knot_distance="true" apply_no_radius="true" apply_with_radius="true" only_selected="false" hide_knots="false"/><inkscape:path-effect effect="fillet_chamfer" id="path-effect6839" is_visible="true" lpeversion="1" nodesatellites_param="F,0,1,1,0,30.248298,0,1 @ F,0,0,1,0,30.248298,0,1 @ F,0,0,1,0,0,0,1 @ F,0,0,1,0,0,0,1 @ F,0,0,1,0,0,0,1 @ F,0,1,1,0,30.248298,0,1" unit="px" method="auto" mode="F" radius="0" chamfer_steps="1" flexible="false" use_knot_distance="true" apply_no_radius="true" apply_with_radius="true" only_selected="false" hide_knots="false"/><style id="style2">.cls-1{fill:url(#linear-gradient);}.cls-2{fill:#dae6f5;}.cls-3{fill:url(#radial-gradient);}.cls-4{fill:url(#radial-gradient-2);}.cls-5{fill:#9cb9db;}.cls-6{fill:#fff;}.cls-7{fill:#414042;}.cls-8,.cls-9{fill:none;stroke-linecap:round;stroke-miterlimit:10;stroke-width:6px;}.cls-8{stroke:#8aa9ce;}.cls-9{stroke:#436789;}.cls-10{fill:#c1956a;}.cls-11{fill:#dcbf9a;}.cls-12{fill:#d8ac80;}.cls-13{fill:#b6cbe9;}</style><linearGradient id="linear-gradient" x1="150" y1="356.11" x2="150" y2="161.16" gradientUnits="userSpaceOnUse"><stop offset="0" stop-color="#9dc6ea" id="stop4" style="stop-color:#1fa49f;stop-opacity:1;"/><stop offset="0.65495867" stop-color="#416eb5" id="stop6" style="stop-color:#061c53;stop-opacity:1;"/></linearGradient></defs><path class="cls-1" d="M 263.62,345 H 36.38 A 36.38,36.38 0 0 1 0,308.62 v -49.48 h 300 v 49.48 A 36.38,36.38 0 0 1 263.62,345 Z" id="path27" style="fill:url(#linear-gradient);opacity:1"/><path class="cls-2" d="M 150,30.331775 C 0,30.331775 0,168.87178 0,168.87178 V 262 c 0,20.09212 16.287881,36.38 36.38,36.38 H 263.62 C 283.71212,298.38 300,282.09212 300,262 v -93.12822 c 0,0 0,-138.540005 -150,-138.540005 z" id="path29" style="opacity:1;fill:#1fa49f;fill-opacity:1.0" sodipodi:nodetypes="scsssscs"/><path id="rect9340" style="opacity:1;fill:#1b828e;fill-opacity:1;stroke:none;stroke-width:2.22991;stroke-linecap:butt;stroke-linejoin:round;stroke-dasharray:none;stroke-opacity:1;stop-color:#000000;stop-opacity:1" d="M 246.53516 231.66406 L 246.53516 298.38086 L 263.61914 298.38086 C 283.71124 298.38086 300 282.0921 300 262 L 300 231.66406 L 246.53516 231.66406 z "/><path id="rect9338" style="opacity:1;fill:#1b828e;fill-opacity:1;stroke:none;stroke-width:2.14311;stroke-linecap:butt;stroke-linejoin:round;stroke-dasharray:none;stroke-opacity:1;stop-color:#000000;stop-opacity:1" d="M 0 236.24023 L 0 262 C 0 282.0921 16.28876 298.38086 36.380859 298.38086 L 59.488281 298.38086 L 59.488281 236.24023 L 0 236.24023 z "/><path id="rect5033" style="opacity:1;fill:#1b828e;fill-opacity:1;stroke-width:2.34595;stroke-linecap:round;stroke-linejoin:round;stop-color:#000000;stop-opacity:1" d="m 150,30.332031 c -46.80473,0 -67.673923,15.231851 -89.82661,33.791549 -7.233383,10.752446 -12.58533,22.762656 -15.306641,35.613282 0.042,40.451398 22.871243,63.454798 -5.257194,114.359698 l 8.650211,69.2511 c -0.233672,6.30874 0.376029,11.10022 1.753906,15.0332 H 259.19531 c -0.25489,-23.80278 2.71964,-59.94408 2.33646,-84.57227 -26.43098,-34.54546 3.64445,-101.20996 -12.90554,-142.621623 -1.79628,-3.636296 -3.87126,-7.097059 -6.07812,-10.462891 -0.001,-0.0012 -0.002,-0.0027 -0.004,-0.0039 C 220.38846,42.117404 196.87495,30.332031 150,30.332031 Z" sodipodi:nodetypes="sccccccccccs"/><path id="rect373" style="fill:#e0722c;fill-opacity:1;stroke-width:2.30383;stroke-linejoin:round;stop-color:#000000;stop-opacity:1" d="M 167.73047 266.32031 C 161.27457 266.15153 154.33993 266.65312 146.73828 267.95703 C 115.62872 282.67114 106.67121 319.99431 123.31836 345 L 263.61914 345 A 36.38 36.38 0 0 0 300 308.61914 L 300 267.44922 C 293.40084 293.39409 279.09613 316.98817 217.95117 282.31836 C 202.1522 273.36018 187.09818 266.82665 167.73047 266.32031 z "/><path id="path3589" style="fill:#fd9d60;fill-opacity:1;stroke-width:2.30383;stroke-linejoin:round;stop-color:#000000;stop-opacity:1" d="M 167.73047 266.32031 C 161.27458 266.15153 154.33992 266.65312 146.73828 267.95703 C 129.14551 276.27801 118.64357 291.82961 115.84375 308.29492 C 120.28456 294.92364 130.03172 282.9129 144.73828 275.95703 C 152.33992 274.65312 159.27458 274.15153 165.73047 274.32031 C 185.09816 274.82665 200.15222 281.36019 215.95117 290.31836 C 277.09607 324.98813 291.40085 301.39406 298 275.44922 L 298 316.61914 A 36.38 36.38 0 0 1 297.66992 321.42578 A 36.38 36.38 0 0 0 300 308.61914 L 300 267.44922 C 293.40085 293.39406 279.09607 316.98813 217.95117 282.31836 C 202.15222 273.36019 187.09816 266.82665 167.73047 266.32031 z "/><path id="path3441" style="fill:#27272a;fill-opacity:0.84615386;stroke-width:1.54099;stroke-linecap:round;stroke-linejoin:round;stop-color:#000000;stop-opacity:1" class="UnoptimicedTransforms" d="M 9.0839844 264.44336 L 9.6816406 266.79688 C 7.1475999 277.56663 6.8008977 292.47353 11.064453 301.32617 C 13.116105 305.58616 18.554594 304.21317 20.634766 299.86914 L 22.880859 295.17773 C 28.368049 291.69665 36.486806 292.95567 44.578125 293.47656 L 52.464844 300.19141 A 3.149122 3.0327024 0 0 0 57.689453 297.66016 L 56.802734 287.67773 C 60.39229 281.87284 64.18224 275.854 69.773438 273.87305 C 69.791495 273.88305 69.812048 273.89129 69.830078 273.90039 C 71.854869 274.92634 74.073685 274.53559 75.435547 273.31641 C 75.600563 273.33791 75.761985 273.35121 75.929688 273.37891 L 75.744141 273.02539 C 76.763001 271.9037 77.123819 270.23212 76.207031 268.3418 C 75.5866 267.06252 74.73511 265.75539 73.791016 264.44336 L 9.0839844 264.44336 z M 226.20898 264.44336 C 225.2649 265.75539 224.4134 267.06252 223.79297 268.3418 C 222.87618 270.23212 223.237 271.9037 224.25586 273.02539 L 224.07031 273.37891 C 224.23802 273.35121 224.39944 273.33791 224.56445 273.31641 C 225.92632 274.53559 228.14513 274.92634 230.16992 273.90039 C 230.18795 273.89129 230.2085 273.88305 230.22656 273.87305 C 235.81777 275.854 239.6077 281.87284 243.19727 287.67773 L 242.31055 297.66016 A 3.149122 3.0327024 0 0 0 247.53516 300.19141 L 255.42188 293.47656 C 263.51319 292.95567 271.63196 291.69665 277.11914 295.17773 L 279.36523 299.86914 C 281.44541 304.21317 286.88389 305.58616 288.93555 301.32617 C 293.19909 292.47353 292.85241 277.56663 290.31836 266.79688 L 290.91602 264.44336 L 226.20898 264.44336 z "/><rect style="opacity:1;fill:#12505f;fill-opacity:1;stroke-width:2.03431;stroke-linecap:round;stroke-linejoin:round;stop-color:#000000;stop-opacity:1" id="rect9274" width="200.47081" height="195.28622" x="49.764595" y="27.553768" ry="97.643112"/><path id="rect6462" style="fill:#a0420d;fill-opacity:1;stroke-width:1.57029;stroke-linecap:round;stroke-linejoin:round;stop-color:#000000" d="m 234.03697,252.11436 55.22636,28.03086 -7.24007,15.70828 c -6.36603,-10.54403 -21.36655,-4.44723 -33.83692,-5.6112 -6.11663,-8.92417 -11.22814,-22.90822 -22.89193,-20.90337 z" sodipodi:nodetypes="cccccc"/><path id="rect6154" style="fill:#f59c04;fill-opacity:1;stroke-width:1.13779;stroke-linecap:round;stroke-linejoin:round;stop-color:#000000" d="m 261.17176,236.41509 c -10.14383,1.25763 -30.50992,15.61078 -36.15344,27.69393 -2.10117,4.49875 2.50545,7.80783 6.3754,5.77169 6.32547,-3.32809 14.60024,-7.43573 16.72169,-5.92102 l -3.44684,17.34964 -1.13315,13.24337 a 3.149122,3.149122 0 0 0 5.22392,2.62738 l 9.11118,-8.05809 12.84476,-13.69145 9.87526,21.41424 c 2.08018,4.5108 7.51863,5.93762 9.57029,1.5141 6.40935,-13.81894 2.42922,-41.90336 -3.79664,-48.1261 -15.14293,-9.54864 -8.92258,-6.49626 -25.19243,-13.81769 z" sodipodi:nodetypes="cccccccccc"/><path id="path8058" style="fill:#12505f;fill-opacity:1;stroke-width:1.2246;stroke-linecap:round;stroke-linejoin:round;stop-color:#000000" d="m 259.5447,230.56911 36.57771,13.22367 -5.25757,21.48423 -10.9464,-12.59905 -16.94309,4.20266 -4.99409,-13.50318 -16.18305,2.66699 z" sodipodi:nodetypes="cccccccc"/><path id="rect7293" style="fill:#1fa49f;fill-opacity:1;stroke-width:1.2246;stroke-linecap:round;stroke-linejoin:round;stop-color:#000000" d="m 259.8246,220.79146 c 20.98427,-5.2943 41.83971,-17.08907 36.60568,19.73756 l -12.33044,18.24032 -1.72151,-9.76507 -18.46908,5.07465 -4.1221,-14.59317 -11.60508,4.19298 c 6.90995,-6.3309 11.31601,-13.7349 11.64253,-22.88727 z" sodipodi:nodetypes="cccccccc"/><path style="color:#000000;fill:#12505f;fill-opacity:1;stroke-linejoin:round" d="m 260.39045,214.09656 c 0,6.40479 -1.79084,12.3568 -3.80987,16.91516 -2.01907,4.55842 -6.19793,7.98552 -10.60547,11.5332 l 1.79883,2.23633 c 4.40754,-3.54769 11.34711,-6.92738 13.73543,-12.31945 2.38834,-5.39212 0.0224,-12.24842 0.0224,-18.65321 z" id="path7573" sodipodi:nodetypes="csccscc"/><path id="path7640" style="color:#000000;fill:#12505f;fill-opacity:1;stroke-linejoin:round" d="M 297.64453 202.81641 C 298.47502 213.22186 298.67543 222.75872 297.56836 230.19141 C 295.70827 242.67978 291.56311 248.84186 287.22852 255.34375 L 289.61719 256.9375 C 293.95178 250.43561 297.61193 244.45635 299.54492 231.47852 C 300.45676 225.35653 299.84639 213.57988 298.96094 202.81641 L 297.64453 202.81641 z "/><path id="rect9170" style="fill:#fdd99b;fill-opacity:1;stroke-width:0.644056;stroke-linejoin:round;stop-color:#000000;stop-opacity:1" d="m 248.17984,289.63421 c 3.03337,-0.58414 8.56101,-12.5277 11.19273,-14.82267 14.90222,-12.99533 -2.86351,-10.46426 -6.11029,-6.96451 -3.85992,4.16066 -8.72625,22.48887 -5.08244,21.78718 z" sodipodi:nodetypes="ssss"/><rect style="opacity:1;fill:#1fa49f;fill-opacity:1.0;stroke-width:2.03431;stroke-linecap:round;stroke-linejoin:round;stop-color:#000000;stop-opacity:1.0" id="rect6630" width="200.47081" height="195.28622" x="49.764595" y="13.553769" ry="97.643112"/><path id="path2528" style="color:#000000;fill:#883e06;fill-opacity:0.67164177;stroke-width:8.36786;stroke-linejoin:round" d="M 174.1582 266.73047 L 188.30273 280.875 L 163.55469 305.62305 L 138.80469 280.875 L 152.58008 267.09961 C 150.67494 267.33358 148.73176 267.61509 146.73828 267.95703 C 131.21494 275.29922 121.20955 288.27153 117.14648 302.5332 L 133.80664 285.87305 L 158.55664 310.62109 L 133.80664 335.37109 L 115.08984 316.6543 C 115.04777 320.37114 115.40141 324.07807 116.15039 327.70898 L 128.80859 340.36914 L 124.17773 345 L 143.43555 345 L 138.80469 340.36914 L 163.55469 315.61914 L 188.30273 340.36719 L 183.66992 345 L 202.93164 345 L 198.29883 340.36719 L 223.04688 315.61914 L 247.79688 340.36914 L 243.16602 345 L 262.42383 345 L 257.79297 340.36914 L 282.54102 315.62109 L 294.5918 327.67188 A 36.38 36.38 0 0 0 297.84375 320.92578 L 287.53906 310.62109 L 300 298.16211 L 300 288.16602 L 282.54102 305.62305 L 275.69141 298.77344 C 272.97469 299.43459 269.96469 299.76324 266.60938 299.68945 L 277.54297 310.62305 L 252.79492 335.37109 L 228.04492 310.62109 L 243.9375 294.72852 C 241.66752 293.89027 239.28691 292.91908 236.82422 291.8457 L 223.04688 305.62305 L 198.29883 280.875 L 204.02148 275.15234 C 201.69412 274.08975 199.34278 273.11067 196.9668 272.21094 L 193.30078 275.87695 L 186.23828 268.8125 C 182.36544 267.85662 178.35893 267.14658 174.1582 266.73047 z M 300 267.44922 C 299.58939 269.06356 299.14767 270.66929 298.66797 272.25195 L 300 273.58398 L 300 267.44922 z M 193.30078 285.87305 L 218.04883 310.62109 L 193.30078 335.36914 L 168.55273 310.62109 L 193.30078 285.87305 z "/><path id="path9256" d="m 65.96303,252.11436 -55.22636,28.03086 7.24007,15.70828 c 6.36603,-10.54403 21.36655,-4.44723 33.83692,-5.6112 6.11663,-8.92417 11.22814,-22.90822 22.89193,-20.90337 z" style="fill:#a0420d;fill-opacity:1;stroke-width:1.57029;stroke-linecap:round;stroke-linejoin:round;stop-color:#000000"/><path id="path9258" d="m 38.82824,236.41509 c 10.14383,1.25763 30.50992,15.61078 36.15344,27.69393 2.10117,4.49875 -2.50545,7.80783 -6.3754,5.77169 -6.32547,-3.32809 -14.60024,-7.43573 -16.72169,-5.92102 l 3.44684,17.34964 1.13315,13.24337 a 3.149122,3.149122 0 0 1 -5.22392,2.62738 l -9.11118,-8.05809 -12.84476,-13.69145 -9.87526,21.41424 c -2.08018,4.5108 -7.51863,5.93762 -9.57029,1.5141 -6.40935,-13.81894 -2.42922,-41.90336 3.79664,-48.1261 15.14293,-9.54864 8.92258,-6.49626 25.19243,-13.81769 z" style="fill:#f59c04;fill-opacity:1;stroke-width:1.13779;stroke-linecap:round;stroke-linejoin:round;stop-color:#000000"/><path id="path9260" d="m 40.4553,230.56911 -36.57771,13.22367 5.25757,21.48423 10.9464,-12.59905 16.94309,4.20266 4.99409,-13.50318 16.18305,2.66699 z" style="fill:#12505f;fill-opacity:1;stroke-width:1.2246;stroke-linecap:round;stroke-linejoin:round;stop-color:#000000"/><path id="path9262" d="M 40.1754,220.79146 C 26.19947,224.20275 6.23138,207.06952 1.85369,243.38906 l 14.04647,15.38028 1.72151,-9.76507 18.46908,5.07465 4.1221,-14.59317 11.60508,4.19298 c -6.90995,-6.3309 -11.31601,-13.7349 -11.64253,-22.88727 z" style="fill:#1fa49f;fill-opacity:1;stroke-width:1.2246;stroke-linecap:round;stroke-linejoin:round;stop-color:#000000" sodipodi:nodetypes="cccccccc"/><path id="path9264" d="m 39.60955,214.09656 c 0,6.40479 1.79084,12.3568 3.80987,16.91516 2.01907,4.55842 6.19793,7.98552 10.60547,11.5332 l -1.79883,2.23633 c -4.40754,-3.54769 -11.34711,-6.92738 -13.73543,-12.31945 -2.38834,-5.39212 -0.0224,-12.24842 -0.0224,-18.65321 z" style="color:#000000;fill:#12505f;fill-opacity:1;stroke-linejoin:round"/><path id="path9266" style="color:#000000;fill:#12505f;fill-opacity:1;stroke-linejoin:round" d="M 1.0390625 202.81641 C 0.15360504 213.57988 -0.45676227 225.35653 0.45507812 231.47852 C 2.3880662 244.45635 6.0482168 250.43561 10.382812 256.9375 L 12.771484 255.34375 C 8.4368887 248.84186 4.2917288 242.67978 2.4316406 230.19141 C 1.3245741 222.75872 1.5249791 213.22186 2.3554688 202.81641 L 1.0390625 202.81641 z "/><path id="path9270" d="m 51.82016,289.63421 c -3.03337,-0.58414 -8.56101,-12.5277 -11.19273,-14.82267 -14.90222,-12.99533 2.86351,-10.46426 6.11029,-6.96451 3.85992,4.16066 8.72625,22.48887 5.08244,21.78718 z" style="fill:#fdd99b;fill-opacity:1;stroke-width:0.644056;stroke-linejoin:round;stop-color:#000000"/><path id="path5762" style="opacity:1;fill:#1a1c20;fill-opacity:0.67661691;stroke-width:1.55633;stroke-linecap:round;stroke-linejoin:round;stop-color:#000000;stop-opacity:1" class="UnoptimicedTransforms" d="M 88.068359 204.80065 C 76.428728 221.65604 63.535564 235.91442 69.71875 253.77944 C 79.932721 283.29056 118.7713 302.07048 150 302.07048 C 181.2287 302.07048 220.06728 283.29056 230.28125 253.77944 C 236.46446 235.91435 223.57131 221.65612 211.93164 204.80065 L 88.068359 204.80065 z " transform="matrix(1,0,0,1.1302725,0,-19.359451)"/><path id="rect4872" style="opacity:1;fill:#f59c04;fill-opacity:1;stroke-width:1.55633;stroke-linecap:round;stroke-linejoin:round;stop-color:#000000;stop-opacity:1" class="UnoptimicedTransforms" d="m 121.59446,140.67944 c -12.98798,10.01498 -18.19915,37.96374 -26.152353,52.45709 -12.30445,22.42276 -33.281954,38.80379 -25.723357,60.64277 10.213981,29.51115 49.05252,48.29101 80.28125,48.29101 31.22873,0 70.06727,-18.77986 80.28125,-48.29101 7.55863,-21.83906 -13.41907,-38.22014 -25.7235,-60.64303 -7.95308,-14.49324 -13.19778,-42.65165 -26.41352,-52.65648 -13.03353,-9.86673 -43.46875,-9.8869 -56.54977,0.19965 z" sodipodi:nodetypes="ccaaacc" inkscape:path-effect="#path-effect6839" inkscape:original-d="m 150,131.31641 c -14.81705,4.12563 -28.84782,-0.40394 -46.33008,33.03906 -0.49033,39.55206 -44.37947,59.29345 -33.95117,89.42383 10.213981,29.51115 49.05252,48.29101 80.28125,48.29101 31.22873,0 70.06727,-18.77986 80.28125,-48.29101 10.4283,-30.13038 -33.46084,-49.87177 -33.95117,-89.42383 C 178.84782,130.91247 164.81705,135.44204 150,131.31641 Z"/><path id="path6841" style="opacity:1;fill:#d8731f;fill-opacity:1;stroke:none;stroke-width:4.856;stroke-linecap:round;stroke-linejoin:round;stroke-dasharray:none;stroke-opacity:1;stop-color:#000000;stop-opacity:1" class="UnoptimicedTransforms" d="m 149.76043,152.57031 c -4.42439,-0.016 -11.46163,5.65933 -16.36028,10.25033 -2.56314,2.40217 -0.40467,2.72534 4.8046,2.30403 6.66785,-0.53928 15.54817,-0.25965 22.40832,0.48867 5.65303,0.61665 8.68726,-0.79674 5.78912,-3.35521 -5.05938,-4.4664 -12.25044,-9.67196 -16.64176,-9.68782 z" sodipodi:nodetypes="assa" transform="matrix(1.4950082,0,0,0.53676427,-74.310422,70.676004)" inkscape:path-effect="#path-effect7096" inkscape:original-d="m 149.76043,152.57031 c -8.50436,-0.0307 -26.6623,20.96599 -20.73055,14.87178 4.19261,-4.30744 37.28912,-2.59715 41.64402,0.36127 7.13394,4.84632 -12.28915,-15.2019 -20.91347,-15.23305 z"/><path id="path7202" style="fill:#fdd99b;fill-rule:evenodd;stroke-width:0.507162;fill-opacity:1" d="m 157.34771,143.26918 c 0.3109,2.89873 -7.36517,0.12404 -16.36347,1.08913 -8.99829,0.9651 -15.91135,5.30452 -16.22225,2.40579 -0.31091,-2.89875 6.35896,-9.50568 15.35726,-10.47077 8.9983,-0.9651 16.91757,4.0771 17.22846,6.97585 z" sodipodi:nodetypes="sssss"/><path id="rect8361" style="opacity:1;fill:#fdd99b;stroke-width:2.07311;stroke-linecap:round;stroke-linejoin:round;stop-color:#000000;fill-opacity:1;stop-opacity:1" d="m 131.57113,182.94261 c -0.11587,13.8743 -0.0613,27.7486 0.92678,41.6229 0.4315,6.05893 -3.62927,9.15936 -9.5591,7.86114 -6.90748,-1.51226 -14.17689,-2.11967 -21.86839,-1.67186 -6.061271,0.35289 -7.68722,-2.41453 -3.897879,-7.16261 11.583669,-14.51442 20.069219,-28.08027 26.529299,-42.16515 5.18282,-11.30007 7.97318,-10.92371 7.86929,1.51558 z" sodipodi:nodetypes="cccc" inkscape:path-effect="#path-effect8364" inkscape:original-d="m 131.78804,160.41954 c -0.1387,25.03332 -1.06687,50.06664 1.69786,75.09996 -12.98618,-4.79612 -27.27324,-6.34004 -43.330949,-3.45733 21.478569,-25.03332 33.671679,-46.60931 41.633089,-71.64263 z"/><path id="path74717" style="opacity:1;fill:#a0420d;fill-opacity:1;fill-rule:evenodd;stroke-width:0.774453" d="m 143.21351,255.92696 c -2.29531,3.34981 -8.23315,-0.47031 -12.03264,-1.90332 -4.19325,-1.58151 -11.8089,-2.73321 -11.35927,-7.19217 0.53069,-5.26285 9.84629,-7.40805 14.83203,-5.64125 5.35453,1.8975 11.77091,10.05051 8.55988,14.73674 z M 171.768,243.14608 c 4.02734,0.51982 5.1341,-6.45344 6.59658,-10.24168 1.61405,-4.18084 5.82861,-10.6277 2.20366,-13.26289 -4.27847,-3.11029 -12.08429,2.40799 -14.0881,7.30329 -2.15203,5.2574 -0.3462,15.47408 5.28786,16.20128 z" sodipodi:nodetypes="aaaaa" class="UnoptimicedTransforms" transform="matrix(0.63017447,0.28206365,-0.28206365,0.63017447,121.13853,77.407574)" inkscape:path-effect="#path-effect8586" inkscape:original-d="m 143.21351,255.92696 c -2.29531,3.34981 -8.23315,-0.47031 -12.03264,-1.90332 -4.19325,-1.58151 -11.8089,-2.73321 -11.35927,-7.19217 0.53069,-5.26285 9.84629,-7.40805 14.83203,-5.64125 5.35453,1.8975 11.77091,10.05051 8.55988,14.73674 z"/><path id="path9843" style="opacity:1;fill:#a0420d;fill-opacity:1;stroke-width:1.55633;stroke-linecap:round;stroke-linejoin:round;stop-color:#000000;stop-opacity:1" class="UnoptimicedTransforms" d="m 68.291016,241.50391 c -0.427003,3.94079 -0.051,8.00291 1.427734,12.27539 10.213971,29.51112 49.05255,48.29101 80.28125,48.29101 31.2287,0 70.06728,-18.77989 80.28125,-48.29101 1.47874,-4.2725 1.85475,-8.33458 1.42773,-12.27539 -0.22753,2.04702 -0.75507,4.11181 -1.42773,6.27539 -9.83058,31.61978 -47.78312,47.03527 -80.28125,40.05342 -31.86453,8.90156 -70.257163,-7.88392 -80.28125,-40.05342 -0.674039,-2.16314 -1.200197,-4.22837 -1.427734,-6.27539 z" sodipodi:nodetypes="cssscscsc"/><path id="path9830" style="display:none;opacity:1;fill:#b5aeb1;fill-opacity:1.0;stroke-width:1.55633;stroke-linecap:round;stroke-linejoin:round;stop-color:#000000;stop-opacity:1.0" class="UnoptimicedTransforms" d="m 92.789352,283.03125 c 15.410928,11.38449 34.449428,17.82387 53.517448,18.95313 21.60902,0.70079 43.85934,-6.95147 61.33879,-19.65485 l -1.61644,0.23391 c -22.54028,12.3154 -58.00353,17.85495 -78.77435,12.51468 -9.92336,-2.60918 -24.96391,-7.05956 -33.813052,-12.51468 z" transform="matrix(0.9887619,0,0,1,1.6850646,-6)" sodipodi:nodetypes="ccccccc"/><ellipse style="fill:#186d81;fill-opacity:1;fill-rule:evenodd;stroke-width:0.929735" id="ellipse2315" cx="58.39257" cy="149.67326" rx="19.270927" ry="26.828152" transform="rotate(-14.750272)"/><ellipse style="fill:#e1e0e0;fill-opacity:1;fill-rule:evenodd;stroke-width:0.929735" id="path321" cx="52.217522" cy="156.36743" rx="19.270927" ry="26.828152" transform="rotate(-14.750272)"/><ellipse style="fill:#5a2934;fill-opacity:1;fill-rule:evenodd;stroke-width:0.628775" id="ellipse933" cx="86.103455" cy="129.9734" rx="12.566653" ry="18.816799" transform="matrix(0.99959835,0.0283396,-0.00526922,0.99998612,0,0)"/><ellipse style="fill:#e1e0e0;fill-opacity:1;fill-rule:evenodd;stroke-width:0.711805" id="path4801" cx="72.190376" cy="137.15387" rx="6.8015032" ry="7.1793647" transform="rotate(-7.8406249)"/><ellipse style="fill:#e1e0e0;fill-opacity:1;fill-rule:evenodd;stroke-width:0.442216" id="ellipse5010" cx="61.232399" cy="150.37901" rx="4.1564741" ry="4.5343356" transform="rotate(-7.8406249)"/><path id="path5021" d="m 186.78813,124.9671 a 19.270927,26.828152 14.750272 0 0 11.80523,30.85054 19.270927,26.828152 14.750272 0 0 25.46647,-21.03753 19.270927,26.828152 14.750272 0 0 -11.80523,-30.85052 19.270927,26.828152 14.750272 0 0 -25.46647,21.03751 z" style="fill:#197284;fill-opacity:1;fill-rule:evenodd;stroke-width:0.929735"/><path id="path5023" d="M 191.0553,133.01287 A 19.270927,26.828152 14.750272 0 0 202.86053,163.8634 19.270927,26.828152 14.750272 0 0 228.327,142.82588 19.270927,26.828152 14.750272 0 0 216.52177,111.97536 19.270927,26.828152 14.750272 0 0 191.0553,133.01287 Z" style="fill:#e1e0e0;fill-opacity:1;fill-rule:evenodd;stroke-width:0.929735"/><path id="path5025" d="m 200.81813,139.88225 a 12.560619,18.820828 0.76069801 0 0 12.66076,18.46041 12.560619,18.820828 0.76069801 0 0 12.46246,-19.17268 12.560619,18.820828 0.76069801 0 0 -12.66075,-18.4604 12.560619,18.820828 0.76069801 0 0 -12.46247,19.17267 z" style="fill:#5a2934;fill-opacity:1;fill-rule:evenodd;stroke-width:0.628691"/><path id="path5027" d="m 201.80008,132.21013 a 6.8015032,7.1793647 7.8406251 0 0 5.75852,8.0401 6.8015032,7.1793647 7.8406251 0 0 7.71732,-6.18441 6.8015032,7.1793647 7.8406251 0 0 -5.75853,-8.04009 6.8015032,7.1793647 7.8406251 0 0 -7.71731,6.1844 z" style="fill:#e1e0e0;fill-opacity:1;fill-rule:evenodd;stroke-width:0.711805"/><path id="path5029" d="m 213.47177,147.16734 a 4.1564741,4.5343356 7.8406251 0 0 3.49906,5.05895 4.1564741,4.5343356 7.8406251 0 0 4.73618,-3.92492 4.1564741,4.5343356 7.8406251 0 0 -3.49905,-5.05897 4.1564741,4.5343356 7.8406251 0 0 -4.73619,3.92494 z" style="fill:#e1e0e0;fill-opacity:1;fill-rule:evenodd;stroke-width:0.442216"/><path id="rect5903" style="opacity:1;fill:#1fa49f;fill-opacity:1.0;stroke-width:1.48181;stroke-linecap:round;stroke-linejoin:round;stop-color:#000000;stop-opacity:1.0" d="m 67.148853,18.115218 c 25.793169,-1.697054 50.060717,0.419926 70.540287,12.006859 L 91.662852,50.133508 Z" sodipodi:nodetypes="cccc"/><path id="path5975" style="opacity:1;fill:#1fa49f;fill-opacity:1.0;stroke-width:1.48181;stroke-linecap:round;stroke-linejoin:round;stop-color:#000000;stop-opacity:1.0" d="m 55.895232,27.761179 c 25.793169,-1.697054 50.060718,0.419925 70.540288,12.006859 L 80.409231,59.779469 Z" sodipodi:nodetypes="cccc"/><path id="path5977" style="opacity:1;fill:#1fa49f;fill-opacity:1.0;stroke-width:1.48181;stroke-linecap:round;stroke-linejoin:round;stop-color:#000000;stop-opacity:1.0" d="m 54.287572,34.19182 c 25.793169,-1.697054 50.060718,0.419925 70.540288,12.006859 L 78.801571,66.21011 Z" sodipodi:nodetypes="cccc"/><path id="path9276" style="opacity:1;fill:#1fa49f;fill-opacity:1.0;stroke-width:0.863053;stroke-linecap:round;stroke-linejoin:round;stop-color:#000000;stop-opacity:1.0" d="m 237.75758,212.11502 c 5.54535,-15.45002 11.92948,-23.28 22.69282,-32.85942 l 7.68739,22.52666 z" sodipodi:nodetypes="cccc"/><path id="path9278" style="opacity:1;fill:#1fa49f;fill-opacity:1.0;stroke-width:0.863053;stroke-linecap:round;stroke-linejoin:round;stop-color:#000000;stop-opacity:1.0" d="m 243.75105,215.99315 c 5.54535,-15.45002 11.57692,-17.63909 22.34026,-27.21851 l -0.77398,18.29598 z" sodipodi:nodetypes="cccc"/><path id="path9280" style="opacity:1;fill:#1fa49f;fill-opacity:1.0;stroke-width:0.863053;stroke-linecap:round;stroke-linejoin:round;stop-color:#000000;stop-opacity:1.0" d="m 55.705965,215.30271 c -5.54535,-15.45002 -11.92948,-23.28 -22.69282,-32.85942 l -7.68739,22.52666 z" sodipodi:nodetypes="cccc"/><path id="path9282" style="opacity:1;fill:#1fa49f;fill-opacity:1.0;stroke-width:0.863053;stroke-linecap:round;stroke-linejoin:round;stop-color:#000000;stop-opacity:1.0" d="m 49.712495,219.18084 c -5.54535,-15.45002 -11.57692,-17.63909 -22.34026,-27.21851 l 0.77398,18.29598 z" sodipodi:nodetypes="cccc"/></svg>