<svg id="Layer_1" data-name="Layer 1" xmlns="http://www.w3.org/2000/svg" xmlns:xlink="http://www.w3.org/1999/xlink" viewBox="0 0 300 345"><defs><style>.cls-1{fill:url(#linear-gradient);}.cls-2{fill:#eab371;}.cls-3{fill:#c88b4b;}.cls-4{fill:#e9a058;}</style><linearGradient id="linear-gradient" x1="150" y1="381.25" x2="150" y2="186.29" gradientUnits="userSpaceOnUse"><stop offset="0.1" stop-color="#c88b4b"/><stop offset="0.3" stop-color="#af6d2f"/></linearGradient></defs><title>blook-toast</title><path class="cls-1" d="M243.66,345H56.34A36.38,36.38,0,0,1,20,308.62V259.14H280v49.48A36.38,36.38,0,0,1,243.66,345Z"/><path class="cls-2" d="M56.43,318.68A29.5,29.5,0,0,1,27,289.21V154.05a46,46,0,0,0-7.35-25A79.79,79.79,0,0,1,28.8,31.14,78.33,78.33,0,0,1,85.93,7c1.68,0,3.38,0,5.06.15a78.7,78.7,0,0,1,43.14,16,26.1,26.1,0,0,0,31.74,0A78.7,78.7,0,0,1,209,7.15c1.68-.1,3.38-.15,5.06-.15a78.45,78.45,0,0,1,78.86,82.59A78.9,78.9,0,0,1,280.39,129a46,46,0,0,0-7.35,25V289.21a29.5,29.5,0,0,1-29.47,29.47Z"/><path class="cls-3" d="M214.07,14a72.17,72.17,0,0,1,60.44,111.23A53,53,0,0,0,266,154.05V289.21a22.5,22.5,0,0,1-22.47,22.47H56.43A22.5,22.5,0,0,1,34,289.21V154.05a53,53,0,0,0-8.47-28.82A72.83,72.83,0,0,1,33.85,36,71.38,71.38,0,0,1,85.93,14c1.54,0,3.1.05,4.64.14a71.68,71.68,0,0,1,39.31,14.62,33.13,33.13,0,0,0,40.24,0,71.68,71.68,0,0,1,39.31-14.62c1.54-.09,3.1-.14,4.64-.14m0-14c-1.82,0-3.64.05-5.48.17a85.65,85.65,0,0,0-47,17.46,19.13,19.13,0,0,1-23.26,0A85.65,85.65,0,0,0,91.41.17C89.58.05,87.74,0,85.93,0,36.82,0-2,40,.08,89.88a85.61,85.61,0,0,0,13.65,43A39.13,39.13,0,0,1,20,154.05V289.21a36.47,36.47,0,0,0,36.47,36.47H243.57A36.47,36.47,0,0,0,280,289.21V154.05a39.13,39.13,0,0,1,6.23-21.22,85.61,85.61,0,0,0,13.65-43C302,40,263.18,0,214.07,0Z"/><path class="cls-4" d="M247.12,241.62l-14.66,14.65a5.7,5.7,0,0,1-8.07,0l-.66-.65a5.47,5.47,0,0,1-.45-.51l-1.48-1.88a5.7,5.7,0,0,1,.45-7.57l10.93-10.93a5.71,5.71,0,0,0,1.67-4v-9.35a5.71,5.71,0,0,0-5.71-5.71h-7.55a5.71,5.71,0,0,1-5.71-5.71V199.25a5.71,5.71,0,0,1,1.67-4L240.72,172a5.73,5.73,0,0,0,1.68-4V156.16a5.71,5.71,0,0,0-5.71-5.71h-8.26a5.71,5.71,0,0,1-5.71-5.71v-1.06a5.71,5.71,0,0,1,1.67-4L248,116.06a5.7,5.7,0,0,0,1.67-4v-9.31A5.71,5.71,0,0,0,243.93,97h-10a5.7,5.7,0,0,0-4,1.67l-8.15,8.15a5.72,5.72,0,0,1-8.08,0l-4.95-5a5.7,5.7,0,0,1,0-8.07l25.4-25.4a5.72,5.72,0,0,0,1.67-4v-13A5.71,5.71,0,0,0,230,45.64H214.43a5.67,5.67,0,0,0-4,1.68L166.64,91.07a5.7,5.7,0,0,1-8.07,0l-1.84-1.85a5.7,5.7,0,0,1,0-8.07l7.92-7.93a5.7,5.7,0,0,0,1.67-4v-15a5.71,5.71,0,0,0-5.71-5.71h-17.3a5.72,5.72,0,0,0-4,1.67L116.11,73.34a5.72,5.72,0,0,1-8.08,0h0a5.72,5.72,0,0,1,0-8.08l5.6-5.6a5.71,5.71,0,0,0,1.67-4V48a5.7,5.7,0,0,0-5.71-5.71H97.77a5.71,5.71,0,0,0-4,1.67L73.27,64.41h0l-30,30a5.72,5.72,0,0,0-1.68,4v.9a5.71,5.71,0,0,0,5.71,5.71h1.53a5.71,5.71,0,0,0,4-1.67L67.54,88.73a5.7,5.7,0,0,1,8.07,0l.66.65a5.47,5.47,0,0,1,.45.51l1.48,1.88a5.7,5.7,0,0,1-.45,7.57L66.82,110.27a5.71,5.71,0,0,0-1.67,4v9.35a5.71,5.71,0,0,0,5.71,5.71h7.55a5.71,5.71,0,0,1,5.71,5.71v10.67a5.71,5.71,0,0,1-1.67,4L59.28,173a5.73,5.73,0,0,0-1.68,4v11.84a5.71,5.71,0,0,0,5.71,5.71h8.26a5.71,5.71,0,0,1,5.71,5.71v1.06a5.71,5.71,0,0,1-1.67,4L52,228.94a5.7,5.7,0,0,0-1.67,4v9.31A5.71,5.71,0,0,0,56.07,248h10a5.7,5.7,0,0,0,4-1.67l8.15-8.15a5.72,5.72,0,0,1,8.08,0l4.95,5a5.7,5.7,0,0,1,0,8.07l-25.4,25.4a5.72,5.72,0,0,0-1.67,4v13A5.71,5.71,0,0,0,70,299.36H85.57a5.67,5.67,0,0,0,4-1.68l43.76-43.75a5.7,5.7,0,0,1,8.07,0l1.84,1.85a5.7,5.7,0,0,1,0,8.07l-7.92,7.93a5.7,5.7,0,0,0-1.67,4v15a5.71,5.71,0,0,0,5.71,5.71h17.3a5.72,5.72,0,0,0,4-1.67l23.16-23.17a5.72,5.72,0,0,1,8.08,0h0a5.72,5.72,0,0,1,0,8.08l-5.6,5.6a5.71,5.71,0,0,0-1.67,4V297a5.7,5.7,0,0,0,5.71,5.71h11.82a5.71,5.71,0,0,0,4-1.67l20.46-20.46h0l30-30a5.72,5.72,0,0,0,1.68-4v-.9a5.71,5.71,0,0,0-5.71-5.71h-1.53A5.71,5.71,0,0,0,247.12,241.62Z"/></svg>