<svg id="Layer_1" data-name="Layer 1" xmlns="http://www.w3.org/2000/svg" xmlns:xlink="http://www.w3.org/1999/xlink" viewBox="0 0 300 345"><defs><style>.cls-1{fill:url(#linear-gradient);}.cls-2{fill:#ae402f;}.cls-3,.cls-4,.cls-5{fill:#742b1f;}.cls-3{fill-opacity:0.5;}.cls-5{fill-opacity:0.3;}.cls-6{fill:#90a6b3;}.cls-7{fill:#f1613a;}.cls-8{fill:#babed1;}.cls-9{fill:none;stroke:#ae402f;stroke-miterlimit:10;stroke-width:9px;}.cls-10{fill:#fff;}.cls-11{fill:#15141a;}</style><linearGradient id="linear-gradient" x1="150" y1="356.11" x2="150" y2="161.16" gradientUnits="userSpaceOnUse"><stop offset="0.07" stop-color="#ae402f"/><stop offset="0.22" stop-color="#9c3a2a"/><stop offset="0.49" stop-color="#742b1f"/></linearGradient></defs><g id="dinosaur"><path class="cls-1" d="M263.62,345H36.38A36.38,36.38,0,0,1,0,308.62V259.14H300v49.48A36.38,36.38,0,0,1,263.62,345Z"/><rect class="cls-2" y="45" width="300" height="253.39" rx="36.38"/><path class="cls-3" d="M198.65,298.39C182,315.13,157.93,316.3,151.59,316.3c-1,0-1.59,0-1.59,0s-.56,0-1.59,0c-6.35,0-30.4-1.17-47.06-17.91H85.78A65,65,0,0,0,107.55,318c16.69,9.34,34.14,10.35,40.86,10.35l1.59,0,1.59,0c6.72,0,24.17-1,40.86-10.34a65.15,65.15,0,0,0,21.77-19.57Z"/><path class="cls-2" d="M222.65,270.09c-15.09,4.23-36.83,40.75-22.94,49.36,6.72,4.16,12.83-10.12,12.83-10.12s-5.43,12.68,1.51,16,11.17-12.49,11.17-12.49-4.53,16.12,3.77,16,17.06-30,28.23-36.68,30.49-24.15,32.45-36.68"/><path class="cls-4" d="M222.65,270.09a19.48,19.48,0,0,0-4.38,2.3,36.84,36.84,0,0,0-3.81,3.13,54.29,54.29,0,0,0-6.46,7.42,67.69,67.69,0,0,0-5.22,8.31,55.29,55.29,0,0,0-3.91,8.9,31.56,31.56,0,0,0-1.79,9.24c-.09,3,.71,5.95,2.66,7.6a7.41,7.41,0,0,0,1.52,1,2.31,2.31,0,0,0,1.34.12,6.2,6.2,0,0,0,3-1.94,27.64,27.64,0,0,0,4.83-7.71l4.18,1.79a24.6,24.6,0,0,0-1.73,8,8,8,0,0,0,.59,3.35,3.42,3.42,0,0,0,.79,1.06,3,3,0,0,0,.53.38l.3.16.27.11a1.59,1.59,0,0,0,.91.05,2.81,2.81,0,0,0,1.06-.56,10.31,10.31,0,0,0,2.28-2.82,34.05,34.05,0,0,0,3.18-7.74l4.82,1.32a35.28,35.28,0,0,0-1.13,6.61,17.23,17.23,0,0,0,.06,3.15,5.57,5.57,0,0,0,.73,2.35,1.6,1.6,0,0,0,1.25.74,2.53,2.53,0,0,0,.48,0,.79.79,0,0,0,.34-.07l.2-.06a1.79,1.79,0,0,0,.24-.12,2.63,2.63,0,0,0,.5-.31,11.39,11.39,0,0,0,2.15-2.06c.69-.84,1.37-1.74,2-2.7,2.61-3.82,4.92-8.07,7.34-12.27a92.74,92.74,0,0,1,8.12-12.38,25.26,25.26,0,0,1,5.67-5.36c.61-.4,1.1-.68,1.6-1s1-.59,1.5-.92c1-.65,2-1.26,3-2a109.47,109.47,0,0,0,11.2-8.89A89.83,89.83,0,0,0,282.82,268c.73-.94,1.45-1.9,2.16-2.86s1.36-2,1.92-3l.88-1.57c.29-.52.49-1.08.74-1.63a21.15,21.15,0,0,0,1.15-3.42c-.66,4.82-3,9.31-5.74,13.33a86.25,86.25,0,0,1-9.36,11.27,109.62,109.62,0,0,1-11,9.77c-1,.77-2,1.48-3,2.2-.51.36-1,.69-1.56,1s-1.06.69-1.45,1A21.84,21.84,0,0,0,253,298.8a61.13,61.13,0,0,0-3.84,5.87c-1.21,2-2.38,4.13-3.52,6.24-2.32,4.22-4.51,8.54-7.25,12.78a31.8,31.8,0,0,1-2.28,3.13,15.67,15.67,0,0,1-3.06,2.94,6.84,6.84,0,0,1-1,.64c-.19.1-.36.2-.57.29l-.65.23a6.36,6.36,0,0,1-1.43.28,7.33,7.33,0,0,1-1.33,0,6.72,6.72,0,0,1-2.69-.86,6.43,6.43,0,0,1-2.09-1.95,10.26,10.26,0,0,1-1.57-4.46,21,21,0,0,1-.12-4.09,40,40,0,0,1,1.24-7.67h0a2.5,2.5,0,1,1,4.84,1.25l0,.08a38.15,38.15,0,0,1-3.78,9,15,15,0,0,1-3.5,4.14,7.76,7.76,0,0,1-3,1.45,6.6,6.6,0,0,1-3.56-.21l-.78-.32-.7-.38a7.45,7.45,0,0,1-1.29-1,8.25,8.25,0,0,1-1.9-2.57,12.22,12.22,0,0,1-1-5.52,24.1,24.1,0,0,1,.75-5,32.51,32.51,0,0,1,1.56-4.68l0,0a2.27,2.27,0,1,1,4.19,1.76l0,.07a37.58,37.58,0,0,1-2.57,4.68,25,25,0,0,1-3.39,4.28,13.56,13.56,0,0,1-2.32,1.85,8.2,8.2,0,0,1-3.12,1.17,6.56,6.56,0,0,1-3.54-.5,10.63,10.63,0,0,1-2.61-1.79,10.9,10.9,0,0,1-3-5.12,16.24,16.24,0,0,1-.53-5.54A32.76,32.76,0,0,1,196,299.1a63.32,63.32,0,0,1,10.6-17.28,50.19,50.19,0,0,1,7.23-7.05A23.76,23.76,0,0,1,222.65,270.09Z"/><path class="cls-2" d="M77.35,270.09c15.09,4.23,36.83,40.75,22.94,49.36-6.72,4.16-12.83-10.12-12.83-10.12s5.43,12.68-1.51,16-11.17-12.49-11.17-12.49,4.53,16.12-3.77,16-17.06-30-28.23-36.68S12.29,268,10.33,255.45"/><path class="cls-4" d="M77.35,270.09a23.76,23.76,0,0,1,8.83,4.68,50.19,50.19,0,0,1,7.23,7.05A63.32,63.32,0,0,1,104,299.1a32.76,32.76,0,0,1,2.47,10.16,16.24,16.24,0,0,1-.53,5.54,10.9,10.9,0,0,1-3,5.12,10.63,10.63,0,0,1-2.61,1.79,6.56,6.56,0,0,1-3.54.5A8.2,8.2,0,0,1,93.65,321a13.56,13.56,0,0,1-2.32-1.85,25,25,0,0,1-3.39-4.28,37.58,37.58,0,0,1-2.57-4.68,2.27,2.27,0,1,1,4.13-1.9l0,.06,0,.05a32.51,32.51,0,0,1,1.56,4.68,24.1,24.1,0,0,1,.75,5,12.22,12.22,0,0,1-1,5.52,8.25,8.25,0,0,1-1.9,2.57,7.45,7.45,0,0,1-1.29,1l-.7.38-.78.32a6.6,6.6,0,0,1-3.56.21,7.76,7.76,0,0,1-3-1.45,15,15,0,0,1-3.5-4.14,38.15,38.15,0,0,1-3.78-9,2.5,2.5,0,0,1,4.79-1.42l0,.08v0a40,40,0,0,1,1.24,7.67,21,21,0,0,1-.12,4.09,10.26,10.26,0,0,1-1.57,4.46,6.43,6.43,0,0,1-2.09,1.95,6.72,6.72,0,0,1-2.69.86,7.33,7.33,0,0,1-1.33,0,6.36,6.36,0,0,1-1.43-.28l-.65-.23c-.21-.09-.38-.19-.57-.29a6.84,6.84,0,0,1-1-.64,15.67,15.67,0,0,1-3.06-2.94,31.8,31.8,0,0,1-2.28-3.13c-2.74-4.24-4.93-8.56-7.25-12.78-1.14-2.11-2.31-4.2-3.52-6.24A61.13,61.13,0,0,0,47,298.8,21.84,21.84,0,0,0,42.38,294c-.39-.29-.93-.64-1.45-1s-1-.67-1.56-1c-1-.72-2-1.43-3-2.2a109.62,109.62,0,0,1-11-9.77,86.25,86.25,0,0,1-9.36-11.27c-2.72-4-5.08-8.51-5.74-13.33a21.15,21.15,0,0,0,1.15,3.42c.25.55.45,1.11.74,1.63l.88,1.57c.56,1.06,1.29,2,1.92,3S16.45,267,17.18,268a89.83,89.83,0,0,0,10,10.32,109.47,109.47,0,0,0,11.2,8.89c1,.7,2,1.31,3,2,.49.33,1,.61,1.5.92s1,.58,1.6,1a25.26,25.26,0,0,1,5.67,5.36,92.74,92.74,0,0,1,8.12,12.38c2.42,4.2,4.73,8.45,7.34,12.27.66,1,1.34,1.86,2,2.7a11.39,11.39,0,0,0,2.15,2.06,2.63,2.63,0,0,0,.5.31,1.79,1.79,0,0,0,.24.12l.2.06a.79.79,0,0,0,.34.07,2.53,2.53,0,0,0,.48,0,1.6,1.6,0,0,0,1.25-.74,5.57,5.57,0,0,0,.73-2.35,17.23,17.23,0,0,0,.06-3.15,35.28,35.28,0,0,0-1.13-6.61l4.82-1.32a34.05,34.05,0,0,0,3.18,7.74,10.31,10.31,0,0,0,2.28,2.82,2.81,2.81,0,0,0,1.06.56,1.59,1.59,0,0,0,.91-.05l.27-.11.3-.16a3,3,0,0,0,.53-.38,3.42,3.42,0,0,0,.79-1.06,8,8,0,0,0,.59-3.35,24.6,24.6,0,0,0-1.73-8l4.18-1.79a27.64,27.64,0,0,0,4.83,7.71,6.2,6.2,0,0,0,3,1.94,2.31,2.31,0,0,0,1.34-.12,7.41,7.41,0,0,0,1.52-1c1.95-1.65,2.75-4.56,2.66-7.6a31.56,31.56,0,0,0-1.79-9.24,55.29,55.29,0,0,0-3.91-8.9A67.69,67.69,0,0,0,92,282.94a54.29,54.29,0,0,0-6.46-7.42,36.84,36.84,0,0,0-3.81-3.13A19.48,19.48,0,0,0,77.35,270.09Z"/><path class="cls-5" d="M300,157.35l-3.24,2.14a38.47,38.47,0,0,1-.56,7.87c-2.78,15.15-26,21.95-26,21.95s2.78,12.37-3.1,28.48c-2.44,6.69-12.32,13.62-23.06,19.44,1.73,8.21,2.28,16.91-1.58,21.12-4.9,5.35-8.08,7.49-10.83,7.49-2,0-3.74-1.12-5.77-2.95-3-2.72-5.41-8.08-9.4-13.09-2.73,1.06-4.39,1.66-4.39,1.66-.5,21.09-7.44,35-16.62,44.26,0,0,14.23-7.93,21.5-15.47a15.44,15.44,0,0,0,4-6,18.5,18.5,0,0,0,10.7,3.55c8.12,0,14.26-5.47,19.68-11.38,4.81-5.25,6.74-12.8,5.83-22.94,11.73-7.27,18.55-14.24,21.24-21.62a72.7,72.7,0,0,0,4.48-24.69A90.15,90.15,0,0,0,300,186.05Z"/><path class="cls-5" d="M87.89,250.5s-1.66-.6-4.39-1.66c-4,5-6.41,10.37-9.4,13.09-2,1.83-3.79,2.95-5.77,2.95-2.75,0-5.93-2.14-10.83-7.49-3.86-4.21-3.31-12.91-1.58-21.12-10.74-5.82-20.62-12.75-23.06-19.44-5.88-16.11-3.1-28.47-3.1-28.47s-23.18-6.81-26-22a38.62,38.62,0,0,1-.56-7.88l-3.17,5.4v20.74a93,93,0,0,0,17,11.58,72.7,72.7,0,0,0,4.48,24.69c2.69,7.38,9.51,14.35,21.24,21.62-.91,10.14,1,17.69,5.83,22.94,5.42,5.91,11.56,11.38,19.68,11.38A18.5,18.5,0,0,0,79,273.33c2.35,8.54,25.48,21.43,25.48,21.43C95.33,285.54,88.39,271.59,87.89,250.5Z"/><path class="cls-6" d="M177,33.5s5-27.41,10.12-27.71,19.12,25.36,19.12,25.36"/><path class="cls-6" d="M218.79,30.54s13.89-16,17.51-15.7,8.07,24,8.07,24"/><path class="cls-6" d="M123,33.5S118,6.09,112.86,5.79,93.74,31.15,93.74,31.15"/><path class="cls-6" d="M81.21,30.54s-13.89-16-17.51-15.7-8.07,24-8.07,24"/><path class="cls-7" d="M295,121.5c1.23-14.53,7.11-33.08-2.17-50.39s-19.55-42-64.49-47.92-54.91,7-78.37,7-33.42-12.91-78.37-7S16.41,53.8,7.14,71.11,3.74,107,5,121.5-2.14,154.89.64,170s26,22,26,22-2.77,12.37,3.1,28.48,55,33.66,55,33.66C86.28,319.67,150,316.27,150,316.27s63.72,3.4,65.27-62.14c0,0,49.15-17.55,55-33.66S273.4,192,273.4,192s23.17-6.8,26-22S293.79,136,295,121.5Z"/><ellipse class="cls-2" cx="195.49" cy="172.01" rx="13.11" ry="10.11" transform="translate(-59.82 120.79) rotate(-30)"/><path class="cls-3" d="M179,252.51c0,12.83-13,23.23-29,23.23s-29-10.4-29-23.23,24.47-50.86,29-50.86S179,239.68,179,252.51Z"/><path class="cls-8" d="M177,241.81a27,27,0,0,1-54,0c0-14.92,22.83-59.14,27-59.14S177,226.89,177,241.81Z"/><path class="cls-6" d="M150,182.67c-4.19,0-27,44.22-27,59.14a27,27,0,0,0,54,0C177,226.89,154.19,182.67,150,182.67Zm-.9,70.76a19.63,19.63,0,0,1-19.63-19.63c0-10.84,16.59-43,19.63-43s19.63,32.12,19.63,43A19.63,19.63,0,0,1,149.1,253.43Z"/><path class="cls-4" d="M176.57,280.08a6.19,6.19,0,0,1,8.75,8.76c-2.41,2.41-13.06,9.14-15.47,6.72S174.15,282.5,176.57,280.08Z"/><path class="cls-7" d="M241.43,221s12.68,30.77,4.23,40-11.78,8.92-16.61,4.54-8.15-15.66-19-21.19"/><ellipse class="cls-2" cx="104.51" cy="172.01" rx="10.11" ry="13.11" transform="translate(-96.71 176.51) rotate(-60)"/><path class="cls-4" d="M123.43,280.08a6.19,6.19,0,0,0-8.75,8.76c2.41,2.41,13.06,9.14,15.47,6.72S125.85,282.5,123.43,280.08Z"/><path class="cls-7" d="M58.57,221s-12.68,30.77-4.23,40,11.78,8.92,16.61,4.54,8.15-15.66,19-21.19"/><path class="cls-9" d="M62.49,202S48.3,191.75,44.68,185.22s2.11-8.87,2.11-16.24-19.63-18.59-19.63-34.59S40.76,106.32,47.4,87.3s47.09-22.64,55.85-24.76,12.07,6,19.73,9.52,9,7.09,7.69,38.48S150,138.92,150,138.92s20.59,3,19.33-28.38,0-35,7.69-38.48,11-11.63,19.73-9.52S246,68.28,252.6,87.3s20.24,31.09,20.24,47.09S253.21,161.6,253.21,169s5.73,9.71,2.11,16.24S237.51,202,237.51,202"/><path class="cls-10" d="M227.13,180.46c7.22-3.79,16.46,2.59,17.12,11.74,1.06,14.55-5.3,28.23-17.55,34.66s-27.12,3.86-38.48-5.28c-7.16-5.76-7.14-17,.08-20.77Z"/><path class="cls-10" d="M72.87,180.46c-7.22-3.79-16.46,2.59-17.12,11.74-1.06,14.55,5.3,28.23,17.55,34.66s27.12,3.86,38.48-5.28c7.16-5.76,7.14-17-.08-20.77Z"/><path class="cls-11" d="M231.24,202.66a19.47,19.47,0,0,0-12.1-18l-26.38,13.83a19.47,19.47,0,1,0,38.48,4.19Z"/><path class="cls-11" d="M88.23,222.14a19.46,19.46,0,0,0,19-23.67L80.86,184.64a19.48,19.48,0,0,0,7.37,37.5Z"/><path class="cls-3" d="M77.5,103.72c-9.7-7.33-25.43-15.28-31.78-25.38-8.49-13.49-14.29-27-18.49-36.62C19.34,49,14.49,57.26,10.46,64.82,13,115,54.65,178,84.06,149,98.72,134.45,92.79,115.27,77.5,103.72Z"/><path class="cls-3" d="M272.75,41.7c-4.21,9.61-10,23.14-18.5,36.64-6.34,10.1-22.07,18-31.78,25.38-15.29,11.55-21.22,30.73-6.56,45.23,29.42,29.08,71.1-34,73.61-84.17C285.48,57.21,280.63,49,272.75,41.7Z"/><path class="cls-6" d="M216.15,143c-16.85-11.88-14.16-31.78-1-45.69C223.53,88.43,237.74,78,242.34,67,255,36.66,256.41,8,261.66,13.94,297,53.79,259,173.19,216.15,143Z"/><path class="cls-8" d="M227.14,123.81c-12.18-8.59-10.24-23-.71-33,6-6.38,16.31-13.92,19.63-21.87,9.16-21.91,10.17-42.61,14-38.33C285.54,59.38,258.13,145.66,227.14,123.81Z"/><path class="cls-6" d="M83.82,143c16.86-11.88,14.17-31.78,1-45.69C76.44,88.43,62.23,78,57.64,67,45,36.66,43.56,8,38.31,13.94,3,53.79,40.93,173.19,83.82,143Z"/><path class="cls-8" d="M72.83,123.81c12.18-8.59,10.24-23,.72-33-6-6.38-16.31-13.92-19.64-21.87C44.75,47,43.74,26.31,40,30.59,14.43,59.38,41.84,145.66,72.83,123.81Z"/></g></svg>