<svg id="Layer_1" data-name="Layer 1" xmlns="http://www.w3.org/2000/svg" xmlns:xlink="http://www.w3.org/1999/xlink" viewBox="0 0 300 345"><defs><style>.cls-1,.cls-7{fill:#425634;}.cls-2{fill:url(#linear-gradient);}.cls-3{fill:#6c9355;}.cls-4{fill:#f4fbfe;}.cls-5{fill:#15141a;}.cls-6{fill:#192314;}.cls-7{fill-opacity:0.5;}.cls-8{fill:#8c141c;}.cls-9{fill:#5b1322;}.cls-10{fill:#ce2235;}.cls-11{fill:#fcebde;}.cls-12{fill:#384629;}</style><linearGradient id="linear-gradient" x1="150" y1="356.11" x2="150" y2="161.16" gradientUnits="userSpaceOnUse"><stop offset="0" stop-color="#53824b"/><stop offset="0.69" stop-color="#425634"/></linearGradient></defs><g id="dinosaur"><path class="cls-1" d="M147.63,57.15s19.79-12.45,29.05-26.82S181.63.48,191.37,0s17.4,45.5,13.89,63.7"/><path class="cls-2" d="M263.62,345H36.38A36.38,36.38,0,0,1,0,308.62V259.14H300v49.48A36.38,36.38,0,0,1,263.62,345Z"/><rect class="cls-3" y="45" width="300" height="253.39" rx="36.38"/><path class="cls-1" d="M236.11,137.08a59,59,0,0,0,9.81,3.13,42.87,42.87,0,0,0,19.6-.11c1.67-.27,3.23-.91,4.9-1.33a24.57,24.57,0,0,0,2.45-.86c.83-.29,1.66-.58,2.54-.83-.63.63-1.3,1.21-2,1.8-.34.3-.69.57-1,.86a9.14,9.14,0,0,1-1.09.79,27.51,27.51,0,0,1-4.79,2.56,27.24,27.24,0,0,1-10.75,2.2A27.68,27.68,0,0,1,245,143.2,23.56,23.56,0,0,1,236.11,137.08Z"/><path class="cls-1" d="M24.59,137.08a59,59,0,0,0,9.81,3.13A42.88,42.88,0,0,0,54,140.1c1.67-.27,3.23-.91,4.9-1.33a24.57,24.57,0,0,0,2.45-.86c.83-.29,1.66-.58,2.54-.83-.64.63-1.31,1.21-2,1.8-.34.3-.69.57-1,.86a8.5,8.5,0,0,1-1.1.79,28.42,28.42,0,0,1-15.54,4.76,27.66,27.66,0,0,1-10.77-2.09A23.56,23.56,0,0,1,24.59,137.08Z"/><circle class="cls-4" cx="253.32" cy="107.41" r="24.57"/><circle class="cls-5" cx="253.46" cy="107.41" r="8"/><path class="cls-3" d="M197.55,95.52s7.73-19.39,12.23-24.22c6.11-6.57,46.64-30.12,55.7-27.85,4.75,1.19,9,17.66,7.47,20.38s-17.85,6.34-21.26,13.58-25.38,59.09-25.38,59.09"/><path class="cls-1" d="M197.55,95.52A83.35,83.35,0,0,1,201,83.16c.74-2,1.54-4,2.45-6a40.46,40.46,0,0,1,3.18-5.85,14.63,14.63,0,0,1,2.41-2.81c.87-.8,1.73-1.48,2.6-2.16,1.74-1.35,3.5-2.59,5.28-3.8,3.55-2.43,7.19-4.67,10.88-6.83s7.43-4.23,11.25-6.17,7.7-3.78,11.71-5.44c2-.81,4-1.59,6.19-2.26a25,25,0,0,1,7-1.29,9.07,9.07,0,0,1,2.33.29,6.34,6.34,0,0,1,2.37,1.38,13,13,0,0,1,2.47,3.14,32.58,32.58,0,0,1,2.74,6.34,42.45,42.45,0,0,1,1.61,6.56,23.31,23.31,0,0,1,.33,3.58,8,8,0,0,1-.29,2.32l-.06.18-.09.24c-.07.16-.14.31-.22.46a5.93,5.93,0,0,1-.59.8,6,6,0,0,1-.54.5l-.48.37a21.8,21.8,0,0,1-3.2,1.72c-1,.46-2,.88-3,1.29-1.94.84-3.84,1.66-5.64,2.56a31.36,31.36,0,0,0-5,3,12.89,12.89,0,0,0-1.93,1.79,9.47,9.47,0,0,0-.69,1l-.26.5-.32.7c-1.7,3.79-3.32,7.73-4.92,11.63s-3.2,7.82-4.88,11.7-3.44,7.72-5.3,11.52a221.84,221.84,0,0,1-12.18,22.39A216.52,216.52,0,0,1,234,112.19c1.45-4,3-7.9,4.66-11.8s3.39-7.76,5.14-11.62L249,77.16l.35-.73c.12-.27.31-.61.47-.91A12.23,12.23,0,0,1,251,73.89a17.28,17.28,0,0,1,2.68-2.55,36.08,36.08,0,0,1,5.82-3.56c2-1,4-1.87,5.89-2.72,1-.42,1.93-.84,2.84-1.26a16.87,16.87,0,0,0,2.38-1.28l.15-.11c.05,0,0,0,.05,0a1.23,1.23,0,0,0-.19.31,3.75,3.75,0,0,0,.05-.82,17.09,17.09,0,0,0-.28-2.72,39.4,39.4,0,0,0-1.49-5.74,27.7,27.7,0,0,0-2.35-5.26,7.88,7.88,0,0,0-1.42-1.82,1.09,1.09,0,0,0-.34-.23A4.68,4.68,0,0,0,264,46a20.43,20.43,0,0,0-5.37,1.13c-1.9.6-3.82,1.33-5.72,2.1a219.82,219.82,0,0,0-22.32,11.24c-3.63,2.07-7.23,4.22-10.74,6.44-1.75,1.12-3.48,2.27-5.12,3.46-.81.6-1.64,1.21-2.33,1.82a11,11,0,0,0-1.8,1.93c-1.13,1.51-2.22,3.28-3.28,5s-2.11,3.58-3.16,5.4C202,88.24,199.92,91.92,197.55,95.52Z"/><circle class="cls-4" cx="46.68" cy="107.41" r="24.57"/><circle class="cls-5" cx="46.54" cy="107.41" r="8"/><path class="cls-3" d="M102.45,95.52S94.72,76.13,90.22,71.3c-6.11-6.57-46.64-30.12-55.7-27.85-4.75,1.19-9.05,17.66-7.47,20.38S44.9,70.17,48.31,77.41,73.69,136.5,73.69,136.5"/><path class="cls-1" d="M102.45,95.52c-2.37-3.6-4.47-7.28-6.61-10.91-1-1.82-2.1-3.63-3.16-5.4s-2.15-3.54-3.28-5a11,11,0,0,0-1.8-1.93c-.69-.61-1.52-1.22-2.33-1.82-1.64-1.19-3.37-2.34-5.12-3.46-3.51-2.22-7.11-4.37-10.74-6.44A219.82,219.82,0,0,0,47.09,49.27c-1.9-.77-3.82-1.5-5.72-2.1A20.43,20.43,0,0,0,36,46a4.68,4.68,0,0,0-.81.05,1.09,1.09,0,0,0-.34.23,7.88,7.88,0,0,0-1.42,1.82,27.7,27.7,0,0,0-2.35,5.26,39.4,39.4,0,0,0-1.49,5.74,17.09,17.09,0,0,0-.28,2.72,3.75,3.75,0,0,0,.05.82,1.23,1.23,0,0,0-.19-.31s0,0,0,0l.15.11a16.87,16.87,0,0,0,2.38,1.28c.91.42,1.87.84,2.84,1.26,1.94.85,3.93,1.72,5.89,2.72a36.08,36.08,0,0,1,5.82,3.56A17.28,17.28,0,0,1,49,73.89a12.23,12.23,0,0,1,1.16,1.63c.16.3.35.64.47.91l.35.73,5.26,11.61c1.75,3.86,3.49,7.72,5.14,11.62s3.21,7.83,4.66,11.8a216.52,216.52,0,0,1,7.67,24.31,221.84,221.84,0,0,1-12.18-22.39c-1.86-3.8-3.6-7.65-5.3-11.52s-3.28-7.79-4.88-11.7-3.22-7.84-4.92-11.63l-.32-.7-.26-.5a9.47,9.47,0,0,0-.69-1,12.89,12.89,0,0,0-1.93-1.79,31.36,31.36,0,0,0-5-3c-1.81-.9-3.7-1.72-5.64-2.56-1-.41-2-.83-3-1.29a21.8,21.8,0,0,1-3.2-1.72l-.48-.37a6,6,0,0,1-.54-.5,5.93,5.93,0,0,1-.59-.8c-.08-.15-.15-.3-.22-.46l-.09-.24-.06-.18a8,8,0,0,1-.29-2.32,23.31,23.31,0,0,1,.33-3.58,42.45,42.45,0,0,1,1.61-6.56,32.58,32.58,0,0,1,2.74-6.34,13,13,0,0,1,2.47-3.14,6.34,6.34,0,0,1,2.37-1.38A9.07,9.07,0,0,1,36,40.58a25,25,0,0,1,7,1.29c2.14.67,4.18,1.45,6.19,2.26,4,1.66,7.9,3.49,11.71,5.44s7.57,4,11.25,6.17,7.33,4.4,10.88,6.83c1.78,1.21,3.54,2.45,5.28,3.8.87.68,1.73,1.36,2.6,2.16a14.63,14.63,0,0,1,2.41,2.81,40.46,40.46,0,0,1,3.18,5.85c.91,2,1.71,4,2.45,6A83.35,83.35,0,0,1,102.45,95.52Z"/><path class="cls-1" d="M256.46,162.09c-4.9-4.41-9.84-7.48-15.36-7.63a70,70,0,0,0-9.16.69c-3.14.37-6.31.8-9.57,1.07-1.63.13-3.28.22-5,.2a23.08,23.08,0,0,1-5.3-.59,11,11,0,0,1-2.83-1.07,8.12,8.12,0,0,1-2.63-2.23,10.14,10.14,0,0,1-1.3-3c-.25-.87-.42-1.68-.6-2.49-1.28-6.37-2.3-12.48-4-18.48a83,83,0,0,0-6.59-17.16,50.69,50.69,0,0,0-10.9-14.22,44.3,44.3,0,0,0-15.42-8.67,63.56,63.56,0,0,0-35.68,0,44.22,44.22,0,0,0-15.37,8.7A50.51,50.51,0,0,0,106,111.44a83.45,83.45,0,0,0-6.53,17.14c-.82,3-1.5,6-2.12,9.1l-1.82,9.38c-.18.82-.35,1.62-.6,2.5a12.9,12.9,0,0,1-.45,1.38,8.16,8.16,0,0,1-.89,1.73,8.38,8.38,0,0,1-2.7,2.31A11.12,11.12,0,0,1,88,156.07a23.89,23.89,0,0,1-5.36.61c-1.72,0-3.38-.07-5-.2-3.27-.26-6.45-.68-9.58-1a69.69,69.69,0,0,0-9.12-.68,17.33,17.33,0,0,0-7.7,2.25,55.17,55.17,0,0,0-7.67,5.09,14,14,0,0,1,5.08-8.87,15.27,15.27,0,0,1,4.72-2.67,16.63,16.63,0,0,1,2.67-.69,16.89,16.89,0,0,1,2.74-.3,74.6,74.6,0,0,1,9.87.59c3.18.33,6.32.71,9.38.92,1.53.1,3,.15,4.51.12a18.34,18.34,0,0,0,4.09-.49,4.3,4.3,0,0,0,2.45-1.35,13.12,13.12,0,0,0,.42-1.3c.18-.65.33-1.4.48-2.13,1.14-6.09,2.13-12.56,3.78-18.84a84.81,84.81,0,0,1,6.87-18.46,56.19,56.19,0,0,1,12.13-16,50,50,0,0,1,17.54-10,67.53,67.53,0,0,1,39.45,0,50.11,50.11,0,0,1,17.48,10,56.37,56.37,0,0,1,12.06,15.94,85,85,0,0,1,6.81,18.44c1.64,6.27,2.62,12.73,3.75,18.83.15.74.3,1.5.48,2.16a10.33,10.33,0,0,0,.45,1.37,4.6,4.6,0,0,0,2.59,1.45,18.32,18.32,0,0,0,4.14.51c1.48,0,3,0,4.54-.12,3.07-.2,6.21-.57,9.39-.9a74.46,74.46,0,0,1,9.83-.57,16.29,16.29,0,0,1,2.7.3,15.82,15.82,0,0,1,2.62.7,16.23,16.23,0,0,1,4.6,2.68A15.4,15.4,0,0,1,256.46,162.09Z"/><path class="cls-6" d="M127.86,134.66a11.1,11.1,0,0,1,4.16,1.39,14.3,14.3,0,0,1,3.15,2.39,14,14,0,0,1,2.39,3.14,10.92,10.92,0,0,1,1.38,4.16,10.92,10.92,0,0,1-4.16-1.38,14,14,0,0,1-3.14-2.39,14.3,14.3,0,0,1-2.39-3.15A11.1,11.1,0,0,1,127.86,134.66Z"/><path class="cls-6" d="M172.14,134.66a11.1,11.1,0,0,1-1.39,4.16,14.3,14.3,0,0,1-2.39,3.15,14,14,0,0,1-3.14,2.39,10.92,10.92,0,0,1-4.16,1.38,10.92,10.92,0,0,1,1.38-4.16,14,14,0,0,1,2.39-3.14,14.3,14.3,0,0,1,3.15-2.39A11.1,11.1,0,0,1,172.14,134.66Z"/><path class="cls-7" d="M262.16,204.94,150,317.1,37.8,204.9c-8.66,19,7.25,39,7.25,39s2,2.22,3,3.35c6.79,7.71,13.24,15.83,19.34,24.23a233.94,233.94,0,0,1,16.73,26.31c4.93,9.38,10,19,15.93,28A127.29,127.29,0,0,0,115,345h69.89a127.33,127.33,0,0,0,15-19.24c5.88-9,11-18.65,15.89-28a235.8,235.8,0,0,1,16.72-26.35c6.1-8.4,12.55-16.53,19.34-24.25,1-1.11,3-3.29,3-3.29S270.73,223.86,262.16,204.94Z"/><path class="cls-3" d="M271,196.38a54.14,54.14,0,0,0-2.24-13.23H31.2a49.58,49.58,0,0,0-2.42,13.23,78,78,0,0,0,.48,13.4,80.53,80.53,0,0,0,2.5,13.4,42.66,42.66,0,0,0,2.47,6.6,22,22,0,0,0,4.31,6.14c.47.46,1,.87,1.54,1.3l1.29,1c.85.63,1.69,1.28,2.52,2,1.67,1.33,3.29,2.76,4.92,4.18,3.21,2.89,6.35,5.9,9.41,9,6.11,6.17,11.92,12.67,17.42,19.4A187.44,187.44,0,0,1,90.7,293.81a266.28,266.28,0,0,0,14.35,22.45c5.3,7.22,11.28,14.17,18.7,19.75A50.24,50.24,0,0,0,136,342.87a39.75,39.75,0,0,0,14,2.62,42.74,42.74,0,0,0,7.14-.69,40.53,40.53,0,0,0,6.87-1.95A50.11,50.11,0,0,0,176.23,336c7.41-5.59,13.38-12.54,18.68-19.76a265.92,265.92,0,0,0,14.31-22.46,186.87,186.87,0,0,1,15.06-21.11c5.49-6.73,11.3-13.24,17.42-19.42q4.58-4.65,9.41-9c1.62-1.42,3.24-2.86,4.91-4.19.83-.69,1.67-1.34,2.52-2l1.3-1c.51-.42,1.05-.83,1.52-1.29a21.8,21.8,0,0,0,4.28-6.1,42.65,42.65,0,0,0,2.46-6.58,80.85,80.85,0,0,0,2.48-13.36A77.93,77.93,0,0,0,271,196.38Z"/><path class="cls-8" d="M50,180.85a4,4,0,0,0-1.92.47c-3,1.63-4.76,8-2.08,16.45.95,3,1.76,5.9,2.55,8.69,3.61,12.85,6.21,22.14,17.21,27.77,15.14,7.74,34.52,38.68,47.78,61.28l.92,1.55c11.46,19.55,14.18,24.2,35.55,24.2s24.09-4.65,35.55-24.2l.92-1.55c13.26-22.6,32.64-53.54,47.78-61.28,11-5.63,13.6-14.92,17.21-27.77.79-2.79,1.6-5.68,2.55-8.69,2.68-8.5.92-14.82-2.08-16.45s-7.56.94-12.36,6.78l-1.42,1.73c-7.26,8.86-12.5,15.26-19.57,14.7-6.62-.53-13.09-7.23-22.31-23.11-8.34-14.37-26.07-23.29-46.27-23.29s-37.93,8.92-46.27,23.29C94.51,197.3,88,204,81.42,204.53c-7.06.55-12.31-5.84-19.57-14.7l-1.42-1.73C56.57,183.41,52.83,180.85,50,180.85Z"/><path class="cls-9" d="M150,210a61,61,0,0,0-59.81,49.07c8.45,11.58,16.67,25.06,23.34,36.43l.92,1.55c11.46,19.55,14.18,24.2,35.55,24.2s24.09-4.65,35.55-24.2l.92-1.55c6.67-11.37,14.89-24.85,23.34-36.43A61,61,0,0,0,150,210Z"/><path class="cls-10" d="M188.64,184.31c13.41,13.41,10.76,23.44,7.14,33.55s-26.05,70-45.78,70h0c-19.73,0-42.15-59.92-45.78-70s-3.16-23.25,7.56-34S150,195.07,150,195.07,175.24,170.91,188.64,184.31Z"/><path class="cls-8" d="M152,190c.3,5.4.34,10.79.34,16.19s-.14,10.79-.36,16.18-.42,10.79-.75,16.19-.71,10.79-1.23,16.18c-.52-5.39-.92-10.79-1.23-16.18s-.57-10.79-.75-16.19-.31-10.79-.36-16.18,0-10.79.34-16.19Z"/><path class="cls-11" d="M207.53,197.78c-.09,3.68,0,8.78,1.38,9.06s3.23-2.12,4.53-4A25.36,25.36,0,0,1,207.53,197.78Z"/><path class="cls-11" d="M151.31,158.17c2.32,6.44,7.22,18.94,10.35,19.39s10.34-9.15,13.85-14.14A61.91,61.91,0,0,0,151.31,158.17Z"/><path class="cls-11" d="M158.79,293.94c-3.58,0-7.2,20.08-8.38,27.31,11.19,0,17.2-1.38,22.1-5.58C169.74,309.55,162.32,293.94,158.79,293.94Z"/><path class="cls-11" d="M205.29,240.66c-2.89.46-4.31,22-4.81,32,3.72-5.71,7.59-11.34,11.49-16.5C210.64,250.3,208,240.23,205.29,240.66Z"/><path class="cls-11" d="M177.62,164.41c.27,7.42,1.11,22.92,3.51,23.72s8.5-7.89,11.31-12.15A46.37,46.37,0,0,0,177.62,164.41Z"/><path class="cls-11" d="M124.75,277.33c-3.7-1.38-9.61,10.78-12.18,16.55.33.54.65,1.09,1,1.63l.92,1.55c5,8.47,8.28,14.14,12.19,17.84C127.28,305.57,128.74,278.83,124.75,277.33Z"/><path class="cls-11" d="M190,256.81c-2.6.47-2,24.81-1.56,35.28,3.31-5.57,6.93-11.52,10.73-17.44C197.15,268.7,192.57,256.35,190,256.81Z"/><path class="cls-11" d="M192,202.62c3.16,1.8,10.34-3.87,13.78-6.87a116.1,116.1,0,0,1-9.51-14.33,38.52,38.52,0,0,0-3.06-4.48C191.73,184.09,188.69,200.73,192,202.62Z"/><path class="cls-11" d="M141.21,293.94c-3.53,0-11,15.61-13.72,21.73,4.9,4.2,10.91,5.55,22.1,5.58C148.41,314,144.79,293.94,141.21,293.94Z"/><path class="cls-11" d="M94.71,240.66c-2.68-.43-5.35,9.64-6.68,15.52,3.9,5.16,7.77,10.79,11.49,16.5C99,262.63,97.6,241.12,94.71,240.66Z"/><path class="cls-11" d="M175.25,277.33c-4,1.5-2.53,28.24-1.89,37.57,3.91-3.7,7.23-9.37,12.19-17.84l.92-1.55c.31-.54.63-1.09,1-1.63C184.86,288.11,179,276,175.25,277.33Z"/><path class="cls-11" d="M138.34,177.56c3.13-.45,8-12.95,10.35-19.39a61.73,61.73,0,0,0-24.2,5.25C128,168.41,135.2,178,138.34,177.56Z"/><path class="cls-11" d="M108,202.62c3.31-1.89.27-18.53-1.21-25.68a38.52,38.52,0,0,0-3.06,4.48,116.1,116.1,0,0,1-9.51,14.33C97.66,198.75,104.84,204.42,108,202.62Z"/><path class="cls-11" d="M111.52,292.09c.4-10.47,1-34.81-1.56-35.28s-7.11,11.89-9.17,17.84C104.59,280.57,108.21,286.52,111.52,292.09Z"/><path class="cls-11" d="M118.87,188.13c2.4-.8,3.24-16.3,3.51-23.72A46.37,46.37,0,0,0,107.56,176C110.37,180.24,116.46,188.93,118.87,188.13Z"/><path class="cls-11" d="M86.56,202.83c1.3,1.89,3.23,4.29,4.53,4s1.47-5.38,1.38-9.06A25.36,25.36,0,0,1,86.56,202.83Z"/><path class="cls-10" d="M75.73,203.39c-4.53-2.18-8.69-7.23-13.88-13.56l-1.42-1.73c-3.86-4.69-7.6-7.25-10.44-7.25a4,4,0,0,0-1.92.47c-3,1.63-4.76,8-2.08,16.45.95,3,1.76,5.9,2.55,8.69,3.61,12.85,6.21,22.14,17.21,27.77a44.83,44.83,0,0,1,10.75,8.41A118.88,118.88,0,0,1,75.73,203.39Z"/><path class="cls-10" d="M234.25,234.23c11-5.63,13.6-14.92,17.21-27.77.79-2.79,1.6-5.68,2.55-8.69,2.68-8.5.92-14.82-2.08-16.45s-7.56.94-12.36,6.78l-1.42,1.73c-5.19,6.33-9.35,11.39-13.88,13.57a118.76,118.76,0,0,1-.77,39.23A45,45,0,0,1,234.25,234.23Z"/><path class="cls-7" d="M263.29,321.87a38.15,38.15,0,0,1-2.22,5.66,18.8,18.8,0,0,1-3.64,5.22,9,9,0,0,1-3,1.93,7.66,7.66,0,0,1-1.86.45c-.7.06-1.12,0-1.66,0a45.91,45.91,0,0,1-6.1-.52,50.55,50.55,0,0,1-11.15-3.07l-17.8,7-2,.77c-.05.64-.08,1.27-.09,1.91l0,2.22,2.09-.83,17.8-7a50.52,50.52,0,0,0,11.15,3.06,44.3,44.3,0,0,0,6.1.52c.54,0,1,0,1.66,0a6.84,6.84,0,0,0,1.86-.45,9,9,0,0,0,3-1.93,18.66,18.66,0,0,0,3.64-5.22,38.15,38.15,0,0,0,2.22-5.66,57.43,57.43,0,0,0,2.31-11.7l-.47-.43A56.56,56.56,0,0,1,263.29,321.87Z"/><path class="cls-7" d="M207.07,322.49a12.17,12.17,0,0,1,1.06-1.75l-5,.4h0c-.45.57-.9,1.13-1.34,1.71L200,325.22h3.09l3.12-.25A12.84,12.84,0,0,1,207.07,322.49Z"/><path class="cls-7" d="M214.83,330.81a17.73,17.73,0,0,1,.92-2.16l-8.19,2.1-1.75.45c0,.15,0,.31-.05.47l-.07,1.7-.08,2,1.95-.5,6.68-1.71A20.58,20.58,0,0,1,214.83,330.81Z"/><path class="cls-7" d="M86.07,339.39l-2-.77-17.8-7a50.55,50.55,0,0,1-11.15,3.07,45.91,45.91,0,0,1-6.1.52c-.54,0-1,0-1.66,0a7.66,7.66,0,0,1-1.86-.45,9,9,0,0,1-3-1.93,18.8,18.8,0,0,1-3.64-5.22,38.15,38.15,0,0,1-2.22-5.66,56.25,56.25,0,0,1-1.84-8.06l-.47.43h0a57.43,57.43,0,0,0,2.31,11.7,38.15,38.15,0,0,0,2.22,5.66,18.66,18.66,0,0,0,3.64,5.22,9,9,0,0,0,3,1.93,6.84,6.84,0,0,0,1.86.45c.7.06,1.12,0,1.66,0a44.3,44.3,0,0,0,6.1-.52,50.52,50.52,0,0,0,11.15-3.06l17.8,7,2.09.83,0-2.22C86.15,340.66,86.12,340,86.07,339.39Z"/><path class="cls-7" d="M94.24,331.67c0-.16,0-.32,0-.47l-1.75-.45-8.19-2.1a17.73,17.73,0,0,1,.92,2.16,20.58,20.58,0,0,1,.59,2.31l6.68,1.71,2,.5-.08-2Z"/><path class="cls-7" d="M96.92,321.14h0l-5-.4a12.17,12.17,0,0,1,1.06,1.75A12.84,12.84,0,0,1,93.8,325l3.12.25H100l-1.75-2.37C97.83,322.27,97.37,321.71,96.92,321.14Z"/><path class="cls-12" d="M256.77,302.07l-12.33,13-.68.72-1.14-.54h0c-3.41-2-6.9-4-10.42-5.71a55.23,55.23,0,0,0-5.33-2.36c-.44-.16-.88-.31-1.3-.42a6.46,6.46,0,0,0-1.23-.21,8.57,8.57,0,0,0-2.57.11c-3.49.66-6.8,2.84-9.71,5.33a53.93,53.93,0,0,0-7.87,8.54l-1.34-2.36,9.9-.79,9.94-.79-9.42,3.73a4.68,4.68,0,0,0-.45.21,5,5,0,0,0-.54.31,5.85,5.85,0,0,0-1,.81,7.69,7.69,0,0,0-1.51,2.16,10.86,10.86,0,0,0-.84,2.64c-.09.46-.12.94-.19,1.41l-.06,1.46-1.88-1.46L219,324.73l6.06-1.55-4.74,4.17a7.06,7.06,0,0,0-.78.86,11.1,11.1,0,0,0-.74,1.1,13.59,13.59,0,0,0-1.11,2.45,16.07,16.07,0,0,0-.63,2.68,19.67,19.67,0,0,0-.2,2.78l-2.05-1.39,18.34-7.25.54-.21.55.21h0c1.79.52,3.67,1.06,5.54,1.47s3.74.82,5.62,1.12a51.72,51.72,0,0,0,5.66.59c.44,0,1,.06,1.29.05a4.09,4.09,0,0,0,1-.2,6.23,6.23,0,0,0,2-1.17,16.73,16.73,0,0,0,3.42-4.18,45.38,45.38,0,0,0,2.66-5.09,109,109,0,0,0,4.16-11,57.66,57.66,0,0,1-2.31,11.71,38.15,38.15,0,0,1-2.22,5.66,18.8,18.8,0,0,1-3.64,5.22,9,9,0,0,1-3,1.93,7.66,7.66,0,0,1-1.86.45c-.7.06-1.12,0-1.66,0a45.91,45.91,0,0,1-6.1-.52,50.46,50.46,0,0,1-11.69-3.27h1.08l-18.34,7.25-2.09.82,0-2.22a21.81,21.81,0,0,1,.24-3.22,18.48,18.48,0,0,1,.75-3.19,16.18,16.18,0,0,1,1.37-3,13.38,13.38,0,0,1,1-1.41,9.58,9.58,0,0,1,1.26-1.35l1.32,2.62-12.17,3.11-1.95.5.08-1.95.07-1.71c.07-.57.13-1.15.23-1.72a14.45,14.45,0,0,1,1.08-3.38,11,11,0,0,1,2.11-3,9.28,9.28,0,0,1,1.45-1.19,8.52,8.52,0,0,1,.83-.48,6.21,6.21,0,0,1,1-.41l.52,2.93-9.9.79H200l1.75-2.36a56.36,56.36,0,0,1,8.35-9.1,33.43,33.43,0,0,1,5.08-3.68,18.55,18.55,0,0,1,6.06-2.36,12.05,12.05,0,0,1,3.4-.16,9.82,9.82,0,0,1,1.72.3c.55.15,1.06.32,1.56.5a55.43,55.43,0,0,1,5.65,2.48c3.64,1.81,7.15,3.75,10.65,5.81h0l-1.83.17Z"/><path class="cls-12" d="M43.23,302.07l14.39,10.67-1.83-.17h0c3.5-2.06,7-4,10.65-5.81a55.43,55.43,0,0,1,5.65-2.48c.5-.18,1-.35,1.56-.5a9.82,9.82,0,0,1,1.72-.3,12.05,12.05,0,0,1,3.4.16A18.55,18.55,0,0,1,84.83,306a33.43,33.43,0,0,1,5.08,3.68,56.36,56.36,0,0,1,8.35,9.1l1.75,2.36H96.92l-9.9-.79.52-2.93a6.21,6.21,0,0,1,1,.41,8.52,8.52,0,0,1,.83.48,9.28,9.28,0,0,1,1.45,1.19,11,11,0,0,1,2.11,3A14.45,14.45,0,0,1,94,325.87c.1.57.16,1.15.23,1.72l.07,1.71.08,1.95-2-.5-12.17-3.11L81.59,325a9.58,9.58,0,0,1,1.26,1.35,13.38,13.38,0,0,1,1,1.41,16.18,16.18,0,0,1,1.37,3,18.48,18.48,0,0,1,.75,3.19,23.26,23.26,0,0,1,.24,3.22l0,2.22-2.09-.82-18.34-7.25h1.08a50.46,50.46,0,0,1-11.69,3.27,45.91,45.91,0,0,1-6.1.52c-.54,0-1,0-1.66,0a7.66,7.66,0,0,1-1.86-.45,9,9,0,0,1-3-1.93,18.8,18.8,0,0,1-3.64-5.22,38.15,38.15,0,0,1-2.22-5.66,57.66,57.66,0,0,1-2.31-11.71,109,109,0,0,0,4.16,11,45.38,45.38,0,0,0,2.66,5.09,16.73,16.73,0,0,0,3.42,4.18,6.23,6.23,0,0,0,2,1.17,4.09,4.09,0,0,0,1,.2c.28,0,.85,0,1.29-.05a51.72,51.72,0,0,0,5.66-.59q2.82-.45,5.63-1.12c1.86-.41,3.74-.95,5.53-1.47h0l.55-.21.54.21,18.34,7.25-2,1.39a19.67,19.67,0,0,0-.2-2.78,16.07,16.07,0,0,0-.63-2.68,13.59,13.59,0,0,0-1.11-2.45,11.1,11.1,0,0,0-.74-1.1,7.06,7.06,0,0,0-.78-.86L75,323.18,81,324.73l12.17,3.11-1.88,1.46-.06-1.46c-.07-.47-.1-.95-.19-1.41a10.86,10.86,0,0,0-.84-2.64,7.69,7.69,0,0,0-1.51-2.16,5.85,5.85,0,0,0-1-.81,5,5,0,0,0-.54-.31,4.68,4.68,0,0,0-.45-.21l-9.42-3.73,9.94.79,9.9.79-1.34,2.36A53.93,53.93,0,0,0,87.94,312c-2.91-2.49-6.22-4.67-9.71-5.33a8.57,8.57,0,0,0-2.57-.11,6.46,6.46,0,0,0-1.23.21c-.42.11-.86.26-1.3.42a55.23,55.23,0,0,0-5.33,2.36c-3.52,1.76-7,3.71-10.42,5.71h0l-1.14.54-.68-.72Z"/></g></svg>