<svg id="Layer_1" data-name="Layer 1" xmlns="http://www.w3.org/2000/svg" xmlns:xlink="http://www.w3.org/1999/xlink" viewBox="0 0 300 345"><defs><style>.cls-1{fill:url(#linear-gradient);}.cls-2{fill:#c2def4;}.cls-3{fill:#80a55d;}.cls-4{fill:#9591b7;}.cls-5{fill:#5d5880;}.cls-12,.cls-6{fill:#cf1f3d;}.cls-7{fill:#8c1834;}.cls-8,.cls-9{fill:none;}.cls-8{stroke:#680b25;}.cls-12,.cls-8,.cls-9{stroke-miterlimit:10;stroke-width:3px;}.cls-12,.cls-9{stroke:#8c1834;}.cls-10{fill:#680b25;}.cls-11{fill:#807eaf;}.cls-13{fill:#b01e38;}.cls-14{fill:#fff;}.cls-15{fill:#231f20;}</style><linearGradient id="linear-gradient" x1="150" y1="356.11" x2="150" y2="161.16" gradientTransform="matrix(-1, 0, 0, 1, 300, 0)" gradientUnits="userSpaceOnUse"><stop offset="0" stop-color="#53824b"/><stop offset="0.69" stop-color="#425634"/></linearGradient></defs><g id="dinosaur"><path class="cls-1" d="M36.38,345H263.62A36.38,36.38,0,0,0,300,308.62V259.14H0v49.48A36.38,36.38,0,0,0,36.38,345Z"/><rect class="cls-2" y="45" width="300" height="253.39" rx="36.38"/><rect class="cls-3" y="207.5" width="300" height="90.89" rx="36.38"/><path class="cls-4" d="M168.77,209.55a27.89,27.89,0,0,1-4.7-.42c-8.07-1.38-12-14-13.24-18.63,7.34,6.87,13.12,8.36,16.75,8.36a11.09,11.09,0,0,0,2.44-.25l7.15,9A16.93,16.93,0,0,1,168.77,209.55Z"/><path class="cls-5" d="M153.75,194.92c5.87,4.39,10.63,5.44,13.84,5.44a13.84,13.84,0,0,0,1.81-.12l5.42,6.81a16.92,16.92,0,0,1-6,1,27,27,0,0,1-4.45-.4c-5-.86-8.54-7.24-10.57-12.73m-5.42-9,.64,3.22c.16.8,4,19.61,14.85,21.46a29.5,29.5,0,0,0,5,.44c7.19,0,10.47-3,10.63-3.2l-.69-.72-7.48-9.41-.47-.91a7.64,7.64,0,0,1-3.17.55c-3.36,0-9.24-1.46-16.93-9.11l-2.33-2.32Z"/><path class="cls-6" d="M36.38,298.39H141.05l0-.54-1.48-.38c.13-1.65,1.1-9.58,7.6-12.81a88.15,88.15,0,0,1,13.9-5,12.36,12.36,0,0,0,2.84.06c6.25-.45,12.47,4.83,12.47,4.83a14.13,14.13,0,0,1,6.86-6.41c4.91-2.12,7.48-2.19,13.06-2a27.64,27.64,0,0,1,11,3.23l8.43-1.79c-1.24-7.68-15-12.66-15-12.66l-.34.11C198,267.22,190,267.84,190,267.84l-.89-.67c-.08-1.56-.44-5.55-2.17-7.91a14.78,14.78,0,0,0-4.94-3.71h0s10.48-14.25,28.14-15.38,32,7.11,32,7.11,33.4-11.53,29.44-20.93c-3.32-7.87-28.2,4.76-45.18,3.29s-23.8-2.89-23.8-2.89-14.84,7.33-18.73,13.2-5.38,14.55-5.38,14.55l.12,0c-.19,1-1,3.24-4.55,4.72-5.67,2.36-16.48,3.57-19.31-9.5,0,0,.26-4.63.56-6.54,1.24-7.92,14.42-18.16,14.42-18.16s-19.06-2.27-32.12-8.25-20.94-14.56-20.2-15.33c4.4-4.51,6.45-20.41,6.45-20.41l-2.11-15.65,3.2-4.52c3.4,6.3,13.44,12.49,15.69,13.82v0l.34.22.13.07h0c2.6,1.64,15.4,9.58,19.86,9.58a41.88,41.88,0,0,0,8.76-.9,4.35,4.35,0,0,1,3.65,2.94c.27.72.76,4.15.76,4.15s-3.36,4.19-2.56,6.79c5.65,18.49,25.53,3.12,25.24,1.19,0,0,11.43.83,12.09-4.53.78-6.35,1.23-12.62-.43-18.47-.77-2.72-18.75-10.33-18.75-10.33-2.95-5.8-11.55-5.44-11.55-5.44s-11.77-8-9.91-14.35c.48-1.64-.17-4.71.68-6.66,0,0,7.69-2.46,10-6.82,0,0,10,14.47,28.38,28.66,5.46,4.22,17.17,31.08,28.23,43.39,5.23,5.83,14.44,3.88,14.44,3.88,3.07,8.88,2.08,7.46,5.93,10s31.11-7.8,34.69-23.1-4.06-26.28,5.22-39.3a34.18,34.18,0,0,0,4.09-8.37V80.78q0-1.61-.15-3.18A36.37,36.37,0,0,0,263.62,45h-73.2a71.35,71.35,0,0,0-28.66,24.18C150,86.28,139.87,73.71,126,80.43c-33.06,16-58.87-18.76-95.36-2.38A52.23,52.23,0,0,0,0,118.65V171c1,24.27,21.09,44.35,21.09,44.35S1,209,0,226.85V262A36.38,36.38,0,0,0,36.38,298.39Zm41.89-60.62s10.41,8.32,19.24,11.49,22,5.84,22,5.84l-21.73,7.13-9.86,3.29s-8.85-7.4-9.46-10.42S78.27,237.77,78.27,237.77Z"/><path class="cls-7" d="M202.65,264.32s-9.68,4-12.69,3.52l-1.11,4,9.94,5.53,8.68,2.59,9-2.19S211.63,266.32,202.65,264.32Z"/><path class="cls-7" d="M169,139.57s-11.17,7.65-18.53,9.39c0,0-1.48,4.83,6.22,8s21.13,4,21.13,4-8.75-6.49-9.35-10S169,139.57,169,139.57Z"/><path class="cls-7" d="M190.71,167.26s16.27,5.22,17.92,10.55,2.42,16.9-.48,18.58-11.28,3-11.28,3a33.43,33.43,0,0,0-.49-14.85A163.38,163.38,0,0,0,190.71,167.26Z"/><path class="cls-8" d="M196.87,199.35s11.13.25,12.19-4.88,1.06-17.06-2.11-19.63S190,166,190,166"/><path class="cls-8" d="M178.71,161s-10.71-8-10.56-12,.84-9.39.84-9.39"/><path class="cls-7" d="M117.46,202.09s-11.65,11.14-28.25,13.68c0,0-9.78,11-10.79,22,0,0,19.6,15.3,39,17.09,0,0,22.47-6.7,37.33-4.49l25.06,4.73,4.07,1.58s59.73-9.91,60.25-10,29.52-7.08,27.69-19.25c-1.37-9.08-19.93,2.84-43,2.42-6.82-.12-39.71-3.35-39.71-3.35s-21,.94-36.78-3.83S120.51,208.8,117.46,202.09Z"/><path class="cls-8" d="M117.46,202.09s13.34,19.9,52.32,23.57"/><path class="cls-8" d="M202.65,227.36s18.44,3.79,34.76,2,29.91-8.14,33.84-2.94-11.61,17.72-30.26,20.9"/><path class="cls-8" d="M78.42,237.77s17.28,14.88,41.05,17.33"/><path class="cls-7" d="M87.88,265.52s-2.14-2.45-7.58-7.66-2.71-24,3.4-35.22,13.13-5.53,29.43-16.59,8.67-40,8.67-40-4.66,8.58-22.85,9.56c0,0,3.66,28.61-15.93,37.33S64.91,217,64.91,217l-7.59,5.09s-5.88,21.51,2.83,34.08,12.72,12.38,17.23,11.51S87.88,265.52,87.88,265.52Z"/><path class="cls-8" d="M121.8,166s7.64,29-8.67,40-23.32,5.36-29.43,16.59-8.83,30-3.4,35.22,7.58,7.66,7.58,7.66"/><path class="cls-7" d="M193.29,62.28a89.78,89.78,0,0,0-7.92,8.44,52.43,52.43,0,0,0-6.28,9.38A29.61,29.61,0,0,0,177,85.21a22.1,22.1,0,0,0-.65,2.64c-.17.89-.25,1.75-.36,2.75-.39,3.87-.83,7.72-1.09,11.53a73,73,0,0,0,0,11.36,44.85,44.85,0,0,0,7.29,20.9,60.29,60.29,0,0,0,7.28,8.6c5.38,5.39,11.37,10.32,17,15.79a70.82,70.82,0,0,1,8,8.91,40,40,0,0,1,3.21,5.16l2.74,5.12c3.71,6.76,7.42,13.55,11.91,19.67a35.09,35.09,0,0,0,7.6,8,12.33,12.33,0,0,0,2.22,1.2,18.79,18.79,0,0,0,2.53.69,13.85,13.85,0,0,0,2.58.31,6.07,6.07,0,0,0,1.16-.09,3.66,3.66,0,0,0,.47-.11l.17-.07,0,0-.09.09,2.1,2.13a1.75,1.75,0,0,1-.38.3,2.92,2.92,0,0,1-.27.17,3.05,3.05,0,0,1-.5.22,5.14,5.14,0,0,1-.93.28,8.89,8.89,0,0,1-1.73.19,17.49,17.49,0,0,1-3.2-.27,19.4,19.4,0,0,1-3.1-.76,15.48,15.48,0,0,1-2.92-1.51,38.21,38.21,0,0,1-8.54-8.64,159.76,159.76,0,0,1-12.41-20l-2.77-5.13a36,36,0,0,0-2.94-4.7,66.42,66.42,0,0,0-7.57-8.4c-5.49-5.32-11.58-10.19-17.1-15.85a63.75,63.75,0,0,1-7.64-9.22,48.28,48.28,0,0,1-7.68-22.67,77.29,77.29,0,0,1,.11-11.89c.31-3.92.79-7.79,1.21-11.63.11-.93.23-2,.43-3a23.56,23.56,0,0,1,.77-3,32.46,32.46,0,0,1,2.48-5.58,42.57,42.57,0,0,1,7.42-9.36A46.39,46.39,0,0,1,193.29,62.28Z"/><path class="cls-7" d="M119.47,111.53c1.6,8.48,2.8,17,3.83,25.57q.77,6.42,1.12,12.91c0,1.08.11,2.16.14,3.26l0,1.64a10.88,10.88,0,0,0,.1,1.41,12.8,12.8,0,0,0,2.15,5.3,36.24,36.24,0,0,0,8.87,8.53A127.21,127.21,0,0,0,146.47,177c1.85,1.06,3.72,2.15,5.58,3.18a35.31,35.31,0,0,0,5.61,2.55,22.22,22.22,0,0,0,5.87,1.16,13.31,13.31,0,0,0,2.9-.15,8.79,8.79,0,0,0,1.37-.31c.22-.06.43-.14.64-.22s.43-.19.49-.22l.53-.29.44.07a5.17,5.17,0,0,1,.87.2,5.56,5.56,0,0,1,.71.29,6.14,6.14,0,0,1,1.27.79,7.59,7.59,0,0,1,1.86,2.19,10.38,10.38,0,0,1,1,2.53c.1.42.18.85.26,1.28l.13,1.26h0l.08.8-.77.56a7.4,7.4,0,0,0-1.67,1.72,4.65,4.65,0,0,0-.83,2.06,4.76,4.76,0,0,0,.33,2.28c.14.43.24.88.41,1.3l.54,1.21a7.82,7.82,0,0,0,3.26,3.56,8.3,8.3,0,0,0,4.82.73,19.1,19.1,0,0,0,2.63-.52c.88-.3,1.76-.55,2.62-.94a39.8,39.8,0,0,0,5.09-2.57l1.23-.77.59-.37h0l0-.06a5.36,5.36,0,0,0,.59-2,28.31,28.31,0,0,0,.17-5.56,70.33,70.33,0,0,0-1.64-11.5,59.73,59.73,0,0,0-3.49-11,22.34,22.34,0,0,0-2.73-4.72,10.58,10.58,0,0,0-.83-.91l-.43-.39-.43-.29a1.84,1.84,0,0,0-.41-.22,1,1,0,0,0-.4-.14l-.18-.05a.76.76,0,0,0-.26-.05l-.75-.08c-4-.44-7.93-.9-11.91-1.45a105.78,105.78,0,0,1-12-2.26,31.1,31.1,0,0,1-6-2.15c-.49-.24-1-.56-1.47-.84a14.49,14.49,0,0,1-1.43-1.08l-.67-.65-.17-.16-.21-.29c-.13-.2-.26-.41-.38-.62-.16-.36-.26-.68-.39-1s-.13-.61-.19-.92a30.84,30.84,0,0,1-.15-6.4c.12-2.05.31-4.06.53-6.06.47-4,1-8,1.6-11.9s1.15-7.88,1.66-11.8a102.26,102.26,0,0,0,1-11.68,16.34,16.34,0,0,0-.18-2.69,6.87,6.87,0,0,0-.79-2.24,9,9,0,0,0-3.72-3.35c-3.23-1.73-7.16-2.52-11.12-3.15a22.49,22.49,0,0,1,6.08-.55,19.63,19.63,0,0,1,6.19,1.2,10.87,10.87,0,0,1,5.34,4.16,9.53,9.53,0,0,1,1.29,3.32,18.93,18.93,0,0,1,.28,3.27,104.75,104.75,0,0,1-.87,12.13c-.47,4-1,7.94-1.52,11.88s-1,7.89-1.44,11.81c-.21,2-.38,3.92-.48,5.85a27.72,27.72,0,0,0,.13,5.52l.12.55c0,.11.09.26.13.36h0v0l.1.09.41.39a10.38,10.38,0,0,0,1,.71c.38.21.72.44,1.12.63a26.41,26.41,0,0,0,5.25,1.83A109.31,109.31,0,0,0,172.2,158c3.91.55,7.86,1,11.81,1.47l.74.09a3,3,0,0,1,.47.08l.54.12a4.47,4.47,0,0,1,1,.36,4.83,4.83,0,0,1,.9.49l.8.55.67.62a14.41,14.41,0,0,1,1.19,1.3,26.18,26.18,0,0,1,3.23,5.59,63.49,63.49,0,0,1,3.7,11.75,75.76,75.76,0,0,1,1.68,12.15,30.47,30.47,0,0,1-.26,6.36l-.16.84-.24.87a6.61,6.61,0,0,1-.91,1.89l-.17.24-.27.27c-.18.17-.37.33-.56.48s-.46.27-.68.41l-1.33.79a41.57,41.57,0,0,1-5.61,2.73,22.09,22.09,0,0,1-6.25,1.6,11.69,11.69,0,0,1-6.77-1.21,11.18,11.18,0,0,1-4.63-5.11l-.64-1.53c-.19-.52-.3-1-.45-1.56a8,8,0,0,1-.34-3.61,7.78,7.78,0,0,1,1.45-3.39,10.72,10.72,0,0,1,2.56-2.46l-.68,1.37h0l-.12-1-.2-1a7.27,7.27,0,0,0-.7-1.76,4.28,4.28,0,0,0-1.11-1.3,3.31,3.31,0,0,0-.69-.43,1.7,1.7,0,0,0-.35-.14c-.1,0-.28-.07-.25-.07l1-.22a6.76,6.76,0,0,1-1,.46c-.29.11-.59.23-.88.31a12.61,12.61,0,0,1-1.77.42,17.49,17.49,0,0,1-3.53.21,24.57,24.57,0,0,1-6.74-1.32,39.42,39.42,0,0,1-6.12-2.79c-1.9-1.07-3.74-2.14-5.62-3.23-3.73-2.18-7.45-4.44-11-7a39.24,39.24,0,0,1-9.58-9.33,15.63,15.63,0,0,1-2.61-6.56,14,14,0,0,1-.13-1.81l0-1.58c0-1.05-.08-2.12-.11-3.18l-.74-12.84C120.27,128.74,119.74,120.16,119.47,111.53Z"/><path class="cls-9" d="M179,132.75A120.27,120.27,0,0,1,150,149"/><path class="cls-9" d="M125,161.5s-8,15.76-26.58,13.95"/><path class="cls-7" d="M37.51,129a36.09,36.09,0,0,1,8.72-3.62A38.83,38.83,0,0,1,55.67,124a34.43,34.43,0,0,1,18.54,4.86,41.12,41.12,0,0,1,7.62,6,58.6,58.6,0,0,1,6.27,7.28,70.32,70.32,0,0,1,9.07,16.83,62.72,62.72,0,0,1,4,18.74,43.94,43.94,0,0,1-3.08,19.06,35.38,35.38,0,0,1-5,8.44L91.47,207c-.55.6-1.12,1.15-1.67,1.72l-1.69,1.7-1.8,1.61a32.14,32.14,0,0,1-8.15,5.52,18.66,18.66,0,0,1-4.92,1.47,29,29,0,0,1-5,.16,16.5,16.5,0,0,0-4.19.26,8.8,8.8,0,0,0-1.82.71c-.29.16-.59.3-.88.47l-.84.62a6.25,6.25,0,0,0-1.4,1.28c-.18.26-.39.49-.55.77l-.48.87a17.59,17.59,0,0,0-1.24,4A43.58,43.58,0,0,0,58,246.08a46,46,0,0,0,3.07,8.49A29.15,29.15,0,0,0,66,261.89a17,17,0,0,0,3.3,2.66,11.14,11.14,0,0,0,3.8,1.44,4.89,4.89,0,0,0,1,.12,5.8,5.8,0,0,0,1,0l2.22-.13a15.46,15.46,0,0,0,2.22-.27l2.23-.36A159.55,159.55,0,0,0,99.55,260c5.9-2,11.83-4.1,17.89-5.83a146.57,146.57,0,0,1,18.46-4.13,105.31,105.31,0,0,1,18.95-.9l-.11,2.38a105.25,105.25,0,0,0-18.43,1.18,142.39,142.39,0,0,0-18,4.24c-6,1.76-11.8,3.88-17.69,6a147.48,147.48,0,0,1-18.11,5.58l-2.39.4a17.54,17.54,0,0,1-2.43.31l-2.46.15a9.6,9.6,0,0,1-1.3,0,8.21,8.21,0,0,1-1.32-.15,14.62,14.62,0,0,1-4.92-1.84,20,20,0,0,1-4-3.19A32.41,32.41,0,0,1,58.12,256a49.07,49.07,0,0,1-3.33-9.09,55.7,55.7,0,0,1-1.64-9.53,38.76,38.76,0,0,1,.36-9.78,21.18,21.18,0,0,1,1.5-4.89l.65-1.19a12.21,12.21,0,0,1,.8-1.13,8.86,8.86,0,0,1,1-1.06,7.72,7.72,0,0,1,1-.83l1.05-.77c.38-.23.79-.43,1.18-.64a12.76,12.76,0,0,1,2.54-1,19.42,19.42,0,0,1,5.13-.34,27.31,27.31,0,0,0,4.38-.11,15.3,15.3,0,0,0,4-1.2,28.77,28.77,0,0,0,7.31-4.93L85.8,208l1.62-1.62c.53-.55,1.09-1.08,1.6-1.63l1.47-1.68A32,32,0,0,0,95,195.46a40.76,40.76,0,0,0,2.91-17.63A59.68,59.68,0,0,0,94.24,160a67.11,67.11,0,0,0-8.6-16.11A56,56,0,0,0,79.72,137a40.45,40.45,0,0,0-7-5.68A34.72,34.72,0,0,0,55.64,126a43.57,43.57,0,0,0-4.57,0c-1.53.1-3.06.29-4.58.54A45.08,45.08,0,0,0,37.51,129Z"/><path class="cls-7" d="M166.08,281c0-.1-.13-.4-.22-.6s-.19-.44-.3-.65a5,5,0,0,0-.8-1.1,4.74,4.74,0,0,0-2.32-1.26l-.72-.12-.76-.05c-.54,0-1.19,0-1.79,0l-3.72,0a53,53,0,0,1-7.61-.42,20.9,20.9,0,0,1-3.8-.87,8.57,8.57,0,0,1-3.36-1.94,10.88,10.88,0,0,0,3.61.68,31.76,31.76,0,0,0,3.65-.05c2.43-.14,4.89-.43,7.37-.63,1.25-.1,2.49-.23,3.77-.28.65,0,1.25-.06,2,0,.37,0,.74,0,1.11.07l1.12.2a7.43,7.43,0,0,1,5.8,6.82Z"/><path class="cls-7" d="M156.68,269a35.1,35.1,0,0,1,10.67-3,43.09,43.09,0,0,1,5.58-.3,33.93,33.93,0,0,1,5.67.44c1,.2,1.9.35,2.85.65l1.41.44c.46.16.87.34,1.3.51,1.72.69,3.43,1.41,5.09,2.24s3.3,1.7,4.89,2.67a43.17,43.17,0,0,1,4.64,3.2l-1.81,2.4a88.48,88.48,0,0,0-9.28-5c-1.61-.75-3.23-1.48-4.88-2.14l-1.23-.48-1.17-.41c-.78-.27-1.62-.43-2.44-.63a50,50,0,0,0-10.43-.73C164,268.94,160.4,269.08,156.68,269Z"/><path class="cls-10" d="M270,202.09a9.33,9.33,0,0,1-2.13,2.9,11.94,11.94,0,0,1-2.67,1.9,12.15,12.15,0,0,1-3.07,1.15,9.3,9.3,0,0,1-3.6.13,9.11,9.11,0,0,1,2.13-2.91,11.94,11.94,0,0,1,2.67-1.9,12.84,12.84,0,0,1,3.07-1.14A9.3,9.3,0,0,1,270,202.09Z"/><path class="cls-8" d="M216.46,278.18S215,267.12,201,264.32"/><path class="cls-7" d="M0,174c4.88,20.93,22.07,40.73,22.27,41l4,4.55-5.66-2.16c-.08,0-8.74-3.27-14.89.56-2.83,1.76-4.73,4.8-5.71,9v-7.61a14.06,14.06,0,0,1,4.14-4c4.3-2.68,9.37-2.58,13-2C12.82,207.93,4.91,196.89,0,184.18Z"/><path class="cls-7" d="M0,109.65C4.82,98.53,13.83,84.57,30.06,77.28c19-8.52,35.08-3.59,50.63,1.18,14.87,4.56,28.92,8.87,44.7,1.22,5.86-2.84,11.16-2.44,15.83-2.09,7.12.53,12.74,1,19.36-8.66C168.3,57.72,179.28,49.69,187,45H193c-7,3.8-21,12.57-30,25.63-7.6,11-15,10.48-22.05,10-4.51-.34-9.17-.69-14.31,1.8-16.84,8.16-32.11,3.48-46.88-1.06-15-4.6-30.55-9.36-48.52-1.3C12.21,88.58,3.54,107.49,0,118.35Z"/><path class="cls-7" d="M244.35,185.92c.45,1,.89,2,1.3,3s.8,2,1.18,3,.71,2.09,1.07,3.14l.44,1.65c.14.56.23,1,.35,1.56a82.15,82.15,0,0,0,3.6,12,27.13,27.13,0,0,0,2.78,5.33,10.59,10.59,0,0,0,.89,1.06,4,4,0,0,0,.47.45l.24.19c.06,0,.19.17.19.14s0,0,.07,0l.21,0a4.37,4.37,0,0,0,.56.06h.66l.71-.07a29.11,29.11,0,0,0,5.87-1.5,55.13,55.13,0,0,0,5.73-2.41,52.35,52.35,0,0,0,10.43-6.69,25.42,25.42,0,0,0,7.39-9.4,15,15,0,0,0,.85-2.81c.17-1,.43-2,.52-3s.25-2,.28-3.07.07-2.07.07-3.11c0-4.15-.56-8.38-.62-12.77a28.58,28.58,0,0,1,2.63-13.09l.76-1.51c.28-.49.6-1,.89-1.43l1.72-2.65a38.08,38.08,0,0,0,2.6-5.55c.69-1.83,1.28-3.72,1.81-5.63V152a33.43,33.43,0,0,1-1.84,3.63l-1.76,2.72c-.26.43-.56.85-.8,1.28l-.67,1.35a25.47,25.47,0,0,0-2.34,11.76c.05,4.15.6,8.4.62,12.78,0,1.09,0,2.19-.08,3.29s-.16,2.2-.3,3.3-.37,2.18-.56,3.27a18.46,18.46,0,0,1-1,3.31A28.34,28.34,0,0,1,283,209.22,54.81,54.81,0,0,1,272,216.31a56.63,56.63,0,0,1-6.06,2.55,31.92,31.92,0,0,1-6.5,1.65l-.89.09h-.93a8,8,0,0,1-1-.11l-.56-.14a3.79,3.79,0,0,1-.66-.29,7.53,7.53,0,0,1-1.54-1.28,13.68,13.68,0,0,1-1.17-1.39,29.67,29.67,0,0,1-3.13-6A83.32,83.32,0,0,1,245.77,199c-.12-.52-.23-1.08-.36-1.56L245,196c-.34-1-.67-1.92-1.1-2.88s-.83-1.9-1.3-2.85-.91-1.88-1.39-2.82c-1.9-3.76-3.72-7.59-5.55-11.43s-3.62-7.71-5.25-11.71a99,99,0,0,1,7.62,10.4A92.21,92.21,0,0,1,244.35,185.92Z"/><path class="cls-11" d="M183.25,255.37A40.23,40.23,0,0,1,199,244a41.2,41.2,0,0,1,15.57-2.95c10.48,0,21.72,3.59,33.44,10.66-6.49.37-30.29,2-38,7-1.9,1.22-3.54,2.38-5,3.39-5,3.54-8.09,5.7-14.48,5.83Z"/><path class="cls-5" d="M214.59,242.55c8.92,0,18.43,2.69,28.36,8-9.75.75-27.07,2.64-33.72,6.92-1.93,1.24-3.58,2.4-5.06,3.44-4.67,3.29-7.4,5.22-12.74,5.5l-6.35-10.87a39,39,0,0,1,14.5-10.14,39.89,39.89,0,0,1,15-2.84m0-3a42.74,42.74,0,0,0-16.14,3.06,40.52,40.52,0,0,0-17.28,13l.82.57,7.15,12.24h0l0,1H190c7.27,0,10.74-2.45,15.9-6.08,1.44-1,3.07-2.17,4.95-3.38,8.47-5.45,38.55-6.84,38.86-6.85l3.21-.15-2.73-1.7c-14.14-8.84-26.06-11.73-35.6-11.73Z"/><path class="cls-12" d="M179.45,253.65s13.74,4.25,9.66,17.54"/><path class="cls-4" d="M166.27,260.73c-5.14,0-9.23-3.48-10.42-8.86-1.86-8.41,3.15-21.58,23.38-31,8.59-4,16.77-6,24.31-6,11.9,0,19.08,5.07,21.56,7.19l-1.26,0c-13.09,0-28.93,6.64-38.53,16.15-3.81,3.78-4.88,8.13-5.81,12C178.05,256.06,176.91,260.73,166.27,260.73Z"/><path class="cls-5" d="M203.55,213.37v3h0a33.49,33.49,0,0,1,17,4.31c-12.72,1-27.2,7.47-36.26,16.44-4.11,4.08-5.23,8.65-6.21,12.68-1.44,5.88-2.3,9.43-11.76,9.43-4.49,0-7.92-2.94-9-7.68-1.74-7.87,3.12-20.28,22.55-29.31,8.39-3.9,16.36-5.87,23.68-5.87v-3m0,0c-6.82,0-15.13,1.59-24.94,6.15-21,9.78-26.2,23.72-24.21,32.68,1.34,6.09,6,10,11.89,10,11.81,0,13.2-5.69,14.67-11.72.94-3.82,1.9-7.78,5.42-11.26,9.33-9.24,25-15.71,37.47-15.71.86,0,1.71,0,2.54.1l2.47.18L227.2,222c-.11-.12-7.92-8.6-23.66-8.6Z"/><path class="cls-11" d="M231.92,297.89v-.22l-22.63-18a37.33,37.33,0,0,1,7.54-.81c18.19,0,25.45,15.58,26.83,19Z"/><path class="cls-5" d="M216.83,277.39v3c14.94,0,22,10.86,24.54,16h-8.65l-.44-.35-19.4-15.41a33.6,33.6,0,0,1,4-.24v-3m0,0a40.43,40.43,0,0,0-10.16,1.38l.5,1.93c.26-.07.5-.11.75-.17l22.5,17.86h0v1h15.33l-.42-1.3c-.07-.24-7-20.7-28.5-20.7Z"/><path class="cls-4" d="M189.88,297.89v-.06l-12.11-13.95a21.39,21.39,0,0,1,15.72-6.62,27.26,27.26,0,0,1,5.65.61c14.79,3.11,29.68,15.21,30.72,20Z"/><path class="cls-5" d="M193.49,278.76h0a25.74,25.74,0,0,1,5.35.58c13.25,2.79,25.2,12.34,28.61,17.05H190.62l-10.81-12.45a19.85,19.85,0,0,1,13.68-5.18m0-3a22.32,22.32,0,0,0-17.85,8.34l.83.56,11.91,13.73h0v1h43v-1c0-5.47-16.11-18.65-32-22a28.79,28.79,0,0,0-6-.64Z"/><path class="cls-4" d="M140.1,297.89a12.67,12.67,0,0,1,4-9.35c4.54-4.57,12.26-7.41,20.15-7.41q1,0,2,.06c11.13.68,19.35,13.43,21.28,16.7Z"/><path class="cls-5" d="M164.26,282.63h0c.63,0,1.27,0,1.89.06,8.52.52,15.46,9.06,18.62,13.7h-43.1a11.58,11.58,0,0,1,3.5-6.79c4.28-4.3,11.59-7,19.09-7m0-3c-8.23,0-16.38,3-21.22,7.86a14,14,0,0,0-4.41,11l.06.93h51.37l-.8-1.47c-.39-.72-9.61-17.42-22.92-18.23-.7,0-1.39-.06-2.08-.06Z"/><circle class="cls-13" cx="242.19" cy="111.53" r="26.15"/><circle class="cls-14" cx="242.19" cy="116.81" r="22.87"/><circle class="cls-15" cx="243.79" cy="114.75" r="10.55"/><path class="cls-7" d="M277.76,135.1a5.77,5.77,0,0,1-10-4.68c1.23-8,4.69-15.91,13.65-15C291.7,116.46,285,126.79,277.76,135.1Z"/></g></svg>