<svg id="Layer_1" data-name="Layer 1" xmlns="http://www.w3.org/2000/svg" xmlns:xlink="http://www.w3.org/1999/xlink" viewBox="0 0 300 345"><defs><style>.cls-1{fill:url(#linear-gradient);}.cls-2{fill:#f9a241;}.cls-3{fill:#bc4a27;}.cls-4{fill:#c95b28;}.cls-5{fill:#b23a25;}.cls-6{fill:#da7d25;}.cls-7{fill:#9e2f21;}.cls-8{fill:#c46928;}.cls-9{fill:url(#radial-gradient);}.cls-10{fill:#ffcd05;}.cls-11{fill:#feea96;}.cls-12{fill:#e17826;}</style><linearGradient id="linear-gradient" x1="150" y1="353.4" x2="150" y2="158.45" gradientUnits="userSpaceOnUse"><stop offset="0.05" stop-color="#f9a241"/><stop offset="0.35" stop-color="#c66821"/></linearGradient><radialGradient id="radial-gradient" cx="197" cy="71.35" r="57.35" gradientTransform="matrix(0.99, -0.13, 0.15, 1.12, -8.78, 16.9)" gradientUnits="userSpaceOnUse"><stop offset="0.54" stop-color="#d88f2a"/><stop offset="1" stop-color="#fabc2e"/></radialGradient></defs><title>blook-waffle</title><path class="cls-1" d="M263.62,345H36.38A36.38,36.38,0,0,1,0,308.62V259.14H300v49.48A36.38,36.38,0,0,1,263.62,345Z"/><rect class="cls-2" y="45" width="300" height="253.39" rx="36.38"/><path class="cls-3" d="M263.62,47.72H36.38A36.37,36.37,0,0,0,0,84.09V187.26a10.64,10.64,0,0,0,16.23,9.05l26.26-16.22a10.64,10.64,0,0,1,14.73,3.61l5.91,9.93c17.68,29.66,60.52,30,78.66.61L150.57,180a10.64,10.64,0,0,1,17.74-.55l18,25.5a10.64,10.64,0,0,0,18.18-1.34L210,192.91a10.64,10.64,0,0,1,19.88,2.52l1.64,7.47c2.49,11.29,18.66,11.06,20.84-.29l2.92-15.23A10.64,10.64,0,0,1,273,181.7l9,8.58a10.64,10.64,0,0,0,18-7.69V84.1A36.38,36.38,0,0,0,263.62,47.72Z"/><path class="cls-4" d="M263.62,45H36.38A36.37,36.37,0,0,0,0,81.37v91.19a10.64,10.64,0,0,0,16.23,9.05l26.26-16.22A10.64,10.64,0,0,1,57.22,169l5.91,9.92c17.68,29.67,60.52,30,78.66.61l8.78-14.22a10.64,10.64,0,0,1,17.74-.56l18,25.5a10.64,10.64,0,0,0,18.18-1.33L210,178.21a10.64,10.64,0,0,1,19.88,2.52l1.64,7.46c2.49,11.29,18.66,11.07,20.84-.28l2.92-15.23A10.64,10.64,0,0,1,273,167l9,8.59a10.64,10.64,0,0,0,18-7.69V81.38A36.38,36.38,0,0,0,263.62,45Z"/><path class="cls-3" d="M72.58,67.74H41.69c-7.69,0-13.93,6.87-13.93,15.34v31.65c0,8.47,6.24,15.34,13.93,15.34H72.58c7.7,0,13.93-6.87,13.93-15.34V83.08C86.51,74.61,80.28,67.74,72.58,67.74Z"/><path class="cls-5" d="M72.58,67.74H41.69c-7.69,0-13.93,6.87-13.93,15.34v17.76c0-8.47,6.24-15.34,13.93-15.34H72.58c7.7,0,13.93,6.87,13.93,15.34V83.08C86.51,74.61,80.28,67.74,72.58,67.74Z"/><path class="cls-3" d="M165.45,67.74h-30.9c-7.69,0-13.93,6.87-13.93,15.34v31.65c0,8.47,6.24,15.34,13.93,15.34h30.9c7.69,0,13.93-6.87,13.93-15.34V83.08C179.38,74.61,173.14,67.74,165.45,67.74Z"/><path class="cls-5" d="M165.45,67.74h-30.9c-7.69,0-13.93,6.87-13.93,15.34v17.76c0-8.47,6.24-15.34,13.93-15.34h30.9c7.69,0,13.93,6.87,13.93,15.34V83.08C179.38,74.61,173.14,67.74,165.45,67.74Z"/><path class="cls-3" d="M258,67.74h-30.9c-7.69,0-13.93,6.87-13.93,15.34v31.65c0,8.47,6.24,15.34,13.93,15.34H258c7.69,0,13.93-6.87,13.93-15.34V83.08C272,74.61,265.72,67.74,258,67.74Z"/><path class="cls-5" d="M258,67.74h-30.9c-7.69,0-13.93,6.87-13.93,15.34v17.76c0-8.47,6.24-15.34,13.93-15.34H258c7.69,0,13.93,6.87,13.93,15.34V83.08C272,74.61,265.72,67.74,258,67.74Z"/><path class="cls-6" d="M72.58,142.43H41.69c-7.69,0-13.93,6.87-13.93,15.34v31.65c0,8.47,6.24,15.34,13.93,15.34H72.58c7.7,0,13.93-6.87,13.93-15.34V157.77C86.51,149.3,80.28,142.43,72.58,142.43Z"/><path class="cls-7" d="M72.58,142.43H41.69c-7.69,0-13.93,6.87-13.93,15.34v31.42l14.73-9.1a10.64,10.64,0,0,1,14.73,3.61l5.91,9.93a46.61,46.61,0,0,0,9.25,11.13h.2c7.7,0,13.93-6.87,13.93-15.34V157.77C86.51,149.3,80.28,142.43,72.58,142.43Z"/><path class="cls-3" d="M72.58,142.43H41.69c-7.69,0-13.93,6.87-13.93,15.34v16.72l14.73-9.1A10.64,10.64,0,0,1,57.22,169l5.91,9.92A45.39,45.39,0,0,0,84.35,197.6a16.41,16.41,0,0,0,2.16-8.18V157.77C86.51,149.3,80.28,142.43,72.58,142.43Z"/><path class="cls-5" d="M72.58,142.43H41.69c-7.69,0-13.93,6.87-13.93,15.34v17.76c0-8.47,6.24-15.34,13.93-15.34H72.58c7.7,0,13.93,6.87,13.93,15.34V157.77C86.51,149.3,80.28,142.43,72.58,142.43Z"/><path class="cls-6" d="M165.45,142.43h-30.9c-7.69,0-13.93,6.87-13.93,15.34v31.65c0,8.47,6.24,15.34,13.93,15.34h30.9c7.69,0,13.93-6.87,13.93-15.34V157.77C179.38,149.3,173.14,142.43,165.45,142.43Z"/><path class="cls-7" d="M165.45,142.43h-30.9c-7.69,0-13.93,6.87-13.93,15.34v31.65c0,7.9,5.43,14.4,12.4,15.24a46.61,46.61,0,0,0,8.77-10.42L150.57,180a10.64,10.64,0,0,1,17.74-.55l10.39,14.68a17,17,0,0,0,.68-4.72V157.77C179.38,149.3,173.14,142.43,165.45,142.43Z"/><path class="cls-3" d="M165.45,142.43h-30.9c-7.69,0-13.93,6.87-13.93,15.34v31.65a16.46,16.46,0,0,0,1.8,7.52,45.5,45.5,0,0,0,19.37-17.41l8.78-14.22a10.64,10.64,0,0,1,17.74-.56l11.07,15.65V157.77C179.38,149.3,173.14,142.43,165.45,142.43Z"/><path class="cls-5" d="M165.45,142.43h-30.9c-7.69,0-13.93,6.87-13.93,15.34v17.76c0-8.47,6.24-15.34,13.93-15.34h30.9c7.69,0,13.93,6.87,13.93,15.34V157.77C179.38,149.3,173.14,142.43,165.45,142.43Z"/><path class="cls-6" d="M258,142.43h-30.9c-7.69,0-13.93,6.87-13.93,15.34v31.65c0,8.47,6.24,15.34,13.93,15.34H258c7.69,0,13.93-6.87,13.93-15.34V157.77C272,149.3,265.72,142.43,258,142.43Z"/><path class="cls-7" d="M258,142.43h-30.9c-7.69,0-13.93,6.87-13.93,15.34v31.28a10.67,10.67,0,0,1,16.63,6.38l1.64,7.47a11.87,11.87,0,0,0,.58,1.86h19.63a12.53,12.53,0,0,0,.63-2.15l2.92-15.23A10.63,10.63,0,0,1,272,180.81v-23C272,149.3,265.72,142.43,258,142.43Z"/><path class="cls-3" d="M258,142.43h-30.9c-7.69,0-13.93,6.87-13.93,15.34v16.58a10.67,10.67,0,0,1,16.63,6.38l1.64,7.46c2.49,11.29,18.66,11.07,20.84-.28l2.92-15.23A10.64,10.64,0,0,1,272,166.1v-8.33C272,149.3,265.72,142.43,258,142.43Z"/><path class="cls-5" d="M258,142.43h-30.9c-7.69,0-13.93,6.87-13.93,15.34v17.76c0-8.47,6.24-15.34,13.93-15.34H258c7.69,0,13.93,6.87,13.93,15.34V157.77C272,149.3,265.72,142.43,258,142.43Z"/><path class="cls-6" d="M72.58,213.33H41.69c-7.69,0-13.93,6.86-13.93,15.34v31.64c0,8.47,6.24,15.34,13.93,15.34H72.58c7.7,0,13.93-6.87,13.93-15.34V228.67C86.51,220.19,80.28,213.33,72.58,213.33Z"/><path class="cls-8" d="M72.58,213.33H41.69c-7.69,0-13.93,6.86-13.93,15.34v17.75c0-8.47,6.24-15.34,13.93-15.34H72.58c7.7,0,13.93,6.87,13.93,15.34V228.67C86.51,220.19,80.28,213.33,72.58,213.33Z"/><path class="cls-6" d="M165.45,213.33h-30.9c-7.69,0-13.93,6.86-13.93,15.34v31.64c0,8.47,6.24,15.34,13.93,15.34h30.9c7.69,0,13.93-6.87,13.93-15.34V228.67C179.38,220.19,173.14,213.33,165.45,213.33Z"/><path class="cls-8" d="M165.45,213.33h-30.9c-7.69,0-13.93,6.86-13.93,15.34v17.75c0-8.47,6.24-15.34,13.93-15.34h30.9c7.69,0,13.93,6.87,13.93,15.34V228.67C179.38,220.19,173.14,213.33,165.45,213.33Z"/><path class="cls-6" d="M258,213.33h-30.9c-7.69,0-13.93,6.86-13.93,15.34v31.64c0,8.47,6.24,15.34,13.93,15.34H258c7.69,0,13.93-6.87,13.93-15.34V228.67C272,220.19,265.72,213.33,258,213.33Z"/><path class="cls-8" d="M258,213.33h-30.9c-7.69,0-13.93,6.86-13.93,15.34v17.75c0-8.47,6.24-15.34,13.93-15.34H258c7.69,0,13.93,6.87,13.93,15.34V228.67C272,220.19,265.72,213.33,258,213.33Z"/><path class="cls-9" d="M247.92,81.67h0l0-.17-.09-.44-3-15.68-9.38,2.4L197.79,46.88a16,16,0,0,0-21.7,6.22L156.8,87.89,148,90.13l2.87,15.79,0,.18,0,.12h0a16,16,0,0,0,7.91,10.85L201,140.43a16,16,0,0,0,21.69-6.22l23.44-42.28A15.82,15.82,0,0,0,247.92,81.67Z"/><rect class="cls-10" x="156.58" y="39.19" width="80.26" height="80.09" rx="15.96" transform="translate(32.02 212.84) rotate(-60.99)"/><rect class="cls-11" x="205.6" y="56.63" width="26.15" height="26.09" rx="10" transform="translate(51.69 227.13) rotate(-60.99)"/><rect class="cls-11" x="210.36" y="87.22" width="16.62" height="16.59" rx="8.29" transform="translate(29.1 240.44) rotate(-60.99)"/><ellipse class="cls-12" cx="102.71" cy="184.83" rx="10.56" ry="7.63"/><ellipse class="cls-12" cx="121.61" cy="178.66" rx="5.23" ry="4.88"/><path class="cls-12" d="M60.37,154.87c0,6-4.73,2.7-10.56,2.7s-10.57,2.51-10.57-2.7S44,146,49.81,146,60.37,148.82,60.37,154.87Z"/><ellipse class="cls-12" cx="32.99" cy="157.77" rx="3.54" ry="3.3"/><path class="cls-12" d="M239.72,172.36c-3.75,4.75-5.39-.81-10-4.42s-9.84-4.59-6.61-8.67,9.21-4,13.79-.42S243.47,167.61,239.72,172.36Z"/><circle class="cls-12" cx="214.14" cy="161.96" r="3.47"/><ellipse class="cls-12" cx="288.94" cy="161.08" rx="6.24" ry="7.58"/><circle class="cls-12" cx="194.74" cy="178.66" r="6.02"/><circle class="cls-12" cx="10.53" cy="169.49" r="4.28"/><path class="cls-12" d="M29.16,57.34c1.39,3.59-2.5,3.95-7,7.92s-4.61,7.91-9.24,6.46c-5.1-1.59-2.4-10,2.07-14S26.92,51.55,29.16,57.34Z"/><circle class="cls-12" cx="36.53" cy="54.47" r="4.28"/><path class="cls-12" d="M284.52,73.34c-3.6,1.39-3.95-2.5-7.92-7s-7.91-4.61-6.47-9.23c1.6-5.1,10-2.41,14,2.07S290.3,71.1,284.52,73.34Z"/><circle class="cls-12" cx="287.39" cy="80.71" r="4.28"/></svg>