<svg id="Layer_1" data-name="Layer 1" xmlns="http://www.w3.org/2000/svg" xmlns:xlink="http://www.w3.org/1999/xlink" viewBox="0 0 300 345"><defs><style>.cls-1{fill:url(#linear-gradient);}.cls-2{fill:#d69b5a;}.cls-3{fill:#76472f;}.cls-4{fill:#9a5e39;}.cls-5{fill:#6d4123;}.cls-6{fill:#422200;}.cls-7{fill:#ffc94e;}</style><linearGradient id="linear-gradient" x1="150" y1="356.11" x2="150" y2="161.16" gradientUnits="userSpaceOnUse"><stop offset="0" stop-color="#ba945b"/><stop offset="0.69" stop-color="#954b3f"/></linearGradient></defs><g id="robot"><path class="cls-1" d="M263.62,345H36.38A36.38,36.38,0,0,1,0,308.62V259.14H300v49.48A36.38,36.38,0,0,1,263.62,345Z"/><rect class="cls-2" y="45" width="300" height="253.39" rx="36.38"/><path class="cls-3" d="M237.94,298.39v.78l.09.2L259.32,345h4.3c1.13,0,2.24-.06,3.35-.16L245.3,298.39Z"/><polygon class="cls-3" points="153.5 298.39 146.5 298.39 146.5 345 146.5 345 153.5 345 153.5 345 153.5 298.39"/><path class="cls-3" d="M62.06,299.17v-.78H54.7L33,344.84c1.11.1,2.22.16,3.35.16h4.3L62,299.37Z"/><path class="cls-4" d="M259,195a14,14,0,0,1-14-14V45h-7v65.21a14,14,0,0,1-14.05,14H167.54a14,14,0,0,1-14-14V45h-7V181a14,14,0,0,1-14,14H76.11a14,14,0,0,1-14-14V45h-7v65.21a14,14,0,0,1-14,14H0v7H39.54a15.52,15.52,0,0,1,15.52,15.52V297.62l-.36.77h7.36v-82.3a14,14,0,0,1,14-14.05h56.35a14,14,0,0,1,14,14.05v82.3h7V146.62a15.37,15.37,0,0,1,15.37-15.37h53.7a15.37,15.37,0,0,1,15.37,15.37V298.39h7.36l-.36-.77V216.09A14,14,0,0,1,259,202h41v-7Z"/><circle class="cls-4" cx="224.82" cy="112.31" r="4.22"/><circle class="cls-4" cx="167.08" cy="112.31" r="4.22"/><circle class="cls-4" cx="132.75" cy="181.65" r="4.22"/><circle class="cls-4" cx="42.41" cy="110.44" r="4.22"/><circle class="cls-4" cx="224.82" cy="145.24" r="4.22"/><circle class="cls-4" cx="167.08" cy="145.24" r="4.22"/><circle class="cls-4" cx="43.33" cy="145.24" r="4.22"/><path class="cls-5" d="M105.58,238h88.84a0,0,0,0,1,0,0v32.89a22.66,22.66,0,0,1-22.66,22.66H128.24a22.66,22.66,0,0,1-22.66-22.66V238A0,0,0,0,1,105.58,238Z"/><circle class="cls-6" cx="124.75" cy="281.12" r="4.22"/><circle class="cls-6" cx="175.25" cy="281.12" r="4.22"/><path class="cls-6" d="M238.32,251c-25.77-6.89-22.13-29-45.53-39.45-27.91-12.43-42.79,6.06-42.79,6.06s-14.88-18.49-42.79-6.06C83.81,221.93,87.45,244.08,61.68,251a6.49,6.49,0,0,0-.55,12.36c10.81,3.9,24.82,5,37.16-6.52-1.13,1-9.86,9.46-1.75,14.41C105.2,276.5,116,258.3,116,258.3s-5,8.64,4.27,11.41,15.59-11.41,15.59-11.41,6.13,8.8,14.13,0c8,8.8,14.13,0,14.13,0s6.28,14.17,15.59,11.41S184,258.3,184,258.3s10.81,18.2,19.47,12.92c8.11-5-.62-13.37-1.75-14.41,12.34,11.53,26.35,10.42,37.16,6.52A6.49,6.49,0,0,0,238.32,251Z"/><path class="cls-7" d="M242.58,224.27a31,31,0,1,1,30.95-31A31,31,0,0,1,242.58,224.27Z"/><path class="cls-5" d="M242.58,167.86a25.46,25.46,0,1,1-25.45,25.46,25.48,25.48,0,0,1,25.45-25.46m0-11A36.46,36.46,0,1,0,279,193.32a36.45,36.45,0,0,0-36.45-36.46Z"/><path class="cls-7" d="M57.42,224.27a31,31,0,1,1,31-31A31,31,0,0,1,57.42,224.27Z"/><path class="cls-5" d="M57.42,167.86A25.46,25.46,0,1,1,32,193.32a25.48,25.48,0,0,1,25.45-25.46m0-11a36.46,36.46,0,1,0,36.45,36.46,36.45,36.45,0,0,0-36.45-36.46Z"/></g></svg>