<svg id="Layer_1" data-name="Layer 1" xmlns="http://www.w3.org/2000/svg" xmlns:xlink="http://www.w3.org/1999/xlink" viewBox="0 0 300 345"><defs><style>.cls-1{fill:url(#linear-gradient);}.cls-17,.cls-2{fill:#ffcd05;}.cls-3{fill:#fff2d4;}.cls-4{fill:#f4e2ce;}.cls-5{fill:#fff;}.cls-6{fill:#515046;}.cls-7{fill:#9dc6ea;opacity:0.5;}.cls-8{fill:#414042;}.cls-11,.cls-12,.cls-18,.cls-19,.cls-20,.cls-9{fill:none;}.cls-11,.cls-20,.cls-9{stroke:#414042;}.cls-11,.cls-12,.cls-17,.cls-18,.cls-19,.cls-20,.cls-9{stroke-miterlimit:10;}.cls-9{stroke-width:5.22px;}.cls-10{fill-opacity:0.5;fill:url(#radial-gradient);}.cls-11,.cls-12{stroke-width:9px;}.cls-12{stroke:#dd7399;stroke-linecap:round;}.cls-13{fill:#f7a9af;}.cls-14{fill:#cfb7bc;}.cls-15{fill:#ce2235;}.cls-16{fill:#8c141c;}.cls-17,.cls-18{stroke:#cd8029;}.cls-17,.cls-20{stroke-width:3px;}.cls-18{stroke-width:11px;}.cls-19{stroke:#ffcd05;stroke-width:4px;}</style><linearGradient id="linear-gradient" x1="150" y1="356.11" x2="150" y2="161.16" gradientUnits="userSpaceOnUse"><stop offset="0" stop-color="#89ceb8"/><stop offset="0.69" stop-color="#007a95"/></linearGradient><radialGradient id="radial-gradient" cx="149.92" cy="242.23" r="41.85" gradientUnits="userSpaceOnUse"><stop offset="0" stop-color="#ec008c"/><stop offset="1" stop-color="#b6cbe9" stop-opacity="0"/></radialGradient></defs><title>blook_white-rabbit</title><g id="alice_in_wonderland" data-name="alice in wonderland"><path class="cls-1" d="M263.62,345H36.38A36.38,36.38,0,0,1,0,308.62V259.14H300v49.48A36.38,36.38,0,0,1,263.62,345Z"/><path class="cls-2" d="M177.56,345H122.44c-4.87,0-15.8-5.71-15.8-36.38V259.14h86.72v49.48C193.36,339.29,182.43,345,177.56,345Z"/><rect class="cls-3" y="70.78" width="300" height="227.62" rx="36.38"/><circle class="cls-4" cx="242.58" cy="209.68" r="36.45"/><circle class="cls-4" cx="57.42" cy="209.68" r="36.45"/><circle class="cls-5" cx="242.58" cy="219.8" r="36.45"/><circle class="cls-5" cx="57.42" cy="219.8" r="36.45"/><path class="cls-6" d="M89.18,214.51A13.21,13.21,0,0,1,70,196.6a23,23,0,1,0,19.19,17.91Zm-32,19.76a5.46,5.46,0,1,1,5.45-5.46A5.46,5.46,0,0,1,57.14,234.27Z"/><path class="cls-6" d="M255.63,214.38a13.22,13.22,0,0,1-19.07-17.77,24.25,24.25,0,0,0-3.32-.24,23,23,0,1,0,22.39,18Zm-32.22,19.89a5.46,5.46,0,1,1,5.46-5.46A5.46,5.46,0,0,1,223.41,234.27Z"/><circle class="cls-7" cx="95.31" cy="227.02" r="23.77"/><path class="cls-8" d="M95.31,205.86A21.16,21.16,0,1,1,74.15,227a21.15,21.15,0,0,1,21.16-21.16m0-5.22A26.38,26.38,0,1,0,121.68,227a26.41,26.41,0,0,0-26.37-26.38Z"/><circle class="cls-7" cx="204.69" cy="227.02" r="23.77"/><path class="cls-8" d="M204.69,205.86A21.16,21.16,0,1,1,183.54,227a21.16,21.16,0,0,1,21.15-21.16m0-5.22A26.38,26.38,0,1,0,231.07,227a26.41,26.41,0,0,0-26.38-26.38Z"/><path class="cls-9" d="M118.11,225.54s9.67-9.22,31.89-9.22,31.84,9.22,31.84,9.22"/><circle class="cls-10" cx="149.92" cy="242.23" r="41.85"/><line class="cls-11" x1="150" y1="244.24" x2="150" y2="265.61"/><polyline class="cls-11" points="163.15 285.98 150 264.59 136.88 285.95"/><path class="cls-12" d="M170.9,232.3s-6.6,11.94-20.9,11.94-20.9-11.94-20.9-11.94"/><path class="cls-4" d="M185.93,70.78c10.29,43.61,32.41,81.1,64,69.87,25.29-9,33.45-35.88,31-66.25A36.23,36.23,0,0,0,265,70.78Z"/><path class="cls-4" d="M37.77,70.78A36.3,36.3,0,0,0,19,76C17,105.7,25.26,131.81,50.12,140.65c31.54,11.23,53.66-26.26,64-69.87Z"/><path class="cls-3" d="M83.65,1.13C37.24-13.95-18.19,126.89,41,148,95.15,167.22,115.42,11.45,83.65,1.13Z"/><path class="cls-3" d="M216.35,1.13C262.76-13.95,318.19,126.89,259,148,204.85,167.22,184.58,11.45,216.35,1.13Z"/><path class="cls-13" d="M67.69,83.35C48.25,77,25,129.34,49.84,138.18,72.51,146.24,81,87.67,67.69,83.35Z"/><path class="cls-13" d="M232.31,83.35c19.44-6.32,42.67,46,17.85,54.83C227.49,146.24,219,87.67,232.31,83.35Z"/><path class="cls-3" d="M14.48,274.7s-12.77,18.81-2.72,28.86c5.38,5.38,12.19,2.55,17.35-1.24,2,4.47,5.22,8.42,10.49,9.5,13.92,2.85,16.22-20.92,16.22-20.92"/><path class="cls-14" d="M14.48,274.7a62.77,62.77,0,0,0-3.63,11.89c-.73,3.92-.79,7.91.49,11a10.1,10.1,0,0,0,2.81,3.86,6.36,6.36,0,0,0,3.77,1.66,9.76,9.76,0,0,0,4.44-.88,24.82,24.82,0,0,0,4.69-2.72L30.58,297l1.71,3.88a20.51,20.51,0,0,0,2.31,4,11.56,11.56,0,0,0,3.13,2.82,9.89,9.89,0,0,0,3.91,1.3,7.77,7.77,0,0,0,1.93,0,7.05,7.05,0,0,0,1.85-.65c2.49-1.23,4.64-4.13,6.28-7.24a61.69,61.69,0,0,0,4.12-10.21,31.83,31.83,0,0,1-.08,5.69,33,33,0,0,1-1,5.7,24,24,0,0,1-2.21,5.59,14.82,14.82,0,0,1-4.28,5,12,12,0,0,1-3.21,1.63,12.21,12.21,0,0,1-3.58.56,15,15,0,0,1-6.76-1.55,16.52,16.52,0,0,1-5.37-4.25,23.11,23.11,0,0,1-1.93-2.67,29.43,29.43,0,0,1-1.48-2.83l5.24,1.39a27,27,0,0,1-6.2,3.55,15.47,15.47,0,0,1-7.85,1.14A12.65,12.65,0,0,1,9.78,306,15.29,15.29,0,0,1,6,299.35a18.33,18.33,0,0,1-.38-7.26,27.52,27.52,0,0,1,1.85-6.54,36.68,36.68,0,0,1,3.08-5.78A35,35,0,0,1,14.48,274.7Z"/><path class="cls-3" d="M244.18,291.24s2.3,23.76,16.22,20.91c5.27-1.08,8.51-5,10.49-9.5,5.16,3.79,12,6.63,17.35,1.24,10.05-10-2.72-28.85-2.72-28.85"/><path class="cls-14" d="M244.18,291.24a61.18,61.18,0,0,0,4.12,10.21c1.63,3.11,3.78,6,6.27,7.25a7.47,7.47,0,0,0,1.86.64,7.32,7.32,0,0,0,1.93,0,9.89,9.89,0,0,0,3.91-1.3,11.58,11.58,0,0,0,3.13-2.82,19.82,19.82,0,0,0,2.31-4l1.71-3.87,3.53,2.48a26,26,0,0,0,4.69,2.72,9.74,9.74,0,0,0,4.44.87,6.43,6.43,0,0,0,3.76-1.66,10,10,0,0,0,2.81-3.86c1.28-3.09,1.22-7.07.49-11A62.64,62.64,0,0,0,285.52,275a34.44,34.44,0,0,1,4,5.06,36.68,36.68,0,0,1,3.08,5.78,27.52,27.52,0,0,1,1.85,6.54,18.32,18.32,0,0,1-.38,7.26,15.27,15.27,0,0,1-3.83,6.69,12.62,12.62,0,0,1-7.35,3.78,14,14,0,0,1-4.14-.08A17.59,17.59,0,0,1,275,309a27.52,27.52,0,0,1-6.19-3.55l5.24-1.4a28.3,28.3,0,0,1-1.48,2.83,23.11,23.11,0,0,1-1.93,2.67,16.69,16.69,0,0,1-5.38,4.25,15,15,0,0,1-6.75,1.54,11.89,11.89,0,0,1-3.58-.56,11.75,11.75,0,0,1-3.2-1.62,14.81,14.81,0,0,1-4.28-5,24,24,0,0,1-2.21-5.59,35.89,35.89,0,0,1-1.08-11.38Z"/><path class="cls-3" d="M19.05,241.33S-.1,253.73,4.82,266.58s24.5.91,30.76-.45"/><path class="cls-14" d="M19.05,241.33c-1.83,2.15-3.57,4.23-5.18,6.37a48,48,0,0,0-4.22,6.47,17.88,17.88,0,0,0-2.18,6.48,10.19,10.19,0,0,0,.11,3,9.31,9.31,0,0,0,1,2.68,4.92,4.92,0,0,0,1.56,1.79,6.07,6.07,0,0,0,2.4,1,20.82,20.82,0,0,0,7-.17c2.53-.37,5.14-1,7.81-1.55,1.34-.28,2.69-.59,4.07-.81a19.89,19.89,0,0,1,4.23-.4c-2.42,1.4-4.62,3-7,4.41a44.94,44.94,0,0,1-7.68,3.68,21.32,21.32,0,0,1-9.22,1.42,12.47,12.47,0,0,1-5.26-1.73,11.61,11.61,0,0,1-3.91-4.17,15.82,15.82,0,0,1-1.69-5,15.62,15.62,0,0,1,.16-5.16,19.78,19.78,0,0,1,4.16-8.46,30.56,30.56,0,0,1,6.43-5.9A33.11,33.11,0,0,1,15.17,243,24.71,24.71,0,0,1,19.05,241.33Z"/><path class="cls-3" d="M281,241.42s19.15,12.41,14.23,25.25-24.5.91-30.76-.45"/><path class="cls-14" d="M281,241.42a24.75,24.75,0,0,1,3.88,1.69,31.56,31.56,0,0,1,3.65,2.2,30.56,30.56,0,0,1,6.43,5.9,19.78,19.78,0,0,1,4.16,8.46,14.7,14.7,0,0,1-1.53,10.16,11.61,11.61,0,0,1-3.91,4.17,12.47,12.47,0,0,1-5.26,1.73,21.32,21.32,0,0,1-9.22-1.42,44.59,44.59,0,0,1-7.68-3.68c-2.43-1.4-4.63-3-7.05-4.41a20.56,20.56,0,0,1,4.23.4c1.38.23,2.73.53,4.07.81,2.67.57,5.28,1.18,7.81,1.55a20.82,20.82,0,0,0,7,.17,5.92,5.92,0,0,0,2.4-1,4.88,4.88,0,0,0,1.56-1.78,9.48,9.48,0,0,0,1-2.69,10.19,10.19,0,0,0,.11-3,17.94,17.94,0,0,0-2.18-6.48,48,48,0,0,0-4.22-6.47C284.52,245.65,282.78,243.57,281,241.42Z"/><ellipse class="cls-14" cx="51.35" cy="163.72" rx="18.85" ry="12.66" transform="translate(-79.91 53.22) rotate(-32.49)"/><ellipse class="cls-14" cx="248.65" cy="163.72" rx="12.66" ry="18.85" transform="translate(-23.02 285.49) rotate(-57.51)"/><path class="cls-15" d="M195.67,293.15c3.27,3.66,3.9,9.48,2,14.32a17.94,17.94,0,0,0,0,13.46c1.86,4.84,1.23,10.66-2,14.32a11.19,11.19,0,0,1-11,3.75c-13.51-3.14-31.33-10.07-31.33-24.8s17.82-21.66,31.33-24.8A11.19,11.19,0,0,1,195.67,293.15Z"/><path class="cls-15" d="M104.33,293.15c-3.27,3.66-3.9,9.48-2,14.32a17.94,17.94,0,0,1,0,13.46c-1.86,4.84-1.23,10.66,2,14.32a11.19,11.19,0,0,0,11,3.75c13.51-3.14,31.33-10.07,31.33-24.8s-17.82-21.66-31.33-24.8A11.19,11.19,0,0,0,104.33,293.15Z"/><ellipse class="cls-16" cx="150" cy="314.2" rx="18.96" ry="18.42"/><path class="cls-16" d="M184.92,300.52a60.26,60.26,0,0,1-6,5.19c-2.06,1.59-4.17,3.06-6.32,4.47s-4.35,2.73-6.56,4L162.71,316l-3.4,1.75-.13-7.21c2.28,1.05,4.54,2.15,6.76,3.33s4.42,2.4,6.58,3.72,4.28,2.7,6.36,4.2a58.59,58.59,0,0,1,6,4.9,59.48,59.48,0,0,1-7.66-1.36c-2.49-.59-4.93-1.3-7.34-2.06s-4.78-1.62-7.12-2.54-4.65-1.9-6.94-2.92l-7.78-3.49,7.66-3.72,3.44-1.68,3.49-1.57c2.35-1,4.72-2,7.14-2.84s4.87-1.68,7.38-2.37A58.2,58.2,0,0,1,184.92,300.52Z"/><path class="cls-16" d="M115.08,300.52a58.2,58.2,0,0,1,7.73,1.65c2.51.69,5,1.5,7.38,2.37s4.79,1.83,7.14,2.84l3.49,1.57,3.44,1.68,7.66,3.72-7.78,3.49c-2.29,1-4.6,2-6.94,2.92s-4.72,1.77-7.12,2.54-4.85,1.47-7.34,2.06a59.48,59.48,0,0,1-7.66,1.36,58.59,58.59,0,0,1,6-4.9c2.08-1.5,4.21-2.88,6.36-4.2s4.36-2.55,6.58-3.72,4.48-2.28,6.76-3.33l-.13,7.21-3.4-1.75-3.36-1.85c-2.21-1.27-4.42-2.58-6.56-4s-4.26-2.88-6.32-4.47A60.26,60.26,0,0,1,115.08,300.52Z"/><circle class="cls-17" cx="11.29" cy="336.49" r="6.47"/><circle class="cls-17" cx="8.37" cy="327.57" r="6.47"/><circle class="cls-17" cx="9.83" cy="317" r="6.47"/><circle class="cls-5" cx="50.49" cy="298.39" r="39.2"/><circle class="cls-18" cx="50.49" cy="298.39" r="39.2"/><circle class="cls-19" cx="50.49" cy="298.39" r="39.2"/><line class="cls-20" x1="50.49" y1="266.22" x2="50.49" y2="276.19"/><line class="cls-20" x1="50.49" y1="320.6" x2="50.49" y2="330.56"/><line class="cls-20" x1="82.66" y1="298.39" x2="72.7" y2="298.39"/><line class="cls-20" x1="28.28" y1="298.39" x2="18.32" y2="298.39"/><line class="cls-20" x1="73.24" y1="321.14" x2="66.19" y2="314.1"/><line class="cls-20" x1="34.79" y1="282.69" x2="27.74" y2="275.65"/><line class="cls-20" x1="27.74" y1="321.14" x2="34.79" y2="314.1"/><line class="cls-20" x1="66.19" y1="282.69" x2="73.24" y2="275.65"/><path class="cls-8" d="M49.19,298.94c-1.23-2.35-2.31-4.77-3.34-7.22s-2-4.91-2.9-7.4-1.8-5-2.62-7.53-1.6-5.07-2.26-7.67c1.42,2.27,2.71,4.61,4,7s2.43,4.72,3.59,7.11,2.26,4.8,3.3,7.23,2,4.9,2.87,7.42Z"/><path class="cls-8" d="M50,296.47a27.35,27.35,0,0,1,4.12-1.3c1.39-.35,2.81-.61,4.24-.84s2.88-.39,4.35-.48a31.5,31.5,0,0,1,4.46-.06A30.25,30.25,0,0,1,63.27,296c-1.3.67-2.63,1.25-4,1.81s-2.7,1-4.08,1.47a27,27,0,0,1-4.2,1Z"/><circle class="cls-8" cx="50.49" cy="298.39" r="6.28"/></g></svg>