<?xml version="1.0" encoding="UTF-8" standalone="no"?>
<!-- Generator: Adobe Illustrator 27.9.0, SVG Export Plug-In . SVG Version: 6.00 Build 0)  -->

<svg version="1.1" id="Layer_1" x="0px" y="0px" viewBox="0 0 300 345" style="enable-background:new 0 0 300 345;"
   xml:space="preserve" sodipodi:docname="Xotic1.svg" inkscape:version="1.3.2 (091e20e, 2023-11-25, custom)"
   xmlns:inkscape="http://www.inkscape.org/namespaces/inkscape"
   xmlns:sodipodi="http://sodipodi.sourceforge.net/DTD/sodipodi-0.dtd" xmlns="http://www.w3.org/2000/svg"
   xmlns:svg="http://www.w3.org/2000/svg">
   <defs id="defs40" />
   <sodipodi:namedview id="namedview40" pagecolor="#ffffff" bordercolor="#000000" borderopacity="0.25"
      inkscape:showpageshadow="2" inkscape:pageopacity="0.0" inkscape:pagecheckerboard="0" inkscape:deskcolor="#d1d1d1"
      inkscape:zoom="1.6827092" inkscape:cx="282.58002" inkscape:cy="170.85543" inkscape:window-width="1920"
      inkscape:window-height="1017" inkscape:window-x="-8" inkscape:window-y="-8" inkscape:window-maximized="1"
      inkscape:current-layer="Layer_1" />
   <style type="text/css" id="style1">
      .st0 {
         fill: url(#SVGID_1_);
      }

      .st1 {
         fill: #202020;
      }

      .st2 {
         fill: #303030;
      }

      .st3 {
         fill: #2C2C2C;
      }

      .st4 {
         fill: none;
         stroke: #000000;
         stroke-width: 10;
         stroke-linecap: round;
         stroke-miterlimit: 10;
      }

      .st5 {
         fill: none;
         stroke: #000000;
         stroke-width: 7;
         stroke-linecap: round;
         stroke-miterlimit: 10;
      }

      .st6 {
         fill: #222222;
      }

      .st7 {
         fill: #414042;
      }

      .st8 {
         fill: #575CE4;
      }

      .st9 {
         fill: #DD7399;
      }

      .st10 {
         fill: #191919;
      }

      .st11 {
         fill: #FFFFFF;
      }

      .st12 {
         fill: #777777;
         stroke: #555555;
         stroke-miterlimit: 10;
      }
   </style>


















   <g id="xotic-pink" inkscape:label="xotic-pink" style="enable-background:new 0 0 300 345">

      <linearGradient id="linearGradient243" gradientUnits="userSpaceOnUse" x1="150" y1="-10.11" x2="150" y2="184.84"
         gradientTransform="matrix(1 0 0 -1 0 346)">
         <stop offset="0" style="stop-color:#252525" id="stop242" />
         <stop offset="0.69" style="stop-color:#000000" id="stop243" />
      </linearGradient>
      <path class="st0"
         d="M263.6,345H36.4C16.3,345,0,328.7,0,308.6c0,0,0,0,0,0v-49.5h300v49.5C300,328.7,283.7,345,263.6,345z"
         id="path243" />
      <path class="st1"
         d="M0,195l0,67l0,0c0,20.1,16.3,36.4,36.4,36.4h227.2l0,0c20.1,0,36.4-16.3,36.4-36.4v-67   c0-82.8-57.4-136.4-150-136.4C57.4,58.6,0,112.2,0,195z"
         id="path244" />
      <path class="st2" d="M94.5,298.4h111.3c0,0,25.9-98.3-55.8-98.3s-55.8,98.3-55.8,98.3H94.5z" id="path245" />
      <path class="st3" d="M94.2,298.4h111.6V345H94.2V298.4z" id="path246" />
      <path class="st4" d="M174,266.9c-18.1-7.9-24-27.7-24-27.7s-5.9,19.7-24,27.7" id="path247" />
      <path d="M127.8,225.9c0,9.4,12.9,18.2,22.2,18.2s22.2-10,22.2-18.2S127.8,216.5,127.8,225.9z" id="path248" />
      <path class="st5" d="M250.3,271.6l27,9.3 M250.1,257l30.4,1.3 M49.7,271.6l-27,9.3 M49.9,257l-30.4,1.3"
         id="path249" />
      <path class="st6"
         d="M276,208.7l-67.7,19.1c0,0-32.3-54.3,17.4-68.3s50.4,49.2,50.4,49.2L276,208.7z M24,208.7l67.7,19.1   c0,0,32.3-54.3-17.4-68.3s-50.4,49.2-50.4,49.2L24,208.7z"
         id="path250" />
      <path class="st7"
         d="M93.9,208.8c0,20.1-16.3,36.4-36.5,36.4S21,228.9,21,208.8c0-20.1,16.3-30.4,36.5-30.4S93.9,188.7,93.9,208.8z   "
         id="path251" />
      <path class="st8"
         d="M93.9,216.6c0,18.8-16.3,34.1-36.5,34.1S21,235.4,21,216.6s16.3-28,36.5-28S93.9,197.7,93.9,216.6z"
         id="path252" inkscape:label="eye-l" style="fill:#e571ab;fill-opacity:1" />
      <path class="st1"
         d="M200.9,93.9c19.8-37.9,79.4-55,79.4-55h-0.1c0,0,20,58.7,0.2,96.6c0,0-14.2,2.2-43.7-13.2   S200.9,93.9,200.9,93.9z M99.1,93.9c-19.8-37.9-79.4-55-79.4-55h0.1c0,0-20,58.7-0.2,96.6c0,0,14.2,2.2,43.7-13.2   S99.1,93.9,99.1,93.9z"
         id="path253" />
      <path class="st9"
         d="M69.7,92.2c-9.5-18.3-38.2-26.5-38.2-26.5s-9.6,28.3,0,46.5c0,0,6.9,1.1,21.1-6.3S69.7,92.2,69.7,92.2z    M230.3,92.2c9.5-18.3,38.2-26.5,38.2-26.5s9.6,28.3,0.1,46.5c0,0-6.9,1.1-21.1-6.3S230.3,92.2,230.3,92.2L230.3,92.2z"
         id="path254" />
      <path class="st1" d="M119.8,77.5l-18.2,40.4c0,0,30.6,4.3,49.9-19.2l-1.3,31.3c0,0,39.4-10.8,39.4-45"
         id="path255" />
      <g id="g257">
         <path class="st10"
            d="M119.8,77.5c-0.9,3.6-2,7.2-3.2,10.7l-3.8,10.4c-1.3,3.4-2.7,6.9-4.2,10.3s-3.1,6.7-4.8,10l-1.8-3.3    c2.2,0.2,4.4,0.3,6.6,0.3c2.2,0,4.5-0.2,6.7-0.5c4.4-0.5,8.8-1.6,13-3.1c2.1-0.8,4.1-1.7,6.1-2.7c5.9-3.1,11.1-7.3,15.4-12.4    l4.4-5.4l-0.3,6.9l-1.3,31.2l-2.9-2.4c2.3-0.8,4.7-1.9,7-3s4.6-2.3,6.8-3.6c4.4-2.6,8.5-5.6,12.2-9.2c3.6-3.5,6.6-7.6,8.9-12.2    c2.3-4.7,4-9.6,5.2-14.7c0.6,2.7,0.8,5.5,0.6,8.2c0,0.7-0.1,1.4-0.2,2.1c-0.1,0.7-0.2,1.4-0.3,2.1c-0.3,1.4-0.7,2.7-1.2,4.1    c-0.5,1.3-1,2.6-1.7,3.9c-0.7,1.2-1.4,2.5-2.1,3.7c-1.5,2.4-3.3,4.6-5.2,6.7c-3.9,4-8.3,7.5-13.2,10.2c-2.4,1.4-4.9,2.6-7.5,3.7    c-2.6,1.1-5.3,2-8,2.6l-3.1,0.9l1.4-34.5l4.1,1.6c-3.1,3.7-6.6,7.1-10.6,9.9c-2,1.4-4.1,2.6-6.2,3.8c-2.2,1.1-4.4,2.1-6.6,2.9    c-4.5,1.6-9.2,2.7-14,3.3c-2.4,0.3-4.8,0.5-7.2,0.5h-3.6c-1.2,0-2.4-0.1-3.7-0.3l-2.9-0.2l1.1-3c1.2-3.5,2.7-6.9,4.3-10.2    s3.2-6.7,4.9-10s3.4-6.6,5.3-9.8S117.7,80.6,119.8,77.5z"
            id="path256" />

         <ellipse transform="matrix(0.234 -0.9722 0.9722 0.234 -94.0925 210.7638)" class="st10" cx="86.7" cy="165.1"
            rx="12.7" ry="18.9" id="ellipse256" />

         <ellipse transform="matrix(0.9722 -0.234 0.234 0.9722 -32.7216 54.4833)" class="st10" cx="213.3" cy="165.2"
            rx="18.9" ry="12.7" id="ellipse257" />
      </g>
      <path
         d="M78.5,215.5c-0.1,0-0.2,0.1-0.3,0.1c-1.3,0.4-2.7,0.6-4,0.6c-7.3,0-13.2-5.9-13.2-13.2c0-2.6,0.8-5.2,2.2-7.4h-0.4   c-11.6,0-15.8,10.2-15.8,22.7s4.4,22.7,15.8,22.7c11.4,0,15.8-10.2,15.8-22.7C78.6,217.4,78.6,216.4,78.5,215.5z M58.2,233.4   L58.2,233.4c-3,0-5.5-2.5-5.5-5.5c0-3,2.4-5.5,5.5-5.5c3,0,5.5,2.4,5.5,5.5S61.2,233.4,58.2,233.4z"
         id="path257" />
      <path class="st11"
         d="M78.8,215.3c-0.2,0.1-0.4,0.2-0.6,0.3c-1.3,0.4-2.7,0.6-4,0.6c-7.3,0-13.2-5.9-13.2-13.2   c0-2.6,0.8-5.2,2.2-7.4c0.1-0.1,0.1-0.2,0.2-0.2c2.5-2.8,11.5-1.9,15.7,3.4C83.5,204.3,82.3,213.5,78.8,215.3z"
         id="path258" />
      <path class="st7"
         d="M242.6,178.4c20.1,0,36.4,10.3,36.4,30.4c0,20.1-16.3,36.4-36.4,36.4s-36.5-16.3-36.5-36.4   C206.1,188.7,222.4,178.4,242.6,178.4z"
         id="path259" />
      <path class="st11"
         d="M63.6,227.9c0,3-2.4,5.5-5.5,5.5h0c-3,0-5.4-2.5-5.4-5.5c0-3,2.4-5.5,5.5-5.5   C61.2,222.4,63.6,224.9,63.6,227.9z"
         id="path260" />
      <path class="st8"
         d="M279,216.6c0,18.8-16.3,34.1-36.4,34.1s-36.4-15.3-36.4-34.1s16.3-28,36.4-28S279,197.7,279,216.6z"
         id="path261" inkscape:label="eye-r" style="fill:#e571ab;fill-opacity:1" />
      <path
         d="M252.9,215.5c-0.1,0-0.2,0.1-0.3,0.1c-1.3,0.4-2.7,0.6-4,0.6c-7.3,0-13.2-5.9-13.2-13.2c0-2.6,0.8-5.2,2.2-7.4h-0.4   c-11.6,0-15.8,10.2-15.8,22.7s4.4,22.7,15.8,22.7c11.4,0,15.8-10.2,15.8-22.7C252.9,217.4,252.9,216.4,252.9,215.5z M232.5,233.4   L232.5,233.4c-3,0-5.5-2.5-5.5-5.5c0-3,2.4-5.5,5.5-5.5c3,0,5.5,2.4,5.5,5.5S235.5,233.4,232.5,233.4z"
         id="path262" />
      <path class="st11"
         d="M253.2,215.4c-0.2,0.1-0.4,0.2-0.6,0.3c-1.3,0.4-2.7,0.6-4,0.6c-7.3,0-13.2-5.9-13.2-13.2   c0-2.6,0.8-5.2,2.2-7.4c0.1-0.1,0.1-0.2,0.2-0.2c2.5-2.8,11.5-1.9,15.8,3.4C257.9,204.3,256.7,213.5,253.2,215.4z"
         id="path263" />
      <path class="st11"
         d="M238,227.9c0,3-2.4,5.5-5.5,5.5h0c-3,0-5.4-2.5-5.4-5.5c0-3,2.4-5.5,5.5-5.5C235.5,222.5,238,224.9,238,227.9   z"
         id="path264" />
      <path class="st12"
         d="M16.4,286.1C8,285.9,1,292.4,0.7,300.8c-0.3,8.4,6.3,15.4,14.7,15.7c8.4,0.3,15.4-6.3,15.7-14.7  C31.4,293.4,24.8,286.4,16.4,286.1z M15.5,312.5c-6.2-0.2-11-5.4-10.8-11.6c0.2-6.2,5.4-11.1,11.6-10.8c6.2,0.2,11.1,5.4,10.8,11.6  C26.9,307.9,21.7,312.7,15.5,312.5z"
         id="path265" style="enable-background:new 0 0 300 345" />
      <path class="st12"
         d="M51.4,297c-8.3,1.3-14,9-12.7,17.3c1.3,8.3,9,14,17.3,12.7c8.3-1.3,14-9,12.7-17.3  C67.4,301.4,59.7,295.7,51.4,297z M55.4,323.1c-6.1,0.9-11.8-3.3-12.8-9.4c-0.9-6.1,3.3-11.9,9.4-12.8c6.1-0.9,11.9,3.3,12.8,9.4  C65.7,316.4,61.5,322.1,55.4,323.1z"
         id="path266" style="enable-background:new 0 0 300 345" />
      <path class="st12"
         d="M43.1,314.2l-19-4.8c-1.6-0.3-2.5-2.3-2.1-4.2c0.4-2.1,2.3-3.8,4-3.2c6.3,1.6,12.6,3.2,19,4.8  c1.4,0.6,2,2.6,1.5,4.4C46,313.1,44.5,314.3,43.1,314.2z"
         id="path267" style="enable-background:new 0 0 300 345" />
      <path class="st12"
         d="M89.1,305c-8.2,1.5-13.7,9.5-12.1,17.7c1.5,8.2,9.5,13.7,17.7,12.1c8.2-1.5,13.7-9.5,12.1-17.7  C105.3,308.9,97.4,303.5,89.1,305z M94,331c-6.1,1.1-11.9-2.9-13.1-9c-1.1-6.1,2.9-12,9-13.1c6.1-1.1,12,2.9,13.1,9  C104.1,324,100.1,329.8,94,331z"
         id="path268" style="enable-background:new 0 0 300 345" />
      <path class="st12"
         d="M81.5,322.5l-19.1-4.2c-1.6-0.2-2.6-2.2-2.3-4.1c0.4-2.1,2.2-3.8,3.9-3.3c6.4,1.4,12.7,2.8,19.1,4.2  c1.4,0.6,2.1,2.5,1.6,4.4C84.3,321.3,82.9,322.6,81.5,322.5z"
         id="path269" style="enable-background:new 0 0 300 345" />
      <path class="st12"
         d="M125.6,308.1c-7.8,3-11.7,11.8-8.6,19.7c3,7.8,11.8,11.7,19.7,8.6c7.8-3,11.7-11.8,8.6-19.7  C142.2,308.9,133.4,305,125.6,308.1z M135.2,332.7c-5.8,2.2-12.3-0.6-14.5-6.4c-2.2-5.8,0.6-12.3,6.4-14.5  c5.8-2.2,12.3,0.6,14.5,6.4C143.8,323.9,141,330.4,135.2,332.7z"
         id="path270" style="enable-background:new 0 0 300 345" />
      <path class="st12"
         d="M121.3,326.7l-19.6-0.6c-1.6,0.1-3-1.7-3-3.6c0-2.2,1.4-4.2,3.2-4c6.5,0.2,13,0.4,19.6,0.6  c1.5,0.3,2.5,2.1,2.4,4C123.8,324.9,122.7,326.5,121.3,326.7z"
         id="path271" style="enable-background:new 0 0 300 345" />
      <path class="st12"
         d="M164.7,309.9c-7.9,2.9-11.9,11.7-8.9,19.5c2.9,7.9,11.7,11.9,19.5,8.9c7.9-2.9,11.9-11.7,8.9-19.5  C181.3,311,172.6,307,164.7,309.9z M173.9,334.7c-5.8,2.2-12.3-0.8-14.4-6.6c-2.2-5.8,0.8-12.3,6.6-14.4c5.8-2.2,12.3,0.8,14.4,6.6  C182.7,326.1,179.8,332.5,173.9,334.7z"
         id="path272" style="enable-background:new 0 0 300 345" />
      <path class="st12"
         d="M160.1,328.5l-19.6-0.9c-1.6,0-2.9-1.7-2.9-3.7c0-2.2,1.5-4.1,3.3-3.9c6.5,0.3,13,0.6,19.6,0.9  c1.5,0.3,2.5,2.1,2.3,4.1C162.7,326.8,161.6,328.3,160.1,328.5z"
         id="path273" style="enable-background:new 0 0 300 345" />
      <path class="st12"
         d="M201.2,306.7c-7.2,4.3-9.5,13.7-5.2,20.8c4.3,7.2,13.7,9.5,20.8,5.2c7.2-4.3,9.5-13.7,5.2-20.8  C217.7,304.7,208.4,302.4,201.2,306.7z M214.8,329.3c-5.3,3.2-12.2,1.5-15.4-3.8c-3.2-5.3-1.5-12.2,3.8-15.4  c5.3-3.2,12.2-1.5,15.4,3.8C221.8,319.2,220.1,326.1,214.8,329.3z"
         id="path274" style="enable-background:new 0 0 300 345" />
      <path class="st12"
         d="M200.1,325.8l-19.4,2.7c-1.6,0.3-3.2-1.1-3.6-3.1c-0.4-2.1,0.7-4.3,2.5-4.5c6.5-0.9,12.9-1.8,19.4-2.7  c1.5,0,2.8,1.6,3,3.6C202.3,323.6,201.5,325.4,200.1,325.8z"
         id="path275" style="enable-background:new 0 0 300 345" />
      <path class="st12"
         d="M239.2,299.8c-7,4.6-9,14-4.5,21c4.6,7,14,9,21,4.5c7-4.6,9.1-14,4.5-21C255.6,297.3,246.2,295.2,239.2,299.8z   M253.6,322c-5.2,3.4-12.1,1.9-15.5-3.3c-3.4-5.2-1.9-12.1,3.3-15.5c5.2-3.4,12.2-1.9,15.5,3.3C260.2,311.7,258.8,318.6,253.6,322z"
         id="path276" style="enable-background:new 0 0 300 345" />
      <path class="st12"
         d="M238.7,318.9l-19.3,3.3c-1.6,0.4-3.2-1-3.7-3c-0.5-2.1,0.6-4.4,2.4-4.6c6.4-1.1,12.9-2.2,19.3-3.3  c1.5,0,2.9,1.5,3.2,3.5C240.9,316.7,240.1,318.4,238.7,318.9z"
         id="path277" style="enable-background:new 0 0 300 345" />
      <path class="st12"
         d="M274.1,288.8c-6.1,5.8-6.3,15.4-0.5,21.5c5.8,6.1,15.4,6.3,21.5,0.5c6.1-5.8,6.3-15.4,0.5-21.5  C289.8,283.2,280.2,283,274.1,288.8z M292.3,307.9c-4.5,4.3-11.6,4.1-15.9-0.4c-4.3-4.5-4.1-11.6,0.4-15.9  c4.5-4.3,11.6-4.1,15.9,0.4C297,296.5,296.8,303.6,292.3,307.9z"
         id="path278" style="enable-background:new 0 0 300 345" />
      <path class="st12"
         d="M277.2,307.6l-18.3,6.8c-1.5,0.7-3.4-0.4-4.2-2.2c-0.9-2-0.2-4.4,1.5-4.9c6.1-2.3,12.2-4.6,18.3-6.8  c1.5-0.3,3.1,1,3.7,2.8C278.8,305,278.4,306.9,277.2,307.6z"
         id="path279" style="enable-background:new 0 0 300 345" />
      <path class="st11"
         d="M79.4,298.8c-2.9,3-2,8.5-2.4,8.5c-0.4,0,0.6-5.4-2.3-8.4c-2.9-3.1-8.6-2.2-8.6-2.7c0-0.5,5.7,0.6,8.6-2.3  c3-3,1.9-8.7,2.3-8.7c0.4,0-0.5,5.6,2.4,8.5c3,3,8.7,1.9,8.7,2.3C88.2,296.6,82.4,295.7,79.4,298.8z"
         id="path280" style="enable-background:new 0 0 300 345" />
      <path class="st11"
         d="M265.3,328.4c-2.1,2.2-1.4,6.2-1.7,6.2c-0.3,0,0.4-3.9-1.7-6.1c-2.1-2.2-6.2-1.6-6.2-1.9  c0-0.3,4.1,0.5,6.2-1.7c2.1-2.1,1.4-6.3,1.7-6.3c0.3,0-0.4,4,1.8,6.1c2.2,2.1,6.3,1.4,6.3,1.7C271.7,326.7,267.5,326.1,265.3,328.4z  "
         id="path281" style="enable-background:new 0 0 300 345" />
   </g>
   <g id="xotic-purple" inkscape:label="xotic-purple">

      <linearGradient id="linearGradient80" gradientUnits="userSpaceOnUse" x1="150" y1="-10.11" x2="150" y2="184.84"
         gradientTransform="matrix(1 0 0 -1 0 346)">
         <stop offset="0" style="stop-color:#252525" id="stop79" />
         <stop offset="0.69" style="stop-color:#000000" id="stop80" />
      </linearGradient>
      <path class="st0"
         d="M263.6,345H36.4C16.3,345,0,328.7,0,308.6c0,0,0,0,0,0v-49.5h300v49.5C300,328.7,283.7,345,263.6,345z"
         id="path80" />
      <path class="st1"
         d="M0,195l0,67l0,0c0,20.1,16.3,36.4,36.4,36.4h227.2l0,0c20.1,0,36.4-16.3,36.4-36.4v-67   c0-82.8-57.4-136.4-150-136.4C57.4,58.6,0,112.2,0,195z"
         id="path81" />
      <path class="st2" d="M94.5,298.4h111.3c0,0,25.9-98.3-55.8-98.3s-55.8,98.3-55.8,98.3H94.5z" id="path82" />
      <path class="st3" d="M94.2,298.4h111.6V345H94.2V298.4z" id="path83" />
      <path class="st4" d="M174,266.9c-18.1-7.9-24-27.7-24-27.7s-5.9,19.7-24,27.7" id="path84" />
      <path d="M127.8,225.9c0,9.4,12.9,18.2,22.2,18.2s22.2-10,22.2-18.2S127.8,216.5,127.8,225.9z" id="path85" />
      <path class="st5" d="M250.3,271.6l27,9.3 M250.1,257l30.4,1.3 M49.7,271.6l-27,9.3 M49.9,257l-30.4,1.3"
         id="path86" />
      <path class="st6"
         d="M276,208.7l-67.7,19.1c0,0-32.3-54.3,17.4-68.3s50.4,49.2,50.4,49.2L276,208.7z M24,208.7l67.7,19.1   c0,0,32.3-54.3-17.4-68.3s-50.4,49.2-50.4,49.2L24,208.7z"
         id="path87" />
      <path class="st7"
         d="M93.9,208.8c0,20.1-16.3,36.4-36.5,36.4S21,228.9,21,208.8c0-20.1,16.3-30.4,36.5-30.4S93.9,188.7,93.9,208.8z   "
         id="path88" />
      <path class="st8"
         d="M93.9,216.6c0,18.8-16.3,34.1-36.5,34.1S21,235.4,21,216.6s16.3-28,36.5-28S93.9,197.7,93.9,216.6z" id="path89"
         inkscape:label="eye-l" />
      <path class="st1"
         d="M200.9,93.9c19.8-37.9,79.4-55,79.4-55h-0.1c0,0,20,58.7,0.2,96.6c0,0-14.2,2.2-43.7-13.2   S200.9,93.9,200.9,93.9z M99.1,93.9c-19.8-37.9-79.4-55-79.4-55h0.1c0,0-20,58.7-0.2,96.6c0,0,14.2,2.2,43.7-13.2   S99.1,93.9,99.1,93.9z"
         id="path90" />
      <path class="st9"
         d="M69.7,92.2c-9.5-18.3-38.2-26.5-38.2-26.5s-9.6,28.3,0,46.5c0,0,6.9,1.1,21.1-6.3S69.7,92.2,69.7,92.2z    M230.3,92.2c9.5-18.3,38.2-26.5,38.2-26.5s9.6,28.3,0.1,46.5c0,0-6.9,1.1-21.1-6.3S230.3,92.2,230.3,92.2L230.3,92.2z"
         id="path91" />
      <path class="st1" d="M119.8,77.5l-18.2,40.4c0,0,30.6,4.3,49.9-19.2l-1.3,31.3c0,0,39.4-10.8,39.4-45" id="path92" />
      <g id="g94">
         <path class="st10"
            d="M119.8,77.5c-0.9,3.6-2,7.2-3.2,10.7l-3.8,10.4c-1.3,3.4-2.7,6.9-4.2,10.3s-3.1,6.7-4.8,10l-1.8-3.3    c2.2,0.2,4.4,0.3,6.6,0.3c2.2,0,4.5-0.2,6.7-0.5c4.4-0.5,8.8-1.6,13-3.1c2.1-0.8,4.1-1.7,6.1-2.7c5.9-3.1,11.1-7.3,15.4-12.4    l4.4-5.4l-0.3,6.9l-1.3,31.2l-2.9-2.4c2.3-0.8,4.7-1.9,7-3s4.6-2.3,6.8-3.6c4.4-2.6,8.5-5.6,12.2-9.2c3.6-3.5,6.6-7.6,8.9-12.2    c2.3-4.7,4-9.6,5.2-14.7c0.6,2.7,0.8,5.5,0.6,8.2c0,0.7-0.1,1.4-0.2,2.1c-0.1,0.7-0.2,1.4-0.3,2.1c-0.3,1.4-0.7,2.7-1.2,4.1    c-0.5,1.3-1,2.6-1.7,3.9c-0.7,1.2-1.4,2.5-2.1,3.7c-1.5,2.4-3.3,4.6-5.2,6.7c-3.9,4-8.3,7.5-13.2,10.2c-2.4,1.4-4.9,2.6-7.5,3.7    c-2.6,1.1-5.3,2-8,2.6l-3.1,0.9l1.4-34.5l4.1,1.6c-3.1,3.7-6.6,7.1-10.6,9.9c-2,1.4-4.1,2.6-6.2,3.8c-2.2,1.1-4.4,2.1-6.6,2.9    c-4.5,1.6-9.2,2.7-14,3.3c-2.4,0.3-4.8,0.5-7.2,0.5h-3.6c-1.2,0-2.4-0.1-3.7-0.3l-2.9-0.2l1.1-3c1.2-3.5,2.7-6.9,4.3-10.2    s3.2-6.7,4.9-10s3.4-6.6,5.3-9.8S117.7,80.6,119.8,77.5z"
            id="path93" />

         <ellipse transform="matrix(0.234 -0.9722 0.9722 0.234 -94.0925 210.7638)" class="st10" cx="86.7" cy="165.1"
            rx="12.7" ry="18.9" id="ellipse93" />

         <ellipse transform="matrix(0.9722 -0.234 0.234 0.9722 -32.7216 54.4833)" class="st10" cx="213.3" cy="165.2"
            rx="18.9" ry="12.7" id="ellipse94" />
      </g>
      <path
         d="M78.5,215.5c-0.1,0-0.2,0.1-0.3,0.1c-1.3,0.4-2.7,0.6-4,0.6c-7.3,0-13.2-5.9-13.2-13.2c0-2.6,0.8-5.2,2.2-7.4h-0.4   c-11.6,0-15.8,10.2-15.8,22.7s4.4,22.7,15.8,22.7c11.4,0,15.8-10.2,15.8-22.7C78.6,217.4,78.6,216.4,78.5,215.5z M58.2,233.4   L58.2,233.4c-3,0-5.5-2.5-5.5-5.5c0-3,2.4-5.5,5.5-5.5c3,0,5.5,2.4,5.5,5.5S61.2,233.4,58.2,233.4z"
         id="path94" />
      <path class="st11"
         d="M78.8,215.3c-0.2,0.1-0.4,0.2-0.6,0.3c-1.3,0.4-2.7,0.6-4,0.6c-7.3,0-13.2-5.9-13.2-13.2   c0-2.6,0.8-5.2,2.2-7.4c0.1-0.1,0.1-0.2,0.2-0.2c2.5-2.8,11.5-1.9,15.7,3.4C83.5,204.3,82.3,213.5,78.8,215.3z"
         id="path95" />
      <path class="st7"
         d="M242.6,178.4c20.1,0,36.4,10.3,36.4,30.4c0,20.1-16.3,36.4-36.4,36.4s-36.5-16.3-36.5-36.4   C206.1,188.7,222.4,178.4,242.6,178.4z"
         id="path96" />
      <path class="st11"
         d="M63.6,227.9c0,3-2.4,5.5-5.5,5.5h0c-3,0-5.4-2.5-5.4-5.5c0-3,2.4-5.5,5.5-5.5   C61.2,222.4,63.6,224.9,63.6,227.9z"
         id="path97" />
      <path class="st8"
         d="M279,216.6c0,18.8-16.3,34.1-36.4,34.1s-36.4-15.3-36.4-34.1s16.3-28,36.4-28S279,197.7,279,216.6z" id="path98"
         inkscape:label="eye-r" />
      <path
         d="M252.9,215.5c-0.1,0-0.2,0.1-0.3,0.1c-1.3,0.4-2.7,0.6-4,0.6c-7.3,0-13.2-5.9-13.2-13.2c0-2.6,0.8-5.2,2.2-7.4h-0.4   c-11.6,0-15.8,10.2-15.8,22.7s4.4,22.7,15.8,22.7c11.4,0,15.8-10.2,15.8-22.7C252.9,217.4,252.9,216.4,252.9,215.5z M232.5,233.4   L232.5,233.4c-3,0-5.5-2.5-5.5-5.5c0-3,2.4-5.5,5.5-5.5c3,0,5.5,2.4,5.5,5.5S235.5,233.4,232.5,233.4z"
         id="path99" />
      <path class="st11"
         d="M253.2,215.4c-0.2,0.1-0.4,0.2-0.6,0.3c-1.3,0.4-2.7,0.6-4,0.6c-7.3,0-13.2-5.9-13.2-13.2   c0-2.6,0.8-5.2,2.2-7.4c0.1-0.1,0.1-0.2,0.2-0.2c2.5-2.8,11.5-1.9,15.8,3.4C257.9,204.3,256.7,213.5,253.2,215.4z"
         id="path100" />
      <path class="st11"
         d="M238,227.9c0,3-2.4,5.5-5.5,5.5h0c-3,0-5.4-2.5-5.4-5.5c0-3,2.4-5.5,5.5-5.5C235.5,222.5,238,224.9,238,227.9   z"
         id="path101" />
      <path class="st12"
         d="M16.4,286.1C8,285.9,1,292.4,0.7,300.8c-0.3,8.4,6.3,15.4,14.7,15.7c8.4,0.3,15.4-6.3,15.7-14.7  C31.4,293.4,24.8,286.4,16.4,286.1z M15.5,312.5c-6.2-0.2-11-5.4-10.8-11.6c0.2-6.2,5.4-11.1,11.6-10.8c6.2,0.2,11.1,5.4,10.8,11.6  C26.9,307.9,21.7,312.7,15.5,312.5z"
         id="path102" style="enable-background:new 0 0 300 345" />
      <path class="st12"
         d="M51.4,297c-8.3,1.3-14,9-12.7,17.3c1.3,8.3,9,14,17.3,12.7c8.3-1.3,14-9,12.7-17.3  C67.4,301.4,59.7,295.7,51.4,297z M55.4,323.1c-6.1,0.9-11.8-3.3-12.8-9.4c-0.9-6.1,3.3-11.9,9.4-12.8c6.1-0.9,11.9,3.3,12.8,9.4  C65.7,316.4,61.5,322.1,55.4,323.1z"
         id="path103" style="enable-background:new 0 0 300 345" />
      <path class="st12"
         d="M43.1,314.2l-19-4.8c-1.6-0.3-2.5-2.3-2.1-4.2c0.4-2.1,2.3-3.8,4-3.2c6.3,1.6,12.6,3.2,19,4.8  c1.4,0.6,2,2.6,1.5,4.4C46,313.1,44.5,314.3,43.1,314.2z"
         id="path104" style="enable-background:new 0 0 300 345" />
      <path class="st12"
         d="M89.1,305c-8.2,1.5-13.7,9.5-12.1,17.7c1.5,8.2,9.5,13.7,17.7,12.1c8.2-1.5,13.7-9.5,12.1-17.7  C105.3,308.9,97.4,303.5,89.1,305z M94,331c-6.1,1.1-11.9-2.9-13.1-9c-1.1-6.1,2.9-12,9-13.1c6.1-1.1,12,2.9,13.1,9  C104.1,324,100.1,329.8,94,331z"
         id="path105" style="enable-background:new 0 0 300 345" />
      <path class="st12"
         d="M81.5,322.5l-19.1-4.2c-1.6-0.2-2.6-2.2-2.3-4.1c0.4-2.1,2.2-3.8,3.9-3.3c6.4,1.4,12.7,2.8,19.1,4.2  c1.4,0.6,2.1,2.5,1.6,4.4C84.3,321.3,82.9,322.6,81.5,322.5z"
         id="path106" style="enable-background:new 0 0 300 345" />
      <path class="st12"
         d="M125.6,308.1c-7.8,3-11.7,11.8-8.6,19.7c3,7.8,11.8,11.7,19.7,8.6c7.8-3,11.7-11.8,8.6-19.7  C142.2,308.9,133.4,305,125.6,308.1z M135.2,332.7c-5.8,2.2-12.3-0.6-14.5-6.4c-2.2-5.8,0.6-12.3,6.4-14.5  c5.8-2.2,12.3,0.6,14.5,6.4C143.8,323.9,141,330.4,135.2,332.7z"
         id="path107" style="enable-background:new 0 0 300 345" />
      <path class="st12"
         d="M121.3,326.7l-19.6-0.6c-1.6,0.1-3-1.7-3-3.6c0-2.2,1.4-4.2,3.2-4c6.5,0.2,13,0.4,19.6,0.6  c1.5,0.3,2.5,2.1,2.4,4C123.8,324.9,122.7,326.5,121.3,326.7z"
         id="path108" style="enable-background:new 0 0 300 345" />
      <path class="st12"
         d="M164.7,309.9c-7.9,2.9-11.9,11.7-8.9,19.5c2.9,7.9,11.7,11.9,19.5,8.9c7.9-2.9,11.9-11.7,8.9-19.5  C181.3,311,172.6,307,164.7,309.9z M173.9,334.7c-5.8,2.2-12.3-0.8-14.4-6.6c-2.2-5.8,0.8-12.3,6.6-14.4c5.8-2.2,12.3,0.8,14.4,6.6  C182.7,326.1,179.8,332.5,173.9,334.7z"
         id="path109" style="enable-background:new 0 0 300 345" />
      <path class="st12"
         d="M160.1,328.5l-19.6-0.9c-1.6,0-2.9-1.7-2.9-3.7c0-2.2,1.5-4.1,3.3-3.9c6.5,0.3,13,0.6,19.6,0.9  c1.5,0.3,2.5,2.1,2.3,4.1C162.7,326.8,161.6,328.3,160.1,328.5z"
         id="path110" style="enable-background:new 0 0 300 345" />
      <path class="st12"
         d="M201.2,306.7c-7.2,4.3-9.5,13.7-5.2,20.8c4.3,7.2,13.7,9.5,20.8,5.2c7.2-4.3,9.5-13.7,5.2-20.8  C217.7,304.7,208.4,302.4,201.2,306.7z M214.8,329.3c-5.3,3.2-12.2,1.5-15.4-3.8c-3.2-5.3-1.5-12.2,3.8-15.4  c5.3-3.2,12.2-1.5,15.4,3.8C221.8,319.2,220.1,326.1,214.8,329.3z"
         id="path111" style="enable-background:new 0 0 300 345" />
      <path class="st12"
         d="M200.1,325.8l-19.4,2.7c-1.6,0.3-3.2-1.1-3.6-3.1c-0.4-2.1,0.7-4.3,2.5-4.5c6.5-0.9,12.9-1.8,19.4-2.7  c1.5,0,2.8,1.6,3,3.6C202.3,323.6,201.5,325.4,200.1,325.8z"
         id="path112" style="enable-background:new 0 0 300 345" />
      <path class="st12"
         d="M239.2,299.8c-7,4.6-9,14-4.5,21c4.6,7,14,9,21,4.5c7-4.6,9.1-14,4.5-21C255.6,297.3,246.2,295.2,239.2,299.8z   M253.6,322c-5.2,3.4-12.1,1.9-15.5-3.3c-3.4-5.2-1.9-12.1,3.3-15.5c5.2-3.4,12.2-1.9,15.5,3.3C260.2,311.7,258.8,318.6,253.6,322z"
         id="path113" style="enable-background:new 0 0 300 345" />
      <path class="st12"
         d="M238.7,318.9l-19.3,3.3c-1.6,0.4-3.2-1-3.7-3c-0.5-2.1,0.6-4.4,2.4-4.6c6.4-1.1,12.9-2.2,19.3-3.3  c1.5,0,2.9,1.5,3.2,3.5C240.9,316.7,240.1,318.4,238.7,318.9z"
         id="path114" style="enable-background:new 0 0 300 345" />
      <path class="st12"
         d="M274.1,288.8c-6.1,5.8-6.3,15.4-0.5,21.5c5.8,6.1,15.4,6.3,21.5,0.5c6.1-5.8,6.3-15.4,0.5-21.5  C289.8,283.2,280.2,283,274.1,288.8z M292.3,307.9c-4.5,4.3-11.6,4.1-15.9-0.4c-4.3-4.5-4.1-11.6,0.4-15.9  c4.5-4.3,11.6-4.1,15.9,0.4C297,296.5,296.8,303.6,292.3,307.9z"
         id="path115" style="enable-background:new 0 0 300 345" />
      <path class="st12"
         d="M277.2,307.6l-18.3,6.8c-1.5,0.7-3.4-0.4-4.2-2.2c-0.9-2-0.2-4.4,1.5-4.9c6.1-2.3,12.2-4.6,18.3-6.8  c1.5-0.3,3.1,1,3.7,2.8C278.8,305,278.4,306.9,277.2,307.6z"
         id="path116" style="enable-background:new 0 0 300 345" />
      <path class="st11"
         d="M79.4,298.8c-2.9,3-2,8.5-2.4,8.5c-0.4,0,0.6-5.4-2.3-8.4c-2.9-3.1-8.6-2.2-8.6-2.7c0-0.5,5.7,0.6,8.6-2.3  c3-3,1.9-8.7,2.3-8.7c0.4,0-0.5,5.6,2.4,8.5c3,3,8.7,1.9,8.7,2.3C88.2,296.6,82.4,295.7,79.4,298.8z"
         id="path117" style="enable-background:new 0 0 300 345" />
      <path class="st11"
         d="M265.3,328.4c-2.1,2.2-1.4,6.2-1.7,6.2c-0.3,0,0.4-3.9-1.7-6.1c-2.1-2.2-6.2-1.6-6.2-1.9  c0-0.3,4.1,0.5,6.2-1.7c2.1-2.1,1.4-6.3,1.7-6.3c0.3,0-0.4,4,1.8,6.1c2.2,2.1,6.3,1.4,6.3,1.7C271.7,326.7,267.5,326.1,265.3,328.4z  "
         id="path118" style="enable-background:new 0 0 300 345" />
   </g>
   <g id="xotic-blue" inkscape:label="xotic-blue" style="enable-background:new 0 0 300 345">

      <linearGradient id="linearGradient201" gradientUnits="userSpaceOnUse" x1="150" y1="-10.11" x2="150" y2="184.84"
         gradientTransform="matrix(1 0 0 -1 0 346)">
         <stop offset="0" style="stop-color:#252525" id="stop200" />
         <stop offset="0.69" style="stop-color:#000000" id="stop201" />
      </linearGradient>
      <path class="st0"
         d="M263.6,345H36.4C16.3,345,0,328.7,0,308.6c0,0,0,0,0,0v-49.5h300v49.5C300,328.7,283.7,345,263.6,345z"
         id="path201" />
      <path class="st1"
         d="M0,195l0,67l0,0c0,20.1,16.3,36.4,36.4,36.4h227.2l0,0c20.1,0,36.4-16.3,36.4-36.4v-67   c0-82.8-57.4-136.4-150-136.4C57.4,58.6,0,112.2,0,195z"
         id="path202" />
      <path class="st2" d="M94.5,298.4h111.3c0,0,25.9-98.3-55.8-98.3s-55.8,98.3-55.8,98.3H94.5z" id="path203" />
      <path class="st3" d="M94.2,298.4h111.6V345H94.2V298.4z" id="path204" />
      <path class="st4" d="M174,266.9c-18.1-7.9-24-27.7-24-27.7s-5.9,19.7-24,27.7" id="path205" />
      <path d="M127.8,225.9c0,9.4,12.9,18.2,22.2,18.2s22.2-10,22.2-18.2S127.8,216.5,127.8,225.9z" id="path206" />
      <path class="st5" d="M250.3,271.6l27,9.3 M250.1,257l30.4,1.3 M49.7,271.6l-27,9.3 M49.9,257l-30.4,1.3"
         id="path207" />
      <path class="st6"
         d="M276,208.7l-67.7,19.1c0,0-32.3-54.3,17.4-68.3s50.4,49.2,50.4,49.2L276,208.7z M24,208.7l67.7,19.1   c0,0,32.3-54.3-17.4-68.3s-50.4,49.2-50.4,49.2L24,208.7z"
         id="path208" />
      <path class="st7"
         d="M93.9,208.8c0,20.1-16.3,36.4-36.5,36.4S21,228.9,21,208.8c0-20.1,16.3-30.4,36.5-30.4S93.9,188.7,93.9,208.8z   "
         id="path209" />
      <path class="st8"
         d="M93.9,216.6c0,18.8-16.3,34.1-36.5,34.1S21,235.4,21,216.6s16.3-28,36.5-28S93.9,197.7,93.9,216.6z"
         id="path210" inkscape:label="eye-l" style="fill:#2969b3;fill-opacity:1" />
      <path class="st1"
         d="M200.9,93.9c19.8-37.9,79.4-55,79.4-55h-0.1c0,0,20,58.7,0.2,96.6c0,0-14.2,2.2-43.7-13.2   S200.9,93.9,200.9,93.9z M99.1,93.9c-19.8-37.9-79.4-55-79.4-55h0.1c0,0-20,58.7-0.2,96.6c0,0,14.2,2.2,43.7-13.2   S99.1,93.9,99.1,93.9z"
         id="path211" />
      <path class="st9"
         d="M69.7,92.2c-9.5-18.3-38.2-26.5-38.2-26.5s-9.6,28.3,0,46.5c0,0,6.9,1.1,21.1-6.3S69.7,92.2,69.7,92.2z    M230.3,92.2c9.5-18.3,38.2-26.5,38.2-26.5s9.6,28.3,0.1,46.5c0,0-6.9,1.1-21.1-6.3S230.3,92.2,230.3,92.2L230.3,92.2z"
         id="path212" />
      <path class="st1" d="M119.8,77.5l-18.2,40.4c0,0,30.6,4.3,49.9-19.2l-1.3,31.3c0,0,39.4-10.8,39.4-45"
         id="path213" />
      <g id="g215">
         <path class="st10"
            d="M119.8,77.5c-0.9,3.6-2,7.2-3.2,10.7l-3.8,10.4c-1.3,3.4-2.7,6.9-4.2,10.3s-3.1,6.7-4.8,10l-1.8-3.3    c2.2,0.2,4.4,0.3,6.6,0.3c2.2,0,4.5-0.2,6.7-0.5c4.4-0.5,8.8-1.6,13-3.1c2.1-0.8,4.1-1.7,6.1-2.7c5.9-3.1,11.1-7.3,15.4-12.4    l4.4-5.4l-0.3,6.9l-1.3,31.2l-2.9-2.4c2.3-0.8,4.7-1.9,7-3s4.6-2.3,6.8-3.6c4.4-2.6,8.5-5.6,12.2-9.2c3.6-3.5,6.6-7.6,8.9-12.2    c2.3-4.7,4-9.6,5.2-14.7c0.6,2.7,0.8,5.5,0.6,8.2c0,0.7-0.1,1.4-0.2,2.1c-0.1,0.7-0.2,1.4-0.3,2.1c-0.3,1.4-0.7,2.7-1.2,4.1    c-0.5,1.3-1,2.6-1.7,3.9c-0.7,1.2-1.4,2.5-2.1,3.7c-1.5,2.4-3.3,4.6-5.2,6.7c-3.9,4-8.3,7.5-13.2,10.2c-2.4,1.4-4.9,2.6-7.5,3.7    c-2.6,1.1-5.3,2-8,2.6l-3.1,0.9l1.4-34.5l4.1,1.6c-3.1,3.7-6.6,7.1-10.6,9.9c-2,1.4-4.1,2.6-6.2,3.8c-2.2,1.1-4.4,2.1-6.6,2.9    c-4.5,1.6-9.2,2.7-14,3.3c-2.4,0.3-4.8,0.5-7.2,0.5h-3.6c-1.2,0-2.4-0.1-3.7-0.3l-2.9-0.2l1.1-3c1.2-3.5,2.7-6.9,4.3-10.2    s3.2-6.7,4.9-10s3.4-6.6,5.3-9.8S117.7,80.6,119.8,77.5z"
            id="path214" />

         <ellipse transform="matrix(0.234 -0.9722 0.9722 0.234 -94.0925 210.7638)" class="st10" cx="86.7" cy="165.1"
            rx="12.7" ry="18.9" id="ellipse214" />

         <ellipse transform="matrix(0.9722 -0.234 0.234 0.9722 -32.7216 54.4833)" class="st10" cx="213.3" cy="165.2"
            rx="18.9" ry="12.7" id="ellipse215" />
      </g>
      <path
         d="M78.5,215.5c-0.1,0-0.2,0.1-0.3,0.1c-1.3,0.4-2.7,0.6-4,0.6c-7.3,0-13.2-5.9-13.2-13.2c0-2.6,0.8-5.2,2.2-7.4h-0.4   c-11.6,0-15.8,10.2-15.8,22.7s4.4,22.7,15.8,22.7c11.4,0,15.8-10.2,15.8-22.7C78.6,217.4,78.6,216.4,78.5,215.5z M58.2,233.4   L58.2,233.4c-3,0-5.5-2.5-5.5-5.5c0-3,2.4-5.5,5.5-5.5c3,0,5.5,2.4,5.5,5.5S61.2,233.4,58.2,233.4z"
         id="path215" />
      <path class="st11"
         d="M78.8,215.3c-0.2,0.1-0.4,0.2-0.6,0.3c-1.3,0.4-2.7,0.6-4,0.6c-7.3,0-13.2-5.9-13.2-13.2   c0-2.6,0.8-5.2,2.2-7.4c0.1-0.1,0.1-0.2,0.2-0.2c2.5-2.8,11.5-1.9,15.7,3.4C83.5,204.3,82.3,213.5,78.8,215.3z"
         id="path216" />
      <path class="st7"
         d="M242.6,178.4c20.1,0,36.4,10.3,36.4,30.4c0,20.1-16.3,36.4-36.4,36.4s-36.5-16.3-36.5-36.4   C206.1,188.7,222.4,178.4,242.6,178.4z"
         id="path217" />
      <path class="st11"
         d="M63.6,227.9c0,3-2.4,5.5-5.5,5.5h0c-3,0-5.4-2.5-5.4-5.5c0-3,2.4-5.5,5.5-5.5   C61.2,222.4,63.6,224.9,63.6,227.9z"
         id="path218" />
      <path class="st8"
         d="M279,216.6c0,18.8-16.3,34.1-36.4,34.1s-36.4-15.3-36.4-34.1s16.3-28,36.4-28S279,197.7,279,216.6z"
         id="path219" inkscape:label="eye-r" style="fill:#2969b2;fill-opacity:1" />
      <path
         d="M252.9,215.5c-0.1,0-0.2,0.1-0.3,0.1c-1.3,0.4-2.7,0.6-4,0.6c-7.3,0-13.2-5.9-13.2-13.2c0-2.6,0.8-5.2,2.2-7.4h-0.4   c-11.6,0-15.8,10.2-15.8,22.7s4.4,22.7,15.8,22.7c11.4,0,15.8-10.2,15.8-22.7C252.9,217.4,252.9,216.4,252.9,215.5z M232.5,233.4   L232.5,233.4c-3,0-5.5-2.5-5.5-5.5c0-3,2.4-5.5,5.5-5.5c3,0,5.5,2.4,5.5,5.5S235.5,233.4,232.5,233.4z"
         id="path220" />
      <path class="st11"
         d="M253.2,215.4c-0.2,0.1-0.4,0.2-0.6,0.3c-1.3,0.4-2.7,0.6-4,0.6c-7.3,0-13.2-5.9-13.2-13.2   c0-2.6,0.8-5.2,2.2-7.4c0.1-0.1,0.1-0.2,0.2-0.2c2.5-2.8,11.5-1.9,15.8,3.4C257.9,204.3,256.7,213.5,253.2,215.4z"
         id="path221" />
      <path class="st11"
         d="M238,227.9c0,3-2.4,5.5-5.5,5.5h0c-3,0-5.4-2.5-5.4-5.5c0-3,2.4-5.5,5.5-5.5C235.5,222.5,238,224.9,238,227.9   z"
         id="path222" />
      <path class="st12"
         d="M16.4,286.1C8,285.9,1,292.4,0.7,300.8c-0.3,8.4,6.3,15.4,14.7,15.7c8.4,0.3,15.4-6.3,15.7-14.7  C31.4,293.4,24.8,286.4,16.4,286.1z M15.5,312.5c-6.2-0.2-11-5.4-10.8-11.6c0.2-6.2,5.4-11.1,11.6-10.8c6.2,0.2,11.1,5.4,10.8,11.6  C26.9,307.9,21.7,312.7,15.5,312.5z"
         id="path223" style="enable-background:new 0 0 300 345" />
      <path class="st12"
         d="M51.4,297c-8.3,1.3-14,9-12.7,17.3c1.3,8.3,9,14,17.3,12.7c8.3-1.3,14-9,12.7-17.3  C67.4,301.4,59.7,295.7,51.4,297z M55.4,323.1c-6.1,0.9-11.8-3.3-12.8-9.4c-0.9-6.1,3.3-11.9,9.4-12.8c6.1-0.9,11.9,3.3,12.8,9.4  C65.7,316.4,61.5,322.1,55.4,323.1z"
         id="path224" style="enable-background:new 0 0 300 345" />
      <path class="st12"
         d="M43.1,314.2l-19-4.8c-1.6-0.3-2.5-2.3-2.1-4.2c0.4-2.1,2.3-3.8,4-3.2c6.3,1.6,12.6,3.2,19,4.8  c1.4,0.6,2,2.6,1.5,4.4C46,313.1,44.5,314.3,43.1,314.2z"
         id="path225" style="enable-background:new 0 0 300 345" />
      <path class="st12"
         d="M89.1,305c-8.2,1.5-13.7,9.5-12.1,17.7c1.5,8.2,9.5,13.7,17.7,12.1c8.2-1.5,13.7-9.5,12.1-17.7  C105.3,308.9,97.4,303.5,89.1,305z M94,331c-6.1,1.1-11.9-2.9-13.1-9c-1.1-6.1,2.9-12,9-13.1c6.1-1.1,12,2.9,13.1,9  C104.1,324,100.1,329.8,94,331z"
         id="path226" style="enable-background:new 0 0 300 345" />
      <path class="st12"
         d="M81.5,322.5l-19.1-4.2c-1.6-0.2-2.6-2.2-2.3-4.1c0.4-2.1,2.2-3.8,3.9-3.3c6.4,1.4,12.7,2.8,19.1,4.2  c1.4,0.6,2.1,2.5,1.6,4.4C84.3,321.3,82.9,322.6,81.5,322.5z"
         id="path227" style="enable-background:new 0 0 300 345" />
      <path class="st12"
         d="M125.6,308.1c-7.8,3-11.7,11.8-8.6,19.7c3,7.8,11.8,11.7,19.7,8.6c7.8-3,11.7-11.8,8.6-19.7  C142.2,308.9,133.4,305,125.6,308.1z M135.2,332.7c-5.8,2.2-12.3-0.6-14.5-6.4c-2.2-5.8,0.6-12.3,6.4-14.5  c5.8-2.2,12.3,0.6,14.5,6.4C143.8,323.9,141,330.4,135.2,332.7z"
         id="path228" style="enable-background:new 0 0 300 345" />
      <path class="st12"
         d="M121.3,326.7l-19.6-0.6c-1.6,0.1-3-1.7-3-3.6c0-2.2,1.4-4.2,3.2-4c6.5,0.2,13,0.4,19.6,0.6  c1.5,0.3,2.5,2.1,2.4,4C123.8,324.9,122.7,326.5,121.3,326.7z"
         id="path229" style="enable-background:new 0 0 300 345" />
      <path class="st12"
         d="M164.7,309.9c-7.9,2.9-11.9,11.7-8.9,19.5c2.9,7.9,11.7,11.9,19.5,8.9c7.9-2.9,11.9-11.7,8.9-19.5  C181.3,311,172.6,307,164.7,309.9z M173.9,334.7c-5.8,2.2-12.3-0.8-14.4-6.6c-2.2-5.8,0.8-12.3,6.6-14.4c5.8-2.2,12.3,0.8,14.4,6.6  C182.7,326.1,179.8,332.5,173.9,334.7z"
         id="path230" style="enable-background:new 0 0 300 345" />
      <path class="st12"
         d="M160.1,328.5l-19.6-0.9c-1.6,0-2.9-1.7-2.9-3.7c0-2.2,1.5-4.1,3.3-3.9c6.5,0.3,13,0.6,19.6,0.9  c1.5,0.3,2.5,2.1,2.3,4.1C162.7,326.8,161.6,328.3,160.1,328.5z"
         id="path231" style="enable-background:new 0 0 300 345" />
      <path class="st12"
         d="M201.2,306.7c-7.2,4.3-9.5,13.7-5.2,20.8c4.3,7.2,13.7,9.5,20.8,5.2c7.2-4.3,9.5-13.7,5.2-20.8  C217.7,304.7,208.4,302.4,201.2,306.7z M214.8,329.3c-5.3,3.2-12.2,1.5-15.4-3.8c-3.2-5.3-1.5-12.2,3.8-15.4  c5.3-3.2,12.2-1.5,15.4,3.8C221.8,319.2,220.1,326.1,214.8,329.3z"
         id="path232" style="enable-background:new 0 0 300 345" />
      <path class="st12"
         d="M200.1,325.8l-19.4,2.7c-1.6,0.3-3.2-1.1-3.6-3.1c-0.4-2.1,0.7-4.3,2.5-4.5c6.5-0.9,12.9-1.8,19.4-2.7  c1.5,0,2.8,1.6,3,3.6C202.3,323.6,201.5,325.4,200.1,325.8z"
         id="path233" style="enable-background:new 0 0 300 345" />
      <path class="st12"
         d="M239.2,299.8c-7,4.6-9,14-4.5,21c4.6,7,14,9,21,4.5c7-4.6,9.1-14,4.5-21C255.6,297.3,246.2,295.2,239.2,299.8z   M253.6,322c-5.2,3.4-12.1,1.9-15.5-3.3c-3.4-5.2-1.9-12.1,3.3-15.5c5.2-3.4,12.2-1.9,15.5,3.3C260.2,311.7,258.8,318.6,253.6,322z"
         id="path234" style="enable-background:new 0 0 300 345" />
      <path class="st12"
         d="M238.7,318.9l-19.3,3.3c-1.6,0.4-3.2-1-3.7-3c-0.5-2.1,0.6-4.4,2.4-4.6c6.4-1.1,12.9-2.2,19.3-3.3  c1.5,0,2.9,1.5,3.2,3.5C240.9,316.7,240.1,318.4,238.7,318.9z"
         id="path235" style="enable-background:new 0 0 300 345" />
      <path class="st12"
         d="M274.1,288.8c-6.1,5.8-6.3,15.4-0.5,21.5c5.8,6.1,15.4,6.3,21.5,0.5c6.1-5.8,6.3-15.4,0.5-21.5  C289.8,283.2,280.2,283,274.1,288.8z M292.3,307.9c-4.5,4.3-11.6,4.1-15.9-0.4c-4.3-4.5-4.1-11.6,0.4-15.9  c4.5-4.3,11.6-4.1,15.9,0.4C297,296.5,296.8,303.6,292.3,307.9z"
         id="path236" style="enable-background:new 0 0 300 345" />
      <path class="st12"
         d="M277.2,307.6l-18.3,6.8c-1.5,0.7-3.4-0.4-4.2-2.2c-0.9-2-0.2-4.4,1.5-4.9c6.1-2.3,12.2-4.6,18.3-6.8  c1.5-0.3,3.1,1,3.7,2.8C278.8,305,278.4,306.9,277.2,307.6z"
         id="path237" style="enable-background:new 0 0 300 345" />
      <path class="st11"
         d="M79.4,298.8c-2.9,3-2,8.5-2.4,8.5c-0.4,0,0.6-5.4-2.3-8.4c-2.9-3.1-8.6-2.2-8.6-2.7c0-0.5,5.7,0.6,8.6-2.3  c3-3,1.9-8.7,2.3-8.7c0.4,0-0.5,5.6,2.4,8.5c3,3,8.7,1.9,8.7,2.3C88.2,296.6,82.4,295.7,79.4,298.8z"
         id="path238" style="enable-background:new 0 0 300 345" />
      <path class="st11"
         d="M265.3,328.4c-2.1,2.2-1.4,6.2-1.7,6.2c-0.3,0,0.4-3.9-1.7-6.1c-2.1-2.2-6.2-1.6-6.2-1.9  c0-0.3,4.1,0.5,6.2-1.7c2.1-2.1,1.4-6.3,1.7-6.3c0.3,0-0.4,4,1.8,6.1c2.2,2.1,6.3,1.4,6.3,1.7C271.7,326.7,267.5,326.1,265.3,328.4z  "
         id="path239" style="enable-background:new 0 0 300 345" />
   </g>
   <g id="xotic-green" inkscape:label="xotic-green" style="enable-background:new 0 0 300 345">

      <linearGradient id="linearGradient41" gradientUnits="userSpaceOnUse" x1="150" y1="-10.11" x2="150" y2="184.84"
         gradientTransform="matrix(1 0 0 -1 0 346)">
         <stop offset="0" style="stop-color:#252525" id="stop40" />
         <stop offset="0.69" style="stop-color:#000000" id="stop41" />
      </linearGradient>
      <path class="st0"
         d="M263.6,345H36.4C16.3,345,0,328.7,0,308.6c0,0,0,0,0,0v-49.5h300v49.5C300,328.7,283.7,345,263.6,345z"
         id="path41" />
      <path class="st1"
         d="M0,195l0,67l0,0c0,20.1,16.3,36.4,36.4,36.4h227.2l0,0c20.1,0,36.4-16.3,36.4-36.4v-67   c0-82.8-57.4-136.4-150-136.4C57.4,58.6,0,112.2,0,195z"
         id="path42" />
      <path class="st2" d="M94.5,298.4h111.3c0,0,25.9-98.3-55.8-98.3s-55.8,98.3-55.8,98.3H94.5z" id="path43" />
      <path class="st3" d="M94.2,298.4h111.6V345H94.2V298.4z" id="path44" />
      <path class="st4" d="M174,266.9c-18.1-7.9-24-27.7-24-27.7s-5.9,19.7-24,27.7" id="path45" />
      <path d="M127.8,225.9c0,9.4,12.9,18.2,22.2,18.2s22.2-10,22.2-18.2S127.8,216.5,127.8,225.9z" id="path46" />
      <path class="st5" d="M250.3,271.6l27,9.3 M250.1,257l30.4,1.3 M49.7,271.6l-27,9.3 M49.9,257l-30.4,1.3"
         id="path47" />
      <path class="st6"
         d="M276,208.7l-67.7,19.1c0,0-32.3-54.3,17.4-68.3s50.4,49.2,50.4,49.2L276,208.7z M24,208.7l67.7,19.1   c0,0,32.3-54.3-17.4-68.3s-50.4,49.2-50.4,49.2L24,208.7z"
         id="path48" />
      <path class="st7"
         d="M93.9,208.8c0,20.1-16.3,36.4-36.5,36.4S21,228.9,21,208.8c0-20.1,16.3-30.4,36.5-30.4S93.9,188.7,93.9,208.8z   "
         id="path49" />
      <path class="st8"
         d="M93.9,216.6c0,18.8-16.3,34.1-36.5,34.1S21,235.4,21,216.6s16.3-28,36.5-28S93.9,197.7,93.9,216.6z" id="path50"
         inkscape:label="eye-l" style="fill:#197b42;fill-opacity:1" />
      <path class="st1"
         d="M200.9,93.9c19.8-37.9,79.4-55,79.4-55h-0.1c0,0,20,58.7,0.2,96.6c0,0-14.2,2.2-43.7-13.2   S200.9,93.9,200.9,93.9z M99.1,93.9c-19.8-37.9-79.4-55-79.4-55h0.1c0,0-20,58.7-0.2,96.6c0,0,14.2,2.2,43.7-13.2   S99.1,93.9,99.1,93.9z"
         id="path51" />
      <path class="st9"
         d="M69.7,92.2c-9.5-18.3-38.2-26.5-38.2-26.5s-9.6,28.3,0,46.5c0,0,6.9,1.1,21.1-6.3S69.7,92.2,69.7,92.2z    M230.3,92.2c9.5-18.3,38.2-26.5,38.2-26.5s9.6,28.3,0.1,46.5c0,0-6.9,1.1-21.1-6.3S230.3,92.2,230.3,92.2L230.3,92.2z"
         id="path52" />
      <path class="st1" d="M119.8,77.5l-18.2,40.4c0,0,30.6,4.3,49.9-19.2l-1.3,31.3c0,0,39.4-10.8,39.4-45" id="path53" />
      <g id="g55">
         <path class="st10"
            d="M119.8,77.5c-0.9,3.6-2,7.2-3.2,10.7l-3.8,10.4c-1.3,3.4-2.7,6.9-4.2,10.3s-3.1,6.7-4.8,10l-1.8-3.3    c2.2,0.2,4.4,0.3,6.6,0.3c2.2,0,4.5-0.2,6.7-0.5c4.4-0.5,8.8-1.6,13-3.1c2.1-0.8,4.1-1.7,6.1-2.7c5.9-3.1,11.1-7.3,15.4-12.4    l4.4-5.4l-0.3,6.9l-1.3,31.2l-2.9-2.4c2.3-0.8,4.7-1.9,7-3s4.6-2.3,6.8-3.6c4.4-2.6,8.5-5.6,12.2-9.2c3.6-3.5,6.6-7.6,8.9-12.2    c2.3-4.7,4-9.6,5.2-14.7c0.6,2.7,0.8,5.5,0.6,8.2c0,0.7-0.1,1.4-0.2,2.1c-0.1,0.7-0.2,1.4-0.3,2.1c-0.3,1.4-0.7,2.7-1.2,4.1    c-0.5,1.3-1,2.6-1.7,3.9c-0.7,1.2-1.4,2.5-2.1,3.7c-1.5,2.4-3.3,4.6-5.2,6.7c-3.9,4-8.3,7.5-13.2,10.2c-2.4,1.4-4.9,2.6-7.5,3.7    c-2.6,1.1-5.3,2-8,2.6l-3.1,0.9l1.4-34.5l4.1,1.6c-3.1,3.7-6.6,7.1-10.6,9.9c-2,1.4-4.1,2.6-6.2,3.8c-2.2,1.1-4.4,2.1-6.6,2.9    c-4.5,1.6-9.2,2.7-14,3.3c-2.4,0.3-4.8,0.5-7.2,0.5h-3.6c-1.2,0-2.4-0.1-3.7-0.3l-2.9-0.2l1.1-3c1.2-3.5,2.7-6.9,4.3-10.2    s3.2-6.7,4.9-10s3.4-6.6,5.3-9.8S117.7,80.6,119.8,77.5z"
            id="path54" />

         <ellipse transform="matrix(0.234 -0.9722 0.9722 0.234 -94.0925 210.7638)" class="st10" cx="86.7" cy="165.1"
            rx="12.7" ry="18.9" id="ellipse54" />

         <ellipse transform="matrix(0.9722 -0.234 0.234 0.9722 -32.7216 54.4833)" class="st10" cx="213.3" cy="165.2"
            rx="18.9" ry="12.7" id="ellipse55" />
      </g>
      <path
         d="M78.5,215.5c-0.1,0-0.2,0.1-0.3,0.1c-1.3,0.4-2.7,0.6-4,0.6c-7.3,0-13.2-5.9-13.2-13.2c0-2.6,0.8-5.2,2.2-7.4h-0.4   c-11.6,0-15.8,10.2-15.8,22.7s4.4,22.7,15.8,22.7c11.4,0,15.8-10.2,15.8-22.7C78.6,217.4,78.6,216.4,78.5,215.5z M58.2,233.4   L58.2,233.4c-3,0-5.5-2.5-5.5-5.5c0-3,2.4-5.5,5.5-5.5c3,0,5.5,2.4,5.5,5.5S61.2,233.4,58.2,233.4z"
         id="path55" />
      <path class="st11"
         d="M78.8,215.3c-0.2,0.1-0.4,0.2-0.6,0.3c-1.3,0.4-2.7,0.6-4,0.6c-7.3,0-13.2-5.9-13.2-13.2   c0-2.6,0.8-5.2,2.2-7.4c0.1-0.1,0.1-0.2,0.2-0.2c2.5-2.8,11.5-1.9,15.7,3.4C83.5,204.3,82.3,213.5,78.8,215.3z"
         id="path56" />
      <path class="st7"
         d="M242.6,178.4c20.1,0,36.4,10.3,36.4,30.4c0,20.1-16.3,36.4-36.4,36.4s-36.5-16.3-36.5-36.4   C206.1,188.7,222.4,178.4,242.6,178.4z"
         id="path57" />
      <path class="st11"
         d="M63.6,227.9c0,3-2.4,5.5-5.5,5.5h0c-3,0-5.4-2.5-5.4-5.5c0-3,2.4-5.5,5.5-5.5   C61.2,222.4,63.6,224.9,63.6,227.9z"
         id="path58" />
      <path class="st8"
         d="M279,216.6c0,18.8-16.3,34.1-36.4,34.1s-36.4-15.3-36.4-34.1s16.3-28,36.4-28S279,197.7,279,216.6z" id="path59"
         inkscape:label="eye-r" style="fill:#197b42;fill-opacity:1" />
      <path
         d="M252.9,215.5c-0.1,0-0.2,0.1-0.3,0.1c-1.3,0.4-2.7,0.6-4,0.6c-7.3,0-13.2-5.9-13.2-13.2c0-2.6,0.8-5.2,2.2-7.4h-0.4   c-11.6,0-15.8,10.2-15.8,22.7s4.4,22.7,15.8,22.7c11.4,0,15.8-10.2,15.8-22.7C252.9,217.4,252.9,216.4,252.9,215.5z M232.5,233.4   L232.5,233.4c-3,0-5.5-2.5-5.5-5.5c0-3,2.4-5.5,5.5-5.5c3,0,5.5,2.4,5.5,5.5S235.5,233.4,232.5,233.4z"
         id="path60" />
      <path class="st11"
         d="M253.2,215.4c-0.2,0.1-0.4,0.2-0.6,0.3c-1.3,0.4-2.7,0.6-4,0.6c-7.3,0-13.2-5.9-13.2-13.2   c0-2.6,0.8-5.2,2.2-7.4c0.1-0.1,0.1-0.2,0.2-0.2c2.5-2.8,11.5-1.9,15.8,3.4C257.9,204.3,256.7,213.5,253.2,215.4z"
         id="path61" />
      <path class="st11"
         d="M238,227.9c0,3-2.4,5.5-5.5,5.5h0c-3,0-5.4-2.5-5.4-5.5c0-3,2.4-5.5,5.5-5.5C235.5,222.5,238,224.9,238,227.9   z"
         id="path62" />
      <path class="st12"
         d="M16.4,286.1C8,285.9,1,292.4,0.7,300.8c-0.3,8.4,6.3,15.4,14.7,15.7c8.4,0.3,15.4-6.3,15.7-14.7  C31.4,293.4,24.8,286.4,16.4,286.1z M15.5,312.5c-6.2-0.2-11-5.4-10.8-11.6c0.2-6.2,5.4-11.1,11.6-10.8c6.2,0.2,11.1,5.4,10.8,11.6  C26.9,307.9,21.7,312.7,15.5,312.5z"
         id="path63" style="enable-background:new 0 0 300 345" />
      <path class="st12"
         d="M51.4,297c-8.3,1.3-14,9-12.7,17.3c1.3,8.3,9,14,17.3,12.7c8.3-1.3,14-9,12.7-17.3  C67.4,301.4,59.7,295.7,51.4,297z M55.4,323.1c-6.1,0.9-11.8-3.3-12.8-9.4c-0.9-6.1,3.3-11.9,9.4-12.8c6.1-0.9,11.9,3.3,12.8,9.4  C65.7,316.4,61.5,322.1,55.4,323.1z"
         id="path64" style="enable-background:new 0 0 300 345" />
      <path class="st12"
         d="M43.1,314.2l-19-4.8c-1.6-0.3-2.5-2.3-2.1-4.2c0.4-2.1,2.3-3.8,4-3.2c6.3,1.6,12.6,3.2,19,4.8  c1.4,0.6,2,2.6,1.5,4.4C46,313.1,44.5,314.3,43.1,314.2z"
         id="path65" style="enable-background:new 0 0 300 345" />
      <path class="st12"
         d="M89.1,305c-8.2,1.5-13.7,9.5-12.1,17.7c1.5,8.2,9.5,13.7,17.7,12.1c8.2-1.5,13.7-9.5,12.1-17.7  C105.3,308.9,97.4,303.5,89.1,305z M94,331c-6.1,1.1-11.9-2.9-13.1-9c-1.1-6.1,2.9-12,9-13.1c6.1-1.1,12,2.9,13.1,9  C104.1,324,100.1,329.8,94,331z"
         id="path66" style="enable-background:new 0 0 300 345" />
      <path class="st12"
         d="M81.5,322.5l-19.1-4.2c-1.6-0.2-2.6-2.2-2.3-4.1c0.4-2.1,2.2-3.8,3.9-3.3c6.4,1.4,12.7,2.8,19.1,4.2  c1.4,0.6,2.1,2.5,1.6,4.4C84.3,321.3,82.9,322.6,81.5,322.5z"
         id="path67" style="enable-background:new 0 0 300 345" />
      <path class="st12"
         d="M125.6,308.1c-7.8,3-11.7,11.8-8.6,19.7c3,7.8,11.8,11.7,19.7,8.6c7.8-3,11.7-11.8,8.6-19.7  C142.2,308.9,133.4,305,125.6,308.1z M135.2,332.7c-5.8,2.2-12.3-0.6-14.5-6.4c-2.2-5.8,0.6-12.3,6.4-14.5  c5.8-2.2,12.3,0.6,14.5,6.4C143.8,323.9,141,330.4,135.2,332.7z"
         id="path68" style="enable-background:new 0 0 300 345" />
      <path class="st12"
         d="M121.3,326.7l-19.6-0.6c-1.6,0.1-3-1.7-3-3.6c0-2.2,1.4-4.2,3.2-4c6.5,0.2,13,0.4,19.6,0.6  c1.5,0.3,2.5,2.1,2.4,4C123.8,324.9,122.7,326.5,121.3,326.7z"
         id="path69" style="enable-background:new 0 0 300 345" />
      <path class="st12"
         d="M164.7,309.9c-7.9,2.9-11.9,11.7-8.9,19.5c2.9,7.9,11.7,11.9,19.5,8.9c7.9-2.9,11.9-11.7,8.9-19.5  C181.3,311,172.6,307,164.7,309.9z M173.9,334.7c-5.8,2.2-12.3-0.8-14.4-6.6c-2.2-5.8,0.8-12.3,6.6-14.4c5.8-2.2,12.3,0.8,14.4,6.6  C182.7,326.1,179.8,332.5,173.9,334.7z"
         id="path70" style="enable-background:new 0 0 300 345" />
      <path class="st12"
         d="M160.1,328.5l-19.6-0.9c-1.6,0-2.9-1.7-2.9-3.7c0-2.2,1.5-4.1,3.3-3.9c6.5,0.3,13,0.6,19.6,0.9  c1.5,0.3,2.5,2.1,2.3,4.1C162.7,326.8,161.6,328.3,160.1,328.5z"
         id="path71" style="enable-background:new 0 0 300 345" />
      <path class="st12"
         d="M201.2,306.7c-7.2,4.3-9.5,13.7-5.2,20.8c4.3,7.2,13.7,9.5,20.8,5.2c7.2-4.3,9.5-13.7,5.2-20.8  C217.7,304.7,208.4,302.4,201.2,306.7z M214.8,329.3c-5.3,3.2-12.2,1.5-15.4-3.8c-3.2-5.3-1.5-12.2,3.8-15.4  c5.3-3.2,12.2-1.5,15.4,3.8C221.8,319.2,220.1,326.1,214.8,329.3z"
         id="path72" style="enable-background:new 0 0 300 345" />
      <path class="st12"
         d="M200.1,325.8l-19.4,2.7c-1.6,0.3-3.2-1.1-3.6-3.1c-0.4-2.1,0.7-4.3,2.5-4.5c6.5-0.9,12.9-1.8,19.4-2.7  c1.5,0,2.8,1.6,3,3.6C202.3,323.6,201.5,325.4,200.1,325.8z"
         id="path73" style="enable-background:new 0 0 300 345" />
      <path class="st12"
         d="M239.2,299.8c-7,4.6-9,14-4.5,21c4.6,7,14,9,21,4.5c7-4.6,9.1-14,4.5-21C255.6,297.3,246.2,295.2,239.2,299.8z   M253.6,322c-5.2,3.4-12.1,1.9-15.5-3.3c-3.4-5.2-1.9-12.1,3.3-15.5c5.2-3.4,12.2-1.9,15.5,3.3C260.2,311.7,258.8,318.6,253.6,322z"
         id="path74" style="enable-background:new 0 0 300 345" />
      <path class="st12"
         d="M238.7,318.9l-19.3,3.3c-1.6,0.4-3.2-1-3.7-3c-0.5-2.1,0.6-4.4,2.4-4.6c6.4-1.1,12.9-2.2,19.3-3.3  c1.5,0,2.9,1.5,3.2,3.5C240.9,316.7,240.1,318.4,238.7,318.9z"
         id="path75" style="enable-background:new 0 0 300 345" />
      <path class="st12"
         d="M274.1,288.8c-6.1,5.8-6.3,15.4-0.5,21.5c5.8,6.1,15.4,6.3,21.5,0.5c6.1-5.8,6.3-15.4,0.5-21.5  C289.8,283.2,280.2,283,274.1,288.8z M292.3,307.9c-4.5,4.3-11.6,4.1-15.9-0.4c-4.3-4.5-4.1-11.6,0.4-15.9  c4.5-4.3,11.6-4.1,15.9,0.4C297,296.5,296.8,303.6,292.3,307.9z"
         id="path76" style="enable-background:new 0 0 300 345" />
      <path class="st12"
         d="M277.2,307.6l-18.3,6.8c-1.5,0.7-3.4-0.4-4.2-2.2c-0.9-2-0.2-4.4,1.5-4.9c6.1-2.3,12.2-4.6,18.3-6.8  c1.5-0.3,3.1,1,3.7,2.8C278.8,305,278.4,306.9,277.2,307.6z"
         id="path77" style="enable-background:new 0 0 300 345" />
      <path class="st11"
         d="M79.4,298.8c-2.9,3-2,8.5-2.4,8.5c-0.4,0,0.6-5.4-2.3-8.4c-2.9-3.1-8.6-2.2-8.6-2.7c0-0.5,5.7,0.6,8.6-2.3  c3-3,1.9-8.7,2.3-8.7c0.4,0-0.5,5.6,2.4,8.5c3,3,8.7,1.9,8.7,2.3C88.2,296.6,82.4,295.7,79.4,298.8z"
         id="path78" style="enable-background:new 0 0 300 345" />
      <path class="st11"
         d="M265.3,328.4c-2.1,2.2-1.4,6.2-1.7,6.2c-0.3,0,0.4-3.9-1.7-6.1c-2.1-2.2-6.2-1.6-6.2-1.9  c0-0.3,4.1,0.5,6.2-1.7c2.1-2.1,1.4-6.3,1.7-6.3c0.3,0-0.4,4,1.8,6.1c2.2,2.1,6.3,1.4,6.3,1.7C271.7,326.7,267.5,326.1,265.3,328.4z  "
         id="path79" style="enable-background:new 0 0 300 345" />
   </g>
   <g id="xotic-yellow" inkscape:label="xotic-yellow" style="enable-background:new 0 0 300 345">

      <linearGradient id="linearGradient160" gradientUnits="userSpaceOnUse" x1="150" y1="-10.11" x2="150" y2="184.84"
         gradientTransform="matrix(1 0 0 -1 0 346)">
         <stop offset="0" style="stop-color:#252525" id="stop159" />
         <stop offset="0.69" style="stop-color:#000000" id="stop160" />
      </linearGradient>
      <path class="st0"
         d="M263.6,345H36.4C16.3,345,0,328.7,0,308.6c0,0,0,0,0,0v-49.5h300v49.5C300,328.7,283.7,345,263.6,345z"
         id="path160" />
      <path class="st1"
         d="M0,195l0,67l0,0c0,20.1,16.3,36.4,36.4,36.4h227.2l0,0c20.1,0,36.4-16.3,36.4-36.4v-67   c0-82.8-57.4-136.4-150-136.4C57.4,58.6,0,112.2,0,195z"
         id="path161" />
      <path class="st2" d="M94.5,298.4h111.3c0,0,25.9-98.3-55.8-98.3s-55.8,98.3-55.8,98.3H94.5z" id="path162" />
      <path class="st3" d="M94.2,298.4h111.6V345H94.2V298.4z" id="path163" />
      <path class="st4" d="M174,266.9c-18.1-7.9-24-27.7-24-27.7s-5.9,19.7-24,27.7" id="path164" />
      <path d="M127.8,225.9c0,9.4,12.9,18.2,22.2,18.2s22.2-10,22.2-18.2S127.8,216.5,127.8,225.9z" id="path165" />
      <path class="st5" d="M250.3,271.6l27,9.3 M250.1,257l30.4,1.3 M49.7,271.6l-27,9.3 M49.9,257l-30.4,1.3"
         id="path166" />
      <path class="st6"
         d="M276,208.7l-67.7,19.1c0,0-32.3-54.3,17.4-68.3s50.4,49.2,50.4,49.2L276,208.7z M24,208.7l67.7,19.1   c0,0,32.3-54.3-17.4-68.3s-50.4,49.2-50.4,49.2L24,208.7z"
         id="path167" />
      <path class="st7"
         d="M93.9,208.8c0,20.1-16.3,36.4-36.5,36.4S21,228.9,21,208.8c0-20.1,16.3-30.4,36.5-30.4S93.9,188.7,93.9,208.8z   "
         id="path168" />
      <path class="st8"
         d="M93.9,216.6c0,18.8-16.3,34.1-36.5,34.1S21,235.4,21,216.6s16.3-28,36.5-28S93.9,197.7,93.9,216.6z"
         id="path169" inkscape:label="eye-l" style="fill:#eccb22;fill-opacity:1" />
      <path class="st1"
         d="M200.9,93.9c19.8-37.9,79.4-55,79.4-55h-0.1c0,0,20,58.7,0.2,96.6c0,0-14.2,2.2-43.7-13.2   S200.9,93.9,200.9,93.9z M99.1,93.9c-19.8-37.9-79.4-55-79.4-55h0.1c0,0-20,58.7-0.2,96.6c0,0,14.2,2.2,43.7-13.2   S99.1,93.9,99.1,93.9z"
         id="path170" />
      <path class="st9"
         d="M69.7,92.2c-9.5-18.3-38.2-26.5-38.2-26.5s-9.6,28.3,0,46.5c0,0,6.9,1.1,21.1-6.3S69.7,92.2,69.7,92.2z    M230.3,92.2c9.5-18.3,38.2-26.5,38.2-26.5s9.6,28.3,0.1,46.5c0,0-6.9,1.1-21.1-6.3S230.3,92.2,230.3,92.2L230.3,92.2z"
         id="path171" />
      <path class="st1" d="M119.8,77.5l-18.2,40.4c0,0,30.6,4.3,49.9-19.2l-1.3,31.3c0,0,39.4-10.8,39.4-45"
         id="path172" />
      <g id="g174">
         <path class="st10"
            d="M119.8,77.5c-0.9,3.6-2,7.2-3.2,10.7l-3.8,10.4c-1.3,3.4-2.7,6.9-4.2,10.3s-3.1,6.7-4.8,10l-1.8-3.3    c2.2,0.2,4.4,0.3,6.6,0.3c2.2,0,4.5-0.2,6.7-0.5c4.4-0.5,8.8-1.6,13-3.1c2.1-0.8,4.1-1.7,6.1-2.7c5.9-3.1,11.1-7.3,15.4-12.4    l4.4-5.4l-0.3,6.9l-1.3,31.2l-2.9-2.4c2.3-0.8,4.7-1.9,7-3s4.6-2.3,6.8-3.6c4.4-2.6,8.5-5.6,12.2-9.2c3.6-3.5,6.6-7.6,8.9-12.2    c2.3-4.7,4-9.6,5.2-14.7c0.6,2.7,0.8,5.5,0.6,8.2c0,0.7-0.1,1.4-0.2,2.1c-0.1,0.7-0.2,1.4-0.3,2.1c-0.3,1.4-0.7,2.7-1.2,4.1    c-0.5,1.3-1,2.6-1.7,3.9c-0.7,1.2-1.4,2.5-2.1,3.7c-1.5,2.4-3.3,4.6-5.2,6.7c-3.9,4-8.3,7.5-13.2,10.2c-2.4,1.4-4.9,2.6-7.5,3.7    c-2.6,1.1-5.3,2-8,2.6l-3.1,0.9l1.4-34.5l4.1,1.6c-3.1,3.7-6.6,7.1-10.6,9.9c-2,1.4-4.1,2.6-6.2,3.8c-2.2,1.1-4.4,2.1-6.6,2.9    c-4.5,1.6-9.2,2.7-14,3.3c-2.4,0.3-4.8,0.5-7.2,0.5h-3.6c-1.2,0-2.4-0.1-3.7-0.3l-2.9-0.2l1.1-3c1.2-3.5,2.7-6.9,4.3-10.2    s3.2-6.7,4.9-10s3.4-6.6,5.3-9.8S117.7,80.6,119.8,77.5z"
            id="path173" />

         <ellipse transform="matrix(0.234 -0.9722 0.9722 0.234 -94.0925 210.7638)" class="st10" cx="86.7" cy="165.1"
            rx="12.7" ry="18.9" id="ellipse173" />

         <ellipse transform="matrix(0.9722 -0.234 0.234 0.9722 -32.7216 54.4833)" class="st10" cx="213.3" cy="165.2"
            rx="18.9" ry="12.7" id="ellipse174" />
      </g>
      <path
         d="M78.5,215.5c-0.1,0-0.2,0.1-0.3,0.1c-1.3,0.4-2.7,0.6-4,0.6c-7.3,0-13.2-5.9-13.2-13.2c0-2.6,0.8-5.2,2.2-7.4h-0.4   c-11.6,0-15.8,10.2-15.8,22.7s4.4,22.7,15.8,22.7c11.4,0,15.8-10.2,15.8-22.7C78.6,217.4,78.6,216.4,78.5,215.5z M58.2,233.4   L58.2,233.4c-3,0-5.5-2.5-5.5-5.5c0-3,2.4-5.5,5.5-5.5c3,0,5.5,2.4,5.5,5.5S61.2,233.4,58.2,233.4z"
         id="path174" />
      <path class="st11"
         d="M78.8,215.3c-0.2,0.1-0.4,0.2-0.6,0.3c-1.3,0.4-2.7,0.6-4,0.6c-7.3,0-13.2-5.9-13.2-13.2   c0-2.6,0.8-5.2,2.2-7.4c0.1-0.1,0.1-0.2,0.2-0.2c2.5-2.8,11.5-1.9,15.7,3.4C83.5,204.3,82.3,213.5,78.8,215.3z"
         id="path175" />
      <path class="st7"
         d="M242.6,178.4c20.1,0,36.4,10.3,36.4,30.4c0,20.1-16.3,36.4-36.4,36.4s-36.5-16.3-36.5-36.4   C206.1,188.7,222.4,178.4,242.6,178.4z"
         id="path176" />
      <path class="st11"
         d="M63.6,227.9c0,3-2.4,5.5-5.5,5.5h0c-3,0-5.4-2.5-5.4-5.5c0-3,2.4-5.5,5.5-5.5   C61.2,222.4,63.6,224.9,63.6,227.9z"
         id="path177" />
      <path class="st8"
         d="M279,216.6c0,18.8-16.3,34.1-36.4,34.1s-36.4-15.3-36.4-34.1s16.3-28,36.4-28S279,197.7,279,216.6z"
         id="path178" inkscape:label="eye-r" style="fill:#edcb21;fill-opacity:1" />
      <path
         d="M252.9,215.5c-0.1,0-0.2,0.1-0.3,0.1c-1.3,0.4-2.7,0.6-4,0.6c-7.3,0-13.2-5.9-13.2-13.2c0-2.6,0.8-5.2,2.2-7.4h-0.4   c-11.6,0-15.8,10.2-15.8,22.7s4.4,22.7,15.8,22.7c11.4,0,15.8-10.2,15.8-22.7C252.9,217.4,252.9,216.4,252.9,215.5z M232.5,233.4   L232.5,233.4c-3,0-5.5-2.5-5.5-5.5c0-3,2.4-5.5,5.5-5.5c3,0,5.5,2.4,5.5,5.5S235.5,233.4,232.5,233.4z"
         id="path179" />
      <path class="st11"
         d="M253.2,215.4c-0.2,0.1-0.4,0.2-0.6,0.3c-1.3,0.4-2.7,0.6-4,0.6c-7.3,0-13.2-5.9-13.2-13.2   c0-2.6,0.8-5.2,2.2-7.4c0.1-0.1,0.1-0.2,0.2-0.2c2.5-2.8,11.5-1.9,15.8,3.4C257.9,204.3,256.7,213.5,253.2,215.4z"
         id="path180" />
      <path class="st11"
         d="M238,227.9c0,3-2.4,5.5-5.5,5.5h0c-3,0-5.4-2.5-5.4-5.5c0-3,2.4-5.5,5.5-5.5C235.5,222.5,238,224.9,238,227.9   z"
         id="path181" />
      <path class="st12"
         d="M16.4,286.1C8,285.9,1,292.4,0.7,300.8c-0.3,8.4,6.3,15.4,14.7,15.7c8.4,0.3,15.4-6.3,15.7-14.7  C31.4,293.4,24.8,286.4,16.4,286.1z M15.5,312.5c-6.2-0.2-11-5.4-10.8-11.6c0.2-6.2,5.4-11.1,11.6-10.8c6.2,0.2,11.1,5.4,10.8,11.6  C26.9,307.9,21.7,312.7,15.5,312.5z"
         id="path182" style="enable-background:new 0 0 300 345" />
      <path class="st12"
         d="M51.4,297c-8.3,1.3-14,9-12.7,17.3c1.3,8.3,9,14,17.3,12.7c8.3-1.3,14-9,12.7-17.3  C67.4,301.4,59.7,295.7,51.4,297z M55.4,323.1c-6.1,0.9-11.8-3.3-12.8-9.4c-0.9-6.1,3.3-11.9,9.4-12.8c6.1-0.9,11.9,3.3,12.8,9.4  C65.7,316.4,61.5,322.1,55.4,323.1z"
         id="path183" style="enable-background:new 0 0 300 345" />
      <path class="st12"
         d="M43.1,314.2l-19-4.8c-1.6-0.3-2.5-2.3-2.1-4.2c0.4-2.1,2.3-3.8,4-3.2c6.3,1.6,12.6,3.2,19,4.8  c1.4,0.6,2,2.6,1.5,4.4C46,313.1,44.5,314.3,43.1,314.2z"
         id="path184" style="enable-background:new 0 0 300 345" />
      <path class="st12"
         d="M89.1,305c-8.2,1.5-13.7,9.5-12.1,17.7c1.5,8.2,9.5,13.7,17.7,12.1c8.2-1.5,13.7-9.5,12.1-17.7  C105.3,308.9,97.4,303.5,89.1,305z M94,331c-6.1,1.1-11.9-2.9-13.1-9c-1.1-6.1,2.9-12,9-13.1c6.1-1.1,12,2.9,13.1,9  C104.1,324,100.1,329.8,94,331z"
         id="path185" style="enable-background:new 0 0 300 345" />
      <path class="st12"
         d="M81.5,322.5l-19.1-4.2c-1.6-0.2-2.6-2.2-2.3-4.1c0.4-2.1,2.2-3.8,3.9-3.3c6.4,1.4,12.7,2.8,19.1,4.2  c1.4,0.6,2.1,2.5,1.6,4.4C84.3,321.3,82.9,322.6,81.5,322.5z"
         id="path186" style="enable-background:new 0 0 300 345" />
      <path class="st12"
         d="M125.6,308.1c-7.8,3-11.7,11.8-8.6,19.7c3,7.8,11.8,11.7,19.7,8.6c7.8-3,11.7-11.8,8.6-19.7  C142.2,308.9,133.4,305,125.6,308.1z M135.2,332.7c-5.8,2.2-12.3-0.6-14.5-6.4c-2.2-5.8,0.6-12.3,6.4-14.5  c5.8-2.2,12.3,0.6,14.5,6.4C143.8,323.9,141,330.4,135.2,332.7z"
         id="path187" style="enable-background:new 0 0 300 345" />
      <path class="st12"
         d="M121.3,326.7l-19.6-0.6c-1.6,0.1-3-1.7-3-3.6c0-2.2,1.4-4.2,3.2-4c6.5,0.2,13,0.4,19.6,0.6  c1.5,0.3,2.5,2.1,2.4,4C123.8,324.9,122.7,326.5,121.3,326.7z"
         id="path188" style="enable-background:new 0 0 300 345" />
      <path class="st12"
         d="M164.7,309.9c-7.9,2.9-11.9,11.7-8.9,19.5c2.9,7.9,11.7,11.9,19.5,8.9c7.9-2.9,11.9-11.7,8.9-19.5  C181.3,311,172.6,307,164.7,309.9z M173.9,334.7c-5.8,2.2-12.3-0.8-14.4-6.6c-2.2-5.8,0.8-12.3,6.6-14.4c5.8-2.2,12.3,0.8,14.4,6.6  C182.7,326.1,179.8,332.5,173.9,334.7z"
         id="path189" style="enable-background:new 0 0 300 345" />
      <path class="st12"
         d="M160.1,328.5l-19.6-0.9c-1.6,0-2.9-1.7-2.9-3.7c0-2.2,1.5-4.1,3.3-3.9c6.5,0.3,13,0.6,19.6,0.9  c1.5,0.3,2.5,2.1,2.3,4.1C162.7,326.8,161.6,328.3,160.1,328.5z"
         id="path190" style="enable-background:new 0 0 300 345" />
      <path class="st12"
         d="M201.2,306.7c-7.2,4.3-9.5,13.7-5.2,20.8c4.3,7.2,13.7,9.5,20.8,5.2c7.2-4.3,9.5-13.7,5.2-20.8  C217.7,304.7,208.4,302.4,201.2,306.7z M214.8,329.3c-5.3,3.2-12.2,1.5-15.4-3.8c-3.2-5.3-1.5-12.2,3.8-15.4  c5.3-3.2,12.2-1.5,15.4,3.8C221.8,319.2,220.1,326.1,214.8,329.3z"
         id="path191" style="enable-background:new 0 0 300 345" />
      <path class="st12"
         d="M200.1,325.8l-19.4,2.7c-1.6,0.3-3.2-1.1-3.6-3.1c-0.4-2.1,0.7-4.3,2.5-4.5c6.5-0.9,12.9-1.8,19.4-2.7  c1.5,0,2.8,1.6,3,3.6C202.3,323.6,201.5,325.4,200.1,325.8z"
         id="path192" style="enable-background:new 0 0 300 345" />
      <path class="st12"
         d="M239.2,299.8c-7,4.6-9,14-4.5,21c4.6,7,14,9,21,4.5c7-4.6,9.1-14,4.5-21C255.6,297.3,246.2,295.2,239.2,299.8z   M253.6,322c-5.2,3.4-12.1,1.9-15.5-3.3c-3.4-5.2-1.9-12.1,3.3-15.5c5.2-3.4,12.2-1.9,15.5,3.3C260.2,311.7,258.8,318.6,253.6,322z"
         id="path193" style="enable-background:new 0 0 300 345" />
      <path class="st12"
         d="M238.7,318.9l-19.3,3.3c-1.6,0.4-3.2-1-3.7-3c-0.5-2.1,0.6-4.4,2.4-4.6c6.4-1.1,12.9-2.2,19.3-3.3  c1.5,0,2.9,1.5,3.2,3.5C240.9,316.7,240.1,318.4,238.7,318.9z"
         id="path194" style="enable-background:new 0 0 300 345" />
      <path class="st12"
         d="M274.1,288.8c-6.1,5.8-6.3,15.4-0.5,21.5c5.8,6.1,15.4,6.3,21.5,0.5c6.1-5.8,6.3-15.4,0.5-21.5  C289.8,283.2,280.2,283,274.1,288.8z M292.3,307.9c-4.5,4.3-11.6,4.1-15.9-0.4c-4.3-4.5-4.1-11.6,0.4-15.9  c4.5-4.3,11.6-4.1,15.9,0.4C297,296.5,296.8,303.6,292.3,307.9z"
         id="path195" style="enable-background:new 0 0 300 345" />
      <path class="st12"
         d="M277.2,307.6l-18.3,6.8c-1.5,0.7-3.4-0.4-4.2-2.2c-0.9-2-0.2-4.4,1.5-4.9c6.1-2.3,12.2-4.6,18.3-6.8  c1.5-0.3,3.1,1,3.7,2.8C278.8,305,278.4,306.9,277.2,307.6z"
         id="path196" style="enable-background:new 0 0 300 345" />
      <path class="st11"
         d="M79.4,298.8c-2.9,3-2,8.5-2.4,8.5c-0.4,0,0.6-5.4-2.3-8.4c-2.9-3.1-8.6-2.2-8.6-2.7c0-0.5,5.7,0.6,8.6-2.3  c3-3,1.9-8.7,2.3-8.7c0.4,0-0.5,5.6,2.4,8.5c3,3,8.7,1.9,8.7,2.3C88.2,296.6,82.4,295.7,79.4,298.8z"
         id="path197" style="enable-background:new 0 0 300 345" />
      <path class="st11"
         d="M265.3,328.4c-2.1,2.2-1.4,6.2-1.7,6.2c-0.3,0,0.4-3.9-1.7-6.1c-2.1-2.2-6.2-1.6-6.2-1.9  c0-0.3,4.1,0.5,6.2-1.7c2.1-2.1,1.4-6.3,1.7-6.3c0.3,0-0.4,4,1.8,6.1c2.2,2.1,6.3,1.4,6.3,1.7C271.7,326.7,267.5,326.1,265.3,328.4z  "
         id="path198" style="enable-background:new 0 0 300 345" />
   </g>
   <g id="xotic-orange" inkscape:label="xotic-orange" style="enable-background:new 0 0 300 345">

      <linearGradient id="SVGID_1_" gradientUnits="userSpaceOnUse" x1="150" y1="-10.11" x2="150" y2="184.84"
         gradientTransform="matrix(1 0 0 -1 0 346)">
         <stop offset="0" style="stop-color:#252525" id="stop1" />
         <stop offset="0.69" style="stop-color:#000000" id="stop2" />
      </linearGradient>
      <path class="st0"
         d="M263.6,345H36.4C16.3,345,0,328.7,0,308.6c0,0,0,0,0,0v-49.5h300v49.5C300,328.7,283.7,345,263.6,345z"
         id="path2" />
      <path class="st1"
         d="M0,195l0,67l0,0c0,20.1,16.3,36.4,36.4,36.4h227.2l0,0c20.1,0,36.4-16.3,36.4-36.4v-67   c0-82.8-57.4-136.4-150-136.4C57.4,58.6,0,112.2,0,195z"
         id="path3" />
      <path class="st2" d="M94.5,298.4h111.3c0,0,25.9-98.3-55.8-98.3s-55.8,98.3-55.8,98.3H94.5z" id="path4" />
      <path class="st3" d="M94.2,298.4h111.6V345H94.2V298.4z" id="path5" />
      <path class="st4" d="M174,266.9c-18.1-7.9-24-27.7-24-27.7s-5.9,19.7-24,27.7" id="path6" />
      <path d="M127.8,225.9c0,9.4,12.9,18.2,22.2,18.2s22.2-10,22.2-18.2S127.8,216.5,127.8,225.9z" id="path7" />
      <path class="st5" d="M250.3,271.6l27,9.3 M250.1,257l30.4,1.3 M49.7,271.6l-27,9.3 M49.9,257l-30.4,1.3"
         id="path8" />
      <path class="st6"
         d="M276,208.7l-67.7,19.1c0,0-32.3-54.3,17.4-68.3s50.4,49.2,50.4,49.2L276,208.7z M24,208.7l67.7,19.1   c0,0,32.3-54.3-17.4-68.3s-50.4,49.2-50.4,49.2L24,208.7z"
         id="path9" />
      <path class="st7"
         d="M93.9,208.8c0,20.1-16.3,36.4-36.5,36.4S21,228.9,21,208.8c0-20.1,16.3-30.4,36.5-30.4S93.9,188.7,93.9,208.8z   "
         id="path10" />
      <path class="st8"
         d="M93.9,216.6c0,18.8-16.3,34.1-36.5,34.1S21,235.4,21,216.6s16.3-28,36.5-28S93.9,197.7,93.9,216.6z" id="path11"
         inkscape:label="eye-l" style="fill:#f79322;fill-opacity:1" />
      <path class="st1"
         d="M200.9,93.9c19.8-37.9,79.4-55,79.4-55h-0.1c0,0,20,58.7,0.2,96.6c0,0-14.2,2.2-43.7-13.2   S200.9,93.9,200.9,93.9z M99.1,93.9c-19.8-37.9-79.4-55-79.4-55h0.1c0,0-20,58.7-0.2,96.6c0,0,14.2,2.2,43.7-13.2   S99.1,93.9,99.1,93.9z"
         id="path12" />
      <path class="st9"
         d="M69.7,92.2c-9.5-18.3-38.2-26.5-38.2-26.5s-9.6,28.3,0,46.5c0,0,6.9,1.1,21.1-6.3S69.7,92.2,69.7,92.2z    M230.3,92.2c9.5-18.3,38.2-26.5,38.2-26.5s9.6,28.3,0.1,46.5c0,0-6.9,1.1-21.1-6.3S230.3,92.2,230.3,92.2L230.3,92.2z"
         id="path13" />
      <path class="st1" d="M119.8,77.5l-18.2,40.4c0,0,30.6,4.3,49.9-19.2l-1.3,31.3c0,0,39.4-10.8,39.4-45" id="path14" />
      <g id="g16">
         <path class="st10"
            d="M119.8,77.5c-0.9,3.6-2,7.2-3.2,10.7l-3.8,10.4c-1.3,3.4-2.7,6.9-4.2,10.3s-3.1,6.7-4.8,10l-1.8-3.3    c2.2,0.2,4.4,0.3,6.6,0.3c2.2,0,4.5-0.2,6.7-0.5c4.4-0.5,8.8-1.6,13-3.1c2.1-0.8,4.1-1.7,6.1-2.7c5.9-3.1,11.1-7.3,15.4-12.4    l4.4-5.4l-0.3,6.9l-1.3,31.2l-2.9-2.4c2.3-0.8,4.7-1.9,7-3s4.6-2.3,6.8-3.6c4.4-2.6,8.5-5.6,12.2-9.2c3.6-3.5,6.6-7.6,8.9-12.2    c2.3-4.7,4-9.6,5.2-14.7c0.6,2.7,0.8,5.5,0.6,8.2c0,0.7-0.1,1.4-0.2,2.1c-0.1,0.7-0.2,1.4-0.3,2.1c-0.3,1.4-0.7,2.7-1.2,4.1    c-0.5,1.3-1,2.6-1.7,3.9c-0.7,1.2-1.4,2.5-2.1,3.7c-1.5,2.4-3.3,4.6-5.2,6.7c-3.9,4-8.3,7.5-13.2,10.2c-2.4,1.4-4.9,2.6-7.5,3.7    c-2.6,1.1-5.3,2-8,2.6l-3.1,0.9l1.4-34.5l4.1,1.6c-3.1,3.7-6.6,7.1-10.6,9.9c-2,1.4-4.1,2.6-6.2,3.8c-2.2,1.1-4.4,2.1-6.6,2.9    c-4.5,1.6-9.2,2.7-14,3.3c-2.4,0.3-4.8,0.5-7.2,0.5h-3.6c-1.2,0-2.4-0.1-3.7-0.3l-2.9-0.2l1.1-3c1.2-3.5,2.7-6.9,4.3-10.2    s3.2-6.7,4.9-10s3.4-6.6,5.3-9.8S117.7,80.6,119.8,77.5z"
            id="path15" />

         <ellipse transform="matrix(0.234 -0.9722 0.9722 0.234 -94.0925 210.7638)" class="st10" cx="86.7" cy="165.1"
            rx="12.7" ry="18.9" id="ellipse15" />

         <ellipse transform="matrix(0.9722 -0.234 0.234 0.9722 -32.7216 54.4833)" class="st10" cx="213.3" cy="165.2"
            rx="18.9" ry="12.7" id="ellipse16" />
      </g>
      <path
         d="M78.5,215.5c-0.1,0-0.2,0.1-0.3,0.1c-1.3,0.4-2.7,0.6-4,0.6c-7.3,0-13.2-5.9-13.2-13.2c0-2.6,0.8-5.2,2.2-7.4h-0.4   c-11.6,0-15.8,10.2-15.8,22.7s4.4,22.7,15.8,22.7c11.4,0,15.8-10.2,15.8-22.7C78.6,217.4,78.6,216.4,78.5,215.5z M58.2,233.4   L58.2,233.4c-3,0-5.5-2.5-5.5-5.5c0-3,2.4-5.5,5.5-5.5c3,0,5.5,2.4,5.5,5.5S61.2,233.4,58.2,233.4z"
         id="path16" />
      <path class="st11"
         d="M78.8,215.3c-0.2,0.1-0.4,0.2-0.6,0.3c-1.3,0.4-2.7,0.6-4,0.6c-7.3,0-13.2-5.9-13.2-13.2   c0-2.6,0.8-5.2,2.2-7.4c0.1-0.1,0.1-0.2,0.2-0.2c2.5-2.8,11.5-1.9,15.7,3.4C83.5,204.3,82.3,213.5,78.8,215.3z"
         id="path17" />
      <path class="st7"
         d="M242.6,178.4c20.1,0,36.4,10.3,36.4,30.4c0,20.1-16.3,36.4-36.4,36.4s-36.5-16.3-36.5-36.4   C206.1,188.7,222.4,178.4,242.6,178.4z"
         id="path18" />
      <path class="st11"
         d="M63.6,227.9c0,3-2.4,5.5-5.5,5.5h0c-3,0-5.4-2.5-5.4-5.5c0-3,2.4-5.5,5.5-5.5   C61.2,222.4,63.6,224.9,63.6,227.9z"
         id="path19" />
      <path class="st8"
         d="M279,216.6c0,18.8-16.3,34.1-36.4,34.1s-36.4-15.3-36.4-34.1s16.3-28,36.4-28S279,197.7,279,216.6z" id="path20"
         inkscape:label="eye-r" style="fill:#f79322;fill-opacity:1" />
      <path
         d="M252.9,215.5c-0.1,0-0.2,0.1-0.3,0.1c-1.3,0.4-2.7,0.6-4,0.6c-7.3,0-13.2-5.9-13.2-13.2c0-2.6,0.8-5.2,2.2-7.4h-0.4   c-11.6,0-15.8,10.2-15.8,22.7s4.4,22.7,15.8,22.7c11.4,0,15.8-10.2,15.8-22.7C252.9,217.4,252.9,216.4,252.9,215.5z M232.5,233.4   L232.5,233.4c-3,0-5.5-2.5-5.5-5.5c0-3,2.4-5.5,5.5-5.5c3,0,5.5,2.4,5.5,5.5S235.5,233.4,232.5,233.4z"
         id="path21" />
      <path class="st11"
         d="M253.2,215.4c-0.2,0.1-0.4,0.2-0.6,0.3c-1.3,0.4-2.7,0.6-4,0.6c-7.3,0-13.2-5.9-13.2-13.2   c0-2.6,0.8-5.2,2.2-7.4c0.1-0.1,0.1-0.2,0.2-0.2c2.5-2.8,11.5-1.9,15.8,3.4C257.9,204.3,256.7,213.5,253.2,215.4z"
         id="path22" />
      <path class="st11"
         d="M238,227.9c0,3-2.4,5.5-5.5,5.5h0c-3,0-5.4-2.5-5.4-5.5c0-3,2.4-5.5,5.5-5.5C235.5,222.5,238,224.9,238,227.9   z"
         id="path23" />
      <path class="st12"
         d="M16.4,286.1C8,285.9,1,292.4,0.7,300.8c-0.3,8.4,6.3,15.4,14.7,15.7c8.4,0.3,15.4-6.3,15.7-14.7  C31.4,293.4,24.8,286.4,16.4,286.1z M15.5,312.5c-6.2-0.2-11-5.4-10.8-11.6c0.2-6.2,5.4-11.1,11.6-10.8c6.2,0.2,11.1,5.4,10.8,11.6  C26.9,307.9,21.7,312.7,15.5,312.5z"
         id="path24" style="enable-background:new 0 0 300 345" />
      <path class="st12"
         d="M51.4,297c-8.3,1.3-14,9-12.7,17.3c1.3,8.3,9,14,17.3,12.7c8.3-1.3,14-9,12.7-17.3  C67.4,301.4,59.7,295.7,51.4,297z M55.4,323.1c-6.1,0.9-11.8-3.3-12.8-9.4c-0.9-6.1,3.3-11.9,9.4-12.8c6.1-0.9,11.9,3.3,12.8,9.4  C65.7,316.4,61.5,322.1,55.4,323.1z"
         id="path25" style="enable-background:new 0 0 300 345" />
      <path class="st12"
         d="M43.1,314.2l-19-4.8c-1.6-0.3-2.5-2.3-2.1-4.2c0.4-2.1,2.3-3.8,4-3.2c6.3,1.6,12.6,3.2,19,4.8  c1.4,0.6,2,2.6,1.5,4.4C46,313.1,44.5,314.3,43.1,314.2z"
         id="path26" style="enable-background:new 0 0 300 345" />
      <path class="st12"
         d="M89.1,305c-8.2,1.5-13.7,9.5-12.1,17.7c1.5,8.2,9.5,13.7,17.7,12.1c8.2-1.5,13.7-9.5,12.1-17.7  C105.3,308.9,97.4,303.5,89.1,305z M94,331c-6.1,1.1-11.9-2.9-13.1-9c-1.1-6.1,2.9-12,9-13.1c6.1-1.1,12,2.9,13.1,9  C104.1,324,100.1,329.8,94,331z"
         id="path27" style="enable-background:new 0 0 300 345" />
      <path class="st12"
         d="M81.5,322.5l-19.1-4.2c-1.6-0.2-2.6-2.2-2.3-4.1c0.4-2.1,2.2-3.8,3.9-3.3c6.4,1.4,12.7,2.8,19.1,4.2  c1.4,0.6,2.1,2.5,1.6,4.4C84.3,321.3,82.9,322.6,81.5,322.5z"
         id="path28" style="enable-background:new 0 0 300 345" />
      <path class="st12"
         d="M125.6,308.1c-7.8,3-11.7,11.8-8.6,19.7c3,7.8,11.8,11.7,19.7,8.6c7.8-3,11.7-11.8,8.6-19.7  C142.2,308.9,133.4,305,125.6,308.1z M135.2,332.7c-5.8,2.2-12.3-0.6-14.5-6.4c-2.2-5.8,0.6-12.3,6.4-14.5  c5.8-2.2,12.3,0.6,14.5,6.4C143.8,323.9,141,330.4,135.2,332.7z"
         id="path29" style="enable-background:new 0 0 300 345" />
      <path class="st12"
         d="M121.3,326.7l-19.6-0.6c-1.6,0.1-3-1.7-3-3.6c0-2.2,1.4-4.2,3.2-4c6.5,0.2,13,0.4,19.6,0.6  c1.5,0.3,2.5,2.1,2.4,4C123.8,324.9,122.7,326.5,121.3,326.7z"
         id="path30" style="enable-background:new 0 0 300 345" />
      <path class="st12"
         d="M164.7,309.9c-7.9,2.9-11.9,11.7-8.9,19.5c2.9,7.9,11.7,11.9,19.5,8.9c7.9-2.9,11.9-11.7,8.9-19.5  C181.3,311,172.6,307,164.7,309.9z M173.9,334.7c-5.8,2.2-12.3-0.8-14.4-6.6c-2.2-5.8,0.8-12.3,6.6-14.4c5.8-2.2,12.3,0.8,14.4,6.6  C182.7,326.1,179.8,332.5,173.9,334.7z"
         id="path31" style="enable-background:new 0 0 300 345" />
      <path class="st12"
         d="M160.1,328.5l-19.6-0.9c-1.6,0-2.9-1.7-2.9-3.7c0-2.2,1.5-4.1,3.3-3.9c6.5,0.3,13,0.6,19.6,0.9  c1.5,0.3,2.5,2.1,2.3,4.1C162.7,326.8,161.6,328.3,160.1,328.5z"
         id="path32" style="enable-background:new 0 0 300 345" />
      <path class="st12"
         d="M201.2,306.7c-7.2,4.3-9.5,13.7-5.2,20.8c4.3,7.2,13.7,9.5,20.8,5.2c7.2-4.3,9.5-13.7,5.2-20.8  C217.7,304.7,208.4,302.4,201.2,306.7z M214.8,329.3c-5.3,3.2-12.2,1.5-15.4-3.8c-3.2-5.3-1.5-12.2,3.8-15.4  c5.3-3.2,12.2-1.5,15.4,3.8C221.8,319.2,220.1,326.1,214.8,329.3z"
         id="path33" style="enable-background:new 0 0 300 345" />
      <path class="st12"
         d="M200.1,325.8l-19.4,2.7c-1.6,0.3-3.2-1.1-3.6-3.1c-0.4-2.1,0.7-4.3,2.5-4.5c6.5-0.9,12.9-1.8,19.4-2.7  c1.5,0,2.8,1.6,3,3.6C202.3,323.6,201.5,325.4,200.1,325.8z"
         id="path34" style="enable-background:new 0 0 300 345" />
      <path class="st12"
         d="M239.2,299.8c-7,4.6-9,14-4.5,21c4.6,7,14,9,21,4.5c7-4.6,9.1-14,4.5-21C255.6,297.3,246.2,295.2,239.2,299.8z   M253.6,322c-5.2,3.4-12.1,1.9-15.5-3.3c-3.4-5.2-1.9-12.1,3.3-15.5c5.2-3.4,12.2-1.9,15.5,3.3C260.2,311.7,258.8,318.6,253.6,322z"
         id="path35" style="enable-background:new 0 0 300 345" />
      <path class="st12"
         d="M238.7,318.9l-19.3,3.3c-1.6,0.4-3.2-1-3.7-3c-0.5-2.1,0.6-4.4,2.4-4.6c6.4-1.1,12.9-2.2,19.3-3.3  c1.5,0,2.9,1.5,3.2,3.5C240.9,316.7,240.1,318.4,238.7,318.9z"
         id="path36" style="enable-background:new 0 0 300 345" />
      <path class="st12"
         d="M274.1,288.8c-6.1,5.8-6.3,15.4-0.5,21.5c5.8,6.1,15.4,6.3,21.5,0.5c6.1-5.8,6.3-15.4,0.5-21.5  C289.8,283.2,280.2,283,274.1,288.8z M292.3,307.9c-4.5,4.3-11.6,4.1-15.9-0.4c-4.3-4.5-4.1-11.6,0.4-15.9  c4.5-4.3,11.6-4.1,15.9,0.4C297,296.5,296.8,303.6,292.3,307.9z"
         id="path37" style="enable-background:new 0 0 300 345" />
      <path class="st12"
         d="M277.2,307.6l-18.3,6.8c-1.5,0.7-3.4-0.4-4.2-2.2c-0.9-2-0.2-4.4,1.5-4.9c6.1-2.3,12.2-4.6,18.3-6.8  c1.5-0.3,3.1,1,3.7,2.8C278.8,305,278.4,306.9,277.2,307.6z"
         id="path38" style="enable-background:new 0 0 300 345" />
      <path class="st11"
         d="M79.4,298.8c-2.9,3-2,8.5-2.4,8.5c-0.4,0,0.6-5.4-2.3-8.4c-2.9-3.1-8.6-2.2-8.6-2.7c0-0.5,5.7,0.6,8.6-2.3  c3-3,1.9-8.7,2.3-8.7c0.4,0-0.5,5.6,2.4,8.5c3,3,8.7,1.9,8.7,2.3C88.2,296.6,82.4,295.7,79.4,298.8z"
         id="path39" style="enable-background:new 0 0 300 345" />
      <path class="st11"
         d="M265.3,328.4c-2.1,2.2-1.4,6.2-1.7,6.2c-0.3,0,0.4-3.9-1.7-6.1c-2.1-2.2-6.2-1.6-6.2-1.9  c0-0.3,4.1,0.5,6.2-1.7c2.1-2.1,1.4-6.3,1.7-6.3c0.3,0-0.4,4,1.8,6.1c2.2,2.1,6.3,1.4,6.3,1.7C271.7,326.7,267.5,326.1,265.3,328.4z  "
         id="path40" style="enable-background:new 0 0 300 345" />
   </g>
   <g id="xotic-red" inkscape:label="xotic-red">

      <linearGradient id="linearGradient121" gradientUnits="userSpaceOnUse" x1="150" y1="-10.11" x2="150" y2="184.84"
         gradientTransform="matrix(1 0 0 -1 0 346)">
         <stop offset="0" style="stop-color:#252525" id="stop120" />
         <stop offset="0.69" style="stop-color:#000000" id="stop121" />
      </linearGradient>
      <path class="st0"
         d="M263.6,345H36.4C16.3,345,0,328.7,0,308.6c0,0,0,0,0,0v-49.5h300v49.5C300,328.7,283.7,345,263.6,345z"
         id="path121" />
      <path class="st1"
         d="M0,195l0,67l0,0c0,20.1,16.3,36.4,36.4,36.4h227.2l0,0c20.1,0,36.4-16.3,36.4-36.4v-67   c0-82.8-57.4-136.4-150-136.4C57.4,58.6,0,112.2,0,195z"
         id="path122" />
      <path class="st2" d="M94.5,298.4h111.3c0,0,25.9-98.3-55.8-98.3s-55.8,98.3-55.8,98.3H94.5z" id="path123" />
      <path class="st3" d="M94.2,298.4h111.6V345H94.2V298.4z" id="path124" />
      <path class="st4" d="M174,266.9c-18.1-7.9-24-27.7-24-27.7s-5.9,19.7-24,27.7" id="path125" />
      <path d="M127.8,225.9c0,9.4,12.9,18.2,22.2,18.2s22.2-10,22.2-18.2S127.8,216.5,127.8,225.9z" id="path126" />
      <path class="st5" d="M250.3,271.6l27,9.3 M250.1,257l30.4,1.3 M49.7,271.6l-27,9.3 M49.9,257l-30.4,1.3"
         id="path127" />
      <path class="st6"
         d="M276,208.7l-67.7,19.1c0,0-32.3-54.3,17.4-68.3s50.4,49.2,50.4,49.2L276,208.7z M24,208.7l67.7,19.1   c0,0,32.3-54.3-17.4-68.3s-50.4,49.2-50.4,49.2L24,208.7z"
         id="path128" />
      <path class="st7"
         d="M93.9,208.8c0,20.1-16.3,36.4-36.5,36.4S21,228.9,21,208.8c0-20.1,16.3-30.4,36.5-30.4S93.9,188.7,93.9,208.8z   "
         id="path129" />
      <path class="st8"
         d="M93.9,216.6c0,18.8-16.3,34.1-36.5,34.1S21,235.4,21,216.6s16.3-28,36.5-28S93.9,197.7,93.9,216.6z"
         id="path130" inkscape:label="eye-l" style="fill:#ef2424;fill-opacity:1" />
      <path class="st1"
         d="M200.9,93.9c19.8-37.9,79.4-55,79.4-55h-0.1c0,0,20,58.7,0.2,96.6c0,0-14.2,2.2-43.7-13.2   S200.9,93.9,200.9,93.9z M99.1,93.9c-19.8-37.9-79.4-55-79.4-55h0.1c0,0-20,58.7-0.2,96.6c0,0,14.2,2.2,43.7-13.2   S99.1,93.9,99.1,93.9z"
         id="path131" />
      <path class="st9"
         d="M69.7,92.2c-9.5-18.3-38.2-26.5-38.2-26.5s-9.6,28.3,0,46.5c0,0,6.9,1.1,21.1-6.3S69.7,92.2,69.7,92.2z    M230.3,92.2c9.5-18.3,38.2-26.5,38.2-26.5s9.6,28.3,0.1,46.5c0,0-6.9,1.1-21.1-6.3S230.3,92.2,230.3,92.2L230.3,92.2z"
         id="path132" />
      <path class="st1" d="M119.8,77.5l-18.2,40.4c0,0,30.6,4.3,49.9-19.2l-1.3,31.3c0,0,39.4-10.8,39.4-45"
         id="path133" />
      <g id="g135">
         <path class="st10"
            d="M119.8,77.5c-0.9,3.6-2,7.2-3.2,10.7l-3.8,10.4c-1.3,3.4-2.7,6.9-4.2,10.3s-3.1,6.7-4.8,10l-1.8-3.3    c2.2,0.2,4.4,0.3,6.6,0.3c2.2,0,4.5-0.2,6.7-0.5c4.4-0.5,8.8-1.6,13-3.1c2.1-0.8,4.1-1.7,6.1-2.7c5.9-3.1,11.1-7.3,15.4-12.4    l4.4-5.4l-0.3,6.9l-1.3,31.2l-2.9-2.4c2.3-0.8,4.7-1.9,7-3s4.6-2.3,6.8-3.6c4.4-2.6,8.5-5.6,12.2-9.2c3.6-3.5,6.6-7.6,8.9-12.2    c2.3-4.7,4-9.6,5.2-14.7c0.6,2.7,0.8,5.5,0.6,8.2c0,0.7-0.1,1.4-0.2,2.1c-0.1,0.7-0.2,1.4-0.3,2.1c-0.3,1.4-0.7,2.7-1.2,4.1    c-0.5,1.3-1,2.6-1.7,3.9c-0.7,1.2-1.4,2.5-2.1,3.7c-1.5,2.4-3.3,4.6-5.2,6.7c-3.9,4-8.3,7.5-13.2,10.2c-2.4,1.4-4.9,2.6-7.5,3.7    c-2.6,1.1-5.3,2-8,2.6l-3.1,0.9l1.4-34.5l4.1,1.6c-3.1,3.7-6.6,7.1-10.6,9.9c-2,1.4-4.1,2.6-6.2,3.8c-2.2,1.1-4.4,2.1-6.6,2.9    c-4.5,1.6-9.2,2.7-14,3.3c-2.4,0.3-4.8,0.5-7.2,0.5h-3.6c-1.2,0-2.4-0.1-3.7-0.3l-2.9-0.2l1.1-3c1.2-3.5,2.7-6.9,4.3-10.2    s3.2-6.7,4.9-10s3.4-6.6,5.3-9.8S117.7,80.6,119.8,77.5z"
            id="path134" />

         <ellipse transform="matrix(0.234 -0.9722 0.9722 0.234 -94.0925 210.7638)" class="st10" cx="86.7" cy="165.1"
            rx="12.7" ry="18.9" id="ellipse134" />

         <ellipse transform="matrix(0.9722 -0.234 0.234 0.9722 -32.7216 54.4833)" class="st10" cx="213.3" cy="165.2"
            rx="18.9" ry="12.7" id="ellipse135" />
      </g>
      <path
         d="M78.5,215.5c-0.1,0-0.2,0.1-0.3,0.1c-1.3,0.4-2.7,0.6-4,0.6c-7.3,0-13.2-5.9-13.2-13.2c0-2.6,0.8-5.2,2.2-7.4h-0.4   c-11.6,0-15.8,10.2-15.8,22.7s4.4,22.7,15.8,22.7c11.4,0,15.8-10.2,15.8-22.7C78.6,217.4,78.6,216.4,78.5,215.5z M58.2,233.4   L58.2,233.4c-3,0-5.5-2.5-5.5-5.5c0-3,2.4-5.5,5.5-5.5c3,0,5.5,2.4,5.5,5.5S61.2,233.4,58.2,233.4z"
         id="path135" />
      <path class="st11"
         d="M78.8,215.3c-0.2,0.1-0.4,0.2-0.6,0.3c-1.3,0.4-2.7,0.6-4,0.6c-7.3,0-13.2-5.9-13.2-13.2   c0-2.6,0.8-5.2,2.2-7.4c0.1-0.1,0.1-0.2,0.2-0.2c2.5-2.8,11.5-1.9,15.7,3.4C83.5,204.3,82.3,213.5,78.8,215.3z"
         id="path136" />
      <path class="st7"
         d="M242.6,178.4c20.1,0,36.4,10.3,36.4,30.4c0,20.1-16.3,36.4-36.4,36.4s-36.5-16.3-36.5-36.4   C206.1,188.7,222.4,178.4,242.6,178.4z"
         id="path137" />
      <path class="st11"
         d="M63.6,227.9c0,3-2.4,5.5-5.5,5.5h0c-3,0-5.4-2.5-5.4-5.5c0-3,2.4-5.5,5.5-5.5   C61.2,222.4,63.6,224.9,63.6,227.9z"
         id="path138" />
      <path class="st8"
         d="M279,216.6c0,18.8-16.3,34.1-36.4,34.1s-36.4-15.3-36.4-34.1s16.3-28,36.4-28S279,197.7,279,216.6z"
         id="path139" inkscape:label="eye-r" style="fill:#ef2424;fill-opacity:1" />
      <path
         d="M252.9,215.5c-0.1,0-0.2,0.1-0.3,0.1c-1.3,0.4-2.7,0.6-4,0.6c-7.3,0-13.2-5.9-13.2-13.2c0-2.6,0.8-5.2,2.2-7.4h-0.4   c-11.6,0-15.8,10.2-15.8,22.7s4.4,22.7,15.8,22.7c11.4,0,15.8-10.2,15.8-22.7C252.9,217.4,252.9,216.4,252.9,215.5z M232.5,233.4   L232.5,233.4c-3,0-5.5-2.5-5.5-5.5c0-3,2.4-5.5,5.5-5.5c3,0,5.5,2.4,5.5,5.5S235.5,233.4,232.5,233.4z"
         id="path140" />
      <path class="st11"
         d="M253.2,215.4c-0.2,0.1-0.4,0.2-0.6,0.3c-1.3,0.4-2.7,0.6-4,0.6c-7.3,0-13.2-5.9-13.2-13.2   c0-2.6,0.8-5.2,2.2-7.4c0.1-0.1,0.1-0.2,0.2-0.2c2.5-2.8,11.5-1.9,15.8,3.4C257.9,204.3,256.7,213.5,253.2,215.4z"
         id="path141" />
      <path class="st11"
         d="M238,227.9c0,3-2.4,5.5-5.5,5.5h0c-3,0-5.4-2.5-5.4-5.5c0-3,2.4-5.5,5.5-5.5C235.5,222.5,238,224.9,238,227.9   z"
         id="path142" />
      <path class="st12"
         d="M16.4,286.1C8,285.9,1,292.4,0.7,300.8c-0.3,8.4,6.3,15.4,14.7,15.7c8.4,0.3,15.4-6.3,15.7-14.7  C31.4,293.4,24.8,286.4,16.4,286.1z M15.5,312.5c-6.2-0.2-11-5.4-10.8-11.6c0.2-6.2,5.4-11.1,11.6-10.8c6.2,0.2,11.1,5.4,10.8,11.6  C26.9,307.9,21.7,312.7,15.5,312.5z"
         id="path143" style="enable-background:new 0 0 300 345" />
      <path class="st12"
         d="M51.4,297c-8.3,1.3-14,9-12.7,17.3c1.3,8.3,9,14,17.3,12.7c8.3-1.3,14-9,12.7-17.3  C67.4,301.4,59.7,295.7,51.4,297z M55.4,323.1c-6.1,0.9-11.8-3.3-12.8-9.4c-0.9-6.1,3.3-11.9,9.4-12.8c6.1-0.9,11.9,3.3,12.8,9.4  C65.7,316.4,61.5,322.1,55.4,323.1z"
         id="path144" style="enable-background:new 0 0 300 345" />
      <path class="st12"
         d="M43.1,314.2l-19-4.8c-1.6-0.3-2.5-2.3-2.1-4.2c0.4-2.1,2.3-3.8,4-3.2c6.3,1.6,12.6,3.2,19,4.8  c1.4,0.6,2,2.6,1.5,4.4C46,313.1,44.5,314.3,43.1,314.2z"
         id="path145" style="enable-background:new 0 0 300 345" />
      <path class="st12"
         d="M89.1,305c-8.2,1.5-13.7,9.5-12.1,17.7c1.5,8.2,9.5,13.7,17.7,12.1c8.2-1.5,13.7-9.5,12.1-17.7  C105.3,308.9,97.4,303.5,89.1,305z M94,331c-6.1,1.1-11.9-2.9-13.1-9c-1.1-6.1,2.9-12,9-13.1c6.1-1.1,12,2.9,13.1,9  C104.1,324,100.1,329.8,94,331z"
         id="path146" style="enable-background:new 0 0 300 345" />
      <path class="st12"
         d="M81.5,322.5l-19.1-4.2c-1.6-0.2-2.6-2.2-2.3-4.1c0.4-2.1,2.2-3.8,3.9-3.3c6.4,1.4,12.7,2.8,19.1,4.2  c1.4,0.6,2.1,2.5,1.6,4.4C84.3,321.3,82.9,322.6,81.5,322.5z"
         id="path147" style="enable-background:new 0 0 300 345" />
      <path class="st12"
         d="M125.6,308.1c-7.8,3-11.7,11.8-8.6,19.7c3,7.8,11.8,11.7,19.7,8.6c7.8-3,11.7-11.8,8.6-19.7  C142.2,308.9,133.4,305,125.6,308.1z M135.2,332.7c-5.8,2.2-12.3-0.6-14.5-6.4c-2.2-5.8,0.6-12.3,6.4-14.5  c5.8-2.2,12.3,0.6,14.5,6.4C143.8,323.9,141,330.4,135.2,332.7z"
         id="path148" style="enable-background:new 0 0 300 345" />
      <path class="st12"
         d="M121.3,326.7l-19.6-0.6c-1.6,0.1-3-1.7-3-3.6c0-2.2,1.4-4.2,3.2-4c6.5,0.2,13,0.4,19.6,0.6  c1.5,0.3,2.5,2.1,2.4,4C123.8,324.9,122.7,326.5,121.3,326.7z"
         id="path149" style="enable-background:new 0 0 300 345" />
      <path class="st12"
         d="M164.7,309.9c-7.9,2.9-11.9,11.7-8.9,19.5c2.9,7.9,11.7,11.9,19.5,8.9c7.9-2.9,11.9-11.7,8.9-19.5  C181.3,311,172.6,307,164.7,309.9z M173.9,334.7c-5.8,2.2-12.3-0.8-14.4-6.6c-2.2-5.8,0.8-12.3,6.6-14.4c5.8-2.2,12.3,0.8,14.4,6.6  C182.7,326.1,179.8,332.5,173.9,334.7z"
         id="path150" style="enable-background:new 0 0 300 345" />
      <path class="st12"
         d="M160.1,328.5l-19.6-0.9c-1.6,0-2.9-1.7-2.9-3.7c0-2.2,1.5-4.1,3.3-3.9c6.5,0.3,13,0.6,19.6,0.9  c1.5,0.3,2.5,2.1,2.3,4.1C162.7,326.8,161.6,328.3,160.1,328.5z"
         id="path151" style="enable-background:new 0 0 300 345" />
      <path class="st12"
         d="M201.2,306.7c-7.2,4.3-9.5,13.7-5.2,20.8c4.3,7.2,13.7,9.5,20.8,5.2c7.2-4.3,9.5-13.7,5.2-20.8  C217.7,304.7,208.4,302.4,201.2,306.7z M214.8,329.3c-5.3,3.2-12.2,1.5-15.4-3.8c-3.2-5.3-1.5-12.2,3.8-15.4  c5.3-3.2,12.2-1.5,15.4,3.8C221.8,319.2,220.1,326.1,214.8,329.3z"
         id="path152" style="enable-background:new 0 0 300 345" />
      <path class="st12"
         d="M200.1,325.8l-19.4,2.7c-1.6,0.3-3.2-1.1-3.6-3.1c-0.4-2.1,0.7-4.3,2.5-4.5c6.5-0.9,12.9-1.8,19.4-2.7  c1.5,0,2.8,1.6,3,3.6C202.3,323.6,201.5,325.4,200.1,325.8z"
         id="path153" style="enable-background:new 0 0 300 345" />
      <path class="st12"
         d="M239.2,299.8c-7,4.6-9,14-4.5,21c4.6,7,14,9,21,4.5c7-4.6,9.1-14,4.5-21C255.6,297.3,246.2,295.2,239.2,299.8z   M253.6,322c-5.2,3.4-12.1,1.9-15.5-3.3c-3.4-5.2-1.9-12.1,3.3-15.5c5.2-3.4,12.2-1.9,15.5,3.3C260.2,311.7,258.8,318.6,253.6,322z"
         id="path154" style="enable-background:new 0 0 300 345" />
      <path class="st12"
         d="M238.7,318.9l-19.3,3.3c-1.6,0.4-3.2-1-3.7-3c-0.5-2.1,0.6-4.4,2.4-4.6c6.4-1.1,12.9-2.2,19.3-3.3  c1.5,0,2.9,1.5,3.2,3.5C240.9,316.7,240.1,318.4,238.7,318.9z"
         id="path155" style="enable-background:new 0 0 300 345" />
      <path class="st12"
         d="M274.1,288.8c-6.1,5.8-6.3,15.4-0.5,21.5c5.8,6.1,15.4,6.3,21.5,0.5c6.1-5.8,6.3-15.4,0.5-21.5  C289.8,283.2,280.2,283,274.1,288.8z M292.3,307.9c-4.5,4.3-11.6,4.1-15.9-0.4c-4.3-4.5-4.1-11.6,0.4-15.9  c4.5-4.3,11.6-4.1,15.9,0.4C297,296.5,296.8,303.6,292.3,307.9z"
         id="path156" style="enable-background:new 0 0 300 345" />
      <path class="st12"
         d="M277.2,307.6l-18.3,6.8c-1.5,0.7-3.4-0.4-4.2-2.2c-0.9-2-0.2-4.4,1.5-4.9c6.1-2.3,12.2-4.6,18.3-6.8  c1.5-0.3,3.1,1,3.7,2.8C278.8,305,278.4,306.9,277.2,307.6z"
         id="path157" style="enable-background:new 0 0 300 345" />
      <path class="st11"
         d="M79.4,298.8c-2.9,3-2,8.5-2.4,8.5c-0.4,0,0.6-5.4-2.3-8.4c-2.9-3.1-8.6-2.2-8.6-2.7c0-0.5,5.7,0.6,8.6-2.3  c3-3,1.9-8.7,2.3-8.7c0.4,0-0.5,5.6,2.4,8.5c3,3,8.7,1.9,8.7,2.3C88.2,296.6,82.4,295.7,79.4,298.8z"
         id="path158" style="enable-background:new 0 0 300 345" />
      <path class="st11"
         d="M265.3,328.4c-2.1,2.2-1.4,6.2-1.7,6.2c-0.3,0,0.4-3.9-1.7-6.1c-2.1-2.2-6.2-1.6-6.2-1.9  c0-0.3,4.1,0.5,6.2-1.7c2.1-2.1,1.4-6.3,1.7-6.3c0.3,0-0.4,4,1.8,6.1c2.2,2.1,6.3,1.4,6.3,1.7C271.7,326.7,267.5,326.1,265.3,328.4z  "
         id="path159" style="enable-background:new 0 0 300 345" />
   </g>

   <style>
      #xotic-red {
         animation: xotic-red 2s linear infinite;
      }

      @keyframes xotic-red {
         0% {
            opacity: 1;
         }

         8.33% {
            opacity: 0;
         }

         16.67% {
            opacity: 0;
         }

         25% {
            opacity: 0;
         }

         33.33% {
            opacity: 0;
         }

         41.67% {
            opacity: 0;
         }

         50% {
            opacity: 0;
         }

         58.33% {
            opacity: 0;
         }

         66.67% {
            opacity: 0;
         }

         75% {
            opacity: 0;
         }

         83.33% {
            opacity: 0;
         }

         91.67% {
            opacity: 0;
         }

         100% {
            opacity: 1;
         }
      }

      #xotic-orange {
         animation: xotic-orange 2s linear infinite;
      }

      @keyframes xotic-orange {
         0% {
            opacity: 1;
         }

         8.33% {
            opacity: 1;
         }

         16.67% {
            opacity: 0;
         }

         25% {
            opacity: 0;
         }

         33.33% {
            opacity: 0;
         }

         41.67% {
            opacity: 0;
         }

         50% {
            opacity: 0;
         }

         58.33% {
            opacity: 0;
         }

         66.67% {
            opacity: 0;
         }

         75% {
            opacity: 0;
         }

         83.33% {
            opacity: 0;
         }

         91.67% {
            opacity: 1;
         }

         100% {
            opacity: 1;
         }
      }

      #xotic-yellow {
         animation: xotic-yellow 2s linear infinite;
      }

      @keyframes xotic-yellow {
         0% {
            opacity: 1;
         }

         8.33% {
            opacity: 1;
         }

         16.67% {
            opacity: 1;
         }

         25% {
            opacity: 0;
         }

         33.33% {
            opacity: 0;
         }

         41.67% {
            opacity: 0;
         }

         50% {
            opacity: 0;
         }

         58.33% {
            opacity: 0;
         }

         66.67% {
            opacity: 0;
         }

         75% {
            opacity: 0;
         }

         83.33% {
            opacity: 1;
         }

         91.67% {
            opacity: 1;
         }

         100% {
            opacity: 1;
         }
      }

      #xotic-green {
         animation: xotic-green 2s linear infinite;
      }

      @keyframes xotic-green {
         0% {
            opacity: 1;
         }

         8.33% {
            opacity: 1;
         }

         16.67% {
            opacity: 1;
         }

         25% {
            opacity: 1;
         }

         33.33% {
            opacity: 0;
         }

         41.67% {
            opacity: 0;
         }

         50% {
            opacity: 0;
         }

         58.33% {
            opacity: 0;
         }

         66.67% {
            opacity: 0;
         }

         75% {
            opacity: 1;
         }

         83.33% {
            opacity: 1;
         }

         91.67% {
            opacity: 1;
         }

         100% {
            opacity: 1;
         }
      }

      #xotic-blue {
         animation: xotic-blue 2s linear infinite;
      }

      @keyframes xotic-blue {
         0% {
            opacity: 1;
         }

         8.33% {
            opacity: 1;
         }

         16.67% {
            opacity: 1;
         }

         25% {
            opacity: 1;
         }

         33.33% {
            opacity: 1;
         }

         41.67% {
            opacity: 0;
         }

         50% {
            opacity: 0;
         }

         58.33% {
            opacity: 0;
         }

         66.67% {
            opacity: 1;
         }

         75% {
            opacity: 1;
         }

         83.33% {
            opacity: 1;
         }

         91.67% {
            opacity: 1;
         }

         100% {
            opacity: 1;
         }
      }

      #xotic-purple {
         animation: xotic-purple 2s linear infinite;
      }

      @keyframes xotic-purple {
         0% {
            opacity: 1;
         }

         8.33% {
            opacity: 1;
         }

         16.67% {
            opacity: 1;
         }

         25% {
            opacity: 1;
         }

         33.33% {
            opacity: 1;
         }

         41.67% {
            opacity: 1;
         }

         50% {
            opacity: 0;
         }

         58.33% {
            opacity: 1;
         }

         66.67% {
            opacity: 1;
         }

         75% {
            opacity: 1;
         }

         83.33% {
            opacity: 1;
         }

         91.67% {
            opacity: 1;
         }

         100% {
            opacity: 1;
         }
      }
   </style>
</svg>