<svg id="Layer_1" data-name="Layer 1" xmlns="http://www.w3.org/2000/svg" xmlns:xlink="http://www.w3.org/1999/xlink" viewBox="0 0 300.08 345"><defs><style>.cls-1{fill:url(#linear-gradient);}.cls-2{fill:url(#linear-gradient-2);}.cls-3{fill:#5a81c5;}.cls-4{fill:#3e559e;}.cls-5{fill:#fff;}.cls-6{fill:#a85e58;}.cls-7{fill:#833e38;}.cls-8{fill:#162e63;}.cls-9{fill:#4c1c1c;}.cls-10{fill:#bfcfd8;}.cls-11{fill:#a4c7de;}.cls-12,.cls-13,.cls-18{fill:#283c7c;}.cls-13{opacity:0.5;}.cls-13,.cls-18{isolation:isolate;}.cls-14{fill:#3b51a3;}.cls-15{fill:#6282d1;}.cls-16{fill:#cc8876;}.cls-17{fill:#406191;}.cls-18{opacity:0.44;}.cls-19{fill:#c5e1ed;}</style><linearGradient id="linear-gradient" x1="150.08" y1="682.24" x2="150.08" y2="549.34" gradientTransform="translate(0 -308)" gradientUnits="userSpaceOnUse"><stop offset="0" stop-color="#a4c7de"/><stop offset="1" stop-color="#246589"/></linearGradient><linearGradient id="linear-gradient-2" x1="150.33" y1="674.65" x2="150.33" y2="552.16" gradientTransform="translate(0 -308)" gradientUnits="userSpaceOnUse"><stop offset="0" stop-color="#5a81c5"/><stop offset="1" stop-color="#253772"/></linearGradient></defs><path class="cls-1" d="M300.08,259.1v49.5a36.4,36.4,0,0,1-36.4,36.4H36.48A36.4,36.4,0,0,1,.08,308.6V259.1Z"/><path class="cls-2" d="M250.68,317.5c0,10-4.6,19.3-12.6,27.5H62.58c-8.1-8.1-12.6-17.5-12.6-27.5a35.17,35.17,0,0,1,5.9-19.1h188.8A34.72,34.72,0,0,1,250.68,317.5Z"/><path class="cls-3" d="M300.08,185.7V262a36.4,36.4,0,0,1-36.4,36.4H36.48A36.4,36.4,0,0,1,.08,262V185.6c0-1.9,0-3.7.1-5.5A114.88,114.88,0,0,1,115,70.8h70.2A114.85,114.85,0,0,1,300.08,185.7Z"/><path class="cls-4" d="M50.28,236.9c-22.8-4.2-39.3-23.5-37.8-44.5,1.3-18.2,16.8-40.8,33.1-36.5s54.2,33.2,51.4,64.2C96.88,220,71.18,240.6,50.28,236.9Z"/><path class="cls-5" d="M100.78,272.5A95.71,95.71,0,0,1,98,285.3h0c-3,9.9-8.5,21.6-18.1,20.1-7.4-1.2-13.4-9.8-17.7-18.9a141.64,141.64,0,0,1-8.3-22.9l16.8-3.4,3.3-.7,15.8,7.6Z"/><path class="cls-6" d="M48.88,3.8,34,9.5,15.68,33.9,9.28,52.8S14,89,18,90.8s31,14.8,31,14.8l38.2-33.2L78,65.3,66.38,54.7,54.58,36.2l-2.4-21.4Z"/><path class="cls-7" d="M46.18,7.8S17.38,51,54.68,88s-19.1,17.6-19.1,17.6L9.78,82.8V45.9l14.7-27.1,20.3-15Z"/><path class="cls-5" d="M96.88,220.1a41.52,41.52,0,0,1-80.8-10.9c-1-18.2,10.2-42.7,25.3-40.6s47.5,25.8,55.5,51.5Z"/><path class="cls-8" d="M88.48,209.7a13.89,13.89,0,0,1-20.2-18.8,24.2,24.2,0,1,0,20.5,27.4,24.8,24.8,0,0,0-.3-8.6Zm-33.7,20.8a5.75,5.75,0,1,1,5.7-5.8h0a5.72,5.72,0,0,1-5.7,5.8Z"/><path class="cls-9" d="M98.48,70.78l-.4-.2-.4-.1c-38.8-10.6-40.4-39.8-41.2-55.4-.2-4.6-.4-7.4-1.5-9.5-2.3-4.3-6.5-6.2-11.4-5.4-13.2,2.2-33.1,26.1-37.2,50.7-5.2,31.2,13.4,46.8,14.2,47.5l.5.4,19.8,6.8h.6c.1,0,3.8.1,9.5.1,6.7,0,16.3-.1,25.9-.8,33.9-2.2,39.8-8.4,41.1-13.6C119.68,84.78,113.68,78.48,98.48,70.78ZM14,53.58c7.8-.5,27.9-2.2,41-7.5a61.34,61.34,0,0,0,5.5,9.5c-12.9,10.3-37.1,17-45.3,19.1A49,49,0,0,1,14,53.58Zm38.2-14.9c-10.7,4.5-27.9,6.3-36.4,6.9A78.91,78.91,0,0,1,24.38,27a169.56,169.56,0,0,0,25.7,2.7A68,68,0,0,0,52.18,38.68ZM45,8c1.8-.3,2.5.3,3.1,1.4a49.19,49.19,0,0,1,.6,6.2c.1,1.8.2,4,.4,6.3A181,181,0,0,1,29.48,20C35,13.08,40.88,8.58,45,8Zm65.4,81.4c0,.1-1.8,5.6-33.9,7.7-15.5,1-30.9.7-34.1.7l-17.3-5.9a35.29,35.29,0,0,1-7-9.8c9.6-2.5,33.7-9.4,47.5-20.5,6.7,6.8,16.3,12.7,29.7,16.5C110.48,85.78,110.38,89.38,110.38,89.38Z"/><path class="cls-5" d="M120.58,274.7a48.66,48.66,0,0,1-3.4,11.8c-1,2.1-2.2,3.9-3.7,4.7-3.4,1.9-8.1-1-10.7-6.8a23.08,23.08,0,0,1-2-9.6c0-2.1.6-3.5,1.7-4.3h0c3.6-2.7,11.8.9,15.8,3h0C119.68,274.2,120.58,274.7,120.58,274.7Z"/><path class="cls-10" d="M100.78,272.5A95.71,95.71,0,0,1,98,285.3h0c-16-13.1-35.9,1.2-35.9,1.2a141.64,141.64,0,0,1-8.3-22.9l15-4.1,1.8.7,19.1,7Z"/><path class="cls-10" d="M120.58,274.7a48.66,48.66,0,0,1-3.4,11.8c-5.7-4.5-14.1-2.2-14.5-2.1a23.08,23.08,0,0,1-2-9.6c0-2.1.6-3.5,1.7-4.3h0l3-.3,12.8,3.2h0C119.68,274.2,120.58,274.7,120.58,274.7Z"/><path class="cls-8" d="M150.08,271v10.3c-3.2.1-6.5.1-9.7.1-5.2-.1-10.4-.3-15.7-.7s-10.5-1-15.7-1.8c-1.3-.2-2.6-.5-3.9-.7s-2.6-.5-3.9-.8l-3.9-.9-3.9-1.2a31.74,31.74,0,0,1-4-1.4l-2-.8c-.7-.3-1.2-.5-1.8-.8a65,65,0,0,0-6.8-2.8,57.45,57.45,0,0,0-6.7-2.1,24.39,24.39,0,0,0-6.4-.8,10.61,10.61,0,0,0-5,1l-.5.2c-.1.1-.3.2-.4.3-.3.2-.5.5-.8.7a9.35,9.35,0,0,0-1.4,1.9,10,10,0,0,0-1,2.6,28.17,28.17,0,0,0-.7,3.1,18.7,18.7,0,0,0-.3,3.4c0,.6-.1,1.2-.1,1.8v2a3.08,3.08,0,0,1-3,3,3.18,3.18,0,0,1-3-1.9,24.14,24.14,0,0,1-1.3-4.1,29.67,29.67,0,0,1-.7-4.3,21.8,21.8,0,0,1,1.1-9.3,16.86,16.86,0,0,1,2.6-4.7,16.45,16.45,0,0,1,4.2-3.7,19.23,19.23,0,0,1,9.8-2.6,17.63,17.63,0,0,1,2.3,0,17.85,17.85,0,0,1,2.3.2l2.2.3,2.1.4a68.92,68.92,0,0,1,8.1,2.3q3.9,1.35,7.5,3a13.36,13.36,0,0,0,1.8.7l1.6.6a31.9,31.9,0,0,0,3.3,1.1l3.4,1,3.6.8c1.2.3,2.4.5,3.6.7s2.4.5,3.6.7c2.5.4,4.9.8,7.4,1s5,.6,7.5.8c5,.4,10,.8,15.1,1.1C143.68,270.7,146.88,270.8,150.08,271Z"/><path class="cls-11" d="M46.08,102.4S32.18,130.9,16,134.1a11.93,11.93,0,0,1-3.8-1.7h0C5.38,128,1.88,117.4.58,106h0a114.29,114.29,0,0,1-.5-15.4,12.1,12.1,0,0,1,.1-1.9c.2-3.1,1.9-5.7,5.1-6C24.58,81.1,48.68,101.1,46.08,102.4Z"/><path class="cls-5" d="M226.18,259.5l-26.9,13s4.7,35.5,21,32.9,26-41.8,26-41.8Z"/><ellipse class="cls-11" cx="96.75" cy="169.6" rx="13.6" ry="28.4" transform="translate(-96.56 142.1) rotate(-52.2)"/><path class="cls-11" d="M.08,204.4s.1.6.4,1.7c2.4,11.2,17.1,73.8,42.3,61.3-7,22.1-26.7,15.1-26.7,15.1L.48,284.2Z"/><path class="cls-11" d="M14.58,249.7s4.5,27.7,12.5,28.2c8.2.5,15.6-10.5,15.6-10.5s-7.7,26.8-.1,27.8a68.47,68.47,0,0,0,14.7.2L41,308.4l-8.5-.8-4.1-10.9-16.8,4.8-8.1-14.3-.8-4.6C2.88,282.4,3.48,268.2,14.58,249.7Z"/><path class="cls-12" d="M192.38,234a14.07,14.07,0,0,1-4.5,10.5,10.84,10.84,0,0,1-7.5,3,10.44,10.44,0,0,1-4.9-1.2A9.08,9.08,0,0,0,164,249l-1.6,2.1a15.36,15.36,0,0,1-24.7,0l-1.6-2.1a9.09,9.09,0,0,0-7.3-3.7,9.24,9.24,0,0,0-4.2,1,10.35,10.35,0,0,1-4.9,1.1,11.21,11.21,0,0,1-7.5-2.9,14.28,14.28,0,0,1-3.5-15.8,16.29,16.29,0,0,1,2.2-3.8l8.4-10.2c16.2-19.8,45.4-19.8,61.5,0l8.4,10.2a12.16,12.16,0,0,1,2.2,3.8A13.86,13.86,0,0,1,192.38,234Z"/><path class="cls-13" d="M196,242.8a13.77,13.77,0,0,1-4.9,10.5,12.39,12.39,0,0,1-13.4,1.8,10.45,10.45,0,0,0-12.5,2.7l-1.7,2.1a17.53,17.53,0,0,1-26.8,0l-1.7-2.1a10.3,10.3,0,0,0-8-3.7,10.18,10.18,0,0,0-4.5,1,12.3,12.3,0,0,1-5.3,1.1,13,13,0,0,1-8.2-2.9,13.6,13.6,0,0,1-3.8-15.8,17.26,17.26,0,0,1,2.4-3.8l9.1-10.2c17.6-19.8,49.2-19.8,66.6,0l9.1,10.2a11.07,11.07,0,0,1,2.4,3.8A12.42,12.42,0,0,1,196,242.8Z"/><path class="cls-14" d="M191.38,228.7a14.93,14.93,0,0,1-3.5,5.2,10.84,10.84,0,0,1-7.5,3,10.44,10.44,0,0,1-4.9-1.2,9.08,9.08,0,0,0-11.5,2.7l-1.6,2.1a15.36,15.36,0,0,1-24.7,0l-1.6-2.1a9.09,9.09,0,0,0-7.3-3.7,9.24,9.24,0,0,0-4.2,1,10.35,10.35,0,0,1-4.9,1.1,11.21,11.21,0,0,1-7.5-2.9,13.68,13.68,0,0,1-3.5-5.2,16.29,16.29,0,0,1,2.2-3.8l8.4-10.2c16.2-19.8,45.4-19.8,61.5,0l8.4,10.2A12.16,12.16,0,0,1,191.38,228.7Z"/><path class="cls-8" d="M57.48,295.8c-.2.2-.2.5-.4.7-.4.4-.7.9-1.1,1.3a26.08,26.08,0,0,1-2.4,2.3c-1.7,1.5-3.3,2.9-5.1,4.2a64.71,64.71,0,0,1-11.7,7l-1.4.1a2.56,2.56,0,0,1-1.9-.6,15.46,15.46,0,0,1-2.4-2.7,11.39,11.39,0,0,1-1.6-3.1,17.12,17.12,0,0,1-1-6.2c0-.7.1-1.4.1-2.1v-.2h0c-2,1.3-4,2.4-6.1,3.5a47.57,47.57,0,0,1-6.5,2.9c-1.2.4-2.4.7-3.7,1a11.44,11.44,0,0,1-4.5-.1,2.62,2.62,0,0,1-1.6-1l-.6-.5a30.61,30.61,0,0,1-4.8-13,31.87,31.87,0,0,1-.2-6.9c.2-2.3.5-4.6.8-6.7A53.77,53.77,0,0,1,13,252.3a73.46,73.46,0,0,0-4,12,63.19,63.19,0,0,0-1.8,12.1,57.18,57.18,0,0,0,.2,5.9,33.87,33.87,0,0,0,1,5.7,74,74,0,0,0,3.1,9.8c.2,0,.4.1.6,0a15,15,0,0,0,3,0,35.46,35.46,0,0,0,6.4-1c2.3-.6,4.9-1.4,7.4-2.2a22.5,22.5,0,0,1,2.4-.8c1-.3,1.9-.7,3-1.1-.9.7-1.9,1.4-2.8,2h0c0,.1,0,.1.1.2a26.62,26.62,0,0,0,.8,3.3,12.51,12.51,0,0,0,2.3,4.1,10.48,10.48,0,0,0,1.7,1.4,56.92,56.92,0,0,0,10.4-2.7c1.9-.7,4-1.5,5.9-2.4,1-.5,1.9-1,2.9-1.5.5-.2.8-.6,1.3-.8a1.47,1.47,0,0,0,.6-.5C57.38,295.9,57.38,295.8,57.48,295.8Z"/><path class="cls-5" d="M179.48,274.7s19.8-11.7,19.8.1-7.8,19.1-12.7,16.4S179.48,274.7,179.48,274.7Z"/><path class="cls-10" d="M210.48,267.2l19.1-7,1.8-.7,15,4.1a141.64,141.64,0,0,1-8.3,22.9s-19.9-14.3-35.9-1.2h0a95.71,95.71,0,0,1-2.8-12.8Z"/><path class="cls-10" d="M182,273.4h0l12.8-3.2,3,.3h0c1.1.8,1.7,2.2,1.7,4.3a23.08,23.08,0,0,1-2,9.6c-.4-.1-8.8-2.4-14.5,2.1a48.66,48.66,0,0,1-3.4-11.8S180.48,274.2,182,273.4Z"/><path class="cls-11" d="M299.68,284.2l-15.6-1.7s-19.7,7-26.7-15.1c25.2,12.5,39.9-50.1,42.3-61.3.3-1.1.4-1.7.4-1.7Z"/><path class="cls-11" d="M297.48,282.6l-.8,4.6-8.1,14.3-16.8-4.8-4.1,10.9-8.5.8-16.3-13a68.47,68.47,0,0,0,14.7-.2c7.6-1-.1-27.8-.1-27.8s7.4,11,15.6,10.5c8-.5,12.5-28.2,12.5-28.2C296.68,268.2,297.28,282.4,297.48,282.6Z"/><path class="cls-8" d="M242.68,295.8a1.47,1.47,0,0,0,.6.5c.5.2.8.6,1.3.8,1,.5,1.9,1,2.9,1.5,1.9.9,4,1.7,5.9,2.4a56.92,56.92,0,0,0,10.4,2.7,10.48,10.48,0,0,0,1.7-1.4,12.51,12.51,0,0,0,2.3-4.1,26.62,26.62,0,0,0,.8-3.3c.1-.1.1-.1.1-.2h0c-.9-.6-1.9-1.3-2.8-2,1.1.4,2,.8,3,1.1a22.5,22.5,0,0,1,2.4.8c2.5.8,5.1,1.6,7.4,2.2a35.46,35.46,0,0,0,6.4,1,15,15,0,0,0,3,0c.2.1.4,0,.6,0a74,74,0,0,0,3.1-9.8,33.87,33.87,0,0,0,1-5.7,57.18,57.18,0,0,0,.2-5.9,63.19,63.19,0,0,0-1.8-12.1,73.46,73.46,0,0,0-4-12,53.77,53.77,0,0,1,11.6,23.4c.3,2.1.6,4.4.8,6.7a31.87,31.87,0,0,1-.2,6.9,30.61,30.61,0,0,1-4.8,13l-.6.5a2.62,2.62,0,0,1-1.6,1,11.44,11.44,0,0,1-4.5.1c-1.3-.3-2.5-.6-3.7-1a47.57,47.57,0,0,1-6.5-2.9c-2.1-1.1-4.1-2.2-6.1-3.5h0v.2c0,.7.1,1.4.1,2.1a17.12,17.12,0,0,1-1,6.2,11.39,11.39,0,0,1-1.6,3.1,15.46,15.46,0,0,1-2.4,2.7,2.56,2.56,0,0,1-1.9.6l-1.4-.1a64.71,64.71,0,0,1-11.7-7c-1.8-1.3-3.4-2.7-5.1-4.2a26.08,26.08,0,0,1-2.4-2.3c-.4-.4-.7-.9-1.1-1.3-.2-.2-.2-.5-.4-.7C242.78,295.8,242.78,295.9,242.68,295.8Z"/><path class="cls-8" d="M57.58,295.3h0a1.09,1.09,0,0,0-.1.5h0l.2-.2A.37.37,0,0,0,57.58,295.3Z"/><ellipse class="cls-15" cx="150.08" cy="217.1" rx="20.2" ry="12.8"/><path class="cls-16" d="M45.58,59.5a3.79,3.79,0,0,1-3.4-2.3,3.64,3.64,0,0,1,2-4.8l5.4-2.3a3.68,3.68,0,1,1,2.8,6.8L47,59.3A5.9,5.9,0,0,1,45.58,59.5Z"/><path class="cls-16" d="M43.48,38.1a2.82,2.82,0,0,1-2.9-2.8,3,3,0,0,1,2.8-3.1l2.8-.1a3,3,0,0,1,.3,5.9l-2.8.1Z"/><path class="cls-16" d="M58.08,80.2a4.74,4.74,0,0,1-2.6-8.7l6.4-4.1A4.7,4.7,0,0,1,67,75.3l-6.4,4.1A4.12,4.12,0,0,1,58.08,80.2Z"/><path class="cls-4" d="M203.18,220.1c-2.8-31,35.2-60,51.4-64.2s31.7,18.4,33.1,36.5c1.5,21-15,40.3-37.8,44.5C229,240.6,203.18,220,203.18,220.1Z"/><path class="cls-6" d="M251,3.87l15,5.7L284.18,34l6.4,18.9s-4.7,36.2-8.7,38-31,14.8-31,14.8L210.78,74l11.1-8.6,11.7-10.7,11.7-18.4,2.4-21.4Z"/><path class="cls-7" d="M253.68,7.87s28.8,43.2-8.5,80.2,19.1,17.6,19.1,17.6l25.8-22.8V46l-14.7-27.1-20.3-15Z"/><path class="cls-5" d="M203.18,220.1c8-25.7,40.4-49.4,55.5-51.5S285,191,284,209.2a41.52,41.52,0,0,1-80.8,10.9Z"/><path class="cls-8" d="M258.88,209.7a13.89,13.89,0,0,1-20.2-18.8,24.2,24.2,0,1,0,20.5,27.4,24.8,24.8,0,0,0-.3-8.6Zm-33.7,20.8a5.75,5.75,0,1,1,5.7-5.8h0a5.72,5.72,0,0,1-5.7,5.8Z"/><path class="cls-9" d="M181.88,91.37c1.3,5.2,7.2,11.4,41.1,13.6,9.6.6,19.1.8,25.9.8,5.7,0,9.4-.1,9.5-.1h.6l19.8-6.8.5-.4c.8-.7,19.4-16.3,14.2-47.5-4.1-24.7-23.9-48.6-37.3-50.8a10.47,10.47,0,0,0-11.4,5.4c-1.1,2-1.2,4.8-1.5,9.5-.8,15.7-2.3,44.8-41.2,55.5l-.4.1-.4.2C186.28,78.47,180.28,84.77,181.88,91.37Zm102.8-16.7c-8.2-2.1-32.4-8.8-45.3-19.1a48.58,48.58,0,0,0,5.5-9.5c13.1,5.4,33.2,7.1,41,7.5A47.51,47.51,0,0,1,284.68,74.67Zm-34.8-45a183.77,183.77,0,0,0,25.7-2.7,70.19,70.19,0,0,1,8.6,18.6c-8.6-.6-25.7-2.4-36.4-6.9A88.56,88.56,0,0,0,249.88,29.67Zm20.5-9.8a156.82,156.82,0,0,1-19.6,1.9c.2-2.3.3-4.5.4-6.3a36.53,36.53,0,0,1,.6-6.2c.6-1.1,1.3-1.7,3.1-1.4C259.08,8.57,264.88,13.07,270.38,19.87ZM204.58,78c13.5-3.7,23-9.6,29.7-16.5,13.8,11.1,37.9,18.1,47.5,20.5a37.57,37.57,0,0,1-7,9.8l-17.3,5.9c-3.2.1-18.6.3-34.1-.7-32.1-2.1-33.9-7.6-33.9-7.7C189.48,89.37,189.38,85.77,204.58,78Z"/><path class="cls-16" d="M254.38,59.57a3.79,3.79,0,0,0,3.4-2.3,3.64,3.64,0,0,0-2-4.8l-5.4-2.3a3.68,3.68,0,0,0-2.8,6.8l5.4,2.3A3.19,3.19,0,0,0,254.38,59.57Z"/><path class="cls-16" d="M256.48,38.17a2.82,2.82,0,0,0,2.9-2.8,3,3,0,0,0-2.8-3.1l-2.8-.1a3,3,0,0,0-.3,5.9l2.8.1Z"/><path class="cls-16" d="M241.88,80.27a4.74,4.74,0,0,0,2.6-8.7l-6.4-4.1a4.7,4.7,0,0,0-5.1,7.9l6.4,4.1A4.12,4.12,0,0,0,241.88,80.27Z"/><path class="cls-8" d="M150,271v10.3c3.2.1,6.5.1,9.7.1,5.2-.1,10.4-.3,15.7-.7s10.5-1,15.7-1.8c1.3-.2,2.6-.5,3.9-.7s2.6-.5,3.9-.8l3.9-.9,3.9-1.2a31.74,31.74,0,0,0,4-1.4l2-.8c.7-.3,1.2-.5,1.8-.8a65,65,0,0,1,6.8-2.8,57.45,57.45,0,0,1,6.7-2.1,24.39,24.39,0,0,1,6.4-.8,10.61,10.61,0,0,1,5,1l.5.2c.1.1.3.2.4.3.3.2.5.5.8.7a9.35,9.35,0,0,1,1.4,1.9,10,10,0,0,1,1,2.6,28.17,28.17,0,0,1,.7,3.1,18.7,18.7,0,0,1,.3,3.4c0,.6.1,1.2.1,1.8v2a3.08,3.08,0,0,0,3,3,3.18,3.18,0,0,0,3-1.9,24.14,24.14,0,0,0,1.3-4.1,29.67,29.67,0,0,0,.7-4.3,21.8,21.8,0,0,0-1.1-9.3,16.86,16.86,0,0,0-2.6-4.7,16.45,16.45,0,0,0-4.2-3.7,19.23,19.23,0,0,0-9.8-2.6,17.63,17.63,0,0,0-2.3,0,17.85,17.85,0,0,0-2.3.2l-2.2.3-2.1.4a68.92,68.92,0,0,0-8.1,2.3q-3.9,1.35-7.5,3a13.36,13.36,0,0,1-1.8.7l-1.6.6a31.9,31.9,0,0,1-3.3,1.1l-3.4,1-3.6.8c-1.2.3-2.4.5-3.6.7s-2.4.5-3.6.7c-2.5.4-4.9.8-7.4,1s-5,.6-7.5.8c-5,.4-10,.8-15.1,1.1C156.38,270.7,153.18,270.8,150,271Z"/><path class="cls-11" d="M258.18,97.1a113.91,113.91,0,0,0-17.4-11.9,119.11,119.11,0,0,0-18.2-8.2c-2.7-.9-5.4-1.8-8.2-2.5a112.39,112.39,0,0,0-29.2-3.8h-70.1A116.76,116.76,0,0,0,92,73c-2,.4-4.1.9-6.1,1.4a113.21,113.21,0,0,0-26.5,10.7A109.2,109.2,0,0,0,42,97,114,114,0,0,0,.38,180c1.3-17,9.5-49,51.2-49,38.2,0,58.5,36.8,98.4,36.9h.1c14.7,0,26.8-5,38-11.4,16.2-9.1,30.7-20.9,49.2-24.5a58.27,58.27,0,0,1,11.2-1.1c41.7,0,49.9,32,51.3,49.1A114,114,0,0,0,258.18,97.1Z"/><path class="cls-11" d="M294.78,82.7c3.2.3,4.9,2.9,5.1,6a12.1,12.1,0,0,1,.1,1.9,114.29,114.29,0,0,1-.5,15.4h0c-1.3,11.4-4.8,22-11.6,26.4h0a11.93,11.93,0,0,1-3.8,1.7c-16.2-3.2-30.1-31.7-30.1-31.7C251.38,101.1,275.48,81.1,294.78,82.7Z"/><ellipse class="cls-11" cx="203.24" cy="169.59" rx="28.4" ry="13.6" transform="translate(-61.29 160.16) rotate(-37.8)"/><path class="cls-3" d="M289.08,94.6a27.13,27.13,0,0,1,4.9-3.8c3.2-1.5,2.5,10.3,1.7,14.4-2.2,8.9-5.8,17.7-12,20.9h0a7.51,7.51,0,0,1-5.3-.3c-1.8-.9-3.3-3.3-3.2-8.2C275.48,109.2,283.48,99.8,289.08,94.6Z"/><path class="cls-17" d="M289.08,94.6a35.22,35.22,0,0,1-.3,11.3c-.7,3.7-5.2,16.3-10.4,20-1.8-.9-3.3-3.3-3.2-8.2C275.48,109.2,283.48,99.8,289.08,94.6Z"/><path class="cls-18" d="M234.88,151.6c-6.2,6.8-27.4,10.4-46.8,5-11.9-3.3-23.2-10-29.8-21.4,4.9,21.4-5.8,26.8-5.8,26.8a17.62,17.62,0,0,1-2.4.3H150c-10.1.8-47.4.3-50.8-54.1-63.2,17.7-30.9-23-7.3-35A117.51,117.51,0,0,1,115,70.9h70.1a112.39,112.39,0,0,1,29.2,3.8c2.8.7,5.5,1.6,8.2,2.5-4.9,4.5-14.5,7.1-20.2,7.4,19.6,12.9,31.6,32.4,35,47.6C239.18,140.5,238.38,147.6,234.88,151.6Z"/><path class="cls-19" d="M100.78,60.2c-20.1-1.5-78.6,59.1-4,38.2,4,62.9,53.3,53.8,53.3,53.8s10.7-5.4,5.8-26.8c17.5,29.9,66.6,27.4,76.6,16.4s-2-47.1-32.5-67.1c9.5-.5,30-7.4,21-19-9.9-18.8-63.1-10-64.1-6.3,0,0,17.1-13.2,3.9-24S112.28,39.6,100.78,60.2Z"/><path class="cls-3" d="M24.78,117.6c.2,5-1.4,7.3-3.2,8.2a7,7,0,0,1-5.3.3h0c-6.1-3.2-9.7-12-12-20.9-.8-4.1-1.5-15.9,1.8-14.3A23,23,0,0,1,11,94.7C16.58,99.8,24.58,109.2,24.78,117.6Z"/><path class="cls-18" d="M51.08,106.9a72.86,72.86,0,0,0-9.3-9.9,109.2,109.2,0,0,1,17.4-11.9h0C59.28,85.2,60.58,93.4,51.08,106.9Z"/><path class="cls-18" d="M249,106.9a72.86,72.86,0,0,1,9.3-9.9,113.91,113.91,0,0,0-17.4-11.9h0C240.78,85.2,239.58,93.4,249,106.9Z"/><path class="cls-17" d="M24.78,117.6c.2,5-1.4,7.3-3.2,8.2-5.2-3.7-9.7-16.3-10.4-20a38.34,38.34,0,0,1-.3-11.3C16.58,99.8,24.58,109.2,24.78,117.6Z"/></svg>