<svg id="Layer_1" data-name="Layer 1" xmlns="http://www.w3.org/2000/svg" xmlns:xlink="http://www.w3.org/1999/xlink" viewBox="0 0 300 345"><defs><style>.cls-1{fill:url(#linear-gradient);}.cls-2{fill:#00aeef;}.cls-3{fill:url(#linear-gradient-2);}.cls-4{fill:#d0ebf6;}.cls-5{fill:#97d9f6;}.cls-6{fill:#d62027;}.cls-7{fill:#a51e25;}.cls-8{fill:#59af48;}.cls-9{fill:#f7941d;}.cls-10{fill:#9bd4ee;}.cls-11{fill:#c7eaf7;}.cls-12{fill:#dd7399;}</style><linearGradient id="linear-gradient" x1="150" y1="346.98" x2="150" y2="177.26" gradientUnits="userSpaceOnUse"><stop offset="0" stop-color="#00aeef"/><stop offset="1" stop-color="#2e3192"/></linearGradient><linearGradient id="linear-gradient-2" x1="0.62" y1="214.42" x2="299.87" y2="214.42" gradientUnits="userSpaceOnUse"><stop offset="0" stop-color="#2e3192"/><stop offset="0" stop-color="#2e3293"/><stop offset="0.04" stop-color="#2153ab"/><stop offset="0.08" stop-color="#176fc0"/><stop offset="0.12" stop-color="#0f86d2"/><stop offset="0.17" stop-color="#0898df"/><stop offset="0.23" stop-color="#03a5e8"/><stop offset="0.32" stop-color="#01aced"/><stop offset="0.51" stop-color="#00aeef"/><stop offset="0.65" stop-color="#01aced"/><stop offset="0.74" stop-color="#04a3e7"/><stop offset="0.81" stop-color="#0995dd"/><stop offset="0.87" stop-color="#1082ce"/><stop offset="0.92" stop-color="#1a68bb"/><stop offset="0.97" stop-color="#2549a4"/><stop offset="1" stop-color="#2e3192"/></linearGradient></defs><title>blook-yogurt</title><path class="cls-1" d="M248.91,345H51.09a31.67,31.67,0,0,1-31.67-31.67V270.25H280.58v43.08A31.67,31.67,0,0,1,248.91,345Z"/><rect class="cls-2" x="19.42" y="83.83" width="261.17" height="261.17" rx="31.67"/><rect class="cls-3" x="19.42" y="83.83" width="261.17" height="261.17" rx="31.67"/><path class="cls-2" d="M219.35,83.83H80.65C68.38,83.83,58.44,98,58.44,115.5V313.33c0,17.49,9.94,31.67,22.21,31.67h138.7c12.27,0,22.21-14.18,22.21-31.67V115.5C241.56,98,231.62,83.83,219.35,83.83Z"/><path class="cls-4" d="M19.42,226.14l28.82-17.07a67.3,67.3,0,0,1,66.81-1h0a66.71,66.71,0,0,0,58.55,2.88l107-45.94V298.24L177,320.62a66.7,66.7,0,0,1-63.82-20.74l-2.31-2.58a67.3,67.3,0,0,0-71.58-18.94L19.42,285Z"/><path class="cls-5" d="M82.15,278.36a135.39,135.39,0,0,0-16.05-12.7,39.31,39.31,0,0,1-13.63-16.35C49.54,242.78,49,237,50.69,231.5l0-.06a21.72,21.72,0,0,1,1.2-3l.08-.16c.22-.45.48-.92.76-1.41l.21-.36c.08-.14.16-.28.25-.42l9.6-15.3H58.24a38.81,38.81,0,0,1,10-2.19l.51,0,0,5.21,7.6-5.89,2.3-.21-.19-1.44L85,201.16c.62-.48,1.23-.93,1.82-1.34a67.26,67.26,0,0,0-38.56,9.25l-22,13-1.08,4.43,5.69,1.81c-2.23,9.34-1.09,19.12,3.4,29.14a59,59,0,0,0,13.23,18.7A67.32,67.32,0,0,1,82.15,278.36Z"/><path class="cls-5" d="M146.38,262a108.25,108.25,0,0,1,.88-21.2,59.09,59.09,0,0,0-2-24.46,66.42,66.42,0,0,1-24.71-5.56,32.07,32.07,0,0,1,3.74,6.4h0a39.21,39.21,0,0,1,3.13,21.06,128.4,128.4,0,0,0-1,25.09,23.88,23.88,0,0,1-24.74,25.47,67,67,0,0,1,9.23,8.55l2.31,2.58a64.64,64.64,0,0,0,5.77,5.7c.51-.21,1-.41,1.53-.64A44.08,44.08,0,0,0,146.38,262Z"/><path class="cls-6" d="M133.43,213C122.29,188.17,97.84,187.66,73,198.8S32.2,228.52,43.34,253.4a49.12,49.12,0,0,0,17.12,20.51,119.73,119.73,0,0,1,17.9,14.71,33.91,33.91,0,0,0,58-26,118.62,118.62,0,0,1,.94-23.14A49.06,49.06,0,0,0,133.43,213Z"/><path class="cls-7" d="M121.87,198.4l.22-.16c-12.71-9.52-30.8-7.65-49.12.56a79.26,79.26,0,0,0-19,11.6l-1.64,1.45c-5.32,4.88-9.22,10.43-11.18,16.63a42.21,42.21,0,0,0,13.67-1,48.36,48.36,0,0,0,4,23.49l4.4,9.83,8-7.2c.76-.68,14-12.76,16.7-28.56,7.28,3.18,16.69,5.48,26.83,3.35l9.18-1.93-3.51-8.69a46.91,46.91,0,0,0-9.15-13.45A49.19,49.19,0,0,0,121.87,198.4Z"/><path class="cls-8" d="M117.26,192s-15-16.94-38.41,1.21A54.39,54.39,0,0,1,80.6,179.3c.8-3-1.62-6.47-4.35-6.27h0c-5,.37-8.8,4.49-9.34,10.38a69.42,69.42,0,0,0,.41,15.26c-7,.63-26,3.93-30.25,21.17,0,0,14.6,4.66,29.15-6.47,0,0-8.15,16.6-.2,34.34,0,0,21-18.84,12.54-37.67,0,0,16.16,14.49,34.62,10.62A42.35,42.35,0,0,0,90,199.22S103,202.38,117.26,192Z"/><ellipse class="cls-7" cx="93.12" cy="243.78" rx="4.82" ry="8.09" transform="translate(-91.53 59.38) rotate(-24.13)"/><ellipse class="cls-9" cx="92.84" cy="243.17" rx="2.95" ry="4.95" transform="translate(-91.3 59.21) rotate(-24.13)"/><ellipse class="cls-7" cx="118.69" cy="249.92" rx="4.82" ry="8.09" transform="matrix(0.83, -0.55, 0.55, 0.83, -118.21, 107)"/><ellipse class="cls-9" cx="118.32" cy="249.36" rx="2.95" ry="4.95" transform="translate(-117.96 106.7) rotate(-33.5)"/><ellipse class="cls-7" cx="80.75" cy="266.91" rx="4.82" ry="8.09" transform="translate(-62.13 27.44) rotate(-13.99)"/><ellipse class="cls-9" cx="80.59" cy="266.26" rx="2.95" ry="4.95" transform="translate(-61.98 27.38) rotate(-13.99)"/><ellipse class="cls-7" cx="122.23" cy="221.18" rx="4.82" ry="8.09" transform="translate(-101.76 104.19) rotate(-33.5)"/><ellipse class="cls-9" cx="121.86" cy="220.62" rx="2.95" ry="4.95" transform="translate(-101.51 103.89) rotate(-33.5)"/><ellipse class="cls-7" cx="56.9" cy="250.44" rx="4.82" ry="8.09" transform="translate(-58.86 21.19) rotate(-13.99)"/><ellipse class="cls-9" cx="56.74" cy="249.79" rx="2.95" ry="4.95" transform="translate(-58.71 21.13) rotate(-13.99)"/><ellipse class="cls-7" cx="104.99" cy="270.29" rx="4.29" ry="7.21" transform="translate(-101.33 66.55) rotate(-24.13)"/><ellipse class="cls-9" cx="104.75" cy="269.74" rx="2.62" ry="4.41" transform="translate(-101.13 66.4) rotate(-24.13)"/><ellipse class="cls-7" cx="96.42" cy="288.24" rx="3.97" ry="6.67" transform="translate(-193.27 196.28) rotate(-53.89)"/><ellipse class="cls-9" cx="95.98" cy="287.91" rx="2.43" ry="4.08" transform="translate(-193.19 195.78) rotate(-53.89)"/><ellipse class="cls-7" cx="124.09" cy="275.84" rx="6.67" ry="3.97" transform="translate(-162.59 372.28) rotate(-84.37)"/><ellipse class="cls-9" cx="124.14" cy="275.29" rx="4.08" ry="2.43" transform="translate(-162 371.84) rotate(-84.37)"/><path class="cls-4" d="M278.55,81.93H21.45a22.79,22.79,0,0,0-4.3.42c-22.87,4.49-22.87,60.38,0,64.87a22.79,22.79,0,0,0,4.3.42h257.1a22.79,22.79,0,0,0,4.3-.42c22.87-4.49,22.87-60.38,0-64.87A22.79,22.79,0,0,0,278.55,81.93Z"/><path class="cls-10" d="M278.55,75.44H21.45a22,22,0,0,0-4.3.43c-22.87,4.48-22.87,60.38,0,64.86a22,22,0,0,0,4.3.43h257.1a22,22,0,0,0,4.3-.43c22.87-4.48,22.87-60.38,0-64.86A22,22,0,0,0,278.55,75.44Z"/><path class="cls-11" d="M254.94,84.41H45.06a31.21,31.21,0,0,0-3.51.21c-18.67,2.23-18.67,34.48,0,36.7a29,29,0,0,0,3.51.21H254.94a29,29,0,0,0,3.51-.21c18.67-2.22,18.67-34.47,0-36.7A31.21,31.21,0,0,0,254.94,84.41Z"/><path class="cls-12" d="M258.45,107.58a29,29,0,0,0-3.51-.21H45.06a29,29,0,0,0-3.51.21c-5.75.69-9.73,3.39-11.94,6.87,2.21,3.48,6.19,6.19,11.94,6.87a29,29,0,0,0,3.51.21H254.94a29,29,0,0,0,3.51-.21c5.75-.68,9.73-3.39,11.94-6.87C268.18,111,264.2,108.27,258.45,107.58Z"/><ellipse class="cls-4" cx="157.94" cy="190.25" rx="17.55" ry="15.96" transform="translate(-60.3 74.02) rotate(-22.26)"/><ellipse class="cls-5" cx="190.66" cy="254.58" rx="26.69" ry="24.28" transform="translate(-109.42 360.01) rotate(-72.53)"/><circle class="cls-5" cx="227.07" cy="224.16" r="10.46"/></svg>