<?xml version="1.0" encoding="UTF-8" standalone="no"?>
<!-- Created with Inkscape (http://www.inkscape.org/) -->
<svg width="58.502998" height="50" viewBox="0 0 15.478919 13.229167" version="1.1" id="svg5" xml:space="preserve" inkscape:version="1.2 (dc2aedaf03, 2022-05-15)" sodipodi:docname="Blooks Unlocked.svg" xmlns:inkscape="http://www.inkscape.org/namespaces/inkscape" xmlns:sodipodi="http://sodipodi.sourceforge.net/DTD/sodipodi-0.dtd" xmlns:xlink="http://www.w3.org/1999/xlink" xmlns="http://www.w3.org/2000/svg" xmlns:svg="http://www.w3.org/2000/svg"><sodipodi:namedview id="namedview7" pagecolor="#505050" bordercolor="#ffffff" borderopacity="1" inkscape:showpageshadow="0" inkscape:pageopacity="0" inkscape:pagecheckerboard="1" inkscape:deskcolor="#505050" inkscape:document-units="mm" showgrid="false" inkscape:zoom="2.5463604" inkscape:cx="23.170326" inkscape:cy="33.773695" inkscape:window-width="1366" inkscape:window-height="705" inkscape:window-x="-8" inkscape:window-y="-8" inkscape:window-maximized="1" inkscape:current-layer="g52400"/><defs id="defs2"><linearGradient inkscape:collect="always" id="linearGradient21234"><stop style="stop-color:#546272;stop-opacity:1;" offset="0" id="stop21230"/><stop style="stop-color:#53606f;stop-opacity:1;" offset="1" id="stop21232"/></linearGradient><linearGradient inkscape:collect="always" id="linearGradient19984"><stop style="stop-color:#77889d;stop-opacity:1;" offset="0" id="stop19980"/><stop style="stop-color:#9fa9b2;stop-opacity:1;" offset="1" id="stop19982"/></linearGradient><linearGradient inkscape:collect="always" xlink:href="#linearGradient19984" id="linearGradient19986" x1="11.17853" y1="10.078645" x2="11.134168" y2="1.4837593" gradientUnits="userSpaceOnUse"/><linearGradient inkscape:collect="always" xlink:href="#linearGradient21234" id="linearGradient21236" x1="18.678841" y1="7.3994832" x2="18.64699" y2="2.741909" gradientUnits="userSpaceOnUse" gradientTransform="matrix(0.96487146,0,0,0.80093202,0.90199149,4.0375547)"/><filter style="color-interpolation-filters:sRGB" inkscape:label="Drop Shadow" id="filter2880" x="0" y="0" width="1.0192173" height="1"><feFlood flood-opacity="1" flood-color="rgb(180,184,189)" result="flood" id="feFlood2870"/><feComposite in="flood" in2="SourceGraphic" operator="in" result="composite1" id="feComposite2872"/><feGaussianBlur in="composite1" stdDeviation="0" result="blur" id="feGaussianBlur2874"/><feOffset dx="0.3" dy="0" result="offset" id="feOffset2876"/><feComposite in="SourceGraphic" in2="offset" operator="over" result="composite2" id="feComposite2878"/></filter><filter style="color-interpolation-filters:sRGB" inkscape:label="Drop Shadow" id="filter885" x="0" y="0" width="1.0490605" height="1.0107441"><feFlood flood-opacity="1" flood-color="rgb(127,127,127)" result="flood" id="feFlood875"/><feComposite in="flood" in2="SourceGraphic" operator="in" result="composite1" id="feComposite877"/><feGaussianBlur in="composite1" stdDeviation="0" result="blur" id="feGaussianBlur879"/><feOffset dx="0.7" dy="0.1" result="offset" id="feOffset881"/><feComposite in="offset" in2="SourceGraphic" operator="out" result="composite2" id="feComposite883"/></filter></defs><g id="g1710" transform="translate(-2.6755865,1.7764562)"><g id="g52400" transform="matrix(0.89832952,0,0,0.89832952,0.62572306,0.18808567)"><path id="path35776" style="fill:#f3ff30;fill-opacity:1;stroke:none;stroke-width:0.286373;stroke-linecap:square;stroke-linejoin:bevel;stroke-miterlimit:9.4;stroke-dasharray:none;stroke-opacity:1;paint-order:stroke fill markers" d="M 10.935937,0.25440268 C 10.589789,0.25061269 9.8481155,4.1242899 9.5184528,4.2102336 9.1887901,4.2961774 5.8936538,1.4751654 5.612748,1.6424317 5.3318426,1.8096981 7.4550261,5.328323 7.2503742,5.5605388 7.0457224,5.7927544 2.4164058,5.1176394 2.3080402,5.3920736 2.1996748,5.6665078 6.3764469,7.4866351 6.3749754,7.7764242 6.3736469,8.0380836 2.9542881,9.4722236 2.3679849,9.952002 H 19.133887 C 18.143212,9.3421511 15.418195,8.1097394 15.419385,7.8756429 15.420856,7.5858538 19.616175,5.8574701 19.510608,5.5806926 19.405042,5.303915 14.769511,5.8773103 14.56724,5.6406372 14.364968,5.4039643 16.52435,1.9321051 16.245174,1.7587036 15.965998,1.5853024 12.641868,4.3338785 12.313114,4.2407227 11.984362,4.1475669 11.282087,0.25819418 10.935937,0.25440268 Z M 2.3142414,10.001611 c -0.025836,0.02856 -0.037196,0.05218 -0.030489,0.06976 0.00388,0.01016 0.01484,0.01892 0.030489,0.02687 z"/><path id="path37956" style="opacity:0.523952;fill:#f77600;fill-opacity:1;stroke:none;stroke-width:3.4;stroke-linecap:round;stroke-linejoin:miter;stroke-miterlimit:9.4;stroke-dasharray:none;stroke-opacity:1;paint-order:stroke fill markers" d="m -2.9352867,-4.2614533 c -0.2684482,-0.00273 -0.8644885,3.58731443 -1.120642,3.6676718 -0.2561535,0.0803574 -2.7969973,-2.5260881 -3.015782,-2.370508 -0.2187846,0.1555802 1.4088012,3.4109658 1.2488016,3.62653951 -0.1599996,0.21557372 -3.7467325,-0.4000593 -3.8322852,-0.14559391 -0.085553,0.25446539 3.1443875,1.9312558 3.1416561,2.199704 -0.00273,0.2684483 -3.2661704,1.8797816 -3.1858131,2.1359351 0.080357,0.2561534 3.6792412,-0.2862453 3.8348214,-0.067461 0.055511,0.078062 -0.1257471,0.5403062 -0.370317,1.1074009 L 0.1236882,5.8737387 C -0.09146536,5.3409802 -0.24426369,4.9159974 -0.19000612,4.8428941 -0.03000648,4.6273203 3.5567308,5.2421925 3.6422836,4.9877271 3.7278363,4.7332617 0.49789606,3.0564713 0.50062743,2.788023 0.5033588,2.5195748 3.7667934,0.90900239 3.686436,0.65284891 3.6060787,0.39669545 0.00719937,0.93833331 -0.14838081,0.71954869 -0.30396099,0.50076405 1.3893785,-2.7202303 1.1738048,-2.8802299 0.95823112,-3.0402296 -1.6343386,-0.48638016 -1.8888039,-0.57193291 -2.1432693,-0.65748566 -2.6668384,-4.2587219 -2.9352867,-4.2614533 Z" transform="matrix(0.81117954,0.00197566,0.00480507,0.67916409,13.322989,5.9625252)"/><rect style="opacity:1;fill:#f3ff30;fill-opacity:1;stroke-width:0.2;stroke-linecap:square;stroke-miterlimit:9.4;paint-order:stroke fill markers" id="rect52252" width="4.4884672" height="3.9766245" x="8.1413498" y="5.5422792"/><g id="g48835" transform="matrix(0.45757641,0,0,0.45757641,5.2786565,1.747699)"><g id="g1698" style="display:inline" transform="matrix(0.77742553,0,0,0.82752153,-6.294282,0.52818023)"><path id="rect3424" style="fill:#b4b8bd;fill-opacity:1;stroke-width:0.677967;stroke-linecap:round;stroke-linejoin:round" d="m 12.136032,-3.1771302 c -3.9522727,0 -7.1340498,3.3960663 -7.1340498,7.6145223 V 6.130312 H 7.1027387 V 5.0962666 c 0,-3.2602059 2.2448162,-5.8849121 5.0332933,-5.8849121 2.788479,0 5.033295,2.6247062 5.033295,5.8849121 V 6.130312 h 2.100757 V 4.4373921 c 0,-4.218456 -3.181776,-7.6145223 -7.134052,-7.6145223 z"/><path id="path360" style="fill:#b4b8bd;fill-opacity:1;stroke-width:0.677967;stroke-linecap:round;stroke-linejoin:round;filter:url(#filter885)" d="m 11.435777,-3.2771647 c -3.9522725,0 -7.1340496,3.3960663 -7.1340496,7.6145223 V 6.0302775 H 6.4024839 V 4.9962321 c 0,-3.2602059 2.2448162,-5.8849121 5.0332931,-5.8849121 2.788479,0 5.033295,2.6247062 5.033295,5.8849121 v 1.0340454 h 2.100757 V 4.3373576 c 0,-4.218456 -3.181776,-7.6145223 -7.134052,-7.6145223 z"/><path id="path4449" style="opacity:0.304;fill:#ffffff;fill-opacity:1;stroke-width:0.595;stroke-linecap:round;stroke-linejoin:round" d="m 13.000071,-3.1218364 c -0.04414,-0.00564 -0.08842,-0.01124 -0.132808,-0.01602 -0.0601,-0.00648 -0.120328,-0.012163 -0.180867,-0.017053 -0.06054,-0.00489 -0.121454,-0.00912 -0.182418,-0.012402 -0.06097,-0.00327 -0.122082,-0.00559 -0.183451,-0.00723 -0.06137,-0.00165 -0.122734,-0.00258 -0.184485,-0.00258 -0.06176,1.3e-6 -0.123115,9.351e-4 -0.184485,0.00258 -0.06136,0.00165 -0.123001,0.00395 -0.183968,0.00723 -0.06097,0.00328 -0.121359,0.00752 -0.181901,0.012402 -0.06054,0.00489 -0.120761,0.010574 -0.180868,0.017054 -0.0601,0.00648 -0.120193,0.01366 -0.179834,0.021704 -0.05964,0.00805 -0.119117,0.016758 -0.178283,0.026355 -0.05916,0.00959 -0.118063,0.01988 -0.176733,0.031006 -0.05867,0.011127 -0.117027,0.023019 -0.175183,0.035656 -0.05816,0.012638 -0.11601,0.02618 -0.173633,0.040308 -0.05762,0.014127 -0.11501,0.028842 -0.172083,0.044442 -0.05707,0.015601 -0.114029,0.03204 -0.170532,0.049093 -0.0565,0.017053 -0.11255,0.034742 -0.168465,0.053227 -0.055913,0.018483 -0.1116054,0.03798 -0.1669146,0.057878 -0.047857,0.017217 -0.095239,0.034967 -0.1426274,0.053227 l 1.72651,1.99419353 c 0.02207,-0.00361 0.04398,-0.007576 0.06615,-0.0108512 0.04208,-0.006216 0.0842,-0.0115334 0.126607,-0.0165363 0.0424,-0.005002 0.08493,-0.00966 0.127641,-0.0134362 0.04272,-0.003779 0.08566,-0.006767 0.128675,-0.009302 0.04301,-0.002535 0.08641,-0.004407 0.129708,-0.005684 0.0433,-0.001275 0.08666,-0.00207 0.130227,-0.002069 0.04357,-3e-7 0.08693,7.93e-4 0.130225,0.002067 0.0433,0.001274 0.08669,0.003152 0.129706,0.005686 0.04301,0.002534 0.08596,0.005526 0.128673,0.009303 0.04271,0.003778 0.08523,0.008433 0.127644,0.0134327 0.0424,0.005007 0.08453,0.0103185 0.126604,0.0165395 0.04208,0.006221 0.08383,0.0132557 0.125576,0.0206688 0.04174,0.00742 0.08315,0.0151718 0.124542,0.0237684 0.0414,0.008597 0.08299,0.0181396 0.124024,0.027905 0.04103,0.009766 0.08182,0.0200856 0.122475,0.0310046 0.04066,0.0109189 0.08118,0.0220471 0.121441,0.0341046 0.04027,0.0120578 0.08003,0.0250589 0.11989,0.0382401 0.03986,0.0131808 0.07992,0.02654 0.119375,0.0408227 0.03945,0.0142894 0.07828,0.0290637 0.117308,0.0444397 0.03903,0.0153756 0.07821,0.031604 0.11679,0.0480581 0.03858,0.016454 0.07659,0.0331289 0.114718,0.0506458 0.03813,0.0175165 0.07603,0.0356992 0.113691,0.0542573 0.03766,0.0185647 0.07547,0.0377665 0.112659,0.0573573 0.03719,0.0195912 0.0739,0.0398476 0.110586,0.060463 0.03669,0.0206083 0.07337,0.0414343 0.109554,0.0630451 0.03618,0.0216111 0.07183,0.0440638 0.107488,0.06666217 0.03566,0.0225988 0.07132,0.04567998 0.106455,0.06924426 0.03514,0.0235648 0.06979,0.04730997 0.104385,0.07183213 0.03459,0.02452148 0.06881,0.04946771 0.102835,0.07493158 0.03406,0.0254376 0.06782,0.0516464 0.101286,0.0780313 0.03344,0.0264041 0.06686,0.0533162 0.09974,0.0806129 0.03289,0.02729 0.06539,0.0550074 0.09767,0.0832007 0.03232,0.0281607 0.06393,0.056713 0.0956,0.0857819 0.03166,0.0290818 0.06354,0.0584154 0.09457,0.088364 0.03106,0.0299223 0.0616,0.0601444 0.09198,0.0909514 0.03038,0.0308132 0.06067,0.0624342 0.09043,0.0940574 0.02976,0.0316235 0.05872,0.0637015 0.08785,0.0961204 0.0291,0.032437 0.05836,0.0649658 0.08684,0.0981649 0.02843,0.0332413 0.05649,0.0667403 0.08421,0.10078493 0.02774,0.03403 0.05512,0.068554 0.08219,0.1033334 0.02707,0.03478 0.05375,0.069876 0.08013,0.1053903 0.02631,0.03558 0.0519,0.071711 0.07751,0.1080037 0.02561,0.036299 0.05108,0.073056 0.07597,0.1100675 0.02489,0.037004 0.04927,0.074397 0.07338,0.1121369 0.02409,0.037759 0.04796,0.075766 0.07131,0.1142067 0.02335,0.038434 0.04616,0.07715 0.06873,0.1162696 0.0226,0.039093 0.04489,0.07855 0.06666,0.1183395 0.02176,0.039803 0.04311,0.079964 0.06408,0.1204023 0.02097,0.040445 0.04134,0.081393 0.0615,0.1224718 0.02015,0.041079 0.0401,0.082326 0.05943,0.1240236 0.01933,0.041698 0.03836,0.083785 0.05684,0.1260931 0.01848,0.042307 0.03612,0.084741 0.05375,0.1276376 0.01763,0.042896 0.03491,0.086238 0.05168,0.1297074 0.01675,0.043476 0.03322,0.087225 0.04909,0.131259 0.01588,0.044034 0.03153,0.088227 0.04651,0.1328103 0.01498,0.044578 0.02934,0.08977 0.04341,0.134873 0.01407,0.045101 0.02768,0.090282 0.04083,0.1359065 0.01315,0.045623 0.02602,0.091332 0.03824,0.1374581 0.01222,0.046123 0.02387,0.092915 0.03514,0.1395268 0.01127,0.046608 0.02173,0.092967 0.03204,0.1400419 0.01031,0.047078 0.02011,0.09458 0.02945,0.1421116 0.0093,0.047533 0.01852,0.095167 0.02687,0.1431451 0.0084,0.047979 0.0159,0.096297 0.02325,0.1446954 0.0073,0.048396 0.01432,0.096921 0.02067,0.1457289 0.0063,0.048806 0.01225,0.098077 0.01757,0.147281 0.0053,0.0492 0.01019,0.098212 0.01447,0.1477953 0.0043,0.049572 0.0081,0.099404 0.01137,0.1493467 0.0032,0.049943 0.0056,0.1000848 0.0078,0.1503788 0.0022,0.050292 0.0041,0.1007919 0.0052,0.151413 0.0011,0.050626 0.0015,0.101503 0.0016,0.1524452 v 0.8061528 l 0.197404,0.2278933 1.903243,-7e-7 V 4.4373297 c -1e-6,-0.06591 -5.23e-4,-0.1313819 -0.0021,-0.1968865 -0.001,-0.043035 -0.003,-0.085825 -0.0046,-0.1286764 z"/><path id="path4436" style="opacity:0.304;fill:#ffffff;fill-opacity:1;stroke-width:0.677967;stroke-linecap:round;stroke-linejoin:round" d="M 6.5322489,-0.2858338 8.1212992,1.5383443 C 8.5951199,0.8073307 9.2121161,0.211107 9.9242899,-0.1948833 L 8.3383402,-2.0159608 c -0.6912467,0.4630998 -1.3023046,1.049099 -1.8060913,1.730127 z"/></g><path d="m 20.645823,6.9303851 v 9.4815689 a 1.8265805,1.5179525 0 0 1 -1.826581,1.517954 H 16.334933 V 5.4124325 h 2.484309 a 1.8265805,1.5179525 0 0 1 1.826581,1.5179526 z" fill="url(#A)" id="path18694" style="fill:url(#linearGradient21236);fill-opacity:1;stroke-width:0.0457705"/><path id="rect18696" style="display:inline;fill:url(#linearGradient19986);fill-opacity:1;stroke-width:0.0566525;filter:url(#filter2880)" d="m 4.8663696,1.7166911 c -1.0487651,0 -1.8929077,0.8441424 -1.8929077,1.8929077 V 15.452287 c 0,1.048765 0.8441426,1.892907 1.8929077,1.892907 H 16.691488 c 1.048765,0 1.892907,-0.844142 1.892907,-1.892907 V 3.6095988 c 0,-1.0487653 -0.844142,-1.8929077 -1.892907,-1.8929077 z M 10.779187,7.424353 a 2.0735002,2.0735002 0 0 1 2.073258,2.0732585 2.0735002,2.0735002 0 0 1 -0.519864,1.3730425 v 3.362586 c 0,0.208725 -0.167997,0.376721 -0.376722,0.376721 H 9.6025146 c -0.208725,0 -0.3772379,-0.167996 -0.3772379,-0.376721 V 10.869104 A 2.0735002,2.0735002 0 0 1 8.7054118,9.4976115 2.0735002,2.0735002 0 0 1 10.779187,7.424353 Z" transform="matrix(0.96487146,0,0,0.80093205,0.90199148,4.0375547)"/><path id="rect18827" style="display:inline;fill:#505e6c;fill-opacity:1;stroke-width:0.0114974" d="m 9.7100704,12.387021 a 2.0006612,1.6607328 0 0 0 0.2857039,0.355948 v 2.694444 c 0,0.167175 0.1625937,0.301727 0.3639867,0.301727 h 0.578887 c -0.0063,0 -0.01274,-1.54e-4 -0.01895,-4.14e-4 -0.0062,-2.59e-4 -0.01232,-7.68e-4 -0.01845,-0.0012 -0.0062,-5.13e-4 -0.01192,-8.81e-4 -0.01795,-0.0017 -0.0061,-7.61e-4 -0.01202,-0.0019 -0.01795,-0.0029 -0.0059,-0.001 -0.01213,-0.0021 -0.01795,-0.0033 -0.0058,-0.0012 -0.01125,-0.0027 -0.01695,-0.0041 -0.0057,-0.0015 -0.01138,-0.0029 -0.01695,-0.0046 -0.0056,-0.0017 -0.01101,-0.0034 -0.01645,-0.0053 -0.0054,-0.0019 -0.01114,-0.0041 -0.01645,-0.0063 -0.0053,-0.0021 -0.01029,-0.0043 -0.01546,-0.0066 -0.0051,-0.0023 -0.01046,-0.0045 -0.01546,-0.007 -0.005,-0.0025 -0.0096,-0.0052 -0.01446,-0.0078 -0.0048,-0.0028 -0.0098,-0.0053 -0.01446,-0.0083 -0.0046,-0.0029 -0.0095,-0.006 -0.01396,-0.0091 -0.0045,-0.003 -0.0087,-0.0063 -0.01297,-0.0095 -0.0043,-0.0032 -0.0084,-0.0065 -0.01247,-0.0099 -0.0041,-0.0034 -0.0086,-0.0068 -0.01247,-0.01035 -0.004,-0.0036 -0.0078,-0.0075 -0.01147,-0.01117 -0.0037,-0.0037 -0.0069,-0.0073 -0.01047,-0.01117 -0.0035,-0.0039 -0.0072,-0.008 -0.01047,-0.012 -0.0033,-0.004 -0.006,-0.0078 -0.009,-0.012 -0.003,-0.0041 -0.0062,-0.0086 -0.009,-0.01283 -0.0028,-0.0042 -0.0054,-0.0084 -0.008,-0.01283 -0.0026,-0.0044 -0.0052,-0.0091 -0.0074,-0.01365 -0.0023,-0.0045 -0.0044,-0.009 -0.0065,-0.01365 -0.002,-0.0046 -0.0037,-0.0093 -0.0055,-0.01407 -0.0017,-0.0047 -0.0035,-0.0092 -0.005,-0.01408 -0.0014,-0.0048 -0.0028,-0.01 -0.004,-0.0149 -0.0012,-0.0049 -0.0026,-0.0099 -0.0035,-0.0149 -9.19e-4,-0.005 -0.0014,-0.0098 -0.002,-0.0149 -6.2e-4,-0.0051 -0.0012,-0.01016 -0.0014,-0.01531 -3.13e-4,-0.0052 -4.98e-4,-0.0105 -4.98e-4,-0.01573 v -2.69448 a 2.0006612,1.6607328 0 0 1 -0.09175,-0.09271 2.0006612,1.6607328 0 0 1 -0.08377,-0.09809 2.0006612,1.6607328 0 0 1 -0.07429,-0.102647 2.0006612,1.6607328 0 0 1 -0.03839,-0.0625 z"/><path id="path19968" style="display:inline;fill:#505e6c;fill-opacity:1;fill-rule:evenodd;stroke-width:0.183826" d="m 11.495098,9.9839574 a 2.0006612,1.6607328 0 0 0 -2.0009262,1.6605386 2.0006612,1.6607328 0 0 0 0.5016025,1.098473 v 0.561652 c 0.012022,1.76e-4 0.023832,8.01e-4 0.035903,8.01e-4 0.183663,-4.57e-4 0.366375,-0.0219 0.542988,-0.06374 V 12.74294 c -0.03192,-0.02998 -0.06251,-0.06091 -0.09175,-0.09271 -0.02934,-0.03184 -0.05728,-0.06457 -0.08377,-0.09809 -0.02625,-0.03346 -0.05102,-0.0677 -0.0743,-0.102646 -0.02349,-0.03507 -0.04545,-0.07082 -0.06581,-0.107199 -0.02038,-0.03626 -0.03917,-0.07312 -0.05634,-0.110509 -0.01694,-0.03744 -0.03224,-0.07541 -0.04587,-0.113795 -0.01382,-0.03839 -0.02596,-0.07719 -0.0364,-0.116304 -0.01052,-0.03904 -0.01934,-0.07838 -0.02643,-0.117959 -0.0069,-0.03957 -0.01203,-0.07933 -0.01546,-0.119202 -0.0036,-0.03994 -0.0054,-0.07998 -0.0055,-0.120029 -3.8e-5,-0.04143 0.0018,-0.08285 0.0055,-0.124167 0.0038,-0.04127 0.0095,-0.08241 0.01695,-0.123341 0.0074,-0.04098 0.01678,-0.0817 0.02792,-0.122098 0.01099,-0.04039 0.02379,-0.08043 0.03839,-0.120029 0.01486,-0.03955 0.03148,-0.07862 0.04986,-0.117132 0.01823,-0.03854 0.03819,-0.07651 0.05983,-0.113821 0.02161,-0.03727 0.0449,-0.07386 0.06981,-0.109681 0.02484,-0.03585 0.05128,-0.07092 0.07927,-0.105128 0.02823,-0.0343 0.058,-0.06771 0.08925,-0.100164 0.03099,-0.03231 0.06342,-0.06365 0.09723,-0.09395 0.03407,-0.03034 0.0695,-0.05961 0.106204,-0.08774 0.0365,-0.0282 0.07425,-0.05527 0.113184,-0.08112 0.0391,-0.0258 0.07935,-0.05037 0.120664,-0.07367 0.01573,-0.0089 0.287051,-0.149475 0.553957,-0.2884829 a 2.0006612,1.6607328 0 0 0 -0.006,0 z"/></g></g></g></svg>