<?xml version="1.0" encoding="UTF-8" standalone="no"?>
<!DOCTYPE svg PUBLIC "-//W3C//DTD SVG 1.1//EN" "http://www.w3.org/Graphics/SVG/1.1/DTD/svg11.dtd">
<svg width="100%" height="100%" viewBox="0 0 300 345" version="1.1" xmlns="http://www.w3.org/2000/svg" xmlns:xlink="http://www.w3.org/1999/xlink" xml:space="preserve" xmlns:serif="http://www.serif.com/" style="fill-rule:evenodd;clip-rule:evenodd;stroke-linecap:round;stroke-linejoin:round;">
    <g id="holidays">
        <path d="M263.62,344.81L36.38,344.81C16.423,344.81 0,328.387 0,308.43L0,242.43L300,242.43L300,308.43C300,328.387 283.577,344.81 263.62,344.81Z" style="fill:#caa200;fill-rule:nonzero;"/>
        <path d="M300,81.19C300,61.111 283.699,44.81 263.62,44.81L36.38,44.81C16.301,44.81 0,61.111 0,81.19L0,261.82C0,281.899 16.301,298.2 36.38,298.2L263.62,298.2C283.699,298.2 300,281.899 300,261.82L300,81.19Z" style="fill:#ffcd05;"/>
        <g>
            <path id="base_body_2" d="M0,262.01C0,282.089 16.301,298.39 36.38,298.39L263.62,298.39C283.699,298.39 300,282.089 300,262.01L300,308.62C300,328.577 283.577,345 263.62,345L36.38,345C16.423,345 0,328.577 0,308.62L0,262.01Z" style="fill:#579639;fill-rule:nonzero;"/>
            <rect x="135.09" y="316.533" width="38.278" height="5.956" style="fill:#ac7e00;"/>
            <path id="base_body_21" serif:id="base_body_2" d="M297.221,322.489C291.723,335.651 278.678,345 263.62,345L36.38,345C21.322,345 8.277,335.651 2.779,322.489L297.221,322.489Z" style="fill:#2b2b2b;fill-rule:nonzero;"/>
            <path d="M127.867,345L180.344,345L180.344,318.525C180.344,315.892 178.207,313.755 175.574,313.755L132.636,313.755C130.004,313.755 127.867,315.892 127.867,318.525L127.867,345ZM135.419,321.307L135.419,344.415L172.792,344.415L172.792,321.307L135.419,321.307Z" style="fill:#ffc200;"/>
            <g id="base_body_22" serif:id="base_body_2" transform="matrix(1,0,0,1,0,2.31518)">
                <path d="M0.152,311.93C0.051,310.84 0,309.736 0,308.62L0,259.14C5.249,272.785 20.897,282.477 36.38,282.477L263.62,282.477C279.103,282.477 294.751,272.785 300,259.14L300,308.62C300,311.085 299.75,313.496 299.272,315.831L267.179,299.765L245.589,316.209L212.682,302.07L186.621,320.174L151.462,300.091L125.241,319.598L91.301,300.423L61.499,318.852L24.916,296.83L0.152,311.93Z" style="fill-opacity:0.25;fill-rule:nonzero;"/>
            </g>
            <path id="base_body_23" serif:id="base_body_2" d="M0.152,311.93C0.051,310.84 0,309.736 0,308.62L0,259.14C5.249,272.785 20.897,282.477 36.38,282.477L263.62,282.477C279.103,282.477 294.751,272.785 300,259.14L300,308.62C300,311.085 299.75,313.496 299.272,315.831L267.179,299.765L245.589,316.209L212.682,302.07L186.621,320.174L151.462,300.091L125.241,319.598L91.301,300.423L61.499,318.852L24.916,296.83L0.152,311.93Z" style="fill:#bf322b;fill-rule:nonzero;"/>
            <path d="M188.072,307.287C186.904,308.099 186.127,308.638 185.927,308.777C185.336,309.188 185.189,310.002 185.6,310.594C186.011,311.186 186.825,311.332 187.417,310.921C187.617,310.783 188.394,310.243 189.561,309.432C190.153,309.021 190.3,308.206 189.889,307.615C189.478,307.023 188.664,306.876 188.072,307.287ZM61.49,307.033L60.82,306.63C60.203,306.259 59.4,306.458 59.029,307.076C58.657,307.693 58.857,308.496 59.474,308.868C60.337,309.387 60.826,309.681 60.826,309.681C61.029,309.804 61.262,309.868 61.499,309.868C61.499,309.868 61.786,309.92 62.195,309.667C62.251,309.633 62.557,309.444 63.064,309.13C63.677,308.751 63.867,307.945 63.488,307.333C63.109,306.72 62.304,306.53 61.691,306.909L61.49,307.033ZM123.716,306.947C123.074,306.584 122.307,306.151 121.443,305.663C120.816,305.309 120.018,305.53 119.664,306.158C119.31,306.785 119.531,307.582 120.159,307.936C121.023,308.425 121.789,308.858 122.432,309.221C123.059,309.575 123.856,309.354 124.211,308.726C124.565,308.099 124.344,307.302 123.716,306.947ZM128.75,305.07C127.964,305.655 127.257,306.181 126.655,306.629C126.077,307.059 125.957,307.877 126.387,308.456C126.817,309.034 127.635,309.154 128.213,308.724C128.816,308.276 129.523,307.75 130.308,307.165C130.886,306.735 131.007,305.917 130.577,305.339C130.147,304.76 129.328,304.64 128.75,305.07ZM182.788,306.191C182.091,305.794 181.331,305.359 180.521,304.896C179.895,304.539 179.097,304.757 178.74,305.382C178.382,306.008 178.6,306.806 179.226,307.164C180.036,307.627 180.796,308.061 181.493,308.459C182.119,308.816 182.917,308.598 183.274,307.973C183.632,307.347 183.414,306.549 182.788,306.191ZM194.505,302.818C193.765,303.332 193.047,303.831 192.361,304.308C191.769,304.719 191.622,305.533 192.033,306.125C192.444,306.717 193.259,306.863 193.85,306.452C194.536,305.976 195.255,305.477 195.995,304.963C196.587,304.551 196.733,303.737 196.322,303.145C195.911,302.554 195.097,302.407 194.505,302.818ZM68.353,302.789C67.573,303.271 66.829,303.732 66.133,304.162C65.52,304.541 65.33,305.346 65.709,305.959C66.088,306.572 66.893,306.762 67.506,306.383C68.202,305.953 68.946,305.492 69.727,305.01C70.34,304.631 70.53,303.825 70.151,303.213C69.772,302.6 68.966,302.41 68.353,302.789ZM56.346,303.937C55.644,303.515 54.895,303.064 54.109,302.591C53.492,302.219 52.689,302.418 52.317,303.036C51.946,303.653 52.145,304.456 52.763,304.828C53.549,305.301 54.298,305.752 55,306.174C55.617,306.546 56.42,306.346 56.792,305.729C57.163,305.112 56.964,304.309 56.346,303.937ZM244.076,303.848C243.408,303.561 242.598,303.213 241.677,302.817C241.015,302.533 240.246,302.839 239.962,303.501C239.677,304.163 239.984,304.932 240.646,305.216C241.567,305.612 242.378,305.96 243.045,306.247C243.707,306.531 244.475,306.225 244.76,305.563C245.044,304.901 244.738,304.132 244.076,303.848ZM297.558,303.223C296.894,302.89 296.107,302.496 295.223,302.054C294.579,301.732 293.794,301.993 293.472,302.637C293.149,303.281 293.41,304.066 294.055,304.389C294.938,304.831 295.725,305.225 296.39,305.558C297.034,305.88 297.819,305.619 298.141,304.975C298.464,304.33 298.203,303.545 297.558,303.223ZM116.896,303.094C116.162,302.679 115.401,302.25 114.623,301.81C113.995,301.455 113.198,301.677 112.844,302.304C112.489,302.932 112.711,303.729 113.338,304.083C114.117,304.523 114.877,304.953 115.612,305.368C116.239,305.722 117.036,305.501 117.391,304.873C117.745,304.246 117.523,303.449 116.896,303.094ZM249.273,301.472C248.506,302.057 247.804,302.591 247.196,303.055C246.623,303.491 246.512,304.311 246.948,304.884C247.385,305.457 248.205,305.568 248.778,305.132C249.386,304.668 250.088,304.134 250.855,303.55C251.428,303.113 251.539,302.293 251.103,301.72C250.666,301.147 249.846,301.036 249.273,301.472ZM175.986,302.306C175.245,301.883 174.488,301.45 173.719,301.011C173.093,300.654 172.295,300.872 171.938,301.497C171.58,302.123 171.798,302.921 172.424,303.278C173.192,303.718 173.95,304.15 174.691,304.574C175.317,304.931 176.115,304.713 176.472,304.087C176.83,303.462 176.612,302.664 175.986,302.306ZM135.035,300.395C134.323,300.924 133.622,301.446 132.94,301.953C132.362,302.383 132.242,303.202 132.672,303.78C133.102,304.358 133.92,304.478 134.498,304.048C135.18,303.541 135.882,303.019 136.593,302.49C137.171,302.06 137.292,301.241 136.862,300.663C136.432,300.085 135.613,299.965 135.035,300.395ZM236.879,300.756C236.103,300.422 235.3,300.077 234.48,299.725C233.817,299.44 233.049,299.747 232.765,300.409C232.48,301.071 232.787,301.839 233.449,302.124C234.269,302.476 235.072,302.821 235.848,303.155C236.51,303.439 237.278,303.132 237.563,302.47C237.847,301.808 237.541,301.04 236.879,300.756ZM0,297.728L0,302.937C0.01,302.938 0.019,302.939 0.029,302.94L0.273,302.94C0.37,302.931 0.467,302.911 0.562,302.879C0.657,302.848 0.747,302.806 0.83,302.756L2.742,301.59C3.357,301.215 3.552,300.411 3.177,299.795C2.802,299.18 1.998,298.985 1.383,299.36L1.322,299.397C1.318,299.268 1.315,299.138 1.312,299.008C1.298,298.294 0.712,297.724 0,297.728ZM75.016,298.669C74.271,299.13 73.528,299.589 72.795,300.042C72.182,300.421 71.992,301.226 72.371,301.839C72.75,302.452 73.556,302.642 74.168,302.263C74.901,301.81 75.644,301.35 76.389,300.89C77.002,300.511 77.192,299.706 76.813,299.093C76.434,298.48 75.629,298.29 75.016,298.669ZM49.635,299.897C48.901,299.456 48.154,299.006 47.398,298.551C46.781,298.179 45.978,298.379 45.606,298.996C45.235,299.613 45.434,300.416 46.052,300.788C46.807,301.243 47.555,301.693 48.289,302.134C48.906,302.506 49.709,302.306 50.08,301.689C50.452,301.072 50.253,300.269 49.635,299.897ZM200.938,298.349C200.229,298.842 199.511,299.34 198.794,299.839C198.202,300.25 198.056,301.064 198.467,301.656C198.878,302.248 199.692,302.394 200.284,301.983C201.001,301.485 201.719,300.986 202.428,300.493C203.02,300.082 203.167,299.268 202.756,298.676C202.344,298.085 201.53,297.938 200.938,298.349ZM290.554,299.716C289.797,299.338 289.016,298.947 288.219,298.548C287.574,298.225 286.789,298.486 286.467,299.131C286.144,299.775 286.406,300.56 287.05,300.883C287.847,301.282 288.628,301.673 289.385,302.051C290.029,302.374 290.814,302.113 291.137,301.468C291.459,300.824 291.198,300.039 290.554,299.716ZM110.076,299.241C109.319,298.814 108.559,298.384 107.803,297.957C107.175,297.602 106.378,297.824 106.024,298.451C105.669,299.079 105.891,299.876 106.518,300.23C107.275,300.658 108.035,301.087 108.792,301.515C109.419,301.869 110.216,301.647 110.57,301.02C110.925,300.393 110.703,299.596 110.076,299.241ZM169.184,298.421C168.425,297.987 167.668,297.555 166.917,297.126C166.291,296.768 165.493,296.986 165.136,297.612C164.778,298.238 164.996,299.036 165.622,299.393C166.373,299.822 167.13,300.255 167.889,300.688C168.515,301.046 169.313,300.828 169.67,300.202C170.028,299.576 169.81,298.778 169.184,298.421ZM255.505,296.726C254.808,297.257 254.112,297.787 253.427,298.308C252.854,298.745 252.743,299.565 253.18,300.138C253.617,300.711 254.436,300.822 255.01,300.385C255.694,299.864 256.39,299.334 257.087,298.803C257.66,298.367 257.771,297.547 257.334,296.974C256.898,296.4 256.078,296.289 255.505,296.726ZM229.681,297.663C228.879,297.319 228.077,296.974 227.282,296.632C226.62,296.348 225.852,296.654 225.567,297.317C225.283,297.979 225.59,298.747 226.252,299.031C227.046,299.373 227.849,299.718 228.651,300.062C229.313,300.347 230.081,300.04 230.366,299.378C230.65,298.716 230.343,297.948 229.681,297.663ZM141.32,295.719C140.634,296.23 139.933,296.751 139.225,297.278C138.647,297.708 138.527,298.526 138.957,299.105C139.387,299.683 140.205,299.803 140.783,299.373C141.491,298.846 142.192,298.325 142.878,297.814C143.456,297.384 143.577,296.566 143.147,295.988C142.717,295.41 141.898,295.289 141.32,295.719ZM8.071,295.282C7.302,295.751 6.554,296.207 5.841,296.642C5.226,297.017 5.031,297.821 5.406,298.436C5.781,299.051 6.585,299.246 7.201,298.871C7.913,298.437 8.661,297.981 9.43,297.512C10.045,297.137 10.24,296.333 9.865,295.718C9.49,295.102 8.686,294.907 8.071,295.282ZM283.549,296.21C282.767,295.819 281.986,295.428 281.214,295.041C280.57,294.719 279.785,294.98 279.462,295.624C279.14,296.269 279.401,297.054 280.045,297.376C280.818,297.763 281.598,298.154 282.38,298.545C283.024,298.867 283.809,298.606 284.132,297.962C284.454,297.318 284.193,296.533 283.549,296.21ZM81.678,294.549C80.957,294.995 80.214,295.454 79.457,295.922C78.845,296.301 78.655,297.107 79.034,297.719C79.413,298.332 80.218,298.522 80.831,298.143C81.588,297.675 82.331,297.215 83.051,296.77C83.664,296.391 83.854,295.586 83.475,294.973C83.096,294.36 82.291,294.17 81.678,294.549ZM42.924,295.857C42.174,295.406 41.427,294.956 40.687,294.511C40.07,294.139 39.267,294.339 38.895,294.956C38.523,295.573 38.723,296.376 39.34,296.748C40.08,297.193 40.828,297.643 41.577,298.094C42.195,298.466 42.998,298.267 43.369,297.649C43.741,297.032 43.541,296.229 42.924,295.857ZM103.256,295.388C102.478,294.948 101.717,294.519 100.982,294.104C100.355,293.749 99.558,293.971 99.204,294.598C98.849,295.226 99.071,296.023 99.698,296.377C100.433,296.792 101.193,297.222 101.971,297.662C102.599,298.016 103.396,297.794 103.75,297.167C104.105,296.54 103.883,295.743 103.256,295.388ZM207.372,293.88C206.704,294.344 205.985,294.843 205.227,295.37C204.636,295.781 204.489,296.595 204.9,297.187C205.311,297.778 206.125,297.925 206.717,297.514C207.474,296.988 208.194,296.488 208.862,296.024C209.453,295.613 209.6,294.799 209.189,294.207C208.778,293.615 207.964,293.469 207.372,293.88ZM222.484,294.571C221.65,294.212 220.847,293.867 220.085,293.54C219.423,293.256 218.655,293.562 218.37,294.224C218.086,294.886 218.392,295.655 219.054,295.939C219.816,296.266 220.62,296.612 221.454,296.97C222.116,297.254 222.884,296.948 223.168,296.286C223.453,295.624 223.146,294.855 222.484,294.571ZM162.382,294.536C161.6,294.089 160.842,293.656 160.115,293.241C159.489,292.883 158.691,293.101 158.334,293.727C157.976,294.352 158.194,295.15 158.82,295.508C159.547,295.923 160.305,296.356 161.087,296.803C161.713,297.16 162.511,296.942 162.868,296.317C163.226,295.691 163.008,294.893 162.382,294.536ZM261.736,291.98C261.083,292.477 260.386,293.008 259.659,293.562C259.086,293.998 258.975,294.818 259.412,295.391C259.848,295.965 260.668,296.076 261.241,295.639C261.968,295.086 262.666,294.554 263.318,294.057C263.892,293.62 264.003,292.8 263.566,292.227C263.129,291.654 262.31,291.543 261.736,291.98ZM276.544,292.704C275.73,292.296 274.948,291.905 274.209,291.535C273.565,291.212 272.78,291.474 272.457,292.118C272.135,292.762 272.396,293.547 273.04,293.87C273.78,294.24 274.562,294.631 275.375,295.039C276.02,295.361 276.805,295.1 277.127,294.455C277.45,293.811 277.188,293.026 276.544,292.704ZM14.759,291.205C14.026,291.651 13.28,292.106 12.53,292.564C11.914,292.939 11.719,293.743 12.095,294.358C12.47,294.973 13.274,295.168 13.889,294.793C14.639,294.336 15.386,293.881 16.118,293.434C16.733,293.059 16.928,292.255 16.553,291.64C16.178,291.024 15.374,290.829 14.759,291.205ZM147.605,291.044C146.977,291.511 146.272,292.036 145.51,292.602C144.932,293.032 144.812,293.851 145.242,294.429C145.672,295.007 146.49,295.127 147.068,294.697C147.83,294.131 148.535,293.606 149.163,293.139C149.741,292.709 149.862,291.89 149.432,291.312C149.002,290.734 148.183,290.614 147.605,291.044ZM36.213,291.817C35.443,291.354 34.695,290.904 33.976,290.471C33.358,290.099 32.556,290.299 32.184,290.916C31.812,291.533 32.012,292.336 32.629,292.708C33.348,293.141 34.096,293.591 34.866,294.054C35.483,294.426 36.286,294.227 36.658,293.609C37.03,292.992 36.83,292.189 36.213,291.817ZM88.341,290.429C87.705,290.822 86.956,291.285 86.12,291.802C85.507,292.181 85.317,292.987 85.696,293.599C86.075,294.212 86.88,294.402 87.493,294.023C88.329,293.506 89.078,293.043 89.714,292.65C90.327,292.271 90.517,291.466 90.138,290.853C89.759,290.24 88.953,290.05 88.341,290.429ZM212.752,293.231L214.256,293.878C214.918,294.162 215.687,293.855 215.971,293.193C216.256,292.531 215.949,291.763 215.287,291.479C213.974,290.914 213.198,290.581 213.198,290.581C212.862,290.408 212.193,290.528 211.935,290.71C211.824,290.788 211.823,290.787 211.661,290.9C211.069,291.312 210.922,292.126 211.333,292.718C211.658,293.185 212.233,293.374 212.752,293.231ZM96.436,291.535C95.573,291.048 94.807,290.615 94.162,290.251C93.535,289.896 92.738,290.118 92.383,290.745C92.029,291.373 92.251,292.17 92.878,292.524C93.523,292.888 94.289,293.321 95.151,293.808C95.779,294.163 96.576,293.941 96.93,293.314C97.285,292.687 97.063,291.889 96.436,291.535ZM155.58,290.65C154.661,290.125 153.892,289.686 153.313,289.355C152.687,288.998 151.889,289.216 151.532,289.841C151.175,290.467 151.392,291.265 152.018,291.623C152.597,291.953 153.366,292.393 154.285,292.918C154.911,293.275 155.709,293.057 156.067,292.432C156.424,291.806 156.206,291.008 155.58,290.65ZM267.308,291L268.371,291.532C269.015,291.855 269.8,291.593 270.122,290.949C270.445,290.305 270.184,289.52 269.539,289.197C268.418,288.636 267.763,288.308 267.763,288.308C267.321,288.099 266.671,288.246 266.383,288.441C266.171,288.584 266.179,288.596 265.891,288.815C265.318,289.252 265.207,290.072 265.643,290.645C266.039,291.165 266.751,291.305 267.308,291ZM21.447,287.127C20.789,287.528 20.037,287.986 19.218,288.486C18.602,288.861 18.408,289.665 18.783,290.28C19.158,290.895 19.962,291.09 20.577,290.715C21.396,290.216 22.148,289.757 22.806,289.356C23.422,288.981 23.617,288.177 23.241,287.562C22.866,286.946 22.062,286.751 21.447,287.127ZM29.502,287.778C28.628,287.252 27.872,286.797 27.265,286.431C26.647,286.059 25.844,286.259 25.473,286.876C25.101,287.493 25.301,288.296 25.918,288.668C26.526,289.034 27.281,289.489 28.155,290.015C28.772,290.386 29.575,290.187 29.947,289.569C30.318,288.952 30.119,288.149 29.502,287.778Z" style="fill:#b21c13;"/>
            <path id="base_body_24" serif:id="base_body_2" d="M300,308.62C300,311.085 299.75,313.496 299.272,315.831L267.179,299.765L245.589,316.209L212.682,302.07L186.621,320.174L151.462,300.091L125.241,319.598L91.301,300.423L61.499,318.852L24.916,296.83L0.152,311.93C0.051,310.84 0,309.736 0,308.62L0,304.652C0,305.768 0.051,306.872 0.152,307.962L24.916,292.863L61.499,314.885L91.301,296.455L125.241,315.63L151.462,296.123L186.621,316.206L212.682,298.102L245.589,312.241L267.179,295.797L299.272,311.863C299.75,309.528 300,307.117 300,304.652L300,308.62Z" style="fill:#7d1913;fill-rule:nonzero;"/>
        </g>
        <path d="M0,152.789L0,81.19C0,61.111 16.301,44.81 36.38,44.81L263.62,44.81C283.699,44.81 300,61.111 300,81.19L300,152.789L246.886,89.244L53.114,89.244L0,152.789Z" style="fill:#966740;"/>
        <path d="M101.976,46.636C97.146,42.335 95.445,36.917 95.065,31.026C106.114,31.545 115.354,36.585 122.59,46.636L137.008,20.779C148.776,26.71 152.252,35.778 152.26,46.159L152.26,51.077L102.23,51.077L101.976,46.636Z" style="fill:#966740;"/>
        <g id="name" transform="matrix(1,0,0,1,-8.73911,24.984)">
            <g transform="matrix(0.942096,-0.107672,0.11355,0.993532,-14.3262,29.3308)">
                <path d="M281.814,271.656C281.814,269.416 279.896,267.597 277.534,267.597L217.766,267.597C215.404,267.597 213.486,269.416 213.486,271.656L213.486,283.832C213.486,286.072 215.404,287.891 217.766,287.891L277.534,287.891C279.896,287.891 281.814,286.072 281.814,283.832L281.814,271.656Z" style="fill-opacity:0.25;"/>
            </g>
            <g transform="matrix(0.942096,-0.107672,0.11355,0.993532,-14.7981,25.3027)">
                <path d="M281.814,271.656C281.814,269.416 279.896,267.597 277.534,267.597L217.766,267.597C215.404,267.597 213.486,269.416 213.486,271.656L213.486,283.832C213.486,286.072 215.404,287.891 217.766,287.891L277.534,287.891C279.896,287.891 281.814,286.072 281.814,283.832L281.814,271.656Z" style="fill:#fff;"/>
            </g>
            <g transform="matrix(0.112087,0,0,0.112087,225.682,244.919)">
                <path d="M35.039,333.428L14.313,275.486C9.765,262.487 15.365,252.15 23.622,247.152C27.245,244.958 30.819,243.253 34.931,242.389C47.889,239.669 57.215,245.97 62.342,259.351C67.662,271.532 53.79,276.871 49.754,269.892C45.931,263.284 43.209,259.012 36.827,262.354C32.848,264.438 31.388,268.634 33.661,276.758L51.68,323.708C58.564,338.243 40.055,345 35.039,333.428Z" style="fill:#579639;stroke:#579639;stroke-width:7.66px;"/>
            </g>
            <g transform="matrix(1,0,0,1,8.73911,-24.984)">
                <path d="M261.87,292.786L260.331,294.207C260.119,294.429 260.014,294.658 260.039,294.884C260.06,295.072 260.174,295.269 260.42,295.463L259.309,296.643C259.001,296.95 258.831,297.245 258.856,297.569C258.878,297.862 259.066,298.191 259.504,298.587L258.675,299.849C258.456,300.189 258.399,300.485 258.46,300.73C258.55,301.094 258.909,301.368 259.476,301.516C259.965,301.643 260.56,301.718 261.209,301.747C261.189,302.095 261.202,302.454 261.345,302.744C261.528,303.115 261.96,303.308 262.411,303.315C262.854,303.322 263.307,303.149 263.536,302.826C263.682,302.622 263.755,302.349 263.78,302.055C263.791,301.923 263.793,301.787 263.787,301.652C264.287,301.597 264.782,301.522 265.253,301.429C265.902,301.301 266.241,301.048 266.372,300.767C266.511,300.471 266.435,300.127 266.209,299.807C266.21,299.808 265.307,298.444 265.307,298.444C265.733,298.246 265.944,297.967 266.006,297.682C266.077,297.358 265.956,297.013 265.706,296.734C265.707,296.735 264.779,295.459 264.779,295.459C264.991,295.341 265.116,295.199 265.174,295.048C265.28,294.771 265.17,294.441 264.891,294.112C264.893,294.114 264.181,293.111 263.843,292.634L263.844,292.621L264.342,292.24C264.43,292.173 264.475,292.063 264.459,291.954C264.443,291.844 264.37,291.752 264.267,291.711L263.682,291.484L263.474,290.893C263.437,290.789 263.347,290.712 263.238,290.693C263.129,290.674 263.018,290.715 262.948,290.801L262.552,291.287L261.925,291.302C261.814,291.305 261.713,291.367 261.662,291.465C261.61,291.563 261.615,291.681 261.675,291.774L262.014,292.301L261.87,292.786Z" style="fill:#579639;"/>
            </g>
            <g transform="matrix(0.910559,-0.104067,0.102164,0.89391,-3.79741,52.1452)">
                <path d="M281.814,271.656C281.814,269.416 280.029,267.597 277.83,267.597L217.47,267.597C215.271,267.597 213.486,269.416 213.486,271.656L213.486,283.832C213.486,286.072 215.271,287.891 217.47,287.891L277.83,287.891C280.029,287.891 281.814,286.072 281.814,283.832L281.814,271.656ZM280.723,271.656L280.723,283.832C280.723,285.459 279.427,286.779 277.83,286.779L217.47,286.779C215.874,286.779 214.577,285.459 214.577,283.832L214.577,271.656C214.577,270.029 215.874,268.709 217.47,268.709L277.83,268.709C279.427,268.709 280.723,270.029 280.723,271.656Z" style="fill:#579639;"/>
            </g>
            <g transform="matrix(1,0,0,1,-0.039045,-3.24074)">
                <path d="M238.456,284.445L263.738,281.552L263.642,280.715L238.36,283.607L238.456,284.445Z"/>
            </g>
            <g transform="matrix(0.993983,-0.109538,0.109538,0.993983,237.014,279.087)">
                <text x="0px" y="0px" style="font-family:'Nunito-Regular', 'Nunito';font-size:12px;">Mark</text>
            </g>
        </g>
        <g transform="matrix(1,0,0,1,0,-33.4545)">
            <path d="M126.25,280.23C142.493,287.808 158.301,287.348 173.75,280.23" style="fill:none;fill-rule:nonzero;stroke:#cd8e2a;stroke-width:8.99px;stroke-linecap:butt;stroke-linejoin:miter;stroke-miterlimit:10;"/>
        </g>
        <g transform="matrix(1,0,0,1,0,-33.4545)">
            <ellipse cx="271.63" cy="263.06" rx="17.59" ry="13.87" style="fill:url(#_Linear1);"/>
        </g>
        <g transform="matrix(-1,0,0,1,300,-33.4545)">
            <ellipse cx="271.63" cy="263.06" rx="17.59" ry="13.87" style="fill:url(#_Linear2);"/>
        </g>
        <g transform="matrix(1,0,0,1,0,-33.4545)">
            <circle cx="242.58" cy="222.5" r="36.45" style="fill:#fabc2e;"/>
        </g>
        <g transform="matrix(1,0,0,1,0,-33.4545)">
            <circle cx="57.42" cy="222.5" r="36.45" style="fill:#fabc2e;"/>
        </g>
        <g transform="matrix(1,0,0,1,0,-33.4545)">
            <circle cx="242.58" cy="232.62" r="36.45" style="fill:#fff;"/>
        </g>
        <g transform="matrix(1,0,0,1,0,-33.4545)">
            <circle cx="57.42" cy="232.62" r="36.45" style="fill:#fff;"/>
        </g>
        <g transform="matrix(1,0,0,1,0,-33.4545)">
            <path d="M89.18,227.33C86.794,229.354 83.764,230.466 80.635,230.466C73.388,230.466 67.425,224.503 67.425,217.256C67.425,214.437 68.328,211.69 70,209.42C68.91,209.262 67.809,209.183 66.708,209.183C54.09,209.183 43.708,219.566 43.708,232.183C43.708,244.801 54.09,255.183 66.708,255.183C79.325,255.183 89.708,244.801 89.708,232.183C89.708,230.552 89.534,228.925 89.19,227.33L89.18,227.33ZM57.18,247.09L57.17,247.09C54.175,247.09 51.71,244.625 51.71,241.63C51.71,238.635 54.175,236.17 57.17,236.17C60.165,236.17 62.63,238.635 62.63,241.63L62.63,241.64C62.63,244.63 60.17,247.09 57.18,247.09L57.14,247.09L57.18,247.09Z" style="fill:#414042;fill-rule:nonzero;"/>
        </g>
        <g transform="matrix(1,0,0,1,0,-33.4545)">
            <path d="M255.63,227.2C253.326,228.96 250.505,229.914 247.605,229.914C240.353,229.914 234.385,223.946 234.385,216.694C234.385,214.113 235.142,211.587 236.56,209.43C235.46,209.274 234.351,209.194 233.24,209.19L233.18,209.19C220.563,209.19 210.18,219.572 210.18,232.19C210.18,244.807 220.563,255.19 233.18,255.19C245.797,255.19 256.18,244.807 256.18,232.19C256.18,230.508 255.996,228.832 255.63,227.19L255.63,227.2ZM223.41,247.09C220.415,247.09 217.95,244.625 217.95,241.63C217.95,238.635 220.415,236.17 223.41,236.17C226.405,236.17 228.87,238.635 228.87,241.63L228.87,241.64C228.87,244.63 226.41,247.09 223.42,247.09L223.41,247.09Z" style="fill:#414042;fill-rule:nonzero;"/>
        </g>
        <g transform="matrix(0.768957,0.156323,-0.156323,0.768957,75.4712,-34.0379)">
            <ellipse cx="241.81" cy="171.51" rx="29.61" ry="17.17" style="fill:#66402d;"/>
        </g>
        <g transform="matrix(-0.768957,0.156323,0.156323,0.768957,224.529,-34.0379)">
            <ellipse cx="241.81" cy="171.51" rx="29.61" ry="17.17" style="fill:#66402d;"/>
        </g>
        <g>
            <path id="base_body_1" d="M0,137.344C0,117.265 16.301,100.964 36.38,100.964L263.62,100.964C283.699,100.964 300,117.265 300,137.344L300,81.38C300,61.301 283.699,45 263.62,45L36.38,45C16.301,45 0,61.301 0,81.38L0,137.344Z" style="fill:#7d1913;"/>
            <path id="base_body_11" serif:id="base_body_1" d="M36.38,73.426C16.301,73.426 0,89.728 0,109.806L0,81.38C0,80.097 0.067,78.83 0.196,77.581C1.116,66.227 5.042,56.654 13.632,49.84L142.111,2.692C144.167,1.962 146.925,1.43 150,1.105L150.573,1.168C153.417,1.498 155.962,2.008 157.889,2.692L286.368,49.84C294.958,56.654 298.884,66.227 299.804,77.581C299.933,78.83 300,80.097 300,81.38L300,109.806C300,89.728 283.699,73.426 263.62,73.426L36.38,73.426Z" style="fill:#ececec;"/>
            <path id="base_body_12" serif:id="base_body_1" d="M256.347,38.823L286.368,49.84C294.958,56.654 298.884,66.227 299.804,77.581C299.933,78.83 300,80.097 300,81.38L300,109.806C300,89.728 283.699,73.426 263.62,73.426L36.38,73.426C16.301,73.426 0,89.728 0,109.806L0,81.38C0,80.097 0.067,78.83 0.196,77.581C1.116,66.227 5.042,56.654 13.632,49.84L43.653,38.823L256.347,38.823ZM103.242,16.956L142.111,2.692C144.167,1.962 146.925,1.43 150,1.105L150.573,1.168C153.417,1.498 155.962,2.008 157.889,2.692L196.758,16.956L103.242,16.956Z" style="fill:#579639;"/>
            <path id="base_body_13" serif:id="base_body_1" d="M97.143,19.194C97.877,20.476 98.297,21.961 98.297,23.543C98.297,26.253 97.066,28.677 95.133,30.287L123.537,58.651L149.141,30.75C146.862,29.165 145.37,26.527 145.37,23.543C145.37,18.701 149.302,14.769 154.144,14.769C158.987,14.769 162.919,18.701 162.919,23.543C162.919,26.17 161.763,28.528 159.932,30.137L190.169,58.218L220.822,30.149C219.26,28.782 218.187,26.872 217.899,24.714L218.302,24.862C219.492,21.427 222.758,18.957 226.595,18.957C230.717,18.957 234.178,21.805 235.117,25.638C234.714,27.284 233.845,28.749 232.658,29.884L265.034,58.668L276.615,46.261L279.528,47.329L288.03,38.222C287.109,37.861 286.264,37.349 285.525,36.717L288.03,34.033C285.4,33.003 283.386,30.739 282.704,27.955C283.643,24.121 287.104,21.274 291.226,21.274C295.347,21.274 298.808,24.121 299.748,27.955C299.222,30.1 297.906,31.935 296.128,33.136C296.337,34.374 296.538,35.621 296.731,36.879C296.537,37.036 296.335,37.185 296.128,37.325C298.302,50.199 299.628,64.095 299.937,79.216L299.995,80.793L300,81.38L300,126.049C300,105.97 283.699,89.669 263.62,89.669L36.38,89.669C16.301,89.669 0,105.97 0,126.049L0,81.38L0.022,80.101C0.194,64.974 1.371,50.398 3.95,36.589C3.724,36.439 3.505,36.28 3.294,36.111C3.502,34.867 3.72,33.63 3.95,32.4C2.132,31.2 0.786,29.343 0.252,27.167C1.191,23.334 4.653,20.486 8.774,20.486C12.896,20.486 16.358,23.334 17.297,27.167C16.706,29.574 15.121,31.593 13.002,32.761L15.635,34.728C14.915,35.631 14.02,36.388 13.002,36.95L24.783,45.747L28.544,44.367L46.323,57.643L83.941,30.312C82.386,29.028 81.28,27.218 80.896,25.156L81.163,25.058C82.295,21.521 85.612,18.957 89.522,18.957C91.226,18.957 92.818,19.444 94.165,20.287L97.143,19.194Z" style="fill-opacity:0.25;"/>
            <path id="base_body_14" serif:id="base_body_1" d="M300,130.238C300,110.159 283.699,93.858 263.62,93.858L36.38,93.858C16.301,93.858 0,110.159 0,130.238L0,84.065L0.001,83.256C0.038,66.266 1.299,49.944 4.333,34.593L10.226,34.877L46.323,61.831L85.063,33.686L94.067,33.411L123.537,62.839L149.694,34.335L159.405,33.835L190.169,62.406L220.906,34.26L232.636,34.052L265.034,62.856L289.613,36.526L295.973,36.418C298.474,50.906 299.898,66.69 300,84.065L300,130.238Z" style="fill:#bf322b;"/>
            <path d="M300,118.972L300,114.143L299.949,114.065C299.491,113.369 298.554,113.176 297.858,113.634C297.163,114.092 296.969,115.028 297.427,115.724C297.956,116.528 298.453,117.356 298.916,118.204C299.148,118.63 299.555,118.9 300,118.972ZM0,112.604L0,115.466C0.68,115.862 1.561,115.667 2.008,115.006C2.549,114.205 3.122,113.429 3.725,112.677C4.247,112.028 4.143,111.077 3.494,110.556C2.844,110.034 1.893,110.138 1.372,110.787C0.897,111.378 0.439,111.984 0,112.604ZM296.912,108.502C296.409,107.58 295.87,106.681 295.295,105.807C294.837,105.111 293.9,104.918 293.204,105.376C292.509,105.834 292.315,106.77 292.773,107.466C293.302,108.27 293.799,109.098 294.262,109.946C294.66,110.678 295.578,110.948 296.309,110.549C297.04,110.151 297.311,109.233 296.912,108.502ZM6.826,102.894C6.17,103.71 5.548,104.554 4.961,105.424C4.495,106.114 4.677,107.053 5.367,107.519C6.057,107.985 6.996,107.803 7.462,107.113C8.003,106.313 8.576,105.536 9.179,104.785C9.701,104.135 9.597,103.184 8.948,102.663C8.298,102.141 7.347,102.245 6.826,102.894ZM291.423,100.864C290.711,100.095 289.967,99.356 289.195,98.649C288.58,98.086 287.625,98.128 287.062,98.743C286.5,99.357 286.542,100.312 287.156,100.875C287.868,101.526 288.552,102.207 289.208,102.915C289.774,103.526 290.729,103.563 291.341,102.997C291.952,102.431 291.989,101.475 291.423,100.864ZM13.574,96.344C12.737,96.976 11.928,97.642 11.147,98.339C10.526,98.895 10.472,99.849 11.027,100.471C11.583,101.092 12.537,101.145 13.159,100.59C13.877,99.948 14.623,99.335 15.393,98.753C16.058,98.251 16.19,97.303 15.688,96.639C15.186,95.974 14.239,95.842 13.574,96.344ZM284.23,94.804C283.353,94.234 282.451,93.699 281.526,93.202C280.793,92.808 279.877,93.083 279.482,93.817C279.088,94.55 279.363,95.466 280.097,95.861C280.948,96.318 281.778,96.81 282.585,97.335C283.284,97.789 284.219,97.59 284.673,96.892C285.127,96.194 284.929,95.258 284.23,94.804ZM21.726,91.649C20.756,92.056 19.807,92.503 18.881,92.986C18.143,93.372 17.856,94.284 18.242,95.023C18.627,95.761 19.54,96.047 20.278,95.662C21.13,95.217 22.003,94.806 22.895,94.431C23.663,94.109 24.024,93.223 23.702,92.455C23.379,91.687 22.494,91.326 21.726,91.649ZM275.766,90.698C274.777,90.363 273.771,90.068 272.748,89.815C271.94,89.615 271.121,90.109 270.92,90.917C270.72,91.726 271.214,92.545 272.022,92.745C272.963,92.978 273.888,93.249 274.797,93.557C275.586,93.824 276.444,93.401 276.711,92.612C276.978,91.823 276.554,90.965 275.766,90.698ZM30.788,89.117C29.744,89.271 28.714,89.469 27.7,89.707C26.889,89.897 26.385,90.71 26.576,91.521C26.766,92.332 27.579,92.836 28.39,92.646C29.323,92.426 30.27,92.245 31.23,92.103C32.054,91.98 32.624,91.212 32.502,90.388C32.38,89.564 31.612,88.995 30.788,89.117ZM263.62,88.706C264.158,88.706 264.045,88.706 263.416,88.706C262.583,88.706 261.907,89.382 261.907,90.215C261.907,91.048 262.583,91.724 263.416,91.724L263.62,91.724C264.527,91.724 265.427,91.759 266.316,91.827C267.147,91.891 267.873,91.268 267.937,90.438C268,89.607 267.377,88.881 266.547,88.818C265.581,88.744 264.605,88.706 263.62,88.706ZM85.323,88.706L82.304,88.706C81.471,88.706 80.795,89.382 80.795,90.215C80.795,91.048 81.471,91.724 82.304,91.724L85.323,91.724C86.156,91.724 86.832,91.048 86.832,90.215C86.832,89.382 86.156,88.706 85.323,88.706ZM40.045,88.706L37.027,88.706C36.194,88.706 35.517,89.382 35.517,90.215C35.517,91.048 36.194,91.724 37.027,91.724L40.045,91.724C40.878,91.724 41.554,91.048 41.554,90.215C41.554,89.382 40.878,88.706 40.045,88.706ZM248.323,88.706L245.305,88.706C244.472,88.706 243.795,89.382 243.795,90.215C243.795,91.048 244.472,91.724 245.305,91.724L248.323,91.724C249.156,91.724 249.832,91.048 249.832,90.215C249.832,89.382 249.156,88.706 248.323,88.706ZM239.268,88.706L236.249,88.706C235.416,88.706 234.74,89.382 234.74,90.215C234.74,91.048 235.416,91.724 236.249,91.724L239.268,91.724C240.101,91.724 240.777,91.048 240.777,90.215C240.777,89.382 240.101,88.706 239.268,88.706ZM76.267,88.706L73.249,88.706C72.416,88.706 71.74,89.382 71.74,90.215C71.74,91.048 72.416,91.724 73.249,91.724L76.267,91.724C77.1,91.724 77.777,91.048 77.777,90.215C77.777,89.382 77.1,88.706 76.267,88.706ZM130.601,88.706L127.582,88.706C126.749,88.706 126.073,89.382 126.073,90.215C126.073,91.048 126.749,91.724 127.582,91.724L130.601,91.724C131.434,91.724 132.11,91.048 132.11,90.215C132.11,89.382 131.434,88.706 130.601,88.706ZM121.545,88.706L118.527,88.706C117.694,88.706 117.017,89.382 117.017,90.215C117.017,91.048 117.694,91.724 118.527,91.724L121.545,91.724C122.378,91.724 123.054,91.048 123.054,90.215C123.054,89.382 122.378,88.706 121.545,88.706ZM67.212,88.706L64.193,88.706C63.36,88.706 62.684,89.382 62.684,90.215C62.684,91.048 63.36,91.724 64.193,91.724L67.212,91.724C68.045,91.724 68.721,91.048 68.721,90.215C68.721,89.382 68.045,88.706 67.212,88.706ZM58.156,88.706L55.138,88.706C54.305,88.706 53.629,89.382 53.629,90.215C53.629,91.048 54.305,91.724 55.138,91.724L58.156,91.724C58.989,91.724 59.666,91.048 59.666,90.215C59.666,89.382 58.989,88.706 58.156,88.706ZM49.101,88.706L46.082,88.706C45.249,88.706 44.573,89.382 44.573,90.215C44.573,91.048 45.249,91.724 46.082,91.724L49.101,91.724C49.934,91.724 50.61,91.048 50.61,90.215C50.61,89.382 49.934,88.706 49.101,88.706ZM257.379,88.706L254.36,88.706C253.527,88.706 252.851,89.382 252.851,90.215C252.851,91.048 253.527,91.724 254.36,91.724L257.379,91.724C258.212,91.724 258.888,91.048 258.888,90.215C258.888,89.382 258.212,88.706 257.379,88.706ZM94.378,88.706L91.36,88.706C90.527,88.706 89.851,89.382 89.851,90.215C89.851,91.048 90.527,91.724 91.36,91.724L94.378,91.724C95.211,91.724 95.888,91.048 95.888,90.215C95.888,89.382 95.211,88.706 94.378,88.706ZM112.49,88.706L109.471,88.706C108.638,88.706 107.962,89.382 107.962,90.215C107.962,91.048 108.638,91.724 109.471,91.724L112.49,91.724C113.322,91.724 113.999,91.048 113.999,90.215C113.999,89.382 113.322,88.706 112.49,88.706ZM103.434,88.706L100.415,88.706C99.582,88.706 98.906,89.382 98.906,90.215C98.906,91.048 99.582,91.724 100.415,91.724L103.434,91.724C104.267,91.724 104.943,91.048 104.943,90.215C104.943,89.382 104.267,88.706 103.434,88.706ZM166.823,88.706L163.805,88.706C162.972,88.706 162.295,89.382 162.295,90.215C162.295,91.048 162.972,91.724 163.805,91.724L166.823,91.724C167.656,91.724 168.332,91.048 168.332,90.215C168.332,89.382 167.656,88.706 166.823,88.706ZM175.879,88.706L172.86,88.706C172.027,88.706 171.351,89.382 171.351,90.215C171.351,91.048 172.027,91.724 172.86,91.724L175.879,91.724C176.712,91.724 177.388,91.048 177.388,90.215C177.388,89.382 176.712,88.706 175.879,88.706ZM184.935,88.706L181.916,88.706C181.083,88.706 180.407,89.382 180.407,90.215C180.407,91.048 181.083,91.724 181.916,91.724L184.935,91.724C185.768,91.724 186.444,91.048 186.444,90.215C186.444,89.382 185.768,88.706 184.935,88.706ZM148.712,88.706L145.693,88.706C144.86,88.706 144.184,89.382 144.184,90.215C144.184,91.048 144.86,91.724 145.693,91.724L148.712,91.724C149.545,91.724 150.221,91.048 150.221,90.215C150.221,89.382 149.545,88.706 148.712,88.706ZM230.212,88.706L227.194,88.706C226.361,88.706 225.684,89.382 225.684,90.215C225.684,91.048 226.361,91.724 227.194,91.724L230.212,91.724C231.045,91.724 231.722,91.048 231.722,90.215C231.722,89.382 231.045,88.706 230.212,88.706ZM212.101,88.706L209.083,88.706C208.25,88.706 207.573,89.382 207.573,90.215C207.573,91.048 208.25,91.724 209.083,91.724L212.101,91.724C212.934,91.724 213.61,91.048 213.61,90.215C213.61,89.382 212.934,88.706 212.101,88.706ZM193.99,88.706L190.972,88.706C190.139,88.706 189.462,89.382 189.462,90.215C189.462,91.048 190.139,91.724 190.972,91.724L193.99,91.724C194.823,91.724 195.499,91.048 195.499,90.215C195.499,89.382 194.823,88.706 193.99,88.706ZM221.156,88.706L218.138,88.706C217.305,88.706 216.629,89.382 216.629,90.215C216.629,91.048 217.305,91.724 218.138,91.724L221.156,91.724C221.989,91.724 222.666,91.048 222.666,90.215C222.666,89.382 221.989,88.706 221.156,88.706ZM203.046,88.706L200.027,88.706C199.194,88.706 198.518,89.382 198.518,90.215C198.518,91.048 199.194,91.724 200.027,91.724L203.046,91.724C203.879,91.724 204.555,91.048 204.555,90.215C204.555,89.382 203.879,88.706 203.046,88.706ZM139.656,88.706L136.638,88.706C135.805,88.706 135.128,89.382 135.128,90.215C135.128,91.048 135.805,91.724 136.638,91.724L139.656,91.724C140.489,91.724 141.166,91.048 141.166,90.215C141.166,89.382 140.489,88.706 139.656,88.706ZM157.767,88.706L154.749,88.706C153.916,88.706 153.24,89.382 153.24,90.215C153.24,91.048 153.916,91.724 154.749,91.724L157.767,91.724C158.6,91.724 159.277,91.048 159.277,90.215C159.277,89.382 158.6,88.706 157.767,88.706Z" style="fill:#b21c13;"/>
            <path d="M291.226,21.274C296.068,21.274 300,25.206 300,30.048C300,34.891 296.068,38.823 291.226,38.823C286.383,38.823 282.451,34.891 282.451,30.048C282.451,25.206 286.383,21.274 291.226,21.274ZM8.774,20.486C13.617,20.486 17.549,24.417 17.549,29.26C17.549,34.103 13.617,38.035 8.774,38.035C3.932,38.035 -0,34.103 -0,29.26C-0,24.417 3.932,20.486 8.774,20.486ZM154.144,18.957C158.987,18.957 162.919,22.889 162.919,27.732C162.919,32.574 158.987,36.506 154.144,36.506C149.302,36.506 145.37,32.574 145.37,27.732C145.37,22.889 149.302,18.957 154.144,18.957ZM226.595,18.957C231.438,18.957 235.37,22.889 235.37,27.732C235.37,32.574 231.438,36.506 226.595,36.506C221.753,36.506 217.821,32.574 217.821,27.732C217.821,22.889 221.753,18.957 226.595,18.957ZM89.522,18.957C94.365,18.957 98.297,22.889 98.297,27.732C98.297,32.574 94.365,36.506 89.522,36.506C84.68,36.506 80.748,32.574 80.748,27.732C80.748,22.889 84.68,18.957 89.522,18.957Z" style="fill:#ffc200;"/>
        </g>
    </g>
    <defs>
        <linearGradient id="_Linear1" x1="0" y1="0" x2="1" y2="0" gradientUnits="userSpaceOnUse" gradientTransform="matrix(14.93,54.51,-54.51,14.93,262.25,228.77)"><stop offset="0" style="stop-color:#fabc2e;stop-opacity:0.1"/><stop offset="1" style="stop-color:#f27ba5;stop-opacity:1"/></linearGradient>
        <linearGradient id="_Linear2" x1="0" y1="0" x2="1" y2="0" gradientUnits="userSpaceOnUse" gradientTransform="matrix(14.93,54.51,-54.51,14.93,262.25,228.77)"><stop offset="0" style="stop-color:#fabc2e;stop-opacity:0.1"/><stop offset="1" style="stop-color:#f27ba5;stop-opacity:1"/></linearGradient>
    </defs>
</svg>