<?xml version="1.0" encoding="UTF-8" standalone="no"?>
<!-- Created with Inkscape (http://www.inkscape.org/) -->
<svg width="50" height="50" viewBox="0 0 13.229167 13.229166" version="1.1" id="svg5" xml:space="preserve" inkscape:version="1.2 (dc2aedaf03, 2022-05-15)" sodipodi:docname="Wins.svg" xmlns:inkscape="http://www.inkscape.org/namespaces/inkscape" xmlns:sodipodi="http://sodipodi.sourceforge.net/DTD/sodipodi-0.dtd" xmlns="http://www.w3.org/2000/svg" xmlns:svg="http://www.w3.org/2000/svg"><sodipodi:namedview id="namedview7" pagecolor="#505050" bordercolor="#ffffff" borderopacity="1" inkscape:showpageshadow="0" inkscape:pageopacity="0" inkscape:pagecheckerboard="1" inkscape:deskcolor="#505050" inkscape:document-units="mm" showgrid="false" inkscape:zoom="4.0405465" inkscape:cx="29.203971" inkscape:cy="44.053447" inkscape:window-width="1366" inkscape:window-height="705" inkscape:window-x="-8" inkscape:window-y="-8" inkscape:window-maximized="1" inkscape:current-layer="g1691"/><defs id="defs2"><inkscape:path-effect effect="mirror_symmetry" start_point="95.127233,103.36992" end_point="95.127233,113.72526" center_point="95.127233,108.54759" id="path-effect45183" is_visible="true" lpeversion="1.2" lpesatellites="" mode="free" discard_orig_path="false" fuse_paths="true" oposite_fuse="false" split_items="false" split_open="false" link_styles="false"/><inkscape:path-effect effect="mirror_symmetry" start_point="95.127233,103.36992" end_point="95.127233,113.72526" center_point="95.127233,108.54759" id="path-effect45179" is_visible="true" lpeversion="1.2" lpesatellites="" mode="free" discard_orig_path="false" fuse_paths="true" oposite_fuse="false" split_items="false" split_open="false" link_styles="false"/><inkscape:path-effect effect="mirror_symmetry" start_point="94.489314,82.854485" end_point="94.489314,86.964725" center_point="94.489314,84.909605" id="path-effect45175" is_visible="true" lpeversion="1.2" lpesatellites="" mode="free" discard_orig_path="false" fuse_paths="false" oposite_fuse="false" split_items="false" split_open="false" link_styles="false"/><inkscape:path-effect effect="mirror_symmetry" start_point="94.894666,86.883812" end_point="94.894666,104.8192" center_point="94.894666,95.851506" id="path-effect45171" is_visible="true" lpeversion="1.2" lpesatellites="" mode="free" discard_orig_path="false" fuse_paths="false" oposite_fuse="false" split_items="false" split_open="false" link_styles="false"/><inkscape:path-effect effect="mirror_symmetry" start_point="95.127233,103.36992" end_point="95.127233,113.72526" center_point="95.127233,108.54759" id="path-effect14278" is_visible="true" lpeversion="1.2" lpesatellites="" mode="free" discard_orig_path="false" fuse_paths="true" oposite_fuse="false" split_items="false" split_open="false" link_styles="false"/><inkscape:path-effect effect="mirror_symmetry" start_point="95.127233,103.36992" end_point="95.127233,113.72526" center_point="95.127233,108.54759" id="path-effect10003" is_visible="true" lpeversion="1.2" lpesatellites="" mode="free" discard_orig_path="false" fuse_paths="true" oposite_fuse="false" split_items="false" split_open="false" link_styles="false"/><inkscape:path-effect effect="mirror_symmetry" start_point="94.489314,82.854485" end_point="94.489314,86.964725" center_point="94.489314,84.909605" id="path-effect9999" is_visible="true" lpeversion="1.2" lpesatellites="" mode="free" discard_orig_path="false" fuse_paths="false" oposite_fuse="false" split_items="false" split_open="false" link_styles="false"/><inkscape:path-effect effect="mirror_symmetry" start_point="94.894666,86.883812" end_point="94.894666,104.8192" center_point="94.894666,95.851506" id="path-effect9995" is_visible="true" lpeversion="1.2" lpesatellites="" mode="free" discard_orig_path="false" fuse_paths="false" oposite_fuse="false" split_items="false" split_open="false" link_styles="false"/><clipPath clipPathUnits="userSpaceOnUse" id="clipPath11854"><path id="path11856" style="fill:#fff88f;fill-opacity:1;stroke:none;stroke-width:1;stroke-linecap:round;stroke-linejoin:round;stroke-dasharray:none;stroke-opacity:1;paint-order:markers stroke fill" d="m 77.134827,86.883812 3.814098,0.09985 c 1.140991,6.098175 2.358995,9.277812 12.578043,13.960378 0.03501,1.21381 -1.647725,4.5947 -1.040645,3.73764 C 80.49596,100.2633 77.081261,93.365279 77.134827,86.883812 Z" sodipodi:nodetypes="ccccc" class="UnoptimicedTransforms" transform="matrix(1.1228904,-0.13950724,0.13950724,1.1228904,-25.922658,3.0633601)"/></clipPath><clipPath clipPathUnits="userSpaceOnUse" id="clipPath11935"><path id="rect11937" d="m 80.818001,111.99591 h 30.933369 v 4.89065 H 80.818001 Z" style="opacity:1;fill:#fff88f;fill-opacity:1;stroke:none;stroke-width:1;stroke-linecap:round;stroke-linejoin:round;stroke-dasharray:none;stroke-opacity:1;paint-order:markers stroke fill"/></clipPath><clipPath clipPathUnits="userSpaceOnUse" id="clipPath12150"><rect style="opacity:1;fill:#fff88f;fill-opacity:1;stroke:none;stroke-width:0.995213;stroke-linecap:round;stroke-linejoin:round;stroke-dasharray:none;stroke-opacity:1;paint-order:markers stroke fill" id="rect12152" width="3.0566566" height="5.6916175" x="105.88258" y="74.732758"/></clipPath><clipPath clipPathUnits="userSpaceOnUse" id="clipPath12442"><path id="path12444" style="fill:#fff88f;fill-opacity:1;stroke:none;stroke-width:1;stroke-linecap:round;stroke-linejoin:round;stroke-dasharray:none;stroke-opacity:1;paint-order:markers stroke fill" d="m 77.134827,86.883812 2.592951,0.03899 c 0.83301,7.36515 3.291777,10.212064 14.40486,14.150068 0.03501,1.21381 -1.647725,4.5947 -1.040645,3.73764 C 81.10163,100.39213 77.081261,93.365279 77.134827,86.883812 Z" sodipodi:nodetypes="ccccc" class="UnoptimicedTransforms" transform="matrix(0.99876036,-0.06177618,0.04977715,1.2395165,-5.7237675,-16.586248)"/></clipPath><clipPath clipPathUnits="userSpaceOnUse" id="clipPath12590"><path id="path12592" style="opacity:1;fill:#fff88f;stroke-width:0.360825;stroke-linecap:round;stroke-linejoin:round;paint-order:markers stroke fill" d="m 109.52947,84.552275 -2.2134,0.262983 c -1.51944,3.571986 -0.54301,3.30444 -4.82384,9.821819 5.60277,-4.203141 6.05449,-5.14531 7.03724,-10.084802 z" sodipodi:nodetypes="cccc"/></clipPath><clipPath clipPathUnits="userSpaceOnUse" id="clipPath14028"><ellipse style="fill:#f7b20d;fill-opacity:1;fill-rule:evenodd;stroke-width:0.218571" id="ellipse14030" cx="80.827972" cy="88.581665" rx="16.266813" ry="31.567284"/></clipPath><clipPath clipPathUnits="userSpaceOnUse" id="clipPath14280"><rect style="opacity:1;fill:#f7b20d;fill-opacity:1;stroke:none;stroke-width:1;stroke-linecap:round;stroke-linejoin:round;stroke-dasharray:none;stroke-opacity:1;paint-order:markers stroke fill" id="rect14282" width="13.112955" height="11.764894" x="81.986603" y="102.08497" d="m 81.986603,102.08497 h 13.112955 v 11.76489 H 81.986603 Z m 26.281257,0 H 95.154908 v 11.76489 h 13.112952 z"/></clipPath></defs><g inkscape:label="Layer 1" inkscape:groupmode="layer" id="layer1" transform="translate(-75.876,-77.141952)"><g id="g45049" transform="matrix(0.34794218,0,0,0.34794218,49.604636,50.249172)"><g id="g42772" transform="matrix(0.8570028,0,0,0.8570028,13.190559,17.849801)"/><g id="g1691"><g id="g46862"><path id="path9983" style="fill:#fdd71e;fill-opacity:1;fill-rule:evenodd;stroke:none;stroke-width:0.995212;stroke-dasharray:none;stroke-opacity:1;paint-order:markers stroke fill;opacity:1" d="M 83.020772,77.644356 A 12.052332,21.438217 0 0 0 82.766524,82.0198 12.052332,21.438217 0 0 0 94.819019,103.45828 12.052332,21.438217 0 0 0 106.871,82.0198 12.052332,21.438217 0 0 0 106.61726,77.644356 Z" class="UnoptimicedTransforms" transform="matrix(0.85700281,0,0,0.86526869,13.190559,17.208003)"/><path id="path9985" style="fill:#fdd71e;fill-opacity:1;stroke:none;stroke-width:1;stroke-linecap:round;stroke-linejoin:round;stroke-dasharray:none;stroke-opacity:1;paint-order:markers stroke fill" d="m 77.134827,86.883812 3.814098,0.09985 c 1.140991,6.098175 2.358995,9.277812 12.578043,13.960378 0.03501,1.21381 -1.647725,4.5947 -1.040645,3.73764 C 80.49596,100.2633 77.081261,93.365279 77.134827,86.883812 Z m 35.519683,0 -3.8141,0.09985 c -1.14099,6.098175 -2.359,9.277812 -12.578046,13.960378 -0.03501,1.21381 1.647725,4.5947 1.040645,3.73764 11.990361,-4.41838 15.405061,-11.316401 15.351501,-17.797868 z" sodipodi:nodetypes="ccccc" inkscape:path-effect="#path-effect9995" inkscape:original-d="m 77.134827,86.883812 3.814098,0.09985 c 1.140991,6.098175 2.358995,9.277812 12.578043,13.960378 0.03501,1.21381 -1.647725,4.5947 -1.040645,3.73764 C 80.49596,100.2633 77.081261,93.365279 77.134827,86.883812 Z" class="UnoptimicedTransforms" transform="matrix(0.85700281,0,0,0.85700281,13.190559,17.849801)"/><path style="display:inline;fill:#fdd71e;fill-opacity:1;stroke:none;stroke-width:0.981982;stroke-linecap:round;stroke-linejoin:round;stroke-dasharray:none;stroke-opacity:1;paint-order:markers stroke fill" id="path9987" width="7.0254989" height="4.11024" x="76.686043" y="82.854485" inkscape:path-effect="#path-effect9999" class="UnoptimicedTransforms" d="m 76.686043,82.854485 h 7.025499 v 4.11024 h -7.025499 z m 35.606547,0 h -7.0255 v 4.11024 h 7.0255 z" sodipodi:type="rect" transform="matrix(0.85476846,0,0,0.89106347,13.750654,15.027727)"/><g id="g13907" style="display:inline;fill:#f7b20d;fill-opacity:1" inkscape:label="shadow" clip-path="url(#clipPath14028)" transform="matrix(0.85700281,0,0,0.85700281,13.190559,17.849801)"><g id="g13869" style="display:none;fill:#f7b20d;fill-opacity:1;stroke:none;stroke-width:0.7;stroke-dasharray:none;stroke-opacity:1;paint-order:markers stroke fill" transform="translate(-1.2582089,1.5875)"><path id="path13861" style="opacity:1;fill:#f7b20d;fill-opacity:1;stroke:none;stroke-width:0.7;stroke-linecap:round;stroke-linejoin:round;stroke-dasharray:none;stroke-opacity:1;paint-order:markers stroke fill" d="m 77.134827,86.883812 3.814098,0.09985 c 1.140991,6.098175 2.358995,9.277812 12.578043,13.960378 0.03501,1.21381 -1.647725,4.5947 -1.040645,3.73764 C 80.49596,100.2633 77.081261,93.365279 77.134827,86.883812 Z m 35.519683,0 -3.8141,0.09985 c -1.14099,6.098175 -2.359,9.277812 -12.578046,13.960378 -0.03501,1.21381 1.647725,4.5947 1.040645,3.73764 11.990361,-4.41838 15.405061,-11.316401 15.351501,-17.797868 z" sodipodi:nodetypes="ccccc" class="UnoptimicedTransforms"/><path id="path13863" class="UnoptimicedTransforms" transform="matrix(0.99739284,0,0,1.0397439,0.6535512,-3.2929582)" d="m 76.686043,82.854485 h 7.025499 v 4.11024 h -7.025499 z m 35.606547,0 h -7.0255 v 4.11024 h 7.0255 z" style="opacity:1;fill:#f7b20d;fill-opacity:1;stroke:none;stroke-width:0.687388;stroke-linecap:round;stroke-linejoin:round;stroke-dasharray:none;stroke-opacity:1;paint-order:markers stroke fill"/><path id="path13865" style="opacity:1;fill:#f7b20d;fill-opacity:1;fill-rule:evenodd;stroke:none;stroke-width:0.696648;stroke-dasharray:none;stroke-opacity:1;paint-order:markers stroke fill" class="UnoptimicedTransforms" d="m 84.563718,77.644355 v 3.485034 h -1.78542 a 12.052332,21.438217 0 0 0 -0.01189,0.890581 12.052332,21.438217 0 0 0 12.052494,21.43841 12.052332,21.438217 0 0 0 12.051978,-21.43841 12.052332,21.438217 0 0 0 -0.25373,-4.375615 z" transform="matrix(1,0,0,1.0096451,0,-0.74888589)"/><path id="path13867" style="opacity:1;fill:#f7b20d;fill-opacity:1;stroke:none;stroke-width:0.7;stroke-linecap:round;stroke-linejoin:round;stroke-dasharray:none;stroke-opacity:1;paint-order:markers stroke fill" d="m 92.433594,103.36914 v 3.4043 c 0,1.36481 -1.098083,2.46289 -2.462891,2.46289 h -6.050781 v 4.48828 h 11.207031 11.207027 v -4.48828 h -6.04882 c -1.364812,0 -2.464848,-1.09808 -2.464848,-2.46289 v -3.4043 h -2.693359 z" sodipodi:nodetypes="cssccccc" class="UnoptimicedTransforms"/></g><path id="rect13859" style="display:none;opacity:1;stroke-width:0.91758;stroke-linecap:round;stroke-linejoin:round;paint-order:markers stroke fill" d="m 79.780037,86.611649 h 4.479628 v 6.820582 h -4.479628 z"/><g id="g13879" style="display:none;fill:#f7b20d;fill-opacity:1;stroke:#291309;stroke-width:1;stroke-dasharray:none;stroke-opacity:1;paint-order:markers stroke fill"><path id="path13871" style="opacity:1;fill:#f7b20d;fill-opacity:1;fill-rule:evenodd;stroke:#291309;stroke-width:0.995212;stroke-dasharray:none;stroke-opacity:1;paint-order:markers stroke fill" d="M 83.020772,77.644356 A 12.052332,21.438217 0 0 0 82.766524,82.0198 12.052332,21.438217 0 0 0 94.819019,103.45828 12.052332,21.438217 0 0 0 106.871,82.0198 12.052332,21.438217 0 0 0 106.61726,77.644356 Z" class="UnoptimicedTransforms" transform="matrix(1,0,0,1.0096451,0,-0.74888589)"/><path id="path13873" style="opacity:1;fill:#f7b20d;fill-opacity:1;stroke:#291309;stroke-width:1;stroke-linecap:round;stroke-linejoin:round;stroke-dasharray:none;stroke-opacity:1;paint-order:markers stroke fill" d="m 77.134827,86.883812 3.814098,0.09985 c 1.140991,6.098175 2.358995,9.277812 12.578043,13.960378 0.03501,1.21381 -1.647725,4.5947 -1.040645,3.73764 C 80.49596,100.2633 77.081261,93.365279 77.134827,86.883812 Z m 35.519683,0 -3.8141,0.09985 c -1.14099,6.098175 -2.359,9.277812 -12.578046,13.960378 -0.03501,1.21381 1.647725,4.5947 1.040645,3.73764 11.990361,-4.41838 15.405061,-11.316401 15.351501,-17.797868 z" sodipodi:nodetypes="ccccc" class="UnoptimicedTransforms"/><path id="path13875" class="UnoptimicedTransforms" transform="matrix(0.99739284,0,0,1.0397439,0.6535512,-3.2929582)" d="m 76.686043,82.854485 h 7.025499 v 4.11024 h -7.025499 z m 35.606547,0 h -7.0255 v 4.11024 h 7.0255 z" style="opacity:1;fill:#f7b20d;fill-opacity:1;stroke:#291309;stroke-width:0.981982;stroke-linecap:round;stroke-linejoin:round;stroke-dasharray:none;stroke-opacity:1;paint-order:markers stroke fill"/><path id="path13877" style="opacity:1;fill:#f7b20d;fill-opacity:1;stroke:#291309;stroke-width:1;stroke-linecap:round;stroke-linejoin:round;stroke-dasharray:none;stroke-opacity:1;paint-order:markers stroke fill" d="m 92.433594,103.36914 v 3.4043 c 0,1.36481 -1.098083,2.46289 -2.462891,2.46289 h -6.050781 v 4.48828 h 11.207031 11.207027 v -4.48828 h -6.04882 c -1.364812,0 -2.464848,-1.09808 -2.464848,-2.46289 v -3.4043 h -2.693359 z" sodipodi:nodetypes="cssccccc" class="UnoptimicedTransforms"/></g><path id="path13881" style="fill:#f7b20d;fill-opacity:1;fill-rule:evenodd;stroke:none;stroke-width:0.995212;stroke-dasharray:none;stroke-opacity:1;paint-order:markers stroke fill;opacity:1" d="M 83.020772,77.644356 A 12.052332,21.438217 0 0 0 82.766524,82.0198 12.052332,21.438217 0 0 0 94.819019,103.45828 12.052332,21.438217 0 0 0 106.871,82.0198 12.052332,21.438217 0 0 0 106.61726,77.644356 Z" class="UnoptimicedTransforms" transform="matrix(1,0,0,1.0096451,0,-0.74888589)"/><path id="path13883" style="display:inline;fill:#f7b20d;fill-opacity:1;stroke:none;stroke-width:1;stroke-linecap:round;stroke-linejoin:round;stroke-dasharray:none;stroke-opacity:1;paint-order:markers stroke fill" d="m 77.134827,86.883812 3.814098,0.09985 c 1.140991,6.098175 2.358995,9.277812 12.578043,13.960378 0.03501,1.21381 -1.647725,4.5947 -1.040645,3.73764 C 80.49596,100.2633 77.081261,93.365279 77.134827,86.883812 Z m 35.519683,0 -3.8141,0.09985 c -1.14099,6.098175 -2.359,9.277812 -12.578046,13.960378 -0.03501,1.21381 1.647725,4.5947 1.040645,3.73764 11.990361,-4.41838 15.405061,-11.316401 15.351501,-17.797868 z" sodipodi:nodetypes="ccccc" class="UnoptimicedTransforms"/><path id="path13885" class="UnoptimicedTransforms" transform="matrix(0.99739284,0,0,1.0397439,0.6535512,-3.2929582)" d="m 76.686043,82.854485 h 7.025499 v 4.11024 h -7.025499 z m 35.606547,0 h -7.0255 v 4.11024 h 7.0255 z" style="display:inline;fill:#f7b20d;fill-opacity:1;stroke:none;stroke-width:0.981982;stroke-linecap:round;stroke-linejoin:round;stroke-dasharray:none;stroke-opacity:1;paint-order:markers stroke fill"/><path id="path13887" style="fill:#f7b20d;fill-opacity:1;stroke:none;stroke-width:1;stroke-linecap:round;stroke-linejoin:round;stroke-dasharray:none;stroke-opacity:1;paint-order:markers stroke fill" d="m 92.433594,103.36914 v 3.4043 c 0,1.36481 -1.098083,2.46289 -2.462891,2.46289 h -6.050781 v 4.48828 h 11.207031 11.207027 v -4.48828 h -6.04882 c -1.364812,0 -2.464848,-1.09808 -2.464848,-2.46289 v -3.4043 h -2.693359 z" sodipodi:nodetypes="cssccccc" class="UnoptimicedTransforms"/><path id="path13889" style="opacity:1;fill:#f7b20d;fill-opacity:1;stroke-width:0.362562;stroke-linecap:round;stroke-linejoin:round;paint-order:markers stroke fill" d="m 80.079877,84.618905 h 2.3727 l 0.64503,2.584674 h -2.3727 z" sodipodi:nodetypes="ccccc"/><path id="path13893" style="fill:#f7b20d;fill-opacity:1;stroke:none;stroke-width:1;stroke-linecap:round;stroke-linejoin:round;stroke-dasharray:none;stroke-opacity:1;paint-order:markers stroke fill" d="m 77.134827,86.883812 3.814098,0.09985 c 1.140991,6.098175 2.358995,9.277812 12.578043,13.960378 0.03501,1.21381 -1.647725,4.5947 -1.040645,3.73764 C 80.49596,100.2633 77.081261,93.365279 77.134827,86.883812 Z m 35.519683,0 -3.8141,0.09985 c -1.14099,6.098175 -2.359,9.277812 -12.578046,13.960378 -0.03501,1.21381 1.647725,4.5947 1.040645,3.73764 11.990361,-4.41838 15.405061,-11.316401 15.351501,-17.797868 z" sodipodi:nodetypes="ccccc" class="UnoptimicedTransforms" clip-path="url(#clipPath11854)"/><path id="path13895" style="fill:#f7b20d;fill-opacity:1;stroke:none;stroke-width:1;stroke-linecap:round;stroke-linejoin:round;stroke-dasharray:none;stroke-opacity:1;paint-order:markers stroke fill" d="m 92.433594,103.36914 v 3.4043 c 0,1.36481 -1.098083,2.46289 -2.462891,2.46289 h -6.050781 v 4.48828 h 11.207031 11.207027 v -4.48828 h -6.04882 c -1.364812,0 -2.464848,-1.09808 -2.464848,-2.46289 v -3.4043 h -2.693359 z" sodipodi:nodetypes="cssccccc" class="UnoptimicedTransforms" clip-path="url(#clipPath11935)"/><path id="path13897" style="fill:#f7b20d;fill-opacity:1;fill-rule:evenodd;stroke:none;stroke-width:0.995212;stroke-dasharray:none;stroke-opacity:1;paint-order:markers stroke fill" d="M 83.020772,77.644356 A 12.052332,21.438217 0 0 0 82.766524,82.0198 12.052332,21.438217 0 0 0 94.819019,103.45828 12.052332,21.438217 0 0 0 106.871,82.0198 12.052332,21.438217 0 0 0 106.61726,77.644356 Z" class="UnoptimicedTransforms" transform="matrix(1,0,0,1.0096451,0,-0.74888589)" clip-path="url(#clipPath12150)"/><path id="path13899" style="fill:#f7b20d;fill-opacity:1;stroke:none;stroke-width:1;stroke-linecap:round;stroke-linejoin:round;stroke-dasharray:none;stroke-opacity:1;paint-order:markers stroke fill" d="m 77.134827,86.883812 3.814098,0.09985 c 1.140991,6.098175 2.358995,9.277812 12.578043,13.960378 0.03501,1.21381 -1.647725,4.5947 -1.040645,3.73764 C 80.49596,100.2633 77.081261,93.365279 77.134827,86.883812 Z" sodipodi:nodetypes="ccccc" class="UnoptimicedTransforms" clip-path="url(#clipPath12442)" transform="matrix(-1,0,0,1,189.75345,0)"/><path id="path13901" style="opacity:1;fill:#f7b20d;fill-opacity:1;stroke-width:0.362562;stroke-linecap:round;stroke-linejoin:round;paint-order:markers stroke fill" d="m 109.52947,84.618905 h -2.37271 l -0.64504,2.584674 h 2.37271 z" sodipodi:nodetypes="ccccc"/><path id="path13903" style="fill:#f7b20d;fill-opacity:1;fill-rule:evenodd;stroke:none;stroke-width:0.995212;stroke-dasharray:none;stroke-opacity:1;paint-order:markers stroke fill" d="M 83.020772,77.644356 A 12.052332,21.438217 0 0 0 82.766524,82.0198 12.052332,21.438217 0 0 0 94.819019,103.45828 12.052332,21.438217 0 0 0 106.871,82.0198 12.052332,21.438217 0 0 0 106.61726,77.644356 Z" class="UnoptimicedTransforms" transform="matrix(1,0,0,1.0096451,0,-0.74888589)" clip-path="url(#clipPath12590)"/><path id="path13905" style="display:inline;fill:#f7b20d;fill-opacity:1;stroke:none;stroke-width:1;stroke-linecap:round;stroke-linejoin:round;stroke-dasharray:none;stroke-opacity:1;paint-order:markers stroke fill" d="m 92.433594,103.36914 v 3.4043 c 0,1.36481 -1.098083,2.46289 -2.462891,2.46289 h -6.050781 v 4.48828 h 11.207031 11.207027 v -4.48828 h -6.04882 c -1.364812,0 -2.464848,-1.09808 -2.464848,-2.46289 v -3.4043 h -2.693359 z" sodipodi:nodetypes="cssccccc" class="UnoptimicedTransforms" clip-path="url(#clipPath11935)" transform="matrix(0.02876608,0,0,2.6019384,103.27517,-182.17982)"/></g><path id="path9989" style="fill:#fdd71e;fill-opacity:1;stroke:none;stroke-width:1;stroke-linecap:round;stroke-linejoin:round;stroke-dasharray:none;stroke-opacity:1;paint-order:markers stroke fill" d="m 92.433594,103.36914 v 3.4043 c 0,1.36481 -1.098083,2.46289 -2.462891,2.46289 h -6.050781 v 4.48828 h 11.207031 11.207027 v -4.48828 h -6.04882 c -1.364812,0 -2.464848,-1.09808 -2.464848,-2.46289 v -3.4043 h -2.693359 z" sodipodi:nodetypes="cssccccc" inkscape:path-effect="#path-effect10003" inkscape:original-d="m 92.433634,103.36992 v 3.40392 c 0,1.36481 -1.098607,2.46342 -2.463415,2.46342 h -6.050464 v 4.488 h 11.217858 v -10.35534 z" class="UnoptimicedTransforms" transform="matrix(0.85700281,0,0,0.85700281,13.190559,17.849801)"/><path id="path14274" style="fill:#f7b20d;fill-opacity:1;stroke:none;stroke-width:1;stroke-linecap:round;stroke-linejoin:round;stroke-dasharray:none;stroke-opacity:1;paint-order:markers stroke fill" d="m 92.556641,100.86328 -0.123047,5.91016 c -0.02823,1.36452 -1.098083,2.46289 -2.462891,2.46289 h -6.050781 v 4.48828 h 11.207031 11.207027 v -4.48828 h -6.04882 c -1.364812,0 -2.436618,-1.09837 -2.464848,-2.46289 l -0.121093,-5.91016 -2.572266,2.4961 z" sodipodi:nodetypes="cssccccc" inkscape:path-effect="#path-effect14278" inkscape:original-d="m 92.5559,100.86346 -0.122266,5.91038 c -0.02823,1.36452 -1.098607,2.46342 -2.463415,2.46342 h -6.050464 v 4.488 h 11.217858 v -10.35534 z" class="UnoptimicedTransforms" clip-path="url(#clipPath14280)" transform="matrix(0.85700281,0,0,0.85700281,13.190559,17.849801)"/><path id="rect40563" style="opacity:0.886792;fill:#ffffff;stroke:#f77600;stroke-width:0.0787608;stroke-linecap:square;stroke-miterlimit:9.4;paint-order:stroke fill markers" d="m 84.571203,79.692057 4.729689,-0.243612 c -2.948544,5.194 -1.704269,11.443672 -0.08121,16.637682 L 86.786053,95.11166 c -1.295264,-5.073161 -2.216391,-6.748829 -2.21485,-15.419599 z" sodipodi:nodetypes="cccccc" transform="matrix(0.85700281,0,0,0.85700281,13.190559,17.849801)"/><rect style="opacity:0.432361;fill:#ffffff;fill-opacity:1;stroke:none;stroke-width:0.375773;stroke-linecap:square;stroke-miterlimit:9.4;paint-order:stroke fill markers" id="rect46001" width="23.850225" height="0.8445068" x="83.020775" y="77.644356" transform="matrix(0.85700281,0,0,0.85700281,13.190559,17.849801)"/><rect style="opacity:0.432361;fill:#ffffff;fill-opacity:1;stroke:none;stroke-width:0.255531;stroke-linecap:square;stroke-miterlimit:9.4;paint-order:stroke fill markers" id="rect46055" width="5.6540785" height="1.647278" x="77.252838" y="82.971626" transform="matrix(0.85700281,0,0,0.85700281,13.190559,17.849801)"/><rect style="opacity:0.432361;fill:#ffffff;fill-opacity:1;stroke:none;stroke-width:0.255531;stroke-linecap:square;stroke-miterlimit:9.4;paint-order:stroke fill markers" id="rect46057" width="5.6540785" height="1.647278" x="106.99929" y="82.854485" transform="matrix(0.85700281,0,0,0.85700281,13.190559,17.849801)"/><path id="rect46059" style="opacity:0.432361;fill:#ffffff;stroke-width:0.311992;stroke-linecap:square;stroke-miterlimit:9.4;paint-order:stroke fill markers" d="m 97.820312,106.77344 c -0.338828,3.61232 4.988658,2.24569 8.513668,2.46289 v 1.59884 l -8.272876,0.0387 z" sodipodi:nodetypes="ccccc" transform="matrix(0.85700281,0,0,0.85700281,13.190559,17.849801)"/><path id="path46062" style="opacity:0.432361;fill:#ffffff;stroke-width:0.311992;stroke-linecap:square;stroke-miterlimit:9.4;paint-order:stroke fill markers" d="m 92.433594,106.77344 c 0.34109,3.5295 -4.414314,2.29804 -8.513669,2.46289 v 1.59884 l 8.272879,0.0387 z" sodipodi:nodetypes="ccccc" transform="matrix(0.85700281,0,0,0.85700281,13.190559,17.849801)"/><path sodipodi:type="star" style="opacity:1;fill:#ffffff;fill-opacity:1;stroke:#f77600;stroke-width:0.2;stroke-linecap:square;stroke-miterlimit:9.4;paint-order:stroke fill markers" id="path42701" inkscape:flatsided="false" sodipodi:sides="4" sodipodi:cx="-77" sodipodi:cy="-57" sodipodi:r1="57.107353" sodipodi:r2="17.132206" sodipodi:arg1="1.5707963" sodipodi:arg2="2.3561945" inkscape:rounded="-0.06" inkscape:randomized="0" d="m -76.999998,0.10735321 c 2.795723,3e-8 -14.091177,-46.96992921 -12.114301,-44.99305421 1.976875,1.976875 -44.993051,-14.910021 -44.993051,-12.114297 0,2.795723 46.969926,-14.091177 44.993051,-12.114301 -1.976875,1.976875 14.910021,-44.993051 12.114297,-44.993051 -2.795723,0 14.091177,46.969926 12.114301,44.993051 -1.976875,-1.976875 44.993054,14.910021 44.993054,12.114297 0,-2.795723 -46.969929,14.091177 -44.993054,12.114301 1.976875,-1.976875 -14.910021,44.99305418 -12.114297,44.99305421 z" transform="matrix(0.11426041,0,0,0.12876242,109.2803,97.216007)"/><path sodipodi:type="star" style="opacity:1;fill:#ffffff;fill-opacity:1;stroke:#f77600;stroke-width:0.2;stroke-linecap:square;stroke-miterlimit:9.4;paint-order:stroke fill markers" id="path44952" inkscape:flatsided="false" sodipodi:sides="4" sodipodi:cx="-77" sodipodi:cy="-57" sodipodi:r1="57.107353" sodipodi:r2="17.132206" sodipodi:arg1="1.5707963" sodipodi:arg2="2.3561945" inkscape:rounded="-0.06" inkscape:randomized="0" d="m -76.999998,0.10735321 c 2.795723,3e-8 -14.091177,-46.96992921 -12.114301,-44.99305421 1.976875,1.976875 -44.993051,-14.910021 -44.993051,-12.114297 0,2.795723 46.969926,-14.091177 44.993051,-12.114301 -1.976875,1.976875 14.910021,-44.993051 12.114297,-44.993051 -2.795723,0 14.091177,46.969926 12.114301,44.993051 -1.976875,-1.976875 44.993054,14.910021 44.993054,12.114297 0,-2.795723 -46.969929,14.091177 -44.993054,12.114301 1.976875,-1.976875 -14.910021,44.99305418 -12.114297,44.99305421 z" transform="matrix(0.06338554,0,0,0.07143048,98.483767,85.829005)"/></g><path id="rect243" style="fill:#e88308;fill-opacity:1;stroke-width:18.1788;stroke-linecap:round;stroke-linejoin:round;stroke-miterlimit:9.4;paint-order:stroke fill markers" d="m 83.961884,102.72167 c 6.319066,5.61124 17.635026,4.29107 21.347836,-0.22209 l -2.54307,2.20131 c -5.404623,4.57108 -10.946158,4.0377 -16.587024,-0.19912 z" sodipodi:nodetypes="ccccc"/><rect style="fill:#e88308;fill-opacity:1;stroke-width:25.277;stroke-linecap:round;stroke-linejoin:round;stroke-miterlimit:9.4;paint-order:stroke fill markers" id="rect1383" width="1.8059161" height="0.72369504" x="82.599525" y="91.859818"/><rect style="fill:#f7b20d;fill-opacity:1;stroke-width:25.277;stroke-linecap:round;stroke-linejoin:round;stroke-miterlimit:9.4;paint-order:stroke fill markers" id="rect1385" width="1.8059161" height="0.72369504" x="104.55918" y="91.79512"/><rect style="fill:#e88308;fill-opacity:1;stroke-width:19.5732;stroke-linecap:round;stroke-linejoin:round;stroke-miterlimit:9.4;paint-order:stroke fill markers" id="rect1439" width="19.20891" height="0.79209524" x="85.110168" y="114.52002"/></g></g></g></svg>