<?xml version="1.0" encoding="UTF-8" standalone="no"?>
<!DOCTYPE svg PUBLIC "-//W3C//DTD SVG 1.1//EN" "http://www.w3.org/Graphics/SVG/1.1/DTD/svg11.dtd">
<svg width="100%" height="100%" viewBox="0 0 280 62" version="1.1" xmlns="http://www.w3.org/2000/svg" xmlns:xlink="http://www.w3.org/1999/xlink" xml:space="preserve" xmlns:serif="http://www.serif.com/" style="fill-rule:evenodd;clip-rule:evenodd;stroke-linejoin:round;stroke-miterlimit:2;">
    <g id="banner_halloween_4" transform="matrix(1,0,0,1,0,-8.75)">
        <path d="M280,47.751L-0,47.751L-0,65.286C-0,67.888 2.112,70 4.714,70L275.286,70C277.888,70 280,67.888 280,65.286L280,47.751Z" style="fill:#4b0a4b;"/>
        <g transform="matrix(-0.893232,-1.09389e-16,8.74808e-17,-0.714335,285.834,65.8968)">
            <path d="M320,8.028C320,5.159 318.138,2.83 315.844,2.83L10.688,2.83C8.394,2.83 6.532,5.159 6.532,8.028L6.532,74.803C6.532,77.671 8.394,80 10.688,80L315.844,80C318.138,80 320,77.671 320,74.803L320,8.028Z" style="fill:url(#_Linear1);"/>
        </g>
        <g>
            <g transform="matrix(1,0,0,1,0,8.75)">
                <path d="M280,48.781C273.587,50.447 252.099,53.633 249.589,53.955C245.104,54.529 240.342,54.74 235.758,54.704C234.057,54.691 230.845,54.619 229.241,54.341C231.366,54.237 232.594,54.188 234.432,53.587C236.181,53.016 237.221,52.503 238.933,51.762C239.322,51.593 240.232,51.53 240.443,52.082C240.516,52.274 240.515,52.479 240.457,52.746C241.53,52.609 242.808,52.052 243.686,51.544C246.946,49.657 249.79,47.616 252.044,45.026C254.713,41.959 254.957,39.886 257.829,38.27C258.918,37.658 260.631,37.6 261.593,38.66C261.815,38.906 261.96,39.138 262.155,39.644C262.156,39.647 262.276,38.391 262.939,38.123C263.326,37.968 263.838,38.407 263.826,38.992C263.855,37.118 263.984,35.303 264.545,33.233C265.618,29.268 268.276,22.981 272.692,22.379C274.21,22.173 275.678,22.994 276.803,24.258C277.135,24.632 277.642,25.436 277.82,26.074C277.893,25.763 278.112,24.969 278.705,24.771C279.098,24.639 279.535,24.743 280,25.039L280,48.781Z" style="fill:#f4a7eb;"/>
            </g>
            <g transform="matrix(1,0,0,1,0,8.75)">
                <path d="M280,45.817C275.626,47.061 266.705,49.456 264.213,50.125C262.188,50.67 256.894,51.763 254.709,52.106C251.637,52.589 248.803,52.808 245.162,53.319C244.369,53.43 242.71,53.533 241.917,53.611C243.453,53.275 246.296,52.365 249.135,50.327C250.591,49.283 251.013,49.097 251.473,49.188C251.662,49.225 251.967,49.581 251.944,49.977C254.193,46.334 257.85,43.467 259.452,43.083C260.553,42.818 262.299,42.61 263.207,43.85C263.553,44.321 263.755,45.601 263.307,46.355C263.675,45.856 263.973,45.786 264.358,45.758C264.582,45.742 265.207,45.766 265.526,46.261C266.196,44.744 268.209,34.934 275.212,33.523C277.867,32.988 277.94,35.688 277.988,35.635C278.49,35.087 279.131,34.045 280,34.055L280,45.817Z" style="fill:#fdbef6;"/>
            </g>
        </g>
        <g>
            <g transform="matrix(0.999228,-0.0392946,0.0392946,0.999228,-3.54309,15.4096)">
                <path d="M178.195,48.241C178.038,47.785 177.936,47.456 177.828,47.027C177.467,45.59 177.477,43.608 178.968,42.672C180.338,41.813 182.074,42.756 183.141,43.502C183.463,43.727 184.592,44.638 186.179,45.738C185.504,44.746 185.065,43.935 184.809,42.862C184.229,40.426 184.769,38.172 186.626,36.461C187.399,35.75 188.135,35.352 189.176,35.263C189.999,35.192 190.8,35.284 191.587,35.538C194.845,36.589 196.177,40.059 198.185,42.542C198.781,43.279 199.429,43.969 200.108,44.629C200.202,44.721 200.585,45.223 200.71,45.214C200.73,45.212 200.815,45.007 200.831,44.979C200.953,44.772 201.097,44.592 201.331,44.511C202.304,44.173 203.363,45.261 203.977,45.859C204.414,46.286 205.988,47.801 205.991,47.792C205.507,46.572 205.183,45.272 206.255,44.462C206.934,43.949 208.614,44.254 209.614,44.839C211.769,46.099 212.414,47.146 213.727,48.899C214.416,49.818 216.726,52.855 216.755,52.799C216.584,52.433 216.657,51.946 216.963,51.712C217.482,51.315 218.184,52 218.647,52.304C219.516,52.876 220.641,53.809 221.053,53.995C221.762,54.315 222.263,54.54 223.597,54.708C222.332,54.867 219.448,54.654 218.221,54.324C216.573,53.88 209.901,52.669 208.169,52.478C206.943,52.343 202.044,52.329 200.702,52.46C198.46,52.68 196.85,52.669 194.6,52.796C192.685,52.903 189.994,52.891 188.07,52.819C185.6,52.726 181.017,51.761 178.417,51.06C177.082,50.622 175.563,49.925 174.68,49.167C174.191,48.748 173.917,48.185 174.124,47.649C174.56,46.524 175.896,46.684 176.645,47.102C177.259,47.445 177.858,47.921 178.195,48.241" style="fill:#f4a7eb;"/>
            </g>
            <g transform="matrix(0.999228,-0.0392946,0.0392946,0.999228,-3.54309,15.4096)">
                <path d="M214.957,52.79C211.45,51.16 211.268,47.354 209.007,47.557C207.908,47.655 208.013,49.162 208.758,50.694C207.324,49.952 205.978,49.549 204.98,50.488C204.64,49.833 204.2,49.269 203.373,49.37C203.062,49.408 202.687,49.631 202.656,50.141C201.53,48.871 200.646,48.207 200.118,48.273C199.777,48.316 199.585,48.542 199.475,48.816C196.222,44.708 192.757,40.962 190.117,41.998C187.926,42.858 188.147,45.917 189.346,49.641C186.537,47.608 183.611,45.763 182.192,46.536C181.378,46.979 181.406,48.193 182.235,50.021C181.697,49.551 181.103,49.231 180.563,49.272C180.19,49.301 179.868,49.466 179.684,49.847C179.367,50.503 182.609,51.399 185.145,51.595C190.232,51.989 194.909,51.809 199.736,51.552C206.369,51.199 210.038,52.183 214.957,52.79Z" style="fill:#fdbef6;"/>
            </g>
        </g>
        <g transform="matrix(0.206266,0,0,0.111972,-64.0172,-76.8382)">
            <g opacity="0.5">
                <g transform="matrix(4.84811,0,0,8.93083,310.363,764.373)">
                    <path d="M65.814,55.125C57.06,54.697 48.346,53.95 39.672,53.043C27.078,51.725 13.5,50.321 0.358,50.51L0.212,23.96C37.357,19.79 67.368,35.17 101.033,40.832C124.435,44.768 144.598,40.564 167.232,42.17C183.467,43.323 195.494,49.195 210.469,52.153C232.813,56.567 257.067,51.054 279.692,47.221L279.659,52.968C279.526,53.255 279.358,53.522 279.159,53.764C276.67,54.205 274.18,54.663 271.688,55.125L182.968,55.125C173.441,53.151 163.411,51.493 153.426,51.236C134.152,50.738 114.916,54.041 95.854,55.119L95.741,55.125L65.814,55.125Z" style="fill:#ef96e3;fill-opacity:0.5;"/>
                </g>
                <g transform="matrix(4.84811,0,0,8.93083,310.363,764.373)">
                    <path d="M0.3,39.883C3.225,38.494 6.339,37.237 9.793,36.232C34.842,28.946 63.392,35.776 89.935,33.676C116.175,31.601 139.815,23.924 165.827,21.143C193.863,18.146 216.17,20.975 243.308,24.087C255.865,25.527 267.71,25.608 279.819,25.107L279.694,46.892C278.432,46.832 277.172,46.764 275.912,46.688C264.862,46.025 253.538,44.73 243.089,42.634C235.614,41.135 228.46,39.192 220.767,38.013C208.356,36.11 194.616,35.605 181.75,35.926C162.224,36.412 144.63,41.456 126.42,44.725C111.845,47.341 97.406,48.114 82.224,47.163C61.778,45.882 39.396,43.184 19.215,46.7C12.415,47.885 6.149,50.152 0.369,52.49L0.3,39.883Z" style="fill:#ef96e3;fill-opacity:0.4;"/>
                </g>
                <g transform="matrix(4.84811,0,0,8.93083,310.363,764.373)">
                    <path d="M93.114,0C102.363,2.345 111.714,4.366 122.483,4.464C131.682,4.549 138.779,3.092 145.534,1.183C146.874,0.804 148.2,0.406 149.528,0L126.47,0C125.235,0.063 123.954,0.092 122.619,0.079C121.634,0.07 120.663,0.043 119.701,0L93.114,0Z" style="fill:#ef96e3;fill-opacity:0.5;"/>
                </g>
                <g transform="matrix(4.84811,0,0,8.93083,310.363,764.373)">
                    <path d="M3.638,0.001L3.626,0.001L3.555,0.003L3.541,0.004L3.47,0.008L3.461,0.008L3.392,0.014L3.384,0.014L3.313,0.021L3.3,0.023L3.231,0.031L3.219,0.033L3.146,0.043L3.075,0.055L3.064,0.057L2.996,0.069L2.983,0.072L2.915,0.086L2.906,0.088L2.84,0.103L2.833,0.105L2.766,0.122L2.753,0.125L2.687,0.144L2.676,0.147L2.608,0.167L2.54,0.189L2.53,0.193L2.466,0.215L2.453,0.22L2.389,0.243L2.38,0.247L2.318,0.271L2.313,0.274L2.249,0.3L2.237,0.305L2.176,0.332L2.165,0.338L2.102,0.367L2.039,0.398L2.029,0.403L1.97,0.434L1.958,0.441L1.899,0.473L1.891,0.478L1.834,0.511L1.829,0.514L1.77,0.549L1.759,0.555L1.703,0.591L1.693,0.598L1.636,0.635L1.578,0.676L1.569,0.682L1.515,0.721L1.505,0.729L1.475,0.751L1.433,0.783L1.407,0.803L1.367,0.836L1.342,0.856L1.3,0.892L1.278,0.911L1.227,0.956L1.216,0.966L1.155,1.023L1.137,1.04L1.095,1.081L1.073,1.103L1.036,1.141L1.013,1.165L0.978,1.203L0.956,1.227L0.921,1.267L0.901,1.29L0.859,1.339L0.847,1.353L0.795,1.418L0.779,1.438L0.744,1.484L0.707,1.534L0.702,1.541L0.661,1.599L0.621,1.658L0.616,1.666L0.578,1.723L0.573,1.732L0.536,1.792L0.498,1.856L0.495,1.86L0.46,1.922L0.456,1.929L0.423,1.992L0.42,1.997L0.387,2.062L0.354,2.129L0.352,2.134L0.322,2.2L0.319,2.206L0.29,2.273C0.28,2.297 0.27,2.321 0.26,2.345L0.233,2.416L0.232,2.42L0.206,2.492L0.181,2.565C0.173,2.59 0.165,2.615 0.158,2.64L0.136,2.716C0.122,2.767 0.109,2.817 0.097,2.868L0.147,12.064C10.886,10.008 23.284,8.999 39.158,10.766C80.454,15.361 102.132,26.834 134.04,31.852C184.018,39.713 234.73,34.059 279.809,26.806L279.876,15.15C231.809,23.686 181.815,22.696 129.799,11.68C117.834,8.6 109.701,4.39 102.247,0L3.713,0L3.638,0.001Z" style="fill:#ef96e3;fill-opacity:0.4;"/>
                </g>
            </g>
        </g>
        <g>
            <g transform="matrix(1,0,0,1,0,8.75)">
                <path d="M-0,32.223C1.022,31.1 2.386,30.274 4.238,30.061C7.283,29.71 8.818,32.101 9.269,32.799C9.664,31.073 11.585,28.061 12.48,26.698C14.847,23.094 18.912,20.658 23.16,19.595C30.038,17.873 34.165,22.781 38.59,27.16C40.312,28.863 48.569,39.526 49.583,40.942C50.216,38.871 52.201,35.812 55.707,36.034C59.291,36.261 62.409,39.684 65.178,42.218C65.872,42.853 67.167,43.903 68.427,44.369C68.973,43.031 69.908,40.655 70.67,39.639C73.253,36.196 75.295,35.649 77.85,35.294C83.511,34.507 86.131,35.066 91.292,38.154C94.501,40.073 97.772,43.789 98.371,44.784C98.659,43.925 100.018,43.532 101.578,44.427C103.552,45.56 120.91,55.533 122.432,55.917C123.575,54.301 124.706,54.299 125.644,54.212C127.891,54.006 129.834,57.05 130.225,58.486C130.953,58.109 132.228,57.557 133.169,58.085C135.403,59.339 137.974,60.398 140.355,61.25L4.714,61.25C2.112,61.25 -0,59.138 -0,56.536L-0,32.223Z" style="fill:#f4a7eb;"/>
            </g>
            <g transform="matrix(1,0,0,1,0,8.75)">
                <path d="M-0,42.299C0.298,41.94 0.653,41.683 1.075,41.578C2.124,41.317 3.246,41.978 3.573,42.825C3.684,43.112 4.085,37.266 8.43,37.232C10.972,37.212 13.144,38.674 14.883,42.595C15.761,34.351 23.917,27.066 30.039,29.604C34.658,31.519 39.762,47.225 39.765,47.224C40.435,46.865 41.298,46.21 42.655,46.583C44.2,47.008 44.465,48.374 44.406,49.182C45.904,47.035 47.709,44.967 51.04,44.842C59.324,44.528 62.334,54.867 62.428,55.119C62.431,55.126 63.194,52.899 66.791,53.158C72.03,53.536 73.453,55.847 74.125,56.598C74.791,53.59 80.192,50.295 82.799,50.67C87.369,51.328 93.034,59.187 93.093,58.926C93.614,56.602 95.544,57.543 96.259,57.873C97.761,58.566 102.903,60.523 104.614,61.15C104.705,61.183 104.797,61.217 104.889,61.25L4.714,61.25C2.112,61.25 -0,59.138 -0,56.536L-0,42.299Z" style="fill:#fdbef6;"/>
            </g>
            <g transform="matrix(1,0,0,1,0,8.75)">
                <path d="M0.01,56.838C0.003,56.738 -0,56.637 -0,56.536L-0,51.412C-0,53.461 1.664,55.125 3.713,55.125L120.717,55.125C121.588,55.572 122.197,55.858 122.432,55.917C122.661,55.593 122.89,55.333 123.118,55.125L128.013,55.125C129.147,56.094 129.983,57.597 130.225,58.486C130.953,58.109 132.228,57.557 133.169,58.085C135.403,59.339 137.974,60.398 140.355,61.25L4.714,61.25C4.646,61.25 4.578,61.249 4.511,61.246L4.472,61.244L4.412,61.24C4.392,61.239 4.372,61.238 4.352,61.236L4.292,61.231C4.173,61.221 4.055,61.206 3.939,61.186L3.88,61.176L3.866,61.174C3.776,61.157 3.687,61.138 3.599,61.117C3.427,61.075 3.258,61.024 3.094,60.964L3.04,60.944C2.908,60.893 2.778,60.837 2.652,60.775C2.562,60.732 2.474,60.685 2.388,60.636L2.369,60.625L2.349,60.613C2.285,60.576 2.222,60.538 2.161,60.498L2.127,60.476L2.116,60.469C2.068,60.437 2.02,60.404 1.973,60.37C1.931,60.34 1.89,60.31 1.849,60.279C1.684,60.152 1.528,60.015 1.381,59.868C1.341,59.828 1.302,59.787 1.264,59.746L1.225,59.705C1.197,59.674 1.169,59.642 1.142,59.61L1.113,59.577L1.077,59.534C1.065,59.519 1.053,59.504 1.041,59.49L1.01,59.45C0.88,59.285 0.761,59.112 0.654,58.931L0.625,58.881C0.606,58.848 0.587,58.814 0.568,58.779L0.542,58.732L0.521,58.691C0.467,58.586 0.417,58.479 0.371,58.37L0.349,58.317C0.327,58.264 0.306,58.21 0.286,58.156C0.273,58.119 0.259,58.081 0.247,58.044C0.202,57.911 0.163,57.775 0.13,57.638C0.101,57.518 0.077,57.397 0.058,57.274C0.047,57.208 0.038,57.143 0.031,57.077L0.024,57.017C0.02,56.978 0.017,56.938 0.014,56.898L0.01,56.838Z" style="fill:#d38ecb;"/>
            </g>
            <g transform="matrix(1,0,0,1,0,8.75)">
                <path d="M0.01,56.838C0.003,56.738 -0,56.637 -0,56.536L-0,51.412C-0,53.461 1.664,55.125 3.713,55.125L72.704,55.125C73.446,55.718 73.849,56.29 74.125,56.598C74.233,56.109 74.467,55.612 74.793,55.125L89.62,55.125C91.624,57.146 93.063,59.057 93.093,58.926C93.614,56.602 95.544,57.543 96.259,57.873C97.761,58.566 102.903,60.523 104.614,61.15L104.889,61.25L4.714,61.25C4.646,61.25 4.578,61.249 4.511,61.246L4.472,61.244L4.412,61.24C4.392,61.239 4.372,61.238 4.352,61.236L4.292,61.231C4.173,61.221 4.055,61.206 3.939,61.186L3.88,61.176L3.866,61.174C3.776,61.157 3.687,61.138 3.599,61.117C3.427,61.075 3.258,61.024 3.094,60.964L3.04,60.944C2.908,60.893 2.778,60.837 2.652,60.775C2.562,60.732 2.474,60.685 2.388,60.636L2.369,60.625L2.349,60.613C2.285,60.576 2.222,60.538 2.161,60.498L2.127,60.476L2.116,60.469C2.068,60.437 2.02,60.404 1.973,60.37C1.931,60.34 1.89,60.31 1.849,60.279C1.684,60.152 1.528,60.015 1.381,59.868C1.341,59.828 1.302,59.787 1.264,59.746L1.225,59.705C1.197,59.674 1.169,59.642 1.142,59.61L1.113,59.577L1.077,59.534C1.065,59.519 1.053,59.504 1.041,59.49L1.01,59.45C0.88,59.285 0.761,59.112 0.654,58.931L0.625,58.881C0.606,58.848 0.587,58.814 0.568,58.779L0.542,58.732L0.521,58.691C0.467,58.586 0.417,58.479 0.371,58.37L0.349,58.317C0.333,58.278 0.318,58.239 0.303,58.2C0.283,58.147 0.263,58.093 0.245,58.039C0.201,57.908 0.162,57.774 0.13,57.638C0.1,57.514 0.075,57.387 0.055,57.259C0.046,57.199 0.038,57.138 0.031,57.077L0.024,57.017C0.02,56.978 0.017,56.938 0.014,56.898L0.01,56.838Z" style="fill:#ffb0f6;"/>
            </g>
        </g>
        <g>
            <g transform="matrix(1,0,0,1,0,8.75)">
                <path d="M31.738,45.194C31.722,46.037 31.78,48.757 31.657,49.841C31.48,51.391 31.758,52.925 31.269,54.418C30.959,55.366 30.673,55.732 30.516,56.728C30.331,57.898 31.171,59.697 31.175,61.3L38.874,61.3C38.758,60.537 38.463,59.332 38.271,58.738C37.852,57.446 37.425,57.018 38.227,55.312L39.778,54.64C40.173,54.477 40.748,54.434 41.075,54.625C41.442,54.839 43.924,54.697 44.195,54.595C45.602,54.069 46.952,53.589 48.208,53.078L50.352,51.039C51.235,50.27 52.001,49.776 52.802,49.197C52.802,49.197 53.792,48.417 54.692,48.447C55.592,48.477 56.432,48.417 56.641,48.687C56.851,48.957 57.292,49.205 57.811,49.707C58.316,50.194 60.413,51.938 61.038,52.33C61.508,52.624 62.181,53.019 63.396,52.901C63.873,52.855 64.951,52.767 64.951,52.767C65.89,52.663 66.751,52.03 67.676,51.634C68.214,51.405 68.688,51.105 69.02,51.02C69.282,50.953 69.476,50.965 69.73,51.078C69.73,51.078 70.2,51.331 70.364,51.155C70.537,50.967 70.709,50.694 70.479,50.502C70.248,50.31 69.999,50.099 69.692,50.041C69.385,49.984 68.924,50.041 68.636,50.233C68.348,50.425 66.851,50.943 66.851,50.943C66.49,51.083 66.06,51.273 65.597,51.443C65.134,51.612 63.269,51.627 62.448,51.231C61.673,50.858 60.937,50.014 60.632,49.695C60.495,49.552 59.326,48.563 59.326,48.563C59.326,48.563 58.424,47.776 58.309,47.565C58.194,47.354 57.829,46.932 57.829,46.932C57.653,46.678 57.496,46.489 57.311,46.471L54.854,46.01L57.887,41.96C58.431,41.179 59.199,40.759 60.056,40.482C60.056,40.482 61.351,40.038 61.649,39.945C62.041,39.822 63.492,39.407 63.664,39.35C63.837,39.292 64.449,39.209 65.197,38.537C65.946,37.865 67.312,37.181 67.446,36.989C67.58,36.797 68.655,35.818 68.655,35.818C69.009,35.488 69.226,35.248 69.556,34.961C69.922,34.644 70.838,34.134 71.592,33.764L73.473,32.593L74.855,31.384L75.875,30.47L77.714,29.85C78.061,29.689 77.639,28.84 77.331,28.995L77.32,28.999L77.888,28.389L79.904,25.606C79.904,25.606 80.153,25.241 80.192,25.011C80.23,24.78 80.153,23.725 80.153,23.725C80.153,23.725 80.076,23.341 79.635,23.437C79.193,23.533 78.867,23.725 78.886,24.109C78.905,24.493 79.015,24.856 78.925,25.068C78.812,25.333 78.24,26.056 77.813,26.652C77.358,27.287 76.713,27.976 76.257,28.428L74.913,29.445L74.237,29.938L72.729,30.014L69.404,29.982C69.404,29.982 69.749,29.59 69.788,29.398C69.826,29.206 69.915,27.689 69.995,27.319C70.07,26.968 70.134,25.365 70.325,24.819C70.325,24.819 70.843,23.264 71.093,22.592C71.343,21.92 71.65,20.941 71.65,20.941L72.187,20.001L74.318,17.64C74.318,17.64 74.778,17.458 74.587,17.165C74.395,16.872 74.126,16.387 73.857,16.776C73.588,17.165 72.513,18.484 72.513,18.484L71.515,19.483C71.515,19.483 71.131,19.89 70.882,20.504C70.632,21.118 69.6,23.725 69.154,24.554C68.709,25.383 68.878,25.721 68.801,26.182C68.724,26.642 68.064,29.145 68.064,29.145C68.064,29.145 67.172,30.124 66.009,31.004C64.928,31.822 63.583,32.533 63.221,32.844C62.468,33.488 61.282,34.729 61.021,35.005C60.759,35.282 57.315,38.344 57.315,38.344L55.579,40.018L51.863,44.409L50.988,45.515C50.51,45.81 50.029,46.234 49.358,46.74C48.978,47.027 48.023,47.628 47.579,48.126L46.765,49.124C46,49.376 44.851,49.313 44.185,49.615C43.72,49.826 42.78,50.073 41.987,49.983L38.841,49.784C38.841,49.784 38.397,45.833 39.297,43.493C40.196,41.154 41.036,36.775 41.426,35.875C41.816,34.975 43.286,28.857 43.586,27.957C43.886,27.057 47.995,20.849 51.234,18.78C54.473,16.71 57.922,13.928 61.281,11.791C64.64,9.655 68.839,7.172 68.839,7.172L71.719,3.843L73.278,2.554L74.837,0L72.122,0L71.719,0.874L67.88,4.983L60.801,9.212L55.733,12.421C53.953,13.35 52.288,14.53 51.157,15.222C49.316,16.35 47.186,18.027 45.715,19.379C46.276,16.928 47.024,14.755 47.905,12.784C47.895,9.85 48.064,6.877 48.774,3.783C48.915,2.522 48.807,1.261 48.583,0L43.521,0C43.771,0.62 44.04,1.176 44.024,1.726C44.008,2.285 43.961,2.936 43.799,3.47C43.542,4.319 43.302,5.394 43.21,6.272C43.122,7.11 43.015,8.855 43.089,9.517C42.683,9.123 41.66,8.199 41.311,7.895C40.682,7.35 39.885,6.742 39.412,6.045C38.958,5.375 38.813,4.932 38.451,4.233C38.26,3.863 37.669,3.001 37.334,2.413C37.065,1.941 36.791,1.28 36.539,0.824C36.352,0.485 36.24,0.322 36.212,0L32.365,0C33.102,1.187 33.492,2.236 34.046,3.198C34.438,3.881 34.904,4.818 35.138,5.575C35.292,6.075 35.36,6.565 35.642,7.021C36.367,8.192 37.111,9.038 38.061,10.043C38.945,10.979 39.643,12.16 40.547,13.076C40.918,13.452 41.387,14.339 41.615,14.882C41.31,15.649 41.187,16.025 40.999,16.746C40.714,17.841 40.291,19.377 40.076,20.204C39.504,22.405 39.212,23.743 38.531,26.249C37.872,28.676 37.426,30.959 36.627,33.364C36.215,34.605 35.336,37.139 34.931,38.646C34.931,38.646 31.265,37.421 29.665,36.337C28.672,35.665 28.441,36.142 27.638,35.244C26.195,33.63 25.765,33.131 22.941,30.232C21.861,29.124 19.663,26.592 18.675,25.39C18.143,24.743 17.58,21.691 17.742,19.973C17.945,17.83 18.46,17.165 18.619,16.117C18.919,14.136 19.02,11.25 19.584,10.32C20.338,9.074 21.647,6.442 22.154,5.045C22.319,4.592 22.423,4.103 22.464,3.622C22.479,3.457 22.481,3.291 22.481,3.125C22.479,2.807 21.771,2.714 21.592,3.022C21.395,3.363 21.321,4.441 21.092,4.913C20.87,5.371 20.45,5.913 20.08,6.549C19.965,6.207 19.207,5.297 19.179,4.937C19.164,4.22 19.613,2.265 19.649,1.386C19.681,0.577 18.592,0.447 18.307,1.267C17.988,2.186 17.688,5.056 17.698,5.246C17.751,6.23 18.564,7.351 18.733,7.943C18.18,8.946 17.932,9.311 17.565,10.276C17.129,11.423 16.484,14.705 16.453,15.214C16.347,16.954 14.899,18.177 14.787,18.703C14.669,19.259 14.624,20.474 14.644,21.034C14.65,21.224 14.653,21.478 14.692,21.87C14.547,20.66 14.245,20.368 14.04,20.127C12.906,18.803 12.476,18.992 10.53,17.008C9.973,16.44 8.303,14.992 8.273,14.13C8.236,13.06 8.894,11.64 8.708,10.569C8.591,9.893 6.789,8.709 6.364,7.971C6.139,7.581 5.359,5.969 4.885,4.834C4.808,4.65 3.944,4.472 4.002,4.861C4.059,5.247 4.267,5.818 4.449,6.451C4.642,7.122 4.825,8.158 5.272,8.702C5.852,9.406 6.698,9.86 7.028,10.49C7.183,10.786 7.107,11.1 7.051,11.535C7.016,11.811 6.591,12.467 6.485,12.724C6.408,12.911 6.098,13.403 6.241,13.801C6.011,13.571 4.676,12.666 4.415,12.515C2.949,11.664 2.401,11.347 1.115,10.507C0.937,10.391 0.444,10.19 0,10.097L0,12.169C0.496,12.252 1.62,12.841 2.1,13.126C3.347,13.865 4.165,14.588 5.271,15.567C5.719,15.963 6.44,16.555 6.85,16.988C7.585,17.765 8.236,18.676 9.062,19.406C10.03,20.261 11.111,21.034 11.807,22.119C12.703,23.514 12.551,24.361 14.302,26.334C14.733,26.82 15.124,27.339 15.517,27.855C15.643,28.02 13.05,26.407 11.453,25.475C10.718,25.047 10.34,24.801 9.573,24.402C7.856,23.508 6.214,24.35 3.086,22.759C2.783,22.605 2.509,22.42 2.265,22.188C1.911,21.851 0.853,21.108 0,20.865L0,22.24C0.555,22.433 1.286,23.143 1.546,23.353C2.65,24.246 3.39,24.707 4.633,25.089C6.519,25.668 8.254,25.923 9.979,26.928C11.701,27.931 12.991,28.796 14.546,30.014C16.419,31.48 18.065,32.631 19.687,34.475C20.499,35.398 21.663,37.052 22.256,37.489C23.058,38.079 24.259,38.592 25.82,40.05C26.699,40.871 28.683,42.399 29.627,43.149C30.58,43.906 31.555,44.909 31.738,45.194ZM72.221,31.409L71.63,31.441C71.63,31.441 69.538,31.863 69.001,32.132C68.463,32.401 67.676,32.746 67.312,32.977C66.947,33.207 63.818,35.511 63.818,35.511L62.206,37.526L63.3,37.046L65.104,36.278L67.1,34.858L68.847,33.418L71.362,32.036L72.221,31.409Z" style="fill:#363636;"/>
            </g>
            <g transform="matrix(1,0,0,1,0,8.75)">
                <path d="M31.008,55.125C30.804,55.631 30.628,56.021 30.516,56.728C30.333,57.886 31.154,59.659 31.174,61.25L38.866,61.25C38.745,60.485 38.459,59.319 38.271,58.738C37.852,57.446 37.425,57.018 38.227,55.312L38.658,55.125L31.008,55.125Z" style="fill:#202020;"/>
            </g>
        </g>
        <g transform="matrix(0.451349,0.0698937,-0.0698937,0.451349,78.9633,-115.236)">
            <path d="M60.226,275.982C61.021,276.054 61.497,275.476 61.657,274.259C61.723,273.752 62.686,273.591 62.783,274.153C63.587,278.777 64.882,280.34 67.052,276.448C67.308,275.877 67.986,275.897 68.141,276.372C69.468,280.445 72.975,277.837 72.966,274.057C72.963,273.062 73.997,272.554 74.763,273.412C79.689,278.921 80.697,284.462 77.325,290.039C76.768,290.96 75.756,291.142 75.413,290.38C73.997,287.23 72.013,287.159 69.547,289.699C68.789,290.48 68.02,290.566 67.612,289.598C66.218,286.294 64.235,286.336 61.753,289.217C61.445,289.556 61.212,289.745 60.753,289.764C60.277,289.784 60.043,289.611 59.709,289.296C57.015,286.612 55.035,286.72 53.896,290.121C53.563,291.116 52.79,291.089 51.974,290.368C49.323,288.022 47.35,288.244 46.177,291.493C45.893,292.279 44.87,292.173 44.245,291.297C40.459,285.993 41.043,280.392 45.536,274.524C46.236,273.611 47.305,274.038 47.378,275.03C47.656,278.8 51.35,281.135 52.365,276.973C52.483,276.488 53.157,276.415 53.456,276.965C55.915,280.681 57.087,279.025 57.538,274.353C57.593,273.785 58.564,273.873 58.669,274.373C58.921,275.575 59.439,276.113 60.226,275.982Z" style="fill:#2f002e;"/>
        </g>
        <g transform="matrix(0.296234,-0.108272,0.108272,0.296234,144.509,-55.6926)">
            <path d="M60.226,275.982C61.021,276.054 61.497,275.476 61.657,274.259C61.723,273.752 62.686,273.591 62.783,274.153C63.587,278.777 64.882,280.34 67.052,276.448C67.308,275.877 67.986,275.897 68.141,276.372C69.468,280.445 72.975,277.837 72.966,274.057C72.963,273.062 73.997,272.554 74.763,273.412C79.689,278.921 80.697,284.462 77.325,290.039C76.768,290.96 75.756,291.142 75.413,290.38C73.997,287.23 72.013,287.159 69.547,289.699C68.789,290.48 68.02,290.566 67.612,289.598C66.218,286.294 64.235,286.336 61.753,289.217C61.445,289.556 61.212,289.745 60.753,289.764C60.277,289.784 60.043,289.611 59.709,289.296C57.015,286.612 55.035,286.72 53.896,290.121C53.563,291.116 52.79,291.089 51.974,290.368C49.323,288.022 47.35,288.244 46.177,291.493C45.893,292.279 44.87,292.173 44.245,291.297C40.459,285.993 41.043,280.392 45.536,274.524C46.236,273.611 47.305,274.038 47.378,275.03C47.656,278.8 51.35,281.135 52.365,276.973C52.483,276.488 53.157,276.415 53.456,276.965C55.915,280.681 57.087,279.025 57.538,274.353C57.593,273.785 58.564,273.873 58.669,274.373C58.921,275.575 59.439,276.113 60.226,275.982Z" style="fill:#2f002e;"/>
        </g>
        <g transform="matrix(0.310899,-0.0530967,0.0530967,0.310899,-14.9345,-27.9981)">
            <path d="M60.226,275.982C61.021,276.054 61.497,275.476 61.657,274.259C61.723,273.752 62.686,273.591 62.783,274.153C63.587,278.777 64.882,280.34 67.052,276.448C67.308,275.877 67.986,275.897 68.141,276.372C69.468,280.445 72.975,277.837 72.966,274.057C72.963,273.062 73.997,272.554 74.763,273.412C79.689,278.921 80.697,284.462 77.325,290.039C76.768,290.96 75.756,291.142 75.413,290.38C73.997,287.23 72.013,287.159 69.547,289.699C68.789,290.48 68.02,290.566 67.612,289.598C66.218,286.294 64.235,286.336 61.753,289.217C61.445,289.556 61.212,289.745 60.753,289.764C60.277,289.784 60.043,289.611 59.709,289.296C57.015,286.612 55.035,286.72 53.896,290.121C53.563,291.116 52.79,291.089 51.974,290.368C49.323,288.022 47.35,288.244 46.177,291.493C45.893,292.279 44.87,292.173 44.245,291.297C40.459,285.993 41.043,280.392 45.536,274.524C46.236,273.611 47.305,274.038 47.378,275.03C47.656,278.8 51.35,281.135 52.365,276.973C52.483,276.488 53.157,276.415 53.456,276.965C55.915,280.681 57.087,279.025 57.538,274.353C57.593,273.785 58.564,273.873 58.669,274.373C58.921,275.575 59.439,276.113 60.226,275.982Z" style="fill:#2f002e;"/>
        </g>
        <g transform="matrix(0.174884,0.0766349,-0.0766349,0.174884,272.352,-20.4031)">
            <path d="M60.226,275.982C61.021,276.054 61.497,275.476 61.657,274.259C61.723,273.752 62.686,273.591 62.783,274.153C63.587,278.777 64.882,280.34 67.052,276.448C67.308,275.877 67.986,275.897 68.141,276.372C69.468,280.445 72.975,277.837 72.966,274.057C72.963,273.062 73.997,272.554 74.763,273.412C79.689,278.921 80.697,284.462 77.325,290.039C76.768,290.96 75.756,291.142 75.413,290.38C73.997,287.23 72.013,287.159 69.547,289.699C68.789,290.48 68.02,290.566 67.612,289.598C66.218,286.294 64.235,286.336 61.753,289.217C61.445,289.556 61.212,289.745 60.753,289.764C60.277,289.784 60.043,289.611 59.709,289.296C57.015,286.612 55.035,286.72 53.896,290.121C53.563,291.116 52.79,291.089 51.974,290.368C49.323,288.022 47.35,288.244 46.177,291.493C45.893,292.279 44.87,292.173 44.245,291.297C40.459,285.993 41.043,280.392 45.536,274.524C46.236,273.611 47.305,274.038 47.378,275.03C47.656,278.8 51.35,281.135 52.365,276.973C52.483,276.488 53.157,276.415 53.456,276.965C55.915,280.681 57.087,279.025 57.538,274.353C57.593,273.785 58.564,273.873 58.669,274.373C58.921,275.575 59.439,276.113 60.226,275.982Z" style="fill:#2f002e;"/>
        </g>
        <g transform="matrix(0.087639,0,0,0.086107,120.224,-36.5392)">
            <g transform="matrix(1.02198,0,0,1.02198,-50.3309,68.0455)">
                <circle cx="1279.44" cy="761.281" r="274.033" style="fill:#fee570;"/>
            </g>
            <g transform="matrix(0.0693623,-0.259685,0.497311,0.0969553,641.368,1219.04)">
                <path d="M1269.85,926.333C1294.17,926.333 1313.92,946.081 1313.92,970.404C1313.92,994.727 1294.17,1014.47 1269.85,1014.47C1245.52,1014.47 1204.47,997.699 1201.35,965.016C1199.04,940.815 1245.52,926.333 1269.85,926.333Z" style="fill:#ffc544;"/>
            </g>
            <g transform="matrix(0.0693623,-0.259685,0.497311,0.0969553,641.368,1219.04)">
                <path d="M1023.56,831.168C1047.88,831.168 1056.31,846.454 1060.49,857.653C1064.41,868.142 1059.96,883.52 1041.97,884.811C1027.07,885.88 1002.96,875.535 998.13,858.071C994.905,846.401 999.235,831.168 1023.56,831.168Z" style="fill:#ffc544;"/>
            </g>
            <g transform="matrix(0.0693623,-0.259685,0.285221,0.145132,882.816,1164.2)">
                <path d="M1810.66,1084.7C1834.99,1084.7 1843.42,1099.99 1847.6,1111.19C1851.52,1121.68 1847.07,1137.05 1829.08,1138.35C1814.17,1139.41 1790.06,1129.07 1785.24,1111.61C1782.01,1099.94 1786.34,1084.7 1810.66,1084.7Z" style="fill:#ffc544;"/>
            </g>
            <g transform="matrix(0.024368,-0.193513,0.231864,0.0452041,1110.31,1186.89)">
                <path d="M1600.58,1442.6C1624.9,1442.6 1633.33,1457.88 1637.51,1469.08C1641.43,1479.57 1636.98,1494.95 1618.99,1496.24C1604.09,1497.31 1579.98,1486.96 1575.15,1469.5C1571.92,1457.83 1576.25,1442.6 1600.58,1442.6Z" style="fill:#ffc544;"/>
            </g>
            <g transform="matrix(-0.06814,0.273645,-0.342762,-0.150964,1788.42,662.083)">
                <path d="M1600.58,1442.6C1624.9,1442.6 1633.33,1457.88 1637.51,1469.08C1641.43,1479.57 1636.98,1494.95 1618.99,1496.24C1604.09,1497.31 1579.98,1486.96 1575.15,1469.5C1571.92,1457.83 1576.25,1442.6 1600.58,1442.6Z" style="fill:#ffc544;"/>
            </g>
            <g transform="matrix(-0.0650886,0.265593,-0.274171,-0.143571,1510.54,642.787)">
                <path d="M1600.58,1442.6C1624.9,1442.6 1633.33,1457.88 1637.51,1469.08C1641.43,1479.57 1636.98,1494.95 1618.99,1496.24C1604.09,1497.31 1579.98,1486.96 1575.15,1469.5C1571.92,1457.83 1576.25,1442.6 1600.58,1442.6Z" style="fill:#ffc544;"/>
            </g>
            <g transform="matrix(-0.0348778,-0.42261,-0.540728,0.0967251,2129.23,1148.64)">
                <path d="M1600.58,1442.6C1624.9,1442.6 1633.33,1457.88 1637.51,1469.08C1641.43,1479.57 1636.98,1494.95 1618.99,1496.24C1604.09,1497.31 1579.98,1486.96 1575.15,1469.5C1571.92,1457.83 1576.25,1442.6 1600.58,1442.6Z" style="fill:#ffc544;"/>
            </g>
            <g transform="matrix(0.0107293,-0.172766,-0.237779,0.0305318,1618.53,896.847)">
                <path d="M1600.58,1442.6C1624.9,1442.6 1638.26,1456.82 1641.23,1469.11C1645.02,1484.82 1636.98,1494.95 1618.99,1496.24C1604.09,1497.31 1579.98,1486.96 1575.15,1469.5C1571.92,1457.83 1576.25,1442.6 1600.58,1442.6Z" style="fill:#ffc544;"/>
            </g>
            <g transform="matrix(0.897076,0.449737,-0.434151,0.897076,552.567,-407.967)">
                <ellipse cx="1353.71" cy="912.94" rx="9.162" ry="6.284" style="fill:#ffc544;"/>
            </g>
            <g transform="matrix(1.10332,0.0493618,0,1.43195,-144.979,-384.984)">
                <ellipse cx="1342.48" cy="969.354" rx="15.181" ry="11.857" style="fill:#ffc544;"/>
            </g>
            <g transform="matrix(0.824355,0,0,0.892789,136.978,37.753)">
                <ellipse cx="1490.97" cy="815.767" rx="16.6" ry="14.372" style="fill:#ffc544;"/>
            </g>
            <g transform="matrix(0.472887,0,0,0.451861,734.608,459.86)">
                <ellipse cx="1470.56" cy="697.724" rx="30.541" ry="25.825" style="fill:#ffc544;"/>
            </g>
            <g transform="matrix(0.767789,-0.0828739,0.0996399,0.956258,363.341,268.333)">
                <ellipse cx="1293.05" cy="573.734" rx="51.493" ry="39.86" style="fill:#ffc544;"/>
            </g>
            <g transform="matrix(0.651176,0,0,0.629139,319.131,389.558)">
                <ellipse cx="1216.52" cy="579.797" rx="10.891" ry="10.218" style="fill:#ffc544;"/>
            </g>
            <g transform="matrix(1.01804,0.157567,0,1.13146,-158.353,-213.774)">
                <ellipse cx="1279.09" cy="659.14" rx="13.957" ry="12.76" style="fill:#ffc544;"/>
            </g>
            <g transform="matrix(0.989282,-0.0458165,0,1.05993,52.63,-23.0727)">
                <ellipse cx="1047.78" cy="732.366" rx="32.696" ry="29.822" style="fill:#ffc544;"/>
            </g>
            <g transform="matrix(3.18978,0,0.232902,3.54936,-2644.95,-1925.05)">
                <ellipse cx="1115.63" cy="818.087" rx="13.912" ry="12.935" style="fill:#ffc544;"/>
            </g>
        </g>
    </g>
    <defs>
        <linearGradient id="_Linear1" x1="0" y1="0" x2="1" y2="0" gradientUnits="userSpaceOnUse" gradientTransform="matrix(-3.87432e-14,-77.1697,12.15,-9.53782e-15,163.266,80)"><stop offset="0" style="stop-color:#58076e;stop-opacity:1"/><stop offset="0.56" style="stop-color:#91128a;stop-opacity:1"/><stop offset="1" style="stop-color:#a91696;stop-opacity:1"/></linearGradient>
    </defs>
</svg>
