<?xml version="1.0" encoding="UTF-8" standalone="no"?>
<!DOCTYPE svg PUBLIC "-//W3C//DTD SVG 1.1//EN" "http://www.w3.org/Graphics/SVG/1.1/DTD/svg11.dtd">
<svg width="100%" height="100%" viewBox="0 0 280 62" version="1.1" xmlns="http://www.w3.org/2000/svg" xmlns:xlink="http://www.w3.org/1999/xlink" xml:space="preserve" xmlns:serif="http://www.serif.com/" style="fill-rule:evenodd;clip-rule:evenodd;stroke-linejoin:round;stroke-miterlimit:2;">
    <g id="banner_61_4" transform="matrix(1.00091,0,0,1,-6.23804,-8.75071)">
        <g transform="matrix(0.999086,0,0,1,6.23234,8.75071)">
            <path d="M3.528,-0L14.228,0L60.255,33.674L140,43.151L216.283,31.284L264.786,0L276.472,-0C277.696,-0 279.95,0.718 280,2.679C280.269,13.269 260.619,61.01 140,61.01C19.381,61.01 0,11.112 0,2.679C0,0.883 0.964,-0 3.528,-0Z" style="fill:#007600;"/>
        </g>
        <g transform="matrix(0.999086,0,0,1,6.23234,8.75071)">
            <path d="M128.63,60.857C128.473,60.005 129.157,59.012 129.144,58.095C129.132,57.328 128.601,56.742 128.789,55.93C128.95,55.236 129.546,54.666 129.572,53.934C129.614,52.757 127.916,51.316 129.728,50.56C130.849,50.092 132.239,50.329 133.403,50.451C135.032,50.623 136.689,50.733 138.327,50.757C140.469,50.787 142.578,50.403 144.708,50.259C147.914,50.042 151.17,50.064 154.37,50.339C155.849,50.467 157.635,50.284 159.055,50.855C159.409,50.997 159.293,51.628 159.172,51.872C158.76,52.701 157.862,53.19 158.146,54.235C158.369,55.056 159.082,55.656 159.125,56.538C159.162,57.272 158.465,57.835 158.613,58.574C158.755,59.281 159.156,59.922 159.327,60.576C153.193,60.86 146.755,61.01 140,61.01C136.104,61.01 132.314,60.958 128.63,60.857ZM68.602,53.425C68.009,51.986 69.277,51.177 69.781,49.993C70.076,49.299 69.509,48.607 69.693,47.895C69.915,47.04 70.736,46.598 71.12,45.84C71.611,44.874 70.832,44.213 70.597,43.317C70.527,43.054 70.542,42.413 70.917,42.346C72.424,42.075 74.135,42.617 75.61,42.793C78.799,43.174 81.992,43.815 85.086,44.679C87.143,45.253 89.129,46.058 91.233,46.463C92.842,46.773 94.486,47.002 96.116,47.165C97.281,47.282 98.69,47.333 99.692,48.019C101.313,49.128 99.357,50.193 99.159,51.354C99.036,52.076 99.503,52.755 99.52,53.468C99.539,54.301 98.9,54.766 98.733,55.515C98.496,56.578 99.2,57.945 98.397,58.738C87.294,57.431 77.405,55.613 68.602,53.425ZM188.258,58.003C188.129,57.242 188.463,56.296 188.289,55.515C188.122,54.766 187.482,54.301 187.502,53.468C187.518,52.755 187.986,52.076 187.863,51.354C187.665,50.193 185.709,49.128 187.329,48.019C188.332,47.333 189.741,47.282 190.905,47.165C192.535,47.002 194.18,46.773 195.788,46.463C197.892,46.058 199.879,45.253 201.935,44.679C205.03,43.815 208.223,43.174 211.412,42.793C212.886,42.617 214.598,42.075 216.104,42.346C216.479,42.413 216.494,43.054 216.425,43.317C216.19,44.213 215.411,44.874 215.901,45.84C216.286,46.598 217.106,47.04 217.328,47.895C217.513,48.607 216.945,49.299 217.24,49.993C217.539,50.695 218.107,51.266 218.396,51.914C209.602,54.37 199.607,56.453 188.258,58.003ZM9.479,21.534C10.011,21.117 10.717,20.849 11.258,20.371C11.822,19.872 11.608,19.003 12.081,18.44C12.649,17.763 13.579,17.717 14.253,17.198C15.111,16.536 14.692,15.604 14.865,14.695C14.916,14.427 15.205,13.855 15.572,13.956C17.049,14.359 18.361,15.585 19.616,16.378C22.332,18.093 24.938,20.045 27.361,22.156C28.97,23.559 30.417,25.14 32.142,26.411C33.461,27.382 34.847,28.296 36.249,29.145C37.25,29.751 38.5,30.403 39.11,31.454C40.096,33.152 37.872,33.272 37.194,34.235C36.772,34.834 36.902,35.648 36.611,36.299C36.27,37.059 35.492,37.204 35.02,37.808C34.43,38.562 34.395,39.841 33.671,40.392C22.345,34.283 14.631,27.605 9.479,21.534ZM248.066,40.194C247.537,39.577 247.453,38.482 246.926,37.808C246.453,37.204 245.675,37.059 245.335,36.299C245.043,35.648 245.173,34.834 244.751,34.235C244.073,33.272 241.849,33.152 242.835,31.454C243.445,30.403 244.695,29.751 245.697,29.145C247.098,28.296 248.484,27.382 249.803,26.411C251.528,25.14 252.975,23.559 254.585,22.156C257.007,20.045 259.614,18.093 262.329,16.378C263.584,15.585 264.897,14.359 266.373,13.956C266.741,13.855 267.029,14.427 267.08,14.695C267.253,15.604 266.834,16.536 267.693,17.198C268.366,17.717 269.297,17.763 269.865,18.44C270.338,19.003 270.123,19.872 270.688,20.371C271.019,20.663 271.412,20.877 271.789,21.095C266.895,27.253 259.365,34.015 248.066,40.194Z" style="fill:#73ac18;"/>
        </g>
        <g transform="matrix(0.999086,0,0,1,6.23234,8.75071)">
            <path d="M0.628,0.823C4.736,14.941 31.129,55.592 140,55.592C249.076,55.592 275.583,16.552 279.458,1.248C279.777,1.625 279.985,2.097 280,2.679C280.269,13.269 260.619,61.01 140,61.01C19.381,61.01 -0,11.112 -0,2.679C-0,1.881 0.191,1.263 0.628,0.823Z" style="fill:#006500;"/>
        </g>
        <g transform="matrix(0.999086,0,0,1,6.23234,8.75071)">
            <path d="M158.601,55.191C158.85,55.61 159.1,56.027 159.125,56.538C159.162,57.272 158.465,57.835 158.613,58.574C158.755,59.281 159.156,59.922 159.327,60.576C153.193,60.86 146.755,61.01 140,61.01C136.104,61.01 132.314,60.958 128.63,60.857C128.473,60.005 129.157,59.012 129.144,58.095C129.132,57.328 128.601,56.742 128.789,55.93C128.828,55.764 128.891,55.604 128.966,55.448C132.544,55.543 136.222,55.592 140,55.592C146.49,55.592 152.688,55.454 158.601,55.191ZM69.657,48.267C78.492,50.412 88.405,52.186 99.519,53.45L99.52,53.468C99.539,54.301 98.9,54.766 98.733,55.515C98.496,56.578 99.2,57.945 98.397,58.738C87.294,57.431 77.405,55.613 68.602,53.425C68.009,51.986 69.277,51.177 69.781,49.993C70.025,49.421 69.681,48.849 69.657,48.267ZM216.773,46.942C217.015,47.221 217.23,47.518 217.328,47.895C217.513,48.607 216.945,49.299 217.24,49.993C217.539,50.695 218.107,51.266 218.396,51.914C209.602,54.37 199.607,56.453 188.258,58.003C188.129,57.242 188.463,56.296 188.289,55.515C188.122,54.766 187.482,54.301 187.502,53.468C187.508,53.197 187.579,52.932 187.659,52.667C198.561,51.201 208.221,49.246 216.773,46.942ZM11.877,18.784C17.422,24.617 25.351,30.833 36.525,36.462C36.153,37.084 35.456,37.25 35.02,37.808C34.43,38.562 34.395,39.841 33.671,40.392C22.345,34.283 14.631,27.605 9.479,21.534C10.011,21.117 10.717,20.849 11.258,20.371C11.716,19.965 11.661,19.316 11.877,18.784ZM269.643,18.22C269.722,18.285 269.796,18.358 269.865,18.44C270.338,19.003 270.123,19.872 270.688,20.371C271.019,20.663 271.412,20.877 271.789,21.095C266.895,27.253 259.365,34.015 248.066,40.194C247.537,39.577 247.453,38.482 246.926,37.808C246.453,37.204 245.675,37.059 245.335,36.299C245.325,36.277 245.316,36.256 245.308,36.235C256.535,30.501 264.33,24.164 269.643,18.22Z" style="fill:#67901c;"/>
        </g>
        <g transform="matrix(0.999086,0,0,1,6.23234,8.75071)">
            <path d="M247.835,0L276.472,0C276.472,17.276 226.415,54.245 140.001,52.101L139.999,52.101C53.585,54.245 3.528,17.276 3.528,0L28.157,0C28.606,2.15 30.515,3.767 32.798,3.767C33.574,3.767 34.306,3.58 34.953,3.249C36.356,5.764 39.042,7.465 42.123,7.465C44.942,7.465 47.431,6.041 48.908,3.872C50.048,5.3 51.803,6.216 53.77,6.216C57.201,6.216 59.986,3.431 59.986,0L183.688,0C185.15,4.302 189.225,7.4 194.018,7.4C194.599,7.4 195.169,7.355 195.726,7.267C196.271,12.78 200.926,17.092 206.581,17.092C209.218,17.092 211.638,16.154 213.525,14.593C215.527,16.966 218.521,18.473 221.864,18.473C227.148,18.473 231.559,14.708 232.559,9.716C233.898,10.303 235.376,10.629 236.931,10.629C242.857,10.629 247.686,5.892 247.835,0Z" style="fill:url(#_Linear1);"/>
        </g>
        <g transform="matrix(0.999086,0,0,1,6.23234,8.75071)">
            <path d="M273.571,2.506L273.573,2.5L250.049,2.5C248.768,8.569 243.378,13.129 236.931,13.129C235.991,13.129 235.074,13.032 234.189,12.847C232.137,17.624 227.389,20.973 221.864,20.973C218.579,20.973 215.568,19.789 213.235,17.825C211.274,18.949 209.002,19.592 206.581,19.592C200.468,19.592 195.307,15.493 193.696,9.896C188.592,9.776 184.19,6.797 182.031,2.5C182.031,2.5 62.122,2.5 62.122,2.5C61.046,6.094 57.712,8.716 53.77,8.716C52.057,8.716 50.459,8.222 49.112,7.367C47.236,8.986 44.793,9.965 42.123,9.965C38.85,9.965 35.917,8.493 33.954,6.175C33.577,6.236 33.191,6.267 32.798,6.267C30.06,6.267 27.675,4.744 26.444,2.5C26.444,2.5 6.427,2.5 6.427,2.5L6.437,2.533L3.851,2.533C3.636,1.65 3.528,0.804 3.528,0L28.157,0C28.606,2.15 30.515,3.767 32.798,3.767C33.574,3.767 34.306,3.58 34.953,3.249C36.356,5.764 39.042,7.465 42.123,7.465C44.942,7.465 47.431,6.041 48.908,3.872C50.048,5.3 51.803,6.216 53.77,6.216C57.201,6.216 59.986,3.431 59.986,0L183.688,0C185.15,4.302 189.225,7.4 194.018,7.4C194.599,7.4 195.169,7.355 195.726,7.267C196.271,12.78 200.926,17.092 206.581,17.092C209.218,17.092 211.638,16.154 213.525,14.593C215.527,16.966 218.521,18.473 221.864,18.473C227.148,18.473 231.559,14.708 232.559,9.716C233.898,10.303 235.376,10.629 236.931,10.629C242.857,10.629 247.686,5.892 247.835,0L276.472,0C276.472,0.796 276.366,1.633 276.155,2.506L273.571,2.506Z" style="fill:#bc2006;"/>
        </g>
        <g transform="matrix(0.999086,0,0,1,6.23234,8.75071)">
            <path d="M140.063,49.601C199.725,51.082 241.849,33.782 261.734,17.351C266.629,13.306 270.142,9.345 272.151,5.749C272.785,4.615 273.265,3.529 273.573,2.5L274.216,0L276.472,0C276.472,17.276 226.415,54.245 140.001,52.101C53.587,54.245 3.529,17.276 3.529,0L5.786,0L6.428,2.5C6.736,3.529 7.217,4.615 7.851,5.749C9.859,9.345 13.372,13.306 18.267,17.351C38.152,33.782 80.276,51.082 139.939,49.601L140.063,49.601Z" style="fill:#c0ffb6;"/>
        </g>
        <g transform="matrix(0.988235,0,0,1,-1.33749e-15,0)">
            <g transform="matrix(0.954784,0.2973,-0.2973,0.954784,-35.6694,-33.9682)">
                <path d="M249.006,6.403C247.625,6.955 248.325,11.431 250.673,10.467C252.948,9.532 250.23,5.913 249.006,6.403Z" style="fill:#2a2a2a;"/>
            </g>
            <g transform="matrix(0.954784,0.2973,-0.2973,0.954784,-56.8611,-66.3512)">
                <path d="M249.006,6.403C247.625,6.955 248.325,11.431 250.673,10.467C252.948,9.532 250.23,5.913 249.006,6.403Z" style="fill:#2a2a2a;"/>
            </g>
            <g transform="matrix(0.688856,0.724898,-0.724898,0.688856,-91.7144,-145.442)">
                <path d="M249.006,6.403C247.625,6.955 248.325,11.431 250.673,10.467C252.948,9.532 250.23,5.913 249.006,6.403Z" style="fill:#2a2a2a;"/>
            </g>
            <g transform="matrix(0.750435,0.660945,-0.660945,0.750435,-143.036,-151.839)">
                <path d="M249.006,6.403C247.625,6.955 248.325,11.431 250.673,10.467C252.948,9.532 250.23,5.913 249.006,6.403Z" style="fill:#2a2a2a;"/>
            </g>
            <g transform="matrix(0.953185,0.302387,-0.302387,0.953185,-104.129,-61.1161)">
                <path d="M249.006,6.403C247.625,6.955 248.325,11.431 250.673,10.467C252.948,9.532 250.23,5.913 249.006,6.403Z" style="fill:#2a2a2a;"/>
            </g>
            <g transform="matrix(0.798087,0.602542,-0.602542,0.798087,-107.237,-140.637)">
                <path d="M249.006,6.403C247.625,6.955 248.325,11.431 250.673,10.467C252.948,9.532 250.23,5.913 249.006,6.403Z" style="fill:#2a2a2a;"/>
            </g>
            <g transform="matrix(0.9974,-0.0720655,0.0720655,0.9974,-4.56298,37.3793)">
                <path d="M249.006,6.403C247.625,6.955 248.325,11.431 250.673,10.467C252.948,9.532 250.23,5.913 249.006,6.403Z" style="fill:#2a2a2a;"/>
            </g>
        </g>
    </g>
    <defs>
        <linearGradient id="_Linear1" x1="0" y1="0" x2="1" y2="0" gradientUnits="userSpaceOnUse" gradientTransform="matrix(3.2284e-15,52.7238,-10.5401,6.45398e-16,140,0)"><stop offset="0" style="stop-color:#fb523e;stop-opacity:1"/><stop offset="1" style="stop-color:#e4201e;stop-opacity:1"/></linearGradient>
    </defs>
</svg>
