<?xml version="1.0" encoding="UTF-8" standalone="no"?>
<!DOCTYPE svg PUBLIC "-//W3C//DTD SVG 1.1//EN" "http://www.w3.org/Graphics/SVG/1.1/DTD/svg11.dtd">
<svg width="100%" height="100%" viewBox="0 0 100 100" version="1.1" xmlns="http://www.w3.org/2000/svg" xmlns:xlink="http://www.w3.org/1999/xlink" xml:space="preserve" xmlns:serif="http://www.serif.com/" style="fill-rule:evenodd;clip-rule:evenodd;stroke-linejoin:round;stroke-miterlimit:2;">
    <g transform="matrix(0.05,0,0,0.05,0.00644655,0)">
        <g id="Rare">
            <g id="serpentine_blue">
                <g transform="matrix(1.05842,0,0.0922772,1.487,213.697,0)">
                    <path d="M946.206,36.911C946.206,16.539 922.969,0 894.348,0L133.77,0C105.149,0 81.912,16.539 81.912,36.911L81.912,886.547C81.912,906.919 105.149,923.458 133.77,923.458L894.348,923.458C922.969,923.458 946.206,906.919 946.206,886.547L946.206,36.911Z" style="fill:rgb(0,33,255);"/>
                </g>
                <g transform="matrix(0.950577,0,0,0.950577,42.8114,25.1015)">
                    <path d="M382.203,1318.29L1160.29,0L355.282,0C324.989,0 301.921,24.594 303.801,54.887L382.203,1318.29Z" style="fill:rgb(41,68,255);"/>
                </g>
                <g transform="matrix(1.14085,0,-0.251837,0.416781,531.242,977.507)">
                    <path d="M946.206,129.284C946.206,57.93 925.043,0 898.975,0L129.143,0C103.076,0 81.912,57.93 81.912,129.284L81.912,794.174C81.912,865.528 103.076,923.458 129.143,923.458L898.975,923.458C925.043,923.458 946.206,865.528 946.206,794.174L946.206,129.284Z" style="fill:rgb(0,24,182);"/>
                </g>
                <g transform="matrix(1.14115,0,0.0712497,1.14815,554.043,939.731)">
                    <path d="M946.206,51.542C946.206,23.095 922.969,0 894.348,0L133.77,0C105.149,0 81.912,23.095 81.912,51.542L81.912,871.917C81.912,900.363 105.149,923.458 133.77,923.458L894.348,923.458C922.969,923.458 946.206,900.363 946.206,871.917L946.206,51.542Z" style="fill:rgb(0,33,255);"/>
                </g>
                <path d="M792.784,1973.18L1614.01,1022.74L1613.99,1022.37C1611.88,991.533 1585.23,966.554 1554.34,966.554L730.316,966.554C699.308,966.554 675.695,991.729 677.62,1022.74L733.114,1916.99C735.038,1948 761.775,1973.18 792.784,1973.18Z" style="fill:rgb(41,68,255);"/>
                <path d="M714.558,1049.45C715.11,1018.32 724.418,1000 744.399,1000L1543.88,1000C1566.23,1000 1573.94,1013.9 1573.73,1036.92C1572.19,1021.01 1560.89,1014.69 1537.81,1014.81L753.38,1014.81C728.244,1015.3 718.47,1028.88 714.558,1049.45Z" style="fill:rgb(107,126,255);"/>
                <g transform="matrix(1,0,0,1,-358.461,-954.886)">
                    <path d="M714.558,1049.45C715.11,1018.32 724.418,1000 744.399,1000L1470.51,1000L1459.99,1014.81L753.38,1014.81C728.244,1015.3 718.47,1028.88 714.558,1049.45Z" style="fill:rgb(107,126,255);"/>
                </g>
            </g>
        </g>
    </g>
</svg>
