<?xml version="1.0" encoding="UTF-8" standalone="no"?>
<!DOCTYPE svg PUBLIC "-//W3C//DTD SVG 1.1//EN" "http://www.w3.org/Graphics/SVG/1.1/DTD/svg11.dtd">
<svg width="100%" height="100%" viewBox="0 0 100 100" version="1.1" xmlns="http://www.w3.org/2000/svg" xmlns:xlink="http://www.w3.org/1999/xlink" xml:space="preserve" xmlns:serif="http://www.serif.com/" style="fill-rule:evenodd;clip-rule:evenodd;stroke-linejoin:round;stroke-miterlimit:2;">
    <g transform="matrix(0.05,0,0,0.05,0,0)">
        <g id="Chroma">
            <g id="Light_turquoise">
                <path d="M2000,243.549C2000,109.131 1890.87,0 1756.45,0L243.549,0C109.131,0 0,109.131 0,243.549L0,1756.45C0,1890.87 109.131,2000 243.549,2000L1756.45,2000C1890.87,2000 2000,1890.87 2000,1756.45L2000,243.549Z" style="fill:rgb(59,220,255);"/>
                <g transform="matrix(1,0,0,0.897584,0,0)">
                    <path d="M2000,243.549C2000,109.131 1902.05,0 1781.39,0L218.605,0C97.954,0 0,109.131 0,243.549L0,1756.45C0,1890.87 97.954,2000 218.605,2000L1781.39,2000C1902.05,2000 2000,1890.87 2000,1756.45L2000,243.549Z" style="fill:rgb(127,232,255);"/>
                </g>
                <path d="M0,1485.34L2000,897.584L2000,1130.58L42.383,1705.88C15.743,1669.65 0,1624.93 0,1576.56L0,1485.34ZM1963.74,98.056L0,675.154L0,1354.25L2000,766.499L2000,218.605C2000,174.073 1986.65,132.633 1963.74,98.056Z" style="fill:rgb(244,253,255);fill-opacity:0.25;"/>
                <path d="M1717.46,22.998C1880.5,24.996 1976.34,109.536 1976.32,267.805L1976.32,1534.43C1979.71,1636.36 1911.97,1768.21 1793.16,1765.39C1889.66,1758.84 1953.11,1617.85 1945.97,1520.26L1945.97,277.148C1945.11,133.837 1878.48,51.403 1717.46,22.998Z" style="fill:white;fill-opacity:0.5;"/>
                <g transform="matrix(-1,0,0,1,2005.93,0)">
                    <path d="M1717.46,22.998C1880.5,24.996 1976.34,109.536 1976.32,267.805L1976.32,1534.43C1979.71,1636.36 1911.97,1768.21 1793.16,1765.39C1889.66,1758.84 1953.11,1617.85 1945.97,1520.26L1945.97,277.148C1945.11,133.837 1878.48,51.403 1717.46,22.998Z" style="fill:white;fill-opacity:0.5;"/>
                </g>
            </g>
        </g>
    </g>
</svg>
