<?xml version="1.0" encoding="UTF-8" standalone="no"?>
<!DOCTYPE svg PUBLIC "-//W3C//DTD SVG 1.1//EN" "http://www.w3.org/Graphics/SVG/1.1/DTD/svg11.dtd">
<svg width="100%" height="100%" viewBox="0 0 100 100" version="1.1" xmlns="http://www.w3.org/2000/svg" xmlns:xlink="http://www.w3.org/1999/xlink" xml:space="preserve" xmlns:serif="http://www.serif.com/" style="fill-rule:evenodd;clip-rule:evenodd;stroke-linejoin:round;stroke-miterlimit:2;">
    <g transform="matrix(0.0524612,0,0,0.0524831,-2.46123,-2.48314)">
        <g id="Legendary">
            <g id="triangle_light_orange">
                <g transform="matrix(1,0,0,1,6.40663,-47.313)">
                    <path d="M146.352,2000C6.692,2000 41.03,1919.28 53.322,1893.36L929.07,141.861C944.684,112.11 968.846,96.705 993.593,94.626L993.593,94.626C1018.34,96.705 1042.5,112.11 1058.12,141.861L1933.87,1893.36C1946.16,1919.28 1980.49,2000 1840.83,2000L146.352,2000Z" style="fill:rgb(178,107,0);"/>
                </g>
                <path d="M759.367,1893.71L237.499,1893.71C111.808,1893.71 142.711,1818.37 153.773,1794.17L941.93,159.455C955.983,131.688 977.727,117.31 1000,115.369L1000,115.369L759.367,1893.71Z" style="fill:rgb(197,118,0);"/>
                <path d="M187.415,1800.99L947.097,182.481C721.804,741.188 478.842,1287.75 187.415,1800.99" style="fill:rgb(216,130,0);"/>
            </g>
        </g>
    </g>
</svg>
