<?xml version="1.0" encoding="UTF-8" standalone="no"?>
<!-- Created with Inkscape (http://www.inkscape.org/) -->

<svg
   width="119.32708mm"
   height="121.70834mm"
   viewBox="0 0 119.32708 121.70834"
   version="1.1"
   id="svg1797"
   xml:space="preserve"
   inkscape:version="1.2 (dc2aedaf03, 2022-05-15)"
   sodipodi:docname="Highlighted Background_Breakfast.svg"
   xmlns:inkscape="http://www.inkscape.org/namespaces/inkscape"
   xmlns:sodipodi="http://sodipodi.sourceforge.net/DTD/sodipodi-0.dtd"
   xmlns:xlink="http://www.w3.org/1999/xlink"
   xmlns="http://www.w3.org/2000/svg"
   xmlns:svg="http://www.w3.org/2000/svg"><sodipodi:namedview
     id="namedview1799"
     pagecolor="#505050"
     bordercolor="#ffffff"
     borderopacity="1"
     inkscape:showpageshadow="0"
     inkscape:pageopacity="0"
     inkscape:pagecheckerboard="1"
     inkscape:deskcolor="#505050"
     inkscape:document-units="mm"
     showgrid="false"
     inkscape:zoom="0.43852551"
     inkscape:cx="-102.61661"
     inkscape:cy="259.96207"
     inkscape:window-width="1366"
     inkscape:window-height="705"
     inkscape:window-x="-8"
     inkscape:window-y="-8"
     inkscape:window-maximized="1"
     inkscape:current-layer="layer1"
     inkscape:lockguides="false" /><defs
     id="defs1794"><linearGradient
       inkscape:collect="always"
       id="linearGradient21586"><stop
         style="stop-color:#cfcfcf;stop-opacity:1;"
         offset="0"
         id="stop21582" /><stop
         style="stop-color:#e1efef;stop-opacity:1;"
         offset="0.5246377"
         id="stop21584" /></linearGradient><inkscape:path-effect
       effect="tiling"
       id="path-effect19421"
       is_visible="true"
       lpeversion="1"
       unit="px"
       seed="1;1"
       lpesatellites=""
       num_rows="4"
       num_cols="7"
       gapx="54"
       gapy="54"
       offset="0"
       offset_type="false"
       scale="0"
       rotate="0"
       mirrorrowsx="false"
       mirrorrowsy="false"
       mirrorcolsx="false"
       mirrorcolsy="false"
       mirrortrans="false"
       shrink_interp="false"
       split_items="false"
       link_styles="false"
       interpolate_scalex="false"
       interpolate_scaley="true"
       interpolate_rotatex="false"
       interpolate_rotatey="true"
       random_scale="false"
       random_rotate="false"
       random_gap_y="false"
       random_gap_x="false"
       transformorigin="translate(-4.403882,-6.940242)" /><inkscape:path-effect
       effect="tiling"
       id="path-effect19225"
       is_visible="true"
       lpeversion="1"
       unit="px"
       seed="1;1"
       lpesatellites=""
       num_rows="4"
       num_cols="7"
       gapx="54"
       gapy="54"
       offset="0"
       offset_type="false"
       scale="0"
       rotate="0"
       mirrorrowsx="false"
       mirrorrowsy="false"
       mirrorcolsx="false"
       mirrorcolsy="false"
       mirrortrans="false"
       shrink_interp="false"
       split_items="false"
       link_styles="false"
       interpolate_scalex="false"
       interpolate_scaley="true"
       interpolate_rotatex="false"
       interpolate_rotatey="true"
       random_scale="false"
       random_rotate="false"
       random_gap_y="false"
       random_gap_x="false"
       transformorigin="" /><inkscape:path-effect
       effect="tiling"
       id="path-effect19201"
       is_visible="true"
       lpeversion="1"
       unit="px"
       seed="1;1"
       lpesatellites=""
       num_rows="3"
       num_cols="3"
       gapx="54"
       gapy="54"
       offset="0"
       offset_type="false"
       scale="0"
       rotate="0"
       mirrorrowsx="false"
       mirrorrowsy="false"
       mirrorcolsx="false"
       mirrorcolsy="false"
       mirrortrans="false"
       shrink_interp="false"
       split_items="false"
       link_styles="false"
       interpolate_scalex="false"
       interpolate_scaley="true"
       interpolate_rotatex="false"
       interpolate_rotatey="true"
       random_scale="false"
       random_rotate="false"
       random_gap_y="false"
       random_gap_x="false"
       transformorigin="" /><inkscape:path-effect
       effect="tiling"
       id="path-effect19199"
       is_visible="true"
       lpeversion="1"
       unit="px"
       seed="1;1"
       lpesatellites=""
       num_rows="4"
       num_cols="7"
       gapx="54"
       gapy="54"
       offset="0"
       offset_type="false"
       scale="0"
       rotate="0"
       mirrorrowsx="false"
       mirrorrowsy="false"
       mirrorcolsx="false"
       mirrorcolsy="false"
       mirrortrans="false"
       shrink_interp="false"
       split_items="false"
       link_styles="false"
       interpolate_scalex="false"
       interpolate_scaley="true"
       interpolate_rotatex="false"
       interpolate_rotatey="true"
       random_scale="false"
       random_rotate="false"
       random_gap_y="false"
       random_gap_x="false"
       transformorigin="" /><inkscape:path-effect
       effect="fillet_chamfer"
       id="path-effect13897"
       is_visible="true"
       lpeversion="1"
       nodesatellites_param="F,0,0,1,0,0.52036274,0,1 @ F,0,0,1,0,0,0,1 @ F,0,0,1,0,0,0,1 @ F,0,0,1,0,0,0,1 @ F,0,0,1,0,0,0,1 @ F,0,0,1,0,0.63153605,0,1"
       unit="px"
       method="auto"
       mode="F"
       radius="0"
       chamfer_steps="1"
       flexible="false"
       use_knot_distance="true"
       apply_no_radius="true"
       apply_with_radius="true"
       only_selected="false"
       hide_knots="false" /><inkscape:path-effect
       effect="fillet_chamfer"
       id="path-effect13684"
       is_visible="true"
       lpeversion="1"
       nodesatellites_param="F,0,0,1,0,0.52036274,0,1 @ F,0,0,1,0,0,0,1 @ F,0,0,1,0,0,0,1 @ F,0,0,1,0,0,0,1 @ F,0,0,1,0,0,0,1 @ F,0,0,1,0,0.63153605,0,1"
       unit="px"
       method="auto"
       mode="F"
       radius="0"
       chamfer_steps="1"
       flexible="false"
       use_knot_distance="true"
       apply_no_radius="true"
       apply_with_radius="true"
       only_selected="false"
       hide_knots="false" /><inkscape:path-effect
       effect="fillet_chamfer"
       id="path-effect13678"
       is_visible="true"
       lpeversion="1"
       nodesatellites_param="F,0,0,1,0,0.52036274,0,1 @ F,0,0,1,0,0,0,1 @ F,0,0,1,0,0,0,1 @ F,0,0,1,0,0,0,1 @ F,0,0,1,0,0,0,1 @ F,0,0,1,0,0.63153605,0,1"
       unit="px"
       method="auto"
       mode="F"
       radius="0"
       chamfer_steps="1"
       flexible="false"
       use_knot_distance="true"
       apply_no_radius="true"
       apply_with_radius="true"
       only_selected="false"
       hide_knots="false" /><inkscape:path-effect
       effect="fillet_chamfer"
       id="path-effect13651"
       is_visible="true"
       lpeversion="1"
       nodesatellites_param="F,0,0,1,0,0.52036274,0,1 @ F,0,0,1,0,0,0,1 @ F,0,0,1,0,0,0,1 @ F,0,0,1,0,0,0,1 @ F,0,0,1,0,0,0,1 @ F,0,0,1,0,0.63153605,0,1"
       unit="px"
       method="auto"
       mode="F"
       radius="0"
       chamfer_steps="1"
       flexible="false"
       use_knot_distance="true"
       apply_no_radius="true"
       apply_with_radius="true"
       only_selected="false"
       hide_knots="false" /><linearGradient
       inkscape:collect="always"
       id="linearGradient13501"><stop
         style="stop-color:#eeeeee;stop-opacity:1;"
         offset="0"
         id="stop13497" /><stop
         style="stop-color:#d5d9d9;stop-opacity:1;"
         offset="1"
         id="stop13499" /></linearGradient><linearGradient
       inkscape:collect="always"
       id="linearGradient7177"><stop
         style="stop-color:#ececec;stop-opacity:1;"
         offset="0.13623188"
         id="stop7173" /><stop
         style="stop-color:#cfcfcf;stop-opacity:1;"
         offset="1"
         id="stop7175" /></linearGradient><linearGradient
       inkscape:collect="always"
       id="linearGradient7100"><stop
         style="stop-color:#cfcfcf;stop-opacity:1;"
         offset="0"
         id="stop7096" /><stop
         style="stop-color:#dbebeb;stop-opacity:1;"
         offset="0.5246377"
         id="stop7098" /></linearGradient><inkscape:path-effect
       effect="fillet_chamfer"
       id="path-effect7071"
       is_visible="true"
       lpeversion="1"
       nodesatellites_param="F,0,0,1,0,0.52036274,0,1 @ F,0,0,1,0,0,0,1 @ F,0,0,1,0,0,0,1 @ F,0,0,1,0,0,0,1 @ F,0,0,1,0,0,0,1 @ F,0,0,1,0,0.63153605,0,1"
       unit="px"
       method="auto"
       mode="F"
       radius="0"
       chamfer_steps="1"
       flexible="false"
       use_knot_distance="true"
       apply_no_radius="true"
       apply_with_radius="true"
       only_selected="false"
       hide_knots="false" /><inkscape:path-effect
       effect="fillet_chamfer"
       id="path-effect6580"
       is_visible="true"
       lpeversion="1"
       nodesatellites_param="F,0,0,1,0,0,0,1 @ F,0,0,1,0,0,0,1 @ F,0,0,1,0,0,0,1 @ F,0,0,1,0,0,0,1 @ F,0,0,1,0,0,0,1 @ F,0,0,1,0,0,0,1 @ F,0,0,1,0,0,0,1 @ F,0,0,1,0,0,0,1 @ F,0,0,1,0,0,0,1 @ F,0,0,1,0,0,0,1 @ F,0,0,1,0,0,0,1 @ F,0,0,1,0,0,0,1 @ F,0,0,1,0,0,0,1 @ F,0,0,1,0,0,0,1 @ F,0,0,1,0,0,0,1 @ F,0,0,1,0,0,0,1 @ F,0,0,1,0,0.82631906,0,1 @ F,0,0,1,0,0.82631906,0,1 @ F,0,0,1,0,0,0,1 @ F,0,0,1,0,0,0,1 @ F,0,0,1,0,0,0,1 @ F,0,0,1,0,0,0,1 @ F,0,0,1,0,0,0,1 @ F,0,0,1,0,0,0,1"
       unit="px"
       method="auto"
       mode="F"
       radius="0"
       chamfer_steps="1"
       flexible="false"
       use_knot_distance="true"
       apply_no_radius="true"
       apply_with_radius="true"
       only_selected="false"
       hide_knots="false" /><inkscape:path-effect
       effect="fillet_chamfer"
       id="path-effect4238"
       is_visible="true"
       lpeversion="1"
       nodesatellites_param="F,0,0,1,0,0.52036274,0,1 @ F,0,0,1,0,0,0,1 @ F,0,0,1,0,0,0,1 @ F,0,0,1,0,0,0,1 @ F,0,0,1,0,0,0,1 @ F,0,0,1,0,0.63153605,0,1"
       unit="px"
       method="auto"
       mode="F"
       radius="0"
       chamfer_steps="1"
       flexible="false"
       use_knot_distance="true"
       apply_no_radius="true"
       apply_with_radius="true"
       only_selected="false"
       hide_knots="false" /><inkscape:path-effect
       effect="fillet_chamfer"
       id="path-effect3449"
       is_visible="true"
       lpeversion="1"
       nodesatellites_param="F,0,0,1,0,0,0,1 @ F,0,0,1,0,0,0,1 @ F,0,0,1,0,0,0,1 @ F,0,0,1,0,0,0,1 @ F,0,0,1,0,0,0,1 @ F,0,0,1,0,0,0,1 @ F,0,0,1,0,0,0,1 @ F,0,0,1,0,0,0,1 @ F,0,0,1,0,0,0,1 @ F,0,0,1,0,0,0,1 @ F,0,0,1,0,0,0,1 @ F,0,0,1,0,0,0,1 @ F,0,0,1,0,0,0,1 @ F,0,0,1,0,0,0,1 @ F,0,0,1,0,0,0,1 @ F,0,0,1,0,0,0,1 @ F,0,0,1,0,0.82631906,0,1 @ F,0,0,1,0,0.82631906,0,1 @ F,0,0,1,0,0,0,1 @ F,0,0,1,0,0,0,1 @ F,0,0,1,0,0,0,1 @ F,0,0,1,0,0,0,1 @ F,0,0,1,0,0,0,1 @ F,0,0,1,0,0,0,1"
       unit="px"
       method="auto"
       mode="F"
       radius="0"
       chamfer_steps="1"
       flexible="false"
       use_knot_distance="true"
       apply_no_radius="true"
       apply_with_radius="true"
       only_selected="false"
       hide_knots="false" /><inkscape:path-effect
       effect="fillet_chamfer"
       id="path-effect3442"
       is_visible="true"
       lpeversion="1"
       nodesatellites_param="F,0,0,1,0,0.8560049,0,1 @ F,0,0,1,0,0,0,1 @ F,0,0,1,0,0,0,1 @ F,0,0,1,0,0,0,1 @ F,0,0,1,0,0,0,1 @ F,0,0,1,0,2.0140625,0,1 @ F,0,0,1,0,0,0,1 @ F,0,0,1,0,0,0,1 @ F,0,0,1,0,0,0,1 @ F,0,0,1,0,0,0,1 @ F,0,0,1,0,0,0,1 @ F,0,0,1,0,0,0,1 @ F,0,0,1,0,2.0232843,0,1 @ F,0,0,1,0,0,0,1 @ F,0,0,1,0,0,0,1 @ F,0,0,1,0,0,0,1 @ F,0,0,1,0,0,0,1 @ F,0,0,1,0,0.77818627,0,1"
       unit="px"
       method="auto"
       mode="F"
       radius="0"
       chamfer_steps="1"
       flexible="false"
       use_knot_distance="true"
       apply_no_radius="true"
       apply_with_radius="true"
       only_selected="false"
       hide_knots="false" /><linearGradient
       inkscape:collect="always"
       id="linearGradient28406"><stop
         style="stop-color:#b55a0f;stop-opacity:1;"
         offset="0"
         id="stop28402" /><stop
         style="stop-color:#d89f62;stop-opacity:1;"
         offset="1"
         id="stop28404" /></linearGradient><inkscape:path-effect
       effect="mirror_symmetry"
       start_point="103.97692,139.9594"
       end_point="103.97692,165.86641"
       center_point="103.97692,152.9129"
       id="path-effect8085"
       is_visible="true"
       lpeversion="1.2"
       lpesatellites=""
       mode="free"
       discard_orig_path="false"
       fuse_paths="true"
       oposite_fuse="false"
       split_items="false"
       split_open="false"
       link_styles="false" /><inkscape:path-effect
       effect="mirror_symmetry"
       start_point="69.608471,172.60554"
       end_point="69.608471,182.75412"
       center_point="69.608471,177.67983"
       id="path-effect8079"
       is_visible="true"
       lpeversion="1.2"
       lpesatellites=""
       mode="vertical"
       discard_orig_path="false"
       fuse_paths="false"
       oposite_fuse="false"
       split_items="false"
       split_open="false"
       link_styles="false" /><inkscape:path-effect
       effect="mirror_symmetry"
       start_point="103.97692,139.9594"
       end_point="103.97692,165.86641"
       center_point="103.97692,152.9129"
       id="path-effect6466"
       is_visible="true"
       lpeversion="1.2"
       lpesatellites=""
       mode="free"
       discard_orig_path="false"
       fuse_paths="true"
       oposite_fuse="false"
       split_items="false"
       split_open="false"
       link_styles="false" /><inkscape:path-effect
       effect="fillet_chamfer"
       id="path-effect6462"
       is_visible="true"
       lpeversion="1"
       nodesatellites_param="F,0,0,1,0,5.1482098,0,1 @ F,0,0,1,0,0,0,1 @ F,0,0,1,0,0,0,1"
       unit="px"
       method="auto"
       mode="F"
       radius="0"
       chamfer_steps="1"
       flexible="false"
       use_knot_distance="true"
       apply_no_radius="true"
       apply_with_radius="true"
       only_selected="false"
       hide_knots="false" /><inkscape:path-effect
       effect="fillet_chamfer"
       id="path-effect6455"
       is_visible="true"
       lpeversion="1"
       nodesatellites_param="F,0,0,1,0,0.80126399,0,1 @ F,0,0,1,0,0,0,1 @ F,0,0,1,0,0,0,1"
       unit="px"
       method="auto"
       mode="F"
       radius="0"
       chamfer_steps="1"
       flexible="false"
       use_knot_distance="true"
       apply_no_radius="true"
       apply_with_radius="true"
       only_selected="false"
       hide_knots="false" /><inkscape:path-effect
       effect="fillet_chamfer"
       id="path-effect6448"
       is_visible="true"
       lpeversion="1"
       nodesatellites_param="F,0,0,1,0,2.1915305,0,1 @ F,0,0,1,0,0,0,1 @ F,0,0,1,0,0,0,1"
       unit="px"
       method="auto"
       mode="F"
       radius="0"
       chamfer_steps="1"
       flexible="false"
       use_knot_distance="true"
       apply_no_radius="true"
       apply_with_radius="true"
       only_selected="false"
       hide_knots="false" /><inkscape:path-effect
       effect="fillet_chamfer"
       id="path-effect6437"
       is_visible="true"
       lpeversion="1"
       nodesatellites_param="F,0,0,1,0,1.4735887,0,1 @ F,0,0,1,0,0,0,1 @ F,0,1,1,0,0,0,1"
       unit="px"
       method="auto"
       mode="F"
       radius="0"
       chamfer_steps="1"
       flexible="false"
       use_knot_distance="true"
       apply_no_radius="true"
       apply_with_radius="true"
       only_selected="false"
       hide_knots="false" /><inkscape:path-effect
       effect="fillet_chamfer"
       id="path-effect6431"
       is_visible="true"
       lpeversion="1"
       nodesatellites_param="F,0,0,1,0,2.0996429,0,1 @ F,0,0,1,0,0,0,1 @ F,0,0,1,0,0,0,1"
       unit="px"
       method="auto"
       mode="F"
       radius="0"
       chamfer_steps="1"
       flexible="false"
       use_knot_distance="true"
       apply_no_radius="true"
       apply_with_radius="true"
       only_selected="false"
       hide_knots="false" /><inkscape:path-effect
       effect="mirror_symmetry"
       start_point="103.97692,139.95961"
       end_point="103.97692,165.86641"
       center_point="103.97692,152.91301"
       id="path-effect6412"
       is_visible="true"
       lpeversion="1.2"
       lpesatellites=""
       mode="vertical"
       discard_orig_path="false"
       fuse_paths="true"
       oposite_fuse="false"
       split_items="false"
       split_open="false"
       link_styles="false" /><filter
       style="color-interpolation-filters:sRGB;"
       inkscape:label="Drop Shadow"
       id="filter21323"
       x="-0.15793411"
       y="-0.16829793"
       width="1.3129071"
       height="1.323271"><feFlood
         flood-opacity="0.305882"
         flood-color="rgb(110,38,38)"
         result="flood"
         id="feFlood21313" /><feComposite
         in="flood"
         in2="SourceGraphic"
         operator="out"
         result="composite1"
         id="feComposite21315" /><feGaussianBlur
         in="composite1"
         stdDeviation="4.36137"
         result="blur"
         id="feGaussianBlur21317" /><feOffset
         dx="-0.2"
         dy="-0.9"
         result="offset"
         id="feOffset21319" /><feComposite
         in="offset"
         in2="SourceGraphic"
         operator="in"
         result="composite2"
         id="feComposite21321" /></filter><filter
       style="color-interpolation-filters:sRGB;"
       inkscape:label="Drop Shadow"
       id="filter25855"
       x="0"
       y="0"
       width="1.001153"
       height="1.0380487"><feFlood
         flood-opacity="0.305882"
         flood-color="rgb(110,38,38)"
         result="flood"
         id="feFlood25845" /><feComposite
         in="flood"
         in2="SourceGraphic"
         operator="in"
         result="composite1"
         id="feComposite25847" /><feGaussianBlur
         in="composite1"
         stdDeviation="0"
         result="blur"
         id="feGaussianBlur25849" /><feOffset
         dx="0.1"
         dy="3.3"
         result="offset"
         id="feOffset25851" /><feComposite
         in="SourceGraphic"
         in2="offset"
         operator="over"
         result="composite2"
         id="feComposite25853" /></filter><filter
       style="color-interpolation-filters:sRGB;"
       inkscape:label="Drop Shadow"
       id="filter26621"
       x="0"
       y="0"
       width="1.0008868"
       height="1.0213952"><feFlood
         flood-opacity="0.156863"
         flood-color="rgb(110,38,38)"
         result="flood"
         id="feFlood26611" /><feComposite
         in="flood"
         in2="SourceGraphic"
         operator="in"
         result="composite1"
         id="feComposite26613" /><feGaussianBlur
         in="composite1"
         stdDeviation="0"
         result="blur"
         id="feGaussianBlur26615" /><feOffset
         dx="0.1"
         dy="1.40187"
         result="offset"
         id="feOffset26617" /><feComposite
         in="SourceGraphic"
         in2="offset"
         operator="over"
         result="composite2"
         id="feComposite26619" /></filter><filter
       style="color-interpolation-filters:sRGB;"
       inkscape:label="Drop Shadow"
       id="filter27988"
       x="-0.11365599"
       y="-0.11611479"
       width="1.227312"
       height="1.2297708"><feFlood
         flood-opacity="0.156863"
         flood-color="rgb(71,25,25)"
         result="flood"
         id="feFlood27978" /><feComposite
         in="flood"
         in2="SourceGraphic"
         operator="out"
         result="composite1"
         id="feComposite27980" /><feGaussianBlur
         in="composite1"
         stdDeviation="3"
         result="blur"
         id="feGaussianBlur27982" /><feOffset
         dx="1.38778e-16"
         dy="-0.155763"
         result="offset"
         id="feOffset27984" /><feComposite
         in="offset"
         in2="SourceGraphic"
         operator="atop"
         result="composite2"
         id="feComposite27986" /></filter><linearGradient
       inkscape:collect="always"
       xlink:href="#linearGradient28406"
       id="linearGradient28408"
       x1="99.575546"
       y1="206.96623"
       x2="108.37829"
       y2="69.194572"
       gradientUnits="userSpaceOnUse" /><style
       id="style28568">.cls-1{fill:url(#linear-gradient);}.cls-2{fill:#f9a241;}.cls-3{fill:#da7d25;}.cls-4{fill:#c95b28;}.cls-5{fill:#b23a25;}.cls-6{fill:#9e2f21;}.cls-7{fill:#bc4a27;}.cls-8{fill:#e17826;}.cls-9{fill:#493d7d;}.cls-10{fill:#635ba1;}.cls-11{fill:#322b59;}.cls-12{fill:#d62027;}.cls-13{fill:#8e191b;}.cls-14{fill:#59af48;}.cls-15{fill:#f7941d;}.cls-16{fill:url(#radial-gradient);}.cls-17{fill:#ffcd05;}.cls-18{fill:#feea96;}</style><linearGradient
       id="linear-gradient"
       x1="150"
       y1="381.25"
       x2="150"
       y2="186.29"
       gradientUnits="userSpaceOnUse"><stop
         offset="0.1"
         stop-color="#f9a241"
         id="stop28570" /><stop
         offset="0.38"
         stop-color="#c66821"
         id="stop28572" /></linearGradient><radialGradient
       id="radial-gradient"
       cx="136.67"
       cy="116.28"
       r="51.56"
       gradientTransform="matrix(0.99,-0.13,0.15,1.12,-15.86,3.67)"
       gradientUnits="userSpaceOnUse"><stop
         offset="0.54"
         stop-color="#d88f2a"
         id="stop28575" /><stop
         offset="1"
         stop-color="#fabc2e"
         id="stop28577" /></radialGradient><linearGradient
       inkscape:collect="always"
       xlink:href="#linearGradient21586"
       id="linearGradient7102"
       x1="14.158934"
       y1="134.65515"
       x2="13.843747"
       y2="166.92851"
       gradientUnits="userSpaceOnUse"
       gradientTransform="translate(37.342064,-8.4785411)" /><linearGradient
       inkscape:collect="always"
       xlink:href="#linearGradient7177"
       id="linearGradient7179"
       x1="13.472947"
       y1="139.67152"
       x2="13.773788"
       y2="113.00043"
       gradientUnits="userSpaceOnUse"
       gradientTransform="translate(37.342064,-8.4785411)" /><linearGradient
       inkscape:collect="always"
       xlink:href="#linearGradient13501"
       id="linearGradient13503"
       x1="32.957752"
       y1="133.94383"
       x2="22.646091"
       y2="88.599648"
       gradientUnits="userSpaceOnUse" /><linearGradient
       inkscape:collect="always"
       xlink:href="#linearGradient7100"
       id="linearGradient13653"
       gradientUnits="userSpaceOnUse"
       x1="14.158934"
       y1="134.65515"
       x2="13.843747"
       y2="166.92851"
       gradientTransform="translate(-24.311518,-0.26863556)" /><clipPath
       clipPathUnits="userSpaceOnUse"
       id="clipPath19618"><rect
         style="opacity:1;fill:#fb4444;fill-opacity:1;stroke-width:0.0779298;stroke-linecap:round;stroke-linejoin:round;stroke-miterlimit:9.4;filter:url(#filter26621)"
         id="rect19620"
         width="112.76075"
         height="65.52272"
         x="-55.816227"
         y="107.60492"
         transform="matrix(1.3272932,0,0,1.3272932,-38.306853,-38.538673)" /></clipPath><filter
       style="color-interpolation-filters:sRGB;"
       inkscape:label="Drop Shadow"
       id="filter21580"
       x="0"
       y="0"
       width="1.0510665"
       height="1.0210251"><feFlood
         flood-opacity="0.513725"
         flood-color="rgb(70,26,26)"
         result="flood"
         id="feFlood21570" /><feComposite
         in="flood"
         in2="SourceGraphic"
         operator="in"
         result="composite1"
         id="feComposite21572" /><feGaussianBlur
         in="composite1"
         stdDeviation="0"
         result="blur"
         id="feGaussianBlur21574" /><feOffset
         dx="0.778816"
         dy="1.40187"
         result="offset"
         id="feOffset21576" /><feComposite
         in="SourceGraphic"
         in2="offset"
         operator="over"
         result="composite2"
         id="feComposite21578" /></filter><filter
       style="color-interpolation-filters:sRGB;"
       inkscape:label="Drop Shadow"
       id="filter21962"
       x="0"
       y="0"
       width="1.0385062"
       height="1.0212108"><feFlood
         flood-opacity="0.513725"
         flood-color="rgb(70,26,26)"
         result="flood"
         id="feFlood21952" /><feComposite
         in="flood"
         in2="SourceGraphic"
         operator="in"
         result="composite1"
         id="feComposite21954" /><feGaussianBlur
         in="composite1"
         stdDeviation="0"
         result="blur"
         id="feGaussianBlur21956" /><feOffset
         dx="0.778816"
         dy="1.40187"
         result="offset"
         id="feOffset21958" /><feComposite
         in="SourceGraphic"
         in2="offset"
         operator="over"
         result="composite2"
         id="feComposite21960" /></filter><filter
       style="color-interpolation-filters:sRGB;"
       inkscape:label="Drop Shadow"
       id="filter23502"
       x="-0.039553599"
       y="0"
       width="1.0395536"
       height="1.0212108"><feFlood
         flood-opacity="0.513725"
         flood-color="rgb(70,26,26)"
         result="flood"
         id="feFlood23492" /><feComposite
         in="flood"
         in2="SourceGraphic"
         operator="in"
         result="composite1"
         id="feComposite23494" /><feGaussianBlur
         in="composite1"
         stdDeviation="0"
         result="blur"
         id="feGaussianBlur23496" /><feOffset
         dx="-0.8"
         dy="1.40187"
         result="offset"
         id="feOffset23498" /><feComposite
         in="SourceGraphic"
         in2="offset"
         operator="over"
         result="composite2"
         id="feComposite23500" /></filter></defs><g
     inkscape:label="Layer 1"
     inkscape:groupmode="layer"
     id="layer1"
     transform="translate(-44.313374,-78.569412)"><path
       id="path6439"
       style="display:none;opacity:0.606469;fill:#0a0309;fill-rule:evenodd;stroke-width:0.267674"
       d="m 75.274792,139.9605 c -9.222912,-0.0504 -21.957794,2.03426 -30.961418,6.97166 v 18.93425 h 59.663546 v -19.67115 c -8.630203,-4.3404 -20.165337,-6.18816 -28.702128,-6.23476 z"
       class="UnoptimicedTransforms"
       inkscape:label="hill original" /><rect
       style="opacity:1;fill:url(#linearGradient28408);fill-opacity:1;stroke-width:0.636184;stroke-linecap:round;stroke-linejoin:round"
       id="rect1837"
       width="119.32708"
       height="121.70834"
       x="44.313374"
       y="78.569412"
       ry="0"
       inkscape:label="bg" /><rect
       style="display:inline;fill:#f9f6f6;fill-opacity:1;stroke-width:0.0779298;stroke-linecap:round;stroke-linejoin:round;stroke-miterlimit:9.4;filter:url(#filter26621)"
       id="rect24170"
       width="112.76075"
       height="65.52272"
       x="-55.816227"
       y="107.60492"
       transform="matrix(1.0601128,0,0,1.0601128,103.32585,-5.1054556)" /><g
       id="g19614"
       transform="matrix(0.79870279,0,0,0.79870279,133.92164,25.675489)"
       style="display:inline;fill:#fb3d3d;fill-opacity:1"
       clip-path="url(#clipPath19618)"><path
         style="display:inline;opacity:1;fill:#fb3d3d;fill-opacity:1;stroke-width:0.0745508;stroke-linecap:round;stroke-linejoin:round;stroke-miterlimit:9.4"
         id="rect15765"
         width="14.293419"
         height="14.293419"
         x="-134.93816"
         y="98.498985"
         class="UnoptimicedTransforms"
         inkscape:path-effect="#path-effect19199"
         d="m -134.93816,98.498985 h 14.29342 V 112.7924 h -14.29342 z m 28.58092,0 h 14.293422 V 112.7924 h -14.293422 z m 28.580922,0 h 14.293419 V 112.7924 h -14.293419 z m 28.580919,0 h 14.293418 V 112.7924 h -14.293418 z m 28.580918,0 H -6.3210617 V 112.7924 H -20.614481 Z m 28.5809193,0 H 22.259857 V 112.7924 H 7.9664383 Z m 28.5809187,0 H 50.840776 V 112.7924 H 36.547357 Z M -134.93816,127.0799 h 14.29342 v 14.29342 h -14.29342 z m 28.58092,0 h 14.293422 v 14.29342 h -14.293422 z m 28.580922,0 h 14.293419 v 14.29342 h -14.293419 z m 28.580919,0 h 14.293418 v 14.29342 h -14.293418 z m 28.580918,0 h 14.2934193 v 14.29342 H -20.614481 Z m 28.5809193,0 H 22.259857 v 14.29342 H 7.9664383 Z m 28.5809187,0 h 14.293419 v 14.29342 H 36.547357 Z m -171.485517,28.58092 h 14.29342 v 14.29342 h -14.29342 z m 28.58092,0 h 14.293422 v 14.29342 h -14.293422 z m 28.580922,0 h 14.293419 v 14.29342 h -14.293419 z m 28.580919,0 h 14.293418 v 14.29342 h -14.293418 z m 28.580918,0 h 14.2934193 v 14.29342 H -20.614481 Z m 28.5809193,0 H 22.259857 v 14.29342 H 7.9664383 Z m 28.5809187,0 h 14.293419 v 14.29342 H 36.547357 Z m -171.485517,28.58092 h 14.29342 v 14.29342 h -14.29342 z m 28.58092,0 h 14.293422 v 14.29342 h -14.293422 z m 28.580922,0 h 14.293419 v 14.29342 h -14.293419 z m 28.580919,0 h 14.293418 v 14.29342 h -14.293418 z m 28.580918,0 h 14.2934193 v 14.29342 H -20.614481 Z m 28.5809193,0 H 22.259857 v 14.29342 H 7.9664383 Z m 28.5809187,0 h 14.293419 v 14.29342 H 36.547357 Z"
         sodipodi:type="rect" /><path
         id="rect16495"
         clip-path="none"
         style="opacity:1;fill:#fb3d3d;fill-opacity:1;stroke-width:0.0745508;stroke-linecap:round;stroke-linejoin:round;stroke-miterlimit:9.4"
         class="UnoptimicedTransforms"
         d="m -120.61464,98.498815 v 1.792395 l 1.2055,-1.792395 z m 2.69177,0 -2.69177,4.001575 v 2.62303 l 4.45638,-6.624605 z m 3.25039,0 -5.94216,8.833775 v 2.69226 l 7.75308,-11.526035 z m 3.2967,0 -9.23886,13.735205 v 0.55815 h 1.67785 l 9.61469,-14.293355 z m 3.53995,0 -9.61518,14.293355 h 1.78411 l 9.34561,-13.892662 v -0.400693 z m 1.51454,2.610355 -7.85934,11.683 h 1.93327 l 5.92607,-8.80892 z m 0,5.08276 -4.4398,6.60024 h 1.61837 l 2.82143,-4.19461 z m 0,4.6148 -1.33564,1.98544 h 1.33564 z m 14.2875,-12.307915 v 1.792395 l 1.2055,-1.792395 z m 2.69177,0 -2.69177,4.001575 v 2.62303 l 4.45638,-6.624605 z m 3.25039,0 -5.94216,8.833775 v 2.69226 l 7.75308,-11.526035 z m 3.2967,0 -9.23886,13.735205 v 0.55815 h 1.67785 l 9.61469,-14.293355 z m 3.53995,0 -9.61518,14.293355 h 1.78411 l 9.34561,-13.892662 v -0.400693 z m 1.51454,2.610355 -7.85934,11.683 h 1.93327 l 5.92607,-8.80892 z m 0,5.08276 -4.4398,6.60024 h 1.61837 l 2.82143,-4.19461 z m 0,4.6148 -1.33564,1.98544 h 1.33564 z m 14.2875,-12.307915 v 1.792395 l 1.2055,-1.792395 z m 2.69177,0 -2.69177,4.001575 v 2.62303 l 4.45638,-6.624605 z m 3.25039,0 -5.94216,8.833775 v 2.69226 l 7.75308,-11.526035 z m 3.2967,0 -9.23886,13.735205 v 0.55815 h 1.67785 l 9.61469,-14.293355 z m 3.53995,0 -9.61518,14.293355 h 1.78411 l 9.34561,-13.892662 v -0.400693 z m 1.51454,2.610355 -7.85934,11.683 h 1.93327 l 5.92607,-8.80892 z m 0,5.08276 -4.4398,6.60024 h 1.61837 l 2.82143,-4.19461 z m 0,4.6148 -1.33564,1.98544 h 1.33564 z m 14.2875,-12.307915 v 1.792395 l 1.2055,-1.792395 z m 2.69177,0 -2.69177,4.001575 v 2.62303 l 4.45638,-6.624605 z m 3.25039,0 -5.94216,8.833775 v 2.69226 l 7.75308,-11.526035 z m 3.2967,0 -9.23886,13.735205 v 0.55815 h 1.67785 l 9.61469,-14.293355 z m 3.53995,0 -9.61518,14.293355 h 1.78411 l 9.34561,-13.892662 v -0.400693 z m 1.51454,2.610355 -7.85934,11.683 h 1.93327 l 5.92607,-8.80892 z m 0,5.08276 -4.4398,6.60024 h 1.61837 l 2.82143,-4.19461 z m 0,4.6148 -1.33564,1.98544 h 1.33564 z m 14.2875,-12.307915 v 1.792395 l 1.2055,-1.792395 z m 2.69177,0 -2.69177,4.001575 v 2.62303 l 4.45638,-6.624605 z m 3.25039,0 -5.94216,8.833775 v 2.69226 L 1.46184,98.498815 Z m 3.2967,0 -9.23886,13.735205 v 0.55815 h 1.67785 L 5.0013,98.498815 Z m 3.53995,0 -9.61518,14.293355 H -1.3435 L 8.00211,98.899508 v -0.400693 z m 1.51454,2.610355 -7.85934,11.683 h 1.93327 l 5.92607,-8.80892 z m 0,5.08276 -4.4398,6.60024 h 1.61837 l 2.82143,-4.19461 z m 0,4.6148 -1.33564,1.98544 h 1.33564 z m 14.2875,-12.307915 v 1.792395 l 1.2055,-1.792395 z m 2.69177,0 -2.69177,4.001575 v 2.62303 l 4.45638,-6.624605 z m 3.25039,0 -5.94216,8.833775 v 2.69226 l 7.75308,-11.526035 z m 3.2967,0 -9.23886,13.735205 v 0.55815 h 1.67785 l 9.61469,-14.293355 z m 3.53995,0 -9.61518,14.293355 h 1.78411 l 9.34561,-13.892662 v -0.400693 z m 1.51454,2.610355 -7.85934,11.683 h 1.93327 l 5.92607,-8.80892 z m 0,5.08276 -4.4398,6.60024 h 1.61837 l 2.82143,-4.19461 z m 0,4.6148 -1.33564,1.98544 h 1.33564 z m 14.2875,-12.307915 v 1.792395 l 1.2055,-1.792395 z m 2.69177,0 -2.69177,4.001575 v 2.62303 l 4.45638,-6.624605 z m 3.25039,0 -5.94216,8.833775 v 2.69226 l 7.75308,-11.526035 z m 3.2967,0 -9.23886,13.735205 v 0.55815 h 1.67785 L 62.163,98.498815 Z m 3.53995,0 -9.61518,14.293355 h 1.78411 l 9.34561,-13.892662 v -0.400693 z m 1.51454,2.610355 -7.85934,11.683 h 1.93327 l 5.92607,-8.80892 z m 0,5.08276 -4.4398,6.60024 h 1.61837 l 2.82143,-4.19461 z m 0,4.6148 -1.33564,1.98544 h 1.33564 z m -185.77845,16.27294 v 1.7924 l 1.2055,-1.7924 z m 2.69177,0 -2.69177,4.00158 v 2.62302 l 4.45638,-6.6246 z m 3.25039,0 -5.94216,8.83378 v 2.69225 l 7.75308,-11.52603 z m 3.2967,0 -9.23886,13.7352 v 0.55815 h 1.67785 l 9.61469,-14.29335 z m 3.53995,0 -9.61518,14.29335 h 1.78411 l 9.34561,-13.89266 v -0.40069 z m 1.51454,2.61035 -7.85934,11.683 h 1.93327 l 5.92607,-8.80892 z m 0,5.08276 -4.4398,6.60024 h 1.61837 l 2.82143,-4.19461 z m 0,4.6148 -1.33564,1.98544 h 1.33564 z m 14.2875,-12.30791 v 1.7924 l 1.2055,-1.7924 z m 2.69177,0 -2.69177,4.00158 v 2.62302 l 4.45638,-6.6246 z m 3.25039,0 -5.94216,8.83378 v 2.69225 l 7.75308,-11.52603 z m 3.2967,0 -9.23886,13.7352 v 0.55815 h 1.67785 l 9.61469,-14.29335 z m 3.53995,0 -9.61518,14.29335 h 1.78411 l 9.34561,-13.89266 v -0.40069 z m 1.51454,2.61035 -7.85934,11.683 h 1.93327 l 5.92607,-8.80892 z m 0,5.08276 -4.4398,6.60024 h 1.61837 l 2.82143,-4.19461 z m 0,4.6148 -1.33564,1.98544 h 1.33564 z m 14.2875,-12.30791 v 1.7924 l 1.2055,-1.7924 z m 2.69177,0 -2.69177,4.00158 v 2.62302 l 4.45638,-6.6246 z m 3.25039,0 -5.94216,8.83378 v 2.69225 l 7.75308,-11.52603 z m 3.2967,0 -9.23886,13.7352 v 0.55815 h 1.67785 l 9.61469,-14.29335 z m 3.53995,0 -9.61518,14.29335 h 1.78411 l 9.34561,-13.89266 v -0.40069 z m 1.51454,2.61035 -7.85934,11.683 h 1.93327 l 5.92607,-8.80892 z m 0,5.08276 -4.4398,6.60024 h 1.61837 l 2.82143,-4.19461 z m 0,4.6148 -1.33564,1.98544 h 1.33564 z m 14.2875,-12.30791 v 1.7924 l 1.2055,-1.7924 z m 2.69177,0 -2.69177,4.00158 v 2.62302 l 4.45638,-6.6246 z m 3.25039,0 -5.94216,8.83378 v 2.69225 l 7.75308,-11.52603 z m 3.2967,0 -9.23886,13.7352 v 0.55815 h 1.67785 l 9.61469,-14.29335 z m 3.53995,0 -9.61518,14.29335 h 1.78411 l 9.34561,-13.89266 v -0.40069 z m 1.51454,2.61035 -7.85934,11.683 h 1.93327 l 5.92607,-8.80892 z m 0,5.08276 -4.4398,6.60024 h 1.61837 l 2.82143,-4.19461 z m 0,4.6148 -1.33564,1.98544 h 1.33564 z m 14.2875,-12.30791 v 1.7924 l 1.2055,-1.7924 z m 2.69177,0 -2.69177,4.00158 v 2.62302 l 4.45638,-6.6246 z m 3.25039,0 -5.94216,8.83378 v 2.69225 l 7.75308,-11.52603 z m 3.2967,0 -9.23886,13.7352 v 0.55815 h 1.67785 L 5.0013,127.07967 Z m 3.53995,0 -9.61518,14.29335 h 1.78411 l 9.34561,-13.89266 v -0.40069 z m 1.51454,2.61035 -7.85934,11.683 h 1.93327 l 5.92607,-8.80892 z m 0,5.08276 -4.4398,6.60024 h 1.61837 l 2.82143,-4.19461 z m 0,4.6148 -1.33564,1.98544 h 1.33564 z m 14.2875,-12.30791 v 1.7924 l 1.2055,-1.7924 z m 2.69177,0 -2.69177,4.00158 v 2.62302 l 4.45638,-6.6246 z m 3.25039,0 -5.94216,8.83378 v 2.69225 l 7.75308,-11.52603 z m 3.2967,0 -9.23886,13.7352 v 0.55815 h 1.67785 l 9.61469,-14.29335 z m 3.53995,0 -9.61518,14.29335 h 1.78411 l 9.34561,-13.89266 v -0.40069 z m 1.51454,2.61035 -7.85934,11.683 h 1.93327 l 5.92607,-8.80892 z m 0,5.08276 -4.4398,6.60024 h 1.61837 l 2.82143,-4.19461 z m 0,4.6148 -1.33564,1.98544 h 1.33564 z m 14.2875,-12.30791 v 1.7924 l 1.2055,-1.7924 z m 2.69177,0 -2.69177,4.00158 v 2.62302 l 4.45638,-6.6246 z m 3.25039,0 -5.94216,8.83378 v 2.69225 l 7.75308,-11.52603 z m 3.2967,0 -9.23886,13.7352 v 0.55815 h 1.67785 L 62.163,127.07967 Z m 3.53995,0 -9.61518,14.29335 h 1.78411 l 9.34561,-13.89266 v -0.40069 z m 1.51454,2.61035 -7.85934,11.683 h 1.93327 l 5.92607,-8.80892 z m 0,5.08276 -4.4398,6.60024 h 1.61837 l 2.82143,-4.19461 z m 0,4.6148 -1.33564,1.98544 h 1.33564 z m -185.77845,16.27294 v 1.7924 l 1.2055,-1.7924 z m 2.69177,0 -2.69177,4.00158 v 2.62303 l 4.45638,-6.62461 z m 3.25039,0 -5.94216,8.83378 v 2.69226 l 7.75308,-11.52603 z m 3.2967,0 -9.23886,13.73521 v 0.55815 h 1.67785 l 9.61469,-14.29336 z m 3.53995,0 -9.61518,14.29336 h 1.78411 l 9.34561,-13.89266 v -0.4007 z m 1.51454,2.61036 -7.85934,11.683 h 1.93327 l 5.92607,-8.80892 z m 0,5.08276 -4.4398,6.60024 h 1.61837 l 2.82143,-4.19461 z m 0,4.6148 -1.33564,1.98544 h 1.33564 z m 14.2875,-12.30792 v 1.7924 l 1.2055,-1.7924 z m 2.69177,0 -2.69177,4.00158 v 2.62303 l 4.45638,-6.62461 z m 3.25039,0 -5.94216,8.83378 v 2.69226 l 7.75308,-11.52603 z m 3.2967,0 -9.23886,13.73521 v 0.55815 h 1.67785 l 9.61469,-14.29336 z m 3.53995,0 -9.61518,14.29336 h 1.78411 l 9.34561,-13.89266 v -0.4007 z m 1.51454,2.61036 -7.85934,11.683 h 1.93327 l 5.92607,-8.80892 z m 0,5.08276 -4.4398,6.60024 h 1.61837 l 2.82143,-4.19461 z m 0,4.6148 -1.33564,1.98544 h 1.33564 z m 14.2875,-12.30792 v 1.7924 l 1.2055,-1.7924 z m 2.69177,0 -2.69177,4.00158 v 2.62303 l 4.45638,-6.62461 z m 3.25039,0 -5.94216,8.83378 v 2.69226 l 7.75308,-11.52603 z m 3.2967,0 -9.23886,13.73521 v 0.55815 h 1.67785 l 9.61469,-14.29336 z m 3.53995,0 -9.61518,14.29336 h 1.78411 l 9.34561,-13.89266 v -0.4007 z m 1.51454,2.61036 -7.85934,11.683 h 1.93327 l 5.92607,-8.80892 z m 0,5.08276 -4.4398,6.60024 h 1.61837 l 2.82143,-4.19461 z m 0,4.6148 -1.33564,1.98544 h 1.33564 z m 14.2875,-12.30792 v 1.7924 l 1.2055,-1.7924 z m 2.69177,0 -2.69177,4.00158 v 2.62303 l 4.45638,-6.62461 z m 3.25039,0 -5.94216,8.83378 v 2.69226 l 7.75308,-11.52603 z m 3.2967,0 -9.23886,13.73521 v 0.55815 h 1.67785 l 9.61469,-14.29336 z m 3.53995,0 -9.61518,14.29336 h 1.78411 l 9.34561,-13.89266 v -0.4007 z m 1.51454,2.61036 -7.85934,11.683 h 1.93327 l 5.92607,-8.80892 z m 0,5.08276 -4.4398,6.60024 h 1.61837 l 2.82143,-4.19461 z m 0,4.6148 -1.33564,1.98544 h 1.33564 z m 14.2875,-12.30792 v 1.7924 l 1.2055,-1.7924 z m 2.69177,0 -2.69177,4.00158 v 2.62303 l 4.45638,-6.62461 z m 3.25039,0 -5.94216,8.83378 v 2.69226 l 7.75308,-11.52603 z m 3.2967,0 -9.23886,13.73521 v 0.55815 h 1.67785 L 5.0013,155.66052 Z m 3.53995,0 -9.61518,14.29336 h 1.78411 l 9.34561,-13.89266 v -0.4007 z m 1.51454,2.61036 -7.85934,11.683 h 1.93327 l 5.92607,-8.80892 z m 0,5.08276 -4.4398,6.60024 h 1.61837 l 2.82143,-4.19461 z m 0,4.6148 -1.33564,1.98544 h 1.33564 z m 14.2875,-12.30792 v 1.7924 l 1.2055,-1.7924 z m 2.69177,0 -2.69177,4.00158 v 2.62303 l 4.45638,-6.62461 z m 3.25039,0 -5.94216,8.83378 v 2.69226 l 7.75308,-11.52603 z m 3.2967,0 -9.23886,13.73521 v 0.55815 h 1.67785 l 9.61469,-14.29336 z m 3.53995,0 -9.61518,14.29336 h 1.78411 l 9.34561,-13.89266 v -0.4007 z m 1.51454,2.61036 -7.85934,11.683 h 1.93327 l 5.92607,-8.80892 z m 0,5.08276 -4.4398,6.60024 h 1.61837 l 2.82143,-4.19461 z m 0,4.6148 -1.33564,1.98544 h 1.33564 z m 14.2875,-12.30792 v 1.7924 l 1.2055,-1.7924 z m 2.69177,0 -2.69177,4.00158 v 2.62303 l 4.45638,-6.62461 z m 3.25039,0 -5.94216,8.83378 v 2.69226 l 7.75308,-11.52603 z m 3.2967,0 -9.23886,13.73521 v 0.55815 h 1.67785 L 62.163,155.66052 Z m 3.53995,0 -9.61518,14.29336 h 1.78411 l 9.34561,-13.89266 v -0.4007 z m 1.51454,2.61036 -7.85934,11.683 h 1.93327 l 5.92607,-8.80892 z m 0,5.08276 -4.4398,6.60024 h 1.61837 l 2.82143,-4.19461 z m 0,4.6148 -1.33564,1.98544 h 1.33564 z m -185.77845,16.27294 v 1.7924 l 1.2055,-1.7924 z m 2.69177,0 -2.69177,4.00158 v 2.62303 l 4.45638,-6.62461 z m 3.25039,0 -5.94216,8.83378 v 2.69226 l 7.75308,-11.52604 z m 3.2967,0 -9.23886,13.73521 v 0.55814 h 1.67785 l 9.61469,-14.29335 z m 3.53995,0 -9.61518,14.29336 h 1.78411 l 9.34561,-13.89267 v -0.40069 z m 1.51454,2.61036 -7.85934,11.683 h 1.93327 l 5.92607,-8.80892 z m 0,5.08276 -4.4398,6.60023 h 1.61837 l 2.82143,-4.1946 z m 0,4.6148 -1.33564,1.98543 h 1.33564 z m 14.2875,-12.30792 v 1.7924 l 1.2055,-1.7924 z m 2.69177,0 -2.69177,4.00158 v 2.62303 l 4.45638,-6.62461 z m 3.25039,0 -5.94216,8.83378 v 2.69226 l 7.75308,-11.52604 z m 3.2967,0 -9.23886,13.73521 v 0.55814 h 1.67785 l 9.61469,-14.29335 z m 3.53995,0 -9.61518,14.29336 h 1.78411 l 9.34561,-13.89267 v -0.40069 z m 1.51454,2.61036 -7.85934,11.683 h 1.93327 l 5.92607,-8.80892 z m 0,5.08276 -4.4398,6.60023 h 1.61837 l 2.82143,-4.1946 z m 0,4.6148 -1.33564,1.98543 h 1.33564 z m 14.2875,-12.30792 v 1.7924 l 1.2055,-1.7924 z m 2.69177,0 -2.69177,4.00158 v 2.62303 l 4.45638,-6.62461 z m 3.25039,0 -5.94216,8.83378 v 2.69226 l 7.75308,-11.52604 z m 3.2967,0 -9.23886,13.73521 v 0.55814 h 1.67785 l 9.61469,-14.29335 z m 3.53995,0 -9.61518,14.29336 h 1.78411 l 9.34561,-13.89267 v -0.40069 z m 1.51454,2.61036 -7.85934,11.683 h 1.93327 l 5.92607,-8.80892 z m 0,5.08276 -4.4398,6.60023 h 1.61837 l 2.82143,-4.1946 z m 0,4.6148 -1.33564,1.98543 h 1.33564 z m 14.2875,-12.30792 v 1.7924 l 1.2055,-1.7924 z m 2.69177,0 -2.69177,4.00158 v 2.62303 l 4.45638,-6.62461 z m 3.25039,0 -5.94216,8.83378 v 2.69226 l 7.75308,-11.52604 z m 3.2967,0 -9.23886,13.73521 v 0.55814 h 1.67785 l 9.61469,-14.29335 z m 3.53995,0 -9.61518,14.29336 h 1.78411 l 9.34561,-13.89267 v -0.40069 z m 1.51454,2.61036 -7.85934,11.683 h 1.93327 l 5.92607,-8.80892 z m 0,5.08276 -4.4398,6.60023 h 1.61837 l 2.82143,-4.1946 z m 0,4.6148 -1.33564,1.98543 h 1.33564 z m 14.2875,-12.30792 v 1.7924 l 1.2055,-1.7924 z m 2.69177,0 -2.69177,4.00158 v 2.62303 l 4.45638,-6.62461 z m 3.25039,0 -5.94216,8.83378 v 2.69226 l 7.75308,-11.52604 z m 3.2967,0 -9.23886,13.73521 v 0.55814 h 1.67785 L 5.0013,184.24138 Z m 3.53995,0 -9.61518,14.29336 h 1.78411 l 9.34561,-13.89267 v -0.40069 z m 1.51454,2.61036 -7.85934,11.683 h 1.93327 l 5.92607,-8.80892 z m 0,5.08276 -4.4398,6.60023 h 1.61837 l 2.82143,-4.1946 z m 0,4.6148 -1.33564,1.98543 h 1.33564 z m 14.2875,-12.30792 v 1.7924 l 1.2055,-1.7924 z m 2.69177,0 -2.69177,4.00158 v 2.62303 l 4.45638,-6.62461 z m 3.25039,0 -5.94216,8.83378 v 2.69226 l 7.75308,-11.52604 z m 3.2967,0 -9.23886,13.73521 v 0.55814 h 1.67785 l 9.61469,-14.29335 z m 3.53995,0 -9.61518,14.29336 h 1.78411 l 9.34561,-13.89267 v -0.40069 z m 1.51454,2.61036 -7.85934,11.683 h 1.93327 l 5.92607,-8.80892 z m 0,5.08276 -4.4398,6.60023 h 1.61837 l 2.82143,-4.1946 z m 0,4.6148 -1.33564,1.98543 h 1.33564 z m 14.2875,-12.30792 v 1.7924 l 1.2055,-1.7924 z m 2.69177,0 -2.69177,4.00158 v 2.62303 l 4.45638,-6.62461 z m 3.25039,0 -5.94216,8.83378 v 2.69226 l 7.75308,-11.52604 z m 3.2967,0 -9.23886,13.73521 v 0.55814 h 1.67785 L 62.163,184.24138 Z m 3.53995,0 -9.61518,14.29336 h 1.78411 l 9.34561,-13.89267 v -0.40069 z m 1.51454,2.61036 -7.85934,11.683 h 1.93327 l 5.92607,-8.80892 z m 0,5.08276 -4.4398,6.60023 h 1.61837 l 2.82143,-4.1946 z m 0,4.6148 -1.33564,1.98543 h 1.33564 z"
         inkscape:path-effect="#path-effect19225"
         inkscape:original-d="m -120.61464,98.498815 v 1.792395 l 1.2055,-1.792395 z m 2.69177,0 -2.69177,4.001575 v 2.62303 l 4.45638,-6.624605 z m 3.25039,0 -5.94216,8.833775 v 2.69226 l 7.75308,-11.526035 z m 3.2967,0 -9.23886,13.735205 v 0.55815 h 1.67785 l 9.61469,-14.293355 z m 3.53995,0 -9.61518,14.293355 h 1.78411 l 9.34561,-13.892662 v -0.400693 z m 1.51454,2.610355 -7.85934,11.683 h 1.93327 l 5.92607,-8.80892 z m 0,5.08276 -4.4398,6.60024 h 1.61837 l 2.82143,-4.19461 z m 0,4.6148 -1.33564,1.98544 h 1.33564 z" /><path
         id="path19417"
         clip-path="none"
         style="opacity:1;fill:#fb3d3d;fill-opacity:1;stroke-width:0.0745508;stroke-linecap:round;stroke-linejoin:round;stroke-miterlimit:9.4"
         class="UnoptimicedTransforms"
         d="m -120.61464,98.498815 v 1.792395 l 1.2055,-1.792395 z m 2.69177,0 -2.69177,4.001575 v 2.62303 l 4.45638,-6.624605 z m 3.25039,0 -5.94216,8.833775 v 2.69226 l 7.75308,-11.526035 z m 3.2967,0 -9.23886,13.735205 v 0.55815 h 1.67785 l 9.61469,-14.293355 z m 3.53995,0 -9.61518,14.293355 h 1.78411 l 9.34561,-13.892662 v -0.400693 z m 1.51454,2.610355 -7.85934,11.683 h 1.93327 l 5.92607,-8.80892 z m 0,5.08276 -4.4398,6.60024 h 1.61837 l 2.82143,-4.19461 z m 0,4.6148 -1.33564,1.98544 h 1.33564 z m 14.2875,-12.307915 v 1.792395 l 1.2055,-1.792395 z m 2.69177,0 -2.69177,4.001575 v 2.62303 l 4.45638,-6.624605 z m 3.25039,0 -5.94216,8.833775 v 2.69226 l 7.75308,-11.526035 z m 3.2967,0 -9.23886,13.735205 v 0.55815 h 1.67785 l 9.61469,-14.293355 z m 3.53995,0 -9.61518,14.293355 h 1.78411 l 9.34561,-13.892662 v -0.400693 z m 1.51454,2.610355 -7.85934,11.683 h 1.93327 l 5.92607,-8.80892 z m 0,5.08276 -4.4398,6.60024 h 1.61837 l 2.82143,-4.19461 z m 0,4.6148 -1.33564,1.98544 h 1.33564 z m 14.2875,-12.307915 v 1.792395 l 1.2055,-1.792395 z m 2.69177,0 -2.69177,4.001575 v 2.62303 l 4.45638,-6.624605 z m 3.25039,0 -5.94216,8.833775 v 2.69226 l 7.75308,-11.526035 z m 3.2967,0 -9.23886,13.735205 v 0.55815 h 1.67785 l 9.61469,-14.293355 z m 3.53995,0 -9.61518,14.293355 h 1.78411 l 9.34561,-13.892662 v -0.400693 z m 1.51454,2.610355 -7.85934,11.683 h 1.93327 l 5.92607,-8.80892 z m 0,5.08276 -4.4398,6.60024 h 1.61837 l 2.82143,-4.19461 z m 0,4.6148 -1.33564,1.98544 h 1.33564 z m 14.2875,-12.307915 v 1.792395 l 1.2055,-1.792395 z m 2.69177,0 -2.69177,4.001575 v 2.62303 l 4.45638,-6.624605 z m 3.25039,0 -5.94216,8.833775 v 2.69226 l 7.75308,-11.526035 z m 3.2967,0 -9.23886,13.735205 v 0.55815 h 1.67785 l 9.61469,-14.293355 z m 3.53995,0 -9.61518,14.293355 h 1.78411 l 9.34561,-13.892662 v -0.400693 z m 1.51454,2.610355 -7.85934,11.683 h 1.93327 l 5.92607,-8.80892 z m 0,5.08276 -4.4398,6.60024 h 1.61837 l 2.82143,-4.19461 z m 0,4.6148 -1.33564,1.98544 h 1.33564 z m 14.2875,-12.307915 v 1.792395 l 1.2055,-1.792395 z m 2.69177,0 -2.69177,4.001575 v 2.62303 l 4.45638,-6.624605 z m 3.25039,0 -5.94216,8.833775 v 2.69226 L 1.46184,98.498815 Z m 3.2967,0 -9.23886,13.735205 v 0.55815 h 1.67785 L 5.0013,98.498815 Z m 3.53995,0 -9.61518,14.293355 H -1.3435 L 8.00211,98.899508 v -0.400693 z m 1.51454,2.610355 -7.85934,11.683 h 1.93327 l 5.92607,-8.80892 z m 0,5.08276 -4.4398,6.60024 h 1.61837 l 2.82143,-4.19461 z m 0,4.6148 -1.33564,1.98544 h 1.33564 z m 14.2875,-12.307915 v 1.792395 l 1.2055,-1.792395 z m 2.69177,0 -2.69177,4.001575 v 2.62303 l 4.45638,-6.624605 z m 3.25039,0 -5.94216,8.833775 v 2.69226 l 7.75308,-11.526035 z m 3.2967,0 -9.23886,13.735205 v 0.55815 h 1.67785 l 9.61469,-14.293355 z m 3.53995,0 -9.61518,14.293355 h 1.78411 l 9.34561,-13.892662 v -0.400693 z m 1.51454,2.610355 -7.85934,11.683 h 1.93327 l 5.92607,-8.80892 z m 0,5.08276 -4.4398,6.60024 h 1.61837 l 2.82143,-4.19461 z m 0,4.6148 -1.33564,1.98544 h 1.33564 z m 14.2875,-12.307915 v 1.792395 l 1.2055,-1.792395 z m 2.69177,0 -2.69177,4.001575 v 2.62303 l 4.45638,-6.624605 z m 3.25039,0 -5.94216,8.833775 v 2.69226 l 7.75308,-11.526035 z m 3.2967,0 -9.23886,13.735205 v 0.55815 h 1.67785 L 62.163,98.498815 Z m 3.53995,0 -9.61518,14.293355 h 1.78411 l 9.34561,-13.892662 v -0.400693 z m 1.51454,2.610355 -7.85934,11.683 h 1.93327 l 5.92607,-8.80892 z m 0,5.08276 -4.4398,6.60024 h 1.61837 l 2.82143,-4.19461 z m 0,4.6148 -1.33564,1.98544 h 1.33564 z m -185.77845,16.27294 v 1.7924 l 1.2055,-1.7924 z m 2.69177,0 -2.69177,4.00158 v 2.62303 l 4.45638,-6.62461 z m 3.25039,0 -5.94216,8.83378 v 2.69226 l 7.75308,-11.52604 z m 3.2967,0 -9.23886,13.73521 v 0.55814 h 1.67785 l 9.61469,-14.29335 z m 3.53995,0 -9.61518,14.29336 h 1.78411 l 9.34561,-13.89267 v -0.40069 z m 1.51454,2.61036 -7.85934,11.683 h 1.93327 l 5.92607,-8.80893 z m 0,5.08275 -4.4398,6.60024 h 1.61837 l 2.82143,-4.1946 z m 0,4.6148 -1.33564,1.98544 h 1.33564 z m 14.2875,-12.30791 v 1.7924 l 1.2055,-1.7924 z m 2.69177,0 -2.69177,4.00158 v 2.62303 l 4.45638,-6.62461 z m 3.25039,0 -5.94216,8.83378 v 2.69226 l 7.75308,-11.52604 z m 3.2967,0 -9.23886,13.73521 v 0.55814 h 1.67785 l 9.61469,-14.29335 z m 3.53995,0 -9.61518,14.29336 h 1.78411 l 9.34561,-13.89267 v -0.40069 z m 1.51454,2.61036 -7.85934,11.683 h 1.93327 l 5.92607,-8.80893 z m 0,5.08275 -4.4398,6.60024 h 1.61837 l 2.82143,-4.1946 z m 0,4.6148 -1.33564,1.98544 h 1.33564 z m 14.2875,-12.30791 v 1.7924 l 1.2055,-1.7924 z m 2.69177,0 -2.69177,4.00158 v 2.62303 l 4.45638,-6.62461 z m 3.25039,0 -5.94216,8.83378 v 2.69226 l 7.75308,-11.52604 z m 3.2967,0 -9.23886,13.73521 v 0.55814 h 1.67785 l 9.61469,-14.29335 z m 3.53995,0 -9.61518,14.29336 h 1.78411 l 9.34561,-13.89267 v -0.40069 z m 1.51454,2.61036 -7.85934,11.683 h 1.93327 l 5.92607,-8.80893 z m 0,5.08275 -4.4398,6.60024 h 1.61837 l 2.82143,-4.1946 z m 0,4.6148 -1.33564,1.98544 h 1.33564 z m 14.2875,-12.30791 v 1.7924 l 1.2055,-1.7924 z m 2.69177,0 -2.69177,4.00158 v 2.62303 l 4.45638,-6.62461 z m 3.25039,0 -5.94216,8.83378 v 2.69226 l 7.75308,-11.52604 z m 3.2967,0 -9.23886,13.73521 v 0.55814 h 1.67785 l 9.61469,-14.29335 z m 3.53995,0 -9.61518,14.29336 h 1.78411 l 9.34561,-13.89267 v -0.40069 z m 1.51454,2.61036 -7.85934,11.683 h 1.93327 l 5.92607,-8.80893 z m 0,5.08275 -4.4398,6.60024 h 1.61837 l 2.82143,-4.1946 z m 0,4.6148 -1.33564,1.98544 h 1.33564 z m 14.2875,-12.30791 v 1.7924 l 1.2055,-1.7924 z m 2.69177,0 -2.69177,4.00158 v 2.62303 l 4.45638,-6.62461 z m 3.25039,0 -5.94216,8.83378 v 2.69226 l 7.75308,-11.52604 z m 3.2967,0 -9.23886,13.73521 v 0.55814 h 1.67785 L 5.0013,127.07967 Z m 3.53995,0 -9.61518,14.29336 h 1.78411 l 9.34561,-13.89267 v -0.40069 z m 1.51454,2.61036 -7.85934,11.683 h 1.93327 l 5.92607,-8.80893 z m 0,5.08275 -4.4398,6.60024 h 1.61837 l 2.82143,-4.1946 z m 0,4.6148 -1.33564,1.98544 h 1.33564 z m 14.2875,-12.30791 v 1.7924 l 1.2055,-1.7924 z m 2.69177,0 -2.69177,4.00158 v 2.62303 l 4.45638,-6.62461 z m 3.25039,0 -5.94216,8.83378 v 2.69226 l 7.75308,-11.52604 z m 3.2967,0 -9.23886,13.73521 v 0.55814 h 1.67785 l 9.61469,-14.29335 z m 3.53995,0 -9.61518,14.29336 h 1.78411 l 9.34561,-13.89267 v -0.40069 z m 1.51454,2.61036 -7.85934,11.683 h 1.93327 l 5.92607,-8.80893 z m 0,5.08275 -4.4398,6.60024 h 1.61837 l 2.82143,-4.1946 z m 0,4.6148 -1.33564,1.98544 h 1.33564 z m 14.2875,-12.30791 v 1.7924 l 1.2055,-1.7924 z m 2.69177,0 -2.69177,4.00158 v 2.62303 l 4.45638,-6.62461 z m 3.25039,0 -5.94216,8.83378 v 2.69226 l 7.75308,-11.52604 z m 3.2967,0 -9.23886,13.73521 v 0.55814 h 1.67785 L 62.163,127.07967 Z m 3.53995,0 -9.61518,14.29336 h 1.78411 l 9.34561,-13.89267 v -0.40069 z m 1.51454,2.61036 -7.85934,11.683 h 1.93327 l 5.92607,-8.80893 z m 0,5.08275 -4.4398,6.60024 h 1.61837 l 2.82143,-4.1946 z m 0,4.6148 -1.33564,1.98544 h 1.33564 z m -185.77845,16.27295 v 1.79239 l 1.2055,-1.79239 z m 2.69177,0 -2.69177,4.00157 v 2.62303 l 4.45638,-6.6246 z m 3.25039,0 -5.94216,8.83377 v 2.69226 l 7.75308,-11.52603 z m 3.2967,0 -9.23886,13.7352 v 0.55815 h 1.67785 l 9.61469,-14.29336 z m 3.53995,0 -9.61518,14.29335 h 1.78411 l 9.34561,-13.89266 v -0.40069 z m 1.51454,2.61035 -7.85934,11.683 h 1.93327 l 5.92607,-8.80892 z m 0,5.08276 -4.4398,6.60024 h 1.61837 l 2.82143,-4.19461 z m 0,4.6148 -1.33564,1.98544 h 1.33564 z m 14.2875,-12.30791 v 1.79239 l 1.2055,-1.79239 z m 2.69177,0 -2.69177,4.00157 v 2.62303 l 4.45638,-6.6246 z m 3.25039,0 -5.94216,8.83377 v 2.69226 l 7.75308,-11.52603 z m 3.2967,0 -9.23886,13.7352 v 0.55815 h 1.67785 l 9.61469,-14.29336 z m 3.53995,0 -9.61518,14.29335 h 1.78411 l 9.34561,-13.89266 v -0.40069 z m 1.51454,2.61035 -7.85934,11.683 h 1.93327 l 5.92607,-8.80892 z m 0,5.08276 -4.4398,6.60024 h 1.61837 l 2.82143,-4.19461 z m 0,4.6148 -1.33564,1.98544 h 1.33564 z m 14.2875,-12.30791 v 1.79239 l 1.2055,-1.79239 z m 2.69177,0 -2.69177,4.00157 v 2.62303 l 4.45638,-6.6246 z m 3.25039,0 -5.94216,8.83377 v 2.69226 l 7.75308,-11.52603 z m 3.2967,0 -9.23886,13.7352 v 0.55815 h 1.67785 l 9.61469,-14.29336 z m 3.53995,0 -9.61518,14.29335 h 1.78411 l 9.34561,-13.89266 v -0.40069 z m 1.51454,2.61035 -7.85934,11.683 h 1.93327 l 5.92607,-8.80892 z m 0,5.08276 -4.4398,6.60024 h 1.61837 l 2.82143,-4.19461 z m 0,4.6148 -1.33564,1.98544 h 1.33564 z m 14.2875,-12.30791 v 1.79239 l 1.2055,-1.79239 z m 2.69177,0 -2.69177,4.00157 v 2.62303 l 4.45638,-6.6246 z m 3.25039,0 -5.94216,8.83377 v 2.69226 l 7.75308,-11.52603 z m 3.2967,0 -9.23886,13.7352 v 0.55815 h 1.67785 l 9.61469,-14.29336 z m 3.53995,0 -9.61518,14.29335 h 1.78411 l 9.34561,-13.89266 v -0.40069 z m 1.51454,2.61035 -7.85934,11.683 h 1.93327 l 5.92607,-8.80892 z m 0,5.08276 -4.4398,6.60024 h 1.61837 l 2.82143,-4.19461 z m 0,4.6148 -1.33564,1.98544 h 1.33564 z m 14.2875,-12.30791 v 1.79239 l 1.2055,-1.79239 z m 2.69177,0 -2.69177,4.00157 v 2.62303 l 4.45638,-6.6246 z m 3.25039,0 -5.94216,8.83377 v 2.69226 l 7.75308,-11.52603 z m 3.2967,0 -9.23886,13.7352 v 0.55815 h 1.67785 L 5.0013,155.66052 Z m 3.53995,0 -9.61518,14.29335 h 1.78411 l 9.34561,-13.89266 v -0.40069 z m 1.51454,2.61035 -7.85934,11.683 h 1.93327 l 5.92607,-8.80892 z m 0,5.08276 -4.4398,6.60024 h 1.61837 l 2.82143,-4.19461 z m 0,4.6148 -1.33564,1.98544 h 1.33564 z m 14.2875,-12.30791 v 1.79239 l 1.2055,-1.79239 z m 2.69177,0 -2.69177,4.00157 v 2.62303 l 4.45638,-6.6246 z m 3.25039,0 -5.94216,8.83377 v 2.69226 l 7.75308,-11.52603 z m 3.2967,0 -9.23886,13.7352 v 0.55815 h 1.67785 l 9.61469,-14.29336 z m 3.53995,0 -9.61518,14.29335 h 1.78411 l 9.34561,-13.89266 v -0.40069 z m 1.51454,2.61035 -7.85934,11.683 h 1.93327 l 5.92607,-8.80892 z m 0,5.08276 -4.4398,6.60024 h 1.61837 l 2.82143,-4.19461 z m 0,4.6148 -1.33564,1.98544 h 1.33564 z m 14.2875,-12.30791 v 1.79239 l 1.2055,-1.79239 z m 2.69177,0 -2.69177,4.00157 v 2.62303 l 4.45638,-6.6246 z m 3.25039,0 -5.94216,8.83377 v 2.69226 l 7.75308,-11.52603 z m 3.2967,0 -9.23886,13.7352 v 0.55815 h 1.67785 L 62.163,155.66052 Z m 3.53995,0 -9.61518,14.29335 h 1.78411 l 9.34561,-13.89266 v -0.40069 z m 1.51454,2.61035 -7.85934,11.683 h 1.93327 l 5.92607,-8.80892 z m 0,5.08276 -4.4398,6.60024 h 1.61837 l 2.82143,-4.19461 z m 0,4.6148 -1.33564,1.98544 h 1.33564 z m -185.77845,16.27294 v 1.7924 l 1.2055,-1.7924 z m 2.69177,0 -2.69177,4.00158 v 2.62303 l 4.45638,-6.62461 z m 3.25039,0 -5.94216,8.83378 v 2.69226 l 7.75308,-11.52604 z m 3.2967,0 -9.23886,13.73521 v 0.55815 h 1.67785 l 9.61469,-14.29336 z m 3.53995,0 -9.61518,14.29336 h 1.78411 l 9.34561,-13.89267 v -0.40069 z m 1.51454,2.61036 -7.85934,11.683 h 1.93327 l 5.92607,-8.80892 z m 0,5.08276 -4.4398,6.60024 h 1.61837 l 2.82143,-4.19461 z m 0,4.6148 -1.33564,1.98544 h 1.33564 z m 14.2875,-12.30792 v 1.7924 l 1.2055,-1.7924 z m 2.69177,0 -2.69177,4.00158 v 2.62303 l 4.45638,-6.62461 z m 3.25039,0 -5.94216,8.83378 v 2.69226 l 7.75308,-11.52604 z m 3.2967,0 -9.23886,13.73521 v 0.55815 h 1.67785 l 9.61469,-14.29336 z m 3.53995,0 -9.61518,14.29336 h 1.78411 l 9.34561,-13.89267 v -0.40069 z m 1.51454,2.61036 -7.85934,11.683 h 1.93327 l 5.92607,-8.80892 z m 0,5.08276 -4.4398,6.60024 h 1.61837 l 2.82143,-4.19461 z m 0,4.6148 -1.33564,1.98544 h 1.33564 z m 14.2875,-12.30792 v 1.7924 l 1.2055,-1.7924 z m 2.69177,0 -2.69177,4.00158 v 2.62303 l 4.45638,-6.62461 z m 3.25039,0 -5.94216,8.83378 v 2.69226 l 7.75308,-11.52604 z m 3.2967,0 -9.23886,13.73521 v 0.55815 h 1.67785 l 9.61469,-14.29336 z m 3.53995,0 -9.61518,14.29336 h 1.78411 l 9.34561,-13.89267 v -0.40069 z m 1.51454,2.61036 -7.85934,11.683 h 1.93327 l 5.92607,-8.80892 z m 0,5.08276 -4.4398,6.60024 h 1.61837 l 2.82143,-4.19461 z m 0,4.6148 -1.33564,1.98544 h 1.33564 z m 14.2875,-12.30792 v 1.7924 l 1.2055,-1.7924 z m 2.69177,0 -2.69177,4.00158 v 2.62303 l 4.45638,-6.62461 z m 3.25039,0 -5.94216,8.83378 v 2.69226 l 7.75308,-11.52604 z m 3.2967,0 -9.23886,13.73521 v 0.55815 h 1.67785 l 9.61469,-14.29336 z m 3.53995,0 -9.61518,14.29336 h 1.78411 l 9.34561,-13.89267 v -0.40069 z m 1.51454,2.61036 -7.85934,11.683 h 1.93327 l 5.92607,-8.80892 z m 0,5.08276 -4.4398,6.60024 h 1.61837 l 2.82143,-4.19461 z m 0,4.6148 -1.33564,1.98544 h 1.33564 z m 14.2875,-12.30792 v 1.7924 l 1.2055,-1.7924 z m 2.69177,0 -2.69177,4.00158 v 2.62303 l 4.45638,-6.62461 z m 3.25039,0 -5.94216,8.83378 v 2.69226 l 7.75308,-11.52604 z m 3.2967,0 -9.23886,13.73521 v 0.55815 h 1.67785 L 5.0013,184.24138 Z m 3.53995,0 -9.61518,14.29336 h 1.78411 l 9.34561,-13.89267 v -0.40069 z m 1.51454,2.61036 -7.85934,11.683 h 1.93327 l 5.92607,-8.80892 z m 0,5.08276 -4.4398,6.60024 h 1.61837 l 2.82143,-4.19461 z m 0,4.6148 -1.33564,1.98544 h 1.33564 z m 14.2875,-12.30792 v 1.7924 l 1.2055,-1.7924 z m 2.69177,0 -2.69177,4.00158 v 2.62303 l 4.45638,-6.62461 z m 3.25039,0 -5.94216,8.83378 v 2.69226 l 7.75308,-11.52604 z m 3.2967,0 -9.23886,13.73521 v 0.55815 h 1.67785 l 9.61469,-14.29336 z m 3.53995,0 -9.61518,14.29336 h 1.78411 l 9.34561,-13.89267 v -0.40069 z m 1.51454,2.61036 -7.85934,11.683 h 1.93327 l 5.92607,-8.80892 z m 0,5.08276 -4.4398,6.60024 h 1.61837 l 2.82143,-4.19461 z m 0,4.6148 -1.33564,1.98544 h 1.33564 z m 14.2875,-12.30792 v 1.7924 l 1.2055,-1.7924 z m 2.69177,0 -2.69177,4.00158 v 2.62303 l 4.45638,-6.62461 z m 3.25039,0 -5.94216,8.83378 v 2.69226 l 7.75308,-11.52604 z m 3.2967,0 -9.23886,13.73521 v 0.55815 h 1.67785 L 62.163,184.24138 Z m 3.53995,0 -9.61518,14.29336 h 1.78411 l 9.34561,-13.89267 v -0.40069 z m 1.51454,2.61036 -7.85934,11.683 h 1.93327 l 5.92607,-8.80892 z m 0,5.08276 -4.4398,6.60024 h 1.61837 l 2.82143,-4.19461 z m 0,4.6148 -1.33564,1.98544 h 1.33564 z"
         inkscape:path-effect="#path-effect19421"
         inkscape:original-d="m -120.61464,98.498815 v 1.792395 l 1.2055,-1.792395 z m 2.69177,0 -2.69177,4.001575 v 2.62303 l 4.45638,-6.624605 z m 3.25039,0 -5.94216,8.833775 v 2.69226 l 7.75308,-11.526035 z m 3.2967,0 -9.23886,13.735205 v 0.55815 h 1.67785 l 9.61469,-14.293355 z m 3.53995,0 -9.61518,14.293355 h 1.78411 l 9.34561,-13.892662 v -0.400693 z m 1.51454,2.610355 -7.85934,11.683 h 1.93327 l 5.92607,-8.80892 z m 0,5.08276 -4.4398,6.60024 h 1.61837 l 2.82143,-4.19461 z m 0,4.6148 -1.33564,1.98544 h 1.33564 z"
         transform="translate(-14.024427,14.293589)" /></g><circle
       style="fill:#fcf7f3;fill-opacity:1;fill-rule:evenodd;stroke-width:0.264583;filter:url(#filter25855)"
       id="path20440"
       cx="0.56414723"
       cy="139.27945"
       r="43.365452"
       transform="matrix(0.95768871,0,0,0.95768871,103.38875,9.3291156)" /><circle
       style="display:inline;fill:#f3eae5;fill-opacity:1;fill-rule:evenodd;stroke-width:0.185078"
       id="circle26988"
       cx="103.92903"
       cy="142.71548"
       r="30.334339" /><g
       id="g20636"
       style="filter:url(#filter21580)"
       transform="translate(4.2333335)"><path
         id="path6576"
         style="fill:#c1c3c3;fill-opacity:1;stroke-width:0.0703559;stroke-linecap:round;stroke-linejoin:round;stroke-miterlimit:9.4"
         d="m 44.24839,109.61094 c -0.09994,0.0911 -0.200537,0.2376 -0.295364,0.4439 -0.40988,0.89172 -0.645084,1.9347 -0.645084,3.05149 v 14.16555 c 0,3.30467 2.057576,5.96501 4.613514,5.96501 h 5.494811 c 2.555936,0 4.613515,-2.66034 4.613515,-5.96501 v -14.16555 c 0,-1.11349 -0.233848,-2.15377 -0.641488,-3.04374 -0.09702,-0.21182 -0.200219,-0.36041 -0.302558,-0.45165 H 56.61771 c -0.14248,0.15928 -0.23781,0.48399 -0.23781,0.94051 v 12.68346 c 0,0.60085 -0.438816,1.08469 -0.983615,1.08469 h -2.950043 c -0.544801,0 -0.983215,-0.48384 -0.983215,-1.08469 v -12.79765 a 0.82631906,0.82631906 45 0 0 -0.826319,-0.82632 0.79462442,0.79462442 132.66653 0 0 -0.761612,0.82632 v 12.79765 c 0,0.60085 -0.438816,1.08469 -0.983614,1.08469 h -2.950044 c -0.544799,0 -0.983614,-0.48384 -0.983614,-1.08469 v -12.69276 c 0,-0.45009 -0.093,-0.77097 -0.232615,-0.93121 z"
         inkscape:path-effect="#path-effect6580"
         inkscape:original-d="m 44.24839,109.61094 c -0.09994,0.0911 -0.200537,0.2376 -0.295364,0.4439 -0.40988,0.89172 -0.645084,1.9347 -0.645084,3.05149 v 14.16555 c 0,3.30467 2.057576,5.96501 4.613514,5.96501 h 5.494811 c 2.555936,0 4.613515,-2.66034 4.613515,-5.96501 v -14.16555 c 0,-1.11349 -0.233848,-2.15377 -0.641488,-3.04374 -0.09702,-0.21182 -0.200219,-0.36041 -0.302558,-0.45165 H 56.61771 c -0.14248,0.15928 -0.23781,0.48399 -0.23781,0.94051 v 12.68346 c 0,0.60085 -0.438816,1.08469 -0.983615,1.08469 h -2.950043 c -0.544801,0 -0.983215,-0.48384 -0.983215,-1.08469 v -13.62397 h -1.587931 v 13.62397 c 0,0.60085 -0.438816,1.08469 -0.983614,1.08469 h -2.950044 c -0.544799,0 -0.983614,-0.48384 -0.983614,-1.08469 v -12.69276 c 0,-0.45009 -0.093,-0.77097 -0.232615,-0.93121 z" /><path
         id="path6582"
         style="fill:#c1c3c3;fill-opacity:1;stroke-width:0.075454;stroke-linecap:round;stroke-linejoin:round;stroke-miterlimit:9.4"
         d="m 50.61007,126.80141 c 1.370541,0.36724 -0.0096,0 -0.0096,0 1.341047,0 2.349201,1.08153 2.420662,2.42067 l 2.284367,42.808 c 0.07146,1.33914 -1.079615,2.42067 -2.420662,2.42067 h -4.432273 c -1.341047,0 -2.488164,-1.08132 -2.420662,-2.42067 l 2.157457,-42.808 c 0.0675,-1.33935 1.125311,-2.76776 2.420663,-2.42067 z"
         sodipodi:nodetypes="sssssssss" /><path
         id="rect3164"
         style="fill:url(#linearGradient7102);fill-opacity:1;stroke-width:0.075454;stroke-linecap:round;stroke-linejoin:round;stroke-miterlimit:9.4"
         d="m 51.139237,126.80141 c 1.370541,0.36724 -0.0096,0 -0.0096,0 1.341047,0 2.349201,1.08153 2.420662,2.42067 l 2.284367,42.808 c 0.07146,1.33914 -1.079615,2.42067 -2.420662,2.42067 h -4.432273 c -1.341047,0 -2.488164,-1.08132 -2.420663,-2.42067 l 2.157458,-42.808 c 0.0675,-1.33935 1.125311,-2.76776 2.420663,-2.42067 z"
         sodipodi:nodetypes="sssssssss" /><path
         id="rect3113"
         style="fill:url(#linearGradient7179);fill-opacity:1;stroke-width:0.0703559;stroke-linecap:round;stroke-linejoin:round;stroke-miterlimit:9.4"
         d="m 44.777557,109.61094 c -0.09994,0.0911 -0.200537,0.2376 -0.295364,0.4439 -0.40988,0.89172 -0.645085,1.9347 -0.645085,3.05149 v 14.16555 c 0,3.30467 2.057577,5.96501 4.613515,5.96501 h 5.494811 c 2.555936,0 4.613515,-2.66034 4.613515,-5.96501 v -14.16555 c 0,-1.11349 -0.233848,-2.15377 -0.641488,-3.04374 -0.09702,-0.21182 -0.200219,-0.36041 -0.302558,-0.45165 h -0.468026 c -0.14248,0.15928 -0.23781,0.48399 -0.23781,0.94051 v 12.68346 c 0,0.60085 -0.438816,1.08469 -0.983615,1.08469 h -2.950043 c -0.544801,0 -0.983215,-0.48384 -0.983215,-1.08469 v -12.79765 a 0.82631906,0.82631906 45 0 0 -0.826319,-0.82632 0.79462442,0.79462442 132.66653 0 0 -0.761612,0.82632 v 12.79765 c 0,0.60085 -0.438816,1.08469 -0.983614,1.08469 h -2.950044 c -0.544799,0 -0.983614,-0.48384 -0.983614,-1.08469 v -12.69276 c 0,-0.45009 -0.093,-0.77097 -0.232615,-0.93121 z"
         inkscape:path-effect="#path-effect3449"
         inkscape:original-d="m 44.777557,109.61094 c -0.09994,0.0911 -0.200537,0.2376 -0.295364,0.4439 -0.40988,0.89172 -0.645085,1.9347 -0.645085,3.05149 v 14.16555 c 0,3.30467 2.057577,5.96501 4.613515,5.96501 h 5.494811 c 2.555936,0 4.613515,-2.66034 4.613515,-5.96501 v -14.16555 c 0,-1.11349 -0.233848,-2.15377 -0.641488,-3.04374 -0.09702,-0.21182 -0.200219,-0.36041 -0.302558,-0.45165 h -0.468026 c -0.14248,0.15928 -0.23781,0.48399 -0.23781,0.94051 v 12.68346 c 0,0.60085 -0.438816,1.08469 -0.983615,1.08469 h -2.950043 c -0.544801,0 -0.983215,-0.48384 -0.983215,-1.08469 v -13.62397 h -1.587931 v 13.62397 c 0,0.60085 -0.438816,1.08469 -0.983614,1.08469 h -2.950044 c -0.544799,0 -0.983614,-0.48384 -0.983614,-1.08469 v -12.69276 c 0,-0.45009 -0.093,-0.77097 -0.232615,-0.93121 z" /><path
         id="path7067"
         style="fill:#996e5e;fill-opacity:1;stroke-width:0.0877272;stroke-linecap:round;stroke-linejoin:round;stroke-miterlimit:9.4"
         d="m 46.432528,150.55977 -1.155015,22.91229 c -0.07848,1.5572 1.255665,2.81484 2.814842,2.81484 h 5.152634 c 1.559178,0 2.897926,-1.25788 2.814842,-2.81484 l -1.216657,-22.80135 a 0.66613258,0.66613258 43.472826 0 0 -0.665186,-0.63064 l -7.198899,0 a 0.54725512,0.54725512 136.44293 0 0 -0.546561,0.5197 z"
         inkscape:path-effect="#path-effect7071"
         inkscape:original-d="m 46.458726,150.04007 -1.181213,23.43199 c -0.07848,1.5572 1.255665,2.81484 2.814842,2.81484 h 5.152634 c 1.559178,0 2.897926,-1.25788 2.814842,-2.81484 l -1.250307,-23.43199 z" /><path
         id="path4235"
         style="fill:#6e5b4d;fill-opacity:1;stroke-width:0.0877272;stroke-linecap:round;stroke-linejoin:round;stroke-miterlimit:9.4"
         d="m 46.961695,150.55977 -1.155015,22.91229 c -0.07848,1.5572 1.255665,2.81484 2.814842,2.81484 h 5.152634 c 1.559178,0 2.897926,-1.25788 2.814842,-2.81484 l -1.216657,-22.80135 a 0.66613258,0.66613258 43.472826 0 0 -0.665186,-0.63064 l -7.198899,0 a 0.54725512,0.54725512 136.44293 0 0 -0.546561,0.5197 z"
         inkscape:path-effect="#path-effect4238"
         inkscape:original-d="m 46.987893,150.04007 -1.181213,23.43199 c -0.07848,1.5572 1.255665,2.81484 2.814842,2.81484 h 5.152634 c 1.559178,0 2.897926,-1.25788 2.814842,-2.81484 l -1.250307,-23.43199 z" /></g><g
       id="g14044"
       transform="translate(126.88333)"
       style="display:inline;filter:url(#filter23502)"
       inkscape:label="spoon"><g
         id="g13658"
         transform="translate(36.939782,-8.4785411)"><path
           id="path13643"
           style="opacity:1;fill:#c1c3c3;fill-opacity:1;stroke-width:0.075454;stroke-linecap:round;stroke-linejoin:round;stroke-miterlimit:9.4"
           d="m -11.043512,135.01131 c 1.370541,0.36724 -0.0096,0 -0.0096,0 1.341047,0 2.349201,1.08153 2.420662,2.42067 l 2.284367,42.808 c 0.07146,1.33914 -1.079615,2.42067 -2.420662,2.42067 h -4.432273 c -1.341047,0 -2.488164,-1.08132 -2.420662,-2.42067 l 2.157457,-42.808 c 0.0675,-1.33935 1.125311,-2.76776 2.420663,-2.42067 z"
           sodipodi:nodetypes="sssssssss" /><path
           id="path13645"
           style="opacity:1;fill:url(#linearGradient13653);fill-opacity:1;stroke-width:0.075454;stroke-linecap:round;stroke-linejoin:round;stroke-miterlimit:9.4"
           d="m -10.514345,135.01131 c 1.370541,0.36724 -0.0096,0 -0.0096,0 1.341047,0 2.349201,1.08153 2.420662,2.42067 l 2.284367,42.808 c 0.07146,1.33914 -1.079615,2.42067 -2.420662,2.42067 h -4.432273 c -1.341047,0 -2.488164,-1.08132 -2.420663,-2.42067 l 2.157458,-42.808 c 0.0675,-1.33935 1.125311,-2.76776 2.420663,-2.42067 z"
           sodipodi:nodetypes="sssssssss" /><path
           id="path13893"
           style="opacity:1;fill:#996e5e;fill-opacity:1;stroke-width:0.0877272;stroke-linecap:round;stroke-linejoin:round;stroke-miterlimit:9.4"
           d="m -15.221054,158.76967 -1.155015,22.91229 c -0.07848,1.5572 1.255665,2.81484 2.814842,2.81484 h 5.1526343 c 1.559178,0 2.897926,-1.25788 2.814842,-2.81484 l -1.2166568,-22.80135 a 0.66613258,0.66613258 43.472826 0 0 -0.6651862,-0.63064 h -7.1988993 a 0.54725512,0.54725512 136.44293 0 0 -0.546561,0.5197 z"
           inkscape:path-effect="#path-effect13897"
           inkscape:original-d="m -15.194856,158.24997 -1.181213,23.43199 c -0.07848,1.5572 1.255665,2.81484 2.814842,2.81484 h 5.1526343 c 1.559178,0 2.897926,-1.25788 2.814842,-2.81484 l -1.250307,-23.43199 z" /><path
           id="path13647"
           style="opacity:1;fill:#6e5b4d;fill-opacity:1;stroke-width:0.0877272;stroke-linecap:round;stroke-linejoin:round;stroke-miterlimit:9.4"
           d="m -14.691887,158.76967 -1.155015,22.91229 c -0.07848,1.5572 1.255665,2.81484 2.814842,2.81484 h 5.152634 c 1.559178,0 2.897926,-1.25788 2.814842,-2.81484 l -1.2166568,-22.80135 a 0.66613258,0.66613258 43.472826 0 0 -0.6651863,-0.63064 h -7.1988989 a 0.54725512,0.54725512 136.44293 0 0 -0.546561,0.5197 z"
           inkscape:path-effect="#path-effect13651"
           inkscape:original-d="m -14.665689,158.24997 -1.181213,23.43199 c -0.07848,1.5572 1.255665,2.81484 2.814842,2.81484 h 5.152634 c 1.559178,0 2.897926,-1.25788 2.814842,-2.81484 l -1.250307,-23.43199 z" /></g><path
         id="rect3162"
         style="opacity:1;fill:url(#linearGradient13503);fill-opacity:1;stroke-width:0.0805003;stroke-linecap:round;stroke-linejoin:round;stroke-miterlimit:9.4"
         d="m 26.484227,109.92604 c 4.78178,0 8.003951,3.70131 9.517373,7.89833 0.793982,2.20187 0.793982,4.948 0,7.14987 -1.513422,4.19702 -4.735593,7.89833 -8.389317,9.63679 -0.694792,0.33059 -1.561319,0.33059 -2.256111,0 -3.653724,-1.73846 -6.875896,-5.43977 -8.389318,-9.63679 -0.793983,-2.20187 -0.793983,-4.948 0,-7.14987 1.513422,-4.19702 4.735594,-7.89833 9.517373,-7.89833 z"
         sodipodi:nodetypes="caaaaaac" /><path
         id="path12184"
         style="opacity:0.740741;fill:#bfc5c5;fill-opacity:1;stroke-width:0.0655134;stroke-linecap:round;stroke-linejoin:round;stroke-miterlimit:9.4"
         d="m 26.484227,112.24695 c 3.891547,0 6.51384,3.01223 7.745506,6.42788 0.646165,1.79194 0.646165,4.02682 0,5.81876 -1.231666,3.41566 -3.853959,6.42789 -6.827462,7.84269 -0.565442,0.26905 -1.270646,0.26905 -1.836087,0 -2.973503,-1.4148 -5.595797,-4.42703 -6.827463,-7.84269 -0.646166,-1.79194 -0.646166,-4.02682 0,-5.81876 1.231666,-3.41565 3.85396,-6.42788 7.745506,-6.42788 z"
         sodipodi:nodetypes="caaaaaac" /></g><circle
       style="display:inline;fill:#f3eae5;fill-opacity:1;fill-rule:evenodd;stroke-width:0.193254;filter:url(#filter27988)"
       id="circle27059"
       cx="0.56414723"
       cy="139.27945"
       r="31.67453"
       transform="matrix(0.95768871,0,0,0.95768871,103.38875,9.3291156)" /></g></svg>
