<?xml version="1.0" encoding="UTF-8" standalone="no"?>
<!-- Created with Inkscape (http://www.inkscape.org/) -->

<svg
   width="119.32708mm"
   height="121.70834mm"
   viewBox="0 0 119.32708 121.70834"
   version="1.1"
   id="svg1797"
   xml:space="preserve"
   inkscape:version="1.2 (dc2aedaf03, 2022-05-15)"
   sodipodi:docname="Highlighted Background_Dino.svg"
   xmlns:inkscape="http://www.inkscape.org/namespaces/inkscape"
   xmlns:sodipodi="http://sodipodi.sourceforge.net/DTD/sodipodi-0.dtd"
   xmlns:xlink="http://www.w3.org/1999/xlink"
   xmlns="http://www.w3.org/2000/svg"
   xmlns:svg="http://www.w3.org/2000/svg"><sodipodi:namedview
     id="namedview1799"
     pagecolor="#505050"
     bordercolor="#ffffff"
     borderopacity="1"
     inkscape:showpageshadow="0"
     inkscape:pageopacity="0"
     inkscape:pagecheckerboard="1"
     inkscape:deskcolor="#505050"
     inkscape:document-units="mm"
     showgrid="false"
     inkscape:zoom="0.7660845"
     inkscape:cx="75.709664"
     inkscape:cy="210.15958"
     inkscape:window-width="1366"
     inkscape:window-height="705"
     inkscape:window-x="-8"
     inkscape:window-y="-8"
     inkscape:window-maximized="1"
     inkscape:current-layer="g1904" /><defs
     id="defs1794"><linearGradient
       inkscape:collect="always"
       id="linearGradient1089"><stop
         style="stop-color:#fffab5;stop-opacity:1;"
         offset="0"
         id="stop1085" /><stop
         style="stop-color:#ff7f67;stop-opacity:1;"
         offset="1"
         id="stop1087" /></linearGradient><inkscape:path-effect
       effect="mirror_symmetry"
       start_point="66.945015,148.48136"
       end_point="66.945015,192.95043"
       center_point="66.945015,170.71589"
       id="path-effect1651"
       is_visible="true"
       lpeversion="1.2"
       lpesatellites=""
       mode="vertical"
       discard_orig_path="false"
       fuse_paths="false"
       oposite_fuse="false"
       split_items="false"
       split_open="false"
       link_styles="false" /><inkscape:path-effect
       effect="fillet_chamfer"
       id="path-effect1471"
       is_visible="true"
       lpeversion="1"
       nodesatellites_param="F,0,0,1,0,0,0,1 @ F,0,0,1,0,0,0,1 @ F,0,0,1,0,0,0,1 @ F,0,0,1,0,0,0,1 @ F,0,0,1,0,0,0,1 @ F,0,0,1,0,0,0,1 @ F,0,0,1,0,4.7416637,0,1 @ F,0,0,1,0,0,0,1 @ F,0,0,1,0,0,0,1 @ F,0,0,1,0,0,0,1 @ F,0,0,1,0,4.4121889,0,1 @ F,0,0,1,0,0,0,1 @ F,0,0,1,0,0,0,1 @ F,0,0,1,0,0,0,1 @ F,0,0,1,0,0,0,1 @ F,0,0,1,0,0,0,1 @ F,0,0,1,0,0,0,1"
       unit="px"
       method="auto"
       mode="F"
       radius="0"
       chamfer_steps="1"
       flexible="false"
       use_knot_distance="true"
       apply_no_radius="true"
       apply_with_radius="true"
       only_selected="false"
       hide_knots="false" /><inkscape:path-effect
       effect="fillet_chamfer"
       id="path-effect415"
       is_visible="true"
       lpeversion="1"
       nodesatellites_param="F,0,0,1,0,0,0,1 @ F,0,0,1,0,0,0,1 @ F,0,0,1,0,0,0,1 @ F,0,0,1,0,0,0,1 @ F,0,0,1,0,0,0,1 @ F,0,0,1,0,0,0,1 @ F,0,0,1,0,4.7416637,0,1 @ F,0,0,1,0,0,0,1 @ F,0,0,1,0,0,0,1 @ F,0,0,1,0,0,0,1 @ F,0,0,1,0,4.4121889,0,1 @ F,0,0,1,0,0,0,1 @ F,0,0,1,0,0,0,1 @ F,0,0,1,0,0,0,1 @ F,0,0,1,0,0,0,1 @ F,0,0,1,0,0,0,1 @ F,0,0,1,0,0,0,1"
       unit="px"
       method="auto"
       mode="F"
       radius="0"
       chamfer_steps="1"
       flexible="false"
       use_knot_distance="true"
       apply_no_radius="true"
       apply_with_radius="true"
       only_selected="false"
       hide_knots="false" /><inkscape:path-effect
       effect="fillet_chamfer"
       id="path-effect2438"
       is_visible="true"
       lpeversion="1"
       nodesatellites_param="F,0,0,1,0,0,0,1 @ F,0,0,1,0,0,0,1 @ F,0,0,1,0,0,0,1 @ F,0,0,1,0,0,0,1 @ F,0,0,1,0,0,0,1 @ F,0,0,1,0,0,0,1 @ F,0,0,1,0,0,0,1 @ F,0,0,1,0,0,0,1 @ F,0,0,1,0,0,0,1 @ F,0,0,1,0,0,0,1 @ F,0,0,1,0,0,0,1 @ F,0,0,1,0,0,0,1 @ F,0,0,1,0,0,0,1 @ F,0,0,1,0,0,0,1 @ F,0,0,1,0,0,0,1 @ F,0,0,1,0,0,0,1 @ F,0,0,1,0,0,0,1"
       unit="px"
       method="auto"
       mode="F"
       radius="0"
       chamfer_steps="1"
       flexible="false"
       use_knot_distance="true"
       apply_no_radius="true"
       apply_with_radius="true"
       only_selected="false"
       hide_knots="false" /><inkscape:path-effect
       effect="fillet_chamfer"
       id="path-effect2434"
       is_visible="true"
       lpeversion="1"
       nodesatellites_param="F,0,0,1,0,0,0,1 @ F,0,0,1,0,0,0,1 @ F,0,0,1,0,0,0,1 @ F,0,0,1,0,0,0,1 @ F,0,0,1,0,0,0,1 @ F,0,0,1,0,0,0,1 @ F,0,0,1,0,0,0,1 @ F,0,0,1,0,0,0,1 @ F,0,0,1,0,0,0,1 @ F,0,0,1,0,0,0,1 @ F,0,0,1,0,0,0,1 @ F,0,0,1,0,0,0,1 @ F,0,0,1,0,0,0,1 @ F,0,0,1,0,0,0,1 @ F,0,0,1,0,0,0,1 @ F,0,0,1,0,0,0,1 @ F,0,0,1,0,0,0,1"
       unit="px"
       method="auto"
       mode="F"
       radius="0"
       chamfer_steps="1"
       flexible="false"
       use_knot_distance="true"
       apply_no_radius="true"
       apply_with_radius="true"
       only_selected="false"
       hide_knots="false" /><inkscape:path-effect
       effect="fillet_chamfer"
       id="path-effect2424"
       is_visible="true"
       lpeversion="1"
       nodesatellites_param="F,0,0,1,0,0,0,1 @ F,0,0,1,0,0,0,1 @ F,0,0,1,0,0,0,1 @ F,0,0,1,0,0,0,1 @ F,0,0,1,0,0,0,1 @ F,0,0,1,0,0,0,1 @ F,0,0,1,0,0,0,1 @ F,0,0,1,0,0,0,1 @ F,0,0,1,0,0,0,1 @ F,0,0,1,0,0,0,1 @ F,0,0,1,0,0,0,1 @ F,0,0,1,0,0,0,1 @ F,0,0,1,0,0,0,1 @ F,0,0,1,0,0,0,1 @ F,0,0,1,0,0,0,1 @ F,0,0,1,0,0,0,1 @ F,0,0,1,0,0,0,1"
       unit="px"
       method="auto"
       mode="F"
       radius="0"
       chamfer_steps="1"
       flexible="false"
       use_knot_distance="true"
       apply_no_radius="true"
       apply_with_radius="true"
       only_selected="false"
       hide_knots="false" /><inkscape:path-effect
       effect="fillet_chamfer"
       id="path-effect2420"
       is_visible="true"
       lpeversion="1"
       nodesatellites_param="F,0,0,1,0,0,0,1 @ F,0,0,1,0,0,0,1 @ F,0,0,1,0,0,0,1 @ F,0,0,1,0,0,0,1 @ F,0,0,1,0,0,0,1 @ F,0,0,1,0,0,0,1 @ F,0,0,1,0,0,0,1 @ F,0,0,1,0,0,0,1 @ F,0,0,1,0,0,0,1 @ F,0,0,1,0,0,0,1 @ F,0,0,1,0,0,0,1 @ F,0,0,1,0,0,0,1 @ F,0,0,1,0,0,0,1 @ F,0,0,1,0,0,0,1 @ F,0,0,1,0,0,0,1 @ F,0,0,1,0,0,0,1 @ F,0,0,1,0,0,0,1"
       unit="px"
       method="auto"
       mode="F"
       radius="0"
       chamfer_steps="1"
       flexible="false"
       use_knot_distance="true"
       apply_no_radius="true"
       apply_with_radius="true"
       only_selected="false"
       hide_knots="false" /><inkscape:path-effect
       effect="fillet_chamfer"
       id="path-effect2406"
       is_visible="true"
       lpeversion="1"
       nodesatellites_param="F,0,0,1,0,0,0,1 @ F,0,0,1,0,0,0,1 @ F,0,0,1,0,0,0,1 @ F,0,0,1,0,0,0,1 @ F,0,0,1,0,0,0,1 @ F,0,0,1,0,0,0,1 @ F,0,0,1,0,0,0,1 @ F,0,0,1,0,0,0,1 @ F,0,0,1,0,0,0,1 @ F,0,0,1,0,0,0,1 @ F,0,0,1,0,0,0,1 @ F,0,0,1,0,0,0,1 @ F,0,0,1,0,0,0,1 @ F,0,0,1,0,0,0,1 @ F,0,0,1,0,0,0,1 @ F,0,0,1,0,0,0,1 @ F,0,0,1,0,0,0,1"
       unit="px"
       method="auto"
       mode="F"
       radius="0"
       chamfer_steps="1"
       flexible="false"
       use_knot_distance="true"
       apply_no_radius="true"
       apply_with_radius="true"
       only_selected="false"
       hide_knots="false" /><inkscape:path-effect
       effect="fillet_chamfer"
       id="path-effect2382"
       is_visible="true"
       lpeversion="1"
       nodesatellites_param="F,0,0,1,0,0,0,1 @ F,0,0,1,0,0,0,1 @ F,0,0,1,0,0,0,1 @ F,0,0,1,0,0,0,1 @ F,0,0,1,0,0,0,1 @ F,0,0,1,0,0,0,1 @ F,0,0,1,0,0,0,1 @ F,0,0,1,0,0,0,1 @ F,0,0,1,0,0,0,1 @ F,0,0,1,0,0,0,1 @ F,0,0,1,0,0,0,1 @ F,0,0,1,0,0,0,1 @ F,0,0,1,0,0,0,1 @ F,0,0,1,0,0,0,1 @ F,0,0,1,0,0,0,1 @ F,0,0,1,0,0,0,1 @ F,0,0,1,0,0,0,1"
       unit="px"
       method="auto"
       mode="F"
       radius="0"
       chamfer_steps="1"
       flexible="false"
       use_knot_distance="true"
       apply_no_radius="true"
       apply_with_radius="true"
       only_selected="false"
       hide_knots="false" /><inkscape:path-effect
       effect="mirror_symmetry"
       start_point="170.63433,108.10156"
       end_point="170.63433,154.42632"
       center_point="170.63433,131.26394"
       id="path-effect438"
       is_visible="true"
       lpeversion="1.2"
       lpesatellites=""
       mode="vertical"
       discard_orig_path="false"
       fuse_paths="false"
       oposite_fuse="false"
       split_items="false"
       split_open="false"
       link_styles="false" /><inkscape:path-effect
       effect="fillet_chamfer"
       id="path-effect4177"
       is_visible="true"
       lpeversion="1"
       nodesatellites_param="F,0,0,1,0,0,0,1 @ F,0,0,1,0,0,0,1 @ F,0,0,1,0,0,0,1 @ F,0,0,1,0,3.48239,0,1 @ F,0,0,1,0,0,0,1 @ F,0,0,1,0,0,0,1 @ F,0,0,1,0,0,0,1 @ F,0,0,1,0,0,0,1 @ F,0,0,1,0,0,0,1 @ F,0,0,1,0,0,0,1 @ F,0,0,1,0,0,0,1 @ F,0,0,1,0,0,0,1 @ F,0,0,1,0,0,0,1 @ F,0,0,1,0,0,0,1 @ F,0,0,1,0,0,0,1 @ F,0,0,1,0,0,0,1 @ F,0,0,1,0,0,0,1"
       unit="px"
       method="auto"
       mode="F"
       radius="0"
       chamfer_steps="1"
       flexible="false"
       use_knot_distance="true"
       apply_no_radius="true"
       apply_with_radius="true"
       only_selected="false"
       hide_knots="false" /><inkscape:path-effect
       effect="fillet_chamfer"
       id="path-effect3912"
       is_visible="true"
       lpeversion="1"
       nodesatellites_param="F,0,0,1,0,0,0,1 @ F,0,0,1,0,0,0,1 @ F,0,0,1,0,0,0,1 @ F,0,0,1,0,3.48239,0,1 @ F,0,0,1,0,0,0,1 @ F,0,0,1,0,0,0,1 @ F,0,0,1,0,0,0,1 @ F,0,0,1,0,0,0,1 @ F,0,0,1,0,0,0,1 @ F,0,0,1,0,0,0,1 @ F,0,0,1,0,0,0,1 @ F,0,0,1,0,0,0,1 @ F,0,0,1,0,0,0,1 @ F,0,0,1,0,0,0,1 @ F,0,0,1,0,0,0,1 @ F,0,0,1,0,0,0,1 @ F,0,0,1,0,0,0,1"
       unit="px"
       method="auto"
       mode="F"
       radius="0"
       chamfer_steps="1"
       flexible="false"
       use_knot_distance="true"
       apply_no_radius="true"
       apply_with_radius="true"
       only_selected="false"
       hide_knots="false" /><inkscape:path-effect
       effect="fillet_chamfer"
       id="path-effect3789"
       is_visible="true"
       lpeversion="1"
       nodesatellites_param="F,0,0,1,0,0,0,1 @ F,0,0,1,0,0,0,1 @ F,0,0,1,0,0,0,1 @ F,0,0,1,0,3.48239,0,1 @ F,0,0,1,0,0,0,1 @ F,0,0,1,0,0,0,1 @ F,0,0,1,0,0,0,1 @ F,0,0,1,0,0,0,1 @ F,0,0,1,0,0,0,1 @ F,0,0,1,0,0,0,1 @ F,0,0,1,0,0,0,1 @ F,0,0,1,0,0,0,1 @ F,0,0,1,0,0,0,1 @ F,0,0,1,0,0,0,1 @ F,0,0,1,0,0,0,1 @ F,0,0,1,0,0,0,1 @ F,0,0,1,0,0,0,1"
       unit="px"
       method="auto"
       mode="F"
       radius="0"
       chamfer_steps="1"
       flexible="false"
       use_knot_distance="true"
       apply_no_radius="true"
       apply_with_radius="true"
       only_selected="false"
       hide_knots="false" /><inkscape:path-effect
       effect="fillet_chamfer"
       id="path-effect3783"
       is_visible="true"
       lpeversion="1"
       nodesatellites_param="F,0,0,1,0,0,0,1 @ F,0,0,1,0,0,0,1 @ F,0,0,1,0,0,0,1 @ F,0,0,1,0,0,0,1 @ F,0,0,1,0,0,0,1 @ F,0,0,1,0,0,0,1 @ F,0,0,1,0,0,0,1 @ F,0,0,1,0,0,0,1 @ F,0,0,1,0,0,0,1 @ F,0,0,1,0,0,0,1 @ F,0,0,1,0,0,0,1 @ F,0,0,1,0,0,0,1 @ F,0,0,1,0,0,0,1 @ F,0,0,1,0,0,0,1 @ F,0,0,1,0,0,0,1 @ F,0,0,1,0,0,0,1 @ F,0,0,1,0,0,0,1"
       unit="px"
       method="auto"
       mode="F"
       radius="0"
       chamfer_steps="1"
       flexible="false"
       use_knot_distance="true"
       apply_no_radius="true"
       apply_with_radius="true"
       only_selected="false"
       hide_knots="false" /><inkscape:path-effect
       effect="fillet_chamfer"
       id="path-effect3777"
       is_visible="true"
       lpeversion="1"
       nodesatellites_param="F,0,0,1,0,0,0,1 @ F,0,0,1,0,0,0,1 @ F,0,0,1,0,0,0,1 @ F,0,0,1,0,0,0,1 @ F,0,0,1,0,0,0,1 @ F,0,0,1,0,0,0,1 @ F,0,0,1,0,0,0,1 @ F,0,0,1,0,0,0,1 @ F,0,0,1,0,0,0,1 @ F,0,0,1,0,0,0,1 @ F,0,0,1,0,0,0,1 @ F,0,0,1,0,0,0,1 @ F,0,0,1,0,0,0,1 @ F,0,0,1,0,0,0,1 @ F,0,0,1,0,0,0,1 @ F,0,0,1,0,0,0,1 @ F,0,0,1,0,0,0,1"
       unit="px"
       method="auto"
       mode="F"
       radius="0"
       chamfer_steps="1"
       flexible="false"
       use_knot_distance="true"
       apply_no_radius="true"
       apply_with_radius="true"
       only_selected="false"
       hide_knots="false" /><inkscape:path-effect
       effect="fillet_chamfer"
       id="path-effect3219"
       is_visible="true"
       lpeversion="1"
       nodesatellites_param="F,0,0,1,0,0,0,1 @ F,0,0,1,0,0,0,1 @ F,0,0,1,0,0,0,1 @ F,0,0,1,0,3.48239,0,1 @ F,0,0,1,0,0,0,1 @ F,0,0,1,0,0,0,1 @ F,0,0,1,0,0,0,1 @ F,0,0,1,0,0,0,1 @ F,0,0,1,0,0,0,1 @ F,0,0,1,0,0,0,1 @ F,0,0,1,0,0,0,1 @ F,0,0,1,0,0,0,1 @ F,0,0,1,0,0,0,1 @ F,0,0,1,0,0,0,1 @ F,0,0,1,0,0,0,1 @ F,0,0,1,0,0,0,1"
       unit="px"
       method="auto"
       mode="F"
       radius="0"
       chamfer_steps="1"
       flexible="false"
       use_knot_distance="true"
       apply_no_radius="true"
       apply_with_radius="true"
       only_selected="false"
       hide_knots="false" /><inkscape:path-effect
       effect="fillet_chamfer"
       id="path-effect3213"
       is_visible="true"
       lpeversion="1"
       nodesatellites_param="F,0,0,1,0,0,0,1 @ F,0,0,1,0,0,0,1 @ F,0,0,1,0,0,0,1 @ F,0,0,1,0,0,0,1 @ F,0,0,1,0,0,0,1 @ F,0,0,1,0,0,0,1 @ F,0,0,1,0,0,0,1 @ F,0,0,1,0,0,0,1 @ F,0,0,1,0,0,0,1 @ F,0,0,1,0,0,0,1 @ F,0,0,1,0,0,0,1 @ F,0,0,1,0,0,0,1 @ F,0,0,1,0,0,0,1 @ F,0,0,1,0,0,0,1 @ F,0,0,1,0,0,0,1 @ F,0,0,1,0,0,0,1 @ F,0,0,1,0,0,0,1"
       unit="px"
       method="auto"
       mode="F"
       radius="0"
       chamfer_steps="1"
       flexible="false"
       use_knot_distance="true"
       apply_no_radius="true"
       apply_with_radius="true"
       only_selected="false"
       hide_knots="false" /><inkscape:path-effect
       effect="fillet_chamfer"
       id="path-effect3089"
       is_visible="true"
       lpeversion="1"
       nodesatellites_param="F,0,0,1,0,0,0,1 @ F,0,0,1,0,0,0,1 @ F,0,0,1,0,0,0,1 @ F,0,0,1,0,3.48239,0,1 @ F,0,0,1,0,0,0,1 @ F,0,0,1,0,0,0,1 @ F,0,0,1,0,0,0,1 @ F,0,0,1,0,0,0,1 @ F,0,0,1,0,0,0,1 @ F,0,0,1,0,0,0,1 @ F,0,0,1,0,0,0,1 @ F,0,0,1,0,0,0,1 @ F,0,0,1,0,0,0,1 @ F,0,0,1,0,0,0,1 @ F,0,0,1,0,0,0,1 @ F,0,0,1,0,0,0,1 @ F,0,0,1,0,0,0,1"
       unit="px"
       method="auto"
       mode="F"
       radius="0"
       chamfer_steps="1"
       flexible="false"
       use_knot_distance="true"
       apply_no_radius="true"
       apply_with_radius="true"
       only_selected="false"
       hide_knots="false" /><inkscape:path-effect
       effect="fillet_chamfer"
       id="path-effect618"
       is_visible="true"
       lpeversion="1"
       nodesatellites_param="F,0,0,1,0,0,0,1 @ F,0,0,1,0,0,0,1 @ F,0,0,1,0,0,0,1 @ F,0,0,1,0,0,0,1 @ F,0,0,1,0,0,0,1 @ F,0,0,1,0,0,0,1 @ F,0,0,1,0,0,0,1 @ F,0,0,1,0,0,0,1 @ F,0,0,1,0,0,0,1 @ F,0,0,1,0,0,0,1 @ F,0,0,1,0,0,0,1 @ F,0,0,1,0,0,0,1 @ F,0,0,1,0,0,0,1 @ F,0,0,1,0,0,0,1 @ F,0,0,1,0,0,0,1 @ F,0,0,1,0,0,0,1 @ F,0,0,1,0,0,0,1"
       unit="px"
       method="auto"
       mode="F"
       radius="0"
       chamfer_steps="1"
       flexible="false"
       use_knot_distance="true"
       apply_no_radius="true"
       apply_with_radius="true"
       only_selected="false"
       hide_knots="false" /><inkscape:path-effect
       effect="fillet_chamfer"
       id="path-effect26620"
       is_visible="true"
       lpeversion="1"
       nodesatellites_param="F,0,0,1,0,0,0,1 @ F,0,0,1,0,0,0,1 @ F,0,0,1,0,0,0,1 @ F,0,0,1,0,3.48239,0,1 @ F,0,0,1,0,0,0,1 @ F,0,0,1,0,0,0,1 @ F,0,0,1,0,4.7416637,0,1 @ F,0,0,1,0,0,0,1 @ F,0,0,1,0,0,0,1 @ F,0,0,1,0,0,0,1 @ F,0,0,1,0,4.4121889,0,1 @ F,0,0,1,0,11.637746,0,1 @ F,0,0,1,0,3.9102903,0,1 @ F,0,0,1,0,0,0,1 @ F,0,0,1,0,0,0,1 @ F,0,0,1,0,5.0802307,0,1"
       unit="px"
       method="auto"
       mode="F"
       radius="0"
       chamfer_steps="1"
       flexible="false"
       use_knot_distance="true"
       apply_no_radius="true"
       apply_with_radius="true"
       only_selected="false"
       hide_knots="false" /><linearGradient
       inkscape:collect="always"
       id="linearGradient25801"><stop
         style="stop-color:#8ec8a5;stop-opacity:1;"
         offset="0"
         id="stop25799" /><stop
         style="stop-color:#5aae7a;stop-opacity:1;"
         offset="1"
         id="stop25797" /></linearGradient><linearGradient
       inkscape:collect="always"
       id="linearGradient25791"><stop
         style="stop-color:#ffffff;stop-opacity:1;"
         offset="0"
         id="stop25789" /><stop
         style="stop-color:#7bca99;stop-opacity:1;"
         offset="1"
         id="stop25787" /></linearGradient><inkscape:path-effect
       effect="mirror_symmetry"
       start_point="-58.725301,169.24784"
       end_point="-58.725301,256.28856"
       center_point="-58.725301,212.7682"
       id="path-effect25785"
       is_visible="true"
       lpeversion="1.2"
       lpesatellites=""
       mode="vertical"
       discard_orig_path="false"
       fuse_paths="false"
       oposite_fuse="false"
       split_items="false"
       split_open="false"
       link_styles="false" /><inkscape:path-effect
       effect="mirror_symmetry"
       start_point="-3.0323982,198.65889"
       end_point="-3.0323982,218.93732"
       center_point="-3.0323982,208.7981"
       id="path-effect25783"
       is_visible="true"
       lpeversion="1.2"
       lpesatellites=""
       mode="vertical"
       discard_orig_path="false"
       fuse_paths="false"
       oposite_fuse="false"
       split_items="false"
       split_open="false"
       link_styles="false" /><inkscape:path-effect
       effect="fillet_chamfer"
       id="path-effect22651"
       is_visible="true"
       lpeversion="1"
       nodesatellites_param="F,0,0,1,0,2.2391793,0,1 @ F,0,0,1,0,0,0,1 @ F,0,0,1,0,0,0,1 @ F,0,0,1,0,2.7796964,0,1 @ F,0,1,1,0,2.7796964,0,1"
       unit="px"
       method="auto"
       mode="F"
       radius="0"
       chamfer_steps="1"
       flexible="false"
       use_knot_distance="true"
       apply_no_radius="true"
       apply_with_radius="true"
       only_selected="false"
       hide_knots="false" /><inkscape:path-effect
       effect="mirror_symmetry"
       start_point="69.608471,172.60554"
       end_point="69.608471,182.75412"
       center_point="69.608471,177.67983"
       id="path-effect25702"
       is_visible="true"
       lpeversion="1.2"
       lpesatellites=""
       mode="vertical"
       discard_orig_path="false"
       fuse_paths="false"
       oposite_fuse="false"
       split_items="false"
       split_open="false"
       link_styles="false" /><linearGradient
       inkscape:collect="always"
       id="linearGradient9215"><stop
         style="stop-color:#6f783d;stop-opacity:1;"
         offset="0"
         id="stop9211" /><stop
         style="stop-color:#c1c743;stop-opacity:1;"
         offset="1"
         id="stop9213" /></linearGradient><inkscape:path-effect
       effect="mirror_symmetry"
       start_point="69.608471,172.60554"
       end_point="69.608471,182.75412"
       center_point="69.608471,177.67983"
       id="path-effect8079"
       is_visible="true"
       lpeversion="1.2"
       lpesatellites=""
       mode="vertical"
       discard_orig_path="false"
       fuse_paths="false"
       oposite_fuse="false"
       split_items="false"
       split_open="false"
       link_styles="false" /><inkscape:path-effect
       effect="mirror_symmetry"
       start_point="103.97692,139.9594"
       end_point="103.97692,165.86641"
       center_point="103.97692,152.9129"
       id="path-effect6466"
       is_visible="true"
       lpeversion="1.2"
       lpesatellites=""
       mode="free"
       discard_orig_path="false"
       fuse_paths="true"
       oposite_fuse="false"
       split_items="false"
       split_open="false"
       link_styles="false" /><linearGradient
       inkscape:collect="always"
       id="linearGradient1843"><stop
         style="stop-color:#fffab5;stop-opacity:1;"
         offset="0"
         id="stop1839" /><stop
         style="stop-color:#ffaa9a;stop-opacity:1;"
         offset="1"
         id="stop1841" /></linearGradient><linearGradient
       inkscape:collect="always"
       xlink:href="#linearGradient1089"
       id="linearGradient1845"
       x1="103.63087"
       y1="130.07936"
       x2="103.05769"
       y2="92.617531"
       gradientUnits="userSpaceOnUse" /><linearGradient
       inkscape:collect="always"
       xlink:href="#linearGradient9215"
       id="linearGradient9217"
       x1="103.97691"
       y1="152.47414"
       x2="103.97691"
       y2="189.38972"
       gradientUnits="userSpaceOnUse"
       gradientTransform="matrix(1,0,0,1.2949441,0,-44.971344)" /><linearGradient
       inkscape:collect="always"
       xlink:href="#linearGradient25791"
       id="linearGradient25793"
       x1="-58.857635"
       y1="281.80252"
       x2="-57.177406"
       y2="202.73903"
       gradientUnits="userSpaceOnUse" /><linearGradient
       inkscape:collect="always"
       xlink:href="#linearGradient25801"
       id="linearGradient25803"
       x1="-59.012978"
       y1="222.04681"
       x2="-59.145401"
       y2="208.00749"
       gradientUnits="userSpaceOnUse" /><filter
       inkscape:label="Lapping"
       inkscape:menu="Distort"
       inkscape:menu-tooltip="Something like a water noise"
       height="1.152117"
       y="-0.076058504"
       width="1.0797605"
       x="-0.039880235"
       style="color-interpolation-filters:sRGB"
       id="filter25867"><feTurbulence
         numOctaves="5"
         seed="0"
         type="fractalNoise"
         baseFrequency="0.1"
         result="result1"
         id="feTurbulence25861" /><feGaussianBlur
         stdDeviation="2"
         result="result2"
         id="feGaussianBlur25863" /><feDisplacementMap
         scale="50"
         yChannelSelector="B"
         xChannelSelector="R"
         in="SourceGraphic"
         in2="result2"
         id="feDisplacementMap25865" /></filter><clipPath
       clipPathUnits="userSpaceOnUse"
       id="clipPath1906"><rect
         style="fill:url(#linearGradient1910);fill-opacity:1;stroke-width:0.636183;stroke-linecap:round;stroke-linejoin:round"
         id="rect1908"
         width="119.32708"
         height="121.70834"
         x="44.313374"
         y="78.569412"
         ry="0"
         inkscape:label="bg" /></clipPath><linearGradient
       inkscape:collect="always"
       xlink:href="#linearGradient1843"
       id="linearGradient1910"
       gradientUnits="userSpaceOnUse"
       gradientTransform="translate(2.1875e-6)"
       x1="103.63087"
       y1="130.07936"
       x2="103.05769"
       y2="92.617531" /></defs><g
     inkscape:label="Layer 1"
     inkscape:groupmode="layer"
     id="layer1"
     transform="translate(-44.313374,-78.569412)"><path
       id="rect11889"
       style="display:inline;opacity:0.207407;fill:#000000;fill-opacity:1;stroke:none;stroke-width:0.1;stroke-linecap:round;stroke-linejoin:round;stroke-miterlimit:9.4"
       d="M 48.838162,78.569412 H 47.85786 c -0.122734,0 -0.243834,0.006 -0.363285,0.01809 -0.119451,0.01206 -0.236851,0.03021 -0.352433,0.05374 -0.115582,0.02353 -0.229419,0.0524 -0.340548,0.08682 -0.111129,0.03442 -0.219987,0.07413 -0.326078,0.118855 -0.106091,0.04472 -0.209075,0.0949 -0.309542,0.149345 -0.100467,0.05444 -0.19823,0.113158 -0.292489,0.176734 -0.09426,0.06358 -0.185385,0.131998 -0.272851,0.204122 -0.08747,0.07212 -0.17106,0.148322 -0.251148,0.228409 -0.08009,0.08009 -0.156285,0.163682 -0.228409,0.251148 -0.07212,0.08747 -0.140547,0.178593 -0.204122,0.272851 -0.06358,0.09426 -0.122292,0.192022 -0.176734,0.292489 -0.05444,0.100467 -0.104621,0.203451 -0.149345,0.309542 -0.04472,0.106091 -0.08443,0.214949 -0.118855,0.326078 -0.03442,0.111129 -0.06329,0.224966 -0.08682,0.340548 -0.02353,0.115582 -0.04169,0.232982 -0.05374,0.352433 -0.01206,0.119451 -0.01809,0.240551 -0.01809,0.363285 V 196.73326 c 0,0.12273 0.006,0.24383 0.01809,0.36328 0.01206,0.11945 0.03021,0.23686 0.05374,0.35244 0.02353,0.11558 0.0524,0.22942 0.08682,0.34055 0.03442,0.11112 0.07413,0.21998 0.118855,0.32607 0.04472,0.10609 0.0949,0.20908 0.149345,0.30955 0.05444,0.10046 0.113158,0.19822 0.176734,0.29248 0.06358,0.0943 0.131998,0.18539 0.204122,0.27286 0.07212,0.0875 0.148322,0.17106 0.228409,0.25114 0.08009,0.0801 0.163682,0.15629 0.251148,0.22841 0.08747,0.0721 0.178593,0.14055 0.272851,0.20412 0.09426,0.0636 0.192022,0.12281 0.292489,0.17725 0.100467,0.0545 0.203451,0.10411 0.309542,0.14883 0.106091,0.0447 0.214949,0.0844 0.326078,0.11886 0.111129,0.0344 0.224966,0.0633 0.340548,0.0868 0.115582,0.0235 0.232982,0.0417 0.352433,0.0537 0.119451,0.0121 0.240551,0.0181 0.363285,0.0181 h 0.980302 z"
       sodipodi:insensitive="true" /><g
       id="g57010"><path
         id="path26608"
         style="fill:#ff0000;fill-rule:evenodd;stroke-width:0.159494"
         d="m 39.073427,-173.02207 c 2.755564,23.64055 3.419578,47.11449 2.57215,70.13462 6.579422,1.77448 25.742118,-0.23875 25.094114,-24.14182 -0.0016,-0.0608 -0.0035,-0.12163 -0.0055,-0.18256 -0.06455,-1.92123 -1.662815,-2.66707 -3.445044,-1.94681 -1.126511,0.45526 -1.870273,0.61081 -2.008963,0.38428 -0.258435,-0.43934 1.779681,-2.15188 4.775781,-4.01289 -0.67325,-3.35184 -1.801934,-6.81135 -3.232794,-10.22936 -1.011067,-2.41521 -2.702251,-3.79681 -3.649738,-3.23354 -3.386494,2.01176 -6.526232,2.9787 -7.012745,2.1597 -0.486806,-0.81888 1.864153,-3.11377 5.250836,-5.1256 1.037731,-0.61479 0.984022,-2.78235 -0.284035,-4.86292 -0.358987,-0.58901 -0.722595,-1.1707 -1.089814,-1.74409 -3.463594,-5.40817 -7.026481,-9.05561 -7.1815,-8.6879 -2.605496,5.24866 -3.403399,6.30522 -3.74281,6.1617 -0.535124,-0.22653 0.272498,-3.35145 1.803963,-6.98004 0.367143,-0.86711 -0.809174,-3.28484 -2.959338,-5.08447 -1.987302,-1.66332 -3.692951,-2.6083 -4.88452,-2.6083 z"
         inkscape:path-effect="#path-effect26620"
         inkscape:original-d="m 39.073427,-173.02207 c 2.755564,23.64055 3.419578,47.11449 2.57215,70.13462 6.579422,1.77448 25.742118,-0.23875 25.094114,-24.14182 -0.03231,-1.19148 -0.141389,-2.41041 -0.319297,-3.64905 a 1.0211756,7.1320315 59.287672 0 1 -5.140253,1.90396 1.0211756,7.1320315 59.287672 0 1 4.775781,-4.01289 c -0.958578,-4.77237 -2.840424,-9.76302 -5.203174,-14.54136 a 1.7248145,7.1320315 59.287672 0 1 -1.679358,1.07846 1.7248145,7.1320315 59.287672 0 1 -7.012745,2.1597 1.7248145,7.1320315 59.287672 0 1 5.250836,-5.1256 1.7248145,7.1320315 59.287672 0 1 1.919845,-1.04108 c -3.089323,-5.67701 -6.753257,-10.90906 -10.199507,-14.9217 a 1.0522669,7.1320315 22.882195 0 1 -0.275687,0.66787 1.0522669,7.1320315 22.882195 0 1 -3.74281,6.1617 1.0522669,7.1320315 22.882195 0 1 1.803963,-6.98004 1.0522669,7.1320315 22.882195 0 1 0.692801,-1.55786 c -3.514624,-3.7957 -6.661917,-6.13491 -8.536659,-6.13491 z" /><g
         id="g1904"
         clip-path="url(#clipPath1906)"><rect
           style="fill:url(#linearGradient1845);fill-opacity:1;stroke-width:0.636184;stroke-linecap:round;stroke-linejoin:round"
           id="rect1837"
           width="119.32708"
           height="121.70834"
           x="44.313374"
           y="78.569412"
           ry="0"
           inkscape:label="bg" /><path
           id="path11110"
           style="fill:url(#linearGradient9217);fill-opacity:1;stroke-width:0.900629;stroke-linecap:round;stroke-linejoin:round"
           inkscape:label="bg overlay"
           d="m 44.313374,152.47394 v 44.25932 c 0,0.12273 0.006,0.24383 0.01809,0.36328 0.01206,0.11945 0.03021,0.23686 0.05374,0.35244 0.02353,0.11558 0.0524,0.22942 0.08682,0.34055 0.03442,0.11112 0.07413,0.21998 0.118855,0.32607 0.04472,0.10609 0.0949,0.20908 0.149345,0.30955 0.05444,0.10046 0.113158,0.19822 0.176734,0.29248 0.06358,0.0943 0.131998,0.18539 0.204122,0.27286 0.07212,0.0875 0.148322,0.17106 0.228409,0.25114 0.08009,0.0801 0.163682,0.15629 0.251148,0.22841 0.08747,0.0721 0.178593,0.14055 0.272851,0.20412 0.09426,0.0636 0.192022,0.12281 0.292489,0.17725 0.100467,0.0545 0.203451,0.10411 0.309542,0.14883 0.106091,0.0447 0.214949,0.0844 0.326078,0.11886 0.111129,0.0344 0.224966,0.0633 0.340548,0.0868 0.115582,0.0235 0.232982,0.0417 0.352433,0.0537 0.119451,0.0121 0.240551,0.0181 0.363285,0.0181 H 160.09597 c 0.12273,0 0.24384,-0.006 0.36329,-0.0181 0.11945,-0.0121 0.23685,-0.0302 0.35243,-0.0537 0.11558,-0.0235 0.22942,-0.0524 0.34055,-0.0868 0.11113,-0.0344 0.21998,-0.0741 0.32608,-0.11886 0.10609,-0.0447 0.20907,-0.0944 0.30954,-0.14883 0.10046,-0.0544 0.19823,-0.11367 0.29249,-0.17725 0.0942,-0.0636 0.18538,-0.13199 0.27285,-0.20412 0.0875,-0.0721 0.17106,-0.14832 0.25114,-0.22841 0.0801,-0.0801 0.15629,-0.16368 0.22841,-0.25114 0.0721,-0.0875 0.14055,-0.1786 0.20413,-0.27286 0.0636,-0.0943 0.12229,-0.19202 0.17673,-0.29248 0.0544,-0.10047 0.10462,-0.20346 0.14934,-0.30955 0.0447,-0.10609 0.0844,-0.21495 0.11886,-0.32607 0.0344,-0.11113 0.0633,-0.22497 0.0868,-0.34055 0.0235,-0.11558 0.0417,-0.23299 0.0537,-0.35244 0.0121,-0.11945 0.0181,-0.24055 0.0181,-0.36328 v -44.25932 z" /><g
           id="g7809"
           inkscape:label="shadows"
           transform="matrix(1,0,0,0.93903688,0,10.426173)"><ellipse
             style="display:inline;fill:#538130;fill-opacity:1;fill-rule:evenodd;stroke-width:0.188292"
             id="ellipse9177"
             cx="103.97691"
             cy="175.91193"
             rx="23.646143"
             ry="9.7722092" /><ellipse
             style="display:inline;fill:#538130;fill-opacity:1;fill-rule:evenodd;stroke-width:0.239677"
             id="path6489"
             cx="103.97691"
             cy="-170.92593"
             rx="38.313263"
             ry="9.7722092"
             transform="scale(1,-1)" /><ellipse
             style="display:inline;opacity:1;fill:#538130;fill-opacity:1;fill-rule:evenodd;stroke-width:0.241275"
             id="ellipse7388"
             cx="103.97691"
             cy="-174.68428"
             rx="40.767006"
             ry="9.3068657"
             transform="scale(1,-1)" /><ellipse
             style="display:inline;opacity:0.702918;fill:#285a5d;fill-opacity:1;fill-rule:evenodd;stroke-width:0.179562"
             id="ellipse7390"
             cx="103.97691"
             cy="175.82684"
             rx="30.557541"
             ry="6.8770189" /></g><rect
           style="opacity:1;fill:#bac043;stroke-width:0.1;stroke-linecap:round;stroke-linejoin:round;stroke-miterlimit:9.4;fill-opacity:1"
           id="rect28808"
           width="119.309"
           height="3.1812155"
           x="44.331463"
           y="197.09653" /><path
           style="opacity:0.59681698;fill:#f4f4f4;fill-opacity:1;fill-rule:evenodd;stroke-width:0.264583;filter:url(#filter25867)"
           id="path25859"
           sodipodi:type="arc"
           sodipodi:cx="-169.27951"
           sodipodi:cy="150.59856"
           sodipodi:rx="60.180187"
           sodipodi:ry="32.740517"
           sodipodi:start="0"
           sodipodi:end="4.3294222"
           sodipodi:arc-type="slice"
           d="m -109.09932,150.59856 a 60.180187,32.740517 0 0 1 -52.5187,32.47411 60.180187,32.740517 0 0 1 -65.89092,-24.20561 60.180187,32.740517 0 0 1 35.74166,-38.6373 l 22.48777,30.3688 z"
           transform="matrix(0.43040316,0.19528132,0.2940824,-0.28580322,146.2724,167.23422)" /><g
           id="g19091"
           transform="matrix(1.1678395,0,0,1.3982921,172.55864,-158.08851)"><path
             id="rect14245"
             style="display:inline;opacity:1;fill:#9bdea3;fill-opacity:1;stroke-width:0.1;stroke-linecap:round;stroke-linejoin:round;stroke-miterlimit:9.4"
             d="m -27.510531,186.0732 c -2.400482,9.99537 -14.709307,21.83936 -23.971441,35.35682 H 4.6469015 C -4.3564692,209.46271 -12.421475,197.02615 -16.085166,182.38899 v 0 c -3.168869,2.87582 -5.948383,8.44442 -11.425365,3.68421 z"
             sodipodi:nodetypes="cccccc"
             inkscape:path-effect="#path-effect22651"
             inkscape:original-d="m -27.510531,186.0732 c -2.400482,9.99537 -14.709307,21.83936 -23.971441,35.35682 H 4.6469015 C -4.3564692,209.46271 -12.421475,197.02615 -16.085166,182.38899 v 0 c -3.168869,2.87582 -5.948383,8.44442 -11.425365,3.68421 z" /><path
             id="path25298"
             style="display:inline;fill:url(#linearGradient25793);fill-opacity:1;fill-rule:evenodd;stroke-width:0.157355"
             d="m -40.614694,216.18548 c 0.456535,0.84316 0.225282,0.7878 1.276229,1.19007 1.050947,0.40227 2.344968,1.44494 3.971726,1.55972 1.626764,0.11475 2.002827,-4.62804 4.1868,-4.64733 0.545992,-0.005 0.47821,-2.10194 1.29953,-1.68077 0.821319,0.42116 1.344166,1.3501 2.2797,1.91405 0.935535,0.56397 1.689978,0.21466 2.578618,0.63824 0.888646,0.42358 3.049702,-3.56665 3.730235,-3.58907 2.788907,-0.0919 1.9239,3.74669 3.378184,2.89973 4.990274,-2.9063 6.272545,2.03761 7.338981,3.19943 2.1018547,2.28984 4.8841932,-2.98001 5.5568008,-4.06293 0.4903318,-0.78946 1.3987674,-3.67485 1.9107831,-4.73218 0.4304056,-0.88879 -1.096076,-2.14559 -2.0938989,-3.17882 -0.9978236,-1.03321 -0.2149839,-1.59813 -1.9991772,-2.37955 -1.784192,-0.78141 -1.682001,0.68814 -4.0411138,0.25113 -2.359114,-0.43701 -3.468352,-3.78586 -6.190934,-3.78586 -1.361296,0 -1.053588,-0.93629 -2.50365,-0.80626 -1.450062,0.13003 -1.589988,0.50389 -3.054843,0.74811 -1.408622,0.55574 -1.995735,-1.31765 -3.235661,-1.03508 -0.669714,0.15261 -1.077938,1.29762 -2.254362,1.70355 -1.274464,0.43976 -0.530086,1.25761 -1.595423,1.56158 -0.542611,0.15481 -0.926928,-0.87162 -2.498931,0.1875 -0.868856,0.58538 -1.680375,1.4118 -1.974021,3.60364 -0.321909,2.40281 -1.191715,3.11136 -1.387764,3.24693 -0.784212,0.54231 -1.557803,-0.082 -1.986895,0.49517 -1.449625,-0.1511 -4.097676,5.08454 -2.690913,6.699 z m -36.221214,0 c -0.456535,0.84316 -0.225282,0.7878 -1.276229,1.19007 -1.050947,0.40227 -2.344968,1.44494 -3.971726,1.55972 -1.626764,0.11475 -2.002827,-4.62804 -4.1868,-4.64733 -0.545992,-0.005 -0.47821,-2.10194 -1.29953,-1.68077 -0.821319,0.42116 -1.344166,1.3501 -2.2797,1.91405 -0.935535,0.56397 -1.689978,0.21466 -2.578618,0.63824 -0.888646,0.42358 -3.049702,-3.56665 -3.730235,-3.58907 -2.788907,-0.0919 -1.9239,3.74669 -3.378184,2.89973 -4.99027,-2.9063 -6.27254,2.03761 -7.33898,3.19943 -2.10186,2.28984 -4.88419,-2.98001 -5.5568,-4.06293 -0.49033,-0.78946 -1.39877,-3.67485 -1.91078,-4.73218 -0.43041,-0.88879 1.09607,-2.14559 2.09389,-3.17882 0.99783,-1.03321 0.21499,-1.59813 1.99918,-2.37955 1.78419,-0.78141 1.682,0.68814 4.04112,0.25113 2.35911,-0.43701 3.46835,-3.78586 6.19093,-3.78586 1.361295,0 1.053587,-0.93629 2.503649,-0.80626 1.450062,0.13003 1.589988,0.50389 3.054843,0.74811 1.408622,0.55574 1.995735,-1.31765 3.235661,-1.03508 0.669714,0.15261 1.077938,1.29762 2.254362,1.70355 1.274464,0.43976 0.530086,1.25761 1.595423,1.56158 0.542611,0.15481 0.926928,-0.87162 2.498931,0.1875 0.868856,0.58538 1.680375,1.4118 1.974021,3.60364 0.321909,2.40281 1.191715,3.11136 1.387764,3.24693 0.784212,0.54231 1.557803,-0.082 1.986895,0.49517 1.449625,-0.1511 4.097676,5.08454 2.690913,6.699 z"
             sodipodi:nodetypes="csssssssssssssssscsssssscc"
             inkscape:path-effect="#path-effect25783"
             inkscape:original-d="m -40.614694,216.18548 c 0.456535,0.84316 0.225282,0.7878 1.276229,1.19007 1.050947,0.40227 2.344968,1.44494 3.971726,1.55972 1.626764,0.11475 2.002827,-4.62804 4.1868,-4.64733 0.545992,-0.005 0.47821,-2.10194 1.29953,-1.68077 0.821319,0.42116 1.344166,1.3501 2.2797,1.91405 0.935535,0.56397 1.689978,0.21466 2.578618,0.63824 0.888646,0.42358 3.049702,-3.56665 3.730235,-3.58907 2.788907,-0.0919 1.9239,3.74669 3.378184,2.89973 4.990274,-2.9063 6.272545,2.03761 7.338981,3.19943 2.1018547,2.28984 4.8841932,-2.98001 5.5568008,-4.06293 0.4903318,-0.78946 1.3987674,-3.67485 1.9107831,-4.73218 0.4304056,-0.88879 -1.096076,-2.14559 -2.0938989,-3.17882 -0.9978236,-1.03321 -0.2149839,-1.59813 -1.9991772,-2.37955 -1.784192,-0.78141 -1.682001,0.68814 -4.0411138,0.25113 -2.359114,-0.43701 -3.468352,-3.78586 -6.190934,-3.78586 -1.361296,0 -1.053588,-0.93629 -2.50365,-0.80626 -1.450062,0.13003 -1.589988,0.50389 -3.054843,0.74811 -1.408622,0.55574 -1.995735,-1.31765 -3.235661,-1.03508 -0.669714,0.15261 -1.077938,1.29762 -2.254362,1.70355 -1.274464,0.43976 -0.530086,1.25761 -1.595423,1.56158 -0.542611,0.15481 -0.926928,-0.87162 -2.498931,0.1875 -0.868856,0.58538 -1.680375,1.4118 -1.974021,3.60364 -0.321909,2.40281 -1.191715,3.11136 -1.387764,3.24693 -0.784212,0.54231 -1.557803,-0.082 -1.986895,0.49517 -1.449625,-0.1511 -4.097676,5.08454 -2.690913,6.699 z"
             class="UnoptimicedTransforms" /><path
             id="path26761"
             style="display:inline;fill:url(#linearGradient25803);fill-opacity:1;fill-rule:evenodd;stroke-width:0.156914"
             d="m -7.6781575,221.46717 c -0.7594253,0.52059 -0.4641421,0.54039 -1.8423143,0.56533 -1.3781702,0.0249 -3.2067302,0.47308 -5.2178542,0.12433 -2.011124,-0.34877 -1.329082,-4.06673 -3.987382,-4.66717 -0.664514,-0.1503 -0.0776,-1.7313 -1.180327,-1.63037 -1.102726,0.10093 -1.963633,0.66916 -3.239964,0.84836 -1.276333,0.17921 -2.112226,-0.28954 -3.29762,-0.20482 -1.185399,0.0847 -2.860796,-3.53803 -3.685186,-3.73764 -3.378432,-0.81808 -3.24686,2.34145 -4.816398,1.30548 -5.385761,-3.55486 -7.021135,0.20469 -8.600853,0.80474 -3.113488,1.18265 -3.05164,3.92949 -4.261267,4.38837 -10.544888,4.00023 -14.626053,-5.76742 -3.315143,-10.03276 0.910899,-0.3435 -0.573306,-3.72595 1.017296,-3.78394 1.17934,-0.043 2.234956,-2.33672 4.779311,-2.75642 2.322713,-0.38314 1.885393,0.97591 4.866976,1.27532 2.981585,0.29942 5.139445,-1.95711 8.459114,-1.22693 1.65984,0.36509 1.509814,-0.43149 3.246618,0.0566 1.736802,0.48807 1.817507,0.81072 3.544888,1.38984 1.583898,0.80162 2.750295,-0.46966 4.194194,0.0784 0.779886,0.296 1.002279,1.27873 2.339083,1.90382 1.448209,0.67719 0.343901,1.10129 1.569775,1.61883 0.624382,0.26359 1.339824,-0.41615 3.001879,0.81319 0.918626,0.67947 1.709377,1.52738 1.540314,3.27775 -0.185339,1.91885 0.704827,2.6925 0.911269,2.84847 0.825777,0.62392 1.9191722,0.35523 2.3035572,0.91052 1.8038797,0.27354 3.7735706,4.97671 1.6700343,5.8307 z m -102.0942825,0 c 0.75942,0.52059 0.46414,0.54039 1.84231,0.56533 1.37817,0.0249 3.20673,0.47308 5.21785,0.12433 2.01113,-0.34877 1.32909,-4.06673 3.987386,-4.66717 0.664514,-0.1503 0.0776,-1.7313 1.180327,-1.63037 1.102726,0.10093 1.963633,0.66916 3.239964,0.84836 1.276333,0.17921 2.112226,-0.28954 3.29762,-0.20482 1.185399,0.0847 2.860796,-3.53803 3.685186,-3.73764 3.378432,-0.81808 3.24686,2.34145 4.816398,1.30548 5.385761,-3.55486 7.021135,0.20469 8.600853,0.80474 3.113488,1.18265 3.051641,3.92949 4.261268,4.38837 10.544888,4.00023 14.626052,-5.76742 3.315142,-10.03276 -0.910899,-0.3435 0.573306,-3.72595 -1.017296,-3.78394 -1.17934,-0.043 -2.234956,-2.33672 -4.779311,-2.75642 -2.322713,-0.38314 -1.885393,0.97591 -4.866976,1.27532 -2.981585,0.29942 -5.139445,-1.95711 -8.459114,-1.22693 -1.65984,0.36509 -1.509814,-0.43149 -3.246618,0.0566 -1.736802,0.48807 -1.817507,0.81072 -3.544888,1.38984 -1.583898,0.80162 -2.750295,-0.46966 -4.194194,0.0784 -0.779886,0.296 -1.002279,1.27873 -2.339083,1.90382 -1.448204,0.67719 -0.343901,1.10129 -1.569774,1.61883 -0.62438,0.26359 -1.33982,-0.41615 -3.00188,0.81319 -0.91863,0.67947 -1.70938,1.52738 -1.54031,3.27775 0.18534,1.91885 -0.70483,2.6925 -0.91127,2.84847 -0.82578,0.62392 -1.91918,0.35523 -2.30356,0.91052 -1.80388,0.27354 -3.77357,4.97671 -1.67003,5.8307 z"
             sodipodi:nodetypes="csssssssssssssssscsssssscc"
             inkscape:path-effect="#path-effect25785"
             inkscape:original-d="m -7.6781575,221.46717 c -0.7594253,0.52059 -0.4641421,0.54039 -1.8423143,0.56533 -1.3781702,0.0249 -3.2067302,0.47308 -5.2178542,0.12433 -2.011124,-0.34877 -1.329082,-4.06673 -3.987382,-4.66717 -0.664514,-0.1503 -0.0776,-1.7313 -1.180327,-1.63037 -1.102726,0.10093 -1.963633,0.66916 -3.239964,0.84836 -1.276333,0.17921 -2.112226,-0.28954 -3.29762,-0.20482 -1.185399,0.0847 -2.860796,-3.53803 -3.685186,-3.73764 -3.378432,-0.81808 -3.24686,2.34145 -4.816398,1.30548 -5.385761,-3.55486 -7.021135,0.20469 -8.600853,0.80474 -3.113488,1.18265 -3.05164,3.92949 -4.261267,4.38837 -10.544888,4.00023 -14.626053,-5.76742 -3.315143,-10.03276 0.910899,-0.3435 -0.573306,-3.72595 1.017296,-3.78394 1.17934,-0.043 2.234956,-2.33672 4.779311,-2.75642 2.322713,-0.38314 1.885393,0.97591 4.866976,1.27532 2.981585,0.29942 5.139445,-1.95711 8.459114,-1.22693 1.65984,0.36509 1.509814,-0.43149 3.246618,0.0566 1.736802,0.48807 1.817507,0.81072 3.544888,1.38984 1.583898,0.80162 2.750295,-0.46966 4.194194,0.0784 0.779886,0.296 1.002279,1.27873 2.339083,1.90382 1.448209,0.67719 0.343901,1.10129 1.569775,1.61883 0.624382,0.26359 1.339824,-0.41615 3.001879,0.81319 0.918626,0.67947 1.709377,1.52738 1.540314,3.27775 -0.185339,1.91885 0.704827,2.6925 0.911269,2.84847 0.825777,0.62392 1.9191722,0.35523 2.3035572,0.91052 1.8038797,0.27354 3.7735706,4.97671 1.6700343,5.8307 z"
             class="UnoptimicedTransforms" /></g><path
           id="path2428"
           style="fill:#7bca99;fill-opacity:1;fill-rule:evenodd;stroke-width:0.0112412"
           d="m 140.81721,118.62622 c 0.0395,1.67701 0.22342,3.32187 0.50835,4.92023 -0.44182,0.18837 -1.75784,0.52877 -1.94707,-1.14593 -0.009,-0.0835 -0.0137,-0.16962 -0.0135,-0.25779 0.20886,0.0787 0.86466,0.10213 0.87778,0.0719 0.0137,-0.0334 -0.68683,-0.4151 -0.91419,-0.5156 0.0201,-0.3425 0.10249,-0.70926 0.22056,-1.06593 0.0408,0.0205 0.0839,0.0404 0.12779,0.0588 0.2561,0.10717 0.89422,0.33726 0.92015,0.27533 0.0253,-0.0622 -0.45098,-0.56449 -0.70707,-0.67169 -0.0483,-0.0202 -0.0969,-0.0382 -0.1442,-0.0538 0.12489,-0.40244 0.0902,-0.47175 0.36871,-0.83923 0.008,0.0147 0.017,0.0293 0.0257,0.0439 0.17744,0.1342 0.28943,0.12325 0.31895,0.11892 0.0352,-0.021 0.0278,-0.0872 -0.11437,-0.32538 -0.0207,-0.0347 -0.0422,-0.069 -0.0636,-0.10191 0.20808,-0.29939 0.40478,-0.49354 0.53568,-0.51187 z"
           inkscape:path-effect="#path-effect2438"
           inkscape:original-d="m 140.81721,118.62622 c 0.0395,1.67701 0.22342,3.32187 0.50835,4.92023 -0.44182,0.18837 -1.75784,0.52877 -1.94707,-1.14593 -0.009,-0.0835 -0.0137,-0.16962 -0.0135,-0.25779 0.20886,0.0787 0.86466,0.10213 0.87778,0.0719 0.0137,-0.0334 -0.68683,-0.4151 -0.91419,-0.5156 0.0201,-0.3425 0.10249,-0.70926 0.22056,-1.06593 0.0408,0.0205 0.0839,0.0404 0.12779,0.0588 0.2561,0.10717 0.89422,0.33726 0.92015,0.27533 0.0253,-0.0622 -0.45098,-0.56449 -0.70707,-0.67169 -0.0483,-0.0202 -0.0969,-0.0382 -0.1442,-0.0538 0.12489,-0.40244 0.0902,-0.47175 0.36871,-0.83923 0.008,0.0147 0.017,0.0293 0.0257,0.0439 0.17744,0.1342 0.28943,0.12325 0.31895,0.11892 0.0352,-0.021 0.0278,-0.0872 -0.11437,-0.32538 -0.0207,-0.0347 -0.0422,-0.069 -0.0636,-0.10191 0.20808,-0.29939 0.40478,-0.49354 0.53568,-0.51187 z"
           sodipodi:nodetypes="ccscccccccccccccc" /><path
           id="rect4085"
           style="fill:#75ae1f;fill-opacity:1;stroke-width:0.0826845;stroke-linecap:round;stroke-linejoin:round;stroke-miterlimit:9.4"
           d="m 149.67855,133.02707 -1.21279,-0.0498 c 0.53297,15.30894 2.0439,20.93776 4.3685,24.43827 l 4.04729,-0.66422 c -7.02632,-8.99313 -6.9342,-16.14478 -7.203,-23.72431 z"
           sodipodi:nodetypes="ccccc" /><path
           id="path2426"
           style="fill:#7bca99;fill-opacity:1;fill-rule:evenodd;stroke-width:0.0112412"
           d="m 134.5502,121.42688 c 1.55357,0.63272 3.02582,1.38891 4.41871,2.22307 0.33303,-0.34608 1.1187,-1.45536 -0.37951,-2.22714 -0.0747,-0.0385 -0.15366,-0.0731 -0.23619,-0.10421 -5.4e-4,0.22322 -0.21172,0.84454 -0.24462,0.84607 -0.036,6.2e-4 -0.14402,-0.78948 -0.1572,-1.03772 -0.32728,-0.10299 -0.69941,-0.15615 -1.07476,-0.1725 0.004,0.0455 0.008,0.0928 0.01,0.14034 0.009,0.27748 -0.002,0.95571 -0.0695,0.95796 -0.067,10e-4 -0.36747,-0.62211 -0.37671,-0.89957 -0.002,-0.0523 -10e-4,-0.10415 8.9e-4,-0.15393 -0.42056,-0.0262 -0.47302,-0.0832 -0.91545,0.0469 0.0108,0.0132 0.0213,0.0263 0.0319,0.0397 0.0624,0.21355 0.0124,0.31434 -0.002,0.3404 -0.0321,0.0254 -0.0914,-0.004 -0.26354,-0.2225 -0.0251,-0.0317 -0.0495,-0.064 -0.0727,-0.0957 -0.35378,0.0882 -0.60515,0.20304 -0.66878,0.31889 z"
           inkscape:path-effect="#path-effect2434"
           inkscape:original-d="m 134.5502,121.42688 c 1.55357,0.63272 3.02582,1.38891 4.41871,2.22307 0.33303,-0.34608 1.1187,-1.45536 -0.37951,-2.22714 -0.0747,-0.0385 -0.15366,-0.0731 -0.23619,-0.10421 -5.4e-4,0.22322 -0.21172,0.84454 -0.24462,0.84607 -0.036,6.2e-4 -0.14402,-0.78948 -0.1572,-1.03772 -0.32728,-0.10299 -0.69941,-0.15615 -1.07476,-0.1725 0.004,0.0455 0.008,0.0928 0.01,0.14034 0.009,0.27748 -0.002,0.95571 -0.0695,0.95796 -0.067,0.001 -0.36747,-0.62211 -0.37671,-0.89957 -0.002,-0.0523 -0.001,-0.10415 8.9e-4,-0.15393 -0.42056,-0.0262 -0.47302,-0.0832 -0.91545,0.0469 0.0108,0.0132 0.0213,0.0263 0.0319,0.0397 0.0624,0.21355 0.0124,0.31434 -0.002,0.3404 -0.0321,0.0254 -0.0914,-0.004 -0.26354,-0.2225 -0.0251,-0.0317 -0.0495,-0.064 -0.0727,-0.0957 -0.35378,0.0882 -0.60515,0.20304 -0.66878,0.31889 z"
           sodipodi:nodetypes="ccscccccccccccccc" /><g
           id="g2410"
           transform="rotate(2.1909662,53.87619,121.0251)"><path
             id="path2378"
             style="fill:#7bca99;fill-opacity:1;fill-rule:evenodd;stroke-width:0.0112412"
             d="m 52.93448,118.85489 c 1.324869,1.02891 2.538066,2.15474 3.653806,3.33418 0.414146,-0.24323 1.470289,-1.099 0.236296,-2.24685 -0.06155,-0.0572 -0.128206,-0.11188 -0.19926,-0.16413 -0.0609,0.21474 -0.432005,0.75593 -0.464097,0.74852 -0.03495,-0.009 0.07462,-0.79904 0.128998,-1.0416 -0.287301,-0.18754 -0.631217,-0.33931 -0.988188,-0.45645 -0.0078,0.0451 -0.01735,0.0915 -0.0287,0.13771 -0.06607,0.26965 -0.260515,0.91952 -0.325728,0.90355 -0.06508,-0.0163 -0.185731,-0.69824 -0.119661,-0.96789 0.01242,-0.0508 0.02685,-0.10064 0.04245,-0.14796 -0.397835,-0.13884 -0.43292,-0.20796 -0.894067,-0.20216 0.0068,0.0156 0.01343,0.0311 0.01996,0.0468 0.0024,0.22247 -0.07302,0.30599 -0.09403,0.32716 -0.03778,0.0158 -0.08674,-0.0292 -0.193616,-0.28542 -0.01561,-0.0373 -0.03035,-0.075 -0.0441,-0.11181 -0.36444,-0.0107 -0.637497,0.032 -0.730066,0.12635 z"
             inkscape:path-effect="#path-effect2382"
             inkscape:original-d="m 52.93448,118.85489 c 1.324869,1.02891 2.538066,2.15474 3.653806,3.33418 0.414146,-0.24323 1.470289,-1.099 0.236296,-2.24685 -0.06155,-0.0572 -0.128206,-0.11188 -0.19926,-0.16413 -0.0609,0.21474 -0.432005,0.75593 -0.464097,0.74852 -0.03495,-0.009 0.07462,-0.79904 0.128998,-1.0416 -0.287301,-0.18754 -0.631217,-0.33931 -0.988188,-0.45645 -0.0078,0.0451 -0.01735,0.0915 -0.0287,0.13771 -0.06607,0.26965 -0.260515,0.91952 -0.325728,0.90355 -0.06508,-0.0163 -0.185731,-0.69824 -0.119661,-0.96789 0.01242,-0.0508 0.02685,-0.10064 0.04245,-0.14796 -0.397835,-0.13884 -0.43292,-0.20796 -0.894067,-0.20216 0.0068,0.0156 0.01343,0.0311 0.01996,0.0468 0.0024,0.22247 -0.07302,0.30599 -0.09403,0.32716 -0.03778,0.0158 -0.08674,-0.0292 -0.193616,-0.28542 -0.01561,-0.0373 -0.03035,-0.075 -0.0441,-0.11181 -0.36444,-0.0107 -0.637497,0.032 -0.730066,0.12635 z"
             sodipodi:nodetypes="ccscccccccccccccc" /><path
             id="path2402"
             style="fill:#7bca99;fill-opacity:1;fill-rule:evenodd;stroke-width:0.0112412"
             d="m 59.725083,117.85151 c -0.414995,1.62533 -0.682335,3.2587 -0.839828,4.8746 -0.476275,0.062 -1.835323,0.0342 -1.565066,-1.62935 0.01353,-0.0829 0.03259,-0.16702 0.05666,-0.25185 0.179838,0.13221 0.804919,0.33191 0.825719,0.30637 0.0222,-0.0284 -0.549147,-0.58522 -0.7409,-0.7434 0.111821,-0.32436 0.290296,-0.6552 0.500328,-0.96671 0.03382,0.0308 0.06984,0.0616 0.107138,0.0912 0.217621,0.17238 0.769855,0.5663 0.811554,0.51368 0.04118,-0.053 -0.281703,-0.66534 -0.499313,-0.83774 -0.04101,-0.0325 -0.08295,-0.063 -0.124286,-0.0908 0.228972,-0.35373 0.214282,-0.42983 0.581723,-0.7084 0.0042,0.0165 0.0085,0.0328 0.01292,0.0492 0.134581,0.17715 0.245367,0.19687 0.274962,0.20067 0.03957,-0.0107 0.05028,-0.0765 -0.02221,-0.34418 -0.01055,-0.039 -0.02205,-0.0778 -0.03375,-0.11534 0.281217,-0.23204 0.52306,-0.36583 0.654043,-0.34812 z"
             inkscape:path-effect="#path-effect2406"
             inkscape:original-d="m 59.725083,117.85151 c -0.414995,1.62533 -0.682335,3.2587 -0.839828,4.8746 -0.476275,0.062 -1.835323,0.0342 -1.565066,-1.62935 0.01353,-0.0829 0.03259,-0.16702 0.05666,-0.25185 0.179838,0.13221 0.804919,0.33191 0.825719,0.30637 0.0222,-0.0284 -0.549147,-0.58522 -0.7409,-0.7434 0.111821,-0.32436 0.290296,-0.6552 0.500328,-0.96671 0.03382,0.0308 0.06984,0.0616 0.107138,0.0912 0.217621,0.17238 0.769855,0.5663 0.811554,0.51368 0.04118,-0.053 -0.281703,-0.66534 -0.499313,-0.83774 -0.04101,-0.0325 -0.08295,-0.063 -0.124286,-0.0908 0.228972,-0.35373 0.214282,-0.42983 0.581723,-0.7084 0.0042,0.0165 0.0085,0.0328 0.01292,0.0492 0.134581,0.17715 0.245367,0.19687 0.274962,0.20067 0.03957,-0.0107 0.05028,-0.0765 -0.02221,-0.34418 -0.01055,-0.039 -0.02205,-0.0778 -0.03375,-0.11534 0.281217,-0.23204 0.52306,-0.36583 0.654043,-0.34812 z"
             sodipodi:nodetypes="ccscccccccccccccc" /></g><ellipse
           style="fill:#6eb88b;fill-opacity:1;fill-rule:evenodd;stroke-width:0.264583"
           id="path2750"
           cx="102.97414"
           cy="148.1311"
           rx="20.016945"
           ry="7.6453609" /><g
           id="g4171"
           transform="rotate(8.5521878,148.90437,117.10957)"
           inkscape:label="ferns"
           inkscape:path-effect="#path-effect438"
           class="UnoptimicedTransforms"><path
             id="path4157"
             style="fill:#75ae1f;fill-opacity:1;stroke-width:0.0707077;stroke-linecap:round;stroke-linejoin:round;stroke-miterlimit:9.4"
             d="m 158.50197,130.56314 0.88561,0.0689 c -2.42707,15.12034 -4.27249,20.55163 -6.4239,23.79428 l -2.84475,-1.05284 c 6.29121,-8.2279 7.17782,-15.3247 8.38304,-22.81038 z m -103.669629,15.59008 -0.826175,0.32632 c 6.766815,13.73774 10.128028,18.38605 13.137989,20.85252 l 2.409274,-1.84295 c -8.432888,-6.01366 -11.367548,-12.53581 -14.7211,-19.33593 z"
             sodipodi:nodetypes="ccccc"
             inkscape:original-d="m 158.50197,130.56314 0.88561,0.0689 c -2.42707,15.12034 -4.27249,20.55163 -6.4239,23.79428 l -2.84475,-1.05284 c 6.29121,-8.2279 7.17782,-15.3247 8.38304,-22.81038 z" /><path
             id="path614"
             style="fill:#75ae1f;fill-opacity:1;fill-rule:evenodd;stroke-width:0.0679071"
             d="m 134.18543,110.55007 c 5.7095,8.37195 10.59723,17.09425 14.82525,25.94398 2.83206,-0.63051 10.49091,-3.59246 5.52444,-12.47979 -0.24757,-0.44299 -0.52951,-0.88118 -0.8413,-1.3132 -0.74826,1.12171 -3.88535,3.54519 -4.05611,3.44307 -0.18427,-0.11464 1.91054,-4.45565 2.6729,-5.74943 -1.30431,-1.61059 -2.99998,-3.12111 -4.83509,-4.45656 -0.12809,0.2451 -0.26962,0.49375 -0.42033,0.73851 -0.87984,1.42777 -3.20272,4.80367 -3.54802,4.59089 -0.34537,-0.21268 0.22672,-4.35876 1.10661,-5.7866 0.16591,-0.26853 0.34083,-0.52897 0.51843,-0.77192 -2.03004,-1.53569 -2.10363,-1.99809 -4.76551,-2.81996 0.0101,0.10172 0.0194,0.20396 0.028,0.30636 -0.39894,1.28339 -0.98709,1.62376 -1.14715,1.70653 -0.24658,0.0203 -0.44475,-0.32892 -0.58397,-2.00002 -0.0201,-0.24401 -0.0357,-0.48725 -0.0465,-0.72443 -2.07543,-0.73728 -3.72459,-0.99779 -4.43166,-0.62743 z m -61.998166,9.32343 c -2.99467,9.6809 -5.100874,19.45497 -6.539068,29.15679 -2.892241,0.23033 -11.083493,-0.34805 -8.950569,-10.303 0.106331,-0.49621 0.246923,-0.99794 0.41786,-1.50256 1.045075,0.85203 4.756191,2.24566 4.889363,2.09783 0.142403,-0.16376 -3.136504,-3.69666 -4.245663,-4.709 0.772925,-1.92297 1.949333,-3.8654 3.310503,-5.68151 0.194512,0.19659 0.402914,0.39261 0.618945,0.58222 1.260851,1.10585 4.473889,3.64924 4.741335,3.34432 0.267542,-0.30485 -1.498662,-4.09929 -2.759582,-5.20519 -0.23755,-0.20786 -0.481332,-0.40534 -0.722532,-0.58531 1.488586,-2.06483 1.422923,-2.52842 3.725347,-4.09683 0.02026,0.10019 0.04144,0.20064 0.06334,0.30104 0.758757,1.1093 1.421001,1.26163 1.598325,1.29366 0.241644,-0.0531 0.328339,-0.44518 -0.03009,-2.08331 -0.05256,-0.23913 -0.109186,-0.4762 -0.168621,-0.70607 1.766791,-1.31508 3.26639,-2.04911 4.051114,-1.90308 z"
             inkscape:path-effect="#path-effect618"
             inkscape:original-d="m 134.18543,110.55007 c 5.7095,8.37195 10.59723,17.09425 14.82525,25.94398 2.83206,-0.63051 10.49091,-3.59246 5.52444,-12.47979 -0.24757,-0.44299 -0.52951,-0.88118 -0.8413,-1.3132 -0.74826,1.12171 -3.88535,3.54519 -4.05611,3.44307 -0.18427,-0.11464 1.91054,-4.45565 2.6729,-5.74943 -1.30431,-1.61059 -2.99998,-3.12111 -4.83509,-4.45656 -0.12809,0.2451 -0.26962,0.49375 -0.42033,0.73851 -0.87984,1.42777 -3.20272,4.80367 -3.54802,4.59089 -0.34537,-0.21268 0.22672,-4.35876 1.10661,-5.7866 0.16591,-0.26853 0.34083,-0.52897 0.51843,-0.77192 -2.03004,-1.53569 -2.10363,-1.99809 -4.76551,-2.81996 0.0101,0.10172 0.0194,0.20396 0.028,0.30636 -0.39894,1.28339 -0.98709,1.62376 -1.14715,1.70653 -0.24658,0.0203 -0.44475,-0.32892 -0.58397,-2.00002 -0.0201,-0.24401 -0.0357,-0.48725 -0.0465,-0.72443 -2.07543,-0.73728 -3.72459,-0.99779 -4.43166,-0.62743 z"
             sodipodi:nodetypes="ccscccccccccccccc" /><path
             id="path4159"
             style="fill:#75ae1f;fill-opacity:1;stroke-width:0.0640379;stroke-linecap:round;stroke-linejoin:round;stroke-miterlimit:9.4"
             d="m 156.52362,119.13947 0.67139,0.0237 c -2.21564,16.48552 -3.75148,22.463 -5.46615,26.09189 l -2.13622,-0.97518 c 4.98333,-9.25565 5.83131,-16.97873 6.93098,-25.14048 z m -103.160284,15.51348 -0.634724,0.22012 c 6.966255,15.10472 10.192222,20.36611 12.898358,23.33019 l 1.754922,-1.56034 c -7.48513,-7.38061 -10.567065,-14.5127 -14.018576,-21.99003 z"
             sodipodi:nodetypes="ccccc"
             inkscape:original-d="m 156.52362,119.13947 0.67139,0.0237 c -2.21564,16.48552 -3.75148,22.463 -5.46615,26.09189 l -2.13622,-0.97518 c 4.98333,-9.25565 5.83131,-16.97873 6.93098,-25.14048 z" /><path
             id="path3085"
             style="fill:#75ae1f;fill-opacity:1;fill-rule:evenodd;stroke-width:0.0409353"
             d="m 131.61989,129.90429 c 6.20185,0.56568 11.99615,2.22986 17.20001,5.34934 0.98989,-1.44192 2.13419,-6.25301 -3.70839,-8.13151 -0.49433,-0.15887 -0.12767,1.01028 -0.8874,1.17328 -0.12842,0.0249 -0.36947,-0.61416 -0.56493,-1.49803 -1.23711,-0.17428 -2.60568,-0.14362 -3.96381,0.0216 0.0444,0.16069 0.0844,0.32847 0.11768,0.49855 0.19874,0.99123 0.16548,1.83376 -0.0742,1.88182 -0.23972,0.0481 -0.59516,-0.71649 -0.79388,-1.70778 -0.0375,-0.18655 -0.067,-0.37336 -0.0886,-0.5535 -1.63758,0.26458 -3.21636,0.7062 -4.48136,1.19889 0.0463,0.0408 0.0924,0.082 0.13824,0.12362 0.74828,0.6799 1.27355,1.32056 1.17316,1.43089 -0.1004,0.11031 -0.78826,-0.35135 -1.5364,-1.03114 -0.10912,-0.0994 -0.21596,-0.20023 -0.31819,-0.3004 -1.21829,0.52776 -2.05266,1.09059 -2.21231,1.5445 z m -51.288225,7.71284 c -5.761171,2.36471 -10.809735,5.65946 -14.865951,10.1715 -1.370195,-1.08701 -3.878889,-5.34875 1.152785,-8.86255 0.42574,-0.29723 0.41916,0.92805 1.193228,0.86039 0.130063,-0.014 0.172496,-0.69566 0.09935,-1.59792 1.131135,-0.53043 2.448191,-0.90364 3.794846,-1.14517 0.0048,0.16664 0.01594,0.33877 0.03415,0.51111 0.101584,1.00584 0.381172,1.80132 0.624386,1.77677 0.243264,-0.0245 0.358107,-0.85985 0.256486,-1.86574 -0.01902,-0.18933 -0.04577,-0.37655 -0.07811,-0.55508 1.642967,-0.22875 3.281805,-0.27101 4.635761,-0.17216 -0.03225,0.0526 -0.0642,0.10555 -0.09577,0.15881 -0.515216,0.86991 -0.828827,1.63672 -0.700428,1.71264 0.128403,0.0759 0.650059,-0.56764 1.165174,-1.43741 0.07506,-0.12709 0.147518,-0.25489 0.215765,-0.38069 1.319627,0.1461 2.282629,0.43864 2.568719,0.82551 z"
             inkscape:path-effect="#path-effect3089"
             inkscape:original-d="m 131.61989,129.90429 c 6.20185,0.56568 11.99615,2.22986 17.20001,5.34934 0.98989,-1.44192 2.13419,-6.25301 -3.70839,-8.13151 -0.29124,-0.0936 -0.59564,-0.17102 -0.9107,-0.23343 0.13098,0.8022 0.14055,1.38156 0.0233,1.40671 -0.12842,0.0249 -0.36947,-0.61416 -0.56493,-1.49803 -1.23711,-0.17428 -2.60568,-0.14362 -3.96381,0.0216 0.0444,0.16069 0.0844,0.32847 0.11768,0.49855 0.19874,0.99123 0.16548,1.83376 -0.0742,1.88182 -0.23972,0.0481 -0.59516,-0.71649 -0.79388,-1.70778 -0.0375,-0.18655 -0.067,-0.37336 -0.0886,-0.5535 -1.63758,0.26458 -3.21636,0.7062 -4.48136,1.19889 0.0463,0.0408 0.0924,0.082 0.13824,0.12362 0.74828,0.6799 1.27355,1.32056 1.17316,1.43089 -0.1004,0.11031 -0.78826,-0.35135 -1.5364,-1.03114 -0.10912,-0.0994 -0.21596,-0.20023 -0.31819,-0.3004 -1.21829,0.52776 -2.05266,1.09059 -2.21231,1.5445 z"
             sodipodi:nodetypes="ccsccccccccccccccc" /><path
             id="path3209"
             style="fill:#75ae1f;fill-opacity:1;fill-rule:evenodd;stroke-width:0.0408843"
             d="m 169.49202,118.1328 c -4.03384,4.57717 -7.60277,9.42479 -10.78703,14.39759 -1.64512,-0.58733 -6.00061,-2.92661 -2.37236,-7.86695 0.18086,-0.24626 0.38189,-0.48708 0.60031,-0.72201 0.36362,0.72582 2.05762,2.40707 2.16724,2.35876 0.11862,-0.0548 -0.81005,-2.80414 -1.1693,-3.63381 0.89906,-0.86524 2.02449,-1.64159 3.22021,-2.30296 0.0583,0.15597 0.12436,0.31505 0.1962,0.4725 0.41946,0.91845 1.55617,3.10816 1.7783,3.00672 0.22217,-0.10138 0.18874,-2.62102 -0.23075,-3.53952 -0.0791,-0.17277 -0.16429,-0.34138 -0.25232,-0.49974 1.32707,-0.76652 1.40543,-1.0373 3.0569,-1.33035 -0.0136,0.06 -0.0267,0.12042 -0.0395,0.18096 0.14288,0.79643 0.46895,1.04354 0.55843,1.10489 0.14581,0.0304 0.29018,-0.16343 0.49765,-1.15148 0.0301,-0.14429 0.0575,-0.28845 0.0816,-0.42935 1.2948,-0.28613 2.29947,-0.31911 2.69436,-0.0452 z M 40.672446,137.50499 c 5.201633,3.18831 10.03846,6.77186 14.544449,10.58818 1.399616,-1.0452 4.874451,-4.56203 -0.04634,-8.21674 -0.245289,-0.18218 -0.508256,-0.35322 -0.786111,-0.51352 -0.134064,0.80066 -1.258661,2.90578 -1.377642,2.89185 -0.129491,-0.0175 -0.05051,-2.91836 0.04883,-3.817 -1.113774,-0.56254 -2.417761,-0.97355 -3.755113,-1.25399 -0.0098,0.16622 -0.0262,0.33769 -0.04855,0.50931 -0.130779,1.00119 -0.57319,3.42837 -0.81533,3.39675 -0.242161,-0.0316 -0.951269,-2.44958 -0.820476,-3.45083 0.02479,-0.1884 0.05662,-0.3746 0.09418,-0.55185 -1.493818,-0.34231 -1.648353,-0.57807 -3.312969,-0.37244 0.03064,0.0533 0.06094,0.10725 0.09098,0.16134 0.09768,0.80323 -0.14129,1.13531 -0.208768,1.22027 -0.13042,0.0719 -0.325413,-0.0709 -0.814305,-0.95419 -0.07121,-0.12905 -0.139794,-0.25878 -0.204269,-0.38636 -1.321686,0.10734 -2.29162,0.37131 -2.588483,0.74925 z"
             inkscape:path-effect="#path-effect3213"
             inkscape:original-d="m 169.49202,118.1328 c -4.03384,4.57717 -7.60277,9.42479 -10.78703,14.39759 -1.64512,-0.58733 -6.00061,-2.92661 -2.37236,-7.86695 0.18086,-0.24626 0.38189,-0.48708 0.60031,-0.72201 0.36362,0.72582 2.05762,2.40707 2.16724,2.35876 0.11862,-0.0548 -0.81005,-2.80414 -1.1693,-3.63381 0.89906,-0.86524 2.02449,-1.64159 3.22021,-2.30296 0.0583,0.15597 0.12436,0.31505 0.1962,0.4725 0.41946,0.91845 1.55617,3.10816 1.7783,3.00672 0.22217,-0.10138 0.18874,-2.62102 -0.23075,-3.53952 -0.0791,-0.17277 -0.16429,-0.34138 -0.25232,-0.49974 1.32707,-0.76652 1.40543,-1.0373 3.0569,-1.33035 -0.0136,0.06 -0.0267,0.12042 -0.0395,0.18096 0.14288,0.79643 0.46895,1.04354 0.55843,1.10489 0.14581,0.0304 0.29018,-0.16343 0.49765,-1.15148 0.0301,-0.14429 0.0575,-0.28845 0.0816,-0.42935 1.2948,-0.28613 2.29947,-0.31911 2.69436,-0.0452 z"
             sodipodi:nodetypes="ccscccccccccccccc" /><path
             id="path3215"
             style="fill:#5a8f0b;fill-opacity:1;fill-rule:evenodd;stroke-width:0.0579352"
             d="m 170.63433,133.28881 c -6.57709,5.61119 -12.55631,11.69503 -18.02105,18.0317 -2.18986,-1.15405 -6.79269,-6.42669 -0.71165,-12.62872 0.51447,-0.52472 0.82554,1.18151 1.88451,0.88506 0.17738,-0.0531 0.0582,-1.01268 -0.27922,-2.24862 1.43482,-1.03329 3.16933,-1.89647 4.97936,-2.58426 0.0505,0.23048 0.11123,0.4669 0.18042,0.70217 0.40409,1.37255 1.00076,2.40602 1.3327,2.30831 0.33199,-0.0976 0.27351,-1.28958 -0.13061,-2.66221 -0.0764,-0.25824 -0.16194,-0.51184 -0.25365,-0.75166 2.22555,-0.7474 4.49407,-1.23431 6.40322,-1.45047 -0.0311,0.0815 -0.0617,0.16355 -0.0917,0.24591 -0.48941,1.3446 -0.72532,2.49314 -0.52689,2.56522 0.19842,0.072 0.75591,-0.95938 1.24524,-2.30378 0.0712,-0.19636 0.13859,-0.39309 0.20067,-0.5859 1.87372,-0.14152 3.28965,0.0139 3.78865,0.47725 z M 44.038245,152.32662 c 7.936514,3.4286 15.440615,7.48479 22.527352,11.93394 1.753582,-1.74707 4.602078,-8.14026 -3.034101,-12.27946 -0.646042,-0.3502 -0.441529,1.37205 -1.540851,1.40017 -0.185152,0.001 -0.353469,-0.95077 -0.394479,-2.23129 -1.675263,-0.56559 -3.586929,-0.88045 -5.519191,-1.00546 0.01952,0.23514 0.03101,0.47896 0.03408,0.72418 0.01747,1.43069 -0.248854,2.59394 -0.59485,2.59818 -0.346012,0.004 -0.640696,-1.1521 -0.658158,-2.58288 -0.0029,-0.26929 0.0042,-0.53683 0.02136,-0.79302 -2.346936,-0.0598 -4.658327,0.14205 -6.546612,0.49696 0.05369,0.0687 0.107073,0.13817 0.159969,0.20806 0.863229,1.14119 1.426506,2.16955 1.258052,2.2968 -0.168468,0.12717 -1.004643,-0.69462 -1.867736,-1.83564 -0.125803,-0.16674 -0.248074,-0.33495 -0.364116,-0.50097 -1.832469,0.41582 -3.140062,0.98081 -3.480714,1.57043 z"
             inkscape:path-effect="#path-effect3219"
             inkscape:original-d="m 170.63433,133.28881 c -6.57709,5.61119 -12.55631,11.69503 -18.02105,18.0317 -2.18986,-1.15405 -6.79269,-6.42669 -0.71165,-12.62872 0.30311,-0.30915 0.63345,-0.60662 0.98698,-0.89232 a 2.5906716,0.37093648 73.59506 0 0 0.89753,1.77738 2.5906716,0.37093648 73.59506 0 0 -0.27922,-2.24862 c 1.43482,-1.03329 3.16933,-1.89647 4.97936,-2.58426 a 2.5906716,0.62652949 73.59506 0 0 0.18042,0.70217 2.5906716,0.62652949 73.59506 0 0 1.3327,2.30831 2.5906716,0.62652949 73.59506 0 0 -0.13061,-2.66221 2.5906716,0.62652949 73.59506 0 0 -0.25365,-0.75166 c 2.22555,-0.7474 4.49407,-1.23431 6.40322,-1.45047 a 0.38223021,2.5906716 20.000536 0 0 -0.0917,0.24591 0.38223021,2.5906716 20.000536 0 0 -0.52689,2.56522 0.38223021,2.5906716 20.000536 0 0 1.24524,-2.30378 0.38223021,2.5906716 20.000536 0 0 0.20067,-0.5859 c 1.87372,-0.14152 3.28965,0.0139 3.78865,0.47725 z" /><path
             id="path3773"
             style="fill:#5a8f0b;fill-opacity:1;fill-rule:evenodd;stroke-width:0.0408843"
             d="m 169.1121,145.72964 c -5.94635,1.365 -11.67282,3.22084 -17.15986,5.40275 -0.9937,-1.43667 -3.16704,-5.87728 2.6617,-7.77384 0.29055,-0.0945 0.59431,-0.17288 0.90875,-0.2363 -0.128,0.80164 0.26732,3.15535 0.38454,3.18005 0.12831,0.0247 0.97765,-2.75019 1.16977,-3.63366 1.23496,-0.17839 2.60194,-0.15254 3.95894,0.008 -0.0436,0.16069 -0.0828,0.32844 -0.11621,0.49823 -0.19501,0.9907 -0.54892,3.43236 -0.30934,3.47952 0.2396,0.0473 1.68212,-2.01887 1.87714,-3.00962 0.0364,-0.18651 0.0657,-0.37312 0.0865,-0.55311 1.52503,0.15146 1.74662,-0.0228 3.25899,0.70246 -0.0461,0.0408 -0.092,0.0822 -0.13764,0.12395 -0.34849,0.73026 -0.22775,1.12117 -0.19087,1.22319 0.10068,0.1098 0.33104,0.0365 1.07587,-0.64503 0.10863,-0.0996 0.21498,-0.20074 0.31675,-0.30113 1.21862,0.52283 2.05391,1.08205 2.21493,1.53484 z M 49.152161,163.76949 c 6.084811,-0.44427 12.10383,-0.35474 17.98991,0.11685 0.527205,-1.66539 1.298377,-6.5488 -4.830365,-6.64717 -0.305493,-0.005 -0.61887,0.01 -0.938055,0.0414 0.358111,0.72854 0.672534,3.09441 0.567763,3.1525 -0.11537,0.0613 -1.743277,-2.34101 -2.18674,-3.1289 -1.232805,0.19272 -2.531721,0.61947 -3.781485,1.17202 0.08893,0.14076 0.175736,0.28956 0.257606,0.44202 0.477763,0.88952 1.534145,3.1191 1.319031,3.23464 -0.215091,0.11567 -2.201497,-1.43485 -2.679284,-2.32442 -0.08964,-0.16755 -0.172534,-0.33729 -0.245351,-0.5032 -1.413033,0.59329 -1.676074,0.49191 -2.908244,1.6299 0.05606,0.0254 0.112107,0.0515 0.168008,0.078 0.547855,0.59546 0.547427,1.00459 0.542184,1.11295 -0.06393,0.13455 -0.305663,0.13225 -1.217997,-0.30008 -0.133119,-0.0632 -0.264512,-0.12863 -0.391307,-0.19465 -1.010949,0.85812 -1.644821,1.63828 -1.665548,2.1184 z"
             inkscape:path-effect="#path-effect3777"
             inkscape:original-d="m 169.1121,145.72964 c -5.94635,1.365 -11.67282,3.22084 -17.15986,5.40275 -0.9937,-1.43667 -3.16704,-5.87728 2.6617,-7.77384 0.29055,-0.0945 0.59431,-0.17288 0.90875,-0.2363 -0.128,0.80164 0.26732,3.15535 0.38454,3.18005 0.12831,0.0247 0.97765,-2.75019 1.16977,-3.63366 1.23496,-0.17839 2.60194,-0.15254 3.95894,0.008 -0.0436,0.16069 -0.0828,0.32844 -0.11621,0.49823 -0.19501,0.9907 -0.54892,3.43236 -0.30934,3.47952 0.2396,0.0473 1.68212,-2.01887 1.87714,-3.00962 0.0364,-0.18651 0.0657,-0.37312 0.0865,-0.55311 1.52503,0.15146 1.74662,-0.0228 3.25899,0.70246 -0.0461,0.0408 -0.092,0.0822 -0.13764,0.12395 -0.34849,0.73026 -0.22775,1.12117 -0.19087,1.22319 0.10068,0.1098 0.33104,0.0365 1.07587,-0.64503 0.10863,-0.0996 0.21498,-0.20074 0.31675,-0.30113 1.21862,0.52283 2.05391,1.08205 2.21493,1.53484 z"
             sodipodi:nodetypes="ccscccccccccccccc" /><path
             id="path3779"
             style="fill:#5a8f0b;fill-opacity:1;fill-rule:evenodd;stroke-width:0.0443627"
             d="m 137.1497,128.20983 c 2.91477,5.9439 5.2656,12.03805 7.17799,18.15334 1.88992,-0.14476 7.11758,-1.34902 4.73115,-7.55719 -0.11896,-0.30946 -0.26059,-0.61899 -0.42211,-0.92731 -0.58802,0.65588 -2.84165,1.93177 -2.94259,1.84988 -0.10852,-0.0912 1.64915,-2.70388 2.26228,-3.46973 -0.69391,-1.1626 -1.65017,-2.29683 -2.71287,-3.33079 -0.10559,0.1466 -0.22019,0.29425 -0.34039,0.43853 -0.70151,0.84158 -2.51706,2.80896 -2.72059,2.6393 -0.2036,-0.1696 0.55131,-2.79758 1.25286,-3.6392 0.13223,-0.15824 0.26952,-0.31041 0.40692,-0.45103 -1.17015,-1.18155 -1.17481,-1.48739 -2.81982,-2.26602 -0.003,0.0667 -0.007,0.13371 -0.0104,0.20071 -0.37713,0.79288 -0.78907,0.95837 -0.90026,0.99703 -0.16133,-0.01 -0.25706,-0.25399 -0.19193,-1.34754 0.01,-0.15966 0.0222,-0.3184 0.0372,-0.47278 -1.27364,-0.66946 -2.31589,-0.99104 -2.80751,-0.8172 z m -62.601628,9.41418 c -1.037671,6.53828 -1.492154,13.05429 -1.521372,19.46157 -1.848906,0.41749 -7.199538,0.80402 -6.744564,-5.83145 0.02268,-0.33076 0.06701,-0.66825 0.130706,-1.01044 0.754915,0.45393 3.284125,1.01056 3.356515,0.90261 0.0769,-0.11909 -2.371456,-2.09926 -3.182714,-2.6509 0.321282,-1.31527 0.901655,-2.68058 1.613251,-3.98137 0.144037,0.10906 0.296994,0.21648 0.454313,0.31902 0.918002,0.59804 3.231884,1.94443 3.376513,1.72241 0.144713,-0.22198 -1.349732,-2.5117 -2.267784,-3.10976 -0.172922,-0.11235 -0.348895,-0.21741 -0.521576,-0.3114 0.770885,-1.47345 0.685387,-1.76713 2.028634,-2.99514 0.02249,0.0629 0.04602,0.12574 0.06897,0.18877 0.593647,0.64689 1.03604,0.68391 1.153682,0.68816 0.151254,-0.057 0.170989,-0.31837 -0.212888,-1.34439 -0.05652,-0.14966 -0.114864,-0.29779 -0.174606,-0.44093 1.020411,-1.01445 1.921982,-1.62834 2.442986,-1.60678 z"
             inkscape:path-effect="#path-effect3783"
             inkscape:original-d="m 137.1497,128.20983 c 2.91477,5.9439 5.2656,12.03805 7.17799,18.15334 1.88992,-0.14476 7.11758,-1.34902 4.73115,-7.55719 -0.11896,-0.30946 -0.26059,-0.61899 -0.42211,-0.92731 -0.58802,0.65588 -2.84165,1.93177 -2.94259,1.84988 -0.10852,-0.0912 1.64915,-2.70388 2.26228,-3.46973 -0.69391,-1.1626 -1.65017,-2.29683 -2.71287,-3.33079 -0.10559,0.1466 -0.22019,0.29425 -0.34039,0.43853 -0.70151,0.84158 -2.51706,2.80896 -2.72059,2.6393 -0.2036,-0.1696 0.55131,-2.79758 1.25286,-3.6392 0.13223,-0.15824 0.26952,-0.31041 0.40692,-0.45103 -1.17015,-1.18155 -1.17481,-1.48739 -2.81982,-2.26602 -0.003,0.0667 -0.007,0.13371 -0.0104,0.20071 -0.37713,0.79288 -0.78907,0.95837 -0.90026,0.99703 -0.16133,-0.01 -0.25706,-0.25399 -0.19193,-1.34754 0.01,-0.15966 0.0222,-0.3184 0.0372,-0.47278 -1.27364,-0.66946 -2.31589,-0.99104 -2.80751,-0.8172 z"
             sodipodi:nodetypes="ccscccccccccccccc" /><path
             id="path3785"
             style="fill:#5a8f0b;fill-opacity:1;fill-rule:evenodd;stroke-width:0.0328779"
             d="m 129.29118,135.92851 c 4.44887,2.28597 8.26392,5.26753 11.20169,9.15543 1.17077,-0.77627 3.46953,-4.01538 -0.31706,-7.17108 -0.32035,-0.26699 -0.39887,0.71412 -1.01367,0.607 -0.1032,-0.0199 -0.0905,-0.56848 0.0297,-1.28554 -0.86897,-0.50174 -1.89746,-0.89039 -2.95862,-1.17571 -0.0154,0.13303 -0.0363,0.26996 -0.0619,0.40674 -0.15003,0.798 -0.42811,1.41549 -0.62109,1.37922 -0.19301,-0.0362 -0.22813,-0.71249 -0.0778,-1.51061 0.0285,-0.15017 0.0623,-0.29822 0.10044,-0.43885 -1.29917,-0.29531 -2.60776,-0.44111 -3.69804,-0.45448 0.0222,0.0442 0.0442,0.0888 0.0658,0.13363 0.35288,0.73135 0.55145,1.36643 0.44335,1.41847 -0.10793,0.052 -0.48141,-0.4987 -0.83425,-1.2299 -0.0513,-0.10683 -0.10062,-0.21406 -0.14663,-0.3194 -1.06602,0.0267 -1.85665,0.19526 -2.11203,0.48513 z M 84.329181,142.69 c -3.579765,3.49333 -6.349161,7.46508 -8.013512,12.04506 -1.347298,-0.3976 -4.497051,-2.81735 -1.806073,-6.94716 0.227656,-0.3494 0.59126,0.56522 1.147363,0.28202 0.09278,-0.0494 -0.0807,-0.56996 -0.406481,-1.21995 0.682967,-0.73512 1.551661,-1.40908 2.48197,-1.99388 0.05384,0.12262 0.114093,0.24735 0.17879,0.37055 0.378096,0.71858 0.825489,1.22697 0.999266,1.13554 0.173826,-0.0914 0.0085,-0.74807 -0.369932,-1.46668 -0.07141,-0.13514 -0.147254,-0.2667 -0.225069,-0.38989 1.154854,-0.66436 2.362684,-1.18858 3.400809,-1.52203 -0.0082,0.0488 -0.01613,0.0979 -0.02359,0.14708 -0.122172,0.80279 -0.125174,1.46818 -0.0065,1.48612 0.11845,0.018 0.313443,-0.61823 0.435622,-1.42086 0.01761,-0.1172 0.03321,-0.23419 0.04621,-0.3484 1.026723,-0.28801 1.83196,-0.35944 2.161299,-0.1575 z"
             inkscape:path-effect="#path-effect3789"
             inkscape:original-d="m 129.29118,135.92851 c 4.44887,2.28597 8.26392,5.26753 11.20169,9.15543 1.17077,-0.77627 3.46953,-4.01538 -0.31706,-7.17108 -0.18874,-0.1573 -0.39221,-0.30644 -0.60807,-0.44765 -0.14365,0.63683 -0.3107,1.07119 -0.4056,1.05465 -0.1032,-0.0199 -0.0905,-0.56848 0.0297,-1.28554 -0.86897,-0.50174 -1.89746,-0.89039 -2.95862,-1.17571 -0.0154,0.13303 -0.0363,0.26996 -0.0619,0.40674 -0.15003,0.798 -0.42811,1.41549 -0.62109,1.37922 -0.19301,-0.0362 -0.22813,-0.71249 -0.0778,-1.51061 0.0285,-0.15017 0.0623,-0.29822 0.10044,-0.43885 -1.29917,-0.29531 -2.60776,-0.44111 -3.69804,-0.45448 0.0222,0.0442 0.0442,0.0888 0.0658,0.13363 0.35288,0.73135 0.55145,1.36643 0.44335,1.41847 -0.10793,0.052 -0.48141,-0.4987 -0.83425,-1.2299 -0.0513,-0.10683 -0.10062,-0.21406 -0.14663,-0.3194 -1.06602,0.0267 -1.85665,0.19526 -2.11203,0.48513 z"
             sodipodi:nodetypes="ccsccccccccccccccc" /><path
             id="path3908"
             style="fill:#75ae1f;fill-opacity:1;fill-rule:evenodd;stroke-width:0.0280239"
             d="m 160.05385,108.11033 c -1.81794,3.85632 -2.84621,7.85326 -2.81076,12.00668 -1.19441,0.0839 -4.43072,-0.91004 -3.51219,-5.00983 0.0777,-0.34685 0.64054,0.27517 1.00032,-0.11664 0.0591,-0.0672 -0.23426,-0.43113 -0.68807,-0.85315 0.32637,-0.79055 0.81931,-1.58759 1.38801,-2.33178 0.0793,0.0821 0.16483,0.16347 0.25353,0.24227 0.51601,0.46123 1.0248,0.7339 1.13634,0.60909 0.11151,-0.12482 -0.21635,-0.59982 -0.73242,-1.06104 -0.097,-0.0869 -0.19708,-0.1691 -0.29594,-0.24428 0.72434,-0.8746 1.53273,-1.6531 2.26238,-2.22872 0.008,0.0415 0.0163,0.083 0.025,0.12445 0.14163,0.67749 0.33747,1.20977 0.43741,1.1888 0.1,-0.0209 0.0661,-0.5871 -0.0755,-1.26448 -0.0208,-0.0988 -0.0433,-0.19692 -0.0669,-0.292 0.73416,-0.53588 1.35581,-0.833 1.67907,-0.76973 z M 46.74543,125.14991 c 2.871728,3.15108 5.030072,6.66881 6.217766,10.64895 1.166258,-0.2711 3.967097,-2.17292 1.88339,-5.82123 -0.176277,-0.30865 -0.531278,0.45139 -0.990382,0.18273 -0.07625,-0.0469 0.0971,-0.48096 0.406714,-1.01779 -0.544446,-0.65959 -1.250003,-1.2764 -2.012426,-1.82041 -0.05165,0.10179 -0.109461,0.20472 -0.171062,0.30612 -0.357533,0.5926 -0.763624,1.00285 -0.906939,0.91636 -0.143289,-0.0865 0.03037,-0.63692 0.38796,-1.22952 0.06715,-0.11159 0.138628,-0.21959 0.211004,-0.32052 -0.949534,-0.62288 -1.951137,-1.12919 -2.817812,-1.46475 0.0046,0.042 0.0088,0.0841 0.01271,0.1263 0.06389,0.68918 0.03327,1.25552 -0.06842,1.26487 -0.101724,0.009 -0.23585,-0.54169 -0.299739,-1.23076 -0.0092,-0.10055 -0.01653,-0.20094 -0.02194,-0.29876 -0.859298,-0.29625 -1.54084,-0.3974 -1.831194,-0.24185 z"
             inkscape:path-effect="#path-effect3912"
             inkscape:original-d="m 160.05385,108.11033 c -1.81794,3.85632 -2.84621,7.85326 -2.81076,12.00668 -1.19441,0.0839 -4.43072,-0.91004 -3.51219,-5.00983 0.0458,-0.20437 0.10573,-0.41087 0.17821,-0.61844 0.42799,0.35561 0.76658,0.56228 0.82211,0.5018 0.0591,-0.0672 -0.23426,-0.43113 -0.68807,-0.85315 0.32637,-0.79055 0.81931,-1.58759 1.38801,-2.33178 0.0793,0.0821 0.16483,0.16347 0.25353,0.24227 0.51601,0.46123 1.0248,0.7339 1.13634,0.60909 0.11151,-0.12482 -0.21635,-0.59982 -0.73242,-1.06104 -0.097,-0.0869 -0.19708,-0.1691 -0.29594,-0.24428 0.72434,-0.8746 1.53273,-1.6531 2.26238,-2.22872 0.008,0.0415 0.0163,0.083 0.025,0.12445 0.14163,0.67749 0.33747,1.20977 0.43741,1.1888 0.1,-0.0209 0.0661,-0.5871 -0.0755,-1.26448 -0.0208,-0.0988 -0.0433,-0.19692 -0.0669,-0.292 0.73416,-0.53588 1.35581,-0.833 1.67907,-0.76973 z"
             sodipodi:nodetypes="ccsccccccccccccccc" /><path
             id="path4173"
             style="fill:#5a8f0b;fill-opacity:1;fill-rule:evenodd;stroke-width:0.0328779"
             d="m 154.37466,134.33214 c -2.66099,4.23523 -4.42205,8.74556 -4.96626,13.58808 -1.40296,-0.0706 -5.03222,-1.6845 -3.38447,-6.3301 0.13935,-0.39305 0.70731,0.41085 1.18151,0.005 0.0787,-0.0697 -0.21208,-0.53515 -0.68117,-1.09065 0.4916,-0.87475 1.17807,-1.73358 1.94534,-2.52019 0.0811,0.10655 0.16891,0.2137 0.26069,0.3183 0.53602,0.60991 1.09014,0.99924 1.23763,0.86962 0.14757,-0.12957 -0.16713,-0.72921 -0.70348,-1.33906 -0.1011,-0.11465 -0.20568,-0.22475 -0.3102,-0.32627 0.96691,-0.9166 2.01818,-1.70937 2.94919,-2.27691 0.004,0.0494 0.007,0.099 0.0116,0.1485 0.0694,0.80906 0.22253,1.45662 0.34205,1.44625 0.11936,-0.0103 0.15977,-0.67448 0.0904,-1.48339 -0.0103,-0.11806 -0.0227,-0.23545 -0.0368,-0.34953 0.93059,-0.5207 1.69663,-0.77892 2.06414,-0.65982 z m -94.489044,14.20948 c 3.788933,3.26528 6.798651,7.05817 8.74304,11.52645 1.320144,-0.48011 4.314214,-3.09004 1.37301,-7.04555 -0.248788,-0.33468 -0.555189,0.60071 -1.127782,0.35228 -0.09572,-0.0435 0.0453,-0.57385 0.330268,-1.24275 -0.727133,-0.69148 -1.635834,-1.31042 -2.60052,-1.83657 -0.04618,0.12569 -0.09859,0.25392 -0.155544,0.38089 -0.332929,0.74058 -0.748034,1.27567 -0.927123,1.19516 -0.179152,-0.0804 -0.05473,-0.74611 0.27853,-1.48674 0.06291,-0.13931 0.130481,-0.2753 0.200519,-0.40307 -1.193728,-0.59168 -2.431665,-1.04019 -3.488418,-1.30881 0.01071,0.0484 0.02243,0.0967 0.03259,0.14535 0.171625,0.79368 0.215723,1.45764 0.09844,1.48288 -0.11711,0.0253 -0.351077,-0.59766 -0.522687,-1.39119 -0.02488,-0.11587 -0.04755,-0.23171 -0.06763,-0.3449 -1.042575,-0.22397 -1.850679,-0.24546 -2.166906,-0.0235 z"
             inkscape:path-effect="#path-effect4177"
             inkscape:original-d="m 154.37466,134.33214 c -2.66099,4.23523 -4.42205,8.74556 -4.96626,13.58808 -1.40296,-0.0706 -5.03222,-1.6845 -3.38447,-6.3301 0.0821,-0.23157 0.18109,-0.46362 0.29476,-0.69517 0.44834,0.47453 0.81355,0.76296 0.88675,0.70033 0.0787,-0.0697 -0.21208,-0.53515 -0.68117,-1.09065 0.4916,-0.87475 1.17807,-1.73358 1.94534,-2.52019 0.0811,0.10655 0.16891,0.2137 0.26069,0.3183 0.53602,0.60991 1.09014,0.99924 1.23763,0.86962 0.14757,-0.12957 -0.16713,-0.72921 -0.70348,-1.33906 -0.1011,-0.11465 -0.20568,-0.22475 -0.3102,-0.32627 0.96691,-0.9166 2.01818,-1.70937 2.94919,-2.27691 0.004,0.0494 0.007,0.099 0.0116,0.1485 0.0694,0.80906 0.22253,1.45662 0.34205,1.44625 0.11936,-0.0103 0.15977,-0.67448 0.0904,-1.48339 -0.0103,-0.11806 -0.0227,-0.23545 -0.0368,-0.34953 0.93059,-0.5207 1.69663,-0.77892 2.06414,-0.65982 z"
             sodipodi:nodetypes="ccsccccccccccccccc" /></g><path
           id="path8081"
           style="fill:#fffcd7;fill-opacity:1;fill-rule:evenodd;stroke-width:0.267674"
           class="UnoptimicedTransforms"
           inkscape:label="hill highlight"
           d="m 74.839676,139.95895 c -9.185044,0.0163 -21.664446,2.1125 -30.527336,6.9727 v 5.95829 h 119.32812 v -5.95829 c -8.86288,-4.8602 -21.3423,-6.9564 -30.52734,-6.9727 -0.14579,0 -0.28945,0.001 -0.43356,0.002 -8.53675,0.0466 -20.07298,1.89385 -28.70316,6.23425 -8.630173,-4.3404 -20.164354,-6.18765 -28.701092,-6.23425 -0.144107,-7.9e-4 -0.289837,-0.002 -0.435632,-0.002 z"
           transform="translate(0,-0.70037133)" /><path
           id="path5189"
           style="fill:#e18425;fill-opacity:1;fill-rule:evenodd;stroke-width:0.267674"
           class="UnoptimicedTransforms"
           d="m 74.839844,139.95898 c -9.185053,0.0163 -21.664446,2.11246 -30.527344,6.97266 v 18.93555 h 11.228516 c -2.530948,-2.00414 -4.174979,-4.47036 -5.183594,-5.8086 -0.474756,-0.62991 -0.410815,-0.79569 0.375,-0.58398 12.654352,3.40925 18.036967,3.72179 23.732422,5.49219 -0.675197,-1.23951 -1.832335,-3.18299 -2.78711,-4.5625 -0.679941,-0.98241 -0.513173,-1.2945 0.625,-0.88282 5.098096,1.84399 8.030898,3.18312 10.53711,4.42188 -0.380186,-2.10069 -0.36754,-3.55116 -0.390625,-4.33789 -0.01169,-0.39844 0.05927,-1.00173 0.404297,-0.9043 0.65039,0.18366 1.78208,0.79011 3.197265,1.66211 -0.406997,-0.56089 -0.793983,-1.11092 -1.154297,-1.63281 -1.5974,-2.31369 -0.978808,-3.22924 1.69336,-2.25781 5.869652,2.13383 10.418789,3.90181 14.216796,5.46289 -0.25994,-0.9704 -0.49685,-2.08103 -0.68945,-3.01367 -0.232648,-1.12656 0.20468,-1.38523 1.00976,-0.55079 1.3057,1.35334 2.12169,2.39609 2.84961,3.38282 0.72792,-0.98673 1.54391,-2.02948 2.84961,-3.38282 0.80508,-0.83444 1.24241,-0.57577 1.00977,0.55079 -0.1926,0.93264 -0.42756,2.04327 -0.6875,3.01367 3.79801,-1.56108 8.34714,-3.32906 14.21679,-5.46289 2.67217,-0.97143 3.28881,-0.0559 1.69141,2.25781 -0.36031,0.52189 -0.74535,1.07192 -1.15234,1.63281 1.41518,-0.872 2.54492,-1.47845 3.19531,-1.66211 0.34503,-0.0974 0.41599,0.50586 0.4043,0.9043 -0.0231,0.78673 -0.008,2.2372 -0.38868,4.33789 2.50622,-1.23876 5.43706,-2.57789 10.53516,-4.42188 1.13817,-0.41168 1.30689,-0.0996 0.62695,0.88282 -0.95477,1.37951 -2.11386,3.32299 -2.78906,4.5625 5.69546,-1.7704 11.08002,-2.08294 23.73438,-5.49219 0.78581,-0.21171 0.84975,-0.0459 0.375,0.58398 -1.00862,1.33824 -2.65265,3.80446 -5.1836,5.8086 h 11.22656 v -18.93555 c -8.86289,-4.8602 -21.34229,-6.95636 -30.52734,-6.97266 -0.14579,0 -0.28948,0.001 -0.43359,0.002 -8.53675,0.0466 -20.07294,1.89397 -28.70313,6.23437 -8.630181,-4.3404 -20.164423,-6.18777 -28.701169,-6.23437 -0.144108,-7.9e-4 -0.289752,-0.002 -0.435547,-0.002 z"
           inkscape:path-effect="#path-effect6466"
           inkscape:original-d="m 74.839676,139.95946 c -9.185053,0.0163 -21.663404,2.1125 -30.526302,6.9727 v 18.93425 h 11.227222 c -2.530948,-2.00414 -4.175048,-4.46864 -5.183663,-5.80688 -0.474756,-0.62991 -0.411161,-0.79566 0.374654,-0.58395 12.654352,3.40925 18.03798,3.72178 23.733435,5.49218 -0.675197,-1.23951 -1.833169,-3.18404 -2.787944,-4.56355 -0.679941,-0.98241 -0.511854,-1.2938 0.626319,-0.88212 5.098096,1.84399 8.029579,3.18216 10.535791,4.42092 -0.380186,-2.10069 -0.366555,-3.5515 -0.38964,-4.33823 -0.01169,-0.39844 0.05908,-1.00022 0.404109,-0.90279 0.65039,0.18366 1.781003,0.7894 3.196188,1.6614 -0.406997,-0.56089 -0.793104,-1.11109 -1.153418,-1.63298 -1.5974,-2.31369 -0.979249,-3.22969 1.692919,-2.25826 5.869652,2.13383 10.418696,3.90267 14.216704,5.46375 -0.25994,-0.9704 -0.49573,-2.08216 -0.68833,-3.0148 -0.232645,-1.12655 0.20468,-1.3848 1.00976,-0.55036 1.3057,1.35334 2.12152,2.39601 2.84944,3.38274 v -15.55822 c -8.630183,-4.3404 -20.165382,-6.18816 -28.702128,-6.23476 -0.144108,-7.9e-4 -0.289321,-0.001 -0.435116,-0.001 z"
           inkscape:label="hill" /><g
           id="g25729"
           inkscape:label="foreground"><path
             id="path7811"
             style="display:inline;fill:#4f883a;fill-opacity:1;fill-rule:evenodd;stroke-width:0.261434"
             d="m 47.039823,172.60571 c -0.962411,-0.003 -1.870855,0.0328 -2.727483,0.10241 v 10.046 l 25.434381,-0.0843 c -1.041509,-1.71553 -2.774506,-3.13143 -4.658388,-3.58528 -3.361317,-0.80975 -2.646445,0.32814 -4.7656,-0.72654 -1.332439,-0.66315 -5.347758,-5.20584 -9.936861,-5.59868 -1.180666,-0.10104 -2.295284,-0.15026 -3.346049,-0.15367 z m 113.874177,0 c 0.96242,-0.003 1.87086,0.0328 2.72749,0.10241 v 10.046 l -25.43438,-0.0843 c 1.04151,-1.71553 2.7745,-3.13143 4.65838,-3.58528 3.36132,-0.80975 2.64645,0.32814 4.7656,-0.72654 1.33244,-0.66315 5.34776,-5.20584 9.93687,-5.59868 1.18066,-0.10104 2.29528,-0.15026 3.34604,-0.15367 z"
             inkscape:label="foreground"
             inkscape:path-effect="#path-effect8079"
             inkscape:original-d="m 47.039823,172.60571 c -0.962411,-0.003 -1.870855,0.0328 -2.727483,0.10241 v 10.046 l 25.434381,-0.0843 c -1.041509,-1.71553 -2.774506,-3.13143 -4.658388,-3.58528 -3.361317,-0.80975 -2.646445,0.32814 -4.7656,-0.72654 -1.332439,-0.66315 -5.347758,-5.20584 -9.936861,-5.59868 -1.180666,-0.10104 -2.295284,-0.15026 -3.346049,-0.15367 z"
             class="UnoptimicedTransforms"
             sodipodi:nodetypes="cccccsccc" /><path
             id="path25698"
             style="display:inline;fill:#4f883a;fill-opacity:1;fill-rule:evenodd;stroke-width:0.261434"
             d="m 47.039823,172.60571 c -0.962411,-0.003 -1.870855,0.0328 -2.727483,0.10241 v 9.95162 c 0,0 16.779663,-0.20893 25.211707,-0.28923 1.270674,-0.0121 -2.551832,-2.8321 -4.435714,-3.28595 -3.361317,-0.80975 -2.646445,0.32814 -4.7656,-0.72654 -1.332439,-0.66315 -5.347758,-5.20584 -9.936861,-5.59868 -1.180666,-0.10104 -2.295284,-0.15026 -3.346049,-0.15367 z m 113.874177,0 c 0.96242,-0.003 1.87086,0.0328 2.72749,0.10241 v 9.95162 c 0,0 -16.77967,-0.20893 -25.21171,-0.28923 -1.27067,-0.0121 2.55183,-2.8321 4.43571,-3.28595 3.36132,-0.80975 2.64645,0.32814 4.7656,-0.72654 1.33244,-0.66315 5.34776,-5.20584 9.93687,-5.59868 1.18066,-0.10104 2.29528,-0.15026 3.34604,-0.15367 z"
             inkscape:label="foreground"
             inkscape:path-effect="#path-effect25702"
             inkscape:original-d="m 47.039823,172.60571 c -0.962411,-0.003 -1.870855,0.0328 -2.727483,0.10241 v 9.95162 c 0,0 16.779663,-0.20893 25.211707,-0.28923 1.270674,-0.0121 -2.551832,-2.8321 -4.435714,-3.28595 -3.361317,-0.80975 -2.646445,0.32814 -4.7656,-0.72654 -1.332439,-0.66315 -5.347758,-5.20584 -9.936861,-5.59868 -1.180666,-0.10104 -2.295284,-0.15026 -3.346049,-0.15367 z"
             class="UnoptimicedTransforms"
             sodipodi:nodetypes="cccscsccc"
             transform="matrix(1,0,0,-0.42432443,0,260.02621)" /></g><g
           id="g2416"
           transform="matrix(-0.96281402,-0.27016511,-0.27016511,0.96281402,157.56355,22.278596)"><path
             id="path2412"
             style="fill:#7bca99;fill-opacity:1;fill-rule:evenodd;stroke-width:0.0112412"
             d="m 52.93448,118.85489 c 1.324869,1.02891 2.538066,2.15474 3.653806,3.33418 0.414146,-0.24323 1.470289,-1.099 0.236296,-2.24685 -0.06155,-0.0572 -0.128206,-0.11188 -0.19926,-0.16413 -0.0609,0.21474 -0.432005,0.75593 -0.464097,0.74852 -0.03495,-0.009 0.07462,-0.79904 0.128998,-1.0416 -0.287301,-0.18754 -0.631217,-0.33931 -0.988188,-0.45645 -0.0078,0.0451 -0.01735,0.0915 -0.0287,0.13771 -0.06607,0.26965 -0.260515,0.91952 -0.325728,0.90355 -0.06508,-0.0163 -0.185731,-0.69824 -0.119661,-0.96789 0.01242,-0.0508 0.02685,-0.10064 0.04245,-0.14796 -0.397835,-0.13884 -0.43292,-0.20796 -0.894067,-0.20216 0.0068,0.0156 0.01343,0.0311 0.01996,0.0468 0.0024,0.22247 -0.07302,0.30599 -0.09403,0.32716 -0.03778,0.0158 -0.08674,-0.0292 -0.193616,-0.28542 -0.01561,-0.0373 -0.03035,-0.075 -0.0441,-0.11181 -0.36444,-0.0107 -0.637497,0.032 -0.730066,0.12635 z"
             inkscape:path-effect="#path-effect2420"
             inkscape:original-d="m 52.93448,118.85489 c 1.324869,1.02891 2.538066,2.15474 3.653806,3.33418 0.414146,-0.24323 1.470289,-1.099 0.236296,-2.24685 -0.06155,-0.0572 -0.128206,-0.11188 -0.19926,-0.16413 -0.0609,0.21474 -0.432005,0.75593 -0.464097,0.74852 -0.03495,-0.009 0.07462,-0.79904 0.128998,-1.0416 -0.287301,-0.18754 -0.631217,-0.33931 -0.988188,-0.45645 -0.0078,0.0451 -0.01735,0.0915 -0.0287,0.13771 -0.06607,0.26965 -0.260515,0.91952 -0.325728,0.90355 -0.06508,-0.0163 -0.185731,-0.69824 -0.119661,-0.96789 0.01242,-0.0508 0.02685,-0.10064 0.04245,-0.14796 -0.397835,-0.13884 -0.43292,-0.20796 -0.894067,-0.20216 0.0068,0.0156 0.01343,0.0311 0.01996,0.0468 0.0024,0.22247 -0.07302,0.30599 -0.09403,0.32716 -0.03778,0.0158 -0.08674,-0.0292 -0.193616,-0.28542 -0.01561,-0.0373 -0.03035,-0.075 -0.0441,-0.11181 -0.36444,-0.0107 -0.637497,0.032 -0.730066,0.12635 z"
             sodipodi:nodetypes="ccscccccccccccccc" /><path
             id="path2414"
             style="fill:#7bca99;fill-opacity:1;fill-rule:evenodd;stroke-width:0.0112412"
             d="m 59.725083,117.85151 c -0.414995,1.62533 -0.682335,3.2587 -0.839828,4.8746 -0.476275,0.062 -1.835323,0.0342 -1.565066,-1.62935 0.01353,-0.0829 0.03259,-0.16702 0.05666,-0.25185 0.179838,0.13221 0.804919,0.33191 0.825719,0.30637 0.0222,-0.0284 -0.549147,-0.58522 -0.7409,-0.7434 0.111821,-0.32436 0.290296,-0.6552 0.500328,-0.96671 0.03382,0.0308 0.06984,0.0616 0.107138,0.0912 0.217621,0.17238 0.769855,0.5663 0.811554,0.51368 0.04118,-0.053 -0.281703,-0.66534 -0.499313,-0.83774 -0.04101,-0.0325 -0.08295,-0.063 -0.124286,-0.0908 0.228972,-0.35373 0.214282,-0.42983 0.581723,-0.7084 0.0042,0.0165 0.0085,0.0328 0.01292,0.0492 0.134581,0.17715 0.245367,0.19687 0.274962,0.20067 0.03957,-0.0107 0.05028,-0.0765 -0.02221,-0.34418 -0.01055,-0.039 -0.02205,-0.0778 -0.03375,-0.11534 0.281217,-0.23204 0.52306,-0.36583 0.654043,-0.34812 z"
             inkscape:path-effect="#path-effect2424"
             inkscape:original-d="m 59.725083,117.85151 c -0.414995,1.62533 -0.682335,3.2587 -0.839828,4.8746 -0.476275,0.062 -1.835323,0.0342 -1.565066,-1.62935 0.01353,-0.0829 0.03259,-0.16702 0.05666,-0.25185 0.179838,0.13221 0.804919,0.33191 0.825719,0.30637 0.0222,-0.0284 -0.549147,-0.58522 -0.7409,-0.7434 0.111821,-0.32436 0.290296,-0.6552 0.500328,-0.96671 0.03382,0.0308 0.06984,0.0616 0.107138,0.0912 0.217621,0.17238 0.769855,0.5663 0.811554,0.51368 0.04118,-0.053 -0.281703,-0.66534 -0.499313,-0.83774 -0.04101,-0.0325 -0.08295,-0.063 -0.124286,-0.0908 0.228972,-0.35373 0.214282,-0.42983 0.581723,-0.7084 0.0042,0.0165 0.0085,0.0328 0.01292,0.0492 0.134581,0.17715 0.245367,0.19687 0.274962,0.20067 0.03957,-0.0107 0.05028,-0.0765 -0.02221,-0.34418 -0.01055,-0.039 -0.02205,-0.0778 -0.03375,-0.11534 0.281217,-0.23204 0.52306,-0.36583 0.654043,-0.34812 z"
             sodipodi:nodetypes="ccscccccccccccccc" /></g><g
           id="g1649"
           inkscape:path-effect="#path-effect1651"
           class="UnoptimicedTransforms"><path
             id="path411"
             style="fill:#365c27;fill-opacity:1;fill-rule:evenodd;stroke-width:0.0973653"
             d="m 66.140152,156.78626 c -9.651479,10.86059 -20.076845,20.70055 -30.909537,29.66748 1.864724,3.71867 10.567748,11.63157 21.195125,1.62455 0.529751,-0.49881 1.0408,-1.04376 1.53286,-1.62807 -1.820986,-0.64935 -3.038407,-1.29531 -2.955959,-1.56842 0.09516,-0.29626 1.703511,-0.0635 3.768742,0.5455 0.910083,-1.21133 1.748494,-2.55508 2.513057,-3.98134 1.236638,-2.30689 1.466124,-4.42158 0.824522,-4.62442 -2.292518,-0.72557 -4.00874,-1.76323 -3.833259,-2.31765 0.175302,-0.55451 2.176084,-0.41578 4.468716,0.30985 0.701739,0.22302 1.93771,-1.40565 2.575111,-3.75693 0.620438,-2.28871 1.067527,-4.50997 1.333819,-6.50108 -0.137949,0.0495 -0.2769,0.0981 -0.416317,0.14576 -2.275883,0.77668 -4.213705,1.13405 -4.328065,0.79819 -0.114234,-0.33584 1.637668,-1.23753 3.913163,-2.01406 0.332352,-0.11299 0.665194,-0.21954 0.991277,-0.31731 0.3014,-3.14351 0.08845,-5.5279 -0.673255,-6.38206 z m 75.673528,0 c 9.65147,10.86059 20.07684,20.70055 30.90953,29.66748 -1.86472,3.71867 -10.56775,11.63157 -21.19512,1.62455 -0.52975,-0.49881 -1.0408,-1.04376 -1.53286,-1.62807 1.82098,-0.64935 3.0384,-1.29531 2.95596,-1.56842 -0.0952,-0.29626 -1.70351,-0.0635 -3.76875,0.5455 -0.91008,-1.21133 -1.74849,-2.55508 -2.51305,-3.98134 -1.23664,-2.30689 -1.46613,-4.42158 -0.82452,-4.62442 2.29251,-0.72557 4.00874,-1.76323 3.83325,-2.31765 -0.1753,-0.55451 -2.17608,-0.41578 -4.46871,0.30985 -0.70174,0.22302 -1.93771,-1.40565 -2.57511,-3.75693 -0.62044,-2.28871 -1.06753,-4.50997 -1.33382,-6.50108 0.13795,0.0495 0.2769,0.0981 0.41632,0.14576 2.27588,0.77668 4.2137,1.13405 4.32806,0.79819 0.11423,-0.33584 -1.63767,-1.23753 -3.91316,-2.01406 -0.33235,-0.11299 -0.6652,-0.21954 -0.99128,-0.31731 -0.3014,-3.14351 -0.0884,-5.5279 0.67326,-6.38206 z"
             inkscape:path-effect="#path-effect415"
             inkscape:original-d="m 66.140152,156.78626 c -9.651479,10.86059 -20.076845,20.70055 -30.909537,29.66748 1.864724,3.71867 10.567748,11.63157 21.195125,1.62455 0.529751,-0.49881 1.0408,-1.04376 1.53286,-1.62807 a 4.353847,0.62339073 17.562644 0 1 -2.955959,-1.56842 4.353847,0.62339073 17.562644 0 1 3.768742,0.5455 c 1.784919,-2.37575 3.294144,-5.26085 4.511272,-8.27879 a 4.353847,1.0529368 17.562644 0 1 -1.173693,-0.32697 4.353847,1.0529368 17.562644 0 1 -3.833259,-2.31765 4.353847,1.0529368 17.562644 0 1 4.468716,0.30985 4.353847,1.0529368 17.562644 0 1 1.254364,0.45173 c 1.331364,-3.71411 2.226529,-7.50923 2.654566,-10.70974 a 0.64237084,4.353847 71.157167 0 1 -0.416317,0.14576 0.64237084,4.353847 71.157167 0 1 -4.328065,0.79819 0.64237084,4.353847 71.157167 0 1 3.913163,-2.01406 0.64237084,4.353847 71.157167 0 1 0.991277,-0.31731 c 0.3014,-3.14351 0.08845,-5.5279 -0.673255,-6.38206 z" /><path
             id="path1467"
             style="fill:#365c27;fill-opacity:1;fill-rule:evenodd;stroke-width:0.0520191"
             d="m 63.815461,155.49279 c -7.554714,-1.78433 -14.825738,-4.19141 -21.789521,-7.01143 -1.275794,1.81992 -2.789727,7.91915 4.611085,10.37886 0.368907,0.12262 0.754767,0.22474 1.154322,0.30794 -0.15644,-1.02097 -0.161419,-1.75726 -0.01209,-1.78777 0.163446,-0.0304 0.461846,0.785 0.699221,1.91058 0.101473,0.0153 0.203654,0.0295 0.306495,0.0427 2.591497,0.33191 4.654039,-0.3025 4.586713,-0.65565 -0.240178,-1.26204 -0.187456,-2.33223 0.117757,-2.39031 0.305211,-0.0582 0.747366,0.91785 0.987548,2.17996 0.07308,0.38654 2.077397,0.44197 4.402638,-0.27931 0.496326,-0.15396 0.96938,-0.31635 1.412423,-0.48394 -0.05824,-0.0523 -0.116359,-0.10533 -0.174118,-0.15881 -0.942387,-0.87326 -1.601869,-1.69388 -1.472931,-1.83283 0.128974,-0.13887 0.997259,0.45629 1.939467,1.32939 0.137417,0.12763 0.271927,0.25713 0.400598,0.38567 1.554652,-0.65546 2.621892,-1.36027 2.83039,-1.93507 z m 80.322909,0 c 7.55471,-1.78433 14.82573,-4.19141 21.78952,-7.01143 1.27579,1.81992 2.78972,7.91915 -4.61109,10.37886 -0.3689,0.12262 -0.75476,0.22474 -1.15432,0.30794 0.15644,-1.02097 0.16142,-1.75726 0.0121,-1.78777 -0.16345,-0.0304 -0.46185,0.785 -0.69922,1.91058 -0.10147,0.0153 -0.20365,0.0295 -0.3065,0.0427 -2.59149,0.33191 -4.65403,-0.3025 -4.58671,-0.65565 0.24018,-1.26204 0.18746,-2.33223 -0.11776,-2.39031 -0.30521,-0.0582 -0.74736,0.91785 -0.98754,2.17996 -0.0731,0.38654 -2.0774,0.44197 -4.40264,-0.27931 -0.49633,-0.15396 -0.96938,-0.31635 -1.41242,-0.48394 0.0582,-0.0523 0.11635,-0.10533 0.17411,-0.15881 0.94239,-0.87326 1.60187,-1.69388 1.47293,-1.83283 -0.12897,-0.13887 -0.99725,0.45629 -1.93946,1.32939 -0.13742,0.12763 -0.27193,0.25713 -0.4006,0.38567 -1.55465,-0.65546 -2.62189,-1.36027 -2.83039,-1.93507 z"
             inkscape:path-effect="#path-effect1471"
             inkscape:original-d="m 63.815461,155.49279 c -7.554714,-1.78433 -14.825738,-4.19141 -21.789521,-7.01143 -1.275794,1.81992 -2.789727,7.91915 4.611085,10.37886 0.368907,0.12262 0.754767,0.22474 1.154322,0.30794 a 2.3261153,0.33305688 79.225169 0 1 -0.01209,-1.78777 2.3261153,0.33305688 79.225169 0 1 0.699221,1.91058 c 1.569835,0.23686 3.309268,0.21491 5.037098,0.0219 a 2.3261153,0.56254903 79.225169 0 1 -0.14389,-0.63484 2.3261153,0.56254903 79.225169 0 1 0.117757,-2.39031 2.3261153,0.56254903 79.225169 0 1 0.987548,2.17996 2.3261153,0.56254903 79.225169 0 1 0.105679,0.70441 c 2.084168,-0.31582 4.095815,-0.8573 5.709382,-1.46766 a 2.3261153,0.34319732 42.819692 0 1 -0.174118,-0.15881 2.3261153,0.34319732 42.819692 0 1 -1.472931,-1.83283 2.3261153,0.34319732 42.819692 0 1 1.939467,1.32939 2.3261153,0.34319732 42.819692 0 1 0.400598,0.38567 c 1.554652,-0.65546 2.621892,-1.36027 2.83039,-1.93507 z" /></g></g></g></g></svg>
