<?xml version="1.0" encoding="UTF-8" standalone="no"?>
<!-- Created with Inkscape (http://www.inkscape.org/) -->
<svg width="119.32708mm" height="121.70834mm" viewBox="0 0 119.32708 121.70834" version="1.1" id="svg1797" xml:space="preserve" inkscape:version="1.2 (dc2aedaf03, 2022-05-15)" sodipodi:docname="Highlighted Background_Outback.svg" inkscape:export-filename="Highlighted Background_Outback.png" inkscape:export-xdpi="96" inkscape:export-ydpi="96" xmlns:inkscape="http://www.inkscape.org/namespaces/inkscape" xmlns:sodipodi="http://sodipodi.sourceforge.net/DTD/sodipodi-0.dtd" xmlns:xlink="http://www.w3.org/1999/xlink" xmlns="http://www.w3.org/2000/svg" xmlns:svg="http://www.w3.org/2000/svg"><sodipodi:namedview id="namedview1799" pagecolor="#505050" bordercolor="#ffffff" borderopacity="1" inkscape:showpageshadow="0" inkscape:pageopacity="0" inkscape:pagecheckerboard="1" inkscape:deskcolor="#505050" inkscape:document-units="mm" showgrid="false" inkscape:zoom="0.48750832" inkscape:cx="214.35532" inkscape:cy="252.30339" inkscape:window-width="1366" inkscape:window-height="705" inkscape:window-x="-8" inkscape:window-y="-8" inkscape:window-maximized="1" inkscape:current-layer="layer1"/><defs id="defs1794"><inkscape:path-effect effect="mirror_symmetry" start_point="59.82764,181.09494" end_point="59.82764,195.41499" center_point="59.82764,188.25496" id="path-effect40297" is_visible="true" lpeversion="1.2" lpesatellites="" mode="vertical" discard_orig_path="false" fuse_paths="false" oposite_fuse="false" split_items="false" split_open="false" link_styles="false"/><linearGradient inkscape:collect="always" id="linearGradient28604"><stop style="stop-color:#75d8f0;stop-opacity:1;" offset="0" id="stop28602"/><stop style="stop-color:#ffffff;stop-opacity:0;" offset="1" id="stop28600"/></linearGradient><inkscape:path-effect effect="mirror_symmetry" start_point="69.608471,172.60554" end_point="69.608471,182.75412" center_point="69.608471,177.67983" id="path-effect26089" is_visible="true" lpeversion="1.2" lpesatellites="" mode="vertical" discard_orig_path="false" fuse_paths="false" oposite_fuse="false" split_items="false" split_open="false" link_styles="false"/><inkscape:path-effect effect="mirror_symmetry" start_point="100.27525,133.54234" end_point="100.27525,148.01968" center_point="100.27525,140.78101" id="path-effect2697" is_visible="true" lpeversion="1.2" lpesatellites="" mode="vertical" discard_orig_path="false" fuse_paths="false" oposite_fuse="false" split_items="false" split_open="false" link_styles="false"/><inkscape:path-effect effect="mirror_symmetry" start_point="93.53111,129.5501" end_point="93.53111,149.6054" center_point="93.53111,139.57775" id="path-effect2200" is_visible="true" lpeversion="1.2" lpesatellites="" mode="vertical" discard_orig_path="false" fuse_paths="false" oposite_fuse="false" split_items="false" split_open="false" link_styles="false"/><inkscape:path-effect effect="tiling" id="path-effect23881" is_visible="true" lpeversion="1" unit="px" seed="1;-1575518399" lpesatellites="" num_rows="1" num_cols="2" gapx="24" gapy="0" offset="-22" offset_type="true" scale="0" rotate="79" mirrorrowsx="false" mirrorrowsy="false" mirrorcolsx="false" mirrorcolsy="false" mirrortrans="false" shrink_interp="false" split_items="true" link_styles="false" interpolate_scalex="false" interpolate_scaley="true" interpolate_rotatex="false" interpolate_rotatey="false" random_scale="false" random_rotate="true" random_gap_y="false" random_gap_x="true" transformorigin="rotate(13.426126,48.01738,123.95761)"/><inkscape:path-effect effect="tiling" id="path-effect21528" is_visible="true" lpeversion="1" unit="px" seed="1;-1575518399" lpesatellites="" num_rows="1" num_cols="3" gapx="24" gapy="0" offset="-22" offset_type="true" scale="0" rotate="79" mirrorrowsx="false" mirrorrowsy="false" mirrorcolsx="false" mirrorcolsy="false" mirrortrans="false" shrink_interp="false" split_items="false" link_styles="false" interpolate_scalex="false" interpolate_scaley="true" interpolate_rotatex="false" interpolate_rotatey="false" random_scale="false" random_rotate="true" random_gap_y="false" random_gap_x="true" transformorigin="rotate(13.426126,48.01738,123.95761)"/><linearGradient inkscape:collect="always" id="linearGradient9215"><stop style="stop-color:#ce3c0e;stop-opacity:1;" offset="0" id="stop9211"/><stop style="stop-color:#fa8037;stop-opacity:1;" offset="1" id="stop9213"/></linearGradient><inkscape:path-effect effect="mirror_symmetry" start_point="69.608471,172.60554" end_point="69.608471,182.75412" center_point="69.608471,177.67983" id="path-effect8079" is_visible="true" lpeversion="1.2" lpesatellites="" mode="vertical" discard_orig_path="false" fuse_paths="false" oposite_fuse="false" split_items="false" split_open="false" link_styles="false"/><inkscape:path-effect effect="mirror_symmetry" start_point="103.97692,139.9594" end_point="103.97692,165.86641" center_point="103.97692,152.9129" id="path-effect6466" is_visible="true" lpeversion="1.2" lpesatellites="" mode="free" discard_orig_path="false" fuse_paths="true" oposite_fuse="false" split_items="false" split_open="false" link_styles="false"/><linearGradient inkscape:collect="always" id="linearGradient1843"><stop style="stop-color:#8ce6f6;stop-opacity:1;" offset="0" id="stop1839"/><stop style="stop-color:#0a96d0;stop-opacity:1;" offset="1" id="stop1841"/></linearGradient><linearGradient inkscape:collect="always" xlink:href="#linearGradient1843" id="linearGradient1845" x1="103.63087" y1="130.07936" x2="103.05769" y2="92.617531" gradientUnits="userSpaceOnUse"/><linearGradient inkscape:collect="always" xlink:href="#linearGradient9215" id="linearGradient9217" x1="103.97691" y1="152.47414" x2="103.97691" y2="189.38972" gradientUnits="userSpaceOnUse" gradientTransform="matrix(1,0,0,1.2949441,0,-44.971344)"/><filter style="color-interpolation-filters:sRGB;" inkscape:label="Drop Shadow" id="filter21053" x="-0.0020359627" y="-0.011812753" width="1.0491472" height="1.0129414"><feFlood flood-opacity="1" flood-color="rgb(255,117,254)" result="flood" id="feFlood21043"/><feComposite in="flood" in2="SourceGraphic" operator="in" result="composite1" id="feComposite21045"/><feGaussianBlur in="composite1" stdDeviation="0" result="blur" id="feGaussianBlur21047"/><feOffset dx="0.46729" dy="-0.2" result="offset" id="feOffset21049"/><feComposite in="SourceGraphic" in2="offset" operator="over" result="composite2" id="feComposite21051"/></filter><filter style="color-interpolation-filters:sRGB" inkscape:label="Drop Shadow" id="filter1818" x="0" y="-0.0066048026" width="1.0061954" height="1.0066048"><feFlood flood-opacity="1" flood-color="rgb(255,117,254)" result="flood" id="feFlood1808"/><feComposite in="flood" in2="SourceGraphic" operator="in" result="composite1" id="feComposite1810"/><feGaussianBlur in="composite1" stdDeviation="0" result="blur" id="feGaussianBlur1812"/><feOffset dx="0.46729" dy="-0.2" result="offset" id="feOffset1814"/><feComposite in="SourceGraphic" in2="offset" operator="over" result="composite2" id="feComposite1816"/></filter><inkscape:path-effect effect="mirror_symmetry" start_point="69.608471,172.60554" end_point="69.608471,182.75412" center_point="69.608471,177.67983" id="path-effect8079-4" is_visible="true" lpeversion="1.2" lpesatellites="" mode="vertical" discard_orig_path="false" fuse_paths="false" oposite_fuse="false" split_items="false" split_open="false" link_styles="false"/><inkscape:path-effect effect="mirror_symmetry" start_point="69.608471,172.60554" end_point="69.608471,182.75412" center_point="69.608471,177.67983" id="path-effect25702" is_visible="true" lpeversion="1.2" lpesatellites="" mode="vertical" discard_orig_path="false" fuse_paths="false" oposite_fuse="false" split_items="false" split_open="false" link_styles="false"/><clipPath clipPathUnits="userSpaceOnUse" id="clipPath602"><rect style="opacity:1;fill:#ffffff;stroke-width:0.1;stroke-linecap:round;stroke-linejoin:round;stroke-miterlimit:9.4" id="rect604" width="92.604164" height="92.604164" x="57.674831" y="93.121498" inkscape:label="crop square"/></clipPath><clipPath clipPathUnits="userSpaceOnUse" id="clipPath590"><rect style="opacity:1;fill:#ffffff;stroke-width:0.1;stroke-linecap:round;stroke-linejoin:round;stroke-miterlimit:9.4" id="rect592" width="92.604164" height="92.604164" x="57.674831" y="93.121498" inkscape:label="crop square"/></clipPath><clipPath clipPathUnits="userSpaceOnUse" id="clipPath586"><rect style="opacity:1;fill:#ffffff;stroke-width:0.1;stroke-linecap:round;stroke-linejoin:round;stroke-miterlimit:9.4" id="rect588" width="92.604164" height="92.604164" x="57.674831" y="93.121498" inkscape:label="crop square"/></clipPath><clipPath clipPathUnits="userSpaceOnUse" id="clipPath566"><rect style="opacity:1;fill:#ffffff;stroke-width:0.1;stroke-linecap:round;stroke-linejoin:round;stroke-miterlimit:9.4" id="rect568" width="92.604164" height="92.604164" x="57.674831" y="94.351036" inkscape:label="crop square"/></clipPath><linearGradient inkscape:collect="always" xlink:href="#linearGradient28604" id="linearGradient28606" x1="203.08533" y1="291.49643" x2="204.31784" y2="232.9431" gradientUnits="userSpaceOnUse"/><filter style="color-interpolation-filters:sRGB;" inkscape:label="Drop Shadow" id="filter38940" x="-0.029358326" y="0" width="1.0293583" height="1.2167319"><feFlood flood-opacity="0.290196" flood-color="rgb(113,3,3)" result="flood" id="feFlood38930"/><feComposite in="flood" in2="SourceGraphic" operator="in" result="composite1" id="feComposite38932"/><feGaussianBlur in="composite1" stdDeviation="0" result="blur" id="feGaussianBlur38934"/><feOffset dx="-0.4" dy="2" result="offset" id="feOffset38936"/><feComposite in="SourceGraphic" in2="offset" operator="over" result="composite2" id="feComposite38938"/></filter><filter style="color-interpolation-filters:sRGB;" inkscape:label="Drop Shadow" id="filter40175" x="-0.057361602" y="0" width="1.0573616" height="1.146989"><feFlood flood-opacity="0.290196" flood-color="rgb(113,3,3)" result="flood" id="feFlood40165"/><feComposite in="flood" in2="SourceGraphic" operator="in" result="composite1" id="feComposite40167"/><feGaussianBlur in="composite1" stdDeviation="0" result="blur" id="feGaussianBlur40169"/><feOffset dx="-0.4" dy="0.7" result="offset" id="feOffset40171"/><feComposite in="SourceGraphic" in2="offset" operator="over" result="composite2" id="feComposite40173"/></filter><filter style="color-interpolation-filters:sRGB;" inkscape:label="Drop Shadow" id="filter59913" x="0" y="0" width="1.0502551" height="1.1068037"><feFlood flood-opacity="0.290196" flood-color="rgb(113,3,3)" result="flood" id="feFlood59903"/><feComposite in="flood" in2="SourceGraphic" operator="in" result="composite1" id="feComposite59905"/><feGaussianBlur in="composite1" stdDeviation="0" result="blur" id="feGaussianBlur59907"/><feOffset dx="0.9" dy="2.8" result="offset" id="feOffset59909"/><feComposite in="SourceGraphic" in2="offset" operator="over" result="composite2" id="feComposite59911"/></filter><clipPath clipPathUnits="userSpaceOnUse" id="clipPath60496"><rect style="opacity:0.808;fill:#a52d0c;fill-opacity:1;stroke-width:0.15875;stroke-linejoin:round;stop-color:#000000" id="rect60498" width="119.32703" height="121.70828" x="44.3134" y="78.569443"/></clipPath><filter style="color-interpolation-filters:sRGB;" inkscape:label="Drop Shadow" id="filter61205" x="0" y="0" width="1" height="1.0290659"><feFlood flood-opacity="0.180392" flood-color="rgb(0,0,0)" result="flood" id="feFlood61195"/><feComposite in="flood" in2="SourceGraphic" operator="in" result="composite1" id="feComposite61197"/><feGaussianBlur in="composite1" stdDeviation="0" result="blur" id="feGaussianBlur61199"/><feOffset dx="2.77556e-17" dy="2" result="offset" id="feOffset61201"/><feComposite in="SourceGraphic" in2="offset" operator="over" result="composite2" id="feComposite61203"/></filter></defs><g inkscape:label="Layer 1" inkscape:groupmode="layer" id="layer1" transform="translate(-44.313374,-78.569412)"><g id="g60494" clip-path="url(#clipPath60496)"><rect style="fill:url(#linearGradient1845);fill-opacity:1;stroke-width:0.636184;stroke-linecap:round;stroke-linejoin:round" id="rect1837" width="119.32708" height="121.70834" x="44.313374" y="78.569412" ry="0" inkscape:label="bg"/><path id="path11110" style="fill:url(#linearGradient9217);fill-opacity:1;stroke-width:0.900629;stroke-linecap:round;stroke-linejoin:round" inkscape:label="bg overlay" d="m 44.313374,152.47394 v 44.25932 c 0,0.12273 0.006,0.24383 0.01809,0.36328 0.01206,0.11945 0.03021,0.23686 0.05374,0.35244 0.02353,0.11558 0.0524,0.22942 0.08682,0.34055 0.03442,0.11112 0.07413,0.21998 0.118855,0.32607 0.04472,0.10609 0.0949,0.20908 0.149345,0.30955 0.05444,0.10046 0.113158,0.19822 0.176734,0.29248 0.06358,0.0943 0.131998,0.18539 0.204122,0.27286 0.07212,0.0875 0.148322,0.17106 0.228409,0.25114 0.08009,0.0801 0.163682,0.15629 0.251148,0.22841 0.08747,0.0721 0.178593,0.14055 0.272851,0.20412 0.09426,0.0636 0.192022,0.12281 0.292489,0.17725 0.100467,0.0545 0.203451,0.10411 0.309542,0.14883 0.106091,0.0447 0.214949,0.0844 0.326078,0.11886 0.111129,0.0344 0.224966,0.0633 0.340548,0.0868 0.115582,0.0235 0.232982,0.0417 0.352433,0.0537 0.119451,0.0121 0.240551,0.0181 0.363285,0.0181 H 160.09597 c 0.12273,0 0.24384,-0.006 0.36329,-0.0181 0.11945,-0.0121 0.23685,-0.0302 0.35243,-0.0537 0.11558,-0.0235 0.22942,-0.0524 0.34055,-0.0868 0.11113,-0.0344 0.21998,-0.0741 0.32608,-0.11886 0.10609,-0.0447 0.20907,-0.0944 0.30954,-0.14883 0.10046,-0.0544 0.19823,-0.11367 0.29249,-0.17725 0.0942,-0.0636 0.18538,-0.13199 0.27285,-0.20412 0.0875,-0.0721 0.17106,-0.14832 0.25114,-0.22841 0.0801,-0.0801 0.15629,-0.16368 0.22841,-0.25114 0.0721,-0.0875 0.14055,-0.1786 0.20413,-0.27286 0.0636,-0.0943 0.12229,-0.19202 0.17673,-0.29248 0.0544,-0.10047 0.10462,-0.20346 0.14934,-0.30955 0.0447,-0.10609 0.0844,-0.21495 0.11886,-0.32607 0.0344,-0.11113 0.0633,-0.22497 0.0868,-0.34055 0.0235,-0.11558 0.0417,-0.23299 0.0537,-0.35244 0.0121,-0.11945 0.0181,-0.24055 0.0181,-0.36328 v -44.25932 z"/><g id="g60398" style="opacity:0.808"><path id="ellipse9177" style="display:inline;fill:#912b0d;fill-opacity:1;fill-rule:evenodd;stroke-width:0.182462" d="M 103.97692 161.75555 A 38.313263 9.176465 0 0 0 65.663492 170.93173 A 38.313263 9.176465 0 0 0 65.733772 171.44695 A 40.767006 8.7394905 0 0 0 63.209895 174.46123 A 40.767006 8.7394905 0 0 0 88.484838 182.54446 A 23.646143 9.176465 0 0 0 103.97692 184.79032 A 23.646143 9.176465 0 0 0 119.46641 182.54549 A 40.767006 8.7394905 0 0 0 144.74394 174.46123 A 40.767006 8.7394905 0 0 0 142.22161 171.43558 A 38.313263 9.176465 0 0 0 142.29034 170.93173 A 38.313263 9.176465 0 0 0 103.97692 161.75555 z "/><ellipse style="display:inline;fill:#731a05;fill-opacity:1;fill-rule:evenodd;stroke-width:0.174003" id="ellipse7390" cx="103.97691" cy="175.53406" rx="30.557541" ry="6.4577742"/></g><g id="g28130" transform="matrix(1,0,0,0.94597599,-88.929398,-86.056011)"><path id="rect24285" style="opacity:1;fill:#af5b30;fill-opacity:1;stroke-width:0.318681;stroke-linejoin:round;stop-color:#000000" d="m 155.42362,227.59814 11.87192,-0.11328 5.19358,-4.53474 10.03033,0.0391 16.14874,-6.55153 c 9.80162,0.45397 19.51662,1.30528 29.12324,2.65358 2.98151,0.41845 4.8177,4.83015 7.79921,5.04916 7.59598,0.55797 8.41092,-3.043 16.32373,0.78327 l 7.79347,22.03318 H 146.51679 Z" sodipodi:nodetypes="cccccsscccc"/><path id="rect25245" style="opacity:1;fill:#a04923;fill-opacity:1;stroke-width:0.115745;stroke-linejoin:round;stop-color:#000000" d="m 162.05745,229.98543 -10.94765,13.66067 103.36386,3.75246 -10.30649,-15.57086 -3.14502,8.59017 -9.14725,-0.49506 -2.41536,2.62981 -4.96042,-7.78919 -11.64425,0.90899 c -1.44739,0.11299 -3.09059,0.722 -4.66741,1.6583 l -4.7315,-5.90455 -0.12299,-0.33538 -0.0729,0.0909 -0.36845,-0.4594 -0.6196,1.6924 -5.40329,6.74222 -6.26939,-0.33951 -2.41536,2.62981 -4.96042,-7.78918 -11.64425,0.90898 c -2.09255,0.16335 -4.59498,1.36125 -6.71328,3.09025 z" sodipodi:nodetypes="ccccccccsccccccccccscc"/><path id="path28598" style="opacity:1;fill:url(#linearGradient28606);fill-opacity:1;stroke-width:0.318681;stroke-linejoin:round;stop-color:#000000" d="m 155.42362,227.59814 11.87192,-0.11328 5.19358,-4.53474 10.03033,0.0391 16.14874,-6.55153 c 9.80162,0.45397 19.51662,1.30528 29.12324,2.65358 2.98151,0.41845 4.8177,4.83015 7.79921,5.04916 7.59598,0.55797 8.41092,-3.043 16.32373,0.78327 l 7.79347,22.03318 H 146.51679 Z" sodipodi:nodetypes="cccccsscccc"/></g><path id="path8081" style="fill:#9c904d;fill-opacity:1;fill-rule:evenodd;stroke-width:0.267674" class="UnoptimicedTransforms" inkscape:label="hill highlight" d="m 74.839676,139.95895 c -9.185044,0.0163 -21.664446,2.1125 -30.527336,6.9727 v 5.95829 h 119.32812 v -5.95829 c -8.86288,-4.8602 -21.3423,-6.9564 -30.52734,-6.9727 -0.14579,0 -0.28945,0.001 -0.43356,0.002 -8.53675,0.0466 -20.07298,1.89385 -28.70316,6.23425 -8.630173,-4.3404 -20.164354,-6.18765 -28.701092,-6.23425 -0.144107,-7.9e-4 -0.289837,-0.002 -0.435632,-0.002 z" transform="translate(0,-1.229538)"/><rect style="fill:#f77b34;stroke-width:0.0600945;stroke-linecap:round;stroke-linejoin:round;stroke-miterlimit:9.4;fill-opacity:1" id="rect29838" width="119.32708" height="3.0332699" x="44.313374" y="197.24448"/><path id="path5189" style="display:inline;fill:#655e2c;fill-opacity:1;fill-rule:evenodd;stroke-width:0.267674" class="UnoptimicedTransforms" inkscape:label="hill" d="m 74.839676,139.95895 c -9.185044,0.0163 -21.664446,2.1125 -30.527336,6.9727 v 5.54229 4.25584 7.40524 c 0,0 39.650712,-6.70872 59.66406,-6.70872 20.01335,0 59.66406,6.70872 59.66406,6.70872 v -7.40524 -4.25584 -5.54229 c -8.86288,-4.8602 -21.3423,-6.9564 -30.52734,-6.9727 -0.14579,0 -0.28945,0.001 -0.43356,0.002 -8.53675,0.0466 -20.07298,1.89385 -28.70316,6.23425 -8.630173,-4.3404 -20.164354,-6.18765 -28.701092,-6.23425 -0.144107,-7.9e-4 -0.289837,-0.002 -0.435632,-0.002 z" sodipodi:nodetypes="cccccacccccccsc"/><path id="ellipse30958" style="fill:#9ccded;fill-opacity:1;fill-rule:evenodd;stroke-width:0.158306" d="M 128.33719 78.569412 C 127.84046 79.483524 130.65459 79.931635 131.32977 80.406509 C 132.35785 80.591384 134.11236 81.807772 132.16951 82.272028 C 128.9036 83.398691 125.34372 83.542993 122.00476 82.736083 C 121.30293 82.756199 119.89534 82.784081 119.55581 82.819799 C 117.00943 83.04829 114.39376 83.115479 111.94284 83.970633 C 111.32258 85.213976 114.39215 85.127518 115.25013 85.408788 C 120.28285 86.095511 125.37971 85.842898 130.38254 85.008812 C 133.46473 84.964992 136.55667 85.535516 139.63727 85.208283 C 141.53416 84.837358 143.14459 83.067342 145.05968 83.239928 C 147.2783 83.439868 148.67052 86.069731 150.83245 86.606648 C 152.71736 87.074764 154.72754 86.610842 156.65432 86.366869 C 158.67143 86.111442 161.91528 86.772158 163.64046 86.059394 L 163.64046 83.356717 C 162.74168 83.049667 161.52211 82.923796 160.74399 82.615677 C 158.57669 81.757471 156.1836 81.62432 154.04828 80.597712 C 152.41232 79.901532 150.7585 79.192142 149.08062 78.569412 L 128.33719 78.569412 z M 122.00476 82.736083 C 122.46523 82.722884 122.68284 82.712244 121.88125 82.707661 C 121.92223 82.717869 121.96371 82.726163 122.00476 82.736083 z "/><path id="ellipse31312" style="fill:#9bcbed;fill-opacity:1;fill-rule:evenodd;stroke-width:0.14192" d="m 88.9039,82.209627 c -1.994093,0.0041 -3.608706,0.500358 -4.835389,1.061462 -0.89265,0.408311 -2.602166,-0.637665 -3.65598,0.118171 -2.556267,1.83345 -12.85517,-3.413137 -14.499933,1.147787 -0.143368,0.397559 0.54027,0.677451 0.909147,0.883696 2.45157,1.370711 5.597759,1.91681 8.167551,2.071832 2.426891,0.146401 6.091678,-0.237296 5.946047,-1.654424 -0.103496,-1.007121 3.191603,-1.463601 4.342056,-0.549753 0.575072,0.4568 8.29572,0.850456 9.190356,0.05576 1.342582,-1.19261 6.721575,-0.594762 6.531705,-0.811525 -0.7957,-0.90842 -7.052742,-0.227525 -8.446832,-0.842018 -1.251851,-0.551804 -1.622274,-1.485136 -3.648728,-1.480988 z" sodipodi:nodetypes="sssaasssssss"/><path id="ellipse31327" style="fill:#bdddf3;fill-opacity:1;fill-rule:evenodd;stroke-width:0.174996" d="m 75.151503,110.29202 c 2.74826,1.49034 4.640892,5.0362 7.747724,5.30366 3.282865,0.28261 2.205518,-1.61958 9.004672,-4.12421 2.32143,-0.85516 6.64869,0.0368 6.9827,2.5137 0.43581,3.23165 -3.87589,5.12075 -7.90921,5.62977 -4.033329,0.50901 -14.456128,-2.27278 -16.188555,-2.36825 -0.942953,-0.0519 -3.004945,1.75943 -8.026556,1.04447 -3.557527,-0.5065 -6.872233,-3.46727 -7.530839,-3.35507 -1.261884,0.21495 -5.51233,2.86691 -7.017494,1.02327 -0.737792,-0.90371 -0.398975,-3.16423 1.136093,-3.32335 2.62842,-0.70713 5.391782,-0.67583 8.014833,-1.36062 2.973737,-0.77636 5.619541,-3.17652 8.689688,-3.09825 1.835698,0.0468 3.478442,1.2372 5.096944,2.11488 z" sodipodi:nodetypes="assazsssaaaaa"/><path id="path32549" style="fill:#9ccced;fill-opacity:1;fill-rule:evenodd;stroke-width:0.0956358" d="m 158.3143,87.995431 c 0.59394,0.11111 1.09719,1.0299 1.65696,1.48105 0.0411,0.0331 0.0991,0.0119 0.12484,0.0899 0.17292,0.52519 0.21425,1.50091 0,1.94613 -0.83257,1.73011 -2.28436,-0.52387 -3.42844,-0.43821 -0.66216,0.0496 -1.32237,0.2619 -1.97189,0.54983 -0.91582,0.40598 -1.76591,1.63059 -2.70004,1.65417 -1.27536,0.0322 -2.59564,-0.70094 -3.70887,-2.07171 -0.16748,-0.20623 -0.47787,-0.48616 -0.41277,-0.88367 0.74697,-4.56085 4.38618,-0.87793 6.58444,-1.14773 0.55277,-0.0678 1.11066,0.0327 1.66002,-0.11834 0.74357,-0.20446 1.44909,-1.20111 2.19575,-1.06144 z" sodipodi:nodetypes="aaaaaaaaaaaa"/><g id="g57535" transform="matrix(0.91727062,0,0,0.84065221,8.3062614,-29.328483)"><path id="path57529" style="opacity:1;fill:#907212;fill-opacity:1;stroke-width:0.127118;stroke-linejoin:round;stop-color:#000000" d="m 163.60429,242.59159 -4.01526,8.10848 -1.4335,-4.22152 -5.75676,7.64563 -3.8685,-9.72078 -2.03605,8.22204 -2.32699,-5.84671 -1.55132,6.26568 -1.72031,-4.3225 -0.95705,3.86363 -6.59236,-5.27244 3.18947,7.10267 -5.37125,-4.29549 6.05691,13.5541 c 0,0 -0.72764,3.905 0.52588,5.03441 8.55311,7.70619 25.48841,7.11666 34.53794,0 0.40406,-0.31776 0.36356,-1.49863 0.36356,-1.49863 l 6.85539,-17.95634 -7.99124,4.97933 -2.45515,-10.99363 -3.65817,7.38781 z" sodipodi:nodetypes="ccccccccccccccaacccccc"/><path id="path57531" style="opacity:1;fill:#7e6318;fill-opacity:1;stroke-width:0.109058;stroke-linejoin:round;stop-color:#000000" d="m 147.06421,253.49826 4.01526,5.96816 1.4335,-3.10722 5.75676,5.62747 3.8685,-7.15486 2.03605,6.05174 2.32699,-4.3034 1.55132,4.61178 1.72031,-3.18152 0.95705,2.84378 6.59236,-3.88072 -3.18947,5.22783 5.37125,-3.16163 -6.05691,9.97632 c 0,0 0.72764,2.87424 -0.52588,3.70552 -8.55311,5.67206 -25.48841,5.23812 -34.53794,0 -0.40406,-0.23389 -0.36356,-1.10306 -0.36356,-1.10306 l -6.85539,-13.21653 7.99124,3.66497 2.45515,-8.09173 3.65817,5.43771 z" sodipodi:nodetypes="ccccccccccccccaacccccc"/><path id="path57533" style="opacity:1;fill:#675113;fill-opacity:1;stroke-width:0.0865759;stroke-linejoin:round;stop-color:#000000" d="m 160.61382,261.49637 -2.47478,6.10144 c -0.29456,-1.05886 -0.58912,-2.1177 -0.88367,-3.17655 -1.1829,1.9177 -2.36625,3.83544 -3.54913,5.75313 l -2.38436,-7.3148 c -0.41836,2.06228 -0.83686,4.12495 -1.25522,6.18722 -0.47815,-1.46648 -0.95639,-2.93324 -1.43453,-4.39973 -0.31877,1.57158 -0.63725,3.14338 -0.95602,4.71496 -0.35349,-1.08418 -0.70691,-2.16834 -1.0604,-3.25251 -0.19666,0.96908 -0.39349,1.93822 -0.59014,2.90731 -1.35459,-1.32245 -2.70924,-2.64527 -4.06384,-3.96771 0.65538,1.78151 1.31092,3.56337 1.96629,5.34489 l -3.31142,-3.23236 c 0.94336,2.58986 1.91429,5.17659 2.8577,7.76645 7.5054,2.41163 17.32707,2.57654 24.6016,0.10645 1.13644,-3.85321 2.33939,-8.52506 2.33939,-8.52506 -1.64203,1.24892 -3.28429,2.49813 -4.92631,3.74706 -0.50449,-2.75745 -1.00861,-5.51492 -1.51309,-8.27236 l -2.25516,5.55883 c -0.36888,-2.01555 -0.73803,-4.03111 -1.10691,-6.04666 z"/></g><g id="g57543" transform="matrix(-0.90838101,0.04988564,0.04609672,0.83938741,170.67256,-55.290298)"><path id="path57537" style="opacity:1;fill:#907212;fill-opacity:1;stroke-width:0.127118;stroke-linejoin:round;stop-color:#000000" d="m 163.60429,242.59159 -4.01526,8.10848 -1.4335,-4.22152 -5.75676,7.64563 -3.8685,-9.72078 -2.03605,8.22204 -2.32699,-5.84671 -1.55132,6.26568 -1.72031,-4.3225 -0.95705,3.86363 -6.59236,-5.27244 3.18947,7.10267 -5.37125,-4.29549 6.05691,13.5541 c 0,0 -0.72764,3.905 0.52588,5.03441 8.55311,7.70619 25.48841,7.11666 34.53794,0 0.40406,-0.31776 0.36356,-1.49863 0.36356,-1.49863 l 6.85539,-17.95634 -7.99124,4.97933 -2.45515,-10.99363 -3.65817,7.38781 z" sodipodi:nodetypes="ccccccccccccccaacccccc"/><path id="path57539" style="opacity:1;fill:#7e6318;fill-opacity:1;stroke-width:0.109058;stroke-linejoin:round;stop-color:#000000" d="m 147.06421,253.49826 4.01526,5.96816 1.4335,-3.10722 5.75676,5.62747 3.8685,-7.15486 2.03605,6.05174 2.32699,-4.3034 1.55132,4.61178 1.72031,-3.18152 0.95705,2.84378 6.59236,-3.88072 -3.18947,5.22783 5.37125,-3.16163 -6.05691,9.97632 c 0,0 0.72764,2.87424 -0.52588,3.70552 -8.55311,5.67206 -25.48841,5.23812 -34.53794,0 -0.40406,-0.23389 -0.36356,-1.10306 -0.36356,-1.10306 l -6.85539,-13.21653 7.99124,3.66497 2.45515,-8.09173 3.65817,5.43771 z" sodipodi:nodetypes="ccccccccccccccaacccccc"/><path id="path57541" style="opacity:1;fill:#675113;fill-opacity:1;stroke-width:0.0865759;stroke-linejoin:round;stop-color:#000000" d="m 160.61382,261.49637 -2.47478,6.10144 c -0.29456,-1.05886 -0.58912,-2.1177 -0.88367,-3.17655 -1.1829,1.9177 -2.36625,3.83544 -3.54913,5.75313 l -2.38436,-7.3148 c -0.41836,2.06228 -0.83686,4.12495 -1.25522,6.18722 -0.47815,-1.46648 -0.95639,-2.93324 -1.43453,-4.39973 -0.31877,1.57158 -0.63725,3.14338 -0.95602,4.71496 -0.35349,-1.08418 -0.70691,-2.16834 -1.0604,-3.25251 -0.19666,0.96908 -0.39349,1.93822 -0.59014,2.90731 -1.35459,-1.32245 -2.70924,-2.64527 -4.06384,-3.96771 0.65538,1.78151 1.31092,3.56337 1.96629,5.34489 l -3.31142,-3.23236 c 0.94336,2.58986 1.91429,5.17659 2.8577,7.76645 7.5054,2.41163 17.32707,2.57654 24.6016,0.10645 1.13644,-3.85321 2.33939,-8.52506 2.33939,-8.52506 -1.64203,1.24892 -3.28429,2.49813 -4.92631,3.74706 -0.50449,-2.75745 -1.00861,-5.51492 -1.51309,-8.27236 l -2.25516,5.55883 c -0.36888,-2.01555 -0.73803,-4.03111 -1.10691,-6.04666 z"/></g><g id="g57551" transform="matrix(-0.41890808,-0.00332856,-0.02628689,0.44613027,212.32022,40.763728)"><path id="path57545" style="opacity:1;fill:#907212;fill-opacity:1;stroke-width:0.127118;stroke-linejoin:round;stop-color:#000000" d="m 163.60429,242.59159 -4.01526,8.10848 -1.4335,-4.22152 -5.75676,7.64563 -3.8685,-9.72078 -2.03605,8.22204 -2.32699,-5.84671 -1.55132,6.26568 -1.72031,-4.3225 -0.95705,3.86363 -6.59236,-5.27244 3.18947,7.10267 -5.37125,-4.29549 6.05691,13.5541 c 0,0 -0.72764,3.905 0.52588,5.03441 8.55311,7.70619 25.48841,7.11666 34.53794,0 0.40406,-0.31776 0.36356,-1.49863 0.36356,-1.49863 l 6.85539,-17.95634 -7.99124,4.97933 -2.45515,-10.99363 -3.65817,7.38781 z" sodipodi:nodetypes="ccccccccccccccaacccccc"/><path id="path57547" style="opacity:1;fill:#7e6318;fill-opacity:1;stroke-width:0.109058;stroke-linejoin:round;stop-color:#000000" d="m 147.06421,253.49826 4.01526,5.96816 1.4335,-3.10722 5.75676,5.62747 3.8685,-7.15486 2.03605,6.05174 2.32699,-4.3034 1.55132,4.61178 1.72031,-3.18152 0.95705,2.84378 6.59236,-3.88072 -3.18947,5.22783 5.37125,-3.16163 -6.05691,9.97632 c 0,0 0.72764,2.87424 -0.52588,3.70552 -8.55311,5.67206 -25.48841,5.23812 -34.53794,0 -0.40406,-0.23389 -0.36356,-1.10306 -0.36356,-1.10306 l -6.85539,-13.21653 7.99124,3.66497 2.45515,-8.09173 3.65817,5.43771 z" sodipodi:nodetypes="ccccccccccccccaacccccc"/><path id="path57549" style="opacity:1;fill:#675113;fill-opacity:1;stroke-width:0.0865759;stroke-linejoin:round;stop-color:#000000" d="m 160.61382,261.49637 -2.47478,6.10144 c -0.29456,-1.05886 -0.58912,-2.1177 -0.88367,-3.17655 -1.1829,1.9177 -2.36625,3.83544 -3.54913,5.75313 l -2.38436,-7.3148 c -0.41836,2.06228 -0.83686,4.12495 -1.25522,6.18722 -0.47815,-1.46648 -0.95639,-2.93324 -1.43453,-4.39973 -0.31877,1.57158 -0.63725,3.14338 -0.95602,4.71496 -0.35349,-1.08418 -0.70691,-2.16834 -1.0604,-3.25251 -0.19666,0.96908 -0.39349,1.93822 -0.59014,2.90731 -1.35459,-1.32245 -2.70924,-2.64527 -4.06384,-3.96771 0.65538,1.78151 1.31092,3.56337 1.96629,5.34489 l -3.31142,-3.23236 c 0.94336,2.58986 1.91429,5.17659 2.8577,7.76645 7.5054,2.41163 17.32707,2.57654 24.6016,0.10645 1.13644,-3.85321 2.33939,-8.52506 2.33939,-8.52506 -1.64203,1.24892 -3.28429,2.49813 -4.92631,3.74706 -0.50449,-2.75745 -1.00861,-5.51492 -1.51309,-8.27236 l -2.25516,5.55883 c -0.36888,-2.01555 -0.73803,-4.03111 -1.10691,-6.04666 z"/></g><path id="path34269" style="fill:#bdddf3;fill-opacity:1;fill-rule:evenodd;stroke-width:0.0725949" d="m 53.319909,119.8435 c 0.0454,0.0178 0.08536,0.0559 0.100117,0.0897 0.18635,0.42893 0.166358,0.97398 -0.271175,1.15533 -1.863919,0.77259 -7.11128,0.50116 -7.554231,-1.31175 -0.472059,-1.93202 5.115619,-0.94444 7.725301,0.0667 z" sodipodi:nodetypes="aaaaa"/><path id="path34273" style="fill:#c0dff3;fill-opacity:1;fill-rule:evenodd;stroke-width:0.158306" d="M 140.83565 109.98041 C 139.50004 109.98176 138.13626 110.25369 136.8116 110.42121 C 134.06052 110.76958 129.02327 109.41036 128.6767 112.16168 C 128.48851 113.6557 131.32187 113.61801 132.72193 114.17241 C 134.88924 115.03062 137.28233 115.16376 139.41765 116.19037 C 143.8453 118.07455 148.40286 120.05852 153.21732 120.1462 C 156.70171 120.07508 160.26155 119.93219 163.64046 118.93439 L 163.64046 116.97585 C 163.02955 116.76084 162.4084 116.57305 162.13616 116.38157 C 161.10808 116.1967 159.35305 114.98031 161.2959 114.51606 C 162.06316 114.25137 162.84737 114.04347 163.64046 113.88664 L 163.64046 111.69039 C 163.4547 111.7197 163.26889 111.74834 163.08339 111.77927 C 160.0012 111.82307 156.90873 111.25257 153.82814 111.5798 C 151.93125 111.95073 150.32082 113.72075 148.40573 113.54816 C 146.18711 113.34822 144.79541 110.71835 142.63347 110.18144 C 142.04444 110.03515 141.44274 109.9798 140.83565 109.98041 z "/><g id="g39308" style="display:inline" class="UnoptimicedTransforms"><path id="rect34435" style="opacity:1;fill:#9a3013;fill-opacity:1;stroke-width:0.129778;stroke-linejoin:round;filter:url(#filter38940);stop-color:#000000" d="m 46.223563,184.39308 5.469143,-3.29792 5.04947,0.15009 3.085372,3.44172 -1.381889,4.13536 -6.157908,1.50082 -6.084958,-0.91549 z" sodipodi:nodetypes="cccccccc"/><path id="rect36801" style="opacity:1;fill:#bd3b17;fill-opacity:1;stroke-width:0.15875;stroke-linejoin:round;stop-color:#000000" d="m 51.692769,181.09494 -5.469434,3.29799 -0.0021,0.55397 6.59598,2.8143 6.820255,-2.50528 0.19017,-0.56895 -3.0856,-3.44165 z"/><path id="path37309" style="opacity:1;fill:#cf5635;fill-opacity:1;stroke-width:0.15875;stroke-linejoin:round;stop-color:#000000" d="m 59.414261,184.22601 -0.116789,0.34933 -6.820255,2.50579 -6.253882,-2.66857 -0.0021,0.53434 6.59598,2.8143 6.820255,-2.50528 0.19017,-0.56895 z"/><path id="rect39362" style="opacity:1;fill:#bd3b17;fill-opacity:1;stroke-width:0.129095;stroke-linejoin:round;stop-color:#000000;filter:url(#filter40175)" d="m 54.843185,190.65253 h 2.61499 l 1.992373,3.22604 -3.362129,1.53622 -3.611177,-1.38259 z" sodipodi:nodetypes="cccccc"/><path id="path39779" style="opacity:1;fill:#9a3013;fill-opacity:1;stroke-width:0.129095;stroke-linejoin:round;stop-color:#000000" d="m 53.81512,192.12114 -1.337903,1.91099 3.611149,1.38286 3.104203,-1.41852 -4.049365,-0.76532 z"/></g><g id="g59382" transform="matrix(-0.78357659,0.07983609,0.0456698,0.44824072,292.48194,76.933027)" style="filter:url(#filter59913)"><path id="path10200" style="fill:#9a3013;fill-opacity:1;stroke-width:0.0799962;stroke-linecap:round;stroke-linejoin:round;stroke-miterlimit:9.4" d="m 183.69475,153.08561 8.12081,-1.08746 c 0.97829,-0.13103 1.29735,2.08004 1.838,3.60931 5.2766,14.92491 2.82348,11.92331 2.89252,14.77103 0.0376,1.54962 -0.81981,2.90416 -1.83802,2.91731 l -8.47945,4.91311 -5.20386,-4.73654 c -0.85308,-0.77647 -2.11575,-1.36238 -1.83801,-2.91727 l 2.67,-14.94764 c -0.0296,0.16591 1.38082,-2.46063 1.83801,-2.52185 z" sodipodi:nodetypes="ssssscssss"/><path id="path58414" style="fill:#bd3b17;fill-opacity:1;stroke-width:0.0799962;stroke-linecap:round;stroke-linejoin:round;stroke-miterlimit:9.4" d="m 191.9054,151.99284 c -0.0293,-3.9e-4 -0.0593,0.001 -0.0899,0.005 l -8.12095,1.08779 c -0.45719,0.0612 -1.86721,2.68772 -1.83761,2.52181 l -0.64648,3.61735 c 0.24336,-0.15544 0.45923,-0.26339 0.6041,-0.27336 l 2.5616,3.21065 7.76387,-0.19223 0.92656,-3.79305 c 0.073,-0.005 0.14296,-0.005 0.21084,-5.2e-4 v -3.79047 c -0.34908,-1.21033 -0.6968,-2.38421 -1.37201,-2.39313 z"/><path id="path58960" style="fill:#cf5635;fill-opacity:1;stroke-width:0.0799962;stroke-linecap:round;stroke-linejoin:round;stroke-miterlimit:9.4" d="m 192.7901,152.90648 c 0.0132,0.0457 0.0266,0.0905 0.0398,0.13642 v 3.79047 c -0.0679,-0.004 -0.13784,-0.004 -0.21084,5.2e-4 l -0.92656,3.79305 -7.76387,0.19223 -2.45359,-3.07526 -0.26459,1.48104 c 0.24336,-0.15544 0.45923,-0.26339 0.6041,-0.27336 l 2.5616,3.21065 7.76387,-0.19223 0.92656,-3.79305 c 0.073,-0.005 0.14296,-0.005 0.21084,-5.2e-4 v -3.79047 c -0.15348,-0.53214 -0.30641,-1.05735 -0.48731,-1.47949 z"/></g></g></g></svg>